<svg xmlns="http://www.w3.org/2000/svg" width="48" height="48">
<defs>
  <path
     d="M 5.125,8.0000003 C 3.391658,8.0000003 2,9.3044062 2,10.9375 l 0.125,26.90625 c 0,1.207106 1.39166,2.156247 3.125,2.15625 l 37.625,0 C 44.608342,40 46.000002,39.050856 46,37.84375 L 46,16.25 c 0,-1.633093 -1.391662,-2.96875 -3.125,-2.96875 l -16.6875,0 -1.25,-2.34375 C 24.220631,9.0427522 23.15482,7.9345846 21.8125,8.0000003 l -16.6875,0 z m 2.15625,3.6562497 14.78125,0 c 1.189135,-0.05795 2.146191,0.915231 2.78125,2.59375 l 1.09375,2.09375 14.78125,0 c 1.535528,0 2.78125,1.178277 2.78125,2.625 l 0,1.3125 C 43.296061,20.2519 43.091667,20.25 42.875,20.25 l -16.6875,0 -1.25,-1.71875 c -0.716869,-1.400508 -1.78268,-2.235853 -3.125,-2.1875 l -16.6875,0 c -0.2166678,0 -0.4210606,0.03378 -0.625,0.0625 L 4.5,14.25 c 0,-1.446725 1.2457182,-2.59375 2.78125,-2.59375 z"
     id="path-main" />
</defs>
<acyl-settings>
<linearGradient
     id="linearGradient4321">
    <stop
       style="stop-color:#FFFFFF;stop-opacity:1.0;"
       offset="1.0"
       id="stop1" />
  </linearGradient>
<linearGradient
     inkscape:collect="always"
     xlink:href="#linearGradient4321"
     id="acyl_gradient"
     x1="50.0%"
     y1="0.0%"
     x2="50.0%"
     y2="100.0%" />
<filter>
    </filter>
<use id="1" style="fill:url(#acyl_gradient);filter:url(#filter1111)" xlink:href="#path-main" />
</acyl-settings>
</svg>
