<?xml version="1.0" encoding="UTF-8" standalone="no"?>
<!-- Created with Inkscape (http://www.inkscape.org/) -->

<svg
   xmlns:dc="http://purl.org/dc/elements/1.1/"
   xmlns:cc="http://creativecommons.org/ns#"
   xmlns:rdf="http://www.w3.org/1999/02/22-rdf-syntax-ns#"
   xmlns:svg="http://www.w3.org/2000/svg"
   xmlns="http://www.w3.org/2000/svg"
   xmlns:xlink="http://www.w3.org/1999/xlink"
   xmlns:inkscape="http://www.inkscape.org/namespaces/inkscape"
   version="1.0"
   width="96"
   height="96"
   id="svg2"
   style="display:inline">
  <defs
     id="defs4">
    <linearGradient
       id="linearGradient4081">
      <stop
         id="stop4083"
         style="stop-color:#aaaaaa;stop-opacity:1"
         offset="0" />
      <stop
         id="stop4085"
         style="stop-color:#f0f0f0;stop-opacity:1"
         offset="1" />
    </linearGradient>
    <linearGradient
       x1="4.882854"
       y1="-33.967701"
       x2="4.882854"
       y2="-43.829292"
       id="linearGradient2955"
       xlink:href="#linearGradient4081"
       gradientUnits="userSpaceOnUse"
       gradientTransform="matrix(4.4444444,0,0,4.4444444,3.555556,147.04167)" />
  </defs>
  <metadata
     id="metadata7">
    <rdf:RDF>
      <cc:Work
         rdf:about="">
        <dc:format>image/svg+xml</dc:format>
        <dc:type
           rdf:resource="http://purl.org/dc/dcmitype/StillImage" />
      </cc:Work>
    </rdf:RDF>
  </metadata>
  <g
     transform="translate(0,74)"
     id="layer1"
     style="display:inline">
    <path
       d="m 30.53125,-49.9375 c -1.792735,0.202346 -3.164968,1.175643 -4.3125,2.21875 -1.147532,1.043107 -2.116404,2.173506 -3.125,2.9375 -1.309293,1.03524 -2.305983,2.277941 -3.28125,2.84375 -3.19673,0.125083 -6.711997,-0.467046 -10.21875,0.53125 a 0.98188401,0.98188401 0 0 0 -0.0625,0.03125 c -1.938453,0.741787 -3.1866088,2.253002 -3.84375,3.9375 -0.6454065,1.654418 -0.7693726,3.476683 -0.625,5.15625 3.985e-4,0.03101 -3.817e-4,0.06273 0,0.09375 0.07303,5.935151 -0.1592821,11.925169 0.125,17.9375 a 0.98188401,0.98188401 0 0 0 0,0.125 c 0.6541371,4.1949853 4.851407,6.524928 8.75,6.03125 0.04188,-0.0053 0.0832,0.00596 0.125,0 l 6.03125,0 c 2.547293,2.3331893 4.977456,4.8760097 7.71875,7.15625 a 0.98188401,0.98188401 0 0 0 0.125,0.09375 c 1.297402,0.75429153 2.663553,0.94413745 3.875,0.65625 1.211447,-0.28788745 2.2461,-1.0181685 3.0625,-1.9375 1.591477,-1.7921312 2.432102,-4.3554646 2.0625,-6.71875 -0.0096,-0.061362 0.01126,-0.1264298 0,-0.1875 -0.01371,-11.23942 0.01905,-22.472232 -0.03125,-33.71875 a 0.98188401,0.98188401 0 0 0 0,-0.0625 c -0.09064,-1.631226 -0.649351,-3.314822 -1.6875,-4.6875 -1.038149,-1.372678 -2.629815,-2.418492 -4.5625,-2.4375 a 0.98188401,0.98188401 0 0 0 -0.125,0 z"
       inkscape:connector-curvature="0"
       id="path2947"
       style="opacity:0.07999998;fill:#000000;fill-opacity:1;fill-rule:nonzero;stroke:none;display:inline" />
    <path
       d="m 73.21875,-40.09375 c 3.694552,9.777134 3.636972,20.958618 -0.25,30.65625 3.76134,-9.736413 3.883595,-20.844053 0.25,-30.65625 z"
       inkscape:connector-curvature="0"
       id="path2945"
       style="opacity:0.07999998;fill:#000000;fill-opacity:1;fill-rule:nonzero;stroke:none;display:inline" />
    <path
       d="m 58.75,-36.28125 c 2.58633,5.829455 2.942315,12.532984 1.25,18.6875 -0.365119,1.327844 -0.788255,2.648015 -1.34375,3.90625 0.525989,-1.274029 1.005917,-2.572363 1.34375,-3.90625 1.558977,-6.155412 1.116936,-12.802748 -1.25,-18.6875 z"
       inkscape:connector-curvature="0"
       id="path2943"
       style="opacity:0.07999998;fill:#000000;fill-opacity:1;fill-rule:nonzero;stroke:none;display:inline" />
    <path
       d="m 72.875,-9.21875 c -0.423124,1.0375288 -0.925161,2.0326736 -1.4375,3.03125 0.491393,-1.0052899 1.028736,-1.9906386 1.4375,-3.03125 z"
       inkscape:connector-curvature="0"
       id="path3818"
       style="opacity:0.07999998;fill:#000000;fill-opacity:1;fill-rule:nonzero;stroke:none;display:inline" />
    <path
       d="m 30.65625,-48.96875 c -3.001858,0.338819 -4.712753,3.259871 -6.96875,4.96875 -1.203186,0.951343 -2.225794,2.343046 -3.53125,3.03125 -3.422325,0.180722 -6.96213,-0.444881 -10.28125,0.5 -3.3270971,1.273178 -4.1365537,5.013582 -3.84375,8.1875 0.077082,5.999634 -0.1580915,12.012849 0.125,18 0.568362,3.644909 4.326415,5.711478 7.78125,5.21875 l 6.53125,0 c 2.682327,2.4327539 5.187752,5.0617331 7.96875,7.375 4.43749,2.57989547 8.283801,-3.0759015 7.53125,-7.15625 -0.01432,-11.304734 0.01931,-22.602066 -0.03125,-33.90625 -0.159153,-2.864265 -2.094385,-6.187407 -5.28125,-6.21875 z"
       inkscape:connector-curvature="0"
       id="path2956"
       style="opacity:0.1;fill:#000000;fill-opacity:1;fill-rule:nonzero;stroke:none;display:inline" />
    <path
       d="m 30.65625,-47.90625 c -0.345799,-5e-5 -0.63266,0.114392 -0.84375,0.1875 a 0.90418672,0.90418672 0 0 0 -0.03125,0 c -0.374293,0.14485 -0.862389,0.361504 -1.28125,0.75 l -7.71875,7.0625 -8.46875,0 c -2.8961717,0 -5.21875,2.352552 -5.21875,5.3125 l 0,19.03125 c 0,2.959948 2.29149,5.4375 5.21875,5.4375 l 8.59375,0 L 28.5,-3 a 0.90418672,0.90418672 0 0 0 0.03125,0.03125 c 0.633998,0.5503992 1.401951,0.8755416 2.1875,0.875 0.785549,-5.416e-4 1.55368,-0.3273091 2.1875,-0.875 1.277406,-1.1038292 2.007406,-2.9671776 2,-4.9375 l 0,-7.71875 0,-18.71875 0,-7.6875 c 0.01644,-1.685759 -0.519108,-3.294435 -1.46875,-4.4375 -0.727902,-0.876162 -1.724029,-1.437339 -2.78125,-1.4375 z"
       inkscape:connector-curvature="0"
       id="path2965"
       style="opacity:0.15;fill:#000000;fill-opacity:1;fill-rule:nonzero;stroke:none;display:inline" />
    <path
       d="m 30.65625,-47 c -0.242952,-3.5e-5 -0.321146,0.04141 -0.5625,0.125 -0.314988,0.121899 -0.692367,0.306153 -0.96875,0.5625 l -8,7.3125 -8.8125,0 C 9.8890582,-39 8,-37.099262 8,-34.59375 l 0,19.03125 c 0,2.505512 1.8890586,4.53125 4.3125,4.53125 l 8.9375,0 7.875,7.375 c 0.999696,0.867876 2.186633,0.86486 3.1875,0 1.000869,-0.864869 1.693988,-2.523874 1.6875,-4.25 l 0,-7.71875 0,-18.71875 0,-7.6875 c 0.01442,-1.479075 -0.47854,-2.946409 -1.25,-3.875 C 32.171404,-46.602695 31.385111,-46.999889 30.65625,-47 z"
       inkscape:connector-curvature="0"
       id="path3798"
       style="opacity:0.3;fill:#000000;fill-opacity:1;fill-rule:nonzero;stroke:none;display:inline" />
    <path
       d="m 72.15625,-63.84375 -6.09375,6.375 c 8.018391,8.018391 12.90625,19.174259 12.90625,31.40625 0,12.373534 -5.004989,23.616921 -13.1875,31.65625 l 6.25,6.25 C 81.848396,2.169288 88.000004,-11.201171 88,-26.0625 88,-40.853166 81.891375,-54.17963 72.15625,-63.84375 z"
       inkscape:connector-curvature="0"
       id="path3000"
       style="opacity:0.3;fill:#ffffff;fill-opacity:1;fill-rule:nonzero;stroke:none;display:inline" />
    <path
       d="m 61.96875,-53.65625 -6.375,6.375 c 5.212154,5.558897 8.46875,12.971677 8.46875,21.1875 0,8.28201 -3.306201,15.770095 -8.59375,21.34375 l 6.3125,6.3125 c 6.901422,-7.187225 11.15625,-16.911791 11.15625,-27.65625 0,-10.670756 -4.154538,-20.38473 -10.96875,-27.5625 z"
       inkscape:connector-curvature="0"
       id="path2959"
       style="opacity:0.3;fill:#ffffff;fill-opacity:1;fill-rule:nonzero;stroke:none;display:inline" />
    <path
       d="m 30.65625,-48 c -0.242952,-3.5e-5 -0.321146,0.04141 -0.5625,0.125 -0.314988,0.121899 -0.692367,0.306153 -0.96875,0.5625 l -8,7.3125 -8.8125,0 C 9.8890582,-40 8,-38.099262 8,-35.59375 l 0,19.03125 c 0,2.505512 1.8890586,4.53125 4.3125,4.53125 l 8.9375,0 7.875,7.375 c 0.999696,0.867876 2.186633,0.86486 3.1875,0 1.000869,-0.864869 1.693988,-2.523874 1.6875,-4.25 l 0,-7.71875 0,-18.71875 0,-7.6875 c 0.01442,-1.479075 -0.47854,-2.946409 -1.25,-3.875 C 32.171404,-47.602695 31.385111,-47.999889 30.65625,-48 z"
       inkscape:connector-curvature="0"
       id="path2953"
       style="fill:url(#linearGradient2955);fill-opacity:1;fill-rule:nonzero;stroke:none;display:inline" />
    <path
       d="m 51.65625,-43.34375 -6.4375,6.4375 c 2.367766,2.999033 3.84375,6.726611 3.84375,10.84375 0,4.181551 -1.47476,7.982101 -3.90625,11 l 6.375,6.40625 c 4.014675,-4.675512 6.4375,-10.768671 6.4375,-17.40625 0,-6.574734 -2.369266,-12.624424 -6.3125,-17.28125 z"
       inkscape:connector-curvature="0"
       id="path2957"
       style="opacity:0.3;fill:#ffffff;fill-opacity:1;fill-rule:nonzero;stroke:none;display:inline" />
    <path
       d="m 30.65625,26 c -0.242952,-3.5e-5 -0.321146,0.04141 -0.5625,0.125 -0.314988,0.121899 -0.692367,0.306153 -0.96875,0.5625 l -8,7.3125 -8.8125,0 C 9.889058,34 8,35.900738 8,38.40625 l 0,2 C 8,37.900738 9.889058,36 12.3125,36 l 8.8125,0 8,-7.3125 c 0.276383,-0.256347 0.653762,-0.440601 0.96875,-0.5625 0.241354,-0.08359 0.319548,-0.125035 0.5625,-0.125 0.728861,1.11e-4 1.515154,0.397305 2.09375,1.09375 0.77146,0.928591 1.26442,2.395925 1.25,3.875 l 0,-2 c 0.01442,-1.479075 -0.47854,-2.946409 -1.25,-3.875 C 32.171404,26.397305 31.385111,26.000111 30.65625,26 z"
       inkscape:connector-curvature="0"
       transform="translate(0,-74)"
       id="path2983"
       style="opacity:0.6;fill:#ffffff;fill-opacity:1;fill-rule:nonzero;stroke:none;display:inline" />
  </g>
</svg>
