<?xml version="1.0" encoding="UTF-8" standalone="no"?>
<!-- Created with Inkscape (http://www.inkscape.org/) -->

<svg
   xmlns:dc="http://purl.org/dc/elements/1.1/"
   xmlns:cc="http://creativecommons.org/ns#"
   xmlns:rdf="http://www.w3.org/1999/02/22-rdf-syntax-ns#"
   xmlns:svg="http://www.w3.org/2000/svg"
   xmlns="http://www.w3.org/2000/svg"
   xmlns:inkscape="http://www.inkscape.org/namespaces/inkscape"
   version="1.0"
   width="96"
   height="96"
   id="svg2"
   style="display:inline">
  <defs
     id="defs4" />
  <metadata
     id="metadata7">
    <rdf:RDF>
      <cc:Work
         rdf:about="">
        <dc:format>image/svg+xml</dc:format>
        <dc:type
           rdf:resource="http://purl.org/dc/dcmitype/StillImage" />
      </cc:Work>
    </rdf:RDF>
  </metadata>
  <g
     transform="translate(0,74)"
     id="layer1"
     style="display:inline">
    <path
       d="m 73.21875,-40.09375 c 3.694552,9.777134 3.636972,20.958618 -0.25,30.65625 3.76134,-9.736413 3.883595,-20.844053 0.25,-30.65625 z"
       inkscape:connector-curvature="0"
       id="path2945"
       style="opacity:0.07999998;fill:#000000;fill-opacity:1;fill-rule:nonzero;stroke:none;display:inline" />
    <path
       d="m 58.75,-36.28125 c 2.58633,5.829455 2.942315,12.532984 1.25,18.6875 -0.365119,1.327844 -0.788255,2.648015 -1.34375,3.90625 0.525989,-1.274029 1.005917,-2.572363 1.34375,-3.90625 1.558977,-6.155412 1.116936,-12.802748 -1.25,-18.6875 z"
       inkscape:connector-curvature="0"
       id="path2943"
       style="opacity:0.07999998;fill:#000000;fill-opacity:1;fill-rule:nonzero;stroke:none;display:inline" />
    <path
       d="m 72.875,-9.21875 c -0.423124,1.0375288 -0.925161,2.0326736 -1.4375,3.03125 0.491393,-1.0052899 1.028736,-1.9906386 1.4375,-3.03125 z"
       inkscape:connector-curvature="0"
       id="path3818"
       style="opacity:0.07999998;fill:#000000;fill-opacity:1;fill-rule:nonzero;stroke:none;display:inline" />
    <path
       d="m 72.15625,-63.84375 -6.09375,6.375 c 8.018391,8.018391 12.90625,19.174259 12.90625,31.40625 0,12.373534 -5.004989,23.616921 -13.1875,31.65625 l 6.25,6.25 C 81.848396,2.169288 88.000004,-11.201171 88,-26.0625 88,-40.853166 81.891375,-54.17963 72.15625,-63.84375 z"
       inkscape:connector-curvature="0"
       id="path3000"
       style="opacity:0.3;fill:#ffffff;fill-opacity:1;fill-rule:nonzero;stroke:none;display:inline" />
    <path
       d="m 61.96875,-53.65625 -6.375,6.375 c 5.212154,5.558897 8.46875,12.971677 8.46875,21.1875 0,8.28201 -3.306201,15.770095 -8.59375,21.34375 l 6.3125,6.3125 c 6.901422,-7.187225 11.15625,-16.911791 11.15625,-27.65625 0,-10.670756 -4.154538,-20.38473 -10.96875,-27.5625 z"
       inkscape:connector-curvature="0"
       id="path2959"
       style="opacity:0.3;fill:#ffffff;fill-opacity:1;fill-rule:nonzero;stroke:none;display:inline" />
    <path
       d="m 30.65625,-48 c -0.242952,-3.5e-5 -0.321146,0.04141 -0.5625,0.125 -0.314988,0.121899 -0.692367,0.306153 -0.96875,0.5625 l -8,7.3125 -8.8125,0 C 9.8890582,-40 8,-38.099262 8,-35.59375 l 0,19.03125 c 0,2.505512 1.8890586,4.53125 4.3125,4.53125 l 8.9375,0 7.875,7.375 c 0.999696,0.867876 2.186633,0.86486 3.1875,0 1.000869,-0.864869 1.693988,-2.523874 1.6875,-4.25 l 0,-7.71875 0,-18.71875 0,-7.6875 c 0.01442,-1.479075 -0.47854,-2.946409 -1.25,-3.875 C 32.171404,-47.602695 31.385111,-47.999889 30.65625,-48 z"
       inkscape:connector-curvature="0"
       id="path2953"
       style="opacity:0.3;fill:#ffffff;fill-opacity:1;fill-rule:nonzero;stroke:none;display:inline" />
    <path
       d="m 51.65625,-43.34375 -6.4375,6.4375 c 2.367766,2.999033 3.84375,6.726611 3.84375,10.84375 0,4.181551 -1.47476,7.982101 -3.90625,11 l 6.375,6.40625 c 4.014675,-4.675512 6.4375,-10.768671 6.4375,-17.40625 0,-6.574734 -2.369266,-12.624424 -6.3125,-17.28125 z"
       inkscape:connector-curvature="0"
       id="path2957"
       style="opacity:0.3;fill:#ffffff;fill-opacity:1;fill-rule:nonzero;stroke:none;display:inline" />
  </g>
</svg>
