<?xml version="1.0" encoding="UTF-8" standalone="no"?>
<!-- Created with Inkscape (http://www.inkscape.org/) -->

<svg
   xmlns:dc="http://purl.org/dc/elements/1.1/"
   xmlns:cc="http://creativecommons.org/ns#"
   xmlns:rdf="http://www.w3.org/1999/02/22-rdf-syntax-ns#"
   xmlns:svg="http://www.w3.org/2000/svg"
   xmlns="http://www.w3.org/2000/svg"
   xmlns:xlink="http://www.w3.org/1999/xlink"
   xmlns:inkscape="http://www.inkscape.org/namespaces/inkscape"
   version="1.0"
   width="96"
   height="96"
   id="svg2"
   style="display:inline">
  <defs
     id="defs4">
    <linearGradient
       id="linearGradient4081">
      <stop
         id="stop4083"
         style="stop-color:#aaaaaa;stop-opacity:1"
         offset="0" />
      <stop
         id="stop4085"
         style="stop-color:#f0f0f0;stop-opacity:1"
         offset="1" />
    </linearGradient>
    <linearGradient
       x1="39"
       y1="72"
       x2="39.196381"
       y2="24.266857"
       id="linearGradient3763"
       xlink:href="#linearGradient4081"
       gradientUnits="userSpaceOnUse" />
    <linearGradient
       x1="11"
       y1="11.015625"
       x2="19"
       y2="11.015625"
       id="linearGradient2927"
       xlink:href="#linearGradient3183"
       gradientUnits="userSpaceOnUse"
       gradientTransform="matrix(0,-3.0000004,2.9652505,0,13.335916,19.000009)" />
    <linearGradient
       id="linearGradient3183">
      <stop
         id="stop3185"
         style="stop-color:#c80000;stop-opacity:1"
         offset="0" />
      <stop
         id="stop3187"
         style="stop-color:#f3604d;stop-opacity:1"
         offset="1" />
    </linearGradient>
  </defs>
  <metadata
     id="metadata7">
    <rdf:RDF>
      <cc:Work
         rdf:about="">
        <dc:format>image/svg+xml</dc:format>
        <dc:type
           rdf:resource="http://purl.org/dc/dcmitype/StillImage" />
      </cc:Work>
    </rdf:RDF>
  </metadata>
  <g
     transform="translate(0,74)"
     id="layer1"
     style="display:inline">
    <path
       d="m 12,-52.03125 c -4.9542317,0 -9.03125,4.077018 -9.03125,9.03125 l 0,36 c 0,4.9542318 4.0770182,9.03125 9.03125,9.03125 l 66,0 c 4.954232,0 9.03125,-4.0770183 9.03125,-9.03125 l 0,-6.96875 0.96875,0 c 2.75259,0 5.03125,-2.27866 5.03125,-5.03125 l 0,-12 c 0,-2.75259 -2.27866,-5.03125 -5.03125,-5.03125 l -0.96875,0 0,-6.96875 c 0,-4.954232 -4.077018,-9.03125 -9.03125,-9.03125 l -66,0 z m 4,12.0625 58,0 c 0.690105,0 0.96875,0.278645 0.96875,0.96875 l 0,28 c 0,0.690106 -0.278643,0.96875 -0.96875,0.96875 l -58,0 c -0.690107,0 -0.96875,-0.278644 -0.96875,-0.96875 l 0,-28 c 0,-0.690105 0.278645,-0.96875 0.96875,-0.96875 z"
       id="path3797"
       style="opacity:0.07999998;fill:#000000;fill-opacity:1;stroke:none" />
    <path
       d="m 12,-50.96875 c -4.3780676,0 -7.96875,3.590682 -7.96875,7.96875 l 0,36 c 0,4.3780676 3.5906824,7.96875 7.96875,7.96875 l 66,0 c 4.378068,0 7.96875,-3.5906824 7.96875,-7.96875 l 0,-8.03125 2.03125,0 c 2.170657,0 3.96875,-1.798093 3.96875,-3.96875 l 0,-12 c 0,-2.170657 -1.798093,-3.96875 -3.96875,-3.96875 l -2.03125,0 0,-8.03125 c 0,-4.378068 -3.590682,-7.96875 -7.96875,-7.96875 l -66,0 z m 4,9.9375 58,0 c 1.188373,0 2.03125,0.842877 2.03125,2.03125 l 0,28 c 0,1.1883736 -0.842876,2.03125 -2.03125,2.03125 l -58,0 c -1.188374,0 -2.03125,-0.8428764 -2.03125,-2.03125 l 0,-28 c 0,-1.188373 0.842877,-2.03125 2.03125,-2.03125 z"
       id="path3793"
       style="opacity:0.1;fill:#000000;fill-opacity:1;stroke:none" />
    <path
       d="m 12,-50.03125 c -3.8714401,0 -7.03125,3.15981 -7.03125,7.03125 l 0,36 c 0,3.8714401 3.1598099,7.03125 7.03125,7.03125 l 66,0 c 3.87144,0 7.03125,-3.1598099 7.03125,-7.03125 l 0,-8.96875 2.96875,0 c 1.653332,0 3.03125,-1.377918 3.03125,-3.03125 l 0,-12 c 0,-1.653332 -1.377918,-3.03125 -3.03125,-3.03125 l -2.96875,0 0,-8.96875 c 0,-3.87144 -3.15981,-7.03125 -7.03125,-7.03125 l -66,0 z m 4,8.0625 58,0 c 1.670668,0 2.96875,1.298082 2.96875,2.96875 l 0,28 c 0,1.6706681 -1.298082,2.96875 -2.96875,2.96875 l -58,0 c -1.670668,0 -2.96875,-1.2980819 -2.96875,-2.96875 l 0,-28 c 0,-1.670668 1.298082,-2.96875 2.96875,-2.96875 z"
       id="path3789"
       style="opacity:0.15;fill:#000000;fill-opacity:1;stroke:none" />
    <path
       d="m 12,-49 c -3.327333,0 -6,2.672667 -6,6 l 0,36 c 0,3.327333 2.672667,6 6,6 l 66,0 c 3.327333,0 6,-2.672667 6,-6 l 0,-10 4,0 c 1.108,0 2,-0.892 2,-2 l 0,-12 c 0,-1.108 -0.892,-2 -2,-2 l -4,0 0,-10 c 0,-3.327333 -2.672667,-6 -6,-6 l -66,0 z m 4,6 58,0 c 2.216,0 4,1.784 4,4 l 0,28 c 0,2.216 -1.784,4 -4,4 l -58,0 c -2.216,0 -4,-1.784 -4,-4 l 0,-28 c 0,-2.216 1.784,-4 4,-4 z"
       inkscape:connector-curvature="0"
       id="path3783"
       style="opacity:0.3;fill:#000000;fill-opacity:1;stroke:none" />
    <path
       d="m 12,24 c -3.327333,0 -6,2.672667 -6,6 l 0,36 c 0,3.327333 2.672667,6 6,6 l 66,0 c 3.327333,0 6,-2.672667 6,-6 l 0,-10 4,0 c 1.108,0 2,-0.892 2,-2 l 0,-12 c 0,-1.108 -0.892,-2 -2,-2 l -4,0 0,-10 c 0,-3.327333 -2.672667,-6 -6,-6 l -66,0 z m 4,6 58,0 c 2.216,0 4,1.784 4,4 l 0,28 c 0,2.216 -1.784,4 -4,4 l -58,0 c -2.216,0 -4,-1.784 -4,-4 l 0,-28 c 0,-2.216 1.784,-4 4,-4 z"
       inkscape:connector-curvature="0"
       transform="translate(0,-74)"
       id="rect2975"
       style="fill:url(#linearGradient3763);fill-opacity:1;stroke:none" />
    <path
       d="m 12,24 c -3.327333,0 -6,2.672667 -6,6 l 0,1 c 0,-3.327333 2.672667,-6 6,-6 l 66,0 c 3.327333,0 6,2.672667 6,6 l 0,-1 c 0,-3.327333 -2.672667,-6 -6,-6 l -66,0 z m 72,16 0,1 4,0 c 1.108,0 2,0.892 2,2 l 0,-1 c 0,-1.108 -0.892,-2 -2,-2 l -4,0 z m -72,22 0,1 c 0,2.216 1.784,4 4,4 l 58,0 c 2.216,0 4,-1.784 4,-4 l 0,-1 c 0,2.216 -1.784,4 -4,4 l -58,0 c -2.216,0 -4,-1.784 -4,-4 z"
       inkscape:connector-curvature="0"
       transform="translate(0,-74)"
       id="path3765"
       style="opacity:0.75;fill:#ffffff;fill-opacity:1;stroke:none" />
    <path
       d="m 16,29 c -2.216,0 -4,1.784 -4,4 l 0,1 c 0,-2.216 1.784,-4 4,-4 l 58,0 c 2.216,0 4,1.784 4,4 l 0,-1 c 0,-2.216 -1.784,-4 -4,-4 l -58,0 z m 74,24 c 0,1.108 -0.892,2 -2,2 l -4,0 0,1 4,0 c 1.108,0 2,-0.892 2,-2 l 0,-1 z M 6,65 6,66 c 0,3.327333 2.672667,6 6,6 l 66,0 c 3.327333,0 6,-2.672667 6,-6 l 0,-1 c 0,3.327333 -2.672667,6 -6,6 L 12,71 C 8.672667,71 6,68.327333 6,65 z"
       inkscape:connector-curvature="0"
       transform="translate(0,-74)"
       id="path3774"
       style="opacity:0.15;fill:#000000;fill-opacity:1;stroke:none" />
    <path
       d="m 53.84375,-38.96875 c 7.23e-4,-8.4e-5 -0.09447,0.03137 -0.09375,0.03125 7.18e-4,-1.2e-4 -0.09446,1.55e-4 -0.09375,0 7.11e-4,-1.55e-4 -0.09445,0.03144 -0.09375,0.03125 0.001,-2.62e-4 -0.126005,0.03158 -0.125,0.03125 0.001,-3.35e-4 -0.125978,0.06291 -0.125,0.0625 9.78e-4,-4.08e-4 -0.157196,0.06298 -0.15625,0.0625 9.46e-4,-4.78e-4 -0.125908,0.06305 -0.125,0.0625 9.08e-4,-5.45e-4 -0.09462,0.09436 -0.09375,0.09375 8.66e-4,-6.1e-4 -0.12582,0.06317 -0.125,0.0625 8.2e-4,-6.71e-4 -0.09452,0.09448 -0.09375,0.09375 5.77e-4,-5.47e-4 -0.06575,0.06523 -0.09375,0.09375 -0.0093,0.0095 -0.03143,0.03145 -0.03125,0.03125 l -6,6.0625 c 9.53e-4,-0.001 -0.125853,0.157339 -0.125,0.15625 8.53e-4,-0.0011 -0.0945,0.126165 -0.09375,0.125 7.46e-4,-0.0012 -0.09438,0.15748 -0.09375,0.15625 6.32e-4,-0.0012 -0.09426,0.188785 -0.09375,0.1875 5.13e-4,-0.0013 -0.06289,0.157577 -0.0625,0.15625 3.89e-4,-0.0013 -0.03151,0.188858 -0.03125,0.1875 2.61e-4,-0.0014 -0.03138,0.188877 -0.03125,0.1875 1.31e-4,-0.0014 0,0.188883 0,0.1875 0,-0.0014 1.31e-4,0.188877 0,0.1875 -1.31e-4,-0.0014 0.03151,0.188858 0.03125,0.1875 -2.61e-4,-0.0014 0.03164,0.188827 0.03125,0.1875 -3.89e-4,-0.0013 0.06301,0.157535 0.0625,0.15625 -5.13e-4,-0.0013 0.09438,0.18873 0.09375,0.1875 -6.32e-4,-0.0012 0.0945,0.157415 0.09375,0.15625 -7.46e-4,-0.0012 0.0946,0.126089 0.09375,0.125 -8.53e-4,-0.0011 0.125953,0.157253 0.125,0.15625 l 4.5,4.5625 -4.5,4.5625 c 9.53e-4,-0.001 -0.125853,0.157339 -0.125,0.15625 8.53e-4,-0.0011 -0.0945,0.126165 -0.09375,0.125 7.46e-4,-0.0012 -0.09438,0.15748 -0.09375,0.15625 6.32e-4,-0.0012 -0.09426,0.188785 -0.09375,0.1875 5.13e-4,-0.0013 -0.06289,0.157577 -0.0625,0.15625 3.89e-4,-0.0013 -0.03151,0.188858 -0.03125,0.1875 2.61e-4,-0.0014 -0.03138,0.188877 -0.03125,0.1875 1.31e-4,-0.0014 0,0.188883 0,0.1875 0,-0.0014 1.31e-4,0.188877 0,0.1875 -1.31e-4,-0.0014 0.03151,0.188858 0.03125,0.1875 -2.61e-4,-0.0014 0.03164,0.188827 0.03125,0.1875 -3.89e-4,-0.0013 0.06301,0.157535 0.0625,0.15625 -5.13e-4,-0.0013 0.09438,0.18873 0.09375,0.1875 -6.32e-4,-0.0012 0.0945,0.157415 0.09375,0.15625 -7.46e-4,-0.0012 0.0946,0.126089 0.09375,0.125 -8.53e-4,-0.0011 0.125953,0.157253 0.125,0.15625 l 6.03125,6.09375 c -9.87e-4,-0.001 0.126082,0.125927 0.125,0.125 -0.0011,-9.27e-4 0.157418,0.125817 0.15625,0.125 -0.0012,-8.17e-4 0.157492,0.09445 0.15625,0.09375 -0.0012,-6.99e-4 0.188805,0.09432 0.1875,0.09375 -0.0013,-5.74e-4 0.188854,0.06294 0.1875,0.0625 -0.0014,-4.44e-4 0.157641,0.06281 0.15625,0.0625 -0.0014,-3.1e-4 0.188915,0.03142 0.1875,0.03125 -0.0014,-1.72e-4 0.220175,3.3e-5 0.21875,0 -0.0014,-3.3e-5 0.188921,-1.06e-4 0.1875,0 -0.0014,1.06e-4 0.188904,-0.03149 0.1875,-0.03125 -0.0014,2.45e-4 0.188874,-0.03163 0.1875,-0.03125 -0.0014,3.81e-4 0.15758,-0.06301 0.15625,-0.0625 -0.0013,5.13e-4 0.188773,-0.06314 0.1875,-0.0625 -0.0013,6.41e-4 0.157455,-0.09451 0.15625,-0.09375 -0.0012,7.62e-4 0.157374,-0.125876 0.15625,-0.125 -0.0011,8.76e-4 0.157283,-0.125982 0.15625,-0.125 l 4.59375,-4.5625 4.40625,4.5 c -5.08e-4,-5.29e-4 0.06303,0.063 0.0625,0.0625 -5.34e-4,-5.03e-4 0.09431,0.06298 0.09375,0.0625 -5.59e-4,-4.76e-4 0.06308,0.06295 0.0625,0.0625 -5.82e-4,-4.47e-4 0.09435,0.06292 0.09375,0.0625 -6.04e-4,-4.17e-4 0.06312,0.06289 0.0625,0.0625 -6.24e-4,-3.86e-4 0.09439,0.06285 0.09375,0.0625 -6.43e-4,-3.54e-4 0.09441,0.03157 0.09375,0.03125 -6.6e-4,-3.21e-4 0.09443,0.03154 0.09375,0.03125 -6.75e-4,-2.88e-4 0.06319,0.0315 0.0625,0.03125 -6.89e-4,-2.53e-4 0.09445,0.03147 0.09375,0.03125 -7e-4,-2.18e-4 0.09446,0.03143 0.09375,0.03125 -7.11e-4,-1.83e-4 0.125719,0.0314 0.125,0.03125 -7.19e-4,-1.47e-4 0.09448,0.03136 0.09375,0.03125 -7.25e-4,-1.1e-4 0.09448,7.4e-5 0.09375,0 -7.3e-4,-7.4e-5 0.09448,3.7e-5 0.09375,0 -7.33e-4,-3.7e-5 0.09448,0 0.09375,0 -7.34e-4,0 0.09448,-3.7e-5 0.09375,0 -7.33e-4,3.7e-5 0.09448,-7.4e-5 0.09375,0 -7.3e-4,7.4e-5 0.09448,-1.1e-4 0.09375,0 -7.25e-4,1.1e-4 0.09447,-0.0314 0.09375,-0.03125 -7.19e-4,1.47e-4 0.125711,-0.03143 0.125,-0.03125 -7.11e-4,1.83e-4 0.09445,-0.03147 0.09375,-0.03125 -7e-4,2.18e-4 0.09444,-0.0315 0.09375,-0.03125 -6.89e-4,2.53e-4 0.06318,-0.03154 0.0625,-0.03125 -6.75e-4,2.88e-4 0.09441,-0.03157 0.09375,-0.03125 -6.6e-4,3.21e-4 0.09439,-0.0316 0.09375,-0.03125 -6.43e-4,3.54e-4 0.09437,-0.06289 0.09375,-0.0625 -6.24e-4,3.86e-4 0.0631,-0.06292 0.0625,-0.0625 -6.04e-4,4.17e-4 0.09433,-0.06295 0.09375,-0.0625 -5.82e-4,4.47e-4 0.06306,-0.06298 0.0625,-0.0625 -5.59e-4,4.76e-4 0.09428,-0.063 0.09375,-0.0625 -5.34e-4,5.03e-4 0.06301,-0.06303 0.0625,-0.0625 l 6.21875,-6.28125 c -9.82e-4,0.001 0.125876,-0.157374 0.125,-0.15625 -8.76e-4,0.0011 0.125762,-0.157455 0.125,-0.15625 -7.62e-4,0.0012 0.09439,-0.157523 0.09375,-0.15625 -6.41e-4,0.0013 0.06301,-0.18883 0.0625,-0.1875 -5.13e-4,0.0013 0.06288,-0.157624 0.0625,-0.15625 -3.81e-4,0.0014 0.0315,-0.188904 0.03125,-0.1875 -2.45e-4,0.0014 0.03136,-0.188921 0.03125,-0.1875 -1.06e-4,0.0014 -3.3e-5,-0.188925 0,-0.1875 3.3e-5,0.0014 -1.72e-4,-0.220165 0,-0.21875 1.72e-4,0.0014 -0.03156,-0.188891 -0.03125,-0.1875 3.1e-4,0.0014 -0.06294,-0.157604 -0.0625,-0.15625 4.44e-4,0.0014 -0.06307,-0.188805 -0.0625,-0.1875 5.74e-4,0.0013 -0.09445,-0.188742 -0.09375,-0.1875 6.99e-4,0.0012 -0.09457,-0.157418 -0.09375,-0.15625 8.17e-4,0.0012 -0.125927,-0.157332 -0.125,-0.15625 9.27e-4,0.0011 -0.126029,-0.125987 -0.125,-0.125 L 68.9375,-25 l 4.40625,-4.3125 c -0.001,9.87e-4 0.125927,-0.126082 0.125,-0.125 -9.27e-4,0.0011 0.125817,-0.157418 0.125,-0.15625 -8.17e-4,0.0012 0.09445,-0.157492 0.09375,-0.15625 -6.99e-4,0.0012 0.09432,-0.188805 0.09375,-0.1875 -5.74e-4,0.0013 0.06294,-0.188854 0.0625,-0.1875 -4.44e-4,0.0014 0.06281,-0.157641 0.0625,-0.15625 -3.1e-4,0.0014 0.03142,-0.188915 0.03125,-0.1875 -1.72e-4,0.0014 3.3e-5,-0.220175 0,-0.21875 -3.3e-5,0.0014 -1.06e-4,-0.188921 0,-0.1875 1.06e-4,0.0014 -0.0315,-0.188904 -0.03125,-0.1875 2.45e-4,0.0014 -0.03163,-0.188874 -0.03125,-0.1875 3.81e-4,0.0014 -0.06301,-0.15758 -0.0625,-0.15625 5.13e-4,0.0013 -0.06314,-0.188773 -0.0625,-0.1875 6.41e-4,0.0013 -0.09451,-0.157455 -0.09375,-0.15625 7.62e-4,0.0012 -0.125876,-0.157374 -0.125,-0.15625 8.76e-4,0.0011 -0.125982,-0.157283 -0.125,-0.15625 l -6.21875,-6.28125 c 5.08e-4,5.29e-4 -0.06303,-0.063 -0.0625,-0.0625 5.34e-4,5.03e-4 -0.09431,-0.06298 -0.09375,-0.0625 5.59e-4,4.76e-4 -0.06308,-0.06295 -0.0625,-0.0625 5.82e-4,4.47e-4 -0.09435,-0.06292 -0.09375,-0.0625 6.04e-4,4.17e-4 -0.06312,-0.06289 -0.0625,-0.0625 6.24e-4,3.86e-4 -0.09439,-0.06285 -0.09375,-0.0625 6.43e-4,3.54e-4 -0.09441,-0.03157 -0.09375,-0.03125 6.6e-4,3.21e-4 -0.09443,-0.03154 -0.09375,-0.03125 6.75e-4,2.88e-4 -0.06319,-0.0315 -0.0625,-0.03125 6.89e-4,2.53e-4 -0.09445,-0.03147 -0.09375,-0.03125 7e-4,2.18e-4 -0.09446,-0.03143 -0.09375,-0.03125 7.11e-4,1.83e-4 -0.125719,-0.0314 -0.125,-0.03125 7.19e-4,1.47e-4 -0.09448,-0.03136 -0.09375,-0.03125 7.25e-4,1.1e-4 -0.09448,-7.4e-5 -0.09375,0 7.3e-4,7.4e-5 -0.09448,-3.7e-5 -0.09375,0 7.33e-4,3.7e-5 -0.09448,0 -0.09375,0 7.34e-4,0 -0.09448,3.7e-5 -0.09375,0 7.33e-4,-3.7e-5 -0.09448,7.4e-5 -0.09375,0 7.3e-4,-7.4e-5 -0.09448,1.1e-4 -0.09375,0 7.25e-4,-1.1e-4 -0.09447,0.0314 -0.09375,0.03125 7.19e-4,-1.47e-4 -0.125711,0.03143 -0.125,0.03125 7.11e-4,-1.83e-4 -0.09445,0.03147 -0.09375,0.03125 7e-4,-2.18e-4 -0.09444,0.0315 -0.09375,0.03125 6.89e-4,-2.53e-4 -0.06318,0.03154 -0.0625,0.03125 6.75e-4,-2.88e-4 -0.09441,0.03157 -0.09375,0.03125 6.6e-4,-3.21e-4 -0.09439,0.0316 -0.09375,0.03125 6.43e-4,-3.54e-4 -0.09437,0.06289 -0.09375,0.0625 6.24e-4,-3.86e-4 -0.0631,0.06292 -0.0625,0.0625 6.04e-4,-4.17e-4 -0.09433,0.06295 -0.09375,0.0625 5.82e-4,-4.47e-4 -0.06306,0.06298 -0.0625,0.0625 5.59e-4,-4.76e-4 -0.09428,0.063 -0.09375,0.0625 5.34e-4,-5.03e-4 -0.06301,0.06303 -0.0625,0.0625 l -4.40625,4.5 -4.5625,-4.53125 c 1.71e-4,1.72e-4 -0.02075,-0.0212 -0.03125,-0.03125 -0.021,-0.0201 -0.06286,-0.06283 -0.0625,-0.0625 5.39e-4,4.91e-4 -0.06306,-0.06296 -0.0625,-0.0625 5.63e-4,4.63e-4 -0.06309,-0.06294 -0.0625,-0.0625 5.85e-4,4.35e-4 -0.09436,-0.03166 -0.09375,-0.03125 6.06e-4,4.05e-4 -0.09438,-0.06287 -0.09375,-0.0625 6.26e-4,3.74e-4 -0.06314,-0.06284 -0.0625,-0.0625 6.44e-4,3.42e-4 -0.09441,-0.03156 -0.09375,-0.03125 6.6e-4,3.09e-4 -0.09443,-0.03153 -0.09375,-0.03125 6.75e-4,2.76e-4 -0.09444,-0.03149 -0.09375,-0.03125 6.88e-4,2.42e-4 -0.09445,-0.03146 -0.09375,-0.03125 6.99e-4,2.07e-4 -0.09446,-0.03142 -0.09375,-0.03125 7.08e-4,1.72e-4 -0.09447,-0.03139 -0.09375,-0.03125 7.16e-4,1.36e-4 -0.09447,-1e-4 -0.09375,0 7.22e-4,1e-4 -0.09448,-0.03131 -0.09375,-0.03125 7.26e-4,6.4e-5 -0.09448,-2.8e-5 -0.09375,0 7.28e-4,2.8e-5 -0.09448,9e-6 -0.09375,0 a 0.9965754,0.9965754 0 0 0 -0.0625,0 c 7.26e-4,-4.7e-5 -0.09447,8.4e-5 -0.09375,0 z"
       transform="translate(-14,0)"
       id="path3761"
       style="opacity:0.1;fill:#000000;fill-opacity:1;fill-rule:evenodd;stroke:none;display:inline" />
    <path
       d="m 53.8125,-37.9375 a 0.95278301,0.95278301 0 0 0 -0.46875,0.28125 l -6.03125,6.09375 a 0.95278301,0.95278301 0 0 0 0,1.3125 L 52.5,-25 l -5.1875,5.25 a 0.95278301,0.95278301 0 0 0 0,1.3125 l 6.03125,6.09375 a 0.95278301,0.95278301 0 0 0 1.34375,0.03125 l 5.28125,-5.25 5.125,5.21875 a 0.95278301,0.95278301 0 0 0 1.375,0 L 72.6875,-18.625 a 0.95278301,0.95278301 0 0 0 -0.03125,-1.34375 L 67.5,-25 72.65625,-30.03125 A 0.95278301,0.95278301 0 0 0 72.6875,-31.375 l -6.21875,-6.28125 a 0.95278301,0.95278301 0 0 0 -1.375,0 l -5.125,5.21875 -5.28125,-5.25 a 0.95278301,0.95278301 0 0 0 -0.875,-0.25 z"
       transform="translate(-14,0)"
       id="path3757"
       style="opacity:0.15;fill:#000000;fill-opacity:1;fill-rule:evenodd;stroke:none;display:inline" />
    <path
       d="M 34.000001,-19.093748 40.023166,-13 45.953669,-18.906248 51.791502,-13 58,-19.281248 52.16216,-24.999998 58,-30.718748 51.791502,-37 45.953669,-31.09375 40.023166,-37 l -6.023165,6.093751 5.837841,5.906251 -5.837841,5.90625 z"
       inkscape:connector-curvature="0"
       id="path3751"
       style="opacity:0.3;fill:#000000;fill-opacity:1;fill-rule:evenodd;stroke:none;display:inline" />
    <path
       d="M 34.000001,-20.093748 40.023166,-14 45.953669,-19.906248 51.791502,-14 58,-20.281248 52.16216,-25.999998 58,-31.718748 51.791502,-38 45.953669,-32.09375 40.023166,-38 l -6.023165,6.093751 5.837841,5.906251 -5.837841,5.90625 z"
       inkscape:connector-curvature="0"
       id="path7165"
       style="fill:url(#linearGradient2927);fill-opacity:1;fill-rule:evenodd;stroke:none;display:inline" />
    <path
       d="m 40.031251,-38 -6.03125,6.09375 1,1 L 40.031251,-36 45.96875,-30.09375 51.78125,-36 57,-30.75 58,-31.71875 51.78125,-38 45.96875,-32.09375 40.031251,-38 z m -0.194826,11.975812 -5.836424,5.930438 1,1 4.84375,-4.90625 -0.0073,-2.024188 z m 12.342644,0.04727 -0.02282,1.976918 4.84375,4.75 1,-1.03125 -5.820931,-5.695668 z"
       inkscape:connector-curvature="0"
       id="path2970"
       style="opacity:0.2;fill:#ffffff;fill-opacity:1;fill-rule:evenodd;stroke:none;display:inline" />
  </g>
</svg>
