<?xml version="1.0" encoding="UTF-8" standalone="no"?>
<!-- Created with Inkscape (http://www.inkscape.org/) -->

<svg
   xmlns:dc="http://purl.org/dc/elements/1.1/"
   xmlns:cc="http://creativecommons.org/ns#"
   xmlns:rdf="http://www.w3.org/1999/02/22-rdf-syntax-ns#"
   xmlns:svg="http://www.w3.org/2000/svg"
   xmlns="http://www.w3.org/2000/svg"
   xmlns:xlink="http://www.w3.org/1999/xlink"
   xmlns:inkscape="http://www.inkscape.org/namespaces/inkscape"
   version="1.0"
   width="96"
   height="96"
   id="svg2408">
  <defs
     id="defs2410">
    <linearGradient
       id="linearGradient3812">
      <stop
         id="stop3814"
         style="stop-color:#a49265;stop-opacity:1"
         offset="0" />
      <stop
         id="stop3816"
         style="stop-color:#ece8df;stop-opacity:1"
         offset="1" />
    </linearGradient>
    <linearGradient
       id="linearGradient3806">
      <stop
         id="stop3808"
         style="stop-color:#252340;stop-opacity:1"
         offset="0" />
      <stop
         id="stop3810"
         style="stop-color:#484373;stop-opacity:1"
         offset="1" />
    </linearGradient>
    <linearGradient
       id="linearGradient4263">
      <stop
         id="stop4265"
         style="stop-color:#ffffff;stop-opacity:1"
         offset="0" />
      <stop
         id="stop4279"
         style="stop-color:#ffffff;stop-opacity:0.24031007"
         offset="0.5" />
      <stop
         id="stop4267"
         style="stop-color:#ffffff;stop-opacity:0"
         offset="1" />
    </linearGradient>
    <linearGradient
       id="linearGradient4025">
      <stop
         id="stop4027"
         style="stop-color:#a18a56;stop-opacity:1"
         offset="0" />
      <stop
         id="stop4029"
         style="stop-color:#a18a56;stop-opacity:0"
         offset="1" />
    </linearGradient>
    <linearGradient
       id="linearGradient3899">
      <stop
         id="stop3901"
         style="stop-color:#f7edc4;stop-opacity:1"
         offset="0" />
      <stop
         id="stop3903"
         style="stop-color:#c7b586;stop-opacity:1"
         offset="0.80000001" />
      <stop
         id="stop3905"
         style="stop-color:#9d8c64;stop-opacity:1"
         offset="1" />
    </linearGradient>
    <linearGradient
       x1="45.447727"
       y1="92.539597"
       x2="45.447727"
       y2="7.0165396"
       id="ButtonShadow"
       gradientUnits="userSpaceOnUse"
       gradientTransform="scale(1.0058652,0.994169)">
      <stop
         id="stop3750"
         style="stop-color:#000000;stop-opacity:1"
         offset="0" />
      <stop
         id="stop3752"
         style="stop-color:#000000;stop-opacity:0.58823532"
         offset="1" />
    </linearGradient>
    <linearGradient
       id="linearGradient3737">
      <stop
         id="stop3739"
         style="stop-color:#ffffff;stop-opacity:1"
         offset="0" />
      <stop
         id="stop3741"
         style="stop-color:#ffffff;stop-opacity:0"
         offset="1" />
    </linearGradient>
    <filter
       color-interpolation-filters="sRGB"
       id="filter3174">
      <feGaussianBlur
         id="feGaussianBlur3176"
         stdDeviation="1.71" />
    </filter>
    <linearGradient
       x1="36.357143"
       y1="6"
       x2="36.357143"
       y2="63.893143"
       id="linearGradient3188"
       xlink:href="#linearGradient3737"
       gradientUnits="userSpaceOnUse" />
    <filter
       x="-0.192"
       y="-0.192"
       width="1.3839999"
       height="1.3839999"
       color-interpolation-filters="sRGB"
       id="filter3794">
      <feGaussianBlur
         id="feGaussianBlur3796"
         stdDeviation="5.28" />
    </filter>
    <linearGradient
       x1="48"
       y1="20.220806"
       x2="48"
       y2="138.66119"
       id="linearGradient3613"
       xlink:href="#linearGradient3737"
       gradientUnits="userSpaceOnUse" />
    <radialGradient
       cx="48"
       cy="90.171875"
       r="42"
       fx="48"
       fy="90.171875"
       id="radialGradient3619"
       xlink:href="#linearGradient3737"
       gradientUnits="userSpaceOnUse"
       gradientTransform="matrix(1.1573129,0,0,0.99590774,-7.5510206,0.19713193)" />
    <clipPath
       id="clipPath3613">
      <rect
         width="84"
         height="84"
         rx="6"
         ry="6"
         x="6"
         y="6"
         id="rect3615"
         style="fill:#ffffff;fill-opacity:1;fill-rule:nonzero;stroke:none" />
    </clipPath>
    <linearGradient
       x1="48"
       y1="90"
       x2="48"
       y2="6.9368291"
       id="linearGradient3617"
       xlink:href="#linearGradient3806"
       gradientUnits="userSpaceOnUse"
       gradientTransform="translate(-110,0)" />
    <linearGradient
       x1="45.447727"
       y1="92.539597"
       x2="45.447727"
       y2="7.0165396"
       id="ButtonShadow-0"
       gradientUnits="userSpaceOnUse"
       gradientTransform="matrix(1.0058652,0,0,0.994169,100,0)">
      <stop
         id="stop3750-8"
         style="stop-color:#000000;stop-opacity:1"
         offset="0" />
      <stop
         id="stop3752-5"
         style="stop-color:#000000;stop-opacity:0.58823532"
         offset="1" />
    </linearGradient>
    <linearGradient
       x1="32.251034"
       y1="6.1317081"
       x2="32.251034"
       y2="90.238609"
       id="linearGradient3780"
       xlink:href="#ButtonShadow-0"
       gradientUnits="userSpaceOnUse"
       gradientTransform="matrix(1.0238095,0,0,1.0119048,-1.1428571,-98.071429)" />
    <linearGradient
       x1="32.251034"
       y1="6.1317081"
       x2="32.251034"
       y2="90.238609"
       id="linearGradient3772"
       xlink:href="#ButtonShadow-0"
       gradientUnits="userSpaceOnUse"
       gradientTransform="matrix(1.0238095,0,0,1.0119048,-1.1428571,-98.071429)" />
    <linearGradient
       x1="32.251034"
       y1="6.1317081"
       x2="32.251034"
       y2="90.238609"
       id="linearGradient3725"
       xlink:href="#ButtonShadow-0"
       gradientUnits="userSpaceOnUse"
       gradientTransform="matrix(1.0238095,0,0,1.0119048,-1.1428571,-98.071429)" />
    <linearGradient
       x1="32.251034"
       y1="6.1317081"
       x2="32.251034"
       y2="90.238609"
       id="linearGradient3721"
       xlink:href="#ButtonShadow-0"
       gradientUnits="userSpaceOnUse"
       gradientTransform="translate(0,-97)" />
    <linearGradient
       x1="32.251034"
       y1="6.1317081"
       x2="32.251034"
       y2="90.238609"
       id="linearGradient3026"
       xlink:href="#ButtonShadow-0"
       gradientUnits="userSpaceOnUse"
       gradientTransform="matrix(1.0238095,0,0,1.0119048,-1.1428571,-98.071429)" />
    <linearGradient
       id="linearGradient3752-3">
      <stop
         id="stop3754-6"
         style="stop-color:#ffffff;stop-opacity:1"
         offset="0" />
      <stop
         id="stop3756-2"
         style="stop-color:#ffffff;stop-opacity:1"
         offset="0.77642262" />
      <stop
         id="stop3758-7"
         style="stop-color:#bebdc7;stop-opacity:0"
         offset="1" />
    </linearGradient>
    <radialGradient
       cx="64"
       cy="32"
       r="32"
       fx="64"
       fy="32"
       id="radialGradient3891"
       xlink:href="#linearGradient3752-3"
       gradientUnits="userSpaceOnUse" />
    <radialGradient
       cx="52.148148"
       cy="43.851852"
       r="32"
       fx="52.148148"
       fy="43.851852"
       id="radialGradient3897"
       xlink:href="#linearGradient3899"
       gradientUnits="userSpaceOnUse"
       gradientTransform="matrix(1.2641518,-5.24248e-8,5.304999e-8,1.2792274,-13.775027,-12.244636)" />
    <linearGradient
       x1="59.578266"
       y1="22.91832"
       x2="28.571617"
       y2="87.367798"
       id="linearGradient4031"
       xlink:href="#linearGradient4025"
       gradientUnits="userSpaceOnUse" />
    <filter
       color-interpolation-filters="sRGB"
       id="filter4045">
      <feGaussianBlur
         id="feGaussianBlur4047"
         stdDeviation="0.46710064" />
    </filter>
    <filter
       color-interpolation-filters="sRGB"
       id="filter4057">
      <feGaussianBlur
         id="feGaussianBlur4059"
         stdDeviation="0.4121875" />
    </filter>
    <filter
       color-interpolation-filters="sRGB"
       id="filter4082">
      <feGaussianBlur
         id="feGaussianBlur4084"
         stdDeviation="0.3846875" />
    </filter>
    <linearGradient
       id="linearGradient4090">
      <stop
         id="stop4092"
         style="stop-color:#ffffff;stop-opacity:1"
         offset="0" />
      <stop
         id="stop4094"
         style="stop-color:#ffffff;stop-opacity:0"
         offset="1" />
    </linearGradient>
    <linearGradient
       x1="64.995598"
       y1="-0.90906203"
       x2="64.995598"
       y2="55.535763"
       id="linearGradient3034"
       xlink:href="#linearGradient4090"
       gradientUnits="userSpaceOnUse" />
    <linearGradient
       id="linearGradient4215">
      <stop
         id="stop4217"
         style="stop-color:#ffffff;stop-opacity:1"
         offset="0" />
      <stop
         id="stop4219"
         style="stop-color:#ffffff;stop-opacity:0"
         offset="1" />
    </linearGradient>
    <linearGradient
       id="linearGradient4223">
      <stop
         id="stop4225"
         style="stop-color:#ffffff;stop-opacity:1"
         offset="0" />
      <stop
         id="stop4227"
         style="stop-color:#ffffff;stop-opacity:0.15503876"
         offset="1" />
    </linearGradient>
    <radialGradient
       cx="32"
       cy="32"
       r="8"
       fx="32"
       fy="32"
       id="radialGradient4163"
       xlink:href="#linearGradient4215"
       gradientUnits="userSpaceOnUse" />
    <radialGradient
       cx="29.094891"
       cy="31.601685"
       r="7.2449093"
       fx="29.094891"
       fy="31.601685"
       id="radialGradient4165"
       xlink:href="#linearGradient4223"
       gradientUnits="userSpaceOnUse" />
    <radialGradient
       cx="32"
       cy="32"
       r="8"
       fx="32"
       fy="32"
       id="radialGradient4177"
       xlink:href="#linearGradient4215"
       gradientUnits="userSpaceOnUse" />
    <radialGradient
       cx="29.094891"
       cy="31.601685"
       r="7.2449093"
       fx="29.094891"
       fy="31.601685"
       id="radialGradient4179"
       xlink:href="#linearGradient4223"
       gradientUnits="userSpaceOnUse" />
    <radialGradient
       cx="32"
       cy="32"
       r="8"
       fx="32"
       fy="32"
       id="radialGradient4201"
       xlink:href="#linearGradient4215"
       gradientUnits="userSpaceOnUse" />
    <radialGradient
       cx="29.094891"
       cy="31.601685"
       r="7.2449093"
       fx="29.094891"
       fy="31.601685"
       id="radialGradient4203"
       xlink:href="#linearGradient4223"
       gradientUnits="userSpaceOnUse" />
    <radialGradient
       cx="32"
       cy="32"
       r="8"
       fx="32"
       fy="32"
       id="radialGradient4215"
       xlink:href="#linearGradient4215"
       gradientUnits="userSpaceOnUse" />
    <radialGradient
       cx="29.094891"
       cy="31.601685"
       r="7.2449093"
       fx="29.094891"
       fy="31.601685"
       id="radialGradient4217"
       xlink:href="#linearGradient4223"
       gradientUnits="userSpaceOnUse" />
    <radialGradient
       cx="32"
       cy="32"
       r="8"
       fx="32"
       fy="32"
       id="radialGradient4229"
       xlink:href="#linearGradient4215"
       gradientUnits="userSpaceOnUse" />
    <radialGradient
       cx="29.094891"
       cy="31.601685"
       r="7.2449093"
       fx="29.094891"
       fy="31.601685"
       id="radialGradient4231"
       xlink:href="#linearGradient4223"
       gradientUnits="userSpaceOnUse" />
    <radialGradient
       cx="32"
       cy="32"
       r="8"
       fx="32"
       fy="32"
       id="radialGradient4243"
       xlink:href="#linearGradient4215"
       gradientUnits="userSpaceOnUse" />
    <radialGradient
       cx="29.094891"
       cy="31.601685"
       r="7.2449093"
       fx="29.094891"
       fy="31.601685"
       id="radialGradient4245"
       xlink:href="#linearGradient4223"
       gradientUnits="userSpaceOnUse" />
    <radialGradient
       cx="32"
       cy="32"
       r="8"
       fx="32"
       fy="32"
       id="radialGradient4257"
       xlink:href="#linearGradient4215"
       gradientUnits="userSpaceOnUse" />
    <radialGradient
       cx="29.094891"
       cy="31.601685"
       r="7.2449093"
       fx="29.094891"
       fy="31.601685"
       id="radialGradient4259"
       xlink:href="#linearGradient4223"
       gradientUnits="userSpaceOnUse" />
    <radialGradient
       cx="18"
       cy="18"
       r="2"
       fx="18"
       fy="18"
       id="radialGradient4269"
       xlink:href="#linearGradient4263"
       gradientUnits="userSpaceOnUse" />
    <radialGradient
       cx="18"
       cy="18"
       r="2"
       fx="18"
       fy="18"
       id="radialGradient4273"
       xlink:href="#linearGradient4263"
       gradientUnits="userSpaceOnUse" />
    <radialGradient
       cx="18"
       cy="18"
       r="2"
       fx="18"
       fy="18"
       id="radialGradient4277"
       xlink:href="#linearGradient4263"
       gradientUnits="userSpaceOnUse" />
    <radialGradient
       cx="18"
       cy="18"
       r="2"
       fx="18"
       fy="18"
       id="radialGradient4283"
       xlink:href="#linearGradient4263"
       gradientUnits="userSpaceOnUse" />
    <radialGradient
       cx="18"
       cy="18"
       r="2"
       fx="18"
       fy="18"
       id="radialGradient4287"
       xlink:href="#linearGradient4263"
       gradientUnits="userSpaceOnUse" />
    <radialGradient
       cx="18"
       cy="18"
       r="2"
       fx="18"
       fy="18"
       id="radialGradient4291"
       xlink:href="#linearGradient4263"
       gradientUnits="userSpaceOnUse" />
    <radialGradient
       cx="18"
       cy="18"
       r="2"
       fx="18"
       fy="18"
       id="radialGradient4295"
       xlink:href="#linearGradient4263"
       gradientUnits="userSpaceOnUse" />
    <radialGradient
       cx="18"
       cy="18"
       r="2"
       fx="18"
       fy="18"
       id="radialGradient4299"
       xlink:href="#linearGradient4263"
       gradientUnits="userSpaceOnUse" />
    <radialGradient
       cx="18"
       cy="18"
       r="2"
       fx="18"
       fy="18"
       id="radialGradient4303"
       xlink:href="#linearGradient4263"
       gradientUnits="userSpaceOnUse" />
    <radialGradient
       cx="18"
       cy="18"
       r="2"
       fx="18"
       fy="18"
       id="radialGradient4308"
       xlink:href="#linearGradient4263"
       gradientUnits="userSpaceOnUse" />
    <radialGradient
       cx="18"
       cy="18"
       r="2"
       fx="18"
       fy="18"
       id="radialGradient4316"
       xlink:href="#linearGradient4263"
       gradientUnits="userSpaceOnUse" />
    <linearGradient
       x1="21"
       y1="43.000004"
       x2="75"
       y2="43.000004"
       id="linearGradient3818"
       xlink:href="#linearGradient3812"
       gradientUnits="userSpaceOnUse"
       gradientTransform="matrix(0,1,-1,0,91.000004,-4.999996)" />
    <linearGradient
       id="linearGradient3806-0">
      <stop
         id="stop3808-0"
         style="stop-color:#656290;stop-opacity:1"
         offset="0" />
      <stop
         id="stop3810-4"
         style="stop-color:#484373;stop-opacity:1"
         offset="1" />
    </linearGradient>
    <linearGradient
       x1="48"
       y1="90"
       x2="48"
       y2="6.9368291"
       id="linearGradient4134"
       xlink:href="#linearGradient3806-0"
       gradientUnits="userSpaceOnUse" />
  </defs>
  <metadata
     id="metadata2413">
    <rdf:RDF>
      <cc:Work
         rdf:about="">
        <dc:format>image/svg+xml</dc:format>
        <dc:type
           rdf:resource="http://purl.org/dc/dcmitype/StillImage" />
        <dc:title />
      </cc:Work>
    </rdf:RDF>
  </metadata>
  <g
     id="layer2"
     style="display:none">
    <rect
       width="86"
       height="85"
       rx="6"
       ry="6"
       x="5"
       y="7"
       id="rect3745"
       style="opacity:0.9;fill:url(#ButtonShadow);fill-opacity:1;fill-rule:nonzero;stroke:none;filter:url(#filter3174)" />
  </g>
  <g
     id="layer3">
    <path
       d="m 12,-95.03125 c -5.5110903,0 -10.03125,4.52016 -10.03125,10.03125 l 0,71 c 0,5.5110902 4.5201598,10.03125 10.03125,10.03125 l 72,0 c 5.51109,0 10.03125,-4.5201597 10.03125,-10.03125 l 0,-71 c 0,-5.51109 -4.52016,-10.03125 -10.03125,-10.03125 l -72,0 z"
       transform="scale(1,-1)"
       id="path3786"
       style="opacity:0.07999998;fill:url(#linearGradient3026);fill-opacity:1;fill-rule:nonzero;stroke:none;display:inline" />
    <path
       d="m 12,-94.03125 c -4.971633,0 -9.03125,4.059617 -9.03125,9.03125 l 0,71 c 0,4.9716329 4.0596171,9.03125 9.03125,9.03125 l 72,0 c 4.971633,0 9.03125,-4.059617 9.03125,-9.03125 l 0,-71 c 0,-4.971633 -4.059617,-9.03125 -9.03125,-9.03125 l -72,0 z"
       transform="scale(1,-1)"
       id="path3778"
       style="opacity:0.1;fill:url(#linearGradient3780);fill-opacity:1;fill-rule:nonzero;stroke:none;display:inline" />
    <path
       d="m 12,-93 c -4.4091333,0 -8,3.590867 -8,8 l 0,71 c 0,4.4091333 3.5908667,8 8,8 l 72,0 c 4.409133,0 8,-3.5908667 8,-8 l 0,-71 c 0,-4.409133 -3.590867,-8 -8,-8 l -72,0 z"
       transform="scale(1,-1)"
       id="path3770"
       style="opacity:0.2;fill:url(#linearGradient3772);fill-opacity:1;fill-rule:nonzero;stroke:none;display:inline" />
    <rect
       width="86"
       height="85"
       rx="7"
       ry="7"
       x="5"
       y="-92"
       transform="scale(1,-1)"
       id="rect3723"
       style="opacity:0.3;fill:url(#linearGradient3725);fill-opacity:1;fill-rule:nonzero;stroke:none;display:inline" />
    <rect
       width="84"
       height="84"
       rx="6"
       ry="6"
       x="6"
       y="-91"
       transform="scale(1,-1)"
       id="rect3716"
       style="opacity:0.45;fill:url(#linearGradient3721);fill-opacity:1;fill-rule:nonzero;stroke:none;display:inline" />
  </g>
  <g
     id="layer1"
     style="display:inline">
    <rect
       width="84"
       height="84"
       rx="6"
       ry="6"
       x="-104"
       y="6"
       id="rect2419"
       style="fill:url(#linearGradient3617);fill-opacity:1;fill-rule:nonzero;stroke:none" />
    <rect
       width="84"
       height="84"
       rx="6"
       ry="6"
       x="6"
       y="6"
       id="rect2419-6"
       style="fill:url(#linearGradient4134);fill-opacity:1;fill-rule:nonzero;stroke:none;display:inline" />
  </g>
  <g
     id="layer6">
    <g
       id="g4105">
      <path
         d="m 96,32 a 32,32 0 1 1 -64,0 32,32 0 1 1 64,0 z"
         transform="matrix(1.03125,0,0,1.03125,-17.999996,10.000006)"
         id="path3651"
         style="opacity:0.25;color:#000000;fill:url(#radialGradient3891);fill-opacity:1;fill-rule:nonzero;stroke:none;stroke-width:1.5;marker:none;visibility:visible;display:inline;overflow:visible;enable-background:accumulate" />
      <path
         d="m 96,32 a 32,32 0 1 1 -64,0 32,32 0 1 1 64,0 z"
         transform="matrix(0.84375003,0,0,0.84375003,-6.000004,16.000003)"
         id="path3695"
         style="color:#000000;fill:url(#radialGradient3897);fill-opacity:1;fill-rule:nonzero;stroke:none;stroke-width:1.5;marker:none;visibility:visible;display:inline;overflow:visible;enable-background:accumulate" />
      <path
         d="m 75,43.000004 c 0,-14.911689 -12.088311,-27 -27,-27 -14.911689,0 -27,12.088311 -27,27 0,14.911689 12.088311,27 27,27 14.911689,0 27,-12.088311 27,-27 z m -1,0 c 0,14.359403 -11.640597,26 -26,26 -14.359403,0 -26,-11.640597 -26,-26 0,-14.359403 11.640597,-26 26,-26 14.359403,0 26,11.640597 26,26 z"
         inkscape:connector-curvature="0"
         id="path3695-8"
         style="opacity:0.6;color:#000000;fill:url(#linearGradient3818);fill-opacity:1;fill-rule:nonzero;stroke:none;stroke-width:1.5;marker:none;visibility:visible;display:inline;overflow:visible;enable-background:accumulate" />
      <path
         d="m 41.125,16.875 c -2.630101,0.690191 -5.091436,1.788247 -7.34375,3.1875 -0.685588,0.944015 -1.324069,1.909274 -2,2.8125 -0.448353,0.974739 -1.840597,0.834982 -3,1.1875 -0.06669,0.06767 -0.152773,0.119135 -0.21875,0.1875 -1.587159,2.086129 -3.499806,4.030995 -4.5,6.46875 -1.285455,2.533351 4.17355,2.003438 1.4375,4.5 -1.040132,1.50918 -0.613715,4.813765 1.25,5.875 1.601016,1.56141 -3.18156,3.170417 -1,5.15625 2.037804,0.735887 4.28976,-0.988193 6.21875,-0.25 1.305401,1.421772 -0.798205,3.011322 0.59375,4.34375 -1.770141,-0.07326 -3.575367,0.430797 -2.96875,2.65625 -0.291967,2.750305 4.47922,2.620909 3.875,-0.3125 0.109805,-1.372076 1.504925,-2.798878 2.34375,-0.84375 -0.121232,2.071337 3.797242,0.923911 2.03125,3.25 -3.679952,0.0401 -1.412164,5.562321 0.84375,3.625 0.197855,-2.179228 2.263653,-1.916895 3.53125,-1.0625 3.159889,-0.747172 -0.339503,-4.40457 0.78125,-6.0625 1.160505,0.02707 1.328428,2.549015 2.375,0.3125 1.465887,-2.6601 -0.733259,-4.89604 -3.15625,-5.625 -2.39905,-0.835181 -0.764095,-3.148469 -1,-4.5625 -2.174892,-1.68835 -3.151208,0.849775 -2.96875,2.59375 -2.624287,0.401248 -1.980251,-3.000432 -3.9375,-4.09375 -1.35872,-0.98452 -4.425029,-0.966831 -2.5625,-3.5625 1.882879,-0.8553 4.158864,-1.600028 3.46875,-4.25 0.902932,-2.521754 -4.201748,-1.529453 -2.0625,-3.8125 2.726854,-0.04313 4.493802,-2.20369 3.78125,-4.90625 0.618601,-1.876155 3.381203,-1.415663 4.28125,-2.9375 0.24257,0.339366 0.515761,0.675485 0.875,0.90625 0.517494,0.488587 1.331487,0.07499 1.84375,-0.25 0.03671,-0.5471 0.08066,-1.44506 0.9375,-1.25 0.894583,0.08748 1.805269,0.04968 2.65625,-0.1875 0.132435,-0.626976 -0.828572,-1.41793 -1.59375,-1.34375 -0.690888,0.2469 -1.575433,-0.278904 -2.125,0.25 -0.683608,5.91e-4 -1.378892,1.85e-4 -2.0625,0 0.03031,-0.719645 -0.215572,-1.434032 -0.625,-2 z m 12.15625,2.875 c -0.49783,0.141269 -0.77761,0.558057 -0.6875,1.09375 0.281817,0.502926 0.655379,0.804761 1,1.46875 0.725532,0.77285 1.171906,1.606179 1.5625,2.5625 0.679147,0.636154 0.924962,2.058217 2.125,1.78125 0.892259,-0.137057 1.751122,0.04415 2.625,0.1875 0.817318,-0.115946 1.519086,1.011445 2.34375,0.5625 1.218771,0.20939 1.179599,-1.245059 0.53125,-1.875 -0.727645,-0.829026 -2.018925,-0.218679 -3,-0.40625 -0.674295,0.40594 -2.768203,0.259163 -1.96875,-0.8125 0.06822,-1.344825 -0.958201,-2.078481 -2.21875,-2.21875 C 54.8782,21.754621 55.38299,21.472207 55.8125,21.25 55.966804,19.946504 54.177616,20.00739 53.28125,19.75 z M 50.375,22.5625 c -1.769141,0.208149 -1.56966,3.320817 -2.53125,4.46875 -1.781415,0.710714 -2.789571,-1.270952 -2.53125,-2.625 -0.953571,-0.686659 -1.393914,-0.983804 -1.625,0.28125 -1.481128,0.995809 -2.779537,-1.901827 -4.40625,-1.28125 1.650433,-0.293359 -2.379296,1.441133 -0.96875,2.65625 0.882566,1.33371 0.547806,2.809625 -1.21875,2.78125 -1.7682,0.779809 -0.9348,2.371552 0.625,2.375 1.927772,2.271602 -2.146198,3.93859 -0.96875,6.40625 0.829099,2.813717 4.293621,-0.08276 2.75,-2.125 -0.63476,-3.10378 3.516721,-2.051905 3.1875,0.46875 1.097519,0.714628 4.24373,0.757575 2.8125,3.125 -1.989848,0.413595 -1.634938,3.006853 0,3.65625 -1.273387,0.81022 -1.070396,4.5212 0.6875,2.59375 2.55027,-2.293965 2.238448,3.344948 5.03125,1.8125 1.476046,-2.155094 -1.922476,-3.293673 -2.9375,-4.71875 -1.695694,-2.320236 3.513393,-1.258113 1.46875,-3.21875 -2.216777,-1.074422 -0.915227,-3.662476 1.28125,-2.625 2.597876,0.488165 -1.249792,-3.775239 1.46875,-2.65625 0.214769,1.835369 3.629602,1.425826 1.59375,-0.375 -0.552584,-2.038676 2.837465,-3.72511 0.75,-5.875 C 52.34479,26.944576 52.890566,24.054146 51.25,22.65625 50.907174,22.552954 50.627734,22.532764 50.375,22.5625 z m 14.5,9.1875 c -0.159178,0.0062 -0.352477,0.04505 -0.53125,0.09375 -1.136166,1.200973 -2.450606,1.577632 -4.0625,1.125 -0.453339,-0.253393 -1.492458,-0.720511 -1.90625,-0.5625 -1.601394,-0.157183 -1.201009,1.584828 -1.375,2.40625 -1.083557,0.169035 -1.858615,0.989385 -0.90625,1.96875 0.594657,1.888 -1.750095,0.547452 -2.5625,0.75 -1.542901,0.590516 0.945234,1.323628 -0.34375,2.1875 -1.148895,0.115664 -3.084109,1.538809 -1.625,2.46875 1.059642,0.318947 3.365937,-0.856163 3,1.28125 -0.631074,1.457681 2.555896,3.103532 1.90625,0.90625 -0.553648,-1.030964 -1.964814,-3.649478 0.34375,-3.125 0.43383,0.710752 0.811435,1.161934 1.875,0.78125 0.294337,-1.511991 2.424562,-1.123197 3.4375,-0.40625 1.814834,0.381382 0.407292,-2.753929 2.3125,-2.9375 1.284082,-1.052793 0.568742,-3.004553 -0.75,-3.625 0.192352,-1.517215 2.591074,-1.418626 3.6875,-1.6875 -0.73147,-0.757193 -1.385752,-1.668208 -2.5,-1.625 z m 9.78125,7 c -0.25994,0.02868 -0.53625,0.300121 -0.6875,0.5 -0.290975,0.598198 -1.000971,0.52622 -1.21875,0.9375 -0.141526,0.378034 -0.495053,0.103173 -0.6875,0.46875 -0.190992,-0.139558 -1.307323,-0.02574 -0.8125,0.25 -0.686197,0.343353 -0.160287,1.299026 -0.3125,1.90625 -0.173032,0.703538 0.449682,1.058172 0.65625,1.625 0.164894,0.176371 0.424371,-0.04738 0.53125,0.3125 0.0051,0.324459 0.591153,0.02429 0.625,0.375 -0.435588,0.208293 0.822731,0.487097 0.875,0 0.285348,-0.363186 0.636657,-1.014653 0.96875,-1.40625 C 74.657,43.572231 74.822821,43.516955 75,43.46875 75.0027,43.310623 75,43.158778 75,43 75,41.557164 74.874205,40.131577 74.65625,38.75 z m -8.1875,0.875 c -0.379961,0.04703 -0.733594,0.293261 -0.875,0.75 -0.497161,0.769009 -0.637857,2.066548 -1.75,2.09375 -0.565353,0.263697 -1.069569,0.833672 -1.75,0.75 -0.853113,-0.527825 -2.050569,-0.578786 -2.90625,-0.03125 -0.979637,0.626591 0.920951,1.64524 -0.28125,2 -1.181569,0.04876 -1.29007,1.363851 -0.53125,2.03125 0.782696,0.698177 2.146893,0.712795 2.5625,1.8125 0.276152,0.729315 0.987013,1.463438 0.65625,2.3125 -0.472508,0.902539 -1.536122,0.133068 -2.25,0.4375 -1.029882,0.430939 -0.523316,1.833188 0.53125,1.5 1.213637,0.138306 1.873078,1.52494 1.53125,2.625 -0.05927,0.961604 -1.450639,1.480801 -0.96875,2.5 0.355822,0.698291 1.623059,1.131583 2.03125,0.28125 0.0049,-0.93472 0.773269,-1.64856 0.875,-2.59375 0.161083,-0.882589 0.162057,-1.909684 -0.3125,-2.6875 -0.954862,-0.70967 -0.233236,-1.917683 0.46875,-2.5 0.579353,-0.410831 1.08788,-1.286263 1.625,-1.5 0.57674,0.354217 1.476139,1.663795 1.8125,0.34375 0.423086,-1.033062 0.172364,-2.301686 0.9375,-3.1875 0.510831,-0.513588 2.083862,-0.107235 1.65625,-1.25 C 69.005246,44.579198 67.688633,45.172395 67.6875,44.03125 67.443477,42.743005 68.043921,41.371278 67.5,40.125 c -0.247692,-0.407483 -0.651289,-0.547031 -1.03125,-0.5 z m 8.21875,7.4375 c -0.09061,0.0746 -0.09338,0.09269 -0.3125,0.25 L 74.5625,47.25 c -0.07924,0.07122 -0.07566,0.05184 -0.1875,0.15625 -1.076962,0.994669 -1.656361,2.529228 -2.84375,3.1875 -1.889048,0.0592 -0.738358,-2.535049 -2,-3 -1.647316,0.06331 -0.882766,2.233296 -1.8125,3.03125 -1.08203,0.629022 -2.498698,1.726224 -1.15625,2.9375 0.876005,1.046739 0.495851,2.491589 0.34375,3.71875 -0.571705,0.717294 -0.305346,2.418257 0.84375,1.5625 0.395003,-1.24068 -0.227373,-2.968437 1,-3.90625 0.759731,-1.188761 2.482549,-0.540261 3.59375,-1.15625 0.141322,0.04149 0.251629,0.04979 0.375,0.0625 0.922843,-2.099956 1.605799,-4.317103 1.96875,-6.65625 l -0.09375,0.03125 c 0.0398,-0.03553 0.05177,-0.05233 0.09375,-0.09375 0.003,-0.01994 -0.003,-0.04254 0,-0.0625 z"
         inkscape:connector-curvature="0"
         id="path3907"
         style="opacity:0.4;fill:url(#linearGradient4031);fill-opacity:1;stroke:none;filter:url(#filter4045)" />
      <path
         d="m 62.25,24.09375 c -0.762098,0 -1.375,0.612902 -1.375,1.375 0,0.762098 0.612902,1.375 1.375,1.375 0.762098,0 1.375,-0.612902 1.375,-1.375 0,-0.762098 -0.612902,-1.375 -1.375,-1.375 z m -20.40625,1.625 c -0.628797,0.128671 -1.09375,0.708164 -1.09375,1.375 0,0.762098 0.612902,1.375 1.375,1.375 0.762098,0 1.375,-0.612902 1.375,-1.375 0,-0.762098 -0.612902,-1.375 -1.375,-1.375 -0.09526,0 -0.191422,-0.01838 -0.28125,0 z M 31.90625,25.875 C 31.413128,25.875 31,26.256878 31,26.75 c 0,0.493122 0.413128,0.90625 0.90625,0.90625 0.493122,0 0.875,-0.413128 0.875,-0.90625 0,-0.493122 -0.381878,-0.875 -0.875,-0.875 z m 28,2.59375 c -0.806927,0 -1.46875,0.661823 -1.46875,1.46875 0,0.806927 0.661823,1.4375 1.46875,1.4375 0.806927,0 1.46875,-0.630573 1.46875,-1.4375 0,-0.806927 -0.661823,-1.46875 -1.46875,-1.46875 z m -3.96875,2.75 c -0.403464,0 -0.75,0.346536 -0.75,0.75 0,0.403464 0.346536,0.71875 0.75,0.71875 0.403464,0 0.71875,-0.315286 0.71875,-0.71875 0,-0.403464 -0.315286,-0.75 -0.71875,-0.75 z M 45.875,31.375 c -0.403464,0 -0.75,0.346536 -0.75,0.75 0,0.403464 0.346536,0.71875 0.75,0.71875 0.403464,0 0.71875,-0.315286 0.71875,-0.71875 0,-0.403464 -0.315286,-0.75 -0.71875,-0.75 z m -15.4375,0.5 c -1.031074,0 -1.875,0.843926 -1.875,1.875 0,1.031074 0.843926,1.84375 1.875,1.84375 1.031074,0 1.875,-0.812676 1.875,-1.84375 0,-1.031074 -0.843926,-1.875 -1.875,-1.875 z m 38,4.875 c -0.582781,0 -1.0625,0.479719 -1.0625,1.0625 0,0.582781 0.479719,1.03125 1.0625,1.03125 0.582781,0 1.03125,-0.448469 1.03125,-1.03125 0,-0.582781 -0.448469,-1.0625 -1.03125,-1.0625 z M 37.34375,39.5 c -0.62761,0 -1.15625,0.52864 -1.15625,1.15625 0,0.62761 0.52864,1.125 1.15625,1.125 0.62761,0 1.125,-0.49739 1.125,-1.125 0,-0.62761 -0.49739,-1.15625 -1.125,-1.15625 z m 26.375,0.65625 c -0.851757,0 -1.53125,0.679493 -1.53125,1.53125 0,0.851757 0.679493,1.5625 1.53125,1.5625 0.851757,0 1.53125,-0.710743 1.53125,-1.5625 0,-0.851757 -0.679493,-1.53125 -1.53125,-1.53125 z m -34.6875,3.25 c -0.435212,0 -0.78125,0.199774 -0.78125,0.46875 0,0.268976 0.346038,0.5 0.78125,0.5 0.435212,0 0.78125,-0.231024 0.78125,-0.5 0,-0.268976 -0.346038,-0.46875 -0.78125,-0.46875 z m 9.59375,2.75 c -0.717269,0 -1.28125,0.595231 -1.28125,1.3125 0,0.717269 0.563981,1.28125 1.28125,1.28125 0.717269,0 1.3125,-0.563981 1.3125,-1.28125 0,-0.717269 -0.595231,-1.3125 -1.3125,-1.3125 z M 28.5,47.9375 c -0.493122,0 -0.90625,0.413128 -0.90625,0.90625 0,0.493122 0.413128,0.875 0.90625,0.875 0.493122,0 0.875,-0.381878 0.875,-0.875 0,-0.493122 -0.381878,-0.90625 -0.875,-0.90625 z m 29.375,0 c -0.493122,0 -0.90625,0.413128 -0.90625,0.90625 0,0.493122 0.413128,0.875 0.90625,0.875 0.493122,0 0.90625,-0.381878 0.90625,-0.875 0,-0.493122 -0.413128,-0.90625 -0.90625,-0.90625 z m -4.3125,0.5 c -0.806927,0 -1.4375,0.661823 -1.4375,1.46875 0,0.806927 0.630573,1.4375 1.4375,1.4375 0.806927,0 1.46875,-0.630573 1.46875,-1.4375 0,-0.806927 -0.661823,-1.46875 -1.46875,-1.46875 z m 4.0625,6.15625 c -0.448293,0 -0.8125,0.364207 -0.8125,0.8125 0,0.448293 0.364207,0.8125 0.8125,0.8125 0.448293,0 0.8125,-0.364207 0.8125,-0.8125 0,-0.448293 -0.364207,-0.8125 -0.8125,-0.8125 z M 29.78125,55.25 c -0.851757,0 -1.53125,0.679493 -1.53125,1.53125 0,0.851757 0.679493,1.5625 1.53125,1.5625 0.851757,0 1.5625,-0.710743 1.5625,-1.5625 0,-0.851757 -0.710743,-1.53125 -1.5625,-1.53125 z m 5.375,3.09375 c -0.403464,0 -0.75,0.315286 -0.75,0.71875 0,0.403464 0.346536,0.75 0.75,0.75 0.403464,0 0.71875,-0.346536 0.71875,-0.75 0,-0.403464 -0.315286,-0.71875 -0.71875,-0.71875 z m 17.6875,3.875 c -0.672439,0 -1.21875,0.546311 -1.21875,1.21875 0,0.672439 0.546311,1.21875 1.21875,1.21875 0.672439,0 1.21875,-0.546311 1.21875,-1.21875 0,-0.672439 -0.546311,-1.21875 -1.21875,-1.21875 z"
         inkscape:connector-curvature="0"
         id="path3986"
         style="opacity:0.4;color:#000000;fill:#a18a56;fill-opacity:1;fill-rule:nonzero;stroke:none;stroke-width:1.5;marker:none;visibility:visible;display:inline;overflow:visible;filter:url(#filter4057);enable-background:accumulate" />
      <path
         d="m 57.46875,28.46875 c -0.537952,0 -0.96875,0.430798 -0.96875,0.96875 0,0.537952 0.430798,0.96875 0.96875,0.96875 0.537952,0 0.96875,-0.430798 0.96875,-0.96875 0,-0.537952 -0.430798,-0.96875 -0.96875,-0.96875 z M 42.4375,36.25 c -1.210391,0 -2.1875,0.977109 -2.1875,2.1875 0,1.210391 0.977109,2.21875 2.1875,2.21875 1.210391,0 2.21875,-1.008359 2.21875,-2.21875 0,-1.210391 -1.008359,-2.1875 -2.21875,-2.1875 z M 34.5,36.75 c -0.582781,0 -1.0625,0.479719 -1.0625,1.0625 0,0.582781 0.479719,1.03125 1.0625,1.03125 0.582781,0 1.0625,-0.448469 1.0625,-1.03125 0,-0.582781 -0.479719,-1.0625 -1.0625,-1.0625 z m -10.40625,3.09375 c -1.031074,0 -1.84375,0.812676 -1.84375,1.84375 0,1.031074 0.812676,1.875 1.84375,1.875 1.031074,0 1.875,-0.843926 1.875,-1.875 0,-1.031074 -0.843926,-1.84375 -1.875,-1.84375 z M 24.75,45.1875 c -0.672439,0 -1.21875,0.546311 -1.21875,1.21875 0,0.672439 0.546311,1.21875 1.21875,1.21875 0.672439,0 1.21875,-0.546311 1.21875,-1.21875 0,-0.672439 -0.546311,-1.21875 -1.21875,-1.21875 z m 30.4375,0.15625 c -0.537952,0 -0.96875,0.430798 -0.96875,0.96875 0,0.537952 0.430798,1 0.96875,1 0.537952,0 0.96875,-0.462048 0.96875,-1 0,-0.537952 -0.430798,-0.96875 -0.96875,-0.96875 z m -5.84375,7 c -0.806927,0 -1.4375,0.630573 -1.4375,1.4375 0,0.806927 0.630573,1.46875 1.4375,1.46875 0.806927,0 1.46875,-0.661823 1.46875,-1.46875 0,-0.806927 -0.661823,-1.4375 -1.46875,-1.4375 z m -3.96875,6.8125 c -1.389708,0 -2.53125,1.110292 -2.53125,2.5 0,1.389708 1.141542,2.53125 2.53125,2.53125 1.389708,0 2.53125,-1.141542 2.53125,-2.53125 0,-1.389708 -1.141542,-2.5 -2.53125,-2.5 z m 15.5,0.46875 c -0.806927,0 -1.46875,0.661823 -1.46875,1.46875 0,0.806927 0.661823,1.46875 1.46875,1.46875 0.806927,0 1.46875,-0.661823 1.46875,-1.46875 0,-0.806927 -0.661823,-1.46875 -1.46875,-1.46875 z m -21.09375,1.78125 c -1.075903,0 -1.96875,0.892847 -1.96875,1.96875 0,1.075903 0.892847,1.9375 1.96875,1.9375 1.075903,0 1.9375,-0.861597 1.9375,-1.9375 0,-1.075903 -0.861597,-1.96875 -1.9375,-1.96875 z"
         inkscape:connector-curvature="0"
         id="path4061"
         style="opacity:0.5;color:#000000;fill:#ffffff;fill-opacity:1;fill-rule:nonzero;stroke:none;stroke-width:1.5;marker:none;visibility:visible;display:inline;overflow:visible;filter:url(#filter4082);enable-background:accumulate" />
      <path
         d="m 96,32 a 32,32 0 1 1 -64,0 32,32 0 1 1 64,0 z"
         transform="matrix(0.58747152,0,0,0.37002308,10.401824,18.73364)"
         id="path4086"
         style="opacity:0.5;color:#000000;fill:url(#linearGradient3034);fill-opacity:1;fill-rule:nonzero;stroke:none;stroke-width:1.5;marker:none;visibility:visible;display:inline;overflow:visible;enable-background:accumulate" />
    </g>
    <g
       transform="translate(-97,1)"
       id="g4157">
      <path
         d="m 40,32 a 8,8 0 1 1 -16,0 8,8 0 1 1 16,0 z"
         transform="matrix(0.48001595,0,0,0.48001595,0.15947405,1.159474)"
         id="path4445"
         style="opacity:0.3;color:#000000;fill:url(#radialGradient4163);fill-opacity:1;fill-rule:nonzero;stroke:none;stroke-width:1;marker:none;visibility:visible;display:inline;overflow:visible;enable-background:accumulate" />
      <path
         d="m 15.541052,11.572434 -0.981099,3.987519 -3.995508,0.980711 3.995508,0.939353 0.985714,4.044755 0.93435,-4.044755 4.049757,-0.936467 -4.049757,-0.983597 -0.938965,-3.987519 z"
         inkscape:connector-curvature="0"
         id="path4447"
         style="opacity:0.09956713;color:#000000;fill:#ffffff;fill-opacity:1;fill-rule:nonzero;stroke:none;stroke-width:1;marker:none;visibility:visible;display:inline;overflow:visible;enable-background:accumulate" />
      <path
         d="m 15.545679,21.041365 -0.720437,-3.760465 -3.775248,-0.735221 3.76129,-0.68312 0.734396,-3.812565 0.690868,3.760464 3.804817,0.735222 -3.790033,0.779573 -0.705653,3.716112 z"
         inkscape:connector-curvature="0"
         id="path4449"
         style="opacity:0.2;color:#000000;fill:#ffffff;fill-opacity:1;fill-rule:nonzero;stroke:none;stroke-width:1;marker:none;visibility:visible;display:inline;overflow:visible;enable-background:accumulate" />
      <path
         d="m 33.277741,38.846594 -4.529283,-5.952006 -6.898477,2.889947 5.952006,-4.529283 -2.889946,-6.898477 4.529282,5.952006 6.898477,-2.889946 -5.952006,4.529282 z"
         transform="matrix(0.41570601,0.24000798,-0.24000798,0.41570601,11.035415,-3.5743367)"
         id="path4451"
         style="color:#000000;fill:url(#radialGradient4165);fill-opacity:1;fill-rule:nonzero;stroke:none;stroke-width:1;marker:none;visibility:visible;display:inline;overflow:visible;enable-background:accumulate" />
    </g>
    <g
       transform="matrix(1.3258121,0,0,1.3258121,-41.401717,49.293428)"
       id="g4167">
      <path
         d="m 40,32 a 8,8 0 1 1 -16,0 8,8 0 1 1 16,0 z"
         transform="matrix(0.48001595,0,0,0.48001595,0.15947405,1.159474)"
         id="path4169"
         style="opacity:0.3;color:#000000;fill:url(#radialGradient4177);fill-opacity:1;fill-rule:nonzero;stroke:none;stroke-width:1;marker:none;visibility:visible;display:inline;overflow:visible;enable-background:accumulate" />
      <path
         d="m 15.541052,11.572434 -0.981099,3.987519 -3.995508,0.980711 3.995508,0.939353 0.985714,4.044755 0.93435,-4.044755 4.049757,-0.936467 -4.049757,-0.983597 -0.938965,-3.987519 z"
         inkscape:connector-curvature="0"
         id="path4171"
         style="opacity:0.09956713;color:#000000;fill:#ffffff;fill-opacity:1;fill-rule:nonzero;stroke:none;stroke-width:1;marker:none;visibility:visible;display:inline;overflow:visible;enable-background:accumulate" />
      <path
         d="m 15.545679,21.041365 -0.720437,-3.760465 -3.775248,-0.735221 3.76129,-0.68312 0.734396,-3.812565 0.690868,3.760464 3.804817,0.735222 -3.790033,0.779573 -0.705653,3.716112 z"
         inkscape:connector-curvature="0"
         id="path4173"
         style="opacity:0.2;color:#000000;fill:#ffffff;fill-opacity:1;fill-rule:nonzero;stroke:none;stroke-width:1;marker:none;visibility:visible;display:inline;overflow:visible;enable-background:accumulate" />
      <path
         d="m 33.277741,38.846594 -4.529283,-5.952006 -6.898477,2.889947 5.952006,-4.529283 -2.889946,-6.898477 4.529282,5.952006 6.898477,-2.889946 -5.952006,4.529282 z"
         transform="matrix(0.41570601,0.24000798,-0.24000798,0.41570601,11.035415,-3.5743367)"
         id="path4175"
         style="color:#000000;fill:url(#radialGradient4179);fill-opacity:1;fill-rule:nonzero;stroke:none;stroke-width:1;marker:none;visibility:visible;display:inline;overflow:visible;enable-background:accumulate" />
    </g>
    <g
       transform="translate(-44.12866,63.124792)"
       id="g4191">
      <path
         d="m 40,32 a 8,8 0 1 1 -16,0 8,8 0 1 1 16,0 z"
         transform="matrix(0.48001595,0,0,0.48001595,0.15947405,1.159474)"
         id="path4193"
         style="opacity:0.3;color:#000000;fill:url(#radialGradient4201);fill-opacity:1;fill-rule:nonzero;stroke:none;stroke-width:1;marker:none;visibility:visible;display:inline;overflow:visible;enable-background:accumulate" />
      <path
         d="m 15.541052,11.572434 -0.981099,3.987519 -3.995508,0.980711 3.995508,0.939353 0.985714,4.044755 0.93435,-4.044755 4.049757,-0.936467 -4.049757,-0.983597 -0.938965,-3.987519 z"
         inkscape:connector-curvature="0"
         id="path4195"
         style="opacity:0.09956713;color:#000000;fill:#ffffff;fill-opacity:1;fill-rule:nonzero;stroke:none;stroke-width:1;marker:none;visibility:visible;display:inline;overflow:visible;enable-background:accumulate" />
      <path
         d="m 15.545679,21.041365 -0.720437,-3.760465 -3.775248,-0.735221 3.76129,-0.68312 0.734396,-3.812565 0.690868,3.760464 3.804817,0.735222 -3.790033,0.779573 -0.705653,3.716112 z"
         inkscape:connector-curvature="0"
         id="path4197"
         style="opacity:0.2;color:#000000;fill:#ffffff;fill-opacity:1;fill-rule:nonzero;stroke:none;stroke-width:1;marker:none;visibility:visible;display:inline;overflow:visible;enable-background:accumulate" />
      <path
         d="m 33.277741,38.846594 -4.529283,-5.952006 -6.898477,2.889947 5.952006,-4.529283 -2.889946,-6.898477 4.529282,5.952006 6.898477,-2.889946 -5.952006,4.529282 z"
         transform="matrix(0.41570601,0.24000798,-0.24000798,0.41570601,11.035415,-3.5743367)"
         id="path4199"
         style="color:#000000;fill:url(#radialGradient4203);fill-opacity:1;fill-rule:nonzero;stroke:none;stroke-width:1;marker:none;visibility:visible;display:inline;overflow:visible;enable-background:accumulate" />
    </g>
    <g
       transform="matrix(0.78794569,0,0,0.78794569,-88.805043,62.760444)"
       id="g4205">
      <path
         d="m 40,32 a 8,8 0 1 1 -16,0 8,8 0 1 1 16,0 z"
         transform="matrix(0.48001595,0,0,0.48001595,0.15947405,1.159474)"
         id="path4207"
         style="opacity:0.3;color:#000000;fill:url(#radialGradient4215);fill-opacity:1;fill-rule:nonzero;stroke:none;stroke-width:1;marker:none;visibility:visible;display:inline;overflow:visible;enable-background:accumulate" />
      <path
         d="m 15.541052,11.572434 -0.981099,3.987519 -3.995508,0.980711 3.995508,0.939353 0.985714,4.044755 0.93435,-4.044755 4.049757,-0.936467 -4.049757,-0.983597 -0.938965,-3.987519 z"
         inkscape:connector-curvature="0"
         id="path4209"
         style="opacity:0.09956713;color:#000000;fill:#ffffff;fill-opacity:1;fill-rule:nonzero;stroke:none;stroke-width:1;marker:none;visibility:visible;display:inline;overflow:visible;enable-background:accumulate" />
      <path
         d="m 15.545679,21.041365 -0.720437,-3.760465 -3.775248,-0.735221 3.76129,-0.68312 0.734396,-3.812565 0.690868,3.760464 3.804817,0.735222 -3.790033,0.779573 -0.705653,3.716112 z"
         inkscape:connector-curvature="0"
         id="path4211"
         style="opacity:0.2;color:#000000;fill:#ffffff;fill-opacity:1;fill-rule:nonzero;stroke:none;stroke-width:1;marker:none;visibility:visible;display:inline;overflow:visible;enable-background:accumulate" />
      <path
         d="m 33.277741,38.846594 -4.529283,-5.952006 -6.898477,2.889947 5.952006,-4.529283 -2.889946,-6.898477 4.529282,5.952006 6.898477,-2.889946 -5.952006,4.529282 z"
         transform="matrix(0.41570601,0.24000798,-0.24000798,0.41570601,11.035415,-3.5743367)"
         id="path4213"
         style="color:#000000;fill:url(#radialGradient4217);fill-opacity:1;fill-rule:nonzero;stroke:none;stroke-width:1;marker:none;visibility:visible;display:inline;overflow:visible;enable-background:accumulate" />
    </g>
    <g
       transform="matrix(0.78794569,0,0,0.78794569,-31.823266,10.220412)"
       id="g4219">
      <path
         d="m 40,32 a 8,8 0 1 1 -16,0 8,8 0 1 1 16,0 z"
         transform="matrix(0.48001595,0,0,0.48001595,0.15947405,1.159474)"
         id="path4221"
         style="opacity:0.3;color:#000000;fill:url(#radialGradient4229);fill-opacity:1;fill-rule:nonzero;stroke:none;stroke-width:1;marker:none;visibility:visible;display:inline;overflow:visible;enable-background:accumulate" />
      <path
         d="m 15.541052,11.572434 -0.981099,3.987519 -3.995508,0.980711 3.995508,0.939353 0.985714,4.044755 0.93435,-4.044755 4.049757,-0.936467 -4.049757,-0.983597 -0.938965,-3.987519 z"
         inkscape:connector-curvature="0"
         id="path4223"
         style="opacity:0.09956713;color:#000000;fill:#ffffff;fill-opacity:1;fill-rule:nonzero;stroke:none;stroke-width:1;marker:none;visibility:visible;display:inline;overflow:visible;enable-background:accumulate" />
      <path
         d="m 15.545679,21.041365 -0.720437,-3.760465 -3.775248,-0.735221 3.76129,-0.68312 0.734396,-3.812565 0.690868,3.760464 3.804817,0.735222 -3.790033,0.779573 -0.705653,3.716112 z"
         inkscape:connector-curvature="0"
         id="path4225"
         style="opacity:0.2;color:#000000;fill:#ffffff;fill-opacity:1;fill-rule:nonzero;stroke:none;stroke-width:1;marker:none;visibility:visible;display:inline;overflow:visible;enable-background:accumulate" />
      <path
         d="m 33.277741,38.846594 -4.529283,-5.952006 -6.898477,2.889947 5.952006,-4.529283 -2.889946,-6.898477 4.529282,5.952006 6.898477,-2.889946 -5.952006,4.529282 z"
         transform="matrix(0.41570601,0.24000798,-0.24000798,0.41570601,11.035415,-3.5743367)"
         id="path4227"
         style="color:#000000;fill:url(#radialGradient4231);fill-opacity:1;fill-rule:nonzero;stroke:none;stroke-width:1;marker:none;visibility:visible;display:inline;overflow:visible;enable-background:accumulate" />
    </g>
    <g
       transform="matrix(1.5541783,0,0,1.5541783,-108.26375,38.046589)"
       id="g4233">
      <path
         d="m 40,32 a 8,8 0 1 1 -16,0 8,8 0 1 1 16,0 z"
         transform="matrix(0.48001595,0,0,0.48001595,0.15947405,1.159474)"
         id="path4235"
         style="opacity:0.3;color:#000000;fill:url(#radialGradient4243);fill-opacity:1;fill-rule:nonzero;stroke:none;stroke-width:1;marker:none;visibility:visible;display:inline;overflow:visible;enable-background:accumulate" />
      <path
         d="m 15.541052,11.572434 -0.981099,3.987519 -3.995508,0.980711 3.995508,0.939353 0.985714,4.044755 0.93435,-4.044755 4.049757,-0.936467 -4.049757,-0.983597 -0.938965,-3.987519 z"
         inkscape:connector-curvature="0"
         id="path4237"
         style="opacity:0.09956713;color:#000000;fill:#ffffff;fill-opacity:1;fill-rule:nonzero;stroke:none;stroke-width:1;marker:none;visibility:visible;display:inline;overflow:visible;enable-background:accumulate" />
      <path
         d="m 15.545679,21.041365 -0.720437,-3.760465 -3.775248,-0.735221 3.76129,-0.68312 0.734396,-3.812565 0.690868,3.760464 3.804817,0.735222 -3.790033,0.779573 -0.705653,3.716112 z"
         inkscape:connector-curvature="0"
         id="path4239"
         style="opacity:0.2;color:#000000;fill:#ffffff;fill-opacity:1;fill-rule:nonzero;stroke:none;stroke-width:1;marker:none;visibility:visible;display:inline;overflow:visible;enable-background:accumulate" />
      <path
         d="m 33.277741,38.846594 -4.529283,-5.952006 -6.898477,2.889947 5.952006,-4.529283 -2.889946,-6.898477 4.529282,5.952006 6.898477,-2.889946 -5.952006,4.529282 z"
         transform="matrix(0.41570601,0.24000798,-0.24000798,0.41570601,11.035415,-3.5743367)"
         id="path4241"
         style="color:#000000;fill:url(#radialGradient4245);fill-opacity:1;fill-rule:nonzero;stroke:none;stroke-width:1;marker:none;visibility:visible;display:inline;overflow:visible;enable-background:accumulate" />
    </g>
    <g
       transform="translate(-99.922142,63.988403)"
       id="g4247">
      <path
         d="m 40,32 a 8,8 0 1 1 -16,0 8,8 0 1 1 16,0 z"
         transform="matrix(0.48001595,0,0,0.48001595,0.15947405,1.159474)"
         id="path4249"
         style="opacity:0.3;color:#000000;fill:url(#radialGradient4257);fill-opacity:1;fill-rule:nonzero;stroke:none;stroke-width:1;marker:none;visibility:visible;display:inline;overflow:visible;enable-background:accumulate" />
      <path
         d="m 15.541052,11.572434 -0.981099,3.987519 -3.995508,0.980711 3.995508,0.939353 0.985714,4.044755 0.93435,-4.044755 4.049757,-0.936467 -4.049757,-0.983597 -0.938965,-3.987519 z"
         inkscape:connector-curvature="0"
         id="path4251"
         style="opacity:0.09956713;color:#000000;fill:#ffffff;fill-opacity:1;fill-rule:nonzero;stroke:none;stroke-width:1;marker:none;visibility:visible;display:inline;overflow:visible;enable-background:accumulate" />
      <path
         d="m 15.545679,21.041365 -0.720437,-3.760465 -3.775248,-0.735221 3.76129,-0.68312 0.734396,-3.812565 0.690868,3.760464 3.804817,0.735222 -3.790033,0.779573 -0.705653,3.716112 z"
         inkscape:connector-curvature="0"
         id="path4253"
         style="opacity:0.2;color:#000000;fill:#ffffff;fill-opacity:1;fill-rule:nonzero;stroke:none;stroke-width:1;marker:none;visibility:visible;display:inline;overflow:visible;enable-background:accumulate" />
      <path
         d="m 33.277741,38.846594 -4.529283,-5.952006 -6.898477,2.889947 5.952006,-4.529283 -2.889946,-6.898477 4.529282,5.952006 6.898477,-2.889946 -5.952006,4.529282 z"
         transform="matrix(0.41570601,0.24000798,-0.24000798,0.41570601,11.035415,-3.5743367)"
         id="path4255"
         style="color:#000000;fill:url(#radialGradient4259);fill-opacity:1;fill-rule:nonzero;stroke:none;stroke-width:1;marker:none;visibility:visible;display:inline;overflow:visible;enable-background:accumulate" />
    </g>
    <path
       d="m 20,18 a 2,2 0 1 1 -4,0 2,2 0 1 1 4,0 z"
       transform="translate(-0.40828239,-0.57159535)"
       id="path4261"
       style="color:#000000;fill:url(#radialGradient4269);fill-opacity:1;fill-rule:nonzero;stroke:none;stroke-width:1.5;marker:none;visibility:visible;display:inline;overflow:visible;enable-background:accumulate" />
    <path
       d="m 20,18 a 2,2 0 1 1 -4,0 2,2 0 1 1 4,0 z"
       transform="matrix(1.5,0,0,1.5,-14.102946,50.244969)"
       id="path4271"
       style="color:#000000;fill:url(#radialGradient4273);fill-opacity:1;fill-rule:nonzero;stroke:none;stroke-width:1.5;marker:none;visibility:visible;display:inline;overflow:visible;enable-background:accumulate" />
    <path
       d="m 20,18 a 2,2 0 1 1 -4,0 2,2 0 1 1 4,0 z"
       transform="matrix(2,0,0,2,45,41)"
       id="path4275"
       style="color:#000000;fill:url(#radialGradient4277);fill-opacity:1;fill-rule:nonzero;stroke:none;stroke-width:1.5;marker:none;visibility:visible;display:inline;overflow:visible;enable-background:accumulate" />
    <path
       d="m 20,18 a 2,2 0 1 1 -4,0 2,2 0 1 1 4,0 z"
       transform="matrix(1.5,0,0,1.5,54.022681,0.09823349)"
       id="path4281"
       style="color:#000000;fill:url(#radialGradient4283);fill-opacity:1;fill-rule:nonzero;stroke:none;stroke-width:1.5;marker:none;visibility:visible;display:inline;overflow:visible;enable-background:accumulate" />
    <path
       d="m 20,18 a 2,2 0 1 1 -4,0 2,2 0 1 1 4,0 z"
       transform="translate(-5.2647265,10.300552)"
       id="path4285"
       style="color:#000000;fill:url(#radialGradient4287);fill-opacity:1;fill-rule:nonzero;stroke:none;stroke-width:1.5;marker:none;visibility:visible;display:inline;overflow:visible;enable-background:accumulate" />
    <path
       d="m 20,18 a 2,2 0 1 1 -4,0 2,2 0 1 1 4,0 z"
       transform="translate(10.987255,66.610236)"
       id="path4289"
       style="color:#000000;fill:url(#radialGradient4291);fill-opacity:1;fill-rule:nonzero;stroke:none;stroke-width:1.5;marker:none;visibility:visible;display:inline;overflow:visible;enable-background:accumulate" />
    <path
       d="m 20,18 a 2,2 0 1 1 -4,0 2,2 0 1 1 4,0 z"
       transform="translate(59.285398,44.734765)"
       id="path4293"
       style="color:#000000;fill:url(#radialGradient4295);fill-opacity:1;fill-rule:nonzero;stroke:none;stroke-width:1.5;marker:none;visibility:visible;display:inline;overflow:visible;enable-background:accumulate" />
    <path
       d="m 20,18 a 2,2 0 1 1 -4,0 2,2 0 1 1 4,0 z"
       transform="translate(43.590258,63.667973)"
       id="path4297"
       style="color:#000000;fill:url(#radialGradient4299);fill-opacity:1;fill-rule:nonzero;stroke:none;stroke-width:1.5;marker:none;visibility:visible;display:inline;overflow:visible;enable-background:accumulate" />
    <path
       d="m 20,18 a 2,2 0 1 1 -4,0 2,2 0 1 1 4,0 z"
       transform="matrix(2,0,0,2,-17.021623,30.890735)"
       id="path4301"
       style="color:#000000;fill:url(#radialGradient4303);fill-opacity:1;fill-rule:nonzero;stroke:none;stroke-width:1.5;marker:none;visibility:visible;display:inline;overflow:visible;enable-background:accumulate" />
    <path
       d="m 20,18 a 2,2 0 1 1 -4,0 2,2 0 1 1 4,0 z"
       transform="matrix(1.5,0,0,1.5,23.98974,55.966183)"
       id="path4306"
       style="color:#000000;fill:url(#radialGradient4308);fill-opacity:1;fill-rule:nonzero;stroke:none;stroke-width:1.5;marker:none;visibility:visible;display:inline;overflow:visible;enable-background:accumulate" />
    <path
       d="m 20,18 a 2,2 0 1 1 -4,0 2,2 0 1 1 4,0 z"
       transform="translate(39.486106,-7.4560129)"
       id="path4314"
       style="color:#000000;fill:url(#radialGradient4316);fill-opacity:1;fill-rule:nonzero;stroke:none;stroke-width:1.5;marker:none;visibility:visible;display:inline;overflow:visible;enable-background:accumulate" />
  </g>
  <g
     id="layer5"
     style="display:none">
    <rect
       width="66"
       height="66"
       rx="12"
       ry="12"
       x="15"
       y="15"
       clip-path="url(#clipPath3613)"
       id="rect3171"
       style="opacity:0.1;fill:url(#linearGradient3613);fill-opacity:1;fill-rule:nonzero;stroke:#ffffff;stroke-width:0.5;stroke-linecap:round;stroke-linejoin:miter;stroke-miterlimit:4;stroke-opacity:1;stroke-dasharray:none;stroke-dashoffset:0;filter:url(#filter3794)" />
  </g>
  <g
     id="layer4"
     style="display:inline">
    <path
       d="M 12,6 C 8.676,6 6,8.676 6,12 l 0,2 0,68 0,2 c 0,0.334721 0.04135,0.6507 0.09375,0.96875 0.0487,0.295596 0.09704,0.596915 0.1875,0.875 0.00988,0.03038 0.020892,0.0636 0.03125,0.09375 0.098865,0.287771 0.2348802,0.547452 0.375,0.8125 0.1445918,0.273507 0.3156161,0.535615 0.5,0.78125 0.1843839,0.245635 0.3737765,0.473472 0.59375,0.6875 0.439947,0.428056 0.94291,0.814526 1.5,1.09375 0.278545,0.139612 0.5734731,0.246947 0.875,0.34375 -0.2562018,-0.100222 -0.4867109,-0.236272 -0.71875,-0.375 -0.00741,-0.0044 -0.023866,0.0045 -0.03125,0 -0.031933,-0.0193 -0.062293,-0.04251 -0.09375,-0.0625 -0.120395,-0.0767 -0.2310226,-0.163513 -0.34375,-0.25 -0.1061728,-0.0808 -0.2132809,-0.161112 -0.3125,-0.25 C 8.4783201,88.557317 8.3087904,88.373362 8.15625,88.1875 8.0486711,88.057245 7.9378561,87.922215 7.84375,87.78125 7.818661,87.74287 7.805304,87.69538 7.78125,87.65625 7.716487,87.553218 7.6510225,87.451733 7.59375,87.34375 7.4927417,87.149044 7.3880752,86.928049 7.3125,86.71875 7.30454,86.69694 7.288911,86.6782 7.28125,86.65625 7.2494249,86.5643 7.2454455,86.469419 7.21875,86.375 7.1884177,86.268382 7.1483606,86.171969 7.125,86.0625 7.0521214,85.720988 7,85.364295 7,85 L 7,83 7,15 7,13 C 7,10.218152 9.2181517,8 12,8 l 2,0 68,0 2,0 c 2.781848,0 5,2.218152 5,5 l 0,2 0,68 0,2 c 0,0.364295 -0.05212,0.720988 -0.125,1.0625 -0.04415,0.206893 -0.08838,0.397658 -0.15625,0.59375 -0.0077,0.02195 -0.0233,0.04069 -0.03125,0.0625 -0.06274,0.173739 -0.138383,0.367449 -0.21875,0.53125 -0.04158,0.0828 -0.07904,0.169954 -0.125,0.25 -0.0546,0.09721 -0.126774,0.18835 -0.1875,0.28125 -0.09411,0.140965 -0.204921,0.275995 -0.3125,0.40625 -0.143174,0.17445 -0.303141,0.346998 -0.46875,0.5 -0.01117,0.0102 -0.01998,0.02115 -0.03125,0.03125 -0.138386,0.125556 -0.285091,0.234436 -0.4375,0.34375 -0.102571,0.07315 -0.204318,0.153364 -0.3125,0.21875 -0.0074,0.0045 -0.02384,-0.0044 -0.03125,0 -0.232039,0.138728 -0.462548,0.274778 -0.71875,0.375 0.301527,-0.0968 0.596455,-0.204138 0.875,-0.34375 0.55709,-0.279224 1.060053,-0.665694 1.5,-1.09375 0.219973,-0.214028 0.409366,-0.441865 0.59375,-0.6875 0.184384,-0.245635 0.355408,-0.507743 0.5,-0.78125 0.14012,-0.265048 0.276135,-0.524729 0.375,-0.8125 0.01041,-0.03078 0.02133,-0.06274 0.03125,-0.09375 0.09046,-0.278085 0.1388,-0.579404 0.1875,-0.875 C 89.95865,84.6507 90,84.334721 90,84 l 0,-2 0,-68 0,-2 C 90,8.676 87.324,6 84,6 L 12,6 z"
       inkscape:connector-curvature="0"
       id="rect3728"
       style="opacity:0.3;fill:url(#linearGradient3188);fill-opacity:1;fill-rule:nonzero;stroke:none;display:inline" />
    <path
       d="M 12,90 C 8.676,90 6,87.324 6,84 L 6,82 6,14 6,12 c 0,-0.334721 0.04135,-0.6507 0.09375,-0.96875 0.0487,-0.295596 0.09704,-0.596915 0.1875,-0.875 C 6.29113,10.12587 6.302142,10.09265 6.3125,10.0625 6.411365,9.774729 6.5473802,9.515048 6.6875,9.25 6.8320918,8.976493 7.0031161,8.714385 7.1875,8.46875 7.3718839,8.223115 7.5612765,7.995278 7.78125,7.78125 8.221197,7.353194 8.72416,6.966724 9.28125,6.6875 9.559795,6.547888 9.8547231,6.440553 10.15625,6.34375 9.9000482,6.443972 9.6695391,6.580022 9.4375,6.71875 c -0.00741,0.0044 -0.023866,-0.0045 -0.03125,0 -0.031933,0.0193 -0.062293,0.04251 -0.09375,0.0625 -0.120395,0.0767 -0.2310226,0.163513 -0.34375,0.25 -0.1061728,0.0808 -0.2132809,0.161112 -0.3125,0.25 C 8.4783201,7.442683 8.3087904,7.626638 8.15625,7.8125 8.0486711,7.942755 7.9378561,8.077785 7.84375,8.21875 7.818661,8.25713 7.805304,8.30462 7.78125,8.34375 7.716487,8.446782 7.6510225,8.548267 7.59375,8.65625 7.4927417,8.850956 7.3880752,9.071951 7.3125,9.28125 7.30454,9.30306 7.288911,9.3218 7.28125,9.34375 7.2494249,9.4357 7.2454455,9.530581 7.21875,9.625 7.1884177,9.731618 7.1483606,9.828031 7.125,9.9375 7.0521214,10.279012 7,10.635705 7,11 l 0,2 0,68 0,2 c 0,2.781848 2.2181517,5 5,5 l 2,0 68,0 2,0 c 2.781848,0 5,-2.218152 5,-5 l 0,-2 0,-68 0,-2 C 89,10.635705 88.94788,10.279012 88.875,9.9375 88.83085,9.730607 88.78662,9.539842 88.71875,9.34375 88.71105,9.3218 88.69545,9.30306 88.6875,9.28125 88.62476,9.107511 88.549117,8.913801 88.46875,8.75 88.42717,8.6672 88.38971,8.580046 88.34375,8.5 88.28915,8.40279 88.216976,8.31165 88.15625,8.21875 88.06214,8.077785 87.951329,7.942755 87.84375,7.8125 87.700576,7.63805 87.540609,7.465502 87.375,7.3125 87.36383,7.3023 87.35502,7.29135 87.34375,7.28125 87.205364,7.155694 87.058659,7.046814 86.90625,6.9375 86.803679,6.86435 86.701932,6.784136 86.59375,6.71875 c -0.0074,-0.0045 -0.02384,0.0044 -0.03125,0 -0.232039,-0.138728 -0.462548,-0.274778 -0.71875,-0.375 0.301527,0.0968 0.596455,0.204138 0.875,0.34375 0.55709,0.279224 1.060053,0.665694 1.5,1.09375 0.219973,0.214028 0.409366,0.441865 0.59375,0.6875 0.184384,0.245635 0.355408,0.507743 0.5,0.78125 0.14012,0.265048 0.276135,0.524729 0.375,0.8125 0.01041,0.03078 0.02133,0.06274 0.03125,0.09375 0.09046,0.278085 0.1388,0.579404 0.1875,0.875 C 89.95865,11.3493 90,11.665279 90,12 l 0,2 0,68 0,2 c 0,3.324 -2.676,6 -6,6 l -72,0 z"
       inkscape:connector-curvature="0"
       id="path3615"
       style="opacity:0.15;fill:url(#radialGradient3619);fill-opacity:1;fill-rule:nonzero;stroke:none;display:inline" />
  </g>
</svg>
