<?xml version="1.0" encoding="UTF-8" standalone="no"?>
<!-- Created with Inkscape (http://www.inkscape.org/) -->

<svg
   xmlns:dc="http://purl.org/dc/elements/1.1/"
   xmlns:cc="http://creativecommons.org/ns#"
   xmlns:rdf="http://www.w3.org/1999/02/22-rdf-syntax-ns#"
   xmlns:svg="http://www.w3.org/2000/svg"
   xmlns="http://www.w3.org/2000/svg"
   xmlns:xlink="http://www.w3.org/1999/xlink"
   xmlns:inkscape="http://www.inkscape.org/namespaces/inkscape"
   version="1.0"
   width="96"
   height="96"
   id="svg2408">
  <defs
     id="defs2410">
    <linearGradient
       id="linearGradient4014">
      <stop
         id="stop4018"
         style="stop-color:#8c7bbd;stop-opacity:1"
         offset="0" />
      <stop
         id="stop4024"
         style="stop-color:#150641;stop-opacity:1"
         offset="1" />
    </linearGradient>
    <linearGradient
       id="linearGradient3919">
      <stop
         id="stop3921"
         style="stop-color:#aaaaff;stop-opacity:1"
         offset="0" />
      <stop
         id="stop3923"
         style="stop-color:#aaaaff;stop-opacity:0"
         offset="1" />
    </linearGradient>
    <linearGradient
       id="linearGradient3864">
      <stop
         id="stop3866"
         style="stop-color:#ffffff;stop-opacity:1"
         offset="0" />
      <stop
         id="stop3872"
         style="stop-color:#ffffff;stop-opacity:0.57364339"
         offset="0.24046054" />
      <stop
         id="stop3874"
         style="stop-color:#ffffff;stop-opacity:0.14728682"
         offset="0.68723786" />
      <stop
         id="stop3878"
         style="stop-color:#ffffff;stop-opacity:0.10852713"
         offset="0.74210525" />
      <stop
         id="stop3868"
         style="stop-color:#ffffff;stop-opacity:0"
         offset="1" />
    </linearGradient>
    <linearGradient
       id="linearGradient3791">
      <stop
         id="stop3793"
         style="stop-color:#36326c;stop-opacity:1"
         offset="0" />
      <stop
         id="stop3795"
         style="stop-color:#6d6aaf;stop-opacity:1"
         offset="1" />
    </linearGradient>
    <linearGradient
       x1="45.447727"
       y1="92.539597"
       x2="45.447727"
       y2="7.0165396"
       id="ButtonShadow"
       gradientUnits="userSpaceOnUse"
       gradientTransform="scale(1.0058652,0.994169)">
      <stop
         id="stop3750"
         style="stop-color:#000000;stop-opacity:1"
         offset="0" />
      <stop
         id="stop3752"
         style="stop-color:#000000;stop-opacity:0.58823532"
         offset="1" />
    </linearGradient>
    <linearGradient
       id="linearGradient3737">
      <stop
         id="stop3739"
         style="stop-color:#ffffff;stop-opacity:1"
         offset="0" />
      <stop
         id="stop3741"
         style="stop-color:#ffffff;stop-opacity:0"
         offset="1" />
    </linearGradient>
    <filter
       color-interpolation-filters="sRGB"
       id="filter3174">
      <feGaussianBlur
         id="feGaussianBlur3176"
         stdDeviation="1.71" />
    </filter>
    <linearGradient
       x1="36.357143"
       y1="6"
       x2="36.357143"
       y2="63.893143"
       id="linearGradient3188"
       xlink:href="#linearGradient3737"
       gradientUnits="userSpaceOnUse" />
    <filter
       x="-0.192"
       y="-0.192"
       width="1.3839999"
       height="1.3839999"
       color-interpolation-filters="sRGB"
       id="filter3794">
      <feGaussianBlur
         id="feGaussianBlur3796"
         stdDeviation="5.28" />
    </filter>
    <linearGradient
       x1="48"
       y1="20.220806"
       x2="48"
       y2="138.66119"
       id="linearGradient3613"
       xlink:href="#linearGradient3737"
       gradientUnits="userSpaceOnUse" />
    <radialGradient
       cx="48"
       cy="90.171875"
       r="42"
       fx="48"
       fy="90.171875"
       id="radialGradient3619"
       xlink:href="#linearGradient3737"
       gradientUnits="userSpaceOnUse"
       gradientTransform="matrix(1.1573129,0,0,0.99590774,-7.5510206,0.19713193)" />
    <clipPath
       id="clipPath3613">
      <rect
         width="84"
         height="84"
         rx="6"
         ry="6"
         x="6"
         y="6"
         id="rect3615"
         style="fill:#ffffff;fill-opacity:1;fill-rule:nonzero;stroke:none" />
    </clipPath>
    <linearGradient
       x1="48"
       y1="90"
       x2="48"
       y2="5.9877172"
       id="linearGradient3617"
       xlink:href="#linearGradient3791"
       gradientUnits="userSpaceOnUse" />
    <linearGradient
       x1="45.447727"
       y1="92.539597"
       x2="45.447727"
       y2="7.0165396"
       id="ButtonShadow-0"
       gradientUnits="userSpaceOnUse"
       gradientTransform="matrix(1.0058652,0,0,0.994169,100,0)">
      <stop
         id="stop3750-8"
         style="stop-color:#000000;stop-opacity:1"
         offset="0" />
      <stop
         id="stop3752-5"
         style="stop-color:#000000;stop-opacity:0.58823532"
         offset="1" />
    </linearGradient>
    <linearGradient
       x1="32.251034"
       y1="6.1317081"
       x2="32.251034"
       y2="90.238609"
       id="linearGradient3780"
       xlink:href="#ButtonShadow-0"
       gradientUnits="userSpaceOnUse"
       gradientTransform="matrix(1.0238095,0,0,1.0119048,-1.1428571,-98.071429)" />
    <linearGradient
       x1="32.251034"
       y1="6.1317081"
       x2="32.251034"
       y2="90.238609"
       id="linearGradient3772"
       xlink:href="#ButtonShadow-0"
       gradientUnits="userSpaceOnUse"
       gradientTransform="matrix(1.0238095,0,0,1.0119048,-1.1428571,-98.071429)" />
    <linearGradient
       x1="32.251034"
       y1="6.1317081"
       x2="32.251034"
       y2="90.238609"
       id="linearGradient3725"
       xlink:href="#ButtonShadow-0"
       gradientUnits="userSpaceOnUse"
       gradientTransform="matrix(1.0238095,0,0,1.0119048,-1.1428571,-98.071429)" />
    <linearGradient
       x1="32.251034"
       y1="6.1317081"
       x2="32.251034"
       y2="90.238609"
       id="linearGradient3721"
       xlink:href="#ButtonShadow-0"
       gradientUnits="userSpaceOnUse"
       gradientTransform="translate(0,-97)" />
    <linearGradient
       x1="45.447727"
       y1="92.539597"
       x2="45.447727"
       y2="7.0165396"
       id="linearGradient3015"
       gradientUnits="userSpaceOnUse"
       gradientTransform="matrix(1.0058652,0,0,0.994169,100,0)">
      <stop
         id="stop3017"
         style="stop-color:#000000;stop-opacity:1"
         offset="0" />
      <stop
         id="stop3019"
         style="stop-color:#000000;stop-opacity:0"
         offset="1" />
    </linearGradient>
    <linearGradient
       x1="32.251034"
       y1="6.1317081"
       x2="32.251034"
       y2="90.238609"
       id="linearGradient3026"
       xlink:href="#ButtonShadow-0"
       gradientUnits="userSpaceOnUse"
       gradientTransform="matrix(1.0238095,0,0,1.0119048,-1.1428571,-98.071429)" />
    <linearGradient
       id="linearGradient4244">
      <stop
         id="stop4246"
         style="stop-color:#ffffff;stop-opacity:1"
         offset="0" />
      <stop
         id="stop4267"
         style="stop-color:#afa7c6;stop-opacity:1"
         offset="0.17570542" />
      <stop
         id="stop4261"
         style="stop-color:#43477f;stop-opacity:1"
         offset="0.60860282" />
      <stop
         id="stop4270"
         style="stop-color:#1a2351;stop-opacity:1"
         offset="0.85355651" />
      <stop
         id="stop4248"
         style="stop-color:#000b2f;stop-opacity:1"
         offset="1" />
    </linearGradient>
    <linearGradient
       id="linearGradient4281">
      <stop
         id="stop4283"
         style="stop-color:#f6e5ed;stop-opacity:1"
         offset="0" />
      <stop
         id="stop4285"
         style="stop-color:#9f275f;stop-opacity:1"
         offset="1" />
    </linearGradient>
    <radialGradient
       cx="10.367113"
       cy="12.515939"
       r="20.571428"
       fx="8.0648556"
       fy="11.953024"
       id="radialGradient3009"
       xlink:href="#linearGradient4244"
       gradientUnits="userSpaceOnUse"
       gradientTransform="matrix(1.49376,1.39048,-1.00586,1.08057,5.61124,-17.4)" />
    <radialGradient
       cx="9.3303061"
       cy="13.350715"
       r="20.571428"
       fx="7.0280466"
       fy="12.7878"
       id="radialGradient3802"
       xlink:href="#linearGradient4281"
       gradientUnits="userSpaceOnUse"
       gradientTransform="matrix(1.9321,1.82407,-1.01344,1.07346,126.22221,3.554102)" />
    <radialGradient
       cx="10.367113"
       cy="12.515939"
       r="20.571428"
       fx="8.0648556"
       fy="11.953024"
       id="radialGradient3837"
       xlink:href="#linearGradient4244"
       gradientUnits="userSpaceOnUse"
       gradientTransform="matrix(1.49376,1.39048,-1.00586,1.08057,5.61124,-17.4)" />
    <radialGradient
       cx="11.912163"
       cy="21.022171"
       r="20.571428"
       fx="11.912163"
       fy="21.022171"
       id="radialGradient3839"
       xlink:href="#linearGradient4281"
       gradientUnits="userSpaceOnUse"
       gradientTransform="matrix(2.5419477,2.5419475,-1.5699299,1.56993,26.019003,54.954664)" />
    <radialGradient
       cx="10.367113"
       cy="12.515939"
       r="20.571428"
       fx="8.0648556"
       fy="11.953024"
       id="radialGradient3842"
       xlink:href="#linearGradient4281"
       gradientUnits="userSpaceOnUse"
       gradientTransform="matrix(2.1784001,2.08572,-1.4668792,1.620855,17.183057,-13.814288)" />
    <linearGradient
       x1="6"
       y1="48"
       x2="90"
       y2="48"
       id="linearGradient3925"
       xlink:href="#linearGradient3919"
       gradientUnits="userSpaceOnUse" />
    <linearGradient
       x1="6"
       y1="48"
       x2="56.039986"
       y2="48"
       id="linearGradient3953"
       xlink:href="#linearGradient3015"
       gradientUnits="userSpaceOnUse"
       gradientTransform="translate(0,2)" />
    <linearGradient
       x1="52"
       y1="19.252991"
       x2="52"
       y2="52.815491"
       id="linearGradient3963"
       xlink:href="#linearGradient3737"
       gradientUnits="userSpaceOnUse"
       gradientTransform="matrix(0.93299188,0,0,0.84906201,3.4844221,3.9060077)" />
    <radialGradient
       cx="26.785715"
       cy="27.25"
       r="16.964285"
       fx="26.785715"
       fy="27.25"
       id="radialGradient3965"
       xlink:href="#linearGradient3864"
       gradientUnits="userSpaceOnUse" />
    <radialGradient
       cx="10.367113"
       cy="12.515939"
       r="20.571428"
       fx="8.0648556"
       fy="11.953024"
       id="radialGradient3988"
       xlink:href="#linearGradient4244"
       gradientUnits="userSpaceOnUse"
       gradientTransform="matrix(2.1784001,2.08572,-1.4668792,1.620855,25.183057,-103.81429)" />
    <radialGradient
       cx="52"
       cy="66.104958"
       r="30.000002"
       fx="52"
       fy="66.104958"
       id="radialGradient4026"
       xlink:href="#linearGradient4014"
       gradientUnits="userSpaceOnUse"
       gradientTransform="matrix(1.092874,-6.8394169e-8,7.6055756e-8,1.2152989,-4.8294542,-14.232317)" />
    <filter
       color-interpolation-filters="sRGB"
       id="filter4039">
      <feGaussianBlur
         id="feGaussianBlur4041"
         stdDeviation="2.4" />
    </filter>
  </defs>
  <metadata
     id="metadata2413">
    <rdf:RDF>
      <cc:Work
         rdf:about="">
        <dc:format>image/svg+xml</dc:format>
        <dc:type
           rdf:resource="http://purl.org/dc/dcmitype/StillImage" />
        <dc:title />
      </cc:Work>
    </rdf:RDF>
  </metadata>
  <g
     id="layer2"
     style="display:none">
    <rect
       width="86"
       height="85"
       rx="6"
       ry="6"
       x="5"
       y="7"
       id="rect3745"
       style="opacity:0.9;fill:url(#ButtonShadow);fill-opacity:1;fill-rule:nonzero;stroke:none;filter:url(#filter3174)" />
  </g>
  <g
     id="layer3">
    <path
       d="m 12,-95.03125 c -5.5110903,0 -10.03125,4.52016 -10.03125,10.03125 l 0,71 c 0,5.5110902 4.5201598,10.03125 10.03125,10.03125 l 72,0 c 5.51109,0 10.03125,-4.5201597 10.03125,-10.03125 l 0,-71 c 0,-5.51109 -4.52016,-10.03125 -10.03125,-10.03125 l -72,0 z"
       transform="scale(1,-1)"
       id="path3786"
       style="opacity:0.07999998;fill:url(#linearGradient3026);fill-opacity:1;fill-rule:nonzero;stroke:none;display:inline" />
    <path
       d="m 12,-94.03125 c -4.971633,0 -9.03125,4.059617 -9.03125,9.03125 l 0,71 c 0,4.9716329 4.0596171,9.03125 9.03125,9.03125 l 72,0 c 4.971633,0 9.03125,-4.059617 9.03125,-9.03125 l 0,-71 c 0,-4.971633 -4.059617,-9.03125 -9.03125,-9.03125 l -72,0 z"
       transform="scale(1,-1)"
       id="path3778"
       style="opacity:0.1;fill:url(#linearGradient3780);fill-opacity:1;fill-rule:nonzero;stroke:none;display:inline" />
    <path
       d="m 12,-93 c -4.4091333,0 -8,3.590867 -8,8 l 0,71 c 0,4.4091333 3.5908667,8 8,8 l 72,0 c 4.409133,0 8,-3.5908667 8,-8 l 0,-71 c 0,-4.409133 -3.590867,-8 -8,-8 l -72,0 z"
       transform="scale(1,-1)"
       id="path3770"
       style="opacity:0.2;fill:url(#linearGradient3772);fill-opacity:1;fill-rule:nonzero;stroke:none;display:inline" />
    <rect
       width="86"
       height="85"
       rx="7"
       ry="7"
       x="5"
       y="-92"
       transform="scale(1,-1)"
       id="rect3723"
       style="opacity:0.3;fill:url(#linearGradient3725);fill-opacity:1;fill-rule:nonzero;stroke:none;display:inline" />
    <rect
       width="84"
       height="84"
       rx="6"
       ry="6"
       x="6"
       y="-91"
       transform="scale(1,-1)"
       id="rect3716"
       style="opacity:0.45;fill:url(#linearGradient3721);fill-opacity:1;fill-rule:nonzero;stroke:none;display:inline" />
  </g>
  <g
     id="layer1">
    <rect
       width="84"
       height="84"
       rx="6"
       ry="6"
       x="6"
       y="6"
       id="rect2419"
       style="fill:url(#linearGradient3617);fill-opacity:1;fill-rule:nonzero;stroke:none" />
    <path
       d="M 74,48 A 30.000001,30 0 0 1 13.999999,48 30.000001,30 0 1 1 74,48 z"
       inkscape:connector-curvature="0"
       id="path3015"
       style="fill:url(#radialGradient3842);fill-opacity:1;filter:url(#filter4039)" />
    <path
       d="M 74,48 A 30.000001,30 0 0 1 13.999999,48 30.000001,30 0 1 1 74,48 z"
       inkscape:connector-curvature="0"
       id="path4043"
       style="fill:url(#radialGradient3842);fill-opacity:1" />
    <path
       d="M 12,6 C 8.676,6 6,8.676 6,12 l 0,2 0,68 0,2 c 0,0.334721 0.04135,0.6507 0.09375,0.96875 0.0487,0.295596 0.09704,0.596915 0.1875,0.875 0.00988,0.03038 0.020892,0.0636 0.03125,0.09375 0.098865,0.287771 0.2348802,0.547452 0.375,0.8125 0.1445918,0.273507 0.3156161,0.535615 0.5,0.78125 0.1843839,0.245635 0.3737765,0.473472 0.59375,0.6875 0.439947,0.428056 0.94291,0.814526 1.5,1.09375 0.278545,0.139612 0.5734731,0.246947 0.875,0.34375 -0.2562018,-0.100222 -0.4867109,-0.236272 -0.71875,-0.375 -0.00741,-0.0044 -0.023866,0.0045 -0.03125,0 -0.031933,-0.0193 -0.062293,-0.04251 -0.09375,-0.0625 -0.120395,-0.0767 -0.2310226,-0.163513 -0.34375,-0.25 -0.1061728,-0.0808 -0.2132809,-0.161112 -0.3125,-0.25 C 8.4783201,88.557317 8.3087904,88.373362 8.15625,88.1875 8.0486711,88.057245 7.9378561,87.922215 7.84375,87.78125 7.818661,87.74287 7.805304,87.69538 7.78125,87.65625 7.716487,87.553218 7.6510225,87.451733 7.59375,87.34375 7.4927417,87.149044 7.3880752,86.928049 7.3125,86.71875 7.30454,86.69694 7.288911,86.6782 7.28125,86.65625 7.2494249,86.5643 7.2454455,86.469419 7.21875,86.375 7.1884177,86.268382 7.1483606,86.171969 7.125,86.0625 7.0521214,85.720988 7,85.364295 7,85 L 7,83 7,15 7,13 C 7,10.218152 9.2181517,8 12,8 l 2,0 68,0 2,0 c 2.781848,0 5,2.218152 5,5 l 0,2 0,68 0,2 c 0,0.364295 -0.05212,0.720988 -0.125,1.0625 -0.04415,0.206893 -0.08838,0.397658 -0.15625,0.59375 -0.0077,0.02195 -0.0233,0.04069 -0.03125,0.0625 -0.06274,0.173739 -0.138383,0.367449 -0.21875,0.53125 -0.04158,0.0828 -0.07904,0.169954 -0.125,0.25 -0.0546,0.09721 -0.126774,0.18835 -0.1875,0.28125 -0.09411,0.140965 -0.204921,0.275995 -0.3125,0.40625 -0.143174,0.17445 -0.303141,0.346998 -0.46875,0.5 -0.01117,0.0102 -0.01998,0.02115 -0.03125,0.03125 -0.138386,0.125556 -0.285091,0.234436 -0.4375,0.34375 -0.102571,0.07315 -0.204318,0.153364 -0.3125,0.21875 -0.0074,0.0045 -0.02384,-0.0044 -0.03125,0 -0.232039,0.138728 -0.462548,0.274778 -0.71875,0.375 0.301527,-0.0968 0.596455,-0.204138 0.875,-0.34375 0.55709,-0.279224 1.060053,-0.665694 1.5,-1.09375 0.219973,-0.214028 0.409366,-0.441865 0.59375,-0.6875 0.184384,-0.245635 0.355408,-0.507743 0.5,-0.78125 0.14012,-0.265048 0.276135,-0.524729 0.375,-0.8125 0.01041,-0.03078 0.02133,-0.06274 0.03125,-0.09375 0.09046,-0.278085 0.1388,-0.579404 0.1875,-0.875 C 89.95865,84.6507 90,84.334721 90,84 l 0,-2 0,-68 0,-2 C 90,8.676 87.324,6 84,6 L 12,6 z"
       inkscape:connector-curvature="0"
       id="rect3728"
       style="opacity:0.35;fill:url(#linearGradient3188);fill-opacity:1;fill-rule:nonzero;stroke:none" />
    <path
       d="M 12,90 C 8.676,90 6,87.324 6,84 L 6,82 6,14 6,12 c 0,-0.334721 0.04135,-0.6507 0.09375,-0.96875 0.0487,-0.295596 0.09704,-0.596915 0.1875,-0.875 C 6.29113,10.12587 6.302142,10.09265 6.3125,10.0625 6.411365,9.774729 6.5473802,9.515048 6.6875,9.25 6.8320918,8.976493 7.0031161,8.714385 7.1875,8.46875 7.3718839,8.223115 7.5612765,7.995278 7.78125,7.78125 8.221197,7.353194 8.72416,6.966724 9.28125,6.6875 9.559795,6.547888 9.8547231,6.440553 10.15625,6.34375 9.9000482,6.443972 9.6695391,6.580022 9.4375,6.71875 c -0.00741,0.0044 -0.023866,-0.0045 -0.03125,0 -0.031933,0.0193 -0.062293,0.04251 -0.09375,0.0625 -0.120395,0.0767 -0.2310226,0.163513 -0.34375,0.25 -0.1061728,0.0808 -0.2132809,0.161112 -0.3125,0.25 C 8.4783201,7.442683 8.3087904,7.626638 8.15625,7.8125 8.0486711,7.942755 7.9378561,8.077785 7.84375,8.21875 7.818661,8.25713 7.805304,8.30462 7.78125,8.34375 7.716487,8.446782 7.6510225,8.548267 7.59375,8.65625 7.4927417,8.850956 7.3880752,9.071951 7.3125,9.28125 7.30454,9.30306 7.288911,9.3218 7.28125,9.34375 7.2494249,9.4357 7.2454455,9.530581 7.21875,9.625 7.1884177,9.731618 7.1483606,9.828031 7.125,9.9375 7.0521214,10.279012 7,10.635705 7,11 l 0,2 0,68 0,2 c 0,2.781848 2.2181517,5 5,5 l 2,0 68,0 2,0 c 2.781848,0 5,-2.218152 5,-5 l 0,-2 0,-68 0,-2 C 89,10.635705 88.94788,10.279012 88.875,9.9375 88.83085,9.730607 88.78662,9.539842 88.71875,9.34375 88.71105,9.3218 88.69545,9.30306 88.6875,9.28125 88.62476,9.107511 88.549117,8.913801 88.46875,8.75 88.42717,8.6672 88.38971,8.580046 88.34375,8.5 88.28915,8.40279 88.216976,8.31165 88.15625,8.21875 88.06214,8.077785 87.951329,7.942755 87.84375,7.8125 87.700576,7.63805 87.540609,7.465502 87.375,7.3125 87.36383,7.3023 87.35502,7.29135 87.34375,7.28125 87.205364,7.155694 87.058659,7.046814 86.90625,6.9375 86.803679,6.86435 86.701932,6.784136 86.59375,6.71875 c -0.0074,-0.0045 -0.02384,0.0044 -0.03125,0 -0.232039,-0.138728 -0.462548,-0.274778 -0.71875,-0.375 0.301527,0.0968 0.596455,0.204138 0.875,0.34375 0.55709,0.279224 1.060053,0.665694 1.5,1.09375 0.219973,0.214028 0.409366,0.441865 0.59375,0.6875 0.184384,0.245635 0.355408,0.507743 0.5,0.78125 0.14012,0.265048 0.276135,0.524729 0.375,0.8125 0.01041,0.03078 0.02133,0.06274 0.03125,0.09375 0.09046,0.278085 0.1388,0.579404 0.1875,0.875 C 89.95865,11.3493 90,11.665279 90,12 l 0,2 0,68 0,2 c 0,3.324 -2.676,6 -6,6 l -72,0 z"
       inkscape:connector-curvature="0"
       id="path3615"
       style="opacity:0.15;fill:url(#radialGradient3619);fill-opacity:1;fill-rule:nonzero;stroke:none" />
    <g
       transform="translate(25.750885,24.238094)"
       id="layer1-2"
       style="display:inline" />
    <path
       d="m 168.43342,47.984127 a 20.57143,20.000002 0 0 1 -41.14286,0 20.57143,20.000002 0 1 1 41.14286,0 z"
       inkscape:connector-curvature="0"
       id="path4277"
       style="fill:url(#radialGradient3802);fill-opacity:1;display:inline" />
    <g
       transform="translate(125.75088,24.238094)"
       id="layer2-1"
       style="display:inline">
      <path
         d="m 44.571428,23.809525 a 20.571428,20 0 1 1 -41.1428563,0 20.571428,20 0 1 1 41.1428563,0 z"
         inkscape:connector-curvature="0"
         transform="translate(1.01587,0.253968)"
         id="path4242"
         style="fill:url(#radialGradient3009);fill-opacity:1" />
    </g>
    <g
       transform="translate(125.75088,24.238094)"
       id="layer4"
       style="display:inline">
      <path
         d="m 4.8726345,19.620132 41.7636375,0"
         inkscape:connector-curvature="0"
         id="path6086"
         style="fill:#acbde1;fill-opacity:1;fill-rule:evenodd;stroke:#acbde1;stroke-width:0.71830201px;stroke-linecap:butt;stroke-linejoin:miter;stroke-opacity:1" />
      <path
         d="m 4.4803972,22.657456 42.1542208,0"
         inkscape:connector-curvature="0"
         id="path6109"
         style="fill:#acbde1;fill-opacity:1;fill-rule:evenodd;stroke:#acbde1;stroke-width:0.72165298px;stroke-linecap:butt;stroke-linejoin:miter;stroke-opacity:1;display:inline" />
      <path
         d="m 4.4938244,25.669163 42.1542206,0"
         inkscape:connector-curvature="0"
         id="path6111"
         style="fill:#acbde1;fill-opacity:1;fill-rule:evenodd;stroke:#acbde1;stroke-width:0.72165298px;stroke-linecap:butt;stroke-linejoin:miter;stroke-opacity:1;display:inline" />
      <path
         d="m 4.8983214,28.672363 41.7724646,0"
         inkscape:connector-curvature="0"
         id="path6113"
         style="fill:#acbde1;fill-opacity:1;fill-rule:evenodd;stroke:#acbde1;stroke-width:0.71837801px;stroke-linecap:butt;stroke-linejoin:miter;stroke-opacity:1;display:inline" />
    </g>
    <path
       d="m 43.75,27.25 a 16.964285,16.964285 0 1 1 -33.9285698,0 16.964285,16.964285 0 1 1 33.9285698,0 z"
       id="path3862"
       style="color:#000000;fill:url(#radialGradient3965);fill-opacity:1;fill-rule:nonzero;stroke:none;stroke-width:1;marker:none;visibility:visible;display:inline;overflow:visible;enable-background:accumulate" />
    <path
       d="m 48.9375,16.875 c -1.005754,-0.02935 -2.18091,-0.0089 -3.1875,0.0625 -1.005378,0.07136 -2.22442,0.203418 -3.21875,0.375 -0.975855,0.168395 -2.136858,0.413064 -3.125,0.6875 -0.987144,0.274159 -2.107244,0.671876 -3.03125,1.03125 -0.924968,0.359748 -2.056475,0.816752 -2.96875,1.28125 -0.910032,0.463356 -1.94395,1.087163 -2.78125,1.625 -0.849229,0.545499 -1.804781,1.24865 -2.59375,1.875 -0.776958,0.616815 -1.703239,1.380298 -2.4375,2.09375 -0.722983,0.702493 -1.537706,1.60314 -2.1875,2.375 -0.649359,0.771344 -1.368889,1.730867 -1.9375,2.5625 -0.570029,0.833707 -1.205083,1.866306 -1.6875,2.75 -0.487617,0.893219 -1.017394,1.98568 -1.40625,2.90625 -0.39135,0.926474 -0.795742,2.035419 -1.09375,3 -0.294036,0.951727 -0.610312,2.094391 -0.8125,3.09375 -0.204222,1.00941 -0.339292,2.235979 -0.4375,3.21875 -0.100008,1.000784 -0.156679,2.17772 -0.15625,3.1875 2.5e-4,0.970166 0.02602,2.122553 0.125,3.125 0.09862,0.998833 0.278072,2.198774 0.46875,3.15625 0.189611,0.952117 0.457131,2.097768 0.75,3.0625 0.28982,0.954689 0.687629,2.032978 1.0625,2.9375 0.378213,0.912588 0.906883,1.999587 1.375,2.875 0.468362,0.87587 1.04703,1.869562 1.59375,2.6875 0.543639,0.81333 1.239645,1.788548 1.875,2.5625 0.635826,0.774527 1.465476,1.621905 2.15625,2.3125 0.690353,0.690175 1.537349,1.520247 2.3125,2.15625 0.773656,0.634776 1.748534,1.331239 2.5625,1.875 0.81759,0.546181 1.810991,1.125337 2.6875,1.59375 0.893352,0.477414 1.981895,0.973881 2.875,1.34375 0.904074,0.374411 1.982173,0.772755 2.9375,1.0625 0.942641,0.285897 2.087065,0.587256 3.0625,0.78125 0.979628,0.194828 2.180157,0.341379 3.15625,0.4375 0.978527,0.09636 2.130659,0.15625 3.125,0.15625 0.994341,0 2.146473,-0.05989 3.125,-0.15625 0.976093,-0.09612 2.176622,-0.242672 3.15625,-0.4375 0.975435,-0.193994 2.119859,-0.495353 3.0625,-0.78125 0.955327,-0.289745 2.033426,-0.688089 2.9375,-1.0625 0.893105,-0.369869 1.981648,-0.866336 2.875,-1.34375 0.876509,-0.468413 1.86991,-1.047569 2.6875,-1.59375 0.813966,-0.543761 1.788844,-1.240224 2.5625,-1.875 0.775151,-0.636003 1.622147,-1.466075 2.3125,-2.15625 0.690774,-0.690595 1.520424,-1.537973 2.15625,-2.3125 0.635355,-0.773952 1.331361,-1.74917 1.875,-2.5625 0.54672,-0.817938 1.125388,-1.81163 1.59375,-2.6875 0.468117,-0.875413 0.996787,-1.962412 1.375,-2.875 0.374871,-0.904522 0.77268,-1.982811 1.0625,-2.9375 0.292869,-0.964732 0.560389,-2.110383 0.75,-3.0625 C 79.721928,54.323774 79.901379,53.123833 80,52.125 80.098978,51.122553 80.12475,49.970166 80.125,49 80.125407,48.042422 80.094445,46.887516 80,45.90625 c -0.09379,-0.974432 -0.253611,-2.118212 -0.4375,-3.0625 -0.185643,-0.953296 -0.472752,-2.097776 -0.75,-3.03125 -0.272991,-0.91914 -0.630938,-1.995713 -1,-2.90625 -0.371217,-0.915854 -0.90134,-1.965741 -1.34375,-2.8125 -0.444178,-0.850141 -0.993919,-1.863489 -1.53125,-2.6875 -0.533653,-0.81837 -1.210454,-1.715391 -1.8125,-2.46875 -0.612903,-0.766944 -1.392265,-1.653379 -2.0625,-2.34375 -0.658531,-0.678316 -1.490227,-1.480077 -2.25,-2.125 -0.746947,-0.634035 -1.64717,-1.32563 -2.4375,-1.875 -0.803742,-0.558693 -1.813981,-1.183945 -2.65625,-1.65625 -0.835796,-0.468675 -1.850099,-0.978854 -2.75,-1.375 -0.900644,-0.396473 -1.994832,-0.824679 -2.90625,-1.125 -0.932452,-0.307252 -2.032408,-0.56997 -2.96875,-0.78125 -0.93565,-0.211124 -2.087322,-0.43942 -3.0625,-0.5625 C 51.056535,16.970728 49.898422,16.903039 48.9375,16.875 z"
       transform="translate(4,0)"
       id="path3908"
       style="opacity:0.1;fill:#000000;fill-opacity:1" />
    <g
       transform="matrix(1.4583334,0,0,1.5,11.518521,101.90476)"
       id="g3831"
       style="display:inline">
      <path
         d="m 44.571428,23.809525 a 20.571428,20 0 1 1 -41.1428563,0 20.571428,20 0 1 1 41.1428563,0 z"
         inkscape:connector-curvature="0"
         transform="translate(1.01587,0.253968)"
         id="path3833"
         style="fill:url(#radialGradient3837);fill-opacity:1" />
    </g>
    <path
       d="m 48.875,108 c -7.998559,-0.23339 -16.042154,2.89501 -21.781134,8.47134 C 21.354886,122.04768 17.996596,129.99804 18,138 c 0.01674,8.07285 3.457583,16.08321 9.301101,21.65317 5.843517,5.56997 14.009514,8.6231 22.073899,8.25308 -6.706566,-0.46082 -13.216192,-3.88504 -17.822965,-9.3753 C 26.945261,153.04069 24.289693,145.542 24.28125,138 c 0.0033,-7.56926 2.673709,-15.09676 7.306737,-20.59668 C 36.221016,111.90339 42.767343,108.48959 49.5,108.0625 49.291892,108.0395 49.083544,108.0186 48.875,108 z"
       inkscape:connector-curvature="0"
       id="path3835"
       style="fill:url(#radialGradient3839);fill-opacity:1" />
    <path
       d="M 82,49 A 30.000001,30 0 0 1 21.999999,49 30.000001,30 0 1 1 82,49 z"
       inkscape:connector-curvature="0"
       id="path3898"
       style="opacity:0.3;fill:#000000;fill-opacity:1" />
    <path
       d="m 48.90625,17.9375 c -0.963996,-0.02813 -2.131764,-0.0058 -3.09375,0.0625 -0.961986,0.06827 -2.14339,0.211005 -3.09375,0.375 -0.95036,0.163995 -2.102016,0.398174 -3.03125,0.65625 -0.929234,0.258076 -2.038682,0.650422 -2.9375,1 -0.898818,0.349578 -1.984332,0.812415 -2.84375,1.25 -0.859418,0.437585 -1.876074,1.041283 -2.6875,1.5625 -0.811426,0.521217 -1.775927,1.212861 -2.53125,1.8125 -0.755323,0.599639 -1.652081,1.359183 -2.34375,2.03125 -0.691669,0.672067 -1.5039,1.543474 -2.125,2.28125 -0.6211,0.737776 -1.330677,1.67264 -1.875,2.46875 -0.544323,0.79611 -1.162895,1.809764 -1.625,2.65625 -0.462105,0.846486 -0.968483,1.9241 -1.34375,2.8125 -0.375267,0.8884 -0.777823,1.984817 -1.0625,2.90625 -0.284677,0.921433 -0.590008,2.054746 -0.78125,3 -0.191242,0.945254 -0.341605,2.134123 -0.4375,3.09375 -0.09589,0.959627 -0.15666,2.129344 -0.15625,3.09375 2.44e-4,0.946416 0.03201,2.089414 0.125,3.03125 0.09299,0.941836 0.283904,2.103061 0.46875,3.03125 0.184846,0.928189 0.44383,2.063144 0.71875,2.96875 0.27492,0.905606 0.668903,1.969446 1.03125,2.84375 0.362347,0.874304 0.866215,1.946665 1.3125,2.78125 0.446285,0.834585 1.036573,1.806919 1.5625,2.59375 0.525927,0.786831 1.211994,1.737248 1.8125,2.46875 0.600506,0.731502 1.393197,1.58087 2.0625,2.25 0.669303,0.66913 1.518343,1.462183 2.25,2.0625 0.731657,0.600317 1.681783,1.286776 2.46875,1.8125 0.786967,0.525724 1.75905,1.11643 2.59375,1.5625 0.8347,0.44607 1.906853,0.919129 2.78125,1.28125 0.874397,0.362121 1.938073,0.756564 2.84375,1.03125 0.905677,0.274686 2.040514,0.565393 2.96875,0.75 0.928236,0.184607 2.08939,0.34475 3.03125,0.4375 0.94186,0.09275 2.084834,0.15625 3.03125,0.15625 0.946416,0 2.08939,-0.0635 3.03125,-0.15625 0.94186,-0.09275 2.103014,-0.252893 3.03125,-0.4375 0.928236,-0.184607 2.063073,-0.475314 2.96875,-0.75 0.905677,-0.274686 1.969353,-0.669129 2.84375,-1.03125 0.874397,-0.362121 1.94655,-0.83518 2.78125,-1.28125 0.8347,-0.44607 1.806783,-1.036776 2.59375,-1.5625 0.786967,-0.525724 1.737093,-1.212183 2.46875,-1.8125 0.731657,-0.600317 1.580697,-1.39337 2.25,-2.0625 0.669303,-0.66913 1.461994,-1.518498 2.0625,-2.25 0.600506,-0.731502 1.286573,-1.681919 1.8125,-2.46875 0.525927,-0.786831 1.116215,-1.759165 1.5625,-2.59375 0.446285,-0.834585 0.950153,-1.906946 1.3125,-2.78125 0.362347,-0.874304 0.75633,-1.938144 1.03125,-2.84375 0.27492,-0.905606 0.533904,-2.040561 0.71875,-2.96875 0.184846,-0.928189 0.375757,-2.089414 0.46875,-3.03125 0.09299,-0.941836 0.124756,-2.084834 0.125,-3.03125 3.95e-4,-0.929249 -0.03597,-2.075025 -0.125,-3 C 78.848473,45.075025 78.677624,43.974615 78.5,43.0625 78.322376,42.150385 78.045821,41.01579 77.78125,40.125 77.516679,39.23421 77.161563,38.173696 76.8125,37.3125 76.463437,36.451304 75.961565,35.417359 75.53125,34.59375 75.100935,33.770141 74.538824,32.778378 74.03125,32 c -0.507574,-0.778378 -1.169879,-1.680327 -1.75,-2.40625 -0.580121,-0.725923 -1.352717,-1.58327 -2,-2.25 -0.647283,-0.66673 -1.447812,-1.461152 -2.15625,-2.0625 -0.708438,-0.601348 -1.611982,-1.282115 -2.375,-1.8125 -0.763018,-0.530385 -1.751985,-1.139251 -2.5625,-1.59375 -0.810515,-0.454499 -1.80576,-0.969355 -2.65625,-1.34375 -0.85049,-0.374395 -1.92993,-0.771685 -2.8125,-1.0625 -0.88257,-0.290815 -1.968541,-0.576713 -2.875,-0.78125 -0.906459,-0.204537 -2.015565,-0.41489 -2.9375,-0.53125 -0.921935,-0.11636 -2.071146,-0.191647 -3,-0.21875 z"
       transform="translate(4,0)"
       id="path3904"
       style="opacity:0.15;fill:#000000;fill-opacity:1" />
    <path
       d="M 82,48 A 30.000001,30 0 0 1 21.999999,48 30.000001,30 0 1 1 82,48 z"
       inkscape:connector-curvature="0"
       id="path3880"
       style="fill:url(#radialGradient4026);fill-opacity:1" />
    <path
       d="M 79.1875,46.71875 A 27.21378,27.213779 0 0 1 24.8125,47.1875 27.21378,27.213779 0 0 0 24.78125,48 27.21875,27.218749 0 0 0 79.21875,48 27.21378,27.213779 0 0 0 79.1875,46.71875 z"
       inkscape:connector-curvature="0"
       id="path4028"
       style="opacity:0.15;fill:#ffffff;fill-opacity:1" />
    <path
       d="m 73.160432,34.504306 a 21.160433,14.248322 0 0 1 -42.320865,0 21.160433,14.248322 0 1 1 42.320865,0 z"
       inkscape:connector-curvature="0"
       id="path3955"
       style="opacity:0.8;fill:url(#linearGradient3963);fill-opacity:1" />
    <path
       d="M 82,-42 A 30.000001,30 0 0 1 21.999999,-42 30.000001,30 0 1 1 82,-42 z"
       inkscape:connector-curvature="0"
       id="path3986"
       style="fill:url(#radialGradient3988);fill-opacity:1" />
    <path
       d="M 52.875,18 A 30.000001,30 0 0 0 22,48 30.000001,30 0 0 0 82,48 30.000001,30 0 0 0 52.875,18 z m -0.03125,1.25 A 28.741072,28.741071 0 0 1 80.75,48 28.75,28.749999 0 0 1 23.25,48 28.741072,28.741071 0 0 1 52.84375,19.25 z"
       inkscape:connector-curvature="0"
       id="path4001"
       style="fill:#251650;fill-opacity:1" />
    <path
       d="m 6,38 0,1 84,0 0,-1 -84,0 z m 0,2 0,1 84,0 0,-1 -84,0 z m 0,4 0,1 84,0 0,-1 -84,0 z m 0,2 0,1 84,0 0,-1 -84,0 z m 0,4 0,1 84,0 0,-1 -84,0 z m 0,2 0,1 84,0 0,-1 -84,0 z m 0,4 0,1 84,0 0,-1 -84,0 z m 0,2 0,1 84,0 0,-1 -84,0 z"
       inkscape:connector-curvature="0"
       id="path3927"
       style="opacity:0.2;color:#000000;fill:url(#linearGradient3953);fill-opacity:1;fill-rule:nonzero;stroke:none;stroke-width:2;marker:none;visibility:visible;display:inline;overflow:visible;enable-background:accumulate" />
    <path
       d="m 6,39 0,1 84,0 0,-1 -84,0 z m 0,6 0,1 84,0 0,-1 -84,0 z m 0,6 0,1 84,0 0,-1 -84,0 z m 0,6 0,1 84,0 0,-1 -84,0 z"
       inkscape:connector-curvature="0"
       id="rect3910"
       style="color:#000000;fill:url(#linearGradient3925);fill-opacity:1;fill-rule:nonzero;stroke:none;stroke-width:2;marker:none;visibility:visible;display:inline;overflow:visible;enable-background:accumulate" />
  </g>
  <g
     id="layer5">
    <rect
       width="66"
       height="66"
       rx="12"
       ry="12"
       x="15"
       y="15"
       clip-path="url(#clipPath3613)"
       id="rect3171"
       style="opacity:0.1;fill:url(#linearGradient3613);fill-opacity:1;fill-rule:nonzero;stroke:#ffffff;stroke-width:0.5;stroke-linecap:round;stroke-linejoin:miter;stroke-miterlimit:4;stroke-opacity:1;stroke-dasharray:none;stroke-dashoffset:0;filter:url(#filter3794)" />
  </g>
</svg>
