<?xml version="1.0" encoding="UTF-8" standalone="no"?>
<!-- Created with Inkscape (http://www.inkscape.org/) -->

<svg
   xmlns:dc="http://purl.org/dc/elements/1.1/"
   xmlns:cc="http://creativecommons.org/ns#"
   xmlns:rdf="http://www.w3.org/1999/02/22-rdf-syntax-ns#"
   xmlns:svg="http://www.w3.org/2000/svg"
   xmlns="http://www.w3.org/2000/svg"
   xmlns:xlink="http://www.w3.org/1999/xlink"
   xmlns:inkscape="http://www.inkscape.org/namespaces/inkscape"
   version="1.0"
   width="96"
   height="96"
   id="svg2408">
  <defs
     id="defs2410">
    <linearGradient
       id="linearGradient3863">
      <stop
         id="stop3865"
         style="stop-color:#ebebeb;stop-opacity:1"
         offset="0" />
      <stop
         id="stop3867"
         style="stop-color:#c0c0c0;stop-opacity:1"
         offset="1" />
    </linearGradient>
    <linearGradient
       id="linearGradient3852">
      <stop
         id="stop3854"
         style="stop-color:#ffffff;stop-opacity:1"
         offset="0" />
      <stop
         id="stop3856"
         style="stop-color:#ffffff;stop-opacity:0"
         offset="1" />
    </linearGradient>
    <linearGradient
       id="linearGradient3825">
      <stop
         id="stop3827"
         style="stop-color:#333333;stop-opacity:1"
         offset="0" />
      <stop
         id="stop3829"
         style="stop-color:#494949;stop-opacity:1"
         offset="1" />
    </linearGradient>
    <linearGradient
       id="linearGradient3815">
      <stop
         id="stop3817"
         style="stop-color:#000000;stop-opacity:1"
         offset="0" />
      <stop
         id="stop3819"
         style="stop-color:#000000;stop-opacity:0"
         offset="1" />
    </linearGradient>
    <linearGradient
       id="linearGradient3798">
      <stop
         id="stop3800"
         style="stop-color:#000000;stop-opacity:1"
         offset="0" />
      <stop
         id="stop3806"
         style="stop-color:#000000;stop-opacity:0.49803922"
         offset="0.34375" />
      <stop
         id="stop3802"
         style="stop-color:#000000;stop-opacity:0"
         offset="1" />
    </linearGradient>
    <linearGradient
       id="linearGradient3779">
      <stop
         id="stop3781"
         style="stop-color:#cccccc;stop-opacity:1"
         offset="0" />
      <stop
         id="stop3783"
         style="stop-color:#dfdfdf;stop-opacity:1"
         offset="1" />
    </linearGradient>
    <linearGradient
       id="linearGradient3268">
      <stop
         id="stop3270"
         style="stop-color:#e4e4e4;stop-opacity:1"
         offset="0" />
      <stop
         id="stop3272"
         style="stop-color:#7a7a7a;stop-opacity:1"
         offset="1" />
    </linearGradient>
    <linearGradient
       id="linearGradient3257">
      <stop
         id="stop3259"
         style="stop-color:#aaaaaa;stop-opacity:1"
         offset="0" />
      <stop
         id="stop3261"
         style="stop-color:#d2d2d2;stop-opacity:1"
         offset="1" />
    </linearGradient>
    <linearGradient
       id="linearGradient4341">
      <stop
         id="stop4343"
         style="stop-color:#000000;stop-opacity:1"
         offset="0" />
      <stop
         id="stop4345"
         style="stop-color:#000000;stop-opacity:0"
         offset="1" />
    </linearGradient>
    <linearGradient
       id="linearGradient4321">
      <stop
         id="stop4323"
         style="stop-color:#848484;stop-opacity:1"
         offset="0" />
      <stop
         id="stop4325"
         style="stop-color:#454545;stop-opacity:1"
         offset="1" />
    </linearGradient>
    <linearGradient
       x1="45.447727"
       y1="92.539597"
       x2="45.447727"
       y2="7.0165396"
       id="ButtonShadow"
       gradientUnits="userSpaceOnUse"
       gradientTransform="scale(1.0058652,0.994169)">
      <stop
         id="stop3750"
         style="stop-color:#000000;stop-opacity:1"
         offset="0" />
      <stop
         id="stop3752"
         style="stop-color:#000000;stop-opacity:0.58823532"
         offset="1" />
    </linearGradient>
    <linearGradient
       id="linearGradient3737">
      <stop
         id="stop3739"
         style="stop-color:#ffffff;stop-opacity:1"
         offset="0" />
      <stop
         id="stop3741"
         style="stop-color:#ffffff;stop-opacity:0"
         offset="1" />
    </linearGradient>
    <linearGradient
       id="linearGradient3700">
      <stop
         id="stop3702"
         style="stop-color:#212121;stop-opacity:1"
         offset="0" />
      <stop
         id="stop3704"
         style="stop-color:#444444;stop-opacity:1"
         offset="1" />
    </linearGradient>
    <linearGradient
       x1="48"
       y1="90"
       x2="48"
       y2="5.9877172"
       id="linearGradient3706"
       xlink:href="#linearGradient3700"
       gradientUnits="userSpaceOnUse" />
    <filter
       color-interpolation-filters="sRGB"
       id="filter3174">
      <feGaussianBlur
         id="feGaussianBlur3176"
         stdDeviation="1.71" />
    </filter>
    <linearGradient
       x1="36.357143"
       y1="6"
       x2="36.357143"
       y2="63.893143"
       id="linearGradient3188"
       xlink:href="#linearGradient3737"
       gradientUnits="userSpaceOnUse" />
    <linearGradient
       x1="48"
       y1="90"
       x2="48"
       y2="5.9877172"
       id="linearGradient3255"
       xlink:href="#linearGradient3257"
       gradientUnits="userSpaceOnUse" />
    <linearGradient
       x1="10.480331"
       y1="46.186852"
       x2="81.064743"
       y2="46.186852"
       id="linearGradient3301"
       xlink:href="#linearGradient3268"
       gradientUnits="userSpaceOnUse" />
    <linearGradient
       id="linearGradient3737-5">
      <stop
         id="stop3739-9"
         style="stop-color:#ffffff;stop-opacity:1"
         offset="0" />
      <stop
         id="stop3741-4"
         style="stop-color:#ffffff;stop-opacity:0"
         offset="1" />
    </linearGradient>
    <radialGradient
       cx="48"
       cy="90.171875"
       r="42"
       fx="48"
       fy="90.171875"
       id="radialGradient2874"
       xlink:href="#linearGradient3737-5"
       gradientUnits="userSpaceOnUse"
       gradientTransform="matrix(1.1573129,0,0,0.99590774,-7.551021,0.1971319)" />
    <linearGradient
       x1="32.251034"
       y1="6.1317081"
       x2="32.251034"
       y2="90.238609"
       id="linearGradient3721"
       xlink:href="#ButtonShadow-0"
       gradientUnits="userSpaceOnUse"
       gradientTransform="translate(0,-97)" />
    <linearGradient
       x1="45.447727"
       y1="92.539597"
       x2="45.447727"
       y2="7.0165396"
       id="ButtonShadow-0"
       gradientUnits="userSpaceOnUse"
       gradientTransform="matrix(1.0058652,0,0,0.994169,100,0)">
      <stop
         id="stop3750-8"
         style="stop-color:#000000;stop-opacity:1"
         offset="0" />
      <stop
         id="stop3752-5"
         style="stop-color:#000000;stop-opacity:0.58823532"
         offset="1" />
    </linearGradient>
    <linearGradient
       x1="32.251034"
       y1="6.1317081"
       x2="32.251034"
       y2="90.238609"
       id="linearGradient3725"
       xlink:href="#ButtonShadow-0"
       gradientUnits="userSpaceOnUse"
       gradientTransform="matrix(1.0238095,0,0,1.0119048,-1.1428571,-98.071429)" />
    <linearGradient
       x1="32.251034"
       y1="6.1317081"
       x2="32.251034"
       y2="90.238609"
       id="linearGradient3772"
       xlink:href="#ButtonShadow-0"
       gradientUnits="userSpaceOnUse"
       gradientTransform="matrix(1.0238095,0,0,1.0119048,-1.1428571,-98.071429)" />
    <linearGradient
       x1="32.251034"
       y1="6.1317081"
       x2="32.251034"
       y2="90.238609"
       id="linearGradient3780"
       xlink:href="#ButtonShadow-0"
       gradientUnits="userSpaceOnUse"
       gradientTransform="matrix(1.0238095,0,0,1.0119048,-1.1428571,-98.071429)" />
    <linearGradient
       x1="32.251034"
       y1="6.1317081"
       x2="32.251034"
       y2="90.238609"
       id="linearGradient2969"
       xlink:href="#ButtonShadow-0"
       gradientUnits="userSpaceOnUse"
       gradientTransform="matrix(1.0238095,0,0,1.0119048,-1.1428571,-98.071429)" />
    <linearGradient
       x1="40"
       y1="88"
       x2="40"
       y2="72"
       id="linearGradient3785"
       xlink:href="#linearGradient3779"
       gradientUnits="userSpaceOnUse" />
    <linearGradient
       x1="40"
       y1="72"
       x2="40"
       y2="68"
       id="linearGradient3804"
       xlink:href="#linearGradient3798"
       gradientUnits="userSpaceOnUse" />
    <linearGradient
       x1="6"
       y1="48"
       x2="90"
       y2="48"
       id="linearGradient3821"
       xlink:href="#linearGradient3815"
       gradientUnits="userSpaceOnUse"
       gradientTransform="translate(-96,0)" />
    <linearGradient
       x1="34"
       y1="78"
       x2="34"
       y2="82"
       id="linearGradient3831"
       xlink:href="#linearGradient3825"
       gradientUnits="userSpaceOnUse"
       gradientTransform="translate(3,0)" />
    <radialGradient
       cx="32"
       cy="78.199997"
       r="4"
       fx="32"
       fy="78.199997"
       id="radialGradient3913"
       xlink:href="#linearGradient3863"
       gradientUnits="userSpaceOnUse"
       gradientTransform="matrix(1.5,9.9073411e-7,-9.9073345e-7,1.499999,-15.999923,-39.299957)" />
    <linearGradient
       x1="37"
       y1="83"
       x2="37"
       y2="74.937744"
       id="linearGradient3921"
       xlink:href="#linearGradient3852"
       gradientUnits="userSpaceOnUse"
       gradientTransform="translate(2,0)" />
    <linearGradient
       x1="48.916553"
       y1="24.14736"
       x2="97.732262"
       y2="24.14736"
       id="linearGradient4063"
       xlink:href="#linearGradient4321"
       gradientUnits="userSpaceOnUse"
       gradientTransform="matrix(1.0777455,0,0,1.0777455,-5.3852936,-3.7077624)" />
    <linearGradient
       x1="48.916553"
       y1="24.14736"
       x2="97.732262"
       y2="24.14736"
       id="linearGradient4065"
       xlink:href="#linearGradient4321"
       gradientUnits="userSpaceOnUse"
       gradientTransform="matrix(0.7620812,0.7620812,-0.7620812,0.7620812,48.272417,-29.567134)" />
    <linearGradient
       x1="56.270466"
       y1="22.625397"
       x2="53.392128"
       y2="23.509279"
       id="linearGradient4067"
       xlink:href="#linearGradient4341"
       gradientUnits="userSpaceOnUse"
       gradientTransform="matrix(0.7620812,0.7620812,-0.7620812,0.7620812,48.272417,-29.567134)" />
    <linearGradient
       x1="48.916553"
       y1="24.14736"
       x2="97.732262"
       y2="24.14736"
       id="linearGradient4069"
       xlink:href="#linearGradient4321"
       gradientUnits="userSpaceOnUse"
       gradientTransform="matrix(0,1.0777456,-1.0777456,0,101.3184,-7.3440125)" />
    <linearGradient
       x1="56.270466"
       y1="22.625397"
       x2="53.392128"
       y2="23.509279"
       id="linearGradient4071"
       xlink:href="#linearGradient4341"
       gradientUnits="userSpaceOnUse"
       gradientTransform="matrix(0,1.0777456,-1.0777456,0,101.3184,-7.3440125)" />
    <linearGradient
       x1="48.916553"
       y1="24.14736"
       x2="97.732262"
       y2="24.14736"
       id="linearGradient4073"
       xlink:href="#linearGradient4321"
       gradientUnits="userSpaceOnUse"
       gradientTransform="matrix(-0.7620812,0.7620812,-0.7620812,-0.7620812,123.30024,45.94078)" />
    <linearGradient
       x1="56.270466"
       y1="22.625397"
       x2="53.392128"
       y2="23.509279"
       id="linearGradient4075"
       xlink:href="#linearGradient4341"
       gradientUnits="userSpaceOnUse"
       gradientTransform="matrix(-0.7620812,0.7620812,-0.7620812,-0.7620812,123.30024,45.94078)" />
    <linearGradient
       x1="48.916553"
       y1="24.14736"
       x2="97.732262"
       y2="24.14736"
       id="linearGradient4077"
       xlink:href="#linearGradient4321"
       gradientUnits="userSpaceOnUse"
       gradientTransform="matrix(-1.0777456,0,0,-1.0777456,102.59234,101.76469)" />
    <linearGradient
       x1="56.270466"
       y1="22.625397"
       x2="53.392128"
       y2="23.509279"
       id="linearGradient4079"
       xlink:href="#linearGradient4341"
       gradientUnits="userSpaceOnUse"
       gradientTransform="matrix(-1.0777456,0,0,-1.0777456,102.59234,101.76469)" />
    <linearGradient
       x1="48.916553"
       y1="24.14736"
       x2="97.732262"
       y2="24.14736"
       id="linearGradient4081"
       xlink:href="#linearGradient4321"
       gradientUnits="userSpaceOnUse"
       gradientTransform="matrix(-0.7620812,-0.7620812,0.7620812,-0.7620812,48.297395,122.98892)" />
    <linearGradient
       x1="56.270466"
       y1="22.625397"
       x2="53.392128"
       y2="23.509279"
       id="linearGradient4083"
       xlink:href="#linearGradient4341"
       gradientUnits="userSpaceOnUse"
       gradientTransform="matrix(-0.7620812,-0.7620812,0.7620812,-0.7620812,48.297395,122.98892)" />
    <linearGradient
       x1="48.916553"
       y1="24.14736"
       x2="97.732262"
       y2="24.14736"
       id="linearGradient4085"
       xlink:href="#linearGradient4321"
       gradientUnits="userSpaceOnUse"
       gradientTransform="matrix(0,-1.0777456,1.0777456,0,-6.7688925,100.51326)" />
    <linearGradient
       x1="56.270466"
       y1="22.625397"
       x2="53.392128"
       y2="23.509279"
       id="linearGradient4087"
       xlink:href="#linearGradient4341"
       gradientUnits="userSpaceOnUse"
       gradientTransform="matrix(0,-1.0777456,1.0777456,0,-6.7688925,100.51326)" />
    <linearGradient
       x1="48.916553"
       y1="24.14736"
       x2="97.732262"
       y2="24.14736"
       id="linearGradient4089"
       xlink:href="#linearGradient4321"
       gradientUnits="userSpaceOnUse"
       gradientTransform="matrix(0.7620812,-0.7620812,0.7620812,0.7620812,-27.993121,47.228467)" />
    <linearGradient
       x1="56.270466"
       y1="22.625397"
       x2="53.392128"
       y2="23.509279"
       id="linearGradient4091"
       xlink:href="#linearGradient4341"
       gradientUnits="userSpaceOnUse"
       gradientTransform="matrix(0.7620812,-0.7620812,0.7620812,0.7620812,-27.993121,47.228467)" />
    <linearGradient
       x1="56.270466"
       y1="22.625397"
       x2="53.392128"
       y2="23.509279"
       id="linearGradient4093"
       xlink:href="#linearGradient4341"
       gradientUnits="userSpaceOnUse"
       gradientTransform="matrix(1.0777455,0,0,1.0777455,-5.3852936,-3.7077624)" />
    <clipPath
       id="clipPath4095">
      <rect
         width="94.482986"
         height="94.482986"
         rx="6.748785"
         ry="6.748785"
         x="1.4662926"
         y="8.4115152"
         id="rect4097"
         style="fill:#ff00ff;fill-opacity:1;fill-rule:nonzero;stroke:none;display:inline" />
    </clipPath>
  </defs>
  <metadata
     id="metadata2413">
    <rdf:RDF>
      <cc:Work
         rdf:about="">
        <dc:format>image/svg+xml</dc:format>
        <dc:type
           rdf:resource="http://purl.org/dc/dcmitype/StillImage" />
      </cc:Work>
    </rdf:RDF>
  </metadata>
  <g
     id="layer2"
     style="display:none">
    <rect
       width="86"
       height="85"
       rx="6"
       ry="6"
       x="5"
       y="7"
       id="rect3745"
       style="opacity:0.9;fill:url(#ButtonShadow);fill-opacity:1;fill-rule:nonzero;stroke:none;filter:url(#filter3174)" />
  </g>
  <g
     id="layer8"
     style="display:inline">
    <path
       d="m 12,-95.03125 c -5.5110903,0 -10.03125,4.52016 -10.03125,10.03125 l 0,71 c 0,5.5110902 4.5201598,10.03125 10.03125,10.03125 l 72,0 c 5.51109,0 10.03125,-4.5201597 10.03125,-10.03125 l 0,-71 c 0,-5.51109 -4.52016,-10.03125 -10.03125,-10.03125 l -72,0 z"
       transform="scale(1,-1)"
       id="path3786"
       style="opacity:0.07999998;fill:url(#linearGradient2969);fill-opacity:1;fill-rule:nonzero;stroke:none;display:inline" />
    <path
       d="m 12,-94.03125 c -4.971633,0 -9.03125,4.059617 -9.03125,9.03125 l 0,71 c 0,4.9716329 4.0596171,9.03125 9.03125,9.03125 l 72,0 c 4.971633,0 9.03125,-4.059617 9.03125,-9.03125 l 0,-71 c 0,-4.971633 -4.059617,-9.03125 -9.03125,-9.03125 l -72,0 z"
       transform="scale(1,-1)"
       id="path3778"
       style="opacity:0.1;fill:url(#linearGradient3780);fill-opacity:1;fill-rule:nonzero;stroke:none;display:inline" />
    <path
       d="m 12,-93 c -4.4091333,0 -8,3.590867 -8,8 l 0,71 c 0,4.4091333 3.5908667,8 8,8 l 72,0 c 4.409133,0 8,-3.5908667 8,-8 l 0,-71 c 0,-4.409133 -3.590867,-8 -8,-8 l -72,0 z"
       transform="scale(1,-1)"
       id="path3770"
       style="opacity:0.2;fill:url(#linearGradient3772);fill-opacity:1;fill-rule:nonzero;stroke:none;display:inline" />
    <rect
       width="86"
       height="85"
       rx="7"
       ry="7"
       x="5"
       y="-92"
       transform="scale(1,-1)"
       id="rect3723"
       style="opacity:0.3;fill:url(#linearGradient3725);fill-opacity:1;fill-rule:nonzero;stroke:none;display:inline" />
    <rect
       width="84"
       height="84"
       rx="6"
       ry="6"
       x="6"
       y="-91"
       transform="scale(1,-1)"
       id="rect3716"
       style="opacity:0.45;fill:url(#linearGradient3721);fill-opacity:1;fill-rule:nonzero;stroke:none;display:inline" />
  </g>
  <g
     id="layer1"
     style="display:none">
    <rect
       width="84"
       height="84"
       rx="6"
       ry="6"
       x="6"
       y="6"
       id="rect2419"
       style="fill:url(#linearGradient3706);fill-opacity:1;fill-rule:nonzero;stroke:none" />
  </g>
  <g
     id="layer4"
     style="display:inline">
    <path
       d="m 64,48 a 16,16 0 1 1 -32,0 16,16 0 1 1 32,0 z"
       transform="matrix(1.4852529,0,0,1.4852529,-22.946186,-30.588664)"
       id="path2955"
       style="fill:#333333;fill-opacity:1;stroke:none" />
    <g
       transform="matrix(0.88904892,0,0,0.88904892,4.6963941,-1.4782484)"
       clip-path="url(#clipPath4095)"
       id="g4592">
      <path
         d="m 63.746354,52.94225 -18.231643,-65.799586 54.430498,4.5489774 0,60.1619206 -36.198855,1.088688 z"
         inkscape:connector-curvature="0"
         id="path4319"
         style="fill:url(#linearGradient4063);fill-opacity:1;fill-rule:evenodd;stroke:none" />
      <path
         d="m 45.879436,-13.704817 17.87938,66.646052 1.532644,-0.640209 -17.87938,-66.612374 -1.532644,0.606531 z"
         inkscape:connector-curvature="0"
         id="path4329"
         style="opacity:0.2;fill:#ffffff;fill-opacity:1;fill-rule:evenodd;stroke:none" />
      <path
         d="M 57.098267,59.373936 88.803916,4.4581392 126.00545,41.65967 83.464543,84.200575 57.098267,59.373936 z"
         inkscape:connector-curvature="0"
         id="path4424"
         style="fill:url(#linearGradient4065);fill-opacity:1;fill-rule:evenodd;stroke:none" />
      <path
         d="M 88.805611,4.4407396 57.107796,59.382031 58.803488,59.920476 90.477488,5.003 88.805611,4.4407396 z"
         inkscape:connector-curvature="0"
         id="path4426"
         style="opacity:0.2;fill:#ffffff;fill-opacity:1;fill-rule:evenodd;stroke:none" />
      <path
         d="m 85.302388,1.0891496 -31.242917,55.2445564 3.11977,2.92925 31.62637,-54.8222164 -3.503223,-3.35159 z"
         inkscape:connector-curvature="0"
         id="path4428"
         style="opacity:0.6;fill:url(#linearGradient4067);fill-opacity:1;fill-rule:evenodd;stroke:none" />
      <path
         d="M 44.668383,61.787642 105.919,45.375588 l 0,52.610912 -60.161929,0 -1.088688,-36.198858 z"
         inkscape:connector-curvature="0"
         id="path4436"
         style="fill:url(#linearGradient4069);fill-opacity:1;fill-rule:evenodd;stroke:none" />
      <path
         d="m 105.9325,45.364483 -61.263103,16.435621 0.03368,1.835908 61.229423,-16.43562 0,-1.835909 z"
         inkscape:connector-curvature="0"
         id="path4438"
         style="opacity:0.2;fill:#ffffff;fill-opacity:1;fill-rule:evenodd;stroke:none" />
      <path
         d="m 105.9325,41.053501 -61.263103,16.43562 0.134718,4.277303 61.128385,-16.401941 0,-4.310982 z"
         inkscape:connector-curvature="0"
         id="path4440"
         style="opacity:0.6;fill:url(#linearGradient4071);fill-opacity:1;fill-rule:evenodd;stroke:none" />
      <path
         d="M 34.35917,54.76663 89.274967,86.472279 52.073436,123.67381 9.5325312,81.132906 34.35917,54.76663 z"
         inkscape:connector-curvature="0"
         id="path4448"
         style="fill:url(#linearGradient4073);fill-opacity:1;fill-rule:evenodd;stroke:none" />
      <path
         d="m 89.292366,86.473974 -54.941291,-31.697815 -1.097629,1.392426 54.917476,31.674 1.121444,-1.368611 z"
         inkscape:connector-curvature="0"
         id="path4450"
         style="opacity:0.2;fill:#ffffff;fill-opacity:1;fill-rule:evenodd;stroke:none" />
      <path
         d="M 92.340691,83.425649 37.3994,51.727834 l -2.92925,3.11977 54.822216,31.62637 3.048325,-3.048325 z"
         inkscape:connector-curvature="0"
         id="path4452"
         style="opacity:0.6;fill:url(#linearGradient4075);fill-opacity:1;fill-rule:evenodd;stroke:none" />
      <path
         d="m 33.460686,45.114673 16.412053,61.250617 -52.6109111,0 0,-60.161929 36.1988581,-1.088688 z"
         inkscape:connector-curvature="0"
         id="path4460"
         style="fill:url(#linearGradient4077);fill-opacity:1;fill-rule:evenodd;stroke:none" />
      <path
         d="m 49.883844,106.37879 -16.43562,-61.263103 -1.684276,0.488577 16.435621,61.229426 1.684275,-0.4549 z"
         inkscape:connector-curvature="0"
         id="path4462"
         style="opacity:0.2;fill:#ffffff;fill-opacity:1;fill-rule:evenodd;stroke:none" />
      <path
         d="m 54.194827,106.37879 -16.435621,-61.263103 -4.277303,0.134718 16.401941,61.128385 4.310983,0 z"
         inkscape:connector-curvature="0"
         id="path4464"
         style="opacity:0.6;fill:url(#linearGradient4079);fill-opacity:1;fill-rule:evenodd;stroke:none" />
      <path
         d="M 39.471545,34.04785 7.7658958,88.963647 -29.435635,51.762116 13.105269,9.2212112 39.471545,34.04785 z"
         inkscape:connector-curvature="0"
         id="path4472"
         style="fill:url(#linearGradient4081);fill-opacity:1;fill-rule:evenodd;stroke:none" />
      <path
         d="M 7.7642012,88.981046 39.462016,34.039755 38.06959,32.846591 6.3955896,87.764067 7.7642012,88.981046 z"
         inkscape:connector-curvature="0"
         id="path4474"
         style="opacity:0.2;fill:#ffffff;fill-opacity:1;fill-rule:evenodd;stroke:none" />
      <path
         d="M 10.812526,92.029371 42.510341,37.08808 39.390571,34.15883 7.7642012,88.981046 10.812526,92.029371 z"
         inkscape:connector-curvature="0"
         id="path4476"
         style="opacity:0.6;fill:url(#linearGradient4083);fill-opacity:1;fill-rule:evenodd;stroke:none" />
      <path
         d="m -11.375,-4.8125 0,52.59375 61.25,-16.40625 -1.03125,-34.09375 -0.5625,-2.09375 -59.65625,0 z"
         inkscape:connector-curvature="0"
         id="path4484"
         style="fill:url(#linearGradient4085);fill-opacity:1;fill-rule:evenodd;stroke:none" />
      <path
         d="m -11.382991,47.804764 61.263102,-16.43562 -0.488578,-1.684276 -61.229422,16.435621 0.454898,1.684275 z"
         inkscape:connector-curvature="0"
         id="path4486"
         style="opacity:0.2;fill:#ffffff;fill-opacity:1;fill-rule:evenodd;stroke:none" />
      <path
         d="m -11.382991,52.115747 61.263102,-16.435621 -0.134719,-4.277303 -61.128383,16.401941 0,4.310983 z"
         inkscape:connector-curvature="0"
         id="path4488"
         style="opacity:0.6;fill:url(#linearGradient4087);fill-opacity:1;fill-rule:evenodd;stroke:none" />
      <path
         d="m 43.21875,-30.5 -37.1875,37.1875 53.625,30.96875 -13.277484,-49.292584 18.09375,0 L 43.21875,-30.5 z"
         inkscape:connector-curvature="0"
         id="path4496"
         style="fill:url(#linearGradient4089);fill-opacity:1;fill-rule:evenodd;stroke:none" />
      <path
         d="M 6.6532389,5.179337 6,6.6875 59.65625,37.65625 59.153239,35.429337 6.6532389,5.179337 z"
         inkscape:connector-curvature="0"
         id="path4498"
         style="opacity:0.2;fill:#ffffff;fill-opacity:1;fill-rule:evenodd;stroke:none" />
      <path
         d="M 6,6.6875 2.96875,9.75 57.90625,41.4375 60.0625,39.15625 59.65625,37.625 6,6.6875 z"
         inkscape:connector-curvature="0"
         id="path4500"
         style="opacity:0.6;fill:url(#linearGradient4091);fill-opacity:1;fill-rule:evenodd;stroke:none" />
      <path
         d="M 41.635307,-13.543825 59.4375,52.9375 l 1.40625,-0.03125 1.96875,-3.4375 -16.864693,-63.012575 -4.3125,0 z"
         inkscape:connector-curvature="0"
         id="path4334"
         style="opacity:0.6;fill:url(#linearGradient4093);fill-opacity:1;fill-rule:evenodd;stroke:none" />
    </g>
    <rect
       width="84"
       height="84"
       rx="6"
       ry="6"
       x="-90"
       y="6"
       transform="matrix(0,-1,1,0,0,0)"
       id="rect3813"
       style="opacity:0.4;color:#000000;fill:url(#linearGradient3821);fill-opacity:1;fill-rule:nonzero;stroke:none;stroke-width:1;marker:none;visibility:visible;display:inline;overflow:visible;enable-background:accumulate" />
  </g>
  <g
     id="layer3"
     style="display:none">
    <path
       d="M 12,6 C 8.676,6 6,8.676 6,12 l 0,72 c 0,3.324 2.676,6 6,6 l 72,0 c 3.324,0 6,-2.676 6,-6 L 90,12 C 90,8.676 87.324,6 84,6 L 12,6 z m 36,7 C 67.32,13 83,28.68 83,48 83,67.32 67.32,83 48,83 28.680001,83.000001 13,67.32 13,48 13,28.68 28.68,13 48,13 z"
       inkscape:connector-curvature="0"
       id="rect2476"
       style="fill:url(#linearGradient3255);fill-opacity:1;fill-rule:nonzero;stroke:none" />
    <path
       d="m 26.575267,16.691482 1.208263,-0.727571 -0.502218,-0.834022 -0.662941,0.399198 -0.338029,-0.561361 0.66294,-0.399198 -0.846687,-1.406075 0.550669,-0.331593 2.024964,3.36282 -1.75893,1.059163 -0.338031,-0.561361 m -1.434955,-1.135762 0.953657,-0.628359 0.363967,0.552392 -0.953657,0.628358 -0.363967,-0.552391 m -1.093254,3.014643 0.940493,-0.701439 c 0.23679,-0.176607 0.259422,-0.393308 0.0679,-0.650107 -0.204813,-0.267656 -0.400177,-0.334748 -0.586093,-0.201276 l -0.320169,0.238789 c -0.540282,0.402949 -1.024337,0.317609 -1.452166,-0.256022 l -0.08208,-0.110058 c -0.4328,-0.580305 -0.334036,-1.105513 0.296292,-1.575625 l 0.975512,-0.727556 0.391761,0.525275 -1.06556,0.794715 c -0.230118,0.171628 -0.253147,0.38084 -0.06908,0.627638 l 0.01119,0.01501 c 0.201478,0.270139 0.400601,0.331833 0.59737,0.185081 l 0.345182,-0.257444 c 0.516088,-0.379721 0.995509,-0.272758 1.438262,0.320888 l 0.08582,0.11506 c 0.415389,0.556956 0.309586,1.069247 -0.317408,1.536877 l -0.865453,0.645472 -0.391761,-0.525275 m -0.876967,0.706845 -0.775387,-0.897085 -0.557138,0.481556 c -0.176269,0.152355 -0.177342,0.329258 -0.0032,0.530712 l 0.269346,0.311619 c 0.163238,0.188856 0.332992,0.207108 0.509262,0.05476 l 0.557137,-0.481557 m -1.203891,-1.392842 -0.934547,-1.081223 0.481594,-0.416262 2.566941,2.969824 -1.048173,0.905979 c -0.496478,0.418123 -0.963729,0.3738 -1.401755,-0.132971 l -0.265263,-0.306897 c -0.467954,-0.541401 -0.456412,-1.024312 0.03462,-1.448731 l 0.56658,-0.489719 m -1.707128,3.877071 c 0.08228,0.08246 0.172015,0.07521 0.26921,-0.02176 l 0.543406,-0.542162 c 0.0913,-0.0911 0.09581,-0.177879 0.01354,-0.260345 L 19.52048,19.368812 c -0.05583,-0.05596 -0.110225,-0.08397 -0.16318,-0.08403 -0.05295,-6.1e-5 -0.09563,0.01607 -0.128029,0.0484 l -0.592002,0.590648 c -0.0324,0.03232 -0.04127,0.0735 -0.02662,0.123531 0.01171,0.05297 0.0396,0.101539 0.08368,0.14572 l 1.564778,1.568367 m -2.10797,-1.211545 c -0.352618,-0.35932 -0.359574,-0.707946 -0.02087,-1.045877 l 0.702451,-0.700844 c 0.341653,-0.340873 0.684386,-0.339009 1.028195,0.0056 l 1.754313,1.758337 c 0.33793,0.338705 0.347851,0.66674 0.02976,0.984106 l -0.742212,0.740515 c -0.33871,0.337927 -0.67703,0.33754 -1.014962,-0.0012 l -1.736681,-1.740665 m 0.310962,3.492257 0.52599,-0.601201 -2.475256,-2.1656 0.419149,-0.479082 2.475255,2.165601 0.480788,-0.549535 0.493173,0.431476 -1.425926,1.629817 -0.493173,-0.431476"
       inkscape:connector-curvature="0"
       id="text3309"
       style="font-size:6px;font-style:normal;font-variant:normal;font-weight:bold;font-stretch:normal;text-align:start;line-height:120.00000477%;writing-mode:lr-tb;text-anchor:start;fill:#666666;fill-opacity:1;stroke:none;font-family:Forgotten Futurist;-inkscape-font-specification:Forgotten Futurist Bold" />
    <path
       d="m 60.742178,86.858936 -1.177497,0.353544 c -0.561853,0.168697 -0.934902,-0.05378 -1.119153,-0.667436 l -0.516856,-1.721418 c -0.181055,-0.588545 0.04381,-0.975344 0.6746,-1.1604 l 1.081864,-0.324829 0.116651,0.388515 -1.201406,0.360722 c -0.302842,0.09093 -0.407602,0.291802 -0.314281,0.60261 l 0.538391,1.793145 c 0.09691,0.322766 0.280848,0.44347 0.551812,0.362112 l 0.872664,-0.262017 -0.355339,-1.183475 -0.765075,0.229714 -0.118446,-0.394491 1.141635,-0.342777 0.590436,1.966481 m 2.33655,-0.854742 -0.357041,0.132072 -0.627883,-1.697412 c -0.108256,-0.292655 -0.300908,-0.387741 -0.577956,-0.285263 l -0.40972,0.151558 c -0.312168,0.115475 -0.405464,0.342952 -0.279888,0.682433 l 0.601901,1.627174 -0.362894,0.134237 -0.930998,-2.516852 0.362894,-0.134237 0.112587,0.304363 c 0.01325,-0.240006 0.145459,-0.404249 0.396637,-0.492728 l 0.468252,-0.173209 c 0.448741,-0.165988 0.766932,0.0047 0.954577,0.51192 l 0.649532,1.755944 m 2.067918,-1.827374 c 0.224996,0.514653 0.111415,0.872817 -0.340743,1.074496 l -0.598449,0.266931 c -0.452159,0.201679 -0.792638,0.04604 -1.021435,-0.466914 l -0.414378,-0.929017 c -0.223711,-0.501554 -0.109487,-0.853172 0.342673,-1.054855 l 0.598448,-0.26693 c 0.452158,-0.201676 0.791994,-0.05259 1.019508,0.447272 l 0.414376,0.929017 m -0.3915,0.07212 -0.33557,-0.752335 c -0.140669,-0.315369 -0.345892,-0.41289 -0.615667,-0.292562 l -0.44456,0.19829 c -0.265977,0.118638 -0.330531,0.336489 -0.193663,0.653554 l 0.335569,0.752334 c 0.140257,0.324668 0.347175,0.425987 0.620751,0.303962 l 0.444561,-0.198291 c 0.269775,-0.120329 0.332633,-0.34198 0.188579,-0.664952 m 4.463532,-1.301596 -0.338609,0.187233 -0.83953,-1.518279 c -0.175156,-0.316759 -0.391986,-0.40367 -0.650492,-0.260733 l -0.316764,0.175154 c -0.298559,0.165091 -0.353793,0.404816 -0.165702,0.719177 l 0.836509,1.512818 -0.338609,0.187233 -0.857649,-1.551048 c -0.163074,-0.294915 -0.375686,-0.369895 -0.637834,-0.224943 l -0.278534,0.154013 c -0.298558,0.16509 -0.357047,0.416124 -0.175468,0.753103 l 0.82443,1.490972 -0.33861,0.187234 -1.298553,-2.348418 0.33861,-0.187232 0.178173,0.322223 c -0.04596,-0.255078 0.05849,-0.453083 0.313356,-0.594013 l 0.387761,-0.214413 c 0.294918,-0.163071 0.523999,-0.139984 0.687245,0.06926 -0.05038,-0.271655 0.06097,-0.482981 0.334044,-0.633979 l 0.425992,-0.235551 c 0.407786,-0.225482 0.754621,-0.07972 1.040506,0.437295 l 0.869728,1.572894 m 1.483498,-2.385064 -1.400356,0.937144 0.175301,0.273169 c 0.153864,0.222435 0.332795,0.265391 0.536798,0.128868 l 1.016555,-0.680297 0.22908,0.34231 -1.011368,0.676825 c -0.42415,0.278843 -0.78143,0.197546 -1.071842,-0.243893 l -0.602183,-0.888607 c -0.300811,-0.449495 -0.232812,-0.822907 0.203997,-1.120238 l 0.46507,-0.303724 c 0.401089,-0.268412 0.748568,-0.18306 1.04244,0.256061 l 0.416508,0.622382 m -1.625965,0.60002 1.094352,-0.732361 -0.185674,-0.266227 c -0.146947,-0.227059 -0.317237,-0.2758 -0.510866,-0.146223 l -0.482344,0.322795 c -0.221291,0.148094 -0.251548,0.331042 -0.09077,0.548848 l 0.1753,0.273168 m 2.731927,-1.788767 0.888423,1.119432 -0.303078,0.240533 -2.285068,-2.879237 0.987446,-0.783673 c 0.445797,-0.348485 0.852328,-0.291347 1.219593,0.171412 l 0.252173,0.317742 c 0.39313,0.495355 0.368089,0.918905 -0.07512,1.27065 l -0.684369,0.543141 m -1.144474,-1.442063 0.892302,1.12432 0.674592,-0.53538 c 0.247676,-0.196563 0.262886,-0.431719 0.04563,-0.705468 L 72.020134,77.49231 c -0.206909,-0.260708 -0.434203,-0.292782 -0.68188,-0.09622 l -0.674592,0.53538 m 5.120583,-0.06906 -0.283362,0.25422 -1.208585,-1.347133 c -0.208377,-0.232261 -0.422502,-0.249761 -0.64238,-0.0525 l -0.32517,0.291728 c -0.247749,0.22227 -0.250763,0.468118 -0.009,0.737542 l 1.158574,1.291389 -0.288008,0.258387 -2.463012,-2.745364 0.288007,-0.258386 0.887684,0.989446 c -0.07602,-0.228034 -0.01355,-0.42941 0.187429,-0.604131 L 73.458,76.344213 c 0.356138,-0.319508 0.714801,-0.277967 1.075987,0.124621 l 1.25026,1.393585 m 1.180944,-2.392904 c 0.398195,0.396142 0.424008,0.770997 0.07744,1.124566 l -0.458697,0.467961 c -0.346571,0.353572 -0.720412,0.333772 -1.121521,-0.0594 L 74.735958,76.290573 C 74.343763,75.906141 74.320951,75.53714 74.66752,75.183568 l 0.458697,-0.467961 c 0.346572,-0.353567 0.717413,-0.339622 1.11252,0.04184 l 0.726454,0.712072 m -0.337701,0.210792 -0.588295,-0.576649 c -0.246606,-0.241723 -0.4733,-0.257109 -0.680078,-0.04616 l -0.340746,0.347629 c -0.203865,0.207985 -0.183949,0.434324 0.05974,0.67902 l 0.588294,0.576648 c 0.249637,0.250523 0.479301,0.268821 0.688993,0.0549 l 0.340746,-0.347629 c 0.206776,-0.210952 0.18389,-0.440204 -0.06866,-0.687757 m 1.902773,-0.71023 -0.04568,0.05125 c -0.404178,0.45345 -0.832991,0.478086 -1.28644,0.07391 l -2.063815,-1.839561 0.257456,-0.288841 0.740737,0.660249 0.394488,-0.442579 0.302817,0.269914 -0.394488,0.442579 1.029577,0.917703 c 0.24536,0.218699 0.499535,0.180523 0.762529,-0.114531 l 0.302816,0.269913 m 0.851793,-2.364683 c 0.43386,0.356726 0.494994,0.727464 0.1834,1.11221 l -0.412405,0.509228 c -0.311597,0.384749 -0.685636,0.400378 -1.122115,0.04689 l -0.790514,-0.640211 c -0.426778,-0.345634 -0.484371,-0.710826 -0.172778,-1.095577 l 0.412406,-0.509227 c 0.311597,-0.384745 0.682093,-0.405919 1.111492,-0.06352 l 0.790514,0.64021 m -0.316262,0.241772 -0.640171,-0.518453 c -0.268354,-0.217329 -0.495487,-0.211216 -0.681397,0.01834 l -0.306359,0.378284 c -0.18329,0.226324 -0.142068,0.449768 0.123666,0.670331 l 0.640172,0.518453 c 0.272202,0.225802 0.502568,0.222307 0.691097,-0.01048 l 0.306358,-0.378283 c 0.185909,-0.229555 0.141454,-0.455617 -0.133366,-0.678187 m 3.207755,-2.92774 -0.215216,0.321549 -2.55165,-1.70785 0.623698,0.627718 1.546116,1.650623 -0.242987,0.36304 -2.087711,-0.796561 -0.837118,-0.342514 2.546464,1.704378 -0.218688,0.326737 -3.054719,-2.04456 0.326296,-0.48751 2.793334,1.111139 0.378763,0.163394 -0.283366,-0.272265 -2.104231,-2.174367 0.326297,-0.487512 3.054718,2.044561 m 1.239548,-2.146916 -0.674038,1.174584 c -0.244353,0.425809 -0.597209,0.50154 -1.058572,0.227192 -0.429417,-0.246422 -0.517807,-0.589755 -0.265173,-1.030001 l 0.46282,-0.80651 -0.214207,-0.115728 c -0.277324,-0.168735 -0.492606,-0.119589 -0.645845,0.147441 l -0.540474,0.941833 -0.351834,-0.201901 0.542781,-0.933313 c 0.304345,-0.496912 0.710386,-0.59009 1.218126,-0.279537 l 1.526416,0.87594 m -0.544416,0.133693 -0.638713,-0.366527 -0.496989,0.866052 c -0.104071,0.189717 -0.04965,0.345663 0.163249,0.467837 0.209296,0.120106 0.36882,0.08453 0.478571,-0.106721 l 0.493882,-0.860641 m 1.73743,-2.512641 -0.168208,0.341508 -1.623564,-0.799675 c -0.279924,-0.137873 -0.485148,-0.07431 -0.61567,0.190681 l -0.193025,0.391895 c -0.147065,0.298589 -0.05824,0.527849 0.266469,0.687782 l 1.556383,0.766585 -0.170965,0.347108 -2.407355,-1.185726 0.170965,-0.347107 0.291122,0.14339 c -0.155531,-0.183273 -0.172603,-0.393426 -0.05122,-0.63046 l 0.2206,-0.447879 c 0.211411,-0.429215 0.559716,-0.524334 1.044918,-0.285353 l 1.67955,0.827251 m 0.966374,-2.287481 -0.520235,1.250333 c -0.188594,0.453271 -0.529055,0.572976 -1.021381,0.359117 -0.457111,-0.190192 -0.588172,-0.519606 -0.393186,-0.988241 l 0.357212,-0.858524 -0.227112,-0.08774 c -0.296422,-0.132345 -0.503769,-0.05639 -0.622042,0.227861 l -0.417145,1.002571 -0.374523,-0.155831 0.42051,-0.994412 c 0.239123,-0.531381 0.630138,-0.675115 1.173044,-0.431202 l 1.624858,0.676064 m -0.523163,0.201408 -0.679904,-0.282892 -0.383583,0.921905 c -0.07927,0.201344 -0.0056,0.349166 0.221051,0.443462 0.222793,0.0927 0.376544,0.03726 0.461252,-0.166332 l 0.381184,-0.916143 m 1.799841,-0.826651 -0.401157,-0.138435 0.278904,-0.808213 c 0.06243,-0.180913 0.01499,-0.298514 -0.142329,-0.352803 l -0.289069,-0.09975 -0.352191,1.020591 c -0.132868,0.37227 -0.401237,0.49312 -0.805107,0.362552 l -1.339158,-0.462124 c -0.397222,-0.137076 -0.52994,-0.402939 -0.398157,-0.797589 l 0.472304,-1.368653 2.819899,0.973108 c 0.435195,0.154584 0.588326,0.418688 0.459395,0.792313 l -0.303334,0.879006 m -2.71282,-2.144305 -0.329799,0.955699 c -0.06107,0.176983 0.01065,0.30076 0.215157,0.371333 l 1.097283,0.378657 c 0.247773,0.0855 0.405729,0.01678 0.473865,-0.206182 l 0.307405,-0.890804 -1.763911,-0.608703 m 1.876407,-2.391021 -0.448921,1.624102 0.311127,0.09248 c 0.261767,0.06804 0.425351,-0.01624 0.490747,-0.252838 l 0.325884,-1.178977 0.397004,0.109736 -0.324221,1.172962 c -0.139242,0.488128 -0.462951,0.6598 -0.971128,0.515016 l -1.036276,-0.279964 c -0.521315,-0.144097 -0.713591,-0.471343 -0.576831,-0.981739 l 0.153993,-0.53369 c 0.128582,-0.465171 0.447514,-0.627372 0.956799,-0.486602 l 0.721823,0.199519 m -0.839909,1.516029 0.350824,-1.269206 -0.314453,-0.08044 c -0.259548,-0.07606 -0.420359,-0.0018 -0.482434,0.222762 l -0.154629,0.559413 c -0.07094,0.256649 0.02558,0.414982 0.289565,0.475 l 0.311127,0.09247 m 0.125899,-3.563903 -0.114301,0.524392 c -0.07354,0.337401 0.07712,0.544826 0.451993,0.622277 l 1.66464,0.36284 -0.0824,0.37805 -2.621963,-0.571506 0.0824,-0.378049 0.335367,0.0731 C 84.902421,56.807163 84.836264,56.573447 84.916006,56.20759 l 0.08639,-0.396343 0.396343,0.08639"
       inkscape:connector-curvature="0"
       id="text3313"
       style="font-size:6px;font-style:normal;font-variant:normal;font-weight:normal;font-stretch:normal;text-align:start;line-height:120.00000477%;writing-mode:lr-tb;text-anchor:start;fill:#666666;fill-opacity:1;stroke:none;font-family:Forgotten Futurist;-inkscape-font-specification:Forgotten Futurist" />
    <path
       d="m 81.064743,46.186852 a 35.292206,32.766823 0 1 1 -70.584412,0 35.292206,32.766823 0 1 1 70.584412,0 z"
       transform="matrix(0,-0.9917204,1.0681536,0,-1.3346511,93.393559)"
       id="path2522"
       style="fill:none;stroke:url(#linearGradient3301);stroke-width:1.94320452;stroke-linecap:square;stroke-linejoin:miter;stroke-miterlimit:4;stroke-opacity:1;stroke-dasharray:none;stroke-dashoffset:0" />
  </g>
  <g
     id="layer6"
     style="display:inline">
    <path
       d="m 6,72 0,12 c 0,3.324 2.676,6 6,6 l 72,0 c 3.324,0 6,-2.676 6,-6 L 90,72 6,72 z"
       inkscape:connector-curvature="0"
       id="rect3002"
       style="color:#000000;fill:url(#linearGradient3785);fill-opacity:1;fill-rule:nonzero;stroke:none;stroke-width:1;marker:none;visibility:visible;display:inline;overflow:visible;enable-background:accumulate" />
    <path
       d="m 6,72 0,1 84,0 0,-1 -84,0 z"
       inkscape:connector-curvature="0"
       id="path3787"
       style="opacity:0.6;color:#000000;fill:#ffffff;fill-opacity:1;fill-rule:nonzero;stroke:none;stroke-width:1;marker:none;visibility:visible;display:inline;overflow:visible;enable-background:accumulate" />
    <path
       d="m 6,68 0,4 84,0 0,-4 -84,0 z"
       inkscape:connector-curvature="0"
       id="path3796"
       style="opacity:0.6;color:#000000;fill:url(#linearGradient3804);fill-opacity:1;fill-rule:nonzero;stroke:none;stroke-width:1;marker:none;visibility:visible;display:inline;overflow:visible;enable-background:accumulate" />
    <path
       d="m 27,77.0625 c -1.614913,0 -2.9375,1.322587 -2.9375,2.9375 0,1.614913 1.322587,2.9375 2.9375,2.9375 l 46,0 c 1.614913,0 2.9375,-1.322587 2.9375,-2.9375 0,-1.614913 -1.322587,-2.9375 -2.9375,-2.9375 l -46,0 z"
       inkscape:connector-curvature="0"
       id="path3848"
       style="opacity:0.6;color:#000000;fill:url(#linearGradient3921);fill-opacity:1;fill-rule:nonzero;stroke:none;stroke-width:1;marker:none;visibility:visible;display:inline;overflow:visible;enable-background:accumulate" />
    <rect
       width="50.000015"
       height="4"
       rx="2"
       ry="2"
       x="25"
       y="78"
       id="rect3823"
       style="color:#000000;fill:url(#linearGradient3831);fill-opacity:1;fill-rule:nonzero;stroke:none;stroke-width:1;marker:none;visibility:visible;display:inline;overflow:visible;enable-background:accumulate" />
    <g
       transform="translate(4,0)"
       id="g3904">
      <path
         d="m 32,74.21875 c -3.171143,0 -5.78125,2.610107 -5.78125,5.78125 0,3.171143 2.610107,5.78125 5.78125,5.78125 3.171143,0 5.78125,-2.610107 5.78125,-5.78125 0,-3.171143 -2.610107,-5.78125 -5.78125,-5.78125 z"
         transform="matrix(1.125,0,0,1.125,-4,-9.5)"
         id="path3893"
         style="opacity:0.05;color:#000000;fill:#000000;fill-opacity:1;fill-rule:nonzero;stroke:none;stroke-width:1;marker:none;visibility:visible;display:inline;overflow:visible;enable-background:accumulate" />
      <path
         d="m 32,75.125 c -2.681563,0 -4.875,2.193437 -4.875,4.875 0,2.681563 2.193437,4.875 4.875,4.875 2.681563,0 4.875,-2.193437 4.875,-4.875 0,-2.681563 -2.193437,-4.875 -4.875,-4.875 z"
         transform="matrix(1.125,0,0,1.125,-4,-9.5)"
         id="path3889"
         style="opacity:0.15;color:#000000;fill:#000000;fill-opacity:1;fill-rule:nonzero;stroke:none;stroke-width:1;marker:none;visibility:visible;display:inline;overflow:visible;enable-background:accumulate" />
      <path
         d="m 36,80 a 4,4 0 1 1 -8,0 4,4 0 1 1 8,0 z"
         transform="matrix(1.125,0,0,1.125,-4,-9.5)"
         id="path3875"
         style="opacity:0.3;color:#000000;fill:#000000;fill-opacity:1;fill-rule:nonzero;stroke:none;stroke-width:1;marker:none;visibility:visible;display:inline;overflow:visible;enable-background:accumulate" />
      <path
         d="m 36,80 a 4,4 0 1 1 -8,0 4,4 0 1 1 8,0 z"
         id="path3861"
         style="color:#000000;fill:url(#radialGradient3913);fill-opacity:1;fill-rule:nonzero;stroke:none;stroke-width:1;marker:none;visibility:visible;display:inline;overflow:visible;enable-background:accumulate" />
      <path
         d="m 32,76 c -2.209139,0 -4,1.790861 -4,4 0,0.17012 0.04189,0.335468 0.0625,0.5 C 28.309566,78.527954 29.960981,77 32,77 c 2.039019,0 3.690434,1.527954 3.9375,3.5 C 35.958113,80.335468 36,80.17012 36,80 36,77.790861 34.209139,76 32,76 z"
         inkscape:connector-curvature="0"
         id="path3895"
         style="opacity:0.6;color:#000000;fill:#ffffff;fill-opacity:1;fill-rule:nonzero;stroke:none;stroke-width:1;marker:none;visibility:visible;display:inline;overflow:visible;enable-background:accumulate" />
    </g>
    <path
       d="m 77,84 3,0 0,3 2,0 0,-3 3,0 -4,-9 -4,9 z"
       inkscape:connector-curvature="0"
       id="path3915"
       style="opacity:0.3;fill:#000000;stroke:none" />
    <path
       d="m 16,83 2,0 0,3 2,0 0,-3 2,0 -3,-7 -3,7 z"
       inkscape:connector-curvature="0"
       id="path3917"
       style="opacity:0.3;fill:#000000;stroke:none" />
    <path
       d="m 10,83 2,0 0,3 2,0 0,-3 2,0 -3,-7 -3,7 z"
       inkscape:connector-curvature="0"
       id="path3919"
       style="opacity:0.3;fill:#000000;stroke:none" />
    <path
       d="m 81,75 -4,9 0.4375,0 L 81,76 84.5625,84 85,84 81,75 z m -68,1 -3,7 0.4375,0 L 13,77 15.5625,83 16,83 13,76 z m 3,7 0.4375,0 L 19,77 21.5625,83 22,83 19,76 16,83 z"
       inkscape:connector-curvature="0"
       id="path3923"
       style="opacity:0.2;fill:#000000;stroke:none" />
    <path
       d="M 10.4375,83 10,84 l 2,0 0,-1 -1.5625,0 z M 14,83 14,84 16,84 15.5625,83 14,83 z m 2,1 2,0 0,-1 -1.5625,0 L 16,84 z m 4,-1 0,1 2,0 L 21.5625,83 20,83 z M 77.4375,84 77,85 l 3,0 0,-1 -2.5625,0 z M 82,84 82,85 85,85 84.5625,84 82,84 z m -70,2 0,1 2,0 0,-1 -2,0 z m 6,0 0,1 2,0 0,-1 -2,0 z m 62,1 0,1 2,0 0,-1 -2,0 z"
       inkscape:connector-curvature="0"
       id="path3930"
       style="opacity:0.3;fill:#ffffff;stroke:none" />
  </g>
  <g
     id="layer5">
    <path
       d="M 12,6 C 8.676,6 6,8.676 6,12 l 0,2 0,68 0,2 c 0,0.334721 0.04135,0.6507 0.09375,0.96875 0.0487,0.295596 0.09704,0.596915 0.1875,0.875 0.00988,0.03038 0.020892,0.0636 0.03125,0.09375 0.098865,0.287771 0.2348802,0.547452 0.375,0.8125 0.1445918,0.273507 0.3156161,0.535615 0.5,0.78125 0.1843839,0.245635 0.3737765,0.473472 0.59375,0.6875 0.439947,0.428056 0.94291,0.814526 1.5,1.09375 0.278545,0.139612 0.5734731,0.246947 0.875,0.34375 -0.2562018,-0.100222 -0.4867109,-0.236272 -0.71875,-0.375 -0.00741,-0.0044 -0.023866,0.0045 -0.03125,0 -0.031933,-0.0193 -0.062293,-0.04251 -0.09375,-0.0625 -0.120395,-0.0767 -0.2310226,-0.163513 -0.34375,-0.25 -0.1061728,-0.0808 -0.2132809,-0.161112 -0.3125,-0.25 C 8.4783201,88.557317 8.3087904,88.373362 8.15625,88.1875 8.0486711,88.057245 7.9378561,87.922215 7.84375,87.78125 7.818661,87.74287 7.805304,87.69538 7.78125,87.65625 7.716487,87.553218 7.6510225,87.451733 7.59375,87.34375 7.4927417,87.149044 7.3880752,86.928049 7.3125,86.71875 7.30454,86.69694 7.288911,86.6782 7.28125,86.65625 7.2494249,86.5643 7.2454455,86.469419 7.21875,86.375 7.1884177,86.268382 7.1483606,86.171969 7.125,86.0625 7.0521214,85.720988 7,85.364295 7,85 L 7,83 7,15 7,13 C 7,10.218152 9.2181517,8 12,8 l 2,0 68,0 2,0 c 2.781848,0 5,2.218152 5,5 l 0,2 0,68 0,2 c 0,0.364295 -0.05212,0.720988 -0.125,1.0625 -0.04415,0.206893 -0.08838,0.397658 -0.15625,0.59375 -0.0077,0.02195 -0.0233,0.04069 -0.03125,0.0625 -0.06274,0.173739 -0.138383,0.367449 -0.21875,0.53125 -0.04158,0.0828 -0.07904,0.169954 -0.125,0.25 -0.0546,0.09721 -0.126774,0.18835 -0.1875,0.28125 -0.09411,0.140965 -0.204921,0.275995 -0.3125,0.40625 -0.143174,0.17445 -0.303141,0.346998 -0.46875,0.5 -0.01117,0.0102 -0.01998,0.02115 -0.03125,0.03125 -0.138386,0.125556 -0.285091,0.234436 -0.4375,0.34375 -0.102571,0.07315 -0.204318,0.153364 -0.3125,0.21875 -0.0074,0.0045 -0.02384,-0.0044 -0.03125,0 -0.232039,0.138728 -0.462548,0.274778 -0.71875,0.375 0.301527,-0.0968 0.596455,-0.204138 0.875,-0.34375 0.55709,-0.279224 1.060053,-0.665694 1.5,-1.09375 0.219973,-0.214028 0.409366,-0.441865 0.59375,-0.6875 0.184384,-0.245635 0.355408,-0.507743 0.5,-0.78125 0.14012,-0.265048 0.276135,-0.524729 0.375,-0.8125 0.01041,-0.03078 0.02133,-0.06274 0.03125,-0.09375 0.09046,-0.278085 0.1388,-0.579404 0.1875,-0.875 C 89.95865,84.6507 90,84.334721 90,84 l 0,-2 0,-68 0,-2 C 90,8.676 87.324,6 84,6 L 12,6 z"
       inkscape:connector-curvature="0"
       id="rect3728"
       style="opacity:0.3;fill:url(#linearGradient3188);fill-opacity:1;fill-rule:nonzero;stroke:none" />
    <path
       d="M 12,90 C 8.676,90 6,87.324 6,84 L 6,82 6,14 6,12 c 0,-0.334721 0.04135,-0.6507 0.09375,-0.96875 0.0487,-0.295596 0.09704,-0.596915 0.1875,-0.875 C 6.29113,10.12587 6.302142,10.09265 6.3125,10.0625 6.411365,9.774729 6.5473802,9.515048 6.6875,9.25 6.8320918,8.976493 7.0031161,8.714385 7.1875,8.46875 7.3718839,8.223115 7.5612765,7.995278 7.78125,7.78125 8.221197,7.353194 8.72416,6.966724 9.28125,6.6875 9.559795,6.547888 9.8547231,6.440553 10.15625,6.34375 9.9000482,6.443972 9.6695391,6.580022 9.4375,6.71875 c -0.00741,0.0044 -0.023866,-0.0045 -0.03125,0 -0.031933,0.0193 -0.062293,0.04251 -0.09375,0.0625 -0.120395,0.0767 -0.2310226,0.163513 -0.34375,0.25 -0.1061728,0.0808 -0.2132809,0.161112 -0.3125,0.25 C 8.4783201,7.442683 8.3087904,7.626638 8.15625,7.8125 8.0486711,7.942755 7.9378561,8.077785 7.84375,8.21875 7.818661,8.25713 7.805304,8.30462 7.78125,8.34375 7.716487,8.446782 7.6510225,8.548267 7.59375,8.65625 7.4927417,8.850956 7.3880752,9.071951 7.3125,9.28125 7.30454,9.30306 7.288911,9.3218 7.28125,9.34375 7.2494249,9.4357 7.2454455,9.530581 7.21875,9.625 7.1884177,9.731618 7.1483606,9.828031 7.125,9.9375 7.0521214,10.279012 7,10.635705 7,11 l 0,2 0,68 0,2 c 0,2.781848 2.2181517,5 5,5 l 2,0 68,0 2,0 c 2.781848,0 5,-2.218152 5,-5 l 0,-2 0,-68 0,-2 C 89,10.635705 88.94788,10.279012 88.875,9.9375 88.83085,9.730607 88.78662,9.539842 88.71875,9.34375 88.71105,9.3218 88.69545,9.30306 88.6875,9.28125 88.62476,9.107511 88.549117,8.913801 88.46875,8.75 88.42717,8.6672 88.38971,8.580046 88.34375,8.5 88.28915,8.40279 88.216976,8.31165 88.15625,8.21875 88.06214,8.077785 87.951329,7.942755 87.84375,7.8125 87.700576,7.63805 87.540609,7.465502 87.375,7.3125 87.36383,7.3023 87.35502,7.29135 87.34375,7.28125 87.205364,7.155694 87.058659,7.046814 86.90625,6.9375 86.803679,6.86435 86.701932,6.784136 86.59375,6.71875 c -0.0074,-0.0045 -0.02384,0.0044 -0.03125,0 -0.232039,-0.138728 -0.462548,-0.274778 -0.71875,-0.375 0.301527,0.0968 0.596455,0.204138 0.875,0.34375 0.55709,0.279224 1.060053,0.665694 1.5,1.09375 0.219973,0.214028 0.409366,0.441865 0.59375,0.6875 0.184384,0.245635 0.355408,0.507743 0.5,0.78125 0.14012,0.265048 0.276135,0.524729 0.375,0.8125 0.01041,0.03078 0.02133,0.06274 0.03125,0.09375 0.09046,0.278085 0.1388,0.579404 0.1875,0.875 C 89.95865,11.3493 90,11.665279 90,12 l 0,2 0,68 0,2 c 0,3.324 -2.676,6 -6,6 l -72,0 z"
       inkscape:connector-curvature="0"
       id="path3615"
       style="opacity:0.45;fill:url(#radialGradient2874);fill-opacity:1;fill-rule:nonzero;stroke:none" />
  </g>
</svg>
