<?xml version="1.0" encoding="UTF-8" standalone="no"?>
<!-- Created with Inkscape (http://www.inkscape.org/) -->

<svg
   xmlns:dc="http://purl.org/dc/elements/1.1/"
   xmlns:cc="http://creativecommons.org/ns#"
   xmlns:rdf="http://www.w3.org/1999/02/22-rdf-syntax-ns#"
   xmlns:svg="http://www.w3.org/2000/svg"
   xmlns="http://www.w3.org/2000/svg"
   xmlns:xlink="http://www.w3.org/1999/xlink"
   xmlns:inkscape="http://www.inkscape.org/namespaces/inkscape"
   version="1.0"
   width="96"
   height="96"
   id="svg2408">
  <defs
     id="defs2410">
    <linearGradient
       x1="45.447727"
       y1="92.539597"
       x2="45.447727"
       y2="7.0165396"
       id="ButtonShadow"
       gradientUnits="userSpaceOnUse"
       gradientTransform="scale(1.0058652,0.994169)">
      <stop
         id="stop3750"
         style="stop-color:#000000;stop-opacity:1"
         offset="0" />
      <stop
         id="stop3752"
         style="stop-color:#000000;stop-opacity:0.58823532"
         offset="1" />
    </linearGradient>
    <linearGradient
       id="linearGradient3737">
      <stop
         id="stop3739"
         style="stop-color:#ffffff;stop-opacity:1"
         offset="0" />
      <stop
         id="stop3741"
         style="stop-color:#ffffff;stop-opacity:0"
         offset="1" />
    </linearGradient>
    <filter
       color-interpolation-filters="sRGB"
       id="filter3174">
      <feGaussianBlur
         id="feGaussianBlur3176"
         stdDeviation="1.71" />
    </filter>
    <linearGradient
       x1="36.357143"
       y1="6"
       x2="36.357143"
       y2="63.893143"
       id="linearGradient3188"
       xlink:href="#linearGradient3737"
       gradientUnits="userSpaceOnUse" />
    <linearGradient
       x1="48.197182"
       y1="10.873245"
       x2="48.197182"
       y2="93.609375"
       id="linearGradient3613"
       xlink:href="#linearGradient3172"
       gradientUnits="userSpaceOnUse"
       gradientTransform="translate(-4.647891,-4.4507084)" />
    <radialGradient
       cx="48"
       cy="90.171875"
       r="42"
       fx="48"
       fy="90.171875"
       id="radialGradient3619"
       xlink:href="#linearGradient3737"
       gradientUnits="userSpaceOnUse"
       gradientTransform="matrix(1.1573129,0,0,0.99590774,-7.5510206,0.19713193)" />
    <linearGradient
       x1="45.447727"
       y1="92.539597"
       x2="45.447727"
       y2="7.0165396"
       id="ButtonShadow-0"
       gradientUnits="userSpaceOnUse"
       gradientTransform="matrix(1.0058652,0,0,0.994169,100,0)">
      <stop
         id="stop3750-8"
         style="stop-color:#000000;stop-opacity:1"
         offset="0" />
      <stop
         id="stop3752-5"
         style="stop-color:#000000;stop-opacity:0.58823532"
         offset="1" />
    </linearGradient>
    <linearGradient
       x1="32.251034"
       y1="6.1317081"
       x2="32.251034"
       y2="90.238609"
       id="linearGradient3780"
       xlink:href="#ButtonShadow-0"
       gradientUnits="userSpaceOnUse"
       gradientTransform="matrix(1.0238095,0,0,1.0119048,-1.1428571,-98.071429)" />
    <linearGradient
       x1="32.251034"
       y1="6.1317081"
       x2="32.251034"
       y2="90.238609"
       id="linearGradient3772"
       xlink:href="#ButtonShadow-0"
       gradientUnits="userSpaceOnUse"
       gradientTransform="matrix(1.0238095,0,0,1.0119048,-1.1428571,-98.071429)" />
    <linearGradient
       x1="32.251034"
       y1="6.1317081"
       x2="32.251034"
       y2="90.238609"
       id="linearGradient3725"
       xlink:href="#ButtonShadow-0"
       gradientUnits="userSpaceOnUse"
       gradientTransform="matrix(1.0238095,0,0,1.0119048,-1.1428571,-98.071429)" />
    <linearGradient
       x1="32.251034"
       y1="6.1317081"
       x2="32.251034"
       y2="90.238609"
       id="linearGradient3721"
       xlink:href="#ButtonShadow-0"
       gradientUnits="userSpaceOnUse"
       gradientTransform="translate(0,-97)" />
    <linearGradient
       x1="32.251034"
       y1="6.1317081"
       x2="32.251034"
       y2="90.238609"
       id="linearGradient3026"
       xlink:href="#ButtonShadow-0"
       gradientUnits="userSpaceOnUse"
       gradientTransform="matrix(1.0238095,0,0,1.0119048,-1.1428571,-98.071429)" />
    <linearGradient
       id="linearGradient3172">
      <stop
         id="stop3174"
         style="stop-color:#ffffff;stop-opacity:1"
         offset="0" />
      <stop
         id="stop3180"
         style="stop-color:#088eff;stop-opacity:1"
         offset="0.5" />
      <stop
         id="stop3176"
         style="stop-color:#a6d7ff;stop-opacity:0.54782611"
         offset="1" />
    </linearGradient>
    <clipPath
       id="clipPath3784">
      <rect
         width="84"
         height="84"
         rx="6"
         ry="6"
         x="6"
         y="6"
         id="rect3786"
         style="fill:#ffffff;fill-opacity:1;fill-rule:nonzero;stroke:none" />
    </clipPath>
    <filter
       x="-0.192"
       y="-0.192"
       width="1.3839999"
       height="1.3839999"
       color-interpolation-filters="sRGB"
       id="filter3792">
      <feGaussianBlur
         id="feGaussianBlur3794"
         stdDeviation="6.56" />
    </filter>
  </defs>
  <metadata
     id="metadata2413">
    <rdf:RDF>
      <cc:Work
         rdf:about="">
        <dc:format>image/svg+xml</dc:format>
        <dc:type
           rdf:resource="http://purl.org/dc/dcmitype/StillImage" />
        <dc:title />
      </cc:Work>
    </rdf:RDF>
  </metadata>
  <g
     id="layer2"
     style="display:none">
    <rect
       width="86"
       height="85"
       rx="6"
       ry="6"
       x="5"
       y="7"
       id="rect3745"
       style="opacity:0.9;fill:url(#ButtonShadow);fill-opacity:1;fill-rule:nonzero;stroke:none;filter:url(#filter3174)" />
  </g>
  <g
     id="layer3">
    <path
       d="m 12,-95.03125 c -5.5110903,0 -10.03125,4.52016 -10.03125,10.03125 l 0,71 c 0,5.5110902 4.5201598,10.03125 10.03125,10.03125 l 72,0 c 5.51109,0 10.03125,-4.5201597 10.03125,-10.03125 l 0,-71 c 0,-5.51109 -4.52016,-10.03125 -10.03125,-10.03125 l -72,0 z"
       transform="scale(1,-1)"
       id="path3786"
       style="opacity:0.07999998;fill:url(#linearGradient3026);fill-opacity:1;fill-rule:nonzero;stroke:none;display:inline" />
    <path
       d="m 12,-94.03125 c -4.971633,0 -9.03125,4.059617 -9.03125,9.03125 l 0,71 c 0,4.9716329 4.0596171,9.03125 9.03125,9.03125 l 72,0 c 4.971633,0 9.03125,-4.059617 9.03125,-9.03125 l 0,-71 c 0,-4.971633 -4.059617,-9.03125 -9.03125,-9.03125 l -72,0 z"
       transform="scale(1,-1)"
       id="path3778"
       style="opacity:0.1;fill:url(#linearGradient3780);fill-opacity:1;fill-rule:nonzero;stroke:none;display:inline" />
    <path
       d="m 12,-93 c -4.4091333,0 -8,3.590867 -8,8 l 0,71 c 0,4.4091333 3.5908667,8 8,8 l 72,0 c 4.409133,0 8,-3.5908667 8,-8 l 0,-71 c 0,-4.409133 -3.590867,-8 -8,-8 l -72,0 z"
       transform="scale(1,-1)"
       id="path3770"
       style="opacity:0.2;fill:url(#linearGradient3772);fill-opacity:1;fill-rule:nonzero;stroke:none;display:inline" />
    <rect
       width="86"
       height="85"
       rx="7"
       ry="7"
       x="5"
       y="-92"
       transform="scale(1,-1)"
       id="rect3723"
       style="opacity:0.3;fill:url(#linearGradient3725);fill-opacity:1;fill-rule:nonzero;stroke:none;display:inline" />
    <rect
       width="84"
       height="84"
       rx="6"
       ry="6"
       x="6"
       y="-91"
       transform="scale(1,-1)"
       id="rect3716"
       style="opacity:0.45;fill:url(#linearGradient3721);fill-opacity:1;fill-rule:nonzero;stroke:none;display:inline" />
  </g>
  <g
     id="layer1">
    <rect
       width="84"
       height="84"
       rx="6"
       ry="6"
       x="6"
       y="6"
       id="rect2419"
       style="fill:#088eff;fill-opacity:1;fill-rule:nonzero;stroke:none" />
    <path
       d="M 12,6 C 8.676,6 6,8.676 6,12 l 0,2 0,68 0,2 c 0,0.334721 0.04135,0.6507 0.09375,0.96875 0.0487,0.295596 0.09704,0.596915 0.1875,0.875 0.00988,0.03038 0.020892,0.0636 0.03125,0.09375 0.098865,0.287771 0.2348802,0.547452 0.375,0.8125 0.1445918,0.273507 0.3156161,0.535615 0.5,0.78125 0.1843839,0.245635 0.3737765,0.473472 0.59375,0.6875 0.439947,0.428056 0.94291,0.814526 1.5,1.09375 0.278545,0.139612 0.5734731,0.246947 0.875,0.34375 -0.2562018,-0.100222 -0.4867109,-0.236272 -0.71875,-0.375 -0.00741,-0.0044 -0.023866,0.0045 -0.03125,0 -0.031933,-0.0193 -0.062293,-0.04251 -0.09375,-0.0625 -0.120395,-0.0767 -0.2310226,-0.163513 -0.34375,-0.25 -0.1061728,-0.0808 -0.2132809,-0.161112 -0.3125,-0.25 C 8.4783201,88.557317 8.3087904,88.373362 8.15625,88.1875 8.0486711,88.057245 7.9378561,87.922215 7.84375,87.78125 7.818661,87.74287 7.805304,87.69538 7.78125,87.65625 7.716487,87.553218 7.6510225,87.451733 7.59375,87.34375 7.4927417,87.149044 7.3880752,86.928049 7.3125,86.71875 7.30454,86.69694 7.288911,86.6782 7.28125,86.65625 7.2494249,86.5643 7.2454455,86.469419 7.21875,86.375 7.1884177,86.268382 7.1483606,86.171969 7.125,86.0625 7.0521214,85.720988 7,85.364295 7,85 L 7,83 7,15 7,13 C 7,10.218152 9.2181517,8 12,8 l 2,0 68,0 2,0 c 2.781848,0 5,2.218152 5,5 l 0,2 0,68 0,2 c 0,0.364295 -0.05212,0.720988 -0.125,1.0625 -0.04415,0.206893 -0.08838,0.397658 -0.15625,0.59375 -0.0077,0.02195 -0.0233,0.04069 -0.03125,0.0625 -0.06274,0.173739 -0.138383,0.367449 -0.21875,0.53125 -0.04158,0.0828 -0.07904,0.169954 -0.125,0.25 -0.0546,0.09721 -0.126774,0.18835 -0.1875,0.28125 -0.09411,0.140965 -0.204921,0.275995 -0.3125,0.40625 -0.143174,0.17445 -0.303141,0.346998 -0.46875,0.5 -0.01117,0.0102 -0.01998,0.02115 -0.03125,0.03125 -0.138386,0.125556 -0.285091,0.234436 -0.4375,0.34375 -0.102571,0.07315 -0.204318,0.153364 -0.3125,0.21875 -0.0074,0.0045 -0.02384,-0.0044 -0.03125,0 -0.232039,0.138728 -0.462548,0.274778 -0.71875,0.375 0.301527,-0.0968 0.596455,-0.204138 0.875,-0.34375 0.55709,-0.279224 1.060053,-0.665694 1.5,-1.09375 0.219973,-0.214028 0.409366,-0.441865 0.59375,-0.6875 0.184384,-0.245635 0.355408,-0.507743 0.5,-0.78125 0.14012,-0.265048 0.276135,-0.524729 0.375,-0.8125 0.01041,-0.03078 0.02133,-0.06274 0.03125,-0.09375 0.09046,-0.278085 0.1388,-0.579404 0.1875,-0.875 C 89.95865,84.6507 90,84.334721 90,84 l 0,-2 0,-68 0,-2 C 90,8.676 87.324,6 84,6 L 12,6 z"
       inkscape:connector-curvature="0"
       id="rect3728"
       style="opacity:0.35;fill:url(#linearGradient3188);fill-opacity:1;fill-rule:nonzero;stroke:none" />
    <path
       d="M 12,90 C 8.676,90 6,87.324 6,84 L 6,82 6,14 6,12 c 0,-0.334721 0.04135,-0.6507 0.09375,-0.96875 0.0487,-0.295596 0.09704,-0.596915 0.1875,-0.875 C 6.29113,10.12587 6.302142,10.09265 6.3125,10.0625 6.411365,9.774729 6.5473802,9.515048 6.6875,9.25 6.8320918,8.976493 7.0031161,8.714385 7.1875,8.46875 7.3718839,8.223115 7.5612765,7.995278 7.78125,7.78125 8.221197,7.353194 8.72416,6.966724 9.28125,6.6875 9.559795,6.547888 9.8547231,6.440553 10.15625,6.34375 9.9000482,6.443972 9.6695391,6.580022 9.4375,6.71875 c -0.00741,0.0044 -0.023866,-0.0045 -0.03125,0 -0.031933,0.0193 -0.062293,0.04251 -0.09375,0.0625 -0.120395,0.0767 -0.2310226,0.163513 -0.34375,0.25 -0.1061728,0.0808 -0.2132809,0.161112 -0.3125,0.25 C 8.4783201,7.442683 8.3087904,7.626638 8.15625,7.8125 8.0486711,7.942755 7.9378561,8.077785 7.84375,8.21875 7.818661,8.25713 7.805304,8.30462 7.78125,8.34375 7.716487,8.446782 7.6510225,8.548267 7.59375,8.65625 7.4927417,8.850956 7.3880752,9.071951 7.3125,9.28125 7.30454,9.30306 7.288911,9.3218 7.28125,9.34375 7.2494249,9.4357 7.2454455,9.530581 7.21875,9.625 7.1884177,9.731618 7.1483606,9.828031 7.125,9.9375 7.0521214,10.279012 7,10.635705 7,11 l 0,2 0,68 0,2 c 0,2.781848 2.2181517,5 5,5 l 2,0 68,0 2,0 c 2.781848,0 5,-2.218152 5,-5 l 0,-2 0,-68 0,-2 C 89,10.635705 88.94788,10.279012 88.875,9.9375 88.83085,9.730607 88.78662,9.539842 88.71875,9.34375 88.71105,9.3218 88.69545,9.30306 88.6875,9.28125 88.62476,9.107511 88.549117,8.913801 88.46875,8.75 88.42717,8.6672 88.38971,8.580046 88.34375,8.5 88.28915,8.40279 88.216976,8.31165 88.15625,8.21875 88.06214,8.077785 87.951329,7.942755 87.84375,7.8125 87.700576,7.63805 87.540609,7.465502 87.375,7.3125 87.36383,7.3023 87.35502,7.29135 87.34375,7.28125 87.205364,7.155694 87.058659,7.046814 86.90625,6.9375 86.803679,6.86435 86.701932,6.784136 86.59375,6.71875 c -0.0074,-0.0045 -0.02384,0.0044 -0.03125,0 -0.232039,-0.138728 -0.462548,-0.274778 -0.71875,-0.375 0.301527,0.0968 0.596455,0.204138 0.875,0.34375 0.55709,0.279224 1.060053,0.665694 1.5,1.09375 0.219973,0.214028 0.409366,0.441865 0.59375,0.6875 0.184384,0.245635 0.355408,0.507743 0.5,0.78125 0.14012,0.265048 0.276135,0.524729 0.375,0.8125 0.01041,0.03078 0.02133,0.06274 0.03125,0.09375 0.09046,0.278085 0.1388,0.579404 0.1875,0.875 C 89.95865,11.3493 90,11.665279 90,12 l 0,2 0,68 0,2 c 0,3.324 -2.676,6 -6,6 l -72,0 z"
       inkscape:connector-curvature="0"
       id="path3615"
       style="opacity:0.2;fill:url(#radialGradient3619);fill-opacity:1;fill-rule:nonzero;stroke:none" />
  </g>
  <g
     id="layer5">
    <rect
       width="82"
       height="82"
       rx="6"
       ry="6"
       x="7"
       y="7"
       clip-path="url(#clipPath3784)"
       id="rect3171"
       style="opacity:0.9;fill:url(#linearGradient3613);fill-opacity:1;fill-rule:nonzero;stroke:none;filter:url(#filter3792)" />
  </g>
  <g
     id="layer4">
    <path
       d="m 29.03125,19.84375 c -1.169564,0.11717 -2.105677,1.349224 -1.34375,2.78125 3.350623,6.771629 5.339725,11.590087 8.8125,19.03125 0.626729,-1.423684 1.002004,-2.409919 1.9375,-4.53125 -3.586538,-7.0797 -4.091014,-10.063439 -7.40625,-16.09375 -0.530025,-0.901446 -1.29826,-1.257803 -2,-1.1875 z m 38.40625,0.25 c -0.730531,-0.03232 -1.521533,0.416772 -2,1.53125 -4.379367,9.814243 -12.434862,29.673048 -16.03125,37.65625 -2.04759,4.162326 1.615179,5.827051 3,3.53125 4.637039,-9.6139 11.610535,-28.036258 16.6875,-39.78125 0.631511,-1.559004 -0.438702,-2.883636 -1.65625,-2.9375 z M 45.25,32.78125 c -0.73053,-0.03231 -1.459033,0.416772 -1.9375,1.53125 -4.379367,9.814243 -12.497363,29.735551 -16.09375,37.71875 -2.047591,4.162326 1.5781,5.369957 3.15625,2.6875 4.637036,-9.613899 11.485535,-27.255009 16.5625,-39 0.631511,-1.559006 -0.469952,-2.883633 -1.6875,-2.9375 z m 7.34375,1.875 c -0.73053,-0.03231 -1.459032,0.354272 -1.9375,1.46875 -4.379366,9.814243 -5.934863,14.641801 -9.53125,22.625 -2.04759,4.162328 1.427679,5.600364 2.8125,2.53125 4.637036,-9.6139 5.266787,-11.94251 10.34375,-23.6875 0.631512,-1.559006 -0.469952,-2.883636 -1.6875,-2.9375 z M 90,35.84375 c -7.13458,1.692462 -12.858061,4.673964 -19.3125,8.75 -1.903827,-1.495117 -3.133187,-2.730241 -4.65625,-4.28125 -0.494851,0.911597 -1.690354,3.417086 -2.125,4.09375 1.59279,1.552519 2.263354,2.48834 3.53125,3.40625 -1.525494,1.092494 -1.510869,1.439895 -5.15625,4.65625 0.76153,1.438835 1.17597,2.816973 1.9375,4.21875 1.764157,-1.895806 3.071669,-3.417139 6.875,-5.9375 5.259905,2.764345 9.732524,5.655862 18.90625,8.1875 L 90,53.75 C 85.66121,52.380134 79.320421,50.48035 75.375,47.71875 78.447558,45.554404 82.586578,43.407749 90,41.6875 l 0,-5.84375 z m -84,1.3125 0,4.9375 c 4.361358,1.391612 10.712424,3.386392 14.625,6.125 C 17.552442,50.383098 13.413422,52.475267 6,54.1875 l 0,5.90625 c 7.138453,-1.696335 12.92056,-4.736464 19.375,-8.8125 1.903827,1.495117 3.070687,2.792742 4.59375,4.34375 0.494851,-0.911596 1.721604,-3.479586 2.15625,-4.15625 -1.592788,-1.552519 -2.232106,-2.425838 -3.5,-3.34375 1.525491,-1.092492 1.510867,-1.439895 5.15625,-4.65625 -0.761532,-1.438836 -1.17597,-2.816976 -1.9375,-4.21875 -1.764157,1.895804 -3.134169,3.417139 -6.9375,5.9375 C 19.706888,42.454973 14.983426,39.662042 6,37.15625 z m 53.40625,16.1875 c -0.62673,1.423686 -1.064504,2.347418 -2,4.46875 3.586538,7.079698 4.153512,10.125937 7.46875,16.15625 1.413396,2.403854 4.562831,0.697493 3.34375,-1.59375 -3.350626,-6.771631 -5.339725,-11.590088 -8.8125,-19.03125 z"
       inkscape:connector-curvature="0"
       id="path2181"
       style="fill:#ffffff;fill-rule:evenodd;stroke:none" />
    <path
       d="m 29.03125,18.84375 c -1.030722,0.10326 -1.896868,1.072429 -1.5625,2.28125 0.200272,-0.705557 0.841319,-1.209 1.5625,-1.28125 0.70174,-0.0703 1.469975,0.286054 2,1.1875 3.237395,5.888721 3.823335,8.895513 7.1875,15.625 0.09511,-0.218927 0.109698,-0.283965 0.21875,-0.53125 -3.586538,-7.0797 -4.091014,-10.063439 -7.40625,-16.09375 -0.530025,-0.901446 -1.29826,-1.257803 -2,-1.1875 z m 38.40625,0.25 c -0.730531,-0.03232 -1.521533,0.416772 -2,1.53125 -4.379367,9.814243 -12.434862,29.673048 -16.03125,37.65625 -0.55198,1.122061 -0.683981,2.050854 -0.5625,2.78125 0.06861,-0.530492 0.236229,-1.118008 0.5625,-1.78125 3.596388,-7.983202 11.651883,-27.842007 16.03125,-37.65625 0.478467,-1.114478 1.269469,-1.56357 2,-1.53125 0.819159,0.03624 1.56885,0.660205 1.78125,1.53125 0.304296,-1.370613 -0.674467,-2.482286 -1.78125,-2.53125 z M 45.25,31.78125 c -0.73053,-0.03231 -1.459033,0.416772 -1.9375,1.53125 -4.379367,9.814243 -12.497363,29.735551 -16.09375,37.71875 -0.557469,1.133219 -0.690266,2.042432 -0.5625,2.71875 0.07237,-0.502523 0.242564,-1.068387 0.5625,-1.71875 3.596387,-7.983199 11.714383,-27.904507 16.09375,-37.71875 0.478467,-1.114478 1.20697,-1.56356 1.9375,-1.53125 0.819159,0.03624 1.590843,0.660206 1.8125,1.53125 0.299598,-1.370614 -0.705717,-2.482284 -1.8125,-2.53125 z m 7.34375,1.875 c -0.73053,-0.03231 -1.459032,0.354272 -1.9375,1.46875 -4.379366,9.814243 -5.934863,14.641801 -9.53125,22.625 -0.562759,1.143973 -0.707294,2.085859 -0.59375,2.78125 0.07483,-0.522182 0.263438,-1.109793 0.59375,-1.78125 3.596387,-7.983199 5.151884,-12.810757 9.53125,-22.625 0.478468,-1.114478 1.20697,-1.50106 1.9375,-1.46875 0.819159,0.03624 1.590843,0.660205 1.8125,1.53125 0.299598,-1.370615 -0.705717,-2.482286 -1.8125,-2.53125 z M 90,34.84375 c -7.13458,1.692462 -12.858061,4.673964 -19.3125,8.75 -1.903827,-1.495117 -3.133187,-2.730241 -4.65625,-4.28125 -0.494851,0.911597 -1.690354,3.417086 -2.125,4.09375 0.143574,0.139944 0.21405,0.213389 0.34375,0.34375 0.539723,-0.992664 1.368874,-2.677836 1.78125,-3.4375 1.523063,1.551009 2.752423,2.786133 4.65625,4.28125 6.454439,-4.076036 12.17792,-7.057538 19.3125,-8.75 l 0,-1 z m -84,1.3125 0,1 c 8.983426,2.505792 13.706888,5.298723 18.90625,8.03125 3.803331,-2.520361 5.173343,-4.041696 6.9375,-5.9375 0.638341,1.175016 1.03431,2.339777 1.59375,3.53125 0.13563,-0.120779 0.196523,-0.1826 0.34375,-0.3125 -0.761532,-1.438836 -1.17597,-2.816976 -1.9375,-4.21875 -1.764157,1.895804 -3.134169,3.417139 -6.9375,5.9375 C 19.706888,41.454973 14.983426,38.662042 6,36.15625 z m 70.15625,11.0625 c -0.257622,0.170866 -0.538082,0.328709 -0.78125,0.5 3.945421,2.7616 10.28621,4.661384 14.625,6.03125 l 0,-1 C 85.928569,51.464546 80.119901,49.711694 76.15625,47.21875 z M 66.8125,47.3125 c -0.963807,0.7871 -1.493432,1.475954 -4.53125,4.15625 0.123189,0.232753 0.235788,0.457567 0.34375,0.6875 3.222597,-2.869732 3.348617,-3.295379 4.8125,-4.34375 -0.227981,-0.16505 -0.42681,-0.330311 -0.625,-0.5 z M 29.25,47.625 c -0.192761,0.15742 -0.370752,0.317918 -0.625,0.5 1.152639,0.834471 1.853955,1.69543 3.15625,3 0.138715,-0.259472 0.256522,-0.520452 0.34375,-0.65625 C 30.825033,49.201649 30.139814,48.380745 29.25,47.625 z m -9.375,0.09375 C 16.875283,49.704678 12.843159,51.606977 6,53.1875 l 0,1 c 7.413422,-1.712233 11.552442,-3.804402 14.625,-5.96875 -0.237597,-0.166306 -0.49541,-0.339149 -0.75,-0.5 z m 39.53125,4.625 c -0.62673,1.423686 -1.064504,2.347418 -2,4.46875 0.08646,0.170676 0.166965,0.302664 0.25,0.46875 0.726971,-1.635703 1.198416,-2.684517 1.75,-3.9375 3.472775,7.441162 5.461874,12.259619 8.8125,19.03125 0.08855,0.166425 0.142708,0.341098 0.1875,0.5 0.124369,-0.432661 0.10386,-0.952393 -0.1875,-1.5 -3.350626,-6.771631 -5.339725,-11.590088 -8.8125,-19.03125 z"
       inkscape:connector-curvature="0"
       id="path3747"
       style="opacity:0.5;fill:#0075d8;fill-opacity:1;fill-rule:evenodd;stroke:none" />
    <path
       d="m 27.46875,22.125 c -0.124516,0.438669 -0.07335,0.950995 0.21875,1.5 3.350623,6.771629 5.339725,11.590087 8.8125,19.03125 0.626729,-1.423684 1.002004,-2.409919 1.9375,-4.53125 -0.08421,-0.16623 -0.137861,-0.306944 -0.21875,-0.46875 -0.720803,1.659135 -1.165079,2.742276 -1.71875,4 -3.472775,-7.441163 -5.461877,-12.259621 -8.8125,-19.03125 -0.09045,-0.17 -0.173709,-0.337167 -0.21875,-0.5 z m 41.75,0.5 c -0.03045,0.137169 -0.06755,0.264421 -0.125,0.40625 -5.076965,11.744992 -12.050461,30.16735 -16.6875,39.78125 -1.011507,1.676909 -3.233343,1.229034 -3.5625,-0.75 -0.361981,2.798733 2.398342,3.679979 3.5625,1.75 4.637039,-9.6139 11.610535,-28.036258 16.6875,-39.78125 0.206634,-0.510115 0.228298,-0.982627 0.125,-1.40625 z M 47.0625,35.3125 c -0.02998,0.137169 -0.06755,0.264421 -0.125,0.40625 -5.076965,11.744991 -11.925464,29.386101 -16.5625,39 -1.148489,1.952142 -3.377229,1.839056 -3.71875,0.03125 -0.390814,2.713624 2.387186,3.232073 3.71875,0.96875 4.637036,-9.613899 11.485535,-27.255009 16.5625,-39 0.206634,-0.510116 0.2328,-0.982627 0.125,-1.40625 z m 7.34375,1.875 c -0.02998,0.137169 -0.06755,0.264421 -0.125,0.40625 -5.076963,11.74499 -5.706714,14.0736 -10.34375,23.6875 -1.004217,2.225599 -3.106667,2.084778 -3.40625,0.25 -0.389019,2.714798 2.244825,3.324012 3.40625,0.75 4.637036,-9.6139 5.266787,-11.94251 10.34375,-23.6875 0.206634,-0.510116 0.2328,-0.982627 0.125,-1.40625 z M 90,41.6875 c -7.413422,1.720249 -11.552442,3.866904 -14.625,6.03125 0.24312,0.170172 0.520968,0.336295 0.78125,0.5 C 79.153819,46.230631 83.173291,44.271605 90,42.6875 l 0,-1 z m -84,0.40625 0,1 c 4.096508,1.307104 9.937182,3.137065 13.875,5.625 0.249976,-0.165494 0.513649,-0.333512 0.75,-0.5 C 16.712424,45.480142 10.361358,43.485362 6,42.09375 z m 27.4375,1.6875 c -3.222599,2.869733 -3.34862,3.295381 -4.8125,4.34375 0.233092,0.168751 0.424567,0.329767 0.625,0.5 0.963806,-0.787099 1.493431,-1.475954 4.53125,-4.15625 -0.123189,-0.232753 -0.235788,-0.457567 -0.34375,-0.6875 z M 64.25,44.75 c -0.107945,0.198533 -0.271309,0.543473 -0.34375,0.65625 1.306389,1.273359 2.002227,2.132228 2.90625,2.90625 0.192761,-0.15742 0.370751,-0.317918 0.625,-0.5 C 66.283892,46.97733 65.559178,46.065846 64.25,44.75 z m 6.84375,6 c -3.803331,2.520361 -5.110843,4.041694 -6.875,5.9375 -0.638341,-1.175019 -1.034311,-2.339778 -1.59375,-3.53125 -0.13563,0.120779 -0.196523,0.1826 -0.34375,0.3125 0.76153,1.438835 1.17597,2.816973 1.9375,4.21875 1.764157,-1.895806 3.071669,-3.417139 6.875,-5.9375 5.259905,2.764345 9.732524,5.655862 18.90625,8.1875 l 0,-1 C 80.826274,56.405862 76.353655,53.514345 71.09375,50.75 z M 25.375,51.28125 C 18.92056,55.357286 13.138453,58.397415 6,60.09375 l 0,1 c 7.138453,-1.696335 12.92056,-4.736464 19.375,-8.8125 1.903827,1.495117 3.070687,2.792742 4.59375,4.34375 0.494851,-0.911596 1.721604,-3.479586 2.15625,-4.15625 -0.144789,-0.141128 -0.21353,-0.213303 -0.34375,-0.34375 -0.552483,1.033439 -1.41696,2.77135 -1.8125,3.5 -1.523063,-1.551008 -2.689923,-2.848633 -4.59375,-4.34375 z m 32.28125,7 c -0.09904,0.222844 -0.137832,0.276898 -0.25,0.53125 3.586538,7.079698 4.153512,10.125937 7.46875,16.15625 1.310734,2.22925 4.10313,0.935026 3.53125,-1.09375 -0.396003,1.377637 -2.455656,1.923083 -3.53125,0.09375 -3.235315,-5.884935 -3.857485,-8.964286 -7.21875,-15.6875 z"
       inkscape:connector-curvature="0"
       id="path3752"
       style="opacity:0.2;fill:#ffffff;fill-rule:evenodd;stroke:none" />
    <path
       d="m 29.03125,19.84375 c -1.169564,0.11717 -2.105677,1.349224 -1.34375,2.78125 3.350623,6.771629 5.339725,11.590087 8.8125,19.03125 0.626729,-1.423684 1.002004,-2.409919 1.9375,-4.53125 -3.586538,-7.0797 -4.091014,-10.063439 -7.40625,-16.09375 -0.530025,-0.901446 -1.29826,-1.257803 -2,-1.1875 z m 38.40625,0.25 c -0.730531,-0.03232 -1.521533,0.416772 -2,1.53125 -4.379367,9.814243 -12.434862,29.673048 -16.03125,37.65625 -2.04759,4.162326 1.615179,5.827051 3,3.53125 4.637039,-9.6139 11.610535,-28.036258 16.6875,-39.78125 0.631511,-1.559004 -0.438702,-2.883636 -1.65625,-2.9375 z M 29.125,20.6875 c 0.34801,-0.03486 0.766963,0.115914 1.15625,0.75 0.0097,0.01584 0.02156,0.01477 0.03125,0.03125 3.180444,5.795063 3.796205,8.877073 7.1875,15.65625 -0.456517,1.045373 -0.737189,1.704686 -1.03125,2.40625 C 33.545681,33.186593 31.490774,28.420684 28.4375,22.25 a 0.85088106,0.85088106 0 0 0 0,-0.03125 c -0.265572,-0.499136 -0.206124,-0.809674 -0.0625,-1.0625 0.143624,-0.252826 0.437125,-0.437405 0.75,-0.46875 z m 38.28125,0.25 c 0.616669,0.02728 1.315968,0.680506 0.90625,1.75 -0.005,0.01317 0.0054,0.01795 0,0.03125 -5.088562,11.774757 -12.09307,30.15646 -16.6875,39.6875 -0.0032,0.0066 0.0032,0.02464 0,0.03125 -0.464121,0.68553 -1.037044,0.711667 -1.46875,0.375 -0.45153,-0.352126 -0.915268,-1.295699 0,-3.15625 A 0.85088106,0.85088106 0 0 0 50.1875,59.625 c 3.617998,-8.031171 11.667713,-27.877482 16.03125,-37.65625 0.377055,-0.878263 0.831722,-1.04699 1.1875,-1.03125 z M 45.25,32.78125 c -0.73053,-0.03231 -1.459033,0.416772 -1.9375,1.53125 -4.379367,9.814243 -12.497363,29.735551 -16.09375,37.71875 -2.047591,4.162326 1.5781,5.369957 3.15625,2.6875 4.637036,-9.613899 11.485535,-27.255009 16.5625,-39 0.631511,-1.559006 -0.469952,-2.883633 -1.6875,-2.9375 z M 45.21875,33.625 c 0.617307,0.02731 1.343044,0.689015 0.9375,1.75 -0.005,0.01307 0.0053,0.01806 0,0.03125 -5.088489,11.773994 -11.963003,29.401429 -16.5625,38.9375 -0.607558,0.95404 -1.369474,1.075603 -1.71875,0.875 -0.180453,-0.103641 -0.35503,-0.279827 -0.40625,-0.71875 -0.05122,-0.438923 0.03919,-1.157028 0.5,-2.09375 A 0.85088106,0.85088106 0 0 0 28,72.375 c 3.617164,-8.029319 11.729533,-27.938459 16.09375,-37.71875 0.38765,-0.902941 0.767068,-1.047081 1.125,-1.03125 z m 7.375,1.03125 c -0.73053,-0.03231 -1.459032,0.354272 -1.9375,1.46875 -4.379366,9.814243 -5.934863,14.641801 -9.53125,22.625 -2.04759,4.162328 1.427679,5.600364 2.8125,2.53125 4.637036,-9.6139 5.266787,-11.94251 10.34375,-23.6875 0.631512,-1.559006 -0.469952,-2.883636 -1.6875,-2.9375 z M 52.5625,35.5 c 0.617305,0.02731 1.343045,0.689015 0.9375,1.75 -0.005,0.01307 0.0053,0.01806 0,0.03125 -5.068386,11.726969 -5.721821,14.042422 -10.34375,23.625 a 0.85088106,0.85088106 0 0 0 0,0.03125 C 42.875156,61.560476 42.516444,61.873614 42.25,62 c -0.266444,0.126386 -0.42582,0.08628 -0.5625,0 -0.13668,-0.08628 -0.302243,-0.281103 -0.34375,-0.75 -0.04151,-0.468897 0.06999,-1.187364 0.53125,-2.125 a 0.85088106,0.85088106 0 0 0 0.03125,-0.03125 c 3.611411,-8.016548 5.163642,-12.837107 9.53125,-22.625 0.383102,-0.892346 0.718684,-0.986721 1.125,-0.96875 z M 90,35.84375 c -7.13458,1.692462 -12.858061,4.673964 -19.3125,8.75 -1.903827,-1.495117 -3.133187,-2.730241 -4.65625,-4.28125 -0.494851,0.911597 -1.690354,3.417086 -2.125,4.09375 1.59279,1.552519 2.263354,2.48834 3.53125,3.40625 -1.525494,1.092494 -1.510869,1.439895 -5.15625,4.65625 0.76153,1.438835 1.17597,2.816973 1.9375,4.21875 1.764157,-1.895806 3.071669,-3.417139 6.875,-5.9375 5.259905,2.764345 9.732524,5.655862 18.90625,8.1875 L 90,53.75 C 85.66121,52.380134 79.320421,50.48035 75.375,47.71875 78.447558,45.554404 82.586578,43.407749 90,41.6875 l 0,-5.84375 z m -0.84375,1.125 0,4.0625 c -7.053515,1.712045 -11.233429,3.853079 -14.28125,6 a 0.85088106,0.85088106 0 0 0 0,1.375 c 3.982829,2.787784 9.975268,4.616907 14.28125,5.96875 l 0,3.40625 C 80.865928,55.359327 76.565671,52.662265 71.5,50 a 0.85088106,0.85088106 0 0 0 -0.875,0.03125 c -3.234816,2.143622 -4.717963,3.621718 -6.15625,5.15625 -0.358369,-0.800837 -0.737316,-1.6204 -1.15625,-2.5 2.766771,-2.492353 3.302475,-3.240364 4.625,-4.1875 a 0.85088106,0.85088106 0 0 0 0,-1.375 c -1.004926,-0.72753 -1.763298,-1.650624 -2.96875,-2.875 0.234243,-0.426382 0.462029,-0.833929 0.75,-1.40625 0.22559,-0.448342 0.363922,-0.763471 0.5625,-1.15625 1.201065,1.206875 2.280431,2.31025 3.875,3.5625 a 0.85088106,0.85088106 0 0 0 1,0.0625 c 6.091361,-3.846749 11.474879,-6.642709 18,-8.34375 z M 6,37.15625 l 0,4.9375 c 4.361358,1.391612 10.712424,3.386392 14.625,6.125 C 17.552442,50.383098 13.413422,52.475267 6,54.1875 l 0,5.90625 c 7.138453,-1.696335 12.92056,-4.736464 19.375,-8.8125 1.903827,1.495117 3.070687,2.792742 4.59375,4.34375 0.494851,-0.911596 1.721604,-3.479586 2.15625,-4.15625 -1.592788,-1.552519 -2.232106,-2.425838 -3.5,-3.34375 1.525491,-1.092492 1.510867,-1.439895 5.15625,-4.65625 -0.761532,-1.438836 -1.17597,-2.816976 -1.9375,-4.21875 -1.764157,1.895804 -3.134169,3.417139 -6.9375,5.9375 C 19.706888,42.454973 14.983426,39.662042 6,37.15625 z m 0.84375,1.15625 c 8.144663,2.392751 12.667215,5.00301 17.65625,7.625 a 0.85088106,0.85088106 0 0 0 0.875,-0.03125 c 3.246303,-2.151234 4.757421,-3.642456 6.21875,-5.1875 0.362948,0.808454 0.732996,1.64258 1.15625,2.53125 -2.766773,2.492353 -3.302478,3.240366 -4.625,4.1875 a 0.85088106,0.85088106 0 0 0 0,1.375 c 1.010926,0.731876 1.747197,1.608555 2.9375,2.8125 -0.237963,0.433137 -0.455095,0.851331 -0.75,1.4375 -0.228276,0.453733 -0.393073,0.759181 -0.59375,1.15625 -1.171923,-1.208351 -2.211371,-2.336348 -3.8125,-3.59375 a 0.85088106,0.85088106 0 0 0 -1,-0.0625 c -6.092451,3.847437 -11.531014,6.697126 -18.0625,8.40625 l 0,-4.125 c 7.049638,-1.700449 11.228267,-3.786941 14.28125,-5.9375 a 0.85088106,0.85088106 0 0 0 0,-1.375 C 17.177801,44.768408 11.177391,42.84907 6.84375,41.46875 l 0,-3.15625 z m 52.5625,15.03125 c -0.62673,1.423686 -1.064504,2.347418 -2,4.46875 3.586538,7.079698 4.153512,10.125937 7.46875,16.15625 1.413396,2.403854 4.562831,0.697493 3.34375,-1.59375 -3.350626,-6.771631 -5.339725,-11.590088 -8.8125,-19.03125 z m 0,2.0625 c 2.941164,6.38118 4.998032,11.150446 8.0625,17.34375 a 0.85088106,0.85088106 0 0 0 0,0.03125 c 0.425697,0.80009 0.125786,1.183495 -0.3125,1.40625 -0.429534,0.218307 -1.017331,0.209755 -1.53125,-0.625 -0.01047,-0.01701 -0.02082,-0.01352 -0.03125,-0.03125 -3.177142,-5.788754 -3.869855,-8.928013 -7.25,-15.6875 0.470042,-1.060914 0.745499,-1.7359 1.0625,-2.4375 z"
       inkscape:connector-curvature="0"
       id="path3764"
       style="opacity:0.15;fill:#088eff;fill-opacity:1;fill-rule:evenodd;stroke:none" />
    <path
       d="m 29.03125,19.84375 c -1.030722,0.10326 -1.896868,1.072429 -1.5625,2.28125 0.200272,-0.705557 0.841319,-1.209 1.5625,-1.28125 0.70174,-0.0703 1.469975,0.286054 2,1.1875 3.237395,5.888721 3.823335,8.895513 7.1875,15.625 0.09511,-0.218927 0.109698,-0.283965 0.21875,-0.53125 -3.586538,-7.0797 -4.091014,-10.063439 -7.40625,-16.09375 -0.530025,-0.901446 -1.29826,-1.257803 -2,-1.1875 z m 38.40625,0.25 c -0.730531,-0.03232 -1.521533,0.416772 -2,1.53125 -4.379367,9.814243 -12.434862,29.673048 -16.03125,37.65625 -0.55198,1.122061 -0.683981,2.050854 -0.5625,2.78125 0.06861,-0.530492 0.236229,-1.118008 0.5625,-1.78125 3.596388,-7.983202 11.651883,-27.842007 16.03125,-37.65625 0.478467,-1.114478 1.269469,-1.56357 2,-1.53125 0.819159,0.03624 1.56885,0.660205 1.78125,1.53125 0.304296,-1.370613 -0.674467,-2.482286 -1.78125,-2.53125 z M 45.25,32.78125 c -0.73053,-0.03231 -1.459033,0.416772 -1.9375,1.53125 -4.379367,9.814243 -12.497363,29.735551 -16.09375,37.71875 -0.557469,1.133219 -0.690266,2.042432 -0.5625,2.71875 0.07237,-0.502523 0.242564,-1.068387 0.5625,-1.71875 3.596387,-7.983199 11.714383,-27.904507 16.09375,-37.71875 0.478467,-1.114478 1.20697,-1.56356 1.9375,-1.53125 0.819159,0.03624 1.590843,0.660206 1.8125,1.53125 0.299598,-1.370614 -0.705717,-2.482284 -1.8125,-2.53125 z m 7.34375,1.875 c -0.73053,-0.03231 -1.459032,0.354272 -1.9375,1.46875 -4.379366,9.814243 -5.934863,14.641801 -9.53125,22.625 -0.562759,1.143973 -0.707294,2.085859 -0.59375,2.78125 0.07483,-0.522182 0.263438,-1.109793 0.59375,-1.78125 3.596387,-7.983199 5.151884,-12.810757 9.53125,-22.625 0.478468,-1.114478 1.20697,-1.50106 1.9375,-1.46875 0.819159,0.03624 1.590843,0.660205 1.8125,1.53125 0.299598,-1.370615 -0.705717,-2.482286 -1.8125,-2.53125 z M 90,35.84375 c -7.13458,1.692462 -12.858061,4.673964 -19.3125,8.75 -1.903827,-1.495117 -3.133187,-2.730241 -4.65625,-4.28125 -0.494851,0.911597 -1.690354,3.417086 -2.125,4.09375 0.143574,0.139944 0.21405,0.213389 0.34375,0.34375 0.539723,-0.992664 1.368874,-2.677836 1.78125,-3.4375 1.523063,1.551009 2.752423,2.786133 4.65625,4.28125 6.454439,-4.076036 12.17792,-7.057538 19.3125,-8.75 l 0,-1 z m -84,1.3125 0,1 c 8.983426,2.505792 13.706888,5.298723 18.90625,8.03125 3.803331,-2.520361 5.173343,-4.041696 6.9375,-5.9375 0.638341,1.175016 1.03431,2.339777 1.59375,3.53125 0.13563,-0.120779 0.196523,-0.1826 0.34375,-0.3125 -0.761532,-1.438836 -1.17597,-2.816976 -1.9375,-4.21875 -1.764157,1.895804 -3.134169,3.417139 -6.9375,5.9375 C 19.706888,42.454973 14.983426,39.662042 6,37.15625 z m 70.15625,11.0625 c -0.257622,0.170866 -0.538082,0.328709 -0.78125,0.5 3.945421,2.7616 10.28621,4.661384 14.625,6.03125 l 0,-1 C 85.928569,52.464546 80.119901,50.711694 76.15625,48.21875 z M 66.8125,48.3125 c -0.963807,0.7871 -1.493432,1.475954 -4.53125,4.15625 0.123189,0.232753 0.235788,0.457567 0.34375,0.6875 3.222597,-2.869732 3.348617,-3.295379 4.8125,-4.34375 -0.227981,-0.16505 -0.42681,-0.330311 -0.625,-0.5 z M 29.25,48.625 c -0.192761,0.15742 -0.370752,0.317918 -0.625,0.5 1.152639,0.834471 1.853955,1.69543 3.15625,3 0.138715,-0.259472 0.256522,-0.520452 0.34375,-0.65625 C 30.825033,50.201649 30.139814,49.380745 29.25,48.625 z m -9.375,0.09375 C 16.875283,50.704678 12.843159,52.606977 6,54.1875 l 0,1 c 7.413422,-1.712233 11.552442,-3.804402 14.625,-5.96875 -0.237597,-0.166306 -0.49541,-0.339149 -0.75,-0.5 z m 39.53125,4.625 c -0.62673,1.423686 -1.064504,2.347418 -2,4.46875 0.08646,0.170676 0.166965,0.302664 0.25,0.46875 0.726971,-1.635703 1.198416,-2.684517 1.75,-3.9375 3.472775,7.441162 5.461874,12.259619 8.8125,19.03125 0.08855,0.166425 0.142708,0.341098 0.1875,0.5 0.124369,-0.432661 0.10386,-0.952393 -0.1875,-1.5 -3.350626,-6.771631 -5.339725,-11.590088 -8.8125,-19.03125 z"
       inkscape:connector-curvature="0"
       id="path3757"
       style="opacity:0.2;fill:#088eff;fill-opacity:1;fill-rule:evenodd;stroke:none" />
  </g>
</svg>
