<?xml version="1.0" encoding="UTF-8" standalone="no"?>
<!-- Created with Inkscape (http://www.inkscape.org/) -->

<svg
   xmlns:dc="http://purl.org/dc/elements/1.1/"
   xmlns:cc="http://creativecommons.org/ns#"
   xmlns:rdf="http://www.w3.org/1999/02/22-rdf-syntax-ns#"
   xmlns:svg="http://www.w3.org/2000/svg"
   xmlns="http://www.w3.org/2000/svg"
   xmlns:xlink="http://www.w3.org/1999/xlink"
   xmlns:inkscape="http://www.inkscape.org/namespaces/inkscape"
   version="1.0"
   width="96"
   height="96"
   id="svg2408">
  <defs
     id="defs2410">
    <linearGradient
       id="linearGradient3850">
      <stop
         id="stop3852"
         style="stop-color:#ffffff;stop-opacity:1"
         offset="0" />
      <stop
         id="stop3854"
         style="stop-color:#ffffff;stop-opacity:0"
         offset="1" />
    </linearGradient>
    <linearGradient
       id="linearGradient3834">
      <stop
         id="stop3836"
         style="stop-color:#d40000;stop-opacity:1"
         offset="0" />
      <stop
         id="stop3838"
         style="stop-color:#d41400;stop-opacity:1"
         offset="1" />
    </linearGradient>
    <linearGradient
       id="linearGradient3670">
      <stop
         id="stop3672"
         style="stop-color:#f0f0f0;stop-opacity:1"
         offset="0" />
      <stop
         id="stop3674"
         style="stop-color:#dcdcdc;stop-opacity:1"
         offset="1" />
    </linearGradient>
    <linearGradient
       x1="45.447727"
       y1="92.539597"
       x2="45.447727"
       y2="7.0165396"
       id="ButtonShadow"
       gradientUnits="userSpaceOnUse"
       gradientTransform="scale(1.0058652,0.994169)">
      <stop
         id="stop3750"
         style="stop-color:#000000;stop-opacity:1"
         offset="0" />
      <stop
         id="stop3752"
         style="stop-color:#000000;stop-opacity:0.58823532"
         offset="1" />
    </linearGradient>
    <linearGradient
       id="linearGradient3737">
      <stop
         id="stop3739"
         style="stop-color:#ffffff;stop-opacity:1"
         offset="0" />
      <stop
         id="stop3741"
         style="stop-color:#ffffff;stop-opacity:0"
         offset="1" />
    </linearGradient>
    <linearGradient
       id="linearGradient3700">
      <stop
         id="stop3702"
         style="stop-color:#2276c5;stop-opacity:1"
         offset="0" />
      <stop
         id="stop3704"
         style="stop-color:#68baf4;stop-opacity:1"
         offset="1" />
    </linearGradient>
    <filter
       color-interpolation-filters="sRGB"
       id="filter3174">
      <feGaussianBlur
         id="feGaussianBlur3176"
         stdDeviation="1.71" />
    </filter>
    <linearGradient
       x1="36.357143"
       y1="6"
       x2="36.357143"
       y2="63.893143"
       id="linearGradient3188"
       xlink:href="#linearGradient3737"
       gradientUnits="userSpaceOnUse" />
    <filter
       x="-0.192"
       y="-0.192"
       width="1.3839999"
       height="1.3839999"
       color-interpolation-filters="sRGB"
       id="filter3794">
      <feGaussianBlur
         id="feGaussianBlur3796"
         stdDeviation="5.28" />
    </filter>
    <linearGradient
       x1="48"
       y1="20.220806"
       x2="48"
       y2="138.66119"
       id="linearGradient3613"
       xlink:href="#linearGradient3737"
       gradientUnits="userSpaceOnUse" />
    <radialGradient
       cx="48"
       cy="90.171875"
       r="42"
       fx="48"
       fy="90.171875"
       id="radialGradient3619"
       xlink:href="#linearGradient3737"
       gradientUnits="userSpaceOnUse"
       gradientTransform="matrix(1.1573129,0,0,0.99590774,-7.5510206,0.19713193)" />
    <clipPath
       id="clipPath3613">
      <rect
         width="84"
         height="84"
         rx="6"
         ry="6"
         x="6"
         y="6"
         id="rect3615"
         style="fill:#ffffff;fill-opacity:1;fill-rule:nonzero;stroke:none" />
    </clipPath>
    <linearGradient
       x1="48"
       y1="90"
       x2="48"
       y2="5.9877172"
       id="linearGradient3617"
       xlink:href="#linearGradient3700"
       gradientUnits="userSpaceOnUse"
       gradientTransform="translate(-100,0)" />
    <linearGradient
       x1="45.447727"
       y1="92.539597"
       x2="45.447727"
       y2="7.0165396"
       id="ButtonShadow-0"
       gradientUnits="userSpaceOnUse"
       gradientTransform="matrix(1.0058652,0,0,0.994169,100,0)">
      <stop
         id="stop3750-8"
         style="stop-color:#000000;stop-opacity:1"
         offset="0" />
      <stop
         id="stop3752-5"
         style="stop-color:#000000;stop-opacity:0.58823532"
         offset="1" />
    </linearGradient>
    <linearGradient
       x1="32.251034"
       y1="6.1317081"
       x2="32.251034"
       y2="90.238609"
       id="linearGradient3780"
       xlink:href="#ButtonShadow-0"
       gradientUnits="userSpaceOnUse"
       gradientTransform="matrix(1.0238095,0,0,1.0119048,-1.1428571,-98.071429)" />
    <linearGradient
       x1="32.251034"
       y1="6.1317081"
       x2="32.251034"
       y2="90.238609"
       id="linearGradient3772"
       xlink:href="#ButtonShadow-0"
       gradientUnits="userSpaceOnUse"
       gradientTransform="matrix(1.0238095,0,0,1.0119048,-1.1428571,-98.071429)" />
    <linearGradient
       x1="32.251034"
       y1="6.1317081"
       x2="32.251034"
       y2="90.238609"
       id="linearGradient3725"
       xlink:href="#ButtonShadow-0"
       gradientUnits="userSpaceOnUse"
       gradientTransform="matrix(1.0238095,0,0,1.0119048,-1.1428571,-98.071429)" />
    <linearGradient
       x1="32.251034"
       y1="6.1317081"
       x2="32.251034"
       y2="90.238609"
       id="linearGradient3721"
       xlink:href="#ButtonShadow-0"
       gradientUnits="userSpaceOnUse"
       gradientTransform="translate(0,-97)" />
    <linearGradient
       x1="32.251034"
       y1="6.1317081"
       x2="32.251034"
       y2="90.238609"
       id="linearGradient3026"
       xlink:href="#ButtonShadow-0"
       gradientUnits="userSpaceOnUse"
       gradientTransform="matrix(1.0238095,0,0,1.0119048,-1.1428571,-98.071429)" />
    <linearGradient
       x1="64"
       y1="8"
       x2="64"
       y2="88"
       id="linearGradient3701"
       xlink:href="#linearGradient3670"
       gradientUnits="userSpaceOnUse" />
    <linearGradient
       x1="64"
       y1="8"
       x2="64"
       y2="88"
       id="linearGradient3793"
       xlink:href="#linearGradient3670"
       gradientUnits="userSpaceOnUse" />
    <linearGradient
       x1="64"
       y1="8"
       x2="64"
       y2="88"
       id="linearGradient3800"
       xlink:href="#linearGradient3670"
       gradientUnits="userSpaceOnUse" />
    <linearGradient
       x1="69.087135"
       y1="60.327255"
       x2="69.087135"
       y2="36.595539"
       id="linearGradient3840"
       xlink:href="#linearGradient3834"
       gradientUnits="userSpaceOnUse" />
    <linearGradient
       x1="86.767555"
       y1="23.481375"
       x2="42.427608"
       y2="19.931196"
       id="linearGradient3856"
       xlink:href="#linearGradient3850"
       gradientUnits="userSpaceOnUse" />
  </defs>
  <metadata
     id="metadata2413">
    <rdf:RDF>
      <cc:Work
         rdf:about="">
        <dc:format>image/svg+xml</dc:format>
        <dc:type
           rdf:resource="http://purl.org/dc/dcmitype/StillImage" />
        <dc:title />
      </cc:Work>
    </rdf:RDF>
  </metadata>
  <g
     id="layer2"
     style="display:none">
    <rect
       width="86"
       height="85"
       rx="6"
       ry="6"
       x="5"
       y="7"
       id="rect3745"
       style="opacity:0.9;fill:url(#ButtonShadow);fill-opacity:1;fill-rule:nonzero;stroke:none;filter:url(#filter3174)" />
  </g>
  <g
     id="layer3">
    <path
       d="m 12,-95.03125 c -5.5110903,0 -10.03125,4.52016 -10.03125,10.03125 l 0,71 c 0,5.5110902 4.5201598,10.03125 10.03125,10.03125 l 72,0 c 5.51109,0 10.03125,-4.5201597 10.03125,-10.03125 l 0,-71 c 0,-5.51109 -4.52016,-10.03125 -10.03125,-10.03125 l -72,0 z"
       transform="scale(1,-1)"
       id="path3786"
       style="opacity:0.07999998;fill:url(#linearGradient3026);fill-opacity:1;fill-rule:nonzero;stroke:none;display:inline" />
    <path
       d="m 12,-94.03125 c -4.971633,0 -9.03125,4.059617 -9.03125,9.03125 l 0,71 c 0,4.9716329 4.0596171,9.03125 9.03125,9.03125 l 72,0 c 4.971633,0 9.03125,-4.059617 9.03125,-9.03125 l 0,-71 c 0,-4.971633 -4.059617,-9.03125 -9.03125,-9.03125 l -72,0 z"
       transform="scale(1,-1)"
       id="path3778"
       style="opacity:0.1;fill:url(#linearGradient3780);fill-opacity:1;fill-rule:nonzero;stroke:none;display:inline" />
    <path
       d="m 12,-93 c -4.4091333,0 -8,3.590867 -8,8 l 0,71 c 0,4.4091333 3.5908667,8 8,8 l 72,0 c 4.409133,0 8,-3.5908667 8,-8 l 0,-71 c 0,-4.409133 -3.590867,-8 -8,-8 l -72,0 z"
       transform="scale(1,-1)"
       id="path3770"
       style="opacity:0.2;fill:url(#linearGradient3772);fill-opacity:1;fill-rule:nonzero;stroke:none;display:inline" />
    <rect
       width="86"
       height="85"
       rx="7"
       ry="7"
       x="5"
       y="-92"
       transform="scale(1,-1)"
       id="rect3723"
       style="opacity:0.3;fill:url(#linearGradient3725);fill-opacity:1;fill-rule:nonzero;stroke:none;display:inline" />
    <rect
       width="84"
       height="84"
       rx="6"
       ry="6"
       x="6"
       y="-91"
       transform="scale(1,-1)"
       id="rect3716"
       style="opacity:0.45;fill:url(#linearGradient3721);fill-opacity:1;fill-rule:nonzero;stroke:none;display:inline" />
  </g>
  <g
     id="layer1">
    <g
       transform="translate(-30,0)"
       id="g3777">
      <rect
         width="54"
         height="84"
         rx="6"
         ry="6"
         x="36"
         y="6"
         id="rect3785"
         style="color:#000000;fill:url(#linearGradient3793);fill-opacity:1;fill-rule:nonzero;stroke:none;stroke-width:1.5;marker:none;visibility:visible;display:inline;overflow:visible;enable-background:accumulate" />
    </g>
    <rect
       width="84"
       height="84"
       rx="6"
       ry="6"
       x="-94"
       y="6"
       id="rect2419"
       style="fill:url(#linearGradient3617);fill-opacity:1;fill-rule:nonzero;stroke:none" />
    <g
       transform="translate(-15,0)"
       id="g3690">
      <rect
         width="20"
         height="84"
         rx="6"
         ry="6"
         x="33"
         y="6"
         id="rect3692"
         style="opacity:0.1;color:#000000;fill:#000000;fill-opacity:1;fill-rule:nonzero;stroke:none;stroke-width:1.5;marker:none;visibility:visible;display:inline;overflow:visible;enable-background:accumulate" />
      <rect
         width="20"
         height="84"
         rx="6"
         ry="6"
         x="34"
         y="6"
         id="rect3694"
         style="opacity:0.15;color:#000000;fill:#000000;fill-opacity:1;fill-rule:nonzero;stroke:none;stroke-width:1.5;marker:none;visibility:visible;display:inline;overflow:visible;enable-background:accumulate" />
      <rect
         width="20"
         height="84"
         rx="6"
         ry="6"
         x="35"
         y="6"
         id="rect3696"
         style="opacity:0.3;color:#000000;fill:#000000;fill-opacity:1;fill-rule:nonzero;stroke:none;stroke-width:1.5;marker:none;visibility:visible;display:inline;overflow:visible;enable-background:accumulate" />
      <rect
         width="54"
         height="84"
         rx="6"
         ry="6"
         x="36"
         y="6"
         id="rect3698"
         style="color:#000000;fill:url(#linearGradient3701);fill-opacity:1;fill-rule:nonzero;stroke:none;stroke-width:1.5;marker:none;visibility:visible;display:inline;overflow:visible;enable-background:accumulate" />
    </g>
    <rect
       width="20"
       height="84"
       rx="6"
       ry="6"
       x="33"
       y="6"
       id="rect3682"
       style="opacity:0.1;color:#000000;fill:#000000;fill-opacity:1;fill-rule:nonzero;stroke:none;stroke-width:1.5;marker:none;visibility:visible;display:inline;overflow:visible;enable-background:accumulate" />
    <rect
       width="20"
       height="84"
       rx="6"
       ry="6"
       x="34"
       y="6"
       id="rect3680"
       style="opacity:0.15;color:#000000;fill:#000000;fill-opacity:1;fill-rule:nonzero;stroke:none;stroke-width:1.5;marker:none;visibility:visible;display:inline;overflow:visible;enable-background:accumulate" />
    <rect
       width="20"
       height="84"
       rx="6"
       ry="6"
       x="35"
       y="6"
       id="rect3678"
       style="opacity:0.3;color:#000000;fill:#000000;fill-opacity:1;fill-rule:nonzero;stroke:none;stroke-width:1.5;marker:none;visibility:visible;display:inline;overflow:visible;enable-background:accumulate" />
    <rect
       width="54"
       height="84"
       rx="6"
       ry="6"
       x="36"
       y="6"
       id="rect3666"
       style="color:#000000;fill:url(#linearGradient3800);fill-opacity:1;fill-rule:nonzero;stroke:none;stroke-width:1.5;marker:none;visibility:visible;display:inline;overflow:visible;enable-background:accumulate" />
    <path
       d="M 12,90 C 8.676,90 6,87.324 6,84 L 6,82 6,14 6,12 c 0,-0.334721 0.04135,-0.6507 0.09375,-0.96875 0.0487,-0.295596 0.09704,-0.596915 0.1875,-0.875 C 6.29113,10.12587 6.302142,10.09265 6.3125,10.0625 6.411365,9.774729 6.5473802,9.515048 6.6875,9.25 6.8320918,8.976493 7.0031161,8.714385 7.1875,8.46875 7.3718839,8.223115 7.5612765,7.995278 7.78125,7.78125 8.221197,7.353194 8.72416,6.966724 9.28125,6.6875 9.559795,6.547888 9.8547231,6.440553 10.15625,6.34375 9.9000482,6.443972 9.6695391,6.580022 9.4375,6.71875 c -0.00741,0.0044 -0.023866,-0.0045 -0.03125,0 -0.031933,0.0193 -0.062293,0.04251 -0.09375,0.0625 -0.120395,0.0767 -0.2310226,0.163513 -0.34375,0.25 -0.1061728,0.0808 -0.2132809,0.161112 -0.3125,0.25 C 8.4783201,7.442683 8.3087904,7.626638 8.15625,7.8125 8.0486711,7.942755 7.9378561,8.077785 7.84375,8.21875 7.818661,8.25713 7.805304,8.30462 7.78125,8.34375 7.716487,8.446782 7.6510225,8.548267 7.59375,8.65625 7.4927417,8.850956 7.3880752,9.071951 7.3125,9.28125 7.30454,9.30306 7.288911,9.3218 7.28125,9.34375 7.2494249,9.4357 7.2454455,9.530581 7.21875,9.625 7.1884177,9.731618 7.1483606,9.828031 7.125,9.9375 7.0521214,10.279012 7,10.635705 7,11 l 0,2 0,68 0,2 c 0,2.781848 2.2181517,5 5,5 l 2,0 68,0 2,0 c 2.781848,0 5,-2.218152 5,-5 l 0,-2 0,-68 0,-2 C 89,10.635705 88.94788,10.279012 88.875,9.9375 88.83085,9.730607 88.78662,9.539842 88.71875,9.34375 88.71105,9.3218 88.69545,9.30306 88.6875,9.28125 88.62476,9.107511 88.549117,8.913801 88.46875,8.75 88.42717,8.6672 88.38971,8.580046 88.34375,8.5 88.28915,8.40279 88.216976,8.31165 88.15625,8.21875 88.06214,8.077785 87.951329,7.942755 87.84375,7.8125 87.700576,7.63805 87.540609,7.465502 87.375,7.3125 87.36383,7.3023 87.35502,7.29135 87.34375,7.28125 87.205364,7.155694 87.058659,7.046814 86.90625,6.9375 86.803679,6.86435 86.701932,6.784136 86.59375,6.71875 c -0.0074,-0.0045 -0.02384,0.0044 -0.03125,0 -0.232039,-0.138728 -0.462548,-0.274778 -0.71875,-0.375 0.301527,0.0968 0.596455,0.204138 0.875,0.34375 0.55709,0.279224 1.060053,0.665694 1.5,1.09375 0.219973,0.214028 0.409366,0.441865 0.59375,0.6875 0.184384,0.245635 0.355408,0.507743 0.5,0.78125 0.14012,0.265048 0.276135,0.524729 0.375,0.8125 0.01041,0.03078 0.02133,0.06274 0.03125,0.09375 0.09046,0.278085 0.1388,0.579404 0.1875,0.875 C 89.95865,11.3493 90,11.665279 90,12 l 0,2 0,68 0,2 c 0,3.324 -2.676,6 -6,6 l -72,0 z"
       inkscape:connector-curvature="0"
       id="path3615"
       style="opacity:0.2;fill:url(#radialGradient3619);fill-opacity:1;fill-rule:nonzero;stroke:none" />
    <path
       d="m 57,36 c -3.313709,0 -6,2.686291 -6,6 0,0.207107 0.003,0.407672 0.02344,0.609375 C 51.541076,51.497133 63,60 63,60 63,60 74.444844,51.142339 74.976562,42.609375 74.997046,42.407672 75,42.207107 75,42 c 0,-3.313709 -2.686291,-6 -6,-6 -3.313709,0 -6,2.686291 -6,6 0,-3.313709 -2.686291,-6 -6,-6 z"
       inkscape:connector-curvature="0"
       id="path3805"
       style="color:#000000;fill:url(#linearGradient3840);fill-opacity:1;fill-rule:nonzero;stroke:none;stroke-width:1.5;marker:none;visibility:visible;display:inline;overflow:visible;enable-background:accumulate" />
    <path
       d="m 126,24 c -4.41828,0 -8,3.581722 -8,8 0,0.276142 0.004,0.543563 0.0312,0.8125 C 118.72144,44.662844 134,56 134,56 134,56 149.25979,44.189785 149.96875,32.8125 149.99606,32.543563 150,32.276142 150,32 c 0,-4.418278 -3.58172,-8 -8,-8 -4.41828,0 -8,3.581722 -8,8 0,-4.418278 -3.58172,-8 -8,-8 z"
       inkscape:connector-curvature="0"
       id="path3812"
       style="color:#000000;fill:#d40000;fill-opacity:1;fill-rule:nonzero;stroke:none;stroke-width:1.5;marker:none;visibility:visible;display:inline;overflow:visible;enable-background:accumulate" />
    <g
       transform="matrix(1.0046167,0,0,1.0098619,-3.4933322,-0.6824452)"
       id="text3814"
       style="font-size:12px;font-style:normal;font-variant:normal;font-weight:normal;font-stretch:normal;text-align:start;line-height:125%;writing-mode:lr-tb;text-anchor:start;fill:#d40000;fill-opacity:1;stroke:none;font-family:Liberation Serif;-inkscape-font-specification:Liberation Serif">
      <path
         d="m 45.379742,18.189453 0,0.310547 -2.583985,0 0,-0.310547 0.890625,-0.158203 2.677735,-7.453125 1.113281,0 2.783203,7.453125 0.996094,0.158203 0,0.310547 -3.322266,0 0,-0.310547 1.054688,-0.158203 -0.779297,-2.267578 -3.09375,0 -0.791016,2.267578 1.054688,0.158203 m 1.259765,-6.767578 -1.347656,3.814453 2.736328,0 -1.388672,-3.814453"
         inkscape:connector-curvature="0"
         id="path3819" />
    </g>
    <path
       d="m 42,20 c -1.10457,0 -2,0.89543 -2,2 0,0.06904 10e-4,0.135891 0.0078,0.203125 C 40.180359,25.165711 44,28 44,28 44,28 47.814947,25.047446 47.992187,22.203125 47.999015,22.135891 48,22.069035 48,22 c 0,-1.10457 -0.89543,-2 -2,-2 -1.10457,0 -2,0.89543 -2,2 0,-1.10457 -0.89543,-2 -2,-2 z"
       inkscape:connector-curvature="0"
       id="path3821"
       style="color:#000000;fill:#d40000;fill-opacity:1;fill-rule:nonzero;stroke:none;stroke-width:1.5;marker:none;visibility:visible;display:inline;overflow:visible;enable-background:accumulate" />
    <path
       d="M 51.03125,41.625 C 51.023779,41.747591 51,41.875529 51,42 c 0,0.207107 0.01081,0.423297 0.03125,0.625 C 51.548886,51.512758 63,60 63,60 63,60 74.437032,51.157964 74.96875,42.625 74.989234,42.423297 75,42.207107 75,42 75,41.875529 74.976221,41.747591 74.96875,41.625 74.437032,50.157964 63,59 63,59 63,59 51.548886,50.512758 51.03125,41.625 z"
       inkscape:connector-curvature="0"
       id="path3858"
       style="color:#000000;fill:#9d0000;fill-opacity:1;fill-rule:nonzero;stroke:none;stroke-width:1.5;marker:none;visibility:visible;display:inline;overflow:visible;enable-background:accumulate" />
    <g
       transform="matrix(1.0046167,0,0,-1.0098619,34.506668,96.682445)"
       id="g3823"
       style="font-size:12px;font-style:normal;font-variant:normal;font-weight:normal;font-stretch:normal;text-align:start;line-height:125%;writing-mode:lr-tb;text-anchor:start;fill:#c40000;fill-opacity:1;stroke:none;font-family:Liberation Serif;-inkscape-font-specification:Liberation Serif">
      <path
         d="m 45.379742,18.189453 0,0.310547 -2.583985,0 0,-0.310547 0.890625,-0.158203 2.677735,-7.453125 1.113281,0 2.783203,7.453125 0.996094,0.158203 0,0.310547 -3.322266,0 0,-0.310547 1.054688,-0.158203 -0.779297,-2.267578 -3.09375,0 -0.791016,2.267578 1.054688,0.158203 m 1.259765,-6.767578 -1.347656,3.814453 2.736328,0 -1.388672,-3.814453"
         inkscape:connector-curvature="0"
         id="path3825"
         style="fill:#c40000;fill-opacity:1" />
    </g>
    <path
       d="m 80,76 c -1.10457,0 -2,-0.89543 -2,-2 0,-0.06904 0.001,-0.135891 0.0078,-0.203125 C 78.180359,70.834289 82,68 82,68 c 0,0 3.814947,2.952554 3.992187,5.796875 C 85.999015,73.864109 86,73.930965 86,74 c 0,1.10457 -0.89543,2 -2,2 -1.10457,0 -2,-0.89543 -2,-2 0,1.10457 -0.89543,2 -2,2 z"
       inkscape:connector-curvature="0"
       id="path3827"
       style="color:#000000;fill:#c40000;fill-opacity:1;fill-rule:nonzero;stroke:none;stroke-width:1.5;marker:none;visibility:visible;display:inline;overflow:visible;enable-background:accumulate" />
    <path
       d="M 12,6 C 8.676,6 6,8.676 6,12 l 0,2 0,68 0,2 c 0,0.334721 0.04135,0.6507 0.09375,0.96875 0.0487,0.295596 0.09704,0.596915 0.1875,0.875 0.00988,0.03038 0.020892,0.0636 0.03125,0.09375 0.098865,0.287771 0.2348802,0.547452 0.375,0.8125 0.1445918,0.273507 0.3156161,0.535615 0.5,0.78125 0.1843839,0.245635 0.3737765,0.473472 0.59375,0.6875 0.439947,0.428056 0.94291,0.814526 1.5,1.09375 0.278545,0.139612 0.5734731,0.246947 0.875,0.34375 -0.2562018,-0.100222 -0.4867109,-0.236272 -0.71875,-0.375 -0.00741,-0.0044 -0.023866,0.0045 -0.03125,0 -0.031933,-0.0193 -0.062293,-0.04251 -0.09375,-0.0625 -0.120395,-0.0767 -0.2310226,-0.163513 -0.34375,-0.25 -0.1061728,-0.0808 -0.2132809,-0.161112 -0.3125,-0.25 C 8.4783201,88.557317 8.3087904,88.373362 8.15625,88.1875 8.0486711,88.057245 7.9378561,87.922215 7.84375,87.78125 7.818661,87.74287 7.805304,87.69538 7.78125,87.65625 7.716487,87.553218 7.6510225,87.451733 7.59375,87.34375 7.4927417,87.149044 7.3880752,86.928049 7.3125,86.71875 7.30454,86.69694 7.288911,86.6782 7.28125,86.65625 7.2494249,86.5643 7.2454455,86.469419 7.21875,86.375 7.1884177,86.268382 7.1483606,86.171969 7.125,86.0625 7.0521214,85.720988 7,85.364295 7,85 L 7,83 7,15 7,13 C 7,10.218152 9.2181517,8 12,8 l 2,0 68,0 2,0 c 2.781848,0 5,2.218152 5,5 l 0,2 0,68 0,2 c 0,0.364295 -0.05212,0.720988 -0.125,1.0625 -0.04415,0.206893 -0.08838,0.397658 -0.15625,0.59375 -0.0077,0.02195 -0.0233,0.04069 -0.03125,0.0625 -0.06274,0.173739 -0.138383,0.367449 -0.21875,0.53125 -0.04158,0.0828 -0.07904,0.169954 -0.125,0.25 -0.0546,0.09721 -0.126774,0.18835 -0.1875,0.28125 -0.09411,0.140965 -0.204921,0.275995 -0.3125,0.40625 -0.143174,0.17445 -0.303141,0.346998 -0.46875,0.5 -0.01117,0.0102 -0.01998,0.02115 -0.03125,0.03125 -0.138386,0.125556 -0.285091,0.234436 -0.4375,0.34375 -0.102571,0.07315 -0.204318,0.153364 -0.3125,0.21875 -0.0074,0.0045 -0.02384,-0.0044 -0.03125,0 -0.232039,0.138728 -0.462548,0.274778 -0.71875,0.375 0.301527,-0.0968 0.596455,-0.204138 0.875,-0.34375 0.55709,-0.279224 1.060053,-0.665694 1.5,-1.09375 0.219973,-0.214028 0.409366,-0.441865 0.59375,-0.6875 0.184384,-0.245635 0.355408,-0.507743 0.5,-0.78125 0.14012,-0.265048 0.276135,-0.524729 0.375,-0.8125 0.01041,-0.03078 0.02133,-0.06274 0.03125,-0.09375 0.09046,-0.278085 0.1388,-0.579404 0.1875,-0.875 C 89.95865,84.6507 90,84.334721 90,84 l 0,-2 0,-68 0,-2 C 90,8.676 87.324,6 84,6 L 12,6 z"
       inkscape:connector-curvature="0"
       id="rect3728"
       style="opacity:0.5;fill:url(#linearGradient3188);fill-opacity:1;fill-rule:nonzero;stroke:none" />
    <g
       transform="scale(1.0102019,0.98990113)"
       id="text3123"
       style="font-size:10.88891315px;font-style:normal;font-variant:normal;font-weight:normal;font-stretch:normal;text-align:start;line-height:125%;letter-spacing:0px;word-spacing:0px;writing-mode:lr-tb;text-anchor:start;fill:#d50404;fill-opacity:1;stroke:none;font-family:Serif;-inkscape-font-specification:Serif">
      <path
         d="m 11.604942,12.138373 -0.595488,0 0,-1.414283 c 0.379268,-0.202032 0.760309,-0.356221 1.143123,-0.462566 0.386356,-0.106329 0.763852,-0.159497 1.13249,-0.159505 0.82588,8e-6 1.47808,0.200276 1.956602,0.600804 0.478511,0.400543 0.717769,0.944634 0.717775,1.632273 -6e-6,0.776266 -0.542325,1.704942 -1.626957,2.786031 -0.08507,0.08153 -0.148876,0.143558 -0.191407,0.18609 l -2.004453,2.004453 3.312399,0 0,-0.978301 0.622072,0 0,1.850265 -5.120129,0 0,-0.579537 2.408534,-2.403217 c 0.531681,-0.531682 0.91095,-1.01906 1.137806,-1.462135 0.226848,-0.44661 0.340274,-0.914493 0.340279,-1.403649 -5e-6,-0.535223 -0.140015,-0.953482 -0.420032,-1.254777 -0.27648,-0.301281 -0.659293,-0.451925 -1.14844,-0.451932 -0.506875,7e-6 -0.89855,0.12584 -1.175024,0.377496 -0.276478,0.251672 -0.439528,0.629168 -0.48915,1.13249"
         inkscape:connector-curvature="0"
         id="path3910" />
    </g>
    <path
       d="m 15.418538,22.105413 c 0,0.26522 -1.323894,1.425037 -1.511433,1.612576 -0.187538,0.187539 -1.347355,1.511433 -1.612575,1.511433 -0.26522,0 -1.425037,-1.323894 -1.612576,-1.511433 -0.187538,-0.187539 -1.5114325,-1.347356 -1.5114325,-1.612576 0,-0.265219 1.3238945,-1.425036 1.5114325,-1.612575 0.187539,-0.187539 1.347356,-1.511433 1.612576,-1.511433 0.26522,0 1.425037,1.323894 1.612575,1.511433 0.187539,0.187539 1.511433,1.347356 1.511433,1.612575 z"
       transform="matrix(1.2804063,0,0,1.2804063,-1.7419935,-4.3039107)"
       id="path3127"
       style="color:#000000;fill:#d50404;fill-opacity:1;fill-rule:nonzero;stroke:none;stroke-width:1.5;marker:none;visibility:visible;display:inline;overflow:visible;enable-background:accumulate" />
    <g
       transform="scale(1.0102019,0.98990113)"
       id="text3897"
       style="font-size:10.88891315px;font-style:normal;font-variant:normal;font-weight:normal;font-stretch:normal;text-align:start;line-height:125%;letter-spacing:0px;word-spacing:0px;writing-mode:lr-tb;text-anchor:start;fill:#000000;fill-opacity:1;stroke:none;font-family:Serif;-inkscape-font-specification:Serif">
      <path
         d="m 24.671344,18.183634 0,-0.563587 1.010202,0 0,-6.80557 -1.010202,0 0,-0.568903 3.099725,0 0,0.568903 -1.010202,0 0,3.004021 3.418736,-3.004021 -0.86133,0 0,-0.568903 2.637158,0 0,0.568903 -0.893231,0 -3.408102,2.993388 3.812183,3.812182 0.903865,0 0,0.563587 -1.844948,0 -3.764331,-3.769648 0,3.206061 1.010202,0 0,0.563587 -3.099725,0"
         inkscape:connector-curvature="0"
         id="path3913" />
    </g>
    <path
       d="M 27.249999,26 C 26.283501,26 25.5,25.328427 25.5,24.5 c 0,-0.05178 8.75e-4,-0.101918 0.0068,-0.152344 C 25.657814,22.125717 29,20 29,20 c 0,0 3.338077,2.214416 3.493162,4.347656 0.006,0.05043 0.0068,0.100569 0.0068,0.152344 0,0.828427 -0.783501,1.5 -1.749999,1.5 -0.966498,0 -1.749999,-0.671573 -1.749999,-1.5 0,0.828427 -0.783502,1.5 -1.75,1.5 z"
       inkscape:connector-curvature="0"
       id="path3901"
       style="color:#000000;fill:#000000;fill-opacity:1;fill-rule:nonzero;stroke:none;stroke-width:1.5;marker:none;visibility:visible;display:inline;overflow:visible;enable-background:accumulate" />
    <path
       d="m 29,24 c 0,3 -2,4 -2,4 l 4,0 c 0,0 -2,-1 -2,-4 z"
       inkscape:connector-curvature="0"
       id="path3907"
       style="fill:#000000;stroke:none" />
    <path
       d="M 12,6 C 8.676,6 6,8.676 6,12 L 6,60.84375 C 34.133275,45.683633 64.586035,40.846429 85.90625,44.875 87.255858,45.130016 88.649535,44.914462 90,44.96875 L 90,12 C 90,8.676 87.324,6 84,6 z"
       inkscape:connector-curvature="0"
       id="rect3845"
       style="opacity:0.4;color:#000000;fill:url(#linearGradient3856);fill-opacity:1;fill-rule:nonzero;stroke:none;stroke-width:1.5;marker:none;visibility:visible;display:inline;overflow:visible;enable-background:accumulate" />
  </g>
  <g
     id="layer5"
     style="display:none">
    <rect
       width="66"
       height="66"
       rx="12"
       ry="12"
       x="15"
       y="15"
       clip-path="url(#clipPath3613)"
       id="rect3171"
       style="opacity:0.1;fill:url(#linearGradient3613);fill-opacity:1;fill-rule:nonzero;stroke:#ffffff;stroke-width:0.5;stroke-linecap:round;stroke-linejoin:miter;stroke-miterlimit:4;stroke-opacity:1;stroke-dasharray:none;stroke-dashoffset:0;filter:url(#filter3794)" />
  </g>
</svg>
