<?xml version="1.0" encoding="UTF-8" standalone="no"?>
<!-- Created with Inkscape (http://www.inkscape.org/) -->

<svg
   xmlns:dc="http://purl.org/dc/elements/1.1/"
   xmlns:cc="http://creativecommons.org/ns#"
   xmlns:rdf="http://www.w3.org/1999/02/22-rdf-syntax-ns#"
   xmlns:svg="http://www.w3.org/2000/svg"
   xmlns="http://www.w3.org/2000/svg"
   xmlns:xlink="http://www.w3.org/1999/xlink"
   xmlns:inkscape="http://www.inkscape.org/namespaces/inkscape"
   version="1.0"
   width="96"
   height="96"
   id="svg2408">
  <defs
     id="defs2410">
    <linearGradient
       x1="45.447727"
       y1="92.539597"
       x2="45.447727"
       y2="7.0165396"
       id="ButtonShadow"
       gradientUnits="userSpaceOnUse"
       gradientTransform="scale(1.0058652,0.994169)">
      <stop
         id="stop3750"
         style="stop-color:#000000;stop-opacity:1"
         offset="0" />
      <stop
         id="stop3752"
         style="stop-color:#000000;stop-opacity:0.58823532"
         offset="1" />
    </linearGradient>
    <linearGradient
       id="linearGradient3737">
      <stop
         id="stop3739"
         style="stop-color:#ffffff;stop-opacity:1"
         offset="0" />
      <stop
         id="stop3741"
         style="stop-color:#ffffff;stop-opacity:0"
         offset="1" />
    </linearGradient>
    <linearGradient
       id="linearGradient3700">
      <stop
         id="stop3702"
         style="stop-color:#48914f;stop-opacity:1"
         offset="0" />
      <stop
         id="stop3704"
         style="stop-color:#78cc80;stop-opacity:1"
         offset="1" />
    </linearGradient>
    <filter
       color-interpolation-filters="sRGB"
       id="filter3174">
      <feGaussianBlur
         id="feGaussianBlur3176"
         stdDeviation="1.71" />
    </filter>
    <linearGradient
       x1="36.357143"
       y1="6"
       x2="36.357143"
       y2="63.893143"
       id="linearGradient3188"
       xlink:href="#linearGradient3737"
       gradientUnits="userSpaceOnUse" />
    <filter
       x="-0.192"
       y="-0.192"
       width="1.3839999"
       height="1.3839999"
       color-interpolation-filters="sRGB"
       id="filter3794">
      <feGaussianBlur
         id="feGaussianBlur3796"
         stdDeviation="5.28" />
    </filter>
    <linearGradient
       x1="48"
       y1="20.220806"
       x2="48"
       y2="138.66119"
       id="linearGradient3613"
       xlink:href="#linearGradient3737"
       gradientUnits="userSpaceOnUse" />
    <radialGradient
       cx="48"
       cy="90.171875"
       r="42"
       fx="48"
       fy="90.171875"
       id="radialGradient3619"
       xlink:href="#linearGradient3737"
       gradientUnits="userSpaceOnUse"
       gradientTransform="matrix(1.1573129,0,0,0.99590774,-7.5510206,0.19713193)" />
    <clipPath
       id="clipPath3613">
      <rect
         width="84"
         height="84"
         rx="6"
         ry="6"
         x="6"
         y="6"
         id="rect3615"
         style="fill:#ffffff;fill-opacity:1;fill-rule:nonzero;stroke:none" />
    </clipPath>
    <linearGradient
       x1="48"
       y1="90"
       x2="48"
       y2="5.9877172"
       id="linearGradient3617"
       xlink:href="#linearGradient3700"
       gradientUnits="userSpaceOnUse" />
    <linearGradient
       x1="45.447727"
       y1="92.539597"
       x2="45.447727"
       y2="7.0165396"
       id="ButtonShadow-0"
       gradientUnits="userSpaceOnUse"
       gradientTransform="matrix(1.0058652,0,0,0.994169,100,0)">
      <stop
         id="stop3750-8"
         style="stop-color:#000000;stop-opacity:1"
         offset="0" />
      <stop
         id="stop3752-5"
         style="stop-color:#000000;stop-opacity:0.58823532"
         offset="1" />
    </linearGradient>
    <linearGradient
       x1="32.251034"
       y1="6.1317081"
       x2="32.251034"
       y2="90.238609"
       id="linearGradient3780"
       xlink:href="#ButtonShadow-0"
       gradientUnits="userSpaceOnUse"
       gradientTransform="matrix(1.0238095,0,0,1.0119048,-1.1428571,-98.071429)" />
    <linearGradient
       x1="32.251034"
       y1="6.1317081"
       x2="32.251034"
       y2="90.238609"
       id="linearGradient3772"
       xlink:href="#ButtonShadow-0"
       gradientUnits="userSpaceOnUse"
       gradientTransform="matrix(1.0238095,0,0,1.0119048,-1.1428571,-98.071429)" />
    <linearGradient
       x1="32.251034"
       y1="6.1317081"
       x2="32.251034"
       y2="90.238609"
       id="linearGradient3725"
       xlink:href="#ButtonShadow-0"
       gradientUnits="userSpaceOnUse"
       gradientTransform="matrix(1.0238095,0,0,1.0119048,-1.1428571,-98.071429)" />
    <linearGradient
       x1="32.251034"
       y1="6.1317081"
       x2="32.251034"
       y2="90.238609"
       id="linearGradient3721"
       xlink:href="#ButtonShadow-0"
       gradientUnits="userSpaceOnUse"
       gradientTransform="translate(0,-97)" />
    <linearGradient
       x1="32.251034"
       y1="6.1317081"
       x2="32.251034"
       y2="90.238609"
       id="linearGradient3026"
       xlink:href="#ButtonShadow-0"
       gradientUnits="userSpaceOnUse"
       gradientTransform="matrix(1.0238095,0,0,1.0119048,-1.1428571,-98.071429)" />
  </defs>
  <metadata
     id="metadata2413">
    <rdf:RDF>
      <cc:Work
         rdf:about="">
        <dc:format>image/svg+xml</dc:format>
        <dc:type
           rdf:resource="http://purl.org/dc/dcmitype/StillImage" />
        <dc:title />
      </cc:Work>
    </rdf:RDF>
  </metadata>
  <g
     id="layer2"
     style="display:none">
    <rect
       width="86"
       height="85"
       rx="6"
       ry="6"
       x="5"
       y="7"
       id="rect3745"
       style="opacity:0.9;fill:url(#ButtonShadow);fill-opacity:1;fill-rule:nonzero;stroke:none;filter:url(#filter3174)" />
  </g>
  <g
     id="layer3">
    <path
       d="m 12,-95.03125 c -5.5110903,0 -10.03125,4.52016 -10.03125,10.03125 l 0,71 c 0,5.5110902 4.5201598,10.03125 10.03125,10.03125 l 72,0 c 5.51109,0 10.03125,-4.5201597 10.03125,-10.03125 l 0,-71 c 0,-5.51109 -4.52016,-10.03125 -10.03125,-10.03125 l -72,0 z"
       transform="scale(1,-1)"
       id="path3786"
       style="opacity:0.07999998;fill:url(#linearGradient3026);fill-opacity:1;fill-rule:nonzero;stroke:none;display:inline" />
    <path
       d="m 12,-94.03125 c -4.971633,0 -9.03125,4.059617 -9.03125,9.03125 l 0,71 c 0,4.9716329 4.0596171,9.03125 9.03125,9.03125 l 72,0 c 4.971633,0 9.03125,-4.059617 9.03125,-9.03125 l 0,-71 c 0,-4.971633 -4.059617,-9.03125 -9.03125,-9.03125 l -72,0 z"
       transform="scale(1,-1)"
       id="path3778"
       style="opacity:0.1;fill:url(#linearGradient3780);fill-opacity:1;fill-rule:nonzero;stroke:none;display:inline" />
    <path
       d="m 12,-93 c -4.4091333,0 -8,3.590867 -8,8 l 0,71 c 0,4.4091333 3.5908667,8 8,8 l 72,0 c 4.409133,0 8,-3.5908667 8,-8 l 0,-71 c 0,-4.409133 -3.590867,-8 -8,-8 l -72,0 z"
       transform="scale(1,-1)"
       id="path3770"
       style="opacity:0.2;fill:url(#linearGradient3772);fill-opacity:1;fill-rule:nonzero;stroke:none;display:inline" />
    <rect
       width="86"
       height="85"
       rx="7"
       ry="7"
       x="5"
       y="-92"
       transform="scale(1,-1)"
       id="rect3723"
       style="opacity:0.3;fill:url(#linearGradient3725);fill-opacity:1;fill-rule:nonzero;stroke:none;display:inline" />
    <rect
       width="84"
       height="84"
       rx="6"
       ry="6"
       x="6"
       y="-91"
       transform="scale(1,-1)"
       id="rect3716"
       style="opacity:0.45;fill:url(#linearGradient3721);fill-opacity:1;fill-rule:nonzero;stroke:none;display:inline" />
  </g>
  <g
     id="layer1">
    <rect
       width="84"
       height="84"
       rx="6"
       ry="6"
       x="6"
       y="6"
       id="rect2419"
       style="fill:url(#linearGradient3617);fill-opacity:1;fill-rule:nonzero;stroke:none" />
    <path
       d="M 12,6 C 8.676,6 6,8.676 6,12 l 0,2 0,68 0,2 c 0,0.334721 0.04135,0.6507 0.09375,0.96875 0.0487,0.295596 0.09704,0.596915 0.1875,0.875 0.00988,0.03038 0.020892,0.0636 0.03125,0.09375 0.098865,0.287771 0.2348802,0.547452 0.375,0.8125 0.1445918,0.273507 0.3156161,0.535615 0.5,0.78125 0.1843839,0.245635 0.3737765,0.473472 0.59375,0.6875 0.439947,0.428056 0.94291,0.814526 1.5,1.09375 0.278545,0.139612 0.5734731,0.246947 0.875,0.34375 -0.2562018,-0.100222 -0.4867109,-0.236272 -0.71875,-0.375 -0.00741,-0.0044 -0.023866,0.0045 -0.03125,0 -0.031933,-0.0193 -0.062293,-0.04251 -0.09375,-0.0625 -0.120395,-0.0767 -0.2310226,-0.163513 -0.34375,-0.25 -0.1061728,-0.0808 -0.2132809,-0.161112 -0.3125,-0.25 C 8.4783201,88.557317 8.3087904,88.373362 8.15625,88.1875 8.0486711,88.057245 7.9378561,87.922215 7.84375,87.78125 7.818661,87.74287 7.805304,87.69538 7.78125,87.65625 7.716487,87.553218 7.6510225,87.451733 7.59375,87.34375 7.4927417,87.149044 7.3880752,86.928049 7.3125,86.71875 7.30454,86.69694 7.288911,86.6782 7.28125,86.65625 7.2494249,86.5643 7.2454455,86.469419 7.21875,86.375 7.1884177,86.268382 7.1483606,86.171969 7.125,86.0625 7.0521214,85.720988 7,85.364295 7,85 L 7,83 7,15 7,13 C 7,10.218152 9.2181517,8 12,8 l 2,0 68,0 2,0 c 2.781848,0 5,2.218152 5,5 l 0,2 0,68 0,2 c 0,0.364295 -0.05212,0.720988 -0.125,1.0625 -0.04415,0.206893 -0.08838,0.397658 -0.15625,0.59375 -0.0077,0.02195 -0.0233,0.04069 -0.03125,0.0625 -0.06274,0.173739 -0.138383,0.367449 -0.21875,0.53125 -0.04158,0.0828 -0.07904,0.169954 -0.125,0.25 -0.0546,0.09721 -0.126774,0.18835 -0.1875,0.28125 -0.09411,0.140965 -0.204921,0.275995 -0.3125,0.40625 -0.143174,0.17445 -0.303141,0.346998 -0.46875,0.5 -0.01117,0.0102 -0.01998,0.02115 -0.03125,0.03125 -0.138386,0.125556 -0.285091,0.234436 -0.4375,0.34375 -0.102571,0.07315 -0.204318,0.153364 -0.3125,0.21875 -0.0074,0.0045 -0.02384,-0.0044 -0.03125,0 -0.232039,0.138728 -0.462548,0.274778 -0.71875,0.375 0.301527,-0.0968 0.596455,-0.204138 0.875,-0.34375 0.55709,-0.279224 1.060053,-0.665694 1.5,-1.09375 0.219973,-0.214028 0.409366,-0.441865 0.59375,-0.6875 0.184384,-0.245635 0.355408,-0.507743 0.5,-0.78125 0.14012,-0.265048 0.276135,-0.524729 0.375,-0.8125 0.01041,-0.03078 0.02133,-0.06274 0.03125,-0.09375 0.09046,-0.278085 0.1388,-0.579404 0.1875,-0.875 C 89.95865,84.6507 90,84.334721 90,84 l 0,-2 0,-68 0,-2 C 90,8.676 87.324,6 84,6 L 12,6 z"
       inkscape:connector-curvature="0"
       id="rect3728"
       style="opacity:0.35;fill:url(#linearGradient3188);fill-opacity:1;fill-rule:nonzero;stroke:none" />
    <path
       d="M 12,90 C 8.676,90 6,87.324 6,84 L 6,82 6,14 6,12 c 0,-0.334721 0.04135,-0.6507 0.09375,-0.96875 0.0487,-0.295596 0.09704,-0.596915 0.1875,-0.875 C 6.29113,10.12587 6.302142,10.09265 6.3125,10.0625 6.411365,9.774729 6.5473802,9.515048 6.6875,9.25 6.8320918,8.976493 7.0031161,8.714385 7.1875,8.46875 7.3718839,8.223115 7.5612765,7.995278 7.78125,7.78125 8.221197,7.353194 8.72416,6.966724 9.28125,6.6875 9.559795,6.547888 9.8547231,6.440553 10.15625,6.34375 9.9000482,6.443972 9.6695391,6.580022 9.4375,6.71875 c -0.00741,0.0044 -0.023866,-0.0045 -0.03125,0 -0.031933,0.0193 -0.062293,0.04251 -0.09375,0.0625 -0.120395,0.0767 -0.2310226,0.163513 -0.34375,0.25 -0.1061728,0.0808 -0.2132809,0.161112 -0.3125,0.25 C 8.4783201,7.442683 8.3087904,7.626638 8.15625,7.8125 8.0486711,7.942755 7.9378561,8.077785 7.84375,8.21875 7.818661,8.25713 7.805304,8.30462 7.78125,8.34375 7.716487,8.446782 7.6510225,8.548267 7.59375,8.65625 7.4927417,8.850956 7.3880752,9.071951 7.3125,9.28125 7.30454,9.30306 7.288911,9.3218 7.28125,9.34375 7.2494249,9.4357 7.2454455,9.530581 7.21875,9.625 7.1884177,9.731618 7.1483606,9.828031 7.125,9.9375 7.0521214,10.279012 7,10.635705 7,11 l 0,2 0,68 0,2 c 0,2.781848 2.2181517,5 5,5 l 2,0 68,0 2,0 c 2.781848,0 5,-2.218152 5,-5 l 0,-2 0,-68 0,-2 C 89,10.635705 88.94788,10.279012 88.875,9.9375 88.83085,9.730607 88.78662,9.539842 88.71875,9.34375 88.71105,9.3218 88.69545,9.30306 88.6875,9.28125 88.62476,9.107511 88.549117,8.913801 88.46875,8.75 88.42717,8.6672 88.38971,8.580046 88.34375,8.5 88.28915,8.40279 88.216976,8.31165 88.15625,8.21875 88.06214,8.077785 87.951329,7.942755 87.84375,7.8125 87.700576,7.63805 87.540609,7.465502 87.375,7.3125 87.36383,7.3023 87.35502,7.29135 87.34375,7.28125 87.205364,7.155694 87.058659,7.046814 86.90625,6.9375 86.803679,6.86435 86.701932,6.784136 86.59375,6.71875 c -0.0074,-0.0045 -0.02384,0.0044 -0.03125,0 -0.232039,-0.138728 -0.462548,-0.274778 -0.71875,-0.375 0.301527,0.0968 0.596455,0.204138 0.875,0.34375 0.55709,0.279224 1.060053,0.665694 1.5,1.09375 0.219973,0.214028 0.409366,0.441865 0.59375,0.6875 0.184384,0.245635 0.355408,0.507743 0.5,0.78125 0.14012,0.265048 0.276135,0.524729 0.375,0.8125 0.01041,0.03078 0.02133,0.06274 0.03125,0.09375 0.09046,0.278085 0.1388,0.579404 0.1875,0.875 C 89.95865,11.3493 90,11.665279 90,12 l 0,2 0,68 0,2 c 0,3.324 -2.676,6 -6,6 l -72,0 z"
       inkscape:connector-curvature="0"
       id="path3615"
       style="opacity:0.2;fill:url(#radialGradient3619);fill-opacity:1;fill-rule:nonzero;stroke:none" />
  </g>
  <g
     id="layer5">
    <rect
       width="66"
       height="66"
       rx="12"
       ry="12"
       x="15"
       y="15"
       clip-path="url(#clipPath3613)"
       id="rect3171"
       style="opacity:0.1;fill:url(#linearGradient3613);fill-opacity:1;fill-rule:nonzero;stroke:#ffffff;stroke-width:0.5;stroke-linecap:round;stroke-linejoin:miter;stroke-miterlimit:4;stroke-opacity:1;stroke-dasharray:none;stroke-dashoffset:0;filter:url(#filter3794)" />
  </g>
  <g
     id="layer4">
    <a
       id="a3702">
      <g
         id="g3697">
        <path
           d="m 17,12.0625 c -2.709011,0 -4.9375,2.228489 -4.9375,4.9375 l 0,14 c 0,2.709011 2.228489,4.9375 4.9375,4.9375 l 14,0 c 2.709011,0 4.9375,-2.228489 4.9375,-4.9375 l 0,-14 c 0,-2.709011 -2.228489,-4.9375 -4.9375,-4.9375 l -14,0 z"
           id="path3695"
           style="opacity:0.1;color:#000000;fill:#376e3c;fill-opacity:1;fill-rule:nonzero;stroke:none;stroke-width:1.5;marker:none;visibility:visible;display:inline;overflow:visible;enable-background:accumulate" />
        <path
           d="m 17,13 c -2.19953,0 -4,1.80047 -4,4 l 0,14 c 0,2.19953 1.80047,4 4,4 l 14,0 c 2.19953,0 4,-1.80047 4,-4 l 0,-14 c 0,-2.19953 -1.80047,-4 -4,-4 l -14,0 z"
           id="path3689"
           style="opacity:0.2;color:#000000;fill:#376e3c;fill-opacity:1;fill-rule:nonzero;stroke:none;stroke-width:1.5;marker:none;visibility:visible;display:inline;overflow:visible;enable-background:accumulate" />
        <rect
           width="20"
           height="20"
           rx="3"
           ry="3"
           x="14"
           y="14"
           id="rect3691"
           style="opacity:0.8;color:#000000;fill:#ffffff;fill-opacity:1;fill-rule:nonzero;stroke:none;stroke-width:1.5;marker:none;visibility:visible;display:inline;overflow:visible;enable-background:accumulate" />
      </g>
    </a>
    <a
       transform="translate(24,0)"
       id="a3708">
      <g
         id="g3710">
        <path
           d="m 17,12.0625 c -2.709011,0 -4.9375,2.228489 -4.9375,4.9375 l 0,14 c 0,2.709011 2.228489,4.9375 4.9375,4.9375 l 14,0 c 2.709011,0 4.9375,-2.228489 4.9375,-4.9375 l 0,-14 c 0,-2.709011 -2.228489,-4.9375 -4.9375,-4.9375 l -14,0 z"
           id="path3712"
           style="opacity:0.1;color:#000000;fill:#376e3c;fill-opacity:1;fill-rule:nonzero;stroke:none;stroke-width:1.5;marker:none;visibility:visible;display:inline;overflow:visible;enable-background:accumulate" />
        <path
           d="m 17,13 c -2.19953,0 -4,1.80047 -4,4 l 0,14 c 0,2.19953 1.80047,4 4,4 l 14,0 c 2.19953,0 4,-1.80047 4,-4 l 0,-14 c 0,-2.19953 -1.80047,-4 -4,-4 l -14,0 z"
           id="path3714"
           style="opacity:0.2;color:#000000;fill:#376e3c;fill-opacity:1;fill-rule:nonzero;stroke:none;stroke-width:1.5;marker:none;visibility:visible;display:inline;overflow:visible;enable-background:accumulate" />
        <rect
           width="20"
           height="20"
           rx="3"
           ry="3"
           x="14"
           y="14"
           id="rect3717"
           style="opacity:0.8;color:#000000;fill:#ffffff;fill-opacity:1;fill-rule:nonzero;stroke:none;stroke-width:1.5;marker:none;visibility:visible;display:inline;overflow:visible;enable-background:accumulate" />
      </g>
    </a>
    <a
       transform="translate(48,0)"
       id="a3719">
      <g
         id="g3721">
        <path
           d="m 17,12.0625 c -2.709011,0 -4.9375,2.228489 -4.9375,4.9375 l 0,14 c 0,2.709011 2.228489,4.9375 4.9375,4.9375 l 14,0 c 2.709011,0 4.9375,-2.228489 4.9375,-4.9375 l 0,-14 c 0,-2.709011 -2.228489,-4.9375 -4.9375,-4.9375 l -14,0 z"
           id="path3723"
           style="opacity:0.1;color:#000000;fill:#376e3c;fill-opacity:1;fill-rule:nonzero;stroke:none;stroke-width:1.5;marker:none;visibility:visible;display:inline;overflow:visible;enable-background:accumulate" />
        <path
           d="m 17,13 c -2.19953,0 -4,1.80047 -4,4 l 0,14 c 0,2.19953 1.80047,4 4,4 l 14,0 c 2.19953,0 4,-1.80047 4,-4 l 0,-14 c 0,-2.19953 -1.80047,-4 -4,-4 l -14,0 z"
           id="path3725"
           style="opacity:0.2;color:#000000;fill:#376e3c;fill-opacity:1;fill-rule:nonzero;stroke:none;stroke-width:1.5;marker:none;visibility:visible;display:inline;overflow:visible;enable-background:accumulate" />
        <rect
           width="20"
           height="20"
           rx="3"
           ry="3"
           x="14"
           y="14"
           id="rect3727"
           style="color:#000000;fill:#ffffff;fill-opacity:1;fill-rule:nonzero;stroke:none;stroke-width:1.5;marker:none;visibility:visible;display:inline;overflow:visible;enable-background:accumulate" />
      </g>
    </a>
    <a
       transform="translate(0,24)"
       id="a3729">
      <g
         id="g3731">
        <path
           d="m 17,12.0625 c -2.709011,0 -4.9375,2.228489 -4.9375,4.9375 l 0,14 c 0,2.709011 2.228489,4.9375 4.9375,4.9375 l 14,0 c 2.709011,0 4.9375,-2.228489 4.9375,-4.9375 l 0,-14 c 0,-2.709011 -2.228489,-4.9375 -4.9375,-4.9375 l -14,0 z"
           id="path3733"
           style="opacity:0.1;color:#000000;fill:#376e3c;fill-opacity:1;fill-rule:nonzero;stroke:none;stroke-width:1.5;marker:none;visibility:visible;display:inline;overflow:visible;enable-background:accumulate" />
        <path
           d="m 17,13 c -2.19953,0 -4,1.80047 -4,4 l 0,14 c 0,2.19953 1.80047,4 4,4 l 14,0 c 2.19953,0 4,-1.80047 4,-4 l 0,-14 c 0,-2.19953 -1.80047,-4 -4,-4 l -14,0 z"
           id="path3735"
           style="opacity:0.2;color:#000000;fill:#376e3c;fill-opacity:1;fill-rule:nonzero;stroke:none;stroke-width:1.5;marker:none;visibility:visible;display:inline;overflow:visible;enable-background:accumulate" />
        <rect
           width="20"
           height="20"
           rx="3"
           ry="3"
           x="14"
           y="14"
           id="rect3737"
           style="opacity:0.8;color:#000000;fill:#ffffff;fill-opacity:1;fill-rule:nonzero;stroke:none;stroke-width:1.5;marker:none;visibility:visible;display:inline;overflow:visible;enable-background:accumulate" />
      </g>
    </a>
    <a
       transform="translate(24,24)"
       id="a3739">
      <g
         id="g3741">
        <path
           d="m 17,12.0625 c -2.709011,0 -4.9375,2.228489 -4.9375,4.9375 l 0,14 c 0,2.709011 2.228489,4.9375 4.9375,4.9375 l 14,0 c 2.709011,0 4.9375,-2.228489 4.9375,-4.9375 l 0,-14 c 0,-2.709011 -2.228489,-4.9375 -4.9375,-4.9375 l -14,0 z"
           id="path3743"
           style="opacity:0.1;color:#000000;fill:#376e3c;fill-opacity:1;fill-rule:nonzero;stroke:none;stroke-width:1.5;marker:none;visibility:visible;display:inline;overflow:visible;enable-background:accumulate" />
        <path
           d="m 17,13 c -2.19953,0 -4,1.80047 -4,4 l 0,14 c 0,2.19953 1.80047,4 4,4 l 14,0 c 2.19953,0 4,-1.80047 4,-4 l 0,-14 c 0,-2.19953 -1.80047,-4 -4,-4 l -14,0 z"
           id="path3745"
           style="opacity:0.2;color:#000000;fill:#376e3c;fill-opacity:1;fill-rule:nonzero;stroke:none;stroke-width:1.5;marker:none;visibility:visible;display:inline;overflow:visible;enable-background:accumulate" />
        <rect
           width="20"
           height="20"
           rx="3"
           ry="3"
           x="14"
           y="14"
           id="rect3747"
           style="color:#000000;fill:#ffffff;fill-opacity:1;fill-rule:nonzero;stroke:none;stroke-width:1.5;marker:none;visibility:visible;display:inline;overflow:visible;enable-background:accumulate" />
      </g>
    </a>
    <a
       transform="translate(48,24)"
       id="a3749">
      <g
         id="g3751">
        <path
           d="m 17,12.0625 c -2.709011,0 -4.9375,2.228489 -4.9375,4.9375 l 0,14 c 0,2.709011 2.228489,4.9375 4.9375,4.9375 l 14,0 c 2.709011,0 4.9375,-2.228489 4.9375,-4.9375 l 0,-14 c 0,-2.709011 -2.228489,-4.9375 -4.9375,-4.9375 l -14,0 z"
           id="path3753"
           style="opacity:0.1;color:#000000;fill:#376e3c;fill-opacity:1;fill-rule:nonzero;stroke:none;stroke-width:1.5;marker:none;visibility:visible;display:inline;overflow:visible;enable-background:accumulate" />
        <path
           d="m 17,13 c -2.19953,0 -4,1.80047 -4,4 l 0,14 c 0,2.19953 1.80047,4 4,4 l 14,0 c 2.19953,0 4,-1.80047 4,-4 l 0,-14 c 0,-2.19953 -1.80047,-4 -4,-4 l -14,0 z"
           id="path3755"
           style="opacity:0.2;color:#000000;fill:#376e3c;fill-opacity:1;fill-rule:nonzero;stroke:none;stroke-width:1.5;marker:none;visibility:visible;display:inline;overflow:visible;enable-background:accumulate" />
        <rect
           width="20"
           height="20"
           rx="3"
           ry="3"
           x="14"
           y="14"
           id="rect3757"
           style="color:#000000;fill:#ffffff;fill-opacity:1;fill-rule:nonzero;stroke:none;stroke-width:1.5;marker:none;visibility:visible;display:inline;overflow:visible;enable-background:accumulate" />
      </g>
    </a>
    <a
       transform="translate(0,48)"
       id="a3759">
      <g
         id="g3761">
        <path
           d="m 17,12.0625 c -2.709011,0 -4.9375,2.228489 -4.9375,4.9375 l 0,14 c 0,2.709011 2.228489,4.9375 4.9375,4.9375 l 14,0 c 2.709011,0 4.9375,-2.228489 4.9375,-4.9375 l 0,-14 c 0,-2.709011 -2.228489,-4.9375 -4.9375,-4.9375 l -14,0 z"
           id="path3763"
           style="opacity:0.1;color:#000000;fill:#376e3c;fill-opacity:1;fill-rule:nonzero;stroke:none;stroke-width:1.5;marker:none;visibility:visible;display:inline;overflow:visible;enable-background:accumulate" />
        <path
           d="m 17,13 c -2.19953,0 -4,1.80047 -4,4 l 0,14 c 0,2.19953 1.80047,4 4,4 l 14,0 c 2.19953,0 4,-1.80047 4,-4 l 0,-14 c 0,-2.19953 -1.80047,-4 -4,-4 l -14,0 z"
           id="path3765"
           style="opacity:0.2;color:#000000;fill:#376e3c;fill-opacity:1;fill-rule:nonzero;stroke:none;stroke-width:1.5;marker:none;visibility:visible;display:inline;overflow:visible;enable-background:accumulate" />
        <rect
           width="20"
           height="20"
           rx="3"
           ry="3"
           x="14"
           y="14"
           id="rect3767"
           style="color:#000000;fill:#ffffff;fill-opacity:1;fill-rule:nonzero;stroke:none;stroke-width:1.5;marker:none;visibility:visible;display:inline;overflow:visible;enable-background:accumulate" />
      </g>
    </a>
    <a
       transform="translate(24,48)"
       id="a3769">
      <g
         id="g3771">
        <path
           d="m 17,12.0625 c -2.709011,0 -4.9375,2.228489 -4.9375,4.9375 l 0,14 c 0,2.709011 2.228489,4.9375 4.9375,4.9375 l 14,0 c 2.709011,0 4.9375,-2.228489 4.9375,-4.9375 l 0,-14 c 0,-2.709011 -2.228489,-4.9375 -4.9375,-4.9375 l -14,0 z"
           id="path3773"
           style="opacity:0.1;color:#000000;fill:#376e3c;fill-opacity:1;fill-rule:nonzero;stroke:none;stroke-width:1.5;marker:none;visibility:visible;display:inline;overflow:visible;enable-background:accumulate" />
        <path
           d="m 17,13 c -2.19953,0 -4,1.80047 -4,4 l 0,14 c 0,2.19953 1.80047,4 4,4 l 14,0 c 2.19953,0 4,-1.80047 4,-4 l 0,-14 c 0,-2.19953 -1.80047,-4 -4,-4 l -14,0 z"
           id="path3775"
           style="opacity:0.2;color:#000000;fill:#376e3c;fill-opacity:1;fill-rule:nonzero;stroke:none;stroke-width:1.5;marker:none;visibility:visible;display:inline;overflow:visible;enable-background:accumulate" />
        <rect
           width="20"
           height="20"
           rx="3"
           ry="3"
           x="14"
           y="14"
           id="rect3777"
           style="opacity:0.8;color:#000000;fill:#ffffff;fill-opacity:1;fill-rule:nonzero;stroke:none;stroke-width:1.5;marker:none;visibility:visible;display:inline;overflow:visible;enable-background:accumulate" />
      </g>
    </a>
    <a
       transform="translate(48,48)"
       id="a3779">
      <g
         id="g3781">
        <path
           d="m 17,12.0625 c -2.709011,0 -4.9375,2.228489 -4.9375,4.9375 l 0,14 c 0,2.709011 2.228489,4.9375 4.9375,4.9375 l 14,0 c 2.709011,0 4.9375,-2.228489 4.9375,-4.9375 l 0,-14 c 0,-2.709011 -2.228489,-4.9375 -4.9375,-4.9375 l -14,0 z"
           id="path3783"
           style="opacity:0.1;color:#000000;fill:#376e3c;fill-opacity:1;fill-rule:nonzero;stroke:none;stroke-width:1.5;marker:none;visibility:visible;display:inline;overflow:visible;enable-background:accumulate" />
        <path
           d="m 17,13 c -2.19953,0 -4,1.80047 -4,4 l 0,14 c 0,2.19953 1.80047,4 4,4 l 14,0 c 2.19953,0 4,-1.80047 4,-4 l 0,-14 c 0,-2.19953 -1.80047,-4 -4,-4 l -14,0 z"
           id="path3785"
           style="opacity:0.2;color:#000000;fill:#376e3c;fill-opacity:1;fill-rule:nonzero;stroke:none;stroke-width:1.5;marker:none;visibility:visible;display:inline;overflow:visible;enable-background:accumulate" />
        <rect
           width="20"
           height="20"
           rx="3"
           ry="3"
           x="14"
           y="14"
           id="rect3787"
           style="opacity:0.8;color:#000000;fill:#ffffff;fill-opacity:1;fill-rule:nonzero;stroke:none;stroke-width:1.5;marker:none;visibility:visible;display:inline;overflow:visible;enable-background:accumulate" />
      </g>
    </a>
    <g
       id="text3789"
       style="font-size:16px;font-style:normal;font-variant:normal;font-weight:bold;font-stretch:normal;text-align:center;line-height:125%;writing-mode:lr-tb;text-anchor:middle;fill:#215c26;fill-opacity:1;stroke:none;font-family:Liberation Sans;-inkscape-font-specification:Liberation Sans Bold">
      <path
         d="m 27.98291,25.761719 c -8e-6,0.552086 -0.08855,1.062502 -0.265625,1.53125 -0.171883,0.463543 -0.429695,0.867189 -0.773437,1.210937 -0.343757,0.338542 -0.77084,0.604167 -1.28125,0.796875 -0.505214,0.1875 -1.091151,0.28125 -1.757813,0.28125 -0.614587,0 -1.151045,-0.07292 -1.609375,-0.21875 -0.458335,-0.151041 -0.846356,-0.35677 -1.164062,-0.617187 -0.312502,-0.265624 -0.559897,-0.57552 -0.742188,-0.929688 -0.177084,-0.354164 -0.29948,-0.734372 -0.367187,-1.140625 l 2.195312,-0.179687 c 0.04166,0.171878 0.09896,0.338544 0.171875,0.5 0.07812,0.16146 0.184893,0.304689 0.320313,0.429687 0.135413,0.125002 0.30208,0.226565 0.5,0.304688 0.197912,0.07292 0.437496,0.109376 0.71875,0.109375 0.54687,1e-6 0.981765,-0.174478 1.304687,-0.523438 0.328119,-0.348956 0.492181,-0.851559 0.492188,-1.507812 -7e-6,-0.291663 -0.04167,-0.554684 -0.125,-0.789063 -0.07813,-0.23437 -0.192715,-0.434891 -0.34375,-0.601562 -0.145839,-0.166662 -0.328131,-0.294266 -0.546875,-0.382813 -0.213547,-0.08854 -0.458338,-0.132807 -0.734375,-0.132812 -0.364588,5e-6 -0.664067,0.07032 -0.898438,0.210937 -0.234378,0.135422 -0.432295,0.302089 -0.59375,0.5 l -2.140625,0 0.382813,-6.195312 6.617187,0 0,1.632812 -4.625,0 -0.179687,2.78125 c 0.218746,-0.192701 0.494788,-0.356764 0.828125,-0.492187 0.333329,-0.140618 0.721349,-0.21093 1.164062,-0.210938 0.541661,8e-6 1.026036,0.08855 1.453125,0.265625 0.427077,0.17709 0.789055,0.424486 1.085938,0.742188 0.296867,0.317714 0.523429,0.700526 0.679687,1.148437 0.156242,0.442713 0.234367,0.9349 0.234375,1.476563"
         inkscape:connector-curvature="0"
         id="path3819"
         style="fill:#215c26;fill-opacity:1" />
    </g>
    <g
       id="text3793"
       style="font-size:16px;font-style:normal;font-variant:normal;font-weight:bold;font-stretch:normal;text-align:center;line-height:125%;writing-mode:lr-tb;text-anchor:middle;fill:#215c26;fill-opacity:1;stroke:none;font-family:Liberation Sans;-inkscape-font-specification:Liberation Sans Bold">
      <path
         d="m 51.976562,26.441406 c -8e-6,0.500003 -0.08334,0.950523 -0.25,1.351563 -0.161466,0.395834 -0.406257,0.734376 -0.734375,1.015625 -0.328132,0.28125 -0.736985,0.497396 -1.226562,0.648437 -0.484381,0.145833 -1.049484,0.21875 -1.695313,0.21875 -0.718753,0 -1.325523,-0.09115 -1.820312,-0.273437 -0.489585,-0.182292 -0.893231,-0.421875 -1.210938,-0.71875 -0.312501,-0.302082 -0.54948,-0.643228 -0.710937,-1.023438 -0.156251,-0.380206 -0.257813,-0.765622 -0.304688,-1.15625 l 2.234375,-0.195312 c 0.03125,0.234378 0.08854,0.450523 0.171875,0.648437 0.08854,0.192711 0.205727,0.359377 0.351563,0.5 0.14583,0.140627 0.322913,0.250002 0.53125,0.328125 0.213538,0.07292 0.463538,0.109377 0.75,0.109375 0.526037,2e-6 0.93489,-0.130206 1.226562,-0.390625 0.291661,-0.260414 0.437494,-0.658851 0.4375,-1.195312 -6e-6,-0.328122 -0.07032,-0.591142 -0.210937,-0.789063 -0.135422,-0.197912 -0.309901,-0.348954 -0.523438,-0.453125 -0.208338,-0.10937 -0.4349,-0.182287 -0.679687,-0.21875 -0.244796,-0.03645 -0.476567,-0.05468 -0.695313,-0.05469 l -0.765625,0 0,-1.773438 0.71875,0 c 0.218746,7e-6 0.4401,-0.02083 0.664063,-0.0625 0.229162,-0.04166 0.434891,-0.117181 0.617187,-0.226562 0.182287,-0.109368 0.330724,-0.26041 0.445313,-0.453125 0.114578,-0.197909 0.171869,-0.447909 0.171875,-0.75 -6e-6,-0.453117 -0.12761,-0.807283 -0.382813,-1.0625 -0.250005,-0.260408 -0.617192,-0.390616 -1.101562,-0.390625 -0.453129,9e-6 -0.820316,0.125009 -1.101563,0.375 -0.276044,0.250009 -0.434898,0.604175 -0.476562,1.0625 l -2.195313,-0.15625 c 0.0625,-0.515617 0.203125,-0.963533 0.421875,-1.34375 0.223958,-0.380199 0.502603,-0.695303 0.835938,-0.945313 0.33854,-0.249989 0.72656,-0.434885 1.164062,-0.554687 0.437497,-0.124989 0.901038,-0.187489 1.390625,-0.1875 0.645829,1.1e-5 1.200516,0.07814 1.664063,0.234375 0.463535,0.156261 0.843743,0.367198 1.140625,0.632812 0.296868,0.265635 0.515617,0.575531 0.65625,0.929688 0.140617,0.354175 0.210929,0.731779 0.210937,1.132812 -8e-6,0.322925 -0.04688,0.625008 -0.140625,0.90625 -0.09376,0.276049 -0.236986,0.526049 -0.429687,0.75 -0.187507,0.218757 -0.429695,0.408861 -0.726563,0.570313 -0.296881,0.156256 -0.648443,0.273443 -1.054687,0.351562 l 0,0.03125 c 0.453119,0.05209 0.846348,0.156256 1.179687,0.3125 0.333327,0.151047 0.606764,0.341151 0.820313,0.570313 0.213534,0.229171 0.372388,0.489587 0.476562,0.78125 0.104159,0.286462 0.156242,0.591149 0.15625,0.914062"
         inkscape:connector-curvature="0"
         id="path3816"
         style="fill:#215c26;fill-opacity:1" />
    </g>
    <g
       id="text3797"
       style="font-size:16px;font-style:normal;font-variant:normal;font-weight:bold;font-stretch:normal;text-align:center;line-height:125%;writing-mode:lr-tb;text-anchor:middle;fill:#215c26;fill-opacity:1;stroke:none;font-family:Liberation Sans;-inkscape-font-specification:Liberation Sans Bold">
      <path
         d="m 27.867187,49.90625 c -8e-6,0.552086 -0.07813,1.059898 -0.234375,1.523437 -0.156257,0.458335 -0.390632,0.854168 -0.703125,1.1875 -0.307298,0.328126 -0.692715,0.585938 -1.15625,0.773438 -0.463547,0.182292 -1.000005,0.273437 -1.609375,0.273437 -1.296878,0 -2.294273,-0.453124 -2.992187,-1.359375 -0.692709,-0.911456 -1.039063,-2.260413 -1.039063,-4.046875 0,-1.963534 0.351562,-3.440095 1.054688,-4.429687 0.708331,-0.994781 1.718747,-1.492176 3.03125,-1.492188 0.437495,1.2e-5 0.835932,0.04689 1.195312,0.140625 0.359369,0.08855 0.679681,0.234386 0.960938,0.4375 0.281243,0.203136 0.520826,0.466156 0.71875,0.789063 0.197909,0.317718 0.356763,0.705738 0.476562,1.164062 L 25.5,45.15625 c -0.104173,-0.385408 -0.273443,-0.661449 -0.507813,-0.828125 -0.23438,-0.171866 -0.507817,-0.257803 -0.820312,-0.257813 -0.588546,10e-6 -1.052087,0.29428 -1.390625,0.882813 -0.333336,0.58855 -0.500003,1.481778 -0.5,2.679687 0.234372,-0.390618 0.559893,-0.690097 0.976562,-0.898437 0.416663,-0.208326 0.888017,-0.312493 1.414063,-0.3125 0.484369,7e-6 0.921869,0.08074 1.3125,0.242187 0.395826,0.156257 0.731764,0.385424 1.007812,0.6875 0.281243,0.296881 0.497388,0.661464 0.648438,1.09375 0.151033,0.432297 0.226554,0.919275 0.226562,1.460938 m -2.203125,0.0625 c -6e-6,-0.296871 -0.03386,-0.562496 -0.101562,-0.796875 -0.06771,-0.239579 -0.171881,-0.442704 -0.3125,-0.609375 -0.135422,-0.166662 -0.304693,-0.294266 -0.507813,-0.382813 -0.203129,-0.09374 -0.437504,-0.140619 -0.703125,-0.140625 -0.192712,6e-6 -0.38542,0.03126 -0.578125,0.09375 -0.192712,0.06251 -0.364586,0.164068 -0.515625,0.304688 -0.151044,0.135422 -0.27344,0.309901 -0.367187,0.523437 -0.09375,0.213546 -0.140628,0.471359 -0.140625,0.773438 -3e-6,0.312503 0.03906,0.60417 0.117187,0.875 0.07812,0.270836 0.187497,0.507815 0.328125,0.710937 0.14583,0.197919 0.320309,0.354169 0.523438,0.46875 0.203121,0.109377 0.432287,0.164065 0.6875,0.164063 0.494787,2e-6 0.880203,-0.174477 1.15625,-0.523438 0.276036,-0.354164 0.414056,-0.841142 0.414062,-1.460937"
         inkscape:connector-curvature="0"
         id="path3822"
         style="fill:#215c26;fill-opacity:1" />
    </g>
    <g
       id="text3801"
       style="font-size:16px;font-style:normal;font-variant:normal;font-weight:bold;font-stretch:normal;text-align:center;line-height:125%;writing-mode:lr-tb;text-anchor:middle;fill:#215c26;fill-opacity:1;stroke:none;font-family:Liberation Sans;-inkscape-font-specification:Liberation Sans Bold">
      <path
         d="m 51.875,71.828125 c -8e-6,1.953129 -0.356779,3.414065 -1.070313,4.382812 -0.713548,0.968751 -1.726568,1.453125 -3.039062,1.453125 -0.473962,0 -0.901045,-0.04948 -1.28125,-0.148437 C 46.109372,77.416667 45.781248,77.263021 45.5,77.054687 45.218748,76.846355 44.979165,76.578126 44.78125,76.25 44.588541,75.921877 44.434895,75.531252 44.320312,75.078125 l 2.0625,-0.289063 c 0.104164,0.390628 0.273435,0.67969 0.507813,0.867188 0.23958,0.187502 0.539059,0.281252 0.898437,0.28125 0.296871,2e-6 0.562496,-0.07031 0.796875,-0.210938 0.23437,-0.140623 0.434891,-0.354164 0.601563,-0.640625 0.166661,-0.286455 0.294265,-0.648434 0.382812,-1.085937 0.09374,-0.442704 0.143224,-0.963537 0.148438,-1.5625 -0.104173,0.20313 -0.242193,0.382817 -0.414063,0.539062 -0.17188,0.156255 -0.367192,0.286463 -0.585937,0.390625 -0.213547,0.104171 -0.442713,0.1849 -0.6875,0.242188 -0.244796,0.05209 -0.492191,0.07813 -0.742188,0.07813 -0.479169,4e-6 -0.914065,-0.08333 -1.304687,-0.25 -0.390627,-0.171871 -0.72396,-0.416662 -1,-0.734375 -0.276043,-0.317703 -0.489584,-0.700515 -0.640625,-1.148438 -0.145834,-0.453118 -0.218751,-0.963534 -0.21875,-1.53125 -10e-7,-0.583325 0.08594,-1.104158 0.257812,-1.5625 0.177083,-0.458323 0.429687,-0.84374 0.757813,-1.15625 0.328123,-0.317697 0.729164,-0.55728 1.203125,-0.71875 0.479163,-0.166655 1.02083,-0.249988 1.625,-0.25 0.635412,1.2e-5 1.195307,0.109387 1.679687,0.328125 0.489577,0.213553 0.898431,0.546886 1.226563,1 0.328117,0.447927 0.575513,1.018238 0.742187,1.710938 0.171867,0.687507 0.257805,1.505215 0.257813,2.453125 m -2.320313,-1.539063 c -5e-6,-0.312492 -0.03646,-0.604158 -0.109375,-0.875 -0.06771,-0.276033 -0.17188,-0.513012 -0.3125,-0.710937 -0.14063,-0.203116 -0.312505,-0.36197 -0.515625,-0.476563 -0.203129,-0.114573 -0.437504,-0.171865 -0.703125,-0.171875 -0.244795,1e-5 -0.463545,0.04689 -0.65625,0.140625 -0.192711,0.08855 -0.356774,0.21876 -0.492187,0.390625 -0.13542,0.171884 -0.239586,0.380217 -0.3125,0.625 -0.06771,0.2448 -0.101565,0.520842 -0.101563,0.828125 -2e-6,0.286466 0.03385,0.554695 0.101563,0.804688 0.0677,0.244798 0.166664,0.45834 0.296875,0.640625 0.130205,0.177089 0.294267,0.317714 0.492187,0.421875 0.197913,0.09896 0.424476,0.148443 0.679688,0.148437 0.20312,6e-6 0.401037,-0.03645 0.59375,-0.109375 0.197912,-0.07291 0.372391,-0.182285 0.523437,-0.328125 0.156245,-0.145827 0.281245,-0.328118 0.375,-0.546875 0.09374,-0.223951 0.14062,-0.484368 0.140625,-0.78125"
         inkscape:connector-curvature="0"
         id="path3813"
         style="fill:#215c26;fill-opacity:1" />
    </g>
    <g
       id="text3805"
       style="font-size:16px;font-style:normal;font-variant:normal;font-weight:bold;font-stretch:normal;text-align:center;line-height:125%;writing-mode:lr-tb;text-anchor:middle;fill:#215c26;fill-opacity:1;stroke:none;font-family:Liberation Sans;-inkscape-font-specification:Liberation Sans Bold">
      <path
         d="m 75.753906,68.238281 c -0.494799,0.781259 -0.963549,1.53907 -1.40625,2.273438 -0.437506,0.734381 -0.820318,1.473964 -1.148437,2.21875 -0.328131,0.739587 -0.588547,1.502607 -0.78125,2.289062 -0.187505,0.781252 -0.281255,1.609376 -0.28125,2.484375 l -2.289063,0 c -2e-6,-0.869791 0.10156,-1.695311 0.304688,-2.476562 0.20833,-0.786455 0.48958,-1.55208 0.84375,-2.296875 0.354163,-0.744786 0.765621,-1.479161 1.234375,-2.203125 0.468745,-0.729159 0.963536,-1.471346 1.484375,-2.226563 l -5.46875,0 0,-1.804687 7.507812,0 0,1.742187"
         inkscape:connector-curvature="0"
         id="path3810"
         style="fill:#215c26;fill-opacity:1" />
    </g>
  </g>
</svg>
