<?xml version="1.0" encoding="UTF-8" standalone="no"?>
<!-- Created with Inkscape (http://www.inkscape.org/) -->

<svg
   xmlns:dc="http://purl.org/dc/elements/1.1/"
   xmlns:cc="http://creativecommons.org/ns#"
   xmlns:rdf="http://www.w3.org/1999/02/22-rdf-syntax-ns#"
   xmlns:svg="http://www.w3.org/2000/svg"
   xmlns="http://www.w3.org/2000/svg"
   xmlns:xlink="http://www.w3.org/1999/xlink"
   xmlns:inkscape="http://www.inkscape.org/namespaces/inkscape"
   version="1.0"
   width="96"
   height="96"
   id="svg2408">
  <defs
     id="defs2410">
    <linearGradient
       id="linearGradient3994">
      <stop
         id="stop3996"
         style="stop-color:#ffffff;stop-opacity:1"
         offset="0" />
      <stop
         id="stop3998"
         style="stop-color:#ffffff;stop-opacity:0"
         offset="1" />
    </linearGradient>
    <linearGradient
       id="linearGradient3881">
      <stop
         id="stop3883"
         style="stop-color:#000000;stop-opacity:1"
         offset="0" />
      <stop
         id="stop3885"
         style="stop-color:#000000;stop-opacity:0"
         offset="1" />
    </linearGradient>
    <linearGradient
       x1="45.447727"
       y1="92.539597"
       x2="45.447727"
       y2="7.0165396"
       id="ButtonShadow"
       gradientUnits="userSpaceOnUse"
       gradientTransform="scale(1.0058652,0.994169)">
      <stop
         id="stop3750"
         style="stop-color:#000000;stop-opacity:1"
         offset="0" />
      <stop
         id="stop3752"
         style="stop-color:#000000;stop-opacity:0.58823532"
         offset="1" />
    </linearGradient>
    <linearGradient
       id="linearGradient3737">
      <stop
         id="stop3739"
         style="stop-color:#ffffff;stop-opacity:1"
         offset="0" />
      <stop
         id="stop3741"
         style="stop-color:#ffffff;stop-opacity:0"
         offset="1" />
    </linearGradient>
    <linearGradient
       id="linearGradient3700">
      <stop
         id="stop3702"
         style="stop-color:#1a1818;stop-opacity:1"
         offset="0" />
      <stop
         id="stop3704"
         style="stop-color:#403d3d;stop-opacity:1"
         offset="1" />
    </linearGradient>
    <filter
       color-interpolation-filters="sRGB"
       id="filter3174">
      <feGaussianBlur
         id="feGaussianBlur3176"
         stdDeviation="1.71" />
    </filter>
    <linearGradient
       x1="36.357143"
       y1="6"
       x2="36.357143"
       y2="63.893143"
       id="linearGradient3188"
       xlink:href="#linearGradient3737"
       gradientUnits="userSpaceOnUse" />
    <filter
       x="-0.192"
       y="-0.192"
       width="1.3839999"
       height="1.3839999"
       color-interpolation-filters="sRGB"
       id="filter3794">
      <feGaussianBlur
         id="feGaussianBlur3796"
         stdDeviation="5.28" />
    </filter>
    <linearGradient
       x1="48"
       y1="20.220806"
       x2="48"
       y2="138.66119"
       id="linearGradient3613"
       xlink:href="#linearGradient3737"
       gradientUnits="userSpaceOnUse" />
    <radialGradient
       cx="48"
       cy="90.171875"
       r="42"
       fx="48"
       fy="90.171875"
       id="radialGradient3619"
       xlink:href="#linearGradient3737"
       gradientUnits="userSpaceOnUse"
       gradientTransform="matrix(1.1573129,0,0,0.99590774,-7.5510206,0.19713193)" />
    <clipPath
       id="clipPath3613">
      <rect
         width="84"
         height="84"
         rx="6"
         ry="6"
         x="6"
         y="6"
         id="rect3615"
         style="fill:#ffffff;fill-opacity:1;fill-rule:nonzero;stroke:none" />
    </clipPath>
    <linearGradient
       x1="48"
       y1="90"
       x2="48"
       y2="5.9877172"
       id="linearGradient3617"
       xlink:href="#linearGradient3700"
       gradientUnits="userSpaceOnUse"
       gradientTransform="translate(0,20)" />
    <linearGradient
       x1="45.447727"
       y1="92.539597"
       x2="45.447727"
       y2="7.0165396"
       id="ButtonShadow-0"
       gradientUnits="userSpaceOnUse"
       gradientTransform="matrix(1.0058652,0,0,0.994169,100,0)">
      <stop
         id="stop3750-8"
         style="stop-color:#000000;stop-opacity:1"
         offset="0" />
      <stop
         id="stop3752-5"
         style="stop-color:#000000;stop-opacity:0.58823532"
         offset="1" />
    </linearGradient>
    <linearGradient
       x1="32.251034"
       y1="6.1317081"
       x2="32.251034"
       y2="90.238609"
       id="linearGradient3780"
       xlink:href="#ButtonShadow-0"
       gradientUnits="userSpaceOnUse"
       gradientTransform="matrix(1.0238095,0,0,1.0119048,-1.1428571,-98.071429)" />
    <linearGradient
       x1="32.251034"
       y1="6.1317081"
       x2="32.251034"
       y2="90.238609"
       id="linearGradient3772"
       xlink:href="#ButtonShadow-0"
       gradientUnits="userSpaceOnUse"
       gradientTransform="matrix(1.0238095,0,0,1.0119048,-1.1428571,-98.071429)" />
    <linearGradient
       x1="32.251034"
       y1="6.1317081"
       x2="32.251034"
       y2="90.238609"
       id="linearGradient3725"
       xlink:href="#ButtonShadow-0"
       gradientUnits="userSpaceOnUse"
       gradientTransform="matrix(1.0238095,0,0,1.0119048,-1.1428571,-98.071429)" />
    <linearGradient
       x1="32.251034"
       y1="6.1317081"
       x2="32.251034"
       y2="90.238609"
       id="linearGradient3721"
       xlink:href="#ButtonShadow-0"
       gradientUnits="userSpaceOnUse"
       gradientTransform="translate(0,-97)" />
    <linearGradient
       x1="32.251034"
       y1="6.1317081"
       x2="32.251034"
       y2="90.238609"
       id="linearGradient3026"
       xlink:href="#ButtonShadow-0"
       gradientUnits="userSpaceOnUse"
       gradientTransform="matrix(1.0238095,0,0,1.0119048,-1.1428571,-98.071429)" />
    <linearGradient
       x1="31"
       y1="16"
       x2="31"
       y2="18"
       id="linearGradient3887"
       xlink:href="#linearGradient3881"
       gradientUnits="userSpaceOnUse"
       gradientTransform="matrix(1,0,0,1.5,0,-8)" />
    <linearGradient
       x1="36.357143"
       y1="6"
       x2="36.357143"
       y2="63.893143"
       id="linearGradient3902"
       xlink:href="#linearGradient3737"
       gradientUnits="userSpaceOnUse" />
    <clipPath
       id="clipPath3981">
      <rect
         width="96"
         height="82"
         x="0"
         y="34"
         id="rect3983"
         style="opacity:0.5;color:#000000;fill:#ff00ff;fill-opacity:1;fill-rule:nonzero;stroke:none;stroke-width:2;marker:none;visibility:visible;display:inline;overflow:visible;enable-background:accumulate" />
    </clipPath>
    <linearGradient
       x1="40"
       y1="6"
       x2="40"
       y2="14"
       id="linearGradient4000"
       xlink:href="#linearGradient3994"
       gradientUnits="userSpaceOnUse" />
  </defs>
  <metadata
     id="metadata2413">
    <rdf:RDF>
      <cc:Work
         rdf:about="">
        <dc:format>image/svg+xml</dc:format>
        <dc:type
           rdf:resource="http://purl.org/dc/dcmitype/StillImage" />
        <dc:title />
      </cc:Work>
    </rdf:RDF>
  </metadata>
  <g
     id="layer2"
     style="display:none">
    <rect
       width="86"
       height="85"
       rx="6"
       ry="6"
       x="5"
       y="7"
       id="rect3745"
       style="opacity:0.9;fill:url(#ButtonShadow);fill-opacity:1;fill-rule:nonzero;stroke:none;filter:url(#filter3174)" />
  </g>
  <g
     id="layer3">
    <path
       d="m 12,-95.03125 c -5.5110903,0 -10.03125,4.52016 -10.03125,10.03125 l 0,71 c 0,5.5110902 4.5201598,10.03125 10.03125,10.03125 l 72,0 c 5.51109,0 10.03125,-4.5201597 10.03125,-10.03125 l 0,-71 c 0,-5.51109 -4.52016,-10.03125 -10.03125,-10.03125 l -72,0 z"
       transform="scale(1,-1)"
       id="path3786"
       style="opacity:0.07999998;fill:url(#linearGradient3026);fill-opacity:1;fill-rule:nonzero;stroke:none;display:inline" />
    <path
       d="m 12,-94.03125 c -4.971633,0 -9.03125,4.059617 -9.03125,9.03125 l 0,71 c 0,4.9716329 4.0596171,9.03125 9.03125,9.03125 l 72,0 c 4.971633,0 9.03125,-4.059617 9.03125,-9.03125 l 0,-71 c 0,-4.971633 -4.059617,-9.03125 -9.03125,-9.03125 l -72,0 z"
       transform="scale(1,-1)"
       id="path3778"
       style="opacity:0.1;fill:url(#linearGradient3780);fill-opacity:1;fill-rule:nonzero;stroke:none;display:inline" />
    <path
       d="m 12,-93 c -4.4091333,0 -8,3.590867 -8,8 l 0,71 c 0,4.4091333 3.5908667,8 8,8 l 72,0 c 4.409133,0 8,-3.5908667 8,-8 l 0,-71 c 0,-4.409133 -3.590867,-8 -8,-8 l -72,0 z"
       transform="scale(1,-1)"
       id="path3770"
       style="opacity:0.2;fill:url(#linearGradient3772);fill-opacity:1;fill-rule:nonzero;stroke:none;display:inline" />
    <rect
       width="86"
       height="85"
       rx="7"
       ry="7"
       x="5"
       y="-92"
       transform="scale(1,-1)"
       id="rect3723"
       style="opacity:0.3;fill:url(#linearGradient3725);fill-opacity:1;fill-rule:nonzero;stroke:none;display:inline" />
    <rect
       width="84"
       height="84"
       rx="6"
       ry="6"
       x="6"
       y="-91"
       transform="scale(1,-1)"
       id="rect3716"
       style="opacity:0.45;fill:url(#linearGradient3721);fill-opacity:1;fill-rule:nonzero;stroke:none;display:inline" />
  </g>
  <g
     id="layer1">
    <rect
       width="84"
       height="84"
       rx="6.0999999"
       ry="6"
       x="6"
       y="26"
       transform="translate(0,-20)"
       clip-path="url(#clipPath3981)"
       id="rect2419"
       style="fill:url(#linearGradient3617);fill-opacity:1;fill-rule:nonzero;stroke:none" />
    <path
       d="M 12,6 C 8.676,6 6,8.676 6,12 l 0,2 0,68 0,2 c 0,0.334721 0.04135,0.6507 0.09375,0.96875 0.0487,0.295596 0.09704,0.596915 0.1875,0.875 0.00988,0.03038 0.020892,0.0636 0.03125,0.09375 0.098865,0.287771 0.2348802,0.547452 0.375,0.8125 0.1445918,0.273507 0.3156161,0.535615 0.5,0.78125 0.1843839,0.245635 0.3737765,0.473472 0.59375,0.6875 0.439947,0.428056 0.94291,0.814526 1.5,1.09375 0.278545,0.139612 0.5734731,0.246947 0.875,0.34375 -0.2562018,-0.100222 -0.4867109,-0.236272 -0.71875,-0.375 -0.00741,-0.0044 -0.023866,0.0045 -0.03125,0 -0.031933,-0.0193 -0.062293,-0.04251 -0.09375,-0.0625 -0.120395,-0.0767 -0.2310226,-0.163513 -0.34375,-0.25 -0.1061728,-0.0808 -0.2132809,-0.161112 -0.3125,-0.25 C 8.4783201,88.557317 8.3087904,88.373362 8.15625,88.1875 8.0486711,88.057245 7.9378561,87.922215 7.84375,87.78125 7.818661,87.74287 7.805304,87.69538 7.78125,87.65625 7.716487,87.553218 7.6510225,87.451733 7.59375,87.34375 7.4927417,87.149044 7.3880752,86.928049 7.3125,86.71875 7.30454,86.69694 7.288911,86.6782 7.28125,86.65625 7.2494249,86.5643 7.2454455,86.469419 7.21875,86.375 7.1884177,86.268382 7.1483606,86.171969 7.125,86.0625 7.0521214,85.720988 7,85.364295 7,85 L 7,83 7,15 7,13 C 7,10.218152 9.2181517,8 12,8 l 2,0 68,0 2,0 c 2.781848,0 5,2.218152 5,5 l 0,2 0,68 0,2 c 0,0.364295 -0.05212,0.720988 -0.125,1.0625 -0.04415,0.206893 -0.08838,0.397658 -0.15625,0.59375 -0.0077,0.02195 -0.0233,0.04069 -0.03125,0.0625 -0.06274,0.173739 -0.138383,0.367449 -0.21875,0.53125 -0.04158,0.0828 -0.07904,0.169954 -0.125,0.25 -0.0546,0.09721 -0.126774,0.18835 -0.1875,0.28125 -0.09411,0.140965 -0.204921,0.275995 -0.3125,0.40625 -0.143174,0.17445 -0.303141,0.346998 -0.46875,0.5 -0.01117,0.0102 -0.01998,0.02115 -0.03125,0.03125 -0.138386,0.125556 -0.285091,0.234436 -0.4375,0.34375 -0.102571,0.07315 -0.204318,0.153364 -0.3125,0.21875 -0.0074,0.0045 -0.02384,-0.0044 -0.03125,0 -0.232039,0.138728 -0.462548,0.274778 -0.71875,0.375 0.301527,-0.0968 0.596455,-0.204138 0.875,-0.34375 0.55709,-0.279224 1.060053,-0.665694 1.5,-1.09375 0.219973,-0.214028 0.409366,-0.441865 0.59375,-0.6875 0.184384,-0.245635 0.355408,-0.507743 0.5,-0.78125 0.14012,-0.265048 0.276135,-0.524729 0.375,-0.8125 0.01041,-0.03078 0.02133,-0.06274 0.03125,-0.09375 0.09046,-0.278085 0.1388,-0.579404 0.1875,-0.875 C 89.95865,84.6507 90,84.334721 90,84 l 0,-2 0,-68 0,-2 C 90,8.676 87.324,6 84,6 L 12,6 z"
       inkscape:connector-curvature="0"
       id="rect3728"
       style="opacity:0.15;fill:url(#linearGradient3188);fill-opacity:1;fill-rule:nonzero;stroke:none" />
    <path
       d="M 12,90 C 8.676,90 6,87.324 6,84 L 6,82 6,14 6,12 c 0,-0.334721 0.04135,-0.6507 0.09375,-0.96875 0.0487,-0.295596 0.09704,-0.596915 0.1875,-0.875 C 6.29115,10.12587 6.30214,10.09265 6.3125,10.0625 6.41136,9.774729 6.54738,9.515048 6.6875,9.25 6.832092,8.976493 7.003116,8.714385 7.1875,8.46875 7.371884,8.223115 7.561276,7.995278 7.78125,7.78125 8.221197,7.353194 8.72416,6.966724 9.28125,6.6875 9.559795,6.547888 9.854723,6.440553 10.15625,6.34375 9.900048,6.443972 9.669539,6.580022 9.4375,6.71875 c -0.0074,0.0044 -0.02387,-0.0045 -0.03125,0 -0.03193,0.0193 -0.06229,0.04251 -0.09375,0.0625 -0.120395,0.0767 -0.231023,0.163513 -0.34375,0.25 -0.106173,0.0808 -0.213281,0.161112 -0.3125,0.25 C 8.47832,7.442683 8.30879,7.626638 8.15625,7.8125 8.048671,7.942755 7.937856,8.077785 7.84375,8.21875 7.81866,8.25713 7.8053,8.30462 7.78125,8.34375 7.71649,8.446782 7.651022,8.548267 7.59375,8.65625 7.492742,8.850956 7.388075,9.071951 7.3125,9.28125 7.3045,9.30306 7.28891,9.3218 7.28125,9.34375 7.24942,9.4357 7.24545,9.530581 7.21875,9.625 7.188418,9.731618 7.148361,9.828031 7.125,9.9375 7.052121,10.279012 7,10.635705 7,11 l 0,2 0,68 0,2 c 0,2.781848 2.218152,5 5,5 l 2,0 68,0 2,0 c 2.781848,0 5,-2.218152 5,-5 l 0,-2 0,-68 0,-2 C 89,10.635705 88.94788,10.279012 88.875,9.9375 88.83085,9.730607 88.78662,9.539842 88.71875,9.34375 88.71105,9.3218 88.69545,9.30306 88.6875,9.28125 88.62476,9.107511 88.549117,8.913801 88.46875,8.75 88.42717,8.6672 88.38971,8.580046 88.34375,8.5 88.28915,8.40279 88.216976,8.31165 88.15625,8.21875 88.06214,8.077785 87.951329,7.942755 87.84375,7.8125 87.700576,7.63805 87.540609,7.465502 87.375,7.3125 87.36383,7.3023 87.35502,7.29135 87.34375,7.28125 87.205364,7.155694 87.058659,7.046814 86.90625,6.9375 86.803679,6.86435 86.701932,6.784136 86.59375,6.71875 c -0.0074,-0.0045 -0.02384,0.0044 -0.03125,0 -0.232039,-0.138728 -0.462548,-0.274778 -0.71875,-0.375 0.301527,0.0968 0.596455,0.204138 0.875,0.34375 0.55709,0.279224 1.060053,0.665694 1.5,1.09375 0.219973,0.214028 0.409366,0.441865 0.59375,0.6875 0.184384,0.245635 0.355408,0.507743 0.5,0.78125 0.14012,0.265048 0.276135,0.524729 0.375,0.8125 0.01041,0.03078 0.02133,0.06274 0.03125,0.09375 0.09046,0.278085 0.1388,0.579404 0.1875,0.875 C 89.95865,11.3493 90,11.665279 90,12 l 0,2 0,68 0,2 c 0,3.324 -2.676,6 -6,6 l -72,0 z"
       inkscape:connector-curvature="0"
       id="path3615"
       style="opacity:0.1;fill:url(#radialGradient3619);fill-opacity:1;fill-rule:nonzero;stroke:none" />
    <path
       d="M 12,6 C 8.676,6 6,8.676 6,12 l 0,4 20,0 0,-10 -14,0 z"
       inkscape:connector-curvature="0"
       id="rect3822"
       style="fill:#d91f1c;fill-opacity:1;fill-rule:nonzero;stroke:none" />
    <path
       d="M 26,6 26,16 48,16 48,6 26,6 z"
       inkscape:connector-curvature="0"
       id="path3829"
       style="fill:#4776ec;fill-opacity:1;fill-rule:nonzero;stroke:none" />
    <path
       d="M 48,6 48,16 70,16 70,6 48,6 z"
       inkscape:connector-curvature="0"
       id="path3831"
       style="fill:#22a938;fill-opacity:1;fill-rule:nonzero;stroke:none" />
    <path
       d="m 70,6 0,10 20,0 0,-4 C 90,8.676 87.324,6 84,6 z"
       inkscape:connector-curvature="0"
       id="path3833"
       style="fill:#eeb91c;fill-opacity:1;fill-rule:nonzero;stroke:none" />
    <rect
       width="84"
       height="3"
       x="6"
       y="16"
       id="rect3879"
       style="opacity:0.3;color:#000000;fill:url(#linearGradient3887);fill-opacity:1;fill-rule:nonzero;stroke:none;stroke-width:2;marker:none;visibility:visible;display:inline;overflow:visible;enable-background:accumulate" />
    <path
       d="M 12,6 C 8.676,6 6,8.676 6,12 l 0,2 20,0 22,0 22,0 20,0 0,-2 C 90,8.676 87.324,6 84,6 L 70,6 48,6 26,6 z"
       inkscape:connector-curvature="0"
       id="path3985"
       style="opacity:0.3;fill:url(#linearGradient4000);fill-opacity:1;fill-rule:nonzero;stroke:none" />
    <path
       d="M 12,6 C 8.676,6 6,8.676 6,12 l 0,2 0,2 1,0 0,-1 0,-2 C 7,10.218152 9.2181517,8 12,8 l 2,0 68,0 2,0 c 2.781848,0 5,2.218152 5,5 l 0,2 0,1 1,0 0,-2 0,-2 C 90,8.676 87.324,6 84,6 L 26,6 12,6 z"
       inkscape:connector-curvature="0"
       id="path3889"
       style="opacity:0.2;fill:url(#linearGradient3902);fill-opacity:1;fill-rule:nonzero;stroke:none" />
  </g>
  <g
     id="layer5"
     style="display:inline">
    <rect
       width="66"
       height="66"
       rx="12"
       ry="12"
       x="15"
       y="15"
       clip-path="url(#clipPath3613)"
       id="rect3171"
       style="opacity:0.07999998;fill:url(#linearGradient3613);fill-opacity:1;fill-rule:nonzero;stroke:#ffffff;stroke-width:0.5;stroke-linecap:round;stroke-linejoin:miter;stroke-miterlimit:4;stroke-opacity:1;stroke-dasharray:none;stroke-dashoffset:0;filter:url(#filter3794)" />
  </g>
  <g
     id="layer4"
     style="display:inline">
    <path
       d="m 43.4375,29.0625 c -3.59288,0 -8.413622,0.536054 -12.5,3.90625 a 0.96731774,0.96731774 0 0 0 -0.21875,0.28125 0.96731774,0.96731774 0 0 0 -0.0625,0.09375 c -2.919307,2.669211 -4.437506,6.199479 -4.4375,9.5625 0,5.79217 4.57999,11.503505 11.9375,11.75 -0.034,0.185816 -0.09375,0.236939 -0.09375,0.46875 0,1.082942 0.272697,1.943901 0.625,2.71875 -2.802258,0.260239 -6.235232,0.792048 -9.46875,2.65625 A 0.96731774,0.96731774 0 0 0 29.125,60.53125 0.96731774,0.96731774 0 0 0 28.84375,60.625 C 24.55672,63.166749 23.0625,67.085515 23.0625,70 c 0,2.944497 1.449999,5.822345 4.125,7.8125 2.667151,1.984315 6.47158,3.124995 11.34375,3.125 11.556494,0 18.53125,-6.667972 18.53125,-13.84375 0,-2.562336 -0.824218,-4.64214 -2,-6.28125 -1.166035,-1.625522 -2.61131,-2.86367 -4,-4.03125 A 0.96731774,0.96731774 0 0 0 50.90625,56.6875 0.96731774,0.96731774 0 0 0 50.8125,56.625 l -2,-1.625 c -5e-5,-4.1e-5 -0.02833,0.0014 -0.03125,0 -0.01536,-0.01257 -0.01624,-0.01894 -0.03125,-0.03125 -0.339081,-0.278193 -0.625841,-0.497785 -0.75,-0.65625 -0.129654,-0.165478 -0.156249,-0.234823 -0.15625,-0.5 0,-0.241376 0.05401,-0.41242 0.25,-0.6875 0.195988,-0.27508 0.544777,-0.606082 0.96875,-1.03125 2.657057,-2.099335 5.84375,-5.016631 5.84375,-10.3125 l 0,-0.4375 0,-0.03125 c 0,-0.03515 0,-0.09375 0,-0.09375 a 0.96731774,0.96731774 0 0 0 0,-0.03125 L 54.875,40.78125 54.84375,40.4375 c 0,-2e-6 0,-0.03975 0,-0.09375 0,-0.036 0,-0.0625 0,-0.0625 a 0.96731774,0.96731774 0 0 0 0,-0.125 L 54.78125,39.75 A 0.96731774,0.96731774 0 0 0 54.75,39.65625 c 0,-10e-7 -0.02277,-0.0347 -0.03125,-0.0625 l 0,-0.03125 c -10e-7,-2e-6 -0.03125,-0.09375 -0.03125,-0.09375 l -0.03125,-0.125 0,-0.03125 A 0.96731774,0.96731774 0 0 0 54.625,39.21875 l 0,-0.15625 a 0.96731774,0.96731774 0 0 0 -0.03125,-0.15625 c 0,-2e-6 -0.03125,-0.09375 -0.03125,-0.09375 -10e-7,-2e-6 -0.03125,-0.09375 -0.03125,-0.09375 l -0.0625,-0.28125 c 0,-2e-6 -0.03125,-0.09375 -0.03125,-0.09375 -10e-7,-2e-6 -0.03125,-0.09375 -0.03125,-0.09375 l -0.125,-0.34375 -0.125,-0.34375 -0.125,-0.34375 L 53.9375,37 c 0,-2e-6 -0.03125,-0.09375 -0.03125,-0.09375 -10e-7,-2e-6 -0.03125,-0.09375 -0.03125,-0.09375 a 0.96731774,0.96731774 0 0 0 -0.03125,-0.09375 l -0.15625,-0.3125 a 0.96731774,0.96731774 0 0 0 -0.0625,-0.0625 l 0,-0.03125 A 0.96731774,0.96731774 0 0 0 53.5625,36.25 l -0.09375,-0.1875 -0.125,-0.21875 c 0,-10e-7 -0.01563,-0.03125 -0.03125,-0.0625 -0.01562,-0.03125 -0.03125,-0.0625 -0.03125,-0.0625 A 0.96731774,0.96731774 0 0 0 53.21875,35.625 L 53.15625,35.53125 53.125,35.46875 A 0.96731774,0.96731774 0 0 0 53.09375,35.4375 L 53.0625,35.40625 53.03125,35.3125 c -10e-7,-2e-6 -0.04766,-0.06117 -0.0625,-0.09375 -0.0037,-0.0081 0,-0.03125 0,-0.03125 -10e-7,-10e-7 -0.0145,-0.03182 -0.03125,-0.0625 0.03451,-0.01038 0.0625,-0.03125 0.0625,-0.03125 2e-6,-10e-7 0.124998,-0.0625 0.125,-0.0625 2e-6,-10e-7 0.124998,-0.03125 0.125,-0.03125 2e-6,-10e-7 0.09375,-0.0625 0.09375,-0.0625 l 4.03125,-2.25 c 2e-6,-10e-7 0.124998,-0.09375 0.125,-0.09375 2e-6,-10e-7 0.156248,-0.09375 0.15625,-0.09375 2e-6,-2e-6 0.09375,-0.09375 0.09375,-0.09375 2e-6,-2e-6 0.124998,-0.124998 0.125,-0.125 2e-6,-2e-6 0.09375,-0.124998 0.09375,-0.125 2e-6,-2e-6 0.09375,-0.124998 0.09375,-0.125 10e-7,-2e-6 0.09375,-0.124998 0.09375,-0.125 10e-7,-2e-6 0.0625,-0.156248 0.0625,-0.15625 10e-7,-2e-6 0.0625,-0.124997 0.0625,-0.125 10e-7,-3e-6 0.03125,-0.156247 0.03125,-0.15625 10e-7,-3e-6 0.03125,-0.156247 0.03125,-0.15625 0,-3e-6 0.03125,-0.156247 0.03125,-0.15625 0,-3e-6 0,-0.156247 0,-0.15625 0,-3e-6 0,-0.187497 0,-0.1875 0,-3e-6 -0.03125,-0.156247 -0.03125,-0.15625 0,-3e-6 -0.03125,-0.156247 -0.03125,-0.15625 -10e-7,-3e-6 -0.0625,-0.124997 -0.0625,-0.125 -10e-7,-3e-6 -0.03125,-0.156248 -0.03125,-0.15625 -10e-7,-2e-6 -0.09375,-0.156248 -0.09375,-0.15625 -10e-7,-2e-6 -0.0625,-0.124998 -0.0625,-0.125 -10e-7,-2e-6 -0.09375,-0.124998 -0.09375,-0.125 -2e-6,-2e-6 -0.124998,-0.124998 -0.125,-0.125 -2e-6,-2e-6 -0.09375,-0.124998 -0.09375,-0.125 -2e-6,-2e-6 -0.124998,-0.09375 -0.125,-0.09375 -2e-6,-2e-6 -0.124998,-0.09375 -0.125,-0.09375 -2e-6,-1e-6 -0.156248,-0.09375 -0.15625,-0.09375 -2e-6,-1e-6 -0.124998,-0.0625 -0.125,-0.0625 -2e-6,-1e-6 -0.156247,-0.0625 -0.15625,-0.0625 -3e-6,-1e-6 -0.156247,-0.03125 -0.15625,-0.03125 -3e-6,-1e-6 -0.156247,-0.03125 -0.15625,-0.03125 -3e-6,0 -0.156247,-0.03125 -0.15625,-0.03125 -3e-6,0 -0.156247,0 -0.15625,0 l -13,0 z m 22.21875,0 A 0.96731774,0.96731774 0 0 0 65.625,29.09375 c -3e-6,1e-6 -0.156247,0.03125 -0.15625,0.03125 -3e-6,1e-6 -0.156247,0.0625 -0.15625,0.0625 -3e-6,1e-6 -0.156247,0.0625 -0.15625,0.0625 -3e-6,1e-6 -0.156248,0.0625 -0.15625,0.0625 -2e-6,1e-6 -0.156248,0.09375 -0.15625,0.09375 -2e-6,2e-6 -0.124998,0.124998 -0.125,0.125 -2e-6,2e-6 -0.124998,0.09375 -0.125,0.09375 -2e-6,2e-6 -0.09375,0.156248 -0.09375,0.15625 -2e-6,2e-6 -0.09375,0.124998 -0.09375,0.125 -2e-6,2e-6 -0.09375,0.124998 -0.09375,0.125 -10e-7,2e-6 -0.09375,0.156247 -0.09375,0.15625 -10e-7,3e-6 -0.0625,0.156247 -0.0625,0.15625 -10e-7,3e-6 -0.03125,0.187497 -0.03125,0.1875 -10e-7,3e-6 -0.03125,0.156247 -0.03125,0.15625 0,3e-6 -0.03125,0.156247 -0.03125,0.15625 0,2e-6 9.21e-4,0.117158 0,0.15625 -1.84e-4,0.0078 0,0.03125 0,0.03125 l 0,6.03125 -6.0625,0 c -2e-6,0 -0.09375,0 -0.09375,0 -2e-6,0 -0.09375,0 -0.09375,0 -2e-6,0 -0.09375,0.03125 -0.09375,0.03125 -2e-6,0 -0.09375,0 -0.09375,0 -2e-6,0 -0.09375,0.03125 -0.09375,0.03125 -2e-6,0 -0.09375,0.03125 -0.09375,0.03125 -2e-6,0 -0.09375,0.03125 -0.09375,0.03125 -10e-7,10e-7 -0.09375,0.03125 -0.09375,0.03125 -10e-7,10e-7 -0.0625,0.03125 -0.0625,0.03125 -10e-7,10e-7 -0.09375,0.03125 -0.09375,0.03125 -10e-7,10e-7 -0.09375,0.0625 -0.09375,0.0625 -10e-7,10e-7 -0.0625,0.03125 -0.0625,0.03125 -10e-7,10e-7 -0.09375,0.0625 -0.09375,0.0625 -10e-7,10e-7 -0.0625,0.0625 -0.0625,0.0625 -10e-7,10e-7 -0.09375,0.0625 -0.09375,0.0625 -10e-7,10e-7 -0.0625,0.0625 -0.0625,0.0625 -10e-7,10e-7 -0.0625,0.0625 -0.0625,0.0625 -10e-7,10e-7 -0.0625,0.09375 -0.0625,0.09375 -10e-7,10e-7 -0.0625,0.0625 -0.0625,0.0625 -10e-7,10e-7 -0.0625,0.09375 -0.0625,0.09375 -10e-7,10e-7 -0.03125,0.0625 -0.03125,0.0625 -10e-7,10e-7 -0.0625,0.09375 -0.0625,0.09375 -10e-7,10e-7 -0.03125,0.09375 -0.03125,0.09375 -10e-7,10e-7 -0.03125,0.0625 -0.03125,0.0625 -10e-7,10e-7 -0.03125,0.09375 -0.03125,0.09375 -10e-7,10e-7 -0.03125,0.09375 -0.03125,0.09375 0,2e-6 -0.03125,0.09375 -0.03125,0.09375 0,2e-6 -0.03125,0.09375 -0.03125,0.09375 0,2e-6 0,0.09375 0,0.09375 0,2e-6 -0.03125,0.09375 -0.03125,0.09375 0,2e-6 0,0.09375 0,0.09375 0,2e-6 0,0.09375 0,0.09375 l 0,2 c 0,2e-6 0,0.09375 0,0.09375 0,2e-6 0,0.09375 0,0.09375 0,2e-6 0.03125,0.09375 0.03125,0.09375 0,2e-6 0,0.09375 0,0.09375 0,2e-6 0.03125,0.09375 0.03125,0.09375 0,2e-6 0.03125,0.09375 0.03125,0.09375 0,2e-6 0.03125,0.09375 0.03125,0.09375 10e-7,10e-7 0.03125,0.09375 0.03125,0.09375 10e-7,10e-7 0.03125,0.0625 0.03125,0.0625 10e-7,10e-7 0.03125,0.09375 0.03125,0.09375 10e-7,10e-7 0.0625,0.09375 0.0625,0.09375 10e-7,10e-7 0.03125,0.0625 0.03125,0.0625 10e-7,10e-7 0.0625,0.09375 0.0625,0.09375 10e-7,10e-7 0.0625,0.0625 0.0625,0.0625 10e-7,10e-7 0.0625,0.09375 0.0625,0.09375 10e-7,10e-7 0.0625,0.0625 0.0625,0.0625 10e-7,10e-7 0.0625,0.0625 0.0625,0.0625 10e-7,10e-7 0.09375,0.0625 0.09375,0.0625 10e-7,10e-7 0.0625,0.0625 0.0625,0.0625 10e-7,10e-7 0.09375,0.0625 0.09375,0.0625 10e-7,10e-7 0.0625,0.03125 0.0625,0.03125 10e-7,10e-7 0.09375,0.0625 0.09375,0.0625 10e-7,10e-7 0.09375,0.03125 0.09375,0.03125 10e-7,10e-7 0.0625,0.03125 0.0625,0.03125 10e-7,10e-7 0.09375,0.03125 0.09375,0.03125 10e-7,10e-7 0.09375,0.03125 0.09375,0.03125 2e-6,0 0.09375,0.03125 0.09375,0.03125 2e-6,0 0.09375,0.03125 0.09375,0.03125 2e-6,0 0.09375,0 0.09375,0 2e-6,0 0.09375,0.03125 0.09375,0.03125 2e-6,0 0.09375,0 0.09375,0 2e-6,0 0.09375,0 0.09375,0 l 6.0625,0 0,6.0625 c 0,2e-6 0,0.09375 0,0.09375 0,2e-6 0,0.09375 0,0.09375 0,2e-6 0.03125,0.09375 0.03125,0.09375 0,2e-6 0,0.09375 0,0.09375 0,2e-6 0.03125,0.09375 0.03125,0.09375 0,2e-6 0.03125,0.09375 0.03125,0.09375 0,2e-6 0.03125,0.09375 0.03125,0.09375 10e-7,10e-7 0.03125,0.09375 0.03125,0.09375 10e-7,10e-7 0.03125,0.0625 0.03125,0.0625 10e-7,10e-7 0.03125,0.09375 0.03125,0.09375 10e-7,10e-7 0.0625,0.09375 0.0625,0.09375 10e-7,10e-7 0.03125,0.0625 0.03125,0.0625 10e-7,10e-7 0.0625,0.09375 0.0625,0.09375 10e-7,10e-7 0.0625,0.0625 0.0625,0.0625 10e-7,10e-7 0.0625,0.09375 0.0625,0.09375 10e-7,10e-7 0.0625,0.0625 0.0625,0.0625 10e-7,10e-7 0.0625,0.0625 0.0625,0.0625 10e-7,10e-7 0.09375,0.0625 0.09375,0.0625 10e-7,10e-7 0.0625,0.0625 0.0625,0.0625 10e-7,10e-7 0.09375,0.0625 0.09375,0.0625 10e-7,10e-7 0.0625,0.03125 0.0625,0.03125 10e-7,10e-7 0.09375,0.0625 0.09375,0.0625 10e-7,10e-7 0.09375,0.03125 0.09375,0.03125 10e-7,10e-7 0.0625,0.03125 0.0625,0.03125 10e-7,10e-7 0.09375,0.03125 0.09375,0.03125 10e-7,10e-7 0.09375,0.03125 0.09375,0.03125 2e-6,0 0.09375,0.03125 0.09375,0.03125 2e-6,0 0.09375,0.03125 0.09375,0.03125 2e-6,0 0.09375,0 0.09375,0 2e-6,0 0.09375,0.03125 0.09375,0.03125 2e-6,0 0.09375,0 0.09375,0 2e-6,0 0.09375,0 0.09375,0 l 2,0 c 2e-6,0 0.09375,0 0.09375,0 2e-6,0 0.09375,0 0.09375,0 2e-6,0 0.09375,-0.03125 0.09375,-0.03125 2e-6,0 0.09375,0 0.09375,0 2e-6,0 0.09375,-0.03125 0.09375,-0.03125 2e-6,0 0.09375,-0.03125 0.09375,-0.03125 2e-6,0 0.09375,-0.03125 0.09375,-0.03125 10e-7,-10e-7 0.09375,-0.03125 0.09375,-0.03125 10e-7,-10e-7 0.0625,-0.03125 0.0625,-0.03125 10e-7,-10e-7 0.09375,-0.03125 0.09375,-0.03125 10e-7,-10e-7 0.09375,-0.0625 0.09375,-0.0625 10e-7,-10e-7 0.0625,-0.03125 0.0625,-0.03125 10e-7,-10e-7 0.09375,-0.0625 0.09375,-0.0625 10e-7,-10e-7 0.0625,-0.0625 0.0625,-0.0625 10e-7,-10e-7 0.09375,-0.0625 0.09375,-0.0625 10e-7,-10e-7 0.0625,-0.0625 0.0625,-0.0625 10e-7,-10e-7 0.0625,-0.0625 0.0625,-0.0625 10e-7,-10e-7 0.0625,-0.09375 0.0625,-0.09375 10e-7,-10e-7 0.0625,-0.0625 0.0625,-0.0625 10e-7,-10e-7 0.0625,-0.09375 0.0625,-0.09375 10e-7,-10e-7 0.03125,-0.0625 0.03125,-0.0625 10e-7,-10e-7 0.0625,-0.09375 0.0625,-0.09375 10e-7,-10e-7 0.03125,-0.09375 0.03125,-0.09375 10e-7,-10e-7 0.03125,-0.0625 0.03125,-0.0625 10e-7,-10e-7 0.03125,-0.09375 0.03125,-0.09375 10e-7,-10e-7 0.03125,-0.09375 0.03125,-0.09375 0,-2e-6 0.03125,-0.09375 0.03125,-0.09375 0,-2e-6 0.03125,-0.09375 0.03125,-0.09375 0,-2e-6 0,-0.09375 0,-0.09375 0,-2e-6 0.03125,-0.09375 0.03125,-0.09375 0,-2e-6 0,-0.09375 0,-0.09375 0,-2e-6 0,-0.09375 0,-0.09375 l 0,-6.0625 6.0625,0 c 2e-6,0 0.09375,0 0.09375,0 2e-6,0 0.09375,0 0.09375,0 2e-6,0 0.09375,-0.03125 0.09375,-0.03125 2e-6,0 0.09375,0 0.09375,0 2e-6,0 0.09375,-0.03125 0.09375,-0.03125 2e-6,0 0.09375,-0.03125 0.09375,-0.03125 2e-6,0 0.09375,-0.03125 0.09375,-0.03125 10e-7,-10e-7 0.09375,-0.03125 0.09375,-0.03125 10e-7,-10e-7 0.0625,-0.03125 0.0625,-0.03125 10e-7,-10e-7 0.09375,-0.03125 0.09375,-0.03125 10e-7,-10e-7 0.09375,-0.0625 0.09375,-0.0625 10e-7,-10e-7 0.0625,-0.03125 0.0625,-0.03125 10e-7,-10e-7 0.09375,-0.0625 0.09375,-0.0625 10e-7,-10e-7 0.0625,-0.0625 0.0625,-0.0625 10e-7,-10e-7 0.09375,-0.0625 0.09375,-0.0625 10e-7,-10e-7 0.0625,-0.0625 0.0625,-0.0625 10e-7,-10e-7 0.0625,-0.0625 0.0625,-0.0625 10e-7,-10e-7 0.0625,-0.09375 0.0625,-0.09375 10e-7,-10e-7 0.0625,-0.0625 0.0625,-0.0625 10e-7,-10e-7 0.0625,-0.09375 0.0625,-0.09375 10e-7,-10e-7 0.03125,-0.0625 0.03125,-0.0625 10e-7,-10e-7 0.0625,-0.09375 0.0625,-0.09375 10e-7,-10e-7 0.03125,-0.09375 0.03125,-0.09375 10e-7,-10e-7 0.03125,-0.0625 0.03125,-0.0625 10e-7,-10e-7 0.03125,-0.09375 0.03125,-0.09375 10e-7,-10e-7 0.03125,-0.09375 0.03125,-0.09375 0,-2e-6 0.03125,-0.09375 0.03125,-0.09375 0,-2e-6 0.03125,-0.09375 0.03125,-0.09375 0,-2e-6 0,-0.09375 0,-0.09375 0,-2e-6 0.03125,-0.09375 0.03125,-0.09375 0,-2e-6 0,-0.09375 0,-0.09375 0,-2e-6 0,-0.09375 0,-0.09375 l 0,-2 c 0,-2e-6 0,-0.09375 0,-0.09375 0,-2e-6 0,-0.09375 0,-0.09375 0,-2e-6 -0.03125,-0.09375 -0.03125,-0.09375 0,-2e-6 0,-0.09375 0,-0.09375 0,-2e-6 -0.03125,-0.09375 -0.03125,-0.09375 0,-2e-6 -0.03125,-0.09375 -0.03125,-0.09375 0,-2e-6 -0.03125,-0.09375 -0.03125,-0.09375 -10e-7,-10e-7 -0.03125,-0.09375 -0.03125,-0.09375 -10e-7,-10e-7 -0.03125,-0.0625 -0.03125,-0.0625 -10e-7,-10e-7 -0.03125,-0.09375 -0.03125,-0.09375 -10e-7,-10e-7 -0.0625,-0.09375 -0.0625,-0.09375 -10e-7,-10e-7 -0.03125,-0.0625 -0.03125,-0.0625 -10e-7,-10e-7 -0.0625,-0.09375 -0.0625,-0.09375 -10e-7,-10e-7 -0.0625,-0.0625 -0.0625,-0.0625 -10e-7,-10e-7 -0.0625,-0.09375 -0.0625,-0.09375 -10e-7,-10e-7 -0.0625,-0.0625 -0.0625,-0.0625 -10e-7,-10e-7 -0.0625,-0.0625 -0.0625,-0.0625 -10e-7,-10e-7 -0.09375,-0.0625 -0.09375,-0.0625 -10e-7,-10e-7 -0.0625,-0.0625 -0.0625,-0.0625 -10e-7,-10e-7 -0.09375,-0.0625 -0.09375,-0.0625 -10e-7,-10e-7 -0.0625,-0.03125 -0.0625,-0.03125 -10e-7,-10e-7 -0.09375,-0.0625 -0.09375,-0.0625 -10e-7,-10e-7 -0.09375,-0.03125 -0.09375,-0.03125 -10e-7,-10e-7 -0.0625,-0.03125 -0.0625,-0.03125 -10e-7,-10e-7 -0.09375,-0.03125 -0.09375,-0.03125 -10e-7,-10e-7 -0.09375,-0.03125 -0.09375,-0.03125 -2e-6,0 -0.09375,-0.03125 -0.09375,-0.03125 -2e-6,0 -0.09375,-0.03125 -0.09375,-0.03125 -2e-6,0 -0.09375,0 -0.09375,0 -2e-6,0 -0.09375,-0.03125 -0.09375,-0.03125 -2e-6,0 -0.09375,0 -0.09375,0 -2e-6,0 -0.09375,0 -0.09375,0 l -6.0625,0 0,-6.0625 c 0,-2e-6 0,-0.09375 0,-0.09375 0,-2e-6 0,-0.09375 0,-0.09375 0,-2e-6 -0.03125,-0.09375 -0.03125,-0.09375 0,-2e-6 0,-0.09375 0,-0.09375 0,-2e-6 -0.03125,-0.09375 -0.03125,-0.09375 0,-2e-6 -0.03125,-0.09375 -0.03125,-0.09375 0,-2e-6 -0.03125,-0.09375 -0.03125,-0.09375 -10e-7,-1e-6 -0.03125,-0.09375 -0.03125,-0.09375 -10e-7,-1e-6 -0.03125,-0.0625 -0.03125,-0.0625 -10e-7,-1e-6 -0.03125,-0.09375 -0.03125,-0.09375 -10e-7,-1e-6 -0.0625,-0.09375 -0.0625,-0.09375 -10e-7,-1e-6 -0.03125,-0.0625 -0.03125,-0.0625 -10e-7,-1e-6 -0.0625,-0.09375 -0.0625,-0.09375 -10e-7,-1e-6 -0.0625,-0.0625 -0.0625,-0.0625 -10e-7,-1e-6 -0.0625,-0.09375 -0.0625,-0.09375 -10e-7,-1e-6 -0.0625,-0.0625 -0.0625,-0.0625 -10e-7,-1e-6 -0.0625,-0.0625 -0.0625,-0.0625 -10e-7,-1e-6 -0.09375,-0.0625 -0.09375,-0.0625 -10e-7,-1e-6 -0.0625,-0.0625 -0.0625,-0.0625 -10e-7,-1e-6 -0.09375,-0.0625 -0.09375,-0.0625 -10e-7,-1e-6 -0.0625,-0.03125 -0.0625,-0.03125 -10e-7,-1e-6 -0.09375,-0.0625 -0.09375,-0.0625 -10e-7,-1e-6 -0.09375,-0.03125 -0.09375,-0.03125 -10e-7,-1e-6 -0.0625,-0.03125 -0.0625,-0.03125 -10e-7,-1e-6 -0.09375,-0.03125 -0.09375,-0.03125 -10e-7,-1e-6 -0.09375,-0.03125 -0.09375,-0.03125 -2e-6,0 -0.09375,-0.03125 -0.09375,-0.03125 -2e-6,0 -0.09375,-0.03125 -0.09375,-0.03125 -2e-6,0 -0.09375,0 -0.09375,0 -2e-6,0 -0.09375,-0.03125 -0.09375,-0.03125 -2e-6,0 -0.09375,0 -0.09375,0 -2e-6,0 -0.09375,0 -0.09375,0 l -1.96875,0 c -10e-7,0 -0.01925,0 -0.03125,0 -0.024,0 -0.0265,0 -0.0625,0 -10e-7,0 -0.0265,0 -0.0625,0 -0.054,0 -0.09375,0 -0.09375,0 a 0.96731774,0.96731774 0 0 0 -0.125,0 z M 39.5,35 c 1.754868,0 3.117083,1.108378 4.25,3.09375 1.122771,1.967591 1.750005,4.688208 1.75,6.5625 l 0,0.09375 0,0.03125 c -0.0056,0.03509 0,0.09375 0,0.09375 0,2e-6 -0.03125,0.124998 -0.03125,0.125 0,2e-6 0,0.124998 0,0.125 l 0,0.125 c -0.0021,0.0091 0,0.03125 0,0.03125 l 0,0.09375 0,0.03125 c -0.0011,0.0093 0.0015,0.01835 0,0.03125 -0.0033,0.02902 -0.03125,0.0625 -0.03125,0.0625 -0.0065,0.02889 0,0.0625 0,0.0625 -9.19e-4,0.01637 0,0.03125 0,0.03125 a 0.96731774,0.96731774 0 0 0 0,0.03125 c -0.0025,0.01559 0.0019,0.01955 0,0.03125 -0.0019,0.0117 0,0.03125 0,0.03125 0,2e-6 -0.03125,0.124998 -0.03125,0.125 a 0.96731774,0.96731774 0 0 0 0,0.0625 c -8.34e-4,0.03156 0,0.0625 0,0.0625 a 0.96731774,0.96731774 0 0 0 -0.03125,0.125 0.96731774,0.96731774 0 0 0 0,0.03125 l 0,0.0625 c 0,0.03125 0,0.0625 0,0.0625 l -0.03125,0.09375 -0.0625,0.15625 -0.0625,0.15625 a 0.96731774,0.96731774 0 0 0 -0.03125,0.0625 c 0,10e-7 0.0069,0.03429 0,0.0625 l -0.03125,0.03125 a 0.96731774,0.96731774 0 0 0 -0.03125,0.0625 c -10e-7,3e-6 -0.0625,0.156247 -0.0625,0.15625 -10e-7,2e-6 -0.01541,0.04854 -0.03125,0.09375 C 45.020071,47.125661 45,47.156249 45,47.15625 L 44.9375,47.25 44.84375,47.40625 a 0.96731774,0.96731774 0 0 0 0,0.03125 0.96731774,0.96731774 0 0 0 -0.03125,0.03125 l -0.03125,0.0625 A 0.96731774,0.96731774 0 0 0 44.75,47.59375 c -0.0045,0.0042 0,0.03125 0,0.03125 l -0.03125,0.03125 A 0.96731774,0.96731774 0 0 0 44.6875,47.6875 l -0.03125,0.03125 a 0.96731774,0.96731774 0 0 0 -0.0625,0.0625 c -10e-7,10e-7 -0.03268,0.02982 -0.0625,0.0625 a 0.96731774,0.96731774 0 0 0 0,0.03125 l -0.0625,0.03125 c -0.548354,0.547414 -1.978681,1.1875 -2.90625,1.1875 -1.888551,0 -3.188259,-1.104021 -4.28125,-3.03125 -1.080436,-1.90509 -1.65625,-4.526998 -1.65625,-6.25 0,-1.372578 0.289999,-2.629255 0.96875,-3.46875 C 37.148571,35.650304 38.550355,35 39.5,35 z m 3.0625,28.125 0.0625,0 0.0625,0 0.0625,0 0.0625,0 0.03125,0 0.0625,0 0.03125,0 0.0625,0 0.0625,0 0.03125,0 0.09375,0 0.09375,0 c 0.01455,0.0035 0.01714,-0.0034 0.03125,0 0.01411,0.0034 0.02199,-0.0023 0.03125,0 2.067582,1.484272 3.651283,2.743355 4.46875,3.65625 0.921059,1.02858 1.156248,1.5662 1.15625,2.78125 0,1.435705 -0.485441,2.433238 -1.625,3.3125 -1.122281,0.865931 -3.00128,1.53125 -5.71875,1.53125 -3.058575,0 -5.436734,-0.748909 -6.9375,-1.8125 C 33.170463,71.518628 32.5,70.285194 32.5,68.65625 c 0,-1.675278 0.618271,-2.505248 1.5,-3.25 0.845843,-0.714441 1.917836,-1.16035 2.59375,-1.40625 0.0063,-0.0023 0.02501,0.0023 0.03125,0 2.207943,-0.730012 5.706266,-0.875 5.9375,-0.875 z"
       id="path3977"
       style="font-style:normal;font-variant:normal;font-weight:normal;font-stretch:normal;letter-spacing:normal;word-spacing:normal;text-anchor:start;opacity:0.05;fill:#000000;fill-opacity:1;fill-rule:nonzero;stroke:#0099ff;stroke-width:0;stroke-linecap:butt;stroke-linejoin:miter;stroke-miterlimit:10.43299961;stroke-opacity:1;stroke-dasharray:none;stroke-dashoffset:0" />
    <path
       d="m 43.4375,30.03125 c -3.496553,0 -8.037229,0.52234 -11.875,3.6875 a 0.96731774,0.96731774 0 0 0 0,0.03125 c -2.922426,2.514775 -4.375006,5.964932 -4.375,9.15625 0,5.409841 4.281369,10.843761 11.4375,10.84375 0.248838,0 0.500604,-0.01723 0.75,-0.03125 -0.134649,0.458936 -0.343747,0.78471 -0.34375,1.40625 0,1.497889 0.551358,2.568998 1.15625,3.5 -2.996307,0.223068 -7.238919,0.665392 -10.84375,2.875 l 0,-0.03125 c -4.000399,2.371808 -5.3125,5.943744 -5.3125,8.53125 0,2.634955 1.264905,5.205631 3.71875,7.03125 2.453845,1.825619 6.060967,2.937495 10.78125,2.9375 11.191999,0 17.5625,-6.32651 17.5625,-12.875 0,-2.361614 -0.735139,-4.216845 -1.8125,-5.71875 -1.077361,-1.501905 -2.458384,-2.678964 -3.84375,-3.84375 a 0.96731774,0.96731774 0 0 0 -0.03125,0 L 48.1875,55.75 c -0.0066,-0.0054 -0.02467,0.0054 -0.03125,0 -0.707944,-0.579532 -1.281247,-1.009004 -1.28125,-1.9375 0,-0.937764 0.661733,-1.565621 1.5,-2.40625 2.640617,-2.07843 5.5625,-4.652689 5.5625,-9.625 l 0,-0.46875 a 0.96731774,0.96731774 0 0 0 0,-0.0625 L 53.90625,40.84375 53.875,40.40625 a 0.96731774,0.96731774 0 0 0 0,-0.09375 L 53.8125,39.90625 A 0.96731774,0.96731774 0 0 0 53.78125,39.8125 L 53.71875,39.53125 53.6875,39.4375 53.65625,39.15625 A 0.96731774,0.96731774 0 0 0 53.625,39.0625 l -0.09375,-0.375 A 0.96731774,0.96731774 0 0 0 53.5,38.59375 L 53.375,38.25 53.25,37.90625 53.125,37.5625 53,37.25 A 0.96731774,0.96731774 0 0 0 52.96875,37.15625 L 52.8125,36.84375 A 0.96731774,0.96731774 0 0 0 52.78125,36.8125 L 52.625,36.53125 52.46875,36.25 A 0.96731774,0.96731774 0 0 0 52.4375,36.1875 L 52.28125,35.96875 52.25,35.90625 52.125,35.6875 a 0.96731774,0.96731774 0 0 0 -0.0625,-0.125 l -0.1875,-0.25 -0.1875,-0.21875 0,-0.03125 -0.15625,-0.1875 a 0.96731774,0.96731774 0 0 0 -0.0625,-0.0625 L 51.28125,34.59375 51.09375,34.375 A 0.96731774,0.96731774 0 0 0 51.0625,34.3125 l -0.09375,-0.09375 1.4375,0 a 0.96731774,0.96731774 0 0 0 0.46875,-0.125 l 4.03125,-2.25 a 0.96731774,0.96731774 0 0 0 -0.46875,-1.8125 l -13,0 z m 22.46875,0 A 0.96731774,0.96731774 0 0 0 65.03125,31 l 0,7.03125 -7.03125,0 A 0.96731774,0.96731774 0 0 0 57.03125,39 l 0,2 A 0.96731774,0.96731774 0 0 0 58,41.96875 l 7.03125,0 0,7.03125 A 0.96731774,0.96731774 0 0 0 66,49.96875 l 2,0 A 0.96731774,0.96731774 0 0 0 68.96875,49 l 0,-7.03125 7.03125,0 A 0.96731774,0.96731774 0 0 0 76.96875,41 l 0,-2 A 0.96731774,0.96731774 0 0 0 76,38.03125 l -7.03125,0 0,-7.03125 A 0.96731774,0.96731774 0 0 0 68,30.03125 l -2,0 a 0.96731774,0.96731774 0 0 0 -0.09375,0 z m -26.40625,4 c 2.180481,0 3.864316,1.439238 5.09375,3.59375 1.229434,2.154512 1.875005,4.956334 1.875,7.03125 l 0,0.125 0,0.09375 a 0.96731774,0.96731774 0 0 0 -0.03125,0.25 l 0,0.125 0,0.125 0,0.03125 a 0.96731774,0.96731774 0 0 0 -0.03125,0.21875 0.96731774,0.96731774 0 0 0 0,0.03125 l 0,0.03125 a 0.96731774,0.96731774 0 0 0 -0.03125,0.25 l 0,0.0625 0,0.0625 -0.03125,0.0625 a 0.96731774,0.96731774 0 0 0 0,0.0625 L 46.3125,46.34375 46.28125,46.5 46.25,46.65625 46.1875,46.8125 46.125,46.96875 A 0.96731774,0.96731774 0 0 0 46.09375,47.125 L 46,47.28125 a 0.96731774,0.96731774 0 0 0 -0.0625,0.15625 l -0.0625,0.15625 -0.09375,0.15625 -0.09375,0.15625 -0.03125,0.0625 -0.0625,0.09375 0,0.03125 -0.125,0.15625 A 0.96731774,0.96731774 0 0 0 45.375,48.34375 l 0,0.03125 -0.03125,0.03125 a 0.96731774,0.96731774 0 0 0 -0.125,0.125 l -0.0625,0.0625 c -0.793278,0.791919 -2.322794,1.46875 -3.59375,1.46875 -2.292448,0 -3.936683,-1.435937 -5.125,-3.53125 -1.188317,-2.095313 -1.78125,-4.796817 -1.78125,-6.71875 0,-1.505355 0.309976,-2.977157 1.1875,-4.0625 0.795446,-0.994194 2.349165,-1.71875 3.65625,-1.71875 z m 3.0625,28.125 0.0625,0 0.0625,0 0.0625,0 0.0625,0 0.03125,0 0.0625,0 0.03125,0 0.0625,0 0.0625,0 0.03125,0 0.09375,0 0.09375,0 0.0625,0 0.09375,0 a 0.96731774,0.96731774 0 0 0 0.0625,0 0.96731774,0.96731774 0 0 0 0.15625,0.03125 c 0.0087,0.0062 0.02256,-0.0062 0.03125,0 2.232083,1.592169 3.875381,2.856087 4.84375,3.9375 1.009998,1.127901 1.406248,2.039663 1.40625,3.4375 0,1.686116 -0.654796,3.055816 -2,4.09375 -1.345204,1.037934 -3.44209,1.71875 -6.3125,1.71875 -3.216216,0 -5.787404,-0.786286 -7.5,-2 -1.712596,-1.213714 -2.59375,-2.794528 -2.59375,-4.71875 0,-1.947634 0.82264,-3.13752 1.84375,-4 1.012643,-0.855329 2.215977,-1.312025 2.90625,-1.5625 0.0094,-0.0031 0.02179,0.0031 0.03125,0 2.431814,-0.80403 5.819057,-0.9375 6.25,-0.9375 z"
       id="path3973"
       style="font-style:normal;font-variant:normal;font-weight:normal;font-stretch:normal;letter-spacing:normal;word-spacing:normal;text-anchor:start;opacity:0.15;fill:#000000;fill-opacity:1;fill-rule:nonzero;stroke:#0099ff;stroke-width:0;stroke-linecap:butt;stroke-linejoin:miter;stroke-miterlimit:10.43299961;stroke-opacity:1;stroke-dasharray:none;stroke-dashoffset:0" />
    <path
       d="m 43.4375,31 c -3.400216,0 -7.660082,0.508004 -11.25,3.46875 -2.707528,2.329853 -4.031255,5.540854 -4.03125,8.4375 0,4.912071 3.791914,9.87501 10.46875,9.875 0.629457,0 1.307313,-0.06439 2,-0.125 -0.316164,0.755635 -0.624995,1.398734 -0.625,2.46875 0,1.951325 0.992606,3.147278 1.875,4.28125 -2.833995,0.189753 -8.12804,0.513748 -12.03125,2.90625 C 26.124494,64.51762 25,67.732231 25,70 c 0,4.661722 4.396932,8.99999 13.53125,9 10.835861,0 16.59375,-5.984759 16.59375,-11.90625 0,-4.346122 -2.541741,-6.482906 -5.3125,-8.8125 L 47.5625,56.5 c -0.692688,-0.568128 -1.656245,-1.301951 -1.65625,-2.6875 0,-1.386528 0.964967,-2.275167 1.78125,-3.09375 2.647168,-2.078064 5.28125,-4.275779 5.28125,-8.9375 l 0,-0.46875 -0.03125,-0.40625 -0.03125,-0.4375 -0.0625,-0.40625 -0.09375,-0.375 -0.0625,-0.375 -0.09375,-0.375 -0.125,-0.34375 -0.125,-0.34375 -0.125,-0.34375 -0.125,-0.3125 L 51.9375,37.28125 51.78125,37 51.625,36.71875 51.4375,36.4375 l -0.15625,-0.28125 -0.1875,-0.25 -0.1875,-0.25 L 50.75,35.4375 50.5625,35.21875 50.375,35 50.1875,34.8125 50,34.59375 49.8125,34.40625 49.625,34.25 49.4375,34.09375 49.28125,33.9375 49.09375,33.78125 48.9375,33.625 48.78125,33.5 48.65625,33.375 48.5,33.25 l 3.90625,0 4.03125,-2.25 -13,0 z M 66,31 l 0,8 -8,0 0,2 8,0 0,8 2,0 0,-8 8,0 0,-2 -8,0 0,-8 -2,0 z m -26.5,2.0625 c 5.231102,0 7.93751,7.059075 7.9375,11.59375 l 0,0.125 0,0.09375 0,0.125 -0.03125,0.125 0,0.125 0,0.125 0,0.15625 -0.03125,0.125 0,0.15625 -0.03125,0.125 0,0.15625 L 47.3125,46.25 47.28125,46.375 47.25,46.53125 47.21875,46.6875 47.1875,46.84375 47.15625,47 47.09375,47.15625 47.03125,47.3125 47,47.46875 46.9375,47.625 l -0.09375,0.15625 -0.0625,0.15625 -0.0625,0.15625 -0.09375,0.15625 -0.09375,0.15625 -0.09375,0.15625 -0.09375,0.125 -0.125,0.15625 L 46.125,49 l -0.15625,0.125 -0.125,0.15625 c -1.008855,1.007126 -2.706172,1.75 -4.28125,1.75 -5.417928,0 -7.875,-6.999387 -7.875,-11.21875 0,-1.638029 0.337034,-3.333817 1.40625,-4.65625 C 36.102607,33.895323 37.864554,33.0625 39.5,33.0625 z m 3.0625,28.125 0.0625,0 0.0625,0 0.0625,0 0.0625,0 0.03125,0 0.0625,0 0.03125,0 0.0625,0 0.0625,0 0.03125,0 0.09375,0 0.09375,0 0.0625,0 0.09375,0 0.0625,0 0.09375,0 0.09375,0 0.0625,0.03125 0.09375,0 0.09375,0 0.03125,0 0.0625,0.03125 c 4.788471,3.403095 6.874995,5.098247 6.875,8.3125 0,3.906077 -3.23386,6.78125 -9.28125,6.78125 -6.740081,0 -11.0625,-3.215772 -11.0625,-7.6875 0,-4.47432 4.018,-5.965758 5.40625,-6.46875 2.644298,-0.882682 6.027529,-1 6.59375,-1 z"
       inkscape:connector-curvature="0"
       id="path3969"
       style="font-style:normal;font-variant:normal;font-weight:normal;font-stretch:normal;letter-spacing:normal;word-spacing:normal;text-anchor:start;opacity:0.3;fill:#000000;fill-opacity:1;fill-rule:nonzero;stroke:#0099ff;stroke-width:0;stroke-linecap:butt;stroke-linejoin:miter;stroke-miterlimit:10.43299961;stroke-opacity:1;stroke-dasharray:none;stroke-dashoffset:0" />
    <path
       d="m 43.4375,30 c -3.400216,0 -7.660082,0.508004 -11.25,3.46875 -2.707528,2.329853 -4.031255,5.540854 -4.03125,8.4375 0,4.912071 3.791914,9.87501 10.46875,9.875 0.629457,0 1.307313,-0.06439 2,-0.125 -0.316164,0.755635 -0.624995,1.398734 -0.625,2.46875 0,1.951325 0.992606,3.147278 1.875,4.28125 -2.833995,0.189753 -8.12804,0.513748 -12.03125,2.90625 C 26.124494,63.51762 25,66.732231 25,69 c 0,4.661722 4.396932,8.99999 13.53125,9 10.835861,0 16.59375,-5.984759 16.59375,-11.90625 0,-4.346122 -2.541741,-6.482906 -5.3125,-8.8125 L 47.5625,55.5 c -0.692688,-0.568128 -1.656245,-1.301951 -1.65625,-2.6875 0,-1.386528 0.964967,-2.275167 1.78125,-3.09375 2.647168,-2.078064 5.28125,-4.275779 5.28125,-8.9375 l 0,-0.46875 -0.03125,-0.40625 -0.03125,-0.4375 -0.0625,-0.40625 -0.09375,-0.375 -0.0625,-0.375 -0.09375,-0.375 -0.125,-0.34375 -0.125,-0.34375 -0.125,-0.34375 -0.125,-0.3125 L 51.9375,36.28125 51.78125,36 51.625,35.71875 51.4375,35.4375 l -0.15625,-0.28125 -0.1875,-0.25 -0.1875,-0.25 L 50.75,34.4375 50.5625,34.21875 50.375,34 50.1875,33.8125 50,33.59375 49.8125,33.40625 49.625,33.25 49.4375,33.09375 49.28125,32.9375 49.09375,32.78125 48.9375,32.625 48.78125,32.5 48.65625,32.375 48.5,32.25 l 3.90625,0 4.03125,-2.25 -13,0 z M 66,30 l 0,8 -8,0 0,2 8,0 0,8 2,0 0,-8 8,0 0,-2 -8,0 0,-8 -2,0 z m -26.5,2.0625 c 5.231102,0 7.93751,7.059075 7.9375,11.59375 l 0,0.125 0,0.09375 0,0.125 -0.03125,0.125 0,0.125 0,0.125 0,0.15625 -0.03125,0.125 0,0.15625 -0.03125,0.125 0,0.15625 L 47.3125,45.25 47.28125,45.375 47.25,45.53125 47.21875,45.6875 47.1875,45.84375 47.15625,46 47.09375,46.15625 47.03125,46.3125 47,46.46875 46.9375,46.625 l -0.09375,0.15625 -0.0625,0.15625 -0.0625,0.15625 -0.09375,0.15625 -0.09375,0.15625 -0.09375,0.15625 -0.09375,0.125 -0.125,0.15625 L 46.125,48 l -0.15625,0.125 -0.125,0.15625 c -1.008855,1.007126 -2.706172,1.75 -4.28125,1.75 -5.417928,0 -7.875,-6.999387 -7.875,-11.21875 0,-1.638029 0.337034,-3.333817 1.40625,-4.65625 C 36.102607,32.895323 37.864554,32.0625 39.5,32.0625 z m 3.0625,28.125 0.0625,0 0.0625,0 0.0625,0 0.0625,0 0.03125,0 0.0625,0 0.03125,0 0.0625,0 0.0625,0 0.03125,0 0.09375,0 0.09375,0 0.0625,0 0.09375,0 0.0625,0 0.09375,0 0.09375,0 0.0625,0.03125 0.09375,0 0.09375,0 0.03125,0 0.0625,0.03125 c 4.788471,3.403095 6.874995,5.098247 6.875,8.3125 0,3.906077 -3.23386,6.78125 -9.28125,6.78125 -6.740081,0 -11.0625,-3.215772 -11.0625,-7.6875 0,-4.47432 4.018,-5.965758 5.40625,-6.46875 2.644298,-0.882682 6.027529,-1 6.59375,-1 z"
       inkscape:connector-curvature="0"
       id="path208"
       style="font-style:normal;font-variant:normal;font-weight:normal;font-stretch:normal;letter-spacing:normal;word-spacing:normal;text-anchor:start;fill:#ffffff;fill-opacity:1;fill-rule:nonzero;stroke:#0099ff;stroke-width:0;stroke-linecap:butt;stroke-linejoin:miter;stroke-miterlimit:10.43299961;stroke-opacity:1;stroke-dasharray:none;stroke-dashoffset:0" />
  </g>
</svg>
