<?xml version="1.0" encoding="UTF-8" standalone="no"?>
<!-- Created with Inkscape (http://www.inkscape.org/) -->

<svg
   xmlns:dc="http://purl.org/dc/elements/1.1/"
   xmlns:cc="http://creativecommons.org/ns#"
   xmlns:rdf="http://www.w3.org/1999/02/22-rdf-syntax-ns#"
   xmlns:svg="http://www.w3.org/2000/svg"
   xmlns="http://www.w3.org/2000/svg"
   xmlns:xlink="http://www.w3.org/1999/xlink"
   xmlns:inkscape="http://www.inkscape.org/namespaces/inkscape"
   version="1.0"
   width="96"
   height="96"
   id="svg2408">
  <defs
     id="defs2410">
    <linearGradient
       id="linearGradient3718">
      <stop
         id="stop3720"
         style="stop-color:#2e65a4;stop-opacity:1"
         offset="0" />
      <stop
         id="stop3722"
         style="stop-color:#67a0e1;stop-opacity:1"
         offset="1" />
    </linearGradient>
    <linearGradient
       id="linearGradient3704">
      <stop
         id="stop3706"
         style="stop-color:#34b5d8;stop-opacity:1"
         offset="0" />
      <stop
         id="stop3708"
         style="stop-color:#ffffff;stop-opacity:0"
         offset="1" />
    </linearGradient>
    <linearGradient
       x1="45.447727"
       y1="92.539597"
       x2="45.447727"
       y2="7.0165396"
       id="ButtonShadow"
       gradientUnits="userSpaceOnUse"
       gradientTransform="scale(1.0058652,0.994169)">
      <stop
         id="stop3750"
         style="stop-color:#000000;stop-opacity:1"
         offset="0" />
      <stop
         id="stop3752"
         style="stop-color:#000000;stop-opacity:0.58823532"
         offset="1" />
    </linearGradient>
    <linearGradient
       id="linearGradient3737">
      <stop
         id="stop3739"
         style="stop-color:#ffffff;stop-opacity:1"
         offset="0" />
      <stop
         id="stop3741"
         style="stop-color:#ffffff;stop-opacity:0"
         offset="1" />
    </linearGradient>
    <filter
       color-interpolation-filters="sRGB"
       id="filter3174">
      <feGaussianBlur
         id="feGaussianBlur3176"
         stdDeviation="1.71" />
    </filter>
    <linearGradient
       x1="36.357143"
       y1="6"
       x2="36.357143"
       y2="63.893143"
       id="linearGradient3188"
       xlink:href="#linearGradient3737"
       gradientUnits="userSpaceOnUse" />
    <filter
       x="-0.192"
       y="-0.192"
       width="1.3839999"
       height="1.3839999"
       color-interpolation-filters="sRGB"
       id="filter3794">
      <feGaussianBlur
         id="feGaussianBlur3796"
         stdDeviation="5.28" />
    </filter>
    <linearGradient
       x1="48"
       y1="20.220806"
       x2="48"
       y2="138.66119"
       id="linearGradient3613"
       xlink:href="#linearGradient3737"
       gradientUnits="userSpaceOnUse" />
    <radialGradient
       cx="48"
       cy="90.171875"
       r="42"
       fx="48"
       fy="90.171875"
       id="radialGradient3619"
       xlink:href="#linearGradient3704"
       gradientUnits="userSpaceOnUse"
       gradientTransform="matrix(1.1573129,0,0,0.99590774,-7.5510206,0.19713193)" />
    <clipPath
       id="clipPath3613">
      <rect
         width="84"
         height="84"
         rx="6"
         ry="6"
         x="6"
         y="6"
         id="rect3615"
         style="fill:#ffffff;fill-opacity:1;fill-rule:nonzero;stroke:none" />
    </clipPath>
    <linearGradient
       x1="53.194679"
       y1="89.16983"
       x2="53.194679"
       y2="8.3280878"
       id="linearGradient3724"
       xlink:href="#linearGradient3718"
       gradientUnits="userSpaceOnUse" />
    <linearGradient
       id="linearGradient3737-9">
      <stop
         id="stop3739-7"
         style="stop-color:#ffffff;stop-opacity:1"
         offset="0" />
      <stop
         id="stop3741-7"
         style="stop-color:#ffffff;stop-opacity:0"
         offset="1" />
    </linearGradient>
    <radialGradient
       cx="48"
       cy="90.171875"
       r="42"
       fx="48"
       fy="90.171875"
       id="radialGradient2899"
       xlink:href="#linearGradient3737-9"
       gradientUnits="userSpaceOnUse"
       gradientTransform="matrix(1.1573129,0,0,0.99590774,-7.551021,0.1971319)" />
    <linearGradient
       x1="45.447727"
       y1="92.539597"
       x2="45.447727"
       y2="7.0165396"
       id="ButtonShadow-0"
       gradientUnits="userSpaceOnUse"
       gradientTransform="matrix(1.0058652,0,0,0.994169,100,0)">
      <stop
         id="stop3750-8"
         style="stop-color:#000000;stop-opacity:1"
         offset="0" />
      <stop
         id="stop3752-5"
         style="stop-color:#000000;stop-opacity:0.58823532"
         offset="1" />
    </linearGradient>
    <linearGradient
       x1="32.251034"
       y1="6.1317081"
       x2="32.251034"
       y2="90.238609"
       id="linearGradient3780"
       xlink:href="#ButtonShadow-0"
       gradientUnits="userSpaceOnUse"
       gradientTransform="matrix(1.0238095,0,0,1.0119048,-1.1428571,-98.071429)" />
    <linearGradient
       x1="32.251034"
       y1="6.1317081"
       x2="32.251034"
       y2="90.238609"
       id="linearGradient3772"
       xlink:href="#ButtonShadow-0"
       gradientUnits="userSpaceOnUse"
       gradientTransform="matrix(1.0238095,0,0,1.0119048,-1.1428571,-98.071429)" />
    <linearGradient
       x1="32.251034"
       y1="6.1317081"
       x2="32.251034"
       y2="90.238609"
       id="linearGradient3725"
       xlink:href="#ButtonShadow-0"
       gradientUnits="userSpaceOnUse"
       gradientTransform="matrix(1.0238095,0,0,1.0119048,-1.1428571,-98.071429)" />
    <linearGradient
       x1="32.251034"
       y1="6.1317081"
       x2="32.251034"
       y2="90.238609"
       id="linearGradient3721"
       xlink:href="#ButtonShadow-0"
       gradientUnits="userSpaceOnUse"
       gradientTransform="translate(0,-97)" />
    <linearGradient
       x1="32.251034"
       y1="6.1317081"
       x2="32.251034"
       y2="90.238609"
       id="linearGradient3071"
       xlink:href="#ButtonShadow-0"
       gradientUnits="userSpaceOnUse"
       gradientTransform="matrix(1.0238095,0,0,1.0119048,-1.1428571,-98.071429)" />
    <linearGradient
       x1="15"
       y1="48.272732"
       x2="81"
       y2="48.272732"
       id="linearGradient3746"
       xlink:href="#linearGradient3739"
       gradientUnits="userSpaceOnUse" />
    <linearGradient
       id="linearGradient3739">
      <stop
         id="stop3742"
         style="stop-color:#ffffff;stop-opacity:1"
         offset="0" />
      <stop
         id="stop3744"
         style="stop-color:#ffffff;stop-opacity:0"
         offset="1" />
    </linearGradient>
    <linearGradient
       x1="48.082497"
       y1="75.561722"
       x2="46.654823"
       y2="16.972879"
       id="linearGradient3664"
       xlink:href="#linearGradient3731"
       gradientUnits="userSpaceOnUse"
       gradientTransform="translate(0,1)" />
    <linearGradient
       id="linearGradient3731">
      <stop
         id="stop3733"
         style="stop-color:#dcdcdc;stop-opacity:1"
         offset="0" />
      <stop
         id="stop3757"
         style="stop-color:#ebebeb;stop-opacity:1"
         offset="0.30654153" />
      <stop
         id="stop3737"
         style="stop-color:#ffffff;stop-opacity:1"
         offset="0.70706075" />
      <stop
         id="stop3759"
         style="stop-color:#fafafa;stop-opacity:1"
         offset="0.84501493" />
      <stop
         id="stop3735"
         style="stop-color:#f0f0f0;stop-opacity:1"
         offset="1" />
    </linearGradient>
    <linearGradient
       id="linearGradient3993">
      <stop
         id="stop3995"
         style="stop-color:#7da3c7;stop-opacity:1"
         offset="0" />
      <stop
         id="stop3997"
         style="stop-color:#b3c9e0;stop-opacity:0.62015504"
         offset="1" />
    </linearGradient>
    <clipPath
       id="clipPath3176">
      <path
         d="m 48,18 c -18.225397,0 -33,12.088312 -33,27 0,9.498438 5.99976,17.843462 15.0625,22.65625 -0.344625,2.508754 -1.914014,8.649817 -9.34375,10.75 9.622915,1.045823 16.013601,-3.646306 19.40625,-7.1875 C 42.648507,71.724251 45.286067,72 48,72 66.225397,72 81,59.911688 81,45 81,30.088312 66.225397,18 48,18 z"
         inkscape:connector-curvature="0"
         id="path3178"
         style="fill:#ff0000;fill-opacity:1;stroke:none;display:inline" />
    </clipPath>
    <radialGradient
       cx="48"
       cy="48.277454"
       r="33"
       fx="48"
       fy="48.277454"
       id="radialGradient3301"
       xlink:href="#linearGradient3993"
       gradientUnits="userSpaceOnUse"
       gradientTransform="matrix(1,0,0,0.9174986,0,3.9829576)" />
  </defs>
  <metadata
     id="metadata2413">
    <rdf:RDF>
      <cc:Work
         rdf:about="">
        <dc:format>image/svg+xml</dc:format>
        <dc:type
           rdf:resource="http://purl.org/dc/dcmitype/StillImage" />
        <dc:title />
      </cc:Work>
    </rdf:RDF>
  </metadata>
  <g
     id="layer2"
     style="display:none">
    <rect
       width="86"
       height="85"
       rx="6"
       ry="6"
       x="5"
       y="7"
       id="rect3745"
       style="opacity:0.9;fill:url(#ButtonShadow);fill-opacity:1;fill-rule:nonzero;stroke:none;filter:url(#filter3174)" />
  </g>
  <g
     id="layer6"
     style="display:inline">
    <path
       d="m 12,-95.03125 c -5.5110903,0 -10.03125,4.52016 -10.03125,10.03125 l 0,71 c 0,5.5110902 4.5201598,10.03125 10.03125,10.03125 l 72,0 c 5.51109,0 10.03125,-4.5201597 10.03125,-10.03125 l 0,-71 c 0,-5.51109 -4.52016,-10.03125 -10.03125,-10.03125 l -72,0 z"
       transform="scale(1,-1)"
       id="path3786"
       style="opacity:0.07999998;fill:url(#linearGradient3071);fill-opacity:1;fill-rule:nonzero;stroke:none;display:inline" />
    <path
       d="m 12,-94.03125 c -4.971633,0 -9.03125,4.059617 -9.03125,9.03125 l 0,71 c 0,4.9716329 4.0596171,9.03125 9.03125,9.03125 l 72,0 c 4.971633,0 9.03125,-4.059617 9.03125,-9.03125 l 0,-71 c 0,-4.971633 -4.059617,-9.03125 -9.03125,-9.03125 l -72,0 z"
       transform="scale(1,-1)"
       id="path3778"
       style="opacity:0.1;fill:url(#linearGradient3780);fill-opacity:1;fill-rule:nonzero;stroke:none;display:inline" />
    <path
       d="m 12,-93 c -4.4091333,0 -8,3.590867 -8,8 l 0,71 c 0,4.4091333 3.5908667,8 8,8 l 72,0 c 4.409133,0 8,-3.5908667 8,-8 l 0,-71 c 0,-4.409133 -3.590867,-8 -8,-8 l -72,0 z"
       transform="scale(1,-1)"
       id="path3770"
       style="opacity:0.2;fill:url(#linearGradient3772);fill-opacity:1;fill-rule:nonzero;stroke:none;display:inline" />
    <rect
       width="86"
       height="85"
       rx="7"
       ry="7"
       x="5"
       y="-92"
       transform="scale(1,-1)"
       id="rect3723"
       style="opacity:0.3;fill:url(#linearGradient3725);fill-opacity:1;fill-rule:nonzero;stroke:none;display:inline" />
    <rect
       width="84"
       height="84"
       rx="6"
       ry="6"
       x="6"
       y="-91"
       transform="scale(1,-1)"
       id="rect3716"
       style="opacity:0.45;fill:url(#linearGradient3721);fill-opacity:1;fill-rule:nonzero;stroke:none;display:inline" />
  </g>
  <g
     id="layer1"
     style="display:inline">
    <path
       d="M 12,90 C 8.676,90 6,87.324 6,84 L 6,82 6,14 6,12 c 0,-0.334721 0.04135,-0.6507 0.09375,-0.96875 0.0487,-0.295596 0.09704,-0.596915 0.1875,-0.875 C 6.29113,10.12587 6.302142,10.09265 6.3125,10.0625 6.411365,9.774729 6.5473802,9.515048 6.6875,9.25 6.8320918,8.976493 7.0031161,8.714385 7.1875,8.46875 7.3718839,8.223115 7.5612765,7.995278 7.78125,7.78125 8.221197,7.353194 8.72416,6.966724 9.28125,6.6875 9.559795,6.547888 9.8547231,6.440553 10.15625,6.34375 9.9000482,6.443972 9.6695391,6.580022 9.4375,6.71875 c -0.00741,0.0044 -0.023866,-0.0045 -0.03125,0 -0.031933,0.0193 -0.062293,0.04251 -0.09375,0.0625 -0.120395,0.0767 -0.2310226,0.163513 -0.34375,0.25 -0.1061728,0.0808 -0.2132809,0.161112 -0.3125,0.25 C 8.4783201,7.442683 8.3087904,7.626638 8.15625,7.8125 8.0486711,7.942755 7.9378561,8.077785 7.84375,8.21875 7.818661,8.25713 7.805304,8.30462 7.78125,8.34375 7.716487,8.446782 7.6510225,8.548267 7.59375,8.65625 7.4927417,8.850956 7.3880752,9.071951 7.3125,9.28125 7.30454,9.30306 7.288911,9.3218 7.28125,9.34375 7.2494249,9.4357 7.2454455,9.530581 7.21875,9.625 7.1884177,9.731618 7.1483606,9.828031 7.125,9.9375 7.0521214,10.279012 7,10.635705 7,11 l 0,2 0,68 0,2 c 0,2.781848 2.2181517,5 5,5 l 2,0 68,0 2,0 c 2.781848,0 5,-2.218152 5,-5 l 0,-2 0,-68 0,-2 C 89,10.635705 88.94788,10.279012 88.875,9.9375 88.83085,9.730607 88.78662,9.539842 88.71875,9.34375 88.71105,9.3218 88.69545,9.30306 88.6875,9.28125 88.62476,9.107511 88.549117,8.913801 88.46875,8.75 88.42717,8.6672 88.38971,8.580046 88.34375,8.5 88.28915,8.40279 88.216976,8.31165 88.15625,8.21875 88.06214,8.077785 87.951329,7.942755 87.84375,7.8125 87.700576,7.63805 87.540609,7.465502 87.375,7.3125 87.36383,7.3023 87.35502,7.29135 87.34375,7.28125 87.205364,7.155694 87.058659,7.046814 86.90625,6.9375 86.803679,6.86435 86.701932,6.784136 86.59375,6.71875 c -0.0074,-0.0045 -0.02384,0.0044 -0.03125,0 -0.232039,-0.138728 -0.462548,-0.274778 -0.71875,-0.375 0.301527,0.0968 0.596455,0.204138 0.875,0.34375 0.55709,0.279224 1.060053,0.665694 1.5,1.09375 0.219973,0.214028 0.409366,0.441865 0.59375,0.6875 0.184384,0.245635 0.355408,0.507743 0.5,0.78125 0.14012,0.265048 0.276135,0.524729 0.375,0.8125 0.01041,0.03078 0.02133,0.06274 0.03125,0.09375 0.09046,0.278085 0.1388,0.579404 0.1875,0.875 C 89.95865,11.3493 90,11.665279 90,12 l 0,2 0,68 0,2 c 0,3.324 -2.676,6 -6,6 l -72,0 z"
       inkscape:connector-curvature="0"
       id="path3615"
       style="opacity:0.2;fill:url(#radialGradient3619);fill-opacity:1;fill-rule:nonzero;stroke:none" />
    <rect
       width="84"
       height="84"
       rx="6"
       ry="6"
       x="6"
       y="6"
       id="rect2419"
       style="fill:url(#linearGradient3724);fill-opacity:1;fill-rule:nonzero;stroke:none" />
    <path
       d="M 12,6 C 8.676,6 6,8.676 6,12 l 0,2 0,68 0,2 c 0,0.334721 0.04135,0.6507 0.09375,0.96875 0.0487,0.295596 0.09704,0.596915 0.1875,0.875 0.00988,0.03038 0.020892,0.0636 0.03125,0.09375 0.098865,0.287771 0.2348802,0.547452 0.375,0.8125 0.1445918,0.273507 0.3156161,0.535615 0.5,0.78125 0.1843839,0.245635 0.3737765,0.473472 0.59375,0.6875 0.439947,0.428056 0.94291,0.814526 1.5,1.09375 0.278545,0.139612 0.5734731,0.246947 0.875,0.34375 -0.2562018,-0.100222 -0.4867109,-0.236272 -0.71875,-0.375 -0.00741,-0.0044 -0.023866,0.0045 -0.03125,0 -0.031933,-0.0193 -0.062293,-0.04251 -0.09375,-0.0625 -0.120395,-0.0767 -0.2310226,-0.163513 -0.34375,-0.25 -0.1061728,-0.0808 -0.2132809,-0.161112 -0.3125,-0.25 C 8.4783201,88.557317 8.3087904,88.373362 8.15625,88.1875 8.0486711,88.057245 7.9378561,87.922215 7.84375,87.78125 7.818661,87.74287 7.805304,87.69538 7.78125,87.65625 7.716487,87.553218 7.6510225,87.451733 7.59375,87.34375 7.4927417,87.149044 7.3880752,86.928049 7.3125,86.71875 7.30454,86.69694 7.288911,86.6782 7.28125,86.65625 7.2494249,86.5643 7.2454455,86.469419 7.21875,86.375 7.1884177,86.268382 7.1483606,86.171969 7.125,86.0625 7.0521214,85.720988 7,85.364295 7,85 L 7,83 7,15 7,13 C 7,10.218152 9.2181517,8 12,8 l 2,0 68,0 2,0 c 2.781848,0 5,2.218152 5,5 l 0,2 0,68 0,2 c 0,0.364295 -0.05212,0.720988 -0.125,1.0625 -0.04415,0.206893 -0.08838,0.397658 -0.15625,0.59375 -0.0077,0.02195 -0.0233,0.04069 -0.03125,0.0625 -0.06274,0.173739 -0.138383,0.367449 -0.21875,0.53125 -0.04158,0.0828 -0.07904,0.169954 -0.125,0.25 -0.0546,0.09721 -0.126774,0.18835 -0.1875,0.28125 -0.09411,0.140965 -0.204921,0.275995 -0.3125,0.40625 -0.143174,0.17445 -0.303141,0.346998 -0.46875,0.5 -0.01117,0.0102 -0.01998,0.02115 -0.03125,0.03125 -0.138386,0.125556 -0.285091,0.234436 -0.4375,0.34375 -0.102571,0.07315 -0.204318,0.153364 -0.3125,0.21875 -0.0074,0.0045 -0.02384,-0.0044 -0.03125,0 -0.232039,0.138728 -0.462548,0.274778 -0.71875,0.375 0.301527,-0.0968 0.596455,-0.204138 0.875,-0.34375 0.55709,-0.279224 1.060053,-0.665694 1.5,-1.09375 0.219973,-0.214028 0.409366,-0.441865 0.59375,-0.6875 0.184384,-0.245635 0.355408,-0.507743 0.5,-0.78125 0.14012,-0.265048 0.276135,-0.524729 0.375,-0.8125 0.01041,-0.03078 0.02133,-0.06274 0.03125,-0.09375 0.09046,-0.278085 0.1388,-0.579404 0.1875,-0.875 C 89.95865,84.6507 90,84.334721 90,84 l 0,-2 0,-68 0,-2 C 90,8.676 87.324,6 84,6 L 12,6 z"
       inkscape:connector-curvature="0"
       id="rect3728"
       style="opacity:0.35;fill:url(#linearGradient3188);fill-opacity:1;fill-rule:nonzero;stroke:none" />
    <path
       d="M 12,90 C 8.676,90 6,87.324 6,84 L 6,82 6,14 6,12 c 0,-0.334721 0.04135,-0.6507 0.09375,-0.96875 0.0487,-0.295596 0.09704,-0.596915 0.1875,-0.875 C 6.29113,10.12587 6.302142,10.09265 6.3125,10.0625 6.411365,9.774729 6.5473802,9.515048 6.6875,9.25 6.8320918,8.976493 7.0031161,8.714385 7.1875,8.46875 7.3718839,8.223115 7.5612765,7.995278 7.78125,7.78125 8.221197,7.353194 8.72416,6.966724 9.28125,6.6875 9.559795,6.547888 9.8547231,6.440553 10.15625,6.34375 9.9000482,6.443972 9.6695391,6.580022 9.4375,6.71875 c -0.00741,0.0044 -0.023866,-0.0045 -0.03125,0 -0.031933,0.0193 -0.062293,0.04251 -0.09375,0.0625 -0.120395,0.0767 -0.2310226,0.163513 -0.34375,0.25 -0.1061728,0.0808 -0.2132809,0.161112 -0.3125,0.25 C 8.4783201,7.442683 8.3087904,7.626638 8.15625,7.8125 8.0486711,7.942755 7.9378561,8.077785 7.84375,8.21875 7.818661,8.25713 7.805304,8.30462 7.78125,8.34375 7.716487,8.446782 7.6510225,8.548267 7.59375,8.65625 7.4927417,8.850956 7.3880752,9.071951 7.3125,9.28125 7.30454,9.30306 7.288911,9.3218 7.28125,9.34375 7.2494249,9.4357 7.2454455,9.530581 7.21875,9.625 7.1884177,9.731618 7.1483606,9.828031 7.125,9.9375 7.0521214,10.279012 7,10.635705 7,11 l 0,2 0,68 0,2 c 0,2.781848 2.2181517,5 5,5 l 2,0 68,0 2,0 c 2.781848,0 5,-2.218152 5,-5 l 0,-2 0,-68 0,-2 C 89,10.635705 88.94788,10.279012 88.875,9.9375 88.83085,9.730607 88.78662,9.539842 88.71875,9.34375 88.71105,9.3218 88.69545,9.30306 88.6875,9.28125 88.62476,9.107511 88.549117,8.913801 88.46875,8.75 88.42717,8.6672 88.38971,8.580046 88.34375,8.5 88.28915,8.40279 88.216976,8.31165 88.15625,8.21875 88.06214,8.077785 87.951329,7.942755 87.84375,7.8125 87.700576,7.63805 87.540609,7.465502 87.375,7.3125 87.36383,7.3023 87.35502,7.29135 87.34375,7.28125 87.205364,7.155694 87.058659,7.046814 86.90625,6.9375 86.803679,6.86435 86.701932,6.784136 86.59375,6.71875 c -0.0074,-0.0045 -0.02384,0.0044 -0.03125,0 -0.232039,-0.138728 -0.462548,-0.274778 -0.71875,-0.375 0.301527,0.0968 0.596455,0.204138 0.875,0.34375 0.55709,0.279224 1.060053,0.665694 1.5,1.09375 0.219973,0.214028 0.409366,0.441865 0.59375,0.6875 0.184384,0.245635 0.355408,0.507743 0.5,0.78125 0.14012,0.265048 0.276135,0.524729 0.375,0.8125 0.01041,0.03078 0.02133,0.06274 0.03125,0.09375 0.09046,0.278085 0.1388,0.579404 0.1875,0.875 C 89.95865,11.3493 90,11.665279 90,12 l 0,2 0,68 0,2 c 0,3.324 -2.676,6 -6,6 l -72,0 z"
       inkscape:connector-curvature="0"
       id="path3615-5"
       style="opacity:0.2;fill:url(#radialGradient2899);fill-opacity:1;fill-rule:nonzero;stroke:none;display:inline" />
  </g>
  <g
     id="layer3"
     style="display:inline">
    <path
       d="m -52,17 c -18.225397,0 -33,12.088312 -33,27 0,9.498438 5.99976,17.843462 15.0625,22.65625 -0.344625,2.508754 -1.914014,8.649817 -9.34375,10.75 9.622915,1.045823 16.013601,-3.646306 19.40625,-7.1875 C -57.351493,70.724251 -54.713933,71 -52,71 -33.774603,71 -19,58.911688 -19,44 -19,29.088312 -33.774603,17 -52,17 z"
       inkscape:connector-curvature="0"
       id="path3625"
       style="opacity:0.4;fill:#d40000;fill-opacity:1;stroke:none;display:inline" />
    <path
       d="m 48,13.75 c -20.116904,0 -37.25,13.555598 -37.25,31.25 0,10.082276 5.917985,18.697557 14.34375,24.28125 -0.156911,0.525325 -0.266588,1.03901 -0.625,1.59375 -0.919882,1.423768 -2.132056,2.647096 -4.84375,3.4375 -0.01115,0.0032 -0.02005,-0.0032 -0.03125,0 -0.01706,0.0041 -0.01361,-0.0051 -0.03125,0 -0.06018,0.01709 -0.127309,0.03202 -0.125,0.03125 0.0027,-9.11e-4 -0.10648,0.04343 -0.15625,0.0625 -0.01244,0.0048 -0.03191,0.03154 -0.03125,0.03125 l -0.125,0.03125 a 1.2011555,1.2011555 0 0 0 -0.03125,0 l 0,0.03125 a 1.2011555,1.2011555 0 0 0 -0.0625,0 1.2011555,1.2011555 0 0 0 0,0.03125 1.2011555,1.2011555 0 0 0 -0.03125,0 1.2011555,1.2011555 0 0 0 -0.125,0.0625 1.2011555,1.2011555 0 0 0 -0.09375,0.03125 c 0,0 -0.04304,0.06225 -0.09375,0.09375 a 1.2011555,1.2011555 0 0 0 -0.03125,0 c -0.01203,0.0075 -0.0194,0.02387 -0.03125,0.03125 -0.0071,0.0044 -0.02439,-0.0043 -0.03125,0 3.11e-4,-0.0016 -0.02944,4.53e-4 -0.03125,0 -0.01135,0.0055 0.0064,0.02802 0,0.03125 -0.0064,0.0032 -0.02556,-0.0029 -0.03125,0 -0.0173,0.0078 -0.0138,-0.0022 -0.0625,0.03125 a 1.2011555,1.2011555 0 0 0 -0.0625,0.03125 c -0.02259,0.01561 -0.0032,0.01018 -0.03125,0.03125 -0.08339,0.05003 -0.01856,0.02974 -0.0625,0.0625 2.55e-4,-0.0016 -0.02938,4.14e-4 -0.03125,0 A 1.2011555,1.2011555 0 0 0 18.21875,75 c -0.02131,0.01331 0.0037,0.0063 -0.03125,0.03125 -0.02227,0.01587 -0.0025,-0.0216 -0.03125,0 a 1.2011555,1.2011555 0 0 0 -0.0625,0.03125 c -2e-4,9.87e-4 -0.0036,0.03323 0,0.03125 0.0036,-0.002 -0.035,0.0024 -0.03125,0 a 1.2011555,1.2011555 0 0 0 -0.21875,0.1875 c 0,0 -0.03924,0.06292 -0.09375,0.125 -0.02725,0.03104 -0.07117,0.03661 -0.09375,0.0625 -0.0056,0.0065 0.0051,0.02544 0,0.03125 -0.0051,0.0058 -0.02656,-0.0054 -0.03125,0 -0.0011,6.63e-4 0.0026,0.02921 0,0.03125 -0.0076,0.0071 0.0073,0.02449 0,0.03125 a 1.2011555,1.2011555 0 0 0 -0.03125,0.03125 1.2011555,1.2011555 0 0 0 -0.03125,0 c -0.0052,0.0048 0.0042,0.02735 0,0.03125 a 1.2011555,1.2011555 0 0 0 -0.03125,0 c -0.0029,0.0027 0.0016,0.02973 0,0.03125 -0.0018,0.0017 -0.03125,-5e-6 -0.03125,0 a 1.2011555,1.2011555 0 0 0 -0.0625,0.0625 c 0,0 -0.05453,0.07039 -0.09375,0.125 -0.01961,0.02731 -0.01399,0.03821 -0.03125,0.0625 -0.0048,0.0068 -0.03376,0.03711 -0.03125,0.03125 A 1.2011555,1.2011555 0 0 0 17.25,75.96875 1.2011555,1.2011555 0 0 0 17.25,76 c -0.01159,0.01821 0.0056,-0.03024 -0.03125,0.03125 A 1.2011555,1.2011555 0 0 0 17.1875,76.0625 c 0.0076,-0.01071 -0.03409,0.08806 0,0.03125 -0.0066,0.01 -0.02415,-0.01127 -0.03125,0 -0.006,0.0091 0.0056,0.02198 0,0.03125 a 1.2011555,1.2011555 0 0 0 -0.0625,0.0625 1.2011555,1.2011555 0 0 0 -0.0625,0.125 c -0.0021,0.0039 1.5e-5,0.03121 0,0.03125 -0.0078,0.01754 -0.03697,0.06771 -0.0625,0.125 -0.01543,0.03462 -0.01866,0.06536 -0.03125,0.09375 -0.01259,0.02839 -0.0061,-0.04717 -0.0625,0.09375 0.103876,-0.259716 0.05856,-0.162006 -0.03125,0.0625 -0.01017,0.0212 -0.02229,0.0089 -0.03125,0.03125 -0.008,0.02004 0.0069,0.01183 0,0.03125 L 16.75,76.9375 a 1.2011555,1.2011555 0 0 0 -0.0625,0.3125 1.2011555,1.2011555 0 0 0 0,0.03125 c -0.0082,0.01102 -0.0625,0.06249 -0.0625,0.0625 -0.0055,0.02756 0.004,0.0078 0,0.03125 -0.0027,0.01126 0.0023,0.01981 0,0.03125 -0.0042,0.01621 -0.02797,0.01485 -0.03125,0.03125 -0.0042,0.02103 0.0032,0.01174 0,0.03125 L 16.5625,77.625 a 1.2011555,1.2011555 0 0 0 0,0.03125 c -0.0055,0.02741 0.004,0.0079 0,0.03125 -0.0027,0.01126 0.0023,0.01981 0,0.03125 -0.0046,0.02317 0.0033,0.01139 0,0.03125 -0.0014,0.0065 -0.02995,-0.0065 -0.03125,0 -0.02535,0.126737 -0.001,0.114057 0,0.1875 A 1.2011555,1.2011555 0 0 0 16.5,78.25 l 0,0.1875 a 1.2011555,1.2011555 0 0 0 0,0.09375 1.2011555,1.2011555 0 0 0 0,0.03125 l 0,0.03125 a 1.2011555,1.2011555 0 0 0 0,0.09375 1.2011555,1.2011555 0 0 0 0,0.0625 c 0,0 -0.0077,0.06251 0,0.125 0.0038,0.03125 0.02777,0.03514 0.03125,0.0625 0.0035,0.02736 -0.04918,-0.08964 0,0.15625 0.0033,0.01647 0.02708,0.01498 0.03125,0.03125 0.0025,0.0098 -0.0028,0.02148 0,0.03125 0.004,0.02339 -0.0055,0.0038 0,0.03125 a 1.2011555,1.2011555 0 0 0 0,0.03125 l 0.03125,0.15625 a 1.2011555,1.2011555 0 0 0 0.125,0.28125 1.2011555,1.2011555 0 0 0 0,0.03125 c -7.1e-4,0.01656 -2e-6,0.09374 0,0.09375 0.009,0.02249 0.02105,0.01 0.03125,0.03125 0.0102,0.02126 0.02005,0.01121 0.03125,0.03125 -5.37e-4,-0.0043 0.0414,0.134781 0,0.03125 a 1.2011555,1.2011555 0 0 0 0,0.03125 l 0.0625,0.15625 a 1.2011555,1.2011555 0 0 0 0,0.03125 c 0.009,0.02239 0.02108,0.01006 0.03125,0.03125 0.01017,0.02119 0.02007,0.01127 0.03125,0.03125 0.0044,0.009 -0.0048,0.02234 0,0.03125 a 1.2011555,1.2011555 0 0 0 0,0.03125 1.2011555,1.2011555 0 0 0 0.03125,0.03125 1.2011555,1.2011555 0 0 0 0,0.03125 1.2011555,1.2011555 0 0 0 0.03125,0.03125 1.2011555,1.2011555 0 0 0 0.0625,0.125 1.2011555,1.2011555 0 0 0 0,0.03125 1.2011555,1.2011555 0 0 0 0.03125,0.09375 l 0.09375,0.15625 c -0.0021,-0.0035 0.127451,0.190791 0.125,0.1875 l 0.09375,0.125 a 1.2011555,1.2011555 0 0 0 0.25,0.25 1.2011555,1.2011555 0 0 0 0.0625,0.03125 c 0.03396,0.03875 -0.01591,0.01534 0.03125,0.0625 a 1.2011555,1.2011555 0 0 0 0.09375,0.09375 c 0,0 0.02413,0.03173 0.0625,0.0625 0.0061,0.0049 0.02927,-0.0018 0.03125,0 l 0.03125,0.03125 c 0.0017,0.0018 0.01733,0.02046 0.03125,0.03125 A 1.2011555,1.2011555 0 0 0 18,81.625 c 4.4e-5,3.7e-5 0.02773,-0.0024 0.03125,0 0.0022,0.0015 -0.0033,0.02902 0,0.03125 A 1.2011555,1.2011555 0 0 0 18.125,81.75 l 0.03125,0 A 1.2011555,1.2011555 0 0 0 18.25,81.84375 c -0.261615,-0.196184 -0.1894,-0.134223 0.03125,0.03125 0.04616,0.03462 0.03062,0.0106 0.0625,0.03125 a 1.2011555,1.2011555 0 0 0 0.21875,0.15625 c 0,0 0.08702,0.03165 0.15625,0.0625 0.03462,0.01543 0.06536,0.01866 0.09375,0.03125 0.02839,0.01259 -0.04735,0.0061 0.09375,0.0625 -0.260051,-0.10401 -0.161888,-0.05853 0.0625,0.03125 0.02117,0.01016 0.0089,0.0223 0.03125,0.03125 0.02002,0.008 0.01185,-0.0069 0.03125,0 l 0.15625,0.0625 0.15625,0.0625 a 1.2011555,1.2011555 0 0 0 0.3125,0.0625 c 0.0039,0.0028 0.02816,-0.0023 0.03125,0 0.01094,0.008 0.06249,0.0625 0.0625,0.0625 0.02753,0.0055 0.0078,-0.004 0.03125,0 0.0097,0.0028 0.02143,-0.0025 0.03125,0 0.01622,0.0042 0.01484,0.02797 0.03125,0.03125 0.02105,0.0042 0.01174,-0.0032 0.03125,0 l 0.15625,0.03125 a 1.2011555,1.2011555 0 0 0 0.1875,0 c -0.0023,-1.31e-4 0.127276,0 0.125,0 -0.0017,0 0.05646,0.0011 0.09375,0 0.01122,0.0012 0.02004,-0.0011 0.03125,0 -2.2e-5,8.21e-4 1.8e-5,0.03125 0,0.03125 0.0087,-2e-6 0.01947,0 0.03125,0 0.01178,0 0.05383,-2e-6 0.0625,0 l 0,-0.03125 c 9.75377,0.958306 16.717111,-3.140306 20.90625,-6.9375 C 43.560015,75.990982 45.704673,76.25 48,76.25 68.116904,76.25 85.25,62.694402 85.25,45 85.25,27.305598 68.116904,13.75 48,13.75 z m -27.5625,68.5 a 1.2011555,1.2011555 0 0 0 0.03125,0 l 0,0.15625 L 20.4375,82.25 z"
       transform="translate(0,1)"
       id="path3724"
       style="opacity:0.05;fill:#000000;fill-opacity:1;stroke:none;display:inline" />
    <path
       d="m 48,15.9375 c -13.119609,-0.07224 -26.937552,6.255697 -33.18106,18.229596 -4.629812,8.596754 -3.544314,19.691681 2.466526,27.337734 2.509392,3.348845 5.703258,6.156395 9.245784,8.37017 -0.64359,3.448835 -3.668615,5.943093 -6.96875,6.71875 0.712002,2.009539 0.184971,-0.819019 -0.78125,0.46875 -0.37169,0.393677 -1.426448,1.37204 -0.36047,1.534223 2.428344,1.065641 0.35991,-0.308803 -0.67078,0.278277 1.338575,0.213078 -1.043062,0.01968 1.03125,0.375 -2.585384,0.01387 1.42309,0.290091 -1.09375,0.28125 -0.06678,1.178576 1.498693,0.09614 2.1875,0.09375 -1.019692,0.03944 -3.038609,1.371479 -1.09375,0.65625 -2.167482,1.070895 1.597918,-0.490174 -0.6875,0.65625 0.375943,1.097523 3.04913,-2.312384 1.167491,-0.238759 -1.425945,0.525421 -0.3649,1.26134 0.363759,1.520009 0.819041,-0.739301 1.098376,-3.42206 0.446964,-0.203381 0.384907,1.086201 3.218304,0.251107 4.429602,0.517906 C 30.68175,82.332634 36.667965,79.659845 41.125,75.40625 55.315641,77.994042 71.409214,72.696517 79.641959,60.467402 85.836894,51.541484 85.419027,38.836648 78.763081,30.273358 71.702474,20.764598 59.633236,15.908428 48,15.9375 z"
       inkscape:connector-curvature="0"
       id="path3720"
       style="opacity:0.05;fill:#000000;fill-opacity:1;stroke:none;display:inline" />
    <path
       d="M 48,17.03125 C 35.290107,16.959078 21.880831,23.0364 15.809621,34.636199 11.258852,43.047012 12.45942,53.921937 18.4379,61.315143 c 2.554864,3.315109 5.807686,6.062103 9.40585,8.184857 -0.720322,4.052165 -4.076707,7.24873 -8.03125,8.15625 -1.673031,0.789365 -1.152625,3.608842 0.71875,3.6875 7.377044,0.928996 15.018,-1.801582 20.25,-7.0625 13.679851,2.576171 29.240889,-2.173963 37.5077,-13.769315 6.196123,-8.398301 6.196123,-20.625569 0,-29.02387 C 71.51664,21.881729 59.516862,16.997998 48,17.03125 z"
       inkscape:connector-curvature="0"
       id="path3716"
       style="opacity:0.12000002;fill:#000000;fill-opacity:1;stroke:none;display:inline" />
    <path
       d="m 48,17.03125 c -18.659679,0 -33.96875,12.408319 -33.96875,27.96875 0,9.666704 5.998045,18.089309 14.9375,23.09375 -0.210518,1.192634 -0.651323,2.861997 -1.75,4.5625 -1.255074,1.94257 -3.29009,3.825645 -6.78125,4.8125 -0.418337,0.139534 -0.709904,0.589051 -0.666736,1.027927 0.04317,0.438876 0.416729,0.822971 0.854236,0.878323 9.690483,1.053166 16.245683,-3.495918 19.84375,-7.125 C 42.897609,72.704466 45.403113,72.96875 48,72.96875 66.659679,72.96875 81.96875,60.560431 81.96875,45 81.96875,29.439569 66.659679,17.03125 48,17.03125 z"
       inkscape:connector-curvature="0"
       transform="translate(0,1)"
       id="path3712"
       style="opacity:0.23999999;fill:#000000;fill-opacity:1;stroke:none;display:inline" />
    <path
       d="m 48,18 c -18.225397,0 -33,12.088312 -33,27 0,9.498438 5.99976,17.843462 15.0625,22.65625 -0.344625,2.508754 -1.914014,8.649817 -9.34375,10.75 9.622915,1.045823 16.013601,-3.646306 19.40625,-7.1875 C 42.648507,71.724251 45.286067,72 48,72 66.225397,72 81,59.911688 81,45 81,30.088312 66.225397,18 48,18 z"
       inkscape:connector-curvature="0"
       id="path3620"
       style="fill:url(#linearGradient3664);fill-opacity:1;stroke:none;display:inline" />
    <path
       d="m 82.90034,51.715786 -0.0089,-0.06929 0.0089,0.06929 z M 47.226882,70.583024 c -0.07997,-0.506219 -1.337515,-0.336962 1.3e-5,8.2e-5 m 32.239225,-13.963191 -0.03358,0.0035 0.03358,-0.0035 z m -2.061025,0.130623 -0.05979,0.206409 0.05979,-0.206409 0,0 z m 2.60088,13.142726 -0.139994,-0.05288 0.139994,0.05288 z m -0.843539,-1.553417 0.07358,-0.07965 -0.07358,0.07965 z m 0.09315,0.04337 0.03332,-0.01376 -0.03332,0.01376 z m -0.100035,-0.0835 0.02011,-0.03694 -0.02011,0.03694 z m 0.0069,0.03994 c 0.123695,0.266513 0.06129,0.147622 -2.8e-5,1.36e-4 m -56.802316,9.949178 c 1.232768,0.08225 3.554261,0.164037 1.693453,-0.343543 2.794037,-1.179216 9.231636,0.28256 9.929038,-0.69193 -1.87085,-0.582756 3.811609,-0.02257 5.165171,-0.131287 4.369105,1.442022 -0.280216,-3.320539 3.340959,-3.394724 -3.09286,1.359582 1.462864,2.182846 0.886968,3.952884 -1.243482,0.78915 -3.221848,-0.06615 -2.376531,0.881899 -2.513536,0.171166 4.728545,1.393483 6.349585,1.123247 2.79191,0.01874 5.731476,-0.342168 3.91513,-1.373823 3.802587,-1.183245 6.375791,-2.548312 11.233665,-2.221836 4.876037,0.496173 9.098709,-2.23449 13.87604,-0.73399 -2.557945,2.975799 5.260646,-1.888341 7.591498,-0.50975 4.165891,0.117629 8.472508,-0.500584 12.43847,0.219828 1.912116,0.888062 6.758177,1.406069 2.125406,2.261107 -1.499002,0.853854 -7.976856,2.474366 -2.753029,2.721146 1.605589,1.390234 -5.160581,0.982001 -6.492001,0.993624 -21.118152,-0.125276 -42.270514,0.306331 -63.367112,-0.228448 -4.651105,-1.195502 8.383406,-0.129994 2.51686,-0.620932 -0.944736,-0.137123 -4.711553,-0.879459 -1.575183,-1.008625 -1.487722,-0.352052 -3.080546,-0.266862 -4.497669,-0.894869 m 13.502993,-35.642826 -0.02311,-0.170305 0.02311,0.170305 z m -2.517373,1.273433 -0.04289,-0.113166 0.04296,0.113141 m -0.173409,-0.0068 -0.136684,-0.130349 0.136684,0.130349 z m -0.426865,-0.180229 0.01731,-1.65e-4 -0.01731,1.65e-4 z m -0.546742,-3.924462 -0.113255,-0.05979 0.113255,0.05979 z m -0.129796,0.340337 0.0333,-0.03694 -0.0333,0.03694 z m -0.243332,0.206681 0.214458,-0.113457 -0.2145,0.113495 m 4.117408,3.917538 0.0835,-0.07689 -0.0835,0.07689 z m -0.126211,-2.563949 -0.04022,-0.05315 0.04022,0.05315 z m -0.02039,0.220183 -0.0098,-0.06697 0.0098,0.06697 z m -0.26979,2.784134 c 0.117767,-0.603504 0.684362,0.0095 1.4e-5,-6e-6 m -3.758029,-5.054864 -0.06669,-0.0733 0.06669,0.0733 z m -0.0733,-0.570164 0.01138,0.03352 -0.01138,-0.03379 m -0.0028,0.750666 c 0.261233,0.01936 0.11299,-0.519209 0,-2.7e-5 m -0.120435,-0.573446 -0.0333,-0.0098 0.0333,0.0098 z m -0.166445,-0.01348 0.06463,0.26353 -0.06463,-0.26353 m -0.02675,-0.179951 -0.03934,-0.218822 0.03934,0.218822 z m -0.06669,0.286324 -0.03338,-0.0132 0.03338,0.0132 z m -0.153218,-0.10969 0.08654,0.0835 -0.08654,-0.0835 z m -0.08681,-0.693346 c 0.245917,-0.024 0.04924,0.522686 -1.4e-5,-1.4e-5 m -0.183519,-0.186823 -0.02093,-0.402534 0.02099,0.402596 m -0.149968,0.356533 0.07661,-0.02647 -0.07661,0.02647 z m -0.143572,0.507055 -0.02004,-0.205437 0.02017,0.20543 m -0.07313,-0.170024 0.03304,-0.02311 -0.03304,0.02311 z m -0.02339,-0.423554 c 0.444233,0.345574 -0.381541,0.395256 -2e-5,-3.4e-5 m -0.07659,-0.516673 c -0.08353,-0.320155 0.929747,0.06827 2.1e-5,-2.1e-5 m -0.376734,3.297557 c 1.072506,-0.356842 0.554206,0.570998 0,-5.6e-5 m 5.458041,0.470186 -0.0069,-0.03666 0.0069,0.03666 z m -0.02039,-0.05014 -0.06669,-0.06307 0.06669,0.06307 z m -2.860469,-1.780489 -0.0333,-0.0333 0.0333,0.0333 z m -0.06005,-0.03304 -0.03338,-0.02039 0.03338,0.02039 z m -0.07331,-0.03358 -0.01683,-0.03666 0.01683,0.03666 z m -0.139713,0.03358 0.03044,-0.0379 -0.03044,0.03804 m 2.993891,1.433676 0.06642,-0.04351 -0.06642,0.04351 z m -0.363756,-0.213844 -0.0333,-0.0132 0.0333,0.0132 z m -0.225971,0.153499 -0.03338,-0.01319 0.03338,0.01319 z m -0.03358,0.25325 0.109678,-0.03304 -0.109678,0.03304 z m -2.627611,-0.930062 0.01176,-0.0062 -0.01176,0.0062 m -0.09013,0.523313 -0.134482,-0.103063 0.134482,0.103063 z m -0.296796,0.256836 -0.03667,-0.0098 0.03667,0.0098 z m -2.65379,-0.510086 0.08572,6.85e-4 -0.0856,-6.85e-4 m 6.578134,-5.18164 0.03722,-0.02011 -0.03722,0.02011 z m 0.01984,8.115687 0.03004,-0.09315 -0.03004,0.09315 z m -1.129855,-2.437191 0.06669,-0.02675 -0.06669,0.02675 z m -0.153771,0.05014 c -1.197821,0.272041 0.334191,-0.58327 -1.4e-5,-3.23e-4 m -4.837711,-2.724011 -0.0333,0.01656 0.0333,-0.01656 z m -0.163415,0.0069 0.02011,0.0333 -0.02011,-0.0333 z m 0.573475,-1.240364 0.03004,0.240297 -0.03004,-0.240297 z m -0.03666,-0.193179 0.0062,-0.06123 -0.0062,0.06123 m -0.0062,-1.050494 -0.03666,0.07 0.03666,-0.07 z m -0.09674,2.250349 -0.123455,0.136685 0.123455,-0.136685 z m -0.483361,-0.489974 0.07,-0.06341 -0.07,0.06341 z m -0.05664,0.02025 -0.0098,-0.07027 0.0098,0.07027 z m -0.02703,-0.0068 0.0333,0.02647 -0.0333,-0.02647 z m -0.0062,-0.113533 -0.0068,0.03332 0.0068,-0.03332 z m 6.735053,5.244746 0,-0.130076 0,0.130076 z m -0.726966,1.293825 0.04351,0.06971 -0.04351,-0.06971 z m -0.442867,-0.150261 c -0.326148,-0.06122 0.390693,-0.216566 0,0 z m -4.314683,-4.427931 -0.06669,-0.05321 0.06669,0.05321 z m -0.04323,-0.07661 -0.03666,-0.07993 0.03666,0.07993 z m -0.04685,-0.06669 -0.08322,-0.06005 0.08322,0.06005 z m -0.129796,-0.06005 c -0.246382,-0.05335 0.191674,-0.02463 -3.4e-5,0 m -0.07328,0.763617 -0.03667,-0.03365 0.03667,0.03365 z m -0.520284,-0.980223 0,-2.74e-4 m -0.246637,-0.05979 0.03666,-0.02311 -0.03666,0.02311 z m -0.766926,0.670197 c -0.313029,-0.256266 0.456731,-0.129192 0,-2e-5 m 7.23853,4.934467 0.03331,-0.02675 -0.03331,0.02675 z m -0.0069,0.01984 -0.08654,0.06697 0.08654,-0.06697 z m -0.0068,-0.01574 0.01028,-0.03358 -0.01028,0.03358 z m -0.02675,0.196208 0.03693,-0.01294 -0.03693,0.01294 z m -0.07299,0.04657 0.01772,-0.04521 -0.01772,0.04521 m -0.0098,-0.07661 0.09314,-0.04986 -0.09314,0.04986 z m -0.03358,0.08681 -0.100035,-0.02675 0.100035,0.02675 z m 0.130076,-1.863989 0.01028,-0.103345 -0.01028,0.103345 z m -2.403843,-1.993792 -0.06669,-0.02311 0.06669,0.02311 z m 2.9842,2.023547 -0.03667,-0.09975 0.03667,0.09975 z m -9.282741,-2.886923 0.109955,-0.133654 -0.109955,0.133654 z m -0.196482,0.193178 0.01682,-0.04022 -0.01682,0.04022 z m 9.052357,2.153898 -0.09574,-0.163909 0.09577,0.163873 m -0.08987,-0.589972 0.01682,-0.04323 -0.01682,0.04323 z m -0.08654,-0.16369 c 0.0054,-0.279325 0.268449,0.20203 1.4e-5,-2.1e-5 m -1.4e-5,0.0069 -0.08295,0.0813 0.08295,-0.0813 z m -0.487219,-0.720077 0.04323,0.01028 -0.04323,-0.01028 z m -3.7853,-0.664137 c -1.115566,1.811148 3.675308,-0.02538 0,0 z m -3.094426,-1.304298 c -1.96119,0.270325 5.628332,2.227725 1.092761,0.185188 l -0.616808,-0.185304 -0.475953,1.16e-4 z m 1.70608,1.070612 -0.256519,0.0014 0.256519,-0.0014 z M 13.572884,25.521522 c -1.595074,0.343486 -0.885778,0.931684 0.09705,0.134674 l -0.09705,-0.134674 z m 20.717732,-5.478705 c -0.829921,-0.12922 -2.377297,0.995718 -0.687873,0.342696 l 0.687873,-0.342696 z m 0.06999,0.322422 -0.143709,0.03754 0.143709,-0.03754 z m -6.184451,-0.439542 c -2.368636,1.103155 1.311775,1.005754 0.945281,1.942079 2.369198,0.60886 -3.28105,-0.61353 -4.615233,-0.485592 -3.684994,0.341389 -7.839496,-1.432131 -10.92442,1.402326 -0.865248,0.760027 0.86995,0.484035 -1.405151,1.176948 -2.6369765,1.256214 1.568082,1.942002 -1.927413,2.450997 -3.4315717,1.629295 3.572353,-1.406137 4.856944,-1.288501 5.08204,-1.141774 3.404703,5.56008 1.45679,8.097838 0.07471,1.779567 3.226176,9.144454 1.759578,3.827076 0.654047,-1.04498 1.921448,6.240738 5.223067,5.594207 2.273475,0.245966 6.738125,5.643538 3.989951,1.399906 0.905019,-1.956477 -3.039524,-1.363857 -0.901744,-3.720126 -3.693694,3.389866 -4.83227,-3.213723 -0.660368,-3.431792 1.918221,-1.201749 2.447246,0.461735 3.497466,1.630967 0.637316,-3.585385 4.003337,-6.929394 7.595508,-7.572221 3.467491,-0.594467 -3.507364,-2.093225 1.088472,-2.262126 3.006019,-1.802506 -0.340131,2.671203 2.762729,0.914439 -0.697319,-1.488354 -0.57381,-4.927665 -2.798908,-4.77718 -2.636526,-3.479376 -4.290502,6.646965 -6.073235,1.639931 -3.650949,-2.935995 3.852343,-2.296497 3.880765,-3.984912 1.774224,-1.27182 2.303392,-0.900266 2.862038,-0.222369 -2.902698,0.898413 -0.717649,1.380032 0.962614,2.178788 -1.302588,-1.894073 3.637544,-1.074674 0.870737,-3.183655 -2.334934,-2.115441 -4.806456,-0.933758 -5.667199,1.016098 -0.12008,-1.866798 1.398511,-3.106223 -1.235839,-1.184132 -1.870378,1.210789 -4.370527,1.260936 -1.52585,-0.197843 -0.0249,-0.834061 -3.163889,-0.650079 -4.01658,-0.961151 z m 9.012677,0.411709 c -0.721595,0.636435 0.20398,0.384149 0,0 z m 1.299339,0.07468 0.262328,0.08715 -0.262328,-0.08715 z m -1.729508,0.261796 -0.06711,0.117451 0.06711,-0.117451 z m 2.767326,0.06062 -0.106276,0.03156 0.106276,-0.03156 z m 0.677914,0.373954 c -0.235055,0.302035 -0.173656,-0.176783 0,0 z m 0.486117,0.196487 c 0.09734,0.362328 -0.698982,0.04757 0,0 z m -4.660531,0.01873 -0.08505,-0.0015 0.08505,0.0015 z m 4.454669,0.0372 -0.155555,0.02505 0.155555,-0.02505 z m -15.767019,0.05622 -0.08506,-0.0015 0.08506,0.0015 z m 12.167735,0.01846 c -0.09749,0.21543 -0.248961,-0.208716 0,0 z m 0.691971,-0.01378 -0.161637,-0.0012 0.161637,0.0012 z m -13.219884,0.06062 -0.137656,0.03405 0.137656,-0.03405 z m 10.190491,0 -0.08925,-1.79e-4 0.08925,1.79e-4 z m -0.794487,0.102793 c -0.935487,1.234522 -1.06347,0.06574 0,0 z m -10.424172,0.0609 c -0.575621,0.227933 0.148615,-0.247545 0,0 z m 17.529602,-0.03279 -0.324808,-0.01851 0.324808,0.01851 z m -6.151666,0.159007 c -0.310232,0.657526 -0.02901,-0.372142 0,0 z m 3.650818,-0.0093 c -0.145487,0.202094 -0.07397,-0.191975 0,0 z m -1.425823,0.04684 -0.06424,-0.0019 0.06424,0.0019 z m 1.715458,-0.01873 -0.08507,-0.0015 0.08507,0.0015 z m -3.2347,0.294315 -0.08278,0.02771 0.08278,-0.02771 z m -2.921652,0.02343 -0.138489,0.02704 0.138489,-0.02704 z m 6.254457,0.01406 -0.161637,-0.0012 0.161637,0.0012 z m -9.246098,0.229279 -0.159744,-0.02359 0.159744,0.02359 z m 3.258127,0.04658 -0.08507,-0.0015 0.08507,0.0015 z m -6.506878,0.06532 c -0.49178,1.098862 -1.680723,0.210257 -0.732799,0.11371 l 0.732799,-0.11371 z m 13.018437,-0.0044 c 0.750605,0.267636 -0.736173,0.267605 0,0 z m 2.403015,0.04656 -0.09179,-0.02698 0.09179,0.02698 z m -26.444174,0.07965 -0.08507,-0.0015 0.08507,0.0015 z m 20.007019,0.168101 c -0.221024,0.351747 -0.270857,-0.557333 0,0 z m -1.131237,0.159007 c -0.06109,0.223835 -0.326292,-0.27197 0,0 z m -19.867024,0.299274 -0.08375,0.03617 0.08375,-0.03617 z m 23.443161,0.05126 c -0.09841,0.184776 -0.176735,-0.225531 0,0 z m 0.584221,0.36927 -0.111978,-0.0022 0.111978,0.0022 z m -12.116481,0.556386 c 1.626129,0.136102 -3.249257,0.569711 0,0 z m 13.575096,0.173062 -0.08505,-0.0015 0.08505,0.0015 z m -24.106747,0.186877 -0.138661,-0.02728 0.138661,0.02728 z m -0.388006,0.04684 -0.08507,-0.0015 0.08507,0.0015 z m -0.196488,0.06532 c -0.490351,0.555117 -0.0981,-0.202287 0,0 z m -1.505185,0.453322 -0.137718,-0.0017 0.137718,0.0017 z m 0.266479,-0.01378 -0.155249,0.02535 0.155249,-0.02535 z m 4.758627,0.378639 -0.04241,-0.07645 0.04241,0.07645 z m 0.07965,0.116845 c -0.07286,0.192086 -0.146308,-0.201362 0,0 z m -0.233686,0.09343 c 0.210141,0.386768 -0.263252,0.01827 0,0 z m -6.006986,0.04684 -0.0643,0.0015 0.0643,-0.0015 z m 6.40409,0.210264 -0.211006,0.01478 0.211006,-0.01478 z m -0.06533,0.172786 c -0.260664,0.355836 -0.203985,-0.200387 0,0 z m -0.308369,0.149636 -0.09122,0.06975 0.09122,-0.06975 z m 0.186838,0.1918 c -0.0472,0.249738 -0.106492,-0.256008 0,0 z m 0.313055,-0.04217 -0.08506,-0.0015 0.08506,0.0015 z m -0.55612,0.360189 c -0.163327,0.403833 0.0014,-0.419436 0,0 z m 9.807165,0.551426 c 0.266725,1.68774 -0.972555,-0.09111 0,0 z m 11.705048,-0.03279 -0.210335,0.05346 0.210335,-0.05346 z m -21.409423,0.168376 -0.06424,0.0019 0.06424,-0.0019 z m 9.58285,0.817906 -0.234084,0.194465 0.234084,-0.194465 z m -9.087362,0.565757 c 0.747576,0.63225 -0.115429,0.409968 0,0 z m 11.578836,0.420802 c 0.276051,1.53618 -3.688386,0.242336 0,0 z m -11.443252,0.163415 c -0.309247,0.249879 -0.189861,-0.221103 0,0 z m 17.950405,0.135585 c -0.187657,0.18035 -0.101008,-0.241009 0,0 z m 0.490796,0.635751 -0.160037,-0.02338 0.160037,0.02338 z m -6.146975,0.08873 -0.396398,-0.01377 0.396398,0.01377 z m -0.864756,0.05154 c -1.257696,2.911234 -2.602467,0.785845 0,0 z m 0.794485,0.140266 c 0.970374,1.196054 -2.11282,0.215298 -6e-5,7e-6 0,0 6e-5,-7e-6 6e-5,-7e-6 z m 0.112155,-0.06559 -0.10835,-0.0044 0.10835,0.0044 z m 1.523934,0.724762 c -1.27158,0.786697 -1.399856,-0.225513 0,0 z m -1.075022,0.458005 c -1.792953,0.836923 -1.511411,0.160731 0,0 z m -1.192136,0.257112 -0.209206,-0.0014 0.209206,0.0014 z m 1.308984,1.687621 -0.08273,-0.02749 0.08273,0.02749 z m 0,0.790074 -0.07333,-0.03226 0.07333,0.03226 z m -5.515912,2.33715 -0.08946,-1.73e-4 0.08946,1.73e-4 z m 0.528001,7.591535 c -0.346101,0.362094 -0.222682,-0.69881 0,0 z m 3.982898,-25.266132 c -4.678938,0.81806 5.606311,0.936888 0.486212,0.103874 0.490754,-0.150986 -0.450403,-0.06454 -0.486212,-0.103874 z m -0.09838,0.430172 c 0.39248,0.336704 -1.344101,-0.291285 0,0 z m 0.168376,-0.09838 c -0.295394,0.227721 -0.173561,-0.21069 0,0 z m -0.04657,0.420802 -0.155297,-0.0055 0.155297,0.0055 z m 1.953838,-1.103126 c -1.611786,0.601866 1.324764,0.08568 0,0 z m 1.949417,-0.21054 c -1.09601,0.990264 2.062244,-0.04474 0,0 z m 15.846669,-1.065648 c -4.273893,0.802634 -9.989651,-0.825225 -13.288329,1.168667 2.713835,1.229055 -7.289559,0.636938 -1.636815,1.181727 0.528268,0.06828 5.003274,0.1599 1.48225,-0.336452 1.842771,0.573238 10.051599,-2.682627 5.112802,-0.672743 -1.657166,0.311167 4.056048,1.546767 2.082819,2.748383 -1.956813,1.589303 0.934371,5.419614 2.57074,1.794945 3.802622,-0.594476 6.837796,-3.725678 8.237338,-5.452378 -1.549456,-0.05973 -2.955175,-0.702503 -4.560805,-0.432149 z m -1.836984,0.345846 c -0.241908,0.229305 -0.01163,-0.255757 0,0 z m 4.501515,0.02343 c -0.23507,0.302017 -0.173643,-0.176777 0,0 z m -14.131211,0.07468 -0.08506,-0.0015 0.08506,0.0015 z m 0.233686,0.336752 c -0.261692,0.465037 -0.601822,-0.278599 0,0 z m 0.738546,-0.03748 c -0.0028,0.359913 -0.345636,-0.138331 0,0 z m -0.771339,0.313329 c -0.175004,0.158064 -0.09325,-0.271985 0,0 z m -0.09343,0.07937 -0.09157,0.03055 0.09157,-0.03055 z m -0.888179,0.191798 -0.105941,0.06218 0.105941,-0.06218 z m 4.54837,0.289631 -0.114101,-0.0022 0.114101,0.0022 z m -0.701067,0.04684 -0.114051,-0.0022 0.114051,0.0022 z m -7.703694,0.298999 -0.08273,-0.02749 0.08273,0.02749 z m -0.738547,0.07027 -0.08505,-0.0015 0.08505,0.0015 z m 18.501833,0.813222 -0.06424,0.0019 0.06424,-0.0019 z m -0.102793,0.140268 c 0.136466,0.673669 -0.55088,-0.26411 0,0 z m 0.420806,-0.01406 -0.137717,-0.0017 0.137717,0.0017 z m 0.01846,0.08901 -0.08506,-0.0015 0.08506,0.0015 z m -8.797459,2.954163 -0.07614,-0.04247 0.07614,0.04247 z m -18.332358,25.73182 0.07661,-0.110512 -0.07661,0.110512 z m -0.320218,0.156248 0.02675,-0.03304 -0.02675,0.03304 z m 0.03667,-0.229276 -0.0132,-0.110512 0.0132,0.110512 z m -0.05321,-0.41722 -0.01984,-0.03358 0.01984,0.03358 z m -0.04323,0.256561 -0.06314,-0.08322 0.06314,0.08322 z m -0.353565,-0.15267 c 0.034,0.58665 0.578045,0.300915 1.4e-5,0 m 0.03667,0.199239 0.0062,-0.08845 -0.0062,0.08845 z m 14.30782,20.598093 c -0.727464,0.768698 1.97652,-0.202098 0,0 z M 31.686695,43.892481 c -3.382986,0.882728 -1.541016,3.448926 -3.319329,5.708609 0.359262,4.753279 6.235159,7.714379 4.5186,13.311984 1.01311,3.141356 0.04878,4.282635 2.274384,7.105709 1.192286,1.723996 4.554189,1.142976 1.747653,-0.363638 -0.924814,-2.831749 -0.509255,-4.424547 1.431448,-6.116042 -0.607205,-0.668685 2.533502,-2.150484 2.245544,-4.117851 3.965618,-1.982732 5.814006,-10.194746 -0.469672,-10.145146 -1.779319,-3.088994 -5.234471,-4.574876 -8.428642,-5.384227 l 1.4e-5,6.02e-4 0,0 z m 0.196482,1.10313 c -0.447011,0.752392 -0.08077,-1.018597 0,0 z m 0.874128,10.251663 c 0.335157,0.494457 -0.554486,-0.226333 0,0 z m 9.035826,3.024162 -0.06423,0.0021 0.06423,-0.0021 z m -1.743565,3.047863 -0.0093,-0.08398 0.0093,0.08398 z m -3.374961,4.852047 -0.161049,0.0021 0.161049,-0.0021 z m -2.528954,0.771612 c -0.16087,0.204943 0.01087,-0.236697 0,0 z m -0.08873,0.168095 c 0.05924,0.387705 -0.202344,-0.360172 0,0 z m 0.210259,0.154325 -0.138435,0.02715 0.138435,-0.02715 z m 2.103463,2.972907 c 0.911922,0.366608 -0.348893,0.247367 0,0 z m -0.303684,-0.004 -0.107217,0.03311 0.107217,-0.03311 z m 21.969392,-36.977238 0.03358,-0.02013 -0.03358,0.02013 z m -8.761902,0.683426 -0.04385,-0.03334 0.04385,0.03334 z m -0.103067,-0.310298 c -0.395255,-0.151092 0.397152,-0.07107 0,0 z m -0.504024,-0.366517 -0.03994,-0.07 0.03994,0.07 z m -0.226525,0.03335 -0.136958,-0.0733 0.136958,0.0733 z m -0.02675,-0.18684 -0.0035,-0.03334 0.0035,0.03334 z m -0.127045,0.253529 c -0.330478,-0.07404 0.251157,-0.01488 0,6e-6 m -0.119866,-0.05347 -0.03502,-0.0474 0.03502,0.0474 z m -0.793385,-0.336201 0.01594,-0.05404 -0.01594,0.05404 z m 17.96529,1.490033 c 0.372567,0.814019 1.662898,-0.193694 0,0 z m -4.772958,-2.921646 c -0.918003,1.454679 0.535565,2.433669 0,0 z m -5.155741,-4.833623 c -3.157083,2.48948 2.844458,0.668532 0,0 z m 1.533025,-1.472673 c -1.740848,0.464459 -0.274544,3.112726 -0.320409,3.424567 2.676029,-0.188985 0.404108,-2.170104 0.320409,-3.424567 z m -0.892864,0.640711 -0.06424,-0.0019 0.06424,0.0019 z m -0.107463,-1.790419 c -0.142347,0.704383 0.532556,-0.05061 0,0 z m -4.024774,-1.453932 c -1.045021,2.403632 4.846034,-0.68231 0.56595,0.197712 l -0.304415,-0.038 -0.261535,-0.15972 z m 12.75719,-1.612666 c -2.01893,0.254601 -5.386273,2.414565 -4.900293,4.222105 1.884593,0.288072 1.781947,1.235082 0.427557,1.002111 -0.212353,2.377659 -4.676285,2.565015 -3.9163,4.618343 -4.385016,1.181057 0.306317,5.626797 1.642088,1.563945 1.436118,-3.040794 5.672574,0.844331 4.408409,1.266175 3.167479,-0.491198 -2.713711,-4.269964 0.650654,-2.225506 1.077642,1.840343 2.819265,3.706071 2.506114,0.995217 1.89594,0.126492 1.381258,-3.56934 3.836951,-1.558988 2.027392,0.08282 4.977227,2.95583 3.842569,-0.992563 0.06519,-2.559668 5.57514,-0.972113 1.732346,-3.404369 0.111422,-2.26245 0.134058,-6.767553 -1.892868,-4.694371 -1.539032,-0.201293 -7.829187,2.140403 -4.049633,0.784736 -0.978314,-1.310119 -2.890487,-1.116262 -4.287594,-1.576835 z m 0.209991,0.08873 -0.06416,-0.0021 0.06416,0.0021 z m 0.514497,-0.02811 -0.159989,0.02358 0.159989,-0.02358 z m -2.150312,0.448912 -0.138983,-0.02691 0.138983,0.02691 z m -0.467648,0.09343 -0.0902,0.02392 0.0902,-0.02392 z m -0.495207,0.308645 -0.0563,-0.0022 0.0563,0.0022 z m 0.369269,-0.04217 -0.114114,-0.0022 0.114114,0.0022 z m 2.084721,1.023761 c -3.155373,2.382347 3.577505,1.921625 -0.424511,2.561608 1.613118,1.440006 -5.488379,2.557661 -1.30971,0.240991 -0.12247,-1.192674 0.257013,-2.792577 1.734221,-2.802599 z m -3.641448,0.448913 c -0.266493,0.833089 -0.447661,-0.108276 0,0 z m -0.855659,0.532685 -0.08506,-0.0015 0.08506,0.0015 z m 0.995654,2.916962 c -0.173334,0.219032 -0.201326,-0.282448 0,0 z m 2.814449,0.0093 c -0.192857,0.06101 0.191045,-0.212051 0,0 z m -3.048136,0.07937 c 0.121534,0.377156 -0.471294,-0.192456 0,0 z m -1.612669,0.841606 -0.07636,0.03306 0.07636,-0.03306 z m 10.40103,2.243732 c -0.606123,1.363897 -1.782527,-0.186913 0,0 z m -5.282222,3.431184 c -0.03906,0.491478 -0.372985,-0.348416 0,0 z m 0.888178,-0.107476 -0.09916,0.01693 0.09916,-0.01693 z m -0.294587,0.1681 -0.08507,-0.0015 0.08507,0.0015 z m 0.09343,0.168376 -0.0095,-0.08398 0.0095,0.08398 z M 74.052496,19.13123 c -2.714054,-1.017517 -3.252108,3.859788 -1.07793,0.961951 0.34171,-0.134224 0.528137,-1.05852 1.07793,-0.961951 z m -2.402741,1.023761 -0.08505,-0.0015 0.08505,0.0015 z m -9.148266,-1.954056 c -4.011895,0.814148 2.902176,1.051435 1.653318,0.04171 l -0.880503,-0.07515 -0.772815,0.03344 0,0 z m 0.411432,0.233688 c -0.202289,0.210744 -0.203008,-0.285971 0,0 z m -0.925383,0.313329 -0.171686,-0.04119 0.171686,0.04119 z m -0.327379,0.116845 -0.08979,1.77e-4 0.08979,-1.77e-4 z m 7.815854,-0.869439 c -2.414747,0.07315 1.718051,0.495513 0,0 z m 1.607983,-0.210541 c -2.835313,0.756985 3.175976,0.336799 0,0 z m 0.556387,0.23865 -0.30748,0.07673 0.30748,-0.07673 z m -1.191863,0.06532 -0.09179,0.0305 0.09179,-0.0305 z m -62.1052375,34.596514 0.04507,-0.05657 -0.04507,0.05657 -6e-6,0 z m -0.233686,-0.36293 0.03332,-0.02346 -0.03332,0.02346 z m -0.149914,0.199787 -0.02311,-0.03332 0.02311,0.03332 z m -0.05014,-0.197037 c 0.187111,-0.02428 -0.174887,-0.138297 2.1e-5,1.4e-5 m 107.0225665,-5.697802 3.4e-4,-6.8e-5 m -1.72819,-0.6073 -0.0331,-0.06972 0.0331,0.06972 z m -4.7873,-3.330595 0.006,-0.06669 -0.006,0.06669 z m -0.0265,0.0733 -0.0108,-0.07 0.0108,0.07 z m -0.18353,-1.256896 0.01,-0.0333 -0.01,0.0333 z m -0.0402,1.927372 0.057,-0.146882 -0.057,0.146882 z m -0.0331,-2.197435 -0.01,-0.03667 0.01,0.03667 z m 14.09098,14.941122 -0.0375,0.05261 0.0375,-0.05261 z m -0.65394,1.156314 -0.01,-0.03667 0.01,0.03667 z m -0.0565,-0.07634 c 0.18793,-0.102955 -0.23113,-0.07468 3e-5,0 m 0.38659,-3.17077 -0.004,-0.03694 0.004,0.03694 z m 1.60358,0.283567 -0.2031,-0.07027 0.2031,0.07027 z m -0.36295,-0.21991 c -0.20018,0.139992 0.42782,0.01251 4e-5,-2.8e-5 m 0.58281,0.346148 0.0466,-0.04658 -0.0466,0.04658 z m -2.56037,-0.02011 -0.0365,-0.0096 0.0365,0.0096 z m -4.94822,11.990543 0.037,-0.03339 -0.037,0.03339 z m -0.0397,-0.1207 c 0.29389,0.07612 0.0229,-0.295996 4e-5,-2.95e-4 m -0.37041,-3.166892 -0.0297,0.112156 0.0297,-0.112156 z m -0.23673,0.27696 -0.06,0.02311 0.06,-0.02311 z m -1.30043,1.800325 c 3.08669,-0.40609 0.924,-4.326084 0.30684,-0.648204 l -0.12739,0.492689 -0.17996,0.155147 m -0.10917,-0.229734 -0.0937,0.08323 0.0937,-0.08323 z m -3.96111,2.104017 c 2.0002,0.777824 5.77745,-3.784302 1.75951,-1.016811 -0.55454,0.395065 -1.20807,0.635442 -1.75934,1.016825 m 0.19631,0.350239 c -0.59991,-0.0048 -0.0327,0.279505 0,1.4e-5 m -1.71407,1.433526 -0.18323,0.106947 0.18323,-0.106914 m -0.15654,0.127011 -0.0328,0.0062 0.0328,-0.0062 z m -3.59542,-3.672859 c -1.00028,2.421964 2.53742,-0.653637 0,0 z m 2.83262,-12.088692 c 0.18135,2.882208 -2.78781,2.748425 -2.41765,0.341593 -3.17688,0.10169 -5.13702,2.985957 -8.389533,4.565593 -0.584077,2.526505 -1.137633,6.59092 2.662092,4.118406 4.036771,-2.850211 5.126501,5.623242 8.663141,0.774335 4.31803,-3.295922 0.41855,-6.144854 -0.51805,-9.799927 z m -11.041184,6.277869 c -0.04671,0.250508 -0.107541,-0.256123 0,0 z m 8.881514,4.768273 c -0.21229,0.239399 0.0687,-0.234472 0,0 z m 14.98576,-8.648921 0.0297,-0.03666 -0.0297,0.03666 z m -0.51697,0.53021 0.0297,-0.03304 -0.0297,0.03304 z m -0.14661,-0.209992 -0.0201,-0.06972 0.0201,0.06972 z m 0.41034,-0.779601 c -1.09004,0.101192 -0.0381,0.487183 -4e-5,-2.2e-5 m -0.57316,0.633294 0.0363,-0.02647 -0.0363,0.02647 z m -0.3836,-0.363484 0.067,-0.05732 -0.067,0.05732 z m 0.01,0.926487 0.0906,-0.04754 -0.0905,0.04727 m -0.0938,-0.22625 0.004,-0.03332 -0.004,0.03332 z m -0.0267,-0.569336 0.0336,-0.03086 -0.0336,0.03086 z m 0.0198,0.392971 c 0.96694,0.389866 -0.035,-0.866063 5.7e-4,-3.01e-4 M 104.29268,49.10912 c 0.80314,1.679696 2.97352,4.270719 4.78336,3.247314 4.08421,2.139095 -2.36976,-4.554096 -3.84835,-2.521676 -0.0324,-0.42129 -0.35334,-1.083376 -0.93501,-0.725638 z m 12.10657,7.740077 0.0298,-0.03276 -0.0298,0.03276 z m -0.0764,-0.235896 0,-0.136683 0,0.136683 z m 0.006,-0.263996 c 0.13645,-0.348311 -0.25586,-0.01416 7e-5,-2.1e-5 m -0.0863,-1.44317 0.0196,-0.173336 -0.0196,0.173336 z m -0.0212,0.240027 0.021,-0.206681 -0.021,0.206681 z m -0.0361,0.206955 0.006,-0.03304 -0.006,0.03304 z m 0.0598,0.133379 -0.097,-0.08626 0.097,0.08626 z m -0.073,-0.19373 c 0.25188,-0.06878 -0.25081,-0.130522 2e-5,0 m -0.0367,-0.349981 0.042,-0.08198 -0.042,0.08195 m -0.0237,-0.617246 0.0198,-0.09644 -0.0198,0.09644 z m -0.0234,1.454211 0.0334,-0.02039 -0.0334,0.02039 z m 0.0171,-1.304017 -0.0119,-0.05704 0.0119,0.05704 z m 0.0228,1.404051 c 0.27608,-0.216935 -0.24943,-0.04774 -4e-5,1.4e-5 m -0.24302,-0.829496 1.3e-4,0 m 0.0396,0.336202 c 0.37231,-0.143284 -0.33999,-0.431297 2e-5,-1.9e-5 m -0.0835,-1.367106 0.01,-0.03311 -0.01,0.03311 z m 0.0637,0.776571 c -0.14595,-0.374057 -0.30333,0.626604 -4.4e-4,-7e-6 m 0.0303,-1.503811 -0.003,-0.03611 0.003,0.03611 z m -0.19648,-0.200339 0.0669,-0.07299 -0.0669,0.07292 m -1.47381,-0.429834 -0.048,-0.152896 0.0481,0.152862 m 0.053,0.383354 c 0.59955,0.117666 -0.56896,-0.440388 -3e-5,-3.4e-5 m -0.26976,-0.642603 c 0.5337,0.670607 -0.3581,-1.080681 -5e-5,3.4e-5 m -0.21986,0.01984 0.0603,-0.03004 -0.0603,0.03004 z m 0.01,-0.02675 -0.0369,-0.05321 0.0369,0.05321 z m -0.20695,0.976912 0.16209,0.10381 -0.16209,-0.103843 m 0.024,-1.210851 -0.0108,-0.06697 0.0108,0.06697 z m 0.0628,0.510365 c 0.92603,0.26765 -0.50275,-0.568782 0,3.01e-4 m -0.2899,-0.283588 0.0267,-0.03967 -0.0267,0.03967 z m 0.0397,-0.399858 c 0.82108,0.596881 -0.74574,-0.793256 1e-5,5.4e-5 m -0.18684,-0.183869 -0.0703,-0.02311 0.0703,0.02311 z m -0.0363,-0.03994 -0.0336,-0.01656 0.0336,0.01656 z m -0.12676,0.513669 -0.003,-0.03722 0.003,0.03722 z m -0.0664,-0.02621 0.0328,-0.100316 -0.0328,0.100316 z m -0.0507,-0.520285 0,-0.03358 0,0.03358 z m -0.0463,-0.0075 -0.0333,-0.01656 0.0333,0.01656 z m -0.0369,0.537097 -0.0331,-0.0132 0.0331,0.0132 z m 0.07,-0.08985 c 0.0745,-0.371082 -0.40945,-0.144619 1.1e-4,2.7e-5 m -0.14974,0.06334 0.006,-0.126485 -0.006,0.126485 z m -0.0598,-0.233133 -0.0151,-0.117945 0.0151,0.117945 z m -0.0739,-0.413643 c 0.67801,0.498717 -0.46617,-0.654677 0,0 z m -0.1232,0.436237 -0.0135,-0.102793 0.0135,0.102793 z m 0.0468,-0.102793 -0.0143,-0.144372 0.0143,0.144344 m -3.15097,-2.36713 0.006,-0.02011 -0.006,0.02011 z m -0.29018,0.07634 c 0.22408,-0.338083 0.42862,0.06765 0,-2.7e-5 m 3.25454,1.903978 0,-0.06669 0,0.06669 z m -0.11684,0.05704 -8e-5,2.74e-4 m -0.24381,-0.364585 c 0.7213,0.790213 -0.26647,-0.85897 9e-5,-2.8e-5 m -0.10923,-0.306412 0,-0.169751 0,0.169751 z m -0.11656,-0.34667 -0.004,-0.03694 0.004,0.03694 z m -0.53434,-0.543439 -0.0201,-0.06999 0.0201,0.06999 z m -0.10632,2.404672 -0.0799,-0.0835 0.0799,0.0835 z m -0.097,-2.498089 -0.0163,-0.03276 0.0163,0.03276 z m -0.0331,-0.06005 -0.003,-0.03694 0.003,0.03694 z m 0.23314,0.403719 c -1.61898,-2.127207 -3.24125,-3.505586 -2.9e-4,6.1e-5 m -0.6531,-0.349767 0.067,-0.01738 -0.067,0.01738 z m -0.0303,2.34349 0.01,-0.16629 -0.01,0.166257 m -0.23646,-2.533881 c 0.0903,0.253908 0.28093,-0.240301 -3e-5,-1.63e-4 m -0.0865,-0.363319 -0.0645,-0.0824 0.0645,0.0824 z m -0.11684,1.250007 -0.033,-0.0096 0.033,0.0096 z m -0.27007,0.493559 c 2.1125,-0.386987 0.92433,-0.786738 -5e-5,2.53e-4 m -0.25678,-0.193433 -0.006,-0.03666 0.006,0.03666 z m -0.0637,-1.25056 0.0174,-0.03358 -0.0174,0.03358 z m 0.01,1.404051 -0.0367,-0.140541 0.0367,0.140541 z m -0.29349,-0.160386 -0.0163,-0.100857 0.0163,0.100857 z m -0.39958,-0.276951 0.0198,-0.09315 -0.0198,0.09315 z m 4.13115,5.842195 0.0262,-0.07056 -0.0262,0.07056 z m 2.57386,0.926477 c 0.24899,-0.04563 -0.17407,-0.225991 3e-4,7e-6 m -0.17032,-0.189875 c 0.13436,-0.420141 -0.2424,-0.0717 2e-5,0 m -0.10697,0.596896 0.0232,-0.03276 -0.0232,0.03276 z m -0.14992,-0.783186 0.0603,-0.103615 -0.0603,0.103615 z m -0.74378,-0.01028 c 1.08759,2.177099 0.52177,-0.532146 1.4e-4,7e-6 m -14.696833,-16.441082 0.0196,-0.05378 -0.0196,0.05378 z m 5.061223,5.204509 0.0262,-0.136691 -0.0262,0.136691 z m 8.6558,-17.718373 0.07,0.04353 -0.07,-0.04353 z m -0.0606,0.09672 -0.0475,-0.125516 0.0477,0.125516 m 1.47692,-0.363235 -0.0222,-0.05705 0.0221,0.05705 m -0.40315,0.110221 -0.029,-0.04644 0.029,0.04647 m -0.19956,0.08623 c 0.47398,-0.07407 -0.58056,-0.02503 0,0 z m -0.36651,-0.04299 -0.068,0.01352 0.068,-0.01352 m -0.50792,0.209711 c 0.31513,-0.08008 -0.1969,-0.186718 1.6e-4,-5e-6 m -0.23632,-0.02646 0.0926,-0.07339 -0.0926,0.07338 m -0.15019,-2.070663 -0.0667,-0.02343 0.0667,0.02343 z m 0.0899,2.093818 -0.13573,-0.133084 0.13533,0.133111 m -0.84616,-0.106665 -0.067,-0.05677 0.067,0.05677 z m -0.13724,0.09672 0.21608,0.08458 -0.21605,-0.08458 m -0.21305,-0.106924 -0.0333,-0.01324 0.0333,0.01324 z m 0.006,0.05042 -0.0669,-0.02039 0.0669,0.02039 z m -0.34723,-0.02039 0.01,-0.08178 -0.01,0.08179 m -1.30712,-0.203383 -0.10275,-0.01985 0.10275,0.01985 z m -0.36927,-0.153218 c 0.3502,-0.0845 -0.49327,-0.08977 10e-6,0 m -8.18955,9.589183 -0.0972,0.146513 0.0973,-0.146513 m -0.13371,0.130347 0.0334,0.02645 -0.0334,-0.02645 z m -0.0595,0.116566 0.0466,0.07 -0.0466,-0.07 z m -0.0736,0.193452 -7e-5,0 m -0.16335,0.536543 0.0978,-0.304689 -0.0978,0.304716 m -0.35054,-0.12348 0.0242,0.03358 -0.0242,-0.03358 z m -0.35605,0.607095 0.0598,0.04658 -0.0598,-0.04658 z m -0.38085,0.173334 0.0577,-0.0028 -0.0577,0.0028 m -0.0998,0.01354 0.0183,0.05486 -0.0183,-0.05479 m 8.57894,-15.664579 0.11049,-0.01324 -0.11049,0.01324 z m -9.779073,16.018074 c 0.74549,1.78114 0.37774,-2.002405 -3.3e-4,0 m -3.694024,1.683486 c 0.610454,1.35307 0.980654,-1.228882 -6.1e-5,-2.67e-4 m -5.486086,2.037591 -0.0956,-0.346067 0.128161,0.416119 m -0.248072,-0.887959 0.0021,0.0865 m 12.867155,9.95848 c -1.68596,0.199088 -1.54282,1.357455 0,0 z m 0.72918,-2.224996 c -1.21072,0.668876 2.76529,0.0867 0,0 z m -1.44457,-1.673841 c -3.001337,-0.401269 -1.855407,4.14489 -0.61293,2.067162 -0.3282,-1.147744 -0.96393,-1.611814 0.61293,-2.067162 z m 1.14088,-0.252429 c -0.34331,2.648092 0.83912,-0.3014 0,0 z m -19.680179,-0.780423 0.191427,0.550901 -0.191427,-0.550901 z m 0.233686,0.612327 -0.08961,-1.71e-4 0.08961,1.71e-4 z m 7.829913,-1.308983 c 1.001427,4.652083 7.927893,6.973397 9.98119,5.59049 -3.558177,0.183883 -6.489163,-0.660408 -6.979465,-3.614751 -1.100743,-0.516158 -1.743901,-1.748934 -3.001725,-1.975739 z m 8.063873,5.731135 -0.13899,-0.02716 0.13899,0.02716 z m -0.36018,-6.441567 c -1.874174,1.458458 -4.500274,4.310332 -0.26201,4.55785 0.61028,-1.461606 1.626367,-3.666306 0.26201,-4.55785 z M 85.612389,44.958167 c -0.831562,2.3202 2.180602,1.50301 0,0 z m 13.977168,-0.523595 c -1.68375,1.884565 -1.224,2.543708 0,0 z m 0.869433,-0.331791 c 0.0158,1.708051 1.89088,0.568638 0,0 z m 0.73386,0.434855 -0.01,-0.08362 0.01,0.08362 z m -0.0325,0.341163 -0.0782,-0.121686 0.0782,0.121686 z m 0.0791,-0.01402 -0.009,-0.08398 0.009,0.08398 z m -0.18684,0.09343 -0.01,-0.08403 0.01,0.08403 z m 0.24771,-1.07973 c 0.58861,1.144639 -1.19268,3.085375 0.86604,2.101835 0.0582,-0.442016 -0.41118,-2.255811 -0.86604,-2.101835 z m -1.622033,-2.472733 c -0.26531,3.071524 3.037533,3.479333 0,0 z M 68.877815,34.501202 c -1.842443,0.0022 0.464418,0.683442 0,0 z m 34.619675,-2.337155 c 1.16743,2.389068 -3.28938,2.263593 -1.51198,3.905156 1.07982,-1.430711 4.60948,-1.256266 1.51198,-3.905156 z m 0.23368,0.135582 -0.13868,0.02689 0.13868,-0.02689 z M 102.87579,34.922 c -0.13758,0.363115 -0.38558,-0.335712 0,0 z m -0.34144,0.140268 c -0.41175,0.339116 -0.0465,-0.267474 0,0 z m -0.40647,0.07937 -0.01,-0.08362 0.01,0.08362 z m 0.13531,0.02343 c -0.49951,0.659791 -0.41763,-0.357555 0,0 z m 0.53323,-4.585842 c -0.15019,2.956391 3.94082,0.15101 0,0 z M 92.418698,19.981945 c 1.023295,0.944833 1.611677,-0.193024 0,0 z m -10.26544,-1.02817 c -2.193546,0.597548 -4.091702,1.758506 -5.293791,1.853939 2.014634,4.455143 -1.25926,-2.972783 -1.392531,0.941981 -2.827993,1.945555 1.34601,6.105503 0.07532,6.553455 -4.948988,-1.298016 2.383179,8.805046 -2.117309,4.218912 -2.739123,-2.598063 -3.291453,0.497814 -6.793448,-0.221717 -2.151195,2.899523 4.892494,0.440383 2.243861,4.145504 1.809,1.910154 3.086381,9.98474 7.221689,5.76223 3.204118,-0.756911 1.491553,-4.922851 -0.881318,-3.317496 -3.554309,-4.273338 3.091956,1.040959 5.237733,-0.112686 3.361535,0.397337 2.039992,6.996847 5.200776,5.832188 -0.239857,-3.37146 3.866633,-6.556984 5.388624,-2.317901 1.375575,1.085584 2.027569,6.978151 3.224836,5.572452 -1.446686,-1.749981 -2.548428,-5.737216 0.59927,-2.789858 2.850976,-1.664881 -2.447232,-5.057422 2.041332,-5.160821 4.760768,-1.451113 -0.124504,-6.060397 0.378758,-7.133359 1.322146,-0.607159 4.2815,4.223134 2.72215,0.262383 -0.345694,-1.661138 1.83065,-2.201158 1.58434,-4.29071 2.85951,3.5234 -0.0758,-2.373137 -1.910444,-1.467452 -3.539069,-1.30867 2.428834,-2.649153 3.835984,-2.724899 -0.12076,-0.01416 1.43325,5.509139 2.63394,2.636294 -0.77581,-1.716729 -2.23179,-2.387627 0.70909,-2.613587 0.42786,-1.570689 0.30261,-2.154755 2.38724,-1.22887 -3.5044,-2.870649 -8.53726,-1.190189 -12.667445,-2.491442 -3.949318,0.08345 -7.654936,-0.793394 -11.504994,-0.718672 0.537706,-1.555998 -1.715206,-0.668908 -2.923669,-1.189874 z m 3.627944,1.126274 -0.228016,0.0045 0.228016,-0.0045 z m -7.358133,1.781042 c 0.113533,0.398106 -0.952874,-0.673172 0,0 z m 29.164661,0.649806 -0.0728,-0.03199 0.0728,0.03199 z m -0.8879,0.794757 c -0.28211,0.244615 -0.12228,-0.249836 0,0 z m -16.258104,3.398391 c 0.566073,1.161081 -1.499508,1.744226 0,0 z m -8.989256,3.374968 c -0.203555,0.857839 -0.636795,0.03149 0,0 z m 0.27557,-0.0093 -0.114064,-0.0023 0.114064,0.0023 z m 0.640715,0.0609 -0.155261,-0.04083 0.155261,0.04083 z m 0.280257,-0.0047 -0.184424,-0.0047 0.184424,0.0047 z m -5.623379,0.07937 -0.08507,-0.0015 0.08507,0.0015 z m -0.360179,0.205855 c 0.898741,0.403167 -0.643486,1.315199 0,0 z m -0.163415,0.233688 c 0.04856,0.483793 -0.293855,-0.357013 0,0 z m -0.14027,0.364586 -0.110613,-0.306653 0.110613,0.306653 z M 75.0809,32.05632 c 0.988234,0.8819 -0.954927,-0.05818 0,0 z m -5.801131,5.343124 c -0.106405,0.25701 -0.04728,-0.250176 0,0 z m 17.996974,3.529285 -0.06389,0.0021 0.06389,-0.0021 z m -15.173708,1.299612 -0.08047,0.0028 0.08047,-0.0028 z m 21.928604,2.248417 -0.05054,0.05876 0.05054,-0.05876 z m 0.981598,0.425491 c 0.115239,0.34504 -0.299649,-0.383847 0,0 z M 79.119725,17.939106 c -0.353516,1.282835 3.051618,0.194549 0.660751,0.07744 l -0.660751,-0.07744 z m -2.161059,32.715987 -0.05041,-0.06308 0.05041,0.06308 z m -3.260879,1.830924 -0.03694,-0.0035 0.03694,0.0035 z m -0.05014,0.04241 0.06642,-0.02921 -0.06642,0.02921 z m 0.77023,1.387799 0.01348,-0.03722 -0.01348,0.03722 z m -0.09644,0.195927 -0.02311,-0.07936 0.02311,0.07936 z m 1.919929,-10.308978 c 0.864176,-0.03735 -0.464891,-0.313693 -1.4e-5,-4.2e-5 m -0.493264,0.06669 -0.06642,-0.02011 0.06642,0.02011 z m -26.397331,-1.780489 0.0069,-0.103344 -0.0069,0.103344 z m 0.03338,0.243332 -0.03338,-0.103344 0.03338,0.103344 z m -0.270065,0.433754 -0.06033,-0.166719 0.06033,0.166719 z m -0.253261,-0.633825 c 0.337053,0.02928 -0.167855,-0.190791 -2.7e-5,2.1e-5 m -0.05315,0.670177 0.02093,-0.08406 -0.02093,0.08406 z m -0.273921,-0.84384 0.09534,-0.08873 -0.09534,0.08873 z m 4.221811,-4.777642 0.08383,-0.105768 -0.08387,0.105757 m -0.2072,0.316638 c -0.08409,-0.570309 0.44452,-0.104254 -2.8e-5,-4e-6 m -0.43621,0.126493 c -0.275228,-0.29148 0.291612,-0.107293 0,0 z m -0.367067,-0.09975 c -0.344596,-0.393318 0.806731,-0.215121 0,0 z m -0.190421,-0.0098 0.01656,-0.0733 -0.01656,0.0733 z m -0.173061,-0.210264 -0.04084,-0.09236 0.04111,0.09238 m -0.09343,0.356868 0.03994,-0.07 -0.03994,0.07 z m 0.499892,-2.004258 c -0.289237,-0.0325 0.183875,-0.149743 -6e-6,0 m 21.205782,18.038311 -0.09949,-0.07991 0.09949,0.07991 z m -0.233411,0.004 -0.07661,-0.05096 0.07661,0.05096 z m -0.132827,-0.180223 -0.04473,-0.222679 0.04481,0.222679 m 4.096934,3.630703 c -0.446983,-0.131075 0.138729,0.392677 0,0 z m -3.520749,-3.207694 0,-0.113533 0,0.113533 z m 1.404892,-0.102565 c -2.502905,0.821444 -2.78964,7.958271 -0.277061,3.577047 0.284427,-1.002865 1.263686,-2.946154 0.277061,-3.577047 z M 60.435467,33.865412 c -4.817668,-0.356095 -8.914957,3.389048 -9.093005,8.242708 -0.81498,4.896455 5.177838,5.037291 8.368508,4.813256 2.47882,3.556881 1.848311,8.062696 2.476036,12.192997 0.295374,4.313957 4.663923,4.84292 6.494183,0.957649 1.325783,-3.318248 3.42093,-5.879769 2.873236,-9.971934 1.786009,-1.469869 6.178275,-6.6319 1.216708,-5.727264 -2.854091,-2.572239 -3.634041,-11.006652 -8.873676,-7.745453 -2.125796,-0.666522 -2.646272,-1.626749 -3.46199,-2.761959 z m 8.918984,15.094068 c -0.135185,2.300978 -1.85472,-0.424 0,0 z m -1.617353,1.7951 c 1.027755,2.032049 -0.07739,1.601477 0,0 z m 1.682665,2.141215 c 0.552016,1.508263 -0.139565,2.521852 0,0 z"
       inkscape:connector-curvature="0"
       clip-path="url(#clipPath3176)"
       id="path4834_2_"
       style="fill:url(#radialGradient3301);fill-opacity:1;display:inline" />
    <path
       d="m 48,18 c -18.225397,0 -33,12.088312 -33,27 0,0.208408 0.0255,0.417728 0.03125,0.625 C 15.915093,31.359014 30.344147,20 48,20 65.811103,20 80.318034,31.557401 80.96875,46 80.98389,45.664059 81,45.338968 81,45 81,30.088312 66.225397,18 48,18 z M 29.6875,69.4375 c -0.788875,2.925833 -2.942108,7.265183 -8.96875,8.96875 1.438598,0.156348 2.798846,0.170865 4.09375,0.09375 3.95088,-2.735394 4.981412,-6.888521 5.25,-8.84375 -0.129197,-0.06861 -0.247056,-0.148711 -0.375,-0.21875 z"
       inkscape:connector-curvature="0"
       id="path3666"
       style="fill:url(#linearGradient3746);fill-opacity:1;stroke:none;display:inline" />
  </g>
  <g
     id="layer5"
     style="display:none">
    <rect
       width="66"
       height="66"
       rx="12"
       ry="12"
       x="15"
       y="15"
       clip-path="url(#clipPath3613)"
       id="rect3171"
       style="opacity:0.1;fill:url(#linearGradient3613);fill-opacity:1;fill-rule:nonzero;stroke:#ffffff;stroke-width:0.5;stroke-linecap:round;stroke-linejoin:miter;stroke-miterlimit:4;stroke-opacity:1;stroke-dasharray:none;stroke-dashoffset:0;filter:url(#filter3794)" />
  </g>
</svg>
