<?xml version="1.0" encoding="UTF-8" standalone="no"?>
<!-- Created with Inkscape (http://www.inkscape.org/) -->

<svg
   xmlns:dc="http://purl.org/dc/elements/1.1/"
   xmlns:cc="http://creativecommons.org/ns#"
   xmlns:rdf="http://www.w3.org/1999/02/22-rdf-syntax-ns#"
   xmlns:svg="http://www.w3.org/2000/svg"
   xmlns="http://www.w3.org/2000/svg"
   xmlns:xlink="http://www.w3.org/1999/xlink"
   xmlns:inkscape="http://www.inkscape.org/namespaces/inkscape"
   version="1.0"
   width="96"
   height="96"
   id="svg2408">
  <defs
     id="defs2410">
    <linearGradient
       id="linearGradient3801">
      <stop
         id="stop3803"
         style="stop-color:#ffffff;stop-opacity:1"
         offset="0" />
      <stop
         id="stop3805"
         style="stop-color:#ffffff;stop-opacity:0"
         offset="1" />
    </linearGradient>
    <linearGradient
       id="linearGradient3741">
      <stop
         id="stop3743"
         style="stop-color:#d45500;stop-opacity:1"
         offset="0" />
      <stop
         id="stop3745"
         style="stop-color:#d45500;stop-opacity:0"
         offset="1" />
    </linearGradient>
    <linearGradient
       id="linearGradient3718">
      <stop
         id="stop3720"
         style="stop-color:#f4de23;stop-opacity:1"
         offset="0" />
      <stop
         id="stop3722"
         style="stop-color:#e49600;stop-opacity:0.97647059"
         offset="1" />
    </linearGradient>
    <linearGradient
       id="linearGradient5226">
      <stop
         id="stop5228"
         style="stop-color:#ccda0b;stop-opacity:1"
         offset="0" />
      <stop
         id="stop5230"
         style="stop-color:#327c12;stop-opacity:1"
         offset="1" />
    </linearGradient>
    <linearGradient
       x1="45.447727"
       y1="92.539597"
       x2="45.447727"
       y2="7.0165396"
       id="ButtonShadow"
       gradientUnits="userSpaceOnUse"
       gradientTransform="scale(1.0058652,0.994169)">
      <stop
         id="stop3750"
         style="stop-color:#000000;stop-opacity:1"
         offset="0" />
      <stop
         id="stop3752"
         style="stop-color:#000000;stop-opacity:0.58823532"
         offset="1" />
    </linearGradient>
    <linearGradient
       id="linearGradient3737">
      <stop
         id="stop3739"
         style="stop-color:#ffffff;stop-opacity:1"
         offset="0" />
      <stop
         id="stop3741"
         style="stop-color:#ffffff;stop-opacity:0"
         offset="1" />
    </linearGradient>
    <linearGradient
       id="linearGradient3700">
      <stop
         id="stop3702"
         style="stop-color:#307b8e;stop-opacity:1"
         offset="0" />
      <stop
         id="stop3862"
         style="stop-color:#286776;stop-opacity:1"
         offset="0.5" />
      <stop
         id="stop3704"
         style="stop-color:#14333b;stop-opacity:1"
         offset="1" />
    </linearGradient>
    <filter
       color-interpolation-filters="sRGB"
       id="filter3174">
      <feGaussianBlur
         id="feGaussianBlur3176"
         stdDeviation="1.71" />
    </filter>
    <linearGradient
       x1="36.357143"
       y1="6"
       x2="36.357143"
       y2="63.893143"
       id="linearGradient3188"
       xlink:href="#linearGradient3737"
       gradientUnits="userSpaceOnUse" />
    <linearGradient
       id="linearGradient3737-1">
      <stop
         id="stop3739-7"
         style="stop-color:#ffffff;stop-opacity:1"
         offset="0" />
      <stop
         id="stop3741-2"
         style="stop-color:#ffffff;stop-opacity:0"
         offset="1" />
    </linearGradient>
    <radialGradient
       cx="48"
       cy="90.171875"
       r="42"
       fx="48"
       fy="90.171875"
       id="radialGradient2855"
       xlink:href="#linearGradient3737-1"
       gradientUnits="userSpaceOnUse"
       gradientTransform="matrix(1.1573129,0,0,0.99590774,-7.551021,0.1971319)" />
    <linearGradient
       id="linearGradient3737-6">
      <stop
         id="stop3739-73"
         style="stop-color:#ffffff;stop-opacity:1"
         offset="0" />
      <stop
         id="stop3741-6"
         style="stop-color:#ffffff;stop-opacity:0"
         offset="1" />
    </linearGradient>
    <clipPath
       id="clipPath3613">
      <rect
         width="84"
         height="84"
         rx="6"
         ry="6"
         x="6"
         y="6"
         id="rect3615"
         style="fill:#ffffff;fill-opacity:1;fill-rule:nonzero;stroke:none" />
    </clipPath>
    <filter
       x="-0.192"
       y="-0.192"
       width="1.3839999"
       height="1.3839999"
       color-interpolation-filters="sRGB"
       id="filter3794">
      <feGaussianBlur
         id="feGaussianBlur3796"
         stdDeviation="5.28" />
    </filter>
    <linearGradient
       x1="48"
       y1="20.220806"
       x2="48"
       y2="138.66119"
       id="linearGradient2885"
       xlink:href="#linearGradient3737-6"
       gradientUnits="userSpaceOnUse" />
    <linearGradient
       x1="45.447727"
       y1="92.539597"
       x2="45.447727"
       y2="7.0165396"
       id="ButtonShadow-0"
       gradientUnits="userSpaceOnUse"
       gradientTransform="matrix(1.0058652,0,0,0.994169,100,0)">
      <stop
         id="stop3750-8"
         style="stop-color:#000000;stop-opacity:1"
         offset="0" />
      <stop
         id="stop3752-5"
         style="stop-color:#000000;stop-opacity:0.58823532"
         offset="1" />
    </linearGradient>
    <linearGradient
       x1="32.251034"
       y1="6.1317081"
       x2="32.251034"
       y2="90.238609"
       id="linearGradient3780"
       xlink:href="#ButtonShadow-0"
       gradientUnits="userSpaceOnUse"
       gradientTransform="matrix(1.0238095,0,0,1.0119048,-1.1428571,-98.071429)" />
    <linearGradient
       x1="32.251034"
       y1="6.1317081"
       x2="32.251034"
       y2="90.238609"
       id="linearGradient3772"
       xlink:href="#ButtonShadow-0"
       gradientUnits="userSpaceOnUse"
       gradientTransform="matrix(1.0238095,0,0,1.0119048,-1.1428571,-98.071429)" />
    <linearGradient
       x1="32.251034"
       y1="6.1317081"
       x2="32.251034"
       y2="90.238609"
       id="linearGradient3725"
       xlink:href="#ButtonShadow-0"
       gradientUnits="userSpaceOnUse"
       gradientTransform="matrix(1.0238095,0,0,1.0119048,-1.1428571,-98.071429)" />
    <linearGradient
       x1="32.251034"
       y1="6.1317081"
       x2="32.251034"
       y2="90.238609"
       id="linearGradient3721"
       xlink:href="#ButtonShadow-0"
       gradientUnits="userSpaceOnUse"
       gradientTransform="translate(0,-97)" />
    <linearGradient
       x1="32.251034"
       y1="6.1317081"
       x2="32.251034"
       y2="90.238609"
       id="linearGradient3059"
       xlink:href="#ButtonShadow-0"
       gradientUnits="userSpaceOnUse"
       gradientTransform="matrix(1.0238095,0,0,1.0119048,-1.1428571,-98.071429)" />
    <radialGradient
       cx="48"
       cy="40.64753"
       r="42"
       fx="48"
       fy="40.64753"
       id="radialGradient3736"
       xlink:href="#linearGradient5226"
       gradientUnits="userSpaceOnUse"
       gradientTransform="matrix(1.1433554,3.8336408e-8,-3.7188011e-8,1.1091053,-6.8810588,-5.0823929)" />
    <clipPath
       id="clipPath3759">
      <path
         d="m 36.273888,6.0817019 c 1.650116,2.216692 0.112581,5.9183371 2.601472,5.8815911 1.2119,1.714016 -2.415455,0.511296 0.203594,1.832342 1.506106,1.186578 -1.593388,1.86454 0.27179,2.929374 -2.149689,1.109666 0.348443,5.803987 1.945116,6.978848 2.62796,2.213161 1.16221,-4.685722 4.0945,-5.044597 1.59336,-1.819699 4.39184,-2.987811 6.37927,-4.818381 -1.9423,-0.15774 -3.07646,-1.367135 -1.23703,-2.116304 3.38546,3.470394 0.84891,-1.643528 -1.02513,-2.4532401 1.81337,-0.577046 3.57698,-0.154481 3.32537,-1.65137 1.91632,-1.402516 -1.84226,-1.855344 -3.18394,-1.538263 -4.45834,0 -8.91668,0 -13.375012,0 z M 8.472036,7.5294789 C 6.022275,8.2276739 5.851392,14.084357 8.313685,10.832218 8.918028,9.4968519 11.710763,7.8875459 8.472036,7.5294789 z m 11.446491,0.203593 c -1.412257,2.2153416 0.204915,3.9914991 1.379912,1.289427 0.831709,-1.128343 -0.617926,-1.248085 -1.379912,-1.289427 z m 3.528956,0.497674 c -2.72875,1.265212 -0.672602,4.2155641 -0.605059,4.8717381 2.87456,0.994829 4.473227,-0.650437 5.560693,2.161488 2.73516,1.576935 -0.05382,4.317061 -1.080544,5.030674 1.849342,-1.611189 5.404158,4.380481 4.472249,1.214924 -1.11178,-0.812076 2.985161,1.304563 0.859619,-1.334669 -1.956059,-3.152657 0.155272,-1.411414 0.979953,-0.675608 2.804888,-2.516097 -3.173595,-2.820214 -1.681217,-5.409578 -1.307758,-1.059583 -3.02289,-4.2694931 -5.33868,-3.642063 -1.550241,2.005564 -0.214153,-4.3699601 -2.488605,-1.1795631 -0.117891,1.7834151 -0.04285,4.0464551 -0.705711,0.9568241 -0.444071,-0.5408721 0.764001,-1.7982981 0.0273,-1.9941671 z m -5.564894,0.022621 c -1.8316,0.610853 -1.733228,3.0865051 0.518957,3.3519111 0.771435,-0.879633 0.306491,-3.1853381 -0.518957,-3.3519111 z m -7.148401,0.791753 c -2.379079,0.563878 -1.407992,2.4828651 -0.679573,3.0233211 -2.944918,0.737923 4.495691,0.943126 0.792681,1.410494 -3.080791,1.230835 2.966663,2.680942 3.958766,1.221561 3.804391,0.930735 0.136908,-3.046545 -0.19704,-5.2025321 -1.612752,-1.731481 -0.06366,3.9915331 -1.521869,0.184408 -0.508786,1.1305431 -2.126527,0.166598 -2.352965,-0.637252 z m 75.601132,0.248837 c -3.19245,1.2498621 1.98418,5.9664341 0.69764,1.6754941 -0.12817,-0.518125 0.2882,-1.8871051 -0.69764,-1.6754941 z M 19.669689,11.194162 c -2.29408,2.156707 2.915989,3.940201 -0.658895,5.546906 -0.536018,-2.002938 -1.458273,1.002105 -3.503464,-0.615417 -3.515899,1.464466 -5.313868,-0.762828 -8.257536,-2.28957 -1.768029,-0.220164 -1.10378,1.680533 -1.220883,3.460193 0,4.918306 0,9.836614 0,14.75492 1.733489,1.82448 0.676329,0.804976 0,0.301752 0.951467,3.241642 -0.419572,7.980231 3.330851,9.86583 0.637564,1.183033 3.312883,6.223076 3.436221,4.715046 -1.341215,-1.405066 -2.717353,-5.617387 -0.447896,-1.863024 2.032755,3.568795 4.774749,5.883507 8.780477,6.73276 2.190057,0.745225 3.991169,3.306965 5.917116,2.743325 1.089051,2.871967 -3.227416,5.629887 0.144912,8.308597 1.760515,2.7118 4.716185,4.4904 3.11596,8.29758 -1.119073,3.71826 -0.639926,7.76974 -1.607786,11.23409 -0.300394,2.10873 2.938037,7.46101 2.65747,3.17511 0.945569,-2.9784 0.92064,-6.25562 3.147579,-8.36483 3.047115,0.02413 0.582377,-3.27775 3.60701,-2.84642 1.845644,-2.42007 2.380235,-5.30712 5.494915,-6.26809 0.37204,-2.9376 5.17882,-7.43659 0.21313,-8.580318 -1.3496,-0.665451 -4.8245,-0.904732 -4.558946,-1.233078 0.538034,-2.914877 -4.493466,-3.744701 -6.634228,-4.937269 -2.810759,-1.995848 -7.034237,3.315594 -8.024515,-1.261025 -0.590876,-1.439948 -2.751326,-1.463301 -1.758429,-3.68521 -1.789388,1.780326 -5.289343,1.23924 -4.373033,-2.198916 1.39157,-2.895595 6.735639,-3.032599 7.64626,0.450282 -1.264352,-3.841203 2.443938,-6.83143 4.502527,-9.564217 0.419165,-1.3062 2.909742,-2.428425 2.052679,-0.692421 1.460154,-0.05269 3.673291,-2.688637 1.079407,-1.472012 -0.03668,-2.403896 -2.272976,-1.720272 -2.997994,-1.378934 1.34377,-2.133574 8.24499,-0.967127 5.355098,-4.454587 -2.239305,-0.907679 -2.053024,-6.204449 -4.317999,-3.253597 0.190595,-1.818146 -4.610012,-5.377145 -4.505255,-2.328319 0.585986,2.728128 0.107133,5.870869 -1.139926,7.659113 -0.260245,-3.99762 -7.075678,-3.114085 -6.199423,-7.373995 1.26944,-2.030291 2.752851,-4.83791 2.894179,-4.585337 2.275048,-0.868941 4.104591,-3.396512 1.46783,-5.058122 -0.140917,1.448202 -1.98303,4.436139 -1.72366,0.822325 -1.705794,2.02318 -1.316199,-3.219407 -2.913753,-3.763121 z m 54.450001,1.402533 c -3.99594,0.977838 -5.58006,4.795836 -7.55681,7.958163 -2.91386,1.314237 -2.80294,6.958318 0.45241,5.155674 0.87128,1.522277 -0.60951,3.921673 1.92831,1.931216 2.047,-2.709901 0.35794,-7.092756 3.84142,-8.801515 0.25373,1.32865 -3.21333,6.289871 0.837,5.474405 3.66156,0.138209 -2.66186,0.364969 -0.88101,2.704729 -1.85026,-1.098211 -0.88882,2.999333 -3.30397,2.045788 -2.09233,1.138533 -3.46434,-0.528629 -2.98503,-2.35496 -1.64596,0.960573 0.51769,3.67045 -2.33959,3.83331 -0.64004,2.273659 -5.90338,1.930962 -2.91021,4.246159 1.3289,3.445358 -4.95153,0.215986 -3.16853,4.35053 1.52545,4.088438 4.7224,-1.354722 6.01944,-2.406348 2.50247,-1.941872 6.21066,3.311089 3.95876,3.506335 2.52508,-0.338912 2.00619,-2.74125 -0.017,-3.671301 -1.09268,-2.834933 3.45903,1.390324 3.2066,2.811683 1.60594,3.008346 0.94461,-3.080088 2.57885,-0.384565 -0.1908,2.843378 6.57418,0.668556 3.34439,4.292415 -2.77687,0.559513 -5.51013,-0.716143 -7.90083,0.100926 -2.22511,-0.01969 -2.11347,-2.397964 -2.92358,-2.993542 -2.83037,0.23004 -6.32794,0.204027 -8.22277,2.491404 -2.04902,2.812343 -5.00383,6.743795 -2.77053,10.334807 2.23488,5.321462 7.77719,0.276028 10.96298,3.418767 0.94693,1.310381 -0.8206,2.868035 1.29671,4.287425 0.7967,3.02353 -0.90449,5.89433 1.05226,8.78464 1.01184,2.7182 1.63978,6.78664 5.40576,4.30281 3.98577,-2.39945 2.92416,-6.8227 6.21294,-9.27265 -2.60227,-5.038063 3.18363,-7.247103 4.62722,-11.337101 -3.15394,0.461909 -5.96377,-2.68376 -6.72579,-5.84994 -1.32493,-1.537885 -0.98367,-3.805502 0.49633,-0.916468 2.03426,1.971905 2.07822,7.823061 5.84127,4.813019 1.72035,-0.719835 6.41861,-3.465723 2.67511,-4.71532 -2.41304,1.748397 -5.07525,-5.224262 -1.53182,-1.179972 2.57604,1.093303 4.37998,1.744706 4.37998,-1.880149 0,-9.766125 0,-19.664578 0,-29.496868 -0.8024,0.82028 -2.8638,2.335242 -3.90428,1.328569 -1.79037,0.249406 -4.15389,3.734285 -3.59125,0.365539 -1.55624,-0.103093 -0.27859,3.020534 -2.41664,3.107891 -0.21529,1.605887 -2.15987,0.297377 -1.42943,1.822369 -1.50065,-1.064875 -2.77067,-4.427041 0.18614,-2.316729 4.39102,-1.317844 -2.8956,-4.290405 -3.45804,-5.008905 0.94545,-0.226615 -1.02861,-1.212248 -1.26681,-0.88224 z m -36.239673,0.88224 c -1.461507,1.2182 2.778533,1.447612 0,0 z m -19.522376,0.656023 c -1.634652,1.710504 2.603281,1.572448 0,0 z m 9.478418,1.696613 c -1.237867,2.028578 1.829027,0.748943 0,0 z m 27.100581,2.39788 c -1.44923,1.669078 -3.36205,-0.439263 -3.39323,0.995347 0.26265,0.433474 1.31468,3.527292 3.61944,1.244183 1.23699,-0.52171 0.74997,-1.836879 -0.22621,-2.23953 z m -30.855754,0.995347 c -2.748806,2.401478 4.668304,2.622741 0.582324,0.275426 l -0.582324,-0.275426 z m 36.262294,6.650724 c -1.97908,1.291041 0.94944,4.032808 -0.0431,5.320723 -1.2401,2.161465 4.60833,-0.152255 1.48462,-1.87676 -0.22257,-1.481616 -1.83002,-3.289356 -1.44154,-3.443963 z m -1.33466,2.601473 c -2.7574,0.779858 -0.62597,4.806237 0.35065,1.013998 0.055,-0.219858 0.12936,-1.021351 -0.35065,-1.013998 z M 36.929913,31.39517 c -2.565224,1.749832 -0.39843,3.496444 1.481561,2.709121 -0.385959,-1.055763 -1.46417,-1.720956 -1.481561,-2.709121 z m 48.455297,2.940797 c 1.27995,0.646198 -2.34553,1.750082 -0.0498,2.887358 1.33598,1.571671 0.83231,4.945457 -1.3392,2.557643 0.40344,-2.665992 -2.94356,-4.656978 1.38903,-5.445001 z m -6.58287,0.02262 c -0.17366,1.712793 3.69395,4.375139 -0.47504,3.506334 -2.20475,0.258725 -5.50697,-0.06739 -2.72943,-2.815681 0.87765,-0.527085 3.18206,1.818498 1.98292,-0.373952 0.42514,-0.02713 0.82107,-0.187672 1.22155,-0.316701 z m -12.73591,3.709927 c -1.60811,1.036413 1.11198,1.831121 0,0 z M 25.687014,47.7279 c -0.271103,0.904805 5.085991,1.821755 1.389301,0.372149 L 26.525247,47.906003 25.687014,47.7279 z m 4.16236,1.289426 c -1.624915,1.650213 3.347807,0.493017 0,0 z M 84.18627,64.15112 c -3.53072,0.09113 -3.06133,9.20159 -0.60013,3.81083 0.2334,-1.16979 1.1689,-2.71377 0.60013,-3.81083 z"
         inkscape:connector-curvature="0"
         id="path3761"
         style="fill:#ff0000;fill-opacity:1;stroke:none;display:inline" />
    </clipPath>
    <clipPath
       id="clipPath3775">
      <rect
         width="84"
         height="84"
         rx="6"
         ry="6"
         x="56"
         y="6"
         id="rect3777"
         style="fill:#ff00ff;fill-opacity:1;fill-rule:nonzero;stroke:none" />
    </clipPath>
    <filter
       color-interpolation-filters="sRGB"
       id="filter3824">
      <feGaussianBlur
         id="feGaussianBlur3826"
         stdDeviation="2.2341589" />
    </filter>
    <radialGradient
       cx="48"
       cy="48"
       r="42"
       fx="48"
       fy="48"
       id="radialGradient3687"
       xlink:href="#linearGradient3700"
       gradientUnits="userSpaceOnUse" />
    <filter
       color-interpolation-filters="sRGB"
       id="filter3693">
      <feGaussianBlur
         id="feGaussianBlur3695"
         stdDeviation="3.2976812" />
    </filter>
    <linearGradient
       x1="59.98632"
       y1="46.666485"
       x2="66.577553"
       y2="43.787991"
       id="linearGradient3724"
       xlink:href="#linearGradient3718"
       gradientUnits="userSpaceOnUse" />
    <linearGradient
       x1="55.785435"
       y1="51.332993"
       x2="63.043865"
       y2="54.817482"
       id="linearGradient3732"
       xlink:href="#linearGradient3718"
       gradientUnits="userSpaceOnUse" />
    <linearGradient
       x1="40.02948"
       y1="90.848793"
       x2="65.460114"
       y2="46.801643"
       id="linearGradient3747"
       xlink:href="#linearGradient3741"
       gradientUnits="userSpaceOnUse" />
    <linearGradient
       x1="74.245033"
       y1="5.5680094"
       x2="74.314751"
       y2="7.688374"
       id="linearGradient3807"
       xlink:href="#linearGradient3801"
       gradientUnits="userSpaceOnUse" />
    <linearGradient
       x1="38.622047"
       y1="90.722885"
       x2="73.238274"
       y2="9.5494032"
       id="linearGradient3822"
       xlink:href="#linearGradient3741"
       gradientUnits="userSpaceOnUse" />
    <linearGradient
       x1="40.974636"
       y1="5.0116715"
       x2="40.974636"
       y2="9.20753"
       id="linearGradient3831"
       xlink:href="#linearGradient3801"
       gradientUnits="userSpaceOnUse" />
    <linearGradient
       x1="85.931198"
       y1="83.196152"
       x2="37.785179"
       y2="41.831745"
       id="linearGradient3846"
       xlink:href="#linearGradient3741"
       gradientUnits="userSpaceOnUse" />
    <linearGradient
       x1="48.846497"
       y1="16.161333"
       x2="74.012764"
       y2="71.307182"
       id="linearGradient3860"
       xlink:href="#linearGradient3801"
       gradientUnits="userSpaceOnUse" />
  </defs>
  <metadata
     id="metadata2413">
    <rdf:RDF>
      <cc:Work
         rdf:about="">
        <dc:format>image/svg+xml</dc:format>
        <dc:type
           rdf:resource="http://purl.org/dc/dcmitype/StillImage" />
        <dc:title />
      </cc:Work>
    </rdf:RDF>
  </metadata>
  <g
     id="layer2"
     style="display:none">
    <rect
       width="86"
       height="85"
       rx="6"
       ry="6"
       x="5"
       y="7"
       id="rect3745"
       style="opacity:0.9;fill:url(#ButtonShadow);fill-opacity:1;fill-rule:nonzero;stroke:none;filter:url(#filter3174)" />
  </g>
  <g
     id="layer5"
     style="display:inline">
    <path
       d="m 12,-95.03125 c -5.5110903,0 -10.03125,4.52016 -10.03125,10.03125 l 0,71 c 0,5.5110902 4.5201598,10.03125 10.03125,10.03125 l 72,0 c 5.51109,0 10.03125,-4.5201597 10.03125,-10.03125 l 0,-71 c 0,-5.51109 -4.52016,-10.03125 -10.03125,-10.03125 l -72,0 z"
       transform="scale(1,-1)"
       id="path3786"
       style="opacity:0.07999998;fill:url(#linearGradient3059);fill-opacity:1;fill-rule:nonzero;stroke:none;display:inline" />
    <path
       d="m 12,-94.03125 c -4.971633,0 -9.03125,4.059617 -9.03125,9.03125 l 0,71 c 0,4.9716329 4.0596171,9.03125 9.03125,9.03125 l 72,0 c 4.971633,0 9.03125,-4.059617 9.03125,-9.03125 l 0,-71 c 0,-4.971633 -4.059617,-9.03125 -9.03125,-9.03125 l -72,0 z"
       transform="scale(1,-1)"
       id="path3778"
       style="opacity:0.1;fill:url(#linearGradient3780);fill-opacity:1;fill-rule:nonzero;stroke:none;display:inline" />
    <path
       d="m 12,-93 c -4.4091333,0 -8,3.590867 -8,8 l 0,71 c 0,4.4091333 3.5908667,8 8,8 l 72,0 c 4.409133,0 8,-3.5908667 8,-8 l 0,-71 c 0,-4.409133 -3.590867,-8 -8,-8 l -72,0 z"
       transform="scale(1,-1)"
       id="path3770"
       style="opacity:0.2;fill:url(#linearGradient3772);fill-opacity:1;fill-rule:nonzero;stroke:none;display:inline" />
    <rect
       width="86"
       height="85"
       rx="7"
       ry="7"
       x="5"
       y="-92"
       transform="scale(1,-1)"
       id="rect3723"
       style="opacity:0.3;fill:url(#linearGradient3725);fill-opacity:1;fill-rule:nonzero;stroke:none;display:inline" />
    <rect
       width="84"
       height="84"
       rx="6"
       ry="6"
       x="6"
       y="-91"
       transform="scale(1,-1)"
       id="rect3716"
       style="opacity:0.45;fill:url(#linearGradient3721);fill-opacity:1;fill-rule:nonzero;stroke:none;display:inline" />
  </g>
  <g
     id="layer1"
     style="display:inline">
    <rect
       width="84"
       height="84"
       rx="6"
       ry="6"
       x="6"
       y="6"
       id="rect2419"
       style="fill:url(#radialGradient3687);fill-opacity:1;fill-rule:nonzero;stroke:none" />
    <path
       d="m 86.273888,6.0817019 c 1.235747,2.2467225 0.751364,5.4482751 2.77625,6.7052231 -2.261721,0.40221 2.026424,1.727223 -0.316937,3.198005 -0.246041,2.097538 0.0274,7.274143 3.665104,8.105969 0.8463,-3.475563 2.693,-6.189613 6.033914,-7.836753 2.264191,-1.485557 4.264771,-2.220955 1.171311,-3.572326 0.39719,-2.418276 3.99533,2.2166 1.9445,-1.363389 -1.44541,-1.7052387 -2.652881,-2.4457847 0.39649,-2.52784 3.56851,-2.5277353 -1.59132,-3.1626635 -3.958734,-2.7088891 -3.903966,0 -7.807932,0 -11.711898,0 z M 58.472036,7.5294789 C 55.737847,7.9855958 56.360789,14.437706 58.62684,10.321594 59.678076,9.3244165 60.980277,7.529433 58.472036,7.5294789 z m 11.446491,0.203593 C 67.742346,10.533057 71.82128,11.080951 71.428238,8.129563 71.033252,7.7549155 70.414792,7.7931018 69.918527,7.7330719 z m 3.528956,0.497674 c -3.434885,2.2306881 3.77e-4,6.6591091 3.476246,5.3759171 2.61842,1.407475 3.611866,5.053948 0.398844,6.687983 1.675002,-1.711213 5.139737,4.147712 4.436437,1.034929 3.855208,1.709323 -2.299195,-5.024389 1.516274,-2.141817 3.140365,-0.691703 -2.391801,-3.676093 -1.831989,-5.584489 -1.003658,-2.886019 -4.534033,-2.621237 -5.697757,-3.488705 -0.385333,-3.9780337 -2.121692,0.532338 -1.952024,1.515076 -1.039615,-1.097501 0.162218,-2.5099431 -0.346031,-3.3988941 z m -5.564894,0.022621 c -4.39001,3.1128231 3.839249,5.0907241 0,0 z m -7.148401,0.791753 c -2.772959,0.2166673 -0.286977,3.0805491 -1.277368,3.4892981 1.833614,0.494952 3.596882,0.598735 0.635364,1.410248 0.917036,2.481101 9.011755,1.647205 5.476781,-2.097244 -0.775256,-2.7685095 -1.79157,-2.5808121 -2.063902,-1.15093 -0.162072,-1.9626474 -2.007628,0.841522 -2.770875,-1.6513721 z m 75.601132,0.248837 c -3.25291,1.3148811 2.36263,5.7827001 0.6732,1.1653561 0.0605,-0.420557 0.0261,-1.3957074 -0.6732,-1.1653561 z M 69.669689,11.194162 c -1.711708,1.319571 2.39079,6.024693 -0.879445,5.011744 -2.941571,0.130093 -6.671532,1.172704 -9.502773,-1.162045 -3.458858,-3.280718 -3.569802,1.342171 -3.25856,3.915528 0,4.363935 0,8.72787 0,13.091805 2.056709,2.170002 -0.799744,-0.876493 0.262472,1.579041 -0.567867,4.533003 1.892605,7.749625 4.40328,10.997924 0.500375,1.516305 3.252998,3.912859 1.146369,0.893846 -1.80927,-5.03712 2.713806,4.084815 4.70924,4.343115 3.40061,1.98295 8.584103,3.272701 10.675993,5.753473 -1.743054,3.534212 -1.551726,7.054315 1.789445,9.596187 3.555814,3.271826 0.133511,7.712797 0.430244,11.650541 -0.302157,3.050498 -1.831716,9.522858 1.864326,9.877521 0.786544,-3.195763 0.570972,-8.346863 4.099322,-9.678482 1.678381,-2.756449 4.212663,-4.301345 5.91326,-7.58928 2.682233,-1.636722 5.739594,-6.327248 3.927807,-9.395905 -2.617869,-1.500377 -6.326186,-0.51552 -6.859851,-4.006194 -3.162195,-1.60445 -6.855674,-4.373046 -10.46006,-2.403449 -3.50744,1.968724 -4.806485,-5.350374 -5.827243,-4.72583 -6.235972,2.246256 -3.291755,-7.238515 1.559882,-4.742838 2.17189,0.311155 2.704385,4.108755 2.222189,0.361684 1.036406,-3.481958 3.781337,-7.485823 6.885386,-8.98967 -0.658773,2.546846 4.146782,-2.103219 0.97962,-0.664142 0.284747,-2.959382 -5.226553,-0.71901 -1.187966,-2.484641 3.920469,0.02902 5.430492,-2.682909 2.007513,-5.100054 -0.362833,-1.254238 -1.651804,-3.548497 -2.780442,-1.502423 -0.510593,-3.880989 -6.346623,-4.637056 -4.258805,0.296781 0.0284,1.730983 -1.055867,7.05596 -2.130219,3.234081 -2.984214,-1.701917 -7.897873,-4.19398 -4.019249,-7.983706 0.839214,-2.598792 6.706335,-4.364498 2.925678,-7.233816 0.123079,1.743212 -2.246942,3.73611 -1.72366,0.822325 -1.941466,1.895842 -1.307226,-3.530604 -2.913753,-3.763121 z m 54.450001,1.402533 c -4.71462,0.961123 -5.67945,6.380147 -8.87605,9.076456 -1.9797,2.275847 0.14404,4.920005 2.00057,4.639063 0.2337,5.075935 3.83787,-1.917613 3.1929,-4.057742 0.088,-2.569443 3.71972,-4.744085 1.65629,-0.883208 -2.10147,2.747861 1.7556,3.29328 2.38939,3.242975 -2.61426,0.432664 -1.34502,2.437634 -2.96347,2.821239 -0.30797,2.869536 -6.1458,2.675346 -5.06731,-0.725283 -0.46743,3.487355 -3.25274,4.958412 -6.14783,6.759016 2.5043,2.583306 -0.3556,3.22346 -2.52631,4.029425 0.13314,5.92951 5.01713,1.200293 6.75684,-1.047568 3.16074,-1.475215 4.12333,4.246308 4.2844,3.572204 3.2027,-1.031405 -3.51587,-5.853775 0.46398,-3.64466 1.77769,1.235234 2.47802,6.085009 3.79001,1.909721 2.5e-4,3.035715 7.00224,1.756322 4.05162,5.00008 -3.26629,-0.547736 -8.20369,1.406128 -10.13006,-1.688904 -1.70136,-2.481342 -6.90493,-0.671357 -8.91712,1.287692 -2.73713,3.188895 -5.29691,8.267121 -1.78848,11.880647 2.83781,2.727379 11.16155,-1.876117 10.18657,4.525539 2.75287,2.842947 -0.14565,7.257763 2.14333,10.419453 0.19737,4.047002 4.47756,7.115431 7.17736,2.76602 1.41288,-3.928407 5.04908,-6.98556 3.86351,-11.057559 0.22052,-3.377804 8.66623,-8.010341 2.40104,-8.529801 -2.46218,-1.276813 -4.92822,-5.607778 -4.31369,-7.543887 2.43337,1.793738 2.63525,9.02864 6.72951,6.104897 3.9021,-1.013046 5.35913,-5.196131 0.53687,-5.028839 -3.85726,-5.354342 5.26141,3.845215 4.96551,-2.116118 0.0485,-10.041762 0.007,-20.085014 0.0209,-30.127352 -2.13147,2.300139 -5.15602,1.096759 -7.42353,3.093255 -0.59137,-3.60423 -1.3304,3.254185 -3.84355,2.707769 -0.46926,2.502527 -3.15273,-4.300528 0.11162,-1.493385 3.84482,-2.160247 -3.54029,-4.344556 -4.29347,-5.924385 l -0.43138,0.03324 4e-5,0 z m -36.239673,0.88224 c -1.258935,1.705467 2.655571,0.74052 0,0 z m -19.522376,0.656023 c -1.540843,1.867836 2.532014,1.155323 0,0 z m 9.478418,1.696613 c -1.371301,1.959426 1.89856,0.805585 0,0 z m 27.100581,2.39788 c -1.41324,1.185752 -5.05218,-0.176955 -2.3493,2.636157 1.29496,1.437843 5.06014,-1.511591 2.3493,-2.636157 z m -30.855754,0.995347 c -2.599963,2.383801 4.49915,2.208344 0.582324,0.275426 -0.194108,-0.09181 -0.388216,-0.183617 -0.582324,-0.275426 z m 36.262294,6.650724 c -1.47062,1.65216 0.43313,4.524877 0.10498,6.181856 4.94094,-0.669438 -0.0301,-3.805819 -0.10498,-6.181856 z m -1.33466,2.601473 c -4.00295,2.450621 1.60355,3.98537 0,0 z M 86.929913,31.39517 c -3.918031,1.764893 3.224358,4.714326 0.602568,1.329211 l -0.418013,-0.637495 -0.184555,-0.691716 0,0 z m 48.455297,2.940797 c 0.23054,1.139942 -1.85876,2.470854 0.36529,3.546436 1.70269,3.328005 -2.64443,3.14279 -1.97632,0.03388 -1.06612,-1.855218 -0.76661,-3.409923 1.61103,-3.58032 z m -6.58287,0.02262 c 1.06299,2.221444 2.35576,4.499775 -1.33925,3.572353 -4.194,1.315588 -2.80252,-4.806702 0.24867,-2.31283 0.47185,-0.742252 -0.84596,-1.067046 1.09058,-1.259523 z m -12.73591,3.709927 c -1.72898,0.948544 1.2773,1.891005 0,0 z M 75.687014,47.7279 c 1.246291,1.723392 4.095562,0.975384 0.838233,0.178103 -0.279411,-0.05937 -0.558822,-0.118735 -0.838233,-0.178103 z m 4.16236,1.289426 c -1.338362,1.994455 3.108284,-0.06023 0,0 z M 134.18627,64.15112 c -3.85484,-0.09285 -2.52288,9.084746 -0.484,3.356222 0.29039,-1.071694 0.98911,-2.24006 0.484,-3.356222 z"
       inkscape:connector-curvature="0"
       transform="translate(-50,0)"
       clip-path="url(#clipPath3775)"
       id="path3414"
       style="fill:#193f48;fill-opacity:1;stroke:none;display:inline;filter:url(#filter3693)" />
    <path
       d="M 12,90 C 8.676,90 6,87.324 6,84 L 6,82 6,14 6,12 c 0,-0.334721 0.04135,-0.6507 0.09375,-0.96875 0.0487,-0.295596 0.09704,-0.596915 0.1875,-0.875 C 6.29113,10.12587 6.302142,10.09265 6.3125,10.0625 6.411365,9.774729 6.5473802,9.515048 6.6875,9.25 6.8320918,8.976493 7.0031161,8.714385 7.1875,8.46875 7.3718839,8.223115 7.5612765,7.995278 7.78125,7.78125 8.221197,7.353194 8.72416,6.966724 9.28125,6.6875 9.559795,6.547888 9.8547231,6.440553 10.15625,6.34375 9.9000482,6.443972 9.6695391,6.580022 9.4375,6.71875 c -0.00741,0.0044 -0.023866,-0.0045 -0.03125,0 -0.031933,0.0193 -0.062293,0.04251 -0.09375,0.0625 -0.120395,0.0767 -0.2310226,0.163513 -0.34375,0.25 -0.1061728,0.0808 -0.2132809,0.161112 -0.3125,0.25 C 8.4783201,7.442683 8.3087904,7.626638 8.15625,7.8125 8.0486711,7.942755 7.9378561,8.077785 7.84375,8.21875 7.818661,8.25713 7.805304,8.30462 7.78125,8.34375 7.716487,8.446782 7.6510225,8.548267 7.59375,8.65625 7.4927417,8.850956 7.3880752,9.071951 7.3125,9.28125 7.30454,9.30306 7.288911,9.3218 7.28125,9.34375 7.2494249,9.4357 7.2454455,9.530581 7.21875,9.625 7.1884177,9.731618 7.1483606,9.828031 7.125,9.9375 7.0521214,10.279012 7,10.635705 7,11 l 0,2 0,68 0,2 c 0,2.781848 2.2181517,5 5,5 l 2,0 68,0 2,0 c 2.781848,0 5,-2.218152 5,-5 l 0,-2 0,-68 0,-2 C 89,10.635705 88.94788,10.279012 88.875,9.9375 88.83085,9.730607 88.78662,9.539842 88.71875,9.34375 88.71105,9.3218 88.69545,9.30306 88.6875,9.28125 88.62476,9.107511 88.549117,8.913801 88.46875,8.75 88.42717,8.6672 88.38971,8.580046 88.34375,8.5 88.28915,8.40279 88.216976,8.31165 88.15625,8.21875 88.06214,8.077785 87.951329,7.942755 87.84375,7.8125 87.700576,7.63805 87.540609,7.465502 87.375,7.3125 87.36383,7.3023 87.35502,7.29135 87.34375,7.28125 87.205364,7.155694 87.058659,7.046814 86.90625,6.9375 86.803679,6.86435 86.701932,6.784136 86.59375,6.71875 c -0.0074,-0.0045 -0.02384,0.0044 -0.03125,0 -0.232039,-0.138728 -0.462548,-0.274778 -0.71875,-0.375 0.301527,0.0968 0.596455,0.204138 0.875,0.34375 0.55709,0.279224 1.060053,0.665694 1.5,1.09375 0.219973,0.214028 0.409366,0.441865 0.59375,0.6875 0.184384,0.245635 0.355408,0.507743 0.5,0.78125 0.14012,0.265048 0.276135,0.524729 0.375,0.8125 0.01041,0.03078 0.02133,0.06274 0.03125,0.09375 0.09046,0.278085 0.1388,0.579404 0.1875,0.875 C 89.95865,11.3493 90,11.665279 90,12 l 0,2 0,68 0,2 c 0,3.324 -2.676,6 -6,6 l -72,0 z"
       inkscape:connector-curvature="0"
       id="path3615"
       style="opacity:0.15;fill:url(#radialGradient2855);fill-opacity:1;fill-rule:nonzero;stroke:none" />
  </g>
  <g
     id="layer6"
     style="display:inline">
    <path
       d="m 51.03125,6.25 c -0.498893,-0.019718 -0.956835,0.041631 -1.375,0.125 l 0,-0.03125 -13.375,0 a 0.73564816,0.73564816 0 0 0 -0.59375,1.1875 c 0.642489,0.8630915 0.706702,2.1865993 0.84375,3.4375 0.06852,0.62545 0.15384,1.217777 0.5,1.78125 0.182357,0.296837 0.46736,0.520444 0.8125,0.6875 -0.09085,0.03581 -0.185993,0.07789 -0.3125,0.25 -0.03098,0.04215 0.01952,0.102752 0,0.15625 a 0.73564816,0.73564816 0 0 0 -0.125,0.0625 c -0.254234,0.21191 -0.478065,0.436046 -0.5625,0.78125 -0.08443,0.345204 0.05693,0.747566 0.25,0.96875 0.38614,0.442368 0.835617,0.508829 1.25,0.53125 -0.154626,0.206785 -0.332139,0.383901 -0.34375,0.78125 -0.0081,0.276721 0.11086,0.551954 0.28125,0.78125 0.0061,0.0082 -0.0062,0.02328 0,0.03125 -0.269837,0.389055 -0.467553,0.825255 -0.5,1.28125 -0.05575,0.783555 0.136653,1.61028 0.4375,2.40625 0.595632,1.575901 1.575194,3.047599 2.59375,3.8125 0.01195,0.01007 0.01934,0.02137 0.03125,0.03125 0.374679,0.310624 0.745932,0.517811 1.1875,0.5625 0.455609,0.04611 0.912115,-0.198812 1.15625,-0.5 0.48827,-0.602376 0.58471,-1.30884 0.75,-2.0625 0.16529,-0.75366 0.334844,-1.549328 0.59375,-2.09375 0.258906,-0.544422 0.494571,-0.789541 0.9375,-0.84375 a 0.73564816,0.73564816 0 0 0 0.46875,-0.21875 c 1.411701,-1.612237 4.21491,-2.820427 6.34375,-4.78125 a 0.73564816,0.73564816 0 0 0 0.125,-0.9375 c 0.153837,-0.08425 0.336226,-0.11422 0.40625,-0.25 0.129837,-0.251759 0.111215,-0.44296 0.09375,-0.59375 -0.03493,-0.301579 -0.119935,-0.538255 -0.25,-0.8125 C 52.396119,12.232759 51.989439,11.617245 51.5,11.03125 51.383757,10.892075 51.216798,10.818607 51.09375,10.6875 51.438439,10.635142 51.797779,10.579068 52.125,10.5 52.507691,10.407528 52.895521,10.301826 53.21875,9.9375 53.415982,9.7151911 53.398294,9.3704107 53.4375,9.0625 53.64375,8.8915861 53.845682,8.7303121 53.96875,8.5 54.126958,8.2039262 54.14226,7.7571209 54,7.4375 53.715481,6.7982582 53.204935,6.6472022 52.6875,6.5 52.170065,6.3527978 51.586417,6.2719419 51.03125,6.25 z M 8.40625,7.78125 A 0.73564816,0.73564816 0 0 0 8.28125,7.8125 C 7.874719,7.9283635 7.5174748,8.1151873 7.21875,8.375 6.4544437,9.3818239 6,10.632813 6,12 l 0,0.8125 c 0.1287725,0.278294 0.35708,0.559305 0.71875,0.6875 0.4292994,0.152166 0.8506264,0.0038 1.1875,-0.21875 0.2842371,-0.187774 0.5652595,-0.499302 0.84375,-0.84375 0.049625,0.118226 0.061821,0.268629 0.125,0.375 -0.073749,0.07082 -0.131674,0.136896 -0.1875,0.28125 -0.063016,0.162945 -0.087324,0.395183 -0.03125,0.5625 0.1121484,0.334633 0.3099373,0.426181 0.4375,0.5 0.1994998,0.115448 0.3756875,0.17066 0.5625,0.21875 -0.035591,0.03613 -0.09191,0.05358 -0.125,0.09375 C 9.3670528,14.668101 9.4363115,14.964456 9.4375,15.25 8.8313075,14.869441 8.3284338,14.568546 7.59375,14.1875 a 0.73564816,0.73564816 0 0 0 -0.25,-0.0625 C 6.8538795,14.063999 6.3706852,14.125072 6,14.375 l 0,24.84375 c 0.2895001,1.734678 0.9987398,3.471668 2.8125,4.5 0.3430196,0.639169 1.101429,2.052481 1.84375,3.25 0.389256,0.627951 0.720638,1.184019 1.09375,1.5625 0.186556,0.189241 0.342943,0.433284 0.90625,0.40625 0.206287,-0.0099 0.382481,-0.168969 0.53125,-0.3125 1.934208,2.460668 4.435821,4.16218 7.6875,4.875 0.908921,0.309284 1.872978,1.088835 2.875,1.78125 0.760054,0.525211 1.653333,0.917655 2.59375,0.96875 0.06242,0.394569 0.128933,0.792518 0,1.25 -0.174059,0.6176 -0.506749,1.302678 -0.78125,2.03125 -0.274501,0.728572 -0.519116,1.502457 -0.40625,2.375 0.105148,0.81288 0.577607,1.625751 1.40625,2.34375 0.942614,1.45195 2.12516,2.578093 2.8125,3.71875 0.68734,1.140657 0.971249,2.190287 0.25,3.90625 a 0.73564816,0.73564816 0 0 0 -0.03125,0.0625 c -1.177509,3.912419 -0.713299,7.986664 -1.625,11.25 a 0.73564816,0.73564816 0 0 0 0,0.09375 c -0.107254,0.752909 0.06515,1.517985 0.34375,2.3125 0.278604,0.794515 0.676583,1.582138 1.09375,2.1875 0.208583,0.302681 0.40234,0.569836 0.65625,0.78125 0.25391,0.211414 0.626376,0.440969 1.125,0.3125 0.498624,-0.128469 0.722365,-0.586004 0.8125,-0.96875 0.07814,-0.331813 0.08341,-0.749636 0.0625,-1.21875 0.940165,-3.022413 1.046537,-5.974208 2.84375,-7.8125 0.6853,-0.07342 1.259271,-0.312603 1.59375,-0.71875 0.403049,-0.489409 0.458013,-1.024418 0.53125,-1.40625 0.07324,-0.381832 0.180468,-0.585979 0.21875,-0.625 0.03828,-0.03902 0.141117,-0.153787 0.78125,-0.0625 a 0.73564816,0.73564816 0 0 0 0.6875,-0.28125 C 39.706816,74.485665 40.298742,73.132359 41,72.0625 c 0.701258,-1.069859 1.44144,-1.858237 2.8125,-2.28125 a 0.73564816,0.73564816 0 0 0 0.5,-0.59375 c 0.142248,-1.123175 1.410524,-3.032689 2.09375,-4.8125 0.341613,-0.889906 0.566982,-1.809979 0.21875,-2.71875 -0.332506,-0.867731 -1.231325,-1.483238 -2.5,-1.8125 -0.0083,-0.0041 -0.02289,0.004 -0.03125,0 -0.04999,-0.01272 -0.07374,-0.05069 -0.125,-0.0625 l 0,0.03125 c -0.857045,-0.385264 -1.948981,-0.609378 -2.90625,-0.78125 -0.464128,-0.08333 -0.857606,-0.124943 -1.125,-0.1875 -0.0166,-0.707805 -0.204192,-1.37788 -0.625,-1.875 C 38.776871,56.335987 38.055395,55.883345 37.28125,55.5 35.732961,54.73331 33.888875,54.20008 32.96875,53.6875 l 0,0.03125 c -0.87874,-0.581646 -1.896189,-0.657731 -2.78125,-0.5 -0.914288,0.162939 -1.767748,0.510526 -2.5,0.75 -0.732252,0.239474 -1.300895,0.340278 -1.59375,0.25 -0.292855,-0.09028 -0.562769,-0.30278 -0.78125,-1.3125 a 0.73564816,0.73564816 0 0 0 -0.03125,-0.125 C 24.867331,51.772542 24.003387,51.328821 23.625,50.96875 23.435806,50.788714 23.374762,50.677865 23.34375,50.53125 23.312738,50.384635 23.292371,50.152133 23.5,49.6875 a 0.73564816,0.73564816 0 0 0 -1.1875,-0.84375 c -0.698757,0.695218 -1.776435,0.915537 -2.4375,0.6875 -0.330533,-0.114018 -0.545515,-0.278242 -0.6875,-0.59375 -0.136305,-0.302887 -0.170304,-0.806355 0,-1.5 0.565076,-1.072974 1.928201,-1.717422 3.28125,-1.6875 1.385648,0.03064 2.572085,0.664886 2.9375,2.0625 L 26.125,47.625 26.8125,47.40625 C 26.264764,45.742185 26.7849,44.319897 27.75,42.84375 28.715095,41.367603 30.13936,39.932895 31.21875,38.5 a 0.73564816,0.73564816 0 0 0 0.09375,-0.21875 c 0.06018,-0.187536 0.391189,-0.398411 0.65625,-0.625 A 0.73564816,0.73564816 0 0 0 32.6875,38.125 c 0.578914,-0.02089 1.058299,-0.284433 1.5,-0.5625 0.441701,-0.278067 0.817412,-0.596246 1.09375,-0.9375 0.138169,-0.170627 0.265102,-0.338646 0.34375,-0.59375 0.03932,-0.127552 0.07895,-0.288021 0.03125,-0.5 C 35.6324,35.425261 35.5717,35.319136 35.5,35.21875 c 0.73777,0.833002 2.008852,1.056107 3.1875,0.5625 a 0.73564816,0.73564816 0 0 0 0.40625,-0.9375 c -0.25137,-0.687605 -0.669887,-1.169652 -0.96875,-1.5625 -0.298863,-0.392848 -0.433405,-0.642341 -0.4375,-0.875 A 0.73564816,0.73564816 0 0 0 37.34375,31.8125 c 0.06491,-0.284789 0.205626,-0.554973 0.125,-0.84375 -0.128253,-0.459362 -0.411801,-0.891445 -0.8125,-1.375 A 0.73564816,0.73564816 0 0 0 36.375,29.375 c -0.325774,-0.132049 -0.643255,-0.488415 -0.9375,-1 -0.294245,-0.511585 -0.535869,-1.145233 -0.8125,-1.71875 -0.276631,-0.573517 -0.534972,-1.185048 -1.3125,-1.40625 -0.388764,-0.110601 -0.853214,-0.02292 -1.1875,0.1875 -0.123766,-0.213315 -0.25053,-0.425245 -0.40625,-0.625 -0.48167,-0.617879 -1.090413,-1.178238 -1.75,-1.59375 -0.659587,-0.415512 -1.358261,-0.746014 -2.125,-0.625 -0.38337,0.06051 -0.769732,0.291279 -1,0.65625 -0.230268,0.364971 -0.328818,0.806348 -0.3125,1.28125 a 0.73564816,0.73564816 0 0 0 0.03125,0.125 C 26.968911,26.548344 26.803882,28.703584 26.25,30.3125 26.007699,29.945347 25.728411,29.608788 25.40625,29.34375 24.639536,28.712983 23.742187,28.30648 22.9375,27.90625 22.132813,27.50602 21.456632,27.124834 21.0625,26.6875 20.6803,26.263407 20.500795,25.831617 20.65625,25 c 0.618749,-0.999292 1.263757,-2.128863 1.78125,-3 0.169664,-0.28561 0.305705,-0.447491 0.4375,-0.65625 0.03051,0.253683 -0.01259,0.536326 0.125,0.71875 0.478657,0.634636 1.203487,0.771611 1.84375,0.8125 0.320131,0.02044 0.626957,0.0051 0.9375,-0.09375 0.310543,-0.09887 0.710175,-0.335423 0.84375,-0.8125 0.133575,-0.477077 -0.09519,-0.879435 -0.375,-1.1875 C 25.970191,20.473185 25.581339,20.191016 25.03125,19.875 A 0.73564816,0.73564816 0 0 0 25,19.84375 L 24.90625,19.8125 c 0.503551,-0.437748 0.930162,-0.970134 1.1875,-1.5625 0.263082,-0.605588 0.352966,-1.324896 0.125,-2 -0.128303,-0.37996 -0.383864,-0.706483 -0.6875,-1.03125 0.239384,1.44e-4 0.53595,-0.01291 0.71875,0 0.381661,0.02695 0.580685,0.102273 0.78125,0.25 0.138853,0.102273 0.307114,0.41807 0.46875,0.71875 a 0.73564816,0.73564816 0 0 0 -0.28125,0.28125 c -0.180952,0.296539 -0.310142,0.544628 -0.375,0.8125 -0.06486,0.267872 -0.07075,0.577278 0.09375,0.875 0.164498,0.297722 0.493119,0.467832 0.75,0.5 0.256881,0.03217 0.465386,-0.01411 0.65625,-0.09375 0.127243,-0.05309 0.256299,-0.157739 0.375,-0.25 -0.03602,0.151238 -0.0075,0.265519 -0.09375,0.4375 -0.392205,0.782404 -1.31025,1.653577 -1.71875,1.9375 l 0.40625,0.59375 0.46875,0.5625 c 0.102029,-0.08889 0.163675,-0.09529 0.28125,-0.09375 0.117575,0.0015 0.305721,0.04472 0.53125,0.15625 0.451058,0.223052 1.010649,0.684817 1.5,1.125 0.244675,0.220092 0.475284,0.410557 0.6875,0.59375 0.212216,0.183193 0.369547,0.342349 0.6875,0.46875 0.158977,0.0632 0.457198,0.163511 0.78125,-0.03125 0.324052,-0.194761 0.391213,-0.533372 0.40625,-0.71875 0.0026,-0.03202 -9.49e-4,-0.06319 0,-0.09375 0.145015,0.01755 0.286818,0.05882 0.46875,0.03125 0.254475,-0.03856 0.662891,-0.228983 0.8125,-0.625 0.149609,-0.396017 0.04043,-0.718112 -0.09375,-1 -0.05677,-0.11926 -0.168624,-0.280093 -0.25,-0.40625 A 0.73564816,0.73564816 0 0 0 34.125,21.0625 c 0.401463,-0.360129 0.674803,-0.729586 0.84375,-1.125 0.168947,-0.395414 0.18491,-0.850365 0.0625,-1.21875 -0.24482,-0.73677 -0.821859,-1.100788 -1.3125,-1.46875 -0.490641,-0.367962 -0.935741,-0.731673 -1.125,-1 -0.189259,-0.268327 -0.264361,-0.322568 0,-0.78125 a 0.73564816,0.73564816 0 0 0 -0.15625,-0.9375 c -0.492913,-0.399372 -1.298898,-1.511119 -2.25,-2.4375 -0.475551,-0.46319 -0.999248,-0.871861 -1.625,-1.15625 -0.625752,-0.284389 -1.370391,-0.4232 -2.125,-0.21875 C 26.405633,10.547077 26.405553,10.507687 26.375,10.3125 26.33603,10.063537 26.305039,9.7888344 26.21875,9.53125 26.132461,9.2736656 25.999011,8.9629422 25.59375,8.75 25.391119,8.6435289 25.120102,8.6114839 24.90625,8.65625 24.692398,8.701016 24.524348,8.7965088 24.375,8.90625 24.33319,8.93697 24.29031,8.997292 24.25,9.03125 24.22903,8.989305 24.2474,8.946947 24.21875,8.90625 24.06701,8.6905556 23.836164,8.5561429 23.625,8.5 a 0.73564816,0.73564816 0 0 0 -0.5,0.0625 C 22.769479,8.7273408 22.471771,8.9268446 22.21875,9.15625 22.102196,8.754288 21.80382,8.4501282 21.53125,8.3125 20.942033,8.0149879 20.338591,7.9905114 19.9375,7.96875 A 0.73564816,0.73564816 0 0 0 19.28125,8.3125 C 19.074135,8.6373916 19.045529,8.9343742 18.9375,9.25 18.732138,8.9403517 18.484351,8.6226844 18.03125,8.53125 a 0.73564816,0.73564816 0 0 0 -0.375,0.03125 c -1.202003,0.4008774 -1.899218,1.494534 -1.78125,2.5625 0.117968,1.067966 1.049667,2.023952 2.4375,2.1875 a 0.73564816,0.73564816 0 0 0 0.09375,0.03125 c -0.0088,0.185768 -0.06891,0.392686 -0.03125,0.5625 0.05277,0.237963 0.188568,0.361481 0.28125,0.5625 A 0.73564816,0.73564816 0 0 0 17.8125,14.625 c -0.257466,0.269413 -0.438285,0.524285 -0.53125,0.84375 -0.09296,0.319465 -0.0472,0.724181 0.125,1 0.04199,0.06725 0.109111,0.07063 0.15625,0.125 -0.02991,0.01838 -0.06474,0.04694 -0.09375,0.0625 -0.260068,0.139514 -0.486106,0.207121 -0.6875,0.21875 -0.201394,0.01163 -0.408861,0.0067 -0.8125,-0.3125 0.395336,-0.03535 0.82158,-0.234473 1.0625,-0.59375 0.24092,-0.359277 0.239889,-0.738084 0.1875,-1.0625 -0.05239,-0.324416 -0.146575,-0.622184 -0.28125,-0.9375 -0.269349,-0.630633 -0.644987,-1.296438 -0.96875,-1.9375 C 15.644987,11.390188 15.369846,10.745227 15.3125,10.375 A 0.73564816,0.73564816 0 0 0 15.125,10 C 14.874794,9.7313743 14.657036,9.5010756 14.21875,9.4375 13.999607,9.4057122 13.716043,9.458107 13.53125,9.59375 13.37018,9.7119794 13.309723,9.8460068 13.25,9.96875 A 0.73564816,0.73564816 0 0 0 12.4375,10.375 c -0.05014,0.111417 -0.03823,0.08799 -0.0625,0.09375 -0.02427,0.0058 -0.129659,-6.07e-4 -0.28125,-0.0625 C 11.790567,10.282464 11.44629,9.8749539 11.4375,9.84375 A 0.73564816,0.73564816 0 0 0 10.6875,9.3125 C 10.682284,9.0490346 10.648007,8.7480587 10.46875,8.53125 10.039956,8.0126307 9.4438295,7.909938 8.5625,7.8125 a 0.73564816,0.73564816 0 0 0 -0.09375,-0.03125 0.73564816,0.73564816 0 0 0 -0.0625,0 z M 86.5,9.53125 C 86.392813,9.5302745 86.286584,9.54123 86.1875,9.5625 a 0.73564816,0.73564816 0 0 0 -0.125,0.03125 c -1.007445,0.3944206 -1.522468,1.284068 -1.5,2.09375 0.02247,0.809682 0.411277,1.491751 0.875,2 0.231862,0.254125 0.479465,0.478011 0.78125,0.625 0.301785,0.146989 0.729497,0.267856 1.15625,0.03125 0.426753,-0.236606 0.576084,-0.711293 0.59375,-1.125 0.0173,-0.405096 -0.05125,-0.871361 -0.21875,-1.4375 9.08e-4,0.0037 -4.34e-4,-0.0312 0,-0.03125 0.0039,-4.22e-4 -0.0057,-0.1097 0,-0.28125 0.0063,-0.190611 0.0225,-0.423017 0,-0.6875 C 87.7275,10.516766 87.6658,10.186469 87.375,9.875 87.156899,9.6413981 86.821562,9.5341766 86.5,9.53125 z m -65.0625,1.5 c -0.02189,0.338764 -0.120295,0.692982 -0.0625,1 0.108396,0.575819 0.301984,1.065086 0.46875,1.46875 0.125075,0.302748 0.243554,0.620075 0.28125,0.6875 a 0.73564816,0.73564816 0 0 0 0.46875,0.59375 c 0.370017,0.128056 0.666378,0.12538 1,0.1875 a 0.73564816,0.73564816 0 0 0 0,0.09375 c -0.01604,0.164803 -0.209811,0.38819 -0.3125,0.65625 A 0.73564816,0.73564816 0 0 0 22.03125,15.5 c -0.06643,-0.14791 -0.14223,-0.277329 -0.25,-0.65625 -0.154975,-0.544894 -0.315304,-1.199622 -0.5625,-1.8125 -0.155236,-0.384881 -0.380198,-0.753013 -0.6875,-1.0625 0.08156,-0.02816 0.176739,-0.01895 0.25,-0.0625 0.277524,-0.164963 0.444433,-0.576478 0.65625,-0.875 z m 52.8125,1.75 c -0.07495,0.0044 -0.182307,0.12532 -0.28125,0.15625 L 73.9375,12.875 c -2.19139,0.53625 -3.734387,1.886687 -4.9375,3.4375 -1.174045,1.513345 -2.061564,3.233635 -3,4.75 -1.623324,0.890092 -2.357858,2.730308 -2.28125,4.28125 0.04041,0.818075 0.312002,1.641202 1,2.125 0.211365,0.148631 0.491925,0.138264 0.75,0.1875 -0.20804,0.290438 -0.352508,0.610114 -0.40625,0.90625 -0.09433,0.519784 -0.05576,0.983623 -0.0625,1.34375 -0.0067,0.360127 -0.06272,0.574942 -0.125,0.65625 -0.06228,0.08131 -0.18708,0.184883 -0.78125,0.21875 a 0.73564816,0.73564816 0 0 0 -0.6875,0.5625 c -0.0066,0.02334 -0.05383,0.03949 -0.0625,0.0625 -0.01298,-0.282096 0.0029,-0.561152 -0.15625,-0.8125 -0.185086,-0.292248 -0.51067,-0.533185 -0.84375,-0.75 -0.206017,-0.784333 -0.54723,-1.56033 -0.875,-2.125 -0.192856,-0.332245 -0.368762,-0.601831 -0.4375,-0.75 0.0044,0.05125 -0.0076,0.123165 -0.0625,0.25 -0.06139,0.141855 -0.213664,0.291978 -0.34375,0.34375 L 60.34375,26.875 59.9375,26.25 c -0.664066,0.433199 -1.00585,1.140694 -1.03125,1.78125 -0.01044,0.263253 0.108335,0.476443 0.15625,0.71875 C 59.03805,28.7483 59.02417,28.71838 59,28.71875 A 0.73564816,0.73564816 0 0 0 58.8125,28.75 c -0.873335,0.247 -1.494652,0.83599 -1.75,1.46875 -0.255348,0.63276 -0.193581,1.285985 0.0625,1.8125 0.128041,0.263257 0.318999,0.49429 0.625,0.65625 0.306001,0.16196 0.729649,0.192338 1.0625,0.03125 0.429249,-0.207741 0.688192,-0.623623 0.90625,-1.125 -0.0107,0.03199 0.01683,0.134406 0,0.15625 a 0.73564816,0.73564816 0 0 0 -0.03125,0.0625 c -0.202858,0.353576 -0.359106,0.715213 -0.25,1.15625 0.08052,0.325468 0.326758,0.556313 0.59375,0.6875 -0.178442,0.170572 -0.36251,0.33473 -0.4375,0.625 -0.101414,0.392548 0.0055,0.827305 0.21875,1.15625 0.163522,0.252191 0.441523,0.482364 0.71875,0.71875 0.07109,0.236927 0.10143,0.452993 0.09375,0.5 -0.0096,0.0589 0.02129,0.02788 -0.03125,0.0625 -0.105087,0.06925 -0.64205,0.178551 -1.25,0.25 -0.60795,0.07145 -1.329161,0.112958 -1.90625,0.71875 -0.288544,0.302896 -0.471456,0.756864 -0.46875,1.21875 0.0027,0.452829 0.137266,0.910589 0.375,1.46875 0.0036,0.0097 -0.0036,0.02162 0,0.03125 0.212557,0.561911 0.480872,1.006331 0.8125,1.34375 0.250384,0.254756 0.584326,0.342647 0.90625,0.4375 -0.566488,0.332307 -1.116459,0.680305 -1.5625,1.21875 a 0.73564816,0.73564816 0 0 0 -0.03125,0.03125 c -1.022382,1.403253 -2.301642,3.119277 -3.0625,5.03125 -0.748265,1.880328 -0.969745,4.0386 0.21875,6.03125 0.01636,0.03896 0.04568,0.05561 0.0625,0.09375 0.617379,1.399512 1.554182,2.272748 2.59375,2.65625 1.067896,0.393953 2.155889,0.352265 3.21875,0.25 1.062861,-0.102265 2.106188,-0.266728 3,-0.21875 0.878186,0.04714 1.576978,0.25897 2.21875,0.875 0.0982,0.157229 0.125594,0.301514 0.125,0.53125 -6.68e-4,0.258537 -0.05817,0.586407 -0.09375,1 -0.03558,0.413593 -0.04956,0.920066 0.15625,1.4375 0.155629,0.391278 0.546219,0.75422 0.9375,1.09375 0.318979,1.303997 0.173062,2.654915 0.09375,4.125 -0.07857,1.45636 0.03172,3.053862 1.03125,4.625 l -0.03125,0 c 0.48133,1.293046 0.849575,3.029298 1.75,4.28125 0.450213,0.625976 1.123437,1.17563 1.96875,1.28125 0.838058,0.104713 1.734125,-0.210149 2.75,-0.875 0.01347,-0.0081 0.01788,-0.02309 0.03125,-0.03125 2.158959,-1.317205 3.007,-3.244303 3.65625,-4.96875 0.653271,-1.735125 1.150009,-3.236996 2.59375,-4.3125 a 0.73564816,0.73564816 0 0 0 0.21875,-0.9375 c -0.589493,-1.141275 -0.665757,-2.026682 -0.5,-2.84375 0.165757,-0.817068 0.60128,-1.601869 1.21875,-2.40625 1.234939,-1.608761 3.126963,-3.203575 3.9375,-5.5 A 0.73564816,0.73564816 0 0 0 84.78125,53.6875 c -0.28444,0.04166 -0.564425,-0.06836 -0.84375,-0.09375 0.265933,-0.132851 0.536096,-0.262717 0.8125,-0.46875 0.943758,-0.394891 2.559854,-1.246285 3.625,-2.3125 0.532573,-0.533107 1.014465,-1.174655 0.90625,-2 -0.03363,-0.256492 -0.222026,-0.46801 -0.375,-0.6875 C 89.302984,48.0467 89.700629,47.79732 90,47.46875 L 90,14.4375 a 0.73564816,0.73564816 0 0 0 -0.53125,0.25 c -0.337416,0.344935 -1.027995,0.891623 -1.65625,1.1875 -0.314128,0.147938 -0.607368,0.211894 -0.8125,0.21875 -0.205132,0.0069 -0.299004,-0.02124 -0.40625,-0.125 A 0.73564816,0.73564816 0 0 0 86,15.78125 c -0.65814,0.09168 -1.219092,0.416714 -1.71875,0.75 -0.427939,0.285447 -0.787144,0.568419 -1.09375,0.78125 C 83.19925,17.195443 83.1927,17.156237 83.21875,17 A 0.73564816,0.73564816 0 0 0 82.5625,16.15625 c -0.312867,-0.02073 -0.642527,0.01899 -0.90625,0.1875 -0.263723,0.16851 -0.457191,0.433313 -0.5625,0.65625 -0.162413,0.343827 -0.201594,0.637239 -0.25,0.9375 -0.222407,-0.752645 -0.786571,-1.29598 -1.4375,-1.78125 C 78.682996,15.617061 77.821169,15.153307 77.125,14.75 76.776915,14.548346 76.475876,14.360141 76.25,14.21875 76.243736,14.100171 76.317931,13.955064 76.28125,13.875 76.080994,13.437894 75.824515,13.338912 75.5625,13.1875 75.300485,13.036088 75.012446,12.91471 74.71875,12.84375 74.571902,12.80827 74.438918,12.77012 74.25,12.78125 z M 14.96875,16.4375 c 0.04483,0.0086 0.08155,0.02404 0.125,0.03125 -0.07031,0.02766 -0.119355,0.0069 -0.1875,0.03125 0.02428,-0.01663 0.03889,-0.04459 0.0625,-0.0625 z M 54.875,18.46875 a 0.73564816,0.73564816 0 0 0 -0.5,0.28125 c -0.25928,0.298611 -0.450716,0.369388 -0.6875,0.40625 -0.236784,0.03686 -0.533293,0.0018 -0.84375,-0.0625 -0.310457,-0.06426 -0.614189,-0.195696 -1.09375,-0.125 -0.239781,0.03535 -0.537868,0.180645 -0.71875,0.4375 -0.180882,0.256855 -0.244273,0.517743 -0.25,0.78125 a 0.73564816,0.73564816 0 0 0 0.125,0.40625 c -0.0223,-0.0368 0.151905,0.335376 0.34375,0.6875 0.191845,0.352124 0.424825,0.76489 0.8125,1.125 0.387675,0.36011 0.961517,0.661792 1.625,0.625 0.663483,-0.03679 1.344706,-0.382114 2,-1.03125 l -0.03125,-0.03125 c 0.678575,-0.417593 1.065542,-1.156872 0.9375,-1.8125 -0.143919,-0.736922 -0.663111,-1.33136 -1.375,-1.625 a 0.73564816,0.73564816 0 0 0 -0.28125,-0.0625 0.73564816,0.73564816 0 0 0 -0.0625,0 z m 23.4375,1.5625 c 0.06413,0.0408 0.02422,0.01287 0.09375,0.0625 a 0.73564816,0.73564816 0 0 0 0.28125,0.125 c -0.06277,0.013 -0.110615,0.03709 -0.1875,0.0625 -0.01024,0.0034 -0.02051,0.02743 -0.03125,0.03125 -0.06948,-0.104508 -0.0971,-0.179231 -0.15625,-0.28125 z m -7.34375,4.4375 c 0.02148,0.315608 0.04887,0.63826 0.25,0.9375 0.227784,0.338898 0.611338,0.559532 1.03125,0.65625 -0.05766,0.05844 -0.133931,0.05842 -0.1875,0.125 -0.222521,0.276584 -0.383881,0.639286 -0.375,1.0625 2.75e-4,0.01309 0.03066,0.01818 0.03125,0.03125 -0.160798,0.07317 -0.363271,0.110818 -0.46875,0.21875 -0.40507,0.414493 -0.483923,0.853185 -0.625,1.21875 -0.141077,0.365565 -0.295855,0.653119 -0.375,0.71875 -0.07914,0.06563 -0.07887,0.116106 -0.53125,-0.0625 a 0.73564816,0.73564816 0 0 0 -0.4375,-0.03125 c 0.03947,-0.02444 0.06913,-0.04993 0.125,-0.09375 a 0.73564816,0.73564816 0 0 0 0.125,-0.15625 c 1.088228,-1.440645 1.223305,-3.126297 1.4375,-4.625 z M 35.125,33.53125 c -0.157444,0.586293 -0.03331,1.203806 0.3125,1.625 -0.05994,-0.06957 -0.115807,-0.146274 -0.1875,-0.1875 -0.382364,-0.219869 -0.643325,-0.125699 -0.90625,-0.0625 -0.04564,0.01097 -0.109138,0.0487 -0.15625,0.0625 -0.09143,-0.264975 -0.08253,-0.614001 -0.25,-0.8125 -0.117357,-0.139098 -0.296338,-0.123944 -0.4375,-0.21875 0.540214,-0.134836 1.076747,-0.260351 1.625,-0.40625 z m 48.9375,3.0625 c -0.06354,0.102513 -0.08439,0.248355 -0.125,0.375 -0.01617,-0.121658 -0.06875,-0.266319 0,-0.34375 0.0082,-0.0092 0.112622,-0.02035 0.125,-0.03125 z m -8.03125,0.125 c -0.0047,0.01412 0.0054,-4.33e-4 0.1875,0.0625 0.246109,0.08508 0.542926,0.237898 0.84375,0.375 0.150412,0.06855 0.30131,0.142465 0.5,0.1875 0.09934,0.02252 0.197974,0.05879 0.375,0.03125 0.177026,-0.02754 0.456125,-0.162719 0.59375,-0.375 0.01781,0.03208 0.04465,0.06214 0.0625,0.09375 0.262436,0.464609 0.535725,0.874331 0.71875,1.1875 -0.220856,-0.01746 -0.45052,-0.04305 -0.84375,-0.125 a 0.73564816,0.73564816 0 0 0 -0.25,0 c -1.025103,0.120295 -2.348748,0.0069 -2.78125,-0.21875 -0.108125,-0.05641 -0.149228,-0.08288 -0.15625,-0.09375 -0.007,-0.01087 -0.0068,-0.0037 0,-0.0625 0.0121,-0.104962 0.263235,-0.535747 0.75,-1.0625 z m -11,1.3125 c 0.182278,-0.03842 0.385297,-0.01786 0.59375,0.03125 0.137514,0.0324 0.291374,0.180516 0.4375,0.25 a 0.73564816,0.73564816 0 0 0 -0.40625,0.125 c -0.517379,0.333445 -0.877551,0.81139 -0.84375,1.375 0.02981,0.497117 0.359793,0.782424 0.71875,0.9375 -1.173497,0.08013 -2.423924,0.13113 -3.6875,0.375 0.530597,-0.492227 1.064726,-1.021089 1.5,-1.53125 0.498865,-0.584693 0.9498,-1.106158 1.15625,-1.28125 0.187434,-0.145446 0.348972,-0.242833 0.53125,-0.28125 z m 19.375,0.40625 c 0.107371,0.09389 0.243364,0.170494 0.375,0.25 0.0053,0.0032 -0.0053,0.02809 0,0.03125 0.456602,0.55917 0.623824,1.665269 0.5,2.0625 -0.01567,0.05026 -0.01832,0.0395 -0.03125,0.0625 -0.01442,-0.0087 -0.271389,-0.170743 -0.59375,-0.46875 0.0046,-0.728891 -0.0467,-1.388961 -0.25,-1.9375 z m -17.71875,0.25 c 0.08292,0.06526 0.171427,0.08331 0.25,0.15625 0.40718,0.377963 0.738919,0.842882 0.90625,1.21875 0.167331,0.375868 0.102937,0.577375 0.15625,0.5 a 0.73564816,0.73564816 0 0 0 0.875,1.09375 c 0.875745,-0.355195 1.279301,-1.141017 1.34375,-1.9375 0.09145,0.22743 0.241752,0.577693 0.25,0.53125 a 0.73564816,0.73564816 0 0 0 0.0625,0.46875 c 0.220149,0.412395 0.398982,0.702882 0.65625,0.9375 0.128634,0.117309 0.309676,0.226237 0.53125,0.28125 0.221574,0.05501 0.498144,0.0102 0.6875,-0.09375 0.378712,-0.207905 0.468461,-0.46768 0.5625,-0.6875 0.09404,-0.21982 0.157564,-0.422215 0.21875,-0.625 0.04608,0.266861 0.07127,0.548242 0.21875,0.75 0.261425,0.357639 0.616433,0.590857 0.96875,0.75 0.704634,0.318287 1.462864,0.406954 2.0625,0.53125 0.299818,0.06215 0.566999,0.123751 0.71875,0.1875 0.0607,0.0255 0.07355,0.04668 0.09375,0.0625 -0.0071,0.01805 -0.0131,0.01985 -0.03125,0.0625 -0.0568,0.133471 -0.264624,0.427353 -0.5,0.71875 -1.160437,0.183137 -2.374389,0.04595 -3.625,-0.09375 -1.260794,-0.140836 -2.568175,-0.222799 -3.875,0.15625 l 0,-0.03125 C 68.365628,43.6175 68.164685,43.336388 67.875,42.78125 67.730158,42.503681 67.620605,42.151232 67.46875,41.8125 c -0.151855,-0.338732 -0.322442,-0.708644 -0.71875,-1 a 0.73564816,0.73564816 0 0 0 -0.25,-0.125 c 0.179415,-0.106109 0.380167,-0.205243 0.46875,-0.40625 0.240204,-0.545054 0.05355,-1.042424 -0.28125,-1.59375 z M 25.53125,47.96875 A 0.73564816,0.73564816 0 0 0 24.96875,48.5 c -0.134136,0.447678 0.131363,0.888913 0.34375,1.09375 0.212387,0.204837 0.442979,0.322292 0.6875,0.4375 0.489042,0.230415 1.052846,0.376541 1.53125,0.46875 0.239202,0.0461 0.43838,0.09542 0.65625,0.09375 0.108935,-8.37e-4 0.214104,0.0117 0.40625,-0.0625 0.05279,-0.02039 0.118664,-0.106993 0.1875,-0.15625 -0.07668,0.368533 0.187935,0.855728 0.46875,1.03125 0.56163,0.351044 0.97955,0.255547 1.40625,0.15625 0.21335,-0.04965 0.415694,-0.117535 0.625,-0.25 C 31.385903,51.246268 31.487136,51.153347 31.59375,51 31.700364,50.846653 31.80021,50.598355 31.75,50.34375 31.64958,49.83454 31.27989,49.675297 31,49.5625 30.72011,49.449703 30.389477,49.379061 29.9375,49.3125 A 0.73564816,0.73564816 0 0 0 29.3125,49.5 C 29.159677,49.655202 29.097109,49.858758 29,50.03125 29.045884,49.887109 29.120465,49.74418 29.09375,49.625 29.011176,49.256626 28.856104,49.17699 28.75,49.09375 28.643896,49.01051 28.532998,48.943063 28.40625,48.875 28.152754,48.738874 27.821562,48.593617 27.34375,48.40625 a 0.73564816,0.73564816 0 0 0 -0.03125,0 l -0.53125,-0.1875 A 0.73564816,0.73564816 0 0 0 26.6875,48.1875 L 25.84375,48 a 0.73564816,0.73564816 0 0 0 -0.15625,-0.03125 0.73564816,0.73564816 0 0 0 -0.15625,0 z m 58.625,16.4375 c -1.199188,0.03095 -2.075291,0.889989 -2.5625,1.8125 -0.487209,0.922511 -0.679098,1.985752 -0.6875,2.90625 -0.0042,0.460249 0.0353,0.86699 0.15625,1.25 0.120953,0.38301 0.329338,0.841265 0.875,1 0.272831,0.07937 0.586273,0.01337 0.8125,-0.09375 0.226227,-0.107117 0.397994,-0.256032 0.5625,-0.4375 0.329012,-0.362937 0.611734,-0.848973 0.9375,-1.5625 A 0.73564816,0.73564816 0 0 0 84.3125,69.125 c 0.09222,-0.462193 0.3853,-1.141574 0.59375,-1.875 0.20845,-0.733426 0.362181,-1.618356 -0.0625,-2.4375 a 0.73564816,0.73564816 0 0 0 -0.6875,-0.40625 z"
       inkscape:connector-curvature="0"
       id="path3798"
       style="opacity:0.2;fill:#000000;fill-opacity:1;stroke:none;display:inline" />
    <path
       d="m 36.273888,6.0817019 c 1.650116,2.216692 0.112581,5.9183371 2.601472,5.8815911 1.2119,1.714016 -2.415455,0.511296 0.203594,1.832342 1.506105,1.186578 -1.593388,1.86454 0.27179,2.929374 -2.149689,1.109666 0.348443,5.803987 1.945119,6.978848 2.627954,2.213161 1.162204,-4.685722 4.094495,-5.044597 1.593359,-1.819699 4.391847,-2.987811 6.379273,-4.818381 -1.942301,-0.15774 -3.076464,-1.367135 -1.237028,-2.116304 3.385456,3.470394 0.848905,-1.643528 -1.025128,-2.4532401 1.813361,-0.577046 3.576977,-0.154481 3.325361,-1.65137 1.916325,-1.402516 -1.842255,-1.855344 -3.183935,-1.538263 -4.458342,0 -8.916678,0 -13.375013,0 z M 8.472036,7.5294789 C 6.022275,8.2276739 5.851392,14.084357 8.313685,10.832218 8.918028,9.4968519 11.710763,7.8875459 8.472036,7.5294789 z m 11.446491,0.203593 c -1.412257,2.2153416 0.204915,3.9914991 1.379912,1.289427 0.831709,-1.128343 -0.617926,-1.248085 -1.379912,-1.289427 z m 3.528956,0.497674 c -2.72875,1.265212 -0.672602,4.2155641 -0.605059,4.8717381 2.87456,0.994829 4.473227,-0.650437 5.560693,2.161488 2.73516,1.576935 -0.05382,4.317061 -1.080544,5.030674 1.849342,-1.611189 5.404158,4.380481 4.472249,1.214924 -1.11178,-0.812076 2.985161,1.304563 0.859619,-1.334669 -1.956059,-3.152657 0.155272,-1.411414 0.979953,-0.675608 2.804888,-2.516097 -3.173595,-2.820214 -1.681217,-5.409578 -1.307758,-1.059583 -3.02289,-4.2694931 -5.33868,-3.642063 -1.550241,2.005564 -0.214153,-4.3699601 -2.488605,-1.1795631 -0.117891,1.7834151 -0.04285,4.0464551 -0.705711,0.9568241 -0.444071,-0.5408721 0.764001,-1.7982981 0.0273,-1.9941671 z m -5.564894,0.022621 c -1.8316,0.610853 -1.733228,3.0865051 0.518957,3.3519111 0.771435,-0.879633 0.306491,-3.1853381 -0.518957,-3.3519111 z m -7.148401,0.791753 c -2.379079,0.563878 -1.407992,2.4828651 -0.679573,3.0233211 -2.944918,0.737923 4.495691,0.943126 0.792681,1.410494 -3.080791,1.230835 2.966663,2.680942 3.958766,1.221561 3.804391,0.930735 0.136908,-3.046545 -0.19704,-5.2025321 -1.612752,-1.731481 -0.06366,3.9915331 -1.521869,0.184408 -0.508786,1.1305431 -2.126527,0.166598 -2.352965,-0.637252 z m 75.601127,0.248837 c -3.192449,1.2498621 1.98418,5.9664341 0.697641,1.6754941 -0.128164,-0.518125 0.288199,-1.8871051 -0.697641,-1.6754941 z M 19.669689,11.194162 c -2.29408,2.156707 2.915989,3.940201 -0.658895,5.546906 -0.536018,-2.002938 -1.458273,1.002105 -3.503464,-0.615417 -3.515899,1.464466 -5.313868,-0.762828 -8.257536,-2.28957 -1.768029,-0.220164 -1.10378,1.680533 -1.220883,3.460193 0,4.918306 0,9.836614 0,14.75492 1.733489,1.82448 0.676329,0.804976 0,0.301752 0.951467,3.241642 -0.419572,7.980231 3.330851,9.86583 0.637564,1.183033 3.312883,6.223076 3.436221,4.715046 -1.341215,-1.405066 -2.717353,-5.617387 -0.447896,-1.863024 2.032755,3.568795 4.774749,5.883507 8.780477,6.73276 2.190057,0.745225 3.991169,3.306965 5.917116,2.743325 1.089051,2.871967 -3.227416,5.629887 0.144912,8.308597 1.760515,2.7118 4.716185,4.4904 3.11596,8.29758 -1.119073,3.71826 -0.639926,7.76974 -1.607786,11.23409 -0.300394,2.10873 2.938037,7.46101 2.65747,3.17511 0.945569,-2.9784 0.92064,-6.25562 3.147579,-8.36483 3.047115,0.02413 0.582377,-3.27775 3.60701,-2.84642 1.845644,-2.42007 2.380233,-5.30712 5.49491,-6.26809 0.372042,-2.9376 5.178821,-7.43659 0.213139,-8.580318 -1.349609,-0.665451 -4.824504,-0.904732 -4.55895,-1.233078 0.538034,-2.914877 -4.493466,-3.744701 -6.634228,-4.937269 -2.810759,-1.995848 -7.034237,3.315594 -8.024515,-1.261025 -0.590876,-1.439948 -2.751326,-1.463301 -1.758429,-3.68521 -1.789388,1.780326 -5.289343,1.23924 -4.373033,-2.198916 1.39157,-2.895595 6.735639,-3.032599 7.64626,0.450282 -1.264352,-3.841203 2.443938,-6.83143 4.502527,-9.564217 0.419165,-1.3062 2.909742,-2.428425 2.052679,-0.692421 1.460154,-0.05269 3.673291,-2.688637 1.079407,-1.472012 -0.03668,-2.403896 -2.272976,-1.720272 -2.997994,-1.378934 1.34377,-2.133574 8.24499,-0.967127 5.355098,-4.454587 -2.239305,-0.907679 -2.053024,-6.204449 -4.317999,-3.253597 0.190595,-1.818146 -4.610012,-5.377145 -4.505255,-2.328319 0.585986,2.728128 0.107133,5.870869 -1.139926,7.659113 -0.260245,-3.99762 -7.075678,-3.114085 -6.199423,-7.373995 1.26944,-2.030291 2.752851,-4.83791 2.894179,-4.585337 2.275048,-0.868941 4.104591,-3.396512 1.46783,-5.058122 -0.140917,1.448202 -1.98303,4.436139 -1.72366,0.822325 -1.705794,2.02318 -1.316199,-3.219407 -2.913753,-3.763121 z m 54.450004,1.402533 c -3.995941,0.977838 -5.580067,4.795836 -7.556815,7.958163 -2.913853,1.314237 -2.802938,6.958318 0.452411,5.155674 0.87128,1.522277 -0.609505,3.921673 1.928313,1.931216 2.046994,-2.709901 0.357939,-7.092756 3.841419,-8.801515 0.253727,1.32865 -3.213334,6.289871 0.836994,5.474405 3.66156,0.138209 -2.661851,0.364969 -0.881001,2.704729 -1.850264,-1.098211 -0.888827,2.999333 -3.303976,2.045788 -2.092333,1.138533 -3.464338,-0.528629 -2.985033,-2.35496 -1.645958,0.960573 0.517696,3.67045 -2.339585,3.83331 -0.640044,2.273659 -5.903378,1.930962 -2.910208,4.246159 1.328901,3.445358 -4.95153,0.215986 -3.16853,4.35053 1.525447,4.088438 4.722394,-1.354722 6.019433,-2.406348 2.502474,-1.941872 6.210661,3.311089 3.958763,3.506335 2.525083,-0.338912 2.006191,-2.74125 -0.01696,-3.671301 -1.092676,-2.834933 3.459035,1.390324 3.206601,2.811683 1.605944,3.008346 0.944615,-3.080088 2.578854,-0.384565 -0.190808,2.843378 6.574181,0.668556 3.344389,4.292415 -2.776877,0.559513 -5.510134,-0.716143 -7.900831,0.100926 -2.22511,-0.01969 -2.113469,-2.397964 -2.923585,-2.993542 -2.830365,0.23004 -6.327933,0.204027 -8.222767,2.491404 -2.049016,2.812343 -5.00383,6.743795 -2.770526,10.334807 2.234877,5.321462 7.777183,0.276028 10.962975,3.418767 0.946936,1.310381 -0.820594,2.868035 1.296711,4.287425 0.796704,3.02353 -0.904488,5.89433 1.052264,8.78464 1.011837,2.7182 1.639779,6.78664 5.40576,4.30281 3.985771,-2.39945 2.924161,-6.8227 6.212939,-9.27265 -2.60227,-5.038063 3.183628,-7.247103 4.627218,-11.337101 -3.153943,0.461909 -5.963772,-2.68376 -6.725787,-5.84994 -1.324936,-1.537885 -0.983676,-3.805502 0.496326,-0.916468 2.034259,1.971905 2.078217,7.823061 5.841274,4.813019 1.720349,-0.719835 6.418604,-3.465723 2.675109,-4.71532 C 84.738799,48.485587 82.07659,41.512928 85.620023,45.557218 88.196064,46.650521 90,47.301924 90,43.677069 c 0,-9.766125 0,-19.664578 0,-29.496868 -0.802399,0.82028 -2.863802,2.335242 -3.904284,1.328569 -1.790368,0.249406 -4.153886,3.734285 -3.59125,0.365539 -1.556235,-0.103093 -0.278581,3.020534 -2.416637,3.107891 -0.215289,1.605887 -2.159868,0.297377 -1.429431,1.822369 -1.500645,-1.064875 -2.770669,-4.427041 0.186146,-2.316729 4.391021,-1.317844 -2.895608,-4.290405 -3.458045,-5.008905 0.945455,-0.226615 -1.028609,-1.212248 -1.266806,-0.88224 z m -36.239676,0.88224 c -1.461507,1.2182 2.778528,1.447612 0,0 z m -19.522376,0.656023 c -1.634652,1.710504 2.603281,1.572448 0,0 z m 9.478418,1.696613 c -1.237867,2.028578 1.829027,0.748943 0,0 z m 27.100586,2.39788 c -1.449235,1.669078 -3.362051,-0.439263 -3.39323,0.995347 0.262642,0.433474 1.314671,3.527292 3.619439,1.244183 1.236985,-0.52171 0.749963,-1.836879 -0.226209,-2.23953 z m -30.855759,0.995347 c -2.748806,2.401478 4.668304,2.622741 0.582324,0.275426 l -0.582324,-0.275426 z m 36.262298,6.650724 c -1.979083,1.291041 0.949434,4.032808 -0.04308,5.320723 C 59.06,33.35771 64.908429,31.04399 61.784718,29.319485 61.562154,27.837869 59.9547,26.030129 60.343179,25.875522 z m -1.334668,2.601473 c -2.757392,0.779858 -0.625964,4.806237 0.350657,1.013998 0.05497,-0.219858 0.12936,-1.021351 -0.350657,-1.013998 z M 36.929913,31.39517 c -2.565224,1.749832 -0.39843,3.496444 1.481561,2.709121 -0.385959,-1.055763 -1.46417,-1.720956 -1.481561,-2.709121 z m 48.455298,2.940797 c 1.279946,0.646198 -2.345536,1.750082 -0.04983,2.887358 1.335978,1.571671 0.832312,4.945457 -1.339202,2.557643 0.403442,-2.665992 -2.943559,-4.656978 1.389033,-5.445001 z m -6.582867,0.02262 c -0.173666,1.712793 3.69395,4.375139 -0.475048,3.506334 -2.204744,0.258725 -5.506966,-0.06739 -2.729423,-2.815681 0.87765,-0.527085 3.182055,1.818498 1.982912,-0.373952 0.42514,-0.02713 0.821079,-0.187672 1.221559,-0.316701 z m -12.735913,3.709927 c -1.608116,1.036413 1.111982,1.831121 0,0 z M 25.687014,47.7279 c -0.271103,0.904805 5.085991,1.821755 1.389301,0.372149 L 26.525247,47.906003 25.687014,47.7279 z m 4.16236,1.289426 c -1.624915,1.650213 3.347807,0.493017 0,0 z M 84.186275,64.15112 c -3.530727,0.09113 -3.061331,9.20159 -0.600138,3.81083 0.233406,-1.16979 1.168903,-2.71377 0.600138,-3.81083 z"
       inkscape:connector-curvature="0"
       id="path3522"
       style="fill:url(#radialGradient3736);fill-opacity:1;stroke:none;display:inline" />
    <path
       d="M 20.4375,7.59375 C 20.23018,7.558266 20.112524,7.7067944 19.9375,7.75 l 0.65625,0.5 0.6875,-0.09375 C 21.014819,7.8752983 20.716208,7.6414525 20.4375,7.59375 z m -0.53125,0.1875 C 19.669046,7.8477916 19.372861,7.8334282 19.21875,8 18.944306,8.2966347 18.961838,8.6515058 18.9375,8.46875 l 0.875,-0.125 0.09375,-0.5625 z m 1.4375,0.4375 L 21,8.5625 21.5,8.96875 21.71875,8.875 C 21.66251,8.6469499 21.517977,8.4179864 21.34375,8.21875 z m 18.34375,0.375 c 0.04057,0.2046106 0.08337,0.478347 0.125,0.65625 0.250599,1.070782 0.425181,1.321313 0.5625,1.40625 a 2.5069223,2.5069223 0 0 1 1.125,2.6875 c 0.188486,0.347849 0.376769,0.748678 0.4375,1.34375 0.07834,0.767643 -0.238486,1.493161 -0.6875,2.15625 -0.03452,0.780208 -0.02593,1.891357 0.25,2.875 1.241777,-2.278204 3.061918,-4.220258 5.5625,-5.53125 l 0,-0.03125 c 0.176367,-0.115716 0.115457,-0.04064 0.28125,-0.15625 0.04448,-0.03101 0.01911,-0.03189 0.0625,-0.0625 A 2.5069223,2.5069223 0 0 1 47.125,12.28125 c 0.08709,-0.530226 0.359657,-1.136725 0.8125,-1.6875 -0.105411,-0.210663 -0.22372,-0.190751 -0.3125,-0.53125 -0.09821,-0.3766766 -0.04293,-0.9251702 0.09375,-1.46875 l -8.03125,0 z M 18.40625,8.78125 C 18.349694,8.7732964 18.205923,8.8734125 18.125,8.875 l 0.1875,0.375 0.3125,-0.09375 -0.3125,0.125 0.5625,1.28125 c -0.403548,0.172822 0.266055,-0.321409 0.25,-0.9375 -0.01606,-0.6160906 -0.214034,-0.6516148 -0.3125,-0.71875 -0.04923,-0.033568 -0.125242,-0.085481 -0.40625,-0.125 z M 17.65625,9 C 17.412774,9.0646997 17.239114,9.0141879 17,9.21875 16.740086,9.4411063 16.777803,9.5921585 16.6875,9.8125 L 17.53125,9.53125 17.65625,9 z M 7.875,9.3125 c 0.082824,0.1474732 0.1010021,0.3376371 0.21875,0.4375 0.545337,0.462505 0.6777924,0.288148 0.3125,0.28125 l 0,-0.5 C 8.2565049,9.4308575 8.068828,9.3759171 7.875,9.3125 z m 9.65625,0.25 -0.90625,0.34375 c -0.04068,0.119407 -0.178583,0.276585 -0.1875,0.34375 0.135619,0.14344 0.330353,0.317674 0.78125,0.4375 l 0.3125,-1.125 z m 69.0625,0.46875 c -0.354011,0.04931 -0.744885,0.193374 -1.09375,0.5 -0.219297,0.192746 -0.273961,0.380251 -0.375,0.5625 0.100986,0.110364 0.05667,0.170486 0.21875,0.28125 0.577265,0.394491 1.442651,0.392782 1.78125,0.28125 l -0.53125,-1.625 z m 0.0625,0 0.625,1.5625 c -0.12206,0.04934 0.561931,-0.725928 0.53125,-1.125 -0.03068,-0.399072 -0.0235,-0.211711 -0.03125,-0.21875 -0.0039,-0.0035 -0.04181,-0.05889 -0.34375,-0.15625 -0.145197,-0.04682 -0.438875,-0.1004165 -0.78125,-0.0625 z M 38.375,11.84375 c -0.247642,-0.02292 -0.412253,0.05671 -0.5625,0.09375 -0.150247,0.03704 -0.351534,0.0721 -0.6875,0.34375 -0.335966,0.271647 -0.934148,1.142076 -0.78125,2.125 0.144555,0.929288 0.638083,1.305007 0.84375,1.4375 l 0.6875,-2.375 2.03125,1.5 c -0.0066,0.0089 0.118705,-0.125145 0.1875,-0.625 0.0688,-0.499855 -0.173213,-1.426639 -0.65625,-1.875 -0.483037,-0.448361 -0.814858,-0.602081 -1.0625,-0.625 z m -20.09375,0.9375 c -0.186118,0.03256 -0.384708,0.09556 -0.71875,0.34375 -0.334042,0.248191 -0.868,0.890102 -0.875,1.71875 -0.007,0.828648 0.421656,1.337619 0.59375,1.5 0.172094,0.162381 0.188043,0.134042 0.03125,0.0625 L 18.34375,14.125 18.5,14.25 c -0.127693,-0.508942 -0.244585,-1.012269 -0.3125,-1.1875 -0.04108,-0.106002 -0.07212,-0.128776 0.0625,0.03125 0.134624,0.160026 0.565921,0.490629 1.0625,0.5625 l 0.09375,-0.59375 c -0.46021,-0.27239 -0.874605,-0.325055 -1.125,-0.28125 z M 28.125,14.4375 c -0.451054,-0.06873 -0.692245,0.01823 -0.90625,0.09375 -0.172066,0.06072 -0.389047,0.188738 -0.59375,0.34375 -0.08994,0.578215 -0.146622,1.204191 -0.375,1.65625 -0.03035,0.06008 -0.09364,0.09789 -0.125,0.15625 0.08715,0.448065 0.159204,0.952555 0.34375,1.15625 0.146016,0.161167 0.152925,0.148557 0.21875,0.1875 C 26.798697,17.980321 26.885845,17.915153 27,17.875 l 0.84375,-2.03125 2.0625,1.4375 c -0.07038,0.100567 -0.03871,0.112234 0.03125,-0.125 0.02102,-0.07128 -0.07693,-0.33643 -0.0625,-0.46875 -0.237745,-0.415917 -0.481592,-0.856651 -0.5625,-1.5 -0.0012,-0.0094 0.0011,-0.02183 0,-0.03125 -0.396721,-0.381169 -0.860217,-0.668879 -1.1875,-0.71875 z m 45.75,1 c -0.639209,0.281011 -1.258182,0.720399 -1.78125,1.34375 0.184566,-0.03499 0.219857,-0.12544 0.46875,-0.125 0.451653,7.98e-4 1.085587,0.136073 1.625,0.53125 0.321012,0.235175 0.415342,0.56423 0.59375,0.875 0.0099,-0.468598 0.149307,-1.022216 0.65625,-1.65625 -0.246757,-0.149412 -0.43731,-0.2807 -0.6875,-0.4375 -0.286024,-0.179258 -0.581934,-0.35344 -0.875,-0.53125 z m -65.34375,2 c -0.013083,0.503543 -0.053799,0.751778 0,1.1875 a 2.5069223,2.5069223 0 0 1 0,0.3125 l 0,12.15625 c 0.056151,0.037 0.060072,-0.02754 0.34375,0.40625 0.048791,0.07461 0.1270522,0.16502 0.21875,0.375 0.045849,0.10499 0.1076718,0.252789 0.15625,0.46875 0.024289,0.10798 0.031227,0.405882 0.03125,0.40625 2.26e-5,3.68e-4 -0.031198,0.5622 -0.03125,0.5625 -5.22e-5,3e-4 -0.249874,0.781016 -0.25,0.78125 -4.49e-5,8.3e-5 -0.1227402,0.131701 -0.21875,0.25 -0.1984106,2.687715 1.0880611,4.845008 2.84375,7.21875 0.02833,9.28e-4 0.06652,-0.03407 0.09375,-0.03125 0.841111,0.08718 1.11059,0.348896 1.3125,0.5 0.80764,0.604416 0.753745,0.785029 1,1.125 0.246255,0.339971 0.525386,0.738324 0.8125,1.15625 0.44886,0.653365 0.935013,1.325192 1.40625,1.9375 0.03984,-0.171096 0.01148,-0.370098 0.0625,-0.53125 0.461569,-1.457783 1.402882,-2.807893 2.90625,-3.6875 1.295129,-0.757769 3.10295,-0.821123 4.78125,-0.25 l 0,-0.0625 c 0.09718,0.01392 0.157248,0.07514 0.25,0.09375 1.101893,-2.624379 2.79068,-5.11906 5.0625,-6.9375 C 29.153567,34.709289 28.988598,34.596996 28.84375,34.3125 28.360923,33.364181 28.717267,32.171083 29,31.75 c 0.565466,-0.842167 0.766832,-0.744094 0.9375,-0.84375 0.170668,-0.09966 0.287564,-0.178283 0.4375,-0.25 0.299872,-0.143434 0.676588,-0.276634 1.1875,-0.5 a 2.5069223,2.5069223 0 0 1 1.03125,-0.21875 c 0.502567,0.0037 0.702587,-0.08281 0.9375,-0.15625 C 33.395571,29.633574 33.420749,29.583844 33.125,29.375 A 2.5069223,2.5069223 0 0 1 32.25,28.25 2.5069223,2.5069223 0 0 1 29.8125,27.34375 c -0.09185,1.099511 -0.161999,2.194534 -0.59375,3.34375 -0.148271,0.39466 -0.304177,0.807709 -0.65625,1.28125 -0.352073,0.473541 -1.146733,1.286606 -2.5,1.21875 -1.353267,-0.06786 -2.070596,-0.948819 -2.40625,-1.5 -0.119183,-0.195712 -0.134278,-0.403858 -0.21875,-0.59375 -1.387016,-0.761151 -3.127907,-1.675873 -4.53125,-3.3125 -0.81945,-0.955671 -1.543048,-2.31734 -1.46875,-3.90625 0.06739,-1.441073 0.838278,-2.753525 1.90625,-3.90625 0.204522,-0.421118 0.399805,-0.839008 0.65625,-1.15625 -0.45598,0.06521 -0.752832,-0.03142 -1.09375,-0.09375 -2.288384,0.101205 -6.610577,1.171607 -10.375,-1.28125 z M 87.5,18.125 c -0.227589,0.0478 -0.518747,0.1514 -0.71875,0.1875 -1.359398,0.245364 -2.032935,0.377479 -2.5625,0.84375 a 2.5069223,2.5069223 0 0 1 -1.3125,0.625 c -0.0027,0.0047 -0.02855,-0.0047 -0.03125,0 -0.219049,0.381346 -0.308354,0.715922 -0.65625,1.125 -0.417746,0.491212 -1.161165,0.939711 -2,1.25 -0.193246,0.188089 -0.279577,0.394534 -0.59375,0.5625 -0.662288,0.354077 -1.532224,0.362629 -2.09375,0.1875 -0.561526,-0.175129 -0.88122,-0.436 -1.125,-0.65625 -0.822907,-0.743478 -1.065596,-1.358196 -1.28125,-2.03125 -0.02805,0.09943 0.02835,0.281084 0,0.375 -0.1466,0.485735 -0.357706,0.928649 -0.625,1.4375 a 2.5069223,2.5069223 0 0 1 -0.0625,0.09375 2.5069223,2.5069223 0 0 1 0.46875,4.96875 c -0.05628,0.213043 -0.09114,0.509827 -0.4375,1.09375 -0.217533,0.366732 -0.589434,0.745115 -1.03125,1.0625 -0.443544,0.820619 -1.02249,1.535377 -1.71875,1.9375 -1.105928,0.638726 -2.301979,0.846511 -3.46875,0.75 -0.49024,-0.04055 -0.975509,-0.19827 -1.46875,-0.375 -0.271367,0.321852 -0.486915,0.728035 -0.78125,1 -0.722442,0.667536 -1.491639,1.065046 -2.25,1.5625 0.729402,-0.304281 1.517054,-0.502407 2.25,-0.375 0.181074,0.03148 0.272821,0.140131 0.4375,0.1875 0.505655,-0.396995 1.065431,-0.600089 1.40625,-0.625 0.86548,-0.06326 1.042766,0.09702 1.28125,0.1875 0.476968,0.180954 0.838675,0.389797 1.375,0.6875 a 2.5069223,2.5069223 0 0 1 0.21875,0.125 c 0.755314,0.524832 1.059464,1.084343 1.40625,1.625 a 2.5069223,2.5069223 0 0 1 0.28125,-0.0625 c 0.04675,-0.407194 0.0048,-0.813032 0.21875,-1.21875 0.734901,-1.393911 2.263137,-2.000891 3.65625,-2.09375 a 2.5069223,2.5069223 0 0 1 0.34375,0 c 0.240979,-0.154487 0.433517,-0.458124 0.65625,-0.53125 0.585833,-0.192336 1.079785,-0.201591 1.59375,-0.1875 a 2.5069223,2.5069223 0 0 1 2.40625,2.09375 c -0.01062,-0.06426 0.079,0.155459 0.09375,0.1875 0.817304,-1.339986 2.311115,-2.173646 3.8125,-2.28125 a 2.5069223,2.5069223 0 0 1 2.3125,1.1875 l 0,-14.90625 z m -62.59375,0.34375 c 0.0039,5.7e-5 -0.0022,-0.0135 -0.21875,0.0625 -0.216559,0.076 -0.945068,0.317954 -1.25,1.375 -0.06385,0.221335 0.02803,0.366513 0.03125,0.5625 l 0.625,-1.25 0.71875,0.8125 a 2.5069223,2.5069223 0 0 1 0.5,-1.25 c -0.17401,-0.111219 -0.41125,-0.312573 -0.40625,-0.3125 z m 28.625,0.34375 c -0.04159,0.0271 -0.135555,0.04909 -0.125,0.5625 0.0083,0.406075 0.168371,0.506181 0.34375,0.71875 0.13349,-0.311025 0.39057,-0.554256 0.375,-0.8125 -0.01226,-0.203388 -0.01571,-0.136466 -0.03125,-0.25 -0.229213,-0.09843 -0.463697,-0.216481 -0.5625,-0.21875 z M 68.125,22.15625 c -0.337884,0.394935 -0.620718,0.785699 -1.03125,1.15625 l 0.03125,0.03125 c -0.408729,0.463746 -0.21082,0.279951 -0.15625,0.375 0.05457,0.09505 0.240932,0.07426 -0.09375,0.125 A 2.5069223,2.5069223 0 0 1 67.75,23.875 c 0.05857,-0.179833 0.141509,-0.327676 0.1875,-0.5 0.201938,-0.756639 0.128789,-1.551561 0.21875,-1.15625 A 2.5069223,2.5069223 0 0 1 68.125,22.15625 z m -9.5,6.3125 c -0.582075,-0.100946 -1.280758,0.139367 -1.625,0.6875 -0.05129,0.08166 -0.0334,0.08945 -0.0625,0.15625 l 1.75,-0.71875 c -0.02375,-0.03934 -0.03877,-0.08466 -0.0625,-0.125 z M 37.4375,31.75 c -0.07,0.0082 -0.195786,0.09942 -0.28125,0.125 l 0.78125,1.75 c 0.171162,-0.224312 0.346875,-0.785865 0.28125,-1.1875 -0.131249,-0.803271 -0.306203,-0.687127 -0.25,-0.65625 0.0281,0.01544 0.04488,0.02356 -0.09375,0 -0.06932,-0.01178 -0.211612,-0.05769 -0.4375,-0.03125 z m 28.125,4.96875 c -0.488713,0.119781 -1.172317,0.577246 -1.46875,1.21875 -0.592866,1.283008 0.02435,1.706087 -0.09375,1.53125 l 2.0625,-1.40625 0.5,0.90625 a 2.5069223,2.5069223 0 0 1 0.21875,-0.4375 c -0.0243,-0.03581 -0.0053,-0.02726 -0.03125,-0.0625 -0.164763,-0.223999 -0.348584,-0.439907 -0.53125,-0.6875 -0.09133,-0.123797 -0.198485,-0.250437 -0.3125,-0.4375 -0.0616,-0.101072 -0.134732,-0.435245 -0.21875,-0.625 -0.05151,0.0092 -0.06919,-0.01368 -0.125,0 z m 15.96875,3.09375 c -0.07181,0.06595 -0.107804,0.162079 -0.1875,0.21875 -0.489692,0.348217 -0.948639,0.445783 -1.375,0.5 0.354373,0.769174 0.449775,1.780236 0.21875,2.5 -0.118706,0.369833 -0.353121,0.587036 -0.53125,0.875 0.621886,0.496135 1.115493,1.079963 1.4375,1.625 0.578481,0.97915 0.907121,1.893418 1.21875,2.65625 0.298644,0.731047 0.575538,1.257067 0.71875,1.4375 0.174592,-0.06495 0.606355,-0.241872 1.125,-0.59375 0.04757,-0.03227 0.07757,-0.05976 0.125,-0.09375 -0.713419,-0.381444 -1.305786,-0.883868 -1.6875,-1.40625 -0.537862,-0.736073 -0.85908,-1.419258 -0.96875,-2.34375 -0.05483,-0.462246 -0.13877,-1.031613 0.34375,-1.90625 0.229227,-0.415507 0.679097,-0.859525 1.25,-1.125 -0.795937,-0.535344 -1.370969,-1.375578 -1.6875,-2.34375 z M 87.5,41.6875 c -0.423126,0.399464 -0.847537,0.644255 -1.375,0.8125 0.490648,0.320097 0.917539,0.734977 1.21875,1.1875 0.104261,-0.361547 0.320405,-0.970087 0.1875,-1.65625 A 2.5069223,2.5069223 0 0 1 87.5,41.6875 z m -23.4375,1.21875 c -1.048228,0.125321 -2.572244,0.770841 -3.6875,1.3125 -1.150789,1.281694 -2.306908,2.803171 -2.875,4.21875 -0.620597,1.546412 -0.686696,2.639265 0.125,3.875 a 2.5069223,2.5069223 0 0 1 0.21875,0.4375 c 0.202634,0.504423 0.0998,0.367977 0.625,0.46875 0.525201,0.100773 1.606438,0.04464 2.84375,-0.0625 1.237312,-0.107143 2.633708,-0.333992 4.28125,0.21875 1.436076,0.481796 2.639505,2.030176 3.125,3.78125 L 68.8125,57.125 c 1.863764,4.037052 1.20589,7.938363 1.6875,11.03125 0.271382,1.423227 1.329362,3.301306 1.9375,3.78125 0.304069,0.239972 0.224482,0.186248 0.21875,0.1875 -0.0056,0.0012 0.411868,-0.155117 1.03125,-1.03125 0.0055,-0.01357 0.02571,-0.01772 0.03125,-0.03125 0.864591,-2.112456 1.998276,-3.838564 2.75,-5.25 0.824441,-1.547969 1.134007,-2.507162 0.78125,-3.71875 A 2.5069223,2.5069223 0 0 1 77.15625,61.125 c 0.322355,-2.834862 2.227919,-4.407283 3.4375,-5.75 0.14751,-0.163746 0.181552,-0.223664 0.3125,-0.375 -1.382696,-0.724651 -2.52511,-1.758302 -3.34375,-2.90625 -1.397724,-1.959975 -2.179469,-4.166813 -2.65625,-6.03125 a 2.5069223,2.5069223 0 0 1 -0.03125,-0.25 c -2.511561,0.09678 -5.36807,0.283514 -8.28125,-0.90625 a 2.5069223,2.5069223 0 0 1 -1.5,-1.71875 C 64.993495,42.782577 65.035585,42.95497 65,42.9375 64.964415,42.92003 64.639535,42.837262 64.0625,42.90625 z m -36.625,3.375 c -0.234285,0.03505 -0.913574,-0.05377 -1.59375,1.125 -0.03681,0.06379 -0.0016,0.148382 -0.03125,0.21875 l 1.875,-1.34375 c 0.02801,-0.01015 0.124855,-0.05608 -0.25,0 z m 2.25,1.125 c -0.148887,0.02325 -0.164286,0.03733 -0.21875,0.0625 -0.05446,0.02517 -0.125694,0.03925 -0.34375,0.25 -0.218056,0.21075 -0.934766,0.950603 -0.59375,2.21875 0.305078,1.134504 1.064464,1.436374 1.375,1.53125 l -0.0625,-2.4375 2.09375,1.40625 c -0.04385,0.06534 0.100874,2.27e-4 0.15625,-0.59375 0.05538,-0.593977 -0.593814,-1.87986 -1.28125,-2.21875 -0.687436,-0.33889 -0.976113,-0.241998 -1.125,-0.21875 z m 1,8.0625 c -0.325875,-0.0074 -0.656238,0.115845 -0.96875,0.21875 a 2.5069223,2.5069223 0 0 1 -0.25,1.03125 c -0.707565,1.434658 -0.935004,2.6929 -0.78125,3.6875 0.153754,0.9946 0.627311,1.863292 1.875,2.8125 a 2.5069223,2.5069223 0 0 1 0.15625,0.15625 c 2.491232,2.292267 2.625753,5.553603 2.1875,7.875 -0.430929,2.282604 -1.032237,4.165315 -0.96875,5.34375 0.460091,-0.529874 1.039879,-0.965219 1.6875,-1.34375 0.900911,-1.413278 1.956366,-2.474334 2.8125,-3.34375 0.991111,-1.006488 1.713976,-1.83601 2.25,-3.0625 A 2.5069223,2.5069223 0 0 1 39.625,67.75 c 1.770702,-1.157229 3.307446,-3.649892 3.53125,-5.6875 -0.593824,-0.240042 -1.165804,-0.4293 -2.4375,-0.75 -0.864992,-0.218136 -1.891766,-0.538605 -2.875,-1.34375 -0.628166,-0.514389 -1.089449,-1.258879 -1.4375,-2.09375 -1.395762,-0.749326 -2.786201,-1.579348 -3.9375,-2 -0.703163,-0.256915 -1.253947,-0.394276 -1.78125,-0.40625 z"
       clip-path="url(#clipPath3759)"
       id="path3745"
       style="opacity:0.6;fill:#fff900;fill-opacity:1;stroke:none;display:inline;filter:url(#filter3824)" />
    <path
       d="M 12,6 C 8.676,6 6,8.676 6,12 l 0,2 0,68 0,2 c 0,0.334721 0.04135,0.6507 0.09375,0.96875 0.0487,0.295596 0.09704,0.596915 0.1875,0.875 0.00988,0.03038 0.020892,0.0636 0.03125,0.09375 0.098865,0.287771 0.2348802,0.547452 0.375,0.8125 0.1445918,0.273507 0.3156161,0.535615 0.5,0.78125 0.1843839,0.245635 0.3737765,0.473472 0.59375,0.6875 0.439947,0.428056 0.94291,0.814526 1.5,1.09375 0.278545,0.139612 0.5734731,0.246947 0.875,0.34375 -0.2562018,-0.100222 -0.4867109,-0.236272 -0.71875,-0.375 -0.00741,-0.0044 -0.023866,0.0045 -0.03125,0 -0.031933,-0.0193 -0.062293,-0.04251 -0.09375,-0.0625 -0.120395,-0.0767 -0.2310226,-0.163513 -0.34375,-0.25 -0.1061728,-0.0808 -0.2132809,-0.161112 -0.3125,-0.25 C 8.4783201,88.557317 8.3087904,88.373362 8.15625,88.1875 8.0486711,88.057245 7.9378561,87.922215 7.84375,87.78125 7.818661,87.74287 7.805304,87.69538 7.78125,87.65625 7.716487,87.553218 7.6510225,87.451733 7.59375,87.34375 7.4927417,87.149044 7.3880752,86.928049 7.3125,86.71875 7.30454,86.69694 7.288911,86.6782 7.28125,86.65625 7.2494249,86.5643 7.2454455,86.469419 7.21875,86.375 7.1884177,86.268382 7.1483606,86.171969 7.125,86.0625 7.0521214,85.720988 7,85.364295 7,85 L 7,83 7,15 7,13 C 7,10.218152 9.2181517,8 12,8 l 2,0 68,0 2,0 c 2.781848,0 5,2.218152 5,5 l 0,2 0,68 0,2 c 0,0.364295 -0.05212,0.720988 -0.125,1.0625 -0.04415,0.206893 -0.08838,0.397658 -0.15625,0.59375 -0.0077,0.02195 -0.0233,0.04069 -0.03125,0.0625 -0.06274,0.173739 -0.138383,0.367449 -0.21875,0.53125 -0.04158,0.0828 -0.07904,0.169954 -0.125,0.25 -0.0546,0.09721 -0.126774,0.18835 -0.1875,0.28125 -0.09411,0.140965 -0.204921,0.275995 -0.3125,0.40625 -0.143174,0.17445 -0.303141,0.346998 -0.46875,0.5 -0.01117,0.0102 -0.01998,0.02115 -0.03125,0.03125 -0.138386,0.125556 -0.285091,0.234436 -0.4375,0.34375 -0.102571,0.07315 -0.204318,0.153364 -0.3125,0.21875 -0.0074,0.0045 -0.02384,-0.0044 -0.03125,0 -0.232039,0.138728 -0.462548,0.274778 -0.71875,0.375 0.301527,-0.0968 0.596455,-0.204138 0.875,-0.34375 0.55709,-0.279224 1.060053,-0.665694 1.5,-1.09375 0.219973,-0.214028 0.409366,-0.441865 0.59375,-0.6875 0.184384,-0.245635 0.355408,-0.507743 0.5,-0.78125 0.14012,-0.265048 0.276135,-0.524729 0.375,-0.8125 0.01041,-0.03078 0.02133,-0.06274 0.03125,-0.09375 0.09046,-0.278085 0.1388,-0.579404 0.1875,-0.875 C 89.95865,84.6507 90,84.334721 90,84 l 0,-2 0,-68 0,-2 C 90,8.676 87.324,6 84,6 L 12,6 z"
       inkscape:connector-curvature="0"
       id="rect3728"
       style="opacity:0.3;fill:url(#linearGradient3188);fill-opacity:1;fill-rule:nonzero;stroke:none;display:inline" />
  </g>
  <g
     id="layer4"
     style="display:none">
    <rect
       width="66"
       height="66"
       rx="12"
       ry="12"
       x="15"
       y="15"
       clip-path="url(#clipPath3613)"
       id="rect3171"
       style="opacity:0.15;fill:url(#linearGradient2885);fill-opacity:1;fill-rule:nonzero;stroke:#ffffff;stroke-width:0.5;stroke-linecap:round;stroke-linejoin:miter;stroke-miterlimit:4;stroke-opacity:1;stroke-dasharray:none;stroke-dashoffset:0;filter:url(#filter3794)" />
  </g>
  <g
     id="layer3"
     style="display:inline">
    <path
       d="M 70.9375,3.0625 C 70.172121,2.986902 69.273072,2.991659 68.40625,3.3125 67.497016,3.6490396 66.592626,4.5289193 66.46875,5.75 a 0.99667096,0.99667096 0 0 0 0.0625,0.375 c 0.647439,2.0753144 -0.231696,4.56719 -0.5625,7.3125 -4.02717,20.436156 -13.520621,39.370863 -23.8125,57.46875 -3.383204,5.849921 -6.935368,11.616387 -10.625,17.28125 -0.638391,-0.0046 -1.302776,-0.05643 -1.90625,0.25 -0.852427,0.432844 -1.5817,1.391563 -1.5625,2.5625 -8.8e-5,0.01124 -5e-6,0.02005 0,0.03125 8.39e-4,1.745587 1.137957,2.992698 2.40625,3.5 1.25516,0.502049 2.626975,0.514775 3.78125,0.40625 0.02037,-6.5e-4 0.04212,6.14e-4 0.0625,0 3.098252,-0.09328 6.35192,0.239301 9.65625,-0.1875 a 0.99667096,0.99667096 0 0 0 0.09375,-0.03125 c 0.835619,-0.193537 1.566395,-0.63024 2.09375,-1.21875 0.263678,-0.294255 0.481954,-0.633869 0.59375,-1.0625 0.0098,-0.03775 -0.03846,-0.08515 -0.03125,-0.125 L 46.875,92.40625 C 60.203647,71.80212 72.102499,49.903847 79.09375,26.1875 a 0.99667096,0.99667096 0 0 0 0,-0.03125 c 1.738795,-6.371414 3.349006,-12.905728 3.6875,-19.625 a 0.99667096,0.99667096 0 0 0 0,-0.21875 C 82.650246,5.4024138 82.251251,4.6464912 81.6875,4.125 81.123749,3.6035088 80.41995,3.328068 79.75,3.1875 78.4101,2.906364 77.033691,3.0729983 76.0625,3.0625 l -5,0 -0.125,0 z M 45.34375,91.15625 c -8.63e-4,0.05156 -6.7e-5,0.125304 0,0.125 1.09e-4,-4.94e-4 -0.06271,0.187984 -0.0625,0.1875 1.67e-4,-3.88e-4 -0.03544,0.04541 -0.0625,0.09375 -3.53e-4,-0.0131 -4.72e-4,-0.01794 0,-0.03125 0.01055,-0.297702 0.145869,-0.394385 0.125,-0.375 z"
       inkscape:connector-curvature="0"
       id="path3791"
       style="opacity:0.05;fill:#000000;fill-opacity:1;stroke:none" />
    <path
       d="M 70.9375,4.0625 C 69.561358,3.9098009 67.64338,4.122369 67.46875,5.84375 68.245852,8.33469 67.278437,10.988668 66.967267,13.57104 62.912939,34.209923 53.353359,53.259673 43.032742,71.408095 39.571879,77.392297 35.934614,83.27377 32.15625,89.0625 30.815402,88.818553 29.016496,89.36544 29.0625,91 c -0.02185,2.805045 3.011235,3.147314 5.145916,2.9375 3.205199,-0.102334 6.453856,0.220542 9.628006,-0.189444 1.595357,-0.369499 3.158984,-2.342856 0.730577,-2.613395 C 43.561086,90.94288 47.038698,90.93918 46.03125,91.875 59.331716,71.314434 71.176901,49.489691 78.128518,25.907793 79.862667,19.553402 81.437958,13.060476 81.770064,6.4680064 81.34926,3.5446857 78.173087,4.0854399 76.050928,4.0625 c -1.704476,0 -3.408952,0 -5.113428,0 z M 46,91.875 c -0.181284,0.269625 0.127416,0.04491 0,0 z m -0.03125,-0.03125 c -0.09844,-0.685869 -1.462597,-0.609033 0,0 z"
       inkscape:connector-curvature="0"
       id="path3785"
       style="opacity:0.1;fill:#000000;fill-opacity:1;stroke:none" />
    <path
       d="M 70.96875,5.09375 69.375,5.125 a 0.91510565,0.91510565 0 0 0 -0.4375,1.6875 c 0.01103,0.1124606 0,0.25 0,0.25 C 66.033465,37.551869 42.158369,75.704933 32.75,90.09375 l -1.75,0 A 0.91510565,0.91510565 0 0 0 30.09375,91 c 0,1.045091 0.861159,1.90625 1.90625,1.90625 l 2,0 3,0 5.65625,0 c 1.297042,0 2.076051,-0.889524 2.375,-1.34375 3.1e-5,-4.6e-5 -0.0024,-0.02643 0,-0.03125 0.02994,-0.0455 0.09475,-0.141461 0.125,-0.1875 -3.4e-5,9.4e-5 -0.0021,-0.02416 0,-0.03125 C 54.314666,77.373173 77.717049,38.9943 80.75,7.28125 80.75095,7.2713206 80.749054,7.2599281 80.75,7.25 80.847604,6.4279518 80.445135,5.6737499 79.96875,5.375 79.485958,5.072232 79,5.09375 79,5.09375 l -8,0 a 0.91510565,0.91510565 0 0 0 -0.03125,0 z"
       id="path3781"
       style="opacity:0.15;fill:#000000;fill-opacity:1;stroke:none" />
    <path
       d="m 71,6 -1.59375,0.03125 c 0.54928,0.1155464 0.4375,1.125 0.4375,1.125 -2.951358,30.986211 -27.077752,69.321145 -36.4375,83.625 0,0 -0.04267,0.08983 -0.125,0.21875 L 31,91 c 0,0.554 0.446,1 1,1 l 2,0 3,0 5.65625,0 c 0.918035,0 1.383385,-0.570388 1.625,-0.9375 0.0043,-0.0064 -0.0043,-0.02487 0,-0.03125 C 53.337352,77.268209 76.847583,38.612905 79.84375,7.15625 80,6 79,6 79,6 l -8,0 z"
       inkscape:connector-curvature="0"
       id="path3771"
       style="opacity:0.3;fill:#000000;fill-opacity:1;stroke:none" />
    <path
       d="m 69.40625,5 c -0.236959,0 -0.437021,0.4303209 -0.5,1 l 1,0 c -0.06298,-0.5696791 -0.263041,-1 -0.5,-1 z"
       inkscape:connector-curvature="0"
       id="path3697"
       style="color:#000000;fill:#be5916;fill-opacity:1;fill-rule:nonzero;stroke:none;stroke-width:1;marker:none;visibility:visible;display:inline;overflow:visible;enable-background:accumulate" />
    <path
       d="m 31,90 c 0,0.554 0.446,1 1,1 l 5,0 c 0.554,0 1,-0.446 1,-1 l -7,0 z"
       inkscape:connector-curvature="0"
       id="rect3862"
       style="color:#000000;fill:#be5916;fill-opacity:1;fill-rule:nonzero;stroke:none;stroke-width:1;marker:none;visibility:visible;display:inline;overflow:visible;enable-background:accumulate" />
    <path
       d="M 71,5 69.39137,5.038298 C 69.94065,5.1538444 69.84375,6.15625 69.84375,6.15625 66.892392,37.142461 42.777158,75.486803 33.41741,89.790658 33.41741,89.790658 32.791753,91 32,91 c 1.414862,0 2,0 2,0 l 8.658998,0 c 0.918035,0 1.383385,-0.570388 1.625,-0.9375 0.0043,-0.0064 -0.0043,-0.02487 0,-0.03125 C 53.3401,76.268209 76.847583,37.612905 79.84375,6.15625 80,5 79,5 79,5 l -8,0 z"
       inkscape:connector-curvature="0"
       id="path3828"
       style="fill:url(#linearGradient3732);fill-opacity:1;stroke:none" />
    <path
       d="m 63.53125,32.21875 c -8.584553,23.857939 -23.2901,47.117195 -30.125,57.5625 0,0 -0.614497,1.21875 -1.40625,1.21875 l 2,0 8.65625,0 c 0.918035,0 1.383385,-0.570388 1.625,-0.9375 0.0043,-0.0064 -0.0043,-0.02487 0,-0.03125 C 50.925023,79.934354 65.355293,56.439125 73.75,32.21875 l -10.21875,0 z"
       inkscape:connector-curvature="0"
       id="path3734"
       style="opacity:0.5;fill:url(#linearGradient3747);fill-opacity:1;stroke:none" />
    <path
       d="m 71,5 -1.59375,0.03125 c 0.54928,0.1155464 0.4375,1.125 0.4375,1.125 -0.100052,1.0504418 -0.227703,2.1213691 -0.375,3.1875 l 10,0 c 0.145251,-1.0696432 0.274545,-2.1328314 0.375,-3.1875 C 80,5 79,5 79,5 l -8,0 z"
       inkscape:connector-curvature="0"
       id="path3794"
       style="opacity:0.6;fill:url(#linearGradient3807);fill-opacity:1;stroke:none" />
    <path
       d="m 71,5 -1.59375,0.03125 c 0.54928,0.1155464 0.4375,1.125 0.4375,1.125 -2.951358,30.986211 -27.077752,69.321145 -36.4375,83.625 0,0 -0.614497,1.21875 -1.40625,1.21875 l 2,0 8.65625,0 c 0.918035,0 1.383385,-0.570388 1.625,-0.9375 0.0043,-0.0064 -0.0043,-0.02487 0,-0.03125 C 53.337352,76.268209 76.847583,37.612905 79.84375,6.15625 80,5 79,5 79,5 l -8,0 z m -0.125,1.03125 0.125,0 0.03125,0 7.78125,0 a 1.0269543,1.0269543 0 0 0 0,0.03125 c -2.95562,31.03095 -26.355627,69.699028 -35.375,83.40625 -7.4e-5,1.1e-4 -0.01839,0.03708 -0.03125,0.0625 -0.162759,0.250677 -0.280483,0.4375 -0.75,0.4375 l -8.15625,0 c 9.502953,-14.540387 33.38816,-52.463764 36.375,-83.6875 9.46e-4,-0.00989 -9.42e-4,-0.02136 0,-0.03125 9.18e-4,-0.00723 -0.0038,-0.1671095 0,-0.21875 z"
       inkscape:connector-curvature="0"
       id="path3809"
       style="opacity:0.5;fill:url(#linearGradient3822);fill-opacity:1;stroke:none" />
  </g>
  <g
     id="layer7">
    <path
       d="m 43.75,3.03125 c -1.314462,-0.00486 -2.530127,0.1250918 -3.59375,0.03125 a 0.99264265,0.99264265 0 0 0 -0.09375,0 c -1.444304,2.548e-4 -2.89901,-3.444e-4 -4.34375,0 a 0.99264265,0.99264265 0 0 0 -0.3125,0.0625 c -0.533426,0.1795188 -0.998748,0.584446 -1.21875,1.03125 -0.220002,0.446804 -0.250097,0.8710175 -0.25,1.25 1.93e-4,0.757965 0.122242,1.4378909 0.09375,1.625 A 0.99264265,0.99264265 0 0 0 34.1875,7.75 c 2.025134,2.836727 4.201652,5.717188 5.9375,8.6875 10.37705,17.318185 18.104175,36.109115 25.0625,55.09375 a 0.99264265,0.99264265 0 0 0 0.125,0.21875 c 0.338811,0.477886 0.472037,0.841537 0.5,1 0.02796,0.158463 0.02072,0.09951 0,0.125 -0.04144,0.05098 -0.646997,0.338331 -1.625,0.4375 a 0.99264265,0.99264265 0 0 0 -0.21875,0.0625 c -1.363521,0.468447 -3.318931,0.434986 -5.0625,1.53125 A 0.99264265,0.99264265 0 0 0 58.78125,75 c -0.911152,0.827713 -1.098357,2.111056 -0.75,3.09375 0.325841,0.919176 1.090183,1.659591 2.09375,1.96875 l -0.03125,0.03125 c 5.995254,2.892392 11.977115,5.856128 18,8.71875 a 0.99264265,0.99264265 0 0 0 0.21875,0.0625 c 1.101617,0.265233 2.145093,-0.194328 2.78125,-0.875 0.595267,-0.63692 0.886812,-1.427199 1.03125,-2.21875 l 0.03125,0 c 0.01643,-0.04996 0.01481,-0.106288 0.03125,-0.15625 2.037707,-6.190989 4.220926,-12.347406 6.1875,-18.59375 a 0.99264265,0.99264265 0 0 0 0.0625,-0.1875 c 0.316007,-2.651661 -3.084165,-4.110355 -4.96875,-2.40625 l -0.03125,-0.0625 -3.5,2.25 C 73.110263,48.980564 65.50952,31.523309 55.75,15.21875 a 0.99264265,0.99264265 0 0 0 0,-0.03125 C 53.394509,11.476777 51.030864,7.6208779 48,4.25 A 0.99264265,0.99264265 0 0 0 47.8125,4.09375 C 46.520874,3.2100415 45.064481,3.0361124 43.75,3.03125 z"
       id="path3768"
       style="opacity:0.05;fill:#000000;fill-opacity:1;stroke:none" />
    <path
       d="m 35.71875,4.0625 c -1.286517,0.4329637 -0.580205,2.1253339 -0.732415,3.1248979 2.014694,2.8221041 4.197189,5.6969361 5.973148,8.7358851 10.427762,17.402818 18.186141,36.253429 25.153512,55.262744 1.560424,2.200945 0.301806,2.897588 -1.831054,3.113859 -1.586001,0.544882 -3.428557,0.559881 -4.844441,1.450114 -1.225046,1.112862 -0.396697,3.098803 1.096547,3.446711 6.001516,2.895413 11.984093,5.851563 17.997203,8.709539 1.520364,0.366054 2.490314,-1.109158 2.689031,-2.438471 C 83.276498,79.213712 85.461634,72.994608 87.4375,66.71875 87.657224,64.875012 85.185266,63.871332 83.969604,65.227575 82.469319,66.193383 80.969035,67.159192 79.46875,68.125 72.535561,50.11054 64.824177,32.295699 54.895168,15.707986 52.534602,11.989267 50.200148,8.1873572 47.25,4.90625 45.146747,3.4672403 42.454932,4.2744114 40.053083,4.0625 c -1.444696,2.549e-4 -2.890026,-3.443e-4 -4.334333,0 z"
       inkscape:connector-curvature="0"
       id="path3762"
       style="opacity:0.1;fill:#000000;fill-opacity:1;stroke:none" />
    <path
       d="m 36.25,5 c -0.603348,0 -1.10307,0.431809 -1.21875,1 l 4.9375,0 C 39.85307,5.431809 39.353348,5 38.75,5 l -2.5,0 z"
       inkscape:connector-curvature="0"
       id="rect3711"
       style="color:#000000;fill:#be5916;fill-opacity:1;fill-rule:nonzero;stroke:none;stroke-width:1;marker:none;visibility:visible;display:inline;overflow:visible;enable-background:accumulate" />
    <path
       d="m 35.90625,5 0,1 0,1 c 0.120619,-6.668e-4 0.05215,-0.014867 0.125,0.0625 0.07285,0.077367 0.184354,0.2398134 0.40625,0.53125 8.17138,10.732243 16.257153,27.691316 22.25,41.9375 5.582202,13.27 9.038294,23.316902 9.53125,24.75 L 60.5625,76.1875 a 0.99074072,0.99074072 0 0 0 -0.1875,1.875 l 18.1875,8.84375 a 0.99074072,0.99074072 0 0 0 1.375,-0.59375 l 6.5,-19.46875 A 0.99074072,0.99074072 0 0 0 84.96875,65.6875 l -5.9375,3.84375 C 78.449959,67.958781 74.94302,58.623438 69.40625,46.1875 63.386697,32.667199 55.40912,16.602944 47.3125,6.375 47.200049,6.2329482 46.408951,5 45,5 l -9.09375,0 z"
       id="path3758"
       style="opacity:0.15;fill:#000000;fill-opacity:1;stroke:none" />
    <path
       d="M 35.897883,6 C 36.69565,5.99559 36.964782,6.6664402 37.21875,7 53.787999,28.761956 69.545501,75 69.545501,75 L 60.818509,77.1515 79,86 85.514996,66.545501 78.536,71.043498 C 78.536,71.043498 62.490898,27.160806 46.53125,7 46.264038,6.6624484 45.931713,6 44.984778,6 l -9.086895,0 z"
       inkscape:connector-curvature="0"
       id="path3752"
       style="opacity:0.3;fill:#000000;fill-opacity:1;stroke:none" />
    <path
       d="M 35.897883,5 C 36.69565,4.99559 36.964782,5.6664402 37.21875,6 53.787999,27.761956 69.545501,74 69.545501,74 L 60.818509,76.1515 79,85 85.514996,65.545501 78.536,70.043498 C 78.536,70.043498 62.490898,26.160806 46.53125,6 46.264038,5.6624484 45.931713,5 44.984778,5 l -9.086895,0 z"
       inkscape:connector-curvature="0"
       id="path3830"
       style="fill:url(#linearGradient3724);fill-opacity:1;stroke:none" />
    <path
       d="m 35.90625,5 c 0.797767,-0.00441 1.058532,0.6664402 1.3125,1 1.362766,1.789849 2.719031,3.7621055 4.0625,5.84375 l 9.4375,0 C 49.324778,9.7496585 47.934874,7.7731081 46.53125,6 46.264038,5.6624484 45.946935,5 45,5 l -9.09375,0 z"
       inkscape:connector-curvature="0"
       id="path3824"
       style="opacity:0.6;fill:url(#linearGradient3831);fill-opacity:1;stroke:none" />
    <path
       d="m 35.90625,5 c 0.797767,-0.00441 1.058532,0.6664402 1.3125,1 16.569249,21.761956 32.3125,68 32.3125,68 L 60.8125,76.15625 79,85 l 6.5,-19.46875 -6.96875,4.5 c 0,0 -16.040352,-43.870444 -32,-64.03125 C 46.264038,5.6624484 45.946935,5 45,5 l -9.09375,0 z m 2.4375,0.96875 6.65625,0 c 0.499715,0 0.364233,0.09821 0.78125,0.625 7.866769,9.937587 15.852751,25.918833 21.84375,39.375 5.990999,13.456167 10,24.40625 10,24.40625 a 0.9590119,0.9590119 0 0 0 1.4375,0.46875 l 4.65625,-3 -5.28125,15.8125 -14.8125,-7.21875 6.125,-1.5 a 0.9590119,0.9590119 0 0 0 0.6875,-1.25 c 0,0 -3.948111,-11.593998 -9.96875,-25.90625 C 54.539191,33.685513 46.601124,17.003965 38.34375,5.96875 z"
       inkscape:connector-curvature="0"
       id="path3833"
       style="opacity:0.5;fill:url(#linearGradient3846);fill-opacity:1;stroke:none" />
    <path
       d="m 47.9375,15.0625 c 5.799954,9.932246 11.10121,21.371605 15.375,31.53125 6.064496,14.416509 10.03125,26.09375 10.03125,26.09375 A 4.0357629,4.0357629 0 0 1 72.0625,77.15625 L 76.625,79.375 78.40625,74.0625 A 4.0357629,4.0357629 0 0 1 74.75,71.40625 c 0,0 -3.960309,-10.832538 -9.90625,-24.1875 C 60.089592,36.540607 54.017689,24.406255 47.9375,15.0625 z"
       transform="translate(-3,1)"
       id="path3852"
       style="opacity:0.6;fill:url(#linearGradient3860);fill-opacity:1;stroke:none" />
  </g>
</svg>
