<?xml version="1.0" encoding="UTF-8" standalone="no"?>
<!-- Created with Inkscape (http://www.inkscape.org/) -->

<svg
   xmlns:dc="http://purl.org/dc/elements/1.1/"
   xmlns:cc="http://creativecommons.org/ns#"
   xmlns:rdf="http://www.w3.org/1999/02/22-rdf-syntax-ns#"
   xmlns:svg="http://www.w3.org/2000/svg"
   xmlns="http://www.w3.org/2000/svg"
   xmlns:xlink="http://www.w3.org/1999/xlink"
   xmlns:inkscape="http://www.inkscape.org/namespaces/inkscape"
   version="1.0"
   width="96"
   height="96"
   id="svg2408"
   style="display:inline">
  <defs
     id="defs2410">
    <linearGradient
       id="linearGradient3914">
      <stop
         id="stop3916"
         style="stop-color:#000000;stop-opacity:1"
         offset="0" />
      <stop
         id="stop3918"
         style="stop-color:#000000;stop-opacity:0"
         offset="1" />
    </linearGradient>
    <linearGradient
       id="linearGradient3873">
      <stop
         id="stop3875"
         style="stop-color:#dfdfdf;stop-opacity:1"
         offset="0" />
      <stop
         id="stop3877"
         style="stop-color:#fefefe;stop-opacity:1"
         offset="1" />
    </linearGradient>
    <linearGradient
       id="linearGradient3856">
      <stop
         id="stop3858"
         style="stop-color:#b3b3b3;stop-opacity:1"
         offset="0" />
      <stop
         id="stop3860"
         style="stop-color:#e6e6e6;stop-opacity:1"
         offset="1" />
    </linearGradient>
    <linearGradient
       x1="45.447727"
       y1="92.539597"
       x2="45.447727"
       y2="7.0165396"
       id="ButtonShadow"
       gradientUnits="userSpaceOnUse"
       gradientTransform="scale(1.0058652,0.994169)">
      <stop
         id="stop3750"
         style="stop-color:#000000;stop-opacity:1"
         offset="0" />
      <stop
         id="stop3752"
         style="stop-color:#000000;stop-opacity:0.58823532"
         offset="1" />
    </linearGradient>
    <linearGradient
       id="linearGradient3737">
      <stop
         id="stop3739"
         style="stop-color:#ffffff;stop-opacity:1"
         offset="0" />
      <stop
         id="stop3741"
         style="stop-color:#ffffff;stop-opacity:0"
         offset="1" />
    </linearGradient>
    <linearGradient
       id="linearGradient3700">
      <stop
         id="stop3702"
         style="stop-color:#2276c5;stop-opacity:1"
         offset="0" />
      <stop
         id="stop3704"
         style="stop-color:#68baf4;stop-opacity:1"
         offset="1" />
    </linearGradient>
    <filter
       color-interpolation-filters="sRGB"
       id="filter3174">
      <feGaussianBlur
         id="feGaussianBlur3176"
         stdDeviation="1.71" />
    </filter>
    <filter
       x="-0.192"
       y="-0.192"
       width="1.3839999"
       height="1.3839999"
       color-interpolation-filters="sRGB"
       id="filter3794">
      <feGaussianBlur
         id="feGaussianBlur3796"
         stdDeviation="5.28" />
    </filter>
    <linearGradient
       x1="48"
       y1="20.220806"
       x2="48"
       y2="138.66119"
       id="linearGradient3613"
       xlink:href="#linearGradient3737"
       gradientUnits="userSpaceOnUse" />
    <clipPath
       id="clipPath3613">
      <rect
         width="84"
         height="84"
         rx="6"
         ry="6"
         x="6"
         y="6"
         id="rect3615"
         style="fill:#ffffff;fill-opacity:1;fill-rule:nonzero;stroke:none" />
    </clipPath>
    <linearGradient
       x1="45.447727"
       y1="92.539597"
       x2="45.447727"
       y2="7.0165396"
       id="ButtonShadow-0"
       gradientUnits="userSpaceOnUse"
       gradientTransform="matrix(1.0058652,0,0,0.994169,100,0)">
      <stop
         id="stop3750-8"
         style="stop-color:#000000;stop-opacity:1"
         offset="0" />
      <stop
         id="stop3752-5"
         style="stop-color:#000000;stop-opacity:0.58823532"
         offset="1" />
    </linearGradient>
    <linearGradient
       x1="48"
       y1="90"
       x2="48"
       y2="5.9877172"
       id="linearGradient3047"
       xlink:href="#linearGradient3700"
       gradientUnits="userSpaceOnUse"
       gradientTransform="translate(100,0)" />
    <radialGradient
       cx="48"
       cy="90.171875"
       r="42"
       fx="48"
       fy="90.171875"
       id="radialGradient3879"
       xlink:href="#linearGradient3737"
       gradientUnits="userSpaceOnUse"
       gradientTransform="matrix(1.1573129,0,0,0.99590774,-7.551021,0.19713193)" />
    <linearGradient
       x1="36.357143"
       y1="6"
       x2="36.357143"
       y2="63.893143"
       id="linearGradient3885"
       xlink:href="#linearGradient3737"
       gradientUnits="userSpaceOnUse" />
    <linearGradient
       x1="32"
       y1="26"
       x2="32"
       y2="84"
       id="linearGradient3901"
       xlink:href="#linearGradient3737"
       gradientUnits="userSpaceOnUse"
       gradientTransform="translate(0,-20)" />
    <linearGradient
       x1="48"
       y1="80"
       x2="48"
       y2="16"
       id="linearGradient3879"
       xlink:href="#linearGradient3873"
       gradientUnits="userSpaceOnUse" />
    <radialGradient
       cx="47.999981"
       cy="47.999424"
       r="34.937546"
       fx="47.999981"
       fy="47.999424"
       id="radialGradient3920"
       xlink:href="#linearGradient3914"
       gradientUnits="userSpaceOnUse"
       gradientTransform="matrix(1.3452582,-3.8835319e-8,3.3050848e-8,1.1448837,-16.572388,-6.9543292)" />
    <linearGradient
       x1="49"
       y1="91"
       x2="49"
       y2="7"
       id="linearGradient3920"
       xlink:href="#ButtonShadow-0"
       gradientUnits="userSpaceOnUse" />
    <linearGradient
       x1="38"
       y1="94"
       x2="38"
       y2="5"
       id="linearGradient3927"
       xlink:href="#ButtonShadow-0"
       gradientUnits="userSpaceOnUse" />
    <linearGradient
       x1="45"
       y1="95"
       x2="45"
       y2="4"
       id="linearGradient3929"
       xlink:href="#ButtonShadow-0"
       gradientUnits="userSpaceOnUse" />
    <linearGradient
       x1="50"
       y1="92"
       x2="50"
       y2="7"
       id="linearGradient3933"
       xlink:href="#ButtonShadow-0"
       gradientUnits="userSpaceOnUse" />
    <linearGradient
       x1="47"
       y1="93"
       x2="47"
       y2="6"
       id="linearGradient3940"
       xlink:href="#ButtonShadow-0"
       gradientUnits="userSpaceOnUse" />
    <linearGradient
       x1="32"
       y1="88"
       x2="32"
       y2="8"
       id="linearGradient3949"
       xlink:href="#linearGradient3856"
       gradientUnits="userSpaceOnUse" />
    <linearGradient
       id="linearGradient10292">
      <stop
         id="stop10294"
         style="stop-color:#666666;stop-opacity:1"
         offset="0" />
      <stop
         id="stop10296"
         style="stop-color:#333333;stop-opacity:1"
         offset="1" />
    </linearGradient>
    <linearGradient
       x1="39"
       y1="6"
       x2="39"
       y2="90"
       id="linearGradient4240"
       xlink:href="#linearGradient10292"
       gradientUnits="userSpaceOnUse" />
    <linearGradient
       x1="121.30617"
       y1="976.37823"
       x2="121.30617"
       y2="992.4245"
       id="linearGradient4320"
       xlink:href="#linearGradient10292"
       gradientUnits="userSpaceOnUse"
       gradientTransform="matrix(4.4806049,0,0,4.4787412,-651.59679,-4376.6526)" />
  </defs>
  <metadata
     id="metadata2413">
    <rdf:RDF>
      <cc:Work
         rdf:about="">
        <dc:format>image/svg+xml</dc:format>
        <dc:type
           rdf:resource="http://purl.org/dc/dcmitype/StillImage" />
        <dc:title />
      </cc:Work>
    </rdf:RDF>
  </metadata>
  <g
     id="layer2"
     style="display:none">
    <rect
       width="86"
       height="85"
       rx="6"
       ry="6"
       x="5"
       y="7"
       id="rect3745"
       style="opacity:0.9;fill:url(#ButtonShadow);fill-opacity:1;fill-rule:nonzero;stroke:none;filter:url(#filter3174)" />
  </g>
  <g
     id="layer3"
     style="display:inline">
    <path
       d="m 55.1875,4.03125 c -1.586892,0.01273 -3.134804,0.183481 -4.5,0.0625 a 0.86417393,0.86417393 0 0 0 -0.0625,0 l -38.9375,0 C 8.2716585,4.107563 5.473011,6.1623581 3.78125,8.84375 2.6109645,10.698619 1.8591753,12.942397 2.125,15.28125 l -0.03125,0 c 0.020721,23.544327 -0.041587,47.076235 0.03125,70.625 a 0.86417393,0.86417393 0 0 0 0,0.0625 c 0.1299115,1.45786 0.6427828,2.791243 1.34375,3.96875 6.85e-5,1.54e-4 -0.021457,-0.07213 -0.03125,-0.125 0.029603,0.08798 0.0497,0.149646 0.0625,0.1875 0.00647,0.01101 0.022369,0.01648 0.03125,0.03125 0.00759,0.01244 0.023609,0.01885 0.03125,0.03125 a 0.86417393,0.86417393 0 0 0 0.0625,0.09375 c 0.01166,0.01455 0.021588,0.02031 0.03125,0.03125 0.0058,0.0066 -0.00442,0.02694 0,0.03125 0.00352,0.0055 0.027722,-0.0055 0.03125,0 A 0.86417393,0.86417393 0 0 0 3.71875,90.25 c 0.011239,0.009 0.021767,0.02426 0.03125,0.03125 1.9389671,2.960312 5.3597779,4.946004 9.03125,4.625 0.03167,-0.0028 0.06205,0.0031 0.09375,0 24.003862,-0.02052 48.023104,0.04148 72.03125,-0.03125 a 0.86417393,0.86417393 0 0 0 0.0625,0 c 5.232692,-0.424353 9.363638,-5.348882 8.9375,-10.625 -0.0026,-0.03164 0.0029,-0.06208 0,-0.09375 l 0,-43.8125 a 0.86417393,0.86417393 0 0 0 -0.0625,-0.25 c -0.719482,-2.375756 -2.289701,-4.166643 -3.96875,-5.75 -0.0898,-0.08468 -0.159649,-0.16622 -0.25,-0.25 2.217943,-0.09 4.345545,-1.878609 4.25,-4.3125 -9.6e-4,-0.02446 0.03266,-0.03792 0.03125,-0.0625 -0.07568,-5.673939 0.162469,-11.414428 -0.125,-17.15625 A 0.86417393,0.86417393 0 0 0 93.75,12.5 C 93.070926,7.1506619 87.741981,3.4448602 82.46875,4.125 l 0,-0.03125 -14.875,0 a 0.86417393,0.86417393 0 0 0 -0.03125,0 c -2.43157,0.09487 -3.933975,2.3671886 -3.875,4.5625 C 62.504539,7.5042584 61.346637,6.3316755 60.15625,5.1875 A 0.86417393,0.86417393 0 0 0 60,5.0625 C 58.447618,4.1717934 56.768571,4.018567 55.1875,4.03125 z M 3.4375,89.375 c -0.011805,0.08495 -0.021775,0.15025 -0.03125,0.21875 -0.00282,-0.01512 3.1e-6,-0.06256 0,-0.0625 -9.2e-6,1.78e-4 0.00988,-0.07797 0.03125,-0.15625 z"
       id="path3911"
       style="opacity:0.07999998;fill:url(#linearGradient3929);fill-opacity:1;fill-rule:nonzero;stroke:none;display:inline" />
    <path
       d="M 11.6875,4.96875 C 6.4320738,4.9900019 2.3031068,10.132553 2.96875,15.266643 2.9894728,38.813001 2.9271727,62.36079 3,85.90625 c 0.4299704,4.825107 5.0025873,8.594459 9.794564,8.125 C 36.831614,94.01049 60.870097,94.07281 84.90625,94 c 4.755149,-0.385626 8.563194,-4.946912 8.125,-9.759986 0,-14.632088 0,-29.264176 0,-43.896264 C 91.728005,36.040387 87.202419,33.703933 84.440281,30.319057 76.138245,22.167736 67.9524,13.888011 59.566795,5.8279386 56.861084,4.2754887 53.610624,5.2323964 50.635537,4.96875 c -12.982679,0 -25.965358,0 -38.948037,0 z m 55.90625,0 c -2.759174,0.107652 -4.215938,3.9181439 -2.21875,5.8125 7.428816,7.284428 14.759202,14.709293 22.25,21.90625 2.146989,1.600781 5.560459,-0.220208 5.40625,-2.90625 -0.0787,-5.72616 0.160862,-11.477784 -0.125,-17.1875 -0.617749,-4.866259 -5.593014,-8.3130421 -10.426221,-7.625 -4.962093,0 -9.924186,0 -14.886279,0 z M 4.625,9.21875 c -0.664712,0.7015826 -0.2455996,-0.1311819 0,0 z M 4.25,89.5625 c 0.89304,0.481702 0.1043481,0.183981 0,0 z"
       inkscape:connector-curvature="0"
       id="path3904"
       style="opacity:0.1;fill:url(#linearGradient3927);fill-opacity:1;fill-rule:nonzero;stroke:none;display:inline" />
    <path
       d="M 11.71875,6.03125 C 7.0438212,6.047274 3.382837,10.680844 4.03125,15.236607 4.052005,38.761706 3.989627,62.288403 4.0625,85.8125 c 0.078659,2.310955 1.9991295,4.959021 3.5,5.8125 3.325107,2.20027 7.499502,1.059932 11.244643,1.34375 22.001587,-0.02075 44.00477,0.04153 66.005357,-0.03125 4.47154,-0.328201 7.729294,-4.802826 7.15625,-9.174107 0,-14.431548 0,-28.863095 0,-43.294643 C 90.535443,36.513789 86.309334,34.277182 83.690911,31.069681 75.439736,22.954697 67.277988,14.740652 58.960052,6.6984925 56.476443,5.4412002 53.543774,6.2695111 50.848213,6.03125 c -13.043154,0 -26.086309,0 -39.129463,0 z m 55.96875,0 C 65.482309,6.1387888 64.721217,9.3040552 66.570543,10.472726 73.810408,17.569275 80.943755,24.798847 88.25,31.8125 c 1.836491,1.323197 4.248482,-0.713747 3.71875,-2.773214 -0.09408,-5.54138 0.194785,-11.109384 -0.15625,-16.633036 -0.734258,-4.2396168 -5.146244,-6.9445556 -9.296429,-6.375 -4.942857,0 -9.885714,0 -14.828571,0 z"
       inkscape:connector-curvature="0"
       id="path3899"
       style="opacity:0.2;fill:url(#linearGradient3940);fill-opacity:1;fill-rule:nonzero;stroke:none;display:inline" />
    <path
       d="M 11.75,7 C 7.583024,7.0345334 4.3996541,11.168998 5,15.209199 5.0208047,38.712157 4.9582988,62.216925 5.03125,85.71875 5.3364561,89.696377 9.3327694,92.534069 13.201039,92 37.040051,91.979239 60.880869,92.041565 84.71875,91.96875 88.713586,91.669436 91.528987,87.652989 91,83.790801 91,69.381366 91.000001,54.971934 91,40.5625 89.386953,36.967286 85.512207,34.783451 83.003988,31.757753 74.799549,23.676431 66.660482,15.52233 58.404232,7.4975015 56.103961,6.5121097 53.445902,7.209302 50.985253,7 37.906835,7 24.828418,7 11.75,7 z M 67.78125,7 C 66.19725,7.1218738 66.12199,9.3105912 67.422244,9.9475286 74.586688,16.971804 81.647538,24.122832 88.876465,31.06822 90.275165,31.815442 91.419825,30.129692 91,28.84514 90.905209,23.431422 91.196057,17.9873 90.84375,12.59375 90.211146,8.7986898 86.22346,6.4787721 82.548961,7 77.62639,7 72.70382,7 67.78125,7 z"
       inkscape:connector-curvature="0"
       id="path3883"
       style="opacity:0.3;fill:url(#linearGradient3933);fill-opacity:1;fill-rule:nonzero;stroke:none;display:inline" />
    <path
       d="M 12,7 C 8.676,7 6,9.676 6,13 l 0,11 0,50 0,11 c 0,3.324 2.676,6 6,6 l 7,0 65,0 c 3.324,0 6,-2.676 6,-6 L 90,84.28125 90,74 90,40.4375 c 0.0048,-0.09367 0.0048,-0.187581 0,-0.28125 -0.06619,-0.633386 -0.358634,-1.240774 -0.8125,-1.6875 C 79.651999,28.900035 68.083358,17.364608 58.53125,7.8125 58.076718,7.3522891 57.456623,7.0591531 56.8125,7 L 12.71875,7 12,7 z m 55.3125,0 a 1.4099078,1.4099078 0 0 0 -0.84375,2.40625 l 21.125,21.125 A 1.4099078,1.4099078 0 0 0 90,29.625 1.4099078,1.4099078 0 0 0 90,29.53125 L 90,17 90,13.28125 90,13 C 90,9.676 87.324,7 84,7 L 67.3125,7 z"
       inkscape:connector-curvature="0"
       id="path3873"
       style="opacity:0.45;fill:url(#linearGradient3920);fill-opacity:1;fill-rule:nonzero;stroke:none;display:inline" />
  </g>
  <g
     id="layer1"
     style="display:inline">
    <path
       d="M 12,6 C 8.676,6 6,8.676 6,12 l 0,11 0,50 0,11 c 0,3.324 2.676,6 6,6 l 7,0 65,0 c 3.324,0 6,-2.676 6,-6 L 90,83.28125 90,73 90,39.4375 c 0.0048,-0.09367 0.0048,-0.187581 0,-0.28125 -0.06619,-0.633386 -0.358634,-1.240774 -0.8125,-1.6875 C 79.651999,27.900035 68.083358,16.364608 58.53125,6.8125 58.076718,6.3522891 57.456623,6.0591531 56.8125,6 L 12.71875,6 12,6 z m 55.3125,0 a 1.4099078,1.4099078 0 0 0 -0.84375,2.40625 l 21.125,21.125 A 1.4099078,1.4099078 0 0 0 90,28.625 1.4099078,1.4099078 0 0 0 90,28.53125 L 90,16 90,12.28125 90,12 C 90,8.676 87.324,6 84,6 L 67.3125,6 z"
       inkscape:connector-curvature="0"
       id="path3054"
       style="fill:url(#linearGradient4240);fill-opacity:1;fill-rule:nonzero;stroke:none" />
    <path
       d="M 10.15625,6.34375 C 9.854723,6.440553 9.559795,6.547888 9.28125,6.6875 8.72416,6.966724 8.221197,7.353194 7.78125,7.78125 7.561276,7.995278 7.371884,8.223115 7.1875,8.46875 7.003116,8.714385 6.832092,8.976493 6.6875,9.25 6.573695,9.4652707 6.465683,9.6801347 6.375,9.90625 6.35403,9.958535 6.33107,10.008455 6.3125,10.0625 c -0.01036,0.03015 -0.02135,0.06337 -0.03125,0.09375 -0.006,0.01873 0.0058,0.04369 0,0.0625 -0.02154,0.07131 -0.04532,0.145178 -0.0625,0.21875 -0.04593,0.196664 -0.09198,0.393321 -0.125,0.59375 C 6.04135,11.3493 6,11.665279 6,12 l 0,2 0,9 0,50 0,9 0,2 c 0,3.324 2.676,6 6,6 l 7,0 65,0 c 3.324,0 6,-2.676 6,-6 L 90,83.28125 90,82 90,73 90,37.4375 a 2.772031,2.772031 0 0 0 0,-0.28125 2.772031,2.772031 0 0 0 -0.8125,-1.6875 L 89,35.28125 89,81 l 0,2 c 0,2.781848 -2.218152,5 -5,5 l -2,0 -68,0 -2,0 C 9.218152,88 7,85.781848 7,83 L 7,81 7,13 7,11 C 7,10.635705 7.05212,10.279012 7.125,9.9375 7.14836,9.828031 7.18842,9.731618 7.21875,9.625 7.24545,9.530581 7.24943,9.4357 7.28125,9.34375 7.28895,9.3218 7.3045,9.30306 7.3125,9.28125 7.38808,9.071951 7.492742,8.850956 7.59375,8.65625 7.65102,8.548267 7.71649,8.446782 7.78125,8.34375 7.8053,8.30462 7.81866,8.25713 7.84375,8.21875 7.93786,8.077785 8.048671,7.942755 8.15625,7.8125 c 0.15254,-0.185862 0.32207,-0.369817 0.5,-0.53125 0.09922,-0.088888 0.206327,-0.1692 0.3125,-0.25 0.112727,-0.086487 0.223355,-0.1733 0.34375,-0.25 0.03146,-0.01999 0.06182,-0.0432 0.09375,-0.0625 0.0074,-0.0045 0.02385,0.0044 0.03125,0 0.232039,-0.138728 0.462548,-0.274778 0.71875,-0.375 z"
       inkscape:connector-curvature="0"
       id="path3615"
       style="opacity:0.15;fill:url(#radialGradient3879);fill-opacity:1;fill-rule:nonzero;stroke:none" />
    <rect
       width="84"
       height="84"
       rx="6"
       ry="6"
       x="106"
       y="6"
       id="rect3045"
       style="fill:url(#linearGradient3047);fill-opacity:1;fill-rule:nonzero;stroke:none" />
    <path
       d="m 114,6 26,26 0,4 -30,-30 z"
       inkscape:connector-curvature="0"
       id="path3049"
       style="fill:#ff00ff;stroke:none" />
    <path
       d="m 67.3125,6 a 1.4099078,1.4099078 0 0 0 -1.125,2 L 82,8 84,8 c 2.781848,0 5,2.218152 5,5 l 0,2 0,14.875 a 1.4099078,1.4099078 0 0 0 1,-1.125 1.4099078,1.4099078 0 0 0 0,-0.125 1.4099078,1.4099078 0 0 0 0,-0.09375 L 90,16 90,14 90,12.28125 90,12 C 90,8.676 87.324,6 84,6 L 67.3125,6 z"
       inkscape:connector-curvature="0"
       id="path3881"
       style="opacity:0.2;fill:url(#linearGradient3885);fill-opacity:1;fill-rule:nonzero;stroke:none" />
    <path
       d="M 12,6 C 8.676,6 6,8.676 6,12 l 0,11 0,50 0,11 c 0,2.9085 2.042227,5.31735 4.78125,5.875 C 8.576134,89.33879 6.96875,87.38416 6.96875,85 l 0,-11 0,-50 0,-11 C 6.96875,10.19511 9.19511,7.96875 12,7.96875 l 0.71875,0 44,0 0.09375,0 C 56.82355,7.97055 56.82959,7.99178 56.875,8 c 0.107322,0.01943 0.05104,0.0025 0.15625,0.03125 0.105213,0.02873 0.05395,-0.0066 0.15625,0.03125 0.1023,0.03782 0.05765,0.01589 0.15625,0.0625 0.0986,0.04661 0.03085,0.0074 0.125,0.0625 0.09415,0.05505 0.03602,0.03068 0.125,0.09375 0.08898,0.06307 0.04187,0.02315 0.125,0.09375 0.08313,0.0706 0.04836,0.0474 0.125,0.125 9.568715,9.535501 21.104142,21.104142 30.65625,30.65625 0.07653,0.07532 0.05524,0.04337 0.125,0.125 0.06976,0.08163 0.03127,0.03767 0.09375,0.125 0.06248,0.08733 0.0078,0.03262 0.0625,0.125 0.05473,0.09238 0.04717,0.02825 0.09375,0.125 0.04658,0.09675 0.02441,0.05585 0.0625,0.15625 0.03809,0.100399 0.0019,0.0217 0.03125,0.125 0.02931,0.103304 0.01094,0.05081 0.03125,0.15625 0.0164,0.08517 0.02694,0.08025 0.03125,0.125 0.0011,0.02106 -3.44e-4,0.02472 0,0.03125 6.89e-4,0.01307 0,0.02033 0,0.0625 0,0.06326 0.0032,-6.76e-4 0,0.0625 -6.73e-4,0.02083 -6.73e-4,0.04167 0,0.0625 l 0,33.5625 0,10.28125 0,0.71875 c 0,2.38416 -1.607383,4.33879 -3.8125,4.875 C 87.957773,89.31735 90,86.9085 90,84 L 90,83.28125 90,73 90,39.4375 c 0.0048,-0.09367 0.0048,-0.187581 0,-0.28125 -0.06619,-0.633386 -0.358634,-1.240774 -0.8125,-1.6875 C 79.651999,27.900035 68.083358,16.364608 58.53125,6.8125 58.076718,6.3522891 57.456623,6.0591531 56.8125,6 L 12.71875,6 z"
       inkscape:connector-curvature="0"
       id="path3888"
       style="opacity:0.2;fill:url(#linearGradient3901);fill-opacity:1;fill-rule:nonzero;stroke:none" />
    <path
       d="m -152.02625,-3.741835 c -1.15757,0 -2.22285,1.023711 -2.22285,2.266604 l 0,67.201748 c 0,1.08285 1.01251,2.22285 2.17034,2.22285 l 53.7684,0 c 1.29579,0 2.31036,-1.08534 2.31036,-2.17034 L -96,24 c 0,-1.182972 -0.1434,-1.736346 -0.98015,-2.572902 l -23.89999,-23.882482 c -0.83684,-0.836446 -1.47695,-1.268027 -2.66041,-1.268948 l -28.4857,-0.0175 z m 38.88232,0.0087 c -1.91483,0 -2.00143,1.993315 -0.9889,3.01047 L -99.238,14.242173 C -98.023,15.46268 -96,15.169532 -96,13.244531 l 0,-14.684794 c 0,-1.183644 -1.07142,-2.292858 -2.2491,-2.292858 l -14.89483,0 z"
       inkscape:connector-curvature="0"
       id="path6862"
       style="font-size:medium;font-style:normal;font-variant:normal;font-weight:normal;font-stretch:normal;text-indent:0pt;text-align:start;text-decoration:none;line-height:normal;letter-spacing:normal;word-spacing:normal;text-transform:none;direction:ltr;text-anchor:start;color:#000000;fill:url(#linearGradient4320);fill-opacity:1;stroke:none;stroke-width:2;marker:none;visibility:visible;display:inline;overflow:visible;font-family:Andale Mono" />
  </g>
  <g
     id="layer6"
     style="display:inline">
    <path
       d="m 14,12.03125 c -1.155927,0 -1.96875,0.812823 -1.96875,1.96875 l 0,9 0,33 0,17 0,8.28125 0,0.71875 c 0,1.077732 0.717552,1.836973 1.75,1.9375 0.07491,0.0073 0.140555,0.03125 0.21875,0.03125 l 5,0 58,0 5,0 c 0.07224,0 0.1493,-0.0086 0.21875,-0.03125 1.032448,-0.100527 1.75,-0.859768 1.75,-1.9375 l 0,-0.71875 0,-8.28125 0,-17 0,-16.0625 C 74.652678,30.64918 65.364507,21.333257 56.0625,12.03125 l -41.34375,0 -0.71875,0 z"
       inkscape:connector-curvature="0"
       id="path3846"
       style="fill:url(#linearGradient3949);fill-opacity:1;fill-rule:nonzero;stroke:none;display:inline" />
    <path
       d="M 17.90625,17.0625 C 17.446299,17.10552 17.057,17.538075 17.0625,18 l 0,9 0,42 0,9 c -0.0037,0.491884 0.445616,0.941233 0.9375,0.9375 l 5,0 55,0 C 78.491884,78.9412 78.941233,78.491884 78.9375,78 l 0,-9 0,-27.40625 C 78.9348,41.349509 78.83124,41.10791 78.65625,40.9375 L 55.0625,17.34375 C 54.89209,17.16876 54.650491,17.065218 54.40625,17.0625 L 18,17.0625 c -0.03122,-0.0016 -0.06253,-0.0016 -0.09375,0 z"
       inkscape:connector-curvature="0"
       id="path3910"
       style="opacity:0.6;fill:url(#radialGradient3920);fill-opacity:1;fill-rule:nonzero;stroke:none;display:inline" />
    <path
       d="m 18,18 0,9 0,42 0,9 5,0 55,0 0,-9 L 78,41.59375 54.40625,18 z"
       inkscape:connector-curvature="0"
       id="path3868"
       style="fill:url(#linearGradient3879);fill-opacity:1;fill-rule:nonzero;stroke:none;display:inline" />
    <path
       d="m 18,18 0,9 0,42 0,9 5,0 55,0 0,-9 L 78,41.59375 54.40625,18 z m 1,1 35.03125,0 L 77,41.96875 77,69 l 0,8 -54,0 -4,0 0,-8 0,-42 z"
       inkscape:connector-curvature="0"
       id="path3882"
       style="opacity:0.7;fill:#ffffff;fill-opacity:1;fill-rule:nonzero;stroke:none;display:inline" />
    <path
       d="m 14,12.03125 c -1.155927,0 -1.96875,0.812823 -1.96875,1.96875 l 0,9 0,33 0,17 0,8.28125 0,0.71875 c 0,1.077732 0.717552,1.836973 1.75,1.9375 0.07491,0.0073 0.140555,0.03125 0.21875,0.03125 l 5,0 58,0 5,0 c 0.07224,0 0.1493,-0.0086 0.21875,-0.03125 1.032448,-0.100527 1.75,-0.859768 1.75,-1.9375 l 0,-0.71875 0,-8.28125 0,-17 0,-16.0625 C 74.652678,30.64918 65.364507,21.333257 56.0625,12.03125 l -41.34375,0 -0.71875,0 z M 14,13 l 0.71875,0 40.9375,0 C 64.769843,22.114133 73.870942,31.240801 83,40.34375 L 83,56 83,73 83,81.28125 83,82 c 0,0.648416 -0.267049,0.909555 -0.875,0.96875 A 0.96731774,0.96731774 0 0 0 82,83 l -5,0 -58,0 -5,0 c 0.119302,0 0.09888,-0.0094 -0.125,-0.03125 C 13.267049,82.909555 13,82.648416 13,82 L 13,81.28125 13,73 13,56 13,23 13,14 c 0,-0.702508 0.297492,-1 1,-1 z"
       inkscape:connector-curvature="0"
       id="path3952"
       style="opacity:0.1;fill:#000000;fill-opacity:1;fill-rule:nonzero;stroke:none;display:inline" />
    <path
       d="m 14,12.03125 c -1.155927,0 -1.96875,0.812823 -1.96875,1.96875 l 0,1 c 0,-1.155927 0.812823,-1.96875 1.96875,-1.96875 l 0.71875,0 41.34375,0 c 9.302007,9.302007 18.590178,18.61793 27.90625,27.90625 l 0,-1 C 74.652678,30.64918 65.364507,21.333257 56.0625,12.03125 l -41.34375,0 -0.71875,0 z"
       inkscape:connector-curvature="0"
       id="path3851"
       style="opacity:0.2;fill:#000000;fill-opacity:1;fill-rule:nonzero;stroke:none;display:inline" />
    <path
       d="m 14,12.03125 c -1.155927,0 -1.96875,0.812823 -1.96875,1.96875 l 0,9 0,33 0,17 0,8.28125 0,0.71875 c 0,1.077732 0.717552,1.836973 1.75,1.9375 0.07491,0.0073 0.140555,0.03125 0.21875,0.03125 l 5,0 58,0 5,0 c 0.07224,0 0.1493,-0.0086 0.21875,-0.03125 1.032448,-0.100527 1.75,-0.859768 1.75,-1.9375 l 0,-0.71875 0,-8.28125 0,-17 0,-16.0625 C 74.652678,30.64918 65.364507,21.333257 56.0625,12.03125 l -41.34375,0 -0.71875,0 z"
       inkscape:connector-curvature="0"
       id="path3982"
       style="fill:url(#linearGradient3949);fill-opacity:1;fill-rule:nonzero;stroke:none;display:inline" />
    <path
       d="M 17.90625,17.0625 C 17.446299,17.10552 17.057,17.538075 17.0625,18 l 0,9 0,42 0,9 c -0.0037,0.491884 0.445616,0.941233 0.9375,0.9375 l 5,0 55,0 C 78.491884,78.9412 78.941233,78.491884 78.9375,78 l 0,-9 0,-27.40625 C 78.9348,41.349509 78.83124,41.10791 78.65625,40.9375 L 55.0625,17.34375 C 54.89209,17.16876 54.650491,17.065218 54.40625,17.0625 L 18,17.0625 c -0.03122,-0.0016 -0.06253,-0.0016 -0.09375,0 z"
       inkscape:connector-curvature="0"
       id="path3984"
       style="opacity:0.6;fill:url(#radialGradient3920);fill-opacity:1;fill-rule:nonzero;stroke:none;display:inline" />
    <path
       d="m 18,18 0,9 0,42 0,9 5,0 55,0 0,-9 L 78,41.59375 54.40625,18 z"
       inkscape:connector-curvature="0"
       id="path3986"
       style="fill:url(#linearGradient3879);fill-opacity:1;fill-rule:nonzero;stroke:none;display:inline" />
    <path
       d="m 18,18 0,9 0,42 0,9 5,0 55,0 0,-9 L 78,41.59375 54.40625,18 z m 1,1 35.03125,0 L 77,41.96875 77,69 l 0,8 -54,0 -4,0 0,-8 0,-42 z"
       inkscape:connector-curvature="0"
       id="path3988"
       style="opacity:0.7;fill:#ffffff;fill-opacity:1;fill-rule:nonzero;stroke:none;display:inline" />
    <path
       d="m 14,12.03125 c -1.155927,0 -1.96875,0.812823 -1.96875,1.96875 l 0,9 0,33 0,17 0,8.28125 0,0.71875 c 0,1.077732 0.717552,1.836973 1.75,1.9375 0.07491,0.0073 0.140555,0.03125 0.21875,0.03125 l 5,0 58,0 5,0 c 0.07224,0 0.1493,-0.0086 0.21875,-0.03125 1.032448,-0.100527 1.75,-0.859768 1.75,-1.9375 l 0,-0.71875 0,-8.28125 0,-17 0,-16.0625 C 74.652678,30.64918 65.364507,21.333257 56.0625,12.03125 l -41.34375,0 -0.71875,0 z M 14,13 l 0.71875,0 40.9375,0 C 64.769843,22.114133 73.870942,31.240801 83,40.34375 L 83,56 83,73 83,81.28125 83,82 c 0,0.648416 -0.267049,0.909555 -0.875,0.96875 A 0.96731774,0.96731774 0 0 0 82,83 l -5,0 -58,0 -5,0 c 0.119302,0 0.09888,-0.0094 -0.125,-0.03125 C 13.267049,82.909555 13,82.648416 13,82 L 13,81.28125 13,73 13,56 13,23 13,14 c 0,-0.702508 0.297492,-1 1,-1 z"
       inkscape:connector-curvature="0"
       id="path3990"
       style="opacity:0.1;fill:#000000;fill-opacity:1;fill-rule:nonzero;stroke:none;display:inline" />
    <path
       d="m 14,12.03125 c -1.155927,0 -1.96875,0.812823 -1.96875,1.96875 l 0,1 c 0,-1.155927 0.812823,-1.96875 1.96875,-1.96875 l 0.71875,0 41.34375,0 c 9.302007,9.302007 18.590178,18.61793 27.90625,27.90625 l 0,-1 C 74.652678,30.64918 65.364507,21.333257 56.0625,12.03125 l -41.34375,0 -0.71875,0 z"
       inkscape:connector-curvature="0"
       id="path3992"
       style="opacity:0.2;fill:#000000;fill-opacity:1;fill-rule:nonzero;stroke:none;display:inline" />
    <path
       d="m 14,12.03125 c -1.155927,0 -1.96875,0.812823 -1.96875,1.96875 l 0,9 0,33 0,17 0,8.28125 0,0.71875 c 0,1.077732 0.717552,1.836973 1.75,1.9375 0.07491,0.0073 0.140555,0.03125 0.21875,0.03125 l 5,0 58,0 5,0 c 0.07224,0 0.1493,-0.0086 0.21875,-0.03125 1.032448,-0.100527 1.75,-0.859768 1.75,-1.9375 l 0,-0.71875 0,-8.28125 0,-17 0,-16.0625 C 74.652678,30.64918 65.364507,21.333257 56.0625,12.03125 l -41.34375,0 -0.71875,0 z"
       inkscape:connector-curvature="0"
       id="path3994"
       style="fill:url(#linearGradient3949);fill-opacity:1;fill-rule:nonzero;stroke:none;display:inline" />
    <path
       d="M 17.90625,17.0625 C 17.446299,17.10552 17.057,17.538075 17.0625,18 l 0,9 0,42 0,9 c -0.0037,0.491884 0.445616,0.941233 0.9375,0.9375 l 5,0 55,0 C 78.491884,78.9412 78.941233,78.491884 78.9375,78 l 0,-9 0,-27.40625 C 78.9348,41.349509 78.83124,41.10791 78.65625,40.9375 L 55.0625,17.34375 C 54.89209,17.16876 54.650491,17.065218 54.40625,17.0625 L 18,17.0625 c -0.03122,-0.0016 -0.06253,-0.0016 -0.09375,0 z"
       inkscape:connector-curvature="0"
       id="path3996"
       style="opacity:0.6;fill:url(#radialGradient3920);fill-opacity:1;fill-rule:nonzero;stroke:none;display:inline" />
    <path
       d="m 18,18 0,9 0,42 0,9 5,0 55,0 0,-9 L 78,41.59375 54.40625,18 z"
       inkscape:connector-curvature="0"
       id="path3998"
       style="fill:url(#linearGradient3879);fill-opacity:1;fill-rule:nonzero;stroke:none;display:inline" />
    <path
       d="m 18,18 0,9 0,42 0,9 5,0 55,0 0,-9 L 78,41.59375 54.40625,18 z m 1,1 35.03125,0 L 77,41.96875 77,69 l 0,8 -54,0 -4,0 0,-8 0,-42 z"
       inkscape:connector-curvature="0"
       id="path4000"
       style="opacity:0.7;fill:#ffffff;fill-opacity:1;fill-rule:nonzero;stroke:none;display:inline" />
    <path
       d="m 14,12.03125 c -1.155927,0 -1.96875,0.812823 -1.96875,1.96875 l 0,9 0,33 0,17 0,8.28125 0,0.71875 c 0,1.077732 0.717552,1.836973 1.75,1.9375 0.07491,0.0073 0.140555,0.03125 0.21875,0.03125 l 5,0 58,0 5,0 c 0.07224,0 0.1493,-0.0086 0.21875,-0.03125 1.032448,-0.100527 1.75,-0.859768 1.75,-1.9375 l 0,-0.71875 0,-8.28125 0,-17 0,-16.0625 C 74.652678,30.64918 65.364507,21.333257 56.0625,12.03125 l -41.34375,0 -0.71875,0 z M 14,13 l 0.71875,0 40.9375,0 C 64.769843,22.114133 73.870942,31.240801 83,40.34375 L 83,56 83,73 83,81.28125 83,82 c 0,0.648416 -0.267049,0.909555 -0.875,0.96875 A 0.96731774,0.96731774 0 0 0 82,83 l -5,0 -58,0 -5,0 c 0.119302,0 0.09888,-0.0094 -0.125,-0.03125 C 13.267049,82.909555 13,82.648416 13,82 L 13,81.28125 13,73 13,56 13,23 13,14 c 0,-0.702508 0.297492,-1 1,-1 z"
       inkscape:connector-curvature="0"
       id="path4002"
       style="opacity:0.1;fill:#000000;fill-opacity:1;fill-rule:nonzero;stroke:none;display:inline" />
    <path
       d="m 14,12.03125 c -1.155927,0 -1.96875,0.812823 -1.96875,1.96875 l 0,1 c 0,-1.155927 0.812823,-1.96875 1.96875,-1.96875 l 0.71875,0 41.34375,0 c 9.302007,9.302007 18.590178,18.61793 27.90625,27.90625 l 0,-1 C 74.652678,30.64918 65.364507,21.333257 56.0625,12.03125 l -41.34375,0 -0.71875,0 z"
       inkscape:connector-curvature="0"
       id="path4004"
       style="opacity:0.2;fill:#000000;fill-opacity:1;fill-rule:nonzero;stroke:none;display:inline" />
  </g>
  <g
     id="layer5"
     style="display:none">
    <rect
       width="66"
       height="66"
       rx="12"
       ry="12"
       x="15"
       y="15"
       clip-path="url(#clipPath3613)"
       id="rect3171"
       style="opacity:0.1;fill:url(#linearGradient3613);fill-opacity:1;fill-rule:nonzero;stroke:#ffffff;stroke-width:0.5;stroke-linecap:round;stroke-linejoin:miter;stroke-miterlimit:4;stroke-opacity:1;stroke-dasharray:none;stroke-dashoffset:0;filter:url(#filter3794)" />
  </g>
</svg>
