<?xml version="1.0" encoding="UTF-8" standalone="no"?>
<!-- Created with Inkscape (http://www.inkscape.org/) -->

<svg
   xmlns:dc="http://purl.org/dc/elements/1.1/"
   xmlns:cc="http://creativecommons.org/ns#"
   xmlns:rdf="http://www.w3.org/1999/02/22-rdf-syntax-ns#"
   xmlns:svg="http://www.w3.org/2000/svg"
   xmlns="http://www.w3.org/2000/svg"
   xmlns:xlink="http://www.w3.org/1999/xlink"
   xmlns:inkscape="http://www.inkscape.org/namespaces/inkscape"
   version="1.0"
   width="96"
   height="96"
   id="svg2408"
   style="display:inline">
  <defs
     id="defs2410">
    <linearGradient
       id="linearGradient3958">
      <stop
         id="stop3960"
         style="stop-color:#01a3f1;stop-opacity:1"
         offset="0" />
      <stop
         id="stop3962"
         style="stop-color:#01a3f1;stop-opacity:0"
         offset="1" />
    </linearGradient>
    <linearGradient
       id="linearGradient3934">
      <stop
         id="stop3936"
         style="stop-color:#003d9e;stop-opacity:1"
         offset="0" />
      <stop
         id="stop3938"
         style="stop-color:#003d9e;stop-opacity:0"
         offset="1" />
    </linearGradient>
    <linearGradient
       id="linearGradient3894">
      <stop
         id="stop3896"
         style="stop-color:#93ddf7;stop-opacity:1"
         offset="0" />
      <stop
         id="stop3898"
         style="stop-color:#93ddf7;stop-opacity:0"
         offset="1" />
    </linearGradient>
    <linearGradient
       id="linearGradient3879">
      <stop
         id="stop3881"
         style="stop-color:#002767;stop-opacity:1"
         offset="0" />
      <stop
         id="stop3883"
         style="stop-color:#003180;stop-opacity:0.36434108"
         offset="0.5" />
      <stop
         id="stop3885"
         style="stop-color:#002767;stop-opacity:0"
         offset="1" />
    </linearGradient>
    <linearGradient
       id="linearGradient3860">
      <stop
         id="stop3862"
         style="stop-color:#002767;stop-opacity:1"
         offset="0" />
      <stop
         id="stop3868"
         style="stop-color:#003180;stop-opacity:0.36434108"
         offset="0.5" />
      <stop
         id="stop3864"
         style="stop-color:#002767;stop-opacity:0"
         offset="1" />
    </linearGradient>
    <linearGradient
       id="linearGradient3828">
      <stop
         id="stop3830"
         style="stop-color:#a2d7fb;stop-opacity:1"
         offset="0" />
      <stop
         id="stop3832"
         style="stop-color:#a2d7fb;stop-opacity:0"
         offset="1" />
    </linearGradient>
    <linearGradient
       id="linearGradient3816">
      <stop
         id="stop3818"
         style="stop-color:#51acff;stop-opacity:1"
         offset="0" />
      <stop
         id="stop3824"
         style="stop-color:#6abaee;stop-opacity:0.67450982"
         offset="0.5" />
      <stop
         id="stop3820"
         style="stop-color:#318fe4;stop-opacity:0"
         offset="1" />
    </linearGradient>
    <linearGradient
       id="linearGradient3798">
      <stop
         id="stop3800"
         style="stop-color:#0a85ff;stop-opacity:1"
         offset="0" />
      <stop
         id="stop3802"
         style="stop-color:#006ad3;stop-opacity:0"
         offset="1" />
    </linearGradient>
    <linearGradient
       id="linearGradient4640">
      <stop
         id="stop4642"
         style="stop-color:#000000;stop-opacity:0"
         offset="0" />
      <stop
         id="stop4648"
         style="stop-color:#000000;stop-opacity:0"
         offset="0.93000001" />
      <stop
         id="stop4644"
         style="stop-color:#000000;stop-opacity:1"
         offset="1" />
    </linearGradient>
    <linearGradient
       id="linearGradient4578">
      <stop
         id="stop4580"
         style="stop-color:#a0a0a0;stop-opacity:0.5411765"
         offset="0" />
      <stop
         id="stop4582"
         style="stop-color:#a0a0a0;stop-opacity:0.34509805"
         offset="1" />
    </linearGradient>
    <linearGradient
       id="linearGradient4235">
      <stop
         id="stop4237"
         style="stop-color:#ffffff;stop-opacity:0"
         offset="0" />
      <stop
         id="stop4245"
         style="stop-color:#ffffff;stop-opacity:0"
         offset="0.25" />
      <stop
         id="stop4243"
         style="stop-color:#ffffff;stop-opacity:0.70161289"
         offset="0.5" />
      <stop
         id="stop4247"
         style="stop-color:#ffffff;stop-opacity:0"
         offset="0.75" />
      <stop
         id="stop4239"
         style="stop-color:#ffffff;stop-opacity:0"
         offset="1" />
    </linearGradient>
    <linearGradient
       x1="45.447727"
       y1="92.539597"
       x2="45.447727"
       y2="7.0165396"
       id="ButtonShadow"
       gradientUnits="userSpaceOnUse"
       gradientTransform="scale(1.0058652,0.994169)">
      <stop
         id="stop3750"
         style="stop-color:#000000;stop-opacity:1"
         offset="0" />
      <stop
         id="stop3752"
         style="stop-color:#000000;stop-opacity:0.58823532"
         offset="1" />
    </linearGradient>
    <linearGradient
       id="linearGradient3737">
      <stop
         id="stop3739"
         style="stop-color:#ffffff;stop-opacity:1"
         offset="0" />
      <stop
         id="stop3741"
         style="stop-color:#ffffff;stop-opacity:0"
         offset="1" />
    </linearGradient>
    <linearGradient
       id="linearGradient3700">
      <stop
         id="stop3702"
         style="stop-color:#ffffff;stop-opacity:0"
         offset="0" />
      <stop
         id="stop3704"
         style="stop-color:#ffffff;stop-opacity:0.23387097"
         offset="1" />
    </linearGradient>
    <filter
       color-interpolation-filters="sRGB"
       id="filter3174">
      <feGaussianBlur
         id="feGaussianBlur3176"
         stdDeviation="1.71" />
    </filter>
    <linearGradient
       x1="36.357143"
       y1="6"
       x2="36.357143"
       y2="63.893143"
       id="linearGradient3188"
       xlink:href="#linearGradient3737"
       gradientUnits="userSpaceOnUse" />
    <filter
       x="-0.192"
       y="-0.192"
       width="1.3839999"
       height="1.3839999"
       color-interpolation-filters="sRGB"
       id="filter3794">
      <feGaussianBlur
         id="feGaussianBlur3796"
         stdDeviation="5.28" />
    </filter>
    <linearGradient
       x1="48"
       y1="20.220806"
       x2="48"
       y2="138.66119"
       id="linearGradient3613"
       xlink:href="#linearGradient3737"
       gradientUnits="userSpaceOnUse" />
    <radialGradient
       cx="48"
       cy="90.171875"
       r="42"
       fx="48"
       fy="90.171875"
       id="radialGradient3619"
       xlink:href="#linearGradient3737"
       gradientUnits="userSpaceOnUse"
       gradientTransform="matrix(1.1573129,0,0,0.99590774,-7.5510206,0.19713193)" />
    <clipPath
       id="clipPath3613">
      <rect
         width="84"
         height="84"
         rx="6"
         ry="6"
         x="6"
         y="6"
         id="rect3615"
         style="fill:#ffffff;fill-opacity:1;fill-rule:nonzero;stroke:none" />
    </clipPath>
    <clipPath
       id="clipPath2862">
      <path
         d="M 0,0 0,96 96,96 96,0 0,0 z m 12,6 72,0 c 3.324,0 6,2.676 6,6 l 0,72 c 0,3.324 -2.676,6 -6,6 L 12,90 C 8.676,90 6,87.324 6,84 L 6,12 C 6,8.676 8.676,6 12,6 z"
         inkscape:connector-curvature="0"
         id="path2864"
         style="fill:#ff00ff;fill-opacity:1;fill-rule:nonzero;stroke:none" />
    </clipPath>
    <linearGradient
       x1="48"
       y1="7.4089875"
       x2="48.252537"
       y2="63.184418"
       id="linearGradient3645"
       xlink:href="#linearGradient3700"
       gradientUnits="userSpaceOnUse" />
    <linearGradient
       id="linearGradient3330">
      <stop
         id="stop3332"
         style="stop-color:#ffffff;stop-opacity:0.203125"
         offset="0" />
      <stop
         id="stop3334"
         style="stop-color:#ffffff;stop-opacity:0.6796875"
         offset="1" />
    </linearGradient>
    <linearGradient
       id="linearGradient3342">
      <stop
         id="stop3344"
         style="stop-color:#000000;stop-opacity:0"
         offset="0" />
      <stop
         id="stop3350"
         style="stop-color:#000000;stop-opacity:0"
         offset="0.85000002" />
      <stop
         id="stop3346"
         style="stop-color:#000000;stop-opacity:1"
         offset="1" />
    </linearGradient>
    <linearGradient
       id="linearGradient3362">
      <stop
         id="stop3364"
         style="stop-color:#4d4d4d;stop-opacity:1"
         offset="0" />
      <stop
         id="stop3366"
         style="stop-color:#ffffff;stop-opacity:1"
         offset="1" />
    </linearGradient>
    <linearGradient
       x1="25.220379"
       y1="61.92226"
       x2="94.567612"
       y2="61.92226"
       id="linearGradient4004"
       xlink:href="#linearGradient3362"
       gradientUnits="userSpaceOnUse" />
    <radialGradient
       cx="59.893993"
       cy="61.92226"
       r="33.71384"
       fx="59.893993"
       fy="61.92226"
       id="radialGradient4012"
       xlink:href="#linearGradient3342"
       gradientUnits="userSpaceOnUse"
       gradientTransform="matrix(1,0,0,0.8375435,0,10.059672)" />
    <linearGradient
       x1="26.180153"
       y1="61.92226"
       x2="93.607834"
       y2="61.92226"
       id="linearGradient4014"
       xlink:href="#linearGradient3330"
       gradientUnits="userSpaceOnUse" />
    <clipPath
       id="clipPath4031">
      <path
         d="M 48,32 C 28.117749,32 12,48.117749 12,68 12,87.882251 28.117749,104 48,104 67.882251,104 84,87.882251 84,68 84,48.117749 67.882251,32 48,32 z m 0,24 c 6.627417,0 12,5.372583 12,12 0,6.627417 -5.372583,12 -12,12 -6.627417,0 -12,-5.372583 -12,-12 0,-6.627417 5.372583,-12 12,-12 z"
         inkscape:connector-curvature="0"
         id="path4033"
         style="fill:#bbb1bf;fill-opacity:1;stroke:none" />
    </clipPath>
    <filter
       x="-0.19037074"
       y="-0.1707008"
       width="1.3807415"
       height="1.3414016"
       color-interpolation-filters="sRGB"
       id="filter4035">
      <feGaussianBlur
         id="feGaussianBlur4037"
         stdDeviation="4.9476562" />
    </filter>
    <clipPath
       id="clipPath4187">
      <path
         d="m 48,102 c -19.88225,0 -36,16.11775 -36,36 0,19.88225 16.11775,36 36,36 19.88225,0 36,-16.11775 36,-36 0,-19.88225 -16.11775,-36 -36,-36 z m 0,24 c 6.62742,0 12,5.37258 12,12 0,6.62742 -5.37258,12 -12,12 -6.62742,0 -12,-5.37258 -12,-12 0,-6.62742 5.37258,-12 12,-12 z"
         inkscape:connector-curvature="0"
         id="path4189"
         style="fill:#bbb1bf;fill-opacity:1;stroke:none" />
    </clipPath>
    <filter
       x="-0.18000001"
       y="-0.18000001"
       width="1.36"
       height="1.36"
       color-interpolation-filters="sRGB"
       id="filter4195">
      <feGaussianBlur
         id="feGaussianBlur4197"
         stdDeviation="5.2159999" />
    </filter>
    <linearGradient
       x1="8"
       y1="48"
       x2="88"
       y2="48"
       id="linearGradient4241"
       xlink:href="#linearGradient4235"
       gradientUnits="userSpaceOnUse"
       gradientTransform="matrix(0.70710678,-0.70710678,0.70710678,0.70710678,-19.882251,48)" />
    <linearGradient
       x1="47.921329"
       y1="89.668793"
       x2="47.921329"
       y2="4.7880402"
       id="linearGradient4584"
       xlink:href="#linearGradient4578"
       gradientUnits="userSpaceOnUse" />
    <clipPath
       id="clipPath4592">
      <path
         d="M 12,6 C 8.676,6 6,8.676 6,12 l 0,72 c 0,3.324 2.676,6 6,6 l 72,0 c 3.324,0 6,-2.676 6,-6 L 90,12 C 90,8.676 87.324,6 84,6 L 12,6 z m 36,4 C 68.98682,10 86,27.01318 86,48 86,68.98682 68.98682,86 48,86 27.01318,86 10,68.98682 10,48 10,27.01318 27.01318,10 48,10 z"
         inkscape:connector-curvature="0"
         id="path4594"
         style="fill:#ff00ff;fill-opacity:1;fill-rule:nonzero;stroke:none;display:inline" />
    </clipPath>
    <linearGradient
       x1="6.8120542"
       y1="49.027908"
       x2="88.142281"
       y2="49.027908"
       id="linearGradient4624"
       xlink:href="#linearGradient4235"
       gradientUnits="userSpaceOnUse" />
    <linearGradient
       x1="6.8120542"
       y1="49.027908"
       x2="88.142281"
       y2="49.027908"
       id="linearGradient4628"
       xlink:href="#linearGradient4235"
       gradientUnits="userSpaceOnUse" />
    <radialGradient
       cx="46.467018"
       cy="47.765217"
       r="35.860416"
       fx="46.467018"
       fy="47.765217"
       id="radialGradient4646"
       xlink:href="#linearGradient4640"
       gradientUnits="userSpaceOnUse" />
    <filter
       x="-0.12"
       y="-0.12"
       width="1.24"
       height="1.24"
       color-interpolation-filters="sRGB"
       id="filter4662">
      <feGaussianBlur
         id="feGaussianBlur4664"
         stdDeviation="4.2" />
    </filter>
    <filter
       color-interpolation-filters="sRGB"
       id="filter3751">
      <feGaussianBlur
         id="feGaussianBlur3753"
         stdDeviation="1.44" />
    </filter>
    <clipPath
       id="clipPath3721">
      <path
         d="m 76.013977,47.51268 a 28.284271,28.284271 0 1 1 -56.568542,0 28.284271,28.284271 0 1 1 56.568542,0 z"
         transform="matrix(1.3435029,0,0,1.3435029,-16.124998,74.166578)"
         id="path3723"
         style="fill:#ff0000;fill-opacity:1;stroke:none" />
    </clipPath>
    <linearGradient
       x1="45.447727"
       y1="92.539597"
       x2="45.447727"
       y2="7.0165396"
       id="ButtonShadow-0"
       gradientUnits="userSpaceOnUse"
       gradientTransform="matrix(1.0058652,0,0,0.994169,100,0)">
      <stop
         id="stop3750-8"
         style="stop-color:#000000;stop-opacity:1"
         offset="0" />
      <stop
         id="stop3752-5"
         style="stop-color:#000000;stop-opacity:0.58823532"
         offset="1" />
    </linearGradient>
    <linearGradient
       x1="32.251034"
       y1="6.1317081"
       x2="32.251034"
       y2="90.238609"
       id="linearGradient3780"
       xlink:href="#ButtonShadow-0"
       gradientUnits="userSpaceOnUse"
       gradientTransform="matrix(1.0238095,0,0,-1.0119048,-1.1428571,98.071429)" />
    <linearGradient
       x1="32.251034"
       y1="6.1317081"
       x2="32.251034"
       y2="90.238609"
       id="linearGradient3772"
       xlink:href="#ButtonShadow-0"
       gradientUnits="userSpaceOnUse"
       gradientTransform="matrix(1.0238095,0,0,-1.0119048,-1.1428571,98.071429)" />
    <linearGradient
       x1="32.251034"
       y1="6.1317081"
       x2="32.251034"
       y2="90.238609"
       id="linearGradient3725"
       xlink:href="#ButtonShadow-0"
       gradientUnits="userSpaceOnUse"
       gradientTransform="matrix(1.0238095,0,0,-1.0119048,-1.1428571,98.071429)" />
    <linearGradient
       x1="32.251034"
       y1="6.1317081"
       x2="32.251034"
       y2="90.238609"
       id="linearGradient3721"
       xlink:href="#ButtonShadow-0"
       gradientUnits="userSpaceOnUse"
       gradientTransform="matrix(1,0,0,-1,0,97)" />
    <linearGradient
       x1="32.251034"
       y1="6.1317081"
       x2="32.251034"
       y2="90.238609"
       id="linearGradient3263"
       xlink:href="#ButtonShadow-0"
       gradientUnits="userSpaceOnUse"
       gradientTransform="matrix(1.0238095,0,0,-1.0119048,-1.1428571,98.071429)" />
    <filter
       color-interpolation-filters="sRGB"
       id="filter3810">
      <feGaussianBlur
         id="feGaussianBlur3812"
         stdDeviation="0.42" />
    </filter>
    <linearGradient
       x1="52"
       y1="10"
       x2="51.631207"
       y2="8.0840635"
       id="linearGradient3834"
       xlink:href="#linearGradient3828"
       gradientUnits="userSpaceOnUse"
       gradientTransform="translate(0,3)" />
    <radialGradient
       cx="41.752941"
       cy="36.95731"
       r="19"
       fx="41.752941"
       fy="36.95731"
       id="radialGradient3839"
       xlink:href="#linearGradient3816"
       gradientUnits="userSpaceOnUse"
       gradientTransform="matrix(3.3630994,-0.59089075,0.30096298,1.7129535,-109.78914,2.6805673)" />
    <radialGradient
       cx="40.284538"
       cy="39.106094"
       r="19"
       fx="40.284538"
       fy="39.106094"
       id="radialGradient3848"
       xlink:href="#linearGradient3816"
       gradientUnits="userSpaceOnUse"
       gradientTransform="matrix(3.3729562,-0.5317483,0.18746453,1.1891145,-71.604806,16.442362)" />
    <linearGradient
       x1="80"
       y1="37"
       x2="77"
       y2="37"
       id="linearGradient3866"
       xlink:href="#linearGradient3860"
       gradientUnits="userSpaceOnUse"
       gradientTransform="translate(0,3)" />
    <radialGradient
       cx="46"
       cy="50.608784"
       r="1.5"
       fx="46"
       fy="50.608784"
       id="radialGradient3877"
       xlink:href="#linearGradient3879"
       gradientUnits="userSpaceOnUse"
       gradientTransform="matrix(2.6666667,-6.9565204e-8,8.0000011e-7,30.666677,-76.666707,-1477.0032)" />
    <radialGradient
       cx="61"
       cy="24.63372"
       r="19.007999"
       fx="61"
       fy="24.63372"
       id="radialGradient3887"
       xlink:href="#linearGradient3798"
       gradientUnits="userSpaceOnUse"
       gradientTransform="matrix(1.2626263,-0.2104377,0.09520749,0.57124497,-18.365519,22.764811)" />
    <linearGradient
       x1="31"
       y1="61"
       x2="36"
       y2="70"
       id="linearGradient3900"
       xlink:href="#linearGradient3894"
       gradientUnits="userSpaceOnUse"
       gradientTransform="translate(0,3)" />
    <linearGradient
       x1="40"
       y1="69"
       x2="42"
       y2="64"
       id="linearGradient3940"
       xlink:href="#linearGradient3934"
       gradientUnits="userSpaceOnUse" />
    <linearGradient
       x1="40"
       y1="70"
       x2="41.884232"
       y2="62.967953"
       id="linearGradient3948"
       xlink:href="#linearGradient3934"
       gradientUnits="userSpaceOnUse" />
    <radialGradient
       cx="39.768967"
       cy="69.843796"
       r="11"
       fx="39.768967"
       fy="69.843796"
       id="radialGradient3964"
       xlink:href="#linearGradient3958"
       gradientUnits="userSpaceOnUse"
       gradientTransform="matrix(1.1597853,-0.1400901,0.07244171,0.58349276,-11.414104,33.34065)" />
    <radialGradient
       cx="39.768967"
       cy="69.843796"
       r="11"
       fx="39.768967"
       fy="69.843796"
       id="radialGradient3974"
       xlink:href="#linearGradient3958"
       gradientUnits="userSpaceOnUse"
       gradientTransform="matrix(1.1597853,-0.1400901,0.07244171,0.58349276,-11.414104,33.34065)" />
    <linearGradient
       x1="40"
       y1="70"
       x2="41.884232"
       y2="62.967953"
       id="linearGradient3976"
       xlink:href="#linearGradient3934"
       gradientUnits="userSpaceOnUse"
       gradientTransform="translate(34,-5)" />
    <linearGradient
       x1="40"
       y1="69"
       x2="42"
       y2="64"
       id="linearGradient3978"
       xlink:href="#linearGradient3934"
       gradientUnits="userSpaceOnUse"
       gradientTransform="translate(34,-5)" />
    <linearGradient
       x1="31"
       y1="61"
       x2="36"
       y2="70"
       id="linearGradient3980"
       xlink:href="#linearGradient3894"
       gradientUnits="userSpaceOnUse"
       gradientTransform="translate(34,-2)" />
  </defs>
  <metadata
     id="metadata2413">
    <rdf:RDF>
      <cc:Work
         rdf:about="">
        <dc:format>image/svg+xml</dc:format>
        <dc:type
           rdf:resource="http://purl.org/dc/dcmitype/StillImage" />
        <dc:title />
      </cc:Work>
    </rdf:RDF>
  </metadata>
  <g
     id="layer2"
     style="display:none">
    <rect
       width="86"
       height="85"
       rx="6"
       ry="6"
       x="5"
       y="7"
       clip-path="url(#clipPath2862)"
       id="rect3745"
       style="opacity:0.9;fill:url(#ButtonShadow);fill-opacity:1;fill-rule:nonzero;stroke:none;filter:url(#filter3174)" />
  </g>
  <g
     id="layer3"
     style="display:inline">
    <path
       d="M 12,3.96875 C 6.4889098,3.96875 1.96875,8.4889098 1.96875,14 l 0,71 c 0,5.51109 4.5201597,10.03125 10.03125,10.03125 l 72,0 c 5.51109,0 10.03125,-4.52016 10.03125,-10.03125 l 0,-71 C 94.03125,8.4889097 89.51109,3.96875 84,3.96875 l -72,0 z M 12,6 84,6 c 3.324,0 6,2.676 6,6 l 0,72 c 0,3.324 -2.676,6 -6,6 L 12,90 C 8.676,90 6,87.324 6,84 L 6,12 C 6,8.676 8.676,6 12,6 z"
       inkscape:connector-curvature="0"
       id="path3786"
       style="opacity:0.07999998;fill:url(#linearGradient3263);fill-opacity:1;fill-rule:nonzero;stroke:none;display:inline" />
    <path
       d="M 12,4.96875 C 7.0283671,4.96875 2.96875,9.0283671 2.96875,14 l 0,71 c 0,4.971633 4.059617,9.03125 9.03125,9.03125 l 72,0 c 4.971633,0 9.03125,-4.059617 9.03125,-9.03125 l 0,-71 C 93.03125,9.028367 88.971633,4.96875 84,4.96875 l -72,0 z M 12,6 84,6 c 3.324,0 6,2.676 6,6 l 0,72 c 0,3.324 -2.676,6 -6,6 L 12,90 C 8.676,90 6,87.324 6,84 L 6,12 C 6,8.676 8.676,6 12,6 z"
       inkscape:connector-curvature="0"
       id="path3778"
       style="opacity:0.1;fill:url(#linearGradient3780);fill-opacity:1;fill-rule:nonzero;stroke:none;display:inline" />
    <path
       d="M 11.1875,6.03125 C 7.1599817,6.4419011 4,9.8664375 4,14 l 0,71 c 0,4.409133 3.5908667,8 8,8 l 72,0 c 4.409133,0 8,-3.590867 8,-8 L 92,14 C 92,9.8029382 88.741028,6.3539584 84.625,6.03125 87.657886,6.337417 90,8.88375 90,12 l 0,72 c 0,3.324 -2.676,6 -6,6 L 12,90 C 8.676,90 6,87.324 6,84 L 6,12 c 0,-3.11625 2.3421143,-5.662583 5.375,-5.96875 -0.06227,0.00488 -0.12563,-0.00631 -0.1875,0 z"
       inkscape:connector-curvature="0"
       id="path3770"
       style="opacity:0.2;fill:url(#linearGradient3772);fill-opacity:1;fill-rule:nonzero;stroke:none;display:inline" />
    <path
       d="M 6.4375,9.75 C 5.5380109,10.927446 5,12.397277 5,14 l 0,71 c 0,3.878 3.122,7 7,7 l 72,0 c 3.878,0 7,-3.122 7,-7 L 91,14 C 91,12.397277 90.461989,10.927446 89.5625,9.75 89.841816,10.444095 90,11.203625 90,12 l 0,72 c 0,3.324 -2.676,6 -6,6 L 12,90 C 8.676,90 6,87.324 6,84 L 6,12 C 6,11.203625 6.1581836,10.444095 6.4375,9.75 z"
       inkscape:connector-curvature="0"
       id="rect3723"
       style="opacity:0.3;fill:url(#linearGradient3725);fill-opacity:1;fill-rule:nonzero;stroke:none;display:inline" />
    <path
       d="m 6,84 0,1 c 0,3.324 2.676,6 6,6 l 72,0 c 3.324,0 6,-2.676 6,-6 l 0,-1 c 0,3.324 -2.676,6 -6,6 L 12,90 C 8.676,90 6,87.324 6,84 z"
       inkscape:connector-curvature="0"
       id="rect3716"
       style="opacity:0.45;fill:url(#linearGradient3721);fill-opacity:1;fill-rule:nonzero;stroke:none;display:inline" />
  </g>
  <g
     id="layer7">
    <rect
       width="84"
       height="84"
       rx="6"
       ry="6"
       x="6"
       y="6"
       id="rect4576"
       style="fill:url(#linearGradient4584);fill-opacity:1;stroke:none" />
    <path
       d="m 82.327435,47.765217 a 35.860416,35.860416 0 1 1 -71.720833,0 35.860416,35.860416 0 1 1 71.720833,0 z"
       transform="matrix(1.0596642,0,0,1.0596642,-1.2394363,-2.6150909)"
       id="path4630"
       style="opacity:0.4;fill:url(#radialGradient4646);fill-opacity:1;stroke:none;display:inline" />
    <path
       d="m 48,102 c -19.882251,0 -36,16.11775 -36,36 0,19.88225 16.117749,36 36,36 19.882251,0 36,-16.11775 36,-36 0,-19.88225 -16.117749,-36 -36,-36 z m 0,24 c 6.627417,0 12,5.37258 12,12 0,6.62742 -5.372583,12 -12,12 -6.627417,0 -12,-5.37258 -12,-12 0,-6.62742 5.372583,-12 12,-12 z"
       inkscape:connector-curvature="0"
       transform="translate(0,-90)"
       clip-path="url(#clipPath3721)"
       id="path3724"
       style="opacity:0.8;fill:#000000;fill-opacity:1;stroke:none;display:inline;filter:url(#filter3751)" />
  </g>
  <g
     id="layer6"
     style="display:inline">
    <path
       d="M 48,12 C 28.117749,12 12,28.117749 12,48 12,67.882251 28.117749,84 48,84 67.882251,84 84,67.882251 84,48 84,28.117749 67.882251,12 48,12 z m 0,24 c 6.627417,0 12,5.372583 12,12 0,6.627417 -5.372583,12 -12,12 -6.627417,0 -12,-5.372583 -12,-12 0,-6.627417 5.372583,-12 12,-12 z"
       inkscape:connector-curvature="0"
       id="path3978"
       style="fill:#bbb1bf;fill-opacity:1;stroke:none" />
    <path
       d="m 48,36 c -6.627417,0 -12,5.372583 -12,12 0,6.627417 5.372583,12 12,12 6.627417,0 12,-5.372583 12,-12 0,-6.627417 -5.372583,-12 -12,-12 z m 0,7 c 2.761424,0 5,2.238576 5,5 0,2.761424 -2.238576,5 -5,5 -2.761424,0 -5,-2.238576 -5,-5 0,-2.761424 2.238576,-5 5,-5 z"
       inkscape:connector-curvature="0"
       id="path3992"
       style="opacity:0.3;fill:#ffffff;fill-opacity:1;stroke:none" />
    <path
       d="m 92.579506,61.92226 a 32.685513,27.208481 0 1 1 -65.371025,0 32.685513,27.208481 0 1 1 65.371025,0 z"
       transform="matrix(0,0.16827027,-0.20214285,0,60.517143,37.921621)"
       id="path4002"
       style="opacity:0.6;fill:none;stroke:url(#linearGradient4004);stroke-width:5.4220953;stroke-linecap:round;stroke-linejoin:miter;stroke-miterlimit:4;stroke-opacity:1;stroke-dasharray:none;stroke-dashoffset:0;display:inline" />
    <path
       d="m 92.579506,61.92226 a 32.685513,27.208481 0 1 1 -65.371025,0 32.685513,27.208481 0 1 1 65.371025,0 z"
       transform="matrix(0,0.2906454,-0.34915584,0,69.620519,30.592193)"
       id="path4010"
       style="opacity:0.5;fill:url(#radialGradient4012);fill-opacity:1;fill-rule:evenodd;stroke:url(#linearGradient4014);stroke-width:3.13912511;stroke-linecap:round;stroke-linejoin:miter;stroke-miterlimit:4;stroke-opacity:1;stroke-dasharray:none;stroke-dashoffset:0;display:inline" />
    <path
       d="M 57.3125,33.21875 48,68 79.1875,50 C 74.413603,41.731368 66.53496,35.689901 57.3125,33.21875 z M 48,68 16.8125,86 c 4.773897,8.268632 12.65254,14.3101 21.875,16.78125 L 48,68 z"
       inkscape:connector-curvature="0"
       transform="translate(0,-20)"
       clip-path="url(#clipPath4031)"
       id="path4018"
       style="opacity:0.8;fill:#ffffff;fill-opacity:1;stroke:none;filter:url(#filter4035)" />
    <path
       d="m 64.397226,47.38641 a 20.708128,18.814091 0 0 1 -6.06527,13.303571 L 43.689098,47.38641 z"
       transform="matrix(0.4499434,-1.6792116,1.8482599,0.49523976,-59.240026,7.89561)"
       id="path4022"
       style="opacity:0.3;fill:#ffffff;fill-opacity:1;stroke:none" />
    <path
       d="m 64.397226,47.38641 a 20.708128,18.814091 0 0 1 -6.06527,13.303571 L 43.689098,47.38641 z"
       transform="matrix(-0.4499434,1.6792116,-1.8482599,-0.49523976,155.24002,-91.895606)"
       id="path4024"
       style="opacity:0.3;fill:#ffffff;fill-opacity:1;stroke:none" />
    <g
       transform="translate(0,-90)"
       clip-path="url(#clipPath4187)"
       id="g4175"
       style="opacity:0.6;filter:url(#filter4195)">
      <path
         d="m 60.947452,57.784124 a 20.708128,18.814091 0 0 1 -2.615496,2.905857 L 43.689098,47.38641 z"
         transform="matrix(1.5055399,0.86922388,-0.95672979,1.6571045,27.560302,21.500167)"
         id="path4039"
         style="fill:#7137c8;fill-opacity:1;stroke:none" />
      <path
         d="m 60.779363,58.010828 a 20.708128,18.814091 0 0 1 -3.384016,3.478847 L 43.689098,47.38641 z"
         transform="matrix(1.6792116,0.4499434,-0.49523981,1.8482599,-1.8956092,30.759984)"
         id="path4041"
         style="fill:#00ccff;fill-opacity:1;stroke:none" />
      <path
         d="m 62.72377,54.795738 a 20.708128,18.814091 0 0 1 -2.259683,3.622054 L 43.689098,47.38641 z"
         transform="matrix(1.7384478,0,-6.0266211e-8,1.9134595,-27.951218,47.328031)"
         id="path4043"
         style="fill:#ffcc00;fill-opacity:1;stroke:none" />
      <path
         d="m 61.622863,56.793455 a 20.708128,18.814091 0 0 1 -1.699251,2.272761 L 43.689098,47.38641 z"
         transform="matrix(1.6792116,-0.4499434,0.4952397,1.84826,-48.830877,70.075223)"
         id="path4045"
         style="fill:#ff0000;fill-opacity:1;stroke:none" />
      <path
         d="m 63.123303,53.883448 a 20.708128,18.814091 0 0 1 -2.370014,4.161918 L 43.689098,47.38641 z"
         transform="matrix(1.6792116,0.4499434,-0.49523981,1.8482599,-1.8956092,30.759984)"
         id="path4144"
         style="fill:#00ff00;fill-opacity:1;stroke:none" />
      <path
         d="m 60.947452,57.784124 a 20.708128,18.814091 0 0 1 -2.615496,2.905857 L 43.689098,47.38641 z"
         transform="matrix(-1.5055399,-0.86922388,0.95672979,-1.6571045,68.439684,254.49984)"
         id="path4155"
         style="fill:#7137c8;fill-opacity:1;stroke:none" />
      <path
         d="m 60.779363,58.010828 a 20.708128,18.814091 0 0 1 -3.384016,3.478847 L 43.689098,47.38641 z"
         transform="matrix(-1.6792116,-0.4499434,0.49523981,-1.8482599,97.895595,245.24003)"
         id="path4157"
         style="fill:#00ccff;fill-opacity:1;stroke:none" />
      <path
         d="m 62.72377,54.795738 a 20.708128,18.814091 0 0 1 -2.259683,3.622054 L 43.689098,47.38641 z"
         transform="matrix(-1.7384478,0,6.0266211e-8,-1.9134595,123.9512,228.67198)"
         id="path4159"
         style="fill:#ffcc00;fill-opacity:1;stroke:none" />
      <path
         d="m 61.622863,56.793455 a 20.708128,18.814091 0 0 1 -1.699251,2.272761 L 43.689098,47.38641 z"
         transform="matrix(-1.6792116,0.4499434,-0.4952397,-1.84826,144.83086,205.92479)"
         id="path4161"
         style="fill:#ff0000;fill-opacity:1;stroke:none" />
      <path
         d="m 63.123303,53.883448 a 20.708128,18.814091 0 0 1 -2.370014,4.161918 L 43.689098,47.38641 z"
         transform="matrix(-1.6792116,-0.4499434,0.49523981,-1.8482599,97.895595,245.24003)"
         id="path4163"
         style="fill:#00ff00;fill-opacity:1;stroke:none" />
    </g>
    <path
       d="m 48,33.5 c -8.008129,0 -14.5,6.491871 -14.5,14.5 0,8.008129 6.491871,14.5 14.5,14.5 8.008129,0 14.5,-6.491871 14.5,-14.5 0,-8.008129 -6.491871,-14.5 -14.5,-14.5 z m 0,2.5 c 6.627417,0 12,5.372583 12,12 0,6.627417 -5.372583,12 -12,12 -6.627417,0 -12,-5.372583 -12,-12 0,-6.627417 5.372583,-12 12,-12 z"
       inkscape:connector-curvature="0"
       id="path3986"
       style="opacity:0.2;fill:#000000;fill-opacity:1;stroke:none" />
    <path
       d="m 48,12 c -19.88225,0 -36,16.117749 -36,36 0,0.337069 0.022,0.665155 0.0312,1 C 12.56499,29.583785 28.45482,14 48,14 67.545182,14 83.435008,29.583785 83.96875,49 83.977955,48.665155 84,48.337069 84,48 84,28.117749 67.882251,12 48,12 z"
       inkscape:connector-curvature="0"
       id="path4199"
       style="opacity:0.4;fill:#ffffff;fill-opacity:1;stroke:none" />
  </g>
  <g
     id="layer1"
     style="display:inline">
    <path
       d="M 12,6 C 8.676,6 6,8.676 6,12 l 0,2 0,68 0,2 c 0,0.334721 0.04135,0.6507 0.09375,0.96875 0.0487,0.295596 0.09704,0.596915 0.1875,0.875 0.00988,0.03038 0.020892,0.0636 0.03125,0.09375 0.098865,0.287771 0.2348802,0.547452 0.375,0.8125 0.1445918,0.273507 0.3156161,0.535615 0.5,0.78125 0.1843839,0.245635 0.3737765,0.473472 0.59375,0.6875 0.439947,0.428056 0.94291,0.814526 1.5,1.09375 0.278545,0.139612 0.5734731,0.246947 0.875,0.34375 -0.2562018,-0.100222 -0.4867109,-0.236272 -0.71875,-0.375 -0.00741,-0.0044 -0.023866,0.0045 -0.03125,0 -0.031933,-0.0193 -0.062293,-0.04251 -0.09375,-0.0625 -0.120395,-0.0767 -0.2310226,-0.163513 -0.34375,-0.25 -0.1061728,-0.0808 -0.2132809,-0.161112 -0.3125,-0.25 C 8.4783201,88.557317 8.3087904,88.373362 8.15625,88.1875 8.0486711,88.057245 7.9378561,87.922215 7.84375,87.78125 7.818661,87.74287 7.805304,87.69538 7.78125,87.65625 7.716487,87.553218 7.6510225,87.451733 7.59375,87.34375 7.4927417,87.149044 7.3880752,86.928049 7.3125,86.71875 7.30454,86.69694 7.288911,86.6782 7.28125,86.65625 7.2494249,86.5643 7.2454455,86.469419 7.21875,86.375 7.1884177,86.268382 7.1483606,86.171969 7.125,86.0625 7.0521214,85.720988 7,85.364295 7,85 L 7,83 7,15 7,13 C 7,10.218152 9.2181517,8 12,8 l 2,0 68,0 2,0 c 2.781848,0 5,2.218152 5,5 l 0,2 0,68 0,2 c 0,0.364295 -0.05212,0.720988 -0.125,1.0625 -0.04415,0.206893 -0.08838,0.397658 -0.15625,0.59375 -0.0077,0.02195 -0.0233,0.04069 -0.03125,0.0625 -0.06274,0.173739 -0.138383,0.367449 -0.21875,0.53125 -0.04158,0.0828 -0.07904,0.169954 -0.125,0.25 -0.0546,0.09721 -0.126774,0.18835 -0.1875,0.28125 -0.09411,0.140965 -0.204921,0.275995 -0.3125,0.40625 -0.143174,0.17445 -0.303141,0.346998 -0.46875,0.5 -0.01117,0.0102 -0.01998,0.02115 -0.03125,0.03125 -0.138386,0.125556 -0.285091,0.234436 -0.4375,0.34375 -0.102571,0.07315 -0.204318,0.153364 -0.3125,0.21875 -0.0074,0.0045 -0.02384,-0.0044 -0.03125,0 -0.232039,0.138728 -0.462548,0.274778 -0.71875,0.375 0.301527,-0.0968 0.596455,-0.204138 0.875,-0.34375 0.55709,-0.279224 1.060053,-0.665694 1.5,-1.09375 0.219973,-0.214028 0.409366,-0.441865 0.59375,-0.6875 0.184384,-0.245635 0.355408,-0.507743 0.5,-0.78125 0.14012,-0.265048 0.276135,-0.524729 0.375,-0.8125 0.01041,-0.03078 0.02133,-0.06274 0.03125,-0.09375 0.09046,-0.278085 0.1388,-0.579404 0.1875,-0.875 C 89.95865,84.6507 90,84.334721 90,84 l 0,-2 0,-68 0,-2 C 90,8.676 87.324,6 84,6 L 12,6 z"
       inkscape:connector-curvature="0"
       id="rect3728"
       style="opacity:0.6;fill:url(#linearGradient3188);fill-opacity:1;fill-rule:nonzero;stroke:none" />
    <path
       d="M 12,90 C 8.676,90 6,87.324 6,84 L 6,82 6,14 6,12 c 0,-0.334721 0.04135,-0.6507 0.09375,-0.96875 0.0487,-0.295596 0.09704,-0.596915 0.1875,-0.875 C 6.29113,10.12587 6.302142,10.09265 6.3125,10.0625 6.411365,9.774729 6.5473802,9.515048 6.6875,9.25 6.8320918,8.976493 7.0031161,8.714385 7.1875,8.46875 7.3718839,8.223115 7.5612765,7.995278 7.78125,7.78125 8.221197,7.353194 8.72416,6.966724 9.28125,6.6875 9.559795,6.547888 9.8547231,6.440553 10.15625,6.34375 9.9000482,6.443972 9.6695391,6.580022 9.4375,6.71875 c -0.00741,0.0044 -0.023866,-0.0045 -0.03125,0 -0.031933,0.0193 -0.062293,0.04251 -0.09375,0.0625 -0.120395,0.0767 -0.2310226,0.163513 -0.34375,0.25 -0.1061728,0.0808 -0.2132809,0.161112 -0.3125,0.25 C 8.4783201,7.442683 8.3087904,7.626638 8.15625,7.8125 8.0486711,7.942755 7.9378561,8.077785 7.84375,8.21875 7.818661,8.25713 7.805304,8.30462 7.78125,8.34375 7.716487,8.446782 7.6510225,8.548267 7.59375,8.65625 7.4927417,8.850956 7.3880752,9.071951 7.3125,9.28125 7.30454,9.30306 7.288911,9.3218 7.28125,9.34375 7.2494249,9.4357 7.2454455,9.530581 7.21875,9.625 7.1884177,9.731618 7.1483606,9.828031 7.125,9.9375 7.0521214,10.279012 7,10.635705 7,11 l 0,2 0,68 0,2 c 0,2.781848 2.2181517,5 5,5 l 2,0 68,0 2,0 c 2.781848,0 5,-2.218152 5,-5 l 0,-2 0,-68 0,-2 C 89,10.635705 88.94788,10.279012 88.875,9.9375 88.83085,9.730607 88.78662,9.539842 88.71875,9.34375 88.71105,9.3218 88.69545,9.30306 88.6875,9.28125 88.62476,9.107511 88.549117,8.913801 88.46875,8.75 88.42717,8.6672 88.38971,8.580046 88.34375,8.5 88.28915,8.40279 88.216976,8.31165 88.15625,8.21875 88.06214,8.077785 87.951329,7.942755 87.84375,7.8125 87.700576,7.63805 87.540609,7.465502 87.375,7.3125 87.36383,7.3023 87.35502,7.29135 87.34375,7.28125 87.205364,7.155694 87.058659,7.046814 86.90625,6.9375 86.803679,6.86435 86.701932,6.784136 86.59375,6.71875 c -0.0074,-0.0045 -0.02384,0.0044 -0.03125,0 -0.232039,-0.138728 -0.462548,-0.274778 -0.71875,-0.375 0.301527,0.0968 0.596455,0.204138 0.875,0.34375 0.55709,0.279224 1.060053,0.665694 1.5,1.09375 0.219973,0.214028 0.409366,0.441865 0.59375,0.6875 0.184384,0.245635 0.355408,0.507743 0.5,0.78125 0.14012,0.265048 0.276135,0.524729 0.375,0.8125 0.01041,0.03078 0.02133,0.06274 0.03125,0.09375 0.09046,0.278085 0.1388,0.579404 0.1875,0.875 C 89.95865,11.3493 90,11.665279 90,12 l 0,2 0,68 0,2 c 0,3.324 -2.676,6 -6,6 l -72,0 z"
       inkscape:connector-curvature="0"
       id="path3615"
       style="opacity:0.3;fill:url(#radialGradient3619);fill-opacity:1;fill-rule:nonzero;stroke:none" />
    <path
       d="M 12,6 C 8.676,6 6,8.676 6,12 l 0,43.65625 c 18.407332,-8.873819 43.000654,-14.3125 70.0625,-14.3125 4.728571,0 9.37768,0.179348 13.9375,0.5 L 90,12 C 90,8.676 87.324,6 84,6 L 12,6 z"
       inkscape:connector-curvature="0"
       id="rect3638"
       style="opacity:0.8;fill:url(#linearGradient3645);fill-opacity:1;fill-rule:nonzero;stroke:none" />
    <path
       d="m 19.715729,19.715729 c -15.6209712,15.620971 -15.6209712,40.947571 0,56.568542 15.620971,15.620971 40.947571,15.620971 56.568542,0 15.620971,-15.620971 15.620971,-40.947571 0,-56.568542 C 60.6633,4.0947578 35.3367,4.0947578 19.715729,19.715729 z m 1.414213,1.414213 c 14.839923,-14.8399224 38.900193,-14.8399224 53.740116,0 14.839922,14.839923 14.839922,38.900193 0,53.740116 -14.839923,14.839922 -38.900193,14.839922 -53.740116,0 -14.8399224,-14.839923 -14.8399224,-38.900193 0,-53.740116 z"
       inkscape:connector-curvature="0"
       id="path4230"
       style="opacity:0.6;fill:url(#linearGradient4241);fill-opacity:1;stroke:none;display:none" />
    <path
       d="M 12,6 C 8.676,6 6,8.676 6,12 l 0,72 c 0,3.324 2.676,6 6,6 l 72,0 c 3.324,0 6,-2.676 6,-6 L 90,12 C 90,8.676 87.324,6 84,6 L 12,6 z m 36,4 C 68.98682,10 86,27.01318 86,48 86,68.98682 68.98682,86 48,86 27.01318,86 10,68.98682 10,48 10,27.01318 27.01318,10 48,10 z"
       inkscape:connector-curvature="0"
       clip-path="url(#clipPath4592)"
       id="path4590"
       style="opacity:0.8;fill:none;stroke:#ffffff;stroke-width:2;stroke-miterlimit:4;stroke-dasharray:none;display:inline;filter:url(#filter4662)" />
    <path
       d="m 87.125656,49.027908 a 39.648487,39.648487 0 1 1 -79.2969741,0 39.648487,39.648487 0 1 1 79.2969741,0 z"
       transform="matrix(0.69554141,-0.6955414,0.6955414,0.69554141,-19.123277,46.921397)"
       id="path4616"
       style="fill:none;stroke:url(#linearGradient4624);stroke-width:2.03325582;stroke-linecap:round;stroke-linejoin:miter;stroke-miterlimit:4;stroke-opacity:1;stroke-dasharray:none;stroke-dashoffset:0" />
    <path
       d="m 87.125656,49.027908 a 39.648487,39.648487 0 1 1 -79.2969741,0 39.648487,39.648487 0 1 1 79.2969741,0 z"
       transform="matrix(-0.69554141,-0.6955414,-0.6955414,0.69554141,115.12327,46.921397)"
       id="path4626"
       style="opacity:0.4;fill:none;stroke:url(#linearGradient4628);stroke-width:2.03325582;stroke-linecap:round;stroke-linejoin:miter;stroke-miterlimit:4;stroke-opacity:1;stroke-dasharray:none;stroke-dashoffset:0" />
  </g>
  <g
     id="layer5"
     style="display:none">
    <rect
       width="66"
       height="66"
       rx="12"
       ry="12"
       x="15"
       y="15"
       clip-path="url(#clipPath3613)"
       id="rect3171"
       style="opacity:0.1;fill:url(#linearGradient3613);fill-opacity:1;fill-rule:nonzero;stroke:#ffffff;stroke-width:0.5;stroke-linecap:round;stroke-linejoin:miter;stroke-miterlimit:4;stroke-opacity:1;stroke-dasharray:none;stroke-dashoffset:0;filter:url(#filter3794)" />
  </g>
  <g
     id="layer4"
     style="display:inline">
    <path
       d="m 79.78125,3.875 a 1.0880024,1.0880024 0 0 0 -0.125,0.03125 c -13.475825,2.439323 -27.010406,4.6869802 -40.5,7.15625 a 1.0880024,1.0880024 0 0 0 -0.1875,0.03125 c -0.708682,0.253119 -1.263533,0.751646 -1.59375,1.3125 -0.330217,0.560854 -0.454585,1.136917 -0.5,1.6875 -0.09083,1.101166 0.05411,2.163409 0,2.75 a 1.0880024,1.0880024 0 0 0 0,0.09375 l 0,43.1875 c -3.316202,-0.166352 -6.718919,0.695994 -9.5625,2.46875 -3.198918,1.994281 -5.694862,5.125541 -6.3125,9.0625 -0.45534,2.9984 0.703995,5.754549 2.625,7.75 1.90502,1.978846 4.557516,3.259742 7.28125,3.53125 0.02285,0.0023 0.03963,0.02912 0.0625,0.03125 l 0,-0.03125 c 3.671482,0.517455 7.65558,-0.23243 10.96875,-2.09375 3.331567,-1.871655 6.001103,-4.898453 6.8125,-8.875 0.714339,-3.310606 0.240536,-6.550019 0.375,-9.53125 a 1.0880024,1.0880024 0 0 0 0,-0.0625 l 0,-29.78125 21.75,-3.9375 0,26.46875 c -3.316202,-0.166352 -6.718919,0.695994 -9.5625,2.46875 -3.198918,1.994281 -5.694862,5.125541 -6.3125,9.0625 -0.45534,2.9984 0.703995,5.754549 2.625,7.75 1.90502,1.978846 4.557516,3.259742 7.28125,3.53125 0.02286,0.0023 0.03963,0.02912 0.0625,0.03125 l 0,-0.03125 c 3.671482,0.517455 7.65558,-0.23243 10.96875,-2.09375 3.331567,-1.871655 6.001103,-4.898453 6.8125,-8.875 0.714339,-3.310606 0.240536,-6.550019 0.375,-9.53125 a 1.0880024,1.0880024 0 0 0 0,-0.0625 C 83.104105,40.482312 83.166779,23.581148 83.09375,6.6875 a 1.0880024,1.0880024 0 0 0 0,-0.125 C 82.888733,4.9104913 81.395056,3.7622031 79.78125,3.875 z"
       id="path4003"
       style="opacity:0.05;fill:#000000;fill-opacity:1;stroke:none" />
    <path
       d="m 79.84375,4.96875 c 0.0026,-2.272e-4 -0.127633,0.03162 -0.125,0.03125 A 1.081044,1.081044 0 0 0 79.4375,5.0625 l -39.78125,6.96875 c 0.0042,-6.97e-4 -0.160409,0.03231 -0.15625,0.03125 0.0042,-0.0011 -0.160301,0.06392 -0.15625,0.0625 0.0041,-0.0014 -0.191412,0.06427 -0.1875,0.0625 0.0039,-0.0018 -0.159994,0.0646 -0.15625,0.0625 0.0037,-0.0021 -0.128547,0.09617 -0.125,0.09375 0.0035,-0.0024 -0.159574,0.127717 -0.15625,0.125 0.0033,-0.0027 -0.128075,0.09675 -0.125,0.09375 0.0031,-0.003 -0.127803,0.128252 -0.125,0.125 0.0028,-0.0033 -0.09626,0.159733 -0.09375,0.15625 0.0025,-0.0035 -0.127198,0.128688 -0.125,0.125 0.0022,-0.0037 -0.06437,0.160115 -0.0625,0.15625 0.0019,-0.0039 -0.06403,0.191513 -0.0625,0.1875 0.0015,-0.004 -0.06367,0.16038 -0.0625,0.15625 0.0012,-0.0041 -0.03206,0.160466 -0.03125,0.15625 8.08e-4,-0.0042 -0.03169,0.19177 -0.03125,0.1875 4.39e-4,-0.0043 -0.03132,0.160542 -0.03125,0.15625 a 1.081044,1.081044 0 0 0 0,0.03125 l 0,47.25 c -2.03109,-0.205896 -4.184512,-0.138435 -6.375,0.5625 -3.31813,1.061769 -6.010154,2.99864 -7.71875,5.4375 -1.713374,2.44568 -2.420363,5.501987 -1.40625,8.34375 1.012871,2.838285 3.458859,4.808698 6.34375,5.75 2.880914,0.940005 6.280292,0.904024 9.59375,-0.15625 5.294838,-1.694297 9.012603,-5.73071 9.40625,-10.28125 -0.0014,0.0029 0.06374,-0.127998 0.0625,-0.125 -0.0012,0.003 0.03229,-0.128073 0.03125,-0.125 -0.001,0.0031 0.03209,-0.128134 0.03125,-0.125 -8.36e-4,0.0031 0.03188,-0.128183 0.03125,-0.125 -6.28e-4,0.0032 0.03167,-0.159467 0.03125,-0.15625 -4.18e-4,0.0032 2.05e-4,-0.128238 0,-0.125 -2.05e-4,0.0032 0.03124,-0.128244 0.03125,-0.125 l 0,-38.3125 23.9375,-4.3125 0,28.875 c -2.03109,-0.205896 -4.184512,-0.138435 -6.375,0.5625 -3.31813,1.061769 -6.010154,2.99864 -7.71875,5.4375 -1.713374,2.44568 -2.420363,5.501987 -1.40625,8.34375 1.012871,2.838285 3.458859,4.808698 6.34375,5.75 2.880914,0.940005 6.280292,0.904024 9.59375,-0.15625 5.294838,-1.694297 9.012603,-5.73071 9.40625,-10.28125 -0.0014,0.0029 0.06374,-0.127998 0.0625,-0.125 -0.0012,0.003 0.03229,-0.128073 0.03125,-0.125 -0.001,0.0031 0.03209,-0.128134 0.03125,-0.125 -8.36e-4,0.0031 0.03188,-0.128183 0.03125,-0.125 -6.28e-4,0.0032 0.03167,-0.159467 0.03125,-0.15625 -4.18e-4,0.0032 2.05e-4,-0.128238 0,-0.125 -2.05e-4,0.0032 0.03124,-0.128244 0.03125,-0.125 l 0,-57.96875 0,-0.03125 c -4.07e-4,-0.030773 -7.8e-5,-0.095743 0,-0.09375 1.04e-4,0.00266 -0.0315,-0.096398 -0.03125,-0.09375 2.47e-4,0.00265 -3.9e-4,-0.1276304 0,-0.125 3.9e-4,0.00263 -0.03178,-0.096356 -0.03125,-0.09375 5.31e-4,0.00261 -6.71e-4,-0.1275732 0,-0.125 6.71e-4,0.00257 -0.03206,-0.096283 -0.03125,-0.09375 8.08e-4,0.00253 -0.06344,-0.096236 -0.0625,-0.09375 9.43e-4,0.00249 -0.03233,-0.1274317 -0.03125,-0.125 0.0011,0.00243 -0.03246,-0.09612 -0.03125,-0.09375 0.0012,0.00237 -0.06383,-0.096052 -0.0625,-0.09375 0.0013,0.0023 -0.06395,-0.095977 -0.0625,-0.09375 0.0015,0.00223 -0.06407,-0.095895 -0.0625,-0.09375 0.0016,0.00215 -0.06418,-0.064557 -0.0625,-0.0625 0.0017,0.00206 -0.06429,-0.095714 -0.0625,-0.09375 0.0018,0.00196 -0.09565,-0.064364 -0.09375,-0.0625 0.0019,0.00186 -0.06449,-0.095509 -0.0625,-0.09375 0.002,0.00176 -0.09584,-0.064149 -0.09375,-0.0625 0.0021,0.00165 -0.09592,-0.064035 -0.09375,-0.0625 0.0022,0.00153 -0.096,-0.063915 -0.09375,-0.0625 0.0023,0.00142 -0.09607,-0.063792 -0.09375,-0.0625 0.0023,0.00129 -0.09614,-0.032415 -0.09375,-0.03125 0.0024,0.00117 -0.0962,-0.063535 -0.09375,-0.0625 0.0024,0.00103 -0.09625,-0.032151 -0.09375,-0.03125 0.0025,9.01e-4 -0.0963,-0.032015 -0.09375,-0.03125 0.0025,7.649e-4 -0.127584,-0.031877 -0.125,-0.03125 0.0026,6.266e-4 -0.09636,-0.031736 -0.09375,-0.03125 0.0026,4.864e-4 -0.09639,-3.449e-4 -0.09375,0 0.0026,3.449e-4 -0.127651,-0.031452 -0.125,-0.03125 0.0027,2.023e-4 -0.09641,-5.92e-5 -0.09375,0 0.0027,5.92e-5 -0.127658,8.41e-5 -0.125,0 0.0027,-8.41e-5 -0.0964,2.272e-4 -0.09375,0 z"
       id="path3995"
       style="opacity:0.1;fill:#000000;fill-opacity:1;stroke:none" />
    <path
       d="m 79.875,6.0625 a 0.93293399,0.93293399 0 0 0 -0.03125,0.03125 l -40,7 A 0.93293399,0.93293399 0 0 0 39.0625,14 l 0,48.40625 c -2.23251,-0.392605 -4.664497,-0.349837 -7.125,0.4375 -3.115973,0.997081 -5.634735,2.814824 -7.1875,5.03125 -1.552765,2.216426 -2.131269,4.874243 -1.25,7.34375 0.88146,2.470043 3.021842,4.234177 5.65625,5.09375 2.634408,0.859573 5.790858,0.840645 8.90625,-0.15625 5.115838,-1.637019 8.581953,-5.539869 8.75,-9.6875 A 0.93293399,0.93293399 0 0 0 46.9375,70 l 0,-39.21875 26.125,-4.6875 0,31.3125 c -2.23251,-0.392605 -4.664497,-0.349837 -7.125,0.4375 -3.115973,0.997081 -5.634735,2.814824 -7.1875,5.03125 -1.552765,2.216426 -2.131269,4.874243 -1.25,7.34375 0.88146,2.470043 3.021842,4.234177 5.65625,5.09375 2.634408,0.859573 5.790858,0.840645 8.90625,-0.15625 5.115838,-1.637019 8.581953,-5.539869 8.75,-9.6875 A 0.93293399,0.93293399 0 0 0 80.9375,65 l 0,-58 A 0.93293399,0.93293399 0 0 0 79.875,6.0625 z"
       id="path3991"
       style="opacity:0.15;fill:#000000;fill-opacity:1;stroke:none" />
    <path
       d="m 80,7 -40,7 0,49.4375 c -2.319276,-0.626158 -5.061972,-0.588893 -7.78125,0.28125 -5.876606,1.880457 -9.378262,6.887462 -7.84375,11.1875 1.534512,4.300038 7.529644,6.255457 13.40625,4.375 C 42.801019,77.674972 46.069487,73.780254 45.96875,70 L 46,70 46,30 74,25 74,58.4375 c -2.319276,-0.626158 -5.061972,-0.588893 -7.78125,0.28125 -5.876606,1.880457 -9.378262,6.887462 -7.84375,11.1875 1.534512,4.300038 7.529644,6.255457 13.40625,4.375 C 76.801019,72.674972 80.069487,68.780254 79.96875,65 L 80,65 80,7 z"
       inkscape:connector-curvature="0"
       id="path3987"
       style="opacity:0.3;fill:#000000;fill-opacity:1;stroke:none" />
    <path
       d="m 80,6 -40,7 0,49.4375 c -2.319276,-0.626158 -5.061972,-0.588893 -7.78125,0.28125 -5.876606,1.880457 -9.378262,6.887462 -7.84375,11.1875 1.534512,4.300038 7.529644,6.255457 13.40625,4.375 C 42.801019,76.674972 46.069487,72.780254 45.96875,69 L 46,69 46,29 74,24 74,57.4375 c -2.319276,-0.626158 -5.061972,-0.588893 -7.78125,0.28125 -5.876606,1.880457 -9.378262,6.887462 -7.84375,11.1875 1.534512,4.300038 7.529644,6.255457 13.40625,4.375 C 76.801019,71.674972 80.069487,67.780254 79.96875,64 L 80,64 80,6 z"
       inkscape:connector-curvature="0"
       id="path3011"
       style="fill:#0046b5;fill-opacity:1;stroke:none" />
    <path
       d="m -55,64 0,-56 41,-7 0,56 -6,0 0,-38 -29,5 0,40 -6,0 z"
       inkscape:connector-curvature="0"
       id="path3789"
       style="fill:#0000ff;stroke:none" />
    <path
       d="m 51,65 a 11,8 0 1 1 -22,0 11,8 0 1 1 22,0 z"
       transform="matrix(0.9673215,-0.30953355,0.34730992,0.97323843,-121.26801,14.620844)"
       id="path3791"
       style="opacity:0.73593074;color:#000000;fill:#0000ff;fill-opacity:1;fill-rule:nonzero;stroke:none;stroke-width:1.5;marker:none;visibility:visible;display:inline;overflow:visible;enable-background:accumulate" />
    <path
       d="m 51,65 a 11,8 0 1 1 -22,0 11,8 0 1 1 22,0 z"
       transform="matrix(0.9673215,-0.30953355,0.34730992,0.97323843,-86.268005,9.620844)"
       id="path3793"
       style="opacity:0.73593074;color:#000000;fill:#0000ff;fill-opacity:1;fill-rule:nonzero;stroke:none;stroke-width:1.5;marker:none;visibility:visible;display:inline;overflow:visible;enable-background:accumulate" />
    <path
       d="M 42,16 42,29 78,22 78,9 42,16 z"
       inkscape:connector-curvature="0"
       id="path3796"
       style="fill:url(#radialGradient3887);fill-opacity:1;stroke:none;filter:url(#filter3810)" />
    <path
       d="m 79,8 -38,7 0,47.75 c 0.722607,0.272294 1.402627,0.590247 2,1 L 43,30 c 0,-4 0.417188,-5.500626 4,-7 10.867162,-4.547809 27,-2 32,-15 z"
       inkscape:connector-curvature="0"
       id="path3814"
       style="fill:url(#radialGradient3839);fill-opacity:1;stroke:none" />
    <path
       d="M 80,6 77,6.53125 77,70.25 C 78.916539,68.443002 80.027571,66.207324 79.96875,64 L 80,64 80,6 z"
       inkscape:connector-curvature="0"
       id="path3850"
       style="fill:url(#linearGradient3866);fill-opacity:1;stroke:none" />
    <path
       d="m 40,13 1,2 38,-7 1,-2 -40,7 z"
       inkscape:connector-curvature="0"
       id="path3826"
       style="fill:url(#linearGradient3834);fill-opacity:1;stroke:none" />
    <path
       d="M 77.0625,23.4375 75,23.78125 75,57.75 c 0.722607,0.272294 1.402627,0.590247 2,1 L 77,25 c 0,-0.579491 0.03663,-1.080328 0.0625,-1.5625 z"
       inkscape:connector-curvature="0"
       id="path3841"
       style="fill:url(#radialGradient3848);fill-opacity:1;stroke:none" />
    <path
       d="M 46,29 43,29.53125 43,75.25 C 44.916539,73.443002 46.027571,71.207324 45.96875,69 L 46,69 46,29 z"
       inkscape:connector-curvature="0"
       id="path3870"
       style="fill:url(#radialGradient3877);fill-opacity:1;stroke:none" />
    <path
       d="m 51,65 a 11,8 0 1 1 -22,0 11,8 0 1 1 22,0 z"
       transform="matrix(0.9673215,-0.30953355,0.34730992,0.97323843,-26.26801,19.620844)"
       id="path3906"
       style="color:#000000;fill:url(#radialGradient3964);fill-opacity:1;fill-rule:nonzero;stroke:none;stroke-width:1.5;marker:none;visibility:visible;display:inline;overflow:visible;enable-background:accumulate" />
    <path
       d="m 36.59375,62 c -1.413615,0.01337 -2.905848,0.248636 -4.375,0.71875 -5.876606,1.880457 -9.378262,6.887462 -7.84375,11.1875 1.534512,4.300038 7.529644,6.255457 13.40625,4.375 5.876606,-1.880457 9.378262,-6.887462 7.84375,-11.1875 C 44.474116,63.868722 40.834595,61.959906 36.59375,62 z m 0.09375,1.84375 c 1.225586,-0.01097 2.347709,0.174813 3.34375,0.5 1.992081,0.650375 3.312347,1.823394 3.84375,3.3125 0.531403,1.489106 0.260889,3.182456 -0.90625,4.84375 -1.167139,1.661294 -3.221645,3.202202 -5.8125,4.03125 -2.590855,0.829048 -5.195419,0.775375 -7.1875,0.125 -1.992081,-0.650375 -3.312347,-1.823394 -3.84375,-3.3125 -0.531403,-1.489106 -0.260889,-3.182456 0.90625,-4.84375 1.167139,-1.661294 3.221645,-3.202202 5.8125,-4.03125 1.295427,-0.414524 2.618164,-0.614034 3.84375,-0.625 z"
       inkscape:connector-curvature="0"
       id="path3927"
       style="opacity:0.2;color:#000000;fill:url(#linearGradient3948);fill-opacity:1;fill-rule:nonzero;stroke:none;stroke-width:1.5;marker:none;visibility:visible;display:inline;overflow:visible;enable-background:accumulate" />
    <path
       d="m 36.59375,62 c -1.413615,0.01337 -2.905848,0.248636 -4.375,0.71875 -5.876606,1.880457 -9.378262,6.887462 -7.84375,11.1875 1.534512,4.300038 7.529644,6.255457 13.40625,4.375 5.876606,-1.880457 9.378262,-6.887462 7.84375,-11.1875 C 44.474116,63.868722 40.834595,61.959906 36.59375,62 z m 0.03125,1.03125 c 1.308148,-0.01099 2.561427,0.173812 3.65625,0.53125 2.189647,0.714875 3.768044,2.055356 4.40625,3.84375 0.638206,1.788394 0.220391,3.767696 -1.0625,5.59375 -1.282891,1.826054 -3.439308,3.433105 -6.1875,4.3125 -2.748192,0.879395 -5.529103,0.839875 -7.71875,0.125 C 27.529103,76.722625 25.950706,75.382144 25.3125,73.59375 24.674294,71.805356 25.092109,69.826054 26.375,68 c 1.282891,-1.826054 3.439308,-3.433105 6.1875,-4.3125 1.374096,-0.439698 2.754352,-0.645258 4.0625,-0.65625 z"
       inkscape:connector-curvature="0"
       id="path3920"
       style="opacity:0.5;color:#000000;fill:url(#linearGradient3940);fill-opacity:1;fill-rule:nonzero;stroke:none;stroke-width:1.5;marker:none;visibility:visible;display:inline;overflow:visible;enable-background:accumulate" />
    <path
       d="m 40,65 c 1.220869,2.476881 -1.444191,5.171368 -5.407201,7.124758 -3.96301,1.95339 -7.723258,2.425975 -8.944127,-0.05091 -1.220869,-2.476881 1.002075,-6.068326 4.965085,-8.021716 3.96301,-1.95339 8.165374,-1.529017 9.386243,0.947864 z"
       inkscape:connector-curvature="0"
       id="path3891"
       style="color:#000000;fill:url(#linearGradient3900);fill-opacity:1;fill-rule:nonzero;stroke:none;stroke-width:1.5;marker:none;visibility:visible;display:inline;overflow:visible;enable-background:accumulate" />
    <path
       d="m 51,65 a 11,8 0 1 1 -22,0 11,8 0 1 1 22,0 z"
       transform="matrix(0.9673215,-0.30953355,0.34730992,0.97323843,7.73199,14.620844)"
       id="path3966"
       style="color:#000000;fill:url(#radialGradient3974);fill-opacity:1;fill-rule:nonzero;stroke:none;stroke-width:1.5;marker:none;visibility:visible;display:inline;overflow:visible;enable-background:accumulate" />
    <path
       d="m 70.59375,57 c -1.413615,0.01337 -2.905848,0.248636 -4.375,0.71875 -5.876606,1.880457 -9.378262,6.887462 -7.84375,11.1875 1.534512,4.300038 7.529644,6.255457 13.40625,4.375 5.876606,-1.880457 9.378262,-6.887462 7.84375,-11.1875 C 78.474116,58.868722 74.834595,56.959906 70.59375,57 z m 0.09375,1.84375 c 1.225586,-0.01097 2.347709,0.174813 3.34375,0.5 1.992081,0.650375 3.312347,1.823394 3.84375,3.3125 0.531403,1.489106 0.260889,3.182456 -0.90625,4.84375 -1.167139,1.661294 -3.221645,3.202202 -5.8125,4.03125 -2.590855,0.829048 -5.195419,0.775375 -7.1875,0.125 -1.992081,-0.650375 -3.312347,-1.823394 -3.84375,-3.3125 -0.531403,-1.489106 -0.260889,-3.182456 0.90625,-4.84375 1.167139,-1.661294 3.221645,-3.202202 5.8125,-4.03125 1.295427,-0.414524 2.618164,-0.614034 3.84375,-0.625 z"
       inkscape:connector-curvature="0"
       id="path3968"
       style="opacity:0.2;color:#000000;fill:url(#linearGradient3976);fill-opacity:1;fill-rule:nonzero;stroke:none;stroke-width:1.5;marker:none;visibility:visible;display:inline;overflow:visible;enable-background:accumulate" />
    <path
       d="m 70.59375,57 c -1.413615,0.01337 -2.905848,0.248636 -4.375,0.71875 -5.876606,1.880457 -9.378262,6.887462 -7.84375,11.1875 1.534512,4.300038 7.529644,6.255457 13.40625,4.375 5.876606,-1.880457 9.378262,-6.887462 7.84375,-11.1875 C 78.474116,58.868722 74.834595,56.959906 70.59375,57 z m 0.03125,1.03125 c 1.308148,-0.01099 2.561427,0.173812 3.65625,0.53125 2.189647,0.714875 3.768044,2.055356 4.40625,3.84375 0.638206,1.788394 0.220391,3.767696 -1.0625,5.59375 -1.282891,1.826054 -3.439308,3.433105 -6.1875,4.3125 -2.748192,0.879395 -5.529103,0.839875 -7.71875,0.125 C 61.529103,71.722625 59.950706,70.382144 59.3125,68.59375 58.674294,66.805356 59.092109,64.826054 60.375,63 c 1.282891,-1.826054 3.439308,-3.433105 6.1875,-4.3125 1.374096,-0.439698 2.754352,-0.645258 4.0625,-0.65625 z"
       inkscape:connector-curvature="0"
       id="path3970"
       style="opacity:0.5;color:#000000;fill:url(#linearGradient3978);fill-opacity:1;fill-rule:nonzero;stroke:none;stroke-width:1.5;marker:none;visibility:visible;display:inline;overflow:visible;enable-background:accumulate" />
    <path
       d="m 74,60 c 1.220869,2.476881 -1.444191,5.171368 -5.407201,7.124758 -3.96301,1.95339 -7.723258,2.425975 -8.944127,-0.05091 -1.220869,-2.476881 1.002075,-6.068326 4.965085,-8.021716 3.96301,-1.95339 8.165374,-1.529017 9.386243,0.947864 z"
       inkscape:connector-curvature="0"
       id="path3972"
       style="color:#000000;fill:url(#linearGradient3980);fill-opacity:1;fill-rule:nonzero;stroke:none;stroke-width:1.5;marker:none;visibility:visible;display:inline;overflow:visible;enable-background:accumulate" />
  </g>
</svg>
