<?xml version="1.0" encoding="UTF-8" standalone="no"?>
<!-- Created with Inkscape (http://www.inkscape.org/) -->

<svg
   xmlns:dc="http://purl.org/dc/elements/1.1/"
   xmlns:cc="http://creativecommons.org/ns#"
   xmlns:rdf="http://www.w3.org/1999/02/22-rdf-syntax-ns#"
   xmlns:svg="http://www.w3.org/2000/svg"
   xmlns="http://www.w3.org/2000/svg"
   xmlns:xlink="http://www.w3.org/1999/xlink"
   xmlns:inkscape="http://www.inkscape.org/namespaces/inkscape"
   version="1.0"
   width="96"
   height="96"
   id="svg2408">
  <defs
     id="defs2410">
    <linearGradient
       x1="56.015255"
       y1="68.026726"
       x2="37.193569"
       y2="97.901985"
       id="linearGradient4782"
       xlink:href="#linearGradient4094"
       gradientUnits="userSpaceOnUse"
       gradientTransform="matrix(-1.0177913,0,0,1.0177913,133.74861,4.4965565)" />
    <linearGradient
       x1="24.925514"
       y1="33.645439"
       x2="28.019104"
       y2="37.622913"
       id="linearGradient4687"
       xlink:href="#linearGradient4317"
       gradientUnits="userSpaceOnUse"
       gradientTransform="matrix(1.0177913,0,0,1.0177913,21.372171,-13.945426)" />
    <linearGradient
       x1="26.339727"
       y1="31.524118"
       x2="32.261745"
       y2="36.031921"
       id="linearGradient4690"
       xlink:href="#linearGradient4317"
       gradientUnits="userSpaceOnUse"
       gradientTransform="matrix(1.0177913,0,0,1.0177913,9.4973334,-5.2192195)" />
    <linearGradient
       id="linearGradient4317">
      <stop
         id="stop4319"
         style="stop-color:#ffffff;stop-opacity:1"
         offset="0" />
      <stop
         id="stop4321"
         style="stop-color:#ffffff;stop-opacity:0"
         offset="1" />
    </linearGradient>
    <linearGradient
       x1="24.660349"
       y1="34"
       x2="28.461048"
       y2="35.413204"
       id="linearGradient4693"
       xlink:href="#linearGradient4317"
       gradientUnits="userSpaceOnUse"
       gradientTransform="matrix(1.0177913,0,0,1.0177913,2.9301883,5.2162436)" />
    <filter
       x="-0.25841761"
       y="-0.22403301"
       width="1.5168352"
       height="1.448066"
       color-interpolation-filters="sRGB"
       id="filter4293">
      <feGaussianBlur
         id="feGaussianBlur4295"
         stdDeviation="0.66787627" />
    </filter>
    <linearGradient
       x1="74.875"
       y1="38.941628"
       x2="84.097275"
       y2="35.58287"
       id="linearGradient4785"
       xlink:href="#linearGradient4335"
       gradientUnits="userSpaceOnUse"
       gradientTransform="matrix(1.0177913,0,0,1.0177913,2.9301883,5.2162436)" />
    <linearGradient
       x1="74.875"
       y1="38.941628"
       x2="84.097275"
       y2="35.58287"
       id="linearGradient4788"
       xlink:href="#linearGradient4335"
       gradientUnits="userSpaceOnUse"
       gradientTransform="matrix(1.0359658,-0.2095277,0.2102969,1.0321767,-11.315463,15.897641)" />
    <linearGradient
       x1="74.875"
       y1="38.941628"
       x2="83.12838"
       y2="35.639385"
       id="linearGradient4791"
       xlink:href="#linearGradient4335"
       gradientUnits="userSpaceOnUse"
       gradientTransform="matrix(0.870556,-0.5993824,0.5986024,0.8667691,-18.098778,48.048534)" />
    <linearGradient
       x1="74.875"
       y1="38.941628"
       x2="83.12838"
       y2="35.639385"
       id="linearGradient4794"
       xlink:href="#linearGradient4335"
       gradientUnits="userSpaceOnUse"
       gradientTransform="matrix(0.6020138,-0.8687384,0.8666683,0.5987482,-14.87273,77.784666)" />
    <linearGradient
       x1="74.875"
       y1="38.941628"
       x2="83.12838"
       y2="35.639385"
       id="linearGradient4797"
       xlink:href="#linearGradient4335"
       gradientUnits="userSpaceOnUse"
       gradientTransform="matrix(0.1328041,-1.0485657,1.0452216,0.1308634,6.6609683,111.57944)" />
    <linearGradient
       x1="74.875"
       y1="38.941628"
       x2="83.12838"
       y2="35.639385"
       id="linearGradient4800"
       xlink:href="#linearGradient4335"
       gradientUnits="userSpaceOnUse"
       gradientTransform="matrix(0.06293301,-1.0550671,1.0516015,0.06121857,6.5515999,120.21699)" />
    <linearGradient
       x1="74.875"
       y1="38.941628"
       x2="80.838478"
       y2="30.054878"
       id="linearGradient4803"
       xlink:href="#linearGradient4335"
       gradientUnits="userSpaceOnUse"
       gradientTransform="matrix(-0.04092508,-1.2858808,1.2925499,-0.04226923,3.3952895,148.83218)" />
    <linearGradient
       id="linearGradient4094">
      <stop
         id="stop4096"
         style="stop-color:#fbf0e6;stop-opacity:1"
         offset="0" />
      <stop
         id="stop4098"
         style="stop-color:#ffffff;stop-opacity:0"
         offset="1" />
    </linearGradient>
    <radialGradient
       cx="78.875"
       cy="92.75"
       r="17.625"
       fx="78.875"
       fy="92.75"
       id="radialGradient4610"
       xlink:href="#linearGradient4094"
       gradientUnits="userSpaceOnUse"
       gradientTransform="matrix(1,0,0,0.4255319,0,53.281915)" />
    <linearGradient
       id="linearGradient4335">
      <stop
         id="stop4337"
         style="stop-color:#7c420f;stop-opacity:1"
         offset="0" />
      <stop
         id="stop4339"
         style="stop-color:#7d430f;stop-opacity:0"
         offset="1" />
    </linearGradient>
    <linearGradient
       x1="73.539108"
       y1="63.533749"
       x2="88.211571"
       y2="72.195808"
       id="linearGradient4807"
       xlink:href="#linearGradient4335"
       gradientUnits="userSpaceOnUse"
       gradientTransform="matrix(1.0177913,0,0,1.0177913,2.9301883,5.2162436)" />
    <linearGradient
       x1="32.374496"
       y1="39.800117"
       x2="42.445816"
       y2="70.567589"
       id="linearGradient4810"
       xlink:href="#linearGradient3373"
       gradientUnits="userSpaceOnUse"
       gradientTransform="matrix(0.2675639,-1.0297307,0.9819921,0.2805713,1.6225142,108.72502)" />
    <linearGradient
       x1="32.374496"
       y1="39.800117"
       x2="42.445816"
       y2="70.567589"
       id="linearGradient4813"
       xlink:href="#linearGradient3373"
       gradientUnits="userSpaceOnUse"
       gradientTransform="matrix(0.8042512,-0.623762,0.623762,0.8042512,-12.924723,55.730476)" />
    <linearGradient
       id="linearGradient3373">
      <stop
         id="stop3375"
         style="stop-color:#9b6638;stop-opacity:1"
         offset="0" />
      <stop
         id="stop3377"
         style="stop-color:#9b6638;stop-opacity:0"
         offset="1" />
    </linearGradient>
    <linearGradient
       x1="32.374496"
       y1="39.800117"
       x2="46.016384"
       y2="60.048954"
       id="linearGradient4816"
       xlink:href="#linearGradient3373"
       gradientUnits="userSpaceOnUse"
       gradientTransform="matrix(1.0086059,-0.1364298,0.1364298,1.0086059,-2.629451,15.439495)" />
    <linearGradient
       id="linearGradient4383">
      <stop
         id="stop4385"
         style="stop-color:#782c1b;stop-opacity:1"
         offset="0" />
      <stop
         id="stop3355"
         style="stop-color:#bb7d64;stop-opacity:1"
         offset="0.45161289" />
      <stop
         id="stop3357"
         style="stop-color:#d2b097;stop-opacity:1"
         offset="0.62851197" />
      <stop
         id="stop4387"
         style="stop-color:#fef5e3;stop-opacity:1"
         offset="1" />
    </linearGradient>
    <radialGradient
       cx="64.531677"
       cy="47.318687"
       r="41.920063"
       fx="64.531677"
       fy="47.318687"
       id="radialGradient4819"
       xlink:href="#linearGradient4383"
       gradientUnits="userSpaceOnUse"
       gradientTransform="matrix(-1.0177913,0,0,1.120023,133.74861,-1.4789474)" />
    <linearGradient
       id="linearGradient3187">
      <stop
         id="stop3189"
         style="stop-color:#a77549;stop-opacity:1"
         offset="0" />
      <stop
         id="stop3191"
         style="stop-color:#d2b397;stop-opacity:1"
         offset="1" />
    </linearGradient>
    <linearGradient
       x1="45.447727"
       y1="92.539597"
       x2="45.447727"
       y2="7.0165396"
       id="ButtonShadow"
       gradientUnits="userSpaceOnUse"
       gradientTransform="scale(1.0058652,0.994169)">
      <stop
         id="stop3750"
         style="stop-color:#000000;stop-opacity:1"
         offset="0" />
      <stop
         id="stop3752"
         style="stop-color:#000000;stop-opacity:0.58823532"
         offset="1" />
    </linearGradient>
    <linearGradient
       id="linearGradient3737">
      <stop
         id="stop3739"
         style="stop-color:#ffffff;stop-opacity:1"
         offset="0" />
      <stop
         id="stop3741"
         style="stop-color:#ffffff;stop-opacity:0"
         offset="1" />
    </linearGradient>
    <linearGradient
       x1="48"
       y1="90"
       x2="48"
       y2="5.9877172"
       id="linearGradient3706"
       xlink:href="#linearGradient3187"
       gradientUnits="userSpaceOnUse" />
    <filter
       color-interpolation-filters="sRGB"
       id="filter3174">
      <feGaussianBlur
         id="feGaussianBlur3176"
         stdDeviation="1.71" />
    </filter>
    <linearGradient
       x1="36.357143"
       y1="6"
       x2="36.357143"
       y2="63.893143"
       id="linearGradient3188"
       xlink:href="#linearGradient3737"
       gradientUnits="userSpaceOnUse" />
    <linearGradient
       id="linearGradient3737-6">
      <stop
         id="stop3739-1"
         style="stop-color:#ffffff;stop-opacity:1"
         offset="0" />
      <stop
         id="stop3741-5"
         style="stop-color:#ffffff;stop-opacity:0"
         offset="1" />
    </linearGradient>
    <radialGradient
       cx="48"
       cy="90.171875"
       r="42"
       fx="48"
       fy="90.171875"
       id="radialGradient2874"
       xlink:href="#linearGradient3737-6"
       gradientUnits="userSpaceOnUse"
       gradientTransform="matrix(1.1573129,0,0,0.99590774,-7.551021,0.1971319)" />
    <linearGradient
       id="linearGradient3737-1">
      <stop
         id="stop3739-5"
         style="stop-color:#ffffff;stop-opacity:1"
         offset="0" />
      <stop
         id="stop3741-9"
         style="stop-color:#ffffff;stop-opacity:0"
         offset="1" />
    </linearGradient>
    <clipPath
       id="clipPath3613">
      <rect
         width="84"
         height="84"
         rx="6"
         ry="6"
         x="6"
         y="6"
         id="rect3615"
         style="fill:#ffffff;fill-opacity:1;fill-rule:nonzero;stroke:none" />
    </clipPath>
    <filter
       x="-0.192"
       y="-0.192"
       width="1.3839999"
       height="1.3839999"
       color-interpolation-filters="sRGB"
       id="filter3794-4">
      <feGaussianBlur
         id="feGaussianBlur3796-9"
         stdDeviation="5.28" />
    </filter>
    <linearGradient
       x1="48"
       y1="20.220806"
       x2="48"
       y2="138.66119"
       id="linearGradient2908"
       xlink:href="#linearGradient3737-1"
       gradientUnits="userSpaceOnUse" />
    <linearGradient
       x1="45.447727"
       y1="92.539597"
       x2="45.447727"
       y2="7.0165396"
       id="ButtonShadow-0"
       gradientUnits="userSpaceOnUse"
       gradientTransform="matrix(1.0058652,0,0,0.994169,100,0)">
      <stop
         id="stop3750-8"
         style="stop-color:#000000;stop-opacity:1"
         offset="0" />
      <stop
         id="stop3752-5"
         style="stop-color:#000000;stop-opacity:0.58823532"
         offset="1" />
    </linearGradient>
    <linearGradient
       x1="32.251034"
       y1="6.1317081"
       x2="32.251034"
       y2="90.238609"
       id="linearGradient3780"
       xlink:href="#ButtonShadow-0"
       gradientUnits="userSpaceOnUse"
       gradientTransform="matrix(1.0238095,0,0,1.0119048,-1.1428571,-98.071429)" />
    <linearGradient
       x1="32.251034"
       y1="6.1317081"
       x2="32.251034"
       y2="90.238609"
       id="linearGradient3772"
       xlink:href="#ButtonShadow-0"
       gradientUnits="userSpaceOnUse"
       gradientTransform="matrix(1.0238095,0,0,1.0119048,-1.1428571,-98.071429)" />
    <linearGradient
       x1="32.251034"
       y1="6.1317081"
       x2="32.251034"
       y2="90.238609"
       id="linearGradient3725"
       xlink:href="#ButtonShadow-0"
       gradientUnits="userSpaceOnUse"
       gradientTransform="matrix(1.0238095,0,0,1.0119048,-1.1428571,-98.071429)" />
    <linearGradient
       x1="32.251034"
       y1="6.1317081"
       x2="32.251034"
       y2="90.238609"
       id="linearGradient3721"
       xlink:href="#ButtonShadow-0"
       gradientUnits="userSpaceOnUse"
       gradientTransform="translate(0,-97)" />
    <linearGradient
       x1="32.251034"
       y1="6.1317081"
       x2="32.251034"
       y2="90.238609"
       id="linearGradient3071"
       xlink:href="#ButtonShadow-0"
       gradientUnits="userSpaceOnUse"
       gradientTransform="matrix(1.0238095,0,0,1.0119048,-1.1428571,-98.071429)" />
  </defs>
  <metadata
     id="metadata2413">
    <rdf:RDF>
      <cc:Work
         rdf:about="">
        <dc:format>image/svg+xml</dc:format>
        <dc:type
           rdf:resource="http://purl.org/dc/dcmitype/StillImage" />
      </cc:Work>
    </rdf:RDF>
  </metadata>
  <g
     id="layer2"
     style="display:none">
    <rect
       width="86"
       height="85"
       rx="6"
       ry="6"
       x="5"
       y="7"
       id="rect3745"
       style="opacity:0.9;fill:url(#ButtonShadow);fill-opacity:1;fill-rule:nonzero;stroke:none;filter:url(#filter3174)" />
  </g>
  <g
     id="layer5"
     style="display:inline">
    <path
       d="m 12,-95.03125 c -5.5110903,0 -10.03125,4.52016 -10.03125,10.03125 l 0,71 c 0,5.5110902 4.5201598,10.03125 10.03125,10.03125 l 72,0 c 5.51109,0 10.03125,-4.5201597 10.03125,-10.03125 l 0,-71 c 0,-5.51109 -4.52016,-10.03125 -10.03125,-10.03125 l -72,0 z"
       transform="scale(1,-1)"
       id="path3786"
       style="opacity:0.07999998;fill:url(#linearGradient3071);fill-opacity:1;fill-rule:nonzero;stroke:none;display:inline" />
    <path
       d="m 12,-94.03125 c -4.971633,0 -9.03125,4.059617 -9.03125,9.03125 l 0,71 c 0,4.9716329 4.0596171,9.03125 9.03125,9.03125 l 72,0 c 4.971633,0 9.03125,-4.059617 9.03125,-9.03125 l 0,-71 c 0,-4.971633 -4.059617,-9.03125 -9.03125,-9.03125 l -72,0 z"
       transform="scale(1,-1)"
       id="path3778"
       style="opacity:0.1;fill:url(#linearGradient3780);fill-opacity:1;fill-rule:nonzero;stroke:none;display:inline" />
    <path
       d="m 12,-93 c -4.4091333,0 -8,3.590867 -8,8 l 0,71 c 0,4.4091333 3.5908667,8 8,8 l 72,0 c 4.409133,0 8,-3.5908667 8,-8 l 0,-71 c 0,-4.409133 -3.590867,-8 -8,-8 l -72,0 z"
       transform="scale(1,-1)"
       id="path3770"
       style="opacity:0.2;fill:url(#linearGradient3772);fill-opacity:1;fill-rule:nonzero;stroke:none;display:inline" />
    <rect
       width="86"
       height="85"
       rx="7"
       ry="7"
       x="5"
       y="-92"
       transform="scale(1,-1)"
       id="rect3723"
       style="opacity:0.3;fill:url(#linearGradient3725);fill-opacity:1;fill-rule:nonzero;stroke:none;display:inline" />
    <rect
       width="84"
       height="84"
       rx="6"
       ry="6"
       x="6"
       y="-91"
       transform="scale(1,-1)"
       id="rect3716"
       style="opacity:0.45;fill:url(#linearGradient3721);fill-opacity:1;fill-rule:nonzero;stroke:none;display:inline" />
  </g>
  <g
     id="layer1"
     style="display:inline">
    <rect
       width="84"
       height="84"
       rx="6"
       ry="6"
       x="6"
       y="6"
       id="rect2419"
       style="fill:url(#linearGradient3706);fill-opacity:1;fill-rule:nonzero;stroke:none" />
    <path
       d="M 12,6 C 8.676,6 6,8.676 6,12 l 0,2 0,68 0,2 c 0,0.334721 0.04135,0.6507 0.09375,0.96875 0.0487,0.295596 0.09704,0.596915 0.1875,0.875 0.00988,0.03038 0.020892,0.0636 0.03125,0.09375 0.098865,0.287771 0.2348802,0.547452 0.375,0.8125 0.1445918,0.273507 0.3156161,0.535615 0.5,0.78125 0.1843839,0.245635 0.3737765,0.473472 0.59375,0.6875 0.439947,0.428056 0.94291,0.814526 1.5,1.09375 0.278545,0.139612 0.5734731,0.246947 0.875,0.34375 -0.2562018,-0.100222 -0.4867109,-0.236272 -0.71875,-0.375 -0.00741,-0.0044 -0.023866,0.0045 -0.03125,0 -0.031933,-0.0193 -0.062293,-0.04251 -0.09375,-0.0625 -0.120395,-0.0767 -0.2310226,-0.163513 -0.34375,-0.25 -0.1061728,-0.0808 -0.2132809,-0.161112 -0.3125,-0.25 C 8.4783201,88.557317 8.3087904,88.373362 8.15625,88.1875 8.0486711,88.057245 7.9378561,87.922215 7.84375,87.78125 7.818661,87.74287 7.805304,87.69538 7.78125,87.65625 7.716487,87.553218 7.6510225,87.451733 7.59375,87.34375 7.4927417,87.149044 7.3880752,86.928049 7.3125,86.71875 7.30454,86.69694 7.288911,86.6782 7.28125,86.65625 7.2494249,86.5643 7.2454455,86.469419 7.21875,86.375 7.1884177,86.268382 7.1483606,86.171969 7.125,86.0625 7.0521214,85.720988 7,85.364295 7,85 L 7,83 7,15 7,13 C 7,10.218152 9.2181517,8 12,8 l 2,0 68,0 2,0 c 2.781848,0 5,2.218152 5,5 l 0,2 0,68 0,2 c 0,0.364295 -0.05212,0.720988 -0.125,1.0625 -0.04415,0.206893 -0.08838,0.397658 -0.15625,0.59375 -0.0077,0.02195 -0.0233,0.04069 -0.03125,0.0625 -0.06274,0.173739 -0.138383,0.367449 -0.21875,0.53125 -0.04158,0.0828 -0.07904,0.169954 -0.125,0.25 -0.0546,0.09721 -0.126774,0.18835 -0.1875,0.28125 -0.09411,0.140965 -0.204921,0.275995 -0.3125,0.40625 -0.143174,0.17445 -0.303141,0.346998 -0.46875,0.5 -0.01117,0.0102 -0.01998,0.02115 -0.03125,0.03125 -0.138386,0.125556 -0.285091,0.234436 -0.4375,0.34375 -0.102571,0.07315 -0.204318,0.153364 -0.3125,0.21875 -0.0074,0.0045 -0.02384,-0.0044 -0.03125,0 -0.232039,0.138728 -0.462548,0.274778 -0.71875,0.375 0.301527,-0.0968 0.596455,-0.204138 0.875,-0.34375 0.55709,-0.279224 1.060053,-0.665694 1.5,-1.09375 0.219973,-0.214028 0.409366,-0.441865 0.59375,-0.6875 0.184384,-0.245635 0.355408,-0.507743 0.5,-0.78125 0.14012,-0.265048 0.276135,-0.524729 0.375,-0.8125 0.01041,-0.03078 0.02133,-0.06274 0.03125,-0.09375 0.09046,-0.278085 0.1388,-0.579404 0.1875,-0.875 C 89.95865,84.6507 90,84.334721 90,84 l 0,-2 0,-68 0,-2 C 90,8.676 87.324,6 84,6 L 12,6 z"
       inkscape:connector-curvature="0"
       id="rect3728"
       style="opacity:0.4;fill:url(#linearGradient3188);fill-opacity:1;fill-rule:nonzero;stroke:none" />
    <path
       d="M 12,90 C 8.676,90 6,87.324 6,84 L 6,82 6,14 6,12 c 0,-0.334721 0.04135,-0.6507 0.09375,-0.96875 0.0487,-0.295596 0.09704,-0.596915 0.1875,-0.875 C 6.29113,10.12587 6.302142,10.09265 6.3125,10.0625 6.411365,9.774729 6.5473802,9.515048 6.6875,9.25 6.8320918,8.976493 7.0031161,8.714385 7.1875,8.46875 7.3718839,8.223115 7.5612765,7.995278 7.78125,7.78125 8.221197,7.353194 8.72416,6.966724 9.28125,6.6875 9.559795,6.547888 9.8547231,6.440553 10.15625,6.34375 9.9000482,6.443972 9.6695391,6.580022 9.4375,6.71875 c -0.00741,0.0044 -0.023866,-0.0045 -0.03125,0 -0.031933,0.0193 -0.062293,0.04251 -0.09375,0.0625 -0.120395,0.0767 -0.2310226,0.163513 -0.34375,0.25 -0.1061728,0.0808 -0.2132809,0.161112 -0.3125,0.25 C 8.4783201,7.442683 8.3087904,7.626638 8.15625,7.8125 8.0486711,7.942755 7.9378561,8.077785 7.84375,8.21875 7.818661,8.25713 7.805304,8.30462 7.78125,8.34375 7.716487,8.446782 7.6510225,8.548267 7.59375,8.65625 7.4927417,8.850956 7.3880752,9.071951 7.3125,9.28125 7.30454,9.30306 7.288911,9.3218 7.28125,9.34375 7.2494249,9.4357 7.2454455,9.530581 7.21875,9.625 7.1884177,9.731618 7.1483606,9.828031 7.125,9.9375 7.0521214,10.279012 7,10.635705 7,11 l 0,2 0,68 0,2 c 0,2.781848 2.2181517,5 5,5 l 2,0 68,0 2,0 c 2.781848,0 5,-2.218152 5,-5 l 0,-2 0,-68 0,-2 C 89,10.635705 88.94788,10.279012 88.875,9.9375 88.83085,9.730607 88.78662,9.539842 88.71875,9.34375 88.71105,9.3218 88.69545,9.30306 88.6875,9.28125 88.62476,9.107511 88.549117,8.913801 88.46875,8.75 88.42717,8.6672 88.38971,8.580046 88.34375,8.5 88.28915,8.40279 88.216976,8.31165 88.15625,8.21875 88.06214,8.077785 87.951329,7.942755 87.84375,7.8125 87.700576,7.63805 87.540609,7.465502 87.375,7.3125 87.36383,7.3023 87.35502,7.29135 87.34375,7.28125 87.205364,7.155694 87.058659,7.046814 86.90625,6.9375 86.803679,6.86435 86.701932,6.784136 86.59375,6.71875 c -0.0074,-0.0045 -0.02384,0.0044 -0.03125,0 -0.232039,-0.138728 -0.462548,-0.274778 -0.71875,-0.375 0.301527,0.0968 0.596455,0.204138 0.875,0.34375 0.55709,0.279224 1.060053,0.665694 1.5,1.09375 0.219973,0.214028 0.409366,0.441865 0.59375,0.6875 0.184384,0.245635 0.355408,0.507743 0.5,0.78125 0.14012,0.265048 0.276135,0.524729 0.375,0.8125 0.01041,0.03078 0.02133,0.06274 0.03125,0.09375 0.09046,0.278085 0.1388,0.579404 0.1875,0.875 C 89.95865,11.3493 90,11.665279 90,12 l 0,2 0,68 0,2 c 0,3.324 -2.676,6 -6,6 l -72,0 z"
       inkscape:connector-curvature="0"
       id="path3615"
       style="opacity:0.25;fill:url(#radialGradient2874);fill-opacity:1;fill-rule:nonzero;stroke:none" />
  </g>
  <g
     id="layer4"
     style="display:inline">
    <rect
       width="66"
       height="66"
       rx="12"
       ry="12"
       x="15"
       y="15"
       clip-path="url(#clipPath3613)"
       id="rect3171"
       style="opacity:0.15;fill:url(#linearGradient2908);fill-opacity:1;fill-rule:nonzero;stroke:#ffffff;stroke-width:0.5;stroke-linecap:round;stroke-linejoin:miter;stroke-miterlimit:4;stroke-opacity:1;stroke-dasharray:none;stroke-dashoffset:0;filter:url(#filter3794-4)" />
  </g>
  <g
     id="layer3"
     style="display:inline">
    <path
       d="M 45.6875,10 C 32.787265,9.7449955 20.622674,18.383553 15.750874,30.180392 c -5.314424,11.406803 -4.597471,25.268127 1.687965,36.13735 5.29697,9.656689 14.694548,16.80284 25.322664,19.591421 12.89527,3.777877 27.219661,2.976648 39.457247,-2.596663 3.043648,-2.363793 1.009801,-6.16082 0.354182,-9.153578 C 80.264956,65.479132 75.307615,57.198524 67.955763,52.019381 66.9995,50.232391 71.578165,47.540388 71.85293,44.804753 77.965038,30.576691 67.267014,12.410877 52.001896,10.445274 49.904362,10.210204 47.804345,9.9530337 45.6875,10 z"
       inkscape:connector-curvature="0"
       id="path3768"
       style="opacity:0.05;fill:#280b0b;fill-opacity:1;fill-rule:nonzero;stroke:none;display:inline" />
    <path
       d="M 45.6875,11.03125 C 34.012484,10.870779 23.054022,17.973263 17.8125,28.25 c -0.0041,0.008 0.0041,0.02325 0,0.03125 -5.878608,10.817506 -6.260269,24.406145 -0.5625,35.40625 0.0039,0.008 -0.0039,0.02321 0,0.03125 4.420866,9.139646 12.313927,16.49158 21.9375,19.90625 13.499659,5.113819 29.018697,4.730298 42.25,-1.03125 a 1.0917761,1.0917761 0 0 0 0.25,-0.15625 c 0.585513,-0.481245 0.958357,-1.144154 1.09375,-1.78125 C 82.916643,80.019154 82.861132,79.420742 82.75,78.875 82.527736,77.783516 82.130854,76.823927 82.0625,76.25 A 1.0917761,1.0917761 0 0 0 82.03125,76.125 C 79.949101,67.442979 75.538475,58.963791 68.125,53.5 c -0.04325,-0.04353 -0.08028,-0.05157 -0.125,-0.09375 -0.901529,-0.850422 -2.080808,-1.461434 -2.53125,-1.875 0.01563,0.01266 -0.02397,0.01234 0.46875,-0.21875 a 1.0917761,1.0917761 0 0 0 0.25,-0.1875 C 72.657716,45.293814 74.160592,35.623025 71,27.78125 c -0.0031,-0.0087 0.0031,-0.02253 0,-0.03125 -3.052761,-8.536936 -10.752782,-15.557533 -20.0625,-16.375 -0.02057,-0.0028 -0.04193,0.0028 -0.0625,0 -1.71491,-0.234381 -3.442668,-0.359535 -5.1875,-0.34375 z"
       id="path3764"
       style="opacity:0.1;fill:#280b0b;fill-opacity:1;fill-rule:nonzero;stroke:none;display:inline" />
    <path
       d="M 45.673392,12.117328 C 34.445276,11.963 23.822258,18.87372 18.773838,28.793464 13.052481,39.302346 12.668335,52.540911 18.204574,63.207593 22.500729,72.104818 30.220939,79.271178 39.564216,82.586392 52.78731,87.595445 68.029844,87.25206 80.989479,81.608809 82.635863,80.255614 81.16769,78.028893 80.969045,76.361002 78.919492,67.814898 74.569421,59.538448 67.350914,54.276379 66.009437,52.92595 62.313802,51.795626 65.468296,50.316146 71.558612,44.827339 73.016759,35.585207 70.00456,28.142355 67.088183,19.943486 59.629864,13.210061 50.774516,12.459177 49.085118,12.225693 47.37897,12.101898 45.673392,12.117328 z"
       inkscape:connector-curvature="0"
       id="path3752"
       style="opacity:0.2;fill:#280b0b;fill-opacity:1;fill-rule:nonzero;stroke:none;display:inline" />
    <path
       d="M 61.78125,15.8125 C 39.852535,16.010764 24.702939,32.66727 21.5,54.15625 c -3.126799,20.978163 9.530136,40.125495 22.09375,48.125 17.33432,11.03711 42.573079,13.35472 64.4375,4.34375 A 1.2167828,1.2167828 0 0 0 108.75,105.25 C 103.32847,79.8738 93.255603,74.58476 83.8125,67.4375 88.210258,64.567774 91.876779,60.213525 93.84375,54.28125 96.210078,47.144539 94.829277,38.658689 90.8125,31.5 86.795723,24.341311 80.087619,18.471131 71.5625,16.78125 68.183562,16.113743 64.917958,15.78414 61.78125,15.8125 z"
       transform="matrix(0.7449669,0,0,0.7449669,-0.3515942,1.4317093)"
       id="path3511"
       style="opacity:0.4;fill:#280b0b;fill-opacity:1;fill-rule:nonzero;stroke:none;display:inline" />
    <g
       transform="matrix(0.7449669,0,0,0.7449669,-0.3515942,0.3088654)"
       id="g4922"
       style="display:inline">
      <path
         d="m 68.627834,51.588238 c -0.351035,-3.350795 1.634311,-3.141899 0.677904,-3.929722 -1.927455,-1.587707 -5.49783,0.0014 -6.416327,1.922361 -1.642975,3.436088 0.868733,7.234227 4.288135,8.14146 3.263073,0.865756 7.76403,-1.42849 9.205997,-6.16232 1.921915,-6.30945 -1.084173,-11.092999 -7.226856,-12.75666 -7.729939,-2.093548 -14.945885,2.504988 -16.822686,10.057833 -2.273059,9.147507 4.440347,18.680906 13.404169,20.76597 5.281777,1.228588 10.961146,0.493827 15.850171,-2.14672 C 86.477366,64.839892 90.576184,60.293605 92.69645,53.899002 97.155604,40.450445 87.546816,21.177008 71.315749,17.959626 44.870138,12.735313 26.289787,30.310548 22.706877,54.348803 19.667528,74.74025 32.122864,93.518336 44.250115,101.24 c 16.945823,10.78975 41.82555,13.10951 63.315025,4.25307 C 99.36591,67.115477 81.293783,76.586773 68.627834,51.588238 z"
         inkscape:connector-curvature="0"
         id="path4084"
         style="fill:url(#radialGradient4819);fill-opacity:1;fill-rule:nonzero;stroke:none;display:inline" />
      <path
         d="m 27.201156,63.23419 c 0.729961,11.788644 6.343335,28.491546 17.86159,28.177906 C 54.27269,91.161311 62.636311,74.9347 56.908598,70.632349 49.891597,65.361554 50.455093,59.276721 47.943329,55.079865 42.903952,46.659667 26.444419,51.013153 27.201156,63.23419 z"
         inkscape:connector-curvature="0"
         id="path4395"
         style="opacity:0.35;fill:url(#linearGradient4816);fill-opacity:1;fill-rule:evenodd;stroke:none;display:inline" />
      <path
         d="m 36.08629,85.051916 c 6.54247,9.83367 19.774167,23.760674 29.582639,17.713984 7.842809,-4.834908 7.706335,-28.284119 0.593423,-29.134653 C 57.548348,72.589259 54.984919,67.042048 50.70738,64.670292 42.125311,59.911812 29.303848,74.857562 36.08629,85.051916 z"
         inkscape:connector-curvature="0"
         id="path4411"
         style="opacity:0.25;fill:url(#linearGradient4813);fill-opacity:1;fill-rule:evenodd;stroke:none;display:inline" />
      <path
         d="m 58.414543,102.39051 c 10.929955,4.6448 30.087193,7.44058 34.288699,-3.810221 C 96.062744,89.5842 81.854001,70.022678 75.659132,73.794848 68.069819,78.416122 62.68609,75.384524 57.842088,76.094346 48.123516,77.518465 39.995325,94.563063 58.414543,102.39051 z"
         inkscape:connector-curvature="0"
         id="path4415"
         style="opacity:0.15;fill:url(#linearGradient4810);fill-opacity:1;fill-rule:evenodd;stroke:none;display:inline" />
      <path
         d="m 82.365656,68.022861 c 7.834938,5.3854 13.314213,10.705346 13.314213,10.705346 C 77.147925,68.022861 69.771131,76.235863 59.605551,67.959461 c 0,0 6.657106,5.191171 22.760105,0.0634 z"
         inkscape:connector-curvature="0"
         id="path4419"
         style="opacity:0.5;fill:url(#linearGradient4807);fill-opacity:1;fill-rule:evenodd;stroke:none;display:inline" />
      <path
         d="m 96.5,92.75 a 17.625,7.5 0 1 1 -35.25,0 17.625,7.5 0 1 1 35.25,0 z"
         transform="matrix(1.0755383,0,0,1.17046,-2.133504,-8.8165539)"
         id="path4437"
         style="fill:url(#radialGradient4610);fill-opacity:1;fill-rule:nonzero;stroke:none;display:inline" />
      <path
         d="M 51.386737,50.882229 C 41.669153,42.504056 30.172967,52.42025 30.172967,52.42025 L 41.366619,41.664377 c 0,0 9.627732,3.563412 10.020118,9.217852 z"
         inkscape:connector-curvature="0"
         id="path4363"
         style="opacity:0.8;fill:url(#linearGradient4803);fill-opacity:1;fill-rule:evenodd;stroke:none" />
      <path
         d="M 52.801962,43.636979 C 47.714505,35.105824 36.280914,40.247512 36.280914,40.247512 l 10.377837,-5.406088 c 0,0 6.247641,4.140333 6.143211,8.795555 z"
         inkscape:connector-curvature="0"
         id="path4359"
         style="opacity:0.8;fill:url(#linearGradient4800);fill-opacity:1;fill-rule:evenodd;stroke:none" />
      <path
         d="M 57.890919,38.237194 C 53.380765,29.387259 41.631193,33.758931 41.631193,33.758931 l 10.713689,-4.705544 c 0,0 5.959137,4.545775 5.546037,9.183807 z"
         inkscape:connector-curvature="0"
         id="path4355"
         style="opacity:0.8;fill:url(#linearGradient4797);fill-opacity:1;fill-rule:evenodd;stroke:none" />
      <path
         d="M 64.436448,36.388431 C 64.522812,26.45589 52.082275,24.907669 52.082275,24.907669 l 11.6759,0.773719 c 0,0 3.18649,6.783926 0.678273,10.707043 z"
         inkscape:connector-curvature="0"
         id="path4351"
         style="opacity:0.8;fill:url(#linearGradient4794);fill-opacity:1;fill-rule:evenodd;stroke:none" />
      <path
         d="M 70.728892,37.407158 C 74.32566,28.148319 64.071009,22.13063 64.071009,22.13063 l 9.813688,5.022663 c 0,0 0.578739,7.472646 -3.155805,10.253865 z"
         inkscape:connector-curvature="0"
         id="path4347"
         style="opacity:0.8;fill:url(#linearGradient4791);fill-opacity:1;fill-rule:evenodd;stroke:none" />
      <path
         d="m 74.559199,40.980229 c 6.942655,-7.103687 2.933786,-16.042323 2.933786,-16.042323 l 4.324863,7.991637 c 0,0 -2.7321,6.958735 -7.258649,8.050686 z"
         inkscape:connector-curvature="0"
         id="path4343"
         style="opacity:0.8;fill:url(#linearGradient4788);fill-opacity:1;fill-rule:evenodd;stroke:none" />
      <path
         d="m 79.137313,45.418999 c 7.916559,-5.397654 5.8523,-14.63075 5.8523,-14.63075 l 2.544478,8.396778 c 0,0 -3.915721,6.066876 -8.396778,6.233972 z"
         inkscape:connector-curvature="0"
         id="path4333"
         style="opacity:0.8;fill:url(#linearGradient4785);fill-opacity:1;fill-rule:evenodd;stroke:none" />
      <path
         d="m 69.21875,18.0625 -1.53125,0.03125 c 9.66639,9.823664 5.556177,16.981171 2.1875,19.9375 l 1.28125,0.9375 c 3.339533,-3.259084 2.749041,-6.480159 3.96875,-6.78125 1.158019,-0.285865 2.104538,1.590128 2.78125,0.84375 0.676709,-0.74638 -1.161856,-1.525818 -2.53125,-3.84375 -1.369394,-2.317933 -0.618692,-4.660884 -6.15625,-11.125 z m -13.9375,0.0625 -1.96875,0.65625 c 13.135091,6.134364 12.886814,14.278157 10.625,18.4375 l 1.65625,0.40625 c 2.111774,-4.440984 0.219109,-7.331986 1.34375,-8.09375 1.067764,-0.723238 2.512495,0.358071 2.90625,-0.625 C 70.237508,27.923178 68.427915,27.233041 65.75,25.96875 63.105796,24.720372 63.49905,22.242211 55.28125,18.125 z M 78.25,21.0625 c 6.742867,12.277107 0.700612,18.128451 -3.625,19.71875 l 0.9375,1.28125 c 4.134778,-2.162806 4.3702,-4.718101 5.625,-4.65625 1.191335,0.05872 1.168705,2.739364 2.03125,2.21875 0.862543,-0.520614 -0.322666,-1.886451 -0.96875,-4.5 -0.646081,-2.613548 1.79436,-4.845437 -2.53125,-13.6875 L 78.25,21.0625 z M 39.84375,24.9375 38,26.28125 c 16.789227,0.715059 20.230342,9.044324 19.625,13.75 l 1.8125,-0.9375 C 59.308543,32.709762 55.376496,31.130312 56.25,30 c 0.829328,-1.073149 3.039357,-0.159777 3.03125,-1.21875 -0.0081,-1.058973 -2.25862,-1.029082 -5.6875,-1.1875 -3.38572,-0.156426 -4.383081,-1.860314 -13.75,-2.65625 z M 48.9375,31.5 c -0.800063,-0.07402 -2.314103,0.712995 -3.65625,1.4375 -1.720277,0.928624 -5.446036,-1.107252 -14.53125,2.46875 l -1.34375,1.8125 c 16.412301,-6.14655 21.924504,0.45507 23.65625,7.375 L 54.5,43.125 c -2.485292,-7.671463 -7.057276,-7.628671 -6.5625,-8.96875 0.469756,-1.272306 1.856224,-1.242089 1.53125,-2.25 C 49.387507,31.654272 49.204188,31.524675 48.9375,31.5 z m 39.75,0.5625 c -0.717936,7.214396 -3.566305,10.41482 -6.21875,11.90625 -2.652445,1.49143 -5.125,1.25 -5.125,1.25 l -0.09375,1 c 0,0 2.761145,0.270446 5.6875,-1.375 0.502834,-0.282736 1.000627,-0.655131 1.5,-1.0625 0.349098,2.324895 0.367669,4.373829 0.125,6.1875 -0.587827,0.183939 -1.173105,0.33465 -1.71875,0.40625 -2.910109,0.381865 -5.0625,-0.625 -5.0625,-0.625 L 77.375,50.625 c 0,0 2.408458,1.105475 5.59375,0.6875 0.465526,-0.06109 0.943619,-0.177126 1.4375,-0.3125 -0.429403,2.209763 -1.233175,4.031371 -2.21875,5.5625 -0.575395,-0.05743 -1.129686,-0.145467 -1.625,-0.28125 C 77.89709,55.550569 76.40625,53.9375 76.40625,53.9375 L 75.75,54.53125 c 0,0 1.650253,1.795402 4.5625,2.59375 0.409084,0.112144 0.853936,0.185056 1.3125,0.25 -1.021273,1.392898 -2.176757,2.519752 -3.28125,3.4375 -0.182107,0.151317 -0.370984,0.298603 -0.5625,0.4375 -0.511165,-0.288775 -0.977585,-0.610013 -1.375,-0.9375 -1.942554,-1.600747 -2.5625,-3.4375 -2.5625,-3.4375 l -0.875,0.28125 c 0,0 0.743924,2.087653 2.875,3.84375 0.333894,0.275143 0.718804,0.530347 1.125,0.78125 -1.429824,0.855666 -3.065128,1.409342 -4.75,1.65625 C 71.973587,63.091949 71.746922,62.747385 71.5625,62.40625 70.475879,60.396272 70.40625,58.625 70.40625,58.625 l -0.875,0.03125 c 0,0 0.101789,1.974539 1.28125,4.15625 0.130032,0.240527 0.278621,0.474479 0.4375,0.71875 C 69.810891,63.643153 68.341369,63.567328 66.9375,63.25 66.341953,60.588963 67,58.5 67,58.5 l -0.78125,-0.21875 c 0,0 -0.616975,2.075652 -0.125,4.75 -0.956592,-0.280301 -1.862919,-0.670952 -2.71875,-1.15625 -0.411793,-0.233506 -0.79324,-0.485512 -1.15625,-0.75 0.726818,-2.430237 2.1875,-4.0625 2.1875,-4.0625 L 63.3125,56.375 c 0,0 -1.075499,1.893201 -1.65625,4.3125 -1.217677,-1.008847 -2.101702,-2.18799 -2.71875,-3.46875 1.609099,-1.639755 3.625,-2.0625 3.625,-2.0625 L 62,54.125 c 0,10e-7 -1.880448,0.695941 -3.40625,2.34375 -0.44173,-1.147579 -0.665727,-2.351862 -0.6875,-3.5625 2.088179,-0.736318 4,-0.0625 4,-0.0625 L 61.875,51.6875 c -10e-7,0 -1.943422,-0.361651 -3.96875,0.375 0.05239,-0.900465 0.232777,-1.788915 0.5,-2.65625 2.143661,0.118103 3.625,1.375 3.625,1.375 L 62.4375,49.6875 c 0,10e-7 -1.636105,-1.019057 -3.75,-1.09375 0.187904,-0.478285 0.404135,-0.954651 0.65625,-1.40625 0.24746,-0.443262 0.517466,-0.848155 0.8125,-1.21875 1.823145,0.785565 2.75,2.3125 2.75,2.3125 l 0.6875,-0.875 c -10e-7,10e-7 -1.095344,-1.323727 -2.875,-2.0625 0.610488,-0.622408 1.298493,-1.107615 2.03125,-1.46875 1.360857,1.324377 1.625,3.03125 1.625,3.03125 l 0.875,-0.5 c 10e-7,0 -0.494442,-1.574606 -1.8125,-2.84375 0.813283,-0.299356 1.681195,-0.433005 2.5625,-0.4375 0.67488,1.649896 0.25,3.21875 0.25,3.21875 L 67.21875,46.25 c 10e-7,10e-7 0.153456,-1.511739 -0.5,-3.09375 0.696717,0.05999 1.42724,0.198725 2.125,0.4375 -0.07251,1.914713 -1.28125,3.21875 -1.28125,3.21875 l 0.90625,0.375 c 2e-6,0 0.986378,-1.461615 1.03125,-3.34375 0.302471,0.12942 0.608992,0.274201 0.90625,0.4375 0.330503,0.181562 0.653184,0.410071 0.9375,0.6875 -0.696805,1.621633 -2.125,2.4375 -2.125,2.4375 L 69.9375,48 c 10e-7,0 1.234945,-0.911711 1.90625,-2.4375 0.386417,0.506834 0.679264,1.083257 0.90625,1.71875 -1.179436,1.029881 -2.5625,1.1875 -2.5625,1.1875 l 0.375,0.78125 c 10e-7,0 1.285711,-0.331228 2.40625,-1.3125 0.145419,0.581269 0.226228,1.188985 0.21875,1.78125 -1.313618,0.2802 -2.40625,-0.1875 -2.40625,-0.1875 L 70.75,50.3125 c -10e-7,0 1.11001,0.286951 2.375,0 -0.06644,0.636274 -0.209438,1.240324 -0.46875,1.78125 -1.422988,-0.155311 -2.3125,-1.15625 -2.3125,-1.15625 l -0.3125,0.625 c 10e-7,0 0.99358,0.853957 2.375,1 -0.290423,0.454277 -0.664554,0.842841 -1.09375,1.15625 -0.937602,-0.665904 -1.21875,-1.6875 -1.21875,-1.6875 L 69.625,52.375 c -10e-7,10e-7 0.421646,0.923085 1.3125,1.5625 -0.42039,0.248689 -0.872579,0.43772 -1.34375,0.53125 -0.40747,-1.089393 -0.0625,-2.09375 -0.0625,-2.09375 l -0.5625,0 c 10e-7,-10e-7 -0.220379,1.076768 0.21875,2.15625 -0.535067,0.04977 -1.080356,-0.02792 -1.59375,-0.21875 0.11297,-1.139958 0.84375,-1.90625 0.84375,-1.90625 l -0.375,-0.1875 c 0.09761,0.03415 0.203285,0.0625 0.3125,0.0625 0.521413,0 0.937503,-0.416085 0.9375,-0.9375 0,-0.222213 -0.09018,-0.432373 -0.21875,-0.59375 0.03113,-0.0718 0.07712,-0.146992 0.09375,-0.21875 0.102372,-0.441835 0.05327,-0.89159 -0.21875,-1.28125 -0.467998,-0.670379 -1.252365,-0.876375 -1.9375,-0.78125 -0.41677,0.05786 -0.811588,0.239653 -1.15625,0.46875 -0.73647,-0.191575 -1.656739,-0.156743 -2.78125,0.40625 1.002499,-0.315777 1.804646,-0.315836 2.4375,-0.15625 -0.09091,0.0823 -0.171518,0.157313 -0.25,0.25 -0.250056,0.295315 -0.408539,0.63136 -0.53125,0.96875 -0.829385,0.239192 -1.687549,0.84515 -2.3125,2.21875 0.698399,-1.052153 1.459333,-1.559151 2.15625,-1.78125 -0.102444,0.498909 -0.08218,1.014438 0.03125,1.5 0.03166,0.135515 0.07928,0.275482 0.125,0.40625 -0.394569,0.669446 -0.581429,1.606937 -0.3125,2.875 -0.05386,-1.077067 0.171394,-1.861322 0.5,-2.4375 0.196797,0.401313 0.462729,0.775132 0.78125,1.09375 -0.08165,0.763968 0.100095,1.682867 0.84375,2.71875 -0.485749,-0.971579 -0.60391,-1.775161 -0.53125,-2.4375 0.08315,0.06743 0.161361,0.126398 0.25,0.1875 0.327497,0.225757 0.679849,0.404406 1.03125,0.53125 0.206302,0.716101 0.707764,1.473356 1.71875,2.15625 -0.755454,-0.708159 -1.16837,-1.408952 -1.34375,-2.03125 0.673897,0.175247 1.358347,0.159378 2.03125,0.03125 0.493927,0.565677 1.279925,1.036095 2.5,1.21875 -1.017727,-0.323343 -1.668513,-0.808778 -2.09375,-1.3125 0.651017,-0.180502 1.266723,-0.491928 1.8125,-0.90625 0.734699,0.198258 1.682921,0.146504 2.8125,-0.40625 -1.020827,0.311385 -1.832883,0.298002 -2.46875,0.125 0.377872,-0.338919 0.730522,-0.718944 1,-1.15625 0.101441,-0.164617 0.1977,-0.326815 0.28125,-0.5 0.852994,-0.182311 1.7809,-0.710793 2.65625,-1.84375 -0.885339,0.831338 -1.728645,1.220236 -2.46875,1.375 0.256852,-0.675771 0.412704,-1.39052 0.4375,-2.125 1.015353,-0.530955 1.957201,-1.558956 2.375,-3.53125 -0.638055,1.656002 -1.516317,2.513301 -2.40625,2.96875 -0.02223,-0.542097 -0.08616,-1.095007 -0.21875,-1.625 -0.05364,-0.214424 -0.117179,-0.415328 -0.1875,-0.625 -0.0032,-0.0097 0.0033,-0.02161 0,-0.03125 0.752763,-1.071572 1.200699,-2.619358 0.5625,-4.84375 0.236854,1.957972 -0.184903,3.292159 -0.8125,4.21875 -0.327243,-0.755902 -0.76543,-1.455398 -1.3125,-2.03125 0.249303,-1.353855 -0.04887,-2.995826 -1.65625,-4.84375 1.086099,1.750476 1.311093,3.186828 1.125,4.34375 -0.23396,-0.189506 -0.486027,-0.354986 -0.75,-0.5 -0.486452,-0.267233 -0.993661,-0.476889 -1.5,-0.65625 -0.251223,-1.343011 -1.086875,-2.78855 -3.09375,-4.03125 1.548313,1.340145 2.221697,2.645119 2.4375,3.8125 -0.438396,-0.122971 -0.873549,-0.217425 -1.3125,-0.28125 -0.418154,-0.0608 -0.834601,-0.08881 -1.25,-0.09375 -0.81155,-1.194922 -2.229695,-2.243934 -4.78125,-2.4375 2.148539,0.513815 3.35605,1.476861 4.0625,2.5 -0.993387,0.06769 -1.967851,0.259446 -2.875,0.65625 -1.296937,-0.842831 -3.150012,-1.273324 -5.75,-0.375 2.327705,-0.408317 3.941704,0.0099 5.0625,0.71875 -0.823268,0.452944 -1.583563,1.032229 -2.25,1.78125 -1.694272,-0.372545 -3.821248,-0.07751 -6.15625,2 2.30642,-1.47213 4.191797,-1.666422 5.65625,-1.34375 -0.239671,0.324382 -0.480913,0.661203 -0.6875,1.03125 -0.350023,0.626976 -0.640971,1.293908 -0.875,1.96875 -1.757908,0.23483 -3.713464,1.247838 -5.28125,4 1.759741,-2.190283 3.525128,-3.032601 5.0625,-3.21875 -0.27741,1.011672 -0.425776,2.046883 -0.4375,3.09375 -1.52885,0.867221 -2.952155,2.500845 -3.40625,5.59375 0.810222,-2.5754 2.097426,-3.993317 3.40625,-4.75 0.08176,1.358532 0.374889,2.731171 0.9375,4 -1.009968,1.491491 -1.59919,3.561691 -0.8125,6.3125 -0.301488,-2.560603 0.288567,-4.349961 1.1875,-5.625 0.745866,1.404349 1.804708,2.682182 3.21875,3.75 -0.3404,2.209388 -0.154752,4.658559 1.65625,6.5 -1.331364,-2.185811 -1.48523,-4.319323 -1.15625,-6.125 0.287612,0.195503 0.592744,0.384727 0.90625,0.5625 1.084545,0.614989 2.252029,1.062641 3.46875,1.375 0.557611,1.91072 1.738982,4.004088 4.09375,5.84375 l 0.5,-0.625 c -2.034137,-1.58917 -3.117272,-3.354816 -3.6875,-5 1.550306,0.297018 3.153898,0.345657 4.71875,0.15625 1.354155,1.636098 3.449075,3.167625 6.6875,3.875 l 0.15625,-0.84375 c -2.807818,-0.613317 -4.640918,-1.832229 -5.875,-3.1875 1.804102,-0.340129 3.549141,-0.981176 5.0625,-2 2.142037,1.008803 5.093445,1.540068 9.09375,0.75 l -0.1875,-0.875 c -3.597283,0.71047 -6.196289,0.315503 -8.125,-0.5 0.05844,-0.04673 0.129876,-0.07712 0.1875,-0.125 1.265292,-1.05136 2.599878,-2.394414 3.75,-4.09375 2.644656,0.09672 5.958637,-0.749737 9.71875,-3.625 l -0.53125,-0.71875 c -3.391635,2.593498 -6.274355,3.443029 -8.625,3.46875 0.983978,-1.659788 1.763629,-3.62848 2.15625,-5.96875 2.614351,-1.007039 5.457504,-3.212958 7.8125,-7.6875 l -0.84375,-0.4375 c -2.124199,4.036023 -4.543451,6.068296 -6.8125,7.0625 0.206731,-1.874428 0.163204,-3.970429 -0.21875,-6.3125 l -0.40625,0.0625 c 2.198399,-2.036718 4.149637,-5.468596 4.71875,-11.1875 l -1,-0.09375 z M 42.34375,37.125 c -0.882774,0.0164 -1.795592,1.590559 -3.03125,2.6875 -1.461956,1.297835 -5.724904,0.345068 -13.75,5.90625 l -0.875,2.0625 c 14.568977,-9.741077 23.261098,-4.308348 26.53125,2.03125 l 1.0625,-1.78125 C 48.105499,41.132618 41.981442,41.792764 42.15625,40.375 42.322216,39.028937 44.074131,38.448563 42.9375,37.40625 42.73371,37.21937 42.547467,37.121215 42.34375,37.125 z M 67.1875,49.46875 c 0.416596,-0.05784 0.727178,0.02896 0.96875,0.375 -0.01019,-0.01459 0.06359,0.297912 0.03125,0.4375 -0.01617,0.06979 -0.01639,0.09506 0.03125,0.0625 l -0.03125,0.0625 C 68.10895,50.42202 68.038955,50.46605 67.96875,50.5 67.771149,50.200276 67.446542,49.836711 67,49.5 c 0.06307,-0.01626 0.125411,-0.02263 0.1875,-0.03125 z m -0.625,0.21875 c 0.0063,0.0046 0.02503,-0.0046 0.03125,0 0.406547,0.300486 0.66044,0.661059 0.84375,0.96875 0.04757,0.07985 0.08979,0.148732 0.125,0.21875 -0.07772,0.13721 -0.125,0.299904 -0.125,0.46875 0,0.07091 0.01641,0.121039 0.03125,0.1875 L 67.3125,51.125 l 0.125,-0.46875 c 10e-7,0 -0.666369,-0.320575 -1.53125,-0.375 0.04951,-0.07407 0.09641,-0.148077 0.15625,-0.21875 0.125673,-0.148418 0.302243,-0.270897 0.5,-0.375 z m -0.875,1 c 0.738839,0.04552 1.195345,0.311891 1.40625,0.4375 -0.234364,0.05133 -0.852797,0.181767 -1.53125,0.71875 -0.05299,-0.396946 -0.02303,-0.789597 0.125,-1.15625 z m 1.78125,0.90625 c 0.06965,0.233553 0.230398,0.443061 0.4375,0.5625 2e-6,0 -0.635703,0.859799 -0.71875,2 -0.121469,-0.06379 -0.22738,-0.138532 -0.34375,-0.21875 -0.177717,-0.122507 -0.350473,-0.274671 -0.5,-0.4375 0.507662,-0.991039 1.4375,-1.40625 1.4375,-1.40625 l -0.4375,-0.40625 c -2e-6,-10e-7 -0.76313,0.533563 -1.25,1.46875 -0.189337,-0.272374 -0.342732,-0.56666 -0.4375,-0.875 0.829965,-0.651344 1.760819,-0.685646 1.8125,-0.6875 z"
         inkscape:connector-curvature="0"
         id="path4122"
         style="opacity:0.8;fill:#fcf0e4;fill-opacity:1;fill-rule:evenodd;stroke:none" />
      <path
         d="m 62.125,17.093748 a 4.5,1.46875 0 1 1 -9,0 4.5,1.46875 0 1 1 9,0 z"
         transform="matrix(0.765372,0.9098432,-0.9139956,0.7618949,33.385715,-39.836658)"
         id="path4279"
         style="opacity:0.5;fill:#ffffff;fill-opacity:1;fill-rule:nonzero;stroke:none;filter:url(#filter4293)" />
      <path
         d="m 62.125,17.093748 a 4.5,1.46875 0 1 1 -9,0 4.5,1.46875 0 1 1 9,0 z"
         transform="matrix(0.3439392,1.1381191,-1.1405611,0.339105,72.159022,-44.327168)"
         id="path4297"
         style="opacity:0.5;fill:#ffffff;fill-opacity:1;fill-rule:nonzero;stroke:none;filter:url(#filter4293)" />
      <path
         d="m 62.125,17.093748 a 4.5,1.46875 0 1 1 -9,0 4.5,1.46875 0 1 1 9,0 z"
         transform="matrix(0.9825492,0.669482,-0.6744188,0.9803218,6.9698825,-25.345203)"
         id="path4299"
         style="opacity:0.5;fill:#ffffff;fill-opacity:1;fill-rule:nonzero;stroke:none;filter:url(#filter4293)" />
      <path
         d="m 28.838925,36.176705 -4.498044,10.525424 4.318123,-2.0691 8.006519,-10.07562 -7.826598,1.619296 z"
         inkscape:connector-curvature="0"
         id="path4315"
         style="fill:url(#linearGradient4693);fill-opacity:1;fill-rule:evenodd;stroke:none" />
      <path
         d="m 39.094466,25.381399 -9.701704,10.525424 8.982017,-1.799218 8.726207,-7.016949 -8.00652,-1.709257 z"
         inkscape:connector-curvature="0"
         id="path4325"
         style="fill:url(#linearGradient4690);fill-opacity:1;fill-rule:evenodd;stroke:none" />
      <path
         d="m 54.117935,18.004605 c -5.937419,1.259453 -15.099358,7.286833 -15.099358,7.286833 l 6.463113,1.529335 11.784877,-6.567145 -3.148632,-2.249023 z"
         inkscape:connector-curvature="0"
         id="path4329"
         style="fill:url(#linearGradient4687);fill-opacity:1;fill-rule:evenodd;stroke:none" />
      <path
         d="m 68.627834,51.588238 c 2.769259,0.216504 1.634311,-3.141899 0.677904,-3.929722 -1.927455,-1.587707 -5.49783,0.0014 -6.416327,1.922361 -1.642975,3.436088 0.868733,7.234227 4.288135,8.14146 3.263073,0.865756 7.76403,-1.42849 9.205997,-6.16232 C 78.305458,45.250567 75.29937,40.467018 69.156687,38.803357 61.426748,36.709809 54.210802,41.308345 52.334001,48.86119 50.060942,58.008697 56.774348,67.542096 65.73817,69.62716 76.301725,72.084336 88.45564,66.688116 92.69645,53.899002 97.15547,40.4504 87.54682,21.177008 71.315749,17.959626 44.870138,12.735313 26.289787,30.310548 22.706877,54.348803 19.667528,74.74025 32.122864,93.518336 44.250115,101.24 c 16.945823,10.78975 42.833695,13.25422 63.315025,4.25307"
         inkscape:connector-curvature="0"
         id="path4079"
         style="fill:none;stroke:url(#linearGradient4782);stroke-width:2.68468332;stroke-linecap:butt;stroke-linejoin:miter;stroke-miterlimit:4;stroke-opacity:1;stroke-dasharray:none" />
    </g>
  </g>
</svg>
