<?xml version="1.0" encoding="UTF-8" standalone="no"?>
<!-- Created with Inkscape (http://www.inkscape.org/) -->

<svg
   xmlns:dc="http://purl.org/dc/elements/1.1/"
   xmlns:cc="http://creativecommons.org/ns#"
   xmlns:rdf="http://www.w3.org/1999/02/22-rdf-syntax-ns#"
   xmlns:svg="http://www.w3.org/2000/svg"
   xmlns="http://www.w3.org/2000/svg"
   xmlns:xlink="http://www.w3.org/1999/xlink"
   xmlns:inkscape="http://www.inkscape.org/namespaces/inkscape"
   version="1.0"
   width="96"
   height="96"
   id="svg2408"
   style="display:inline">
  <defs
     id="defs2410">
    <linearGradient
       id="linearGradient4022">
      <stop
         id="stop4024"
         style="stop-color:#000000;stop-opacity:1"
         offset="0" />
      <stop
         id="stop4026"
         style="stop-color:#000000;stop-opacity:0"
         offset="1" />
    </linearGradient>
    <linearGradient
       id="linearGradient3979">
      <stop
         id="stop3982"
         style="stop-color:#fac217;stop-opacity:1"
         offset="0" />
      <stop
         id="stop3984"
         style="stop-color:#f8de72;stop-opacity:1"
         offset="1" />
    </linearGradient>
    <linearGradient
       id="linearGradient3997">
      <stop
         id="stop3999"
         style="stop-color:#ffffff;stop-opacity:1"
         offset="0" />
      <stop
         id="stop4001"
         style="stop-color:#ffffff;stop-opacity:0"
         offset="1" />
    </linearGradient>
    <linearGradient
       id="linearGradient3977">
      <stop
         id="stop3979"
         style="stop-color:#e1e1e1;stop-opacity:1"
         offset="0" />
      <stop
         id="stop3981"
         style="stop-color:#f5f5f5;stop-opacity:1"
         offset="1" />
    </linearGradient>
    <linearGradient
       id="linearGradient4941">
      <stop
         id="stop4943"
         style="stop-color:#2d88c8;stop-opacity:1"
         offset="0" />
      <stop
         id="stop4945"
         style="stop-color:#539fd5;stop-opacity:1"
         offset="1" />
    </linearGradient>
    <linearGradient
       x1="45.447727"
       y1="92.539597"
       x2="45.447727"
       y2="7.0165396"
       id="ButtonShadow"
       gradientUnits="userSpaceOnUse"
       gradientTransform="scale(1.0058652,0.994169)">
      <stop
         id="stop3750"
         style="stop-color:#000000;stop-opacity:1"
         offset="0" />
      <stop
         id="stop3752"
         style="stop-color:#000000;stop-opacity:0.58823532"
         offset="1" />
    </linearGradient>
    <linearGradient
       id="linearGradient3737">
      <stop
         id="stop3739"
         style="stop-color:#ffffff;stop-opacity:1"
         offset="0" />
      <stop
         id="stop3741"
         style="stop-color:#ffffff;stop-opacity:0"
         offset="1" />
    </linearGradient>
    <linearGradient
       id="linearGradient3700">
      <stop
         id="stop3702"
         style="stop-color:#2276c5;stop-opacity:1"
         offset="0" />
      <stop
         id="stop3704"
         style="stop-color:#69a9e6;stop-opacity:1"
         offset="1" />
    </linearGradient>
    <linearGradient
       x1="48"
       y1="90"
       x2="48"
       y2="5.9877172"
       id="linearGradient3706"
       xlink:href="#linearGradient3700"
       gradientUnits="userSpaceOnUse" />
    <linearGradient
       x1="36.357143"
       y1="6"
       x2="36.357143"
       y2="63.893143"
       id="linearGradient3188"
       xlink:href="#linearGradient3737"
       gradientUnits="userSpaceOnUse" />
    <filter
       color-interpolation-filters="sRGB"
       id="filter7725">
      <feGaussianBlur
         id="feGaussianBlur7727"
         stdDeviation="1.71" />
    </filter>
    <linearGradient
       x1="-34.399559"
       y1="92.08268"
       x2="-34.399559"
       y2="7"
       id="linearGradient7959"
       xlink:href="#ButtonShadow"
       gradientUnits="userSpaceOnUse"
       gradientTransform="translate(100,0)" />
    <linearGradient
       x1="48"
       y1="90"
       x2="48"
       y2="5.9877172"
       id="linearGradient8096"
       xlink:href="#linearGradient3977"
       gradientUnits="userSpaceOnUse"
       gradientTransform="matrix(0.5,0,0,0.5,3.0000004,45.000002)" />
    <linearGradient
       x1="32"
       y1="91"
       x2="32"
       y2="7.9458008"
       id="linearGradient3197"
       xlink:href="#ButtonShadow"
       gradientUnits="userSpaceOnUse" />
    <linearGradient
       x1="48"
       y1="90"
       x2="48"
       y2="5.9877172"
       id="linearGradient3975"
       xlink:href="#linearGradient4941"
       gradientUnits="userSpaceOnUse"
       gradientTransform="matrix(0.5,0,0,0.5,45.000004,45.000004)" />
    <linearGradient
       x1="48"
       y1="90"
       x2="48"
       y2="5.9877172"
       id="linearGradient3987"
       xlink:href="#linearGradient3977"
       gradientUnits="userSpaceOnUse"
       gradientTransform="matrix(0.5,0,0,0.5,45.000004,3.0000058)" />
    <linearGradient
       x1="24"
       y1="48"
       x2="24"
       y2="88"
       id="linearGradient4003"
       xlink:href="#linearGradient3997"
       gradientUnits="userSpaceOnUse" />
    <linearGradient
       x1="24"
       y1="48"
       x2="24"
       y2="88"
       id="linearGradient4007"
       xlink:href="#linearGradient3997"
       gradientUnits="userSpaceOnUse"
       gradientTransform="translate(42,-42)" />
    <linearGradient
       x1="24"
       y1="48"
       x2="24"
       y2="88"
       id="linearGradient4011"
       xlink:href="#linearGradient3997"
       gradientUnits="userSpaceOnUse"
       gradientTransform="translate(0,-42)" />
    <linearGradient
       x1="24"
       y1="48"
       x2="24"
       y2="88"
       id="linearGradient4015"
       xlink:href="#linearGradient3997"
       gradientUnits="userSpaceOnUse"
       gradientTransform="translate(42,0)" />
    <linearGradient
       x1="6"
       y1="27.000004"
       x2="48"
       y2="27.000004"
       id="linearGradient3986"
       xlink:href="#linearGradient3979"
       gradientUnits="userSpaceOnUse"
       gradientTransform="translate(-54.000004,-3.8146973e-6)" />
    <radialGradient
       cx="48"
       cy="69"
       r="42"
       fx="48"
       fy="69"
       id="radialGradient4028"
       xlink:href="#linearGradient4022"
       gradientUnits="userSpaceOnUse"
       gradientTransform="matrix(1.1428571,0,0,0.95238094,-6.8571427,-17.714285)" />
    <radialGradient
       cx="48"
       cy="69"
       r="42"
       fx="48"
       fy="69"
       id="radialGradient4032"
       xlink:href="#linearGradient4022"
       gradientUnits="userSpaceOnUse"
       gradientTransform="matrix(1.1428571,0,0,0.95238094,-6.8571427,24.285715)" />
    <linearGradient
       x1="32"
       y1="91"
       x2="32"
       y2="7"
       id="linearGradient3973"
       xlink:href="#ButtonShadow"
       gradientUnits="userSpaceOnUse" />
    <linearGradient
       x1="29"
       y1="93"
       x2="29"
       y2="6"
       id="linearGradient3982"
       xlink:href="#ButtonShadow"
       gradientUnits="userSpaceOnUse" />
    <linearGradient
       x1="22"
       y1="94"
       x2="22"
       y2="5"
       id="linearGradient3990"
       xlink:href="#ButtonShadow"
       gradientUnits="userSpaceOnUse" />
    <linearGradient
       x1="21"
       y1="95"
       x2="21"
       y2="4"
       id="linearGradient3998"
       xlink:href="#ButtonShadow"
       gradientUnits="userSpaceOnUse" />
  </defs>
  <metadata
     id="metadata2413">
    <rdf:RDF>
      <cc:Work
         rdf:about="">
        <dc:format>image/svg+xml</dc:format>
        <dc:type
           rdf:resource="http://purl.org/dc/dcmitype/StillImage" />
        <dc:title />
      </cc:Work>
    </rdf:RDF>
  </metadata>
  <g
     id="layer5"
     style="display:none">
    <path
       d="M 11.28125,7 C 7.7989644,7 5,9.7531077 5,13.15625 l 0,30.6875 C 5,46.372474 6.5571633,48.555702 8.78125,49.5 6.5571633,50.444298 5,52.627526 5,55.15625 l 0,30.6875 C 5,89.246893 7.7989644,92 11.28125,92 l 31.4375,0 C 44.936751,92 46.881799,90.87394 48,89.1875 49.118201,90.873939 51.06325,92 53.28125,92 l 31.4375,0 C 88.201036,92 91,89.246896 91,85.84375 l 0,-30.6875 C 91,51.753107 88.201035,49 84.71875,49 l -31.4375,0 C 51.063249,49 49.118201,50.126061 48,51.8125 47.332888,50.80638 46.356133,49.982908 45.21875,49.5 47.442837,48.555702 49,46.372474 49,43.84375 l 0,-30.6875 C 49,9.7531072 46.201035,7 42.71875,7 l -31.4375,0 z"
       inkscape:connector-curvature="0"
       id="rect7705"
       style="opacity:0.9;fill:url(#linearGradient7959);fill-opacity:1;fill-rule:nonzero;stroke:none;filter:url(#filter7725)" />
  </g>
  <g
     id="layer2"
     style="display:inline">
    <path
       d="M 12,4 C 6.511945,4 2,8.5119452 2,14 l 0,29 c 0,2.498542 1.137525,4.586599 2.65625,6.25 C 3.228832,50.799061 2.288351,52.771646 2.0625,54.96875 2.019497,55.302973 2,55.649272 2,56 l 0,29 c 0,5.488055 4.511945,10 10,10 l 30,0 c 2.37739,0 4.366863,-1.047966 6,-2.40625 0.204142,0.169786 0.409661,0.341353 0.625,0.5 C 50.132375,94.204281 51.919784,95 54,95 l 30,0 c 0.686007,0 1.351403,-0.08466 2,-0.21875 1.945793,-0.402277 3.702005,-1.358255 5.0625,-2.71875 C 92.876493,90.248507 94,87.744028 94,85 L 94,56 C 94,55.649272 93.9805,55.302973 93.9375,54.96875 93.711649,52.771646 92.771168,50.799061 91.34375,49.25 92.862475,47.586599 94,45.498542 94,43 L 94,14 C 94,8.5119452 89.488055,4 84,4 L 54,4 C 51.750418,4 49.678041,4.75856 48,6.03125 46.321959,4.75856 44.249582,4 42,4 L 12,4 z"
       inkscape:connector-curvature="0"
       id="path3846"
       style="opacity:0.07999998;fill:url(#linearGradient3998);fill-opacity:1;fill-rule:nonzero;stroke:none;display:inline" />
    <path
       d="M 12,5 C 7.049025,5 3,9.0490253 3,14 l 0,29 c 0,2.572445 1.256929,4.731671 3,6.34375 C 4.171957,50.993853 3,53.357799 3,56 l 0,29 c 0,4.950975 4.049025,9 9,9 l 30,0 c 2.388675,0 4.414304,-1.080788 6,-2.59375 0.198212,0.18912 0.41319,0.356902 0.625,0.53125 C 50.107668,93.157936 51.909909,94 54,94 l 30,0 c 0.309436,0 0.604629,-3.85e-4 0.90625,-0.03125 0.301621,-0.03087 0.61398,-0.09606 0.90625,-0.15625 1.169079,-0.240771 2.260761,-0.695197 3.21875,-1.34375 0.239497,-0.162138 0.465038,-0.347467 0.6875,-0.53125 C 91.720912,90.283454 93,87.784923 93,85 L 93,56 C 93,53.357799 91.828043,50.993853 90,49.34375 91.743071,47.731671 93,45.572445 93,43 L 93,14 C 93,9.0490253 88.950975,5 84,5 L 54,5 C 51.691226,5 49.597358,5.901878 48,7.34375 46.402642,5.901878 44.308774,5 42,5 L 12,5 z m 36,44.3125 c 0.0434,0.04032 0.08101,0.08533 0.125,0.125 -0.04357,0.03986 -0.08363,0.08311 -0.125,0.125 -0.04137,-0.04189 -0.08143,-0.08514 -0.125,-0.125 0.04399,-0.03967 0.0816,-0.08468 0.125,-0.125 z"
       inkscape:connector-curvature="0"
       id="path3842"
       style="opacity:0.1;fill:url(#linearGradient3990);fill-opacity:1;fill-rule:nonzero;stroke:none;display:inline" />
    <path
       d="M 12,6 C 7.593306,6 4,9.593306 4,14 l 0,29 c 0,2.689622 1.365461,5.027239 3.40625,6.46875 C 6.125989,50.371093 5.139494,51.645521 4.5625,53.125 4.4696,53.363215 4.382538,53.595206 4.3125,53.84375 4.28239,53.947689 4.24457,54.050525 4.21875,54.15625 4.152592,54.433155 4.098882,54.712918 4.0625,55 4.020613,55.330518 4,55.658412 4,56 l 0,29 c 0,4.406694 3.593306,8 8,8 l 30,0 c 2.422034,0 4.538346,-1.140945 6,-2.84375 0.182707,0.212851 0.391267,0.430839 0.59375,0.625 C 50.011133,92.14038 51.88072,93 54,93 l 30,0 c 0.275418,0 0.544115,-0.0039 0.8125,-0.03125 2.147081,-0.219152 4.037725,-1.293557 5.34375,-2.875 C 91.299022,88.709987 92,86.927929 92,85 L 92,56 C 92,55.658412 91.97939,55.330518 91.9375,55 91.90112,54.712918 91.84741,54.433155 91.78125,54.15625 91.75656,54.052898 91.71618,53.945522 91.6875,53.84375 91.61648,53.598588 91.531404,53.359471 91.4375,53.125 90.860506,51.645521 89.874011,50.371093 88.59375,49.46875 90.634539,48.027239 92,45.689622 92,43 L 92,14 C 92,9.593306 88.406694,6 84,6 L 54,6 C 51.610508,6 49.467967,7.0489117 48,8.71875 46.532033,7.0489117 44.389492,6 42,6 L 12,6 z M 48,48.21875 C 48.431235,48.701176 48.935293,49.129678 49.46875,49.5 48.929507,49.890594 48.432856,50.339005 48,50.84375 47.567144,50.339005 47.070493,49.890594 46.53125,49.5 47.064707,49.129678 47.568765,48.701176 48,48.21875 z"
       inkscape:connector-curvature="0"
       id="path3184"
       style="opacity:0.2;fill:url(#linearGradient3982);fill-opacity:1;fill-rule:nonzero;stroke:none;display:inline" />
    <path
       d="M 12,7 C 8.122,7 5,10.122 5,14 l 0,29 c 0,2.969094 1.839232,5.479063 4.4375,6.5 -0.332335,0.130584 -0.663773,0.259894 -0.96875,0.4375 -0.887064,0.51659 -1.636611,1.252826 -2.21875,2.09375 -0.01606,0.0232 -0.04671,0.03909 -0.0625,0.0625 -0.156349,0.231807 -0.278093,0.468149 -0.40625,0.71875 -0.01741,0.03377 -0.04563,0.05966 -0.0625,0.09375 -0.05915,0.120321 -0.103919,0.250863 -0.15625,0.375 -0.08328,0.19619 -0.184678,0.388674 -0.25,0.59375 -0.003,0.0094 0.0029,0.02179 0,0.03125 -0.0446,0.142202 -0.05816,0.291439 -0.09375,0.4375 -0.02992,0.123715 -0.07046,0.248773 -0.09375,0.375 -0.01537,0.08324 -0.01885,0.16572 -0.03125,0.25 C 5.043826,55.307344 5,55.647102 5,56 l 0,29 c 0,3.878 3.122,7 7,7 l 30,0 c 2.557737,0 4.77882,-1.368894 6,-3.40625 0.152648,0.25467 0.317401,0.486338 0.5,0.71875 C 49.778193,90.939384 51.76198,92 54,92 l 30,0 c 0.242375,0 0.482859,-0.0074 0.71875,-0.03125 2.358911,-0.23813 4.362378,-1.640972 5.4375,-3.625 C 90.693811,87.351736 91,86.211875 91,85 l 0,-29 c 0,-0.352898 -0.04383,-0.692656 -0.09375,-1.03125 -0.01234,-0.08372 -0.01599,-0.167292 -0.03125,-0.25 -0.02378,-0.128765 -0.06303,-0.248898 -0.09375,-0.375 C 90.651126,53.805756 90.464631,53.2933 90.21875,52.8125 90.090593,52.561899 89.968849,52.325557 89.8125,52.09375 89.79671,52.07034 89.76606,52.05445 89.75,52.03125 89.167861,51.190326 88.418314,50.45409 87.53125,49.9375 87.52385,49.9332 87.5074,49.9418 87.5,49.9375 87.202153,49.765607 86.886256,49.627213 86.5625,49.5 89.160768,48.479063 91,45.969094 91,43 L 91,14 C 91,10.122 87.878,7 84,7 L 54,7 C 51.442263,7 49.22118,8.3688935 48,10.40625 46.77882,8.3688935 44.557737,7 42,7 L 12,7 z m 36,39.5625 c 0.78946,1.318846 1.987022,2.367564 3.4375,2.9375 -0.319429,0.127033 -0.643482,0.266722 -0.9375,0.4375 -0.03211,0.01865 -0.06197,0.04335 -0.09375,0.0625 -0.333179,0.200712 -0.643646,0.435798 -0.9375,0.6875 -0.219536,0.188044 -0.430255,0.380248 -0.625,0.59375 -0.111162,0.120925 -0.210045,0.246348 -0.3125,0.375 -0.192914,0.242484 -0.371196,0.482974 -0.53125,0.75 -0.160054,-0.267026 -0.338336,-0.507516 -0.53125,-0.75 -0.102455,-0.128652 -0.201338,-0.254075 -0.3125,-0.375 -0.194745,-0.213502 -0.405464,-0.405706 -0.625,-0.59375 C 46.237396,50.435798 45.926929,50.200712 45.59375,50 45.56177,49.98087 45.53232,49.95614 45.5,49.9375 45.205982,49.766722 44.881929,49.627033 44.5625,49.5 46.012978,48.930064 47.21054,47.881346 48,46.5625 z"
       inkscape:connector-curvature="0"
       id="rect3816"
       style="opacity:0.3;fill:url(#linearGradient3973);fill-opacity:1;fill-rule:nonzero;stroke:none;display:inline" />
    <path
       d="M 12,7 C 8.676,7 6,9.676 6,13 l 0,30 c 0,3.324 2.676,6 6,6 -3.324,0 -6,2.676 -6,6 l 0,30 c 0,3.324 2.676,6 6,6 l 30,0 c 3.324,0 6,-2.676 6,-6 0,0.20775 0.01084,0.422808 0.03125,0.625 C 48.337417,88.657886 50.88375,91 54,91 l 30,0 c 3.324,0 6,-2.676 6,-6 l 0,-30 c 0,-3.324 -2.676,-6 -6,-6 3.324,0 6,-2.676 6,-6 L 90,13 C 90,9.676 87.324,7 84,7 L 54,7 C 50.676,7 48,9.676 48,13 48,9.676 45.324,7 42,7 L 12,7 z m 36,36 c 0,3.324 2.676,6 6,6 -3.11625,0 -5.662583,2.342114 -5.96875,5.375 C 48.010839,54.577192 48,54.79225 48,55 c 0,-3.324 -2.676,-6 -6,-6 3.324,0 6,-2.676 6,-6 z"
       inkscape:connector-curvature="0"
       id="rect3037"
       style="opacity:0.45;fill:url(#linearGradient3197);fill-opacity:1;fill-rule:nonzero;stroke:none;display:inline" />
  </g>
  <g
     id="layer1"
     style="display:none">
    <rect
       width="84"
       height="84"
       rx="6"
       ry="6"
       x="6"
       y="6"
       id="rect2419"
       style="fill:url(#linearGradient3706);fill-opacity:1;fill-rule:nonzero;stroke:none" />
    <path
       d="M 12,6 C 8.676,6 6,8.676 6,12 l 0,2 0,68 0,2 c 0,0.334721 0.04135,0.6507 0.09375,0.96875 0.0487,0.295596 0.09704,0.596915 0.1875,0.875 0.00988,0.03038 0.020892,0.0636 0.03125,0.09375 0.098865,0.287771 0.2348802,0.547452 0.375,0.8125 0.1445918,0.273507 0.3156161,0.535615 0.5,0.78125 0.1843839,0.245635 0.3737765,0.473472 0.59375,0.6875 0.439947,0.428056 0.94291,0.814526 1.5,1.09375 0.278545,0.139612 0.5734731,0.246947 0.875,0.34375 -0.2562018,-0.100222 -0.4867109,-0.236272 -0.71875,-0.375 -0.00741,-0.0044 -0.023866,0.0045 -0.03125,0 -0.031933,-0.0193 -0.062293,-0.04251 -0.09375,-0.0625 -0.120395,-0.0767 -0.2310226,-0.163513 -0.34375,-0.25 -0.1061728,-0.0808 -0.2132809,-0.161112 -0.3125,-0.25 C 8.4783201,88.557317 8.3087904,88.373362 8.15625,88.1875 8.0486711,88.057245 7.9378561,87.922215 7.84375,87.78125 7.818661,87.74287 7.805304,87.69538 7.78125,87.65625 7.716487,87.553218 7.6510225,87.451733 7.59375,87.34375 7.4927417,87.149044 7.3880752,86.928049 7.3125,86.71875 7.30454,86.69694 7.288911,86.6782 7.28125,86.65625 7.2494249,86.5643 7.2454455,86.469419 7.21875,86.375 7.1884177,86.268382 7.1483606,86.171969 7.125,86.0625 7.0521214,85.720988 7,85.364295 7,85 L 7,83 7,15 7,13 C 7,10.218152 9.2181517,8 12,8 l 2,0 68,0 2,0 c 2.781848,0 5,2.218152 5,5 l 0,2 0,68 0,2 c 0,0.364295 -0.05212,0.720988 -0.125,1.0625 -0.04415,0.206893 -0.08838,0.397658 -0.15625,0.59375 -0.0077,0.02195 -0.0233,0.04069 -0.03125,0.0625 -0.06274,0.173739 -0.138383,0.367449 -0.21875,0.53125 -0.04158,0.0828 -0.07904,0.169954 -0.125,0.25 -0.0546,0.09721 -0.126774,0.18835 -0.1875,0.28125 -0.09411,0.140965 -0.204921,0.275995 -0.3125,0.40625 -0.143174,0.17445 -0.303141,0.346998 -0.46875,0.5 -0.01117,0.0102 -0.01998,0.02115 -0.03125,0.03125 -0.138386,0.125556 -0.285091,0.234436 -0.4375,0.34375 -0.102571,0.07315 -0.204318,0.153364 -0.3125,0.21875 -0.0074,0.0045 -0.02384,-0.0044 -0.03125,0 -0.232039,0.138728 -0.462548,0.274778 -0.71875,0.375 0.301527,-0.0968 0.596455,-0.204138 0.875,-0.34375 0.55709,-0.279224 1.060053,-0.665694 1.5,-1.09375 0.219973,-0.214028 0.409366,-0.441865 0.59375,-0.6875 0.184384,-0.245635 0.355408,-0.507743 0.5,-0.78125 0.14012,-0.265048 0.276135,-0.524729 0.375,-0.8125 0.01041,-0.03078 0.02133,-0.06274 0.03125,-0.09375 0.09046,-0.278085 0.1388,-0.579404 0.1875,-0.875 C 89.95865,84.6507 90,84.334721 90,84 l 0,-2 0,-68 0,-2 C 90,8.676 87.324,6 84,6 L 12,6 z"
       inkscape:connector-curvature="0"
       id="rect3728"
       style="opacity:0.5;fill:url(#linearGradient3188);fill-opacity:1;fill-rule:nonzero;stroke:none" />
  </g>
  <g
     id="layer3"
     style="display:inline">
    <rect
       width="42"
       height="42"
       rx="6"
       ry="6"
       x="5.9999962"
       y="48.000004"
       id="rect8039"
       style="fill:url(#linearGradient8096);fill-opacity:1;fill-rule:nonzero;stroke:none" />
    <path
       d="m 12,48 c -3.324,0 -6,2.676 -6,6 l 0,30 c 0,3.324 2.676,6.000004 6,6 l 30,0 c 3.324,0 6,-2.675996 6,-6 l 0,-30 c 0,-3.324 -2.676,-6 -6,-6 l -30,0 z m 0,1 30,0 c 2.778924,0 5,2.221076 5,5 l 0,30 c 0,2.778929 -2.221075,5 -5,5 l -30,0 c -2.778922,3e-6 -5,-2.221076 -5,-5 L 7,54 c 0,-2.778924 2.221076,-5 5,-5 z"
       inkscape:connector-curvature="0"
       id="rect8166"
       style="opacity:0.3;fill:#ffffff;fill-opacity:1;fill-rule:nonzero;stroke:none" />
    <path
       d="m -68,48 c -3.324,0 -6,2.676 -6,6 l 0,30 c 0,2.984862 2.152831,5.434872 5,5.90625 C -71.286789,89.443131 -73,87.431559 -73,85 l 0,-30 c 0,-2.778924 2.221076,-5 5,-5 l 30,0 c 2.778924,0 5,2.221076 5,5 l 0,30 c 0,2.431563 -1.71321,4.44313 -4,4.90625 2.847169,-0.47138 5,-2.921384 5,-5.90625 l 0,-30 c 0,-3.324 -2.676,-6 -6,-6 l -30,0 z"
       inkscape:connector-curvature="0"
       id="rect8160"
       style="fill:#ff0000;fill-opacity:1;fill-rule:nonzero;stroke:none" />
    <rect
       width="42"
       height="42"
       rx="6"
       ry="6"
       x="48"
       y="48.000004"
       id="rect3971"
       style="fill:url(#linearGradient3975);fill-opacity:1;fill-rule:nonzero;stroke:none" />
    <path
       d="m 54,48 c -3.324,0 -6,2.676 -6,6 l 0,30 c 0,3.324 2.676,6.000004 6,6 l 30,0 c 3.324,0 6,-2.675996 6,-6 l 0,-30 c 0,-3.324 -2.676,-6 -6,-6 l -30,0 z m 0,1 30,0 c 2.778924,0 5,2.221076 5,5 l 0,30 c 0,2.778929 -2.221075,5 -5,5 l -30,0 c -2.778922,3e-6 -5,-2.221076 -5,-5 l 0,-30 c 0,-2.778924 2.221076,-5 5,-5 z"
       inkscape:connector-curvature="0"
       id="path3973"
       style="opacity:0.2;fill:#ffffff;fill-opacity:1;fill-rule:nonzero;stroke:none" />
    <rect
       width="42"
       height="42"
       rx="6"
       ry="6"
       x="48"
       y="6.0000038"
       id="rect3983"
       style="fill:url(#linearGradient3987);fill-opacity:1;fill-rule:nonzero;stroke:none" />
    <path
       d="m 54,6 c -3.324,0 -6,2.676 -6,6 l 0,30 c 0,3.324 2.676,6.000004 6,6 l 30,0 c 3.324,0 6,-2.675996 6,-6 L 90,12 C 90,8.676 87.324,6 84,6 L 54,6 z m 0,1 30,0 c 2.778924,0 5,2.221076 5,5 l 0,30 c 0,2.778929 -2.221075,5 -5,5 l -30,0 c -2.778922,3e-6 -5,-2.221076 -5,-5 l 0,-30 c 0,-2.778924 2.221076,-5 5,-5 z"
       inkscape:connector-curvature="0"
       id="path3985"
       style="opacity:0.3;fill:#ffffff;fill-opacity:1;fill-rule:nonzero;stroke:none" />
    <rect
       width="42"
       height="42"
       rx="6"
       ry="6"
       x="-48.000004"
       y="6"
       transform="matrix(0,-1,1,0,0,0)"
       id="rect3989"
       style="fill:url(#linearGradient3986);fill-opacity:1;fill-rule:nonzero;stroke:none" />
    <path
       d="M 12,6 C 8.676,6 6,8.676 6,12 l 0,30 c 0,3.324 2.676,6.000004 6,6 l 30,0 c 3.324,0 6,-2.675996 6,-6 L 48,12 C 48,8.676 45.324,6 42,6 L 12,6 z m 0,1 30,0 c 2.778924,0 5,2.221076 5,5 l 0,30 c 0,2.778929 -2.221075,5 -5,5 l -30,0 c -2.778922,3e-6 -5,-2.221076 -5,-5 L 7,12 C 7,9.221076 9.221076,7 12,7 z"
       inkscape:connector-curvature="0"
       id="path3991"
       style="opacity:0.2;fill:#ffffff;fill-opacity:1;fill-rule:nonzero;stroke:none" />
    <path
       d="m 12,48 c -3.324,0 -6,2.676 -6,6 l 0,30 c 0,2.984862 2.152831,5.434872 5,5.90625 C 8.713211,89.443131 7,87.431559 7,85 L 7,55 c 0,-2.778924 2.221076,-5 5,-5 l 30,0 c 2.778924,0 5,2.221076 5,5 l 0,30 c 0,2.431563 -1.71321,4.44313 -4,4.90625 C 45.847169,89.43487 48,86.984866 48,84 l 0,-30 c 0,-3.324 -2.676,-6 -6,-6 l -30,0 z"
       inkscape:connector-curvature="0"
       id="path3995"
       style="opacity:0.4;fill:url(#linearGradient4003);fill-opacity:1;fill-rule:nonzero;stroke:none" />
    <path
       d="m 54,6 c -3.324,0 -6,2.676 -6,6 l 0,30 c 0,2.984862 2.152831,5.434872 5,5.90625 C 50.713211,47.443131 49,45.431559 49,43 l 0,-30 c 0,-2.778924 2.221076,-5 5,-5 l 30,0 c 2.778924,0 5,2.221076 5,5 l 0,30 c 0,2.431563 -1.71321,4.44313 -4,4.90625 C 87.847169,47.43487 90,44.984866 90,42 L 90,12 C 90,8.676 87.324,6 84,6 L 54,6 z"
       inkscape:connector-curvature="0"
       id="path4005"
       style="opacity:0.4;fill:url(#linearGradient4007);fill-opacity:1;fill-rule:nonzero;stroke:none" />
    <path
       d="M 12,6 C 8.676,6 6,8.676 6,12 l 0,30 c 0,2.984862 2.152831,5.434872 5,5.90625 C 8.713211,47.443131 7,45.431559 7,43 L 7,13 C 7,10.221076 9.221076,8 12,8 l 30,0 c 2.778924,0 5,2.221076 5,5 l 0,30 c 0,2.431563 -1.71321,4.44313 -4,4.90625 C 45.847169,47.43487 48,44.984866 48,42 L 48,12 C 48,8.676 45.324,6 42,6 L 12,6 z"
       inkscape:connector-curvature="0"
       id="path4009"
       style="opacity:0.35;fill:url(#linearGradient4011);fill-opacity:1;fill-rule:nonzero;stroke:none" />
    <path
       d="m 54,48 c -3.324,0 -6,2.676 -6,6 l 0,30 c 0,2.984862 2.152831,5.434872 5,5.90625 C 50.713211,89.443131 49,87.431559 49,85 l 0,-30 c 0,-2.778924 2.221076,-5 5,-5 l 30,0 c 2.778924,0 5,2.221076 5,5 l 0,30 c 0,2.431563 -1.71321,4.44313 -4,4.90625 C 87.847169,89.43487 90,86.984866 90,84 l 0,-30 c 0,-3.324 -2.676,-6 -6,-6 l -30,0 z"
       inkscape:connector-curvature="0"
       id="path4013"
       style="opacity:0.2;fill:url(#linearGradient4015);fill-opacity:1;fill-rule:nonzero;stroke:none" />
    <path
       d="M 12,6 C 8.676,6 6,8.676 6,12 l 0,30 c 0,3.324 2.676,6 6,6 l 30,0 c 3.324,0 6,-2.676 6,-6 0,3.324 2.676,6 6,6 l 30,0 c 3.324,0 6,-2.676 6,-6 L 90,12 C 90,8.676 87.324,6 84,6 L 54,6 C 50.676,6 48,8.676 48,12 48,8.676 45.324,6 42,6 L 12,6 z m 0,1 30,0 c 2.786131,0 5,2.2138686 5,5 l 0,30 c 0,2.786131 -2.213869,5 -5,5 L 12,47 C 9.2138686,47 7,44.786131 7,42 L 7,12 C 7,9.2138686 9.2138686,7 12,7 z m 42,0 30,0 c 2.786131,0 5,2.2138686 5,5 l 0,30 c 0,2.786131 -2.213869,5 -5,5 l -30,0 c -2.786131,0 -5,-2.213869 -5,-5 l 0,-30 c 0,-2.7861314 2.213869,-5 5,-5 z"
       inkscape:connector-curvature="0"
       id="path4011"
       style="opacity:0.3;fill:url(#radialGradient4028);fill-opacity:1;fill-rule:nonzero;stroke:none" />
    <path
       d="m 12,48 c -3.324,0 -6,2.676 -6,6 l 0,30 c 0,3.324 2.676,6 6,6 l 30,0 c 3.324,0 6,-2.676 6,-6 0,3.324 2.676,6 6,6 l 30,0 c 3.324,0 6,-2.676 6,-6 l 0,-30 c 0,-3.324 -2.676,-6 -6,-6 l -30,0 c -3.324,0 -6,2.676 -6,6 0,-3.324 -2.676,-6 -6,-6 l -30,0 z m 0,1 30,0 c 2.786131,0 5,2.213869 5,5 l 0,30 c 0,2.786131 -2.213869,5 -5,5 L 12,89 C 9.2138686,89 7,86.786131 7,84 L 7,54 c 0,-2.786131 2.2138686,-5 5,-5 z m 42,0 30,0 c 2.786131,0 5,2.213869 5,5 l 0,30 c 0,2.786131 -2.213869,5 -5,5 l -30,0 c -2.786131,0 -5,-2.213869 -5,-5 l 0,-30 c 0,-2.786131 2.213869,-5 5,-5 z"
       inkscape:connector-curvature="0"
       id="path4030"
       style="opacity:0.3;fill:url(#radialGradient4032);fill-opacity:1;fill-rule:nonzero;stroke:none" />
    <path
       d="M 20.78125,9.96875 C 18.771256,9.9687815 16.906358,10.442002 15.375,11.5 a 0.97740654,0.97740654 0 0 0 0,0.03125 0.97740654,0.97740654 0 0 0 -0.0625,0.03125 0.97740654,0.97740654 0 0 0 -0.15625,0.15625 0.97740654,0.97740654 0 0 0 -0.03125,0.0625 c -1.237265,0.930727 -2.277982,2.072219 -3.03125,3.4375 -0.766661,1.389587 -1.356136,2.89811 -1.6875,4.53125 a 0.97740654,0.97740654 0 0 0 0,0.03125 0.97740654,0.97740654 0 0 0 0,0.15625 c -0.273193,1.493408 -0.4375,2.965797 -0.4375,4.375 0,1.368868 0.190225,2.762115 0.5,4.1875 -1.1e-5,7.23e-4 -1.1e-5,0.03053 0,0.03125 A 0.97740654,0.97740654 0 0 0 10.5,28.75 c 0.349675,1.442424 0.920716,2.760457 1.625,4 0.0047,0.0083 -0.0047,0.02294 0,0.03125 a 0.97740654,0.97740654 0 0 0 0.125,0.3125 0.97740654,0.97740654 0 0 0 0,0.03125 c 0.855741,1.384301 1.97899,2.562978 3.3125,3.46875 a 0.97740654,0.97740654 0 0 0 0.0625,0 0.97740654,0.97740654 0 0 0 0.03125,0.03125 0.97740654,0.97740654 0 0 0 0.28125,0.125 c 0.0082,0.0048 0.02307,-0.0048 0.03125,0 1.410955,0.82758 3.02643,1.28125 4.78125,1.28125 1.943854,0 3.766687,-0.459053 5.28125,-1.46875 a 0.97740654,0.97740654 0 0 0 0.03125,0 C 27.427287,35.62736 28.540543,34.416015 29.375,33 c 0.794099,-1.371655 1.394153,-2.879375 1.75,-4.46875 0.34115,-1.523888 0.499979,-3.009678 0.5,-4.46875 -2.1e-5,-0.965726 -0.09635,-1.954385 -0.25,-2.9375 0.03354,0.251479 0.03691,0.24176 0,-0.03125 -0.138937,-1.027192 -0.366608,-2.055788 -0.6875,-3.03125 -0.0053,-0.02078 0.007,-0.0084 0,-0.03125 -0.314669,-1.033016 -0.757592,-2.009141 -1.28125,-2.9375 -0.551026,-0.976761 -1.225404,-1.871098 -2.03125,-2.625 -0.861335,-0.805718 -1.84393,-1.382477 -2.90625,-1.8125 -1.12895,-0.468062 -2.374417,-0.6874682 -3.6875,-0.6875 z m 0.03125,7 c 0.752638,1.7e-5 1.083675,0.123204 1.4375,0.40625 0.483979,0.387203 0.890203,0.854668 1.1875,1.4375 a 0.97740654,0.97740654 0 0 0 0,0.03125 0.97740654,0.97740654 0 0 0 0.0625,0.125 c 0.346512,0.709561 0.590936,1.487305 0.75,2.40625 0.166856,0.945669 0.249975,1.880141 0.25,2.71875 -1.4e-5,0.862503 -0.08228,1.768253 -0.25,2.71875 -0.158334,0.897084 -0.400455,1.659246 -0.75,2.375 -0.28885,0.577686 -0.698735,1.039982 -1.25,1.46875 -0.359907,0.277639 -0.724918,0.437503 -1.5,0.4375 -0.705015,2e-6 -1.0764,-0.148199 -1.4375,-0.40625 -0.490035,-0.378021 -0.869668,-0.813779 -1.1875,-1.375 -0.0077,-0.01362 -0.02361,-0.01746 -0.03125,-0.03125 -0.0016,-0.0041 5.3e-5,-0.03114 0,-0.03125 -0.343514,-0.675904 -0.61019,-1.423112 -0.78125,-2.25 0.05855,0.318857 0.06179,0.308685 0,-0.03125 -0.162662,-0.894913 -0.25,-1.73778 -0.25,-2.5625 -7e-6,-0.533555 0.02316,-1.152774 0.0625,-1.78125 0.03756,-0.619654 0.114239,-1.210031 0.21875,-1.75 0.105241,-0.561285 0.230317,-1.083415 0.40625,-1.53125 0.162047,-0.427232 0.356616,-0.745665 0.5625,-1 0.406555,-0.500366 0.796254,-0.860904 1.1875,-1.09375 0.0056,-0.0034 0.02561,0.0033 0.03125,0 0.337702,-0.186114 0.716684,-0.281234 1.28125,-0.28125 z m 33.03125,35 c -0.0023,1.78e-4 -0.185242,0.03086 -0.1875,0.03125 -0.0023,3.92e-4 -0.185289,0.03065 -0.1875,0.03125 -0.0022,6.02e-4 -0.185356,0.06169 -0.1875,0.0625 -0.0021,8.08e-4 -0.185441,0.06149 -0.1875,0.0625 -0.0021,0.001 -0.154295,0.09255 -0.15625,0.09375 -0.002,0.0012 -0.154416,0.123626 -0.15625,0.125 -0.0018,0.0014 -0.154554,0.09221 -0.15625,0.09375 -0.0017,0.0015 -0.123456,0.154557 -0.125,0.15625 -0.0015,0.0017 -0.123622,0.123169 -0.125,0.125 -0.0014,0.0018 -0.123801,0.185548 -0.125,0.1875 -0.0012,0.002 -0.09274,0.154193 -0.09375,0.15625 -0.001,0.0021 -0.06169,0.185357 -0.0625,0.1875 -8.12e-4,0.0021 -0.06189,0.15404 -0.0625,0.15625 -6.07e-4,0.0022 -0.03085,0.185243 -0.03125,0.1875 -3.96e-4,0.0023 -0.03107,0.185216 -0.03125,0.1875 -1.82e-4,0.0023 -3.4e-5,0.185209 0,0.1875 l 0,24 c -1.4e-5,0.0012 -4.6e-5,0.09254 0,0.09375 4.6e-5,0.0012 -1.06e-4,0.09254 0,0.09375 1.06e-4,0.0012 -1.66e-4,0.09255 0,0.09375 1.66e-4,0.0012 0.03102,0.09256 0.03125,0.09375 2.26e-4,0.0012 0.03097,0.123823 0.03125,0.125 2.85e-4,0.0012 -3.43e-4,0.09259 0,0.09375 3.43e-4,0.0012 0.03085,0.09261 0.03125,0.09375 4.01e-4,0.0011 0.06204,0.09263 0.0625,0.09375 4.57e-4,0.0011 0.03074,0.09265 0.03125,0.09375 5.12e-4,0.0011 0.03068,0.09268 0.03125,0.09375 5.66e-4,0.0011 0.06188,0.09271 0.0625,0.09375 6.19e-4,0.001 0.06183,0.06149 0.0625,0.0625 6.7e-4,0.001 0.03053,0.09278 0.03125,0.09375 7.19e-4,9.75e-4 0.06173,0.06156 0.0625,0.0625 7.67e-4,9.37e-4 0.06169,0.09285 0.0625,0.09375 8.13e-4,8.98e-4 0.09289,0.06164 0.09375,0.0625 8.57e-4,8.57e-4 0.0616,0.09294 0.0625,0.09375 8.98e-4,8.13e-4 0.09281,0.06173 0.09375,0.0625 9.37e-4,7.67e-4 0.06153,0.06178 0.0625,0.0625 9.75e-4,7.19e-4 0.09274,0.03058 0.09375,0.03125 0.001,6.7e-4 0.06146,0.06188 0.0625,0.0625 0.001,6.19e-4 0.09268,0.06193 0.09375,0.0625 0.0011,5.66e-4 0.09265,0.03074 0.09375,0.03125 0.0011,5.12e-4 0.09263,0.03079 0.09375,0.03125 0.0011,4.57e-4 0.09261,0.0621 0.09375,0.0625 0.0011,4.01e-4 0.09259,0.03091 0.09375,0.03125 0.0012,3.43e-4 0.09257,-2.85e-4 0.09375,0 0.0012,2.85e-4 0.12381,0.03102 0.125,0.03125 0.0012,2.26e-4 0.09255,0.03108 0.09375,0.03125 0.0012,1.66e-4 0.09254,-1.06e-4 0.09375,0 0.0012,1.06e-4 0.09254,-4.6e-5 0.09375,0 0.0012,4.6e-5 0.09254,1.4e-5 0.09375,0 l 7.3125,0 c 2.644318,0 5.012163,-0.719495 6.75,-2.3125 1.826052,-1.646452 2.624983,-4.091915 2.625,-6.84375 -1.9e-5,-1.481357 -0.354148,-2.895781 -1,-4.1875 -0.364611,-0.760899 -0.957709,-1.272468 -1.53125,-1.8125 0.272966,-0.315002 0.566386,-0.538782 0.78125,-1.0625 0.45866,-1.079227 0.718729,-2.231939 0.71875,-3.4375 -1.7e-5,-2.328737 -0.775747,-4.382883 -2.25,-5.90625 -0.06124,-0.106341 -0.113063,-0.198273 -0.125,-0.21875 -0.0064,-0.0062 -0.02484,0.0062 -0.03125,0 -1.553492,-1.500773 -3.680448,-2.281221 -6.03125,-2.28125 l -7.1875,0 c -4.34e-4,-1.9e-5 -0.01965,1.2e-5 -0.03125,0 -0.0464,-4.7e-5 -0.123265,-7.8e-5 -0.125,0 a 0.97740654,0.97740654 0 0 0 -0.03125,0 z m 5.28125,7.125 1.3125,0 c 0.652942,1.9e-5 1.165924,0.03807 1.5,0.09375 0.22251,0.03709 0.244889,0.0656 0.28125,0.09375 0.0037,0.0028 0.02797,-0.0026 0.03125,0 a 0.97740654,0.97740654 0 0 0 0.0625,0.0625 c 0.05806,0.04355 0.01963,-0.04755 0.09375,0.15625 a 0.97740654,0.97740654 0 0 0 0.03125,0.03125 0.97740654,0.97740654 0 0 0 0,0.0625 c 0.01141,0.05382 0.09375,0.430986 0.09375,1 -1e-5,1.021229 -0.340608,1.241257 -0.09375,1.0625 -0.03052,0.0221 -0.646525,0.281261 -1.71875,0.28125 l -1.59375,0 0,-2.84375 z m 0,10 1.875,0 c 1.174784,1.1e-5 1.799265,0.247889 2.09375,0.46875 0.14012,0.105093 0.343741,0.294131 0.34375,1.4375 -9e-6,1.107453 -0.310279,1.501963 -0.34375,1.53125 -0.172633,0.151052 -0.653915,0.406254 -1.75,0.40625 l -2.21875,0 0,-3.84375 z"
       transform="translate(2,2)"
       id="path4054"
       style="font-size:11px;font-style:normal;font-variant:normal;font-weight:bold;font-stretch:normal;text-align:start;line-height:125%;letter-spacing:0px;word-spacing:0px;writing-mode:lr-tb;text-anchor:start;opacity:0.05;fill:#ffffff;fill-opacity:1;stroke:none;font-family:BabelSans;-inkscape-font-specification:BabelSans Bold" />
    <path
       d="m 20.78125,10.9375 c -1.853279,2.9e-5 -3.498852,0.445825 -4.84375,1.375 a 1.0502481,1.0502481 0 0 0 0,0.03125 c -1.251772,0.880901 -2.25892,2.000559 -3,3.34375 -0.721125,1.307052 -1.250928,2.714408 -1.5625,4.25 a 1.0502481,1.0502481 0 0 0 0,0.03125 c -0.28241,1.499018 -0.4375,2.957597 -0.4375,4.34375 0,1.358237 0.171648,2.742795 0.5,4.1875 a 1.0502481,1.0502481 0 0 0 0,0.03125 c 0.356886,1.472169 0.911248,2.820842 1.65625,4.0625 a 1.0502481,1.0502481 0 0 0 0,0.03125 c 0.783406,1.267287 1.80682,2.324569 3.03125,3.15625 a 1.0502481,1.0502481 0 0 0 0.03125,0 c 1.31194,0.850337 2.866488,1.28125 4.59375,1.28125 1.788037,0 3.422654,-0.427613 4.75,-1.3125 1.247482,-0.854764 2.267296,-1.953623 3.03125,-3.25 0.742983,-1.283362 1.290164,-2.691969 1.625,-4.1875 0.327914,-1.464765 0.49998,-2.872291 0.5,-4.25 -2e-5,-0.904792 -0.09883,-1.851876 -0.25,-2.8125 -0.0014,-0.01015 0.0014,-0.0211 0,-0.03125 -0.132705,-0.98112 -0.351111,-1.953511 -0.65625,-2.875 -0.0028,-0.0092 0.0028,-0.02204 0,-0.03125 -0.292281,-0.959518 -0.695805,-1.878306 -1.1875,-2.75 -0.50773,-0.900013 -1.116423,-1.694556 -1.84375,-2.375 -0.756644,-0.707787 -1.648157,-1.229578 -2.625,-1.625 -0.999808,-0.41452 -2.11379,-0.624971 -3.3125,-0.625 z M 20.8125,16 c 0.896996,2e-5 1.529695,0.198776 2.0625,0.625 0.61251,0.490033 1.130424,1.100694 1.5,1.875 a 1.0502481,1.0502481 0 0 0 0,0.03125 c 0.390957,0.800573 0.671042,1.689731 0.84375,2.6875 0.177756,1.007448 0.249973,1.983626 0.25,2.875 -1.5e-5,0.913698 -0.07183,1.865277 -0.25,2.875 -0.172324,0.97635 -0.451399,1.852844 -0.84375,2.65625 -0.363808,0.727598 -0.891403,1.314834 -1.53125,1.8125 -0.527948,0.407269 -1.165791,0.625003 -2.09375,0.625 -0.87374,3e-6 -1.500934,-0.207198 -2.03125,-0.59375 -0.60502,-0.466722 -1.107213,-1.024734 -1.5,-1.75 -0.0043,-0.0084 0.0043,-0.02288 0,-0.03125 -0.381006,-0.749673 -0.685696,-1.58492 -0.875,-2.5 -0.002,-0.01075 0.002,-0.0205 0,-0.03125 -0.173268,-0.953262 -0.25,-1.868561 -0.25,-2.75 -7e-6,-0.559242 0.02203,-1.197332 0.0625,-1.84375 0.03911,-0.645098 0.102623,-1.275014 0.21875,-1.875 0.114006,-0.608029 0.265201,-1.16937 0.46875,-1.6875 0.195763,-0.516123 0.442837,-0.940405 0.71875,-1.28125 0.468995,-0.577215 0.951858,-1.009072 1.46875,-1.3125 0.0084,-0.0047 0.02286,0.0046 0.03125,0 0.494844,-0.272718 1.059474,-0.406231 1.75,-0.40625 z M 54,52.9375 A 1.0502481,1.0502481 0 0 0 52.9375,54 l 0,24 A 1.0502481,1.0502481 0 0 0 54,79.0625 l 7.3125,0 c 2.468031,0 4.572221,-0.667776 6.09375,-2.0625 1.576271,-1.421238 2.312484,-3.560181 2.3125,-6.125 -1.7e-5,-1.322961 -0.321658,-2.580803 -0.90625,-3.75 -0.426102,-0.889222 -1.090026,-1.586945 -1.875,-2.1875 0.388371,-0.487631 0.851448,-0.909403 1.09375,-1.5 0.415365,-0.977354 0.656232,-2.005383 0.65625,-3.0625 -1.6e-5,-2.199651 -0.718152,-4.070239 -2.09375,-5.40625 -0.0063,-0.0062 0.0064,-0.02511 0,-0.03125 -1.35424,-1.317685 -3.220863,-1.999973 -5.375,-2 l -7.21875,0 z m 4.15625,5.1875 2.28125,0 c 0.673497,2e-5 1.221431,0.02128 1.65625,0.09375 0.364203,0.06071 0.603043,0.169954 0.78125,0.3125 a 1.0502481,1.0502481 0 0 0 0.03125,0.03125 c 0.175923,0.131961 0.292801,0.281798 0.40625,0.59375 a 1.0502481,1.0502481 0 0 0 0.03125,0.03125 c 0.100778,0.264578 0.15625,0.74713 0.15625,1.40625 -1.1e-5,1.173483 -0.27424,1.680271 -0.5,1.84375 -0.349033,0.252752 -1.090798,0.468762 -2.28125,0.46875 l -2.5625,0 0,-4.78125 z m 0,10 2.84375,0 c 1.302864,1.2e-5 2.154009,0.256137 2.6875,0.65625 0.43966,0.329754 0.71874,0.933867 0.71875,2.21875 -1e-5,1.255335 -0.284944,1.956354 -0.65625,2.28125 -0.433492,0.379302 -1.179653,0.625004 -2.40625,0.625 l -3.1875,0 0,-5.78125 z"
       transform="translate(2,2)"
       id="path4050"
       style="font-size:11px;font-style:normal;font-variant:normal;font-weight:bold;font-stretch:normal;text-align:start;line-height:125%;letter-spacing:0px;word-spacing:0px;writing-mode:lr-tb;text-anchor:start;opacity:0.05;fill:#ffffff;fill-opacity:1;stroke:none;font-family:BabelSans;-inkscape-font-specification:BabelSans Bold" />
    <path
       d="m 22.78125,14 c -1.68971,2.6e-5 -3.102678,0.394828 -4.25,1.1875 -1.126472,0.792724 -2.019968,1.790114 -2.6875,3 -0.66754,1.209928 -1.145454,2.529392 -1.4375,3.96875 C 14.135074,23.595638 14,24.998303 14,26.3125 c 0,1.272501 0.155835,2.591965 0.46875,3.96875 0.333766,1.376798 0.842851,2.63393 1.53125,3.78125 0.709251,1.14733 1.613139,2.092775 2.71875,2.84375 C 19.845211,37.636368 21.185454,38 22.75,38 c 1.627106,0 3.029771,-0.374023 4.15625,-1.125 1.126454,-0.771837 2.030336,-1.738059 2.71875,-2.90625 0.688378,-1.189042 1.187076,-2.477339 1.5,-3.875 0.312888,-1.397645 0.468731,-2.737888 0.46875,-4.03125 C 31.593731,25.207233 31.521023,24.292878 31.375,23.375 31.249806,22.436295 31.042026,21.532407 30.75,20.65625 30.478793,19.759265 30.115163,18.907327 29.65625,18.09375 29.197303,17.28021 28.646661,16.573727 28,15.96875 27.353313,15.36382 26.563627,14.885903 25.6875,14.53125 24.832207,14.176646 23.865983,14.000026 22.78125,14 z m 0.03125,2.9375 c 1.084733,2.4e-5 1.988622,0.290925 2.71875,0.875 0.730104,0.584112 1.343164,1.332158 1.78125,2.25 0.438055,0.897017 0.749739,1.88402 0.9375,2.96875 0.187716,1.063899 0.281221,2.102928 0.28125,3.0625 -1.6e-5,0.980453 -0.09352,1.998626 -0.28125,3.0625 -0.187775,1.063894 -0.499445,2.040507 -0.9375,2.9375 -0.438084,0.876146 -1.061535,1.603408 -1.8125,2.1875 -0.730128,0.563235 -1.644406,0.843754 -2.75,0.84375 -1.063894,4e-6 -1.957389,-0.270117 -2.6875,-0.8125 -0.730123,-0.563228 -1.322325,-1.269712 -1.78125,-2.125 -0.438077,-0.855273 -0.760149,-1.790328 -0.96875,-2.8125 -0.187745,-1.022153 -0.28125,-2.009157 -0.28125,-2.96875 -7e-6,-0.584083 0.02071,-1.238704 0.0625,-1.90625 0.04173,-0.688382 0.124833,-1.353306 0.25,-2 0.12516,-0.667518 0.301781,-1.29089 0.53125,-1.875 0.229449,-0.604936 0.520366,-1.124409 0.875,-1.5625 0.542366,-0.667517 1.134566,-1.186993 1.78125,-1.5625 0.667527,-0.37547 1.425958,-0.562476 2.28125,-0.5625 z M 56,56 l 0,24 7.3125,0 c 2.285706,0 4.081188,-0.595265 5.375,-1.78125 1.315351,-1.185981 1.968735,-2.971776 1.96875,-5.34375 -1.5e-5,-1.164412 -0.263731,-2.246201 -0.78125,-3.28125 -0.49597,-1.035028 -1.296846,-1.84559 -2.375,-2.40625 0.690013,-0.603761 1.217472,-1.315264 1.5625,-2.15625 0.366561,-0.862518 0.562485,-1.750572 0.5625,-2.65625 -1.5e-5,-2.005371 -0.58559,-3.566183 -1.75,-4.6875 C 66.732134,56.56623 65.181003,56.000025 63.21875,56 L 56,56 z m 3.09375,3.0625 3.34375,0 c 0.711583,2.1e-5 1.326222,0.03875 1.84375,0.125 0.517511,0.08626 0.926542,0.272519 1.25,0.53125 0.345004,0.25879 0.608733,0.619379 0.78125,1.09375 0.172492,0.452853 0.25,1.048115 0.25,1.78125 -1.2e-5,1.336944 -0.312174,2.234683 -0.9375,2.6875 -0.625348,0.452845 -1.590892,0.687513 -2.90625,0.6875 l -3.625,0 0,-6.90625 z m 0,10 3.90625,0 c 1.444735,1.3e-5 2.536211,0.292791 3.3125,0.875 0.776269,0.582219 1.156239,1.596201 1.15625,3.0625 -1.1e-5,1.423186 -0.341234,2.45873 -1.03125,3.0625 -0.690036,0.603777 -1.713705,0.906254 -3.09375,0.90625 l -4.25,0 0,-7.90625 z"
       inkscape:connector-curvature="0"
       id="path4041"
       style="font-size:11px;font-style:normal;font-variant:normal;font-weight:bold;font-stretch:normal;text-align:start;line-height:125%;letter-spacing:0px;word-spacing:0px;writing-mode:lr-tb;text-anchor:start;opacity:0.6;fill:#000000;fill-opacity:1;stroke:none;font-family:BabelSans;-inkscape-font-specification:BabelSans Bold" />
  </g>
</svg>
