<?xml version="1.0" encoding="UTF-8" standalone="no"?>
<!-- Created with Inkscape (http://www.inkscape.org/) -->

<svg
   xmlns:dc="http://purl.org/dc/elements/1.1/"
   xmlns:cc="http://creativecommons.org/ns#"
   xmlns:rdf="http://www.w3.org/1999/02/22-rdf-syntax-ns#"
   xmlns:svg="http://www.w3.org/2000/svg"
   xmlns="http://www.w3.org/2000/svg"
   xmlns:xlink="http://www.w3.org/1999/xlink"
   xmlns:inkscape="http://www.inkscape.org/namespaces/inkscape"
   version="1.0"
   width="96"
   height="96"
   id="svg2408">
  <defs
     id="defs2410">
    <linearGradient
       id="linearGradient3671">
      <stop
         id="stop3673"
         style="stop-color:#ff8080;stop-opacity:1"
         offset="0" />
      <stop
         id="stop3675"
         style="stop-color:#ff8080;stop-opacity:0"
         offset="1" />
    </linearGradient>
    <linearGradient
       x1="45.447727"
       y1="92.539597"
       x2="45.447727"
       y2="7.0165396"
       id="ButtonShadow"
       gradientUnits="userSpaceOnUse"
       gradientTransform="scale(1.0058652,0.994169)">
      <stop
         id="stop3750"
         style="stop-color:#000000;stop-opacity:1"
         offset="0" />
      <stop
         id="stop3752"
         style="stop-color:#000000;stop-opacity:0.58823532"
         offset="1" />
    </linearGradient>
    <linearGradient
       id="linearGradient3737">
      <stop
         id="stop3739"
         style="stop-color:#ffffff;stop-opacity:1"
         offset="0" />
      <stop
         id="stop3741"
         style="stop-color:#ffffff;stop-opacity:0"
         offset="1" />
    </linearGradient>
    <linearGradient
       x1="48"
       y1="90"
       x2="48"
       y2="5.9877172"
       id="linearGradient3706"
       xlink:href="#linearGradient3187"
       gradientUnits="userSpaceOnUse" />
    <filter
       color-interpolation-filters="sRGB"
       id="filter3174">
      <feGaussianBlur
         id="feGaussianBlur3176"
         stdDeviation="1.71" />
    </filter>
    <linearGradient
       x1="36.357143"
       y1="6"
       x2="36.357143"
       y2="63.893143"
       id="linearGradient3188"
       xlink:href="#linearGradient3737"
       gradientUnits="userSpaceOnUse" />
    <linearGradient
       id="linearGradient3737-1">
      <stop
         id="stop3739-7"
         style="stop-color:#ffffff;stop-opacity:1"
         offset="0" />
      <stop
         id="stop3741-2"
         style="stop-color:#ffffff;stop-opacity:0"
         offset="1" />
    </linearGradient>
    <radialGradient
       cx="48"
       cy="90.171875"
       r="42"
       fx="48"
       fy="90.171875"
       id="radialGradient2855"
       xlink:href="#linearGradient3737-1"
       gradientUnits="userSpaceOnUse"
       gradientTransform="matrix(1.1573129,0,0,0.99590774,-7.551021,0.1971319)" />
    <linearGradient
       id="linearGradient3737-6">
      <stop
         id="stop3739-73"
         style="stop-color:#ffffff;stop-opacity:1"
         offset="0" />
      <stop
         id="stop3741-6"
         style="stop-color:#ffffff;stop-opacity:0"
         offset="1" />
    </linearGradient>
    <clipPath
       id="clipPath3613">
      <rect
         width="84"
         height="84"
         rx="6"
         ry="6"
         x="6"
         y="6"
         id="rect3615"
         style="fill:#ffffff;fill-opacity:1;fill-rule:nonzero;stroke:none" />
    </clipPath>
    <filter
       x="-0.192"
       y="-0.192"
       width="1.3839999"
       height="1.3839999"
       color-interpolation-filters="sRGB"
       id="filter3794">
      <feGaussianBlur
         id="feGaussianBlur3796"
         stdDeviation="5.28" />
    </filter>
    <linearGradient
       x1="48"
       y1="20.220806"
       x2="48"
       y2="138.66119"
       id="linearGradient2885"
       xlink:href="#linearGradient3737-6"
       gradientUnits="userSpaceOnUse" />
    <linearGradient
       id="linearGradient3187">
      <stop
         id="stop3189"
         style="stop-color:#780000;stop-opacity:1"
         offset="0" />
      <stop
         id="stop3191"
         style="stop-color:#e62929;stop-opacity:1"
         offset="1" />
    </linearGradient>
    <radialGradient
       cx="48"
       cy="46.582424"
       r="42"
       fx="48"
       fy="46.582424"
       id="radialGradient3677"
       xlink:href="#linearGradient3671"
       gradientUnits="userSpaceOnUse"
       gradientTransform="matrix(1.7146179,6.6254866e-8,-4.2857144e-8,1.1091053,-34.301659,-5.0823943)" />
    <linearGradient
       id="linearGradient3545">
      <stop
         id="stop3547"
         style="stop-color:#fafafa;stop-opacity:1"
         offset="0" />
      <stop
         id="stop3671"
         style="stop-color:#dcdcdc;stop-opacity:1"
         offset="0.5" />
      <stop
         id="stop3674"
         style="stop-color:#c8c8c8;stop-opacity:1"
         offset="0.5" />
      <stop
         id="stop3549"
         style="stop-color:#ebebeb;stop-opacity:1"
         offset="1" />
    </linearGradient>
    <linearGradient
       x1="68.46875"
       y1="32.1875"
       x2="68.46875"
       y2="106.10139"
       id="linearGradient3147"
       xlink:href="#linearGradient3545"
       gradientUnits="userSpaceOnUse"
       gradientTransform="matrix(0.79256963,0,0,0.79256963,-12.631578,-6.79876)" />
    <linearGradient
       x1="128.2612"
       y1="104.6548"
       x2="128.2612"
       y2="1.6424"
       id="L"
       gradientUnits="userSpaceOnUse"
       gradientTransform="matrix(2.238168,0,0,2.238168,-43.442841,-25.089863)">
      <stop
         id="stop81"
         style="stop-color:#ffffff;stop-opacity:0"
         offset="0" />
      <stop
         id="stop83"
         style="stop-color:#ffffff;stop-opacity:1"
         offset="1" />
    </linearGradient>
    <linearGradient
       x1="128.0513"
       y1="215.33009"
       x2="128.0513"
       y2="127.4658"
       id="j"
       gradientUnits="userSpaceOnUse"
       gradientTransform="matrix(2.238168,0,0,2.238168,-43.442841,-25.089863)">
      <stop
         id="stop65"
         style="stop-color:#000000;stop-opacity:1"
         offset="0" />
      <stop
         id="stop73"
         style="stop-color:#000000;stop-opacity:0"
         offset="1" />
    </linearGradient>
    <linearGradient
       x1="128.146"
       y1="120.3198"
       x2="128.146"
       y2="32.435501"
       id="i"
       gradientUnits="userSpaceOnUse"
       gradientTransform="matrix(2.238168,0,0,2.238168,-43.442841,-25.089863)">
      <stop
         id="stop54"
         style="stop-color:#000000;stop-opacity:0"
         offset="0" />
      <stop
         id="stop62"
         style="stop-color:#000000;stop-opacity:1"
         offset="1" />
    </linearGradient>
    <linearGradient
       x1="128.29739"
       y1="216.1572"
       x2="128.2973"
       y2="25.653799"
       id="h"
       gradientUnits="userSpaceOnUse"
       gradientTransform="matrix(2.238168,0,0,2.238168,-43.442841,-25.089863)">
      <stop
         id="stop49"
         style="stop-color:#e7e7e7;stop-opacity:1"
         offset="0" />
      <stop
         id="stop51"
         style="stop-color:#a0a0a0;stop-opacity:1"
         offset="1" />
    </linearGradient>
    <linearGradient
       x1="126.9907"
       y1="217.54201"
       x2="129.35651"
       y2="24.047701"
       id="g"
       gradientUnits="userSpaceOnUse"
       gradientTransform="matrix(2.238168,0,0,2.238168,-43.442841,-25.089863)">
      <stop
         id="stop40"
         style="stop-color:#ffffff;stop-opacity:1"
         offset="0" />
      <stop
         id="stop44"
         style="stop-color:#aeaeae;stop-opacity:1"
         offset="0.98110002" />
      <stop
         id="stop46"
         style="stop-color:#bf2926;stop-opacity:1"
         offset="1" />
    </linearGradient>
    <linearGradient
       x1="127.7759"
       y1="216.71001"
       x2="127.7759"
       y2="239.29491"
       id="f"
       gradientUnits="userSpaceOnUse"
       gradientTransform="matrix(2.238168,0,0,2.238168,-43.442841,-25.089863)">
      <stop
         id="stop31"
         style="stop-color:#ffffff;stop-opacity:0"
         offset="0" />
      <stop
         id="stop37"
         style="stop-color:#ffffff;stop-opacity:1"
         offset="1" />
    </linearGradient>
    <linearGradient
       x1="109"
       y1="15"
       x2="149"
       y2="242"
       id="e"
       gradientUnits="userSpaceOnUse">
      <stop
         id="stop18"
         style="stop-color:#ffffff;stop-opacity:1"
         offset="0" />
      <stop
         id="stop20"
         style="stop-color:#dddddd;stop-opacity:1"
         offset="0.40000001" />
      <stop
         id="stop22"
         style="stop-color:#d5d5d5;stop-opacity:1"
         offset="0.4461" />
      <stop
         id="stop28"
         style="stop-color:#b4b4b4;stop-opacity:1"
         offset="0.76069999" />
    </linearGradient>
    <linearGradient
       x1="109"
       y1="15"
       x2="149"
       y2="242"
       id="linearGradient3953"
       xlink:href="#e"
       gradientUnits="userSpaceOnUse"
       gradientTransform="matrix(0.63596149,0,0,0.63596149,120.71985,-34.901551)" />
    <linearGradient
       x1="127.7759"
       y1="216.71001"
       x2="127.7759"
       y2="239.29491"
       id="linearGradient3955"
       xlink:href="#f"
       gradientUnits="userSpaceOnUse"
       gradientTransform="matrix(0.63596149,0,0,0.63596149,120.71985,-34.901551)" />
    <linearGradient
       x1="126.9907"
       y1="217.54201"
       x2="129.35651"
       y2="24.047701"
       id="linearGradient3957"
       xlink:href="#g"
       gradientUnits="userSpaceOnUse"
       gradientTransform="matrix(0.63596149,0,0,0.63596149,120.71985,-34.901551)" />
    <linearGradient
       x1="128.29739"
       y1="216.1572"
       x2="128.2973"
       y2="25.653799"
       id="linearGradient3959"
       xlink:href="#h"
       gradientUnits="userSpaceOnUse"
       gradientTransform="matrix(0.63596149,0,0,0.63596149,120.71985,-34.901551)" />
    <linearGradient
       x1="128.146"
       y1="120.3198"
       x2="128.146"
       y2="32.435501"
       id="linearGradient3961"
       xlink:href="#i"
       gradientUnits="userSpaceOnUse"
       gradientTransform="matrix(0.63596149,0,0,0.63596149,120.71985,-34.901551)" />
    <linearGradient
       x1="128.0513"
       y1="215.33009"
       x2="128.0513"
       y2="127.4658"
       id="linearGradient3963"
       xlink:href="#j"
       gradientUnits="userSpaceOnUse"
       gradientTransform="matrix(0.63596149,0,0,0.63596149,120.71985,-34.901551)" />
    <linearGradient
       x1="128.2612"
       y1="104.6548"
       x2="128.2612"
       y2="1.6424"
       id="linearGradient3965"
       xlink:href="#L"
       gradientUnits="userSpaceOnUse"
       gradientTransform="matrix(0.63596149,0,0,0.63596149,120.71985,-34.901551)" />
    <linearGradient
       x1="45.447727"
       y1="92.539597"
       x2="45.447727"
       y2="7.0165396"
       id="ButtonShadow-0"
       gradientUnits="userSpaceOnUse"
       gradientTransform="matrix(1.0058652,0,0,0.994169,100,0)">
      <stop
         id="stop3750-8"
         style="stop-color:#000000;stop-opacity:1"
         offset="0" />
      <stop
         id="stop3752-5"
         style="stop-color:#000000;stop-opacity:0.58823532"
         offset="1" />
    </linearGradient>
    <linearGradient
       x1="32.251034"
       y1="6.1317081"
       x2="32.251034"
       y2="90.238609"
       id="linearGradient3780"
       xlink:href="#ButtonShadow-0"
       gradientUnits="userSpaceOnUse"
       gradientTransform="matrix(1.0238095,0,0,1.0119048,-1.1428571,-98.071429)" />
    <linearGradient
       x1="32.251034"
       y1="6.1317081"
       x2="32.251034"
       y2="90.238609"
       id="linearGradient3772"
       xlink:href="#ButtonShadow-0"
       gradientUnits="userSpaceOnUse"
       gradientTransform="matrix(1.0238095,0,0,1.0119048,-1.1428571,-98.071429)" />
    <linearGradient
       x1="32.251034"
       y1="6.1317081"
       x2="32.251034"
       y2="90.238609"
       id="linearGradient3725"
       xlink:href="#ButtonShadow-0"
       gradientUnits="userSpaceOnUse"
       gradientTransform="matrix(1.0238095,0,0,1.0119048,-1.1428571,-98.071429)" />
    <linearGradient
       x1="32.251034"
       y1="6.1317081"
       x2="32.251034"
       y2="90.238609"
       id="linearGradient3721"
       xlink:href="#ButtonShadow-0"
       gradientUnits="userSpaceOnUse"
       gradientTransform="translate(0,-97)" />
    <linearGradient
       x1="32.251034"
       y1="6.1317081"
       x2="32.251034"
       y2="90.238609"
       id="linearGradient3071"
       xlink:href="#ButtonShadow-0"
       gradientUnits="userSpaceOnUse"
       gradientTransform="matrix(1.0238095,0,0,1.0119048,-1.1428571,-98.071429)" />
  </defs>
  <metadata
     id="metadata2413">
    <rdf:RDF>
      <cc:Work
         rdf:about="">
        <dc:format>image/svg+xml</dc:format>
        <dc:type
           rdf:resource="http://purl.org/dc/dcmitype/StillImage" />
      </cc:Work>
    </rdf:RDF>
  </metadata>
  <g
     id="layer2"
     style="display:none">
    <rect
       width="86"
       height="85"
       rx="6"
       ry="6"
       x="5"
       y="7"
       id="rect3745"
       style="opacity:0.9;fill:url(#ButtonShadow);fill-opacity:1;fill-rule:nonzero;stroke:none;filter:url(#filter3174)" />
  </g>
  <g
     id="layer5"
     style="display:inline">
    <path
       d="m 12,-95.03125 c -5.5110903,0 -10.03125,4.52016 -10.03125,10.03125 l 0,71 c 0,5.5110902 4.5201598,10.03125 10.03125,10.03125 l 72,0 c 5.51109,0 10.03125,-4.5201597 10.03125,-10.03125 l 0,-71 c 0,-5.51109 -4.52016,-10.03125 -10.03125,-10.03125 l -72,0 z"
       transform="scale(1,-1)"
       id="path3786"
       style="opacity:0.07999998;fill:url(#linearGradient3071);fill-opacity:1;fill-rule:nonzero;stroke:none;display:inline" />
    <path
       d="m 12,-94.03125 c -4.971633,0 -9.03125,4.059617 -9.03125,9.03125 l 0,71 c 0,4.9716329 4.0596171,9.03125 9.03125,9.03125 l 72,0 c 4.971633,0 9.03125,-4.059617 9.03125,-9.03125 l 0,-71 c 0,-4.971633 -4.059617,-9.03125 -9.03125,-9.03125 l -72,0 z"
       transform="scale(1,-1)"
       id="path3778"
       style="opacity:0.1;fill:url(#linearGradient3780);fill-opacity:1;fill-rule:nonzero;stroke:none;display:inline" />
    <path
       d="m 12,-93 c -4.4091333,0 -8,3.590867 -8,8 l 0,71 c 0,4.4091333 3.5908667,8 8,8 l 72,0 c 4.409133,0 8,-3.5908667 8,-8 l 0,-71 c 0,-4.409133 -3.590867,-8 -8,-8 l -72,0 z"
       transform="scale(1,-1)"
       id="path3770"
       style="opacity:0.2;fill:url(#linearGradient3772);fill-opacity:1;fill-rule:nonzero;stroke:none;display:inline" />
    <rect
       width="86"
       height="85"
       rx="7"
       ry="7"
       x="5"
       y="-92"
       transform="scale(1,-1)"
       id="rect3723"
       style="opacity:0.3;fill:url(#linearGradient3725);fill-opacity:1;fill-rule:nonzero;stroke:none;display:inline" />
    <rect
       width="84"
       height="84"
       rx="6"
       ry="6"
       x="6"
       y="-91"
       transform="scale(1,-1)"
       id="rect3716"
       style="opacity:0.45;fill:url(#linearGradient3721);fill-opacity:1;fill-rule:nonzero;stroke:none;display:inline" />
  </g>
  <g
     id="layer1">
    <rect
       width="84"
       height="84"
       rx="6"
       ry="6"
       x="6"
       y="6"
       id="rect2419"
       style="fill:url(#linearGradient3706);fill-opacity:1;fill-rule:nonzero;stroke:none" />
    <path
       d="m 36.273888,6.0817019 c 1.650116,2.216692 0.112581,5.9183371 2.601472,5.8815911 1.2119,1.714016 -2.415455,0.511296 0.203594,1.832342 1.506105,1.186578 -1.593388,1.86454 0.27179,2.929374 -2.149689,1.109666 0.348443,5.803987 1.945119,6.978848 2.627954,2.213161 1.162204,-4.685722 4.094495,-5.044597 1.593359,-1.819699 4.391847,-2.987811 6.379273,-4.818381 -1.942301,-0.15774 -3.076464,-1.367135 -1.237028,-2.116304 3.385456,3.470394 0.848905,-1.643528 -1.025128,-2.4532401 1.813361,-0.577046 3.576977,-0.154481 3.325361,-1.65137 1.916325,-1.402516 -1.842255,-1.855344 -3.183935,-1.538263 -4.458342,0 -8.916678,0 -13.375013,0 z M 8.472036,7.5294789 C 6.022275,8.2276739 5.851392,14.084357 8.313685,10.832218 8.918028,9.4968519 11.710763,7.8875459 8.472036,7.5294789 z m 11.446491,0.203593 c -1.412257,2.2153416 0.204915,3.9914991 1.379912,1.289427 0.831709,-1.128343 -0.617926,-1.248085 -1.379912,-1.289427 z m 3.528956,0.497674 c -2.72875,1.265212 -0.672602,4.2155641 -0.605059,4.8717381 2.87456,0.994829 4.473227,-0.650437 5.560693,2.161488 2.73516,1.576935 -0.05382,4.317061 -1.080544,5.030674 1.849342,-1.611189 5.404158,4.380481 4.472249,1.214924 -1.11178,-0.812076 2.985161,1.304563 0.859619,-1.334669 -1.956059,-3.152657 0.155272,-1.411414 0.979953,-0.675608 2.804888,-2.516097 -3.173595,-2.820214 -1.681217,-5.409578 -1.307758,-1.059583 -3.02289,-4.2694931 -5.33868,-3.642063 -1.550241,2.005564 -0.214153,-4.3699601 -2.488605,-1.1795631 -0.117891,1.7834151 -0.04285,4.0464551 -0.705711,0.9568241 -0.444071,-0.5408721 0.764001,-1.7982981 0.0273,-1.9941671 z m -5.564894,0.022621 c -1.8316,0.610853 -1.733228,3.0865051 0.518957,3.3519111 0.771435,-0.879633 0.306491,-3.1853381 -0.518957,-3.3519111 z m -7.148401,0.791753 c -2.379079,0.563878 -1.407992,2.4828651 -0.679573,3.0233211 -2.944918,0.737923 4.495691,0.943126 0.792681,1.410494 -3.080791,1.230835 2.966663,2.680942 3.958766,1.221561 3.804391,0.930735 0.136908,-3.046545 -0.19704,-5.2025321 -1.612752,-1.731481 -0.06366,3.9915331 -1.521869,0.184408 -0.508786,1.1305431 -2.126527,0.166598 -2.352965,-0.637252 z m 75.601127,0.248837 c -3.192449,1.2498621 1.98418,5.9664341 0.697641,1.6754941 -0.128164,-0.518125 0.288199,-1.8871051 -0.697641,-1.6754941 z M 19.669689,11.194162 c -2.29408,2.156707 2.915989,3.940201 -0.658895,5.546906 -0.536018,-2.002938 -1.458273,1.002105 -3.503464,-0.615417 -3.515899,1.464466 -5.313868,-0.762828 -8.257536,-2.28957 -1.768029,-0.220164 -1.10378,1.680533 -1.220883,3.460193 0,4.918306 0,9.836614 0,14.75492 1.733489,1.82448 0.676329,0.804976 0,0.301752 0.951467,3.241642 -0.419572,7.980231 3.330851,9.86583 0.637564,1.183033 3.312883,6.223076 3.436221,4.715046 -1.341215,-1.405066 -2.717353,-5.617387 -0.447896,-1.863024 2.032755,3.568795 4.774749,5.883507 8.780477,6.73276 2.190057,0.745225 3.991169,3.306965 5.917116,2.743325 1.089051,2.871967 -3.227416,5.629887 0.144912,8.308597 1.760515,2.7118 4.716185,4.4904 3.11596,8.29758 -1.119073,3.71826 -0.639926,7.76974 -1.607786,11.23409 -0.300394,2.10873 2.938037,7.46101 2.65747,3.17511 0.945569,-2.9784 0.92064,-6.25562 3.147579,-8.36483 3.047115,0.02413 0.582377,-3.27775 3.60701,-2.84642 1.845644,-2.42007 2.380233,-5.30712 5.49491,-6.26809 0.372042,-2.9376 5.178821,-7.43659 0.213139,-8.580318 -1.349609,-0.665451 -4.824504,-0.904732 -4.55895,-1.233078 0.538034,-2.914877 -4.493466,-3.744701 -6.634228,-4.937269 -2.810759,-1.995848 -7.034237,3.315594 -8.024515,-1.261025 -0.590876,-1.439948 -2.751326,-1.463301 -1.758429,-3.68521 -1.789388,1.780326 -5.289343,1.23924 -4.373033,-2.198916 1.39157,-2.895595 6.735639,-3.032599 7.64626,0.450282 -1.264352,-3.841203 2.443938,-6.83143 4.502527,-9.564217 0.419165,-1.3062 2.909742,-2.428425 2.052679,-0.692421 1.460154,-0.05269 3.673291,-2.688637 1.079407,-1.472012 -0.03668,-2.403896 -2.272976,-1.720272 -2.997994,-1.378934 1.34377,-2.133574 8.24499,-0.967127 5.355098,-4.454587 -2.239305,-0.907679 -2.053024,-6.204449 -4.317999,-3.253597 0.190595,-1.818146 -4.610012,-5.377145 -4.505255,-2.328319 0.585986,2.728128 0.107133,5.870869 -1.139926,7.659113 -0.260245,-3.99762 -7.075678,-3.114085 -6.199423,-7.373995 1.26944,-2.030291 2.752851,-4.83791 2.894179,-4.585337 2.275048,-0.868941 4.104591,-3.396512 1.46783,-5.058122 -0.140917,1.448202 -1.98303,4.436139 -1.72366,0.822325 -1.705794,2.02318 -1.316199,-3.219407 -2.913753,-3.763121 z m 54.450004,1.402533 c -3.995941,0.977838 -5.580067,4.795836 -7.556815,7.958163 -2.913853,1.314237 -2.802938,6.958318 0.452411,5.155674 0.87128,1.522277 -0.609505,3.921673 1.928313,1.931216 2.046994,-2.709901 0.357939,-7.092756 3.841419,-8.801515 0.253727,1.32865 -3.213334,6.289871 0.836994,5.474405 3.66156,0.138209 -2.661851,0.364969 -0.881001,2.704729 -1.850264,-1.098211 -0.888827,2.999333 -3.303976,2.045788 -2.092333,1.138533 -3.464338,-0.528629 -2.985033,-2.35496 -1.645958,0.960573 0.517696,3.67045 -2.339585,3.83331 -0.640044,2.273659 -5.903378,1.930962 -2.910208,4.246159 1.328901,3.445358 -4.95153,0.215986 -3.16853,4.35053 1.525447,4.088438 4.722394,-1.354722 6.019433,-2.406348 2.502474,-1.941872 6.210661,3.311089 3.958763,3.506335 2.525083,-0.338912 2.006191,-2.74125 -0.01696,-3.671301 -1.092676,-2.834933 3.459035,1.390324 3.206601,2.811683 1.605944,3.008346 0.944615,-3.080088 2.578854,-0.384565 -0.190808,2.843378 6.574181,0.668556 3.344389,4.292415 -2.776877,0.559513 -5.510134,-0.716143 -7.900831,0.100926 -2.22511,-0.01969 -2.113469,-2.397964 -2.923585,-2.993542 -2.830365,0.23004 -6.327933,0.204027 -8.222767,2.491404 -2.049016,2.812343 -5.00383,6.743795 -2.770526,10.334807 2.234877,5.321462 7.777183,0.276028 10.962975,3.418767 0.946936,1.310381 -0.820594,2.868035 1.296711,4.287425 0.796704,3.02353 -0.904488,5.89433 1.052264,8.78464 1.011837,2.7182 1.639779,6.78664 5.40576,4.30281 3.985771,-2.39945 2.924161,-6.8227 6.212939,-9.27265 -2.60227,-5.038063 3.183628,-7.247103 4.627218,-11.337101 -3.153943,0.461909 -5.963772,-2.68376 -6.725787,-5.84994 -1.324936,-1.537885 -0.983676,-3.805502 0.496326,-0.916468 2.034259,1.971905 2.078217,7.823061 5.841274,4.813019 1.720349,-0.719835 6.418607,-3.465723 2.675109,-4.71532 C 84.738799,48.485587 82.07659,41.512928 85.620023,45.557218 88.196064,46.650521 90,47.301924 90,43.677069 c 0,-9.766125 0,-19.664578 0,-29.496868 -0.802399,0.82028 -2.863802,2.335242 -3.904284,1.328569 -1.790368,0.249406 -4.153886,3.734285 -3.59125,0.365539 -1.556235,-0.103093 -0.278581,3.020534 -2.416637,3.107891 -0.215289,1.605887 -2.159868,0.297377 -1.429431,1.822369 -1.500645,-1.064875 -2.770669,-4.427041 0.186146,-2.316729 4.391021,-1.317844 -2.895608,-4.290405 -3.458045,-5.008905 0.945455,-0.226615 -1.028609,-1.212248 -1.266806,-0.88224 z m -36.239676,0.88224 c -1.461507,1.2182 2.778528,1.447612 0,0 z m -19.522376,0.656023 c -1.634652,1.710504 2.603281,1.572448 0,0 z m 9.478418,1.696613 c -1.237867,2.028578 1.829027,0.748943 0,0 z m 27.100586,2.39788 c -1.449235,1.669078 -3.362051,-0.439263 -3.39323,0.995347 0.262642,0.433474 1.314671,3.527292 3.619439,1.244183 1.236985,-0.52171 0.749963,-1.836879 -0.226209,-2.23953 z m -30.855759,0.995347 c -2.748806,2.401478 4.668304,2.622741 0.582324,0.275426 l -0.582324,-0.275426 z m 36.262298,6.650724 c -1.979083,1.291041 0.949434,4.032808 -0.04308,5.320723 C 59.06,33.35771 64.908429,31.04399 61.784718,29.319485 61.562154,27.837869 59.9547,26.030129 60.343179,25.875522 z m -1.334668,2.601473 c -2.757392,0.779858 -0.625964,4.806237 0.350657,1.013998 0.05497,-0.219858 0.12936,-1.021351 -0.350657,-1.013998 z M 36.929913,31.39517 c -2.565224,1.749832 -0.39843,3.496444 1.481561,2.709121 -0.385959,-1.055763 -1.46417,-1.720956 -1.481561,-2.709121 z m 48.455298,2.940797 c 1.279946,0.646198 -2.345536,1.750082 -0.04983,2.887358 1.335978,1.571671 0.832312,4.945457 -1.339202,2.557643 0.403442,-2.665992 -2.943559,-4.656978 1.389033,-5.445001 z m -6.582867,0.02262 c -0.173666,1.712793 3.69395,4.375139 -0.475048,3.506334 -2.204744,0.258725 -5.506966,-0.06739 -2.729423,-2.815681 0.87765,-0.527085 3.182055,1.818498 1.982912,-0.373952 0.42514,-0.02713 0.821079,-0.187672 1.221559,-0.316701 z m -12.735913,3.709927 c -1.608116,1.036413 1.111982,1.831121 0,0 z M 25.687014,47.7279 c -0.271103,0.904805 5.085991,1.821755 1.389301,0.372149 L 26.525247,47.906003 25.687014,47.7279 z m 4.16236,1.289426 c -1.624915,1.650213 3.347807,0.493017 0,0 z M 84.186275,64.15112 c -3.530727,0.09113 -3.061331,9.20159 -0.600138,3.81083 0.233406,-1.16979 1.168903,-2.71377 0.600138,-3.81083 z"
       inkscape:connector-curvature="0"
       id="path3522"
       style="opacity:0.7;fill:url(#radialGradient3677);fill-opacity:1;stroke:none;display:inline" />
    <path
       d="M 12,6 C 8.676,6 6,8.676 6,12 l 0,2 0,68 0,2 c 0,0.334721 0.04135,0.6507 0.09375,0.96875 0.0487,0.295596 0.09704,0.596915 0.1875,0.875 0.00988,0.03038 0.020892,0.0636 0.03125,0.09375 0.098865,0.287771 0.2348802,0.547452 0.375,0.8125 0.1445918,0.273507 0.3156161,0.535615 0.5,0.78125 0.1843839,0.245635 0.3737765,0.473472 0.59375,0.6875 0.439947,0.428056 0.94291,0.814526 1.5,1.09375 0.278545,0.139612 0.5734731,0.246947 0.875,0.34375 -0.2562018,-0.100222 -0.4867109,-0.236272 -0.71875,-0.375 -0.00741,-0.0044 -0.023866,0.0045 -0.03125,0 -0.031933,-0.0193 -0.062293,-0.04251 -0.09375,-0.0625 -0.120395,-0.0767 -0.2310226,-0.163513 -0.34375,-0.25 -0.1061728,-0.0808 -0.2132809,-0.161112 -0.3125,-0.25 C 8.4783201,88.557317 8.3087904,88.373362 8.15625,88.1875 8.0486711,88.057245 7.9378561,87.922215 7.84375,87.78125 7.818661,87.74287 7.805304,87.69538 7.78125,87.65625 7.716487,87.553218 7.6510225,87.451733 7.59375,87.34375 7.4927417,87.149044 7.3880752,86.928049 7.3125,86.71875 7.30454,86.69694 7.288911,86.6782 7.28125,86.65625 7.2494249,86.5643 7.2454455,86.469419 7.21875,86.375 7.1884177,86.268382 7.1483606,86.171969 7.125,86.0625 7.0521214,85.720988 7,85.364295 7,85 L 7,83 7,15 7,13 C 7,10.218152 9.2181517,8 12,8 l 2,0 68,0 2,0 c 2.781848,0 5,2.218152 5,5 l 0,2 0,68 0,2 c 0,0.364295 -0.05212,0.720988 -0.125,1.0625 -0.04415,0.206893 -0.08838,0.397658 -0.15625,0.59375 -0.0077,0.02195 -0.0233,0.04069 -0.03125,0.0625 -0.06274,0.173739 -0.138383,0.367449 -0.21875,0.53125 -0.04158,0.0828 -0.07904,0.169954 -0.125,0.25 -0.0546,0.09721 -0.126774,0.18835 -0.1875,0.28125 -0.09411,0.140965 -0.204921,0.275995 -0.3125,0.40625 -0.143174,0.17445 -0.303141,0.346998 -0.46875,0.5 -0.01117,0.0102 -0.01998,0.02115 -0.03125,0.03125 -0.138386,0.125556 -0.285091,0.234436 -0.4375,0.34375 -0.102571,0.07315 -0.204318,0.153364 -0.3125,0.21875 -0.0074,0.0045 -0.02384,-0.0044 -0.03125,0 -0.232039,0.138728 -0.462548,0.274778 -0.71875,0.375 0.301527,-0.0968 0.596455,-0.204138 0.875,-0.34375 0.55709,-0.279224 1.060053,-0.665694 1.5,-1.09375 0.219973,-0.214028 0.409366,-0.441865 0.59375,-0.6875 0.184384,-0.245635 0.355408,-0.507743 0.5,-0.78125 0.14012,-0.265048 0.276135,-0.524729 0.375,-0.8125 0.01041,-0.03078 0.02133,-0.06274 0.03125,-0.09375 0.09046,-0.278085 0.1388,-0.579404 0.1875,-0.875 C 89.95865,84.6507 90,84.334721 90,84 l 0,-2 0,-68 0,-2 C 90,8.676 87.324,6 84,6 L 12,6 z"
       inkscape:connector-curvature="0"
       id="rect3728"
       style="opacity:0.4;fill:url(#linearGradient3188);fill-opacity:1;fill-rule:nonzero;stroke:none" />
    <path
       d="M 12,90 C 8.676,90 6,87.324 6,84 L 6,82 6,14 6,12 c 0,-0.334721 0.04135,-0.6507 0.09375,-0.96875 0.0487,-0.295596 0.09704,-0.596915 0.1875,-0.875 C 6.29113,10.12587 6.302142,10.09265 6.3125,10.0625 6.411365,9.774729 6.5473802,9.515048 6.6875,9.25 6.8320918,8.976493 7.0031161,8.714385 7.1875,8.46875 7.3718839,8.223115 7.5612765,7.995278 7.78125,7.78125 8.221197,7.353194 8.72416,6.966724 9.28125,6.6875 9.559795,6.547888 9.8547231,6.440553 10.15625,6.34375 9.9000482,6.443972 9.6695391,6.580022 9.4375,6.71875 c -0.00741,0.0044 -0.023866,-0.0045 -0.03125,0 -0.031933,0.0193 -0.062293,0.04251 -0.09375,0.0625 -0.120395,0.0767 -0.2310226,0.163513 -0.34375,0.25 -0.1061728,0.0808 -0.2132809,0.161112 -0.3125,0.25 C 8.4783201,7.442683 8.3087904,7.626638 8.15625,7.8125 8.0486711,7.942755 7.9378561,8.077785 7.84375,8.21875 7.818661,8.25713 7.805304,8.30462 7.78125,8.34375 7.716487,8.446782 7.6510225,8.548267 7.59375,8.65625 7.4927417,8.850956 7.3880752,9.071951 7.3125,9.28125 7.30454,9.30306 7.288911,9.3218 7.28125,9.34375 7.2494249,9.4357 7.2454455,9.530581 7.21875,9.625 7.1884177,9.731618 7.1483606,9.828031 7.125,9.9375 7.0521214,10.279012 7,10.635705 7,11 l 0,2 0,68 0,2 c 0,2.781848 2.2181517,5 5,5 l 2,0 68,0 2,0 c 2.781848,0 5,-2.218152 5,-5 l 0,-2 0,-68 0,-2 C 89,10.635705 88.94788,10.279012 88.875,9.9375 88.83085,9.730607 88.78662,9.539842 88.71875,9.34375 88.71105,9.3218 88.69545,9.30306 88.6875,9.28125 88.62476,9.107511 88.549117,8.913801 88.46875,8.75 88.42717,8.6672 88.38971,8.580046 88.34375,8.5 88.28915,8.40279 88.216976,8.31165 88.15625,8.21875 88.06214,8.077785 87.951329,7.942755 87.84375,7.8125 87.700576,7.63805 87.540609,7.465502 87.375,7.3125 87.36383,7.3023 87.35502,7.29135 87.34375,7.28125 87.205364,7.155694 87.058659,7.046814 86.90625,6.9375 86.803679,6.86435 86.701932,6.784136 86.59375,6.71875 c -0.0074,-0.0045 -0.02384,0.0044 -0.03125,0 -0.232039,-0.138728 -0.462548,-0.274778 -0.71875,-0.375 0.301527,0.0968 0.596455,0.204138 0.875,0.34375 0.55709,0.279224 1.060053,0.665694 1.5,1.09375 0.219973,0.214028 0.409366,0.441865 0.59375,0.6875 0.184384,0.245635 0.355408,0.507743 0.5,0.78125 0.14012,0.265048 0.276135,0.524729 0.375,0.8125 0.01041,0.03078 0.02133,0.06274 0.03125,0.09375 0.09046,0.278085 0.1388,0.579404 0.1875,0.875 C 89.95865,11.3493 90,11.665279 90,12 l 0,2 0,68 0,2 c 0,3.324 -2.676,6 -6,6 l -72,0 z"
       inkscape:connector-curvature="0"
       id="path3615"
       style="opacity:0.2;fill:url(#radialGradient2855);fill-opacity:1;fill-rule:nonzero;stroke:none" />
  </g>
  <g
     id="layer4">
    <rect
       width="66"
       height="66"
       rx="12"
       ry="12"
       x="15"
       y="15"
       clip-path="url(#clipPath3613)"
       id="rect3171"
       style="opacity:0.15;fill:url(#linearGradient2885);fill-opacity:1;fill-rule:nonzero;stroke:#ffffff;stroke-width:0.5;stroke-linecap:round;stroke-linejoin:miter;stroke-miterlimit:4;stroke-opacity:1;stroke-dasharray:none;stroke-dashoffset:0;filter:url(#filter3794)" />
  </g>
  <g
     id="layer3">
    <path
       d="m 47.875,12.53125 c -19.665156,0 -34.34375,14.999404 -34.34375,36.15625 0,19.118918 14.02979,36.78125 34.34375,36.78125 20.474386,0 34.59375,-17.649129 34.59375,-36.78125 0,-21.347534 -15.095814,-36.15625 -34.59375,-36.15625 z m 0,12.3125 c 1.756401,0 2.599661,0.393867 3.65625,1.40625 1.000288,0.958438 1.979767,2.620707 2.71875,4.8125 1.480957,4.392456 2,10.867268 2,17.09375 0,5.461989 -0.249389,12.186429 -1.65625,17.03125 -0.702526,2.419296 -1.719151,4.340565 -2.78125,5.46875 -1.11749,1.187022 -2.020724,1.65625 -3.9375,1.65625 -1.878029,0 -2.681599,-0.428906 -3.78125,-1.625 -1.044239,-1.135822 -2.06817,-3.081629 -2.75,-5.5 C 39.97148,60.32022 39.749509,53.575882 39.75,48.15625 c 0,-5.799388 0.434058,-12.281913 1.875,-16.8125 0.715858,-2.25079 1.716559,-4.011946 2.71875,-5.03125 1.063096,-1.081249 1.830311,-1.46875 3.53125,-1.46875 z"
       transform="translate(90,0)"
       id="path4063"
       style="opacity:0.05;fill:#000000;fill-rule:evenodd" />
    <path
       d="m 47.875,13.8125 c -19.024622,0 -33.0625,14.299571 -33.0625,34.875 0,18.497484 13.488784,35.5 33.0625,35.5 19.740828,0 33.3125,-16.992804 33.3125,-35.5 0,-20.754093 -14.45262,-34.875 -33.3125,-34.875 z m 0,9.75 c 1.998956,0 3.298634,0.568955 4.53125,1.75 1.219624,1.168597 2.277804,3.016375 3.0625,5.34375 1.570993,4.659499 2.0625,11.206959 2.0625,17.5 0,5.498805 -0.23756,12.274212 -1.71875,17.375 -0.740277,2.549299 -1.788431,4.646655 -3.0625,6 -1.286425,1.366469 -2.687118,2.0625 -4.875,2.0625 -2.140416,0 -3.457175,-0.659031 -4.71875,-2.03125 -1.247806,-1.357243 -2.310404,-3.474493 -3.03125,-6.03125 -1.443583,-5.12022 -1.656744,-11.921959 -1.65625,-17.375 0,-5.859736 0.414963,-12.400364 1.9375,-17.1875 0.759321,-2.387446 1.819571,-4.330131 3.03125,-5.5625 1.224983,-1.2459 2.476725,-1.84375 4.4375,-1.84375 z"
       transform="translate(90,0)"
       id="path4059"
       style="opacity:0.1;fill:#000000;fill-rule:evenodd" />
    <path
       d="m 47.875,14.90625 c -18.48982,0 -31.96875,13.690402 -31.96875,33.78125 0,17.974223 13.021436,34.40625 31.96875,34.40625 19.120352,0 32.21875,-16.425208 32.21875,-34.40625 0,-20.258809 -13.891806,-33.78125 -32.21875,-33.78125 z m 0,7.5625 c 2.232421,0 3.881784,0.721585 5.28125,2.0625 1.399466,1.340915 2.521079,3.341242 3.34375,5.78125 1.645343,4.880016 2.125,11.49613 2.125,17.84375 0,5.530007 -0.238889,12.376056 -1.78125,17.6875 -0.771181,2.655722 -1.864546,4.899451 -3.3125,6.4375 -1.447954,1.538049 -3.211829,2.40625 -5.65625,2.40625 -2.399985,0 -4.111961,-0.862485 -5.53125,-2.40625 -1.419289,-1.543765 -2.499014,-3.805089 -3.25,-6.46875 -1.501973,-5.327321 -1.719247,-12.174499 -1.71875,-17.65625 0,-5.909847 0.410011,-12.532033 2,-17.53125 0.794994,-2.499608 1.900089,-4.564005 3.28125,-5.96875 1.381161,-1.404745 3.002833,-2.1875 5.21875,-2.1875 z"
       transform="translate(90,0)"
       id="path4055"
       style="opacity:0.15;fill:#000000;fill-rule:evenodd" />
    <path
       d="m 137.87709,75.794776 c 10.8737,0 11.85337,-16.53037 11.85337,-27.653367 0,-12.80236 -1.90853,-26.76842 -11.85337,-26.76842 -9.94311,0 -11.60844,14.848716 -11.60844,26.76842 -10e-4,11.02101 0.88976,27.654227 11.60844,27.654227 z M 137.8744,16 C 155.67742,16 169,28.921252 169,48.693462 169,66.152323 156.37877,81.999999 137.87726,81.999999 119.555,81.999999 107,66.148311 107,48.693462 107,29.077958 119.9101,16 137.8744,16 z"
       inkscape:connector-curvature="0"
       id="path3969"
       style="opacity:0.3;fill:#000000;fill-rule:evenodd" />
    <path
       d="m 48,16.84375 c -15.111249,1e-6 -26.843749,14.692852 -26.84375,32.125 0,17.431825 11.72431,32.1875 26.84375,32.1875 15.119441,0 26.84375,-14.755675 26.84375,-32.1875 0,-17.432146 -11.732499,-32.125 -26.84375,-32.125 z m 0,9.4375 c 2.266329,0 3.625733,0.521716 4.75,1.40625 1.109208,0.872687 1.990317,2.21902 2.6875,4.1875 1.386117,3.913671 1.75,10.122212 1.75,17.09375 2e-6,6.948642 -0.439727,13.156579 -1.875,17.09375 -0.716859,1.966449 -1.639087,3.332466 -2.75,4.21875 -1.123778,0.896548 -2.415918,1.40625 -4.5625,1.40625 -2.201744,0 -3.535757,-0.517109 -4.65625,-1.40625 C 42.238729,69.404387 41.33396,68.034516 40.625,66.0625 39.212143,62.132554 38.8125,55.928822 38.8125,48.96875 38.812501,42.008633 39.216593,35.795953 40.625,31.875 41.33002,29.912252 42.228814,28.569371 43.34375,27.6875 44.471345,26.795616 45.788279,26.28125 48,26.28125 z"
       id="path3748"
       style="opacity:0.07999998;fill:#000000;fill-opacity:1;fill-rule:nonzero;stroke:none;display:inline" />
    <path
       d="M 48,17.75 C 33.48637,17.750001 22.062501,31.946631 22.0625,48.96875 22.0625,65.990751 33.480576,80.25 48,80.25 62.519425,80.25 73.9375,65.990751 73.9375,48.96875 73.9375,31.946633 62.513632,17.75 48,17.75 z m 0,7.625 c 2.414211,0 4.02953,0.584354 5.3125,1.59375 1.279275,1.00649 2.263575,2.51447 3,4.59375 1.469331,4.148623 1.78125,10.407483 1.78125,17.40625 2e-6,6.982509 -0.387046,13.238845 -1.90625,17.40625 C 55.428591,68.4568 54.397672,69.984665 53.125,71 51.850091,72.01712 50.299771,72.59375 48,72.59375 45.647522,72.59375 44.058282,72.013359 42.78125,71 41.507844,69.989519 40.49922,68.459003 39.75,66.375 38.253556,62.21255 37.90625,55.959177 37.90625,48.96875 37.906251,41.97789 38.258024,35.716106 39.75,31.5625 40.496058,29.485503 41.502783,27.979968 42.78125,26.96875 44.062093,25.955653 45.63808,25.375 48,25.375 z"
       id="path3744"
       style="opacity:0.1;fill:#000000;fill-opacity:1;fill-rule:nonzero;stroke:none;display:inline" />
    <path
       d="m 48,18.65625 c -13.917613,1e-6 -25.031249,13.695469 -25.03125,30.3125 0,16.61703 11.110425,30.375 25.03125,30.375 13.920826,0 25.03125,-13.75797 25.03125,-30.375 0,-16.617029 -11.113635,-30.3125 -25.03125,-30.3125 z m 0,5.8125 c 2.565453,0 4.425208,0.640604 5.875,1.78125 1.449792,1.140646 2.506659,2.812958 3.28125,5 C 58.705433,35.624083 59,41.944583 59,48.96875 c 2e-6,7.014361 -0.368875,13.330053 -1.96875,17.71875 -0.799938,2.194349 -1.908329,3.886074 -3.34375,5.03125 C 52.252079,72.863926 50.456598,73.5 48,73.5 45.493603,73.5 43.660811,72.863064 42.21875,71.71875 40.776689,70.574436 39.694614,68.880384 38.90625,66.6875 37.329521,62.301732 37,55.987613 37,48.96875 c 10e-7,-7.019681 0.334023,-13.34173 1.90625,-17.71875 0.786114,-2.18851 1.869362,-3.858534 3.3125,-5 C 43.661888,25.108534 45.484059,24.46875 48,24.46875 z"
       id="path3740"
       style="opacity:0.15;fill:#000000;fill-opacity:1;fill-rule:nonzero;stroke:none;display:inline" />
    <path
       d="m 48,19.70313 c -13.243274,0 -23.999999,13.10947 -24,29.27343 0,16.16396 10.756728,29.32032 24,29.32032 13.243274,0 24,-13.15636 24,-29.32032 C 72,32.8126 61.243276,19.70313 48,19.70313 z m 0,3.75 c 10.971205,0 12.023437,11.42391 12.023437,25.52343 C 60.023442,63.07608 58.56507,74.52344 48,74.52344 37.24854,74.52344 35.976562,63.07608 35.976562,48.97656 35.976564,34.87704 37.214618,23.45313 48,23.45313 z"
       inkscape:connector-curvature="0"
       id="path3734"
       style="opacity:0.3;fill:#000000;fill-opacity:1;fill-rule:nonzero;stroke:none;display:inline" />
    <path
       d="m 48,18.70313 c -13.243274,0 -23.999999,13.10947 -24,29.27343 0,16.16396 10.756728,29.32032 24,29.32032 13.243274,0 24,-13.15636 24,-29.32032 C 72,31.8126 61.243276,18.70313 48,18.70313 z m 0,3.75 c 10.971205,0 12.023437,11.42391 12.023437,25.52343 C 60.023442,62.07608 58.56507,73.52344 48,73.52344 37.24854,73.52344 35.976562,62.07608 35.976562,47.97656 35.976564,33.87704 37.214618,22.45313 48,22.45313 z"
       inkscape:connector-curvature="0"
       id="path3539"
       style="fill:url(#linearGradient3147);fill-opacity:1;fill-rule:nonzero;stroke:none;display:inline" />
    <path
       d="m 48,21.4375 c -10.785382,0 -12.031248,11.43173 -12.03125,25.53125 0,0.17085 -3.88e-4,0.32995 0,0.5 C 35.99979,33.60684 37.346103,22.4375 48,22.4375 c 9.599804,0 11.617349,8.77406 11.96875,20.40625 C 59.697589,30.72671 57.867355,21.4375 48,21.4375 z M 24,47.46875 c -0.0023,0.16763 0,0.3317 0,0.5 0,16.16396 10.756728,29.34375 24,29.34375 13.243274,0 24,-13.17979 24,-29.34375 0,-0.1683 0.0023,-0.33237 0,-0.5 C 71.779218,63.40134 61.105383,76.3125 48,76.3125 34.894619,76.3125 24.220782,63.40134 24,47.46875 z"
       inkscape:connector-curvature="0"
       id="path3716"
       style="opacity:0.15;fill:#000000;fill-opacity:1;fill-rule:nonzero;stroke:none;display:inline" />
    <path
       d="m 48,18.6875 c -13.243274,0 -23.999999,13.11729 -24,29.28125 0,0.1683 -0.0023,0.33236 0,0.5 0.220783,-15.93164 10.894617,-28.78125 24,-28.78125 13.105385,0 23.779218,12.84961 24,28.78125 0.0023,-0.16764 0,-0.3317 0,-0.5 C 72,31.80479 61.243276,18.6875 48,18.6875 z M 35.96875,48.46875 c -3.83e-4,0.17108 0,0.32811 0,0.5 0,14.09952 1.27979,25.5625 12.03125,25.5625 10.156267,0 11.880503,-10.59351 12,-23.9375 -0.198908,12.87529 -2.095247,22.9375 -12,22.9375 -10.621182,0 -11.999607,-11.1986 -12.03125,-25.0625 z"
       inkscape:connector-curvature="0"
       id="path3725"
       style="opacity:0.75;fill:#ffffff;fill-opacity:1;fill-rule:nonzero;stroke:none;display:inline" />
    <g
       transform="matrix(0.4488498,0,0,0.45047258,47.27416,27.510714)"
       id="g3943">
      <path
         d="m 201.8558,104.96546 c 24.22569,0 26.4083,-36.695618 26.4083,-61.387458 0,-28.419843 -4.25203,-59.422973 -26.4083,-59.422973 -22.15244,0 -25.86264,32.96253 -25.86264,59.422973 -0.003,24.46544 1.98229,61.389368 25.86264,61.389368 z m -0.006,-132.737881 c 39.66364,0 69.34524,28.68377002 69.34524,72.575921 0,38.756766 -28.11904,73.93688 -69.33888,73.93688 -40.82046,0 -68.79196,-35.189019 -68.79196,-73.93688 0,-43.544281 28.76263,-72.575921 68.7856,-72.575921 z"
         inkscape:connector-curvature="0"
         id="path3137"
         style="fill:url(#linearGradient3953);fill-rule:evenodd" />
      <path
         d="m 242.81808,102.86678 c -10.3172,9.10634 -23.93504,14.27925 -40.96291,14.27925 -16.87651,0 -30.42567,-5.17291 -40.71489,-14.27925 l 34.9111,-0.084 c 1.78896,0.49415 3.71974,0.75362 5.80379,0.75362 2.11393,0 4.07015,-0.17235 5.8801,-0.66649 h 35.07963 z"
         inkscape:connector-curvature="0"
         id="path3139"
         style="opacity:0.5;fill:url(#linearGradient3955);fill-rule:evenodd" />
      <path
         d="m 201.84308,103.17205 c -24.69565,0 -25.724,-35.079005 -25.724,-59.671 0,-28.847211 2.79314,-56.552871 25.724,-56.552871 22.93341,0 26.4223,28.05417 26.4223,56.524255 -0.006,24.637146 -1.38004,59.697706 -26.4242,59.697706 z m 0.006,-119.872381 c -26.97558,0 -29.67269,36.02213 -29.67269,60.184847 0,27.355884 5.38023,62.883874 29.67269,62.883874 25.87473,0 30.40659,-35.578232 30.40659,-62.883874 0,-23.777967 -2.87455,-60.186127 -30.40532,-60.186127 z"
         inkscape:connector-curvature="0"
         id="path3141"
         style="opacity:0.8;fill:url(#linearGradient3957);fill-rule:evenodd" />
      <path
         d="m 201.8558,102.29442 c -23.86509,0 -24.81585,-34.514902 -24.81585,-58.70497 0,-28.382961 2.65641,-55.594481 24.81585,-55.594481 22.16135,0 25.50651,27.55621 25.50651,55.565862 -0.006,24.230133 -1.30372,58.731049 -25.50841,58.731049 z m 0.006,-118.009011 c -26.55966,0 -28.44719,35.71369 -28.44719,59.28687 0,26.912618 4.48225,61.866331 28.44719,61.866331 25.00219,0 29.34517,-35.003316 29.34517,-61.866331 0,-23.19479 -2.74099,-59.28751 -29.34326,-59.28751 z"
         inkscape:connector-curvature="0"
         id="path3143"
         style="fill:url(#linearGradient3959);fill-rule:evenodd" />
      <path
         d="m 175.91112,42.946492 c 0,-25.402843 3.40176,-54.946433 25.94087,-54.946433 22.54102,0 26.66841,30.85367 26.66841,54.546413 0,-21.401373 -2.90126,-55.490183 -26.63471,-55.490183 -23.68193,-0.003 -25.97012,34.11616 -25.97012,55.89084 z"
         inkscape:connector-curvature="0"
         id="path3145"
         style="opacity:0.5;fill:url(#linearGradient3961);fill-rule:evenodd" />
      <path
         d="m 227.56773,47.487258 c 0,25.402844 -3.73501,54.933712 -25.53895,54.933712 -21.80648,0 -25.29027,-29.231329 -25.29027,-54.533055 0,23.0129 2.29772,55.477465 25.25657,55.477465 22.92005,0.006 25.57201,-34.106618 25.57201,-55.875579 z"
         inkscape:connector-curvature="0"
         id="path3147"
         style="opacity:0.15;fill:url(#linearGradient3963);fill-rule:evenodd" />
      <path
         d="m 134.93294,44.351967 c 0,37.489295 25.54848,73.180093 67.07486,73.180093 41.82782,0 67.78713,-36.7077 67.78713,-73.180093 0,36.142965 -26.56411,72.595003 -67.78713,72.595003 -40.91395,-0.006 -67.07486,-35.454853 -67.07486,-72.595003 z"
         inkscape:connector-curvature="0"
         id="path3149"
         style="opacity:0.8;fill:#ffffff;fill-rule:evenodd" />
      <path
         d="m 135.17969,42.64759 c 0,-30.861941 21.17244,-68.887351 66.67421,-68.887351 37.90012,0 67.54546,29.39669 67.54546,68.887351 0,-39.882411 -27.08687,-70.318261 -67.54546,-70.318261 -40.77467,-0.004 -66.67421,29.60401 -66.67421,70.318261 z"
         inkscape:connector-curvature="0"
         id="path3151"
         style="opacity:0.65;fill:url(#linearGradient3965);fill-rule:evenodd" />
    </g>
  </g>
</svg>
