<?xml version="1.0" encoding="UTF-8" standalone="no"?>
<!-- Created with Inkscape (http://www.inkscape.org/) -->

<svg
   xmlns:dc="http://purl.org/dc/elements/1.1/"
   xmlns:cc="http://creativecommons.org/ns#"
   xmlns:rdf="http://www.w3.org/1999/02/22-rdf-syntax-ns#"
   xmlns:svg="http://www.w3.org/2000/svg"
   xmlns="http://www.w3.org/2000/svg"
   xmlns:xlink="http://www.w3.org/1999/xlink"
   xmlns:inkscape="http://www.inkscape.org/namespaces/inkscape"
   version="1.0"
   width="96"
   height="96"
   id="svg2408">
  <defs
     id="defs2410">
    <linearGradient
       id="linearGradient4172">
      <stop
         id="stop4174"
         style="stop-color:#828283;stop-opacity:1"
         offset="0" />
      <stop
         id="stop4176"
         style="stop-color:#c0c0c0;stop-opacity:1"
         offset="1" />
    </linearGradient>
    <linearGradient
       x1="45.447727"
       y1="92.539597"
       x2="45.447727"
       y2="7.0165396"
       id="ButtonShadow"
       gradientUnits="userSpaceOnUse"
       gradientTransform="scale(1.0058652,0.994169)">
      <stop
         id="stop3750"
         style="stop-color:#000000;stop-opacity:1"
         offset="0" />
      <stop
         id="stop3752"
         style="stop-color:#000000;stop-opacity:0.58823532"
         offset="1" />
    </linearGradient>
    <linearGradient
       id="linearGradient3737">
      <stop
         id="stop3739"
         style="stop-color:#ffffff;stop-opacity:1"
         offset="0" />
      <stop
         id="stop3741"
         style="stop-color:#ffffff;stop-opacity:0"
         offset="1" />
    </linearGradient>
    <filter
       color-interpolation-filters="sRGB"
       id="filter3174">
      <feGaussianBlur
         id="feGaussianBlur3176"
         stdDeviation="1.71" />
    </filter>
    <linearGradient
       x1="36.357143"
       y1="6"
       x2="36.357143"
       y2="63.893143"
       id="linearGradient3188"
       xlink:href="#linearGradient3737"
       gradientUnits="userSpaceOnUse" />
    <filter
       x="-0.192"
       y="-0.192"
       width="1.3839999"
       height="1.3839999"
       color-interpolation-filters="sRGB"
       id="filter3794">
      <feGaussianBlur
         id="feGaussianBlur3796"
         stdDeviation="5.28" />
    </filter>
    <linearGradient
       x1="48"
       y1="20.220806"
       x2="48"
       y2="138.66119"
       id="linearGradient3613"
       xlink:href="#linearGradient3737"
       gradientUnits="userSpaceOnUse" />
    <radialGradient
       cx="48"
       cy="90.171875"
       r="42"
       fx="48"
       fy="90.171875"
       id="radialGradient3619"
       xlink:href="#linearGradient3737"
       gradientUnits="userSpaceOnUse"
       gradientTransform="matrix(1.1573129,0,0,0.99590774,-7.5510206,0.19713193)" />
    <clipPath
       id="clipPath3613">
      <rect
         width="84"
         height="84"
         rx="6"
         ry="6"
         x="6"
         y="6"
         id="rect3615"
         style="fill:#ffffff;fill-opacity:1;fill-rule:nonzero;stroke:none" />
    </clipPath>
    <linearGradient
       x1="48"
       y1="90"
       x2="48"
       y2="5.9877172"
       id="linearGradient3617"
       xlink:href="#linearGradient4172"
       gradientUnits="userSpaceOnUse" />
    <linearGradient
       x1="45.447727"
       y1="92.539597"
       x2="45.447727"
       y2="7.0165396"
       id="ButtonShadow-0"
       gradientUnits="userSpaceOnUse"
       gradientTransform="matrix(1.0058652,0,0,0.994169,100,0)">
      <stop
         id="stop3750-8"
         style="stop-color:#000000;stop-opacity:1"
         offset="0" />
      <stop
         id="stop3752-5"
         style="stop-color:#000000;stop-opacity:0.58823532"
         offset="1" />
    </linearGradient>
    <linearGradient
       x1="32.251034"
       y1="6.1317081"
       x2="32.251034"
       y2="90.238609"
       id="linearGradient3780"
       xlink:href="#ButtonShadow-0"
       gradientUnits="userSpaceOnUse"
       gradientTransform="matrix(1.0238095,0,0,1.0119048,-1.1428571,-98.071429)" />
    <linearGradient
       x1="32.251034"
       y1="6.1317081"
       x2="32.251034"
       y2="90.238609"
       id="linearGradient3772"
       xlink:href="#ButtonShadow-0"
       gradientUnits="userSpaceOnUse"
       gradientTransform="matrix(1.0238095,0,0,1.0119048,-1.1428571,-98.071429)" />
    <linearGradient
       x1="32.251034"
       y1="6.1317081"
       x2="32.251034"
       y2="90.238609"
       id="linearGradient3725"
       xlink:href="#ButtonShadow-0"
       gradientUnits="userSpaceOnUse"
       gradientTransform="matrix(1.0238095,0,0,1.0119048,-1.1428571,-98.071429)" />
    <linearGradient
       x1="32.251034"
       y1="6.1317081"
       x2="32.251034"
       y2="90.238609"
       id="linearGradient3721"
       xlink:href="#ButtonShadow-0"
       gradientUnits="userSpaceOnUse"
       gradientTransform="translate(0,-97)" />
    <linearGradient
       x1="32.251034"
       y1="6.1317081"
       x2="32.251034"
       y2="90.238609"
       id="linearGradient3026"
       xlink:href="#ButtonShadow-0"
       gradientUnits="userSpaceOnUse"
       gradientTransform="matrix(1.0238095,0,0,1.0119048,-1.1428571,-98.071429)" />
    <linearGradient
       id="linearGradient4560">
      <stop
         id="stop4562"
         style="stop-color:#444444;stop-opacity:1"
         offset="0" />
      <stop
         id="stop4564"
         style="stop-color:#888888;stop-opacity:1"
         offset="1" />
    </linearGradient>
    <linearGradient
       id="linearGradient3833">
      <stop
         id="stop3835"
         style="stop-color:#8fd400;stop-opacity:1"
         offset="0" />
      <stop
         id="stop3837"
         style="stop-color:#daff31;stop-opacity:1"
         offset="1" />
    </linearGradient>
    <linearGradient
       x1="120.5"
       y1="706.87787"
       x2="120.5"
       y2="678.83179"
       id="linearGradient3282"
       xlink:href="#linearGradient3833"
       gradientUnits="userSpaceOnUse"
       gradientTransform="matrix(0.7266958,0,0,0.72620414,-42.885771,-460.97774)" />
    <linearGradient
       x1="141.70711"
       y1="723.34747"
       x2="141"
       y2="675.35034"
       id="linearGradient3286"
       xlink:href="#linearGradient4560"
       gradientUnits="userSpaceOnUse"
       gradientTransform="matrix(0.74079567,0,0,0.74079567,-44.275459,-471.72857)" />
  </defs>
  <metadata
     id="metadata2413">
    <rdf:RDF>
      <cc:Work
         rdf:about="">
        <dc:format>image/svg+xml</dc:format>
        <dc:type
           rdf:resource="http://purl.org/dc/dcmitype/StillImage" />
        <dc:title />
      </cc:Work>
    </rdf:RDF>
  </metadata>
  <g
     id="layer2"
     style="display:none">
    <rect
       width="86"
       height="85"
       rx="6"
       ry="6"
       x="5"
       y="7"
       id="rect3745"
       style="opacity:0.9;fill:url(#ButtonShadow);fill-opacity:1;fill-rule:nonzero;stroke:none;filter:url(#filter3174)" />
  </g>
  <g
     id="layer3">
    <path
       d="m 12,-95.03125 c -5.5110903,0 -10.03125,4.52016 -10.03125,10.03125 l 0,71 c 0,5.5110902 4.5201598,10.03125 10.03125,10.03125 l 72,0 c 5.51109,0 10.03125,-4.5201597 10.03125,-10.03125 l 0,-71 c 0,-5.51109 -4.52016,-10.03125 -10.03125,-10.03125 l -72,0 z"
       transform="scale(1,-1)"
       id="path3786"
       style="opacity:0.07999998;fill:url(#linearGradient3026);fill-opacity:1;fill-rule:nonzero;stroke:none;display:inline" />
    <path
       d="m 12,-94.03125 c -4.971633,0 -9.03125,4.059617 -9.03125,9.03125 l 0,71 c 0,4.9716329 4.0596171,9.03125 9.03125,9.03125 l 72,0 c 4.971633,0 9.03125,-4.059617 9.03125,-9.03125 l 0,-71 c 0,-4.971633 -4.059617,-9.03125 -9.03125,-9.03125 l -72,0 z"
       transform="scale(1,-1)"
       id="path3778"
       style="opacity:0.1;fill:url(#linearGradient3780);fill-opacity:1;fill-rule:nonzero;stroke:none;display:inline" />
    <path
       d="m 12,-93 c -4.4091333,0 -8,3.590867 -8,8 l 0,71 c 0,4.4091333 3.5908667,8 8,8 l 72,0 c 4.409133,0 8,-3.5908667 8,-8 l 0,-71 c 0,-4.409133 -3.590867,-8 -8,-8 l -72,0 z"
       transform="scale(1,-1)"
       id="path3770"
       style="opacity:0.2;fill:url(#linearGradient3772);fill-opacity:1;fill-rule:nonzero;stroke:none;display:inline" />
    <rect
       width="86"
       height="85"
       rx="7"
       ry="7"
       x="5"
       y="-92"
       transform="scale(1,-1)"
       id="rect3723"
       style="opacity:0.3;fill:url(#linearGradient3725);fill-opacity:1;fill-rule:nonzero;stroke:none;display:inline" />
    <rect
       width="84"
       height="84"
       rx="6"
       ry="6"
       x="6"
       y="-91"
       transform="scale(1,-1)"
       id="rect3716"
       style="opacity:0.45;fill:url(#linearGradient3721);fill-opacity:1;fill-rule:nonzero;stroke:none;display:inline" />
  </g>
  <g
     id="layer1">
    <rect
       width="84"
       height="84"
       rx="6"
       ry="6"
       x="6"
       y="6"
       id="rect2419"
       style="fill:url(#linearGradient3617);fill-opacity:1;fill-rule:nonzero;stroke:none" />
    <path
       d="M 12,6 C 8.676,6 6,8.676 6,12 l 0,2 0,68 0,2 c 0,0.334721 0.04135,0.6507 0.09375,0.96875 0.0487,0.295596 0.09704,0.596915 0.1875,0.875 0.00988,0.03038 0.020892,0.0636 0.03125,0.09375 0.098865,0.287771 0.2348802,0.547452 0.375,0.8125 0.1445918,0.273507 0.3156161,0.535615 0.5,0.78125 0.1843839,0.245635 0.3737765,0.473472 0.59375,0.6875 0.439947,0.428056 0.94291,0.814526 1.5,1.09375 0.278545,0.139612 0.5734731,0.246947 0.875,0.34375 -0.2562018,-0.100222 -0.4867109,-0.236272 -0.71875,-0.375 -0.00741,-0.0044 -0.023866,0.0045 -0.03125,0 -0.031933,-0.0193 -0.062293,-0.04251 -0.09375,-0.0625 -0.120395,-0.0767 -0.2310226,-0.163513 -0.34375,-0.25 -0.1061728,-0.0808 -0.2132809,-0.161112 -0.3125,-0.25 C 8.4783201,88.557317 8.3087904,88.373362 8.15625,88.1875 8.0486711,88.057245 7.9378561,87.922215 7.84375,87.78125 7.818661,87.74287 7.805304,87.69538 7.78125,87.65625 7.716487,87.553218 7.6510225,87.451733 7.59375,87.34375 7.4927417,87.149044 7.3880752,86.928049 7.3125,86.71875 7.30454,86.69694 7.288911,86.6782 7.28125,86.65625 7.2494249,86.5643 7.2454455,86.469419 7.21875,86.375 7.1884177,86.268382 7.1483606,86.171969 7.125,86.0625 7.0521214,85.720988 7,85.364295 7,85 L 7,83 7,15 7,13 C 7,10.218152 9.2181517,8 12,8 l 2,0 68,0 2,0 c 2.781848,0 5,2.218152 5,5 l 0,2 0,68 0,2 c 0,0.364295 -0.05212,0.720988 -0.125,1.0625 -0.04415,0.206893 -0.08838,0.397658 -0.15625,0.59375 -0.0077,0.02195 -0.0233,0.04069 -0.03125,0.0625 -0.06274,0.173739 -0.138383,0.367449 -0.21875,0.53125 -0.04158,0.0828 -0.07904,0.169954 -0.125,0.25 -0.0546,0.09721 -0.126774,0.18835 -0.1875,0.28125 -0.09411,0.140965 -0.204921,0.275995 -0.3125,0.40625 -0.143174,0.17445 -0.303141,0.346998 -0.46875,0.5 -0.01117,0.0102 -0.01998,0.02115 -0.03125,0.03125 -0.138386,0.125556 -0.285091,0.234436 -0.4375,0.34375 -0.102571,0.07315 -0.204318,0.153364 -0.3125,0.21875 -0.0074,0.0045 -0.02384,-0.0044 -0.03125,0 -0.232039,0.138728 -0.462548,0.274778 -0.71875,0.375 0.301527,-0.0968 0.596455,-0.204138 0.875,-0.34375 0.55709,-0.279224 1.060053,-0.665694 1.5,-1.09375 0.219973,-0.214028 0.409366,-0.441865 0.59375,-0.6875 0.184384,-0.245635 0.355408,-0.507743 0.5,-0.78125 0.14012,-0.265048 0.276135,-0.524729 0.375,-0.8125 0.01041,-0.03078 0.02133,-0.06274 0.03125,-0.09375 0.09046,-0.278085 0.1388,-0.579404 0.1875,-0.875 C 89.95865,84.6507 90,84.334721 90,84 l 0,-2 0,-68 0,-2 C 90,8.676 87.324,6 84,6 L 12,6 z"
       inkscape:connector-curvature="0"
       id="rect3728"
       style="opacity:0.35;fill:url(#linearGradient3188);fill-opacity:1;fill-rule:nonzero;stroke:none" />
    <path
       d="M 12,90 C 8.676,90 6,87.324 6,84 L 6,82 6,14 6,12 c 0,-0.334721 0.04135,-0.6507 0.09375,-0.96875 0.0487,-0.295596 0.09704,-0.596915 0.1875,-0.875 C 6.29113,10.12587 6.302142,10.09265 6.3125,10.0625 6.411365,9.774729 6.5473802,9.515048 6.6875,9.25 6.8320918,8.976493 7.0031161,8.714385 7.1875,8.46875 7.3718839,8.223115 7.5612765,7.995278 7.78125,7.78125 8.221197,7.353194 8.72416,6.966724 9.28125,6.6875 9.559795,6.547888 9.8547231,6.440553 10.15625,6.34375 9.9000482,6.443972 9.6695391,6.580022 9.4375,6.71875 c -0.00741,0.0044 -0.023866,-0.0045 -0.03125,0 -0.031933,0.0193 -0.062293,0.04251 -0.09375,0.0625 -0.120395,0.0767 -0.2310226,0.163513 -0.34375,0.25 -0.1061728,0.0808 -0.2132809,0.161112 -0.3125,0.25 C 8.4783201,7.442683 8.3087904,7.626638 8.15625,7.8125 8.0486711,7.942755 7.9378561,8.077785 7.84375,8.21875 7.818661,8.25713 7.805304,8.30462 7.78125,8.34375 7.716487,8.446782 7.6510225,8.548267 7.59375,8.65625 7.4927417,8.850956 7.3880752,9.071951 7.3125,9.28125 7.30454,9.30306 7.288911,9.3218 7.28125,9.34375 7.2494249,9.4357 7.2454455,9.530581 7.21875,9.625 7.1884177,9.731618 7.1483606,9.828031 7.125,9.9375 7.0521214,10.279012 7,10.635705 7,11 l 0,2 0,68 0,2 c 0,2.781848 2.2181517,5 5,5 l 2,0 68,0 2,0 c 2.781848,0 5,-2.218152 5,-5 l 0,-2 0,-68 0,-2 C 89,10.635705 88.94788,10.279012 88.875,9.9375 88.83085,9.730607 88.78662,9.539842 88.71875,9.34375 88.71105,9.3218 88.69545,9.30306 88.6875,9.28125 88.62476,9.107511 88.549117,8.913801 88.46875,8.75 88.42717,8.6672 88.38971,8.580046 88.34375,8.5 88.28915,8.40279 88.216976,8.31165 88.15625,8.21875 88.06214,8.077785 87.951329,7.942755 87.84375,7.8125 87.700576,7.63805 87.540609,7.465502 87.375,7.3125 87.36383,7.3023 87.35502,7.29135 87.34375,7.28125 87.205364,7.155694 87.058659,7.046814 86.90625,6.9375 86.803679,6.86435 86.701932,6.784136 86.59375,6.71875 c -0.0074,-0.0045 -0.02384,0.0044 -0.03125,0 -0.232039,-0.138728 -0.462548,-0.274778 -0.71875,-0.375 0.301527,0.0968 0.596455,0.204138 0.875,0.34375 0.55709,0.279224 1.060053,0.665694 1.5,1.09375 0.219973,0.214028 0.409366,0.441865 0.59375,0.6875 0.184384,0.245635 0.355408,0.507743 0.5,0.78125 0.14012,0.265048 0.276135,0.524729 0.375,0.8125 0.01041,0.03078 0.02133,0.06274 0.03125,0.09375 0.09046,0.278085 0.1388,0.579404 0.1875,0.875 C 89.95865,11.3493 90,11.665279 90,12 l 0,2 0,68 0,2 c 0,3.324 -2.676,6 -6,6 l -72,0 z"
       inkscape:connector-curvature="0"
       id="path3615"
       style="opacity:0.2;fill:url(#radialGradient3619);fill-opacity:1;fill-rule:nonzero;stroke:none" />
  </g>
  <g
     id="layer5">
    <rect
       width="66"
       height="66"
       rx="12"
       ry="12"
       x="15"
       y="15"
       clip-path="url(#clipPath3613)"
       id="rect3171"
       style="opacity:0.1;fill:url(#linearGradient3613);fill-opacity:1;fill-rule:nonzero;stroke:#ffffff;stroke-width:0.5;stroke-linecap:round;stroke-linejoin:miter;stroke-miterlimit:4;stroke-opacity:1;stroke-dasharray:none;stroke-dashoffset:0;filter:url(#filter3794)" />
  </g>
  <g
     id="layer4">
    <path
       d="M 10,55.188223 C 11.654145,57.341359 25.758496,67.367756 44.297073,67.367756 62.835651,67.367756 81.52915,58.788651 86,54.461192 83.22964,50.313639 67.289585,28.242676 44.417814,28.637476 19.831925,29.061834 10.352302,53.613285 10,55.188223 z"
       inkscape:connector-curvature="0"
       id="path3610"
       style="fill:url(#linearGradient3286);fill-opacity:1;stroke:none" />
    <path
       d="M 44.40625,28.625 C 19.820361,29.049358 10.352302,53.612562 10,55.1875 11.654145,57.340636 25.773923,67.375 44.3125,67.375 62.851078,67.375 81.52915,58.796209 86,54.46875 83.22964,50.321197 67.278021,28.2302 44.40625,28.625 z m 0.0625,3 c 10.461395,-0.180579 19.485145,4.818097 26.34375,10.53125 5.395035,4.494013 8.806651,8.778912 10.875,11.59375 -2.505007,1.676679 -6.570482,3.947322 -12.25,5.96875 -7.287884,2.593871 -16.317056,4.65625 -25.125,4.65625 -8.729666,0 -16.501988,-2.362678 -22.25,-5 -2.874006,-1.318661 -5.231666,-2.694668 -6.9375,-3.84375 -0.967298,-0.651591 -1.075177,-0.797368 -1.5625,-1.21875 0.299379,-0.696671 0.631425,-1.494736 1.15625,-2.5 1.235989,-2.367447 3.098555,-5.394578 5.65625,-8.375 5.11539,-5.960844 12.789774,-11.617391 24.09375,-11.8125 z"
       inkscape:connector-curvature="0"
       id="path4159"
       style="opacity:0.05;fill:#000000;fill-opacity:1;stroke:none" />
    <path
       d="M 85.5625,54.84375 C 80.46391,59.270251 62.340818,67.375 44.3125,67.375 26.409862,67.375 12.663164,58.049317 10.25,55.46875 10.126705,55.805369 10.025488,56.07356 10,56.1875 11.654145,58.340636 25.773923,68.375 44.3125,68.375 62.851078,68.375 81.529146,59.796209 86,55.46875 c -0.09288,-0.139044 -0.315258,-0.44719 -0.4375,-0.625 z"
       inkscape:connector-curvature="0"
       id="path4093"
       style="opacity:0.2;fill:#ffffff;fill-opacity:1;stroke:none" />
    <path
       d="m 44,31 c -1.290359,0.145423 -2.78906,-0.04181 -3.925209,0.686094 -1.156808,0.859072 -0.703171,2.423923 -0.793541,3.657656 -0.909005,0.412201 -1.759823,0.944425 -2.3545,-0.13575 -0.636866,-0.736587 -1.496895,-1.540194 -2.558438,-1.22251 -1.460203,0.495148 -2.509769,1.851979 -3.604016,2.887828 -0.806986,0.999859 -2.240374,2.175694 -1.670546,3.626682 0.4316,0.875468 1.308181,1.427733 1.9375,2.15625 -0.38389,0.926526 -0.610381,1.943095 -1.807557,1.59375 -1.030449,-0.09815 -2.259271,0.06375 -2.744831,1.118563 -0.663613,2.325481 -0.601817,4.879518 -0.04136,7.225187 0.44781,1.022674 1.609242,1.306488 2.627087,1.1875 1.000751,-0.192354 1.612181,0.13209 1.778961,1.204887 0.431918,0.66955 -0.709829,1.071874 -1.036298,1.612863 -0.986155,0.698473 -1.122833,2.203824 -0.265412,3.061944 1.289268,1.667916 2.796665,3.266691 4.645662,4.307806 0.99024,0.358995 1.941189,-0.239078 2.53525,-1.004 0.565258,-0.666816 1.119469,-1.294721 1.948082,-0.513119 1.003226,0.07559 0.484903,1.18838 0.610418,1.865043 -0.183915,1.221803 0.779132,2.445062 2.046894,2.431059 2.130373,0.332345 4.420238,0.422471 6.484356,-0.278983 0.996911,-0.529842 1.076786,-1.736864 1,-2.736984 -0.3494,-1.160965 0.63635,-1.352814 1.53125,-1.700516 0.924226,0.823452 1.724839,2.205008 3.15625,2 1.523616,-0.474211 2.604091,-1.84415 3.752313,-2.882918 0.833883,-0.992824 2.288586,-2.181677 1.716437,-3.648332 -0.42236,-0.864086 -1.28657,-1.407537 -1.90625,-2.125 0.38389,-0.926526 0.610382,-1.943095 1.807557,-1.59375 1.005075,0.103929 2.181708,-0.104312 2.651081,-1.118563 0.660311,-2.325709 0.605225,-4.879776 0.04136,-7.225187 -0.44781,-1.022674 -1.609242,-1.306488 -2.627087,-1.1875 -1.109028,0.291458 -1.499944,-0.410558 -1.778088,-1.400007 -0.05633,-0.572687 0.855625,-0.984024 1.201175,-1.489743 0.925521,-0.700742 0.963055,-2.147484 0.163136,-2.959504 C 57.23178,36.725083 55.728179,35.110617 53.875,34.0625 c -0.99024,-0.358995 -1.941189,0.239078 -2.53525,1.004 -0.585168,0.837108 -1.244616,1.096708 -2.118419,0.399727 C 48.442807,35.2822 48.962972,34.200241 48.8125,33.581503 48.97457,32.392525 48.010632,31.265778 46.806275,31.248194 45.878544,31.099159 44.940408,31.000374 44,31 z m 0,12.625 c 3.193919,-0.120072 5.906686,3.065978 5.31374,6.199468 -0.367442,3.169617 -3.921928,5.344455 -6.922547,4.311079 -3.16721,-0.85851 -4.756483,-4.888711 -3.123126,-7.70891 C 40.173263,44.709077 42.061338,43.601515 44,43.625 z"
       inkscape:connector-curvature="0"
       id="path4080"
       style="opacity:0.07999998;fill:#000000;fill-opacity:1;fill-rule:nonzero;stroke:none;stroke-width:1;marker:none;visibility:visible;display:inline;overflow:visible;enable-background:accumulate" />
    <path
       d="m 44,32 c -0.997686,0 -1.950178,0.122918 -2.875,0.28125 A 0.99153139,0.99153139 0 0 0 40.28125,33.25 l 0,2.71875 c -0.986176,0.288632 -1.90554,0.699155 -2.78125,1.1875 l -2,-1.96875 a 0.99153139,0.99153139 0 0 0 -1.25,-0.09375 c -1.617548,1.134035 -2.998618,2.561108 -4.125,4.15625 a 0.99153139,0.99153139 0 0 0 0.125,1.25 l 1.9375,1.9375 C 31.692451,43.320755 31.291258,44.254783 31,45.25 l -2.75,0 a 0.99153139,0.99153139 0 0 0 -0.96875,0.84375 C 27.117451,47.035347 27,47.993412 27,49 c 0,1.006607 0.116786,1.992066 0.28125,2.9375 A 0.99153139,0.99153139 0 0 0 28.25,52.78125 l 2.75,0 c 0.291258,0.995227 0.692449,1.929251 1.1875,2.8125 l -1.9375,1.9375 a 0.99153139,0.99153139 0 0 0 -0.125,1.25 c 1.13655,1.609524 2.54819,2.998954 4.15625,4.125 a 0.99153139,0.99153139 0 0 0 1.25,-0.125 l 1.9375,-1.9375 c 0.882909,0.494702 1.816911,0.896114 2.8125,1.1875 l 0,2.71875 A 0.99153139,0.99153139 0 0 0 41.125,65.71875 C 42.049806,65.877068 43.002297,66 44,66 c 1.016049,-1e-5 2.038407,-0.11191 3,-0.28125 A 0.99153139,0.99153139 0 0 0 47.8125,64.75 l 0,-2.71875 c 0.986181,-0.288628 1.905539,-0.699149 2.78125,-1.1875 l 1.875,1.90625 A 0.99153139,0.99153139 0 0 0 53.75,62.875 c 1.593688,-1.123829 3.047251,-2.498857 4.1875,-4.125 a 0.99153139,0.99153139 0 0 0 -0.125,-1.25 l -1.90625,-1.90625 c 0.495045,-0.883249 0.896239,-1.817278 1.1875,-2.8125 l 2.65625,0 A 0.99153139,0.99153139 0 0 0 60.71875,51.9375 C 60.883217,50.992064 61,50.006582 61,49 61,47.993422 60.882524,47.03533 60.71875,46.09375 A 0.99153139,0.99153139 0 0 0 59.75,45.25 l -2.65625,0 c -0.291261,-0.995223 -0.692454,-1.929252 -1.1875,-2.8125 l 1.90625,-1.90625 a 0.99153139,0.99153139 0 0 0 0.125,-1.25 C 56.807259,37.66937 55.384639,36.256898 53.78125,35.125 a 0.99153139,0.99153139 0 0 0 -1.25,0.125 L 50.625,37.15625 c -0.882913,-0.494704 -1.816915,-0.896115 -2.8125,-1.1875 l 0,-2.71875 A 0.99153139,0.99153139 0 0 0 47,32.28125 C 46.038423,32.11192 45.016066,32 44,32 z m 0,10.625 c 3.53008,1.6e-5 6.375,2.847595 6.375,6.375 0,3.527415 -2.844924,6.375 -6.375,6.375 -3.530069,1.6e-5 -6.375,-2.847594 -6.375,-6.375 0,-3.527383 2.844929,-6.375 6.375,-6.375 z"
       id="path4076"
       style="opacity:0.15;fill:#000000;fill-opacity:1;fill-rule:nonzero;stroke:none;stroke-width:1;marker:none;visibility:visible;display:inline;overflow:visible;enable-background:accumulate" />
    <path
       d="m 44.010832,33 c -0.927405,0 -1.845609,0.08677 -2.729859,0.238156 l 0,3.399187 c -1.457327,0.32356 -2.808453,0.91135 -4.029785,1.688767 l -2.426546,-2.424894 c -1.515453,1.062458 -2.832573,2.385794 -3.899796,3.897158 l 2.426544,2.424895 c -0.777943,1.220524 -1.366148,2.570727 -1.68991,4.027068 l -3.423164,0 C 28.082469,47.146222 28,48.059586 28,49 c 0,0.940434 0.08247,1.875413 0.238316,2.771307 l 3.423164,0 c 0.323762,1.456359 0.911967,2.806569 1.68991,4.027067 l -2.426544,2.424896 c 1.068937,1.513774 2.402971,2.812191 3.921462,3.875516 l 2.40488,-2.403253 c 1.221332,0.7774 2.572458,1.365224 4.029785,1.688767 l 0,3.377536 C 42.165223,64.913211 43.083418,65 44.010832,65 c 0.953586,-9e-6 1.887078,-0.0783 2.794859,-0.238164 l 0,-3.377536 c 1.457326,-0.323543 2.808452,-0.911341 4.029784,-1.688767 l 2.361548,2.381593 c 1.514799,-1.068198 2.857419,-2.379686 3.921462,-3.89715 l -2.383204,-2.381602 c 0.777935,-1.220514 1.366131,-2.570708 1.689902,-4.027067 l 3.336499,0 C 59.91753,50.87542 60,49.940408 60,49 60,48.059611 59.91751,47.146231 59.761682,46.250337 l -3.336499,0 c -0.323771,-1.45636 -0.911967,-2.806561 -1.689902,-4.027068 l 2.383204,-2.381593 C 56.056014,38.326445 54.73067,36.990243 53.21868,35.922867 l -2.383205,2.403243 c -1.221332,-0.777408 -2.572458,-1.365215 -4.029784,-1.688767 l 0,-3.377535 C 45.89791,33.099951 44.964418,33 44.010832,33 z m -0.02167,8.638701 c 4.06787,1.8e-5 7.387949,3.296182 7.387949,7.361299 0,4.065126 -3.320079,7.3613 -7.387949,7.3613 -4.06787,1.8e-5 -7.366283,-3.296182 -7.366283,-7.3613 0,-4.065098 3.298413,-7.361299 7.366283,-7.361299 z"
       inkscape:connector-curvature="0"
       id="path4061"
       style="opacity:0.3;fill:#000000;fill-opacity:1;fill-rule:nonzero;stroke:none;stroke-width:1;marker:none;visibility:visible;display:inline;overflow:visible;enable-background:accumulate" />
    <path
       d="m 44.010832,32 c -0.927405,0 -1.845609,0.08677 -2.729859,0.238156 l 0,3.399187 c -1.457327,0.32356 -2.808453,0.91135 -4.029785,1.688767 l -2.426546,-2.424894 c -1.515453,1.062458 -2.832573,2.385794 -3.899796,3.897158 l 2.426544,2.424895 c -0.777943,1.220524 -1.366148,2.570727 -1.68991,4.027068 l -3.423164,0 C 28.082469,46.146222 28,47.059586 28,48 c 0,0.940434 0.08247,1.875413 0.238316,2.771307 l 3.423164,0 c 0.323762,1.456359 0.911967,2.806569 1.68991,4.027067 l -2.426544,2.424896 c 1.068937,1.513774 2.402971,2.812191 3.921462,3.875516 l 2.40488,-2.403253 c 1.221332,0.7774 2.572458,1.365224 4.029785,1.688767 l 0,3.377536 C 42.165223,63.913211 43.083418,64 44.010832,64 c 0.953586,-9e-6 1.887078,-0.0783 2.794859,-0.238164 l 0,-3.377536 c 1.457326,-0.323543 2.808452,-0.911341 4.029784,-1.688767 l 2.361548,2.381593 c 1.514799,-1.068198 2.857419,-2.379686 3.921462,-3.89715 l -2.383204,-2.381602 c 0.777935,-1.220514 1.366131,-2.570708 1.689902,-4.027067 l 3.336499,0 C 59.91753,49.87542 60,48.940408 60,48 60,47.059611 59.91751,46.146231 59.761682,45.250337 l -3.336499,0 c -0.323771,-1.45636 -0.911967,-2.806561 -1.689902,-4.027068 l 2.383204,-2.381593 C 56.056014,37.326445 54.73067,35.990243 53.21868,34.922867 l -2.383205,2.403243 c -1.221332,-0.777408 -2.572458,-1.365215 -4.029784,-1.688767 l 0,-3.377535 C 45.89791,32.099951 44.964418,32 44.010832,32 z m -0.02167,8.638701 c 4.06787,1.8e-5 7.387949,3.296182 7.387949,7.361299 0,4.065126 -3.320079,7.3613 -7.387949,7.3613 -4.06787,1.8e-5 -7.366283,-3.296182 -7.366283,-7.3613 0,-4.065098 3.298413,-7.361299 7.366283,-7.361299 z"
       inkscape:connector-curvature="0"
       id="path3614"
       style="fill:url(#linearGradient3282);fill-opacity:1;fill-rule:nonzero;stroke:none;stroke-width:1;marker:none;visibility:visible;display:inline;overflow:visible;enable-background:accumulate" />
    <path
       d="M 44.40625,28.625 C 19.820361,29.049358 10.352302,53.612562 10,55.1875 11.654145,57.340636 25.773923,67.375 44.3125,67.375 62.851078,67.375 81.52915,58.796209 86,54.46875 83.22964,50.321197 67.278021,28.2302 44.40625,28.625 z m 0.03125,1.9375 C 55.239636,30.376039 64.52441,35.53315 71.5,41.34375 77.516593,46.355515 81.290635,51.327438 83.1875,54 c -2.405437,1.798173 -7.041287,4.453361 -13.40625,6.71875 -7.378031,2.625955 -16.499492,4.71875 -25.46875,4.71875 -8.918351,0 -16.832484,-2.438581 -22.6875,-5.125 -2.927508,-1.343209 -5.338903,-2.755401 -7.09375,-3.9375 -1.316136,-0.886574 -1.812396,-1.379677 -2.25,-1.78125 0.05187,-0.137333 0.03148,-0.09951 0.09375,-0.25 0.318199,-0.769002 0.773336,-1.787699 1.40625,-3 1.265829,-2.424602 3.19031,-5.538174 5.8125,-8.59375 5.244379,-6.111152 13.19397,-11.986422 24.84375,-12.1875 z"
       inkscape:connector-curvature="0"
       id="path4149"
       style="opacity:0.07999998;fill:#000000;fill-opacity:1;stroke:none" />
    <path
       d="m 44,32 c -0.927405,0 -1.8345,0.09861 -2.71875,0.25 l 0,1 C 42.1655,33.098614 43.072595,33 44,33 c 0.953586,0 1.904719,0.09014 2.8125,0.25 l 0,-1 C 45.904719,32.090143 44.953586,32 44,32 z m -9.1875,2.90625 c -1.515453,1.062458 -2.807777,2.394886 -3.875,3.90625 L 31.375,39.25 c 0.986607,-1.277304 2.114004,-2.41587 3.4375,-3.34375 L 37.25,38.3125 c 1.221332,-0.777417 2.573923,-1.36394 4.03125,-1.6875 l 0,-1 c -1.457327,0.32356 -2.809918,0.910083 -4.03125,1.6875 l -2.4375,-2.40625 z m 18.40625,0.03125 -2.375,2.375 C 49.622418,36.535092 48.269826,35.948552 46.8125,35.625 l 0,1 c 1.457326,0.323552 2.809918,0.910092 4.03125,1.6875 l 2.375,-2.375 c 1.316994,0.929721 2.485347,2.065456 3.46875,3.34375 l 0.4375,-0.4375 C 56.062529,37.328519 54.73074,36.004876 53.21875,34.9375 z m -20.25,6.90625 c -0.591352,1.050068 -1.04347,2.196103 -1.3125,3.40625 l -3.40625,0 C 28.094153,46.145885 28,47.059586 28,48 c 0,0.167322 0.02608,0.333213 0.03125,0.5 0.02389,-0.765432 0.09063,-1.513511 0.21875,-2.25 l 3.40625,0 c 0.323762,-1.456341 0.909557,-2.810726 1.6875,-4.03125 l -0.375,-0.375 z m 22.15625,0 -0.375,0.375 c 0.777935,1.220507 1.363729,2.57489 1.6875,4.03125 l 3.3125,0 c 0.128103,0.736496 0.194857,1.484578 0.21875,2.25 C 59.97392,48.333214 60,48.167318 60,48 60,47.059611 59.90583,46.145894 59.75,45.25 l -3.3125,0 C 56.168462,44.039837 55.716346,42.893809 55.125,41.84375 z M 36.65625,48.5 C 36.64496,48.666668 36.625,48.830474 36.625,49 c 0,4.065118 3.30713,7.375018 7.375,7.375 4.06787,0 7.375,-3.309874 7.375,-7.375 0,-0.169527 -0.01989,-0.333331 -0.03125,-0.5 C 51.082672,52.329927 47.898229,55.375 44,55.375 40.101771,55.375017 36.915669,52.329922 36.65625,48.5 z M 33,55.15625 l -2.0625,2.0625 c 0.137857,0.195226 0.290998,0.37448 0.4375,0.5625 L 33.34375,55.8125 C 33.213367,55.607945 33.119372,55.367982 33,55.15625 z m 22.09375,0 C 54.974379,55.367983 54.880382,55.607942 54.75,55.8125 l 1.9375,1.9375 c 0.146264,-0.18877 0.300274,-0.366798 0.4375,-0.5625 l -2.03125,-2.03125 z"
       inkscape:connector-curvature="0"
       id="path4065"
       style="opacity:0.4;fill:#ffffff;fill-opacity:1;fill-rule:nonzero;stroke:none;stroke-width:1;marker:none;visibility:visible;display:inline;overflow:visible;enable-background:accumulate" />
    <path
       d="M 44.40625,28.625 C 19.820361,29.049358 10.352302,53.612562 10,55.1875 c 0.05674,0.07386 0.164279,0.189583 0.25,0.28125 C 11.830949,51.152455 21.599049,30.018657 44.40625,29.625 66.511258,29.243435 82.03838,49.717656 85.5625,54.84375 85.706807,54.718466 85.876943,54.58786 86,54.46875 83.22964,50.321197 67.278021,28.2302 44.40625,28.625 z"
       inkscape:connector-curvature="0"
       id="path4136"
       style="opacity:0.3;fill:#000000;fill-opacity:1;stroke:none" />
    <path
       d="M 44.40625,28.625 C 19.820361,29.049358 10.352302,53.612562 10,55.1875 11.654145,57.340636 25.773923,67.375 44.3125,67.375 62.851078,67.375 81.52915,58.796209 86,54.46875 83.22964,50.321197 67.278021,28.2302 44.40625,28.625 z m 0.03125,0.96875 c 11.124089,-0.192018 20.601376,5.097326 27.6875,11 6.618327,5.513003 10.837015,11.237327 12.5,13.65625 -2.305291,1.953437 -7.517831,4.921188 -14.5,7.40625 -7.463207,2.656271 -16.690822,4.75 -25.8125,4.75 -9.096632,0 -17.13763,-2.454693 -23.09375,-5.1875 -2.97806,-1.366404 -5.417592,-2.786706 -7.21875,-4 -1.590728,-1.071544 -2.475916,-1.892056 -2.875,-2.3125 0.08281,-0.247018 0.129,-0.418508 0.34375,-0.9375 0.329593,-0.796538 0.790489,-1.854447 1.4375,-3.09375 1.294023,-2.478606 3.254372,-5.654664 5.9375,-8.78125 5.366256,-6.253173 13.617234,-12.293283 25.59375,-12.5 z"
       inkscape:connector-curvature="0"
       id="path4145"
       style="opacity:0.15;fill:#000000;fill-opacity:1;stroke:none" />
  </g>
</svg>
