<?xml version="1.0" encoding="UTF-8" standalone="no"?>
<!-- Created with Inkscape (http://www.inkscape.org/) -->

<svg
   xmlns:dc="http://purl.org/dc/elements/1.1/"
   xmlns:cc="http://creativecommons.org/ns#"
   xmlns:rdf="http://www.w3.org/1999/02/22-rdf-syntax-ns#"
   xmlns:svg="http://www.w3.org/2000/svg"
   xmlns="http://www.w3.org/2000/svg"
   xmlns:xlink="http://www.w3.org/1999/xlink"
   xmlns:inkscape="http://www.inkscape.org/namespaces/inkscape"
   version="1.0"
   width="96"
   height="96"
   id="svg2408">
  <defs
     id="defs2410">
    <linearGradient
       x1="45.447727"
       y1="92.539597"
       x2="45.447727"
       y2="7.0165396"
       id="ButtonShadow"
       gradientUnits="userSpaceOnUse"
       gradientTransform="scale(1.0058652,0.994169)">
      <stop
         id="stop3750"
         style="stop-color:#000000;stop-opacity:1"
         offset="0" />
      <stop
         id="stop3752"
         style="stop-color:#000000;stop-opacity:0.58823532"
         offset="1" />
    </linearGradient>
    <linearGradient
       id="linearGradient3737">
      <stop
         id="stop3739"
         style="stop-color:#ffffff;stop-opacity:1"
         offset="0" />
      <stop
         id="stop3741"
         style="stop-color:#ffffff;stop-opacity:0"
         offset="1" />
    </linearGradient>
    <linearGradient
       id="linearGradient3700">
      <stop
         id="stop3702"
         style="stop-color:#2276c5;stop-opacity:1"
         offset="0" />
      <stop
         id="stop3704"
         style="stop-color:#68baf4;stop-opacity:1"
         offset="1" />
    </linearGradient>
    <filter
       color-interpolation-filters="sRGB"
       id="filter3174">
      <feGaussianBlur
         id="feGaussianBlur3176"
         stdDeviation="1.71" />
    </filter>
    <linearGradient
       x1="48"
       y1="20.220806"
       x2="48"
       y2="138.66119"
       id="linearGradient3613"
       xlink:href="#linearGradient3737"
       gradientUnits="userSpaceOnUse" />
    <clipPath
       id="clipPath3613">
      <rect
         width="84"
         height="84"
         rx="6"
         ry="6"
         x="6"
         y="6"
         id="rect3615"
         style="fill:#ffffff;fill-opacity:1;fill-rule:nonzero;stroke:none" />
    </clipPath>
    <linearGradient
       x1="48"
       y1="90"
       x2="48"
       y2="5.9877172"
       id="linearGradient3151"
       xlink:href="#linearGradient3700"
       gradientUnits="userSpaceOnUse"
       gradientTransform="translate(-110,0)" />
    <linearGradient
       x1="36.357143"
       y1="6"
       x2="36.357143"
       y2="63.893143"
       id="linearGradient3153"
       xlink:href="#linearGradient3737"
       gradientUnits="userSpaceOnUse"
       gradientTransform="translate(-110,0)" />
    <radialGradient
       cx="48"
       cy="90.171875"
       r="42"
       fx="48"
       fy="90.171875"
       id="radialGradient3155"
       xlink:href="#linearGradient3737"
       gradientUnits="userSpaceOnUse"
       gradientTransform="matrix(1.1573129,0,0,0.99590774,-117.55102,0.19713193)" />
    <linearGradient
       x1="10.31979"
       y1="21"
       x2="10.31979"
       y2="0.99929649"
       id="ButtonColor"
       gradientUnits="userSpaceOnUse">
      <stop
         id="stop3189"
         style="stop-color:#892a77;stop-opacity:1"
         offset="0" />
      <stop
         id="stop3191"
         style="stop-color:#c16bae;stop-opacity:1"
         offset="1" />
    </linearGradient>
    <linearGradient
       x1="48"
       y1="90"
       x2="48"
       y2="5.9877172"
       id="linearGradient3948"
       xlink:href="#ButtonColor"
       gradientUnits="userSpaceOnUse" />
    <linearGradient
       x1="44"
       y1="6"
       x2="44"
       y2="64.215118"
       id="linearGradient3967"
       xlink:href="#linearGradient3737"
       gradientUnits="userSpaceOnUse" />
    <radialGradient
       cx="48"
       cy="72"
       r="42"
       fx="48"
       fy="72"
       id="radialGradient3982"
       xlink:href="#linearGradient3737"
       gradientUnits="userSpaceOnUse"
       gradientTransform="matrix(1.1428571,0,0,0.95238095,-6.8571426,3.4285712)" />
    <linearGradient
       x1="48"
       y1="90"
       x2="48"
       y2="5.9877172"
       id="linearGradient3989"
       xlink:href="#ButtonShadow"
       gradientUnits="userSpaceOnUse"
       gradientTransform="translate(0,1)" />
    <linearGradient
       x1="48"
       y1="90.868095"
       x2="48"
       y2="5.9877172"
       id="linearGradient4001"
       xlink:href="#ButtonShadow"
       gradientUnits="userSpaceOnUse"
       gradientTransform="translate(-1,1)" />
    <linearGradient
       x1="48"
       y1="90.868095"
       x2="48"
       y2="5.9877172"
       id="linearGradient4009"
       xlink:href="#ButtonShadow"
       gradientUnits="userSpaceOnUse"
       gradientTransform="translate(-1,1)" />
    <linearGradient
       x1="48"
       y1="90.868095"
       x2="48"
       y2="5.9877172"
       id="linearGradient4023"
       xlink:href="#ButtonShadow"
       gradientUnits="userSpaceOnUse"
       gradientTransform="translate(-1,1)" />
    <linearGradient
       x1="48"
       y1="90.868095"
       x2="48"
       y2="5.9877172"
       id="linearGradient4031"
       xlink:href="#ButtonShadow"
       gradientUnits="userSpaceOnUse"
       gradientTransform="translate(-1,1)" />
    <linearGradient
       id="linearGradient3249">
      <stop
         id="stop3251"
         style="stop-color:#ffffff;stop-opacity:1"
         offset="0" />
      <stop
         id="stop3253"
         style="stop-color:#ffffff;stop-opacity:0"
         offset="1" />
    </linearGradient>
    <linearGradient
       x1="55.530148"
       y1="-20.940042"
       x2="55.530148"
       y2="55.140068"
       id="linearGradient2890"
       xlink:href="#linearGradient3249"
       gradientUnits="userSpaceOnUse"
       gradientTransform="matrix(0.69844891,0,0,0.69844891,3.299249,3.2861578)" />
    <filter
       x="-0.19410552"
       y="-0.19410552"
       width="1.388211"
       height="1.388211"
       color-interpolation-filters="sRGB"
       id="filter4055">
      <feGaussianBlur
         id="feGaussianBlur4057"
         stdDeviation="5.3379019" />
    </filter>
  </defs>
  <metadata
     id="metadata2413">
    <rdf:RDF>
      <cc:Work
         rdf:about="">
        <dc:format>image/svg+xml</dc:format>
        <dc:type
           rdf:resource="http://purl.org/dc/dcmitype/StillImage" />
        <dc:title />
      </cc:Work>
    </rdf:RDF>
  </metadata>
  <g
     id="layer2"
     style="display:none">
    <rect
       width="86"
       height="85"
       rx="6"
       ry="6"
       x="5"
       y="7"
       id="rect3745"
       style="opacity:0.9;fill:url(#ButtonShadow);fill-opacity:1;fill-rule:nonzero;stroke:none;filter:url(#filter3174)" />
  </g>
  <g
     id="layer3">
    <path
       d="m 12,4.03125 c -6.0701637,-0.1617408 -10.6911509,5.6895113 -9.96875,11.5 7.16e-5,0.04167 -7.01e-5,0.08333 0,0.125 0.030431,18.086218 -0.077787,36.153437 0.03125,54.25 a 0.93232674,0.93232674 0 0 0 0,0.0625 c 0.4297709,5.831518 6.2168912,9.674679 11.71875,9 0.0418,-0.0051 0.08323,0.0056 0.125,0 l 5.3125,0 c -0.679778,4.428501 -1.596836,8.895227 -2.0625,13.40625 a 0.93232674,0.93232674 0 0 0 0.03125,0.28125 c 0.279995,1.294203 1.371731,2.108795 2.46875,2.25 1.023884,0.131791 2.065552,-0.225148 2.84375,-1 l 0,0.03125 22.84375,-14.96875 c 13.185056,-0.02898 26.362788,0.07707 39.5625,-0.03125 a 0.93232674,0.93232674 0 0 0 0.0625,0 c 5.831518,-0.429771 9.674679,-6.216892 9,-11.71875 -0.0051,-0.0418 0.0056,-0.08323 0,-0.125 -0.03043,-18.00176 0.07779,-35.987855 -0.03125,-54 a 0.93232674,0.93232674 0 0 0 0,-0.0625 c -0.429771,-5.8315178 -6.216892,-9.6746792 -11.71875,-9 l -0.125,0 -70.0625,0 -0.03125,0 z"
       id="path4029"
       style="opacity:0.07999998;fill:url(#linearGradient4031);fill-opacity:1;fill-rule:nonzero;stroke:none" />
    <path
       d="M 12,4.96875 C 6.498217,4.8031106 2.2406967,10.230306 2.96875,15.520213 c 0.031153,18.132768 -0.06237,36.268711 0.046873,54.39949 0.3891125,5.279828 5.7301904,8.791471 10.757959,8.111547 2.17964,0 4.359279,0 6.538918,0 -0.693629,4.811167 -1.723208,9.637038 -2.21875,14.4375 0.399566,1.846889 2.79006,1.976363 3.910163,0.694482 C 29.700525,88.119238 37.397138,83.075244 45.09375,78.03125 58.368678,78.00033 71.646761,78.0933 84.919703,77.98438 90.199531,77.595267 93.711174,72.254189 93.03125,67.226421 93.000098,49.178106 93.093619,31.12662 92.984377,13.080297 92.595264,7.8004692 87.254186,4.2888256 82.226418,4.96875 c -23.408806,0 -46.817612,0 -70.226418,0 z"
       inkscape:connector-curvature="0"
       id="path4015"
       style="opacity:0.1;fill:url(#linearGradient4023);fill-opacity:1;fill-rule:nonzero;stroke:none" />
    <path
       d="M 12,6 C 7.5921478,6 4,9.5921478 4,14 l 0,55 c 0,4.407852 3.5921478,8 8,8 l 9.5,0 -2.40625,14.90625 a 0.98733463,0.98733463 0 0 0 1.5,0.96875 L 44.8125,77 84,77 c 4.407852,0 8,-3.592148 8,-8 L 92,14 C 92,9.5921478 88.407852,6 84,6 L 12,6 z"
       id="path4007"
       style="opacity:0.15;fill:url(#linearGradient4009);fill-opacity:1;fill-rule:nonzero;stroke:none" />
    <path
       d="M 12,7 C 8.122,7 5,10.122 5,14 l 0,55 c 0,3.878 3.122,7 7,7 L 22.65625,76 20.0625,92.0625 44.5625,76 84,76 c 3.878,0 7,-3.122 7,-7 L 91,14 C 91,10.122 87.878,7 84,7 L 12,7 z"
       inkscape:connector-curvature="0"
       id="rect3991"
       style="opacity:0.3;fill:url(#linearGradient4001);fill-opacity:1;fill-rule:nonzero;stroke:none" />
    <path
       d="M 12,7 C 8.676,7 6,9.676 6,13 l 0,56 c 0,3.324 2.676,6 6,6 l 12,0 -3,16 23,-16 40,0 c 3.324,0 6,-2.676 6,-6 L 90,13 C 90,9.676 87.324,7 84,7 L 12,7 z"
       inkscape:connector-curvature="0"
       id="path3984"
       style="opacity:0.45;fill:url(#linearGradient3989);fill-opacity:1;fill-rule:nonzero;stroke:none" />
  </g>
  <g
     id="layer1">
    <path
       d="M 12,6 C 8.676,6 6,8.676 6,12 l 0,56 c 0,3.324 2.676,6 6,6 l 12,0 -3,16 23,-16 40,0 c 3.324,0 6,-2.676 6,-6 L 90,12 C 90,8.676 87.324,6 84,6 L 12,6 z"
       inkscape:connector-curvature="0"
       id="rect2419"
       style="fill:url(#linearGradient3948);fill-opacity:1;fill-rule:nonzero;stroke:none" />
    <rect
       width="84"
       height="84"
       rx="6"
       ry="6"
       x="-104"
       y="6"
       id="rect3145"
       style="fill:url(#linearGradient3151);fill-opacity:1;fill-rule:nonzero;stroke:none" />
    <path
       d="m -98,6 c -3.324,0 -6,2.676 -6,6 l 0,2 0,68 0,2 c 0,0.334721 0.0413,0.6507 0.0937,0.96875 0.0487,0.295596 0.097,0.596915 0.1875,0.875 0.01,0.03038 0.0209,0.0636 0.0312,0.09375 0.0989,0.287771 0.23488,0.547452 0.375,0.8125 0.14459,0.273507 0.31562,0.535615 0.5,0.78125 0.18438,0.245635 0.37378,0.473472 0.59375,0.6875 0.43995,0.428056 0.94291,0.814526 1.5,1.09375 0.27854,0.139612 0.57347,0.246947 0.875,0.34375 -0.2562,-0.100222 -0.48671,-0.236272 -0.71875,-0.375 -0.007,-0.0044 -0.0239,0.0045 -0.0312,0 -0.0319,-0.0193 -0.0623,-0.04251 -0.0937,-0.0625 -0.1204,-0.0767 -0.23102,-0.163513 -0.34375,-0.25 -0.10617,-0.0808 -0.21328,-0.161112 -0.3125,-0.25 -0.17793,-0.161433 -0.34746,-0.345388 -0.5,-0.53125 -0.10758,-0.130255 -0.21839,-0.265285 -0.3125,-0.40625 -0.0251,-0.03838 -0.0384,-0.08587 -0.0625,-0.125 -0.0648,-0.103032 -0.13023,-0.204517 -0.1875,-0.3125 -0.10101,-0.194706 -0.20568,-0.415701 -0.28125,-0.625 -0.008,-0.02181 -0.0236,-0.04055 -0.0312,-0.0625 -0.0318,-0.09195 -0.0358,-0.186831 -0.0625,-0.28125 -0.0303,-0.106618 -0.0704,-0.203031 -0.0937,-0.3125 C -102.94788,85.720988 -103,85.364295 -103,85 l 0,-2 0,-68 0,-2 c 0,-2.781848 2.21815,-5 5,-5 l 2,0 68,0 2,0 c 2.781848,0 5,2.218152 5,5 l 0,2 0,68 0,2 c 0,0.364295 -0.05212,0.720988 -0.125,1.0625 -0.04415,0.206893 -0.08838,0.397658 -0.15625,0.59375 -0.0077,0.02195 -0.0233,0.04069 -0.03125,0.0625 -0.06274,0.173739 -0.138383,0.367449 -0.21875,0.53125 -0.04158,0.0828 -0.07904,0.169954 -0.125,0.25 -0.0546,0.09721 -0.126774,0.18835 -0.1875,0.28125 -0.09411,0.140965 -0.204921,0.275995 -0.3125,0.40625 -0.143174,0.17445 -0.303141,0.346998 -0.46875,0.5 -0.01117,0.0102 -0.01998,0.02115 -0.03125,0.03125 -0.138386,0.125556 -0.285091,0.234436 -0.4375,0.34375 -0.102571,0.07315 -0.204318,0.153364 -0.3125,0.21875 -0.0074,0.0045 -0.02384,-0.0044 -0.03125,0 -0.232039,0.138728 -0.462548,0.274778 -0.71875,0.375 0.301527,-0.0968 0.596455,-0.204138 0.875,-0.34375 0.55709,-0.279224 1.060053,-0.665694 1.5,-1.09375 0.219973,-0.214028 0.409366,-0.441865 0.59375,-0.6875 0.184384,-0.245635 0.355408,-0.507743 0.5,-0.78125 0.14012,-0.265048 0.276135,-0.524729 0.375,-0.8125 0.01041,-0.03078 0.02133,-0.06274 0.03125,-0.09375 0.09046,-0.278085 0.1388,-0.579404 0.1875,-0.875 C -20.04135,84.6507 -20,84.334721 -20,84 l 0,-2 0,-68 0,-2 c 0,-3.324 -2.676,-6 -6,-6 l -72,0 z"
       inkscape:connector-curvature="0"
       id="path3147"
       style="opacity:0.5;fill:url(#linearGradient3153);fill-opacity:1;fill-rule:nonzero;stroke:none" />
    <path
       d="m -98,90 c -3.324,0 -6,-2.676 -6,-6 l 0,-2 0,-68 0,-2 c 0,-0.334721 0.0413,-0.6507 0.0937,-0.96875 0.0487,-0.295596 0.097,-0.596915 0.1875,-0.875 0.01,-0.03038 0.0209,-0.0636 0.0312,-0.09375 0.0989,-0.287771 0.23488,-0.547452 0.375,-0.8125 0.14459,-0.273507 0.31562,-0.535615 0.5,-0.78125 0.18438,-0.245635 0.37378,-0.473472 0.59375,-0.6875 0.43995,-0.428056 0.94291,-0.814526 1.5,-1.09375 0.27854,-0.139612 0.57347,-0.246947 0.875,-0.34375 -0.2562,0.100222 -0.48671,0.236272 -0.71875,0.375 -0.007,0.0044 -0.0239,-0.0045 -0.0312,0 -0.0319,0.0193 -0.0623,0.04251 -0.0937,0.0625 -0.1204,0.0767 -0.23102,0.163513 -0.34375,0.25 -0.10617,0.0808 -0.21328,0.161112 -0.3125,0.25 -0.17793,0.161433 -0.34746,0.345388 -0.5,0.53125 -0.10758,0.130255 -0.21839,0.265285 -0.3125,0.40625 -0.0251,0.03838 -0.0384,0.08587 -0.0625,0.125 -0.0648,0.103032 -0.13023,0.204517 -0.1875,0.3125 -0.10101,0.194706 -0.20568,0.415701 -0.28125,0.625 -0.008,0.02181 -0.0236,0.04055 -0.0312,0.0625 -0.0318,0.09195 -0.0358,0.186831 -0.0625,0.28125 -0.0303,0.106618 -0.0704,0.203031 -0.0937,0.3125 C -102.94788,10.279012 -103,10.635705 -103,11 l 0,2 0,68 0,2 c 0,2.781848 2.21815,5 5,5 l 2,0 68,0 2,0 c 2.781848,0 5,-2.218152 5,-5 l 0,-2 0,-68 0,-2 c 0,-0.364295 -0.05212,-0.720988 -0.125,-1.0625 -0.04415,-0.206893 -0.08838,-0.397658 -0.15625,-0.59375 -0.0077,-0.02195 -0.0233,-0.04069 -0.03125,-0.0625 -0.06274,-0.173739 -0.138383,-0.367449 -0.21875,-0.53125 -0.04158,-0.0828 -0.07904,-0.169954 -0.125,-0.25 -0.0546,-0.09721 -0.126774,-0.18835 -0.1875,-0.28125 -0.09411,-0.140965 -0.204921,-0.275995 -0.3125,-0.40625 -0.143174,-0.17445 -0.303141,-0.346998 -0.46875,-0.5 -0.01117,-0.0102 -0.01998,-0.02115 -0.03125,-0.03125 -0.138386,-0.125556 -0.285091,-0.234436 -0.4375,-0.34375 -0.102571,-0.07315 -0.204318,-0.153364 -0.3125,-0.21875 -0.0074,-0.0045 -0.02384,0.0044 -0.03125,0 -0.232039,-0.138728 -0.462548,-0.274778 -0.71875,-0.375 0.301527,0.0968 0.596455,0.204138 0.875,0.34375 0.55709,0.279224 1.060053,0.665694 1.5,1.09375 0.219973,0.214028 0.409366,0.441865 0.59375,0.6875 0.184384,0.245635 0.355408,0.507743 0.5,0.78125 0.14012,0.265048 0.276135,0.524729 0.375,0.8125 0.01041,0.03078 0.02133,0.06274 0.03125,0.09375 0.09046,0.278085 0.1388,0.579404 0.1875,0.875 C -20.04135,11.3493 -20,11.665279 -20,12 l 0,2 0,68 0,2 c 0,3.324 -2.676,6 -6,6 l -72,0 z"
       inkscape:connector-curvature="0"
       id="path3149"
       style="opacity:0.2;fill:url(#radialGradient3155);fill-opacity:1;fill-rule:nonzero;stroke:none" />
    <path
       d="M 12,6 C 8.676,6 6,8.676 6,12 l 0,56 c 0,2.9085 2.0422266,5.317352 4.78125,5.875 C 8.5791143,73.33731 6.96875,71.37778 6.96875,69 l 0,-56 C 6.96875,10.202611 9.2026115,7.96875 12,7.96875 l 72,0 c 2.797388,0 5.03125,2.233861 5.03125,5.03125 l 0,56 c 0,2.37778 -1.610365,4.33731 -3.8125,4.875 C 87.957773,73.317352 90,70.9085 90,68 L 90,12 C 90,8.676 87.324,6 84,6 L 12,6 z M 24,74.03125 21,90 43.96875,74.03125 A 0.98129583,0.98129583 0 0 0 43.4375,74.1875 l -21.03125,14.625 2.5625,-13.625 A 0.98129583,0.98129583 0 0 0 24,74.03125 z"
       inkscape:connector-curvature="0"
       id="path3953"
       style="opacity:0.4;fill:url(#linearGradient3967);fill-opacity:1;fill-rule:nonzero;stroke:none" />
    <path
       d="M 12,6 C 8.676,6 6,8.676 6,12 l 0,56 c 0,3.324 2.676,6 6,6 l 12,0 -3,16 23,-16 40,0 c 3.324,0 6,-2.676 6,-6 L 90,12 C 90,8.676 87.324,6 84,6 L 12,6 z m 0,2 72,0 c 2.251468,0 4,1.7485321 4,4 l 0,56 c 0,2.251468 -1.748532,4 -4,4 l -40,0 a 1.9985725,1.9985725 0 0 0 -1.15625,0.375 L 23.875,85.5625 25.96875,74.375 A 1.9985725,1.9985725 0 0 0 24,72 L 12,72 C 9.7485321,72 8,70.251468 8,68 L 8,12 C 8,9.7485321 9.7485321,8 12,8 z"
       inkscape:connector-curvature="0"
       id="path3969"
       style="opacity:0.2;fill:url(#radialGradient3982);fill-opacity:1;fill-rule:nonzero;stroke:none" />
    <path
       d="M 13.186676,9.9869047 C 11.369558,9.9869047 10,11.350223 10,13.195406 l 0,37.672603 C 15.426839,38.377324 26.108091,28.550376 45.83917,34.825506 65.68023,41.122891 78.337635,31.877339 86.000005,27.666398 l 0,-14.470992 c 0,-1.845183 -1.36956,-3.2085013 -3.18668,-3.2085013 l -69.626649,0 z"
       inkscape:connector-curvature="0"
       id="path3240"
       style="fill:url(#linearGradient2890);fill-opacity:1;stroke:none;display:inline" />
  </g>
  <g
     id="layer5"
     style="display:inline">
    <rect
       width="66"
       height="66"
       rx="12"
       ry="12"
       x="15"
       y="15"
       transform="matrix(1,0,0,0.74384496,0,3.8423256)"
       clip-path="url(#clipPath3613)"
       id="rect3171"
       style="opacity:0.1;fill:url(#linearGradient3613);fill-opacity:1;fill-rule:nonzero;stroke:#ffffff;stroke-width:0.57973403;stroke-linecap:round;stroke-linejoin:miter;stroke-miterlimit:4;stroke-opacity:1;stroke-dasharray:none;stroke-dashoffset:0;filter:url(#filter4055)" />
  </g>
  <g
     id="layer4">
    <path
       d="m 61.8125,14 c -0.817687,0.0102 -1.581251,0.121246 -2.125,0.0625 a 0.98580508,0.98580508 0 0 0 -0.09375,-0.03125 l -4.15625,0 C 52.925534,14.029046 51.768364,17.215641 53.375,19 l -0.03125,0.03125 c 4.605395,6.473651 7.05889,14.402279 6.78125,22.34375 a 0.98580508,0.98580508 0 0 0 0,0.0625 c 0.172181,7.785657 -2.482518,15.495222 -7,21.84375 -0.0052,0.0073 0.0052,0.02399 0,0.03125 -0.0031,0.0044 -0.02811,-0.0044 -0.03125,0 -1.430335,2.002666 0.352944,4.836752 2.75,4.59375 l 0,0.0625 c 2.37496,-0.06106 4.875949,0.104383 7.40625,-0.125 A 0.98580508,0.98580508 0 0 0 63.5,67.8125 c 1.06796,-0.398997 1.718845,-1.266973 2.1875,-2.03125 0.468655,-0.764277 0.823385,-1.476801 1.1875,-1.9375 A 0.98580508,0.98580508 0 0 0 66.9375,63.75 C 72.930384,54.13323 74.191505,42.23959 72.125,31.34375 70.898075,25.401251 68.274907,19.743503 64.65625,14.90625 A 0.98580508,0.98580508 0 0 0 64.4375,14.6875 C 63.577719,14.092296 62.630168,13.9898 61.8125,14 z M 25.90625,24.03125 c -1.071627,0.0098 -1.954722,0.660754 -2.40625,1.4375 -0.423862,0.729154 -0.517089,1.594973 -0.40625,2.40625 l -0.0625,0 c 0.05766,2.50788 -0.09755,5.124197 0.125,7.78125 a 0.98580508,0.98580508 0 0 0 0.03125,0.15625 c 0.301718,1.103812 1.236401,1.774903 2.09375,2 0.84595,0.222105 1.669744,0.16198 2.3125,0.125 l 0,0.03125 c 2.26685,-0.05662 4.632117,0.09813 7.0625,-0.125 A 0.98580508,0.98580508 0 0 0 34.8125,37.8125 c 1.103812,-0.301718 1.774903,-1.236401 2,-2.09375 0.222105,-0.84595 0.16198,-1.669744 0.125,-2.3125 l 0.03125,0 c -0.05662,-2.26685 0.09813,-4.632117 -0.125,-7.0625 A 0.98580508,0.98580508 0 0 0 36.8125,26.1875 c -0.301718,-1.103812 -1.236401,-1.774903 -2.09375,-2 -0.834551,-0.219112 -1.642251,-0.161703 -2.28125,-0.125 l 0,-0.03125 -6.53125,0 z m 14,11 c -1.071627,0.0098 -1.954722,0.660754 -2.40625,1.4375 -0.423862,0.729154 -0.517089,1.594973 -0.40625,2.40625 l -0.0625,0 c 0.08414,1.838626 -0.19422,3.922942 0.1875,6.0625 a 0.98580508,0.98580508 0 0 0 0.0625,0.1875 c 0.511865,1.189517 1.7004,1.71219 2.65625,1.8125 0.95585,0.10031 1.842332,-0.03625 2.40625,0 a 0.98580508,0.98580508 0 0 0 0.0625,0.03125 c 3.961412,-0.04066 7.975805,0.08396 12,-0.0625 A 0.98580508,0.98580508 0 0 0 54.5,46.875 c 1.068822,-0.151367 1.85715,-0.943998 2.1875,-1.75 0.317453,-0.774535 0.333187,-1.560588 0.25,-2.28125 l 0.03125,0 c -0.08221,-1.740053 0.195174,-3.72785 -0.1875,-5.78125 a 0.98580508,0.98580508 0 0 0 -0.0625,-0.1875 c -0.511865,-1.189517 -1.7004,-1.71219 -2.65625,-1.8125 -0.95585,-0.10031 -1.842332,0.03625 -2.40625,0 a 0.98580508,0.98580508 0 0 0 -0.0625,-0.03125 l -11.6875,0 z m -13.875,9 c -1.071627,0.0098 -1.954722,0.660754 -2.40625,1.4375 -0.423862,0.729154 -0.517089,1.594973 -0.40625,2.40625 l -0.0625,0 c 0.05646,2.477049 -0.09589,5.061514 0.125,7.6875 a 0.98580508,0.98580508 0 0 0 0.03125,0.15625 c 0.257899,0.974646 1.014672,1.624319 1.78125,1.90625 0.237353,0.08729 0.450417,0.02115 0.6875,0.0625 -0.594038,1.344771 -1.462636,2.63982 -2.40625,3.96875 a 0.98580508,0.98580508 0 0 0 -0.09375,0.1875 c -0.915037,2.129281 1.003159,4.3998 3.21875,4.09375 l 0,0.03125 c 1.642087,-0.08415 3.496922,0.204976 5.46875,-0.1875 A 0.98580508,0.98580508 0 0 0 32.25,65.6875 c 1.822975,-1.00779 2.437595,-2.991569 3.09375,-4.21875 A 0.98580508,0.98580508 0 0 0 35.375,61.375 c 2.024515,-4.774902 1.563736,-9.872838 1.5625,-14.5625 A 0.98580508,0.98580508 0 0 0 36.90625,46.75 C 36.849188,45.662862 36.143945,44.810702 35.34375,44.40625 34.593989,44.027289 33.775668,43.995736 33,44.09375 l 0,-0.0625 -6.96875,0 z"
       id="path4096"
       style="font-size:24px;font-style:normal;font-variant:normal;font-weight:bold;font-stretch:normal;text-align:start;line-height:125%;writing-mode:lr-tb;text-anchor:start;opacity:0.05;fill:#5e1a50;fill-opacity:1;stroke:none;font-family:Liberation Sans;-inkscape-font-specification:Abandoned Bitplane Bold" />
    <path
       d="m 55.4375,15.03125 c -1.70959,-0.0015 -2.501287,2.296983 -1.290354,3.445557 4.729182,6.647654 7.262137,14.768566 6.97661,22.935646 0.177784,8.039026 -2.572477,15.949722 -7.217506,22.462547 -0.987151,1.340183 0.284382,3.336775 1.907888,3.09375 2.442733,-0.0628 4.922711,0.125579 7.342112,-0.09375 1.529738,-0.571521 1.98717,-2.463345 2.931631,-3.658332 5.832625,-9.359603 7.085677,-20.98272 5.057465,-31.676654 C 69.949496,25.748024 67.409556,20.22483 63.875,15.5 c -1.239267,-0.857912 -2.864022,-0.315465 -4.282827,-0.46875 -1.384891,0 -2.769782,0 -4.154673,0 z m -29.53125,10 c -1.435794,0.01312 -2.097904,1.570025 -1.875,2.817415 0.05906,2.568977 -0.120351,5.15769 0.09375,7.713835 0.415583,1.520378 2.169123,1.478774 3.430886,1.40625 2.333301,-0.05828 4.686121,0.119286 7.006614,-0.09375 1.520378,-0.415583 1.478774,-2.169123 1.40625,-3.430886 -0.05828,-2.333301 0.119286,-4.686121 -0.09375,-7.006614 -0.415583,-1.520378 -2.169123,-1.478774 -3.430886,-1.40625 -2.179288,0 -4.358576,0 -6.537864,0 z m 14,11 c -1.435794,0.01312 -2.097904,1.570025 -1.875,2.817415 0.0898,1.962288 -0.188595,3.968464 0.15625,5.901335 0.725862,1.68682 2.775436,1.126066 4.217051,1.21875 3.988486,-0.04094 7.990563,0.08235 11.970449,-0.0625 1.437181,-0.203534 1.750904,-1.832768 1.59375,-3.037803 -0.08826,-1.868125 0.186424,-3.779686 -0.15625,-5.618447 -0.725862,-1.68682 -2.775436,-1.126066 -4.217051,-1.21875 -3.896399,0 -7.792799,0 -11.689199,0 z m -13.875,9 c -1.435794,0.01312 -2.097904,1.570025 -1.875,2.817415 0.05785,2.537827 -0.118651,5.095049 0.09375,7.620085 0.344934,1.303565 1.823411,1.532913 2.96875,1.40625 -0.543595,2.024218 -1.856783,3.6897 -3.03125,5.34375 -0.614285,1.429435 0.745683,3.007355 2.236832,2.75 1.780037,-0.09122 3.614298,0.190604 5.356918,-0.15625 1.381124,-0.763523 1.986807,-2.473377 2.701358,-3.809773 1.901791,-4.485452 1.456144,-9.441 1.454892,-14.190227 -0.07657,-1.458795 -1.689037,-1.98229 -2.927609,-1.78125 -2.326214,0 -4.652427,0 -6.978641,0 z"
       inkscape:connector-curvature="0"
       id="path4086"
       style="font-size:24px;font-style:normal;font-variant:normal;font-weight:bold;font-stretch:normal;text-align:start;line-height:125%;writing-mode:lr-tb;text-anchor:start;opacity:0.1;fill:#5e1a50;fill-opacity:1;stroke:none;font-family:Liberation Sans;-inkscape-font-specification:Abandoned Bitplane Bold" />
    <path
       d="m 55.34375,16.03125 a 0.98129583,0.98129583 0 0 0 -0.625,1.53125 c 1.318089,1.911264 2.441453,3.774319 3.375,5.625 0.931287,1.846272 1.694337,3.733871 2.28125,5.625 a 0.98129583,0.98129583 0 0 0 0,0.03125 c 0.604803,1.896179 1.067057,3.810611 1.34375,5.8125 0.277172,1.989195 0.406243,4.115856 0.40625,6.34375 -7e-6,2.24494 -0.128836,4.367789 -0.40625,6.375 -0.276571,1.984763 -0.738519,3.883759 -1.34375,5.78125 a 0.98129583,0.98129583 0 0 0 0,0.03125 c -0.586504,1.889836 -1.350437,3.764775 -2.28125,5.59375 -0.934452,1.852501 -2.056535,3.727983 -3.375,5.65625 a 0.98129583,0.98129583 0 0 0 0.8125,1.53125 l 7.0625,0 a 0.98129583,0.98129583 0 0 0 0.8125,-0.40625 c 1.31433,-1.894704 2.446,-3.801319 3.40625,-5.6875 0.959392,-1.884546 1.756352,-3.824597 2.375,-5.8125 0.0029,-0.0092 -0.0028,-0.02208 0,-0.03125 0.631991,-1.986768 1.114621,-4.074524 1.40625,-6.21875 0.309535,-2.166855 0.437485,-4.426127 0.4375,-6.84375 -1.5e-5,-2.423077 -0.130341,-4.715556 -0.4375,-6.84375 -0.0014,-0.0103 0.0014,-0.02095 0,-0.03125 -0.292102,-2.133597 -0.776986,-4.195028 -1.40625,-6.15625 -0.0029,-0.0092 0.0029,-0.02204 0,-0.03125 -0.619053,-1.98902 -1.415127,-3.912874 -2.375,-5.78125 -0.960248,-1.886152 -2.091923,-3.792774 -3.40625,-5.6875 a 0.98129583,0.98129583 0 0 0 -0.8125,-0.40625 l -7.0625,0 a 0.98129583,0.98129583 0 0 0 -0.1875,0 z m -29.53125,10 A 0.98129583,0.98129583 0 0 0 25.03125,27 l 0,8 A 0.98129583,0.98129583 0 0 0 26,35.96875 l 8,0 A 0.98129583,0.98129583 0 0 0 34.96875,35 l 0,-8 A 0.98129583,0.98129583 0 0 0 34,26.03125 l -8,0 a 0.98129583,0.98129583 0 0 0 -0.1875,0 z m 14,11 A 0.98129583,0.98129583 0 0 0 39.03125,38 l 0,6 A 0.98129583,0.98129583 0 0 0 40,44.96875 l 14,0 A 0.98129583,0.98129583 0 0 0 54.96875,44 l 0,-6 A 0.98129583,0.98129583 0 0 0 54,37.03125 l -14,0 a 0.98129583,0.98129583 0 0 0 -0.1875,0 z m -13.875,9 A 0.98129583,0.98129583 0 0 0 25.15625,47 l 0,7.90625 A 0.98129583,0.98129583 0 0 0 26.125,55.875 l 2.40625,0 c -0.03863,0.170484 -0.02553,0.289326 -0.09375,0.5625 -0.164541,0.65879 -0.43833,1.33793 -0.75,2.03125 -0.315658,0.702141 -0.644766,1.394829 -1.0625,2.03125 a 0.98129583,0.98129583 0 0 0 -0.03125,0 C 26.183697,61.150723 25.744034,61.771899 25.25,62.375 A 0.98129583,0.98129583 0 0 0 26,63.96875 l 5.03125,0 a 0.98129583,0.98129583 0 0 0 0.78125,-0.375 c 0.47532,-0.649895 0.948498,-1.341082 1.34375,-2.09375 0.39691,-0.755885 0.727819,-1.607698 1,-2.5 0.27378,-0.878554 0.460754,-1.80261 0.59375,-2.8125 0.0014,-0.01075 -0.0014,-0.02049 0,-0.03125 0.152087,-1.03292 0.218738,-2.182585 0.21875,-3.40625 l 0,-5.75 A 0.98129583,0.98129583 0 0 0 34,46.03125 l -7.875,0 a 0.98129583,0.98129583 0 0 0 -0.1875,0 z"
       id="path4082"
       style="font-size:24px;font-style:normal;font-variant:normal;font-weight:bold;font-stretch:normal;text-align:start;line-height:125%;writing-mode:lr-tb;text-anchor:start;opacity:0.15;fill:#5e1a50;fill-opacity:1;stroke:none;font-family:Liberation Sans;-inkscape-font-specification:Abandoned Bitplane Bold" />
    <path
       d="m 55.53125,17 c 1.341014,1.944507 2.482024,3.855847 3.4375,5.75 0.95547,1.894214 1.740289,3.836802 2.34375,5.78125 0.620215,1.944497 1.090027,3.938208 1.375,6 0.284957,2.045067 0.406243,4.205799 0.40625,6.46875 -7e-6,2.279738 -0.121291,4.438195 -0.40625,6.5 -0.284973,2.045055 -0.754785,4.024281 -1.375,5.96875 -0.603461,1.944474 -1.38828,3.872575 -2.34375,5.75 -0.955476,1.89418 -2.096486,3.820004 -3.4375,5.78125 l 7.0625,0 c 1.290721,-1.86067 2.40503,-3.718609 3.34375,-5.5625 0.938701,-1.843902 1.70903,-3.743029 2.3125,-5.6875 0.620206,-1.944472 1.09002,-3.967159 1.375,-6.0625 0.301712,-2.112092 0.437485,-4.338435 0.4375,-6.71875 C 70.062485,38.5717 69.926714,36.328593 69.625,34.25 69.34002,32.154683 68.870206,30.146483 68.25,28.21875 67.64653,26.274304 66.876201,24.389664 65.9375,22.5625 64.99878,20.718635 63.884471,18.860695 62.59375,17 l -7.0625,0 z M 26,27 l 0,8 8,0 0,-8 -8,0 z m 14,11 0,6 14,0 0,-6 -14,0 z m -13.875,9 0,7.90625 3.53125,0 c -9e-6,0.713489 -0.09861,1.049922 -0.28125,1.78125 -0.182657,0.731322 -0.452493,1.45617 -0.78125,2.1875 -0.328778,0.731324 -0.699635,1.460593 -1.15625,2.15625 C 26.999138,61.726898 26.51141,62.375687 26,63 l 5.03125,0 c 0.45661,-0.624313 0.884691,-1.273102 1.25,-1.96875 0.365285,-0.695657 0.681778,-1.474156 0.9375,-2.3125 0.255694,-0.820518 0.434641,-1.706455 0.5625,-2.6875 C 33.927349,55.050201 33.999988,53.945093 34,52.75 L 34,47 26.125,47 z"
       inkscape:connector-curvature="0"
       id="path4078"
       style="font-size:24px;font-style:normal;font-variant:normal;font-weight:bold;font-stretch:normal;text-align:start;line-height:125%;writing-mode:lr-tb;text-anchor:start;opacity:0.3;fill:#5e1a50;fill-opacity:1;stroke:none;font-family:Liberation Sans;-inkscape-font-specification:Abandoned Bitplane Bold" />
    <path
       d="m 55.53125,16 c 1.341014,1.944507 2.482024,3.855847 3.4375,5.75 0.95547,1.894214 1.740289,3.836802 2.34375,5.78125 0.620215,1.944497 1.090027,3.938208 1.375,6 0.284957,2.045067 0.406243,4.205799 0.40625,6.46875 -7e-6,2.279738 -0.121291,4.438195 -0.40625,6.5 -0.284973,2.045055 -0.754785,4.024281 -1.375,5.96875 -0.603461,1.944474 -1.38828,3.872575 -2.34375,5.75 -0.955476,1.89418 -2.096486,3.820004 -3.4375,5.78125 l 7.0625,0 c 1.290721,-1.86067 2.40503,-3.718609 3.34375,-5.5625 0.938701,-1.843902 1.70903,-3.743029 2.3125,-5.6875 0.620206,-1.944472 1.09002,-3.967159 1.375,-6.0625 0.301712,-2.112092 0.437485,-4.338435 0.4375,-6.71875 C 70.062485,37.5717 69.926714,35.328593 69.625,33.25 69.34002,31.154683 68.870206,29.146483 68.25,27.21875 67.64653,25.274304 66.876201,23.389664 65.9375,21.5625 64.99878,19.718635 63.884471,17.860695 62.59375,16 l -7.0625,0 z M 26,26 l 0,8 8,0 0,-8 -8,0 z m 14,11 0,6 14,0 0,-6 -14,0 z m -13.875,9 0,7.90625 3.53125,0 c -9e-6,0.713489 -0.09861,1.049922 -0.28125,1.78125 -0.182657,0.731322 -0.452493,1.45617 -0.78125,2.1875 -0.328778,0.731324 -0.699635,1.460593 -1.15625,2.15625 C 26.999138,60.726898 26.51141,61.375687 26,62 l 5.03125,0 c 0.45661,-0.624313 0.884691,-1.273102 1.25,-1.96875 0.365285,-0.695657 0.681778,-1.474156 0.9375,-2.3125 0.255694,-0.820518 0.434641,-1.706455 0.5625,-2.6875 C 33.927349,54.050201 33.999988,52.945093 34,51.75 L 34,46 26.125,46 z"
       inkscape:connector-curvature="0"
       id="path4075"
       style="font-size:24px;font-style:normal;font-variant:normal;font-weight:bold;font-stretch:normal;text-align:start;line-height:125%;writing-mode:lr-tb;text-anchor:start;fill:#ffffff;fill-opacity:1;stroke:none;font-family:Liberation Sans;-inkscape-font-specification:Abandoned Bitplane Bold" />
  </g>
</svg>
