<?xml version="1.0" encoding="UTF-8" standalone="no"?>
<!-- Created with Inkscape (http://www.inkscape.org/) -->

<svg
   xmlns:dc="http://purl.org/dc/elements/1.1/"
   xmlns:cc="http://creativecommons.org/ns#"
   xmlns:rdf="http://www.w3.org/1999/02/22-rdf-syntax-ns#"
   xmlns:svg="http://www.w3.org/2000/svg"
   xmlns="http://www.w3.org/2000/svg"
   xmlns:xlink="http://www.w3.org/1999/xlink"
   xmlns:inkscape="http://www.inkscape.org/namespaces/inkscape"
   version="1.0"
   width="96"
   height="96"
   id="svg2408">
  <defs
     id="defs2410">
    <linearGradient
       id="linearGradient3916">
      <stop
         id="stop3918"
         style="stop-color:#ffffff;stop-opacity:1"
         offset="0" />
      <stop
         id="stop3920"
         style="stop-color:#ffffff;stop-opacity:0"
         offset="1" />
    </linearGradient>
    <linearGradient
       id="linearGradient3905">
      <stop
         id="stop3907"
         style="stop-color:#47bbee;stop-opacity:1"
         offset="0" />
      <stop
         id="stop3909"
         style="stop-color:#175f7f;stop-opacity:1"
         offset="1" />
    </linearGradient>
    <linearGradient
       id="linearGradient3847">
      <stop
         id="stop3849"
         style="stop-color:#ffffff;stop-opacity:1"
         offset="0" />
      <stop
         id="stop3851"
         style="stop-color:#ffffff;stop-opacity:0"
         offset="1" />
    </linearGradient>
    <linearGradient
       id="linearGradient3790">
      <stop
         id="stop3792"
         style="stop-color:#e6e6e6;stop-opacity:1"
         offset="0" />
      <stop
         id="stop3794"
         style="stop-color:#b4b4b4;stop-opacity:1"
         offset="1" />
    </linearGradient>
    <linearGradient
       id="linearGradient3701">
      <stop
         id="stop3703"
         style="stop-color:#1c4a5b;stop-opacity:1"
         offset="0" />
      <stop
         id="stop3705"
         style="stop-color:#228cb8;stop-opacity:1"
         offset="1" />
    </linearGradient>
    <linearGradient
       x1="45.447727"
       y1="92.539597"
       x2="45.447727"
       y2="7.0165396"
       id="ButtonShadow"
       gradientUnits="userSpaceOnUse"
       gradientTransform="scale(1.0058652,0.994169)">
      <stop
         id="stop3750"
         style="stop-color:#000000;stop-opacity:1"
         offset="0" />
      <stop
         id="stop3752"
         style="stop-color:#000000;stop-opacity:0.58823532"
         offset="1" />
    </linearGradient>
    <linearGradient
       id="linearGradient3737">
      <stop
         id="stop3739"
         style="stop-color:#ffffff;stop-opacity:1"
         offset="0" />
      <stop
         id="stop3741"
         style="stop-color:#ffffff;stop-opacity:0"
         offset="1" />
    </linearGradient>
    <linearGradient
       id="linearGradient3700">
      <stop
         id="stop3702"
         style="stop-color:#3f9fc5;stop-opacity:1"
         offset="0" />
      <stop
         id="stop3704"
         style="stop-color:#89cde9;stop-opacity:1"
         offset="1" />
    </linearGradient>
    <filter
       color-interpolation-filters="sRGB"
       id="filter3174">
      <feGaussianBlur
         id="feGaussianBlur3176"
         stdDeviation="1.71" />
    </filter>
    <linearGradient
       x1="36.357143"
       y1="6"
       x2="36.357143"
       y2="63.893143"
       id="linearGradient3188"
       xlink:href="#linearGradient3737"
       gradientUnits="userSpaceOnUse" />
    <filter
       x="-0.192"
       y="-0.192"
       width="1.3839999"
       height="1.3839999"
       color-interpolation-filters="sRGB"
       id="filter3794">
      <feGaussianBlur
         id="feGaussianBlur3796"
         stdDeviation="5.28" />
    </filter>
    <linearGradient
       x1="48"
       y1="20.220806"
       x2="48"
       y2="138.66119"
       id="linearGradient3613"
       xlink:href="#linearGradient3737"
       gradientUnits="userSpaceOnUse" />
    <radialGradient
       cx="48"
       cy="90.171875"
       r="42"
       fx="48"
       fy="90.171875"
       id="radialGradient3619"
       xlink:href="#linearGradient3737"
       gradientUnits="userSpaceOnUse"
       gradientTransform="matrix(1.1573129,0,0,0.99590774,-7.5510206,0.19713193)" />
    <clipPath
       id="clipPath3613">
      <rect
         width="84"
         height="84"
         rx="6"
         ry="6"
         x="6"
         y="6"
         id="rect3615"
         style="fill:#ffffff;fill-opacity:1;fill-rule:nonzero;stroke:none" />
    </clipPath>
    <linearGradient
       x1="48"
       y1="90"
       x2="48"
       y2="5.9877172"
       id="linearGradient3617"
       xlink:href="#linearGradient3700"
       gradientUnits="userSpaceOnUse" />
    <linearGradient
       x1="45.447727"
       y1="92.539597"
       x2="45.447727"
       y2="7.0165396"
       id="ButtonShadow-0"
       gradientUnits="userSpaceOnUse"
       gradientTransform="matrix(1.0058652,0,0,0.994169,100,0)">
      <stop
         id="stop3750-8"
         style="stop-color:#000000;stop-opacity:1"
         offset="0" />
      <stop
         id="stop3752-5"
         style="stop-color:#000000;stop-opacity:0.58823532"
         offset="1" />
    </linearGradient>
    <linearGradient
       x1="32.251034"
       y1="6.1317081"
       x2="32.251034"
       y2="90.238609"
       id="linearGradient3780"
       xlink:href="#ButtonShadow-0"
       gradientUnits="userSpaceOnUse"
       gradientTransform="matrix(1.0238095,0,0,1.0119048,-1.1428571,-98.071429)" />
    <linearGradient
       x1="32.251034"
       y1="6.1317081"
       x2="32.251034"
       y2="90.238609"
       id="linearGradient3772"
       xlink:href="#ButtonShadow-0"
       gradientUnits="userSpaceOnUse"
       gradientTransform="matrix(1.0238095,0,0,1.0119048,-1.1428571,-98.071429)" />
    <linearGradient
       x1="32.251034"
       y1="6.1317081"
       x2="32.251034"
       y2="90.238609"
       id="linearGradient3725"
       xlink:href="#ButtonShadow-0"
       gradientUnits="userSpaceOnUse"
       gradientTransform="matrix(1.0238095,0,0,1.0119048,-1.1428571,-98.071429)" />
    <linearGradient
       x1="32.251034"
       y1="6.1317081"
       x2="32.251034"
       y2="90.238609"
       id="linearGradient3721"
       xlink:href="#ButtonShadow-0"
       gradientUnits="userSpaceOnUse"
       gradientTransform="translate(0,-97)" />
    <linearGradient
       x1="32.251034"
       y1="6.1317081"
       x2="32.251034"
       y2="90.238609"
       id="linearGradient3026"
       xlink:href="#ButtonShadow-0"
       gradientUnits="userSpaceOnUse"
       gradientTransform="matrix(1.0238095,0,0,1.0119048,-1.1428571,-98.071429)" />
    <linearGradient
       x1="56"
       y1="64"
       x2="56"
       y2="16"
       id="linearGradient3699"
       xlink:href="#linearGradient3701"
       gradientUnits="userSpaceOnUse" />
    <linearGradient
       x1="44"
       y1="66"
       x2="52"
       y2="66"
       id="linearGradient3796"
       xlink:href="#linearGradient3790"
       gradientUnits="userSpaceOnUse" />
    <linearGradient
       x1="49"
       y1="52"
       x2="49"
       y2="77.079872"
       id="linearGradient3853"
       xlink:href="#linearGradient3847"
       gradientUnits="userSpaceOnUse" />
    <radialGradient
       cx="48"
       cy="45.167473"
       r="7"
       fx="48"
       fy="45.167473"
       id="radialGradient3861"
       xlink:href="#linearGradient3905"
       gradientUnits="userSpaceOnUse"
       gradientTransform="matrix(1.1428569,1.5630328e-7,-1.9842221e-7,1.4508217,-6.8571221,-20.529956)" />
    <radialGradient
       cx="48"
       cy="47.930149"
       r="6"
       fx="48"
       fy="47.930149"
       id="radialGradient3891"
       xlink:href="#linearGradient3847"
       gradientUnits="userSpaceOnUse"
       gradientTransform="matrix(1,0,0,0.83333345,0,6.0582042)" />
    <linearGradient
       x1="49.400002"
       y1="34"
       x2="49.400002"
       y2="51.5"
       id="linearGradient3903"
       xlink:href="#linearGradient3847"
       gradientUnits="userSpaceOnUse" />
    <linearGradient
       x1="56"
       y1="48"
       x2="56"
       y2="8"
       id="linearGradient3922"
       xlink:href="#linearGradient3916"
       gradientUnits="userSpaceOnUse" />
  </defs>
  <metadata
     id="metadata2413">
    <rdf:RDF>
      <cc:Work
         rdf:about="">
        <dc:format>image/svg+xml</dc:format>
        <dc:type
           rdf:resource="http://purl.org/dc/dcmitype/StillImage" />
        <dc:title />
      </cc:Work>
    </rdf:RDF>
  </metadata>
  <g
     id="layer2"
     style="display:none">
    <rect
       width="86"
       height="85"
       rx="6"
       ry="6"
       x="5"
       y="7"
       id="rect3745"
       style="opacity:0.9;fill:url(#ButtonShadow);fill-opacity:1;fill-rule:nonzero;stroke:none;filter:url(#filter3174)" />
  </g>
  <g
     id="layer3">
    <path
       d="m 12,-95.03125 c -5.5110903,0 -10.03125,4.52016 -10.03125,10.03125 l 0,71 c 0,5.5110902 4.5201598,10.03125 10.03125,10.03125 l 72,0 c 5.51109,0 10.03125,-4.5201597 10.03125,-10.03125 l 0,-71 c 0,-5.51109 -4.52016,-10.03125 -10.03125,-10.03125 l -72,0 z"
       transform="scale(1,-1)"
       id="path3786"
       style="opacity:0.07999998;fill:url(#linearGradient3026);fill-opacity:1;fill-rule:nonzero;stroke:none;display:inline" />
    <path
       d="m 12,-94.03125 c -4.971633,0 -9.03125,4.059617 -9.03125,9.03125 l 0,71 c 0,4.9716329 4.0596171,9.03125 9.03125,9.03125 l 72,0 c 4.971633,0 9.03125,-4.059617 9.03125,-9.03125 l 0,-71 c 0,-4.971633 -4.059617,-9.03125 -9.03125,-9.03125 l -72,0 z"
       transform="scale(1,-1)"
       id="path3778"
       style="opacity:0.1;fill:url(#linearGradient3780);fill-opacity:1;fill-rule:nonzero;stroke:none;display:inline" />
    <path
       d="m 12,-93 c -4.4091333,0 -8,3.590867 -8,8 l 0,71 c 0,4.4091333 3.5908667,8 8,8 l 72,0 c 4.409133,0 8,-3.5908667 8,-8 l 0,-71 c 0,-4.409133 -3.590867,-8 -8,-8 l -72,0 z"
       transform="scale(1,-1)"
       id="path3770"
       style="opacity:0.2;fill:url(#linearGradient3772);fill-opacity:1;fill-rule:nonzero;stroke:none;display:inline" />
    <rect
       width="86"
       height="85"
       rx="7"
       ry="7"
       x="5"
       y="-92"
       transform="scale(1,-1)"
       id="rect3723"
       style="opacity:0.3;fill:url(#linearGradient3725);fill-opacity:1;fill-rule:nonzero;stroke:none;display:inline" />
    <rect
       width="84"
       height="84"
       rx="6"
       ry="6"
       x="6"
       y="-91"
       transform="scale(1,-1)"
       id="rect3716"
       style="opacity:0.45;fill:url(#linearGradient3721);fill-opacity:1;fill-rule:nonzero;stroke:none;display:inline" />
  </g>
  <g
     id="layer1">
    <rect
       width="84"
       height="84"
       rx="6"
       ry="6"
       x="6"
       y="6"
       id="rect2419"
       style="fill:url(#linearGradient3617);fill-opacity:1;fill-rule:nonzero;stroke:none" />
    <path
       d="M 12,6 C 8.676,6 6,8.676 6,12 l 0,24.125 c 11.823123,5.258282 26.321675,8.375 42,8.375 15.678325,0 30.176877,-3.116718 42,-8.375 L 90,12 C 90,8.676 87.324,6 84,6 L 12,6 z"
       inkscape:connector-curvature="0"
       id="path3911"
       style="opacity:0.4;color:#000000;fill:url(#linearGradient3922);fill-opacity:1;fill-rule:nonzero;stroke:none;stroke-width:8;marker:none;visibility:visible;display:inline;overflow:visible;enable-background:accumulate" />
    <path
       d="m 26.8125,15.6875 a 4.0004001,4.0004001 0 0 0 -2.875,1.25 c -13.244326,13.244326 -13.244326,34.880674 0,48.125 A 4.0216698,4.0216698 0 1 0 29.625,59.375 c -10.187134,-10.187134 -10.187134,-26.562867 0,-36.75 a 4.0004001,4.0004001 0 0 0 0.5625,-5.125 4.0004001,4.0004001 0 0 0 -3.375,-1.8125 z m 42.375,0 a 4.0004001,4.0004001 0 0 0 -3.375,1.8125 4.0004001,4.0004001 0 0 0 0.5625,5.125 c 10.187134,10.187133 10.187134,26.562866 0,36.75 a 4.0216698,4.0216698 0 1 0 5.6875,5.6875 c 13.244326,-13.244326 13.244326,-34.880674 0,-48.125 a 4.0004001,4.0004001 0 0 0 -2.875,-1.25 z M 36.28125,25.75 a 4.0004001,4.0004001 0 0 0 -2.46875,1.21875 c -7.776983,7.776984 -7.776983,20.504267 0,28.28125 a 4.0004001,4.0004001 0 1 0 5.65625,-5.65625 c -4.719794,-4.719793 -4.719794,-12.248957 0,-16.96875 A 4.0004001,4.0004001 0 0 0 39.5625,26.96875 4.0004001,4.0004001 0 0 0 36.28125,25.75 z m 22.625,0 a 4.0004001,4.0004001 0 0 0 -2.46875,1.21875 4.0004001,4.0004001 0 0 0 0.09375,5.65625 c 4.719794,4.719793 4.719794,12.248957 0,16.96875 A 4.0004001,4.0004001 0 1 0 62.1875,55.25 c 7.776983,-7.776983 7.776983,-20.504266 0,-28.28125 A 4.0004001,4.0004001 0 0 0 58.90625,25.75 z"
       inkscape:connector-curvature="0"
       id="path3665"
       style="font-size:medium;font-style:normal;font-variant:normal;font-weight:normal;font-stretch:normal;text-indent:0;text-align:start;text-decoration:none;line-height:normal;letter-spacing:normal;word-spacing:normal;text-transform:none;direction:ltr;block-progression:tb;writing-mode:lr-tb;text-anchor:start;opacity:0.6;color:#000000;fill:url(#linearGradient3699);fill-opacity:1;stroke:none;stroke-width:3.5;marker:none;visibility:visible;display:inline;overflow:visible;enable-background:accumulate;font-family:Abandoned Bitplane;-inkscape-font-specification:Abandoned Bitplane" />
    <path
       d="m 26.75,15.6875 c -0.880918,0.04443 -1.617056,0.379638 -2.28125,0.84375 -0.11728,0.08195 -0.231448,0.159167 -0.34375,0.25 -0.04487,0.03817 -0.08058,0.08631 -0.125,0.125 -0.292559,0.254843 -0.569704,0.505944 -0.84375,0.78125 -0.151766,0.1661 -0.291878,0.32594 -0.4375,0.5 -0.6553,0.78327 -1.272979,1.641077 -1.90625,2.34375 -0.210815,0.289952 -0.422085,0.579992 -0.625,0.875 -0.03872,0.05404 -0.08664,0.101983 -0.125,0.15625 -0.318116,0.46645 -0.632808,0.937127 -0.9375,1.40625 -0.06876,0.105871 -0.150463,0.206824 -0.21875,0.3125 -0.07968,0.130315 -0.141002,0.274857 -0.21875,0.40625 -0.13833,0.23065 -0.274136,0.453655 -0.40625,0.6875 -0.07535,0.134991 -0.145389,0.270228 -0.21875,0.40625 -0.801427,1.485951 -1.498916,3.03594 -2.0625,4.625 -0.274081,0.772789 -0.501189,1.552971 -0.71875,2.34375 -0.0088,0.03203 -0.02253,0.06169 -0.03125,0.09375 -0.218661,0.803893 -0.402346,1.619573 -0.5625,2.4375 -0.147965,0.755674 -0.277127,1.517199 -0.375,2.28125 -0.01735,0.135447 -0.04673,0.270603 -0.0625,0.40625 -0.06133,0.527456 -0.08754,1.063994 -0.125,1.59375 -0.02502,0.374084 -0.04946,0.750262 -0.0625,1.125 -0.01696,0.437407 -0.03056,0.874775 -0.03125,1.3125 10e-4,0.427305 0.0147,0.854254 0.03125,1.28125 0.01268,0.364364 0.0385,0.729999 0.0625,1.09375 0.03985,0.568596 0.0889,1.121583 0.15625,1.6875 0.0076,0.06346 0.02335,0.12408 0.03125,0.1875 0.203315,1.632569 0.50604,3.257511 0.9375,4.84375 0.0087,0.03206 0.02244,0.06172 0.03125,0.09375 0.217561,0.790779 0.444669,1.570961 0.71875,2.34375 0.281792,0.79453 0.596152,1.603973 0.9375,2.375 0.341348,0.771027 0.724287,1.507025 1.125,2.25 0.153891,0.281915 0.305963,0.566312 0.46875,0.84375 0.07193,0.12438 0.145105,0.251558 0.21875,0.375 0.05617,0.0927 0.09907,0.189088 0.15625,0.28125 0.05525,0.0855 0.131942,0.164362 0.1875,0.25 0.349421,0.559509 0.708408,1.11848 1.09375,1.65625 0.123817,0.180006 0.248365,0.352932 0.375,0.53125 0.08484,0.113289 0.163522,0.231546 0.25,0.34375 0.0094,0.01042 0.02187,0.02077 0.03125,0.03125 0.763524,0.853336 1.487915,1.878786 2.3125,2.78125 0.418515,0.420439 0.849447,0.816949 1.3125,1.1875 0.678,0.472352 1.43896,0.779894 2.34375,0.8125 0.147505,0.0046 0.295554,-0.01963 0.4375,-0.03125 1.468119,-0.222104 2.811917,-1.301284 3.34375,-2.6875 C 30.661678,63.354198 30.710006,63.186124 30.75,63 30.78999,62.813876 30.83456,62.630448 30.84375,62.4375 30.86213,62.051604 30.80953,61.649713 30.6875,61.25 30.277799,60.372688 29.724593,59.578581 29.125,58.8125 28.260115,57.915656 27.462711,56.95058 26.75,55.9375 26.67579,55.84479 26.604008,55.749962 26.53125,55.65625 25.784583,54.694548 25.115204,53.669734 24.6875,52.5 24.478616,52.094201 24.308985,51.665548 24.125,51.25 23.289399,49.362715 22.70939,47.396198 22.375,45.375 22.163984,44.099526 22.018015,42.824295 22,41.53125 21.9951,41.353426 22.0013,41.177866 22,41 c 0.0012,-0.187245 -0.0052,-0.375299 0,-0.5625 0.01801,-1.293045 0.163984,-2.599526 0.375,-3.875 0.408017,-2.466231 1.15493,-4.876191 2.3125,-7.125 0.427704,-1.169734 1.097083,-2.163298 1.84375,-3.125 0.06682,-0.09794 0.15051,-0.184251 0.21875,-0.28125 0.708536,-1.007146 1.484804,-1.982662 2.34375,-2.875 0.605533,-0.771961 1.180626,-1.552857 1.59375,-2.4375 0.122029,-0.399713 0.174634,-0.801604 0.15625,-1.1875 -0.0092,-0.192948 -0.05376,-0.407626 -0.09375,-0.59375 -0.02789,-0.129812 -0.05206,-0.249435 -0.09375,-0.375 -0.01687,-0.05343 -0.04357,-0.103501 -0.0625,-0.15625 -0.54342,-1.416419 -1.932203,-2.498739 -3.4375,-2.6875 C 27.020194,15.70169 26.887374,15.68941 26.75,15.6875 z m 42.3125,0 c -1.313556,0.09793 -2.600472,0.888487 -3.3125,2 -0.06688,0.115608 -0.131054,0.222629 -0.1875,0.34375 -0.02573,0.05075 -0.03906,0.104414 -0.0625,0.15625 -0.05245,0.124347 -0.115203,0.246642 -0.15625,0.375 -0.03382,0.103311 -0.06937,0.206026 -0.09375,0.3125 -0.03071,0.134116 -0.04777,0.267812 -0.0625,0.40625 -0.04088,0.384165 -0.0047,0.781345 0.09375,1.1875 0.382462,0.973275 0.952194,1.828615 1.59375,2.65625 0.82863,0.857598 1.591866,1.785333 2.28125,2.75 0.01862,0.02268 0.04395,0.03977 0.0625,0.0625 0.866128,1.061483 1.630497,2.181628 2.09375,3.5 0.208911,0.405834 0.378495,0.834419 0.5625,1.25 1.363052,3.078499 2.078572,6.407747 2.125,9.75 0.002,0.07197 -0.0014,0.146766 0,0.21875 0.0012,0.220034 0.0043,0.436222 0,0.65625 -4.07e-4,0.07335 0.001,0.145415 0,0.21875 -0.04643,3.342253 -0.761948,6.640251 -2.125,9.71875 -0.184005,0.415581 -0.353589,0.844166 -0.5625,1.25 -0.437747,1.245784 -1.159729,2.303003 -1.96875,3.3125 -0.04714,0.05882 -0.07731,0.129056 -0.125,0.1875 -0.732038,1.034305 -1.546406,2.025572 -2.4375,2.9375 -0.604411,0.792453 -1.135528,1.603755 -1.5,2.53125 -0.09849,0.406155 -0.134629,0.803335 -0.09375,1.1875 0.01473,0.138438 0.03179,0.272134 0.0625,0.40625 0.0119,0.05197 0.01707,0.10501 0.03125,0.15625 0.0147,0.05254 0.04587,0.104236 0.0625,0.15625 0.05474,0.168459 0.140871,0.341271 0.21875,0.5 0.004,0.0087 -0.0041,0.02255 0,0.03125 0.06253,0.125022 0.111948,0.225809 0.1875,0.34375 0.717569,1.120162 2.01922,1.912002 3.34375,2 0.03235,-9.43e-4 0.06116,0.0018 0.09375,0 0.201892,-0.0011 0.394564,8.01e-4 0.59375,-0.03125 0.575028,-0.09253 1.143033,-0.328674 1.625,-0.65625 0.01669,-0.01488 0.04584,-0.01633 0.0625,-0.03125 0.335307,-0.308311 0.648222,-0.615002 0.96875,-0.9375 0.127957,-0.12603 0.249466,-0.246653 0.375,-0.375 0.0562,-0.05856 0.100532,-0.128515 0.15625,-0.1875 0.378997,-0.401224 0.768287,-0.79839 1.125,-1.21875 0.409155,-0.482158 0.808147,-0.994506 1.1875,-1.5 1.138059,-1.516482 2.139477,-3.121365 3,-4.8125 0.286841,-0.563712 0.557532,-1.139563 0.8125,-1.71875 0.06025,-0.136856 0.129051,-0.268598 0.1875,-0.40625 0.183369,-0.435529 0.366038,-0.900871 0.53125,-1.34375 0.445156,-1.185396 0.81251,-2.397352 1.125,-3.625 0.156245,-0.613824 0.283948,-1.253561 0.40625,-1.875 0.03892,-0.197738 0.08956,-0.395372 0.125,-0.59375 0.07515,-0.426374 0.159672,-0.853015 0.21875,-1.28125 0.01174,-0.08382 0.02013,-0.1661 0.03125,-0.25 0.06679,-0.511515 0.112596,-1.049681 0.15625,-1.5625 0.0018,-0.02091 -0.0018,-0.04159 0,-0.0625 0.05027,-0.599886 0.10682,-1.211015 0.125,-1.8125 9.17e-4,-0.03109 -8.29e-4,-0.06265 0,-0.09375 0.01679,-0.611412 0.01686,-1.201287 0,-1.8125 -5.67e-4,-0.02065 6.05e-4,-0.04185 0,-0.0625 -0.01804,-0.611609 -0.07278,-1.234179 -0.125,-1.84375 -0.0017,-0.02082 0.0018,-0.04169 0,-0.0625 -0.0516,-0.606229 -0.103593,-1.208252 -0.1875,-1.8125 -0.05847,-0.417442 -0.144967,-0.834917 -0.21875,-1.25 -0.03672,-0.208343 -0.08446,-0.417231 -0.125,-0.625 C 81.221448,33.784811 81.093745,33.176324 80.9375,32.5625 80.505685,30.866068 79.964886,29.203769 79.28125,27.59375 79.223876,27.457478 79.152891,27.322992 79.09375,27.1875 78.583813,26.029125 78.011392,24.873792 77.375,23.78125 76.738608,22.688708 76.039956,21.635988 75.28125,20.625 74.901897,20.119506 74.502905,19.638408 74.09375,19.15625 73.684595,18.674092 73.250939,18.206857 72.8125,17.75 72.685047,17.617193 72.5674,17.474312 72.4375,17.34375 72.116967,17.028042 71.804387,16.706845 71.46875,16.40625 71.45009,16.39308 71.42513,16.38783 71.40625,16.375 71.258184,16.274365 71.097773,16.1733 70.9375,16.09375 70.756786,16.00406 70.567127,15.936571 70.375,15.875 c -0.384253,-0.123143 -0.783715,-0.185232 -1.1875,-0.1875 -0.04183,0.0017 -0.08326,-0.0031 -0.125,0 z m -42.09375,1.96875 c 1.665723,0.05446 2.625943,2.448554 1.25,3.5625 -0.513831,0.499185 -1.001072,1.024317 -1.46875,1.5625 -0.423801,0.487692 -0.83341,0.983396 -1.21875,1.5 -0.112201,0.150422 -0.203589,0.316039 -0.3125,0.46875 -0.04704,0.06586 -0.109782,0.121237 -0.15625,0.1875 -0.291937,0.417352 -0.576303,0.848244 -0.84375,1.28125 -0.746434,1.208501 -1.385726,2.472423 -1.9375,3.78125 -1.103547,2.617653 -1.834538,5.390656 -2.125,8.21875 -0.05872,0.571714 -0.06939,1.144687 -0.09375,1.71875 -0.01044,0.344629 -0.03338,0.686407 -0.03125,1.03125 -0.0022,0.339845 0.02125,0.691606 0.03125,1.03125 0.02436,0.574063 0.03503,1.147036 0.09375,1.71875 0.290462,2.828094 1.021453,5.632347 2.125,8.25 0.539241,1.2791 1.181028,2.503875 1.90625,3.6875 0.02901,0.04734 0.0332,0.109086 0.0625,0.15625 0.350184,0.559147 0.736213,1.091931 1.125,1.625 0.0308,0.04219 0.06269,0.08299 0.09375,0.125 0.399287,0.541011 0.813026,1.08268 1.25,1.59375 0.01922,0.02219 0.0432,0.04037 0.0625,0.0625 0.458887,0.52622 0.934369,1.01121 1.4375,1.5 1.467673,1.188209 0.27537,3.821548 -1.59375,3.53125 -0.270117,-0.03889 -0.542343,-0.115715 -0.78125,-0.25 -0.147977,-0.133141 -0.292791,-0.269632 -0.4375,-0.40625 l -0.0625,0.0625 C 23.409299,61.770835 21.788932,59.624652 20.4375,57.3125 19.858275,56.32151 19.311954,55.298093 18.84375,54.25 18.65887,53.836138 18.479814,53.421376 18.3125,53 c -0.04621,-0.112629 -0.07999,-0.230766 -0.125,-0.34375 -0.02469,-0.06138 -0.03824,-0.125972 -0.0625,-0.1875 -0.117234,-0.31088 -0.236048,-0.623126 -0.34375,-0.9375 -0.205483,-0.577971 -0.393299,-1.16172 -0.5625,-1.75 C 16.792314,48.298616 16.481188,46.776631 16.28125,45.25 16.183507,44.503682 16.107121,43.751359 16.0625,43 c -0.0069,-0.10404 0.0059,-0.208402 0,-0.3125 C 16.03402,42.113604 15.99792,41.543446 16,40.96875 15.9979,40.394054 16.03402,39.823896 16.0625,39.25 c 0.0059,-0.104098 -0.0069,-0.20846 0,-0.3125 0.04462,-0.751359 0.121007,-1.503682 0.21875,-2.25 0.198229,-1.51358 0.516654,-2.998289 0.9375,-4.46875 0.01164,-0.04166 0.01944,-0.08339 0.03125,-0.125 0.143082,-0.491915 0.300268,-0.984012 0.46875,-1.46875 0.129465,-0.386585 0.26243,-0.774871 0.40625,-1.15625 0.02396,-0.06076 0.03812,-0.126879 0.0625,-0.1875 0.03342,-0.08389 0.05967,-0.166305 0.09375,-0.25 0.579561,-1.472678 1.270967,-2.880123 2.0625,-4.25 C 20.39721,24.68899 20.445623,24.591717 20.5,24.5 c 0.271752,-0.45926 0.579652,-0.898987 0.875,-1.34375 0.633621,-0.954166 1.321986,-1.871845 2.0625,-2.75 0.610636,-0.724136 1.224377,-1.460412 1.90625,-2.125 l 0.0625,0.0625 c 0.144709,-0.136618 0.289523,-0.273109 0.4375,-0.40625 0.238907,-0.134285 0.511133,-0.211109 0.78125,-0.25 0.11682,-0.01814 0.232702,-0.03488 0.34375,-0.03125 z M 68.9375,17.6875 c 0.666302,-0.01426 1.209234,0.251531 1.6875,0.625 l 0.03125,-0.03125 c 0.04154,0.04152 0.08369,0.08325 0.125,0.125 0.184971,0.158079 0.331295,0.343531 0.5,0.53125 0.0557,0.0589 0.100997,0.12818 0.15625,0.1875 1.127896,1.210923 2.166712,2.504253 3.09375,3.875 0.346732,0.512688 0.683954,1.030311 1,1.5625 0.08579,0.144461 0.166537,0.291675 0.25,0.4375 0.0071,0.01237 0.02416,0.01887 0.03125,0.03125 0.396829,0.678345 0.753818,1.388548 1.09375,2.09375 0.004,0.0083 -0.004,0.02291 0,0.03125 1.37711,2.8639 2.2995,5.926303 2.75,9.0625 0.0015,0.01013 -0.0015,0.02112 0,0.03125 0.222962,1.562781 0.347537,3.13916 0.34375,4.71875 3.4e-5,0.01031 -2.5e-5,0.02094 0,0.03125 -0.0026,0.784524 -0.0356,1.561343 -0.09375,2.34375 -7.18e-4,0.01042 7.28e-4,0.02083 0,0.03125 -0.05889,0.78245 -0.135836,1.567593 -0.25,2.34375 -0.0015,0.01024 0.0015,0.02102 0,0.03125 -0.4505,3.136197 -1.37289,6.1986 -2.75,9.0625 -0.0041,0.0086 0.0041,0.02268 0,0.03125 -0.336542,0.709078 -0.703137,1.380664 -1.09375,2.0625 -0.0072,0.01229 -0.02404,0.01897 -0.03125,0.03125 -0.08346,0.145825 -0.16421,0.293039 -0.25,0.4375 -0.316046,0.532189 -0.653268,1.049812 -1,1.5625 -0.44887,0.663713 -0.939911,1.30946 -1.4375,1.9375 -0.50904,0.642494 -1.036959,1.273412 -1.59375,1.875 -0.255224,0.306288 -0.489344,0.602717 -0.78125,0.84375 -0.02255,0.01862 -0.03965,0.04447 -0.0625,0.0625 -0.482067,0.380536 -1.045058,0.608168 -1.71875,0.59375 -1.44698,-0.148606 -2.300378,-1.865917 -1.53125,-3.09375 1.808708,-1.861307 3.462123,-3.885883 4.78125,-6.125 0.215188,-0.365265 0.428566,-0.717494 0.625,-1.09375 0.0043,-0.0084 -0.0043,-0.02289 0,-0.03125 0.200261,-0.384662 0.383545,-0.791081 0.5625,-1.1875 0.167494,-0.348215 0.317841,-0.70802 0.46875,-1.0625 0.48905,-1.203272 0.928711,-2.428081 1.25,-3.6875 0.346242,-1.357232 0.603883,-2.731901 0.75,-4.125 0.002,-0.02068 -0.002,-0.04182 0,-0.0625 0.04595,-0.447375 0.06881,-0.894797 0.09375,-1.34375 0.0054,-0.114743 -0.004,-0.228944 0,-0.34375 0.01305,-0.375883 0.03316,-0.748821 0.03125,-1.125 0.0016,-0.360433 -0.01907,-0.733588 -0.03125,-1.09375 -0.0054,-0.124844 0.0071,-0.25023 0,-0.375 -0.02089,-0.444637 -0.05169,-0.869433 -0.09375,-1.3125 -0.0021,-0.02036 0.0021,-0.04215 0,-0.0625 -0.146105,-1.393394 -0.403685,-2.798735 -0.75,-4.15625 -0.321289,-1.259419 -0.76095,-2.484228 -1.25,-3.6875 -0.150909,-0.35448 -0.301256,-0.714285 -0.46875,-1.0625 -0.182697,-0.404711 -0.357614,-0.79504 -0.5625,-1.1875 -0.195404,-0.379681 -0.412072,-0.754823 -0.625,-1.125 -1.319127,-2.239117 -2.972542,-4.263693 -4.78125,-6.125 -0.769128,-1.227833 0.08427,-2.945144 1.53125,-3.09375 z m -32.21875,8.03125 c -2.938886,0.10461 -4.490987,3.087248 -5.96875,5.21875 -0.888541,1.460015 -1.576177,3.022587 -2.03125,4.65625 -0.146246,0.525007 -0.272778,1.058243 -0.375,1.59375 -0.0076,0.04007 0.0074,0.08488 0,0.125 -0.07604,0.412043 -0.137257,0.833804 -0.1875,1.25 -0.02512,0.208121 -0.0438,0.416148 -0.0625,0.625 -0.03272,0.365384 -0.04934,0.726994 -0.0625,1.09375 -0.01226,0.341728 -0.03588,0.689252 -0.03125,1.03125 0.0022,0.115546 0.02711,0.228268 0.03125,0.34375 0.01391,0.387647 0.02673,0.770171 0.0625,1.15625 0.01444,0.155835 0.01324,0.313319 0.03125,0.46875 0.05434,0.468881 0.131711,0.942605 0.21875,1.40625 0.104335,0.555778 0.223309,1.111696 0.375,1.65625 0.455073,1.633663 1.142709,3.196235 2.03125,4.65625 1.477763,2.131502 3.029864,5.11414 5.96875,5.21875 2.224612,0.02556 3.874298,-1.881347 3.96875,-3.90625 -0.009,-0.105929 -0.01211,-0.20485 -0.03125,-0.3125 -0.328613,-1.177843 -1.003667,-2.205063 -1.75,-3.1875 -0.005,-0.0066 0.005,-0.02465 0,-0.03125 -1.240057,-1.630306 -2.637866,-3.170357 -2.75,-5.375 -0.122656,-0.571594 -0.190809,-1.144393 -0.21875,-1.71875 -0.01626,-0.207468 -0.02654,-0.416606 -0.03125,-0.625 1.77e-4,-0.02081 -2.95e-4,-0.04169 0,-0.0625 -0.0041,-0.239671 0.01956,-0.478496 0.03125,-0.71875 0.02794,-0.574357 0.09609,-1.147156 0.21875,-1.71875 0.112138,-2.204718 1.509911,-3.775885 2.75,-5.40625 0.0048,-0.0057 -0.0048,-0.02552 0,-0.03125 0.746333,-0.982437 1.421387,-1.978407 1.75,-3.15625 0.01725,-0.097 0.02223,-0.185639 0.03125,-0.28125 -0.07877,-2.036288 -1.732671,-3.994446 -3.96875,-3.96875 z m 22.625,0 c -2.278125,-0.108452 -3.956762,1.955209 -4.03125,4.03125 -7.5e-4,0.02091 4.24e-4,0.04159 0,0.0625 5.25e-4,0.01036 -6.05e-4,0.0209 0,0.03125 0.05448,0.933028 0.440963,1.827998 1.21875,2.5 2.383673,2.238551 3.538651,5.438429 3.5,8.625 0.03865,3.186571 -1.116327,6.386449 -3.5,8.625 -0.777787,0.672002 -1.164268,1.566972 -1.21875,2.5 -0.0012,0.02026 8.78e-4,0.04222 0,0.0625 2.78e-4,0.0099 -3.5e-4,0.02138 0,0.03125 0.07368,2.076583 1.752537,4.13973 4.03125,4.03125 0.663466,-0.0095 1.328425,-0.173786 1.90625,-0.5 4.006918,-3.232967 6.270978,-8.139681 6.6875,-13.21875 0.0054,-0.08384 0.02688,-0.16609 0.03125,-0.25 0.0079,-0.112752 -0.0061,-0.230878 0,-0.34375 0.01653,-0.308016 0.02836,-0.629048 0.03125,-0.9375 -0.0031,-0.314059 -0.01404,-0.623906 -0.03125,-0.9375 -0.0037,-0.104266 0.0053,-0.208314 0,-0.3125 C 67.963622,39.645405 67.9434,39.573282 67.9375,39.5 67.527672,34.409963 65.265049,29.458278 61.25,26.21875 c -0.577825,-0.326214 -1.242784,-0.490486 -1.90625,-0.5 z M 59.3125,27.4375 c 0.319162,-0.0057 0.656163,0.061 0.96875,0.25 3.509561,3.0467 5.422203,7.543123 5.6875,12.125 0.0063,0.09476 0.02641,0.186398 0.03125,0.28125 0.0027,0.06175 -0.002,0.125724 0,0.1875 0.01909,0.464692 0.01542,0.941324 0,1.40625 -0.0022,0.05266 0.0027,0.103612 0,0.15625 -0.0035,0.08461 -0.0266,0.16545 -0.03125,0.25 -0.253228,4.600539 -2.164237,9.097655 -5.6875,12.15625 -1.509405,0.912647 -3.379048,-0.727797 -2.96875,-2.28125 0.02692,-0.256601 0.10441,-0.516002 0.25,-0.75 1.665311,-1.86382 3.257054,-3.928808 3.90625,-6.40625 0.197282,-0.623739 0.339599,-1.23791 0.4375,-1.875 0.0014,-0.01021 -0.0014,-0.02103 0,-0.03125 0.04739,-0.313373 0.100711,-0.622714 0.125,-0.9375 7.4e-4,-0.01045 -7.16e-4,-0.0208 0,-0.03125 0.0228,-0.304828 0.02954,-0.632465 0.03125,-0.9375 -2.2e-5,-0.02097 1.2e-4,-0.04153 0,-0.0625 3.19e-4,-0.304358 -0.01115,-0.602816 -0.03125,-0.90625 -0.0015,-0.02063 0.0016,-0.04187 0,-0.0625 -0.02151,-0.303653 -0.0836,-0.604656 -0.125,-0.90625 -0.003,-0.02013 0.0031,-0.04238 0,-0.0625 -0.09786,-0.626897 -0.243334,-1.261111 -0.4375,-1.875 -0.649196,-2.477442 -2.240939,-4.54243 -3.90625,-6.40625 -0.14559,-0.233998 -0.223081,-0.493399 -0.25,-0.75 -0.325328,-1.231744 0.778011,-2.509549 2,-2.53125 z M 36.875,27.46875 c 1.236387,0.03882 1.898592,1.23298 1.78125,2.3125 0.01437,0.528447 -0.138466,1.055193 -0.59375,1.4375 -2.64243,2.514375 -4.001158,6.078124 -4.0625,9.65625 -7.15e-4,0.04174 3.63e-4,0.08326 0,0.125 1.13e-4,0.01046 -1.35e-4,0.02079 0,0.03125 -6.9e-5,0.01046 4.7e-5,0.02079 0,0.03125 0.05395,3.588661 1.412381,7.134559 4.0625,9.65625 0.459,0.385428 0.611575,0.935952 0.59375,1.46875 0.117342,1.07952 -0.544863,2.242434 -1.78125,2.28125 -2.075546,-0.0039 -3.041606,-2.41792 -4.1875,-3.8125 C 30.950155,47.964044 30.075052,44.80338 30,41.625 c -0.02021,-0.442019 -0.01107,-0.870258 0,-1.3125 0.07934,-3.1694 0.95499,-6.315287 2.6875,-9 1.145894,-1.39458 2.111954,-3.83985 4.1875,-3.84375 z"
       inkscape:connector-curvature="0"
       id="path3767"
       style="font-size:medium;font-style:normal;font-variant:normal;font-weight:normal;font-stretch:normal;text-indent:0;text-align:start;text-decoration:none;line-height:normal;letter-spacing:normal;word-spacing:normal;text-transform:none;direction:ltr;block-progression:tb;writing-mode:lr-tb;text-anchor:start;opacity:0.05;color:#000000;fill:#000000;fill-opacity:1;stroke:none;stroke-width:3.5;marker:none;visibility:visible;display:inline;overflow:visible;enable-background:accumulate;font-family:Abandoned Bitplane;-inkscape-font-specification:Abandoned Bitplane" />
    <path
       d="M 12,6 C 8.676,6 6,8.676 6,12 l 0,2 0,68 0,2 c 0,0.334721 0.04135,0.6507 0.09375,0.96875 0.0487,0.295596 0.09704,0.596915 0.1875,0.875 0.00988,0.03038 0.020892,0.0636 0.03125,0.09375 0.098865,0.287771 0.2348802,0.547452 0.375,0.8125 0.1445918,0.273507 0.3156161,0.535615 0.5,0.78125 0.1843839,0.245635 0.3737765,0.473472 0.59375,0.6875 0.439947,0.428056 0.94291,0.814526 1.5,1.09375 0.278545,0.139612 0.5734731,0.246947 0.875,0.34375 -0.2562018,-0.100222 -0.4867109,-0.236272 -0.71875,-0.375 -0.00741,-0.0044 -0.023866,0.0045 -0.03125,0 -0.031933,-0.0193 -0.062293,-0.04251 -0.09375,-0.0625 -0.120395,-0.0767 -0.2310226,-0.163513 -0.34375,-0.25 -0.1061728,-0.0808 -0.2132809,-0.161112 -0.3125,-0.25 C 8.4783201,88.557317 8.3087904,88.373362 8.15625,88.1875 8.0486711,88.057245 7.9378561,87.922215 7.84375,87.78125 7.818661,87.74287 7.805304,87.69538 7.78125,87.65625 7.716487,87.553218 7.6510225,87.451733 7.59375,87.34375 7.4927417,87.149044 7.3880752,86.928049 7.3125,86.71875 7.30454,86.69694 7.288911,86.6782 7.28125,86.65625 7.2494249,86.5643 7.2454455,86.469419 7.21875,86.375 7.1884177,86.268382 7.1483606,86.171969 7.125,86.0625 7.0521214,85.720988 7,85.364295 7,85 L 7,83 7,15 7,13 C 7,10.218152 9.2181517,8 12,8 l 2,0 68,0 2,0 c 2.781848,0 5,2.218152 5,5 l 0,2 0,68 0,2 c 0,0.364295 -0.05212,0.720988 -0.125,1.0625 -0.04415,0.206893 -0.08838,0.397658 -0.15625,0.59375 -0.0077,0.02195 -0.0233,0.04069 -0.03125,0.0625 -0.06274,0.173739 -0.138383,0.367449 -0.21875,0.53125 -0.04158,0.0828 -0.07904,0.169954 -0.125,0.25 -0.0546,0.09721 -0.126774,0.18835 -0.1875,0.28125 -0.09411,0.140965 -0.204921,0.275995 -0.3125,0.40625 -0.143174,0.17445 -0.303141,0.346998 -0.46875,0.5 -0.01117,0.0102 -0.01998,0.02115 -0.03125,0.03125 -0.138386,0.125556 -0.285091,0.234436 -0.4375,0.34375 -0.102571,0.07315 -0.204318,0.153364 -0.3125,0.21875 -0.0074,0.0045 -0.02384,-0.0044 -0.03125,0 -0.232039,0.138728 -0.462548,0.274778 -0.71875,0.375 0.301527,-0.0968 0.596455,-0.204138 0.875,-0.34375 0.55709,-0.279224 1.060053,-0.665694 1.5,-1.09375 0.219973,-0.214028 0.409366,-0.441865 0.59375,-0.6875 0.184384,-0.245635 0.355408,-0.507743 0.5,-0.78125 0.14012,-0.265048 0.276135,-0.524729 0.375,-0.8125 0.01041,-0.03078 0.02133,-0.06274 0.03125,-0.09375 0.09046,-0.278085 0.1388,-0.579404 0.1875,-0.875 C 89.95865,84.6507 90,84.334721 90,84 l 0,-2 0,-68 0,-2 C 90,8.676 87.324,6 84,6 L 12,6 z"
       inkscape:connector-curvature="0"
       id="rect3728"
       style="opacity:0.45;fill:url(#linearGradient3188);fill-opacity:1;fill-rule:nonzero;stroke:none" />
    <path
       d="M 12,90 C 8.676,90 6,87.324 6,84 L 6,82 6,14 6,12 c 0,-0.334721 0.04135,-0.6507 0.09375,-0.96875 0.0487,-0.295596 0.09704,-0.596915 0.1875,-0.875 C 6.29113,10.12587 6.302142,10.09265 6.3125,10.0625 6.411365,9.774729 6.5473802,9.515048 6.6875,9.25 6.8320918,8.976493 7.0031161,8.714385 7.1875,8.46875 7.3718839,8.223115 7.5612765,7.995278 7.78125,7.78125 8.221197,7.353194 8.72416,6.966724 9.28125,6.6875 9.559795,6.547888 9.8547231,6.440553 10.15625,6.34375 9.9000482,6.443972 9.6695391,6.580022 9.4375,6.71875 c -0.00741,0.0044 -0.023866,-0.0045 -0.03125,0 -0.031933,0.0193 -0.062293,0.04251 -0.09375,0.0625 -0.120395,0.0767 -0.2310226,0.163513 -0.34375,0.25 -0.1061728,0.0808 -0.2132809,0.161112 -0.3125,0.25 C 8.4783201,7.442683 8.3087904,7.626638 8.15625,7.8125 8.0486711,7.942755 7.9378561,8.077785 7.84375,8.21875 7.818661,8.25713 7.805304,8.30462 7.78125,8.34375 7.716487,8.446782 7.6510225,8.548267 7.59375,8.65625 7.4927417,8.850956 7.3880752,9.071951 7.3125,9.28125 7.30454,9.30306 7.288911,9.3218 7.28125,9.34375 7.2494249,9.4357 7.2454455,9.530581 7.21875,9.625 7.1884177,9.731618 7.1483606,9.828031 7.125,9.9375 7.0521214,10.279012 7,10.635705 7,11 l 0,2 0,68 0,2 c 0,2.781848 2.2181517,5 5,5 l 2,0 68,0 2,0 c 2.781848,0 5,-2.218152 5,-5 l 0,-2 0,-68 0,-2 C 89,10.635705 88.94788,10.279012 88.875,9.9375 88.83085,9.730607 88.78662,9.539842 88.71875,9.34375 88.71105,9.3218 88.69545,9.30306 88.6875,9.28125 88.62476,9.107511 88.549117,8.913801 88.46875,8.75 88.42717,8.6672 88.38971,8.580046 88.34375,8.5 88.28915,8.40279 88.216976,8.31165 88.15625,8.21875 88.06214,8.077785 87.951329,7.942755 87.84375,7.8125 87.700576,7.63805 87.540609,7.465502 87.375,7.3125 87.36383,7.3023 87.35502,7.29135 87.34375,7.28125 87.205364,7.155694 87.058659,7.046814 86.90625,6.9375 86.803679,6.86435 86.701932,6.784136 86.59375,6.71875 c -0.0074,-0.0045 -0.02384,0.0044 -0.03125,0 -0.232039,-0.138728 -0.462548,-0.274778 -0.71875,-0.375 0.301527,0.0968 0.596455,0.204138 0.875,0.34375 0.55709,0.279224 1.060053,0.665694 1.5,1.09375 0.219973,0.214028 0.409366,0.441865 0.59375,0.6875 0.184384,0.245635 0.355408,0.507743 0.5,0.78125 0.14012,0.265048 0.276135,0.524729 0.375,0.8125 0.01041,0.03078 0.02133,0.06274 0.03125,0.09375 0.09046,0.278085 0.1388,0.579404 0.1875,0.875 C 89.95865,11.3493 90,11.665279 90,12 l 0,2 0,68 0,2 c 0,3.324 -2.676,6 -6,6 l -72,0 z"
       inkscape:connector-curvature="0"
       id="path3615"
       style="opacity:0.2;fill:url(#radialGradient3619);fill-opacity:1;fill-rule:nonzero;stroke:none" />
    <path
       d="M 30.8125,20.25 A 4.0004001,4.0004001 0 0 1 29.625,22.625 C 24.595103,27.654897 22.062874,34.192531 22,40.75 22.298451,34.529994 24.849781,28.400219 29.625,23.625 a 4.0004001,4.0004001 0 0 0 1.1875,-3.375 z m 34.375,0 a 4.0004001,4.0004001 0 0 0 1.1875,3.375 C 71.150219,28.400219 73.701549,34.529994 74,40.75 73.937126,34.192531 71.404897,27.654897 66.375,22.625 A 4.0004001,4.0004001 0 0 1 65.1875,20.25 z m -24.53125,10 a 4.0004001,4.0004001 0 0 1 -1.1875,2.375 c -2.490901,2.490901 -3.669527,5.770052 -3.53125,9 0.120584,-2.894895 1.298822,-5.767572 3.53125,-8 a 4.0004001,4.0004001 0 0 0 1.1875,-3.375 z m 14.6875,0.03125 a 4.0004001,4.0004001 0 0 0 1.1875,3.34375 c 2.232428,2.232428 3.410666,5.105105 3.53125,8 0.138277,-3.229948 -1.040349,-6.509099 -3.53125,-9 a 4.0004001,4.0004001 0 0 1 -1.1875,-2.34375 z M 14,41.5 c -0.129749,8.887012 3.188035,17.813035 9.9375,24.5625 A 4.0216698,4.0216698 0 0 0 30.75,62.71875 4.0216698,4.0216698 0 0 1 23.9375,65.0625 C 17.442639,58.567639 14.124855,50.051775 14,41.5 z m 68,0 c -0.124855,8.551775 -3.442639,17.067639 -9.9375,23.5625 A 4.0216698,4.0216698 0 0 1 65.21875,62.78125 4.0216698,4.0216698 0 0 0 72.0625,66.0625 C 78.811965,59.313035 82.129749,50.387012 82,41.5 z m -54,0.125 c -0.129572,5.290205 1.798488,10.610988 5.8125,14.625 A 4.0004001,4.0004001 0 0 0 40.65625,53 4.0004001,4.0004001 0 0 1 33.8125,55.25 C 30.051583,51.489083 28.123389,46.581601 28,41.625 z m 40,0 c -0.123389,4.956601 -2.051583,9.864083 -5.8125,13.625 A 4.0004001,4.0004001 0 0 1 55.34375,52.9375 4.0004001,4.0004001 0 0 0 62.1875,56.25 C 66.201512,52.235988 68.129572,46.915205 68,41.625 z"
       inkscape:connector-curvature="0"
       id="path3745"
       style="font-size:medium;font-style:normal;font-variant:normal;font-weight:normal;font-stretch:normal;text-indent:0;text-align:start;text-decoration:none;line-height:normal;letter-spacing:normal;word-spacing:normal;text-transform:none;direction:ltr;block-progression:tb;writing-mode:lr-tb;text-anchor:start;opacity:0.2;color:#000000;fill:#ffffff;fill-opacity:1;stroke:none;stroke-width:3.5;marker:none;visibility:visible;display:inline;overflow:visible;enable-background:accumulate;font-family:Abandoned Bitplane;-inkscape-font-specification:Abandoned Bitplane" />
    <path
       d="m 26.8125,15.6875 a 4.0004001,4.0004001 0 0 0 -2.875,1.25 C 17.188035,23.686965 13.870251,32.612988 14,41.5 14.124855,32.948225 17.442639,24.432361 23.9375,17.9375 a 4.0004001,4.0004001 0 0 1 2.875,-1.25 4.0004001,4.0004001 0 0 1 3.375,1.8125 4.0004001,4.0004001 0 0 1 0.625,1.75 4.0004001,4.0004001 0 0 0 -0.625,-2.75 4.0004001,4.0004001 0 0 0 -3.375,-1.8125 z m 42.375,0 a 4.0004001,4.0004001 0 0 0 -3.375,1.8125 4.0004001,4.0004001 0 0 0 -0.625,2.75 4.0004001,4.0004001 0 0 1 0.625,-1.75 4.0004001,4.0004001 0 0 1 3.375,-1.8125 4.0004001,4.0004001 0 0 1 2.875,1.25 C 78.557361,24.432361 81.875145,32.948225 82,41.5 82.129749,32.612988 78.811965,23.686965 72.0625,16.9375 a 4.0004001,4.0004001 0 0 0 -2.875,-1.25 z M 36.71875,25.71875 A 4.0004001,4.0004001 0 0 0 36.28125,25.75 4.0004001,4.0004001 0 0 0 33.8125,26.96875 C 29.796434,30.984817 27.86824,36.332132 28,41.625 28.121469,36.665651 30.049529,31.731721 33.8125,27.96875 A 4.0004001,4.0004001 0 0 1 36.28125,26.75 4.0004001,4.0004001 0 0 1 39.5625,27.96875 4.0004001,4.0004001 0 0 1 40.65625,30.25 4.0004001,4.0004001 0 0 0 39.5625,26.96875 a 4.0004001,4.0004001 0 0 0 -2.84375,-1.25 z m 22.625,0 a 4.0004001,4.0004001 0 0 0 -0.4375,0.03125 4.0004001,4.0004001 0 0 0 -2.46875,1.21875 4.0004001,4.0004001 0 0 0 -1.09375,3.3125 4.0004001,4.0004001 0 0 1 1.09375,-2.3125 4.0004001,4.0004001 0 0 1 2.46875,-1.21875 4.0004001,4.0004001 0 0 1 3.28125,1.21875 C 65.950471,31.731721 67.878531,36.665651 68,41.625 68.13176,36.332132 66.203566,30.984817 62.1875,26.96875 a 4.0004001,4.0004001 0 0 0 -2.84375,-1.25 z M 35.9375,41.625 c -0.134354,3.225485 1.043884,6.481385 3.53125,8.96875 A 4.0004001,4.0004001 0 0 1 40.65625,53 4.0004001,4.0004001 0 0 0 39.46875,49.59375 C 37.239857,47.364858 36.061232,44.515202 35.9375,41.625 z m 24.125,0 c -0.123732,2.890202 -1.302357,5.739858 -3.53125,7.96875 a 4.0004001,4.0004001 0 0 0 -1.1875,3.34375 4.0004001,4.0004001 0 0 1 1.1875,-2.34375 C 59.018616,48.106385 60.196854,44.850485 60.0625,41.625 z M 22,42.25 c 0.06287,6.557469 2.595103,13.095103 7.625,18.125 A 4.0216698,4.0216698 0 0 1 30.75,62.65625 4.0216698,4.0216698 0 0 0 29.625,59.375 C 24.849781,54.599781 22.298451,48.470006 22,42.25 z m 52,0 c -0.298451,6.220006 -2.849781,12.349781 -7.625,17.125 A 4.0216698,4.0216698 0 0 0 65.21875,62.78125 4.0216698,4.0216698 0 0 1 66.375,60.375 C 71.404897,55.345103 73.937126,48.807469 74,42.25 z"
       inkscape:connector-curvature="0"
       id="path3754"
       style="font-size:medium;font-style:normal;font-variant:normal;font-weight:normal;font-stretch:normal;text-indent:0;text-align:start;text-decoration:none;line-height:normal;letter-spacing:normal;word-spacing:normal;text-transform:none;direction:ltr;block-progression:tb;writing-mode:lr-tb;text-anchor:start;opacity:0.3;color:#000000;fill:#000000;fill-opacity:1;stroke:none;stroke-width:3.5;marker:none;visibility:visible;display:inline;overflow:visible;enable-background:accumulate;font-family:Abandoned Bitplane;-inkscape-font-specification:Abandoned Bitplane" />
    <path
       d="M 26.8125,15.6875 A 4.0004001,4.0004001 0 0 0 25.625,15.875 4.0216698,4.0216698 0 0 0 25.28125,15.96875 4.0004001,4.0004001 0 0 0 25.25,16 4.0004001,4.0004001 0 0 0 23.9375,16.9375 c -3.724967,3.724967 -6.401577,8.102039 -8.03125,12.78125 -0.355433,1.02054 -0.681736,2.049454 -0.9375,3.09375 -0.0048,0.01973 0.0048,0.04276 0,0.0625 -0.129339,0.532205 -0.240279,1.088185 -0.34375,1.625 -0.09631,0.506961 -0.207993,1.02112 -0.28125,1.53125 -0.003,0.02055 0.003,0.04195 0,0.0625 -0.07371,0.520001 -0.137728,1.040147 -0.1875,1.5625 -0.002,0.02061 0.002,0.04189 0,0.0625 -0.04881,0.522276 -0.100121,1.038821 -0.125,1.5625 -0.0015,0.03064 0.0015,0.0631 0,0.09375 C 14.008227,39.888742 14,40.423328 14,40.9375 c -3.8e-5,0.02095 0,0.04155 0,0.0625 9.56e-4,0.524056 0.0064,1.038936 0.03125,1.5625 9.56e-4,0.02094 -9.95e-4,0.04156 0,0.0625 0.02583,0.523641 0.07524,1.040299 0.125,1.5625 0.0028,0.03057 -0.0029,0.06319 0,0.09375 0.05018,0.511937 0.114315,1.021617 0.1875,1.53125 0.0043,0.03078 -0.0044,0.06298 0,0.09375 0.07462,0.509966 0.183575,1.024504 0.28125,1.53125 0.0039,0.02042 -0.0039,0.04208 0,0.0625 0.204968,1.053212 0.476652,2.09159 0.78125,3.125 0.0057,0.01954 -0.0058,0.04297 0,0.0625 C 16.96204,55.931875 19.813666,60.876166 23.9375,65 A 4.0004001,4.0004001 0 0 0 25.25,65.90625 4.0216698,4.0216698 0 0 0 25.5,66 a 4.0004001,4.0004001 0 0 0 0.125,0.0625 4.0216698,4.0216698 0 0 0 0.40625,0.09375 4.0004001,4.0004001 0 0 0 0.375,0.0625 4.0216698,4.0216698 0 0 0 0.4375,0.03125 4.0004001,4.0004001 0 0 0 0.75,-0.09375 4.0216698,4.0216698 0 0 0 0.03125,0 4.0004001,4.0004001 0 0 0 0.09375,-0.03125 4.0216698,4.0216698 0 0 0 0.3125,-0.09375 4.0216698,4.0216698 0 0 0 0.375,-0.125 A 4.0216698,4.0216698 0 0 0 29.9375,64.75 4.0004001,4.0004001 0 0 0 29.96875,64.6875 4.0216698,4.0216698 0 0 0 29.625,59.375 c -3.183479,-3.183479 -5.368695,-6.985532 -6.5625,-11 -0.0058,-0.01949 0.0058,-0.04299 0,-0.0625 -0.239695,-0.813056 -0.43558,-1.609155 -0.59375,-2.4375 -0.07563,-0.388681 -0.161086,-0.765164 -0.21875,-1.15625 -0.003,-0.02077 0.003,-0.04173 0,-0.0625 -0.05528,-0.381247 -0.118034,-0.773359 -0.15625,-1.15625 -0.003,-0.03084 0.0029,-0.0629 0,-0.09375 C 22.055985,43.013798 22.019845,42.64349 22,42.25 c -9.95e-4,-0.02073 9.45e-4,-0.04176 0,-0.0625 -0.0199,-0.414667 0,-0.834955 0,-1.25 9.95e-4,-0.414928 -0.02088,-0.835487 0,-1.25 0.01891,-0.39405 0.05688,-0.794457 0.09375,-1.1875 0.002,-0.02086 -0.0021,-0.04164 0,-0.0625 0.03686,-0.382996 0.102328,-0.77485 0.15625,-1.15625 0.0043,-0.02996 -0.0044,-0.06381 0,-0.09375 0.05673,-0.391194 0.144056,-0.767427 0.21875,-1.15625 0.0039,-0.02013 -0.004,-0.04238 0,-0.0625 0.07567,-0.388874 0.156343,-0.770433 0.25,-1.15625 0.0048,-0.0197 -0.0049,-0.04281 0,-0.0625 0.194206,-0.791792 0.44872,-1.569163 0.71875,-2.34375 1.251545,-3.590088 3.307133,-6.963383 6.1875,-9.84375 a 4.0216698,4.0216698 0 0 0 0.34375,-5.3125 4.0216698,4.0216698 0 0 0 -0.03125,-0.0625 4.0004001,4.0004001 0 0 0 -0.21875,-0.25 4.0216698,4.0216698 0 0 0 -1.3125,-0.90625 4.0216698,4.0216698 0 0 0 -0.375,-0.15625 4.0216698,4.0216698 0 0 0 -0.75,-0.15625 4.0004001,4.0004001 0 0 0 -0.03125,0 4.0216698,4.0216698 0 0 0 -0.4375,-0.03125 z m 42.1875,0 a 4.0216698,4.0216698 0 0 0 -0.21875,0.03125 4.0004001,4.0004001 0 0 0 -0.1875,0.03125 4.0216698,4.0216698 0 0 0 -0.40625,0.0625 4.0216698,4.0216698 0 0 0 -0.375,0.125 4.0216698,4.0216698 0 0 0 -0.375,0.15625 4.0004001,4.0004001 0 0 0 -0.15625,0.0625 4.0216698,4.0216698 0 0 0 -0.1875,0.125 A 4.0004001,4.0004001 0 0 0 66.9375,16.375 4.0216698,4.0216698 0 0 0 66.75,16.53125 4.0216698,4.0216698 0 0 0 66.375,22.5625 c 2.88037,2.880367 4.93596,6.253662 6.1875,9.84375 0.27003,0.774587 0.52454,1.551958 0.71875,2.34375 0.005,0.01969 -0.005,0.0428 0,0.0625 0.0937,0.385817 0.17433,0.767376 0.25,1.15625 0.004,0.02012 -0.004,0.04237 0,0.0625 0.0747,0.388823 0.16203,0.765056 0.21875,1.15625 0.004,0.02994 -0.004,0.06379 0,0.09375 0.0539,0.3814 0.1194,0.773254 0.15625,1.15625 0.002,0.02086 -0.002,0.04164 0,0.0625 0.0369,0.393043 0.0748,0.79345 0.0937,1.1875 0.001,0.02061 -9.9e-4,0.04188 0,0.0625 0.018,0.393969 0,0.793207 0,1.1875 5e-5,0.02075 0,0.04175 0,0.0625 -9.5e-4,0.394292 0.0189,0.793566 0,1.1875 -9.5e-4,0.02074 9.9e-4,0.04177 0,0.0625 -0.0198,0.39349 -0.056,0.763798 -0.0937,1.15625 -0.003,0.03085 0.003,0.06291 0,0.09375 -0.0382,0.382891 -0.10097,0.775003 -0.15625,1.15625 -0.003,0.02077 0.003,0.04173 0,0.0625 -0.0577,0.391086 -0.14312,0.767569 -0.21875,1.15625 -0.15817,0.828345 -0.35405,1.624444 -0.59375,2.4375 -0.006,0.01951 0.006,0.04301 0,0.0625 -1.1938,4.014468 -3.37902,7.816521 -6.5625,11 a 4.0216698,4.0216698 0 0 0 0.0937,5.78125 4.0216698,4.0216698 0 0 0 0.28125,0.25 4.0216698,4.0216698 0 0 0 0.34375,0.21875 4.0004001,4.0004001 0 0 0 0.25,0.15625 A 4.0216698,4.0216698 0 0 0 67.8125,66 4.0004001,4.0004001 0 0 0 68,66.0625 a 4.0216698,4.0216698 0 0 0 0.59375,0.125 4.0004001,4.0004001 0 0 0 0.1875,0.03125 4.0216698,4.0216698 0 0 0 0.625,0.03125 4.0004001,4.0004001 0 0 0 0.1875,-0.03125 A 4.0216698,4.0216698 0 0 0 70,66.15625 4.0004001,4.0004001 0 0 0 70.75,65.90625 4.0004001,4.0004001 0 0 0 72.0625,65 c 4.12384,-4.123834 6.97546,-9.068125 8.53125,-14.3125 0.006,-0.01953 -0.006,-0.04296 0,-0.0625 0.3046,-1.03341 0.57628,-2.071788 0.78125,-3.125 0.004,-0.02042 -0.004,-0.04208 0,-0.0625 0.0977,-0.506746 0.20663,-1.021284 0.28125,-1.53125 0.004,-0.03077 -0.004,-0.06297 0,-0.09375 0.0732,-0.509633 0.13732,-1.019313 0.1875,-1.53125 0.003,-0.03056 -0.003,-0.06318 0,-0.09375 0.0498,-0.522201 0.0992,-1.038859 0.125,-1.5625 9.9e-4,-0.02094 -9.6e-4,-0.04156 0,-0.0625 0.0254,-0.534031 0.0308,-1.059217 0.0312,-1.59375 -5.2e-4,-0.565208 -0.003,-1.122884 -0.0312,-1.6875 -0.0249,-0.523679 -0.0762,-1.040224 -0.125,-1.5625 -0.002,-0.02061 0.002,-0.04189 0,-0.0625 -0.0498,-0.522353 -0.11379,-1.042499 -0.1875,-1.5625 -0.003,-0.02055 0.003,-0.04195 0,-0.0625 C 81.58295,35.52112 81.47131,35.006961 81.375,34.5 c -0.10347,-0.536815 -0.21441,-1.092795 -0.34375,-1.625 -0.005,-0.01974 0.005,-0.04277 0,-0.0625 -0.25576,-1.044296 -0.58207,-2.07321 -0.9375,-3.09375 C 78.46408,25.039539 75.78747,20.662467 72.0625,16.9375 A 4.0004001,4.0004001 0 0 0 71.46875,16.40625 4.0004001,4.0004001 0 0 0 71.125,16.1875 4.0004001,4.0004001 0 0 0 70.5625,15.9375 4.0004001,4.0004001 0 0 0 70,15.78125 a 4.0004001,4.0004001 0 0 0 -0.40625,-0.0625 4.0004001,4.0004001 0 0 0 -0.375,-0.03125 4.0216698,4.0216698 0 0 0 -0.0312,0 4.0004001,4.0004001 0 0 0 -0.1875,0 z m -42.5,0.96875 c 0.08279,-0.009 0.07311,0.0048 0.15625,0 0.08314,-0.0048 0.07297,6.25e-4 0.15625,0 0.103275,-6.68e-4 0.08438,-0.0058 0.1875,0 0.103115,0.0058 0.08494,0.01906 0.1875,0.03125 0.102555,0.01219 0.08591,-0.01857 0.1875,0 0.101594,0.01857 0.08726,0.03763 0.1875,0.0625 0.100238,0.02487 0.08901,1.78e-4 0.1875,0.03125 0.09849,0.03107 0.09114,0.02535 0.1875,0.0625 0.09636,0.03715 0.06239,0.05066 0.15625,0.09375 0.09386,0.04309 0.09651,0.01364 0.1875,0.0625 0.09099,0.04886 0.06849,0.03931 0.15625,0.09375 0.08776,0.05444 0.07205,0.06519 0.15625,0.125 0.0842,0.05981 0.07595,0.0288 0.15625,0.09375 0.0803,0.06495 0.08016,0.05517 0.15625,0.125 0.07609,0.06983 0.05341,0.08181 0.125,0.15625 0.07159,0.07444 0.05819,0.04624 0.125,0.125 0.06681,0.07876 0.06323,0.07348 0.125,0.15625 0.06177,0.08277 0.03727,0.06979 0.09375,0.15625 0.0807,0.120279 0.08638,0.09188 0.15625,0.21875 0.06987,0.126873 0.06649,0.117504 0.125,0.25 0.05851,0.132496 0.04704,0.112897 0.09375,0.25 0.04671,0.137103 0.02796,0.109338 0.0625,0.25 0.03454,0.140662 0.04039,0.106857 0.0625,0.25 0.02211,0.143143 0.02173,0.136722 0.03125,0.28125 0.0095,0.144528 0.0032,0.105193 0,0.25 -0.0032,0.144807 -0.01545,0.137274 -0.03125,0.28125 -0.0158,0.143976 -0.0029,0.107956 -0.03125,0.25 -0.02833,0.142044 -0.02186,0.142227 -0.0625,0.28125 -0.04064,0.139023 -0.04111,0.115061 -0.09375,0.25 -0.05264,0.134939 -0.02952,0.08893 -0.09375,0.21875 -0.06423,0.129821 -0.04967,0.126291 -0.125,0.25 -0.07533,0.123709 -0.07039,0.1021 -0.15625,0.21875 -0.08586,0.11665 -0.06052,0.110052 -0.15625,0.21875 -0.09573,0.108698 -0.08264,0.08759 -0.1875,0.1875 a 0.96390861,0.96390861 0 0 0 -0.03125,0 c -2.967838,2.967837 -5.107821,6.452938 -6.40625,10.15625 -0.28854,0.822958 -0.5439,1.658092 -0.75,2.5 -0.09444,0.391539 -0.173371,0.792915 -0.25,1.1875 -0.004,0.0204 0.004,0.04209 0,0.0625 -0.0776,0.404527 -0.159851,0.811732 -0.21875,1.21875 -0.003,0.02025 0.0029,0.04225 0,0.0625 -0.05791,0.406841 -0.117011,0.810138 -0.15625,1.21875 -0.002,0.02063 0.002,0.04187 0,0.0625 -0.03827,0.408489 -0.07414,0.809206 -0.09375,1.21875 -0.02257,0.439974 -0.03022,0.872064 -0.03125,1.3125 0,0.430823 0.01064,0.850822 0.03125,1.28125 9.56e-4,0.02099 -0.001,0.04152 0,0.0625 0.02056,0.409506 0.05453,0.810333 0.09375,1.21875 0.0028,0.03051 -0.0029,0.06325 0,0.09375 0.03963,0.398189 0.09888,0.791035 0.15625,1.1875 0.0044,0.03082 -0.0045,0.06294 0,0.09375 0.0588,0.396734 0.142171,0.793175 0.21875,1.1875 0.0058,0.0302 -0.0059,0.06357 0,0.09375 0.07798,0.394376 0.154214,0.796218 0.25,1.1875 0.0049,0.02025 -0.005,0.04226 0,0.0625 0.09917,0.40121 0.225838,0.790255 0.34375,1.1875 0.0057,0.01938 -0.0057,0.04313 0,0.0625 0.118957,0.397565 0.268504,0.794629 0.40625,1.1875 1.298429,3.703312 3.438412,7.188413 6.40625,10.15625 a 0.96390861,0.96390861 0 0 0 0.03125,0 c 0.10486,0.09991 0.09177,0.0788 0.1875,0.1875 0.09573,0.108698 0.07039,0.1021 0.15625,0.21875 0.08586,0.11665 0.08092,0.09504 0.15625,0.21875 0.07533,0.123709 0.06077,0.120179 0.125,0.25 0.06423,0.12982 0.04111,0.08381 0.09375,0.21875 0.05264,0.134939 0.05311,0.110977 0.09375,0.25 0.04064,0.139023 0.03417,0.139206 0.0625,0.28125 0.02835,0.142044 0.01545,0.106024 0.03125,0.25 0.0158,0.143976 0.02805,0.136443 0.03125,0.28125 0.0032,0.144807 0.0095,0.105472 0,0.25 -0.0095,0.144528 -0.0091,0.138107 -0.03125,0.28125 -0.02211,0.143143 -0.02796,0.109338 -0.0625,0.25 -0.03454,0.140662 -0.01579,0.112897 -0.0625,0.25 -0.04671,0.137103 -0.03524,0.117504 -0.09375,0.25 -0.05851,0.132496 -0.05513,0.123127 -0.125,0.25 -0.06987,0.12687 -0.07555,0.09847 -0.15625,0.21875 -0.05648,0.08646 -0.03198,0.07348 -0.09375,0.15625 -0.06177,0.08277 -0.05819,0.07749 -0.125,0.15625 -0.06681,0.07876 -0.05341,0.05056 -0.125,0.125 -0.07159,0.07444 -0.04891,0.08642 -0.125,0.15625 -0.07609,0.06983 -0.07595,0.06005 -0.15625,0.125 -0.0803,0.06495 -0.07205,0.03394 -0.15625,0.09375 -0.0842,0.05981 -0.06849,0.07056 -0.15625,0.125 -0.08776,0.05444 -0.06526,0.04489 -0.15625,0.09375 -0.09099,0.04886 -0.09364,0.01941 -0.1875,0.0625 -0.09386,0.04309 -0.05989,0.0566 -0.15625,0.09375 -0.09636,0.03715 -0.08901,0.03143 -0.1875,0.0625 -0.09849,0.03107 -0.08726,0.0064 -0.1875,0.03125 -0.10024,0.02487 -0.08591,0.04393 -0.1875,0.0625 -0.10159,0.01857 -0.08495,-0.01219 -0.1875,0 -0.10256,0.01219 -0.08438,0.02545 -0.1875,0.03125 -0.10312,0.0058 -0.08423,6.68e-4 -0.1875,0 -0.08328,-6.25e-4 -0.07311,0.0048 -0.15625,0 -0.08314,-0.0048 -0.07346,0.009 -0.15625,0 C 26.41721,65.27226 26.45724,65.26314 26.375,65.25 26.29276,65.23686 26.30022,65.23601 26.21875,65.21875 26.13728,65.20149 26.143,65.20884 26.0625,65.1875 25.982,65.16615 25.98557,65.18161 25.90625,65.15625 25.82693,65.13089 25.8592,65.12307 25.78125,65.09375 25.7033,65.06443 25.70137,65.06446 25.625,65.03125 25.54863,64.99804 25.57461,65.00576 25.5,64.96875 c -0.07461,-0.03701 -0.0836,-0.02179 -0.15625,-0.0625 -0.07265,-0.04071 -0.05449,-0.04943 -0.125,-0.09375 -0.07051,-0.04432 -0.05681,-0.01469 -0.125,-0.0625 -0.06819,-0.04781 -0.0593,-0.04257 -0.125,-0.09375 -0.0657,-0.05118 -0.06196,-0.03933 -0.125,-0.09375 -0.06304,-0.05442 -0.03352,-0.06748 -0.09375,-0.125 -0.05059,-0.04832 -0.05683,-0.06214 -0.09375,-0.09375 l -0.03125,0 C 20.998063,60.711818 18.392257,56.4342 16.8125,51.875 c -0.169509,-0.486383 -0.353813,-0.976366 -0.5,-1.46875 -0.0058,-0.0195 0.0057,-0.04299 0,-0.0625 -0.145105,-0.491957 -0.284407,-0.971725 -0.40625,-1.46875 -0.0048,-0.01972 0.0048,-0.04277 0,-0.0625 -0.120918,-0.497197 -0.246093,-0.998654 -0.34375,-1.5 -0.0039,-0.02034 0.0039,-0.04216 0,-0.0625 -0.09665,-0.50105 -0.176571,-0.995724 -0.25,-1.5 -0.003,-0.0207 0.0029,-0.0418 0,-0.0625 -0.07105,-0.494406 -0.138757,-1.003367 -0.1875,-1.5 -0.0029,-0.03083 0.0029,-0.06291 0,-0.09375 -0.04735,-0.49651 -0.09994,-1.002145 -0.125,-1.5 -0.0015,-0.0311 0.0014,-0.06265 0,-0.09375 -0.02514,-0.528829 -0.03125,-1.033175 -0.03125,-1.5625 9.85e-4,-0.529205 0.0051,-1.06508 0.03125,-1.59375 0.02416,-0.508217 0.07762,-1.02439 0.125,-1.53125 0.002,-0.02079 -0.002,-0.04171 0,-0.0625 0.0483,-0.506546 0.115998,-0.995726 0.1875,-1.5 0.0029,-0.02047 -0.003,-0.04203 0,-0.0625 0.0711,-0.494726 0.156563,-1.008335 0.25,-1.5 0.100968,-0.531289 0.216698,-1.035795 0.34375,-1.5625 0.0048,-0.01971 -0.0048,-0.0428 0,-0.0625 1.381168,-5.679132 4.302741,-11.04666 8.71875,-15.46875 l 0.03125,0 C 24.69317,17.56214 24.69941,17.54832 24.75,17.5 c 0.06023,-0.05752 0.03071,-0.07058 0.09375,-0.125 0.06304,-0.05442 0.0593,-0.04257 0.125,-0.09375 0.0657,-0.05118 0.05681,-0.04594 0.125,-0.09375 0.06819,-0.04781 0.05449,-0.01818 0.125,-0.0625 0.07051,-0.04432 0.05235,-0.05304 0.125,-0.09375 0.07265,-0.04071 0.08164,-0.02549 0.15625,-0.0625 0.07461,-0.03701 0.04863,-0.02929 0.125,-0.0625 0.07637,-0.03321 0.0783,-0.03318 0.15625,-0.0625 0.07795,-0.02932 0.04568,-0.03714 0.125,-0.0625 0.07932,-0.02536 0.07575,-0.0099 0.15625,-0.03125 0.0805,-0.02134 0.07478,-0.01399 0.15625,-0.03125 0.08147,-0.01726 0.07401,-0.01811 0.15625,-0.03125 0.08224,-0.01314 0.04221,-0.02226 0.125,-0.03125 z m 42.5,0 c 0.10312,-0.0058 0.0842,-6.68e-4 0.1875,0 0.0833,6.25e-4 0.0731,-0.0048 0.15625,0 0.0831,0.0048 0.0735,-0.009 0.15625,0 0.0828,0.009 0.0428,0.01811 0.125,0.03125 0.0822,0.01314 0.0748,0.01399 0.15625,0.03125 0.0815,0.01726 0.0757,0.0099 0.15625,0.03125 0.0805,0.02134 0.0769,0.0059 0.15625,0.03125 0.0793,0.02536 0.047,0.03318 0.125,0.0625 0.078,0.02932 0.0799,0.02929 0.15625,0.0625 0.0764,0.03321 0.0504,0.02549 0.125,0.0625 0.0746,0.03701 0.0836,0.02179 0.15625,0.0625 0.0726,0.04071 0.0545,0.04943 0.125,0.09375 0.0705,0.04432 0.0568,0.01469 0.125,0.0625 0.0682,0.04781 0.0593,0.04257 0.125,0.09375 0.0657,0.05118 0.062,0.03933 0.125,0.09375 0.063,0.05442 0.0335,0.06748 0.0937,0.125 0.0506,0.04832 0.0568,0.06214 0.0937,0.09375 0.007,0.006 0.0221,-0.0097 0.0312,0 4.41601,4.42209 7.33758,9.789618 8.71875,15.46875 0.005,0.0197 -0.005,0.04279 0,0.0625 0.12705,0.526705 0.24278,1.031211 0.34375,1.5625 0.0934,0.491665 0.1789,1.005274 0.25,1.5 0.003,0.02047 -0.003,0.04203 0,0.0625 0.0715,0.504274 0.1392,0.993454 0.1875,1.5 0.002,0.02079 -0.002,0.04171 0,0.0625 0.0474,0.50686 0.10084,1.023033 0.125,1.53125 0.0266,0.539035 0.0308,1.085419 0.0312,1.625 -4.9e-4,0.518742 -0.007,1.012994 -0.0312,1.53125 -10e-4,0.0311 0.001,0.06265 0,0.09375 -0.0251,0.497855 -0.0777,1.00349 -0.125,1.5 -0.003,0.03084 0.003,0.06292 0,0.09375 -0.0487,0.496633 -0.11645,1.005594 -0.1875,1.5 -0.003,0.0207 0.003,0.0418 0,0.0625 -0.0734,0.504276 -0.15335,0.99895 -0.25,1.5 -0.004,0.02034 0.004,0.04216 0,0.0625 -0.0977,0.501346 -0.22283,1.002803 -0.34375,1.5 -0.005,0.01973 0.005,0.04278 0,0.0625 -0.12184,0.497025 -0.26114,0.976793 -0.40625,1.46875 -0.006,0.01951 0.006,0.043 0,0.0625 -0.14619,0.492384 -0.33049,0.982367 -0.5,1.46875 -1.57976,4.5592 -4.18556,8.836818 -7.8125,12.46875 l -0.0312,0 c -0.0369,0.03161 -0.0432,0.04543 -0.0937,0.09375 -0.0602,0.05752 -0.0308,0.07058 -0.0937,0.125 -0.063,0.05442 -0.0593,0.04257 -0.125,0.09375 -0.0657,0.05118 -0.0568,0.04594 -0.125,0.09375 -0.0682,0.04781 -0.0545,0.01818 -0.125,0.0625 -0.0705,0.04432 -0.0524,0.05304 -0.125,0.09375 -0.0727,0.04071 -0.0816,0.02549 -0.15625,0.0625 -0.0746,0.03701 -0.0486,0.02929 -0.125,0.0625 -0.0763,0.03321 -0.0782,0.03318 -0.15625,0.0625 -0.078,0.02932 -0.0457,0.03714 -0.125,0.0625 -0.0794,0.02535 -0.0757,0.0099 -0.15625,0.03125 -0.0805,0.02135 -0.0747,0.01399 -0.15625,0.03125 -0.0814,0.01726 -0.074,0.01811 -0.15625,0.03125 -0.0822,0.01314 -0.0422,0.02225 -0.125,0.03125 -0.0828,0.009 -0.0731,-0.0048 -0.15625,0 -0.0831,0.0048 -0.0729,-6.25e-4 -0.15625,0 -0.1033,6.68e-4 -0.0844,0.0058 -0.1875,0 C 68.8969,65.27545 68.9151,65.26219 68.8125,65.25 68.71,65.23781 68.7266,65.26857 68.625,65.25 68.5234,65.23143 68.5377,65.21237 68.4375,65.1875 68.3373,65.16265 68.3485,65.18732 68.25,65.15625 68.1515,65.12518 68.1589,65.1309 68.0625,65.09375 67.9661,65.0566 68.0001,65.04309 67.90625,65 c -0.0939,-0.04309 -0.0965,-0.01364 -0.1875,-0.0625 -0.091,-0.04886 -0.0684,-0.03931 -0.15625,-0.09375 -0.0877,-0.05444 -0.0721,-0.06519 -0.15625,-0.125 -0.0841,-0.05981 -0.076,-0.0288 -0.15625,-0.09375 -0.0803,-0.06495 -0.0802,-0.05517 -0.15625,-0.125 -0.0761,-0.06983 -0.0534,-0.08181 -0.125,-0.15625 -0.0716,-0.07444 -0.0582,-0.04624 -0.125,-0.125 -0.0668,-0.07876 -0.0632,-0.07348 -0.125,-0.15625 -0.0617,-0.08277 -0.0373,-0.06979 -0.0937,-0.15625 -0.0807,-0.12028 -0.0863,-0.09188 -0.15625,-0.21875 -0.0699,-0.126873 -0.0665,-0.117504 -0.125,-0.25 -0.0585,-0.132496 -0.047,-0.112897 -0.0937,-0.25 -0.0467,-0.137103 -0.028,-0.109338 -0.0625,-0.25 -0.0345,-0.140662 -0.0404,-0.106857 -0.0625,-0.25 -0.0222,-0.143143 -0.0212,-0.136722 -0.0312,-0.28125 -0.01,-0.144528 -0.003,-0.105193 0,-0.25 0.003,-0.144807 0.0155,-0.137274 0.0312,-0.28125 0.0157,-0.143976 0.003,-0.107956 0.0312,-0.25 0.0283,-0.142044 0.0219,-0.142227 0.0625,-0.28125 0.0406,-0.139023 0.0412,-0.115061 0.0937,-0.25 0.0526,-0.13494 0.0296,-0.08893 0.0937,-0.21875 0.0642,-0.129821 0.0497,-0.126291 0.125,-0.25 0.0754,-0.12371 0.0704,-0.1021 0.15625,-0.21875 0.0858,-0.11665 0.0606,-0.110052 0.15625,-0.21875 0.0957,-0.1087 0.0827,-0.08759 0.1875,-0.1875 a 0.96390861,0.96390861 0 0 0 0.0312,0 c 2.96784,-2.967837 5.10782,-6.452938 6.40625,-10.15625 0.13775,-0.392871 0.28729,-0.789935 0.40625,-1.1875 0.006,-0.01937 -0.006,-0.04312 0,-0.0625 0.11791,-0.397245 0.24458,-0.78629 0.34375,-1.1875 0.005,-0.02024 -0.005,-0.04225 0,-0.0625 0.0958,-0.391282 0.17202,-0.793124 0.25,-1.1875 0.006,-0.03018 -0.006,-0.06355 0,-0.09375 0.0766,-0.394325 0.15995,-0.790766 0.21875,-1.1875 0.004,-0.03081 -0.004,-0.06293 0,-0.09375 0.0574,-0.396465 0.11662,-0.789311 0.15625,-1.1875 0.003,-0.0305 -0.003,-0.06324 0,-0.09375 0.0392,-0.408417 0.0732,-0.809244 0.0937,-1.21875 0.001,-0.02098 -9.6e-4,-0.04151 0,-0.0625 0.0206,-0.430428 0.0312,-0.850427 0.0312,-1.28125 -10e-4,-0.440436 -0.009,-0.872526 -0.0312,-1.3125 -0.0196,-0.409544 -0.0555,-0.810261 -0.0937,-1.21875 -0.002,-0.02063 0.002,-0.04187 0,-0.0625 -0.0392,-0.408612 -0.0983,-0.811909 -0.15625,-1.21875 -0.003,-0.02025 0.003,-0.04225 0,-0.0625 -0.0589,-0.407018 -0.14115,-0.814223 -0.21875,-1.21875 -0.004,-0.02041 0.004,-0.0421 0,-0.0625 -0.0766,-0.394585 -0.15556,-0.795961 -0.25,-1.1875 -0.2061,-0.841908 -0.46146,-1.677042 -0.75,-2.5 C 72.17022,28.390438 70.03024,24.905337 67.0624,21.9375 a 0.96390861,0.96390861 0 0 0 -0.0312,0 C 66.92639,21.83759 66.9394,21.8587 66.8437,21.75 66.748,21.641302 66.7733,21.6479 66.68745,21.53125 66.60155,21.4146 66.60655,21.43621 66.5312,21.3125 c -0.0753,-0.123709 -0.0608,-0.120179 -0.125,-0.25 -0.0642,-0.129821 -0.0412,-0.08381 -0.0937,-0.21875 -0.0526,-0.134939 -0.0532,-0.110977 -0.0937,-0.25 -0.0406,-0.139023 -0.0342,-0.139206 -0.0625,-0.28125 -0.0283,-0.142044 -0.0156,-0.106024 -0.0312,-0.25 -0.0158,-0.143976 -0.0281,-0.136443 -0.0312,-0.28125 -0.003,-0.144807 -0.01,-0.105472 0,-0.25 0.01,-0.144528 0.009,-0.138107 0.0312,-0.28125 0.0221,-0.143143 0.028,-0.109338 0.0625,-0.25 0.0345,-0.140662 0.0158,-0.112897 0.0625,-0.25 0.0467,-0.137103 0.0353,-0.117504 0.0937,-0.25 0.0585,-0.132496 0.0551,-0.123127 0.125,-0.25 0.0699,-0.126873 0.0756,-0.09847 0.15625,-0.21875 0.0565,-0.08646 0.032,-0.07348 0.0937,-0.15625 0.0618,-0.08277 0.0582,-0.07749 0.125,-0.15625 0.0668,-0.07876 0.0534,-0.05056 0.125,-0.125 0.0716,-0.07444 0.0489,-0.08642 0.125,-0.15625 0.0761,-0.06983 0.076,-0.06005 0.15625,-0.125 0.0803,-0.06495 0.0721,-0.03394 0.15625,-0.09375 0.0842,-0.05981 0.0685,-0.07056 0.15625,-0.125 0.0878,-0.05444 0.0653,-0.04489 0.15625,-0.09375 0.091,-0.04886 0.0936,-0.01941 0.1875,-0.0625 0.0939,-0.04309 0.0599,-0.0566 0.15625,-0.09375 0.0964,-0.03715 0.089,-0.03143 0.1875,-0.0625 0.0985,-0.03107 0.0873,-0.0064 0.1875,-0.03125 0.10024,-0.02487 0.0859,-0.04393 0.1875,-0.0625 0.10159,-0.01857 0.085,0.01219 0.1875,0 0.10255,-0.01219 0.0844,-0.02548 0.1875,-0.03125 z m -32.28125,9.0625 A 4.0004001,4.0004001 0 0 0 36.28125,25.75 4.0004001,4.0004001 0 0 0 33.8125,26.96875 c -3.40243,3.402431 -5.324696,7.750362 -5.75,12.21875 -0.04836,0.596361 -0.09831,1.183263 -0.09375,1.78125 -3.93e-4,0.05155 0,0.104697 0,0.15625 0.0082,0.537599 0.04277,1.089377 0.09375,1.625 0.425304,4.468388 2.34757,8.816319 5.75,12.21875 a 4.0004001,4.0004001 0 0 0 2.46875,1.21875 4.0004001,4.0004001 0 0 0 0.4375,0.03125 4.0004001,4.0004001 0 0 0 2.84375,-1.25 4.0004001,4.0004001 0 0 0 1.125,-2.59375 4.0004001,4.0004001 0 0 0 0,-0.09375 4.0004001,4.0004001 0 0 0 -1.21875,-2.6875 c -2.1386,-2.138599 -3.29945,-4.855516 -3.5,-7.625 -0.03189,-0.329904 -0.02694,-0.668931 -0.03125,-1 0.0043,-0.331069 -6.4e-4,-0.670096 0.03125,-1 0.19567,-2.777524 1.35542,-5.480423 3.5,-7.625 a 4.0004001,4.0004001 0 0 0 1.1875,-2.40625 4.0004001,4.0004001 0 0 0 0.0312,-0.1875 4.0004001,4.0004001 0 0 0 0,-0.21875 4.0004001,4.0004001 0 0 0 -1.125,-2.5625 4.0004001,4.0004001 0 0 0 -2.84375,-1.25 z m 22.625,0 a 4.0004001,4.0004001 0 0 0 -0.4375,0.03125 4.0004001,4.0004001 0 0 0 -2.46875,1.21875 4.0004001,4.0004001 0 0 0 -1.125,2.5 4.0004001,4.0004001 0 0 0 0,0.40625 4.0004001,4.0004001 0 0 0 1.21875,2.46875 c 2.14458,2.144577 3.30433,4.847476 3.5,7.625 0.0269,0.2784 0.024,0.564422 0.0312,0.84375 0,0.38278 0.006,0.774842 -0.0312,1.15625 -0.20055,2.769484 -1.3614,5.486401 -3.5,7.625 a 4.0004001,4.0004001 0 0 0 -1.21875,2.46875 4.0004001,4.0004001 0 0 0 0,0.375 4.0004001,4.0004001 0 0 0 0,0.03125 4.0004001,4.0004001 0 0 0 1.125,2.5 4.0004001,4.0004001 0 0 0 2.46875,1.21875 4.0004001,4.0004001 0 0 0 0.4375,0.03125 4.0004001,4.0004001 0 0 0 2.84375,-1.25 c 3.40243,-3.402431 5.3247,-7.750362 5.75,-12.21875 0.0608,-0.638341 0.0937,-1.296742 0.0937,-1.9375 -0.008,-0.537599 -0.0428,-1.089377 -0.0937,-1.625 -0.4253,-4.468388 -2.34757,-8.816319 -5.75,-12.21875 a 4.0004001,4.0004001 0 0 0 -2.84375,-1.25 z m -22.6875,0.6875 c 0.08225,-8.4e-4 0.07405,0.02795 0.15625,0.03125 0.08225,0.0033 0.07425,-0.0073 0.15625,0 0.08195,0.0073 0.07475,-0.0114 0.15625,0 0.08145,0.0114 0.07545,0.01581 0.15625,0.03125 0.0808,0.01544 0.0451,0.01182 0.125,0.03125 0.07995,0.01943 0.07735,0.0079 0.15625,0.03125 0.07885,0.02338 0.07865,0.03522 0.15625,0.0625 0.0776,0.02728 0.0488,0.0314 0.125,0.0625 0.0762,0.0311 0.0505,0.02765 0.125,0.0625 0.07455,0.03485 0.08355,0.02399 0.15625,0.0625 0.0727,0.03851 0.0543,0.02043 0.125,0.0625 0.0707,0.04207 0.0565,0.04821 0.125,0.09375 0.0685,0.04554 0.0588,0.04486 0.125,0.09375 0.0662,0.04889 0.0613,0.01038 0.125,0.0625 0.0637,0.05212 0.064,0.06978 0.125,0.125 0.061,0.05522 0.03555,0.03557 0.09375,0.09375 0.0581,0.05818 0.03855,0.03275 0.09375,0.09375 0.0552,0.061 0.0729,0.06133 0.125,0.125 0.0521,0.06367 0.0136,0.05882 0.0625,0.125 0.0488,0.06618 0.04825,0.05647 0.09375,0.125 0.0455,0.06853 0.05165,0.05429 0.09375,0.125 0.0421,0.07071 0.024,0.05229 0.0625,0.125 0.0385,0.07271 0.0276,0.08172 0.0625,0.15625 0.0349,0.07453 0.0314,0.04883 0.0625,0.125 0.0311,0.07617 0.0352,0.04737 0.0625,0.125 0.0273,0.07763 0.0391,0.07736 0.0625,0.15625 0.0232,0.07889 0.01185,0.0763 0.03125,0.15625 0.0194,0.07995 0.01585,0.04418 0.03125,0.125 0.0154,0.08082 0.01985,0.07476 0.03125,0.15625 0.0114,0.08149 -0.007,0.0743 0,0.15625 0.007,0.08195 -0.003,0.07404 0,0.15625 0.0032,0.08221 0.03209,0.07398 0.03125,0.15625 -8e-4,0.08227 -0.02625,0.04287 -0.03125,0.125 -0.005,0.08213 0.009,0.07446 0,0.15625 -4.1e-4,0.0131 3e-4,0.01501 0,0.03125 -0.003,0.162417 0.0186,0.119879 0,0.28125 -0.0186,0.161371 -0.0282,0.153729 -0.0625,0.3125 -0.0343,0.158771 -0.04405,0.126607 -0.09375,0.28125 -0.0497,0.154643 -0.02915,0.132224 -0.09375,0.28125 -0.0646,0.149026 -0.0461,0.108027 -0.125,0.25 -0.0789,0.141973 -0.0638,0.116446 -0.15625,0.25 -0.0925,0.133554 -0.0824,0.126152 -0.1875,0.25 -0.10511,0.123848 -0.0708,0.105799 -0.1875,0.21875 a 0.96390861,0.96390861 0 0 0 -0.03125,0 c -2.22346,2.223456 -3.47207,5.047119 -3.75,7.9375 -0.03475,0.361426 -0.05817,0.731021 -0.0625,1.09375 0.0043,0.362729 0.02775,0.732324 0.0625,1.09375 0.27793,2.890381 1.52654,5.714044 3.75,7.9375 a 0.96390861,0.96390861 0 0 0 0.03125,0 c 0.1167,0.112951 0.08239,0.0949 0.1875,0.21875 0.1051,0.123848 0.095,0.116446 0.1875,0.25 0.09245,0.133554 0.07735,0.108027 0.15625,0.25 0.0789,0.141973 0.0604,0.100974 0.125,0.25 0.0646,0.149026 0.04405,0.126607 0.09375,0.28125 0.0497,0.154643 0.05945,0.122479 0.09375,0.28125 0.0343,0.158771 0.0439,0.151129 0.0625,0.3125 0.0186,0.161371 -0.003,0.118833 0,0.28125 0.0018,0.01043 -0.0017,0.01552 0,0.03125 0.009,0.08179 -0.005,0.07412 0,0.15625 0.005,0.08213 0.03045,0.04273 0.03125,0.125 8.4e-4,0.08227 -0.02805,0.07404 -0.03125,0.15625 -0.003,0.08221 0.007,0.0743 0,0.15625 -0.007,0.08195 0.0114,0.07476 0,0.15625 -0.0114,0.08149 -0.01585,0.07543 -0.03125,0.15625 -0.0154,0.08082 -0.01185,0.04505 -0.03125,0.125 -0.0194,0.07995 -0.008,0.07736 -0.03125,0.15625 -0.0234,0.07889 -0.0352,0.07862 -0.0625,0.15625 -0.0273,0.07763 -0.0314,0.04883 -0.0625,0.125 -0.0311,0.07617 -0.0276,0.05047 -0.0625,0.125 -0.0349,0.07453 -0.024,0.08354 -0.0625,0.15625 -0.0385,0.07271 -0.0204,0.05429 -0.0625,0.125 -0.0421,0.07071 -0.04825,0.05647 -0.09375,0.125 -0.0455,0.06853 -0.04495,0.05882 -0.09375,0.125 -0.0489,0.06618 -0.0104,0.06133 -0.0625,0.125 -0.0521,0.06367 -0.0698,0.064 -0.125,0.125 -0.0552,0.061 -0.03565,0.03557 -0.09375,0.09375 -0.0582,0.05818 -0.03275,0.03853 -0.09375,0.09375 -0.061,0.05522 -0.0613,0.07288 -0.125,0.125 -0.0637,0.05212 -0.0588,0.01361 -0.125,0.0625 -0.0662,0.04889 -0.0565,0.04821 -0.125,0.09375 -0.0685,0.04554 -0.0543,0.05168 -0.125,0.09375 -0.0707,0.04207 -0.0523,0.02399 -0.125,0.0625 -0.0727,0.03851 -0.0817,0.02765 -0.15625,0.0625 -0.0745,0.03485 -0.0488,0.0314 -0.125,0.0625 -0.0762,0.0311 -0.0474,0.03522 -0.125,0.0625 -0.0776,0.02728 -0.0774,0.03912 -0.15625,0.0625 -0.0789,0.02338 -0.0763,0.01182 -0.15625,0.03125 -0.0799,0.01943 -0.0442,0.01581 -0.125,0.03125 -0.0808,0.01544 -0.0748,0.01985 -0.15625,0.03125 -0.0815,0.0114 -0.0743,-0.0073 -0.15625,0 -0.082,0.0073 -0.074,-0.0033 -0.15625,0 -0.0822,0.0033 -0.074,0.03209 -0.15625,0.03125 -0.0823,-8.37e-4 -0.0429,-0.02632 -0.125,-0.03125 -0.0821,-0.0049 -0.0745,0.009 -0.15625,0 -0.0818,-0.009 -0.075,-0.01819 -0.15625,-0.03125 -0.0812,-0.01306 -0.0758,-0.01417 -0.15625,-0.03125 -0.0805,-0.01708 -0.0767,-0.0102 -0.15625,-0.03125 -0.0795,-0.02105 -0.0466,-0.0063 -0.125,-0.03125 -0.0784,-0.02498 -0.0792,-0.03365 -0.15625,-0.0625 -0.0771,-0.02885 -0.0495,0.0014 -0.125,-0.03125 -0.0755,-0.03264 -0.0824,-0.02614 -0.15625,-0.0625 -0.0738,-0.03636 -0.0531,-0.05377 -0.125,-0.09375 -0.0719,-0.03998 -0.0552,-0.019 -0.125,-0.0625 -0.0698,-0.0435 -0.0574,-0.04683 -0.125,-0.09375 -0.0676,-0.04692 -0.0598,-0.04353 -0.125,-0.09375 -0.0652,-0.05022 -0.0624,-0.04035 -0.125,-0.09375 C 34.65615,54.72785 34.6848,54.74394 34.625,54.6875 34.5651,54.63106 34.557,54.6531 34.5,54.59375 a 0.96390861,0.96390861 0 0 0 0,-0.03125 C 31.1886,51.251095 29.381117,47.004706 29.03125,42.65625 28.973397,42.049133 28.9375,41.421908 28.9375,40.8125 28.9456,40.30617 28.98318,39.785731 29.03125,39.28125 29.381117,34.932794 31.1886,30.686405 34.5,27.375 a 0.96390861,0.96390861 0 0 0 0,-0.03125 c 0.057,-0.05935 0.0651,-0.03731 0.125,-0.09375 0.0598,-0.05644 0.03115,-0.04035 0.09375,-0.09375 0.0626,-0.0534 0.0598,-0.04353 0.125,-0.09375 0.0652,-0.05022 0.0574,-0.04683 0.125,-0.09375 0.0676,-0.04692 0.0552,-0.05025 0.125,-0.09375 0.0698,-0.0435 0.0531,-0.02252 0.125,-0.0625 0.0719,-0.03998 0.0512,-0.05739 0.125,-0.09375 0.07385,-0.03636 0.08075,-0.02986 0.15625,-0.0625 0.0755,-0.03265 0.0479,-0.0024 0.125,-0.03125 0.07705,-0.02885 0.07785,-0.03752 0.15625,-0.0625 0.0784,-0.02495 0.0455,-0.0102 0.125,-0.03125 C 35.9858,26.5102 35.982,26.51708 36.0625,26.5 36.14295,26.48292 36.13755,26.48181 36.21875,26.46875 36.3,26.45569 36.2932,26.4465 36.375,26.4375 c 0.08175,-0.009 0.07415,0.0049 0.15625,0 0.0821,-0.0049 0.0427,-0.03041 0.125,-0.03125 z m 22.6875,0 c 0.0823,8.4e-4 0.0429,0.02635 0.125,0.03125 0.0821,0.0049 0.0744,-0.009 0.15625,0 0.0817,0.009 0.0751,0.01819 0.15625,0.03125 0.0812,0.01306 0.0757,0.01417 0.15625,0.03125 0.0804,0.01708 0.0768,0.0102 0.15625,0.03125 0.0795,0.02105 0.0466,0.0063 0.125,0.03125 0.0784,0.02498 0.0791,0.03365 0.15625,0.0625 0.0771,0.02885 0.0495,-0.0014 0.125,0.03125 0.0756,0.03264 0.0824,0.02614 0.15625,0.0625 0.0738,0.03636 0.0531,0.05377 0.125,0.09375 0.0719,0.03998 0.0552,0.019 0.125,0.0625 0.0698,0.0435 0.0574,0.04683 0.125,0.09375 0.0676,0.04692 0.0598,0.04353 0.125,0.09375 0.0652,0.05022 0.0624,0.04035 0.125,0.09375 0.0626,0.0534 0.0339,0.03731 0.0937,0.09375 0.0599,0.05644 0.068,0.0344 0.125,0.09375 a 0.96390861,0.96390861 0 0 0 0,0.03125 c 3.31141,3.311405 5.11888,7.557794 5.46875,11.90625 0.0481,0.504481 0.0856,1.02492 0.0937,1.53125 0,0.609408 -0.0359,1.236633 -0.0937,1.84375 -0.34987,4.348456 -2.15734,8.594845 -5.46875,11.90625 a 0.96390861,0.96390861 0 0 0 0,0.03125 c -0.057,0.05935 -0.0651,0.03731 -0.125,0.09375 -0.0599,0.05644 -0.0311,0.04035 -0.0937,0.09375 -0.0626,0.0534 -0.0598,0.04353 -0.125,0.09375 -0.0652,0.05022 -0.0574,0.04683 -0.125,0.09375 -0.0676,0.04692 -0.0552,0.05025 -0.125,0.09375 -0.0698,0.0435 -0.0531,0.02252 -0.125,0.0625 -0.0719,0.03998 -0.0512,0.05739 -0.125,0.09375 -0.0738,0.03636 -0.0807,0.02986 -0.15625,0.0625 -0.0755,0.03264 -0.0479,0.0024 -0.125,0.03125 -0.0771,0.02885 -0.0779,0.03752 -0.15625,0.0625 -0.0784,0.02498 -0.0455,0.0102 -0.125,0.03125 -0.0795,0.02105 -0.0758,0.01417 -0.15625,0.03125 -0.0805,0.01708 -0.075,0.01819 -0.15625,0.03125 -0.0812,0.01306 -0.0745,0.02225 -0.15625,0.03125 -0.0818,0.009 -0.0741,-0.0049 -0.15625,0 -0.0821,0.0049 -0.0427,0.03041 -0.125,0.03125 -0.0823,8.37e-4 -0.074,-0.028 -0.15625,-0.03125 -0.0822,-0.0033 -0.0743,0.0073 -0.15625,0 -0.082,-0.0073 -0.0748,0.0114 -0.15625,0 -0.0815,-0.0114 -0.0754,-0.01581 -0.15625,-0.03125 -0.0808,-0.01544 -0.0451,-0.01182 -0.125,-0.03125 -0.0799,-0.01943 -0.0774,-0.0079 -0.15625,-0.03125 -0.0789,-0.02338 -0.0786,-0.03522 -0.15625,-0.0625 -0.0776,-0.02728 -0.0488,-0.0314 -0.125,-0.0625 -0.0762,-0.0311 -0.0505,-0.02765 -0.125,-0.0625 C 57.95675,55.1839 57.94775,55.19476 57.875,55.15625 57.8023,55.11774 57.8207,55.13582 57.75,55.09375 57.6793,55.05168 57.6935,55.04554 57.625,55 57.5565,54.95446 57.5662,54.95514 57.5,54.90625 c -0.0662,-0.04889 -0.0613,-0.01038 -0.125,-0.0625 -0.0637,-0.05212 -0.064,-0.06978 -0.125,-0.125 -0.061,-0.05522 -0.0357,-0.03557 -0.0937,-0.09375 -0.0582,-0.05818 -0.0386,-0.03275 -0.0937,-0.09375 -0.0552,-0.061 -0.0729,-0.06133 -0.125,-0.125 -0.0521,-0.06367 -0.0136,-0.05882 -0.0625,-0.125 -0.0489,-0.06618 -0.0482,-0.05647 -0.0937,-0.125 -0.0455,-0.06853 -0.0517,-0.05429 -0.0937,-0.125 -0.0421,-0.07071 -0.024,-0.05229 -0.0625,-0.125 C 56.5867,53.83354 56.5976,53.82453 56.5627,53.75 56.5278,53.67547 56.5313,53.70117 56.5002,53.625 56.4691,53.54883 56.465,53.57763 56.4377,53.5 56.4104,53.42237 56.3986,53.42264 56.3752,53.34375 56.3518,53.26486 56.3634,53.26745 56.344,53.1875 c -0.0194,-0.07995 -0.0159,-0.04418 -0.0312,-0.125 -0.0154,-0.08082 -0.0199,-0.07476 -0.0312,-0.15625 -0.0114,-0.08149 0.007,-0.0743 0,-0.15625 -0.007,-0.08195 0.003,-0.07404 0,-0.15625 -0.003,-0.08221 -0.0322,-0.07398 -0.0312,-0.15625 8.4e-4,-0.08227 0.0263,-0.04287 0.0312,-0.125 0.005,-0.08213 -0.009,-0.07446 0,-0.15625 0.002,-0.01573 -0.002,-0.02082 0,-0.03125 0.003,-0.162417 -0.0186,-0.119879 0,-0.28125 0.0186,-0.161371 0.0282,-0.153729 0.0625,-0.3125 0.0343,-0.158771 0.044,-0.126607 0.0937,-0.28125 0.0497,-0.154643 0.0292,-0.132224 0.0937,-0.28125 0.0646,-0.149026 0.0461,-0.108027 0.125,-0.25 0.079,-0.141973 0.0637,-0.116446 0.15625,-0.25 0.0925,-0.133554 0.0824,-0.126152 0.1875,-0.25 0.1051,-0.12385 0.0708,-0.105799 0.1875,-0.21875 a 0.96390861,0.96390861 0 0 0 0.0312,0 c 2.22346,-2.223456 3.47207,-5.047119 3.75,-7.9375 0.0397,-0.412912 0.0625,-0.835576 0.0625,-1.25 -0.007,-0.311006 -0.0327,-0.627559 -0.0625,-0.9375 -0.27793,-2.890381 -1.52654,-5.714044 -3.75,-7.9375 a 0.96390861,0.96390861 0 0 0 -0.0312,0 c -0.11674,-0.112951 -0.0824,-0.0949 -0.1875,-0.21875 -0.10511,-0.123848 -0.095,-0.116446 -0.1875,-0.25 -0.0925,-0.133554 -0.0773,-0.108027 -0.15625,-0.25 -0.0789,-0.141973 -0.0604,-0.100974 -0.125,-0.25 -0.0646,-0.149026 -0.044,-0.126607 -0.0937,-0.28125 -0.0497,-0.154643 -0.0594,-0.122479 -0.0937,-0.28125 -0.0343,-0.158771 -0.0439,-0.151129 -0.0625,-0.3125 -0.0186,-0.161371 0.003,-0.118833 0,-0.28125 -3e-4,-0.01624 4.1e-4,-0.01815 0,-0.03125 -0.009,-0.08179 0.005,-0.07412 0,-0.15625 -0.005,-0.08213 -0.0304,-0.04273 -0.0312,-0.125 -9e-4,-0.08227 0.0282,-0.07404 0.0312,-0.15625 0.003,-0.08221 -0.007,-0.0743 0,-0.15625 0.007,-0.08195 -0.0114,-0.07476 0,-0.15625 0.0113,-0.08149 0.0159,-0.07543 0.0312,-0.15625 0.0154,-0.08082 0.0118,-0.04505 0.0312,-0.125 0.0194,-0.07995 0.008,-0.07736 0.0312,-0.15625 0.0234,-0.07889 0.0352,-0.07862 0.0625,-0.15625 0.0273,-0.07763 0.0314,-0.04883 0.0625,-0.125 0.0311,-0.07617 0.0276,-0.05047 0.0625,-0.125 0.0349,-0.07453 0.024,-0.08354 0.0625,-0.15625 0.0385,-0.07271 0.0204,-0.05429 0.0625,-0.125 0.042,-0.07071 0.0482,-0.05647 0.0937,-0.125 0.0455,-0.06853 0.0448,-0.05882 0.0937,-0.125 0.0489,-0.06618 0.0104,-0.06133 0.0625,-0.125 0.0521,-0.06367 0.0698,-0.064 0.125,-0.125 0.0552,-0.061 0.0356,-0.03557 0.0937,-0.09375 0.0581,-0.05818 0.0327,-0.03853 0.0937,-0.09375 0.061,-0.05522 0.0613,-0.07288 0.125,-0.125 0.0637,-0.05212 0.0588,-0.01361 0.125,-0.0625 0.0662,-0.04889 0.0565,-0.04821 0.125,-0.09375 0.0685,-0.04554 0.0543,-0.05168 0.125,-0.09375 0.0707,-0.04207 0.0523,-0.02399 0.125,-0.0625 0.0727,-0.03851 0.0817,-0.02765 0.15625,-0.0625 0.0745,-0.03485 0.0488,-0.0314 0.125,-0.0625 0.0762,-0.0311 0.0474,-0.03522 0.125,-0.0625 0.0777,-0.02728 0.0773,-0.03912 0.15625,-0.0625 0.0789,-0.02335 0.0764,-0.01182 0.15625,-0.03125 0.0799,-0.01943 0.0442,-0.01581 0.125,-0.03125 0.0808,-0.01544 0.0747,-0.01985 0.15625,-0.03125 0.0815,-0.0114 0.0743,0.0073 0.15625,0 0.082,-0.0073 0.074,0.0033 0.15625,0 0.0823,-0.0033 0.0739,-0.03209 0.15625,-0.03125 z"
       inkscape:connector-curvature="0"
       id="path3763"
       style="font-size:medium;font-style:normal;font-variant:normal;font-weight:normal;font-stretch:normal;text-indent:0;text-align:start;text-decoration:none;line-height:normal;letter-spacing:normal;word-spacing:normal;text-transform:none;direction:ltr;block-progression:tb;writing-mode:lr-tb;text-anchor:start;opacity:0.1;color:#000000;fill:#000000;fill-opacity:1;stroke:none;stroke-width:3.5;marker:none;visibility:visible;display:inline;overflow:visible;enable-background:accumulate;font-family:Abandoned Bitplane;-inkscape-font-specification:Abandoned Bitplane" />
  </g>
  <g
     id="layer5">
    <rect
       width="66"
       height="66"
       rx="12"
       ry="12"
       x="15"
       y="15"
       clip-path="url(#clipPath3613)"
       id="rect3171"
       style="opacity:0.1;fill:url(#linearGradient3613);fill-opacity:1;fill-rule:nonzero;stroke:#ffffff;stroke-width:0.5;stroke-linecap:round;stroke-linejoin:miter;stroke-miterlimit:4;stroke-opacity:1;stroke-dasharray:none;stroke-dashoffset:0;filter:url(#filter3794)" />
  </g>
  <g
     id="layer4">
    <path
       d="m 48,31.90625 c -5.545268,0 -10.09375,4.548482 -10.09375,10.09375 0,4.143487 2.558494,7.732127 6.15625,9.28125 C 42.210175,52.566594 40.90625,54.594096 40.90625,57 l 0,20 c 0,3.894112 3.199638,7.09375 7.09375,7.09375 3.894112,0 7.09375,-3.199638 7.09375,-7.09375 l 0,-20 c 0,-2.405904 -1.303925,-4.433406 -3.15625,-5.71875 C 55.535256,49.732127 58.09375,46.143487 58.09375,42 58.09375,36.454732 53.545268,31.90625 48,31.90625 z"
       id="path3838"
       style="opacity:0.05;color:#000000;fill:#000000;fill-opacity:1;fill-rule:nonzero;stroke:none;stroke-width:1;marker:none;visibility:visible;display:inline;overflow:visible;enable-background:accumulate" />
    <path
       d="m 48,33.03125 c -4.930068,0 -8.96875,4.038682 -8.96875,8.96875 0,4.930068 4.038682,8.96875 8.96875,8.96875 4.930068,0 8.96875,-4.038682 8.96875,-8.96875 0,-4.930068 -4.038682,-8.96875 -8.96875,-8.96875 z m 0,18 c -3.277428,0 -5.96875,2.691322 -5.96875,5.96875 l 0,20 c 0,3.277428 2.691322,5.96875 5.96875,5.96875 3.277428,0 5.96875,-2.691322 5.96875,-5.96875 l 0,-20 c 0,-3.277428 -2.691322,-5.96875 -5.96875,-5.96875 z"
       inkscape:connector-curvature="0"
       id="path3833"
       style="opacity:0.1;color:#000000;fill:#000000;fill-opacity:1;fill-rule:nonzero;stroke:none;stroke-width:1;marker:none;visibility:visible;display:inline;overflow:visible;enable-background:accumulate" />
    <path
       d="m 48,34.0625 c -4.369998,0 -7.9375,3.567502 -7.9375,7.9375 0,4.369998 3.567502,7.9375 7.9375,7.9375 4.369998,0 7.9375,-3.567502 7.9375,-7.9375 0,-4.369998 -3.567502,-7.9375 -7.9375,-7.9375 z m 0,18 c -2.71652,0 -4.9375,2.22098 -4.9375,4.9375 l 0,20 c 0,2.71652 2.22098,4.9375 4.9375,4.9375 2.71652,0 4.9375,-2.22098 4.9375,-4.9375 l 0,-20 c 0,-2.71652 -2.22098,-4.9375 -4.9375,-4.9375 z"
       id="path3829"
       style="opacity:0.15;color:#000000;fill:#000000;fill-opacity:1;fill-rule:nonzero;stroke:none;stroke-width:1;marker:none;visibility:visible;display:inline;overflow:visible;enable-background:accumulate" />
    <path
       d="m 48,35 c -3.865993,0 -7,3.134007 -7,7 0,3.865993 3.134007,7 7,7 3.865993,0 7,-3.134007 7,-7 0,-3.865993 -3.134007,-7 -7,-7 z m 0,18 c -2.216,0 -4,1.784 -4,4 l 0,20 c 0,2.216 1.784,4 4,4 2.216,0 4,-1.784 4,-4 l 0,-20 c 0,-2.216 -1.784,-4 -4,-4 z"
       inkscape:connector-curvature="0"
       id="rect3816"
       style="opacity:0.3;color:#000000;fill:#000000;fill-opacity:1;fill-rule:nonzero;stroke:none;stroke-width:1;marker:none;visibility:visible;display:inline;overflow:visible;enable-background:accumulate" />
    <rect
       width="7.9999986"
       height="28.000004"
       rx="4"
       ry="4"
       x="44"
       y="52"
       id="rect3661"
       style="color:#000000;fill:url(#linearGradient3796);fill-opacity:1;fill-rule:nonzero;stroke:none;stroke-width:1;marker:none;visibility:visible;display:inline;overflow:visible;enable-background:accumulate" />
    <path
       d="m 55,41 a 7,7 0 1 1 -14,0 7,7 0 1 1 14,0 z"
       id="path3663"
       style="color:#000000;fill:url(#radialGradient3861);fill-opacity:1;fill-rule:nonzero;stroke:none;stroke-width:1;marker:none;visibility:visible;display:inline;overflow:visible;enable-background:accumulate" />
    <path
       d="m 44,75 0,1 c 0,2.216 1.784,4 4,4 2.216,0 4,-1.784 4,-4 l 0,-1 c 0,2.216 -1.784,4 -4,4 -2.216,0 -4,-1.784 -4,-4 z"
       inkscape:connector-curvature="0"
       id="rect3807"
       style="opacity:0.2;color:#000000;fill:#000000;fill-opacity:1;fill-rule:nonzero;stroke:none;stroke-width:1;marker:none;visibility:visible;display:inline;overflow:visible;enable-background:accumulate" />
    <path
       d="m 48,52 c -2.216,0 -4,1.784 -4,4 l 0,20 c 0,2.216 1.784,4 4,4 2.216,0 4,-1.784 4,-4 l 0,-20 c 0,-2.216 -1.784,-4 -4,-4 z m 0,1 c 1.674207,0 3,1.325793 3,3 l 0,20 c 0,1.674207 -1.325793,3 -3,3 -1.674207,0 -3,-1.325793 -3,-3 l 0,-20 c 0,-1.674207 1.325793,-3 3,-3 z"
       inkscape:connector-curvature="0"
       id="rect3844"
       style="opacity:0.6;color:#000000;fill:url(#linearGradient3853);fill-opacity:1;fill-rule:nonzero;stroke:none;stroke-width:1;marker:none;visibility:visible;display:inline;overflow:visible;enable-background:accumulate" />
    <path
       d="M 42.03125,40.625 C 42.023779,40.747591 42,40.875529 42,41 c 0,3.313709 2.686291,6 6,6 3.313709,0 6,-2.686291 6,-6 0,-0.124471 -0.02378,-0.252409 -0.03125,-0.375 C 53.66149,43.650536 51.106602,46 48,46 44.893398,46 42.33851,43.650536 42.03125,40.625 z"
       inkscape:connector-curvature="0"
       id="path3868"
       style="opacity:0.3;color:#000000;fill:url(#radialGradient3891);fill-opacity:1;fill-rule:nonzero;stroke:none;stroke-width:1;marker:none;visibility:visible;display:inline;overflow:visible;enable-background:accumulate" />
    <path
       d="m 55,41 a 7,7 0 1 1 -14,0 7,7 0 1 1 14,0 z"
       transform="matrix(0.71428569,0,0,0.5,13.714287,18)"
       id="path3893"
       style="color:#000000;fill:url(#linearGradient3903);fill-opacity:1;fill-rule:nonzero;stroke:none;stroke-width:1;marker:none;visibility:visible;display:inline;overflow:visible;enable-background:accumulate" />
  </g>
</svg>
