<?xml version="1.0" encoding="UTF-8" standalone="no"?>
<!-- Created with Inkscape (http://www.inkscape.org/) -->

<svg
   xmlns:dc="http://purl.org/dc/elements/1.1/"
   xmlns:cc="http://creativecommons.org/ns#"
   xmlns:rdf="http://www.w3.org/1999/02/22-rdf-syntax-ns#"
   xmlns:svg="http://www.w3.org/2000/svg"
   xmlns="http://www.w3.org/2000/svg"
   xmlns:xlink="http://www.w3.org/1999/xlink"
   xmlns:inkscape="http://www.inkscape.org/namespaces/inkscape"
   version="1.0"
   width="96"
   height="96"
   id="svg2408">
  <defs
     id="defs2410">
    <linearGradient
       id="linearGradient3941">
      <stop
         id="stop3943"
         style="stop-color:#ffffff;stop-opacity:1"
         offset="0" />
      <stop
         id="stop3945"
         style="stop-color:#ffffff;stop-opacity:0"
         offset="1" />
    </linearGradient>
    <linearGradient
       x1="45.447727"
       y1="92.539597"
       x2="45.447727"
       y2="7.0165396"
       id="ButtonShadow"
       gradientUnits="userSpaceOnUse"
       gradientTransform="scale(1.0058652,0.994169)">
      <stop
         id="stop3750"
         style="stop-color:#000000;stop-opacity:1"
         offset="0" />
      <stop
         id="stop3752"
         style="stop-color:#000000;stop-opacity:0.58823532"
         offset="1" />
    </linearGradient>
    <linearGradient
       id="linearGradient3737">
      <stop
         id="stop3739"
         style="stop-color:#ffffff;stop-opacity:1"
         offset="0" />
      <stop
         id="stop3741"
         style="stop-color:#ffffff;stop-opacity:0"
         offset="1" />
    </linearGradient>
    <linearGradient
       id="linearGradient3700">
      <stop
         id="stop3702"
         style="stop-color:#f57900;stop-opacity:1"
         offset="0" />
      <stop
         id="stop3704"
         style="stop-color:#f89d44;stop-opacity:1"
         offset="1" />
    </linearGradient>
    <filter
       color-interpolation-filters="sRGB"
       id="filter3174">
      <feGaussianBlur
         id="feGaussianBlur3176"
         stdDeviation="1.71" />
    </filter>
    <linearGradient
       x1="36.357143"
       y1="6"
       x2="36.357143"
       y2="63.893143"
       id="linearGradient3188"
       xlink:href="#linearGradient3737"
       gradientUnits="userSpaceOnUse" />
    <filter
       x="-0.192"
       y="-0.192"
       width="1.3839999"
       height="1.3839999"
       color-interpolation-filters="sRGB"
       id="filter3794">
      <feGaussianBlur
         id="feGaussianBlur3796"
         stdDeviation="5.28" />
    </filter>
    <linearGradient
       x1="48"
       y1="20.220806"
       x2="48"
       y2="138.66119"
       id="linearGradient3613"
       xlink:href="#linearGradient3737"
       gradientUnits="userSpaceOnUse" />
    <radialGradient
       cx="48"
       cy="90.171875"
       r="42"
       fx="48"
       fy="90.171875"
       id="radialGradient3619"
       xlink:href="#linearGradient3737"
       gradientUnits="userSpaceOnUse"
       gradientTransform="matrix(1.1573129,0,0,0.99590774,-7.5510206,0.19713193)" />
    <clipPath
       id="clipPath3613">
      <rect
         width="84"
         height="84"
         rx="6"
         ry="6"
         x="6"
         y="6"
         id="rect3615"
         style="fill:#ffffff;fill-opacity:1;fill-rule:nonzero;stroke:none" />
    </clipPath>
    <linearGradient
       x1="48"
       y1="90"
       x2="48"
       y2="5.9877172"
       id="linearGradient3617"
       xlink:href="#linearGradient3700"
       gradientUnits="userSpaceOnUse" />
    <linearGradient
       x1="45.447727"
       y1="92.539597"
       x2="45.447727"
       y2="7.0165396"
       id="ButtonShadow-0"
       gradientUnits="userSpaceOnUse"
       gradientTransform="matrix(1.0058652,0,0,0.994169,100,0)">
      <stop
         id="stop3750-8"
         style="stop-color:#000000;stop-opacity:1"
         offset="0" />
      <stop
         id="stop3752-5"
         style="stop-color:#000000;stop-opacity:0.58823532"
         offset="1" />
    </linearGradient>
    <linearGradient
       x1="32.251034"
       y1="6.1317081"
       x2="32.251034"
       y2="90.238609"
       id="linearGradient3780"
       xlink:href="#ButtonShadow-0"
       gradientUnits="userSpaceOnUse"
       gradientTransform="matrix(1.0238095,0,0,1.0119048,-1.1428571,-98.071429)" />
    <linearGradient
       x1="32.251034"
       y1="6.1317081"
       x2="32.251034"
       y2="90.238609"
       id="linearGradient3772"
       xlink:href="#ButtonShadow-0"
       gradientUnits="userSpaceOnUse"
       gradientTransform="matrix(1.0238095,0,0,1.0119048,-1.1428571,-98.071429)" />
    <linearGradient
       x1="32.251034"
       y1="6.1317081"
       x2="32.251034"
       y2="90.238609"
       id="linearGradient3725"
       xlink:href="#ButtonShadow-0"
       gradientUnits="userSpaceOnUse"
       gradientTransform="matrix(1.0238095,0,0,1.0119048,-1.1428571,-98.071429)" />
    <linearGradient
       x1="32.251034"
       y1="6.1317081"
       x2="32.251034"
       y2="90.238609"
       id="linearGradient3721"
       xlink:href="#ButtonShadow-0"
       gradientUnits="userSpaceOnUse"
       gradientTransform="translate(0,-97)" />
    <linearGradient
       x1="32.251034"
       y1="6.1317081"
       x2="32.251034"
       y2="90.238609"
       id="linearGradient3026"
       xlink:href="#ButtonShadow-0"
       gradientUnits="userSpaceOnUse"
       gradientTransform="matrix(1.0238095,0,0,1.0119048,-1.1428571,-98.071429)" />
    <linearGradient
       x1="49.983868"
       y1="63.414215"
       x2="49.983868"
       y2="-2.3158617"
       id="linearGradient3947"
       xlink:href="#linearGradient3941"
       gradientUnits="userSpaceOnUse" />
    <linearGradient
       id="linearGradient3936">
      <stop
         id="stop3938"
         style="stop-color:#000000;stop-opacity:1"
         offset="0" />
      <stop
         id="stop3940"
         style="stop-color:#000000;stop-opacity:0"
         offset="1" />
    </linearGradient>
    <linearGradient
       id="linearGradient3294">
      <stop
         id="stop3296"
         style="stop-color:#a1bfe1;stop-opacity:1"
         offset="0" />
      <stop
         id="stop3302"
         style="stop-color:#407dc1;stop-opacity:1"
         offset="0.50094414" />
      <stop
         id="stop3298"
         style="stop-color:#224367;stop-opacity:1"
         offset="1" />
    </linearGradient>
    <linearGradient
       id="linearGradient3202">
      <stop
         id="stop3204"
         style="stop-color:#2b2b2b;stop-opacity:1"
         offset="0" />
      <stop
         id="stop3250"
         style="stop-color:#828383;stop-opacity:1"
         offset="0.5" />
      <stop
         id="stop3206"
         style="stop-color:#dadbdb;stop-opacity:1"
         offset="1" />
    </linearGradient>
    <linearGradient
       id="linearGradient3242">
      <stop
         id="stop3244"
         style="stop-color:#282828;stop-opacity:1"
         offset="0" />
      <stop
         id="stop3252"
         style="stop-color:#969696;stop-opacity:1"
         offset="0.39253417" />
      <stop
         id="stop3246"
         style="stop-color:#e3e3e3;stop-opacity:1"
         offset="1" />
    </linearGradient>
    <linearGradient
       x1="103.94804"
       y1="79.295097"
       x2="134.48746"
       y2="41.356407"
       id="linearGradient3946"
       xlink:href="#linearGradient3936"
       gradientUnits="userSpaceOnUse"
       gradientTransform="matrix(0.84815852,0.52974252,-0.52974252,0.84815852,-2.1584295,-41.320509)" />
    <linearGradient
       x1="102.76233"
       y1="78.680206"
       x2="142.16823"
       y2="30.335871"
       id="linearGradient3176"
       xlink:href="#linearGradient3936"
       gradientUnits="userSpaceOnUse"
       gradientTransform="matrix(0.98565429,0.16877686,-0.16877686,0.98565429,-45.008735,-15.895389)" />
    <radialGradient
       cx="418.45551"
       cy="181.18982"
       r="63.068935"
       fx="418.45551"
       fy="181.18982"
       id="radialGradient4034"
       xlink:href="#linearGradient3242"
       gradientUnits="userSpaceOnUse"
       gradientTransform="matrix(-0.01234502,-0.01124481,0.3176589,-0.34873903,38.557637,90.465077)" />
    <radialGradient
       cx="283.50717"
       cy="382.14804"
       r="17.67668"
       fx="283.50717"
       fy="382.14804"
       id="radialGradient4037"
       xlink:href="#linearGradient3202"
       gradientUnits="userSpaceOnUse"
       gradientTransform="matrix(0.07808342,0.06214543,-0.09525431,0.11968356,90.619342,-23.620235)" />
    <radialGradient
       cx="289.44067"
       cy="390.45248"
       r="17.67668"
       fx="289.44067"
       fy="390.45248"
       id="radialGradient4040"
       xlink:href="#linearGradient3202"
       gradientUnits="userSpaceOnUse"
       gradientTransform="matrix(0.07808342,0.06214543,-0.09525431,0.11968356,71.51635,-1.9903031)" />
    <radialGradient
       cx="425.51019"
       cy="356.62274"
       r="143.34167"
       fx="425.51019"
       fy="356.62274"
       id="radialGradient4043"
       xlink:href="#linearGradient3294"
       gradientUnits="userSpaceOnUse"
       gradientTransform="matrix(-0.01898241,-0.01522718,0.20231986,-0.25221475,8.796203,136.45939)" />
  </defs>
  <metadata
     id="metadata2413">
    <rdf:RDF>
      <cc:Work
         rdf:about="">
        <dc:format>image/svg+xml</dc:format>
        <dc:type
           rdf:resource="http://purl.org/dc/dcmitype/StillImage" />
        <dc:title />
      </cc:Work>
    </rdf:RDF>
  </metadata>
  <g
     id="layer2"
     style="display:none">
    <rect
       width="86"
       height="85"
       rx="6"
       ry="6"
       x="5"
       y="7"
       id="rect3745"
       style="opacity:0.9;fill:url(#ButtonShadow);fill-opacity:1;fill-rule:nonzero;stroke:none;filter:url(#filter3174)" />
  </g>
  <g
     id="layer3">
    <path
       d="m 12,-95.03125 c -5.5110903,0 -10.03125,4.52016 -10.03125,10.03125 l 0,71 c 0,5.5110902 4.5201598,10.03125 10.03125,10.03125 l 72,0 c 5.51109,0 10.03125,-4.5201597 10.03125,-10.03125 l 0,-71 c 0,-5.51109 -4.52016,-10.03125 -10.03125,-10.03125 l -72,0 z"
       transform="scale(1,-1)"
       id="path3786"
       style="opacity:0.07999998;fill:url(#linearGradient3026);fill-opacity:1;fill-rule:nonzero;stroke:none;display:inline" />
    <path
       d="m 12,-94.03125 c -4.971633,0 -9.03125,4.059617 -9.03125,9.03125 l 0,71 c 0,4.9716329 4.0596171,9.03125 9.03125,9.03125 l 72,0 c 4.971633,0 9.03125,-4.059617 9.03125,-9.03125 l 0,-71 c 0,-4.971633 -4.059617,-9.03125 -9.03125,-9.03125 l -72,0 z"
       transform="scale(1,-1)"
       id="path3778"
       style="opacity:0.1;fill:url(#linearGradient3780);fill-opacity:1;fill-rule:nonzero;stroke:none;display:inline" />
    <path
       d="m 12,-93 c -4.4091333,0 -8,3.590867 -8,8 l 0,71 c 0,4.4091333 3.5908667,8 8,8 l 72,0 c 4.409133,0 8,-3.5908667 8,-8 l 0,-71 c 0,-4.409133 -3.590867,-8 -8,-8 l -72,0 z"
       transform="scale(1,-1)"
       id="path3770"
       style="opacity:0.2;fill:url(#linearGradient3772);fill-opacity:1;fill-rule:nonzero;stroke:none;display:inline" />
    <rect
       width="86"
       height="85"
       rx="7"
       ry="7"
       x="5"
       y="-92"
       transform="scale(1,-1)"
       id="rect3723"
       style="opacity:0.3;fill:url(#linearGradient3725);fill-opacity:1;fill-rule:nonzero;stroke:none;display:inline" />
    <rect
       width="84"
       height="84"
       rx="6"
       ry="6"
       x="6"
       y="-91"
       transform="scale(1,-1)"
       id="rect3716"
       style="opacity:0.45;fill:url(#linearGradient3721);fill-opacity:1;fill-rule:nonzero;stroke:none;display:inline" />
  </g>
  <g
     id="layer1">
    <rect
       width="84"
       height="84"
       rx="6"
       ry="6"
       x="6"
       y="6"
       id="rect2419"
       style="fill:url(#linearGradient3617);fill-opacity:1;fill-rule:nonzero;stroke:none" />
    <path
       d="M 12,6 C 8.676,6 6,8.676 6,12 l 0,2 0,68 0,2 c 0,0.334721 0.04135,0.6507 0.09375,0.96875 0.0487,0.295596 0.09704,0.596915 0.1875,0.875 0.00988,0.03038 0.020892,0.0636 0.03125,0.09375 0.098865,0.287771 0.2348802,0.547452 0.375,0.8125 0.1445918,0.273507 0.3156161,0.535615 0.5,0.78125 0.1843839,0.245635 0.3737765,0.473472 0.59375,0.6875 0.439947,0.428056 0.94291,0.814526 1.5,1.09375 0.278545,0.139612 0.5734731,0.246947 0.875,0.34375 -0.2562018,-0.100222 -0.4867109,-0.236272 -0.71875,-0.375 -0.00741,-0.0044 -0.023866,0.0045 -0.03125,0 -0.031933,-0.0193 -0.062293,-0.04251 -0.09375,-0.0625 -0.120395,-0.0767 -0.2310226,-0.163513 -0.34375,-0.25 -0.1061728,-0.0808 -0.2132809,-0.161112 -0.3125,-0.25 C 8.4783201,88.557317 8.3087904,88.373362 8.15625,88.1875 8.0486711,88.057245 7.9378561,87.922215 7.84375,87.78125 7.818661,87.74287 7.805304,87.69538 7.78125,87.65625 7.716487,87.553218 7.6510225,87.451733 7.59375,87.34375 7.4927417,87.149044 7.3880752,86.928049 7.3125,86.71875 7.30454,86.69694 7.288911,86.6782 7.28125,86.65625 7.2494249,86.5643 7.2454455,86.469419 7.21875,86.375 7.1884177,86.268382 7.1483606,86.171969 7.125,86.0625 7.0521214,85.720988 7,85.364295 7,85 L 7,83 7,15 7,13 C 7,10.218152 9.2181517,8 12,8 l 2,0 68,0 2,0 c 2.781848,0 5,2.218152 5,5 l 0,2 0,68 0,2 c 0,0.364295 -0.05212,0.720988 -0.125,1.0625 -0.04415,0.206893 -0.08838,0.397658 -0.15625,0.59375 -0.0077,0.02195 -0.0233,0.04069 -0.03125,0.0625 -0.06274,0.173739 -0.138383,0.367449 -0.21875,0.53125 -0.04158,0.0828 -0.07904,0.169954 -0.125,0.25 -0.0546,0.09721 -0.126774,0.18835 -0.1875,0.28125 -0.09411,0.140965 -0.204921,0.275995 -0.3125,0.40625 -0.143174,0.17445 -0.303141,0.346998 -0.46875,0.5 -0.01117,0.0102 -0.01998,0.02115 -0.03125,0.03125 -0.138386,0.125556 -0.285091,0.234436 -0.4375,0.34375 -0.102571,0.07315 -0.204318,0.153364 -0.3125,0.21875 -0.0074,0.0045 -0.02384,-0.0044 -0.03125,0 -0.232039,0.138728 -0.462548,0.274778 -0.71875,0.375 0.301527,-0.0968 0.596455,-0.204138 0.875,-0.34375 0.55709,-0.279224 1.060053,-0.665694 1.5,-1.09375 0.219973,-0.214028 0.409366,-0.441865 0.59375,-0.6875 0.184384,-0.245635 0.355408,-0.507743 0.5,-0.78125 0.14012,-0.265048 0.276135,-0.524729 0.375,-0.8125 0.01041,-0.03078 0.02133,-0.06274 0.03125,-0.09375 0.09046,-0.278085 0.1388,-0.579404 0.1875,-0.875 C 89.95865,84.6507 90,84.334721 90,84 l 0,-2 0,-68 0,-2 C 90,8.676 87.324,6 84,6 L 12,6 z"
       inkscape:connector-curvature="0"
       id="rect3728"
       style="opacity:0.35;fill:url(#linearGradient3188);fill-opacity:1;fill-rule:nonzero;stroke:none" />
    <path
       d="M 12,90 C 8.676,90 6,87.324 6,84 L 6,82 6,14 6,12 c 0,-0.334721 0.04135,-0.6507 0.09375,-0.96875 0.0487,-0.295596 0.09704,-0.596915 0.1875,-0.875 C 6.29113,10.12587 6.302142,10.09265 6.3125,10.0625 6.411365,9.774729 6.5473802,9.515048 6.6875,9.25 6.8320918,8.976493 7.0031161,8.714385 7.1875,8.46875 7.3718839,8.223115 7.5612765,7.995278 7.78125,7.78125 8.221197,7.353194 8.72416,6.966724 9.28125,6.6875 9.559795,6.547888 9.8547231,6.440553 10.15625,6.34375 9.9000482,6.443972 9.6695391,6.580022 9.4375,6.71875 c -0.00741,0.0044 -0.023866,-0.0045 -0.03125,0 -0.031933,0.0193 -0.062293,0.04251 -0.09375,0.0625 -0.120395,0.0767 -0.2310226,0.163513 -0.34375,0.25 -0.1061728,0.0808 -0.2132809,0.161112 -0.3125,0.25 C 8.4783201,7.442683 8.3087904,7.626638 8.15625,7.8125 8.0486711,7.942755 7.9378561,8.077785 7.84375,8.21875 7.818661,8.25713 7.805304,8.30462 7.78125,8.34375 7.716487,8.446782 7.6510225,8.548267 7.59375,8.65625 7.4927417,8.850956 7.3880752,9.071951 7.3125,9.28125 7.30454,9.30306 7.288911,9.3218 7.28125,9.34375 7.2494249,9.4357 7.2454455,9.530581 7.21875,9.625 7.1884177,9.731618 7.1483606,9.828031 7.125,9.9375 7.0521214,10.279012 7,10.635705 7,11 l 0,2 0,68 0,2 c 0,2.781848 2.2181517,5 5,5 l 2,0 68,0 2,0 c 2.781848,0 5,-2.218152 5,-5 l 0,-2 0,-68 0,-2 C 89,10.635705 88.94788,10.279012 88.875,9.9375 88.83085,9.730607 88.78662,9.539842 88.71875,9.34375 88.71105,9.3218 88.69545,9.30306 88.6875,9.28125 88.62476,9.107511 88.549117,8.913801 88.46875,8.75 88.42717,8.6672 88.38971,8.580046 88.34375,8.5 88.28915,8.40279 88.216976,8.31165 88.15625,8.21875 88.06214,8.077785 87.951329,7.942755 87.84375,7.8125 87.700576,7.63805 87.540609,7.465502 87.375,7.3125 87.36383,7.3023 87.35502,7.29135 87.34375,7.28125 87.205364,7.155694 87.058659,7.046814 86.90625,6.9375 86.803679,6.86435 86.701932,6.784136 86.59375,6.71875 c -0.0074,-0.0045 -0.02384,0.0044 -0.03125,0 -0.232039,-0.138728 -0.462548,-0.274778 -0.71875,-0.375 0.301527,0.0968 0.596455,0.204138 0.875,0.34375 0.55709,0.279224 1.060053,0.665694 1.5,1.09375 0.219973,0.214028 0.409366,0.441865 0.59375,0.6875 0.184384,0.245635 0.355408,0.507743 0.5,0.78125 0.14012,0.265048 0.276135,0.524729 0.375,0.8125 0.01041,0.03078 0.02133,0.06274 0.03125,0.09375 0.09046,0.278085 0.1388,0.579404 0.1875,0.875 C 89.95865,11.3493 90,11.665279 90,12 l 0,2 0,68 0,2 c 0,3.324 -2.676,6 -6,6 l -72,0 z"
       inkscape:connector-curvature="0"
       id="path3615"
       style="opacity:0.2;fill:url(#radialGradient3619);fill-opacity:1;fill-rule:nonzero;stroke:none" />
  </g>
  <g
     id="layer5"
     style="display:none">
    <rect
       width="66"
       height="66"
       rx="12"
       ry="12"
       x="15"
       y="15"
       clip-path="url(#clipPath3613)"
       id="rect3171"
       style="opacity:0.1;fill:url(#linearGradient3613);fill-opacity:1;fill-rule:nonzero;stroke:#ffffff;stroke-width:0.5;stroke-linecap:round;stroke-linejoin:miter;stroke-miterlimit:4;stroke-opacity:1;stroke-dasharray:none;stroke-dashoffset:0;filter:url(#filter3794)" />
  </g>
  <g
     id="layer4">
    <path
       d="m 47.9375,20.9375 c -11.495625,-0.0624 -22.308884,7.982906 -25.59375,19 -0.0028,0.0093 0.0028,0.0219 0,0.03125 -1.105404,3.144799 -1.104761,6.351885 -1.375,9.34375 -0.187896,1.067439 -0.776742,1.616187 -1.71875,2.09375 -0.942008,0.477563 -2.183675,0.757704 -3.34375,1.03125 a 0.97291882,0.97291882 0 0 0 -0.3125,0.125 c -1.103523,0.732375 -1.435454,1.976796 -1.46875,2.96875 -0.0333,0.991954 0.09911,1.879599 0.03125,2.46875 a 0.97291882,0.97291882 0 0 0 0,0.125 c 0.04166,4.571092 -0.08484,9.187993 0.0625,13.8125 a 0.97291882,0.97291882 0 0 0 0,0.125 c 0.101838,0.666935 0.436034,1.257982 0.875,1.65625 0.438966,0.398268 0.961464,0.601161 1.46875,0.71875 0.980377,0.227252 1.93894,0.125563 2.6875,0.03125 0.02611,-0.0033 0.06822,0.0033 0.09375,0 0.0018,-9.1e-5 -0.0018,-0.03116 0,-0.03125 7.617994,-0.385714 14.890917,-4.32746 19.34375,-10.5625 -0.01645,2.883579 -0.101409,5.788945 0.0625,8.71875 a 0.97291882,0.97291882 0 0 0 0.03125,0.21875 c 0.201863,0.647907 0.6101,1.195511 1.09375,1.53125 0.48365,0.335739 1.028891,0.49018 1.53125,0.5625 1.004718,0.14464 1.967428,0.007 2.59375,0.03125 4.619863,0.07778 9.488833,0.06634 14.03125,-1.875 0.0088,-0.0034 0.02244,0.0034 0.03125,0 10.474298,-3.993882 17.629124,-14.921278 17.0625,-26.125 -2.45e-4,-0.01047 2.58e-4,-0.02078 0,-0.03125 -0.285854,-11.593494 -8.782234,-22.2393 -20.03125,-25.0625 -0.0099,-0.0028 -0.02132,0.0028 -0.03125,0 -2.356734,-0.671352 -4.792507,-0.841179 -7.09375,-0.90625 a 0.97291882,0.97291882 0 0 0 -0.03125,0 z m 0.4375,22.46875 c 2.415134,0.155207 4.562554,2.525544 4.21875,4.96875 a 0.97291882,0.97291882 0 0 0 0,0.0625 c -0.161934,2.523663 -2.786322,4.311914 -5.25,4 a 0.97291882,0.97291882 0 0 0 -0.125,0 l -3.78125,0 c 0.161485,-1.273048 0.171232,-2.536145 0.1875,-3.65625 0.02159,-1.48665 0.189422,-2.693634 1.0625,-3.71875 a 0.97291882,0.97291882 0 0 0 0,-0.03125 c 0.837401,-1.06192 2.207965,-1.52407 3.6875,-1.625 z"
       id="path3902"
       style="opacity:0.1;color:#000000;fill:#ff780b;fill-opacity:1;fill-rule:nonzero;stroke:none;stroke-width:1.5;marker:none;visibility:visible;display:inline;overflow:visible;enable-background:accumulate" />
    <path
       d="M 47.9375,21.90625 C 36.890027,21.84628 26.397855,29.648798 23.257831,40.244273 22.208235,43.21054 22.213079,46.373017 21.930121,49.455874 21.43949,52.243152 18.409572,52.836297 16.125,53.375 c -1.587123,1.053326 -0.817455,3.15714 -1,4.74187 0.04187,4.594719 -0.08362,9.203289 0.0625,13.78938 0.29088,1.90497 2.606342,1.77378 4.046683,1.588715 8.338221,-0.38991 16.467229,-5.086886 20.390817,-12.557465 0.06002,3.862321 -0.121644,7.74368 0.09375,11.59375 0.584378,1.875645 2.796102,1.379251 4.299503,1.4375 4.612976,0.07766 9.353074,0.04439 13.671345,-1.809182 C 67.7707,68.328856 74.727996,57.73103 74.169207,46.956203 73.908641,35.806755 65.622626,25.484452 54.801951,22.782845 52.56644,22.141827 50.219254,21.97077 47.9375,21.90625 z M 48.375,42.4375 c 3.019959,0.147433 5.624464,2.981471 5.191391,6.059056 -0.201499,3.140266 -3.35443,5.289574 -6.354942,4.909694 -1.622566,0 -3.245133,0 -4.867699,0 0.841127,-2.947262 -0.585997,-6.411826 1.579591,-8.954528 1.079434,-1.368846 2.782696,-1.912295 4.451659,-2.014222 z"
       inkscape:connector-curvature="0"
       id="path3893"
       style="opacity:0.15;color:#000000;fill:#ff780b;fill-opacity:1;fill-rule:nonzero;stroke:none;stroke-width:1.5;marker:none;visibility:visible;display:inline;overflow:visible;enable-background:accumulate" />
    <path
       d="M 47.9375,23.03125 C 34.29,23.146198 23.21875,34.262964 23.21875,47.9375 c 0,0.07206 -8.43e-4,0.154626 0,0.25 1.05e-4,0.01192 -1.74e-4,0.01922 0,0.03125 -0.126881,2.927839 -1.58247,4.288037 -3.09375,5.09375 -1.517243,0.808892 -3.03125,0.90625 -3.03125,0.90625 A 0.9018185,0.9018185 0 0 0 16.25,55.125 l 0,16.40625 a 0.9018185,0.9018185 0 0 0 0.90625,0.90625 c 8.761837,0 14.923763,-3.5763 18.8125,-8.125 3.888737,-4.5487 5.5625,-10.010524 5.5625,-14.03125 l 0,-2.34375 0,-0.125 0,-0.03125 c 0.09208,-3.506159 2.925238,-6.310212 6.4375,-6.40625 a 0.9018185,0.9018185 0 0 0 0.46875,-0.15625 0.9018185,0.9018185 0 0 0 0.5,0.21875 c 3.279468,0.387746 5.78125,3.108839 5.78125,6.5 0,3.614428 -2.874743,6.524906 -6.46875,6.59375 -0.03125,5.78e-4 -0.03384,0 -0.09375,0 l -6.5,0 A 0.9018185,0.9018185 0 0 0 40.75,55.4375 l 0,16.5 a 0.9018185,0.9018185 0 0 0 0.90625,0.90625 l 6.1875,0 c 0.111859,0.0013 0.222485,0 0.3125,0 13.745173,0 24.90625,-11.161075 24.90625,-24.90625 0,-13.43796 -10.67754,-24.392014 -24,-24.875 A 0.9018185,0.9018185 0 0 0 48.5,23.21875 0.9018185,0.9018185 0 0 0 47.9375,23.03125 z"
       id="path3889"
       style="opacity:0.3;color:#000000;fill:#ff780b;fill-opacity:1;fill-rule:nonzero;stroke:none;stroke-width:1.5;marker:none;visibility:visible;display:inline;overflow:visible;enable-background:accumulate" />
    <path
       d="M 46,104.09375 C 33.674971,105.10408 24,115.41441 24,128 c 0,5.52285 -4.477153,10 -10,10 l 0,14 c 13.254834,0 24,-10.74517 24,-24 0,-4.83249 3.443169,-8.84879 8,-9.78125 l 0,-14.125 z m 4,0 0,14.125 c 4.556831,0.93246 8,4.94876 8,9.78125 0,5.52285 -4.477153,10 -10,10 l -8,0 0,14 8,0 c 13.254834,0 24,-10.74517 24,-24 0,-12.58559 -9.674971,-22.89592 -22,-23.90625 z"
       inkscape:connector-curvature="0"
       id="path3845"
       style="opacity:0.5;color:#000000;fill:#d40000;fill-opacity:1;fill-rule:nonzero;stroke:none;stroke-width:1.5;marker:none;visibility:visible;display:inline;overflow:visible;enable-background:accumulate" />
    <path
       d="m 47.938834,23.95191 c -13.16298,0.110867 -23.804602,10.801116 -23.804602,23.990254 0,0.08977 -0.0013,0.17847 0,0.268163 C 23.87634,54.729775 17.162,55.120675 17.162,55.120675 l 0,16.399184 c 17.039567,0 23.474555,-13.718692 23.474555,-21.246742 l 0,-2.330953 0,-0.165023 c 0.08612,-3.99671 3.310426,-7.193126 7.302279,-7.302278 z m 1.093279,0.02063 0,16.54358 c 3.720329,0.439871 6.600929,3.585154 6.600929,7.426045 0,4.094313 -3.268173,7.430494 -7.343534,7.508558 -0.04864,8.99e-4 -0.09555,0 -0.144395,0 l -6.477162,0 c 0,5.500774 0,11.001549 0,16.502324 l 6.188371,0 c 0.09657,0.0011 0.191948,0 0.288791,0 13.258112,0 24.010881,-10.752768 24.010881,-24.010882 0,-12.961287 -10.276308,-23.503855 -23.123881,-23.969625 z"
       inkscape:connector-curvature="0"
       id="path3864"
       style="color:#000000;fill:#ffffff;fill-opacity:1;fill-rule:nonzero;stroke:none;stroke-width:1.5;marker:none;visibility:visible;display:inline;overflow:visible;enable-background:accumulate" />
    <path
       d="M 12,6 C 8.676,6 6,8.676 6,12 L 6,64.40625 C 30.080271,70.336479 43.525956,39.485893 67.032046,42.63187 76.288202,49.213434 83.248065,52.515064 90,51.875 L 90,12 C 90,8.676 87.324,6 84,6 z"
       inkscape:connector-curvature="0"
       id="path3904"
       style="opacity:0.2;fill:url(#linearGradient3947);fill-opacity:1;stroke:none" />
  </g>
  <g
     id="layer6">
    <path
       d="m 103.09531,26.997728 c 0,0 -0.25105,0.203894 -0.25781,0.209493 -2.21993,-0.04859 -8.0462,2.105291 -23.24284,15.201474 -0.0172,-0.01668 -0.138185,-0.118777 -0.138185,-0.118777 l -0.598313,0.531646 c 0.08481,0.07708 0.161928,0.154794 0.24557,0.232278 -10.18625,8.360273 -21.07466,18.13062 -21.944108,18.91139 -7.99e-4,-0.0012 -0.02549,-0.03603 -0.02548,-0.03607 l -0.0202,-0.06687 -0.0413,0.05634 c -7.64e-4,-0.0014 -0.02548,-0.03607 -0.02548,-0.03607 l -0.789241,0.720886 c 0.0081,0.01173 0.01734,0.02434 0.02548,0.03607 l -0.03602,0.02554 0.02548,0.03607 c 4.2e-5,5.8e-5 0.04775,0.06716 0.05106,0.07216 -9.318121,9.495534 -15.121583,16.651535 -14.883979,17.488818 0.319625,1.126286 18.76411,-11.736831 19.526172,-12.382064 0.03176,0.02607 0.194412,0.160022 0.194515,0.160127 l 0.03076,0.0053 0.866667,-0.802742 -0.02548,-0.03607 c -1.53e-4,-1.1e-4 -0.07489,-0.07217 -0.08181,-0.07742 1.842824,-1.41214 11.90943,-9.17401 22.459932,-18.220671 0.170833,0.225729 0.331856,0.468987 0.331856,0.468987 l 0.598313,-0.531645 c -0.02268,-0.03404 -0.05293,-0.07361 -0.07653,-0.10822 0.790201,-0.61736 17.455531,-13.665016 19.329541,-19.010336 0.21345,-0.157476 0.30053,-0.23332 0.51035,-0.388186 0,0 -0.0316,-1.827825 -2.00865,-2.341353 z"
       inkscape:connector-curvature="0"
       id="path3902-5"
       style="opacity:0.25;fill:url(#linearGradient3176);fill-opacity:1" />
    <path
       d="m 58.811305,64.806923 c -0.0013,-7.53e-4 -1.401983,-0.774234 -3.163969,-2.146656 l 0,0 C 54.125603,61.476885 53.09831,60.360533 53.097181,60.359404 l 0,0 -0.02297,-0.02504 0.686493,-0.879111 0.02956,-0.0386 0.03182,0.03709 c 0.0032,0.0019 1.016749,1.185264 2.584235,2.406304 l 0,0 c 1.489913,1.159281 3.124429,1.993202 3.127818,1.994897 l 0,0 0.04312,0.02203 -0.736389,0.946329 -0.02956,-0.01638 0,0 z m -3.114638,-2.20992 c 1.608909,1.253236 2.912606,2.004123 3.123487,2.122932 l 0,0 0.634903,-0.816035 C 59.187125,63.764003 57.71284,62.977718 56.357176,61.922936 l 0,0 c -1.412903,-1.100535 -2.379378,-2.17151 -2.563335,-2.380885 l 0,0 -0.614567,0.787792 c 0.159855,0.170399 1.131603,1.189972 2.517393,2.26716 l 0,0 z"
       inkscape:connector-curvature="0"
       id="path4824"
       style="fill:#4d4d4d" />
    <path
       d="m 58.800638,64.465415 c 0,0 10.021885,-10.75183 19.831506,-22.591302 l 0.428489,0.132305 c 0,0 20.344107,-22.295585 15.367847,-24.100695 0,0 -2.48812,-4.927466 -22.002856,18.782933 l -0.03753,0.355809 C 63.384249,47.428206 53.379974,60.088795 53.379974,60.088795 45.652535,71.196981 41.064367,79.407388 41.44384,80.200834 41.959655,81.279353 58.83058,64.573465 58.800637,64.465415 z"
       inkscape:connector-curvature="0"
       id="path3254"
       style="fill:url(#radialGradient4043);fill-opacity:1;fill-rule:evenodd;stroke:#13345c;stroke-width:0.5;stroke-linecap:butt;stroke-linejoin:miter;stroke-miterlimit:4;stroke-opacity:1;stroke-dasharray:none" />
    <path
       d="m 53.052249,60.295772 c 2.190592,2.242344 5.761083,4.519174 5.761083,4.519174 l 0.707197,-0.896934 C 57.097641,62.651764 53.72495,59.433343 53.72495,59.433343 l -0.672701,0.862429 z"
       inkscape:connector-curvature="0"
       id="path2430"
       style="fill:url(#radialGradient4040);fill-opacity:1;fill-rule:evenodd;stroke:none" />
    <path
       d="m 72.000002,36.975464 c 3.86372,2.466573 6.8995,5.450604 6.8995,5.450604 l 0.517461,-0.603703 C 77.356299,39.64193 72.509451,36.343176 72.509451,36.343176 l -0.509449,0.632288 z"
       inkscape:connector-curvature="0"
       id="path3236"
       style="fill:url(#radialGradient4037);fill-opacity:1;fill-rule:evenodd;stroke:none" />
    <path
       d="m 93.224586,17.277397 c 2.035353,0.17248 2.380329,1.966357 2.380329,1.966357 -9.279829,9.659296 -22.871843,23.699783 -22.871843,23.699783 l -0.68995,-0.586461 C 84.013755,28.006116 93.224586,17.277397 93.224586,17.277397"
       inkscape:connector-curvature="0"
       id="path3240"
       style="fill:url(#radialGradient4034);fill-opacity:1;fill-rule:evenodd;stroke:none" />
    <path
       d="m 118.64074,54.503216 c 0,0 -0.30959,0.09354 -0.31797,0.09616 -2.03591,-0.886301 -8.24383,-1.101224 -27.270166,5.258549 -0.0096,-0.02195 -0.08286,-0.162287 -0.08286,-0.162287 l -0.75517,0.265228 c 0.04927,0.10347 0.09119,0.204615 0.139219,0.308019 -12.594839,3.876069 -26.373863,8.790906 -27.474357,9.183915 -2.72e-4,-0.0014 -0.0099,-0.043 -0.0099,-0.04304 l 0.0067,-0.06954 -0.05957,0.03648 c -1.62e-4,-0.0016 -0.0099,-0.04303 -0.0099,-0.04303 l -1.003574,0.367989 c 0.0031,0.01393 0.0069,0.02909 0.0099,0.04304 l -0.04302,0.01002 0.0099,0.04303 c 1.6e-5,7e-5 0.01874,0.08025 0.01991,0.08613 -12.221729,5.255654 -20.304327,9.678339 -20.401772,10.54321 -0.131075,1.163401 21.812476,-3.749781 22.762227,-4.058061 0.0195,0.03615 0.119262,0.221763 0.119317,0.221901 l 0.02646,0.01655 1.106248,-0.414396 -0.0099,-0.04304 c -9.9e-5,-1.61e-4 -0.04196,-0.09517 -0.04636,-0.102645 2.24054,-0.608375 14.497869,-3.976027 27.689922,-8.34923 0.07254,0.273634 0.129356,0.559772 0.129356,0.559772 l 0.755169,-0.265228 c -0.0081,-0.04009 -0.02109,-0.08818 -0.0298,-0.129151 0.965228,-0.271823 21.332281,-6.030065 25.092341,-10.266381 0.25721,-0.06483 0.36653,-0.102019 0.6194,-0.16581 0,0 0.66347,-1.703448 -0.97145,-2.92795 z"
       inkscape:connector-curvature="0"
       id="path3944"
       style="opacity:0.4;fill:url(#linearGradient3946);fill-opacity:1" />
  </g>
</svg>
