<?xml version="1.0" encoding="UTF-8" standalone="no"?>
<!-- Created with Inkscape (http://www.inkscape.org/) -->

<svg
   xmlns:dc="http://purl.org/dc/elements/1.1/"
   xmlns:cc="http://creativecommons.org/ns#"
   xmlns:rdf="http://www.w3.org/1999/02/22-rdf-syntax-ns#"
   xmlns:svg="http://www.w3.org/2000/svg"
   xmlns="http://www.w3.org/2000/svg"
   xmlns:xlink="http://www.w3.org/1999/xlink"
   xmlns:inkscape="http://www.inkscape.org/namespaces/inkscape"
   version="1.0"
   width="96"
   height="96"
   id="svg2408">
  <defs
     id="defs2410">
    <linearGradient
       x1="45.447727"
       y1="92.539597"
       x2="45.447727"
       y2="7.0165396"
       id="ButtonShadow"
       gradientUnits="userSpaceOnUse"
       gradientTransform="scale(1.0058652,0.994169)">
      <stop
         id="stop3750"
         style="stop-color:#000000;stop-opacity:1"
         offset="0" />
      <stop
         id="stop3752"
         style="stop-color:#000000;stop-opacity:0.58823532"
         offset="1" />
    </linearGradient>
    <linearGradient
       id="linearGradient3737">
      <stop
         id="stop3739"
         style="stop-color:#ffffff;stop-opacity:1"
         offset="0" />
      <stop
         id="stop3741"
         style="stop-color:#ffffff;stop-opacity:0"
         offset="1" />
    </linearGradient>
    <filter
       color-interpolation-filters="sRGB"
       id="filter3174">
      <feGaussianBlur
         id="feGaussianBlur3176"
         stdDeviation="1.71" />
    </filter>
    <linearGradient
       x1="36.357143"
       y1="6"
       x2="36.357143"
       y2="63.893143"
       id="linearGradient3188"
       xlink:href="#linearGradient3737"
       gradientUnits="userSpaceOnUse" />
    <linearGradient
       id="linearGradient3737-6">
      <stop
         id="stop3739-1"
         style="stop-color:#ffffff;stop-opacity:1"
         offset="0" />
      <stop
         id="stop3741-0"
         style="stop-color:#ffffff;stop-opacity:0"
         offset="1" />
    </linearGradient>
    <radialGradient
       cx="48"
       cy="90.171875"
       r="42"
       fx="48"
       fy="90.171875"
       id="radialGradient2874"
       xlink:href="#linearGradient3737-6"
       gradientUnits="userSpaceOnUse"
       gradientTransform="matrix(1.1573129,0,0,0.99590774,-7.551021,0.1971319)" />
    <linearGradient
       id="linearGradient3737-9">
      <stop
         id="stop3739-7"
         style="stop-color:#ffffff;stop-opacity:1"
         offset="0" />
      <stop
         id="stop3741-7"
         style="stop-color:#ffffff;stop-opacity:0"
         offset="1" />
    </linearGradient>
    <clipPath
       id="clipPath3613">
      <rect
         width="84"
         height="84"
         rx="6"
         ry="6"
         x="6"
         y="6"
         id="rect3615"
         style="fill:#ffffff;fill-opacity:1;fill-rule:nonzero;stroke:none" />
    </clipPath>
    <filter
       x="-0.192"
       y="-0.192"
       width="1.3839999"
       height="1.3839999"
       color-interpolation-filters="sRGB"
       id="filter3794-6">
      <feGaussianBlur
         id="feGaussianBlur3796-7"
         stdDeviation="5.28" />
    </filter>
    <linearGradient
       x1="48"
       y1="20.220806"
       x2="48"
       y2="138.66119"
       id="linearGradient2908"
       xlink:href="#linearGradient3737-9"
       gradientUnits="userSpaceOnUse" />
    <linearGradient
       x1="45.447727"
       y1="92.539597"
       x2="45.447727"
       y2="7.0165396"
       id="ButtonShadow-0"
       gradientUnits="userSpaceOnUse"
       gradientTransform="matrix(1.0058652,0,0,0.994169,100,0)">
      <stop
         id="stop3750-8"
         style="stop-color:#000000;stop-opacity:1"
         offset="0" />
      <stop
         id="stop3752-5"
         style="stop-color:#000000;stop-opacity:0.58823532"
         offset="1" />
    </linearGradient>
    <linearGradient
       x1="32.251034"
       y1="6.1317081"
       x2="32.251034"
       y2="90.238609"
       id="linearGradient3780"
       xlink:href="#ButtonShadow-0"
       gradientUnits="userSpaceOnUse"
       gradientTransform="matrix(1.0238095,0,0,1.0119048,-1.1428571,-98.071429)" />
    <linearGradient
       x1="32.251034"
       y1="6.1317081"
       x2="32.251034"
       y2="90.238609"
       id="linearGradient3772"
       xlink:href="#ButtonShadow-0"
       gradientUnits="userSpaceOnUse"
       gradientTransform="matrix(1.0238095,0,0,1.0119048,-1.1428571,-98.071429)" />
    <linearGradient
       x1="32.251034"
       y1="6.1317081"
       x2="32.251034"
       y2="90.238609"
       id="linearGradient3725"
       xlink:href="#ButtonShadow-0"
       gradientUnits="userSpaceOnUse"
       gradientTransform="matrix(1.0238095,0,0,1.0119048,-1.1428571,-98.071429)" />
    <linearGradient
       x1="32.251034"
       y1="6.1317081"
       x2="32.251034"
       y2="90.238609"
       id="linearGradient3721"
       xlink:href="#ButtonShadow-0"
       gradientUnits="userSpaceOnUse"
       gradientTransform="translate(0,-97)" />
    <linearGradient
       x1="32.251034"
       y1="6.1317081"
       x2="32.251034"
       y2="90.238609"
       id="linearGradient3020"
       xlink:href="#ButtonShadow-0"
       gradientUnits="userSpaceOnUse"
       gradientTransform="matrix(1.0238095,0,0,1.0119048,-1.1428571,-98.071429)" />
    <radialGradient
       cx="47.58062"
       cy="65.949036"
       r="42.000011"
       fx="47.58062"
       fy="65.949036"
       id="radialGradient3153"
       xlink:href="#linearGradient3915"
       gradientUnits="userSpaceOnUse"
       gradientTransform="matrix(1.9762999,0,0,1.9962029,-30.752597,-110.3786)" />
    <linearGradient
       id="linearGradient3915">
      <stop
         id="stop3917"
         style="stop-color:#bdd84a;stop-opacity:1"
         offset="0" />
      <stop
         id="stop4331"
         style="stop-color:#96be2c;stop-opacity:0.99607843"
         offset="0.6111111" />
      <stop
         id="stop3919"
         style="stop-color:#6fa40f;stop-opacity:0.99607843"
         offset="1" />
    </linearGradient>
    <clipPath
       id="clipPath4252">
      <path
         d="m 0,35.999999 0,26.412313 c -0.00781333,1.760677 0,3.640398 0,5.643657 l 0,23.888059 c 0,2.003266 -0.00781333,3.882974 0,5.643657 L 0,124 l 26.375,0 43.25,0 26.375,0 0,-26.412315 c 0.0078,-1.760683 0,-3.640391 0,-5.643657 l 0,-23.888059 c 0,-2.003259 0.0078,-3.88298 0,-5.643657 l 0,-26.412313 -26.375,0 -43.25,0 -26.375,0 z"
         inkscape:connector-curvature="0"
         id="path4254"
         style="fill:#ff00ff;fill-opacity:1;stroke:none" />
    </clipPath>
    <filter
       color-interpolation-filters="sRGB"
       id="filter4205">
      <feGaussianBlur
         id="feGaussianBlur4207"
         stdDeviation="0.58615815" />
    </filter>
    <linearGradient
       x1="48.866333"
       y1="87.345551"
       x2="68.408249"
       y2="93.217575"
       id="linearGradient3155"
       xlink:href="#linearGradient3978"
       gradientUnits="userSpaceOnUse"
       spreadMethod="reflect" />
    <linearGradient
       id="linearGradient3978">
      <stop
         id="stop3980"
         style="stop-color:#6d931d;stop-opacity:1"
         offset="0" />
      <stop
         id="stop3982"
         style="stop-color:#547d11;stop-opacity:1"
         offset="1" />
    </linearGradient>
    <linearGradient
       x1="48.811367"
       y1="72.18055"
       x2="78.640907"
       y2="75.955421"
       id="linearGradient3157"
       xlink:href="#linearGradient3970"
       gradientUnits="userSpaceOnUse"
       spreadMethod="reflect" />
    <linearGradient
       id="linearGradient3970">
      <stop
         id="stop3972"
         style="stop-color:#5d891a;stop-opacity:1"
         offset="0" />
      <stop
         id="stop3974"
         style="stop-color:#3b660d;stop-opacity:1"
         offset="1" />
    </linearGradient>
    <linearGradient
       x1="51.072086"
       y1="57.542301"
       x2="84.610764"
       y2="66.528961"
       id="linearGradient3159"
       xlink:href="#linearGradient3962"
       gradientUnits="userSpaceOnUse"
       spreadMethod="reflect" />
    <linearGradient
       id="linearGradient3962">
      <stop
         id="stop3964"
         style="stop-color:#4d8217;stop-opacity:1"
         offset="0" />
      <stop
         id="stop3966"
         style="stop-color:#305e0b;stop-opacity:1"
         offset="1" />
    </linearGradient>
    <radialGradient
       cx="3.9860761"
       cy="114.75382"
       r="54.625"
       fx="3.9860761"
       fy="114.75382"
       id="radialGradient3161"
       xlink:href="#linearGradient3946"
       gradientUnits="userSpaceOnUse"
       gradientTransform="matrix(0.77877229,0,0,0.74468987,38.017133,21.820474)" />
    <linearGradient
       id="linearGradient3946">
      <stop
         id="stop3948"
         style="stop-color:#295a08;stop-opacity:1"
         offset="0" />
      <stop
         id="stop3950"
         style="stop-color:#153903;stop-opacity:0.99607843"
         offset="1" />
    </linearGradient>
    <clipPath
       id="clipPath4194">
      <path
         d="m 36.75,47.375001 c -7.098447,0.116755 -14.605643,0.938733 -22.21875,2.84375 a 5.0004998,5.0004998 0 1 0 2.4375,9.6875 c 30.881003,-7.727311 61.3125,4.8125 61.3125,4.8125 a 5.0144324,5.0144324 0 1 0 3.875,-9.25 c 0,0 -18.462624,-7.836962 -42.375,-8.09375 -0.996349,-0.0107 -2.017186,-0.01668 -3.03125,0 z m 1.03125,18 c -6.273659,0.03688 -13.053152,0.696379 -20.1875,2.40625 a 4.0135573,4.0135573 0 1 0 1.84375,7.8125 c 29.691876,-7.116174 52.71875,4.90625 52.71875,4.90625 a 4.0004,4.0004 0 1 0 3.6875,-7.09375 c 0,0 -14.428844,-7.553625 -35.40625,-8.03125 -0.874059,-0.0199 -1.760013,-0.0053 -2.65625,0 z m -0.46875,16.90625 c -5.506265,-0.02531 -11.565887,0.507181 -18.03125,1.9375 a 3.009912,3.009912 0 1 0 1.3125,5.875 c 27.495824,-6.082848 46.03125,4.78125 46.03125,4.78125 a 3.0041069,3.0041069 0 1 0 3.03125,-5.1875 c 0,0 -11.708641,-6.761304 -30.03125,-7.375 -0.763442,-0.02557 -1.525891,-0.02763 -2.3125,-0.03125 z m -0.875,16.4375 c -25.108554,0 -46.125,19.575999 -46.125,44.093749 0,24.51775 21.016446,44.09375 46.125,44.09375 25.108555,0 46.125,-19.576 46.125,-44.09375 0,-24.51774 -21.016445,-44.093749 -46.125,-44.093749 z m 0,15.687499 c 14.430156,0 25.5625,12.47664 25.5625,27.5 0,15.02335 -11.132344,27.53125 -25.5625,27.53125 -14.43015,0 -25.5625,-12.5079 -25.5625,-27.53125 0,-15.02336 11.13235,-27.5 25.5625,-27.5 z"
         inkscape:connector-curvature="0"
         id="path4196"
         style="font-size:medium;font-style:normal;font-variant:normal;font-weight:normal;font-stretch:normal;text-indent:0;text-align:start;text-decoration:none;line-height:normal;letter-spacing:normal;word-spacing:normal;text-transform:none;direction:ltr;block-progression:tb;writing-mode:lr-tb;text-anchor:start;baseline-shift:baseline;color:#000000;fill:#ff00ff;fill-opacity:1;stroke:none;stroke-width:5.53480864;marker:none;visibility:visible;display:inline;overflow:visible;enable-background:accumulate;font-family:Sans;-inkscape-font-specification:Sans" />
    </clipPath>
    <filter
       color-interpolation-filters="sRGB"
       id="filter4190">
      <feGaussianBlur
         id="feGaussianBlur4192"
         stdDeviation="0.58615815" />
    </filter>
    <clipPath
       id="clipPath3146">
      <rect
         width="144.01041"
         height="144.01041"
         rx="10.286458"
         ry="10.286458"
         x="-8.0052099"
         y="-32.01041"
         id="rect3148"
         style="fill:#ff00ff;fill-opacity:1;fill-rule:nonzero;stroke:none" />
    </clipPath>
  </defs>
  <metadata
     id="metadata2413">
    <rdf:RDF>
      <cc:Work
         rdf:about="">
        <dc:format>image/svg+xml</dc:format>
        <dc:type
           rdf:resource="http://purl.org/dc/dcmitype/StillImage" />
      </cc:Work>
    </rdf:RDF>
  </metadata>
  <g
     id="layer2"
     style="display:none">
    <rect
       width="86"
       height="85"
       rx="6"
       ry="6"
       x="5"
       y="7"
       id="rect3745"
       style="opacity:0.9;fill:url(#ButtonShadow);fill-opacity:1;fill-rule:nonzero;stroke:none;filter:url(#filter3174)" />
  </g>
  <g
     id="layer4"
     style="display:inline">
    <path
       d="m 12,-95.03125 c -5.5110903,0 -10.03125,4.52016 -10.03125,10.03125 l 0,71 c 0,5.5110902 4.5201598,10.03125 10.03125,10.03125 l 72,0 c 5.51109,0 10.03125,-4.5201597 10.03125,-10.03125 l 0,-71 c 0,-5.51109 -4.52016,-10.03125 -10.03125,-10.03125 l -72,0 z"
       transform="scale(1,-1)"
       id="path3786"
       style="opacity:0.07999998;fill:url(#linearGradient3020);fill-opacity:1;fill-rule:nonzero;stroke:none;display:inline" />
    <path
       d="m 12,-94.03125 c -4.971633,0 -9.03125,4.059617 -9.03125,9.03125 l 0,71 c 0,4.9716329 4.0596171,9.03125 9.03125,9.03125 l 72,0 c 4.971633,0 9.03125,-4.059617 9.03125,-9.03125 l 0,-71 c 0,-4.971633 -4.059617,-9.03125 -9.03125,-9.03125 l -72,0 z"
       transform="scale(1,-1)"
       id="path3778"
       style="opacity:0.1;fill:url(#linearGradient3780);fill-opacity:1;fill-rule:nonzero;stroke:none;display:inline" />
    <path
       d="m 12,-93 c -4.4091333,0 -8,3.590867 -8,8 l 0,71 c 0,4.4091333 3.5908667,8 8,8 l 72,0 c 4.409133,0 8,-3.5908667 8,-8 l 0,-71 c 0,-4.409133 -3.590867,-8 -8,-8 l -72,0 z"
       transform="scale(1,-1)"
       id="path3770"
       style="opacity:0.2;fill:url(#linearGradient3772);fill-opacity:1;fill-rule:nonzero;stroke:none;display:inline" />
    <rect
       width="86"
       height="85"
       rx="7"
       ry="7"
       x="5"
       y="-92"
       transform="scale(1,-1)"
       id="rect3723"
       style="opacity:0.3;fill:url(#linearGradient3725);fill-opacity:1;fill-rule:nonzero;stroke:none;display:inline" />
    <rect
       width="84"
       height="84"
       rx="6"
       ry="6"
       x="6"
       y="-91"
       transform="scale(1,-1)"
       id="rect3716"
       style="opacity:0.45;fill:url(#linearGradient3721);fill-opacity:1;fill-rule:nonzero;stroke:none;display:inline" />
  </g>
  <g
     id="layer1">
    <g
       transform="matrix(0.58329117,0,0,0.58329117,10.669368,24.67139)"
       clip-path="url(#clipPath3146)"
       id="g3142">
      <path
         d="m -8,-39.144096 0,57.362846 c -0.01172,2.68103 0,5.543333 0,8.59375 l 0,36.375 c 0,3.050428 -0.01172,5.91271 0,8.59375 L -8,112 31.5625,112 96.437501,112 136,112 136,71.78125 c 0.0117,-2.68104 0,-5.543322 0,-8.59375 l 0,-36.375 c 0,-3.050417 0.0117,-5.91272 0,-8.59375 l 0,-57.362846 -39.562499,0 -64.875001,0 z"
         inkscape:connector-curvature="0"
         id="path8459"
         style="fill:url(#radialGradient3153);fill-opacity:1;stroke:none" />
      <g
         transform="matrix(1.5,0,0,1.5227273,-8,-76.818182)"
         clip-path="url(#clipPath4252)"
         id="g4209">
        <path
           d="m 36.75,47.375001 c -7.098447,0.116755 -14.605643,0.938733 -22.21875,2.84375 a 5.0004998,5.0004998 0 1 0 2.4375,9.6875 c 30.881003,-7.727311 61.3125,4.8125 61.3125,4.8125 a 5.0144324,5.0144324 0 1 0 3.875,-9.25 c 0,0 -18.462624,-7.836962 -42.375,-8.09375 -0.996349,-0.0107 -2.017186,-0.01668 -3.03125,0 z m 1.03125,18 c -6.273659,0.03688 -13.053152,0.696379 -20.1875,2.40625 a 4.0135573,4.0135573 0 1 0 1.84375,7.8125 c 29.691876,-7.116174 52.71875,4.90625 52.71875,4.90625 a 4.0004,4.0004 0 1 0 3.6875,-7.09375 c 0,0 -14.428844,-7.553625 -35.40625,-8.03125 -0.874059,-0.0199 -1.760013,-0.0053 -2.65625,0 z m -0.46875,16.90625 c -5.506265,-0.02531 -11.565887,0.507181 -18.03125,1.9375 a 3.009912,3.009912 0 1 0 1.3125,5.875 c 27.495824,-6.082848 46.03125,4.78125 46.03125,4.78125 a 3.0041069,3.0041069 0 1 0 3.03125,-5.1875 c 0,0 -11.708641,-6.761304 -30.03125,-7.375 -0.763442,-0.02557 -1.525891,-0.02763 -2.3125,-0.03125 z m -0.875,16.4375 c -25.108554,0 -46.125,19.575999 -46.125,44.093749 0,24.51775 21.016446,44.09375 46.125,44.09375 25.108555,0 46.125,-19.576 46.125,-44.09375 0,-24.51774 -21.016445,-44.093749 -46.125,-44.093749 z m 0,15.687499 c 14.430156,0 25.5625,12.47664 25.5625,27.5 0,15.02335 -11.132344,27.53125 -25.5625,27.53125 -14.43015,0 -25.5625,-12.5079 -25.5625,-27.53125 0,-15.02336 11.13235,-27.5 25.5625,-27.5 z"
           inkscape:connector-curvature="0"
           id="path4153-5"
           style="font-size:medium;font-style:normal;font-variant:normal;font-weight:normal;font-stretch:normal;text-indent:0;text-align:start;text-decoration:none;line-height:normal;letter-spacing:normal;word-spacing:normal;text-transform:none;direction:ltr;block-progression:tb;writing-mode:lr-tb;text-anchor:start;baseline-shift:baseline;opacity:0.3;color:#000000;fill:#ffffff;fill-opacity:1;stroke:#ffffff;stroke-width:1.71440959;stroke-miterlimit:4;stroke-dasharray:none;marker:none;visibility:visible;display:inline;overflow:visible;filter:url(#filter4205);enable-background:accumulate;font-family:Sans;-inkscape-font-specification:Sans" />
        <g
           transform="matrix(1.0840483,0,0,1.0840483,-7.2484432,-9.1057811)"
           id="g4180">
          <path
             d="m 43.25,84.34375 c -5.634008,-0.188705 -11.965146,0.242087 -18.78125,1.75 A 2.7709606,2.7709606 0 1 0 25.6875,91.5 c 25.364021,-5.611233 42.46875,4.40625 42.46875,4.40625 A 2.7676811,2.7676811 0 1 0 70.9375,91.125 c 0,0 -10.785477,-6.215135 -27.6875,-6.78125 z"
             inkscape:connector-curvature="0"
             id="path3767"
             style="font-size:medium;font-style:normal;font-variant:normal;font-weight:normal;font-stretch:normal;text-indent:0;text-align:start;text-decoration:none;line-height:normal;letter-spacing:normal;word-spacing:normal;text-transform:none;direction:ltr;block-progression:tb;writing-mode:lr-tb;text-anchor:start;baseline-shift:baseline;color:#000000;fill:url(#linearGradient3155);fill-opacity:1;stroke:none;stroke-width:5.53480864;marker:none;visibility:visible;display:inline;overflow:visible;enable-background:accumulate;font-family:Sans;-inkscape-font-specification:Sans" />
          <path
             d="M 44,68.71875 C 37.549671,68.571885 30.427631,69.13487 22.90625,70.9375 A 3.695073,3.695073 0 1 0 24.625,78.125 C 52.014809,71.560556 73.25,82.65625 73.25,82.65625 A 3.6902415,3.6902415 0 1 0 76.65625,76.125 c 0,0 -13.305262,-6.965656 -32.65625,-7.40625 z"
             inkscape:connector-curvature="0"
             id="path37"
             style="font-size:medium;font-style:normal;font-variant:normal;font-weight:normal;font-stretch:normal;text-indent:0;text-align:start;text-decoration:none;line-height:normal;letter-spacing:normal;word-spacing:normal;text-transform:none;direction:ltr;block-progression:tb;writing-mode:lr-tb;text-anchor:start;baseline-shift:baseline;color:#000000;fill:url(#linearGradient3157);fill-opacity:1;stroke:none;stroke-width:7.37974501;marker:none;visibility:visible;display:inline;overflow:visible;enable-background:accumulate;font-family:Sans;-inkscape-font-specification:Sans" />
          <path
             d="m 43.375,52.09375 c -7.352802,-0.07896 -15.255137,0.616637 -23.28125,2.625 a 4.6128017,4.6128017 0 1 0 2.25,8.9375 c 28.486741,-7.128198 56.5625,4.4375 56.5625,4.4375 a 4.6225976,4.6225976 0 1 0 3.5625,-8.53125 c 0,0 -17.035345,-7.231871 -39.09375,-7.46875 z"
             inkscape:connector-curvature="0"
             id="path39"
             style="font-size:medium;font-style:normal;font-variant:normal;font-weight:normal;font-stretch:normal;text-indent:0;text-align:start;text-decoration:none;line-height:normal;letter-spacing:normal;word-spacing:normal;text-transform:none;direction:ltr;block-progression:tb;writing-mode:lr-tb;text-anchor:start;baseline-shift:baseline;color:#000000;fill:url(#linearGradient3159);fill-opacity:1;stroke:none;stroke-width:9.2246809;marker:none;visibility:visible;display:inline;overflow:visible;enable-background:accumulate;font-family:Sans;-inkscape-font-specification:Sans" />
          <path
             d="m 40.304777,99.46603 c -23.161841,0 -42.5404367,18.04967 -42.5404367,40.66651 0,22.61684 19.3785957,40.69086 42.5404367,40.69086 23.161842,0 42.540436,-18.07402 42.540436,-40.69086 0,-22.61683 -19.378594,-40.66651 -42.540436,-40.66651 z m 0,14.4803 c 13.311359,0 23.582198,11.5002 23.582198,25.35877 0,13.85856 -10.270839,25.40744 -23.582198,25.40744 -13.311353,0 -23.582199,-11.54888 -23.582199,-25.40744 0,-13.85857 10.270846,-25.35877 23.582199,-25.35877 z"
             inkscape:connector-curvature="0"
             id="path3943"
             style="font-size:medium;font-style:normal;font-variant:normal;font-weight:normal;font-stretch:normal;text-indent:0;text-align:start;text-decoration:none;line-height:normal;letter-spacing:normal;word-spacing:normal;text-transform:none;direction:ltr;block-progression:tb;writing-mode:lr-tb;text-anchor:start;baseline-shift:baseline;color:#000000;fill:url(#radialGradient3161);fill-opacity:1;stroke:none;stroke-width:20.68722153;marker:none;visibility:visible;display:inline;overflow:visible;enable-background:accumulate;font-family:Sans;-inkscape-font-specification:Sans" />
        </g>
        <path
           d="m 36.75,47.375001 c -7.098447,0.116755 -14.605643,0.938733 -22.21875,2.84375 a 5.0004998,5.0004998 0 1 0 2.4375,9.6875 c 30.881003,-7.727311 61.3125,4.8125 61.3125,4.8125 a 5.0144324,5.0144324 0 1 0 3.875,-9.25 c 0,0 -18.462624,-7.836962 -42.375,-8.09375 -0.996349,-0.0107 -2.017186,-0.01668 -3.03125,0 z m 1.03125,18 c -6.273659,0.03688 -13.053152,0.696379 -20.1875,2.40625 a 4.0135573,4.0135573 0 1 0 1.84375,7.8125 c 29.691876,-7.116174 52.71875,4.90625 52.71875,4.90625 a 4.0004,4.0004 0 1 0 3.6875,-7.09375 c 0,0 -14.428844,-7.553625 -35.40625,-8.03125 -0.874059,-0.0199 -1.760013,-0.0053 -2.65625,0 z m -0.46875,16.90625 c -5.506265,-0.02531 -11.565887,0.507181 -18.03125,1.9375 a 3.009912,3.009912 0 1 0 1.3125,5.875 c 27.495824,-6.082848 46.03125,4.78125 46.03125,4.78125 a 3.0041069,3.0041069 0 1 0 3.03125,-5.1875 c 0,0 -11.708641,-6.761304 -30.03125,-7.375 -0.763442,-0.02557 -1.525891,-0.02763 -2.3125,-0.03125 z m -0.875,16.4375 c -25.108554,0 -46.125,19.575999 -46.125,44.093749 0,24.51775 21.016446,44.09375 46.125,44.09375 25.108555,0 46.125,-19.576 46.125,-44.09375 0,-24.51774 -21.016445,-44.093749 -46.125,-44.093749 z m 0,15.687499 c 14.430156,0 25.5625,12.47664 25.5625,27.5 0,15.02335 -11.132344,27.53125 -25.5625,27.53125 -14.43015,0 -25.5625,-12.5079 -25.5625,-27.53125 0,-15.02336 11.13235,-27.5 25.5625,-27.5 z"
           inkscape:connector-curvature="0"
           clip-path="url(#clipPath4194)"
           id="path4153"
           style="font-size:medium;font-style:normal;font-variant:normal;font-weight:normal;font-stretch:normal;text-indent:0;text-align:start;text-decoration:none;line-height:normal;letter-spacing:normal;word-spacing:normal;text-transform:none;direction:ltr;block-progression:tb;writing-mode:lr-tb;text-anchor:start;baseline-shift:baseline;opacity:0.4;color:#000000;fill:none;stroke:#000000;stroke-width:1.71440959;stroke-miterlimit:4;stroke-dasharray:none;marker:none;visibility:visible;display:inline;overflow:visible;filter:url(#filter4190);enable-background:accumulate;font-family:Sans;-inkscape-font-specification:Sans" />
      </g>
    </g>
    <path
       d="M 12,6 C 8.676,6 6,8.676 6,12 l 0,2 0,68 0,2 c 0,0.334721 0.04135,0.6507 0.09375,0.96875 0.0487,0.295596 0.09704,0.596915 0.1875,0.875 0.00988,0.03038 0.020892,0.0636 0.03125,0.09375 0.098865,0.287771 0.2348802,0.547452 0.375,0.8125 0.1445918,0.273507 0.3156161,0.535615 0.5,0.78125 0.1843839,0.245635 0.3737765,0.473472 0.59375,0.6875 0.439947,0.428056 0.94291,0.814526 1.5,1.09375 0.278545,0.139612 0.5734731,0.246947 0.875,0.34375 -0.2562018,-0.100222 -0.4867109,-0.236272 -0.71875,-0.375 -0.00741,-0.0044 -0.023866,0.0045 -0.03125,0 -0.031933,-0.0193 -0.062293,-0.04251 -0.09375,-0.0625 -0.120395,-0.0767 -0.2310226,-0.163513 -0.34375,-0.25 -0.1061728,-0.0808 -0.2132809,-0.161112 -0.3125,-0.25 C 8.4783201,88.557317 8.3087904,88.373362 8.15625,88.1875 8.0486711,88.057245 7.9378561,87.922215 7.84375,87.78125 7.818661,87.74287 7.805304,87.69538 7.78125,87.65625 7.716487,87.553218 7.6510225,87.451733 7.59375,87.34375 7.4927417,87.149044 7.3880752,86.928049 7.3125,86.71875 7.30454,86.69694 7.288911,86.6782 7.28125,86.65625 7.2494249,86.5643 7.2454455,86.469419 7.21875,86.375 7.1884177,86.268382 7.1483606,86.171969 7.125,86.0625 7.0521214,85.720988 7,85.364295 7,85 L 7,83 7,15 7,13 C 7,10.218152 9.2181517,8 12,8 l 2,0 68,0 2,0 c 2.781848,0 5,2.218152 5,5 l 0,2 0,68 0,2 c 0,0.364295 -0.05212,0.720988 -0.125,1.0625 -0.04415,0.206893 -0.08838,0.397658 -0.15625,0.59375 -0.0077,0.02195 -0.0233,0.04069 -0.03125,0.0625 -0.06274,0.173739 -0.138383,0.367449 -0.21875,0.53125 -0.04158,0.0828 -0.07904,0.169954 -0.125,0.25 -0.0546,0.09721 -0.126774,0.18835 -0.1875,0.28125 -0.09411,0.140965 -0.204921,0.275995 -0.3125,0.40625 -0.143174,0.17445 -0.303141,0.346998 -0.46875,0.5 -0.01117,0.0102 -0.01998,0.02115 -0.03125,0.03125 -0.138386,0.125556 -0.285091,0.234436 -0.4375,0.34375 -0.102571,0.07315 -0.204318,0.153364 -0.3125,0.21875 -0.0074,0.0045 -0.02384,-0.0044 -0.03125,0 -0.232039,0.138728 -0.462548,0.274778 -0.71875,0.375 0.301527,-0.0968 0.596455,-0.204138 0.875,-0.34375 0.55709,-0.279224 1.060053,-0.665694 1.5,-1.09375 0.219973,-0.214028 0.409366,-0.441865 0.59375,-0.6875 0.184384,-0.245635 0.355408,-0.507743 0.5,-0.78125 0.14012,-0.265048 0.276135,-0.524729 0.375,-0.8125 0.01041,-0.03078 0.02133,-0.06274 0.03125,-0.09375 0.09046,-0.278085 0.1388,-0.579404 0.1875,-0.875 C 89.95865,84.6507 90,84.334721 90,84 l 0,-2 0,-68 0,-2 C 90,8.676 87.324,6 84,6 L 12,6 z"
       inkscape:connector-curvature="0"
       id="rect3728"
       style="opacity:0.5;fill:url(#linearGradient3188);fill-opacity:1;fill-rule:nonzero;stroke:none" />
    <path
       d="M 12,90 C 8.676,90 6,87.324 6,84 L 6,82 6,14 6,12 c 0,-0.334721 0.04135,-0.6507 0.09375,-0.96875 0.0487,-0.295596 0.09704,-0.596915 0.1875,-0.875 C 6.29113,10.12587 6.302142,10.09265 6.3125,10.0625 6.411365,9.774729 6.5473802,9.515048 6.6875,9.25 6.8320918,8.976493 7.0031161,8.714385 7.1875,8.46875 7.3718839,8.223115 7.5612765,7.995278 7.78125,7.78125 8.221197,7.353194 8.72416,6.966724 9.28125,6.6875 9.559795,6.547888 9.8547231,6.440553 10.15625,6.34375 9.9000482,6.443972 9.6695391,6.580022 9.4375,6.71875 c -0.00741,0.0044 -0.023866,-0.0045 -0.03125,0 -0.031933,0.0193 -0.062293,0.04251 -0.09375,0.0625 -0.120395,0.0767 -0.2310226,0.163513 -0.34375,0.25 -0.1061728,0.0808 -0.2132809,0.161112 -0.3125,0.25 C 8.4783201,7.442683 8.3087904,7.626638 8.15625,7.8125 8.0486711,7.942755 7.9378561,8.077785 7.84375,8.21875 7.818661,8.25713 7.805304,8.30462 7.78125,8.34375 7.716487,8.446782 7.6510225,8.548267 7.59375,8.65625 7.4927417,8.850956 7.3880752,9.071951 7.3125,9.28125 7.30454,9.30306 7.288911,9.3218 7.28125,9.34375 7.2494249,9.4357 7.2454455,9.530581 7.21875,9.625 7.1884177,9.731618 7.1483606,9.828031 7.125,9.9375 7.0521214,10.279012 7,10.635705 7,11 l 0,2 0,68 0,2 c 0,2.781848 2.2181517,5 5,5 l 2,0 68,0 2,0 c 2.781848,0 5,-2.218152 5,-5 l 0,-2 0,-68 0,-2 C 89,10.635705 88.94788,10.279012 88.875,9.9375 88.83085,9.730607 88.78662,9.539842 88.71875,9.34375 88.71105,9.3218 88.69545,9.30306 88.6875,9.28125 88.62476,9.107511 88.549117,8.913801 88.46875,8.75 88.42717,8.6672 88.38971,8.580046 88.34375,8.5 88.28915,8.40279 88.216976,8.31165 88.15625,8.21875 88.06214,8.077785 87.951329,7.942755 87.84375,7.8125 87.700576,7.63805 87.540609,7.465502 87.375,7.3125 87.36383,7.3023 87.35502,7.29135 87.34375,7.28125 87.205364,7.155694 87.058659,7.046814 86.90625,6.9375 86.803679,6.86435 86.701932,6.784136 86.59375,6.71875 c -0.0074,-0.0045 -0.02384,0.0044 -0.03125,0 -0.232039,-0.138728 -0.462548,-0.274778 -0.71875,-0.375 0.301527,0.0968 0.596455,0.204138 0.875,0.34375 0.55709,0.279224 1.060053,0.665694 1.5,1.09375 0.219973,0.214028 0.409366,0.441865 0.59375,0.6875 0.184384,0.245635 0.355408,0.507743 0.5,0.78125 0.14012,0.265048 0.276135,0.524729 0.375,0.8125 0.01041,0.03078 0.02133,0.06274 0.03125,0.09375 0.09046,0.278085 0.1388,0.579404 0.1875,0.875 C 89.95865,11.3493 90,11.665279 90,12 l 0,2 0,68 0,2 c 0,3.324 -2.676,6 -6,6 l -72,0 z"
       inkscape:connector-curvature="0"
       id="path3615"
       style="opacity:0.25;fill:url(#radialGradient2874);fill-opacity:1;fill-rule:nonzero;stroke:none" />
  </g>
  <g
     id="layer5"
     style="display:inline">
    <rect
       width="66"
       height="66"
       rx="12"
       ry="12"
       x="15"
       y="15"
       clip-path="url(#clipPath3613)"
       id="rect3171"
       style="opacity:0.15;fill:url(#linearGradient2908);fill-opacity:1;fill-rule:nonzero;stroke:#ffffff;stroke-width:0.5;stroke-linecap:round;stroke-linejoin:miter;stroke-miterlimit:4;stroke-opacity:1;stroke-dasharray:none;stroke-dashoffset:0;filter:url(#filter3794-6)" />
  </g>
</svg>
