<?xml version="1.0" encoding="UTF-8" standalone="no"?>
<!-- Created with Inkscape (http://www.inkscape.org/) -->

<svg
   xmlns:dc="http://purl.org/dc/elements/1.1/"
   xmlns:cc="http://creativecommons.org/ns#"
   xmlns:rdf="http://www.w3.org/1999/02/22-rdf-syntax-ns#"
   xmlns:svg="http://www.w3.org/2000/svg"
   xmlns="http://www.w3.org/2000/svg"
   xmlns:xlink="http://www.w3.org/1999/xlink"
   xmlns:inkscape="http://www.inkscape.org/namespaces/inkscape"
   version="1.0"
   width="96"
   height="96"
   id="svg2408">
  <defs
     id="defs2410">
    <linearGradient
       id="linearGradient4230">
      <stop
         id="stop4232"
         style="stop-color:#000000;stop-opacity:1"
         offset="0" />
      <stop
         id="stop4234"
         style="stop-color:#000000;stop-opacity:0"
         offset="1" />
    </linearGradient>
    <linearGradient
       id="linearGradient4156">
      <stop
         id="stop4158"
         style="stop-color:#ffffff;stop-opacity:1"
         offset="0" />
      <stop
         id="stop4160"
         style="stop-color:#545454;stop-opacity:1"
         offset="1" />
    </linearGradient>
    <linearGradient
       id="linearGradient4031">
      <stop
         id="stop4033"
         style="stop-color:#ffffff;stop-opacity:1"
         offset="0" />
      <stop
         id="stop4035"
         style="stop-color:#ffffff;stop-opacity:0"
         offset="1" />
    </linearGradient>
    <linearGradient
       id="linearGradient4314">
      <stop
         id="stop4316"
         style="stop-color:#ffffff;stop-opacity:1"
         offset="0" />
      <stop
         id="stop4322"
         style="stop-color:#ffffff;stop-opacity:0.49803922"
         offset="0.30000001" />
      <stop
         id="stop4318"
         style="stop-color:#ffffff;stop-opacity:0"
         offset="1" />
    </linearGradient>
    <linearGradient
       x1="45.447727"
       y1="92.539597"
       x2="45.447727"
       y2="7.0165396"
       id="ButtonShadow"
       gradientUnits="userSpaceOnUse"
       gradientTransform="scale(1.0058652,0.994169)">
      <stop
         id="stop3750"
         style="stop-color:#000000;stop-opacity:1"
         offset="0" />
      <stop
         id="stop3752"
         style="stop-color:#000000;stop-opacity:0.58823532"
         offset="1" />
    </linearGradient>
    <linearGradient
       id="linearGradient3737">
      <stop
         id="stop3739"
         style="stop-color:#ffffff;stop-opacity:1"
         offset="0" />
      <stop
         id="stop3741"
         style="stop-color:#ffffff;stop-opacity:0"
         offset="1" />
    </linearGradient>
    <filter
       color-interpolation-filters="sRGB"
       id="filter3174">
      <feGaussianBlur
         id="feGaussianBlur3176"
         stdDeviation="1.71" />
    </filter>
    <linearGradient
       x1="36.357143"
       y1="6"
       x2="36.357143"
       y2="63.893143"
       id="linearGradient3188"
       xlink:href="#linearGradient3737"
       gradientUnits="userSpaceOnUse" />
    <filter
       x="-0.192"
       y="-0.192"
       width="1.3839999"
       height="1.3839999"
       color-interpolation-filters="sRGB"
       id="filter3794">
      <feGaussianBlur
         id="feGaussianBlur3796"
         stdDeviation="5.28" />
    </filter>
    <linearGradient
       x1="48"
       y1="20.220806"
       x2="48"
       y2="138.66119"
       id="linearGradient3613"
       xlink:href="#linearGradient3737"
       gradientUnits="userSpaceOnUse" />
    <radialGradient
       cx="48"
       cy="90.171875"
       r="42"
       fx="48"
       fy="90.171875"
       id="radialGradient3619"
       xlink:href="#linearGradient3737"
       gradientUnits="userSpaceOnUse"
       gradientTransform="matrix(1.1573129,0,0,0.99590774,-7.5510206,0.19713193)" />
    <clipPath
       id="clipPath3613">
      <rect
         width="84"
         height="84"
         rx="6"
         ry="6"
         x="6"
         y="6"
         id="rect3615"
         style="fill:#ffffff;fill-opacity:1;fill-rule:nonzero;stroke:none" />
    </clipPath>
    <linearGradient
       x1="48"
       y1="90"
       x2="48"
       y2="5.9877172"
       id="linearGradient3617"
       xlink:href="#linearGradient3187"
       gradientUnits="userSpaceOnUse" />
    <linearGradient
       id="linearGradient3187">
      <stop
         id="stop3189"
         style="stop-color:#282828;stop-opacity:1"
         offset="0" />
      <stop
         id="stop3191"
         style="stop-color:#5a5a5a;stop-opacity:1"
         offset="1" />
    </linearGradient>
    <linearGradient
       id="linearGradient3386">
      <stop
         id="stop3388"
         style="stop-color:#eeeeec;stop-opacity:1"
         offset="0" />
      <stop
         id="stop3390"
         style="stop-color:#eeeeec;stop-opacity:0"
         offset="1" />
    </linearGradient>
    <radialGradient
       cx="53.419292"
       cy="66.597893"
       r="47.724609"
       fx="53.419292"
       fy="66.597893"
       id="radialGradient3904"
       xlink:href="#linearGradient3386"
       gradientUnits="userSpaceOnUse"
       gradientTransform="matrix(1.0164118,0,0,1.2415079,-19.337623,-31.113008)" />
    <radialGradient
       cx="53.419292"
       cy="66.597893"
       r="47.724609"
       fx="53.419292"
       fy="66.597893"
       id="radialGradient3929"
       xlink:href="#linearGradient3386"
       gradientUnits="userSpaceOnUse"
       gradientTransform="matrix(1.0220726,0,0,1.2415079,-19.896446,-47.863009)" />
    <radialGradient
       cx="53.419292"
       cy="66.597893"
       r="47.724609"
       fx="53.419292"
       fy="66.597893"
       id="radialGradient3933"
       xlink:href="#linearGradient3386"
       gradientUnits="userSpaceOnUse"
       gradientTransform="matrix(1.4750367,0,0,0.847859,-55.736923,-9.8942437)" />
    <radialGradient
       cx="53.419292"
       cy="66.597893"
       r="47.724609"
       fx="53.419292"
       fy="66.597893"
       id="radialGradient3937"
       xlink:href="#linearGradient3386"
       gradientUnits="userSpaceOnUse"
       gradientTransform="matrix(1.4750367,0,0,0.847859,-77.736923,-9.8942437)" />
    <radialGradient
       cx="53.419292"
       cy="66.597893"
       r="47.724609"
       fx="53.419292"
       fy="66.597893"
       id="radialGradient4114"
       xlink:href="#linearGradient3386"
       gradientUnits="userSpaceOnUse"
       gradientTransform="matrix(1.0199392,0,0,0.85846172,-19.873341,-11.926904)" />
    <radialGradient
       cx="53.419292"
       cy="66.597893"
       r="47.724609"
       fx="53.419292"
       fy="66.597893"
       id="radialGradient4116"
       xlink:href="#linearGradient3386"
       gradientUnits="userSpaceOnUse"
       gradientTransform="matrix(1.0199392,0,0,0.85846172,-19.685841,-9.268213)" />
    <linearGradient
       id="linearGradient3299">
      <stop
         id="stop3301"
         style="stop-color:#dfdfdf;stop-opacity:1"
         offset="0" />
      <stop
         id="stop3303"
         style="stop-color:#434343;stop-opacity:1"
         offset="1" />
    </linearGradient>
    <linearGradient
       id="linearGradient3273">
      <stop
         id="stop3275"
         style="stop-color:#5d5d5d;stop-opacity:1"
         offset="0" />
      <stop
         id="stop3277"
         style="stop-color:#171717;stop-opacity:1"
         offset="1" />
    </linearGradient>
    <linearGradient
       id="linearGradient3289">
      <stop
         id="stop3291"
         style="stop-color:#919191;stop-opacity:1"
         offset="0" />
      <stop
         id="stop3293"
         style="stop-color:#232323;stop-opacity:1"
         offset="1" />
    </linearGradient>
    <linearGradient
       id="linearGradient3260"
       gradientUnits="userSpaceOnUse">
      <stop
         id="stop3262"
         style="stop-color:#000000;stop-opacity:1"
         offset="0" />
      <stop
         id="stop3266"
         style="stop-color:#000000;stop-opacity:0.3548387"
         offset="0.2" />
      <stop
         id="stop3268"
         style="stop-color:#000000;stop-opacity:0"
         offset="0.55254942" />
      <stop
         id="stop3264"
         style="stop-color:#000000;stop-opacity:0"
         offset="1" />
    </linearGradient>
    <linearGradient
       x1="43.476658"
       y1="26"
       x2="43.476658"
       y2="34.001266"
       id="linearGradient4262"
       xlink:href="#linearGradient3260"
       gradientUnits="userSpaceOnUse"
       gradientTransform="matrix(0.72413795,0,0,0.75,1.6551725,4.5)" />
    <linearGradient
       x1="48"
       y1="16"
       x2="48"
       y2="11.924657"
       id="linearGradient4310"
       xlink:href="#linearGradient3260"
       gradientUnits="userSpaceOnUse"
       gradientTransform="matrix(1,0,0,1.25,0,-4.5982122)" />
    <linearGradient
       x1="50.464287"
       y1="16.035713"
       x2="50.464287"
       y2="20.329885"
       id="linearGradient4320"
       xlink:href="#linearGradient4314"
       gradientUnits="userSpaceOnUse"
       gradientTransform="translate(0,-0.67856979)" />
    <linearGradient
       x1="48"
       y1="16"
       x2="48"
       y2="11.924657"
       id="linearGradient4326"
       xlink:href="#linearGradient3260"
       gradientUnits="userSpaceOnUse"
       gradientTransform="matrix(1,0,0,1.25,0,4.4017878)" />
    <linearGradient
       x1="11"
       y1="10.441942"
       x2="16"
       y2="24"
       id="linearGradient4371"
       xlink:href="#linearGradient3273"
       gradientUnits="userSpaceOnUse"
       gradientTransform="matrix(0.81330712,0,0,0.81132563,3.9935431,2.0281849)" />
    <linearGradient
       x1="13.125"
       y1="9.9419422"
       x2="19.25"
       y2="24.5"
       id="linearGradient4373"
       xlink:href="#linearGradient3289"
       gradientUnits="userSpaceOnUse"
       gradientTransform="matrix(0.81330712,0,0,0.81132563,3.9935431,2.0281849)" />
    <radialGradient
       cx="11.3125"
       cy="14.9375"
       r="1.4375"
       fx="11.3125"
       fy="14.9375"
       id="radialGradient4375"
       xlink:href="#linearGradient3299"
       gradientUnits="userSpaceOnUse" />
    <radialGradient
       cx="11.3125"
       cy="14.9375"
       r="1.4375"
       fx="11.3125"
       fy="14.9375"
       id="radialGradient4377"
       xlink:href="#linearGradient3299"
       gradientUnits="userSpaceOnUse" />
    <radialGradient
       cx="11.3125"
       cy="14.9375"
       r="1.4375"
       fx="11.3125"
       fy="14.9375"
       id="radialGradient4379"
       xlink:href="#linearGradient3299"
       gradientUnits="userSpaceOnUse" />
    <linearGradient
       x1="45.447727"
       y1="92.539597"
       x2="45.447727"
       y2="7.0165396"
       id="ButtonShadow-0"
       gradientUnits="userSpaceOnUse"
       gradientTransform="matrix(1.0058652,0,0,0.994169,100,0)">
      <stop
         id="stop3750-8"
         style="stop-color:#000000;stop-opacity:1"
         offset="0" />
      <stop
         id="stop3752-5"
         style="stop-color:#000000;stop-opacity:0.58823532"
         offset="1" />
    </linearGradient>
    <linearGradient
       x1="32.251034"
       y1="6.1317081"
       x2="32.251034"
       y2="90.238609"
       id="linearGradient3780"
       xlink:href="#ButtonShadow-0"
       gradientUnits="userSpaceOnUse"
       gradientTransform="matrix(1.0238095,0,0,1.0119048,-1.1428571,-98.071429)" />
    <linearGradient
       x1="32.251034"
       y1="6.1317081"
       x2="32.251034"
       y2="90.238609"
       id="linearGradient3772"
       xlink:href="#ButtonShadow-0"
       gradientUnits="userSpaceOnUse"
       gradientTransform="matrix(1.0238095,0,0,1.0119048,-1.1428571,-98.071429)" />
    <linearGradient
       x1="32.251034"
       y1="6.1317081"
       x2="32.251034"
       y2="90.238609"
       id="linearGradient3725"
       xlink:href="#ButtonShadow-0"
       gradientUnits="userSpaceOnUse"
       gradientTransform="matrix(1.0238095,0,0,1.0119048,-1.1428571,-98.071429)" />
    <linearGradient
       x1="32.251034"
       y1="6.1317081"
       x2="32.251034"
       y2="90.238609"
       id="linearGradient3721"
       xlink:href="#ButtonShadow-0"
       gradientUnits="userSpaceOnUse"
       gradientTransform="translate(0,-97)" />
    <linearGradient
       x1="32.251034"
       y1="6.1317081"
       x2="32.251034"
       y2="90.238609"
       id="linearGradient3811"
       xlink:href="#ButtonShadow-0"
       gradientUnits="userSpaceOnUse"
       gradientTransform="matrix(1.0238095,0,0,1.0119048,-1.1428571,-98.071429)" />
    <radialGradient
       cx="47.988014"
       cy="55.9258"
       r="30.644978"
       fx="47.988014"
       fy="55.9258"
       id="radialGradient4037"
       xlink:href="#linearGradient4031"
       gradientUnits="userSpaceOnUse" />
    <linearGradient
       id="linearGradient4015">
      <stop
         id="stop4017"
         style="stop-color:#a3a3a3;stop-opacity:1"
         offset="0" />
      <stop
         id="stop4166"
         style="stop-color:#c7c7c7;stop-opacity:1"
         offset="0.32695314" />
      <stop
         id="stop4168"
         style="stop-color:#dedede;stop-opacity:1"
         offset="0.67500001" />
      <stop
         id="stop4019"
         style="stop-color:#f5f5f5;stop-opacity:1"
         offset="1" />
    </linearGradient>
    <linearGradient
       x1="42.628178"
       y1="52.770008"
       x2="46.097668"
       y2="75.759666"
       id="linearGradient4162"
       xlink:href="#linearGradient4156"
       gradientUnits="userSpaceOnUse" />
    <linearGradient
       x1="8.9718256"
       y1="15.022491"
       x2="8.9718256"
       y2="4.9502482"
       id="linearGradient4164"
       xlink:href="#linearGradient4015"
       gradientUnits="userSpaceOnUse" />
    <linearGradient
       x1="8.9718256"
       y1="15.022491"
       x2="8.9718256"
       y2="4.9502482"
       id="linearGradient4190"
       xlink:href="#linearGradient4015"
       gradientUnits="userSpaceOnUse" />
    <linearGradient
       x1="8.9718256"
       y1="15.022491"
       x2="8.9718256"
       y2="4.9502482"
       id="linearGradient4194"
       xlink:href="#linearGradient4015"
       gradientUnits="userSpaceOnUse" />
    <linearGradient
       x1="8.9718256"
       y1="15.022491"
       x2="8.9718256"
       y2="4.9502482"
       id="linearGradient4198"
       xlink:href="#linearGradient4015"
       gradientUnits="userSpaceOnUse" />
    <linearGradient
       x1="8.9718256"
       y1="15.022491"
       x2="8.9718256"
       y2="4.9502482"
       id="linearGradient4206"
       xlink:href="#linearGradient4015"
       gradientUnits="userSpaceOnUse" />
    <linearGradient
       x1="8.9718256"
       y1="15.022491"
       x2="8.9718256"
       y2="4.9502482"
       id="linearGradient4208"
       xlink:href="#linearGradient4015"
       gradientUnits="userSpaceOnUse" />
    <linearGradient
       x1="8.9718256"
       y1="15.022491"
       x2="8.9718256"
       y2="4.9502482"
       id="linearGradient4210"
       xlink:href="#linearGradient4015"
       gradientUnits="userSpaceOnUse" />
    <linearGradient
       x1="42.985443"
       y1="52.656303"
       x2="42.985443"
       y2="62.337585"
       id="linearGradient4236"
       xlink:href="#linearGradient4230"
       gradientUnits="userSpaceOnUse" />
  </defs>
  <metadata
     id="metadata2413">
    <rdf:RDF>
      <cc:Work
         rdf:about="">
        <dc:format>image/svg+xml</dc:format>
        <dc:type
           rdf:resource="http://purl.org/dc/dcmitype/StillImage" />
        <dc:title />
      </cc:Work>
    </rdf:RDF>
  </metadata>
  <g
     id="layer2"
     style="display:none">
    <rect
       width="86"
       height="85"
       rx="6"
       ry="6"
       x="5"
       y="7"
       id="rect3745"
       style="opacity:0.9;fill:url(#ButtonShadow);fill-opacity:1;fill-rule:nonzero;stroke:none;filter:url(#filter3174)" />
  </g>
  <g
     id="layer7"
     style="display:inline">
    <path
       d="m 12,-95.03125 c -5.5110903,0 -10.03125,4.52016 -10.03125,10.03125 l 0,71 c 0,5.5110902 4.5201598,10.03125 10.03125,10.03125 l 72,0 c 5.51109,0 10.03125,-4.5201597 10.03125,-10.03125 l 0,-71 c 0,-5.51109 -4.52016,-10.03125 -10.03125,-10.03125 l -72,0 z"
       transform="scale(1,-1)"
       id="path3786"
       style="opacity:0.07999998;fill:url(#linearGradient3811);fill-opacity:1;fill-rule:nonzero;stroke:none;display:inline" />
    <path
       d="m 12,-94.03125 c -4.971633,0 -9.03125,4.059617 -9.03125,9.03125 l 0,71 c 0,4.9716329 4.0596171,9.03125 9.03125,9.03125 l 72,0 c 4.971633,0 9.03125,-4.059617 9.03125,-9.03125 l 0,-71 c 0,-4.971633 -4.059617,-9.03125 -9.03125,-9.03125 l -72,0 z"
       transform="scale(1,-1)"
       id="path3778"
       style="opacity:0.1;fill:url(#linearGradient3780);fill-opacity:1;fill-rule:nonzero;stroke:none;display:inline" />
    <path
       d="m 12,-93 c -4.4091333,0 -8,3.590867 -8,8 l 0,71 c 0,4.4091333 3.5908667,8 8,8 l 72,0 c 4.409133,0 8,-3.5908667 8,-8 l 0,-71 c 0,-4.409133 -3.590867,-8 -8,-8 l -72,0 z"
       transform="scale(1,-1)"
       id="path3770"
       style="opacity:0.2;fill:url(#linearGradient3772);fill-opacity:1;fill-rule:nonzero;stroke:none;display:inline" />
    <rect
       width="86"
       height="85"
       rx="7"
       ry="7"
       x="5"
       y="-92"
       transform="scale(1,-1)"
       id="rect3723"
       style="opacity:0.3;fill:url(#linearGradient3725);fill-opacity:1;fill-rule:nonzero;stroke:none;display:inline" />
    <rect
       width="84"
       height="84"
       rx="6"
       ry="6"
       x="6"
       y="-91"
       transform="scale(1,-1)"
       id="rect3716"
       style="opacity:0.45;fill:url(#linearGradient3721);fill-opacity:1;fill-rule:nonzero;stroke:none;display:inline" />
  </g>
  <g
     id="layer1">
    <rect
       width="84"
       height="84"
       rx="6"
       ry="6"
       x="6"
       y="6"
       id="rect2419"
       style="fill:url(#linearGradient3617);fill-opacity:1;fill-rule:nonzero;stroke:none" />
    <path
       d="m 36.5625,32.0625 c -0.319303,3e-6 -0.56595,0.04413 -0.75,0.125 -0.182658,0.07948 -0.31423,0.171675 -0.40625,0.3125 -0.09063,0.139436 -0.15625,0.311193 -0.15625,0.46875 0,0.239827 0.102775,0.407731 0.28125,0.5625 0.177079,0.154772 0.459488,0.28158 0.875,0.375 0.253766,0.05577 0.43028,0.12476 0.5,0.1875 C 36.97597,34.1565 37,34.23302 37,34.3125 c -2e-6,0.08366 -0.01985,0.15461 -0.09375,0.21875 -0.07251,0.06275 -0.177251,0.09375 -0.3125,0.09375 -0.181264,10e-7 -0.3399,-0.0634 -0.4375,-0.1875 -0.05996,-0.07669 -0.10548,-0.197344 -0.125,-0.34375 l -0.875,0.0625 c 0.02649,0.309543 0.111716,0.580466 0.3125,0.78125 0.200783,0.200784 0.572269,0.28125 1.09375,0.28125 0.296991,0 0.554791,-0.03995 0.75,-0.125 0.195204,-0.08645 0.32874,-0.209074 0.4375,-0.375 0.108757,-0.165925 0.187497,-0.334648 0.1875,-0.53125 -3e-6,-0.167318 -0.04274,-0.333498 -0.125,-0.46875 -0.08087,-0.135248 -0.226384,-0.25312 -0.40625,-0.34375 -0.178477,-0.09202 -0.460885,-0.16076 -0.875,-0.25 C 36.363929,33.09015 36.26337,33.04044 36.21875,33 36.17274,32.96097 36.125,32.9238 36.125,32.875 c 0,-0.06693 0.03798,-0.14148 0.09375,-0.1875 0.05577,-0.0474 0.139846,-0.0625 0.25,-0.0625 0.133854,0 0.2372,0.03101 0.3125,0.09375 0.07669,0.06275 0.13254,0.174464 0.15625,0.3125 l 0.875,-0.0625 C 37.77346,32.650845 37.675108,32.426263 37.46875,32.28125 37.263781,32.134852 36.954306,32.062503 36.5625,32.0625 z m 14.96875,0 c -0.497778,3e-6 -0.877385,0.127386 -1.15625,0.40625 -0.278867,0.278869 -0.4375,0.686937 -0.4375,1.1875 0,0.358345 0.07792,0.63657 0.21875,0.875 0.140827,0.238431 0.336618,0.421098 0.5625,0.53125 0.227275,0.110148 0.497954,0.15625 0.84375,0.15625 0.340215,0 0.616471,-0.06062 0.84375,-0.1875 0.228667,-0.128278 0.411335,-0.302579 0.53125,-0.53125 0.121301,-0.230064 0.187496,-0.516655 0.1875,-0.875 -4e-6,-0.493591 -0.130175,-0.882958 -0.40625,-1.15625 -0.27608,-0.27468 -0.677177,-0.406247 -1.1875,-0.40625 z m 3.375,0 c -0.319304,3e-6 -0.597199,0.04413 -0.78125,0.125 -0.182658,0.07948 -0.31422,0.171675 -0.40625,0.3125 -0.09063,0.139436 -0.125,0.311193 -0.125,0.46875 0,0.239827 0.07153,0.407731 0.25,0.5625 0.17708,0.154772 0.490738,0.28158 0.90625,0.375 0.253767,0.05577 0.39903,0.12476 0.46875,0.1875 0.06972,0.06275 0.124998,0.13927 0.125,0.21875 -2e-6,0.08366 -0.0511,0.15461 -0.125,0.21875 C 55.14624,34.594 55.041498,34.625 54.90625,34.625 54.724985,34.625001 54.5976,34.5616 54.5,34.4375 54.44004,34.36081 54.39452,34.240156 54.375,34.09375 l -0.90625,0.0625 c 0.02649,0.309543 0.142966,0.580466 0.34375,0.78125 0.200783,0.200784 0.572269,0.28125 1.09375,0.28125 0.296991,0 0.523541,-0.03995 0.71875,-0.125 0.195204,-0.08645 0.359989,-0.209074 0.46875,-0.375 0.108756,-0.165925 0.156247,-0.334648 0.15625,-0.53125 -3e-6,-0.167318 -0.04274,-0.333498 -0.125,-0.46875 C 56.04413,33.583502 55.929866,33.46563 55.75,33.375 55.571523,33.28298 55.257865,33.21424 54.84375,33.125 54.676429,33.09015 54.57587,33.04044 54.53125,33 c -0.04602,-0.03903 -0.0625,-0.0762 -0.0625,-0.125 0,-0.06693 0.03798,-0.14148 0.09375,-0.1875 0.05577,-0.0474 0.139847,-0.0625 0.25,-0.0625 0.133855,0 0.2372,0.03101 0.3125,0.09375 0.07669,0.06275 0.10129,0.174464 0.125,0.3125 l 0.90625,-0.0625 c -0.03905,-0.317905 -0.168642,-0.542487 -0.375,-0.6875 -0.204969,-0.146398 -0.483195,-0.218747 -0.875,-0.21875 z M 15,32.125 l 0,3.0625 0.9375,0 0,-1.25 1.1875,0 0,-0.625 -1.1875,0 0,-0.53125 1.40625,0 0,-0.65625 -2.34375,0 z m 3.3125,0 -1.15625,3.0625 0.96875,0 0.125,-0.53125 1.09375,0 0.15625,0.53125 0.96875,0 -1.125,-3.0625 -1.03125,0 z m 2.46875,0 0,3.0625 2.59375,0 0,-0.71875 -1.65625,0 0,-0.59375 1.5,0 0,-0.625 -1.5,0 0,-0.5 1.59375,0 0,-0.625 -2.53125,0 z m 3.09375,0 0,3.0625 0.90625,0 0,-1.6875 1.15625,1.6875 0.875,0 0,-3.0625 -0.875,0 0,1.6875 -1.15625,-1.6875 -0.90625,0 z m 3.5,0 0,0.625 1.53125,0 -1.6875,1.78125 0,0.65625 2.90625,0 0,-0.65625 -1.78125,0 1.71875,-1.8125 0,-0.59375 -2.6875,0 z m 4.03125,0 -1.15625,3.0625 0.96875,0 0.125,-0.53125 1.09375,0 0.15625,0.53125 0.96875,0 -1.125,-3.0625 -1.03125,0 z m 6.78125,0 0,0.75 0.96875,0 0,2.3125 0.9375,0 0,-2.3125 0.96875,0 0,-0.75 -2.875,0 z m 3.3125,0 0,1.8125 c 0,0.150589 0.03519,0.336044 0.09375,0.53125 0.03625,0.121307 0.0899,0.229415 0.1875,0.34375 0.099,0.114335 0.225231,0.18726 0.34375,0.25 0.118517,0.06135 0.261813,0.10409 0.4375,0.125 0.177079,0.02091 0.350804,0.03125 0.5,0.03125 0.257949,0 0.472195,-0.02543 0.65625,-0.09375 0.132459,-0.0488 0.255084,-0.130087 0.375,-0.25 0.121304,-0.121306 0.19422,-0.277152 0.25,-0.4375 0.05716,-0.161742 0.09375,-0.318736 0.09375,-0.5 l 0,-1.8125 -0.9375,0 0,1.84375 c -2e-6,0.170109 -0.06283,0.31283 -0.15625,0.40625 -0.09203,0.09203 -0.211865,0.125 -0.375,0.125 -0.164533,0 -0.28158,-0.03158 -0.375,-0.125 -0.09203,-0.09481 -0.156251,-0.23893 -0.15625,-0.40625 l 0,-1.84375 -0.9375,0 z m 3.59375,0 0,3.0625 1.40625,0 c 0.168713,0 0.354742,-0.03798 0.5625,-0.09375 0.15198,-0.04044 0.273786,-0.128693 0.40625,-0.25 0.132459,-0.1227 0.2386,-0.25763 0.3125,-0.4375 0.07529,-0.181262 0.124997,-0.45358 0.125,-0.78125 0,-0.209148 -0.01231,-0.406908 -0.0625,-0.59375 -0.0502,-0.186838 -0.138456,-0.35917 -0.25,-0.5 -0.111549,-0.140825 -0.266,-0.2372 -0.4375,-0.3125 C 46.986139,32.143459 46.77747,32.125003 46.5,32.125 l -1.40625,0 z m 3.34375,0 0,3.0625 0.9375,0 0,-3.0625 -0.9375,0 z m 3.09375,0.65625 c 0.199387,3e-6 0.353018,0.05365 0.46875,0.1875 0.117126,0.132464 0.187498,0.336376 0.1875,0.625 -2e-6,0.343007 -0.07596,0.58629 -0.1875,0.71875 -0.111549,0.132463 -0.26518,0.21875 -0.46875,0.21875 -0.197997,0 -0.353022,-0.0835 -0.46875,-0.21875 -0.114333,-0.135249 -0.156251,-0.346707 -0.15625,-0.65625 -10e-7,-0.312328 0.04052,-0.552247 0.15625,-0.6875 0.115728,-0.135245 0.277725,-0.187497 0.46875,-0.1875 z m -5.5,0.03125 0.25,0 c 0.245401,3e-6 0.394028,0.03634 0.5,0.15625 0.105963,0.119915 0.187498,0.362622 0.1875,0.6875 0,0.245404 -0.04634,0.421099 -0.09375,0.53125 -0.04741,0.108759 -0.10384,0.17413 -0.1875,0.21875 -0.08366,0.04323 -0.239507,0.0625 -0.4375,0.0625 l -0.21875,0 0,-1.65625 z M 18.8125,32.90625 19.15625,34 l -0.6875,0 0.34375,-1.09375 z m 13.09375,0 L 32.25,34 l -0.6875,0 0.34375,-1.09375 z m -8.875,4.96875 c -0.364643,2e-6 -0.649275,0.05669 -0.84375,0.21875 -0.194472,0.162065 -0.3125,0.417587 -0.3125,0.71875 0,0.240394 0.07964,0.420698 0.21875,0.5625 0.140453,0.141807 0.353732,0.24767 0.65625,0.3125 l 0.3125,0.0625 c 0.183669,0.04051 0.31423,0.07369 0.375,0.125 0.06213,0.05132 0.09375,0.12421 0.09375,0.21875 -2e-6,0.105341 -0.06576,0.19328 -0.15625,0.25 -0.09049,0.05671 -0.204836,0.09375 -0.375,0.09375 -0.167465,0 -0.350282,-0.04243 -0.53125,-0.09375 -0.179621,-0.05267 -0.369375,-0.116109 -0.5625,-0.21875 l 0,0.65625 C 22.099375,40.85283 22.306875,40.90104 22.5,40.9375 22.693123,40.97397 22.870724,41 23.0625,41 c 0.406505,0 0.70907,-0.08794 0.90625,-0.25 0.19852,-0.163412 0.312497,-0.41642 0.3125,-0.75 -3e-6,-0.253896 -0.07695,-0.424746 -0.21875,-0.5625 -0.141807,-0.137752 -0.382472,-0.24497 -0.71875,-0.3125 L 23,39.0625 c -0.158012,-0.03241 -0.25173,-0.08043 -0.3125,-0.125 -0.05942,-0.04592 -0.09375,-0.10647 -0.09375,-0.1875 0,-0.10804 0.03586,-0.19869 0.125,-0.25 0.08913,-0.05131 0.219877,-0.0625 0.40625,-0.0625 0.140453,0 0.310736,-0.0065 0.46875,0.03125 0.158008,0.03782 0.302633,0.11322 0.46875,0.1875 l 0,-0.65625 c -0.187725,-0.04997 -0.355685,-0.06943 -0.53125,-0.09375 -0.17557,-0.02566 -0.333888,-0.03125 -0.5,-0.03125 z m 2.78125,0 c -0.364642,3e-6 -0.649275,0.05669 -0.84375,0.21875 -0.194472,0.162065 -0.281251,0.417587 -0.28125,0.71875 -1e-6,0.240395 0.07965,0.420697 0.21875,0.5625 0.140453,0.141806 0.353733,0.24767 0.65625,0.3125 L 25.875,39.75 c 0.18367,0.04051 0.28298,0.07368 0.34375,0.125 0.06212,0.05132 0.09375,0.12421 0.09375,0.21875 -1e-6,0.105342 -0.03451,0.19329 -0.125,0.25 -0.09049,0.05671 -0.204836,0.09375 -0.375,0.09375 -0.167467,0 -0.350282,-0.04243 -0.53125,-0.09375 -0.17962,-0.05267 -0.369374,-0.11611 -0.5625,-0.21875 l 0,0.65625 c 0.193126,0.07158 0.369375,0.11979 0.5625,0.15625 C 25.474373,40.97397 25.683224,41 25.875,41 c 0.406505,0 0.709071,-0.08794 0.90625,-0.25 0.19852,-0.163412 0.281248,-0.416421 0.28125,-0.75 -2e-6,-0.253897 -0.0457,-0.424746 -0.1875,-0.5625 -0.141807,-0.137752 -0.382472,-0.24497 -0.71875,-0.3125 L 25.8125,39.0625 C 25.654489,39.03009 25.56077,38.98207 25.5,38.9375 25.44058,38.89158 25.40625,38.83103 25.40625,38.75 c -2e-6,-0.10804 0.03586,-0.19869 0.125,-0.25 0.08913,-0.05131 0.219876,-0.0625 0.40625,-0.0625 0.140453,0 0.310737,-0.0066 0.46875,0.03125 0.158009,0.03782 0.302634,0.11322 0.46875,0.1875 L 26.875,38 C 26.687275,37.950031 26.519315,37.93057 26.34375,37.90625 26.168181,37.88059 25.978613,37.875003 25.8125,37.875 z m 6.28125,0 c -0.349448,0.05242 -0.618889,0.196585 -0.84375,0.40625 -0.299816,0.279562 -0.4375,0.668714 -0.4375,1.15625 0,0.482137 0.143086,0.873992 0.4375,1.15625 C 31.544413,40.874658 31.933755,41 32.4375,41 c 0.222834,0 0.446916,-0.01524 0.65625,-0.0625 0.209328,-0.04727 0.399272,-0.12421 0.59375,-0.21875 l 0,-1.46875 -1.21875,0 0,0.53125 0.46875,0 0,0.59375 c -0.05537,0.0216 -0.11727,0.02045 -0.1875,0.03125 -0.06888,0.0095 -0.13772,0.03125 -0.21875,0.03125 -0.298467,10e-7 -0.525439,-0.07578 -0.6875,-0.25 -0.162064,-0.174215 -0.250001,-0.429925 -0.25,-0.75 -1e-6,-0.322772 0.08254,-0.577132 0.25,-0.75 0.168814,-0.174216 0.408129,-0.249998 0.71875,-0.25 0.167463,0 0.333884,0.01524 0.5,0.0625 0.167462,0.04727 0.362433,0.12286 0.53125,0.21875 l 0,-0.625 C 33.430335,38.01947 33.247518,37.94406 33.0625,37.90625 32.878826,37.86844 32.669977,37.875 32.46875,37.875 c -0.130326,10e-7 -0.258517,-0.01747 -0.375,0 z M 15,37.90625 l 0,3.03125 0.75,0 0,-2.21875 0.6875,1.65625 0.5,0 0.6875,-1.65625 0,2.21875 0.75,0 0,-3.03125 -1,0 -0.6875,1.625 -0.6875,-1.625 -1,0 z m 4.125,0 0,3.03125 2.15625,0 0,-0.59375 -1.375,0 0,-0.6875 1.25,0 0,-0.59375 -1.25,0 0,-0.5625 1.34375,0 0,-0.59375 -2.125,0 z m 15.25,0 0,3.03125 2.15625,0 0,-0.59375 -1.375,0 0,-0.6875 1.25,0 0,-0.59375 -1.25,0 0,-0.5625 1.3125,0 0,-0.59375 -2.09375,0 z m -5.84375,0.03125 -1.125,3.03125 0.78125,0 0.1875,-0.5625 1.21875,0 0.1875,0.5625 0.78125,0 -1.125,-3.03125 -0.90625,0 z M 29,38.625 l 0.40625,1.21875 -0.84375,0 L 29,38.625 z"
       inkscape:connector-curvature="0"
       id="path3890"
       style="font-size:6px;font-style:normal;font-variant:normal;font-weight:bold;font-stretch:normal;text-align:start;line-height:125%;writing-mode:lr-tb;text-anchor:start;opacity:0.8;fill:url(#radialGradient4116);fill-opacity:1;stroke:none;display:inline;font-family:DejaVu Sans;-inkscape-font-specification:DejaVu Sans Bold" />
    <path
       d="m 40,39 41,0 0,1 -41,0 0,-1 z"
       inkscape:connector-curvature="0"
       id="path3842"
       style="font-size:6px;font-style:normal;font-variant:normal;font-weight:bold;font-stretch:normal;text-align:start;line-height:125%;writing-mode:lr-tb;text-anchor:start;opacity:0.8;fill:url(#radialGradient3904);fill-opacity:1;stroke:none;display:inline;font-family:DejaVu Sans;-inkscape-font-specification:DejaVu Sans Bold" />
    <path
       d="m 15,69 66,0 0,1 -66,0 0,-1 z"
       inkscape:connector-curvature="0"
       id="path3840"
       style="font-size:6px;font-style:normal;font-variant:normal;font-weight:bold;font-stretch:normal;text-align:start;line-height:125%;writing-mode:lr-tb;text-anchor:start;opacity:0.8;fill:url(#radialGradient3929);fill-opacity:1;stroke:none;display:inline;font-family:DejaVu Sans;-inkscape-font-specification:DejaVu Sans Bold" />
    <path
       d="m 59,70 0,14 -1,0 0,-14 1,0 z"
       inkscape:connector-curvature="0"
       id="text3348"
       style="font-size:6px;font-style:normal;font-variant:normal;font-weight:bold;font-stretch:normal;text-align:start;line-height:125%;writing-mode:lr-tb;text-anchor:start;opacity:0.8;fill:url(#radialGradient3933);fill-opacity:1;stroke:none;display:inline;font-family:DejaVu Sans;-inkscape-font-specification:DejaVu Sans Bold" />
    <path
       d="m 41.78125,62.875 c -0.364641,3e-6 -0.649276,0.05669 -0.84375,0.21875 -0.194473,0.162065 -0.28125,0.417586 -0.28125,0.71875 0,0.240395 0.07964,0.420696 0.21875,0.5625 0.140454,0.141805 0.353733,0.24767 0.65625,0.3125 l 0.3125,0.0625 c 0.183669,0.04051 0.28298,0.07368 0.34375,0.125 0.06212,0.05132 0.09375,0.12421 0.09375,0.21875 -2e-6,0.105341 -0.03452,0.19328 -0.125,0.25 -0.09049,0.05671 -0.204835,0.09375 -0.375,0.09375 -0.167466,0 -0.350281,-0.04243 -0.53125,-0.09375 -0.17962,-0.05267 -0.369376,-0.11611 -0.5625,-0.21875 l 0,0.65625 c 0.193124,0.07157 0.369376,0.11979 0.5625,0.15625 0.193125,0.03647 0.401974,0.0625 0.59375,0.0625 0.406504,0 0.709071,-0.08794 0.90625,-0.25 0.19852,-0.163413 0.281247,-0.41642 0.28125,-0.75 -3e-6,-0.253896 -0.0457,-0.424745 -0.1875,-0.5625 C 42.701942,64.299749 42.461277,64.19253 42.125,64.125 L 41.78125,64.0625 C 41.623237,64.03009 41.52952,63.98207 41.46875,63.9375 41.40933,63.891583 41.375,63.83103 41.375,63.75 c 0,-0.10804 0.03586,-0.19868 0.125,-0.25 0.08913,-0.05131 0.219875,-0.0625 0.40625,-0.0625 0.140451,0 0.310736,-0.0066 0.46875,0.03125 0.158008,0.03782 0.302634,0.11322 0.46875,0.1875 l 0,-0.65625 C 42.656025,62.950032 42.488067,62.93057 42.3125,62.90625 42.136931,62.88059 41.947363,62.875003 41.78125,62.875 z m 3.0625,0 C 44.505191,62.92793 44.220809,63.069558 44,63.28125 c -0.294414,0.28091 -0.4375,0.672764 -0.4375,1.15625 0,0.482137 0.143086,0.873991 0.4375,1.15625 C 44.294412,65.874658 44.683754,66 45.1875,66 c 0.168813,0 0.344688,-0.02468 0.5,-0.0625 0.155308,-0.03781 0.294342,-0.08197 0.4375,-0.15625 l 0,-0.625 c -0.144508,0.09859 -0.265799,0.17283 -0.40625,0.21875 -0.140457,0.04592 -0.313442,0.0625 -0.46875,0.0625 -0.278209,10e-7 -0.49689,-0.102981 -0.65625,-0.28125 -0.159363,-0.178269 -0.218751,-0.406778 -0.21875,-0.71875 -10e-7,-0.313321 0.05939,-0.57173 0.21875,-0.75 0.15936,-0.178264 0.378041,-0.249998 0.65625,-0.25 0.155308,0 0.328293,0.01659 0.46875,0.0625 0.140451,0.04592 0.261742,0.12016 0.40625,0.21875 l 0,-0.625 c -0.143158,-0.07428 -0.282192,-0.14969 -0.4375,-0.1875 -0.155312,-0.0378 -0.331187,-0.03125 -0.5,-0.03125 -0.125937,10e-7 -0.230897,-0.01764 -0.34375,0 z m -18.875,0.03125 0,0.59375 1,0 0,2.4375 0.78125,0 0,-2.4375 1,0 0,-0.59375 -2.78125,0 z m 3.1875,0 0,3.03125 2.15625,0 0,-0.59375 -1.375,0 0,-0.6875 1.25,0 0,-0.59375 -1.25,0 0,-0.5625 1.3125,0 0,-0.59375 -2.09375,0 z m 17.625,0 0,3.03125 2.15625,0 0,-0.59375 -1.375,0 0,-0.6875 1.25,0 0,-0.59375 -1.25,0 0,-0.5625 1.3125,0 0,-0.59375 -2.09375,0 z m 2.84375,0 0,3.03125 0.71875,0 0,-2.0625 1.125,2.0625 0.84375,0 0,-3.03125 -0.71875,0 0,2.09375 -1.09375,-2.09375 -0.875,0 z m 3.46875,0 0,3.03125 2.15625,0 0,-0.59375 -1.375,0 0,-0.6875 1.25,0 0,-0.59375 -1.25,0 0,-0.5625 1.3125,0 0,-0.59375 -2.09375,0 z m 11.65625,0 0,0.59375 1,0 0,2.4375 0.78125,0 0,-2.4375 1,0 0,-0.59375 -2.78125,0 z m 6.09375,0 0,3.03125 0.78125,0 0,-1.1875 1.1875,1.1875 0.96875,0 -1.59375,-1.59375 1.4375,-1.4375 -0.90625,0 -1.09375,1.125 0,-1.125 -0.78125,0 z m 3.1875,0 0,3.03125 2.15625,0 0,-0.59375 -1.375,0 0,-0.6875 1.25,0 0,-0.59375 -1.25,0 0,-0.5625 1.34375,0 0,-0.59375 -2.125,0 z M 20,62.9375 l 0,3.03125 0.8125,0 c 0.453773,0 0.80436,-0.06017 1.03125,-0.125 0.226885,-0.06618 0.431684,-0.15584 0.59375,-0.3125 0.141802,-0.136402 0.24362,-0.290479 0.3125,-0.46875 0.06887,-0.179617 0.09375,-0.39676 0.09375,-0.625 -2e-6,-0.225535 -0.02487,-0.415479 -0.09375,-0.59375 C 22.68112,63.665484 22.579302,63.511405 22.4375,63.375 22.276784,63.218343 22.069286,63.09608 21.84375,63.03125 21.619563,62.96508 21.271675,62.9375 20.8125,62.9375 l -0.8125,0 z m 4.1875,0 -1.09375,3.03125 0.78125,0 0.1875,-0.5625 1.21875,0 0.1875,0.5625 0.78125,0 -1.125,-3.03125 -0.9375,0 z m 44.1875,0 -1.125,3.03125 0.78125,0 0.21875,-0.5625 1.21875,0 0.1875,0.5625 0.78125,0 -1.125,-3.03125 -0.9375,0 z m -47.59375,0.59375 0.28125,0 c 0.320071,2e-6 0.551284,0.06209 0.71875,0.21875 0.167457,0.156663 0.249997,0.387686 0.25,0.6875 -3e-6,0.301167 -0.08119,0.52949 -0.25,0.6875 -0.167467,0.158017 -0.400029,0.25 -0.71875,0.25 l -0.28125,0 0,-1.84375 z m 3.875,0.09375 0.4375,1.21875 -0.84375,0 0.40625,-1.21875 z m 44.1875,0 0.40625,1.21875 -0.8125,0 0.40625,-1.21875 z"
       inkscape:connector-curvature="0"
       id="path3870"
       style="font-size:6px;font-style:normal;font-variant:normal;font-weight:bold;font-stretch:normal;text-align:start;line-height:125%;writing-mode:lr-tb;text-anchor:start;opacity:0.8;fill:url(#radialGradient4114);fill-opacity:1;stroke:none;display:inline;font-family:DejaVu Sans;-inkscape-font-specification:DejaVu Sans Bold" />
    <path
       d="m 37,70 0,14 -1,0 0,-14 1,0 z"
       inkscape:connector-curvature="0"
       id="path3935"
       style="font-size:6px;font-style:normal;font-variant:normal;font-weight:bold;font-stretch:normal;text-align:start;line-height:125%;writing-mode:lr-tb;text-anchor:start;opacity:0.8;fill:url(#radialGradient3937);fill-opacity:1;stroke:none;display:inline;font-family:DejaVu Sans;-inkscape-font-specification:DejaVu Sans Bold" />
  </g>
  <g
     id="layer5">
    <path
       d="M 12,90 C 8.676,90 6,87.324 6,84 L 6,82 6,14 6,12 c 0,-0.334721 0.04135,-0.6507 0.09375,-0.96875 0.0487,-0.295596 0.09704,-0.596915 0.1875,-0.875 C 6.29113,10.12587 6.302142,10.09265 6.3125,10.0625 6.411365,9.774729 6.5473802,9.515048 6.6875,9.25 6.8320918,8.976493 7.0031161,8.714385 7.1875,8.46875 7.3718839,8.223115 7.5612765,7.995278 7.78125,7.78125 8.221197,7.353194 8.72416,6.966724 9.28125,6.6875 9.559795,6.547888 9.8547231,6.440553 10.15625,6.34375 9.9000482,6.443972 9.6695391,6.580022 9.4375,6.71875 c -0.00741,0.0044 -0.023866,-0.0045 -0.03125,0 -0.031933,0.0193 -0.062293,0.04251 -0.09375,0.0625 -0.120395,0.0767 -0.2310226,0.163513 -0.34375,0.25 -0.1061728,0.0808 -0.2132809,0.161112 -0.3125,0.25 C 8.4783201,7.442683 8.3087904,7.626638 8.15625,7.8125 8.0486711,7.942755 7.9378561,8.077785 7.84375,8.21875 7.818661,8.25713 7.805304,8.30462 7.78125,8.34375 7.716487,8.446782 7.6510225,8.548267 7.59375,8.65625 7.4927417,8.850956 7.3880752,9.071951 7.3125,9.28125 7.30454,9.30306 7.288911,9.3218 7.28125,9.34375 7.2494249,9.4357 7.2454455,9.530581 7.21875,9.625 7.1884177,9.731618 7.1483606,9.828031 7.125,9.9375 7.0521214,10.279012 7,10.635705 7,11 l 0,2 0,68 0,2 c 0,2.781848 2.2181517,5 5,5 l 2,0 68,0 2,0 c 2.781848,0 5,-2.218152 5,-5 l 0,-2 0,-68 0,-2 C 89,10.635705 88.94788,10.279012 88.875,9.9375 88.83085,9.730607 88.78662,9.539842 88.71875,9.34375 88.71105,9.3218 88.69545,9.30306 88.6875,9.28125 88.62476,9.107511 88.549117,8.913801 88.46875,8.75 88.42717,8.6672 88.38971,8.580046 88.34375,8.5 88.28915,8.40279 88.216976,8.31165 88.15625,8.21875 88.06214,8.077785 87.951329,7.942755 87.84375,7.8125 87.700576,7.63805 87.540609,7.465502 87.375,7.3125 87.36383,7.3023 87.35502,7.29135 87.34375,7.28125 87.205364,7.155694 87.058659,7.046814 86.90625,6.9375 86.803679,6.86435 86.701932,6.784136 86.59375,6.71875 c -0.0074,-0.0045 -0.02384,0.0044 -0.03125,0 -0.232039,-0.138728 -0.462548,-0.274778 -0.71875,-0.375 0.301527,0.0968 0.596455,0.204138 0.875,0.34375 0.55709,0.279224 1.060053,0.665694 1.5,1.09375 0.219973,0.214028 0.409366,0.441865 0.59375,0.6875 0.184384,0.245635 0.355408,0.507743 0.5,0.78125 0.14012,0.265048 0.276135,0.524729 0.375,0.8125 0.01041,0.03078 0.02133,0.06274 0.03125,0.09375 0.09046,0.278085 0.1388,0.579404 0.1875,0.875 C 89.95865,11.3493 90,11.665279 90,12 l 0,2 0,68 0,2 c 0,3.324 -2.676,6 -6,6 l -72,0 z"
       inkscape:connector-curvature="0"
       id="path3615"
       style="opacity:0.2;fill:url(#radialGradient3619);fill-opacity:1;fill-rule:nonzero;stroke:none" />
    <rect
       width="66"
       height="66"
       rx="12"
       ry="12"
       x="15"
       y="15"
       clip-path="url(#clipPath3613)"
       id="rect3171"
       style="opacity:0.1;fill:url(#linearGradient3613);fill-opacity:1;fill-rule:nonzero;stroke:#ffffff;stroke-width:0.5;stroke-linecap:round;stroke-linejoin:miter;stroke-miterlimit:4;stroke-opacity:1;stroke-dasharray:none;stroke-dashoffset:0;filter:url(#filter3794)" />
  </g>
  <g
     id="layer3">
    <path
       d="M 12,6 C 8.676,6 6,8.676 6,12 l 0,12 84,0 0,-12 C 90,8.676 87.324,6 84,6 L 12,6 z"
       inkscape:connector-curvature="0"
       id="rect4237"
       style="fill:#000000;fill-opacity:1;fill-rule:nonzero;stroke:none" />
    <rect
       width="84"
       height="6"
       x="6"
       y="24"
       id="rect3250"
       style="opacity:0.8;fill:url(#linearGradient4262);fill-opacity:1;fill-rule:evenodd;stroke:none" />
    <rect
       width="84"
       height="5"
       x="6"
       y="15"
       id="rect4289"
       style="opacity:0.3;fill:url(#linearGradient4320);fill-opacity:1;fill-rule:evenodd;stroke:none" />
    <g
       transform="translate(1,0)"
       id="g4299">
      <path
         d="M 28.333333,6 23,15 28.333333,24 39,24 33.666667,15 39,6 28.333333,6 z"
         inkscape:connector-curvature="0"
         id="path4293"
         style="fill:#f0f0f0;fill-opacity:1;fill-rule:evenodd;stroke:none" />
      <path
         d="M 50.333333,6 45,15 50.333333,24 61,24 55.666667,15 61,6 50.333333,6 z"
         inkscape:connector-curvature="0"
         id="path4295"
         style="fill:#f0f0f0;fill-opacity:1;fill-rule:evenodd;stroke:none" />
      <path
         d="M 72.333333,6 67,15 72.333333,24 83,24 77.666667,15 83,6 72.333333,6 z"
         inkscape:connector-curvature="0"
         id="path4297"
         style="fill:#f0f0f0;fill-opacity:1;fill-rule:evenodd;stroke:none" />
    </g>
    <rect
       width="84"
       height="5"
       x="6"
       y="10"
       id="rect4291"
       style="opacity:0.7;fill:url(#linearGradient4310);fill-opacity:1;fill-rule:evenodd;stroke:none" />
    <rect
       width="84"
       height="5"
       x="6"
       y="19"
       id="rect4324"
       style="opacity:0.7;fill:url(#linearGradient4326);fill-opacity:1;fill-rule:evenodd;stroke:none" />
    <path
       d="m 12.005391,10.5 c 1.109513,0 1.770155,0.983693 6.03003,4.302704 4.304387,3.353689 5.477493,3.726472 5.477493,5.074645 0,1.348423 -1.088205,1.622651 -2.439921,1.622651 l -8.133072,0 C 11.588205,21.5 10.5,20.414446 10.5,19.066023 l 0,-6.490605 C 10.5,11.226995 10.967611,10.5 12.005391,10.5 z"
       inkscape:connector-curvature="0"
       id="path4333"
       style="fill:url(#linearGradient4371);fill-opacity:1;fill-rule:evenodd;stroke:url(#linearGradient4373);stroke-width:1;stroke-linecap:butt;stroke-linejoin:round;stroke-miterlimit:4;stroke-opacity:1;stroke-dasharray:none;stroke-dashoffset:0" />
    <path
       d="m 12.75,14.9375 a 1.4375,1.4375 0 1 1 -2.875,0 1.4375,1.4375 0 1 1 2.875,0 z"
       transform="matrix(0.81330712,0,0,0.81132563,3.5868895,1.0746776)"
       id="path4335"
       style="fill:url(#radialGradient4379);fill-opacity:1;fill-rule:evenodd;stroke:none" />
    <path
       d="m 12.75,14.9375 a 1.4375,1.4375 0 1 1 -2.875,0 1.4375,1.4375 0 1 1 2.875,0 z"
       transform="matrix(0.81330712,0,0,0.81132563,3.5868895,7.09897)"
       id="path4337"
       style="fill:url(#radialGradient4377);fill-opacity:1;fill-rule:evenodd;stroke:none" />
    <path
       d="m 12.75,14.9375 a 1.4375,1.4375 0 1 1 -2.875,0 1.4375,1.4375 0 1 1 2.875,0 z"
       transform="matrix(0.81330712,0,0,0.81132563,11.618297,7.09897)"
       id="path4339"
       style="fill:url(#radialGradient4375);fill-opacity:1;fill-rule:evenodd;stroke:none" />
  </g>
  <g
     id="layer4">
    <path
       d="M 12,6 C 8.676,6 6,8.676 6,12 l 0,2 0,68 0,2 c 0,0.334721 0.04135,0.6507 0.09375,0.96875 0.0487,0.295596 0.09704,0.596915 0.1875,0.875 0.00988,0.03038 0.020892,0.0636 0.03125,0.09375 0.098865,0.287771 0.2348802,0.547452 0.375,0.8125 0.1445918,0.273507 0.3156161,0.535615 0.5,0.78125 0.1843839,0.245635 0.3737765,0.473472 0.59375,0.6875 0.439947,0.428056 0.94291,0.814526 1.5,1.09375 0.278545,0.139612 0.5734731,0.246947 0.875,0.34375 -0.2562018,-0.100222 -0.4867109,-0.236272 -0.71875,-0.375 -0.00741,-0.0044 -0.023866,0.0045 -0.03125,0 -0.031933,-0.0193 -0.062293,-0.04251 -0.09375,-0.0625 -0.120395,-0.0767 -0.2310226,-0.163513 -0.34375,-0.25 -0.1061728,-0.0808 -0.2132809,-0.161112 -0.3125,-0.25 C 8.4783201,88.557317 8.3087904,88.373362 8.15625,88.1875 8.0486711,88.057245 7.9378561,87.922215 7.84375,87.78125 7.818661,87.74287 7.805304,87.69538 7.78125,87.65625 7.716487,87.553218 7.6510225,87.451733 7.59375,87.34375 7.4927417,87.149044 7.3880752,86.928049 7.3125,86.71875 7.30454,86.69694 7.288911,86.6782 7.28125,86.65625 7.2494249,86.5643 7.2454455,86.469419 7.21875,86.375 7.1884177,86.268382 7.1483606,86.171969 7.125,86.0625 7.0521214,85.720988 7,85.364295 7,85 L 7,83 7,15 7,13 C 7,10.218152 9.2181517,8 12,8 l 2,0 68,0 2,0 c 2.781848,0 5,2.218152 5,5 l 0,2 0,68 0,2 c 0,0.364295 -0.05212,0.720988 -0.125,1.0625 -0.04415,0.206893 -0.08838,0.397658 -0.15625,0.59375 -0.0077,0.02195 -0.0233,0.04069 -0.03125,0.0625 -0.06274,0.173739 -0.138383,0.367449 -0.21875,0.53125 -0.04158,0.0828 -0.07904,0.169954 -0.125,0.25 -0.0546,0.09721 -0.126774,0.18835 -0.1875,0.28125 -0.09411,0.140965 -0.204921,0.275995 -0.3125,0.40625 -0.143174,0.17445 -0.303141,0.346998 -0.46875,0.5 -0.01117,0.0102 -0.01998,0.02115 -0.03125,0.03125 -0.138386,0.125556 -0.285091,0.234436 -0.4375,0.34375 -0.102571,0.07315 -0.204318,0.153364 -0.3125,0.21875 -0.0074,0.0045 -0.02384,-0.0044 -0.03125,0 -0.232039,0.138728 -0.462548,0.274778 -0.71875,0.375 0.301527,-0.0968 0.596455,-0.204138 0.875,-0.34375 0.55709,-0.279224 1.060053,-0.665694 1.5,-1.09375 0.219973,-0.214028 0.409366,-0.441865 0.59375,-0.6875 0.184384,-0.245635 0.355408,-0.507743 0.5,-0.78125 0.14012,-0.265048 0.276135,-0.524729 0.375,-0.8125 0.01041,-0.03078 0.02133,-0.06274 0.03125,-0.09375 0.09046,-0.278085 0.1388,-0.579404 0.1875,-0.875 C 89.95865,84.6507 90,84.334721 90,84 l 0,-2 0,-68 0,-2 C 90,8.676 87.324,6 84,6 L 12,6 z"
       inkscape:connector-curvature="0"
       id="rect3728"
       style="opacity:0.3;fill:url(#linearGradient3188);fill-opacity:1;fill-rule:nonzero;stroke:none" />
  </g>
  <g
     id="layer6"
     style="display:inline">
    <path
       d="m 32.09375,32.03125 c -0.152104,-0.011 -0.341451,-0.0247 -0.59375,0.03125 -0.126149,0.02797 -0.270301,0.05727 -0.4375,0.1875 -0.05993,0.04668 -0.07301,0.151007 -0.125,0.21875 -0.345234,0.140185 -0.73198,0.229986 -0.9375,0.46875 -0.323374,0.375682 -0.522208,0.760084 -0.6875,1.09375 a 0.85683777,0.85683777 0 0 0 -0.0625,0.375 l 0,44.5 0,0.03125 c -0.04588,1.311193 0.679557,2.350606 1.6875,2.78125 l 0,0.03125 c 0.0075,0.0031 0.02375,-0.0031 0.03125,0 0.479339,0.21182 0.97609,0.286892 1.46875,0.21875 0.413914,-0.05725 0.80566,-0.296869 1.15625,-0.59375 L 33.625,81.40625 33.84375,81.25 69.40625,59.5625 a 0.85683777,0.85683777 0 0 0 0.0625,-0.03125 c 0.667943,-0.467853 1.283543,-1.249379 1.34375,-2.34375 6.05e-4,-0.011 -4.88e-4,-0.02019 0,-0.03125 0.08764,-1.17157 -0.498972,-2.066612 -1.15625,-2.53125 a 0.85683777,0.85683777 0 0 0 -0.0625,-0.03125 C 58.023395,47.437241 46.399001,40.370787 34.8125,33.25 a 0.85683777,0.85683777 0 0 0 0,-0.03125 C 34.176737,32.840021 33.721675,32.548023 33.15625,32.1875 a 0.85683777,0.85683777 0 0 0 -0.6875,-0.09375 c 0.13809,-0.03908 0.05405,-0.02513 -0.03125,-0.03125 -0.0853,-0.0061 -0.191646,-0.02025 -0.34375,-0.03125 z"
       id="path4186"
       style="opacity:0.05;color:#000000;fill:#000000;fill-opacity:1;fill-rule:nonzero;stroke:none;stroke-width:0.60600001;marker:none;visibility:visible;display:inline;overflow:visible;enable-background:accumulate" />
    <path
       d="m 32.681093,32.902284 c 0.556845,0.355053 1.040953,0.663626 1.695478,1.053532 11.588866,7.122241 23.213361,14.193357 34.779965,21.347546 0.481487,0.340369 0.903045,0.931586 0.8255,1.832783 -0.039,0.882984 -0.417882,1.286349 -1.005698,1.698078 -11.926916,7.285019 -23.853832,14.570039 -35.780749,21.855058 -0.393795,0.4575 -1.311713,0.554714 -1.929359,0.27229 -0.618617,-0.251714 -1.200524,-1.0757 -1.157615,-2.034755 0,-14.842294 0,-29.684712 0,-44.526934 0.336957,-0.680197 0.608455,-1.303387 1.414863,-1.361453 0.06635,-0.307603 0.862715,-0.05269 1.157615,-0.136145 z"
       inkscape:connector-curvature="0"
       id="path4180"
       style="opacity:0.07999998;color:#000000;fill:#000000;fill-opacity:1;fill-rule:nonzero;stroke:none;stroke-width:0.60600001;marker:none;visibility:visible;display:inline;overflow:visible;enable-background:accumulate" />
    <path
       d="M 10.84375,4.71875 A 0.22121677,0.22121677 0 0 0 10.78125,4.75 l -8.75,5.0625 A 0.22121677,0.22121677 0 0 0 2,9.84375 0.22121677,0.22121677 0 0 0 1.96875,9.875 0.22121677,0.22121677 0 0 0 1.9375,9.9375 a 0.22121677,0.22121677 0 0 0 0,0.0625 0.22121677,0.22121677 0 0 0 0,0.0625 A 0.22121677,0.22121677 0 0 0 1.96875,10.125 0.22121677,0.22121677 0 0 0 2,10.15625 0.22121677,0.22121677 0 0 0 2.03125,10.1875 l 8.75,5.0625 a 0.22121677,0.22121677 0 0 0 0.0625,0.03125 0.22121677,0.22121677 0 0 0 0.09375,0 0.22121677,0.22121677 0 0 0 0.09375,-0.03125 0.22121677,0.22121677 0 0 0 0.03125,-0.03125 0.22121677,0.22121677 0 0 0 0.0625,-0.125 0.22121677,0.22121677 0 0 0 0,-0.03125 l 0,-10.125 a 0.22121677,0.22121677 0 0 0 0,-0.03125 0.22121677,0.22121677 0 0 0 -0.0625,-0.125 0.22121677,0.22121677 0 0 0 -0.03125,-0.03125 0.22121677,0.22121677 0 0 0 -0.125,-0.03125 0.22121677,0.22121677 0 0 0 -0.0625,0 z"
       transform="matrix(-4.1159661,0,0,4.3566493,76.927729,13.433507)"
       id="path4176"
       style="opacity:0.12000002;color:#000000;fill:#000000;fill-opacity:1;fill-rule:nonzero;stroke:none;stroke-width:0.60600001;marker:none;visibility:visible;display:inline;overflow:visible;enable-background:accumulate" />
    <path
       d="M 10.915476,15.049752 2.1690483,9.9999997 10.915476,4.9502478 z"
       transform="matrix(-4.1159661,0,0,4.3566493,76.927729,13.433507)"
       id="path4170"
       style="opacity:0.3;color:#000000;fill:#000000;fill-opacity:1;fill-rule:nonzero;stroke:none;stroke-width:0.60600001;marker:none;visibility:visible;display:inline;overflow:visible;enable-background:accumulate" />
    <path
       d="m 78.632992,55.9258 a 30.644978,30.644978 0 1 1 -61.289955,0 30.644978,30.644978 0 1 1 61.289955,0 z"
       id="path4029"
       style="opacity:0.2;color:#000000;fill:url(#radialGradient4037);fill-opacity:1;fill-rule:nonzero;stroke:none;stroke-width:0.60600001;marker:none;visibility:visible;display:inline;overflow:visible;enable-background:accumulate" />
    <path
       d="M 10.915476,15.049752 2.1690483,9.9999997 10.915476,4.9502478 z"
       transform="matrix(-4.1159661,0,0,4.3566493,76.927729,12.433507)"
       id="path4013"
       style="color:#000000;fill:url(#linearGradient4164);fill-opacity:1;fill-rule:nonzero;stroke:none;stroke-width:0.60600001;marker:none;visibility:visible;display:inline;overflow:visible;enable-background:accumulate" />
    <path
       d="M 32,34 32,78 68,56 32,34 z M 32.9375,35.59375 66.25,56 32.9375,76.40625 l 0,-40.8125 z"
       inkscape:connector-curvature="0"
       id="path4143"
       style="opacity:0.6;color:#000000;fill:url(#linearGradient4162);fill-opacity:1;fill-rule:nonzero;stroke:none;stroke-width:0.60600001;marker:none;visibility:visible;display:inline;overflow:visible;enable-background:accumulate" />
    <path
       d="M 10.915476,15.049752 2.1690483,9.9999997 10.915476,4.9502478 z"
       transform="matrix(-2.2866478,0,0,2.4203606,46.959849,31.796394)"
       id="path4188"
       style="opacity:0.3;color:#000000;fill:url(#linearGradient4190);fill-opacity:1;fill-rule:nonzero;stroke:none;stroke-width:0.60600001;marker:none;visibility:visible;display:inline;overflow:visible;enable-background:accumulate" />
    <path
       d="M 10.915476,15.049752 2.1690483,9.9999997 10.915476,4.9502478 z"
       transform="matrix(-1.6006535,0,0,1.6942524,31.471894,39.057476)"
       id="path4192"
       style="opacity:0.15;color:#000000;fill:url(#linearGradient4194);fill-opacity:1;fill-rule:nonzero;stroke:none;stroke-width:0.60600001;marker:none;visibility:visible;display:inline;overflow:visible;enable-background:accumulate" />
    <path
       d="M 10.915476,15.049752 2.1690483,9.9999997 10.915476,4.9502478 z"
       transform="matrix(-0.91465913,0,0,0.96814421,17.983939,46.318558)"
       id="path4196"
       style="opacity:0.07000002;color:#000000;fill:url(#linearGradient4198);fill-opacity:1;fill-rule:nonzero;stroke:none;stroke-width:0.60600001;marker:none;visibility:visible;display:inline;overflow:visible;enable-background:accumulate" />
    <path
       d="M 10.915476,15.049752 2.1690483,9.9999997 10.915476,4.9502478 z"
       transform="matrix(-2.2866478,0,0,2.4203606,82.959849,31.796394)"
       id="path4200"
       style="opacity:0.2;color:#000000;fill:url(#linearGradient4206);fill-opacity:1;fill-rule:nonzero;stroke:none;stroke-width:0.60600001;marker:none;visibility:visible;display:inline;overflow:visible;enable-background:accumulate" />
    <path
       d="M 10.915476,15.049752 2.1690483,9.9999997 10.915476,4.9502478 z"
       transform="matrix(-1.6006535,0,0,1.6942524,89.471895,39.057476)"
       id="path4202"
       style="opacity:0.1;color:#000000;fill:url(#linearGradient4208);fill-opacity:1;fill-rule:nonzero;stroke:none;stroke-width:0.60600001;marker:none;visibility:visible;display:inline;overflow:visible;enable-background:accumulate" />
    <path
       d="M 10.915476,15.049752 2.1690483,9.9999997 10.915476,4.9502478 z"
       transform="matrix(-0.91465913,0,0,0.96814421,93.98394,46.318558)"
       id="path4204"
       style="opacity:0.05;color:#000000;fill:url(#linearGradient4210);fill-opacity:1;fill-rule:nonzero;stroke:none;stroke-width:0.60600001;marker:none;visibility:visible;display:inline;overflow:visible;enable-background:accumulate" />
    <path
       d="m 41.0625,54 c -0.160002,1e-5 -0.336966,0.01602 -0.53125,0.03125 C 40.340773,54.04269 40.15619,54.05566 40,54.09375 L 40,58 l 0.5625,0 0,-1.46875 0.4375,0 c 0.278093,0 0.529046,-0.01678 0.75,-0.0625 0.22095,-0.04571 0.410117,-0.1197 0.5625,-0.21875 0.156188,-0.102855 0.26375,-0.246248 0.34375,-0.40625 0.0838,-0.163808 0.124997,-0.365176 0.125,-0.59375 -3e-6,-0.419044 -0.136551,-0.727973 -0.4375,-0.9375 C 42.046604,54.09917 41.618688,54.000004 41.0625,54 z M 43.5,54.03125 43.5,58 l 2.375,0 0,-0.46875 -1.8125,0 0,-3.5 -0.5625,0 z m 4.28125,0 c -0.137144,0.285718 -0.249287,0.58167 -0.375,0.875 C 47.280534,55.195777 47.129522,55.492503 47,55.8125 46.874284,56.132502 46.758333,56.485656 46.625,56.84375 46.491666,57.198037 46.33988,57.580953 46.1875,58 l 0.59375,0 0.34375,-1 1.8125,0 c 0.06095,0.17143 0.0991,0.332381 0.15625,0.5 0.05714,0.16381 0.12273,0.328572 0.1875,0.5 l 0.625,0 c -0.152385,-0.419047 -0.30417,-0.801963 -0.4375,-1.15625 -0.133336,-0.358094 -0.276729,-0.711248 -0.40625,-1.03125 -0.125717,-0.319997 -0.249289,-0.616723 -0.375,-0.90625 -0.125717,-0.29333 -0.23786,-0.589282 -0.375,-0.875 l -0.53125,0 z m 1.78125,0 c 0.205714,0.380956 0.423868,0.791313 0.65625,1.1875 0.23238,0.396193 0.487142,0.779882 0.75,1.1875 l 0,1.59375 0.53125,0 0,-1.59375 c 0.259045,-0.403808 0.517616,-0.795116 0.75,-1.1875 0.232378,-0.396187 0.450533,-0.806544 0.65625,-1.1875 l -0.625,0 C 52.132676,54.343635 51.960295,54.676193 51.78125,55 51.6022,55.320002 51.436664,55.609109 51.25,55.90625 51.059522,55.609109 50.866546,55.320002 50.6875,55 50.508451,54.676193 50.363511,54.343635 50.21875,54.03125 l -0.65625,0 z m -9,0.46875 c 0.125713,-0.01144 0.295058,4e-6 0.53125,0 0.14857,1e-5 0.304165,0.0084 0.4375,0.03125 0.133331,0.02286 0.24471,0.06406 0.34375,0.125 0.102855,0.05715 0.16161,0.11971 0.21875,0.21875 0.06095,0.09905 0.09375,0.222622 0.09375,0.375 0,0.160002 -0.0054,0.303395 -0.0625,0.40625 -0.05715,0.102859 -0.143335,0.18905 -0.25,0.25 -0.102859,0.05714 -0.222621,0.09833 -0.375,0.125 -0.152383,0.02286 -0.340776,0.03125 -0.53125,0.03125 l -0.40625,0 0,-1.5625 z m 7.46875,0.1875 c 0.129522,0.285717 0.256903,0.562621 0.375,0.875 0.121902,0.308573 0.253093,0.637323 0.375,0.96875 l -1.5,0 c 0.118094,-0.331427 0.256904,-0.660177 0.375,-0.96875 0.121903,-0.312379 0.241665,-0.589283 0.375,-0.875 z"
       inkscape:connector-curvature="0"
       id="path4217"
       style="font-size:5.71428585px;font-style:normal;font-variant:normal;font-weight:normal;font-stretch:normal;text-align:start;line-height:125%;letter-spacing:0px;word-spacing:0px;writing-mode:lr-tb;text-anchor:start;opacity:0.6;fill:url(#linearGradient4236);fill-opacity:1;stroke:none;font-family:Ubuntu;-inkscape-font-specification:Ubuntu" />
    <path
       d="m 40.5625,54.5 0,0.46875 c 0.125713,-0.01144 0.295058,4e-6 0.53125,0 0.14857,1e-5 0.304165,0.0084 0.4375,0.03125 0.133331,0.02286 0.24471,0.06406 0.34375,0.125 0.102855,0.05715 0.16161,0.11971 0.21875,0.21875 0.03048,0.04953 0.04668,0.125178 0.0625,0.1875 0.01916,-0.08551 0.03125,-0.173249 0.03125,-0.28125 -3e-6,-0.152378 -0.0328,-0.275949 -0.09375,-0.375 -0.05714,-0.09904 -0.115895,-0.161604 -0.21875,-0.21875 -0.09904,-0.06094 -0.210419,-0.102139 -0.34375,-0.125 -0.133335,-0.02285 -0.28893,-0.03124 -0.4375,-0.03125 -0.236192,4e-6 -0.405537,-0.01144 -0.53125,0 z m 9,0 c 0.205714,0.380956 0.423868,0.791313 0.65625,1.1875 0.23238,0.396193 0.487142,0.779882 0.75,1.1875 l 0,-0.46875 c -0.262858,-0.407618 -0.51762,-0.791307 -0.75,-1.1875 C 50.077348,54.977675 49.943768,54.741752 49.8125,54.5 l -0.25,0 z m 3.09375,0 c -0.131269,0.241752 -0.264851,0.477675 -0.40625,0.71875 -0.232384,0.392384 -0.490955,0.783692 -0.75,1.1875 l 0,0.46875 c 0.259045,-0.403808 0.517616,-0.795116 0.75,-1.1875 0.232378,-0.396187 0.450533,-0.806544 0.65625,-1.1875 l -0.25,0 z m -4.625,0.1875 c -0.133335,0.285717 -0.253097,0.562621 -0.375,0.875 -0.118096,0.308573 -0.256906,0.637323 -0.375,0.96875 l 0.1875,0 c 0.06602,-0.166901 0.126795,-0.341385 0.1875,-0.5 0.121903,-0.312379 0.241665,-0.589283 0.375,-0.875 0.129522,0.285717 0.256903,0.562621 0.375,0.875 0.06266,0.158615 0.122453,0.333099 0.1875,0.5 l 0.1875,0 c -0.121907,-0.331427 -0.253098,-0.660177 -0.375,-0.96875 -0.118097,-0.312379 -0.245478,-0.589283 -0.375,-0.875 z M 42.75,55.5625 c -0.02077,0.09939 -0.05185,0.199346 -0.09375,0.28125 -0.08,0.160002 -0.187562,0.303395 -0.34375,0.40625 -0.152383,0.09905 -0.34155,0.173037 -0.5625,0.21875 -0.06476,0.0134 -0.148905,0.02252 -0.21875,0.03125 -0.01107,0.0022 -0.01982,-0.002 -0.03125,0 -0.160192,0.01845 -0.314924,0.03125 -0.5,0.03125 -0.01114,5.9e-5 -0.02008,0 -0.03125,0 l -0.40625,0 0,0.46875 L 41,57 c 0.278093,0 0.529046,-0.01678 0.75,-0.0625 0.22095,-0.04571 0.410117,-0.1197 0.5625,-0.21875 0.156188,-0.102855 0.26375,-0.246248 0.34375,-0.40625 0.0838,-0.163808 0.124997,-0.365176 0.125,-0.59375 0,-0.05877 -0.0258,-0.101784 -0.03125,-0.15625 z M 47.125,57 46.78125,58 46.375,58 c -0.0608,0.159563 -0.125282,0.29765 -0.1875,0.46875 l 0.59375,0 0.34375,-1 1.8125,0 c 0.06095,0.17143 0.0991,0.332381 0.15625,0.5 0.05714,0.16381 0.12273,0.328572 0.1875,0.5 l 0.625,0 C 49.84403,58.29765 49.779554,58.159563 49.71875,58 l -0.4375,0 C 49.21648,57.828572 49.15089,57.66381 49.09375,57.5 49.0366,57.332381 48.99845,57.17143 48.9375,57 l -0.15625,0 -1.5,0 -0.15625,0 z M 40,58 l 0,0.46875 0.5625,0 L 40.5625,58 40,58 z m 3.5,0 0,0.46875 2.375,0 0,-0.46875 -1.8125,0 -0.5625,0 z m 7.46875,0 0,0.46875 0.53125,0 0,-0.46875 -0.53125,0 z"
       inkscape:connector-curvature="0"
       id="path4238"
       style="font-size:5.71428585px;font-style:normal;font-variant:normal;font-weight:normal;font-stretch:normal;text-align:start;line-height:125%;letter-spacing:0px;word-spacing:0px;writing-mode:lr-tb;text-anchor:start;opacity:0.8;fill:#ffffff;fill-opacity:1;stroke:none;font-family:Ubuntu;-inkscape-font-specification:Ubuntu" />
  </g>
</svg>
