<?xml version="1.0" encoding="UTF-8" standalone="no"?>
<!-- Created with Inkscape (http://www.inkscape.org/) -->

<svg
   xmlns:dc="http://purl.org/dc/elements/1.1/"
   xmlns:cc="http://creativecommons.org/ns#"
   xmlns:rdf="http://www.w3.org/1999/02/22-rdf-syntax-ns#"
   xmlns:svg="http://www.w3.org/2000/svg"
   xmlns="http://www.w3.org/2000/svg"
   xmlns:xlink="http://www.w3.org/1999/xlink"
   xmlns:inkscape="http://www.inkscape.org/namespaces/inkscape"
   version="1.0"
   width="96"
   height="96"
   id="svg2408">
  <defs
     id="defs2410">
    <linearGradient
       id="linearGradient4296">
      <stop
         id="stop4298"
         style="stop-color:#000000;stop-opacity:1"
         offset="0" />
      <stop
         id="stop4300"
         style="stop-color:#000000;stop-opacity:0"
         offset="1" />
    </linearGradient>
    <linearGradient
       id="linearGradient4778">
      <stop
         id="stop4780"
         style="stop-color:#fff9b9;stop-opacity:1"
         offset="0" />
      <stop
         id="stop4782"
         style="stop-color:#fff79e;stop-opacity:0"
         offset="1" />
    </linearGradient>
    <linearGradient
       id="linearGradient4672">
      <stop
         id="stop4674"
         style="stop-color:#000000;stop-opacity:1"
         offset="0" />
      <stop
         id="stop4676"
         style="stop-color:#000000;stop-opacity:0"
         offset="1" />
    </linearGradient>
    <linearGradient
       id="linearGradient4654">
      <stop
         id="stop4656"
         style="stop-color:#a5a5a5;stop-opacity:1"
         offset="0" />
      <stop
         id="stop4658"
         style="stop-color:#ffffff;stop-opacity:1"
         offset="0.30000001" />
      <stop
         id="stop4660"
         style="stop-color:#a5a5a5;stop-opacity:1"
         offset="0.60000002" />
      <stop
         id="stop4662"
         style="stop-color:#636363;stop-opacity:1"
         offset="1" />
    </linearGradient>
    <linearGradient
       id="linearGradient4634">
      <stop
         id="stop4636"
         style="stop-color:#000000;stop-opacity:1"
         offset="0" />
      <stop
         id="stop4642"
         style="stop-color:#a5a5a5;stop-opacity:1"
         offset="0.30000001" />
      <stop
         id="stop4644"
         style="stop-color:#4c4c4c;stop-opacity:1"
         offset="0.60000002" />
      <stop
         id="stop4638"
         style="stop-color:#000000;stop-opacity:1"
         offset="1" />
    </linearGradient>
    <linearGradient
       x1="45.447727"
       y1="92.539597"
       x2="45.447727"
       y2="7.0165396"
       id="ButtonShadow"
       gradientUnits="userSpaceOnUse"
       gradientTransform="scale(1.0058652,0.994169)">
      <stop
         id="stop3750"
         style="stop-color:#000000;stop-opacity:1"
         offset="0" />
      <stop
         id="stop3752"
         style="stop-color:#000000;stop-opacity:0.58823532"
         offset="1" />
    </linearGradient>
    <linearGradient
       id="linearGradient3737">
      <stop
         id="stop3739"
         style="stop-color:#ffffff;stop-opacity:1"
         offset="0" />
      <stop
         id="stop3741"
         style="stop-color:#ffffff;stop-opacity:0"
         offset="1" />
    </linearGradient>
    <filter
       color-interpolation-filters="sRGB"
       id="filter3174">
      <feGaussianBlur
         id="feGaussianBlur3176"
         stdDeviation="1.71" />
    </filter>
    <linearGradient
       x1="36.357143"
       y1="6"
       x2="36.357143"
       y2="63.893143"
       id="linearGradient3188"
       xlink:href="#linearGradient3737"
       gradientUnits="userSpaceOnUse" />
    <filter
       x="-0.192"
       y="-0.192"
       width="1.3839999"
       height="1.3839999"
       color-interpolation-filters="sRGB"
       id="filter3794">
      <feGaussianBlur
         id="feGaussianBlur3796"
         stdDeviation="5.28" />
    </filter>
    <linearGradient
       x1="48"
       y1="20.220806"
       x2="48"
       y2="138.66119"
       id="linearGradient3613"
       xlink:href="#linearGradient3737"
       gradientUnits="userSpaceOnUse" />
    <radialGradient
       cx="48"
       cy="90.171875"
       r="42"
       fx="48"
       fy="90.171875"
       id="radialGradient3619"
       xlink:href="#linearGradient3737"
       gradientUnits="userSpaceOnUse"
       gradientTransform="matrix(1.1573129,0,0,0.99590774,-7.5510206,0.19713193)" />
    <clipPath
       id="clipPath3613">
      <rect
         width="84"
         height="84"
         rx="6"
         ry="6"
         x="6"
         y="6"
         id="rect3615"
         style="fill:#ffffff;fill-opacity:1;fill-rule:nonzero;stroke:none" />
    </clipPath>
    <linearGradient
       x1="48"
       y1="90"
       x2="48"
       y2="5.9877172"
       id="linearGradient3617"
       xlink:href="#linearGradient3778"
       gradientUnits="userSpaceOnUse" />
    <linearGradient
       id="linearGradient3778">
      <stop
         id="stop3780"
         style="stop-color:#911935;stop-opacity:1"
         offset="0" />
      <stop
         id="stop3782"
         style="stop-color:#dd6876;stop-opacity:1"
         offset="1" />
    </linearGradient>
    <linearGradient
       x1="45.447727"
       y1="92.539597"
       x2="45.447727"
       y2="7.0165396"
       id="ButtonShadow-0"
       gradientUnits="userSpaceOnUse"
       gradientTransform="matrix(1.0058652,0,0,0.994169,100,0)">
      <stop
         id="stop3750-8"
         style="stop-color:#000000;stop-opacity:1"
         offset="0" />
      <stop
         id="stop3752-5"
         style="stop-color:#000000;stop-opacity:0.58823532"
         offset="1" />
    </linearGradient>
    <linearGradient
       x1="32.251034"
       y1="6.1317081"
       x2="32.251034"
       y2="90.238609"
       id="linearGradient3780"
       xlink:href="#ButtonShadow-0"
       gradientUnits="userSpaceOnUse"
       gradientTransform="matrix(1.0238095,0,0,1.0119048,-1.1428571,-98.071429)" />
    <linearGradient
       x1="32.251034"
       y1="6.1317081"
       x2="32.251034"
       y2="90.238609"
       id="linearGradient3772"
       xlink:href="#ButtonShadow-0"
       gradientUnits="userSpaceOnUse"
       gradientTransform="matrix(1.0238095,0,0,1.0119048,-1.1428571,-98.071429)" />
    <linearGradient
       x1="32.251034"
       y1="6.1317081"
       x2="32.251034"
       y2="90.238609"
       id="linearGradient3725"
       xlink:href="#ButtonShadow-0"
       gradientUnits="userSpaceOnUse"
       gradientTransform="matrix(1.0238095,0,0,1.0119048,-1.1428571,-98.071429)" />
    <linearGradient
       x1="32.251034"
       y1="6.1317081"
       x2="32.251034"
       y2="90.238609"
       id="linearGradient3721"
       xlink:href="#ButtonShadow-0"
       gradientUnits="userSpaceOnUse"
       gradientTransform="translate(0,-97)" />
    <linearGradient
       x1="32.251034"
       y1="6.1317081"
       x2="32.251034"
       y2="90.238609"
       id="linearGradient2918"
       xlink:href="#ButtonShadow-0"
       gradientUnits="userSpaceOnUse"
       gradientTransform="matrix(1.0238095,0,0,1.0119048,-1.1428571,-98.071429)" />
    <linearGradient
       x1="48"
       y1="56"
       x2="55.077717"
       y2="56"
       id="linearGradient4694"
       xlink:href="#linearGradient4634"
       gradientUnits="userSpaceOnUse" />
    <linearGradient
       x1="48"
       y1="56"
       x2="56.153542"
       y2="56"
       id="linearGradient4696"
       xlink:href="#linearGradient4654"
       gradientUnits="userSpaceOnUse" />
    <linearGradient
       x1="48"
       y1="56"
       x2="55.868713"
       y2="56"
       id="linearGradient4698"
       xlink:href="#linearGradient4654"
       gradientUnits="userSpaceOnUse"
       gradientTransform="matrix(1,0,0,-1,0,112)" />
    <linearGradient
       x1="48"
       y1="96"
       x2="48"
       y2="31.677887"
       id="linearGradient4700"
       xlink:href="#linearGradient4672"
       gradientUnits="userSpaceOnUse" />
    <radialGradient
       cx="32"
       cy="32"
       r="8"
       fx="32"
       fy="32"
       id="radialGradient4355"
       xlink:href="#linearGradient4215"
       gradientUnits="userSpaceOnUse" />
    <linearGradient
       id="linearGradient4215">
      <stop
         id="stop4217"
         style="stop-color:#ffb800;stop-opacity:1"
         offset="0" />
      <stop
         id="stop4219"
         style="stop-color:#ffb800;stop-opacity:0"
         offset="1" />
    </linearGradient>
    <radialGradient
       cx="29.094891"
       cy="31.601685"
       r="7.2449093"
       fx="29.094891"
       fy="31.601685"
       id="radialGradient4357"
       xlink:href="#linearGradient4223"
       gradientUnits="userSpaceOnUse" />
    <linearGradient
       id="linearGradient4223">
      <stop
         id="stop4225"
         style="stop-color:#ffe375;stop-opacity:1"
         offset="0" />
      <stop
         id="stop4227"
         style="stop-color:#ffa600;stop-opacity:1"
         offset="1" />
    </linearGradient>
    <radialGradient
       cx="32"
       cy="32"
       r="8"
       fx="32"
       fy="32"
       id="radialGradient4481"
       xlink:href="#linearGradient4215"
       gradientUnits="userSpaceOnUse" />
    <radialGradient
       cx="29.094891"
       cy="31.601685"
       r="7.2449093"
       fx="29.094891"
       fy="31.601685"
       id="radialGradient4483"
       xlink:href="#linearGradient4223"
       gradientUnits="userSpaceOnUse" />
    <radialGradient
       cx="32"
       cy="32"
       r="8"
       fx="32"
       fy="32"
       id="radialGradient4333"
       xlink:href="#linearGradient4215"
       gradientUnits="userSpaceOnUse" />
    <radialGradient
       cx="32"
       cy="32"
       r="8"
       fx="32"
       fy="32"
       id="radialGradient4397"
       xlink:href="#linearGradient4215"
       gradientUnits="userSpaceOnUse" />
    <radialGradient
       cx="29.094891"
       cy="31.601685"
       r="7.2449093"
       fx="29.094891"
       fy="31.601685"
       id="radialGradient4399"
       xlink:href="#linearGradient4223"
       gradientUnits="userSpaceOnUse" />
    <radialGradient
       cx="29.094891"
       cy="31.601685"
       r="7.2449093"
       fx="29.094891"
       fy="31.601685"
       id="radialGradient3556"
       xlink:href="#linearGradient4223"
       gradientUnits="userSpaceOnUse" />
    <radialGradient
       cx="39.04879"
       cy="28.09796"
       r="36.428211"
       fx="39.04879"
       fy="28.09796"
       id="radialGradient4903"
       xlink:href="#linearGradient4778"
       gradientUnits="userSpaceOnUse"
       gradientTransform="matrix(0.02521851,1.5993168,-0.98834063,0.01558446,65.834392,-34.7967)" />
    <linearGradient
       x1="48"
       y1="56"
       x2="54"
       y2="56"
       id="linearGradient4208"
       xlink:href="#linearGradient4634"
       gradientUnits="userSpaceOnUse" />
    <linearGradient
       x1="48"
       y1="56"
       x2="54"
       y2="56"
       id="linearGradient4210"
       xlink:href="#linearGradient4654"
       gradientUnits="userSpaceOnUse" />
    <linearGradient
       x1="48"
       y1="56"
       x2="54"
       y2="56"
       id="linearGradient4212"
       xlink:href="#linearGradient4654"
       gradientUnits="userSpaceOnUse"
       gradientTransform="matrix(1,0,0,-1,0,112)" />
    <linearGradient
       x1="48"
       y1="96"
       x2="48"
       y2="16"
       id="linearGradient4214"
       xlink:href="#linearGradient4672"
       gradientUnits="userSpaceOnUse" />
    <linearGradient
       x1="48"
       y1="56"
       x2="55.077717"
       y2="56"
       id="linearGradient4238"
       xlink:href="#linearGradient4634"
       gradientUnits="userSpaceOnUse" />
    <linearGradient
       x1="48"
       y1="56"
       x2="56.153542"
       y2="56"
       id="linearGradient4240"
       xlink:href="#linearGradient4654"
       gradientUnits="userSpaceOnUse" />
    <linearGradient
       x1="48"
       y1="56"
       x2="55.868713"
       y2="56"
       id="linearGradient4242"
       xlink:href="#linearGradient4654"
       gradientUnits="userSpaceOnUse"
       gradientTransform="matrix(1,0,0,-1,0,112)" />
    <linearGradient
       x1="48"
       y1="96"
       x2="48"
       y2="31.677887"
       id="linearGradient4244"
       xlink:href="#linearGradient4672"
       gradientUnits="userSpaceOnUse" />
    <linearGradient
       x1="79.814896"
       y1="106.04263"
       x2="39.328308"
       y2="35.917809"
       id="linearGradient4302"
       xlink:href="#linearGradient4296"
       gradientUnits="userSpaceOnUse"
       gradientTransform="matrix(0.96592583,0.25881905,-0.25881905,0.96592583,30.00523,-25.91561)" />
    <filter
       color-interpolation-filters="sRGB"
       id="filter4304">
      <feGaussianBlur
         id="feGaussianBlur4306"
         stdDeviation="0.53347418" />
    </filter>
    <linearGradient
       x1="79.814896"
       y1="106.04263"
       x2="39.328308"
       y2="35.917809"
       id="linearGradient4310"
       xlink:href="#linearGradient4296"
       gradientUnits="userSpaceOnUse"
       gradientTransform="matrix(0.96592583,0.25881905,-0.25881905,0.96592583,30.00523,-25.91561)" />
    <linearGradient
       x1="79.814896"
       y1="106.04263"
       x2="39.328308"
       y2="35.917809"
       id="linearGradient4314"
       xlink:href="#linearGradient4296"
       gradientUnits="userSpaceOnUse"
       gradientTransform="matrix(0.96592583,0.25881905,-0.25881905,0.96592583,30.00523,-25.91561)" />
    <radialGradient
       cx="39.04879"
       cy="28.09796"
       r="36.428211"
       fx="39.04879"
       fy="28.09796"
       id="radialGradient4323"
       xlink:href="#linearGradient4778"
       gradientUnits="userSpaceOnUse"
       gradientTransform="matrix(0.02521851,1.5993168,-0.98834063,0.01558446,65.834392,-34.7967)" />
  </defs>
  <metadata
     id="metadata2413">
    <rdf:RDF>
      <cc:Work
         rdf:about="">
        <dc:format>image/svg+xml</dc:format>
        <dc:type
           rdf:resource="http://purl.org/dc/dcmitype/StillImage" />
        <dc:title />
      </cc:Work>
    </rdf:RDF>
  </metadata>
  <g
     id="layer2"
     style="display:none">
    <rect
       width="86"
       height="85"
       rx="6"
       ry="6"
       x="5"
       y="7"
       id="rect3745"
       style="opacity:0.9;fill:url(#ButtonShadow);fill-opacity:1;fill-rule:nonzero;stroke:none;filter:url(#filter3174)" />
  </g>
  <g
     id="layer4"
     style="display:inline">
    <path
       d="m 12,-95.03125 c -5.5110903,0 -10.03125,4.52016 -10.03125,10.03125 l 0,71 c 0,5.5110902 4.5201598,10.03125 10.03125,10.03125 l 72,0 c 5.51109,0 10.03125,-4.5201597 10.03125,-10.03125 l 0,-71 c 0,-5.51109 -4.52016,-10.03125 -10.03125,-10.03125 l -72,0 z"
       transform="scale(1,-1)"
       id="path3786-6"
       style="opacity:0.07999998;fill:url(#linearGradient2918);fill-opacity:1;fill-rule:nonzero;stroke:none;display:inline" />
    <path
       d="m 12,-94.03125 c -4.971633,0 -9.03125,4.059617 -9.03125,9.03125 l 0,71 c 0,4.9716329 4.0596171,9.03125 9.03125,9.03125 l 72,0 c 4.971633,0 9.03125,-4.059617 9.03125,-9.03125 l 0,-71 c 0,-4.971633 -4.059617,-9.03125 -9.03125,-9.03125 l -72,0 z"
       transform="scale(1,-1)"
       id="path3778"
       style="opacity:0.1;fill:url(#linearGradient3780);fill-opacity:1;fill-rule:nonzero;stroke:none;display:inline" />
    <path
       d="m 12,-93 c -4.4091333,0 -8,3.590867 -8,8 l 0,71 c 0,4.4091333 3.5908667,8 8,8 l 72,0 c 4.409133,0 8,-3.5908667 8,-8 l 0,-71 c 0,-4.409133 -3.590867,-8 -8,-8 l -72,0 z"
       transform="scale(1,-1)"
       id="path3770"
       style="opacity:0.2;fill:url(#linearGradient3772);fill-opacity:1;fill-rule:nonzero;stroke:none;display:inline" />
    <rect
       width="86"
       height="85"
       rx="7"
       ry="7"
       x="5"
       y="-92"
       transform="scale(1,-1)"
       id="rect3723"
       style="opacity:0.3;fill:url(#linearGradient3725);fill-opacity:1;fill-rule:nonzero;stroke:none;display:inline" />
    <rect
       width="84"
       height="84"
       rx="6"
       ry="6"
       x="6"
       y="-91"
       transform="scale(1,-1)"
       id="rect3716"
       style="opacity:0.45;fill:url(#linearGradient3721);fill-opacity:1;fill-rule:nonzero;stroke:none;display:inline" />
  </g>
  <g
     id="layer1">
    <rect
       width="84"
       height="84"
       rx="6"
       ry="6"
       x="6"
       y="6"
       id="rect2419"
       style="fill:url(#linearGradient3617);fill-opacity:1;fill-rule:nonzero;stroke:none" />
    <path
       d="M 12,6 C 8.676,6 6,8.676 6,12 l 0,2 0,68 0,2 c 0,0.334721 0.04135,0.6507 0.09375,0.96875 0.0487,0.295596 0.09704,0.596915 0.1875,0.875 0.00988,0.03038 0.020892,0.0636 0.03125,0.09375 0.098865,0.287771 0.2348802,0.547452 0.375,0.8125 0.1445918,0.273507 0.3156161,0.535615 0.5,0.78125 0.1843839,0.245635 0.3737765,0.473472 0.59375,0.6875 0.439947,0.428056 0.94291,0.814526 1.5,1.09375 0.278545,0.139612 0.5734731,0.246947 0.875,0.34375 -0.2562018,-0.100222 -0.4867109,-0.236272 -0.71875,-0.375 -0.00741,-0.0044 -0.023866,0.0045 -0.03125,0 -0.031933,-0.0193 -0.062293,-0.04251 -0.09375,-0.0625 -0.120395,-0.0767 -0.2310226,-0.163513 -0.34375,-0.25 -0.1061728,-0.0808 -0.2132809,-0.161112 -0.3125,-0.25 C 8.4783201,88.557317 8.3087904,88.373362 8.15625,88.1875 8.0486711,88.057245 7.9378561,87.922215 7.84375,87.78125 7.818661,87.74287 7.805304,87.69538 7.78125,87.65625 7.716487,87.553218 7.6510225,87.451733 7.59375,87.34375 7.4927417,87.149044 7.3880752,86.928049 7.3125,86.71875 7.30454,86.69694 7.288911,86.6782 7.28125,86.65625 7.2494249,86.5643 7.2454455,86.469419 7.21875,86.375 7.1884177,86.268382 7.1483606,86.171969 7.125,86.0625 7.0521214,85.720988 7,85.364295 7,85 L 7,83 7,15 7,13 C 7,10.218152 9.2181517,8 12,8 l 2,0 68,0 2,0 c 2.781848,0 5,2.218152 5,5 l 0,2 0,68 0,2 c 0,0.364295 -0.05212,0.720988 -0.125,1.0625 -0.04415,0.206893 -0.08838,0.397658 -0.15625,0.59375 -0.0077,0.02195 -0.0233,0.04069 -0.03125,0.0625 -0.06274,0.173739 -0.138383,0.367449 -0.21875,0.53125 -0.04158,0.0828 -0.07904,0.169954 -0.125,0.25 -0.0546,0.09721 -0.126774,0.18835 -0.1875,0.28125 -0.09411,0.140965 -0.204921,0.275995 -0.3125,0.40625 -0.143174,0.17445 -0.303141,0.346998 -0.46875,0.5 -0.01117,0.0102 -0.01998,0.02115 -0.03125,0.03125 -0.138386,0.125556 -0.285091,0.234436 -0.4375,0.34375 -0.102571,0.07315 -0.204318,0.153364 -0.3125,0.21875 -0.0074,0.0045 -0.02384,-0.0044 -0.03125,0 -0.232039,0.138728 -0.462548,0.274778 -0.71875,0.375 0.301527,-0.0968 0.596455,-0.204138 0.875,-0.34375 0.55709,-0.279224 1.060053,-0.665694 1.5,-1.09375 0.219973,-0.214028 0.409366,-0.441865 0.59375,-0.6875 0.184384,-0.245635 0.355408,-0.507743 0.5,-0.78125 0.14012,-0.265048 0.276135,-0.524729 0.375,-0.8125 0.01041,-0.03078 0.02133,-0.06274 0.03125,-0.09375 0.09046,-0.278085 0.1388,-0.579404 0.1875,-0.875 C 89.95865,84.6507 90,84.334721 90,84 l 0,-2 0,-68 0,-2 C 90,8.676 87.324,6 84,6 L 12,6 z"
       inkscape:connector-curvature="0"
       id="rect3728"
       style="opacity:0.5;fill:url(#linearGradient3188);fill-opacity:1;fill-rule:nonzero;stroke:none" />
    <path
       d="M 12,90 C 8.676,90 6,87.324 6,84 L 6,82 6,14 6,12 c 0,-0.334721 0.04135,-0.6507 0.09375,-0.96875 0.0487,-0.295596 0.09704,-0.596915 0.1875,-0.875 C 6.29113,10.12587 6.302142,10.09265 6.3125,10.0625 6.411365,9.774729 6.5473802,9.515048 6.6875,9.25 6.8320918,8.976493 7.0031161,8.714385 7.1875,8.46875 7.3718839,8.223115 7.5612765,7.995278 7.78125,7.78125 8.221197,7.353194 8.72416,6.966724 9.28125,6.6875 9.559795,6.547888 9.8547231,6.440553 10.15625,6.34375 9.9000482,6.443972 9.6695391,6.580022 9.4375,6.71875 c -0.00741,0.0044 -0.023866,-0.0045 -0.03125,0 -0.031933,0.0193 -0.062293,0.04251 -0.09375,0.0625 -0.120395,0.0767 -0.2310226,0.163513 -0.34375,0.25 -0.1061728,0.0808 -0.2132809,0.161112 -0.3125,0.25 C 8.4783201,7.442683 8.3087904,7.626638 8.15625,7.8125 8.0486711,7.942755 7.9378561,8.077785 7.84375,8.21875 7.818661,8.25713 7.805304,8.30462 7.78125,8.34375 7.716487,8.446782 7.6510225,8.548267 7.59375,8.65625 7.4927417,8.850956 7.3880752,9.071951 7.3125,9.28125 7.30454,9.30306 7.288911,9.3218 7.28125,9.34375 7.2494249,9.4357 7.2454455,9.530581 7.21875,9.625 7.1884177,9.731618 7.1483606,9.828031 7.125,9.9375 7.0521214,10.279012 7,10.635705 7,11 l 0,2 0,68 0,2 c 0,2.781848 2.2181517,5 5,5 l 2,0 68,0 2,0 c 2.781848,0 5,-2.218152 5,-5 l 0,-2 0,-68 0,-2 C 89,10.635705 88.94788,10.279012 88.875,9.9375 88.83085,9.730607 88.78662,9.539842 88.71875,9.34375 88.71105,9.3218 88.69545,9.30306 88.6875,9.28125 88.62476,9.107511 88.549117,8.913801 88.46875,8.75 88.42717,8.6672 88.38971,8.580046 88.34375,8.5 88.28915,8.40279 88.216976,8.31165 88.15625,8.21875 88.06214,8.077785 87.951329,7.942755 87.84375,7.8125 87.700576,7.63805 87.540609,7.465502 87.375,7.3125 87.36383,7.3023 87.35502,7.29135 87.34375,7.28125 87.205364,7.155694 87.058659,7.046814 86.90625,6.9375 86.803679,6.86435 86.701932,6.784136 86.59375,6.71875 c -0.0074,-0.0045 -0.02384,0.0044 -0.03125,0 -0.232039,-0.138728 -0.462548,-0.274778 -0.71875,-0.375 0.301527,0.0968 0.596455,0.204138 0.875,0.34375 0.55709,0.279224 1.060053,0.665694 1.5,1.09375 0.219973,0.214028 0.409366,0.441865 0.59375,0.6875 0.184384,0.245635 0.355408,0.507743 0.5,0.78125 0.14012,0.265048 0.276135,0.524729 0.375,0.8125 0.01041,0.03078 0.02133,0.06274 0.03125,0.09375 0.09046,0.278085 0.1388,0.579404 0.1875,0.875 C 89.95865,11.3493 90,11.665279 90,12 l 0,2 0,68 0,2 c 0,3.324 -2.676,6 -6,6 l -72,0 z"
       inkscape:connector-curvature="0"
       id="path3615"
       style="opacity:0.2;fill:url(#radialGradient3619);fill-opacity:1;fill-rule:nonzero;stroke:none" />
  </g>
  <g
     id="layer5">
    <rect
       width="66"
       height="66"
       rx="12"
       ry="12"
       x="15"
       y="15"
       clip-path="url(#clipPath3613)"
       id="rect3171"
       style="opacity:0.1;fill:url(#linearGradient3613);fill-opacity:1;fill-rule:nonzero;stroke:#ffffff;stroke-width:0.5;stroke-linecap:round;stroke-linejoin:miter;stroke-miterlimit:4;stroke-opacity:1;stroke-dasharray:none;stroke-dashoffset:0;filter:url(#filter3794)" />
  </g>
  <g
     id="layer3">
    <path
       d="m 61.895589,17.34349 c -0.135233,-0.04214 -0.28289,-0.05044 -0.416672,-0.01459 l -5.787197,1.555153 c -0.535123,0.143386 -0.804929,0.915704 -0.58985,1.718389 l 3.238555,12.061692 6.733607,25.097978 4.37878,16.37891 5.585295,20.810946 c 0.215078,0.802687 0.824216,1.348782 1.359339,1.205396 l 5.787197,-1.555154 c 0.535123,-0.143386 0.804929,-0.915701 0.589851,-1.718388 L 77.189199,72.072876 72.810419,55.693967 66.076812,30.595988 62.838256,18.534296 C 62.676947,17.932283 62.301288,17.469904 61.895589,17.34349 z"
       inkscape:connector-curvature="0"
       transform="matrix(0.8286091,-0.55982761,0.55982761,0.8286091,-40.811413,58.691203)"
       id="path4312"
       style="opacity:0.1;color:#000000;fill:url(#linearGradient4314);fill-opacity:1;fill-rule:nonzero;stroke:none;stroke-width:1;marker:none;visibility:visible;display:inline;overflow:visible;filter:url(#filter4304);enable-background:accumulate" />
    <path
       d="m 61.895589,17.34349 c -0.135233,-0.04214 -0.28289,-0.05044 -0.416672,-0.01459 l -5.787197,1.555153 c -0.535123,0.143386 -0.804929,0.915704 -0.58985,1.718389 l 3.238555,12.061692 6.733607,25.097978 4.37878,16.37891 5.585295,20.810946 c 0.215078,0.802687 0.824216,1.348782 1.359339,1.205396 l 5.787197,-1.555154 c 0.535123,-0.143386 0.804929,-0.915701 0.589851,-1.718388 L 77.189199,72.072876 72.810419,55.693967 66.076812,30.595988 62.838256,18.534296 C 62.676947,17.932283 62.301288,17.469904 61.895589,17.34349 z"
       inkscape:connector-curvature="0"
       transform="matrix(0.93863507,-0.34491188,0.34491188,0.93863507,-28.481108,31.913896)"
       id="path4308"
       style="opacity:0.3;color:#000000;fill:url(#linearGradient4310);fill-opacity:1;fill-rule:nonzero;stroke:none;stroke-width:1;marker:none;visibility:visible;display:inline;overflow:visible;filter:url(#filter4304);enable-background:accumulate" />
    <path
       d="m 61.895589,17.34349 c -0.135233,-0.04214 -0.28289,-0.05044 -0.416672,-0.01459 l -5.787197,1.555153 c -0.535123,0.143386 -0.804929,0.915704 -0.58985,1.718389 l 3.238555,12.061692 6.733607,25.097978 4.37878,16.37891 5.585295,20.810946 c 0.215078,0.802687 0.824216,1.348782 1.359339,1.205396 l 5.787197,-1.555154 c 0.535123,-0.143386 0.804929,-0.915701 0.589851,-1.718388 L 77.189199,72.072876 72.810419,55.693967 66.076812,30.595988 62.838256,18.534296 C 62.676947,17.932283 62.301288,17.469904 61.895589,17.34349 z"
       inkscape:connector-curvature="0"
       id="rect4250"
       style="opacity:0.12000002;color:#000000;fill:url(#linearGradient4302);fill-opacity:1;fill-rule:nonzero;stroke:none;stroke-width:1;marker:none;visibility:visible;display:inline;overflow:visible;filter:url(#filter4304);enable-background:accumulate" />
    <path
       d="m 73.34375,6 c -7.360276,25.499114 -22.654005,54.407743 -36,50.03125 C 23.296473,51.424788 32.225198,32.751577 36.6875,28.15625 31.433271,33.083079 18.287468,53.438221 35.0625,62.34375 47.995141,69.20943 74.795715,53.55914 90,32.375 L 90,12 C 90,8.676 87.324,6 84,6 L 73.34375,6 z"
       inkscape:connector-curvature="0"
       id="path4776"
       style="opacity:0.4;fill:url(#radialGradient4323);fill-opacity:1;stroke:none" />
    <g
       id="g4216">
      <g
         transform="translate(70,0)"
         id="g4687">
        <rect
           width="8"
           height="80"
           rx="1"
           ry="1.5"
           x="48"
           y="16"
           id="rect3864"
           style="color:#000000;fill:url(#linearGradient4694);fill-opacity:1;fill-rule:nonzero;stroke:none;stroke-width:1;marker:none;visibility:visible;display:inline;overflow:visible;enable-background:accumulate" />
        <path
           d="m 49,16 c -0.554,0 -1,0.669 -1,1.5 l 0,12.5 8,0 0,-12.5 C 56,16.669 55.554,16 55,16 z"
           inkscape:connector-curvature="0"
           id="rect4648"
           style="color:#000000;fill:url(#linearGradient4696);fill-opacity:1;fill-rule:nonzero;stroke:none;stroke-width:1;marker:none;visibility:visible;display:inline;overflow:visible;enable-background:accumulate" />
        <path
           d="m 49,96 c -0.554,0 -1,-0.669 -1,-1.5 l 0,-12.5 8,0 0,12.5 c 0,0.831 -0.446,1.5 -1,1.5 z"
           inkscape:connector-curvature="0"
           id="path4666"
           style="color:#000000;fill:url(#linearGradient4698);fill-opacity:1;fill-rule:nonzero;stroke:none;stroke-width:1;marker:none;visibility:visible;display:inline;overflow:visible;enable-background:accumulate" />
        <rect
           width="8"
           height="80"
           rx="1"
           ry="1.5"
           x="48"
           y="16"
           id="rect4670"
           style="opacity:0.3;color:#000000;fill:url(#linearGradient4700);fill-opacity:1;fill-rule:nonzero;stroke:none;stroke-width:1;marker:none;visibility:visible;display:inline;overflow:visible;enable-background:accumulate" />
        <path
           d="m 49,16 c -0.554,0 -1,0.669 -1,1.5 l 0,77 c 0,0.831 0.446,1.5 1,1.5 l 6,0 c 0.554,0 1,-0.669 1,-1.5 l 0,-77 C 56,16.669 55.554,16 55,16 z m 0.125,1 5.75,0 C 54.92429,17.07394 55,17.264325 55,17.5 l 0,77 c 0,0.235675 -0.07571,0.426061 -0.125,0.5 l -5.75,0 C 49.075707,94.926061 49,94.735675 49,94.5 l 0,-77 c 0,-0.235675 0.07571,-0.426061 0.125,-0.5 z"
           inkscape:connector-curvature="0"
           id="rect4680"
           style="opacity:0.2;color:#000000;fill:#000000;fill-opacity:1;fill-rule:nonzero;stroke:none;stroke-width:1;marker:none;visibility:visible;display:inline;overflow:visible;enable-background:accumulate" />
      </g>
    </g>
    <g
       transform="matrix(1.1298846,0,0,1.1298846,7.44748,29.550012)"
       id="g4201"
       style="fill:#ffcc00;display:inline;enable-background:new">
      <path
         d="m 40,32 a 8,8 0 1 1 -16,0 8,8 0 1 1 16,0 z"
         transform="translate(-1,-1)"
         id="path4203"
         style="color:#000000;fill:url(#radialGradient4333);fill-opacity:1;fill-rule:nonzero;stroke:none;stroke-width:1;marker:none;visibility:visible;display:inline;overflow:visible;enable-background:accumulate" />
      <path
         d="m 23.90625,22.633975 2.383468,8.216066 -6.186993,5.931209 8.186993,-2.467107 5.991532,6.270632 -2.52743,-8.270632 6.330955,-5.907893 -8.330955,2.443791 -5.84757,-6.216066 z"
         inkscape:connector-curvature="0"
         transform="matrix(0.8660254,0.5,-0.5,0.8660254,21.657457,-10.861778)"
         id="path4205"
         style="opacity:0.1;color:#000000;fill:#ffcc00;fill-opacity:1;fill-rule:nonzero;stroke:none;stroke-width:1;marker:none;visibility:visible;display:inline;overflow:visible;enable-background:accumulate" />
      <path
         d="m 33.777741,39.712619 -5.216804,-6.034048 -7.576981,2.605964 6.074408,-5.15034 -2.646323,-7.643445 5.163457,6.064847 7.630327,-2.636762 -6.025795,5.354295 2.597711,7.439489 z"
         inkscape:connector-curvature="0"
         transform="matrix(0.8660254,0.5,-0.5,0.8660254,21.657457,-10.861778)"
         id="path4207"
         style="opacity:0.2;color:#000000;fill:#ffcc00;fill-opacity:1;fill-rule:nonzero;stroke:none;stroke-width:1;marker:none;visibility:visible;display:inline;overflow:visible;enable-background:accumulate" />
      <path
         d="m 33.277741,38.846594 -4.529283,-5.952006 -6.898477,2.889947 5.952006,-4.529283 -2.889946,-6.898477 4.529282,5.952006 6.898477,-2.889946 -5.952006,4.529282 z"
         transform="matrix(0.8660254,0.5,-0.5,0.8660254,21.657457,-10.861778)"
         id="path4209"
         style="color:#000000;fill:url(#radialGradient3556);fill-opacity:1;fill-rule:nonzero;stroke:none;stroke-width:1;marker:none;visibility:visible;display:inline;overflow:visible;enable-background:accumulate" />
    </g>
    <g
       transform="matrix(0.74835613,0,0,0.74835613,49.786131,23.15389)"
       id="g4345"
       style="fill:#ffcc00;display:inline;enable-background:new">
      <path
         d="m 40,32 a 8,8 0 1 1 -16,0 8,8 0 1 1 16,0 z"
         transform="translate(-1,-1)"
         id="path4347"
         style="color:#000000;fill:url(#radialGradient4355);fill-opacity:1;fill-rule:nonzero;stroke:none;stroke-width:1;marker:none;visibility:visible;display:inline;overflow:visible;enable-background:accumulate" />
      <path
         d="m 23.90625,22.633975 2.383468,8.216066 -6.186993,5.931209 8.186993,-2.467107 5.991532,6.270632 -2.52743,-8.270632 6.330955,-5.907893 -8.330955,2.443791 -5.84757,-6.216066 z"
         inkscape:connector-curvature="0"
         transform="matrix(0.8660254,0.5,-0.5,0.8660254,21.657457,-10.861778)"
         id="path4349"
         style="opacity:0.1;color:#000000;fill:#ffcc00;fill-opacity:1;fill-rule:nonzero;stroke:none;stroke-width:1;marker:none;visibility:visible;display:inline;overflow:visible;enable-background:accumulate" />
      <path
         d="m 33.777741,39.712619 -5.216804,-6.034048 -7.576981,2.605964 6.074408,-5.15034 -2.646323,-7.643445 5.163457,6.064847 7.630327,-2.636762 -6.025795,5.354295 2.597711,7.439489 z"
         inkscape:connector-curvature="0"
         transform="matrix(0.8660254,0.5,-0.5,0.8660254,21.657457,-10.861778)"
         id="path4351"
         style="opacity:0.2;color:#000000;fill:#ffcc00;fill-opacity:1;fill-rule:nonzero;stroke:none;stroke-width:1;marker:none;visibility:visible;display:inline;overflow:visible;enable-background:accumulate" />
      <path
         d="m 33.277741,38.846594 -4.529283,-5.952006 -6.898477,2.889947 5.952006,-4.529283 -2.889946,-6.898477 4.529282,5.952006 6.898477,-2.889946 -5.952006,4.529282 z"
         transform="matrix(0.8660254,0.5,-0.5,0.8660254,21.657457,-10.861778)"
         id="path4353"
         style="color:#000000;fill:url(#radialGradient4357);fill-opacity:1;fill-rule:nonzero;stroke:none;stroke-width:1;marker:none;visibility:visible;display:inline;overflow:visible;enable-background:accumulate" />
    </g>
    <g
       transform="matrix(1.8398335,0,0,1.8398335,-31.184817,-10.840219)"
       id="g4387"
       style="fill:#ffcc00;display:inline;enable-background:new">
      <path
         d="m 40,32 a 8,8 0 1 1 -16,0 8,8 0 1 1 16,0 z"
         transform="translate(-1,-1)"
         id="path4389"
         style="color:#000000;fill:url(#radialGradient4397);fill-opacity:1;fill-rule:nonzero;stroke:none;stroke-width:1;marker:none;visibility:visible;display:inline;overflow:visible;enable-background:accumulate" />
      <path
         d="m 23.90625,22.633975 2.383468,8.216066 -6.186993,5.931209 8.186993,-2.467107 5.991532,6.270632 -2.52743,-8.270632 6.330955,-5.907893 -8.330955,2.443791 -5.84757,-6.216066 z"
         inkscape:connector-curvature="0"
         transform="matrix(0.8660254,0.5,-0.5,0.8660254,21.657457,-10.861778)"
         id="path4391"
         style="opacity:0.1;color:#000000;fill:#ffcc00;fill-opacity:1;fill-rule:nonzero;stroke:none;stroke-width:1;marker:none;visibility:visible;display:inline;overflow:visible;enable-background:accumulate" />
      <path
         d="m 33.777741,39.712619 -5.216804,-6.034048 -7.576981,2.605964 6.074408,-5.15034 -2.646323,-7.643445 5.163457,6.064847 7.630327,-2.636762 -6.025795,5.354295 2.597711,7.439489 z"
         inkscape:connector-curvature="0"
         transform="matrix(0.8660254,0.5,-0.5,0.8660254,21.657457,-10.861778)"
         id="path4393"
         style="opacity:0.2;color:#000000;fill:#ffcc00;fill-opacity:1;fill-rule:nonzero;stroke:none;stroke-width:1;marker:none;visibility:visible;display:inline;overflow:visible;enable-background:accumulate" />
      <path
         d="m 33.277741,38.846594 -4.529283,-5.952006 -6.898477,2.889947 5.952006,-4.529283 -2.889946,-6.898477 4.529282,5.952006 6.898477,-2.889946 -5.952006,4.529282 z"
         transform="matrix(0.8660254,0.5,-0.5,0.8660254,21.657457,-10.861778)"
         id="path4395"
         style="color:#000000;fill:url(#radialGradient4399);fill-opacity:1;fill-rule:nonzero;stroke:none;stroke-width:1;marker:none;visibility:visible;display:inline;overflow:visible;enable-background:accumulate" />
    </g>
    <g
       transform="matrix(0.87787637,0,0,0.87787637,3.932715,-6.34023)"
       id="g4471"
       style="fill:#ffcc00;display:inline;enable-background:new">
      <path
         d="m 40,32 a 8,8 0 1 1 -16,0 8,8 0 1 1 16,0 z"
         transform="translate(-1,-1)"
         id="path4473"
         style="color:#000000;fill:url(#radialGradient4481);fill-opacity:1;fill-rule:nonzero;stroke:none;stroke-width:1;marker:none;visibility:visible;display:inline;overflow:visible;enable-background:accumulate" />
      <path
         d="m 23.90625,22.633975 2.383468,8.216066 -6.186993,5.931209 8.186993,-2.467107 5.991532,6.270632 -2.52743,-8.270632 6.330955,-5.907893 -8.330955,2.443791 -5.84757,-6.216066 z"
         inkscape:connector-curvature="0"
         transform="matrix(0.8660254,0.5,-0.5,0.8660254,21.657457,-10.861778)"
         id="path4475"
         style="opacity:0.1;color:#000000;fill:#ffcc00;fill-opacity:1;fill-rule:nonzero;stroke:none;stroke-width:1;marker:none;visibility:visible;display:inline;overflow:visible;enable-background:accumulate" />
      <path
         d="m 33.777741,39.712619 -5.216804,-6.034048 -7.576981,2.605964 6.074408,-5.15034 -2.646323,-7.643445 5.163457,6.064847 7.630327,-2.636762 -6.025795,5.354295 2.597711,7.439489 z"
         inkscape:connector-curvature="0"
         transform="matrix(0.8660254,0.5,-0.5,0.8660254,21.657457,-10.861778)"
         id="path4477"
         style="opacity:0.2;color:#000000;fill:#ffcc00;fill-opacity:1;fill-rule:nonzero;stroke:none;stroke-width:1;marker:none;visibility:visible;display:inline;overflow:visible;enable-background:accumulate" />
      <path
         d="m 33.277741,38.846594 -4.529283,-5.952006 -6.898477,2.889947 5.952006,-4.529283 -2.889946,-6.898477 4.529282,5.952006 6.898477,-2.889946 -5.952006,4.529282 z"
         transform="matrix(0.8660254,0.5,-0.5,0.8660254,21.657457,-10.861778)"
         id="path4479"
         style="color:#000000;fill:url(#radialGradient4483);fill-opacity:1;fill-rule:nonzero;stroke:none;stroke-width:1;marker:none;visibility:visible;display:inline;overflow:visible;enable-background:accumulate" />
    </g>
    <path
       d="M 76.6875,-9.84375 A 1.4541256,1.4541256 0 0 0 75.28125,-8.625 C 73.00568,4.8008624 67.467265,22.213273 60.5625,35.46875 57.110118,42.096488 53.305299,47.680148 49.53125,51.1875 45.757201,54.694852 42.235925,56.070883 38.875,54.96875 35.469945,53.852145 33.796,52.00109 32.9375,49.6875 c -0.8585,-2.31359 -0.790906,-5.207445 -0.125,-8.125 0.665906,-2.917555 1.907685,-5.838542 3.21875,-8.15625 1.311065,-2.317708 2.820599,-4.084934 3.375,-4.46875 L 38.59375,27.75 37.75,26.5625 c -1.396565,1.011306 -3.259903,3.034721 -5.25,5.78125 -1.990097,2.746529 -4.040377,6.166856 -5.375,9.875 -1.334623,3.708144 -1.976089,7.742496 -1.03125,11.5625 0.944839,3.820004 3.554543,7.334435 8.28125,9.84375 4.965377,2.636019 11.452026,2.235318 18.34375,-0.09375 6.891724,-2.329068 14.287059,-6.6334 21.25,-12.21875 C 87.894632,40.141801 100.12795,23.849146 102.28125,7.5 A 1.4541256,1.4541256 0 0 0 101.625,6.09375 L 77.5,-9.59375 a 1.4541256,1.4541256 0 0 0 -0.8125,-0.25 z"
       id="path4901"
       style="opacity:0;fill:url(#radialGradient4903);fill-opacity:1;stroke:none" />
    <g
       transform="translate(90,0)"
       id="g4196">
      <rect
         width="6"
         height="80"
         rx="1"
         ry="1.5"
         x="48"
         y="16"
         id="rect4198"
         style="color:#000000;fill:url(#linearGradient4208);fill-opacity:1;fill-rule:nonzero;stroke:none;stroke-width:1;marker:none;visibility:visible;display:inline;overflow:visible;enable-background:accumulate" />
      <path
         d="m 49,16 c -0.554,0 -1,0.669 -1,1.5 l 0,10.5 6,0 0,-10.5 C 54,16.669 53.554,16 53,16 z"
         inkscape:connector-curvature="0"
         id="path4200"
         style="color:#000000;fill:url(#linearGradient4210);fill-opacity:1;fill-rule:nonzero;stroke:none;stroke-width:1;marker:none;visibility:visible;display:inline;overflow:visible;enable-background:accumulate" />
      <path
         d="m 49,96 c -0.554,0 -1,-0.669 -1,-1.5 l 0,-10.5 6,0 0,10.5 c 0,0.831 -0.446,1.5 -1,1.5 z"
         inkscape:connector-curvature="0"
         id="path4202"
         style="color:#000000;fill:url(#linearGradient4212);fill-opacity:1;fill-rule:nonzero;stroke:none;stroke-width:1;marker:none;visibility:visible;display:inline;overflow:visible;enable-background:accumulate" />
      <rect
         width="6"
         height="80"
         rx="1"
         ry="1.5"
         x="48"
         y="16"
         id="rect4204"
         style="opacity:0.3;color:#000000;fill:url(#linearGradient4214);fill-opacity:1;fill-rule:nonzero;stroke:none;stroke-width:1;marker:none;visibility:visible;display:inline;overflow:visible;enable-background:accumulate" />
      <path
         d="m 49,16 c -0.554,0 -1,0.669 -1,1.5 l 0,77 c 0,0.831 0.446,1.5 1,1.5 l 4,0 c 0.554,0 1,-0.669 1,-1.5 l 0,-77 C 54,16.669 53.554,16 53,16 l -4,0 z m 0.125,1 3.75,0 C 52.92429,17.07394 53,17.264325 53,17.5 l 0,77 c 0,0.235675 -0.07571,0.426061 -0.125,0.5 l -3.75,0 C 49.075707,94.926061 49,94.735675 49,94.5 l 0,-77 c 0,-0.235675 0.07571,-0.426061 0.125,-0.5 z"
         inkscape:connector-curvature="0"
         id="path4206"
         style="opacity:0.2;color:#000000;fill:#000000;fill-opacity:1;fill-rule:nonzero;stroke:none;stroke-width:1;marker:none;visibility:visible;display:inline;overflow:visible;enable-background:accumulate" />
    </g>
    <g
       transform="matrix(0.8660254,-0.5,0.5,0.8660254,-74.655099,72.267662)"
       id="g4224">
      <g
         transform="translate(70,0)"
         id="g4226">
        <rect
           width="8"
           height="80"
           rx="1"
           ry="1.5"
           x="48"
           y="16"
           id="rect4228"
           style="color:#000000;fill:url(#linearGradient4238);fill-opacity:1;fill-rule:nonzero;stroke:none;stroke-width:1;marker:none;visibility:visible;display:inline;overflow:visible;enable-background:accumulate" />
        <path
           d="m 49,16 c -0.554,0 -1,0.669 -1,1.5 l 0,12.5 8,0 0,-12.5 C 56,16.669 55.554,16 55,16 z"
           inkscape:connector-curvature="0"
           id="path4230"
           style="color:#000000;fill:url(#linearGradient4240);fill-opacity:1;fill-rule:nonzero;stroke:none;stroke-width:1;marker:none;visibility:visible;display:inline;overflow:visible;enable-background:accumulate" />
        <path
           d="m 49,96 c -0.554,0 -1,-0.669 -1,-1.5 l 0,-12.5 8,0 0,12.5 c 0,0.831 -0.446,1.5 -1,1.5 z"
           inkscape:connector-curvature="0"
           id="path4232"
           style="color:#000000;fill:url(#linearGradient4242);fill-opacity:1;fill-rule:nonzero;stroke:none;stroke-width:1;marker:none;visibility:visible;display:inline;overflow:visible;enable-background:accumulate" />
        <rect
           width="8"
           height="80"
           rx="1"
           ry="1.5"
           x="48"
           y="16"
           id="rect4234"
           style="opacity:0.3;color:#000000;fill:url(#linearGradient4244);fill-opacity:1;fill-rule:nonzero;stroke:none;stroke-width:1;marker:none;visibility:visible;display:inline;overflow:visible;enable-background:accumulate" />
        <path
           d="m 49,16 c -0.554,0 -1,0.669 -1,1.5 l 0,77 c 0,0.831 0.446,1.5 1,1.5 l 6,0 c 0.554,0 1,-0.669 1,-1.5 l 0,-77 C 56,16.669 55.554,16 55,16 z m 0.125,1 5.75,0 C 54.92429,17.07394 55,17.264325 55,17.5 l 0,77 c 0,0.235675 -0.07571,0.426061 -0.125,0.5 l -5.75,0 C 49.075707,94.926061 49,94.735675 49,94.5 l 0,-77 c 0,-0.235675 0.07571,-0.426061 0.125,-0.5 z"
           inkscape:connector-curvature="0"
           id="path4236"
           style="opacity:0.2;color:#000000;fill:#000000;fill-opacity:1;fill-rule:nonzero;stroke:none;stroke-width:1;marker:none;visibility:visible;display:inline;overflow:visible;enable-background:accumulate" />
      </g>
    </g>
  </g>
</svg>
