<?xml version="1.0" encoding="UTF-8" standalone="no"?>
<!-- Created with Inkscape (http://www.inkscape.org/) -->

<svg
   xmlns:dc="http://purl.org/dc/elements/1.1/"
   xmlns:cc="http://creativecommons.org/ns#"
   xmlns:rdf="http://www.w3.org/1999/02/22-rdf-syntax-ns#"
   xmlns:svg="http://www.w3.org/2000/svg"
   xmlns="http://www.w3.org/2000/svg"
   xmlns:xlink="http://www.w3.org/1999/xlink"
   xmlns:inkscape="http://www.inkscape.org/namespaces/inkscape"
   version="1.0"
   width="96"
   height="96"
   id="svg2408">
  <defs
     id="defs2410">
    <linearGradient
       id="linearGradient3666">
      <stop
         id="stop3668"
         style="stop-color:#115575;stop-opacity:1"
         offset="0" />
      <stop
         id="stop3670"
         style="stop-color:#197ba9;stop-opacity:1"
         offset="1" />
    </linearGradient>
    <linearGradient
       x1="45.447727"
       y1="92.539597"
       x2="45.447727"
       y2="7.0165396"
       id="ButtonShadow"
       gradientUnits="userSpaceOnUse"
       gradientTransform="scale(1.0058652,0.994169)">
      <stop
         id="stop3750"
         style="stop-color:#000000;stop-opacity:1"
         offset="0" />
      <stop
         id="stop3752"
         style="stop-color:#000000;stop-opacity:0.58823532"
         offset="1" />
    </linearGradient>
    <linearGradient
       id="linearGradient3737">
      <stop
         id="stop3739"
         style="stop-color:#ffffff;stop-opacity:1"
         offset="0" />
      <stop
         id="stop3741"
         style="stop-color:#ffffff;stop-opacity:0"
         offset="1" />
    </linearGradient>
    <linearGradient
       id="linearGradient3700">
      <stop
         id="stop3702"
         style="stop-color:#146d96;stop-opacity:0.97254902"
         offset="0" />
      <stop
         id="stop3704"
         style="stop-color:#3cade2;stop-opacity:0.99607843"
         offset="1" />
    </linearGradient>
    <filter
       color-interpolation-filters="sRGB"
       id="filter3174">
      <feGaussianBlur
         id="feGaussianBlur3176"
         stdDeviation="1.71" />
    </filter>
    <linearGradient
       x1="36.357143"
       y1="6"
       x2="36.357143"
       y2="63.893143"
       id="linearGradient3188"
       xlink:href="#linearGradient3737"
       gradientUnits="userSpaceOnUse" />
    <filter
       x="-0.192"
       y="-0.192"
       width="1.3839999"
       height="1.3839999"
       color-interpolation-filters="sRGB"
       id="filter3794">
      <feGaussianBlur
         id="feGaussianBlur3796"
         stdDeviation="5.28" />
    </filter>
    <radialGradient
       cx="48"
       cy="90.171875"
       r="42"
       fx="48"
       fy="90.171875"
       id="radialGradient3619"
       xlink:href="#linearGradient3737"
       gradientUnits="userSpaceOnUse"
       gradientTransform="matrix(1.1573129,0,0,0.99590774,-7.5510206,0.19713193)" />
    <clipPath
       id="clipPath3613">
      <rect
         width="84"
         height="84"
         rx="6"
         ry="6"
         x="6"
         y="6"
         id="rect3615"
         style="fill:#ffffff;fill-opacity:1;fill-rule:nonzero;stroke:none" />
    </clipPath>
    <linearGradient
       x1="48"
       y1="90"
       x2="48"
       y2="5.9877172"
       id="linearGradient3617"
       xlink:href="#linearGradient3700"
       gradientUnits="userSpaceOnUse" />
    <linearGradient
       x1="45.447727"
       y1="92.539597"
       x2="45.447727"
       y2="7.0165396"
       id="ButtonShadow-0"
       gradientUnits="userSpaceOnUse"
       gradientTransform="matrix(1.0058652,0,0,0.994169,100,0)">
      <stop
         id="stop3750-8"
         style="stop-color:#000000;stop-opacity:1"
         offset="0" />
      <stop
         id="stop3752-5"
         style="stop-color:#000000;stop-opacity:0.58823532"
         offset="1" />
    </linearGradient>
    <linearGradient
       x1="32.251034"
       y1="6.1317081"
       x2="32.251034"
       y2="90.238609"
       id="linearGradient3780"
       xlink:href="#ButtonShadow-0"
       gradientUnits="userSpaceOnUse"
       gradientTransform="matrix(1.0238095,0,0,1.0119048,-1.1428571,-98.071429)" />
    <linearGradient
       x1="32.251034"
       y1="6.1317081"
       x2="32.251034"
       y2="90.238609"
       id="linearGradient3772"
       xlink:href="#ButtonShadow-0"
       gradientUnits="userSpaceOnUse"
       gradientTransform="matrix(1.0238095,0,0,1.0119048,-1.1428571,-98.071429)" />
    <linearGradient
       x1="32.251034"
       y1="6.1317081"
       x2="32.251034"
       y2="90.238609"
       id="linearGradient3725"
       xlink:href="#ButtonShadow-0"
       gradientUnits="userSpaceOnUse"
       gradientTransform="matrix(1.0238095,0,0,1.0119048,-1.1428571,-98.071429)" />
    <linearGradient
       x1="32.251034"
       y1="6.1317081"
       x2="32.251034"
       y2="90.238609"
       id="linearGradient3721"
       xlink:href="#ButtonShadow-0"
       gradientUnits="userSpaceOnUse"
       gradientTransform="translate(0,-97)" />
    <linearGradient
       x1="32.251034"
       y1="6.1317081"
       x2="32.251034"
       y2="90.238609"
       id="linearGradient3026"
       xlink:href="#ButtonShadow-0"
       gradientUnits="userSpaceOnUse"
       gradientTransform="matrix(1.0238095,0,0,1.0119048,-1.1428571,-98.071429)" />
    <linearGradient
       x1="46.796001"
       y1="71.448395"
       x2="46.796001"
       y2="22.992983"
       id="linearGradient3672"
       xlink:href="#linearGradient3666"
       gradientUnits="userSpaceOnUse" />
  </defs>
  <metadata
     id="metadata2413">
    <rdf:RDF>
      <cc:Work
         rdf:about="">
        <dc:format>image/svg+xml</dc:format>
        <dc:type
           rdf:resource="http://purl.org/dc/dcmitype/StillImage" />
        <dc:title />
      </cc:Work>
    </rdf:RDF>
  </metadata>
  <g
     id="layer2"
     style="display:none">
    <rect
       width="86"
       height="85"
       rx="6"
       ry="6"
       x="5"
       y="7"
       id="rect3745"
       style="opacity:0.9;fill:url(#ButtonShadow);fill-opacity:1;fill-rule:nonzero;stroke:none;filter:url(#filter3174)" />
  </g>
  <g
     id="layer3">
    <path
       d="m 12,-95.03125 c -5.5110903,0 -10.03125,4.52016 -10.03125,10.03125 l 0,71 c 0,5.5110902 4.5201598,10.03125 10.03125,10.03125 l 72,0 c 5.51109,0 10.03125,-4.5201597 10.03125,-10.03125 l 0,-71 c 0,-5.51109 -4.52016,-10.03125 -10.03125,-10.03125 l -72,0 z"
       transform="scale(1,-1)"
       id="path3786"
       style="opacity:0.07999998;fill:url(#linearGradient3026);fill-opacity:1;fill-rule:nonzero;stroke:none;display:inline" />
    <path
       d="m 12,-94.03125 c -4.971633,0 -9.03125,4.059617 -9.03125,9.03125 l 0,71 c 0,4.9716329 4.0596171,9.03125 9.03125,9.03125 l 72,0 c 4.971633,0 9.03125,-4.059617 9.03125,-9.03125 l 0,-71 c 0,-4.971633 -4.059617,-9.03125 -9.03125,-9.03125 l -72,0 z"
       transform="scale(1,-1)"
       id="path3778"
       style="opacity:0.1;fill:url(#linearGradient3780);fill-opacity:1;fill-rule:nonzero;stroke:none;display:inline" />
    <path
       d="m 12,-93 c -4.4091333,0 -8,3.590867 -8,8 l 0,71 c 0,4.4091333 3.5908667,8 8,8 l 72,0 c 4.409133,0 8,-3.5908667 8,-8 l 0,-71 c 0,-4.409133 -3.590867,-8 -8,-8 l -72,0 z"
       transform="scale(1,-1)"
       id="path3770"
       style="opacity:0.2;fill:url(#linearGradient3772);fill-opacity:1;fill-rule:nonzero;stroke:none;display:inline" />
    <rect
       width="86"
       height="85"
       rx="7"
       ry="7"
       x="5"
       y="-92"
       transform="scale(1,-1)"
       id="rect3723"
       style="opacity:0.3;fill:url(#linearGradient3725);fill-opacity:1;fill-rule:nonzero;stroke:none;display:inline" />
    <rect
       width="84"
       height="84"
       rx="6"
       ry="6"
       x="6"
       y="-91"
       transform="scale(1,-1)"
       id="rect3716"
       style="opacity:0.45;fill:url(#linearGradient3721);fill-opacity:1;fill-rule:nonzero;stroke:none;display:inline" />
  </g>
  <g
     id="layer1">
    <rect
       width="84"
       height="84"
       rx="6"
       ry="6"
       x="6"
       y="6"
       id="rect2419"
       style="fill:url(#linearGradient3617);fill-opacity:1;fill-rule:nonzero;stroke:none" />
    <path
       d="M 12,6 C 8.676,6 6,8.676 6,12 l 0,2 0,68 0,2 c 0,0.334721 0.04135,0.6507 0.09375,0.96875 0.0487,0.295596 0.09704,0.596915 0.1875,0.875 0.00988,0.03038 0.020892,0.0636 0.03125,0.09375 0.098865,0.287771 0.2348802,0.547452 0.375,0.8125 0.1445918,0.273507 0.3156161,0.535615 0.5,0.78125 0.1843839,0.245635 0.3737765,0.473472 0.59375,0.6875 0.439947,0.428056 0.94291,0.814526 1.5,1.09375 0.278545,0.139612 0.5734731,0.246947 0.875,0.34375 -0.2562018,-0.100222 -0.4867109,-0.236272 -0.71875,-0.375 -0.00741,-0.0044 -0.023866,0.0045 -0.03125,0 -0.031933,-0.0193 -0.062293,-0.04251 -0.09375,-0.0625 -0.120395,-0.0767 -0.2310226,-0.163513 -0.34375,-0.25 -0.1061728,-0.0808 -0.2132809,-0.161112 -0.3125,-0.25 C 8.4783201,88.557317 8.3087904,88.373362 8.15625,88.1875 8.0486711,88.057245 7.9378561,87.922215 7.84375,87.78125 7.818661,87.74287 7.805304,87.69538 7.78125,87.65625 7.716487,87.553218 7.6510225,87.451733 7.59375,87.34375 7.4927417,87.149044 7.3880752,86.928049 7.3125,86.71875 7.30454,86.69694 7.288911,86.6782 7.28125,86.65625 7.2494249,86.5643 7.2454455,86.469419 7.21875,86.375 7.1884177,86.268382 7.1483606,86.171969 7.125,86.0625 7.0521214,85.720988 7,85.364295 7,85 L 7,83 7,15 7,13 C 7,10.218152 9.2181517,8 12,8 l 2,0 68,0 2,0 c 2.781848,0 5,2.218152 5,5 l 0,2 0,68 0,2 c 0,0.364295 -0.05212,0.720988 -0.125,1.0625 -0.04415,0.206893 -0.08838,0.397658 -0.15625,0.59375 -0.0077,0.02195 -0.0233,0.04069 -0.03125,0.0625 -0.06274,0.173739 -0.138383,0.367449 -0.21875,0.53125 -0.04158,0.0828 -0.07904,0.169954 -0.125,0.25 -0.0546,0.09721 -0.126774,0.18835 -0.1875,0.28125 -0.09411,0.140965 -0.204921,0.275995 -0.3125,0.40625 -0.143174,0.17445 -0.303141,0.346998 -0.46875,0.5 -0.01117,0.0102 -0.01998,0.02115 -0.03125,0.03125 -0.138386,0.125556 -0.285091,0.234436 -0.4375,0.34375 -0.102571,0.07315 -0.204318,0.153364 -0.3125,0.21875 -0.0074,0.0045 -0.02384,-0.0044 -0.03125,0 -0.232039,0.138728 -0.462548,0.274778 -0.71875,0.375 0.301527,-0.0968 0.596455,-0.204138 0.875,-0.34375 0.55709,-0.279224 1.060053,-0.665694 1.5,-1.09375 0.219973,-0.214028 0.409366,-0.441865 0.59375,-0.6875 0.184384,-0.245635 0.355408,-0.507743 0.5,-0.78125 0.14012,-0.265048 0.276135,-0.524729 0.375,-0.8125 0.01041,-0.03078 0.02133,-0.06274 0.03125,-0.09375 0.09046,-0.278085 0.1388,-0.579404 0.1875,-0.875 C 89.95865,84.6507 90,84.334721 90,84 l 0,-2 0,-68 0,-2 C 90,8.676 87.324,6 84,6 L 12,6 z"
       inkscape:connector-curvature="0"
       id="rect3728"
       style="opacity:0.4;fill:url(#linearGradient3188);fill-opacity:1;fill-rule:nonzero;stroke:none" />
    <path
       d="M 12,90 C 8.676,90 6,87.324 6,84 L 6,82 6,14 6,12 c 0,-0.334721 0.04135,-0.6507 0.09375,-0.96875 0.0487,-0.295596 0.09704,-0.596915 0.1875,-0.875 C 6.29113,10.12587 6.302142,10.09265 6.3125,10.0625 6.411365,9.774729 6.5473802,9.515048 6.6875,9.25 6.8320918,8.976493 7.0031161,8.714385 7.1875,8.46875 7.3718839,8.223115 7.5612765,7.995278 7.78125,7.78125 8.221197,7.353194 8.72416,6.966724 9.28125,6.6875 9.559795,6.547888 9.8547231,6.440553 10.15625,6.34375 9.9000482,6.443972 9.6695391,6.580022 9.4375,6.71875 c -0.00741,0.0044 -0.023866,-0.0045 -0.03125,0 -0.031933,0.0193 -0.062293,0.04251 -0.09375,0.0625 -0.120395,0.0767 -0.2310226,0.163513 -0.34375,0.25 -0.1061728,0.0808 -0.2132809,0.161112 -0.3125,0.25 C 8.4783201,7.442683 8.3087904,7.626638 8.15625,7.8125 8.0486711,7.942755 7.9378561,8.077785 7.84375,8.21875 7.818661,8.25713 7.805304,8.30462 7.78125,8.34375 7.716487,8.446782 7.6510225,8.548267 7.59375,8.65625 7.4927417,8.850956 7.3880752,9.071951 7.3125,9.28125 7.30454,9.30306 7.288911,9.3218 7.28125,9.34375 7.2494249,9.4357 7.2454455,9.530581 7.21875,9.625 7.1884177,9.731618 7.1483606,9.828031 7.125,9.9375 7.0521214,10.279012 7,10.635705 7,11 l 0,2 0,68 0,2 c 0,2.781848 2.2181517,5 5,5 l 2,0 68,0 2,0 c 2.781848,0 5,-2.218152 5,-5 l 0,-2 0,-68 0,-2 C 89,10.635705 88.94788,10.279012 88.875,9.9375 88.83085,9.730607 88.78662,9.539842 88.71875,9.34375 88.71105,9.3218 88.69545,9.30306 88.6875,9.28125 88.62476,9.107511 88.549117,8.913801 88.46875,8.75 88.42717,8.6672 88.38971,8.580046 88.34375,8.5 88.28915,8.40279 88.216976,8.31165 88.15625,8.21875 88.06214,8.077785 87.951329,7.942755 87.84375,7.8125 87.700576,7.63805 87.540609,7.465502 87.375,7.3125 87.36383,7.3023 87.35502,7.29135 87.34375,7.28125 87.205364,7.155694 87.058659,7.046814 86.90625,6.9375 86.803679,6.86435 86.701932,6.784136 86.59375,6.71875 c -0.0074,-0.0045 -0.02384,0.0044 -0.03125,0 -0.232039,-0.138728 -0.462548,-0.274778 -0.71875,-0.375 0.301527,0.0968 0.596455,0.204138 0.875,0.34375 0.55709,0.279224 1.060053,0.665694 1.5,1.09375 0.219973,0.214028 0.409366,0.441865 0.59375,0.6875 0.184384,0.245635 0.355408,0.507743 0.5,0.78125 0.14012,0.265048 0.276135,0.524729 0.375,0.8125 0.01041,0.03078 0.02133,0.06274 0.03125,0.09375 0.09046,0.278085 0.1388,0.579404 0.1875,0.875 C 89.95865,11.3493 90,11.665279 90,12 l 0,2 0,68 0,2 c 0,3.324 -2.676,6 -6,6 l -72,0 z"
       inkscape:connector-curvature="0"
       id="path3615"
       style="opacity:0.2;fill:url(#radialGradient3619);fill-opacity:1;fill-rule:nonzero;stroke:none" />
    <path
       d="M 65.78125,24 C 46.462586,25.440718 36.291949,36.984045 31.5625,47.8125 27.930188,56.128972 27.36858,62.709096 27.21875,66 L 6,66 l 0,6 24,0 a 3.0003,3.0003 0 0 0 3,-3.03125 c 0,0 -0.08281,-9.258984 4.0625,-18.75 C 40.778837,41.709896 47.525986,33.275178 61.25,30.6875 53.198912,51.650021 63.375,70.46875 63.375,70.46875 A 3.0003,3.0003 0 0 0 66,72 l 24,0 0,-6 -22.0625,0 C 66.138317,62.29674 59.259969,46.144556 68.65625,28.40625 A 3.0003,3.0003 0 0 0 65.78125,24 z"
       inkscape:connector-curvature="0"
       id="path3660"
       style="font-size:medium;font-style:normal;font-variant:normal;font-weight:normal;font-stretch:normal;text-indent:0;text-align:start;text-decoration:none;line-height:normal;letter-spacing:normal;word-spacing:normal;text-transform:none;direction:ltr;block-progression:tb;writing-mode:lr-tb;text-anchor:start;color:#000000;fill:url(#linearGradient3672);fill-opacity:1;stroke:none;stroke-width:6;marker:none;visibility:visible;display:inline;overflow:visible;enable-background:accumulate;font-family:Abandoned Bitplane;-inkscape-font-specification:Abandoned Bitplane" />
    <path
       d="M 65.78125,24 C 46.462586,25.440718 36.291949,36.984045 31.5625,47.8125 27.930188,56.128972 27.36858,62.709096 27.21875,66 L 6,66 l 0,2 7,0 0,0.0625 14.21875,0 a 2.0619912,2.0619912 0 0 0 2.0625,-1.96875 c 0.144863,-3.181803 0.652399,-9.4464 4.15625,-17.46875 4.510611,-10.327408 13.94232,-21.178534 32.5,-22.5625 0.224844,-0.01722 -0.100134,-0.01289 0.125,0 0.225134,0.01289 -0.09641,-0.04277 0.125,0 0.221409,0.04277 -0.08874,-0.04064 0.125,0.03125 0.213736,0.07189 -0.07725,-0.03723 0.125,0.0625 0.202251,0.09973 -0.09341,-0.06329 0.09375,0.0625 0.187159,0.125789 -0.07498,-0.08711 0.09375,0.0625 0.16873,0.149605 -0.05354,-0.077 0.09375,0.09375 0.147291,0.170754 -0.06073,-0.09511 0.0625,0.09375 0.123226,0.188857 -0.03446,-0.07859 0.0625,0.125 0.09696,0.203592 -0.0065,-0.0897 0.0625,0.125 0.06897,0.214696 -0.0085,-0.128222 0.03125,0.09375 0.03975,0.221972 -0.0098,-0.100289 0,0.125 0.0098,0.225289 0.02029,-0.09959 0,0.125 -0.02029,0.224588 0.05003,-0.09488 0,0.125 -0.05003,0.219882 0.01638,-0.08626 -0.0625,0.125 -0.07888,0.211255 0.07508,-0.07386 -0.03125,0.125 -9.833455,18.563603 -2.676337,35.503768 -0.75,39.46875 A 2.0619912,2.0619912 0 0 0 67.9375,68.0625 L 83,68.0625 83,68 l 7,0 0,-2 -22.0625,0 C 66.138317,62.29674 59.259969,46.144556 68.65625,28.40625 A 3.0003,3.0003 0 0 0 65.78125,24 z m -4.625,4.625 A 2.0619912,2.0619912 0 0 0 60.875,28.65625 C 46.470248,31.372282 39.070164,40.516577 35.1875,49.40625 30.8413,59.357219 30.9375,69 30.9375,69 c 0.0017,0.16673 0.01474,-0.07234 0,0.09375 -0.01474,0.166087 0.03105,-0.07007 0,0.09375 -0.03105,0.163823 0.01581,-0.09746 -0.03125,0.0625 -0.04706,0.15996 0.03136,-0.06079 -0.03125,0.09375 -0.06261,0.154537 0.0463,-0.05386 -0.03125,0.09375 -0.07755,0.147606 0.02924,-0.04548 -0.0625,0.09375 -0.09174,0.139235 0.04253,-0.067 -0.0625,0.0625 -0.105026,0.129505 0.05479,-0.05601 -0.0625,0.0625 -0.11729,0.118512 0.06591,-0.04386 -0.0625,0.0625 -0.12841,0.106362 0.07578,-0.03068 -0.0625,0.0625 -0.138277,0.09318 0.05304,-0.04783 -0.09375,0.03125 -0.0367,0.01977 -0.06178,0.0267 -0.0625,0.03125 0.005,0.0055 0.01923,0.02322 0,0.03125 -0.15388,0.06421 0.06571,-0.01747 -0.09375,0.03125 -0.159464,0.04872 0.06974,-0.03275 -0.09375,0 -0.163492,0.03275 0.07218,0.01479 -0.09375,0.03125 -0.165925,0.01646 0.07299,-8e-6 -0.09375,0 l -17,0 0,0.0625 -7,0 0,2 24,0 a 3.0003,3.0003 0 0 0 3,-3.03125 c 0,0 -0.08281,-9.258984 4.0625,-18.75 C 40.778837,41.709896 47.525986,33.275178 61.25,30.6875 53.198912,51.650021 63.375,70.46875 63.375,70.46875 A 3.0003,3.0003 0 0 0 66,72 l 24,0 0,-2 -7,0 0,-0.0625 -17,0 c -0.22402,6.68e-4 0.09714,0.02899 -0.125,0 -0.222137,-0.02899 0.09134,0.02689 -0.125,-0.03125 -0.216344,-0.05814 0.08174,0.05502 -0.125,-0.03125 -0.206744,-0.08627 0.09976,0.05038 -0.09375,-0.0625 -0.193505,-0.112878 0.05186,0.075 -0.125,-0.0625 -0.17686,-0.137499 0.06335,0.06595 -0.09375,-0.09375 -0.157102,-0.159701 0.07208,0.08534 -0.0625,-0.09375 -0.103522,-0.137763 -0.05519,-0.04003 -0.0625,-0.0625 0,0 8.3e-5,-0.0311 0,-0.03125 -0.0399,-0.07424 -9.67864,-18.038468 -2,-38.03125 A 2.0619912,2.0619912 0 0 0 61.15625,28.625 z"
       inkscape:connector-curvature="0"
       id="path3696"
       style="font-size:medium;font-style:normal;font-variant:normal;font-weight:normal;font-stretch:normal;text-indent:0;text-align:start;text-decoration:none;line-height:normal;letter-spacing:normal;word-spacing:normal;text-transform:none;direction:ltr;block-progression:tb;writing-mode:lr-tb;text-anchor:start;opacity:0.15;color:#000000;fill:#124964;fill-opacity:1;stroke:none;stroke-width:6;marker:none;visibility:visible;display:inline;overflow:visible;enable-background:accumulate;font-family:Abandoned Bitplane;-inkscape-font-specification:Abandoned Bitplane" />
    <path
       d="m 68.96875,27.5625 a 3.0003,3.0003 0 0 1 -0.3125,0.84375 c -3.663676,6.916291 -4.862676,13.584887 -4.84375,19.375 0.116767,-5.551695 1.390229,-11.85544 4.84375,-18.375 a 3.0003,3.0003 0 0 0 0.3125,-1.84375 z M 61.25,30.6875 C 47.525986,33.275178 40.778837,41.709896 37.0625,50.21875 32.91719,59.709766 33,68.96875 33,68.96875 A 3.0003,3.0003 0 0 1 30,72 l -24,0 0,1 24,0 a 3.0003,3.0003 0 0 0 3,-3.03125 c 0,0 -0.08281,-9.258984 4.0625,-18.75 3.68131,-8.428656 10.347767,-16.765539 23.8125,-19.4375 0.128703,-0.36184 0.2355,-0.730537 0.375,-1.09375 z M 58.15625,48 C 57.988824,61.504414 63.375,71.46875 63.375,71.46875 A 3.0003,3.0003 0 0 0 66,73 l 24,0 0,-1 -24,0 a 3.0003,3.0003 0 0 1 -2.625,-1.53125 c 0,0 -5.117956,-9.478136 -5.21875,-22.46875 z"
       inkscape:connector-curvature="0"
       id="path3674"
       style="font-size:medium;font-style:normal;font-variant:normal;font-weight:normal;font-stretch:normal;text-indent:0;text-align:start;text-decoration:none;line-height:normal;letter-spacing:normal;word-spacing:normal;text-transform:none;direction:ltr;block-progression:tb;writing-mode:lr-tb;text-anchor:start;opacity:0.3;color:#000000;fill:#ffffff;fill-opacity:1;stroke:none;stroke-width:6;marker:none;visibility:visible;display:inline;overflow:visible;enable-background:accumulate;font-family:Abandoned Bitplane;-inkscape-font-specification:Abandoned Bitplane" />
    <path
       d="M 65.78125,24 C 46.462586,25.440718 36.291949,36.984045 31.5625,47.8125 27.930188,56.128972 27.36858,62.709096 27.21875,66 L 6,66 6,67 27.21875,67 C 27.36858,63.709096 27.930188,57.128972 31.5625,48.8125 36.291949,37.984045 46.462586,26.440718 65.78125,25 a 3.0003,3.0003 0 0 1 3.1875,2.53125 A 3.0003,3.0003 0 0 0 65.78125,24 z M 61.25,31.6875 c -0.129351,0.02439 -0.246885,0.06833 -0.375,0.09375 C 58.84583,37.486114 58.117441,42.998172 58.15625,48 58.218907,42.946128 59.057493,37.396103 61.25,31.6875 z m 2.5625,16.09375 C 63.61157,57.334512 66.799591,64.657841 67.9375,67 L 90,67 90,66 67.9375,66 c -1.097669,-2.259333 -4.095386,-9.158882 -4.125,-18.21875 z"
       inkscape:connector-curvature="0"
       id="path3683"
       style="font-size:medium;font-style:normal;font-variant:normal;font-weight:normal;font-stretch:normal;text-indent:0;text-align:start;text-decoration:none;line-height:normal;letter-spacing:normal;word-spacing:normal;text-transform:none;direction:ltr;block-progression:tb;writing-mode:lr-tb;text-anchor:start;opacity:0.3;color:#000000;fill:#000000;fill-opacity:1;stroke:none;stroke-width:6;marker:none;visibility:visible;display:inline;overflow:visible;enable-background:accumulate;font-family:Abandoned Bitplane;-inkscape-font-specification:Abandoned Bitplane" />
    <path
       d="M 65.78125,24 C 54.267329,24.672848 42.9093,30.183344 36.1875,39.71875 30.734265,47.350066 27.684551,56.651904 27.21875,66 L 6,66 l 0,1 1,0 6,0 c 4.837712,0.01024 9.671704,0.01819 14.5,-0.0625 1.368551,-0.715104 0.464401,-2.689085 0.90625,-3.90625 1.54033,-13.013133 8.07257,-26.212381 19.78125,-32.875 5.367462,-3.118921 11.491191,-4.738039 17.65625,-5.1875 1.754569,-0.192293 2.86764,2.081882 1.71875,3.40625 -6.229112,11.750452 -6.228705,26.445229 -0.34375,38.3125 1.08397,0.721588 2.576898,0.117789 3.8125,0.3125 L 83,67 l 6,0 1,0 0,-1 -22.0625,0 c -5.668375,-11.829517 -5.518795,-26.344528 0.84375,-37.875 0.892755,-1.976952 -0.842082,-4.361638 -3,-4.125 z M 61,29.71875 c -0.654626,0.0077 -1.427765,0.254573 -1.875,0.40625 C 49.535252,32.180629 41.267916,38.943579 37.09375,47.78125 33.662398,54.579154 32.228286,62.210486 31.875,69.75 31.000387,71.705698 28.571118,70.792038 26.90625,71 L 13,71 7,71 6,71 6,72 c 8.197431,-0.03998 16.402564,0.07724 24.59375,-0.0625 2.558335,-0.448217 2.536526,-3.395717 2.5,-5.40625 C 34.039174,55.06575 38.431538,42.960878 48.125,36.0625 52.016654,33.299468 56.574935,31.559356 61.25,30.6875 56.293145,43.552766 57.442215,58.446935 63.53125,70.71875 65.024311,72.726171 67.754537,71.777652 69.875,72 L 90,72 l 0,-1 -1,0 c -1.996684,-0.0107 -4.001531,-0.0038 -6,0 -5.849684,0.01113 -11.69636,0.04654 -17.53125,-0.0625 -1.834751,-0.615907 -1.969315,-3.042516 -2.8125,-4.53125 C 58.268555,55.085469 57.82205,42.136637 62.21875,30.75 62.190741,29.942427 61.654626,29.711026 61,29.71875 z"
       inkscape:connector-curvature="0"
       id="path3692"
       style="font-size:medium;font-style:normal;font-variant:normal;font-weight:normal;font-stretch:normal;text-indent:0;text-align:start;text-decoration:none;line-height:normal;letter-spacing:normal;word-spacing:normal;text-transform:none;direction:ltr;block-progression:tb;writing-mode:lr-tb;text-anchor:start;opacity:0.4;color:#000000;fill:#124964;fill-opacity:1;stroke:none;stroke-width:6;marker:none;visibility:visible;display:inline;overflow:visible;enable-background:accumulate;font-family:Abandoned Bitplane;-inkscape-font-specification:Abandoned Bitplane" />
  </g>
  <g
     id="layer5">
    <rect
       width="66"
       height="66"
       rx="12"
       ry="12"
       x="15"
       y="15"
       clip-path="url(#clipPath3613)"
       id="rect3171"
       style="opacity:0.1;fill:#69ffff;fill-opacity:1;fill-rule:nonzero;stroke:#ffffff;stroke-width:0.5;stroke-linecap:round;stroke-linejoin:miter;stroke-miterlimit:4;stroke-opacity:1;stroke-dasharray:none;stroke-dashoffset:0;filter:url(#filter3794)" />
  </g>
</svg>
