<?xml version="1.0" encoding="UTF-8" standalone="no"?>
<!-- Created with Inkscape (http://www.inkscape.org/) -->

<svg
   xmlns:dc="http://purl.org/dc/elements/1.1/"
   xmlns:cc="http://creativecommons.org/ns#"
   xmlns:rdf="http://www.w3.org/1999/02/22-rdf-syntax-ns#"
   xmlns:svg="http://www.w3.org/2000/svg"
   xmlns="http://www.w3.org/2000/svg"
   xmlns:xlink="http://www.w3.org/1999/xlink"
   xmlns:inkscape="http://www.inkscape.org/namespaces/inkscape"
   version="1.0"
   width="96"
   height="96"
   id="svg2408">
  <defs
     id="defs2410">
    <linearGradient
       x1="45.447727"
       y1="92.539597"
       x2="45.447727"
       y2="7.0165396"
       id="ButtonShadow"
       gradientUnits="userSpaceOnUse"
       gradientTransform="scale(1.0058652,0.994169)">
      <stop
         id="stop3750"
         style="stop-color:#000000;stop-opacity:1"
         offset="0" />
      <stop
         id="stop3752"
         style="stop-color:#000000;stop-opacity:0.58823532"
         offset="1" />
    </linearGradient>
    <linearGradient
       id="linearGradient3737">
      <stop
         id="stop3739"
         style="stop-color:#ffffff;stop-opacity:1"
         offset="0" />
      <stop
         id="stop3741"
         style="stop-color:#ffffff;stop-opacity:0"
         offset="1" />
    </linearGradient>
    <filter
       color-interpolation-filters="sRGB"
       id="filter3174">
      <feGaussianBlur
         id="feGaussianBlur3176"
         stdDeviation="1.71" />
    </filter>
    <linearGradient
       x1="36.357143"
       y1="6"
       x2="36.357143"
       y2="63.893143"
       id="linearGradient3188"
       xlink:href="#linearGradient3737"
       gradientUnits="userSpaceOnUse" />
    <filter
       x="-0.192"
       y="-0.192"
       width="1.3839999"
       height="1.3839999"
       color-interpolation-filters="sRGB"
       id="filter3794">
      <feGaussianBlur
         id="feGaussianBlur3796"
         stdDeviation="5.28" />
    </filter>
    <linearGradient
       x1="48"
       y1="20.220806"
       x2="48"
       y2="138.66119"
       id="linearGradient3613"
       xlink:href="#linearGradient3737"
       gradientUnits="userSpaceOnUse" />
    <radialGradient
       cx="48"
       cy="90.171875"
       r="42"
       fx="48"
       fy="90.171875"
       id="radialGradient3619"
       xlink:href="#linearGradient3737"
       gradientUnits="userSpaceOnUse"
       gradientTransform="matrix(1.1573129,0,0,0.99590774,-7.5510206,0.19713193)" />
    <clipPath
       id="clipPath3613">
      <rect
         width="84"
         height="84"
         rx="6"
         ry="6"
         x="6"
         y="6"
         id="rect3615"
         style="fill:#ffffff;fill-opacity:1;fill-rule:nonzero;stroke:none" />
    </clipPath>
    <linearGradient
       x1="48"
       y1="90"
       x2="48"
       y2="5.9877172"
       id="linearGradient3617"
       xlink:href="#linearGradient3645"
       gradientUnits="userSpaceOnUse" />
    <linearGradient
       x1="45.447727"
       y1="92.539597"
       x2="45.447727"
       y2="7.0165396"
       id="ButtonShadow-0"
       gradientUnits="userSpaceOnUse"
       gradientTransform="matrix(1.0058652,0,0,0.994169,100,0)">
      <stop
         id="stop3750-8"
         style="stop-color:#000000;stop-opacity:1"
         offset="0" />
      <stop
         id="stop3752-5"
         style="stop-color:#000000;stop-opacity:0.58823532"
         offset="1" />
    </linearGradient>
    <linearGradient
       x1="32.251034"
       y1="6.1317081"
       x2="32.251034"
       y2="90.238609"
       id="linearGradient3780"
       xlink:href="#ButtonShadow-0"
       gradientUnits="userSpaceOnUse"
       gradientTransform="matrix(1.0238095,0,0,1.0119048,-1.1428571,-98.071429)" />
    <linearGradient
       x1="32.251034"
       y1="6.1317081"
       x2="32.251034"
       y2="90.238609"
       id="linearGradient3772"
       xlink:href="#ButtonShadow-0"
       gradientUnits="userSpaceOnUse"
       gradientTransform="matrix(1.0238095,0,0,1.0119048,-1.1428571,-98.071429)" />
    <linearGradient
       x1="32.251034"
       y1="6.1317081"
       x2="32.251034"
       y2="90.238609"
       id="linearGradient3725"
       xlink:href="#ButtonShadow-0"
       gradientUnits="userSpaceOnUse"
       gradientTransform="matrix(1.0238095,0,0,1.0119048,-1.1428571,-98.071429)" />
    <linearGradient
       x1="32.251034"
       y1="6.1317081"
       x2="32.251034"
       y2="90.238609"
       id="linearGradient3721"
       xlink:href="#ButtonShadow-0"
       gradientUnits="userSpaceOnUse"
       gradientTransform="translate(0,-97)" />
    <linearGradient
       x1="32.251034"
       y1="6.1317081"
       x2="32.251034"
       y2="90.238609"
       id="linearGradient3026"
       xlink:href="#ButtonShadow-0"
       gradientUnits="userSpaceOnUse"
       gradientTransform="matrix(1.0238095,0,0,1.0119048,-1.1428571,-98.071429)" />
    <linearGradient
       id="linearGradient3645">
      <stop
         id="stop3647"
         style="stop-color:#0f466f;stop-opacity:1"
         offset="0" />
      <stop
         id="stop3649"
         style="stop-color:#2e72a7;stop-opacity:1"
         offset="1" />
    </linearGradient>
    <linearGradient
       id="linearGradient4062">
      <stop
         id="stop4064"
         style="stop-color:#dfdfdf;stop-opacity:1"
         offset="0" />
      <stop
         id="stop4066"
         style="stop-color:#ffffff;stop-opacity:1"
         offset="1" />
    </linearGradient>
    <linearGradient
       x1="48"
       y1="84"
       x2="48"
       y2="12"
       id="linearGradient2928"
       xlink:href="#linearGradient4062"
       gradientUnits="userSpaceOnUse" />
  </defs>
  <metadata
     id="metadata2413">
    <rdf:RDF>
      <cc:Work
         rdf:about="">
        <dc:format>image/svg+xml</dc:format>
        <dc:type
           rdf:resource="http://purl.org/dc/dcmitype/StillImage" />
        <dc:title />
      </cc:Work>
    </rdf:RDF>
  </metadata>
  <g
     id="layer2"
     style="display:none">
    <rect
       width="86"
       height="85"
       rx="6"
       ry="6"
       x="5"
       y="7"
       id="rect3745"
       style="opacity:0.9;fill:url(#ButtonShadow);fill-opacity:1;fill-rule:nonzero;stroke:none;filter:url(#filter3174)" />
  </g>
  <g
     id="layer3">
    <path
       d="m 12,-95.03125 c -5.5110903,0 -10.03125,4.52016 -10.03125,10.03125 l 0,71 c 0,5.5110902 4.5201598,10.03125 10.03125,10.03125 l 72,0 c 5.51109,0 10.03125,-4.5201597 10.03125,-10.03125 l 0,-71 c 0,-5.51109 -4.52016,-10.03125 -10.03125,-10.03125 l -72,0 z"
       transform="scale(1,-1)"
       id="path3786"
       style="opacity:0.07999998;fill:url(#linearGradient3026);fill-opacity:1;fill-rule:nonzero;stroke:none;display:inline" />
    <path
       d="m 12,-94.03125 c -4.971633,0 -9.03125,4.059617 -9.03125,9.03125 l 0,71 c 0,4.9716329 4.0596171,9.03125 9.03125,9.03125 l 72,0 c 4.971633,0 9.03125,-4.059617 9.03125,-9.03125 l 0,-71 c 0,-4.971633 -4.059617,-9.03125 -9.03125,-9.03125 l -72,0 z"
       transform="scale(1,-1)"
       id="path3778"
       style="opacity:0.1;fill:url(#linearGradient3780);fill-opacity:1;fill-rule:nonzero;stroke:none;display:inline" />
    <path
       d="m 12,-93 c -4.4091333,0 -8,3.590867 -8,8 l 0,71 c 0,4.4091333 3.5908667,8 8,8 l 72,0 c 4.409133,0 8,-3.5908667 8,-8 l 0,-71 c 0,-4.409133 -3.590867,-8 -8,-8 l -72,0 z"
       transform="scale(1,-1)"
       id="path3770"
       style="opacity:0.2;fill:url(#linearGradient3772);fill-opacity:1;fill-rule:nonzero;stroke:none;display:inline" />
    <rect
       width="86"
       height="85"
       rx="7"
       ry="7"
       x="5"
       y="-92"
       transform="scale(1,-1)"
       id="rect3723"
       style="opacity:0.3;fill:url(#linearGradient3725);fill-opacity:1;fill-rule:nonzero;stroke:none;display:inline" />
    <rect
       width="84"
       height="84"
       rx="6"
       ry="6"
       x="6"
       y="-91"
       transform="scale(1,-1)"
       id="rect3716"
       style="opacity:0.45;fill:url(#linearGradient3721);fill-opacity:1;fill-rule:nonzero;stroke:none;display:inline" />
  </g>
  <g
     id="layer1">
    <rect
       width="84"
       height="84"
       rx="6"
       ry="6"
       x="6"
       y="6"
       id="rect2419"
       style="fill:url(#linearGradient3617);fill-opacity:1;fill-rule:nonzero;stroke:none" />
    <path
       d="M 12,6 C 8.676,6 6,8.676 6,12 l 0,2 0,68 0,2 c 0,0.334721 0.04135,0.6507 0.09375,0.96875 0.0487,0.295596 0.09704,0.596915 0.1875,0.875 0.00988,0.03038 0.020892,0.0636 0.03125,0.09375 0.098865,0.287771 0.2348802,0.547452 0.375,0.8125 0.1445918,0.273507 0.3156161,0.535615 0.5,0.78125 0.1843839,0.245635 0.3737765,0.473472 0.59375,0.6875 0.439947,0.428056 0.94291,0.814526 1.5,1.09375 0.278545,0.139612 0.5734731,0.246947 0.875,0.34375 -0.2562018,-0.100222 -0.4867109,-0.236272 -0.71875,-0.375 -0.00741,-0.0044 -0.023866,0.0045 -0.03125,0 -0.031933,-0.0193 -0.062293,-0.04251 -0.09375,-0.0625 -0.120395,-0.0767 -0.2310226,-0.163513 -0.34375,-0.25 -0.1061728,-0.0808 -0.2132809,-0.161112 -0.3125,-0.25 C 8.4783201,88.557317 8.3087904,88.373362 8.15625,88.1875 8.0486711,88.057245 7.9378561,87.922215 7.84375,87.78125 7.818661,87.74287 7.805304,87.69538 7.78125,87.65625 7.716487,87.553218 7.6510225,87.451733 7.59375,87.34375 7.4927417,87.149044 7.3880752,86.928049 7.3125,86.71875 7.30454,86.69694 7.288911,86.6782 7.28125,86.65625 7.2494249,86.5643 7.2454455,86.469419 7.21875,86.375 7.1884177,86.268382 7.1483606,86.171969 7.125,86.0625 7.0521214,85.720988 7,85.364295 7,85 L 7,83 7,15 7,13 C 7,10.218152 9.2181517,8 12,8 l 2,0 68,0 2,0 c 2.781848,0 5,2.218152 5,5 l 0,2 0,68 0,2 c 0,0.364295 -0.05212,0.720988 -0.125,1.0625 -0.04415,0.206893 -0.08838,0.397658 -0.15625,0.59375 -0.0077,0.02195 -0.0233,0.04069 -0.03125,0.0625 -0.06274,0.173739 -0.138383,0.367449 -0.21875,0.53125 -0.04158,0.0828 -0.07904,0.169954 -0.125,0.25 -0.0546,0.09721 -0.126774,0.18835 -0.1875,0.28125 -0.09411,0.140965 -0.204921,0.275995 -0.3125,0.40625 -0.143174,0.17445 -0.303141,0.346998 -0.46875,0.5 -0.01117,0.0102 -0.01998,0.02115 -0.03125,0.03125 -0.138386,0.125556 -0.285091,0.234436 -0.4375,0.34375 -0.102571,0.07315 -0.204318,0.153364 -0.3125,0.21875 -0.0074,0.0045 -0.02384,-0.0044 -0.03125,0 -0.232039,0.138728 -0.462548,0.274778 -0.71875,0.375 0.301527,-0.0968 0.596455,-0.204138 0.875,-0.34375 0.55709,-0.279224 1.060053,-0.665694 1.5,-1.09375 0.219973,-0.214028 0.409366,-0.441865 0.59375,-0.6875 0.184384,-0.245635 0.355408,-0.507743 0.5,-0.78125 0.14012,-0.265048 0.276135,-0.524729 0.375,-0.8125 0.01041,-0.03078 0.02133,-0.06274 0.03125,-0.09375 0.09046,-0.278085 0.1388,-0.579404 0.1875,-0.875 C 89.95865,84.6507 90,84.334721 90,84 l 0,-2 0,-68 0,-2 C 90,8.676 87.324,6 84,6 L 12,6 z"
       inkscape:connector-curvature="0"
       id="rect3728"
       style="opacity:0.3;fill:url(#linearGradient3188);fill-opacity:1;fill-rule:nonzero;stroke:none" />
    <path
       d="M 12,90 C 8.676,90 6,87.324 6,84 L 6,82 6,14 6,12 c 0,-0.334721 0.04135,-0.6507 0.09375,-0.96875 0.0487,-0.295596 0.09704,-0.596915 0.1875,-0.875 C 6.29113,10.12587 6.302142,10.09265 6.3125,10.0625 6.411365,9.774729 6.5473802,9.515048 6.6875,9.25 6.8320918,8.976493 7.0031161,8.714385 7.1875,8.46875 7.3718839,8.223115 7.5612765,7.995278 7.78125,7.78125 8.221197,7.353194 8.72416,6.966724 9.28125,6.6875 9.559795,6.547888 9.8547231,6.440553 10.15625,6.34375 9.9000482,6.443972 9.6695391,6.580022 9.4375,6.71875 c -0.00741,0.0044 -0.023866,-0.0045 -0.03125,0 -0.031933,0.0193 -0.062293,0.04251 -0.09375,0.0625 -0.120395,0.0767 -0.2310226,0.163513 -0.34375,0.25 -0.1061728,0.0808 -0.2132809,0.161112 -0.3125,0.25 C 8.4783201,7.442683 8.3087904,7.626638 8.15625,7.8125 8.0486711,7.942755 7.9378561,8.077785 7.84375,8.21875 7.818661,8.25713 7.805304,8.30462 7.78125,8.34375 7.716487,8.446782 7.6510225,8.548267 7.59375,8.65625 7.4927417,8.850956 7.3880752,9.071951 7.3125,9.28125 7.30454,9.30306 7.288911,9.3218 7.28125,9.34375 7.2494249,9.4357 7.2454455,9.530581 7.21875,9.625 7.1884177,9.731618 7.1483606,9.828031 7.125,9.9375 7.0521214,10.279012 7,10.635705 7,11 l 0,2 0,68 0,2 c 0,2.781848 2.2181517,5 5,5 l 2,0 68,0 2,0 c 2.781848,0 5,-2.218152 5,-5 l 0,-2 0,-68 0,-2 C 89,10.635705 88.94788,10.279012 88.875,9.9375 88.83085,9.730607 88.78662,9.539842 88.71875,9.34375 88.71105,9.3218 88.69545,9.30306 88.6875,9.28125 88.62476,9.107511 88.549117,8.913801 88.46875,8.75 88.42717,8.6672 88.38971,8.580046 88.34375,8.5 88.28915,8.40279 88.216976,8.31165 88.15625,8.21875 88.06214,8.077785 87.951329,7.942755 87.84375,7.8125 87.700576,7.63805 87.540609,7.465502 87.375,7.3125 87.36383,7.3023 87.35502,7.29135 87.34375,7.28125 87.205364,7.155694 87.058659,7.046814 86.90625,6.9375 86.803679,6.86435 86.701932,6.784136 86.59375,6.71875 c -0.0074,-0.0045 -0.02384,0.0044 -0.03125,0 -0.232039,-0.138728 -0.462548,-0.274778 -0.71875,-0.375 0.301527,0.0968 0.596455,0.204138 0.875,0.34375 0.55709,0.279224 1.060053,0.665694 1.5,1.09375 0.219973,0.214028 0.409366,0.441865 0.59375,0.6875 0.184384,0.245635 0.355408,0.507743 0.5,0.78125 0.14012,0.265048 0.276135,0.524729 0.375,0.8125 0.01041,0.03078 0.02133,0.06274 0.03125,0.09375 0.09046,0.278085 0.1388,0.579404 0.1875,0.875 C 89.95865,11.3493 90,11.665279 90,12 l 0,2 0,68 0,2 c 0,3.324 -2.676,6 -6,6 l -72,0 z"
       inkscape:connector-curvature="0"
       id="path3615"
       style="opacity:0.2;fill:url(#radialGradient3619);fill-opacity:1;fill-rule:nonzero;stroke:none" />
  </g>
  <g
     id="layer5">
    <rect
       width="66"
       height="66"
       rx="12"
       ry="12"
       x="15"
       y="15"
       clip-path="url(#clipPath3613)"
       id="rect3171"
       style="opacity:0.1;fill:url(#linearGradient3613);fill-opacity:1;fill-rule:nonzero;stroke:#ffffff;stroke-width:0.5;stroke-linecap:round;stroke-linejoin:miter;stroke-miterlimit:4;stroke-opacity:1;stroke-dasharray:none;stroke-dashoffset:0;filter:url(#filter3794)" />
  </g>
  <g
     id="layer4">
    <path
       d="M 47.989186,12 C 28.140631,12 12,28.162259 12,48.010814 12,67.86023 28.140631,84 47.989186,84 67.838606,84 84,67.86023 84,48.010814 84,28.162259 67.838606,12 47.989186,12 z m 0,3.633524 c 8.426314,0 16.107756,3.224319 21.866026,8.499849 -0.139285,-0.0087 -0.267324,-0.02163 -0.410934,-0.02163 -3.179334,0 -5.450286,2.777916 -5.450286,5.753079 0,2.66718 1.539057,4.92429 3.179333,7.591469 1.231073,2.155026 2.681887,4.909583 2.681887,8.910784 0,2.769264 -0.825329,6.262638 -2.465606,10.468009 L 64.145389,67.62752 52.466206,32.827876 c 1.948261,-0.102084 3.698408,-0.302793 3.698408,-0.302793 1.744091,-0.206765 1.52781,-2.762343 -0.216281,-2.660259 0,0 -5.223623,0.410934 -8.607991,0.410934 -3.180198,0 -8.543106,-0.410934 -8.543106,-0.410934 -1.744956,-0.102084 -1.939609,2.557309 -0.194653,2.660259 0,0 1.651523,0.200709 3.395615,0.302793 L 47.037549,46.648243 39.943527,67.88705 28.177831,32.827876 c 1.949991,-0.102084 3.698408,-0.302793 3.698408,-0.302793 1.742361,-0.206765 1.52781,-2.762343 -0.216281,-2.660259 0,0 -5.245251,0.410934 -8.629619,0.410934 -0.607317,0 -1.316719,-0.01903 -2.076299,-0.04326 C 26.741724,21.447157 36.682007,15.63352 47.989186,15.63352 z m 28.419345,16.848302 c 2.525299,4.609385 3.957945,9.902217 3.957945,15.528988 0,11.940451 -6.469402,22.355686 -16.091318,27.965156 l 9.884049,-28.570743 c 1.847041,-4.617171 2.465605,-8.309523 2.465605,-11.592671 0,-1.191276 -0.077,-2.300366 -0.216281,-3.33073 z M 18.445179,34.839291 33.866026,77.14389 C 23.06927,71.89864 15.633524,60.82158 15.633524,48.010814 c 0,-4.692436 1.016521,-9.146098 2.811655,-13.171523 z m 30.127966,16.004806 9.948934,27.251423 c 0.06575,0.16005 0.129768,0.29415 0.216281,0.43257 -3.363605,1.18435 -6.979826,1.83839 -10.749174,1.83839 -3.175873,0 -6.227167,-0.46631 -9.127065,-1.31932 l 9.711024,-28.203063 z"
       inkscape:connector-curvature="0"
       id="path4048"
       style="fill:url(#linearGradient2928);fill-opacity:1;fill-rule:nonzero;stroke:none" />
    <path
       d="m 48,11 c -19.848555,0 -36,16.151445 -36,36 0,0.165572 0.02901,0.334951 0.03125,0.5 C 12.301875,27.882716 28.319816,12 48,12 67.681042,12 83.697779,27.882716 83.96875,47.5 83.970992,47.334951 84,47.165572 84,47 84,27.151445 67.84942,11 48,11 z M 68.75,23.15625 C 65.933394,23.520336 64,26.117608 64,28.875 c 0,0.150633 0.02169,0.289335 0.03125,0.4375 0.261137,-2.75665 2.425624,-5.1875 5.40625,-5.1875 0.14361,0 0.266965,-0.0087 0.40625,0 C 69.483858,23.795279 69.124629,23.469659 68.75,23.15625 z M 31.65625,28.875 c 0,0 -5.240632,0.40625 -8.625,0.40625 -0.404785,0 -0.894884,-0.01844 -1.375,-0.03125 -0.232144,0.325588 -0.467232,0.634396 -0.6875,0.96875 0.75958,0.02423 1.455183,0.0625 2.0625,0.0625 3.384368,0 8.625,-0.40625 8.625,-0.40625 0.68036,-0.03982 1.123021,0.309415 1.3125,0.78125 0.286127,-0.80606 -0.172612,-1.847969 -1.3125,-1.78125 z m 6.84375,0 c -0.910418,0.130617 -1.286765,1.114654 -1.03125,1.84375 0.177837,-0.500828 0.647414,-0.884487 1.34375,-0.84375 0,0 5.351052,0.40625 8.53125,0.40625 3.384368,0 8.59375,-0.40625 8.59375,-0.40625 0.682889,-0.03997 1.155274,0.306866 1.34375,0.78125 0.278529,-0.804862 -0.208587,-1.847693 -1.34375,-1.78125 0,0 -5.209382,0.40625 -8.59375,0.40625 -3.180198,0 -8.53125,-0.40625 -8.53125,-0.40625 -0.10906,-0.0064 -0.215647,-0.0139 -0.3125,0 z m 37.90625,3.59375 c 0.122842,0.908755 0.2029,1.903893 0.21875,2.9375 0.0045,-0.197804 0,-0.398935 0,-0.59375 0,-0.744275 -0.03723,-1.444042 -0.09375,-2.125 -0.0392,-0.07289 -0.08525,-0.1462 -0.125,-0.21875 z M 28.5,32.78125 c -0.117277,0.0069 -0.193366,0.02501 -0.3125,0.03125 L 39.9375,67.875 47.03125,46.65625 46.84375,46.1875 39.9375,66.875 28.5,32.78125 z m 24.28125,0 c -0.117196,0.0069 -0.193472,0.02501 -0.3125,0.03125 L 64.15625,67.625 67.375,56.84375 c 1.640277,-4.205371 2.46875,-7.699486 2.46875,-10.46875 0,-0.141552 -0.02769,-0.26779 -0.03125,-0.40625 -0.10727,2.669791 -0.911879,5.963587 -2.4375,9.875 L 64.15625,66.625 52.78125,32.78125 z m 27.5625,14.625 c -0.143825,11.581115 -6.362309,21.677944 -15.625,27.28125 l -0.4375,1.28125 C 73.903166,70.35928 80.375,59.940451 80.375,48 c 0,-0.199592 -0.02766,-0.395014 -0.03125,-0.59375 z m -64.6875,0.0625 C 15.653331,47.646259 15.625,47.821792 15.625,48 c 0,12.810766 7.453244,23.911 18.25,29.15625 l -0.4375,-1.25 C 23.014171,70.64072 15.832192,59.903557 15.65625,47.46875 z M 58.375,77.65625 C 55.117272,78.759354 51.630799,79.375 48,79.375 c -3.061277,0 -6.006742,-0.423519 -8.8125,-1.21875 L 38.875,79.0625 c 2.899898,0.85301 5.949127,1.3125 9.125,1.3125 3.769348,0 7.386395,-0.6594 10.75,-1.84375 -0.08651,-0.13842 -0.153,-0.27745 -0.21875,-0.4375 L 58.375,77.65625 z"
       inkscape:connector-curvature="0"
       id="path4052"
       style="opacity:0.4;fill:#000000;fill-opacity:1;fill-rule:nonzero;stroke:none" />
    <path
       d="m 48,15.625 c -11.307179,0 -21.243566,5.808409 -27.03125,14.59375 0.253309,0.0081 0.447277,0.02484 0.6875,0.03125 C 27.523835,22.020559 37.123151,16.625 48,16.625 c 7.899669,0 15.130565,2.830113 20.75,7.53125 0.222447,-0.02875 0.454784,-0.03125 0.6875,-0.03125 0.14361,0 0.266965,-0.0087 0.40625,0 C 64.08548,18.84947 56.426314,15.625 48,15.625 z M 64.03125,30.34375 C 64.015699,30.517493 64,30.699351 64,30.875 c 0,2.66718 1.547224,4.926571 3.1875,7.59375 1.187521,2.078787 2.527996,4.724655 2.625,8.5 0.0081,-0.200645 0.03125,-0.400177 0.03125,-0.59375 0,-4.001201 -1.425177,-6.751224 -2.65625,-8.90625 -1.541052,-2.505835 -2.986255,-4.662955 -3.15625,-7.125 z m -31.0625,1.3125 c -0.151663,0.427256 -0.490146,0.803371 -1.09375,0.875 0,0 -1.737509,0.179166 -3.6875,0.28125 L 28.5,33.78125 c 1.802311,-0.106113 3.375,-0.25 3.375,-0.25 1.062676,-0.126107 1.389997,-1.137294 1.09375,-1.875 z m 24.3125,0 c -0.14941,0.431747 -0.516072,0.80281 -1.125,0.875 0,0 -1.739239,0.179166 -3.6875,0.28125 l 0.3125,0.96875 c 1.801065,-0.106113 3.375,-0.25 3.375,-0.25 1.061202,-0.125807 1.41789,-1.137811 1.125,-1.875 z m -19.8125,0.0625 c -0.267806,0.754201 0.07638,1.750633 1.125,1.8125 0,0 1.662158,0.179166 3.40625,0.28125 l 4.84375,13.375 0.1875,-0.53125 L 42,32.8125 c -1.744092,-0.102084 -3.40625,-0.28125 -3.40625,-0.28125 -0.610735,-0.03603 -0.972778,-0.378145 -1.125,-0.8125 z m 38.9375,0.75 c 0.05226,0.386622 0.09105,0.809776 0.125,1.21875 2.36326,4.393662 3.716474,9.403029 3.8125,14.71875 C 80.345444,48.269813 80.375,48.136842 80.375,48 c 0,-5.626771 -1.443451,-10.921865 -3.96875,-15.53125 z m -57.96875,2.375 C 16.642366,38.869175 15.625,43.307564 15.625,48 c 0,0.156143 0.02905,0.313129 0.03125,0.46875 0.07395,-4.496518 1.054291,-8.752451 2.78125,-12.625 l 15,41.0625 c 0.14876,0.07515 0.287431,0.177094 0.4375,0.25 L 18.4375,34.84375 z m 58.1875,1.5625 c -0.07107,3.135722 -0.731309,6.656802 -2.46875,11 l -9.875,28.5625 c 0.151549,-0.08835 0.287528,-0.190527 0.4375,-0.28125 l 9.4375,-27.28125 C 76.003291,43.789079 76.625,40.095648 76.625,36.8125 c 0,-0.140601 0.0021,-0.267933 0,-0.40625 z M 12.03125,48.5 C 12.028935,48.667833 12,48.831629 12,49 12,68.849416 28.151445,85 48,85 67.84942,85 84,68.849416 84,49 84,48.831629 83.971068,48.667833 83.96875,48.5 83.702241,68.121615 67.683848,84 48,84 28.31701,84 12.297418,68.121615 12.03125,48.5 z M 48.5625,50.84375 38.875,79.0625 c 0.104638,0.03078 0.207469,0.06398 0.3125,0.09375 l 9.375,-27.3125 9.8125,26.8125 c 0.124313,-0.04209 0.251365,-0.08147 0.375,-0.125 -0.08651,-0.13842 -0.153,-0.27745 -0.21875,-0.4375 l -9.96875,-27.25 z"
       inkscape:connector-curvature="0"
       id="path4057"
       style="opacity:0.3;fill:#ffffff;fill-opacity:1;fill-rule:nonzero;stroke:none" />
  </g>
</svg>
