<?xml version="1.0" encoding="UTF-8" standalone="no"?>
<!-- Created with Inkscape (http://www.inkscape.org/) -->

<svg
   xmlns:dc="http://purl.org/dc/elements/1.1/"
   xmlns:cc="http://creativecommons.org/ns#"
   xmlns:rdf="http://www.w3.org/1999/02/22-rdf-syntax-ns#"
   xmlns:svg="http://www.w3.org/2000/svg"
   xmlns="http://www.w3.org/2000/svg"
   xmlns:xlink="http://www.w3.org/1999/xlink"
   xmlns:inkscape="http://www.inkscape.org/namespaces/inkscape"
   version="1.0"
   width="96"
   height="96"
   id="svg2408"
   style="display:inline">
  <defs
     id="defs2410">
    <linearGradient
       x1="45.447727"
       y1="92.539597"
       x2="45.447727"
       y2="7.0165396"
       id="ButtonShadow"
       gradientUnits="userSpaceOnUse"
       gradientTransform="scale(1.0058652,0.994169)">
      <stop
         id="stop3750"
         style="stop-color:#000000;stop-opacity:1"
         offset="0" />
      <stop
         id="stop3752"
         style="stop-color:#000000;stop-opacity:0.58823532"
         offset="1" />
    </linearGradient>
    <linearGradient
       id="linearGradient3737">
      <stop
         id="stop3739"
         style="stop-color:#ffffff;stop-opacity:1"
         offset="0" />
      <stop
         id="stop3741"
         style="stop-color:#ffffff;stop-opacity:0"
         offset="1" />
    </linearGradient>
    <linearGradient
       id="linearGradient3700">
      <stop
         id="stop3702"
         style="stop-color:#70a83e;stop-opacity:1"
         offset="0" />
      <stop
         id="stop3704"
         style="stop-color:#9fd058;stop-opacity:1"
         offset="1" />
    </linearGradient>
    <filter
       color-interpolation-filters="sRGB"
       id="filter3174">
      <feGaussianBlur
         id="feGaussianBlur3176"
         stdDeviation="1.71" />
    </filter>
    <linearGradient
       x1="36.357143"
       y1="6"
       x2="36.357143"
       y2="63.893143"
       id="linearGradient3188"
       xlink:href="#linearGradient3737"
       gradientUnits="userSpaceOnUse" />
    <filter
       x="-0.192"
       y="-0.192"
       width="1.3839999"
       height="1.3839999"
       color-interpolation-filters="sRGB"
       id="filter3794">
      <feGaussianBlur
         id="feGaussianBlur3796"
         stdDeviation="5.28" />
    </filter>
    <linearGradient
       x1="48"
       y1="20.220806"
       x2="48"
       y2="138.66119"
       id="linearGradient3613"
       xlink:href="#linearGradient3737"
       gradientUnits="userSpaceOnUse" />
    <radialGradient
       cx="48"
       cy="90.171875"
       r="42"
       fx="48"
       fy="90.171875"
       id="radialGradient3619"
       xlink:href="#linearGradient3737"
       gradientUnits="userSpaceOnUse"
       gradientTransform="matrix(1.1573129,0,0,0.99590774,-7.5510206,0.19713193)" />
    <clipPath
       id="clipPath3613">
      <rect
         width="84"
         height="84"
         rx="6"
         ry="6"
         x="6"
         y="6"
         id="rect3615"
         style="fill:#ffffff;fill-opacity:1;fill-rule:nonzero;stroke:none" />
    </clipPath>
    <linearGradient
       x1="48"
       y1="90"
       x2="48"
       y2="5.9877172"
       id="linearGradient3617"
       xlink:href="#linearGradient3700"
       gradientUnits="userSpaceOnUse" />
    <linearGradient
       x1="48"
       y1="90"
       x2="48"
       y2="5.9877172"
       id="linearGradient3878"
       xlink:href="#linearGradient3700"
       gradientUnits="userSpaceOnUse" />
    <linearGradient
       id="linearGradient3700-4">
      <stop
         id="stop3702-4"
         style="stop-color:#70a83e;stop-opacity:1"
         offset="0" />
      <stop
         id="stop3704-4"
         style="stop-color:#9fd058;stop-opacity:1"
         offset="1" />
    </linearGradient>
    <clipPath
       id="clipPath2973">
      <rect
         width="84"
         height="84"
         rx="6"
         ry="6"
         x="6"
         y="6"
         id="rect2975"
         style="fill:url(#linearGradient2977);fill-opacity:1;fill-rule:nonzero;stroke:none" />
    </clipPath>
    <linearGradient
       x1="48"
       y1="90"
       x2="48"
       y2="5.9877172"
       id="linearGradient2977"
       xlink:href="#linearGradient3700-4"
       gradientUnits="userSpaceOnUse" />
    <linearGradient
       x1="58.650177"
       y1="122"
       x2="58.650177"
       y2="5.4252338"
       id="ButtonColor"
       gradientUnits="userSpaceOnUse"
       gradientTransform="matrix(1.0172414,0,0,1.0172414,-1.1034483,-1.1034483)">
      <stop
         id="stop3189"
         style="stop-color:#793c87;stop-opacity:1"
         offset="0" />
      <stop
         id="stop3191"
         style="stop-color:#b87cc8;stop-opacity:1"
         offset="1" />
    </linearGradient>
    <linearGradient
       x1="48"
       y1="90"
       x2="48"
       y2="5.9877172"
       id="linearGradient3708"
       xlink:href="#ButtonColor"
       gradientUnits="userSpaceOnUse" />
    <clipPath
       id="ClipBallReflect">
      <path
         d="M 255.03125,37.84375 C 176.37597,39.925263 97.100718,78.832255 52.436482,144.49774 21.959641,190.41525 16.859744,248.46964 23.329939,301.90286 37.443784,386.78829 108.72166,456.14742 192.1574,473.6307 c 60.27625,13.32691 124.98931,6.99678 181.78823,-16.97669 53.47036,-24.37639 93.59423,-75.06704 104.63334,-132.8598 C 491.89711,267.41705 493.99218,204.28339 462.97589,153.02484 421.58969,79.769637 338.18994,36.881442 255.03125,37.84375 z"
         inkscape:connector-curvature="0"
         id="ClipBallReflectPath"
         style="fill:#000000;fill-opacity:1" />
    </clipPath>
    <clipPath
       id="ClipRightRelief">
      <path
         d="m 386,90.5 c 0,0 -28,28.5 -34.5,50 -5.0228,16.61389 -9,51.5 13,79.5 19.45157,24.75654 56.5,45 87.5,34 31.88973,-11.31571 42.07745,-41.71778 45,-66.5 2.91627,-24.72899 3.5,-28 3.5,-28 l 11.5,6 21.5,101 -71.5,46 L 338.5,256 326,127.5 l 33.5,-59 111,1.5 0.5,13.5 -85,7 z"
         inkscape:connector-curvature="0"
         id="ClipRightReliefPath"
         style="opacity:0.2;fill:#000000;fill-opacity:1;fill-rule:evenodd;stroke:none;display:inline" />
    </clipPath>
    <clipPath
       id="ClipLeftRelief">
      <path
         d="m 20.5,232.75 c 0,0 45.27658,54.99841 82.75,52.75 C 140.75,283.25 165,278 189,240.5 213,203 201.5,152 195.5,135 189.65666,118.44387 167.5,89 135.5,76.5 103.5,64 103.5,64 103.5,64 l 23.5,-5.5 87,26 17.5,113 -63,155.5 -139.5,-17.5 -17,-97 8.5,-5.75 z"
         inkscape:connector-curvature="0"
         id="ClipLeftReliefPath"
         style="opacity:0.2;fill:#000000;fill-rule:evenodd;stroke:#000000;stroke-width:1px;stroke-linecap:butt;stroke-linejoin:miter;stroke-opacity:1;display:inline" />
    </clipPath>
    <clipPath
       id="ClipBallRelief">
      <path
         d="M 0,0 0,512 512,512 512,0 0,0 z m 258.75,58.4375 c 18.84935,-0.169318 38.1688,3.344506 49.03125,7.6875 19.18212,7.669342 48.47083,16.693789 28.40625,46.0625 -20.18047,29.53833 -30.71681,88.16158 -13.46875,120.53125 17.32841,32.5205 23.7731,38.49693 48.21875,50.3125 24.44565,11.81558 55.19299,11.72154 78.125,8.84375 22.97444,-2.88312 11.41745,34.92509 4.5625,51.09375 C 436.16337,387.4628 393.50398,420.03828 351.8125,437.9375 309.81142,455.96965 197.5621,457.85351 168,443.0625 138.14447,428.12467 116.11315,416.46913 95.28125,395.40625 74.444153,374.33813 63.458147,351.46367 56.8125,326.1875 c -6.735716,-25.61874 21.573057,-10.00567 54.65625,-4.40625 33.08319,5.59942 69.62169,-20.34898 84.3125,-37.375 14.69081,-17.026 36.19925,-68.11883 37.5,-100 1.30075,-31.88117 2.51453,-54.6689 -9.59375,-71.5625 C 211.57922,95.950142 197.40426,80.451907 219.875,66.875 c 9.83095,-5.939898 24.21439,-8.305808 38.875,-8.4375 z"
         inkscape:connector-curvature="0"
         id="ClipBallReliefPath"
         style="opacity:0.5;fill:#000000;fill-opacity:1;fill-rule:evenodd;stroke:none;stroke-width:1;marker:none;visibility:visible;display:inline;overflow:visible;enable-background:accumulate" />
    </clipPath>
    <radialGradient
       cx="254.63956"
       cy="253.88263"
       r="233.46906"
       fx="254.63956"
       fy="253.88263"
       id="RadialGray"
       xlink:href="#Gray"
       gradientUnits="userSpaceOnUse"
       gradientTransform="matrix(1.0607551,-0.06751127,0.06227048,0.9784103,-31.589703,22.765255)" />
    <radialGradient
       cx="418.69232"
       cy="181.85207"
       r="81.905167"
       fx="418.69232"
       fy="181.85207"
       id="RightWhite"
       xlink:href="#WhiteGradient"
       gradientUnits="userSpaceOnUse"
       gradientTransform="matrix(0.9455142,-0.4039922,0.5142982,1.2036775,-69.781991,131.20609)" />
    <radialGradient
       cx="112.06695"
       cy="178.6734"
       r="102.05867"
       fx="112.06695"
       fy="178.6734"
       id="LeftWhite"
       xlink:href="#WhiteGradient"
       gradientUnits="userSpaceOnUse"
       gradientTransform="matrix(0.8321994,0.3616023,-0.5071926,1.1672632,114.88409,-60.50035)" />
    <linearGradient
       id="WhiteGradient">
      <stop
         id="WhiteStop1"
         style="stop-color:#ffffff;stop-opacity:1"
         offset="0" />
      <stop
         id="WhiteStop2"
         style="stop-color:#ffffff;stop-opacity:1"
         offset="0.67378622" />
      <stop
         id="WhiteStop3"
         style="stop-color:#989898;stop-opacity:1"
         offset="1" />
    </linearGradient>
    <linearGradient
       id="Gray">
      <stop
         id="GrayStop1"
         style="stop-color:#434343;stop-opacity:1"
         offset="0" />
      <stop
         id="GrayStop2"
         style="stop-color:#434343;stop-opacity:1"
         offset="0.62869149" />
      <stop
         id="GrayStop3"
         style="stop-color:#252525;stop-opacity:1"
         offset="1" />
    </linearGradient>
    <linearGradient
       x1="45.447727"
       y1="92.539597"
       x2="45.447727"
       y2="7.0165396"
       id="ButtonShadow-0"
       gradientUnits="userSpaceOnUse"
       gradientTransform="matrix(1.0058652,0,0,0.994169,100,0)">
      <stop
         id="stop3750-8"
         style="stop-color:#000000;stop-opacity:1"
         offset="0" />
      <stop
         id="stop3752-5"
         style="stop-color:#000000;stop-opacity:0.58823532"
         offset="1" />
    </linearGradient>
    <linearGradient
       x1="32.251034"
       y1="6.1317081"
       x2="32.251034"
       y2="90.238609"
       id="linearGradient3780"
       xlink:href="#ButtonShadow-0"
       gradientUnits="userSpaceOnUse"
       gradientTransform="matrix(1.0238095,0,0,1.0119048,-1.1428571,-98.071429)" />
    <linearGradient
       x1="32.251034"
       y1="6.1317081"
       x2="32.251034"
       y2="90.238609"
       id="linearGradient3772"
       xlink:href="#ButtonShadow-0"
       gradientUnits="userSpaceOnUse"
       gradientTransform="matrix(1.0238095,0,0,1.0119048,-1.1428571,-98.071429)" />
    <linearGradient
       x1="32.251034"
       y1="6.1317081"
       x2="32.251034"
       y2="90.238609"
       id="linearGradient3725"
       xlink:href="#ButtonShadow-0"
       gradientUnits="userSpaceOnUse"
       gradientTransform="matrix(1.0238095,0,0,1.0119048,-1.1428571,-98.071429)" />
    <linearGradient
       x1="32.251034"
       y1="6.1317081"
       x2="32.251034"
       y2="90.238609"
       id="linearGradient3721"
       xlink:href="#ButtonShadow-0"
       gradientUnits="userSpaceOnUse"
       gradientTransform="translate(0,-97)" />
    <linearGradient
       x1="32.251034"
       y1="6.1317081"
       x2="32.251034"
       y2="90.238609"
       id="linearGradient2918"
       xlink:href="#ButtonShadow-0"
       gradientUnits="userSpaceOnUse"
       gradientTransform="matrix(1.0238095,0,0,1.0119048,-1.1428571,-98.071429)" />
  </defs>
  <metadata
     id="metadata2413">
    <rdf:RDF>
      <cc:Work
         rdf:about="">
        <dc:format>image/svg+xml</dc:format>
        <dc:type
           rdf:resource="http://purl.org/dc/dcmitype/StillImage" />
        <dc:title />
      </cc:Work>
    </rdf:RDF>
  </metadata>
  <g
     id="layer2"
     style="display:none">
    <rect
       width="86"
       height="85"
       rx="6"
       ry="6"
       x="5"
       y="7"
       id="rect3745"
       style="opacity:0.9;fill:url(#ButtonShadow);fill-opacity:1;fill-rule:nonzero;stroke:none;filter:url(#filter3174)" />
  </g>
  <g
     id="layer3"
     style="display:inline">
    <path
       d="m 12,-95.03125 c -5.5110903,0 -10.03125,4.52016 -10.03125,10.03125 l 0,71 c 0,5.5110902 4.5201598,10.03125 10.03125,10.03125 l 72,0 c 5.51109,0 10.03125,-4.5201597 10.03125,-10.03125 l 0,-71 c 0,-5.51109 -4.52016,-10.03125 -10.03125,-10.03125 l -72,0 z"
       transform="scale(1,-1)"
       id="path3786"
       style="opacity:0.07999998;fill:url(#linearGradient2918);fill-opacity:1;fill-rule:nonzero;stroke:none;display:inline" />
    <path
       d="m 12,-94.03125 c -4.971633,0 -9.03125,4.059617 -9.03125,9.03125 l 0,71 c 0,4.9716329 4.0596171,9.03125 9.03125,9.03125 l 72,0 c 4.971633,0 9.03125,-4.059617 9.03125,-9.03125 l 0,-71 c 0,-4.971633 -4.059617,-9.03125 -9.03125,-9.03125 l -72,0 z"
       transform="scale(1,-1)"
       id="path3778"
       style="opacity:0.1;fill:url(#linearGradient3780);fill-opacity:1;fill-rule:nonzero;stroke:none;display:inline" />
    <path
       d="m 12,-93 c -4.4091333,0 -8,3.590867 -8,8 l 0,71 c 0,4.4091333 3.5908667,8 8,8 l 72,0 c 4.409133,0 8,-3.5908667 8,-8 l 0,-71 c 0,-4.409133 -3.590867,-8 -8,-8 l -72,0 z"
       transform="scale(1,-1)"
       id="path3770"
       style="opacity:0.2;fill:url(#linearGradient3772);fill-opacity:1;fill-rule:nonzero;stroke:none;display:inline" />
    <rect
       width="86"
       height="85"
       rx="7"
       ry="7"
       x="5"
       y="-92"
       transform="scale(1,-1)"
       id="rect3723"
       style="opacity:0.3;fill:url(#linearGradient3725);fill-opacity:1;fill-rule:nonzero;stroke:none;display:inline" />
    <rect
       width="84"
       height="84"
       rx="6"
       ry="6"
       x="6"
       y="-91"
       transform="scale(1,-1)"
       id="rect3716"
       style="opacity:0.45;fill:url(#linearGradient3721);fill-opacity:1;fill-rule:nonzero;stroke:none;display:inline" />
  </g>
  <g
     id="layer1">
    <rect
       width="84"
       height="84"
       rx="6"
       ry="6"
       x="6"
       y="6"
       id="rect2419"
       style="fill:url(#linearGradient3708);fill-opacity:1;fill-rule:nonzero;stroke:none" />
    <path
       d="M 12,6 C 8.676,6 6,8.676 6,12 l 0,2 0,68 0,2 c 0,0.334721 0.04135,0.6507 0.09375,0.96875 0.0487,0.295596 0.09704,0.596915 0.1875,0.875 0.00988,0.03038 0.020892,0.0636 0.03125,0.09375 0.098865,0.287771 0.2348802,0.547452 0.375,0.8125 0.1445918,0.273507 0.3156161,0.535615 0.5,0.78125 0.1843839,0.245635 0.3737765,0.473472 0.59375,0.6875 0.439947,0.428056 0.94291,0.814526 1.5,1.09375 0.278545,0.139612 0.5734731,0.246947 0.875,0.34375 -0.2562018,-0.100222 -0.4867109,-0.236272 -0.71875,-0.375 -0.00741,-0.0044 -0.023866,0.0045 -0.03125,0 -0.031933,-0.0193 -0.062293,-0.04251 -0.09375,-0.0625 -0.120395,-0.0767 -0.2310226,-0.163513 -0.34375,-0.25 -0.1061728,-0.0808 -0.2132809,-0.161112 -0.3125,-0.25 C 8.4783201,88.557317 8.3087904,88.373362 8.15625,88.1875 8.0486711,88.057245 7.9378561,87.922215 7.84375,87.78125 7.818661,87.74287 7.805304,87.69538 7.78125,87.65625 7.716487,87.553218 7.6510225,87.451733 7.59375,87.34375 7.4927417,87.149044 7.3880752,86.928049 7.3125,86.71875 7.30454,86.69694 7.288911,86.6782 7.28125,86.65625 7.2494249,86.5643 7.2454455,86.469419 7.21875,86.375 7.1884177,86.268382 7.1483606,86.171969 7.125,86.0625 7.0521214,85.720988 7,85.364295 7,85 L 7,83 7,15 7,13 C 7,10.218152 9.2181517,8 12,8 l 2,0 68,0 2,0 c 2.781848,0 5,2.218152 5,5 l 0,2 0,68 0,2 c 0,0.364295 -0.05212,0.720988 -0.125,1.0625 -0.04415,0.206893 -0.08838,0.397658 -0.15625,0.59375 -0.0077,0.02195 -0.0233,0.04069 -0.03125,0.0625 -0.06274,0.173739 -0.138383,0.367449 -0.21875,0.53125 -0.04158,0.0828 -0.07904,0.169954 -0.125,0.25 -0.0546,0.09721 -0.126774,0.18835 -0.1875,0.28125 -0.09411,0.140965 -0.204921,0.275995 -0.3125,0.40625 -0.143174,0.17445 -0.303141,0.346998 -0.46875,0.5 -0.01117,0.0102 -0.01998,0.02115 -0.03125,0.03125 -0.138386,0.125556 -0.285091,0.234436 -0.4375,0.34375 -0.102571,0.07315 -0.204318,0.153364 -0.3125,0.21875 -0.0074,0.0045 -0.02384,-0.0044 -0.03125,0 -0.232039,0.138728 -0.462548,0.274778 -0.71875,0.375 0.301527,-0.0968 0.596455,-0.204138 0.875,-0.34375 0.55709,-0.279224 1.060053,-0.665694 1.5,-1.09375 0.219973,-0.214028 0.409366,-0.441865 0.59375,-0.6875 0.184384,-0.245635 0.355408,-0.507743 0.5,-0.78125 0.14012,-0.265048 0.276135,-0.524729 0.375,-0.8125 0.01041,-0.03078 0.02133,-0.06274 0.03125,-0.09375 0.09046,-0.278085 0.1388,-0.579404 0.1875,-0.875 C 89.95865,84.6507 90,84.334721 90,84 l 0,-2 0,-68 0,-2 C 90,8.676 87.324,6 84,6 L 12,6 z"
       inkscape:connector-curvature="0"
       id="rect3728"
       style="opacity:0.4;fill:url(#linearGradient3188);fill-opacity:1;fill-rule:nonzero;stroke:none" />
    <path
       d="M 12,90 C 8.676,90 6,87.324 6,84 L 6,82 6,14 6,12 c 0,-0.334721 0.04135,-0.6507 0.09375,-0.96875 0.0487,-0.295596 0.09704,-0.596915 0.1875,-0.875 C 6.29113,10.12587 6.302142,10.09265 6.3125,10.0625 6.411365,9.774729 6.5473802,9.515048 6.6875,9.25 6.8320918,8.976493 7.0031161,8.714385 7.1875,8.46875 7.3718839,8.223115 7.5612765,7.995278 7.78125,7.78125 8.221197,7.353194 8.72416,6.966724 9.28125,6.6875 9.559795,6.547888 9.8547231,6.440553 10.15625,6.34375 9.9000482,6.443972 9.6695391,6.580022 9.4375,6.71875 c -0.00741,0.0044 -0.023866,-0.0045 -0.03125,0 -0.031933,0.0193 -0.062293,0.04251 -0.09375,0.0625 -0.120395,0.0767 -0.2310226,0.163513 -0.34375,0.25 -0.1061728,0.0808 -0.2132809,0.161112 -0.3125,0.25 C 8.4783201,7.442683 8.3087904,7.626638 8.15625,7.8125 8.0486711,7.942755 7.9378561,8.077785 7.84375,8.21875 7.818661,8.25713 7.805304,8.30462 7.78125,8.34375 7.716487,8.446782 7.6510225,8.548267 7.59375,8.65625 7.4927417,8.850956 7.3880752,9.071951 7.3125,9.28125 7.30454,9.30306 7.288911,9.3218 7.28125,9.34375 7.2494249,9.4357 7.2454455,9.530581 7.21875,9.625 7.1884177,9.731618 7.1483606,9.828031 7.125,9.9375 7.0521214,10.279012 7,10.635705 7,11 l 0,2 0,68 0,2 c 0,2.781848 2.2181517,5 5,5 l 2,0 68,0 2,0 c 2.781848,0 5,-2.218152 5,-5 l 0,-2 0,-68 0,-2 C 89,10.635705 88.94788,10.279012 88.875,9.9375 88.83085,9.730607 88.78662,9.539842 88.71875,9.34375 88.71105,9.3218 88.69545,9.30306 88.6875,9.28125 88.62476,9.107511 88.549117,8.913801 88.46875,8.75 88.42717,8.6672 88.38971,8.580046 88.34375,8.5 88.28915,8.40279 88.216976,8.31165 88.15625,8.21875 88.06214,8.077785 87.951329,7.942755 87.84375,7.8125 87.700576,7.63805 87.540609,7.465502 87.375,7.3125 87.36383,7.3023 87.35502,7.29135 87.34375,7.28125 87.205364,7.155694 87.058659,7.046814 86.90625,6.9375 86.803679,6.86435 86.701932,6.784136 86.59375,6.71875 c -0.0074,-0.0045 -0.02384,0.0044 -0.03125,0 -0.232039,-0.138728 -0.462548,-0.274778 -0.71875,-0.375 0.301527,0.0968 0.596455,0.204138 0.875,0.34375 0.55709,0.279224 1.060053,0.665694 1.5,1.09375 0.219973,0.214028 0.409366,0.441865 0.59375,0.6875 0.184384,0.245635 0.355408,0.507743 0.5,0.78125 0.14012,0.265048 0.276135,0.524729 0.375,0.8125 0.01041,0.03078 0.02133,0.06274 0.03125,0.09375 0.09046,0.278085 0.1388,0.579404 0.1875,0.875 C 89.95865,11.3493 90,11.665279 90,12 l 0,2 0,68 0,2 c 0,3.324 -2.676,6 -6,6 l -72,0 z"
       inkscape:connector-curvature="0"
       id="path3615"
       style="opacity:0.2;fill:url(#radialGradient3619);fill-opacity:1;fill-rule:nonzero;stroke:none" />
  </g>
  <g
     id="layer7"
     style="display:inline">
    <g
       clip-path="url(#clipPath2973)"
       id="g3855"
       style="opacity:0.9;fill:#ddafe9">
      <path
         d="M 48,48 72,-8 88,-8 48,48 z"
         inkscape:connector-curvature="0"
         id="path3819"
         style="opacity:0.15;fill:#ddafe9;stroke:none" />
      <path
         d="M 48,48 103.25122,73.67688 102.769,89.669611 48,48 z"
         inkscape:connector-curvature="0"
         id="path3821"
         style="opacity:0.15;fill:#ddafe9;stroke:none" />
      <path
         d="M 48,47.999999 -11.82794,59.515947 -20.796753,46.266027 48,47.999999 z"
         inkscape:connector-curvature="0"
         id="path3823"
         style="opacity:0.15;fill:#ddafe9;stroke:none" />
      <path
         d="M 48,48 -1.3111997,12.217252 2.2248524,-3.3871168 48,48 z"
         inkscape:connector-curvature="0"
         id="path3825"
         style="opacity:0.15;fill:#ddafe9;stroke:none" />
      <path
         d="M 48,48 65.519239,-14.073153 95.955194,-1.3588835 48,48 z"
         inkscape:connector-curvature="0"
         id="path3827"
         style="opacity:0.15;fill:#ddafe9;stroke:none" />
      <path
         d="M 48,48 109.6356,28.998609 115.4895,61.459846 48,48 z"
         inkscape:connector-curvature="0"
         id="path3829"
         style="opacity:0.15;fill:#ddafe9;stroke:none" />
      <path
         d="M 48,48 16.754067,104.42421 -9.9692451,85.088633 48,48 z"
         inkscape:connector-curvature="0"
         id="path3831"
         style="opacity:0.15;fill:#ddafe9;stroke:none" />
      <path
         d="M 48,48 -14.811967,33.348835 -3.5083336,2.3612922 48,48 z"
         inkscape:connector-curvature="0"
         id="path3833"
         style="opacity:0.15;fill:#ddafe9;stroke:none" />
      <path
         d="M 48,48 93.809637,93.403493 90.117903,102.42501 48,48 z"
         inkscape:connector-curvature="0"
         id="path3835"
         style="opacity:0.15;fill:#ddafe9;stroke:none" />
      <path
         d="m 48,48 -2.970052,64.42964 -9.168463,3.30998 L 48,48 z"
         inkscape:connector-curvature="0"
         id="path3837"
         style="opacity:0.15;fill:#ddafe9;stroke:none" />
      <path
         d="M 48,48 3.1405789,94.342551 -5.923902,90.757601 48,48 z"
         inkscape:connector-curvature="0"
         id="path3839"
         style="opacity:0.15;fill:#ddafe9;stroke:none" />
      <path
         d="M 48,47.999999 -14.116138,65.366204 -20.132068,57.696441 48,47.999999 z"
         inkscape:connector-curvature="0"
         id="path3841"
         style="opacity:0.15;fill:#ddafe9;stroke:none" />
      <path
         d="M 48.000001,47.999998 18.853372,-9.5367177 25.202646,-16.932892 48.000001,47.999998 z"
         inkscape:connector-curvature="0"
         id="path3843"
         style="opacity:0.15;fill:#ddafe9;stroke:none" />
      <path
         d="m 48.000003,48.000001 59.481677,-24.938521 6.921,6.864135 -66.402677,18.074386 z"
         inkscape:connector-curvature="0"
         id="path3845"
         style="opacity:0.15;fill:#ddafe9;stroke:none" />
      <path
         d="M 47.999999,47.999999 88.186743,93.793286 81.290444,108.23077 47.999999,47.999999 z"
         inkscape:connector-curvature="0"
         id="path3849"
         style="opacity:0.15;fill:#ddafe9;stroke:none" />
      <path
         d="M 48.000001,48 12.042033,-1.1835747 20.194136,-14.95104 48.000001,48 z"
         inkscape:connector-curvature="0"
         id="path3851"
         style="opacity:0.15;fill:#ddafe9;stroke:none" />
    </g>
    <rect
       width="84"
       height="84"
       rx="6"
       ry="6"
       x="6"
       y="6"
       id="rect3873"
       style="fill:url(#linearGradient3617);fill-opacity:1;fill-rule:nonzero;stroke:none;display:none" />
    <rect
       width="84"
       height="84"
       rx="6"
       ry="6"
       x="6"
       y="6"
       id="rect3880"
       style="fill:url(#linearGradient3878);fill-opacity:1;fill-rule:nonzero;stroke:none;display:none" />
  </g>
  <g
     id="layer5">
    <rect
       width="66"
       height="66"
       rx="12"
       ry="12"
       x="15"
       y="15"
       clip-path="url(#clipPath3613)"
       id="rect3171"
       style="opacity:0.1;fill:url(#linearGradient3613);fill-opacity:1;fill-rule:nonzero;stroke:#ffffff;stroke-width:0.5;stroke-linecap:round;stroke-linejoin:miter;stroke-miterlimit:4;stroke-opacity:1;stroke-dasharray:none;stroke-dashoffset:0;filter:url(#filter3794)" />
  </g>
  <g
     id="layer6">
    <path
       d="m 47.46875,18.6875 c -5.447222,0.144154 -10.78512,1.728964 -15.59375,4.28125 -0.09565,-0.0074 -0.187503,-0.0262 -0.3125,-0.03125 l 0,0.15625 c -0.0085,0.0046 -0.02276,-0.0046 -0.03125,0 2.1e-4,-0.02048 -9.3e-5,-0.15625 0,-0.15625 -0.0087,2e-6 -0.01947,0 -0.03125,0 -0.01178,0 -0.05383,2e-6 -0.0625,0 a 1.0811708,1.0811708 0 0 0 -0.03125,0 c -5.517807,0.09175 -9.991951,3.603937 -12.75,7.65625 -0.0036,0.0053 -0.02762,-0.0053 -0.03125,0 0.0013,-0.0013 0,0.03125 0,0.03125 -0.02415,0.03564 -0.06987,0.05802 -0.09375,0.09375 l -0.03125,0 c -0.0061,0.0051 0.124828,-0.156479 0,0.03125 -0.01656,0.01656 -0.03171,0.03173 -0.03125,0.03125 a 1.0811708,1.0811708 0 0 0 -0.0625,0.09375 c 0.242913,-0.371834 0.22747,-0.366771 -0.03125,0.03125 a 1.0811708,1.0811708 0 0 0 -0.03125,0.0625 C 16.466565,33.940567 15.177356,37.388771 15,41.0625 a 1.0811708,1.0811708 0 0 0 0,0.03125 c 10e-6,-6.23e-4 3e-6,0.04294 0,0.0625 10e-7,0.0041 0,0.02467 0,0.03125 -10e-7,0.01316 2e-6,0.02148 0,0.03125 -1.93e-4,-0.01646 -5.17e-4,-0.0072 0,0.03125 5.82e-4,0.04322 0.03036,0.0818 0.03125,0.125 0.03603,1.75583 0.334507,3.500168 0.78125,5.15625 -0.19352,2.616529 -0.09827,5.239208 0.1875,7.75 0.0012,0.01012 -0.0012,0.02114 0,0.03125 a 1.0811708,1.0811708 0 0 0 -0.03125,0.03125 c 5e-6,0.0025 -4e-6,0.02558 0,0.03125 a 1.0811708,1.0811708 0 0 0 0,0.03125 1.0811708,1.0811708 0 0 0 0,0.03125 c -4e-6,0.0057 5e-6,0.02878 0,0.03125 3e-6,0.01956 10e-6,0.06312 0,0.0625 A 1.0811708,1.0811708 0 0 0 16,54.5625 a 1.0811708,1.0811708 0 0 0 0,0.0625 1.0811708,1.0811708 0 0 0 0.03125,0.15625 c -7.94e-4,-0.0028 0.06357,0.221503 0.0625,0.21875 2.04969,11.70358 11.665688,20.980344 23.09375,23.375 8.068107,1.783837 16.602758,0.951339 24.1875,-2.25 a 1.0811708,1.0811708 0 0 0 0.03125,-0.03125 c -7.86e-4,3.59e-4 0.03593,-0.01796 0.0625,-0.03125 0.06394,-0.02915 0.07494,-0.02109 0.09375,-0.03125 0.01328,-0.0072 0.07086,-0.03512 0.0625,-0.03125 a 1.0811708,1.0811708 0 0 0 0.125,-0.0625 c -0.002,0.0013 0.12687,-0.09515 0.125,-0.09375 -0.0019,0.0014 0.126754,-0.0953 0.125,-0.09375 6.955337,-3.37952 12.027221,-9.872035 13.75,-17.40625 -0.002,0.003 0.05063,-0.07691 0.0625,-0.09375 a 1.0811708,1.0811708 0 0 0 0,-0.0625 c 0.0029,-0.01301 0.02839,-0.01823 0.03125,-0.03125 a 1.0811708,1.0811708 0 0 0 0,-0.03125 l 0.03125,0 c 0.0021,-0.0044 -0.0053,-0.02063 0,-0.03125 a 1.0811708,1.0811708 0 0 0 0,-0.03125 c 0.0077,-0.02314 0.02143,-0.03305 0.03125,-0.0625 0.0098,-0.02945 0.02679,-0.04921 0.03125,-0.0625 0.002,-0.0058 1.05e-4,-0.03163 0,-0.03125 0.0068,-0.01643 0.03146,-0.03181 0.03125,-0.03125 -7.03e-4,0.0019 0.06307,-0.126917 0.0625,-0.125 -5.75e-4,0.0019 0.03169,-0.126951 0.03125,-0.125 a 1.0811708,1.0811708 0 0 0 0,-0.03125 c 0.0024,-0.01248 -0.0019,-0.02173 0,-0.03125 0.006,-0.03094 0.02554,-0.05936 0.03125,-0.09375 0.0046,-0.01976 -0.0046,-0.04273 0,-0.0625 2.39e-4,-0.0045 8.3e-5,-0.02064 0,-0.03125 5.73e-4,-0.0048 -8.21e-4,-0.02351 0,-0.03125 -2.73e-4,-0.01339 3.31e-4,-0.0184 0,-0.03125 0.668431,-2.922454 1.07159,-5.985705 1.09375,-9.09375 0.0082,-0.01265 0.02363,-0.01885 0.03125,-0.03125 A 1.0811708,1.0811708 0 0 0 79.25,48.15625 c -0.001,0.0018 0.06337,-0.15815 0.0625,-0.15625 -0.04294,0.07207 -0.09361,0.09366 -0.125,0.125 3.42e-4,-0.07394 0.03135,-0.144766 0.03125,-0.21875 a 1.0811708,1.0811708 0 0 0 0.0625,0 l 0.03125,0 a 1.0811708,1.0811708 0 0 0 0.03125,0 c -0.0064,0.01507 0.01265,0.006 0,0.03125 A 1.0811708,1.0811708 0 0 0 79.375,47.90625 c 0.01501,-0.03032 0.01649,-0.06337 0.03125,-0.09375 a 1.0811708,1.0811708 0 0 0 0,-0.03125 c 1.64079,-3.394461 1.766696,-7.112392 1.15625,-10.5 0.0034,5.7e-5 0.0625,-3.7e-5 0.0625,0 -2e-6,-0.0087 0,-0.01947 0,-0.03125 0,-0.01178 -2e-6,-0.05383 0,-0.0625 l -0.0625,0 c -0.0037,-0.02005 0.0037,-0.04248 0,-0.0625 l 0.03125,0 c -7.6e-5,0.0016 -1.1e-5,-0.06942 0,-0.125 8e-6,-0.04169 -5.7e-5,-0.09495 0,-0.09375 A 1.0811708,1.0811708 0 0 0 80.5625,36.875 c 1.8e-4,7.19e-4 0.0068,-0.03862 0,-0.0625 a 1.0811708,1.0811708 0 0 0 0,-0.09375 C 79.978196,34.396259 78.945975,32.116085 77.46875,30.125 77.192042,29.752038 76.900099,29.350644 76.5,28.90625 c -1.812069,-2.014896 -4.275432,-3.100051 -6.75,-3.5625 -0.0894,-0.06147 -0.05605,-0.01065 -0.09375,-0.03125 -0.08027,-0.04387 -0.1875,-0.09375 -0.1875,-0.09375 A 1.0811708,1.0811708 0 0 0 69.375,25.1875 l -0.3125,-0.09375 a 1.0811708,1.0811708 0 0 0 -0.21875,-0.03125 1.0811708,1.0811708 0 0 0 -0.03125,0 1.0811708,1.0811708 0 0 0 -0.125,0 c -0.05052,-0.0064 -0.07549,0.0057 -0.125,0 -0.01238,-0.0014 -0.01894,0.0014 -0.03125,0 -0.595448,-0.06709 -1.12649,-0.106807 -1.5,-0.125 -5.634065,-4.019789 -12.462162,-6.323633 -19.4375,-6.25 l -0.03125,0 c -0.0098,2e-6 -0.01809,-1e-6 -0.03125,0 -0.0066,0 -0.02714,1e-6 -0.03125,0 0,0 0,1.09375 0,1.09375 L 47.46875,18.6875 z m -15.9375,4.53125 0.03125,0.0625 -0.03125,0.75 c 0.0027,-0.401424 -0.0015,-0.632627 0,-0.8125 z m -12.6875,7.75 0.375,0.25 c 0.05261,0.05245 0.15625,0.15625 0.15625,0.15625 l -0.53125,-0.40625 z m 61.21875,6.125 0.375,0.03125 -0.40625,0.0625 -0.5,0 0.53125,-0.09375 z M 78.4375,37.25 c 0,0 0.553151,0.02766 1.09375,0.03125 l -0.03125,0 L 78.4375,37.25 z m 0.03125,10.28125 0.03125,0 a 1.0811708,1.0811708 0 0 0 0.40625,0.3125 l -0.40625,0 c -0.02737,-0.133064 -0.0504,-0.222429 -0.0625,-0.28125 0.0056,-0.001 0.02376,-0.02986 0.03125,-0.03125 z m 0.09375,0.71875 0.25,0.1875 c -0.03429,0.01441 -0.06252,0.03126 -0.0625,0.03125 0,0 -0.125,0.03125 -0.125,0.03125 0,0 -0.04379,-0.159015 -0.0625,-0.25 z m -2.28125,8.28125 c 0.05133,0.052 0.589128,0.587832 0.6875,0.6875 -0.05911,-0.05245 -0.659643,-0.603802 -0.71875,-0.65625 0.01342,-0.01411 0.02287,-0.02244 0.03125,-0.03125 z"
       id="path3887"
       style="opacity:0.05;fill:#000000;fill-opacity:1" />
    <path
       d="m 47.5,19.78125 c -5.406719,0.143082 -10.732956,1.6803 -15.5,4.28125 -0.153711,-0.0086 -0.315939,-0.02508 -0.46875,-0.03125 9.82e-4,1.7e-5 -0.09473,1.7e-5 -0.09375,0 -5.12856,0.08528 -9.397872,3.387556 -12,7.28125 -0.008,0.01193 -0.02331,0.01931 -0.03125,0.03125 -0.01661,0.01661 -0.03173,0.03175 -0.03125,0.03125 a 0.99209656,0.99209656 0 0 0 -0.0625,0.09375 c -0.0078,0.01198 -0.02345,0.01926 -0.03125,0.03125 A 0.99209656,0.99209656 0 0 0 19.25,31.53125 c -1.791183,2.835665 -2.98931,6.135774 -3.15625,9.59375 a 0.99209656,0.99209656 0 0 0 0,0.03125 c 1.1e-5,-6.55e-4 4e-6,0.04289 0,0.0625 1.21e-4,0.01033 -1.39e-4,0.02092 0,0.03125 0.02363,1.753434 0.315931,3.512476 0.78125,5.1875 -0.210883,2.660028 -0.114706,5.339951 0.1875,7.90625 6.8e-5,-0.002 6.8e-5,0.126964 0,0.125 a 0.99209656,0.99209656 0 0 0 0,0.03125 0.99209656,0.99209656 0 0 0 0.03125,0.09375 c 1.884067,11.331419 11.244313,20.399503 22.3125,22.71875 7.841179,1.733664 16.185123,0.926315 23.5625,-2.1875 a 0.99209656,0.99209656 0 0 0 0.0625,-0.03125 c 0.04249,-0.01937 0.08264,-0.04288 0.125,-0.0625 a 0.99209656,0.99209656 0 0 0 0.125,-0.09375 c 6.879644,-3.241044 11.934476,-9.685905 13.53125,-17.125 a 0.99209656,0.99209656 0 0 0 0.03125,-0.03125 c 0.0048,-0.02271 0.02648,-0.03977 0.03125,-0.0625 A 0.99209656,0.99209656 0 0 0 76.90625,57.625 0.99209656,0.99209656 0 0 0 77,57.375 c 0.0392,-0.202305 9.92e-4,-0.02009 0,-0.03125 -9.92e-4,-0.01116 0.03473,-0.213088 0,-0.03125 0.712712,-3.041754 1.134568,-6.241335 1.125,-9.46875 0.0732,-0.08342 0.09748,-0.07217 0.1875,-0.21875 a 0.99209656,0.99209656 0 0 0 0.03125,-0.0625 c -7.4e-4,0.0013 0.01181,-0.05492 0.03125,-0.09375 0.0083,-0.01664 0.03152,-0.03185 0.03125,-0.03125 1.591535,-3.21552 1.717416,-6.850715 1.09375,-10.15625 l 0.03125,0 c -1.7e-5,9.82e-4 -1.7e-5,-0.09473 0,-0.09375 A 0.99209656,0.99209656 0 0 0 79.5,37.0625 a 0.99209656,0.99209656 0 0 0 0,-0.09375 C 78.948347,34.776039 77.980715,32.650678 76.59375,30.78125 76.307633,30.395607 76.037069,30.01327 75.6875,29.625 73.954953,27.698527 71.555468,26.615231 69.125,26.25 c -0.01806,-0.01242 -0.06249,-0.03125 -0.0625,-0.03125 -4e-5,-2e-5 -0.312456,-0.09374 -0.3125,-0.09375 l 0,0.03125 c -0.0121,8.75e-4 -0.152445,-0.01782 -0.03125,0 C 67.93501,26.041027 67.244935,26.029026 66.75,26 c -0.0071,-0.0052 -0.02411,0.0052 -0.03125,0 -5.50478,-4.019263 -12.272836,-6.291083 -19.125,-6.21875 3.27e-4,6e-6 -0.02144,-2e-6 -0.03125,0 -0.01961,4e-6 -0.06316,1.1e-5 -0.0625,0 z"
       id="path3883"
       style="opacity:0.1;fill:#000000;fill-opacity:1" />
    <path
       d="M 47.53125,20.78125 C 42.170698,20.92311 36.833368,22.428797 32.125,25.0625 31.929402,25.044961 31.73413,25.040704 31.5,25.03125 a 0.90650312,0.90650312 0 0 0 -0.03125,0 c -4.790246,0.07965 -8.894454,3.23191 -11.34375,7 a 0.90650312,0.90650312 0 0 0 -0.03125,0.03125 c -1.710828,2.708454 -2.842618,5.865016 -3,9.125 a 0.90650312,0.90650312 0 0 0 0,0.03125 c 0.0203,1.726574 0.303936,3.460113 0.78125,5.125 -0.228557,2.695153 -0.129358,5.414518 0.1875,8.03125 a 0.90650312,0.90650312 0 0 0 0,0.0625 c 1.810154,10.886881 10.894209,19.670798 21.5625,21.90625 7.632964,1.687628 15.782824,0.908008 22.96875,-2.125 A 0.90650312,0.90650312 0 0 0 62.625,74.1875 c 6.855929,-3.125522 11.93665,-9.593782 13.375,-17 l 0.03125,0 c 0.0038,-0.0196 -0.0037,-0.04289 0,-0.0625 0.729463,-3.104507 1.170929,-6.390375 1.125,-9.65625 0.09205,-0.109915 0.193427,-0.181102 0.3125,-0.375 A 0.90650312,0.90650312 0 0 0 77.5,47.03125 c 1.517884,-3.042811 1.671849,-6.574966 1.03125,-9.78125 a 0.90650312,0.90650312 0 0 0 0,-0.03125 C 78.007987,35.138885 77.112897,33.127747 75.8125,31.375 c -0.280643,-0.378265 -0.560253,-0.744157 -0.875,-1.09375 -1.634178,-1.817094 -3.960339,-2.845977 -6.3125,-3.125 -0.0028,-3.38e-4 0.0028,-0.03091 0,-0.03125 -0.02289,-0.0036 -0.03974,0.0033 -0.0625,0 C 67.865479,27.022526 67.214715,27.034686 66.65625,27 a 0.90650312,0.90650312 0 0 0 -0.09375,0 c -0.03233,0.0017 -0.0346,-0.0022 -0.0625,0 -5.395277,-4.055804 -12.154999,-6.297236 -18.9375,-6.21875 a 0.90650312,0.90650312 0 0 0 -0.03125,0 z"
       id="path3879"
       style="opacity:0.15;fill:#000000;fill-opacity:1" />
    <path
       d="M 47.5625,21.6875 C 42.251504,21.828049 36.926252,23.342545 32.28125,26 c -0.27103,-0.02037 -0.540829,-0.05153 -0.8125,-0.0625 -4.393825,0.07306 -8.271558,3.021202 -10.59375,6.59375 -1.638027,2.5932 -2.72653,5.612111 -2.875,8.6875 0.02014,1.712748 0.288333,3.445156 0.78125,5.09375 -0.235833,2.657609 -0.128193,5.36164 0.1875,7.96875 1.742223,10.47832 10.544381,19.029352 20.84375,21.1875 7.440544,1.645084 15.426199,0.865553 22.4375,-2.09375 6.60042,-3.009039 11.543574,-9.27227 12.90625,-16.40625 0.749652,-3.173359 1.20765,-6.510367 1.125,-9.8125 0.135015,-0.17984 0.287456,-0.337807 0.40625,-0.53125 1.404022,-2.814558 1.578066,-6.137793 0.96875,-9.1875 -0.497693,-1.978228 -1.342796,-3.887265 -2.5625,-5.53125 C 74.830576,31.55153 74.545331,31.203027 74.25,30.875 c -1.478177,-1.643632 -3.600326,-2.598596 -5.78125,-2.84375 -0.620295,-0.09752 -1.249819,-0.08617 -1.875,-0.125 -0.102952,0.0053 -0.209154,0.02382 -0.3125,0.03125 -5.278642,-4.08323 -12.008696,-6.327648 -18.71875,-6.25 z"
       inkscape:connector-curvature="0"
       id="path3798"
       style="opacity:0.3;fill:#000000;fill-opacity:1" />
    <g
       transform="matrix(0.12344073,0,0,0.12344073,16.090909,16.009372)"
       id="Logo"
       style="display:inline">
      <g
         id="GooBall">
        <path
           d="M 255.03125,37.84375 C 176.37597,39.925263 97.100718,78.832255 52.436482,144.49774 21.959641,190.41525 16.859744,248.46964 23.329939,301.90286 37.443784,386.78829 108.72166,456.14742 192.1574,473.6307 c 60.27625,13.32691 124.98931,6.99678 181.78823,-16.97669 53.47036,-24.37639 93.59423,-75.06704 104.63334,-132.8598 C 491.89711,267.41705 493.99218,204.28339 462.97589,153.02484 421.58969,79.769637 338.18994,36.881442 255.03125,37.84375 z"
           inkscape:connector-curvature="0"
           id="Ball"
           style="fill:url(#RadialGray);fill-opacity:1" />
        <path
           d="M 255.03125,37.84375 C 176.37597,39.925263 97.100718,78.832255 52.436482,144.49774 21.959641,190.41525 16.859744,248.46964 23.329939,301.90286 37.443784,386.78829 108.72166,456.14742 192.1574,473.6307 c 60.27625,13.32691 124.98931,6.99678 181.78823,-16.97669 53.47036,-24.37639 93.59423,-75.06704 104.63334,-132.8598 C 491.89711,267.41705 493.99218,204.28339 462.97589,153.02484 421.58969,79.769637 338.18994,36.881442 255.03125,37.84375 z"
           inkscape:connector-curvature="0"
           clip-path="url(#ClipBallRelief)"
           id="BallRelief"
           style="opacity:0.15;fill:#000000;fill-opacity:1" />
        <path
           d="m 73,413 c 98.71242,-23.70306 195.40483,-65.92993 271.05377,-134.85166 50.73881,-46.01772 86.51902,-108.82616 95.9729,-176.98687 13.25362,-65.400366 24.17642,-131.450892 41.93476,-195.822847 3.91488,-7.956493 5.26138,12.146572 7.96671,16.263753 C 512.95209,-2.2650828 535.97605,73.867459 559,150 c -10.33333,118.33333 -20.66667,236.66667 -31,355 -156.33333,3.66667 -312.66667,7.33333 -469,11 -0.333333,-33.33333 -0.666667,-66.66667 -1,-100 5,-1 10,-2 15,-3 z"
           inkscape:connector-curvature="0"
           clip-path="url(#ClipBallReflect)"
           id="BallReflect"
           style="opacity:0.05;fill:#000000;fill-rule:evenodd;stroke:none" />
        <path
           d="m 271.9375,131 c -3.39013,0.18518 -6.66452,3.36938 -6.3125,7 0.36347,3.74885 1.63454,7 7,7 5.364,0 6.62393,-2.62358 7,-7 0.375,-4.364 -3.26101,-6.75 -7,-7 -0.22591,-0.0151 -0.46149,-0.0123 -0.6875,0 z m -22.375,25.5 c -1.73496,-0.11664 -3.01907,1.51858 -3.0625,3.0625 -0.0399,1.41901 1.09992,2.84699 3.0625,3.09375 1.83946,0.23128 3.13388,-1.2658 3.09375,-3.09375 -0.0402,-1.82948 -1.23437,-2.9375 -3.09375,-3.0625 z"
           inkscape:connector-curvature="0"
           id="Lights"
           style="opacity:0.02000002;fill:#ffffff;fill-opacity:1;fill-rule:evenodd;stroke:none;stroke-width:1;marker:none;visibility:visible;display:inline;overflow:visible;enable-background:accumulate" />
      </g>
      <g
         id="RightEye">
        <path
           d="m 409.19363,88.1875 c -15.36029,0.795193 -31.39875,4.320763 -42.77519,15.4138 -15.94847,15.15035 -22.14371,37.35999 -26.71006,58.18575 -6.64716,30.35134 3.69727,63.33559 25.98204,84.87244 18.74926,19.27966 46.56532,31.05429 73.55035,25.79567 20.36216,-3.88436 40.64876,-14.50194 51.73561,-32.55559 11.37406,-22.80089 12.79623,-49.70558 7.86013,-74.41142 -4.03184,-16.02573 -11.09247,-31.49419 -20.97336,-44.8122 -2.13199,-2.87361 -4.39528,-5.6471 -6.78777,-8.30447 C 459.10059,99.056331 442.04458,91.211602 424.3768,89.225598 419.35176,88.435586 414.25825,88.502113 409.19363,88.1875 z"
           inkscape:connector-curvature="0"
           id="RightEyeball"
           style="fill:url(#RightWhite);fill-opacity:1;fill-rule:evenodd;stroke:none;stroke-width:1;marker:none;visibility:visible;display:inline;overflow:visible;enable-background:accumulate" />
        <path
           d="m 448.16333,153.80736 c -5.73901,0.0561 -11.54103,2.01618 -15.67878,6.09634 -9.09735,8.83551 -11.04817,24.18904 -4.33552,34.97168 4.95216,7.89872 15.10998,11.95384 24.16772,9.9503 6.38423,-1.35193 12.7527,-4.53428 16.27271,-10.25295 6.192,-9.88887 4.6141,-23.49466 -2.5154,-32.47989 -4.23353,-5.42451 -11.01079,-8.66901 -17.91073,-8.28548 z"
           inkscape:connector-curvature="0"
           id="RightPupil"
           style="fill:#070402;fill-opacity:1;fill-rule:evenodd;stroke:none;stroke-width:1;marker:none;visibility:visible;display:inline;overflow:visible;enable-background:accumulate" />
        <path
           d="m 409.19363,88.1875 c -15.36029,0.795193 -31.39875,4.320763 -42.77519,15.4138 -15.94847,15.15035 -22.14371,37.35999 -26.71006,58.18575 -6.64716,30.35134 3.69727,63.33559 25.98204,84.87244 18.74926,19.27966 46.56532,31.05429 73.55035,25.79567 20.36216,-3.88436 40.64876,-14.50194 51.73561,-32.55559 11.37406,-22.80089 12.79623,-49.70558 7.86013,-74.41142 -4.03184,-16.02573 -11.09247,-31.49419 -20.97336,-44.8122 -2.13199,-2.87361 -4.39528,-5.6471 -6.78777,-8.30447 C 459.10059,99.056331 442.04458,91.211602 424.3768,89.225598 419.35176,88.435586 414.25825,88.502113 409.19363,88.1875 z"
           inkscape:connector-curvature="0"
           clip-path="url(#ClipRightRelief)"
           id="RightRelief"
           style="opacity:0.07999998;fill:#000000;fill-opacity:1;fill-rule:evenodd;stroke:none;stroke-width:1;marker:none;visibility:visible;display:inline;overflow:visible;enable-background:accumulate" />
        <path
           d="m 448.16333,153.80736 c -5.73901,0.0561 -11.54103,2.01618 -15.67878,6.09634 -9.09735,8.83551 -11.04817,24.18904 -4.33552,34.97168 4.95216,7.89872 15.10998,11.95384 24.16772,9.9503 6.38423,-1.35193 12.7527,-4.53428 16.27271,-10.25295 6.192,-9.88887 4.6141,-23.49466 -2.5154,-32.47989 -4.23353,-5.42451 -11.01079,-8.66901 -17.91073,-8.28548 z"
           inkscape:connector-curvature="0"
           id="path3747"
           style="fill:#070402;fill-opacity:1;fill-rule:evenodd;stroke:none;stroke-width:1;marker:none;visibility:visible;display:inline;overflow:visible;enable-background:accumulate" />
      </g>
      <g
         id="LeftEye">
        <path
           d="M 124.59225,72.375 C 88.997636,72.966907 57.637185,96.799345 38.82498,125.74075 25.555236,146.7484 16.668409,171.10631 15.465647,196.0202 c 0.249391,21.21401 4.9479,42.67518 14.129282,61.77591 14.028199,21.56591 35.554098,39.84389 61.111539,45.46573 21.122582,3.82527 43.698292,0.56293 62.086992,-10.88082 45.50499,-25.18652 69.55778,-79.09689 66.53551,-129.89716 -1.52115,-23.78838 -7.69362,-49.992 -27.6007,-65.238828 -17.07498,-13.483607 -38.27174,-21.805408 -59.77853,-24.508699 -2.44965,-0.173644 -4.90407,-0.2622 -7.35749,-0.361333 z"
           inkscape:connector-curvature="0"
           id="LeftEyeball"
           style="fill:url(#LeftWhite);fill-opacity:1;fill-rule:evenodd;stroke:none;stroke-width:1;marker:none;visibility:visible;display:inline;overflow:visible;enable-background:accumulate" />
        <path
           d="M 124.59225,72.375 C 88.997636,72.966907 57.637185,96.799345 38.82498,125.74075 25.555236,146.7484 16.668409,171.10631 15.465647,196.0202 c 0.249391,21.21401 4.9479,42.67518 14.129282,61.77591 14.028199,21.56591 35.554098,39.84389 61.111539,45.46573 21.122582,3.82527 43.698292,0.56293 62.086992,-10.88082 45.50499,-25.18652 69.55778,-79.09689 66.53551,-129.89716 -1.52115,-23.78838 -7.69362,-49.992 -27.6007,-65.238828 -17.07498,-13.483607 -38.27174,-21.805408 -59.77853,-24.508699 -2.44965,-0.173644 -4.90407,-0.2622 -7.35749,-0.361333 z"
           inkscape:connector-curvature="0"
           clip-path="url(#ClipLeftRelief)"
           id="LeftRelief"
           style="opacity:0.07999998;fill:#000000;fill-opacity:1;fill-rule:evenodd;stroke:none;stroke-width:1;marker:none;visibility:visible;display:inline;overflow:visible;enable-background:accumulate" />
        <path
           d="m 90.507095,153.18236 c -5.745992,-0.1256 -11.227545,2.31775 -15.960062,5.37289 -9.105939,6.39737 -12.432592,18.71139 -10.020154,29.25603 1.854516,9.0925 8.495879,17.43833 17.656787,19.88449 8.678159,2.58768 18.659974,0.33409 25.198424,-5.98216 6.74951,-5.22726 9.88982,-14.21456 8.65206,-22.5629 -1.45605,-10.9858 -8.87972,-21.64794 -19.705892,-25.04783 -1.886293,-0.57036 -3.850475,-0.88518 -5.821163,-0.92052 z"
           inkscape:connector-curvature="0"
           id="LeftPupil"
           style="fill:#070402;fill-opacity:1;fill-rule:evenodd;stroke:none;stroke-width:1;marker:none;visibility:visible;display:inline;overflow:visible;enable-background:accumulate" />
      </g>
    </g>
  </g>
</svg>
