<?xml version="1.0" encoding="UTF-8" standalone="no"?>
<!-- Created with Inkscape (http://www.inkscape.org/) -->

<svg
   xmlns:dc="http://purl.org/dc/elements/1.1/"
   xmlns:cc="http://creativecommons.org/ns#"
   xmlns:rdf="http://www.w3.org/1999/02/22-rdf-syntax-ns#"
   xmlns:svg="http://www.w3.org/2000/svg"
   xmlns="http://www.w3.org/2000/svg"
   xmlns:xlink="http://www.w3.org/1999/xlink"
   xmlns:inkscape="http://www.inkscape.org/namespaces/inkscape"
   version="1.0"
   width="96"
   height="96"
   id="svg2408">
  <defs
     id="defs2410">
    <linearGradient
       id="linearGradient3710">
      <stop
         id="stop3712"
         style="stop-color:#d9822e;stop-opacity:1"
         offset="0" />
      <stop
         id="stop3714"
         style="stop-color:#d9822e;stop-opacity:0"
         offset="1" />
    </linearGradient>
    <linearGradient
       x1="45.447727"
       y1="92.539597"
       x2="45.447727"
       y2="7.0165396"
       id="ButtonShadow"
       gradientUnits="userSpaceOnUse"
       gradientTransform="scale(1.0058652,0.994169)">
      <stop
         id="stop3750"
         style="stop-color:#000000;stop-opacity:1"
         offset="0" />
      <stop
         id="stop3752"
         style="stop-color:#000000;stop-opacity:0.58823532"
         offset="1" />
    </linearGradient>
    <linearGradient
       id="linearGradient3737">
      <stop
         id="stop3739"
         style="stop-color:#ffffff;stop-opacity:1"
         offset="0" />
      <stop
         id="stop3741"
         style="stop-color:#ffffff;stop-opacity:0"
         offset="1" />
    </linearGradient>
    <linearGradient
       id="linearGradient3700">
      <stop
         id="stop3702"
         style="stop-color:#344262;stop-opacity:1"
         offset="0" />
      <stop
         id="stop3704"
         style="stop-color:#4a5e8c;stop-opacity:1"
         offset="1" />
    </linearGradient>
    <filter
       color-interpolation-filters="sRGB"
       id="filter3174">
      <feGaussianBlur
         id="feGaussianBlur3176"
         stdDeviation="1.71" />
    </filter>
    <linearGradient
       x1="36.357143"
       y1="6"
       x2="36.357143"
       y2="63.893143"
       id="linearGradient3188"
       xlink:href="#linearGradient3737"
       gradientUnits="userSpaceOnUse" />
    <filter
       x="-0.192"
       y="-0.192"
       width="1.3839999"
       height="1.3839999"
       color-interpolation-filters="sRGB"
       id="filter3794">
      <feGaussianBlur
         id="feGaussianBlur3796"
         stdDeviation="5.28" />
    </filter>
    <linearGradient
       x1="48"
       y1="20.220806"
       x2="48"
       y2="138.66119"
       id="linearGradient3613"
       xlink:href="#linearGradient3737"
       gradientUnits="userSpaceOnUse" />
    <radialGradient
       cx="48"
       cy="90.171875"
       r="42"
       fx="48"
       fy="90.171875"
       id="radialGradient3619"
       xlink:href="#linearGradient3737"
       gradientUnits="userSpaceOnUse"
       gradientTransform="matrix(1.1573129,0,0,0.99590774,-7.5510206,0.19713193)" />
    <clipPath
       id="clipPath3613">
      <rect
         width="84"
         height="84"
         rx="6"
         ry="6"
         x="6"
         y="6"
         id="rect3615"
         style="fill:#ffffff;fill-opacity:1;fill-rule:nonzero;stroke:none" />
    </clipPath>
    <linearGradient
       x1="48"
       y1="90"
       x2="48"
       y2="5.9877172"
       id="linearGradient3617"
       xlink:href="#linearGradient3700"
       gradientUnits="userSpaceOnUse" />
    <linearGradient
       x1="45.447727"
       y1="92.539597"
       x2="45.447727"
       y2="7.0165396"
       id="ButtonShadow-0"
       gradientUnits="userSpaceOnUse"
       gradientTransform="matrix(1.0058652,0,0,0.994169,100,0)">
      <stop
         id="stop3750-8"
         style="stop-color:#000000;stop-opacity:1"
         offset="0" />
      <stop
         id="stop3752-5"
         style="stop-color:#000000;stop-opacity:0.58823532"
         offset="1" />
    </linearGradient>
    <linearGradient
       x1="32.251034"
       y1="6.1317081"
       x2="32.251034"
       y2="90.238609"
       id="linearGradient3780"
       xlink:href="#ButtonShadow-0"
       gradientUnits="userSpaceOnUse"
       gradientTransform="matrix(1.0238095,0,0,1.0119048,-1.1428571,-98.071429)" />
    <linearGradient
       x1="32.251034"
       y1="6.1317081"
       x2="32.251034"
       y2="90.238609"
       id="linearGradient3772"
       xlink:href="#ButtonShadow-0"
       gradientUnits="userSpaceOnUse"
       gradientTransform="matrix(1.0238095,0,0,1.0119048,-1.1428571,-98.071429)" />
    <linearGradient
       x1="32.251034"
       y1="6.1317081"
       x2="32.251034"
       y2="90.238609"
       id="linearGradient3725"
       xlink:href="#ButtonShadow-0"
       gradientUnits="userSpaceOnUse"
       gradientTransform="matrix(1.0238095,0,0,1.0119048,-1.1428571,-98.071429)" />
    <linearGradient
       x1="32.251034"
       y1="6.1317081"
       x2="32.251034"
       y2="90.238609"
       id="linearGradient3721"
       xlink:href="#ButtonShadow-0"
       gradientUnits="userSpaceOnUse"
       gradientTransform="translate(0,-97)" />
    <linearGradient
       x1="32.251034"
       y1="6.1317081"
       x2="32.251034"
       y2="90.238609"
       id="linearGradient3026"
       xlink:href="#ButtonShadow-0"
       gradientUnits="userSpaceOnUse"
       gradientTransform="matrix(1.0238095,0,0,1.0119048,-1.1428571,-98.071429)" />
    <linearGradient
       x1="56"
       y1="64"
       x2="16"
       y2="64"
       id="linearGradient3716"
       xlink:href="#linearGradient3710"
       gradientUnits="userSpaceOnUse" />
  </defs>
  <metadata
     id="metadata2413">
    <rdf:RDF>
      <cc:Work
         rdf:about="">
        <dc:format>image/svg+xml</dc:format>
        <dc:type
           rdf:resource="http://purl.org/dc/dcmitype/StillImage" />
        <dc:title />
      </cc:Work>
    </rdf:RDF>
  </metadata>
  <g
     id="layer2"
     style="display:none">
    <rect
       width="86"
       height="85"
       rx="6"
       ry="6"
       x="5"
       y="7"
       id="rect3745"
       style="opacity:0.9;fill:url(#ButtonShadow);fill-opacity:1;fill-rule:nonzero;stroke:none;filter:url(#filter3174)" />
  </g>
  <g
     id="layer3">
    <path
       d="m 12,-95.03125 c -5.5110903,0 -10.03125,4.52016 -10.03125,10.03125 l 0,71 c 0,5.5110902 4.5201598,10.03125 10.03125,10.03125 l 72,0 c 5.51109,0 10.03125,-4.5201597 10.03125,-10.03125 l 0,-71 c 0,-5.51109 -4.52016,-10.03125 -10.03125,-10.03125 l -72,0 z"
       transform="scale(1,-1)"
       id="path3786"
       style="opacity:0.07999998;fill:url(#linearGradient3026);fill-opacity:1;fill-rule:nonzero;stroke:none;display:inline" />
    <path
       d="m 12,-94.03125 c -4.971633,0 -9.03125,4.059617 -9.03125,9.03125 l 0,71 c 0,4.9716329 4.0596171,9.03125 9.03125,9.03125 l 72,0 c 4.971633,0 9.03125,-4.059617 9.03125,-9.03125 l 0,-71 c 0,-4.971633 -4.059617,-9.03125 -9.03125,-9.03125 l -72,0 z"
       transform="scale(1,-1)"
       id="path3778"
       style="opacity:0.1;fill:url(#linearGradient3780);fill-opacity:1;fill-rule:nonzero;stroke:none;display:inline" />
    <path
       d="m 12,-93 c -4.4091333,0 -8,3.590867 -8,8 l 0,71 c 0,4.4091333 3.5908667,8 8,8 l 72,0 c 4.409133,0 8,-3.5908667 8,-8 l 0,-71 c 0,-4.409133 -3.590867,-8 -8,-8 l -72,0 z"
       transform="scale(1,-1)"
       id="path3770"
       style="opacity:0.2;fill:url(#linearGradient3772);fill-opacity:1;fill-rule:nonzero;stroke:none;display:inline" />
    <rect
       width="86"
       height="85"
       rx="7"
       ry="7"
       x="5"
       y="-92"
       transform="scale(1,-1)"
       id="rect3723"
       style="opacity:0.3;fill:url(#linearGradient3725);fill-opacity:1;fill-rule:nonzero;stroke:none;display:inline" />
    <rect
       width="84"
       height="84"
       rx="6"
       ry="6"
       x="6"
       y="-91"
       transform="scale(1,-1)"
       id="rect3716"
       style="opacity:0.45;fill:url(#linearGradient3721);fill-opacity:1;fill-rule:nonzero;stroke:none;display:inline" />
  </g>
  <g
     id="layer1"
     style="display:inline">
    <rect
       width="84"
       height="84"
       rx="6"
       ry="6"
       x="6"
       y="6"
       id="rect2419"
       style="fill:url(#linearGradient3617);fill-opacity:1;fill-rule:nonzero;stroke:none" />
    <path
       d="M 12,6 C 8.676,6 6,8.676 6,12 l 0,2 0,68 0,2 c 0,0.334721 0.04135,0.6507 0.09375,0.96875 0.0487,0.295596 0.09704,0.596915 0.1875,0.875 0.00988,0.03038 0.020892,0.0636 0.03125,0.09375 0.098865,0.287771 0.2348802,0.547452 0.375,0.8125 0.1445918,0.273507 0.3156161,0.535615 0.5,0.78125 0.1843839,0.245635 0.3737765,0.473472 0.59375,0.6875 0.439947,0.428056 0.94291,0.814526 1.5,1.09375 0.278545,0.139612 0.5734731,0.246947 0.875,0.34375 -0.2562018,-0.100222 -0.4867109,-0.236272 -0.71875,-0.375 -0.00741,-0.0044 -0.023866,0.0045 -0.03125,0 -0.031933,-0.0193 -0.062293,-0.04251 -0.09375,-0.0625 -0.120395,-0.0767 -0.2310226,-0.163513 -0.34375,-0.25 -0.1061728,-0.0808 -0.2132809,-0.161112 -0.3125,-0.25 C 8.4783201,88.557317 8.3087904,88.373362 8.15625,88.1875 8.0486711,88.057245 7.9378561,87.922215 7.84375,87.78125 7.818661,87.74287 7.805304,87.69538 7.78125,87.65625 7.716487,87.553218 7.6510225,87.451733 7.59375,87.34375 7.4927417,87.149044 7.3880752,86.928049 7.3125,86.71875 7.30454,86.69694 7.288911,86.6782 7.28125,86.65625 7.2494249,86.5643 7.2454455,86.469419 7.21875,86.375 7.1884177,86.268382 7.1483606,86.171969 7.125,86.0625 7.0521214,85.720988 7,85.364295 7,85 L 7,83 7,15 7,13 C 7,10.218152 9.2181517,8 12,8 l 2,0 68,0 2,0 c 2.781848,0 5,2.218152 5,5 l 0,2 0,68 0,2 c 0,0.364295 -0.05212,0.720988 -0.125,1.0625 -0.04415,0.206893 -0.08838,0.397658 -0.15625,0.59375 -0.0077,0.02195 -0.0233,0.04069 -0.03125,0.0625 -0.06274,0.173739 -0.138383,0.367449 -0.21875,0.53125 -0.04158,0.0828 -0.07904,0.169954 -0.125,0.25 -0.0546,0.09721 -0.126774,0.18835 -0.1875,0.28125 -0.09411,0.140965 -0.204921,0.275995 -0.3125,0.40625 -0.143174,0.17445 -0.303141,0.346998 -0.46875,0.5 -0.01117,0.0102 -0.01998,0.02115 -0.03125,0.03125 -0.138386,0.125556 -0.285091,0.234436 -0.4375,0.34375 -0.102571,0.07315 -0.204318,0.153364 -0.3125,0.21875 -0.0074,0.0045 -0.02384,-0.0044 -0.03125,0 -0.232039,0.138728 -0.462548,0.274778 -0.71875,0.375 0.301527,-0.0968 0.596455,-0.204138 0.875,-0.34375 0.55709,-0.279224 1.060053,-0.665694 1.5,-1.09375 0.219973,-0.214028 0.409366,-0.441865 0.59375,-0.6875 0.184384,-0.245635 0.355408,-0.507743 0.5,-0.78125 0.14012,-0.265048 0.276135,-0.524729 0.375,-0.8125 0.01041,-0.03078 0.02133,-0.06274 0.03125,-0.09375 0.09046,-0.278085 0.1388,-0.579404 0.1875,-0.875 C 89.95865,84.6507 90,84.334721 90,84 l 0,-2 0,-68 0,-2 C 90,8.676 87.324,6 84,6 L 12,6 z"
       inkscape:connector-curvature="0"
       id="rect3728"
       style="opacity:0.35;fill:url(#linearGradient3188);fill-opacity:1;fill-rule:nonzero;stroke:none" />
    <path
       d="M 12,90 C 8.676,90 6,87.324 6,84 L 6,82 6,14 6,12 c 0,-0.334721 0.04135,-0.6507 0.09375,-0.96875 0.0487,-0.295596 0.09704,-0.596915 0.1875,-0.875 C 6.29113,10.12587 6.302142,10.09265 6.3125,10.0625 6.411365,9.774729 6.5473802,9.515048 6.6875,9.25 6.8320918,8.976493 7.0031161,8.714385 7.1875,8.46875 7.3718839,8.223115 7.5612765,7.995278 7.78125,7.78125 8.221197,7.353194 8.72416,6.966724 9.28125,6.6875 9.559795,6.547888 9.8547231,6.440553 10.15625,6.34375 9.9000482,6.443972 9.6695391,6.580022 9.4375,6.71875 c -0.00741,0.0044 -0.023866,-0.0045 -0.03125,0 -0.031933,0.0193 -0.062293,0.04251 -0.09375,0.0625 -0.120395,0.0767 -0.2310226,0.163513 -0.34375,0.25 -0.1061728,0.0808 -0.2132809,0.161112 -0.3125,0.25 C 8.4783201,7.442683 8.3087904,7.626638 8.15625,7.8125 8.0486711,7.942755 7.9378561,8.077785 7.84375,8.21875 7.818661,8.25713 7.805304,8.30462 7.78125,8.34375 7.716487,8.446782 7.6510225,8.548267 7.59375,8.65625 7.4927417,8.850956 7.3880752,9.071951 7.3125,9.28125 7.30454,9.30306 7.288911,9.3218 7.28125,9.34375 7.2494249,9.4357 7.2454455,9.530581 7.21875,9.625 7.1884177,9.731618 7.1483606,9.828031 7.125,9.9375 7.0521214,10.279012 7,10.635705 7,11 l 0,2 0,68 0,2 c 0,2.781848 2.2181517,5 5,5 l 2,0 68,0 2,0 c 2.781848,0 5,-2.218152 5,-5 l 0,-2 0,-68 0,-2 C 89,10.635705 88.94788,10.279012 88.875,9.9375 88.83085,9.730607 88.78662,9.539842 88.71875,9.34375 88.71105,9.3218 88.69545,9.30306 88.6875,9.28125 88.62476,9.107511 88.549117,8.913801 88.46875,8.75 88.42717,8.6672 88.38971,8.580046 88.34375,8.5 88.28915,8.40279 88.216976,8.31165 88.15625,8.21875 88.06214,8.077785 87.951329,7.942755 87.84375,7.8125 87.700576,7.63805 87.540609,7.465502 87.375,7.3125 87.36383,7.3023 87.35502,7.29135 87.34375,7.28125 87.205364,7.155694 87.058659,7.046814 86.90625,6.9375 86.803679,6.86435 86.701932,6.784136 86.59375,6.71875 c -0.0074,-0.0045 -0.02384,0.0044 -0.03125,0 -0.232039,-0.138728 -0.462548,-0.274778 -0.71875,-0.375 0.301527,0.0968 0.596455,0.204138 0.875,0.34375 0.55709,0.279224 1.060053,0.665694 1.5,1.09375 0.219973,0.214028 0.409366,0.441865 0.59375,0.6875 0.184384,0.245635 0.355408,0.507743 0.5,0.78125 0.14012,0.265048 0.276135,0.524729 0.375,0.8125 0.01041,0.03078 0.02133,0.06274 0.03125,0.09375 0.09046,0.278085 0.1388,0.579404 0.1875,0.875 C 89.95865,11.3493 90,11.665279 90,12 l 0,2 0,68 0,2 c 0,3.324 -2.676,6 -6,6 l -72,0 z"
       inkscape:connector-curvature="0"
       id="path3615"
       style="opacity:0.2;fill:url(#radialGradient3619);fill-opacity:1;fill-rule:nonzero;stroke:none" />
  </g>
  <g
     id="layer5"
     style="display:inline">
    <rect
       width="66"
       height="66"
       rx="12"
       ry="12"
       x="15"
       y="15"
       clip-path="url(#clipPath3613)"
       id="rect3171"
       style="opacity:0.1;fill:url(#linearGradient3613);fill-opacity:1;fill-rule:nonzero;stroke:#ffffff;stroke-width:0.5;stroke-linecap:round;stroke-linejoin:miter;stroke-miterlimit:4;stroke-opacity:1;stroke-dasharray:none;stroke-dashoffset:0;filter:url(#filter3794)" />
  </g>
  <g
     id="layer4">
    <path
       d="m 33.71875,36.25 c -0.97133,0.154454 -1.70708,0.911338 -2,1.59375 -0.29292,0.682412 -0.344145,1.328506 -0.4375,1.8125 -0.09335,0.483994 -0.235624,0.697055 -0.1875,0.65625 0.04812,-0.0408 0.06002,0.09237 -0.625,-0.15625 a 1.074027,1.074027 0 0 0 -0.28125,-0.0625 c -2.694294,-0.214485 -5.141593,0.951943 -7.125,2.5625 C 22.064802,41.514986 20.816577,40.715058 19.46875,40.375 17.914818,39.982942 16.320006,40.030366 14.875,40.09375 14.747085,40.099361 14.593838,40.055863 14.46875,40.0625 13.556722,39.85717 12.667159,39.909517 12,40.34375 c -0.766266,0.498738 -1.142375,1.316122 -1.25,2.125 -0.21525,1.617756 0.552929,3.480625 2.34375,4.21875 A 1.074027,1.074027 0 0 0 13.375,46.75 c 1.286681,0.158606 2.919564,0.298922 3.875,0.71875 0.477718,0.209914 0.729942,0.443509 0.84375,0.6875 0.113808,0.243991 0.192477,0.623688 -0.09375,1.40625 a 1.074027,1.074027 0 0 0 -0.03125,0.09375 c -0.222149,0.773122 -0.54854,1.144684 -0.96875,1.4375 -0.42021,0.292816 -0.974787,0.459871 -1.6875,0.59375 -1.425425,0.267758 -3.334396,0.244065 -5,1.25 A 1.074027,1.074027 0 0 0 10.21875,53 C 9.6261962,53.462955 8.8796046,54.159077 8.375,55.0625 8.1226977,55.514211 7.921288,56.029672 7.90625,56.625 c -0.015038,0.595328 0.2314874,1.250548 0.6875,1.75 a 1.074027,1.074027 0 0 0 0.375,0.28125 c 1.713642,0.709317 3.320672,0.187507 4.3125,0.3125 a 1.074027,1.074027 0 0 0 0.03125,0 c 2.79644,0.221085 5.467845,-0.829413 7.625,-2.53125 2.05653,2.275483 5.248955,2.742629 7.9375,2.53125 a 1.074027,1.074027 0 0 0 0.09375,0 c 0.236455,-0.03971 0.807854,0.03149 1.5,0.0625 0.692146,0.03101 1.687238,-0.05972 2.375,-0.84375 A 1.074027,1.074027 0 0 0 33,57.9375 c 0.12833,-0.267982 0.06133,-0.53975 0.125,-0.8125 3.133823,2.456817 7.520287,2.373681 10.78125,0.25 0.29206,0.687197 0.867224,1.204561 1.5,1.4375 1.316711,0.484712 2.874658,0.05875 3.96875,-1.125 l 0.03125,0.0625 c 0.05569,-0.04532 0.07211,-0.109749 0.125,-0.15625 1.681108,-1.478169 1.994794,-3.52063 2.1875,-5.25 0.198769,-1.783773 0.348084,-3.253933 1.3125,-4.28125 a 1.074027,1.074027 0 0 0 0.09375,-0.125 c 0.633055,-0.882831 1.75626,-1.038612 2.65625,-0.6875 0.449995,0.175556 0.777352,0.471635 0.96875,0.8125 0.191398,0.340865 0.277483,0.739318 0.09375,1.34375 a 1.074027,1.074027 0 0 0 -0.03125,0.25 c -0.0618,1.07111 -0.492498,2.563459 -0.5625,4.125 -0.06826,1.522639 0.369072,3.305945 1.9375,4.40625 0.0059,0.0042 0.02527,-0.0042 0.03125,0 0.03431,0.02383 0.02708,0.07057 0.0625,0.09375 L 58.3125,58.25 c 1.199298,0.952605 2.733858,1.03174 3.75,0.28125 0.930521,-0.687253 1.324953,-1.891908 1.21875,-3.15625 0.0027,-0.01073 -0.0026,-0.02053 0,-0.03125 0.682459,-2.77378 0.366431,-5.446521 1.59375,-7.125 a 1.074027,1.074027 0 0 0 0.03125,-0.0625 c 0.519186,-0.863579 1.714387,-1.192624 2.6875,-0.96875 0.486556,0.111937 0.864101,0.327596 1.09375,0.625 0.229649,0.297404 0.356726,0.656717 0.25,1.28125 a 1.074027,1.074027 0 0 0 0,0.15625 c -0.03052,1.061459 -0.439461,2.466561 -0.59375,3.96875 -0.150904,1.469227 0.04,3.194052 1.34375,4.5 0.02925,0.0293 0.03212,0.06488 0.0625,0.09375 l 0.03125,-0.03125 c 0.924939,1.027944 2.258629,1.428926 3.46875,1.125 0.622578,-0.156363 1.239881,-0.523041 1.625,-1.125 0.01695,-0.02649 0.01534,-0.06657 0.03125,-0.09375 1.136807,0.723021 2.368516,1.219431 3.625,1.34375 1.867431,0.184767 3.722878,-0.03082 5.25,0 a 1.074027,1.074027 0 0 0 0.5,-0.09375 c 0.940602,-0.474994 1.558842,-1.384422 1.65625,-2.28125 0.09741,-0.896828 -0.201073,-1.746436 -0.65625,-2.46875 -0.910353,-1.444629 -2.601426,-2.634399 -4.5,-2.15625 a 1.074027,1.074027 0 0 0 -0.03125,0 c -1.106751,0.301525 -1.919527,-0.201127 -2.375,-1 -0.455473,-0.798873 -0.479634,-1.756229 0.34375,-2.5625 A 1.074027,1.074027 0 0 0 78.875,48.25 c 0.57075,-0.925879 1.300692,-1.029659 2.53125,-1.125 1.230558,-0.09534 2.845508,-0.0042 4.28125,-1.03125 0.652206,-0.473771 1.372831,-1.191256 1.875,-2.09375 0.502169,-0.902494 0.762516,-2.213104 0,-3.28125 A 1.074027,1.074027 0 0 0 87.25,40.4375 c -0.804306,-0.483926 -1.66935,-0.500647 -2.34375,-0.46875 -0.6744,0.0319 -1.228173,0.08499 -1.59375,0.03125 a 1.074027,1.074027 0 0 0 -0.03125,0 c -3.303482,-0.350215 -6.590793,0.850216 -8.9375,3.1875 -1.331097,-1.794452 -3.330996,-2.842609 -5.4375,-3.125 -2.556978,-0.342781 -5.270975,0.322422 -7.3125,1.9375 a 1.074027,1.074027 0 0 0 -0.0625,0.03125 c -0.163715,0.143221 -0.01981,0.09607 -0.21875,0.03125 -0.198942,-0.06482 -0.621524,-0.314314 -1.09375,-0.65625 -0.472226,-0.341936 -1.017331,-0.745216 -1.6875,-1.0625 -0.565237,-0.267605 -1.293898,-0.320655 -2.03125,-0.25 L 56.5,40 c -0.126301,-0.01329 -0.249028,0.03937 -0.375,0.03125 -3.217898,-0.207395 -6.256637,1.250592 -8.375,3.5625 -1.90072,-2.729184 -5.326994,-3.914938 -8.46875,-3.65625 A 1.074027,1.074027 0 0 0 39.03125,40 c -0.601631,0.211869 -0.694955,0.120303 -0.6875,0.125 0.0075,0.0047 -0.125053,-0.163289 -0.28125,-0.5625 C 37.906303,39.163289 37.743652,38.592368 37.375,38 c -0.344892,-0.55419 -0.94503,-1.100102 -1.75,-1.375 -0.0189,-0.0086 -0.04349,0.0083 -0.0625,0 -0.03751,-0.01204 -0.05531,-0.05175 -0.09375,-0.0625 l 0,0.03125 C 34.957303,36.385285 34.425433,36.249267 33.875,36.25 a 1.074027,1.074027 0 0 0 -0.15625,0 z m -3.4375,10.78125 c -0.287659,1.486067 -0.500278,3.070999 -0.3125,4.6875 0.01586,0.136545 0.0721,0.269743 0.09375,0.40625 -0.575286,-0.161077 -1.14913,-0.332371 -1.78125,-0.21875 A 1.074027,1.074027 0 0 0 28.1875,51.9375 c -1.150704,0.304067 -1.741661,-0.191213 -2.09375,-0.96875 -0.352089,-0.777537 -0.303118,-1.773532 0.5,-2.46875 a 1.074027,1.074027 0 0 0 0.21875,-0.25 c 0.174943,-0.279109 1.352843,-0.988981 2.375,-1.1875 0.483473,-0.0939 0.897181,-0.0732 1.09375,-0.03125 z m 7.3125,0 c 0.693495,-0.004 1.427126,-0.0038 2,0 0.839102,0.0056 1.41794,0.113519 1.90625,0.5 1.70683,1.957307 -1.238535,5.346567 -3.46875,4.1875 -0.383655,-0.240332 -0.573078,-0.477059 -0.6875,-0.78125 -0.119273,-0.317085 -0.162117,-0.762062 -0.125,-1.28125 0.05373,-0.751529 0.230827,-1.694996 0.375,-2.625 z"
       id="path3736"
       style="opacity:0.05;fill:#000000;fill-opacity:1" />
    <path
       d="m 33.875,37.3125 c -2.496429,0.396963 -0.360578,5.093652 -3.780965,3.852265 -2.692906,-0.214374 -5.281822,1.031193 -7.187785,2.866485 -1.700651,-2.931003 -5.377447,-3.062887 -8.375457,-2.903822 -3.376196,-1.094703 -3.557835,3.502527 -1.023352,4.547168 2.451445,0.302184 6.892131,0.436393 5.492559,4.262904 -1.116537,3.885765 -5.516321,2.347048 -8.121446,3.920403 -1.0057968,0.785817 -2.6268598,2.561837 -1.4940536,3.802554 1.2406016,0.513515 2.7170116,0.0828 4.0351736,0.248918 2.84346,0.224802 5.661426,-0.885845 7.705326,-2.846875 1.660201,2.57677 4.845493,3.06711 7.661397,2.845718 1.049781,-0.176312 2.452905,0.477521 3.248723,-0.429693 1.057509,-2.208313 -1.175643,-4.930956 -3.566324,-4.50124 -3.21664,0.849978 -4.914913,-3.255932 -2.573294,-5.282951 0.99774,-1.591819 5.421072,-2.61151 5.479498,-0.913084 -0.648837,3.076332 -0.850879,6.770269 1.6875,9.09375 3.238243,3.233434 9.121402,2.650968 12.03125,-0.71875 -1.407405,2.80652 2.022204,3.653485 3.625,1.75 2.966799,-2.414136 1.004592,-6.907244 3.531107,-9.598543 1.888527,-2.633657 6.667878,-0.965618 5.636868,2.426133 -0.144874,2.510844 -1.63827,5.898119 1.003021,7.626087 1.866252,1.60962 3.812495,-0.06339 3.370901,-2.239884 0.617325,-2.480789 0.191967,-5.374589 1.75404,-7.510877 1.599261,-2.660102 6.573344,-1.847573 5.974458,1.656965 -0.07335,2.550865 -1.684452,5.682224 0.50521,7.762727 1.295112,1.53388 4.120668,1.12851 3.661895,-1.216358 2.321709,2.887195 6.408366,2.090694 9.65625,2.15625 2.687692,-1.357255 -0.271929,-5.540318 -2.79371,-4.905216 -3.145541,0.856975 -5.388976,-3.101585 -3.054252,-5.387784 1.600262,-2.595969 4.941202,-0.92541 7.083103,-2.45766 1.069283,-0.776741 2.598695,-2.537345 1.643697,-3.875124 C 85.656003,40.720037 84.303072,41.230558 83.146957,41.060602 79.719958,40.697292 76.24313,42.107934 74.15625,44.875 72.071865,40.427744 65.828082,40.022936 62.263808,42.842681 60.615281,44.284843 58.793824,40.505093 56.377101,41.064919 52.965174,40.705753 49.553786,42.547031 47.625,45.3125 46.294952,42.092184 42.652007,40.736273 39.376041,41.006012 36.321285,42.081768 37.682158,38.300216 35.173805,37.598625 34.76719,37.414294 34.322094,37.311905 33.875,37.3125 z m 2.8125,8.65625 c 1.850628,0.21781 4.01819,-0.502248 5.549458,0.790987 2.628277,2.813064 -1.4485,7.691153 -4.75009,5.909141 C 35.066755,51.219786 36.589083,48.149234 36.6875,45.96875 z"
       inkscape:connector-curvature="0"
       id="path3730"
       style="opacity:0.1;fill:#000000;fill-opacity:1" />
    <path
       d="m 33.875,38.3125 c -0.205446,0 -0.230222,0.03412 -0.25,0.125 -0.0124,0.05696 -0.140937,0.902082 -0.28125,1.875 -0.140316,0.972917 -0.266855,1.766811 -0.28125,1.78125 -0.01438,0.01444 -1.030528,0.04737 -2.25,0.0625 -2.169003,0.02691 -2.237764,0.0069 -2.78125,0.125 -1.757434,0.38197 -3.251411,1.256689 -4.71875,2.6875 l -0.53125,0.5 L 22.6875,45.3125 C 22.143184,44.433573 21.752058,43.966633 21.1875,43.5 20.344847,42.80351 19.4162,42.394225 18.25,42.21875 17.883739,42.16364 17.264289,42.12522 15.28125,42.125 c -2.230294,-2.3e-4 -2.474997,0.02861 -2.5,0.09375 -0.05217,0.135933 -0.03386,0.849061 0.03125,1.09375 0.190732,0.716501 0.718675,1.314394 1.4375,1.59375 0.241603,0.09389 0.361968,0.09398 1.5625,0.125 1.433947,0.03706 1.747316,0.106836 2.3125,0.34375 0.927264,0.388693 1.733295,1.298502 2,2.34375 0.176432,0.691437 0.08586,1.72754 -0.1875,2.53125 -0.571144,1.679234 -2.122208,3.104858 -3.84375,3.5625 -0.400885,0.106569 -0.546542,0.123904 -1.8125,0.15625 -1.460399,0.03731 -1.620459,0.07555 -2.15625,0.3125 -0.568846,0.251572 -1.213294,0.770979 -1.59375,1.3125 -0.244209,0.347601 -0.512146,0.886433 -0.53125,1.125 l 0,0.15625 2.25,0.03125 c 2.352276,0.01413 2.980663,-0.02484 3.78125,-0.1875 1.678309,-0.341001 3.312979,-1.241449 4.75,-2.65625 0.251642,-0.247748 0.462614,-0.46875 0.46875,-0.46875 0.0061,0 0.09677,0.169474 0.21875,0.375 0.736694,1.241301 1.870161,2.147773 3.21875,2.59375 0.915092,0.302621 1.067105,0.323677 3.9375,0.34375 l 2.5625,0.03125 0.0625,-0.125 c 0.06824,-0.17949 0.04732,-0.760953 -0.03125,-1.0625 -0.204993,-0.787028 -0.776424,-1.412588 -1.53125,-1.65625 -0.271649,-0.08769 -0.451188,-0.09457 -1.65625,-0.125 -1.532146,-0.03869 -1.744185,-0.0618 -2.40625,-0.40625 -1.088422,-0.56626 -1.842088,-1.849057 -1.84375,-3.125 -7.58e-4,-0.667441 0.228202,-1.613383 0.53125,-2.21875 0.542575,-1.083852 1.632786,-2.157335 2.75,-2.6875 0.787361,-0.373634 1.495182,-0.499936 3.03125,-0.5 0.735098,-3.3e-5 0.971948,-0.02251 1.25,-0.09375 0.419545,-0.107485 0.770522,-0.249079 1.09375,-0.46875 0.135456,-0.09206 0.271135,-0.15625 0.28125,-0.15625 0.04825,0 -0.02482,0.445704 -0.34375,2.625 -0.444116,3.034729 -0.439162,3.02318 -0.4375,3.78125 0.0038,1.728875 0.582467,3.172901 1.84375,4.4375 0.71327,0.715148 1.424002,1.144278 2.34375,1.46875 0.36378,0.128337 1.147642,0.300067 1.5625,0.34375 0.358165,0.03771 1.352421,0.04428 1.71875,0 1.670853,-0.201974 3.097722,-0.820638 4.5,-1.9375 1.051084,-0.837148 1.890767,-1.820748 2.5,-2.96875 0.103429,-0.194894 0.20225,-0.330349 0.21875,-0.34375 -0.04533,0.215044 -0.07336,0.478651 -0.125,0.8125 -0.08963,0.617341 -0.240608,1.631335 -0.46875,3.1875 -0.116861,0.7971 -0.156055,1.199556 -0.125,1.21875 0.08031,0.04963 0.460796,0.03192 0.8125,-0.0625 0.270794,-0.0727 0.503314,-0.208366 0.75,-0.34375 0.086,-0.04719 0.167836,-0.10233 0.25,-0.15625 0.03563,-0.02338 0.09016,-0.03793 0.125,-0.0625 0.0808,-0.05701 0.142504,-0.124357 0.21875,-0.1875 0.529038,-0.438133 0.937306,-1.012278 1.15625,-1.65625 0.01373,-0.04027 0.05032,-0.05302 0.0625,-0.09375 0.0071,-0.02376 0.01922,-0.190959 0.03125,-0.25 0.01518,-0.07332 0.04078,-0.192808 0.0625,-0.3125 0.03802,-0.209665 0.07369,-0.404107 0.125,-0.71875 0.07151,-0.438434 0.141131,-0.905617 0.21875,-1.4375 0.190805,-1.307441 0.386307,-2.551087 0.4375,-2.75 0.05119,-0.198913 0.206746,-0.562011 0.34375,-0.84375 0.69649,-1.432305 2.028772,-2.549139 3.5,-2.9375 0.317465,-0.0838 0.502907,-0.09229 1.15625,-0.09375 0.907091,-0.002 1.232621,0.07378 1.875,0.40625 0.741786,0.383926 1.476937,1.257315 1.75,2.09375 0.296184,0.907277 0.2973,1.173208 -0.125,4.0625 -0.365395,2.499978 -0.409035,2.978149 -0.28125,3.46875 0.201427,0.773329 0.861898,1.464486 1.625,1.75 0.261377,0.0978 0.862013,0.202903 0.9375,0.15625 0.02447,-0.01513 0.288422,-1.724613 0.59375,-3.8125 0.540059,-3.692992 0.621362,-4.265072 0.8125,-4.75 0.542115,-1.37536 1.846752,-2.621201 3.21875,-3.125 0.590388,-0.21679 0.816775,-0.24832 1.625,-0.25 0.915253,-0.0019 1.15163,0.01917 1.8125,0.34375 0.697639,0.342632 1.289189,1.004104 1.65625,1.78125 0.27276,0.577479 0.345294,0.857225 0.34375,1.6875 -0.0012,0.676024 -0.03559,0.919556 -0.34375,2.96875 -0.381798,2.538741 -0.405883,2.848935 -0.1875,3.4375 0.289836,0.78115 1.006242,1.426643 1.78125,1.625 0.292651,0.0749 0.673718,0.107541 0.71875,0.0625 0.0148,-0.01481 0.12527,-0.705505 0.25,-1.5625 0.252142,-1.732452 0.284775,-1.78125 0.34375,-1.78125 0.02296,0 0.07676,0.111072 0.15625,0.25 0.372673,0.651371 1.165664,1.540013 1.8125,2 0.706412,0.502355 1.634366,0.857329 2.5625,1.03125 0.461009,0.08639 0.734189,0.105096 3.03125,0.125 1.387611,0.01202 2.563217,-0.0157 2.625,-0.03125 0.108473,-0.02722 0.09484,-0.01817 0.09375,-0.40625 -7.59e-4,-0.221041 -0.0051,-0.511779 -0.03125,-0.625 -0.142061,-0.616507 -0.673881,-1.259757 -1.25,-1.5625 -0.485835,-0.255299 -0.768266,-0.311579 -1.96875,-0.3125 -1.099905,-8.35e-4 -1.581396,-0.03803 -2.125,-0.21875 -0.853646,-0.283797 -1.713496,-1.100736 -2.125,-2 -0.606419,-1.325199 -0.387103,-3.038459 0.5625,-4.46875 0.283826,-0.427503 1.013704,-1.188252 1.46875,-1.5 0.450663,-0.308744 1.035496,-0.563065 1.5625,-0.71875 C 80.329538,45.040436 80.421425,45.034402 81.75,45 c 1.518399,-0.03932 1.6957,-0.08573 2.25,-0.34375 0.609642,-0.28378 1.263222,-0.88077 1.59375,-1.4375 0.180526,-0.304077 0.383663,-0.771476 0.40625,-1 l 0,-0.15625 -2.40625,0 c -2.490346,-0.01401 -2.938735,0.01331 -3.75,0.1875 -2.128137,0.456976 -4.24533,1.947339 -5.5625,3.90625 -0.321991,0.478871 -0.329491,0.484707 -0.5,0 -0.487619,-1.386201 -1.699126,-2.757065 -3.0625,-3.4375 -0.879622,-0.439002 -1.916541,-0.65087 -3,-0.65625 -0.650076,-0.0033 -1.328679,0.05819 -1.96875,0.21875 -1.53161,0.38419 -2.941618,1.192327 -4.125,2.3125 -0.214733,0.203264 -0.423348,0.34375 -0.4375,0.34375 -0.01416,0 -0.111,-0.128953 -0.25,-0.3125 C 60.600416,44.179888 59.983602,43.572119 59.53125,43.25 58.804716,42.732633 57.778908,42.323647 56.875,42.15625 56.332793,42.055835 54.865678,42.034018 54.34375,42.125 c -1.891292,0.329684 -3.492629,1.186134 -4.9375,2.625 -0.205892,0.205037 -0.388064,0.419404 -0.5625,0.625 -0.0092,0.01075 -0.02213,0.02047 -0.03125,0.03125 -0.0095,0.0113 -0.02184,0.01993 -0.03125,0.03125 -0.06634,0.07986 -0.125144,0.167824 -0.1875,0.25 -0.08072,0.104866 -0.174867,0.20428 -0.25,0.3125 -0.01284,0.01848 -0.0185,0.04394 -0.03125,0.0625 -0.284412,0.417101 -0.544246,0.859973 -0.78125,1.375 -0.05109,0.111099 -0.105887,0.225774 -0.15625,0.34375 l -0.03125,0.15625 -0.03125,0.03125 -0.09375,-0.5625 c -0.176974,-1.189664 -0.635519,-2.177591 -1.4375,-3.125 C 45.06757,43.438153 44.152951,42.800141 43.125,42.4375 42.111436,42.079932 41.387152,42.002147 38.3125,42 L 36.25,42 36.28125,41.75 C 36.44614,40.460556 36.256209,39.790803 35.5625,39.09375 35.058417,38.587248 34.472611,38.3125 33.875,38.3125 z M 35.84375,44.96875 38.40625,45 c 2.871267,0.01959 2.843066,0.01315 3.59375,0.375 1.406148,0.677789 2.249502,2.259052 2.0625,3.875 -0.141029,1.218689 -0.626658,2.253558 -1.4375,3.09375 -0.850229,0.881009 -1.689933,1.381842 -2.6875,1.59375 -0.491833,0.104479 -1.463283,0.09446 -1.9375,0 -1.411718,-0.281197 -2.576157,-1.493063 -2.84375,-2.96875 -0.107608,-0.593419 -0.06154,-1.128957 0.28125,-3.5 0.180639,-1.249488 0.350912,-2.316661 0.375,-2.375 l 0.03125,-0.125 z"
       inkscape:connector-curvature="0"
       id="path3723"
       style="opacity:0.3;fill:#000000;fill-opacity:1" />
    <path
       d="m 67.705486,41.055105 c -0.650076,-0.0033 -1.316248,0.07657 -1.956319,0.23713 -1.53161,0.38419 -2.954529,1.168127 -4.137911,2.2883 -0.214733,0.203264 -0.400825,0.36755 -0.414977,0.36755 -0.01416,0 -0.133699,-0.148434 -0.272699,-0.331981 -0.337084,-0.445112 -0.934856,-1.029519 -1.387208,-1.351638 -0.726534,-0.517367 -1.751943,-0.947113 -2.655851,-1.11451 -0.542207,-0.100415 -2.003502,-0.102832 -2.52543,-0.01185 -1.891292,0.329684 -3.511137,1.181416 -4.956008,2.620282 -0.823568,0.820149 -1.366344,1.603625 -1.861467,2.679564 -0.206728,0.47492 -0.2102,0.481055 -0.260843,1.233074 -0.07129,1.058843 -0.190773,1.676661 -0.509828,2.561 -0.0795,0.220371 -0.169424,0.636514 -0.272699,1.304211 -0.08963,0.617341 -0.234261,1.621372 -0.462403,3.177537 -0.116861,0.7971 -0.161476,1.21388 -0.130421,1.233074 0.08031,0.04963 0.454537,0.01142 0.806241,-0.083 0.270794,-0.0727 0.523984,-0.184741 0.77067,-0.320125 0.086,-0.04719 0.166823,-0.100214 0.248987,-0.154134 0.03563,-0.02338 0.07187,-0.04656 0.106708,-0.07113 0.0808,-0.05701 0.160884,-0.114704 0.23713,-0.177847 0.529038,-0.438133 0.94299,-1.015936 1.161934,-1.659908 0.03058,-0.102421 0.06355,-0.222345 0.09485,-0.367551 0.01518,-0.07332 0.03756,-0.188576 0.05928,-0.308268 0.03802,-0.209665 0.06725,-0.384889 0.118564,-0.699532 0.07151,-0.438434 0.147654,-0.914607 0.225273,-1.44649 0.190805,-1.307441 0.387497,-2.539934 0.43869,-2.738847 0.05119,-0.198913 0.206834,-0.583784 0.343838,-0.865523 0.69649,-1.432305 2.014577,-2.540189 3.485805,-2.92855 0.317465,-0.0838 0.508591,-0.105249 1.161934,-0.106708 0.907091,-0.002 1.242802,0.07065 1.885181,0.40312 0.741786,0.383926 1.469839,1.262161 1.742902,2.098596 0.296184,0.907277 0.291878,1.177481 -0.130422,4.066773 -0.365395,2.499978 -0.400483,2.97149 -0.272698,3.462091 0.201427,0.773329 0.849379,1.481102 1.612481,1.766616 0.261377,0.0978 0.861174,0.18893 0.936661,0.142277 0.02447,-0.01513 0.287497,-1.729899 0.592825,-3.817786 0.540059,-3.692992 0.638816,-4.257663 0.829954,-4.742591 0.542115,-1.37536 1.817394,-2.626312 3.189392,-3.130111 0.590388,-0.21679 0.816112,-0.247305 1.624337,-0.248985 0.915253,-0.0019 1.153171,0.04297 1.814041,0.367551 0.697639,0.342632 1.316559,1.001326 1.68362,1.778472 0.27276,0.577479 0.32167,0.841487 0.320126,1.671762 -0.0012,0.676024 -0.02382,0.914926 -0.331982,2.96412 -0.381798,2.538741 -0.39623,2.873527 -0.177847,3.462092 0.289836,0.78115 0.979751,1.42598 1.754759,1.624337 0.292651,0.0749 0.701926,0.104321 0.746958,0.05928 0.0148,-0.01481 0.124256,-0.719917 0.248986,-1.576912 0.252142,-1.732452 0.261149,-1.766615 0.320124,-1.766615 0.02296,0 0.09836,0.110058 0.177848,0.248986 0.372673,0.651371 1.167205,1.520045 1.814041,1.980032 0.706412,0.502355 1.609153,0.869449 2.537287,1.04337 0.461009,0.08639 0.738197,0.09866 3.035258,0.118564 1.387611,0.01202 2.570355,0.0037 2.632138,-0.01185 0.108473,-0.02722 0.107794,-0.03875 0.106708,-0.426832 -7.59e-4,-0.221041 -0.02132,-0.49146 -0.04743,-0.604681 -0.142061,-0.616507 -0.656954,-1.286025 -1.233073,-1.588768 -0.485835,-0.255299 -0.791405,-0.295491 -1.991889,-0.296412 -1.099905,-8.35e-4 -1.578706,-0.05641 -2.12231,-0.23713 -0.853646,-0.283797 -1.710804,-1.080768 -2.122308,-1.980032 -0.606419,-1.325199 -0.392349,-3.039601 0.557254,-4.469892 0.283826,-0.427503 1.03887,-1.182168 1.493916,-1.493916 0.450663,-0.308744 1.014338,-0.579417 1.541342,-0.735102 0.392038,-0.115814 0.485467,-0.119732 1.814042,-0.154134 1.518399,-0.03932 1.698431,-0.07396 2.252731,-0.331982 0.609642,-0.28378 1.281952,-0.877904 1.61248,-1.434634 0.180526,-0.304077 0.356821,-0.76742 0.379408,-0.995944 l 0.01183,-0.165991 -2.395008,-0.01185 c -2.490346,-0.01401 -2.935383,0.01551 -3.746648,0.189704 -2.128137,0.456976 -4.255375,1.94187 -5.572545,3.900781 -0.321991,0.478871 -0.339319,0.484707 -0.509828,0 -0.487619,-1.386201 -1.695592,-2.734236 -3.058966,-3.414671 -0.879622,-0.439002 -1.928086,-0.670439 -3.011545,-0.675819 z"
       inkscape:connector-curvature="0"
       id="path3672"
       style="fill:#bdd1e3;fill-opacity:1" />
    <path
       d="m 33.878953,37.320314 c -0.205446,0 -0.241064,0.01583 -0.260842,0.106708 -0.0124,0.05696 -0.132387,0.900406 -0.2727,1.873324 -0.140316,0.972917 -0.270161,1.775889 -0.284556,1.790328 -0.01438,0.01444 -1.021402,0.04415 -2.240874,0.05928 -2.169003,0.02691 -2.23093,0.02415 -2.774416,0.142278 -1.757434,0.38197 -3.275252,1.236896 -4.742591,2.667707 l -0.521686,0.497972 -0.083,-0.130421 c -0.544316,-0.878927 -0.953071,-1.371121 -1.517629,-1.837754 -0.842653,-0.69649 -1.774207,-1.105024 -2.940407,-1.280499 -0.366261,-0.05511 -0.969223,-0.07092 -2.952262,-0.07114 -2.230294,-2.3e-4 -2.488571,0.006 -2.513574,0.07114 -0.05217,0.135933 -0.02956,0.86982 0.03555,1.114509 0.190732,0.716501 0.727665,1.297555 1.44649,1.576911 0.241603,0.09389 0.364524,0.111254 1.565056,0.142279 1.433947,0.03706 1.746829,0.08321 2.312013,0.320124 0.927264,0.388693 1.713327,1.326048 1.980032,2.371296 0.176432,0.691437 0.107368,1.698007 -0.165991,2.501717 -0.571144,1.679234 -2.119957,3.123014 -3.841499,3.580656 -0.400885,0.106569 -0.55994,0.121788 -1.825898,0.154134 -1.460399,0.03731 -1.622087,0.05946 -2.157878,0.296412 -0.568846,0.251572 -1.208314,0.786405 -1.58877,1.327926 -0.244209,0.347601 -0.502581,0.899655 -0.521685,1.138222 l -0.01183,0.154134 2.264587,0.02372 c 2.352276,0.01413 2.957917,-0.01519 3.758504,-0.177847 1.678309,-0.341001 3.317427,-1.264763 4.754448,-2.679564 0.251642,-0.247748 0.456267,-0.450546 0.462403,-0.450546 0.0061,0 0.11515,0.162025 0.23713,0.367551 0.736694,1.241301 1.85266,2.150592 3.201249,2.596569 0.915092,0.302621 1.065956,0.311908 3.936351,0.331981 l 2.584711,0.02371 0.04743,-0.118565 c 0.06824,-0.17949 0.05485,-0.75368 -0.02372,-1.055227 -0.204993,-0.787028 -0.774659,-1.404388 -1.529485,-1.64805 -0.271649,-0.08769 -0.466702,-0.09999 -1.671764,-0.130422 -1.532146,-0.03869 -1.732943,-0.07053 -2.395008,-0.414976 -1.088422,-0.56626 -1.836093,-1.830454 -1.837755,-3.106397 -7.58e-4,-0.667441 0.230494,-1.635508 0.533542,-2.240875 0.542575,-1.083852 1.633489,-2.149399 2.750703,-2.679564 0.787361,-0.373634 1.487334,-0.486051 3.023402,-0.486115 0.735098,-3.3e-5 0.966878,-0.02361 1.24493,-0.09485 0.419545,-0.107485 0.767568,-0.254588 1.090796,-0.474259 0.135456,-0.09206 0.262584,-0.16599 0.272699,-0.16599 0.04825,0 -0.01305,0.440985 -0.331981,2.620281 -0.444116,3.034729 -0.440352,3.036003 -0.43869,3.794073 0.0038,1.728875 0.600184,3.157868 1.861467,4.422467 0.71327,0.715148 1.415978,1.169444 2.335726,1.493916 0.36378,0.128337 1.150197,0.288298 1.565055,0.331981 0.358165,0.03771 1.329148,0.03243 1.695477,-0.01185 1.670853,-0.201974 3.11504,-0.815744 4.517318,-1.932606 1.051084,-0.837148 1.880628,-1.827974 2.489861,-2.975976 0.110286,-0.207815 0.206678,-0.374291 0.213416,-0.36755 -0.232793,1.319573 -0.01131,0.340701 0.154135,-0.450546 0.319055,-0.884339 0.438533,-1.502158 0.509828,-2.561 l 0.02371,-0.711389 -0.083,-0.557254 c -0.176974,-1.189664 -0.632653,-2.182702 -1.434634,-3.130111 -0.71368,-0.843097 -1.639756,-1.486969 -2.667707,-1.84961 -1.013564,-0.357568 -1.727221,-0.41283 -4.801873,-0.414977 l -2.063028,-0.01185 0.03555,-0.237129 c 0.16489,-1.289444 -0.01768,-1.958798 -0.711389,-2.655851 -0.504083,-0.506502 -1.097864,-0.782528 -1.695475,-0.782528 l 3e-5,-1.8e-5 z m 1.968175,6.663335 2.549143,0.02372 c 2.871267,0.01959 2.853685,0.01756 3.604369,0.379408 1.406148,0.677789 2.238173,2.249264 2.051171,3.865212 -0.141029,1.218689 -0.623791,2.242493 -1.434633,3.082685 -0.850229,0.881009 -1.693854,1.376859 -2.691421,1.588767 -0.491833,0.104479 -1.446533,0.118171 -1.92075,0.02371 -1.411718,-0.281197 -2.577962,-1.512146 -2.845555,-2.987833 -0.107608,-0.593419 -0.07009,-1.114761 0.2727,-3.485804 0.180639,-1.249488 0.355318,-2.324814 0.379406,-2.383153 l 0.03557,-0.106708 z"
       inkscape:connector-curvature="0"
       id="path3670"
       style="fill:#85c226;fill-opacity:1" />
    <path
       d="M 90,61.96875 C 71.503391,62.23265 52.542935,62.232399 34,62.25 19.405567,62.258 9.5556922,62.2573 6,62.25 l 0,0.625 c 10.79692,-0.03519 34.358832,0.05819 42.3125,0.1875 13.44718,0.306002 28.524531,0.46779 41.4375,2.3125 0.0073,0.0072 -0.01545,0.01812 -0.03125,0.03125 0.07227,-0.03309 0.191042,-0.04605 0.25,-0.03125 0.0064,0.0016 0.02313,-2.15e-4 0.03125,0 l 0,-3.40625 z"
       inkscape:connector-curvature="0"
       id="path3666"
       style="fill:url(#linearGradient3716);fill-opacity:1" />
  </g>
</svg>
