<?xml version="1.0" encoding="UTF-8" standalone="no"?>
<!-- Created with Inkscape (http://www.inkscape.org/) -->

<svg
   xmlns:dc="http://purl.org/dc/elements/1.1/"
   xmlns:cc="http://creativecommons.org/ns#"
   xmlns:rdf="http://www.w3.org/1999/02/22-rdf-syntax-ns#"
   xmlns:svg="http://www.w3.org/2000/svg"
   xmlns="http://www.w3.org/2000/svg"
   xmlns:xlink="http://www.w3.org/1999/xlink"
   xmlns:inkscape="http://www.inkscape.org/namespaces/inkscape"
   version="1.0"
   width="96"
   height="96"
   id="svg2408">
  <defs
     id="defs2410">
    <linearGradient
       id="linearGradient3771">
      <stop
         id="stop3773"
         style="stop-color:#000000;stop-opacity:1"
         offset="0" />
      <stop
         id="stop3775"
         style="stop-color:#000000;stop-opacity:0"
         offset="1" />
    </linearGradient>
    <linearGradient
       id="linearGradient3697">
      <stop
         id="stop3699"
         style="stop-color:#e6e6e6;stop-opacity:1"
         offset="0" />
      <stop
         id="stop3701"
         style="stop-color:#f5f5f5;stop-opacity:1"
         offset="1" />
    </linearGradient>
    <linearGradient
       id="linearGradient3614">
      <stop
         id="stop3616"
         style="stop-color:#6da014;stop-opacity:1"
         offset="0" />
      <stop
         id="stop3618"
         style="stop-color:#b4e844;stop-opacity:1"
         offset="1" />
    </linearGradient>
    <linearGradient
       x1="45.447727"
       y1="92.539597"
       x2="45.447727"
       y2="7.0165396"
       id="ButtonShadow"
       gradientUnits="userSpaceOnUse"
       gradientTransform="scale(1.0058652,0.994169)">
      <stop
         id="stop3750"
         style="stop-color:#000000;stop-opacity:1"
         offset="0" />
      <stop
         id="stop3752"
         style="stop-color:#000000;stop-opacity:0.58823532"
         offset="1" />
    </linearGradient>
    <linearGradient
       id="linearGradient3737">
      <stop
         id="stop3739"
         style="stop-color:#ffffff;stop-opacity:1"
         offset="0" />
      <stop
         id="stop3741"
         style="stop-color:#ffffff;stop-opacity:0"
         offset="1" />
    </linearGradient>
    <filter
       color-interpolation-filters="sRGB"
       id="filter3174">
      <feGaussianBlur
         id="feGaussianBlur3176"
         stdDeviation="1.71" />
    </filter>
    <linearGradient
       x1="36.357143"
       y1="6"
       x2="36.357143"
       y2="63.893143"
       id="linearGradient3188"
       xlink:href="#linearGradient3737"
       gradientUnits="userSpaceOnUse" />
    <filter
       x="-0.192"
       y="-0.192"
       width="1.3839999"
       height="1.3839999"
       color-interpolation-filters="sRGB"
       id="filter3794">
      <feGaussianBlur
         id="feGaussianBlur3796"
         stdDeviation="5.28" />
    </filter>
    <linearGradient
       x1="48"
       y1="20.220806"
       x2="48"
       y2="138.66119"
       id="linearGradient3613"
       xlink:href="#linearGradient3737"
       gradientUnits="userSpaceOnUse" />
    <radialGradient
       cx="48"
       cy="90.171875"
       r="42"
       fx="48"
       fy="90.171875"
       id="radialGradient3619"
       xlink:href="#linearGradient3737"
       gradientUnits="userSpaceOnUse"
       gradientTransform="matrix(1.1573129,0,0,0.99590774,-7.5510206,0.19713193)" />
    <clipPath
       id="clipPath3613">
      <rect
         width="84"
         height="84"
         rx="6"
         ry="6"
         x="6"
         y="6"
         id="rect3615"
         style="fill:#ffffff;fill-opacity:1;fill-rule:nonzero;stroke:none" />
    </clipPath>
    <linearGradient
       x1="48"
       y1="90"
       x2="48"
       y2="5.9877172"
       id="linearGradient3617"
       xlink:href="#linearGradient3614"
       gradientUnits="userSpaceOnUse" />
    <clipPath
       id="clipPath3644">
      <path
         d="m 12,96 c -3.324,0 -6,2.676 -6,6 l 0,72 c 0,3.324 2.676,6 6,6 l 72,0 c 3.324,0 6,-2.676 6,-6 l 0,-72 c 0,-3.324 -2.676,-6 -6,-6 l -72,0 z m 36,11 c 18.225397,0 33,12.08831 33,27 0,14.91169 -14.774603,27 -33,27 -2.713933,0 -5.351493,-0.27575 -7.875,-0.78125 -3.392649,3.54119 -9.783335,8.23332 -19.40625,7.1875 7.429736,-2.10018 8.999125,-8.24125 9.34375,-10.75 C 20.99976,151.84346 15,143.49844 15,134 15,119.08831 29.774603,107 48,107 z"
         inkscape:connector-curvature="0"
         id="path3646"
         style="fill:url(#linearGradient3648);fill-opacity:1;fill-rule:nonzero;stroke:none" />
    </clipPath>
    <linearGradient
       x1="48"
       y1="90"
       x2="48"
       y2="5.9877172"
       id="linearGradient3648"
       xlink:href="#linearGradient3614"
       gradientUnits="userSpaceOnUse"
       gradientTransform="translate(0,90)" />
    <filter
       x="-0.17257486"
       y="-0.18809278"
       width="1.3451498"
       height="1.3761857"
       color-interpolation-filters="sRGB"
       id="filter3678">
      <feGaussianBlur
         id="feGaussianBlur3680"
         stdDeviation="4.745809" />
    </filter>
    <linearGradient
       x1="15"
       y1="47.277454"
       x2="127.28258"
       y2="47.277454"
       id="linearGradient3777"
       xlink:href="#linearGradient3771"
       gradientUnits="userSpaceOnUse" />
    <linearGradient
       x1="50.630707"
       y1="61.373192"
       x2="50.630707"
       y2="26.422728"
       id="linearGradient3699"
       xlink:href="#linearGradient3697"
       gradientUnits="userSpaceOnUse" />
    <linearGradient
       x1="45.447727"
       y1="92.539597"
       x2="45.447727"
       y2="7.0165396"
       id="ButtonShadow-0"
       gradientUnits="userSpaceOnUse"
       gradientTransform="matrix(1.0058652,0,0,0.994169,100,0)">
      <stop
         id="stop3750-8"
         style="stop-color:#000000;stop-opacity:1"
         offset="0" />
      <stop
         id="stop3752-5"
         style="stop-color:#000000;stop-opacity:0.58823532"
         offset="1" />
    </linearGradient>
    <linearGradient
       x1="32.251034"
       y1="6.1317081"
       x2="32.251034"
       y2="90.238609"
       id="linearGradient3780"
       xlink:href="#ButtonShadow-0"
       gradientUnits="userSpaceOnUse"
       gradientTransform="matrix(1.0238095,0,0,1.0119048,-1.1428571,-98.071429)" />
    <linearGradient
       x1="32.251034"
       y1="6.1317081"
       x2="32.251034"
       y2="90.238609"
       id="linearGradient3772"
       xlink:href="#ButtonShadow-0"
       gradientUnits="userSpaceOnUse"
       gradientTransform="matrix(1.0238095,0,0,1.0119048,-1.1428571,-98.071429)" />
    <linearGradient
       x1="32.251034"
       y1="6.1317081"
       x2="32.251034"
       y2="90.238609"
       id="linearGradient3725"
       xlink:href="#ButtonShadow-0"
       gradientUnits="userSpaceOnUse"
       gradientTransform="matrix(1.0238095,0,0,1.0119048,-1.1428571,-98.071429)" />
    <linearGradient
       x1="32.251034"
       y1="6.1317081"
       x2="32.251034"
       y2="90.238609"
       id="linearGradient3721"
       xlink:href="#ButtonShadow-0"
       gradientUnits="userSpaceOnUse"
       gradientTransform="translate(0,-97)" />
    <linearGradient
       x1="32.251034"
       y1="6.1317081"
       x2="32.251034"
       y2="90.238609"
       id="linearGradient2918"
       xlink:href="#ButtonShadow-0"
       gradientUnits="userSpaceOnUse"
       gradientTransform="matrix(1.0238095,0,0,1.0119048,-1.1428571,-98.071429)" />
  </defs>
  <metadata
     id="metadata2413">
    <rdf:RDF>
      <cc:Work
         rdf:about="">
        <dc:format>image/svg+xml</dc:format>
        <dc:type
           rdf:resource="http://purl.org/dc/dcmitype/StillImage" />
      </cc:Work>
    </rdf:RDF>
  </metadata>
  <g
     id="layer2"
     style="display:none">
    <rect
       width="86"
       height="85"
       rx="6"
       ry="6"
       x="5"
       y="7"
       id="rect3745"
       style="opacity:0.9;fill:url(#ButtonShadow);fill-opacity:1;fill-rule:nonzero;stroke:none;filter:url(#filter3174)" />
  </g>
  <g
     id="layer6"
     style="display:inline">
    <path
       d="m 12,-95.03125 c -5.5110903,0 -10.03125,4.52016 -10.03125,10.03125 l 0,71 c 0,5.5110902 4.5201598,10.03125 10.03125,10.03125 l 72,0 c 5.51109,0 10.03125,-4.5201597 10.03125,-10.03125 l 0,-71 c 0,-5.51109 -4.52016,-10.03125 -10.03125,-10.03125 l -72,0 z"
       transform="scale(1,-1)"
       id="path3786"
       style="opacity:0.07999998;fill:url(#linearGradient2918);fill-opacity:1;fill-rule:nonzero;stroke:none;display:inline" />
    <path
       d="m 12,-94.03125 c -4.971633,0 -9.03125,4.059617 -9.03125,9.03125 l 0,71 c 0,4.9716329 4.0596171,9.03125 9.03125,9.03125 l 72,0 c 4.971633,0 9.03125,-4.059617 9.03125,-9.03125 l 0,-71 c 0,-4.971633 -4.059617,-9.03125 -9.03125,-9.03125 l -72,0 z"
       transform="scale(1,-1)"
       id="path3778"
       style="opacity:0.1;fill:url(#linearGradient3780);fill-opacity:1;fill-rule:nonzero;stroke:none;display:inline" />
    <path
       d="m 12,-93 c -4.4091333,0 -8,3.590867 -8,8 l 0,71 c 0,4.4091333 3.5908667,8 8,8 l 72,0 c 4.409133,0 8,-3.5908667 8,-8 l 0,-71 c 0,-4.409133 -3.590867,-8 -8,-8 l -72,0 z"
       transform="scale(1,-1)"
       id="path3770"
       style="opacity:0.2;fill:url(#linearGradient3772);fill-opacity:1;fill-rule:nonzero;stroke:none;display:inline" />
    <rect
       width="86"
       height="85"
       rx="7"
       ry="7"
       x="5"
       y="-92"
       transform="scale(1,-1)"
       id="rect3723"
       style="opacity:0.3;fill:url(#linearGradient3725);fill-opacity:1;fill-rule:nonzero;stroke:none;display:inline" />
    <rect
       width="84"
       height="84"
       rx="6"
       ry="6"
       x="6"
       y="-91"
       transform="scale(1,-1)"
       id="rect3716"
       style="opacity:0.45;fill:url(#linearGradient3721);fill-opacity:1;fill-rule:nonzero;stroke:none;display:inline" />
  </g>
  <g
     id="layer1"
     style="display:inline">
    <rect
       width="84"
       height="84"
       rx="6"
       ry="6"
       x="6"
       y="6"
       id="rect2419"
       style="fill:url(#linearGradient3617);fill-opacity:1;fill-rule:nonzero;stroke:none" />
    <path
       d="M 12,6 C 8.676,6 6,8.676 6,12 l 0,2 0,68 0,2 c 0,0.334721 0.04135,0.6507 0.09375,0.96875 0.0487,0.295596 0.09704,0.596915 0.1875,0.875 0.00988,0.03038 0.020892,0.0636 0.03125,0.09375 0.098865,0.287771 0.2348802,0.547452 0.375,0.8125 0.1445918,0.273507 0.3156161,0.535615 0.5,0.78125 0.1843839,0.245635 0.3737765,0.473472 0.59375,0.6875 0.439947,0.428056 0.94291,0.814526 1.5,1.09375 0.278545,0.139612 0.5734731,0.246947 0.875,0.34375 -0.2562018,-0.100222 -0.4867109,-0.236272 -0.71875,-0.375 -0.00741,-0.0044 -0.023866,0.0045 -0.03125,0 -0.031933,-0.0193 -0.062293,-0.04251 -0.09375,-0.0625 -0.120395,-0.0767 -0.2310226,-0.163513 -0.34375,-0.25 -0.1061728,-0.0808 -0.2132809,-0.161112 -0.3125,-0.25 C 8.4783201,88.557317 8.3087904,88.373362 8.15625,88.1875 8.0486711,88.057245 7.9378561,87.922215 7.84375,87.78125 7.818661,87.74287 7.805304,87.69538 7.78125,87.65625 7.716487,87.553218 7.6510225,87.451733 7.59375,87.34375 7.4927417,87.149044 7.3880752,86.928049 7.3125,86.71875 7.30454,86.69694 7.288911,86.6782 7.28125,86.65625 7.2494249,86.5643 7.2454455,86.469419 7.21875,86.375 7.1884177,86.268382 7.1483606,86.171969 7.125,86.0625 7.0521214,85.720988 7,85.364295 7,85 L 7,83 7,15 7,13 C 7,10.218152 9.2181517,8 12,8 l 2,0 68,0 2,0 c 2.781848,0 5,2.218152 5,5 l 0,2 0,68 0,2 c 0,0.364295 -0.05212,0.720988 -0.125,1.0625 -0.04415,0.206893 -0.08838,0.397658 -0.15625,0.59375 -0.0077,0.02195 -0.0233,0.04069 -0.03125,0.0625 -0.06274,0.173739 -0.138383,0.367449 -0.21875,0.53125 -0.04158,0.0828 -0.07904,0.169954 -0.125,0.25 -0.0546,0.09721 -0.126774,0.18835 -0.1875,0.28125 -0.09411,0.140965 -0.204921,0.275995 -0.3125,0.40625 -0.143174,0.17445 -0.303141,0.346998 -0.46875,0.5 -0.01117,0.0102 -0.01998,0.02115 -0.03125,0.03125 -0.138386,0.125556 -0.285091,0.234436 -0.4375,0.34375 -0.102571,0.07315 -0.204318,0.153364 -0.3125,0.21875 -0.0074,0.0045 -0.02384,-0.0044 -0.03125,0 -0.232039,0.138728 -0.462548,0.274778 -0.71875,0.375 0.301527,-0.0968 0.596455,-0.204138 0.875,-0.34375 0.55709,-0.279224 1.060053,-0.665694 1.5,-1.09375 0.219973,-0.214028 0.409366,-0.441865 0.59375,-0.6875 0.184384,-0.245635 0.355408,-0.507743 0.5,-0.78125 0.14012,-0.265048 0.276135,-0.524729 0.375,-0.8125 0.01041,-0.03078 0.02133,-0.06274 0.03125,-0.09375 0.09046,-0.278085 0.1388,-0.579404 0.1875,-0.875 C 89.95865,84.6507 90,84.334721 90,84 l 0,-2 0,-68 0,-2 C 90,8.676 87.324,6 84,6 L 12,6 z"
       inkscape:connector-curvature="0"
       id="rect3728"
       style="opacity:0.5;fill:url(#linearGradient3188);fill-opacity:1;fill-rule:nonzero;stroke:none" />
    <path
       d="M 12,90 C 8.676,90 6,87.324 6,84 L 6,82 6,14 6,12 c 0,-0.334721 0.04135,-0.6507 0.09375,-0.96875 0.0487,-0.295596 0.09704,-0.596915 0.1875,-0.875 C 6.29113,10.12587 6.302142,10.09265 6.3125,10.0625 6.411365,9.774729 6.5473802,9.515048 6.6875,9.25 6.8320918,8.976493 7.0031161,8.714385 7.1875,8.46875 7.3718839,8.223115 7.5612765,7.995278 7.78125,7.78125 8.221197,7.353194 8.72416,6.966724 9.28125,6.6875 9.559795,6.547888 9.8547231,6.440553 10.15625,6.34375 9.9000482,6.443972 9.6695391,6.580022 9.4375,6.71875 c -0.00741,0.0044 -0.023866,-0.0045 -0.03125,0 -0.031933,0.0193 -0.062293,0.04251 -0.09375,0.0625 -0.120395,0.0767 -0.2310226,0.163513 -0.34375,0.25 -0.1061728,0.0808 -0.2132809,0.161112 -0.3125,0.25 C 8.4783201,7.442683 8.3087904,7.626638 8.15625,7.8125 8.0486711,7.942755 7.9378561,8.077785 7.84375,8.21875 7.818661,8.25713 7.805304,8.30462 7.78125,8.34375 7.716487,8.446782 7.6510225,8.548267 7.59375,8.65625 7.4927417,8.850956 7.3880752,9.071951 7.3125,9.28125 7.30454,9.30306 7.288911,9.3218 7.28125,9.34375 7.2494249,9.4357 7.2454455,9.530581 7.21875,9.625 7.1884177,9.731618 7.1483606,9.828031 7.125,9.9375 7.0521214,10.279012 7,10.635705 7,11 l 0,2 0,68 0,2 c 0,2.781848 2.2181517,5 5,5 l 2,0 68,0 2,0 c 2.781848,0 5,-2.218152 5,-5 l 0,-2 0,-68 0,-2 C 89,10.635705 88.94788,10.279012 88.875,9.9375 88.83085,9.730607 88.78662,9.539842 88.71875,9.34375 88.71105,9.3218 88.69545,9.30306 88.6875,9.28125 88.62476,9.107511 88.549117,8.913801 88.46875,8.75 88.42717,8.6672 88.38971,8.580046 88.34375,8.5 88.28915,8.40279 88.216976,8.31165 88.15625,8.21875 88.06214,8.077785 87.951329,7.942755 87.84375,7.8125 87.700576,7.63805 87.540609,7.465502 87.375,7.3125 87.36383,7.3023 87.35502,7.29135 87.34375,7.28125 87.205364,7.155694 87.058659,7.046814 86.90625,6.9375 86.803679,6.86435 86.701932,6.784136 86.59375,6.71875 c -0.0074,-0.0045 -0.02384,0.0044 -0.03125,0 -0.232039,-0.138728 -0.462548,-0.274778 -0.71875,-0.375 0.301527,0.0968 0.596455,0.204138 0.875,0.34375 0.55709,0.279224 1.060053,0.665694 1.5,1.09375 0.219973,0.214028 0.409366,0.441865 0.59375,0.6875 0.184384,0.245635 0.355408,0.507743 0.5,0.78125 0.14012,0.265048 0.276135,0.524729 0.375,0.8125 0.01041,0.03078 0.02133,0.06274 0.03125,0.09375 0.09046,0.278085 0.1388,0.579404 0.1875,0.875 C 89.95865,11.3493 90,11.665279 90,12 l 0,2 0,68 0,2 c 0,3.324 -2.676,6 -6,6 l -72,0 z"
       inkscape:connector-curvature="0"
       id="path3615"
       style="opacity:0.2;fill:url(#radialGradient3619);fill-opacity:1;fill-rule:nonzero;stroke:none" />
  </g>
  <g
     id="layer3">
    <path
       d="m 48,107 c -18.225397,0 -33,12.08831 -33,27 0,9.49844 5.99976,17.84346 15.0625,22.65625 -0.344625,2.50875 -1.914014,8.64982 -9.34375,10.75 9.622915,1.04582 16.013601,-3.64631 19.40625,-7.1875 C 42.648507,160.72425 45.286067,161 48,161 66.225397,161 81,148.91169 81,134 81,119.08831 66.225397,107 48,107 z"
       inkscape:connector-curvature="0"
       transform="translate(0,-90)"
       clip-path="url(#clipPath3644)"
       id="path3642"
       style="opacity:0.2;fill:#ffffff;fill-opacity:1;stroke:none;display:inline;filter:url(#filter3678)" />
    <path
       d="m -52,17 c -18.225397,0 -33,12.088312 -33,27 0,9.498438 5.99976,17.843462 15.0625,22.65625 -0.344625,2.508754 -1.914014,8.649817 -9.34375,10.75 9.622915,1.045823 16.013601,-3.646306 19.40625,-7.1875 C -57.351493,70.724251 -54.713933,71 -52,71 -33.774603,71 -19,58.911688 -19,44 -19,29.088312 -33.774603,17 -52,17 z"
       inkscape:connector-curvature="0"
       id="path3625"
       style="opacity:0.4;fill:#d40000;fill-opacity:1;stroke:none;display:inline" />
    <path
       d="m 48,17 c -18.225397,0 -33,12.088312 -33,27 0,9.498438 5.99976,17.843462 15.0625,22.65625 -0.344625,2.508754 -1.914014,8.649817 -9.34375,10.75 9.622915,1.045823 16.013601,-3.646306 19.40625,-7.1875 C 42.648507,70.724251 45.286067,71 48,71 66.225397,71 81,58.911688 81,44 81,29.088312 66.225397,17 48,17 z"
       inkscape:connector-curvature="0"
       id="path3620"
       style="opacity:0.2;fill:url(#linearGradient3777);fill-opacity:1;stroke:none;display:inline" />
    <path
       d="m 15,44.40625 c -0.0053,0.200069 0,0.392631 0,0.59375 0,9.441618 5.934255,17.73658 14.90625,22.5625 0.06714,-0.329302 0.120551,-0.646372 0.15625,-0.90625 C 21.128785,61.911981 15.167817,53.73661 15,44.40625 z M 81,44.5 C 80.669643,59.177737 66.018397,71 48,71 c -2.713933,0 -5.351493,-0.275749 -7.875,-0.78125 -3.113855,3.250193 -8.747725,7.449531 -17.09375,7.3125 -0.700608,0.332399 -1.466906,0.635974 -2.3125,0.875 9.622915,1.045823 16.013601,-3.646306 19.40625,-7.1875 C 42.648507,71.724251 45.286067,72 48,72 66.225397,72 81,59.911688 81,45 c 0,-0.169364 0.0038,-0.331378 0,-0.5 z"
       inkscape:connector-curvature="0"
       id="path3779"
       style="opacity:0.25;fill:#ffffff;fill-opacity:1;stroke:none;display:inline" />
    <path
       d="m 48,17 c -18.225397,0 -33,12.088312 -33,27 0,9.498438 5.99976,17.843462 15.0625,22.65625 -0.344625,2.508754 -1.914014,8.649817 -9.34375,10.75 9.622915,1.045823 16.013601,-3.646306 19.40625,-7.1875 C 42.648507,70.724251 45.286067,71 48,71 66.225397,71 81,58.911688 81,44 81,29.088312 66.225397,17 48,17 z m 0,2.9375 c 16.920322,0 30.0625,11.100368 30.0625,24.0625 0,12.962132 -13.142178,24.0625 -30.0625,24.0625 -2.514011,0 -4.943414,-0.281692 -7.28125,-0.75 A 2.9517629,2.9517629 0 0 0 38,68.1875 c -1.62088,1.691849 -4.004104,3.567605 -7.125,4.875 1.341535,-2.353896 1.934715,-4.614792 2.125,-6 a 2.9517629,2.9517629 0 0 0 -1.5625,-3 C 23.146372,59.659478 17.9375,52.25556 17.9375,44 17.9375,31.037868 31.079678,19.9375 48,19.9375 z"
       inkscape:connector-curvature="0"
       id="path3811"
       style="opacity:0.05;fill:#000000;fill-opacity:1;stroke:none;display:inline" />
    <path
       d="m 48,17 c -18.225397,0 -33,12.088312 -33,27 0,9.498438 5.99976,17.843462 15.0625,22.65625 -0.344625,2.508754 -1.914014,8.649817 -9.34375,10.75 9.622915,1.045823 16.013601,-3.646306 19.40625,-7.1875 C 42.648507,70.724251 45.286067,71 48,71 66.225397,71 81,58.911688 81,44 81,29.088312 66.225397,17 48,17 z m 0,1.875 c 17.393221,0 31.125,11.456439 31.125,25.125 0,13.668561 -13.731779,25.125 -31.125,25.125 -2.586453,0 -5.094885,-0.268215 -7.5,-0.75 a 1.8821808,1.8821808 0 0 0 -1.71875,0.53125 c -2.229762,2.327391 -5.862118,5.104965 -10.90625,6.21875 0.603013,-0.636706 1.319873,-1.240512 1.75,-1.90625 1.573141,-2.434865 2.115946,-4.881651 2.3125,-6.3125 A 1.8821808,1.8821808 0 0 0 30.9375,65 C 22.366775,60.448498 16.875,52.705921 16.875,44 16.875,30.331439 30.606779,18.875 48,18.875 z"
       inkscape:connector-curvature="0"
       id="path3804"
       style="opacity:0.07999998;fill:#000000;fill-opacity:1;stroke:none;display:inline" />
    <path
       d="m 48,17 c -18.225397,0 -33,12.088312 -33,27 0,9.498438 5.99976,17.843462 15.0625,22.65625 -0.344625,2.508754 -1.914014,8.649817 -9.34375,10.75 9.622915,1.045823 16.013601,-3.646306 19.40625,-7.1875 C 42.648507,70.724251 45.286067,71 48,71 66.225397,71 81,58.911688 81,44 81,29.088312 66.225397,17 48,17 z m 0,1.0625 c 17.7572,0 31.9375,11.725217 31.9375,25.9375 0,14.212283 -14.1803,25.9375 -31.9375,25.9375 -2.642211,0 -5.199353,-0.257842 -7.65625,-0.75 A 1.0589482,1.0589482 0 0 0 39.375,69.5 c -2.643757,2.759512 -7.248859,6.049087 -13.78125,6.71875 1.442602,-1.037266 2.550304,-2.240676 3.34375,-3.46875 1.481728,-2.293379 2.001549,-4.583837 2.1875,-5.9375 A 1.0589482,1.0589482 0 0 0 30.5625,65.71875 C 21.776577,61.052966 16.0625,53.052554 16.0625,44 16.0625,29.787717 30.2428,18.0625 48,18.0625 z"
       inkscape:connector-curvature="0"
       id="path3797"
       style="opacity:0.15;fill:#000000;fill-opacity:1;stroke:none;display:inline" />
  </g>
  <g
     id="layer5"
     style="display:none">
    <rect
       width="66"
       height="66"
       rx="12"
       ry="12"
       x="15"
       y="15"
       clip-path="url(#clipPath3613)"
       id="rect3171"
       style="opacity:0.1;fill:url(#linearGradient3613);fill-opacity:1;fill-rule:nonzero;stroke:#ffffff;stroke-width:0.5;stroke-linecap:round;stroke-linejoin:miter;stroke-miterlimit:4;stroke-opacity:1;stroke-dasharray:none;stroke-dashoffset:0;filter:url(#filter3794)" />
  </g>
  <g
     id="layer4"
     style="display:inline">
    <path
       d="m 43.53125,25.0625 c -1.148369,0.175617 -1.633463,1.303386 -1.776717,2.335818 C 41.169689,29.765545 40.584844,32.132773 40,34.5 c -2.383702,0.02098 -4.781011,-0.04188 -7.15625,0.03125 -1.182816,0.214906 -1.739885,1.465459 -1.5625,2.576104 0.04144,1.669205 -0.08311,3.365346 0.0625,5.017646 0.251022,1.193859 1.558543,1.633737 2.656496,1.46875 1.218668,0 2.437336,0 3.656004,0 -0.239583,0.9375 -0.479167,1.875 -0.71875,2.8125 -2.32985,0.0423 -4.6871,-0.08425 -7,0.0625 -1.193859,0.251022 -1.633737,1.558543 -1.46875,2.656496 0.04249,1.652654 -0.08462,3.332829 0.0625,4.968504 0.251022,1.193859 1.558543,1.633737 2.656496,1.46875 1.187418,0 2.374836,0 3.562254,0 -0.588247,2.470387 -1.301519,4.928271 -1.8125,7.40625 -0.06943,1.301788 1.285116,2.180678 2.495711,1.96875 1.842958,-0.05369 3.707719,0.112817 5.535539,-0.09375 1.47237,-0.52632 1.3666,-2.291824 1.789529,-3.541681 0.476407,-1.91319 0.952814,-3.826379 1.429221,-5.739569 0.833333,0 1.666667,0 2.5,0 -0.588247,2.470387 -1.301519,4.928271 -1.8125,7.40625 -0.06943,1.301788 1.285116,2.180678 2.495711,1.96875 1.821961,-0.05534 3.666293,0.11524 5.473039,-0.09375 1.47237,-0.52632 1.3666,-2.291824 1.789529,-3.541681 0.476407,-1.91319 0.952814,-3.826379 1.429221,-5.739569 2.362791,-0.02146 4.739451,0.04254 7.09375,-0.03125 1.182816,-0.214906 1.739885,-1.465459 1.5625,-2.576104 -0.04252,-1.689862 0.08466,-3.407264 -0.0625,-5.080146 -0.251022,-1.193859 -1.558543,-1.633737 -2.656496,-1.46875 -1.229085,0 -2.458169,0 -3.687254,0 0.239583,-0.9375 0.479167,-1.875 0.71875,-2.8125 2.34035,-0.04178 4.707817,0.08353 7.03125,-0.0625 1.193859,-0.251022 1.633737,-1.558543 1.46875,-2.656496 -0.04138,-1.632 0.08304,-3.290907 -0.0625,-4.906004 -0.251022,-1.193859 -1.558543,-1.633737 -2.656496,-1.46875 -1.177001,0 -2.354003,0 -3.531004,0 0.599133,-2.491216 1.323085,-4.969594 1.84375,-7.46875 0.06943,-1.301788 -1.285116,-2.180678 -2.495711,-1.96875 -1.821961,0.05534 -3.666293,-0.11524 -5.473039,0.09375 -1.471362,0.526572 -1.367662,2.291558 -1.793543,3.540678 -0.485485,1.934357 -0.970971,3.868715 -1.456457,5.803072 -0.833333,0 -1.666667,0 -2.5,0 0.599133,-2.491216 1.323085,-4.969594 1.84375,-7.46875 0.06943,-1.301788 -1.285116,-2.180678 -2.495711,-1.96875 -1.741013,0 -3.482027,0 -5.223039,0 z m 3.5625,18.53125 c 0.822917,0 1.645833,0 2.46875,0 -0.239583,0.9375 -0.479167,1.875 -0.71875,2.8125 -0.822917,0 -1.645833,0 -2.46875,0 0.239583,-0.9375 0.479167,-1.875 0.71875,-2.8125 z"
       inkscape:connector-curvature="0"
       id="path3696"
       style="font-size:50.15510178px;font-style:normal;font-variant:normal;font-weight:bold;font-stretch:normal;text-align:start;line-height:125%;writing-mode:lr-tb;text-anchor:start;opacity:0.05;fill:#000000;fill-opacity:1;stroke:none;font-family:Sans;-inkscape-font-specification:Abandoned Bitplane Bold" />
    <path
       d="m 43.75,26 a 1.00149,1.00149 0 0 0 -0.875,0.75 l -2.15625,8.6875 -7.5,0 a 1.00149,1.00149 0 0 0 -1,1 l 0,5.21875 a 1.00149,1.00149 0 0 0 1,1 l 5.625,0 -1.1875,4.6875 -7.25,0 a 1.00149,1.00149 0 0 0 -1,1 l 0,5.28125 a 1.00149,1.00149 0 0 0 1,1 l 5.53125,0 -2.03125,8.125 A 1.00149,1.00149 0 0 0 34.875,64 l 5.46875,0 a 1.00149,1.00149 0 0 0 0.96875,-0.75 l 2.15625,-8.625 4.40625,0 -2.03125,8.125 A 1.00149,1.00149 0 0 0 46.8125,64 l 5.40625,0 a 1.00149,1.00149 0 0 0 0.96875,-0.75 l 2.15625,-8.625 7.4375,0 a 1.00149,1.00149 0 0 0 1,-1 l 0,-5.28125 a 1.00149,1.00149 0 0 0 -1,-1 l -5.65625,0 1.1875,-4.6875 7.28125,0 a 1.00149,1.00149 0 0 0 1,-1 l 0,-5.21875 a 1.00149,1.00149 0 0 0 -1,-1 l -5.5,0 2.0625,-8.1875 A 1.00149,1.00149 0 0 0 61.1875,26 l -5.40625,0 a 1.00149,1.00149 0 0 0 -0.96875,0.75 l -2.1875,8.6875 -4.40625,0 2.0625,-8.1875 A 1.00149,1.00149 0 0 0 49.3125,26 l -5.46875,0 A 1.00149,1.00149 0 0 0 43.75,26 z m 2.625,16.65625 4.40625,0 -1.21875,4.6875 -4.40625,0 1.21875,-4.6875 z"
       id="path3692"
       style="font-size:50.15510178px;font-style:normal;font-variant:normal;font-weight:bold;font-stretch:normal;text-align:start;line-height:125%;writing-mode:lr-tb;text-anchor:start;opacity:0.12000002;fill:#000000;fill-opacity:1;stroke:none;font-family:Sans;-inkscape-font-specification:Abandoned Bitplane Bold" />
    <path
       d="m 49.297959,27 -2.351021,9.428572 6.465306,0 L 55.787755,27 61.2,27 l -2.375511,9.428572 6.783674,0 0,5.216326 -8.081633,0 -1.689796,6.710204 6.955102,0 0,5.265306 -8.228571,0 L 52.212244,63 46.8,63 l 2.35102,-9.379592 -6.465306,0 L 40.334694,63 l -5.461225,0 2.35102,-9.379592 -6.832653,0 0,-5.265306 8.032653,0 1.714286,-6.710204 -6.930612,0 0,-5.216326 8.277551,0 L 43.836734,27 l 5.461225,0 m 2.767347,14.644898 -6.465306,0 -1.714286,6.710204 6.465306,0 1.714286,-6.710204"
       inkscape:connector-curvature="0"
       id="path3715"
       style="font-size:50.15510178px;font-style:normal;font-variant:normal;font-weight:bold;font-stretch:normal;text-align:start;line-height:125%;writing-mode:lr-tb;text-anchor:start;opacity:0.3;fill:#000000;fill-opacity:1;stroke:none;font-family:Sans;-inkscape-font-specification:Abandoned Bitplane Bold" />
    <g
       transform="matrix(0.94113621,0,0,0.94221106,4.5900791,2.5953791)"
       id="g3709"
       style="font-size:48px;font-style:normal;font-variant:normal;font-weight:normal;font-stretch:normal;text-align:start;line-height:125%;writing-mode:tb-rl;text-anchor:start;fill:#ff00ff;fill-opacity:1;stroke:none;font-family:American Participants;-inkscape-font-specification:American Participants" />
    <path
       d="m 49.297959,26 -2.351021,9.428572 6.465306,0 L 55.787755,26 61.2,26 l -2.375511,9.428572 6.783674,0 0,5.216326 -8.081633,0 -1.689796,6.710204 6.955102,0 0,5.265306 -8.228571,0 L 52.212244,62 46.8,62 l 2.35102,-9.379592 -6.465306,0 L 40.334694,62 l -5.461225,0 2.35102,-9.379592 -6.832653,0 0,-5.265306 8.032653,0 1.714286,-6.710204 -6.930612,0 0,-5.216326 8.277551,0 L 43.836734,26 l 5.461225,0 m 2.767347,14.644898 -6.465306,0 -1.714286,6.710204 6.465306,0 1.714286,-6.710204"
       inkscape:connector-curvature="0"
       id="path3658"
       style="font-size:50.15510178px;font-style:normal;font-variant:normal;font-weight:bold;font-stretch:normal;text-align:start;line-height:125%;writing-mode:lr-tb;text-anchor:start;fill:url(#linearGradient3699);fill-opacity:1;stroke:none;font-family:Sans;-inkscape-font-specification:Abandoned Bitplane Bold" />
    <path
       d="M 43.84375,26 41.5,35.4375 l -8.28125,0 0,1 8.28125,0 2.34375,-9.4375 5.21875,0 0.25,-1 -5.46875,0 z m 11.9375,0 -2.375,9.4375 -6.21875,0 -0.25,1 6.46875,0 2.375,-9.4375 5.15625,0 0.25,-1 -5.40625,0 z m 3.28125,9.4375 -0.25,1 6.78125,0 0,-1 -6.53125,0 z m -19.1875,6.21875 -1.4375,5.6875 -8.03125,0 0,1 8.03125,0 1.6875,-6.6875 -0.25,0 z m 11.9375,0 -1.46875,5.6875 -6.21875,0 -0.25,1 6.46875,0 1.71875,-6.6875 -0.25,0 z m 4.28125,5.6875 -0.25,1 6.9375,0 0,-1 -6.6875,0 z M 36.96875,53.625 34.875,62 l 0.25,0 2.09375,-8.375 -0.25,0 z m 11.9375,0 -2.09375,8.375 0.25,0 2.09375,-8.375 -0.25,0 z"
       inkscape:connector-curvature="0"
       id="path3723"
       style="font-size:50.15510178px;font-style:normal;font-variant:normal;font-weight:bold;font-stretch:normal;text-align:start;line-height:125%;writing-mode:lr-tb;text-anchor:start;fill:#ffffff;fill-opacity:1;stroke:none;font-family:Sans;-inkscape-font-specification:Abandoned Bitplane Bold" />
  </g>
</svg>
