<?xml version="1.0" encoding="UTF-8" standalone="no"?>
<!-- Created with Inkscape (http://www.inkscape.org/) -->

<svg
   xmlns:dc="http://purl.org/dc/elements/1.1/"
   xmlns:cc="http://creativecommons.org/ns#"
   xmlns:rdf="http://www.w3.org/1999/02/22-rdf-syntax-ns#"
   xmlns:svg="http://www.w3.org/2000/svg"
   xmlns="http://www.w3.org/2000/svg"
   xmlns:xlink="http://www.w3.org/1999/xlink"
   xmlns:inkscape="http://www.inkscape.org/namespaces/inkscape"
   version="1.0"
   width="96"
   height="96"
   id="svg2408">
  <defs
     id="defs2410">
    <linearGradient
       id="linearGradient4161">
      <stop
         id="stop4163"
         style="stop-color:#000000;stop-opacity:1"
         offset="0" />
      <stop
         id="stop4165"
         style="stop-color:#000000;stop-opacity:0"
         offset="1" />
    </linearGradient>
    <linearGradient
       id="linearGradient3597">
      <stop
         id="stop3599"
         style="stop-color:#dcdcdc;stop-opacity:1"
         offset="0" />
      <stop
         id="stop3601"
         style="stop-color:#f5f5f5;stop-opacity:1"
         offset="1" />
    </linearGradient>
    <linearGradient
       x1="45.447727"
       y1="92.539597"
       x2="45.447727"
       y2="7.0165396"
       id="ButtonShadow"
       gradientUnits="userSpaceOnUse"
       gradientTransform="scale(1.0058652,0.994169)">
      <stop
         id="stop3750"
         style="stop-color:#000000;stop-opacity:1"
         offset="0" />
      <stop
         id="stop3752"
         style="stop-color:#000000;stop-opacity:0.58823532"
         offset="1" />
    </linearGradient>
    <linearGradient
       id="linearGradient3737">
      <stop
         id="stop3739"
         style="stop-color:#ffffff;stop-opacity:1"
         offset="0" />
      <stop
         id="stop3741"
         style="stop-color:#ffffff;stop-opacity:0"
         offset="1" />
    </linearGradient>
    <filter
       color-interpolation-filters="sRGB"
       id="filter3174">
      <feGaussianBlur
         id="feGaussianBlur3176"
         stdDeviation="1.71" />
    </filter>
    <linearGradient
       x1="36.357143"
       y1="6"
       x2="36.357143"
       y2="63.893143"
       id="linearGradient3188"
       xlink:href="#linearGradient3737"
       gradientUnits="userSpaceOnUse" />
    <linearGradient
       x1="45.447727"
       y1="92.539597"
       x2="45.447727"
       y2="7.0165396"
       id="linearGradient3638"
       xlink:href="#ButtonShadow"
       gradientUnits="userSpaceOnUse"
       gradientTransform="scale(1.0058652,0.994169)" />
    <linearGradient
       x1="48"
       y1="90"
       x2="48"
       y2="5.9877172"
       id="linearGradient3646"
       xlink:href="#linearGradient3597"
       gradientUnits="userSpaceOnUse" />
    <linearGradient
       id="linearGradient3737-6">
      <stop
         id="stop3739-6"
         style="stop-color:#ffffff;stop-opacity:1"
         offset="0" />
      <stop
         id="stop3741-4"
         style="stop-color:#ffffff;stop-opacity:0"
         offset="1" />
    </linearGradient>
    <radialGradient
       cx="48"
       cy="90.171875"
       r="42"
       fx="48"
       fy="90.171875"
       id="radialGradient2855"
       xlink:href="#linearGradient3737-6"
       gradientUnits="userSpaceOnUse"
       gradientTransform="matrix(1.1573129,0,0,0.99590774,-7.551021,0.1971319)" />
    <linearGradient
       x1="45.447727"
       y1="92.539597"
       x2="45.447727"
       y2="7.0165396"
       id="ButtonShadow-0"
       gradientUnits="userSpaceOnUse"
       gradientTransform="matrix(1.0058652,0,0,0.994169,100,0)">
      <stop
         id="stop3750-8"
         style="stop-color:#000000;stop-opacity:1"
         offset="0" />
      <stop
         id="stop3752-5"
         style="stop-color:#000000;stop-opacity:0.58823532"
         offset="1" />
    </linearGradient>
    <linearGradient
       x1="48"
       y1="90"
       x2="48"
       y2="5.9877172"
       id="linearGradient3779"
       xlink:href="#ButtonShadow"
       gradientUnits="userSpaceOnUse"
       gradientTransform="matrix(1.0238095,0,0,1.0119048,-1.142857,0.92857143)" />
    <linearGradient
       x1="48"
       y1="90"
       x2="48"
       y2="5.9877172"
       id="linearGradient3786"
       xlink:href="#ButtonShadow-0"
       gradientUnits="userSpaceOnUse"
       gradientTransform="translate(0,1)" />
    <linearGradient
       x1="48"
       y1="90"
       x2="48"
       y2="5.9877172"
       id="linearGradient3794"
       xlink:href="#ButtonShadow"
       gradientUnits="userSpaceOnUse"
       gradientTransform="matrix(1.0238095,0,0,1.0119048,-1.142857,0.92857143)" />
    <linearGradient
       x1="48"
       y1="90"
       x2="48"
       y2="5.9877172"
       id="linearGradient3816"
       xlink:href="#ButtonShadow"
       gradientUnits="userSpaceOnUse"
       gradientTransform="matrix(1.0238095,0,0,1.0119048,-1.142857,0.92857143)" />
    <linearGradient
       x1="48"
       y1="90"
       x2="48"
       y2="5.9877172"
       id="linearGradient3824"
       xlink:href="#ButtonShadow"
       gradientUnits="userSpaceOnUse"
       gradientTransform="matrix(1.0238095,0,0,1.0119048,-1.142857,0.92857143)" />
    <linearGradient
       x1="32"
       y1="80"
       x2="84"
       y2="-10.066642"
       id="linearGradient4167"
       xlink:href="#linearGradient4161"
       gradientUnits="userSpaceOnUse" />
    <linearGradient
       x1="103.94804"
       y1="79.295097"
       x2="137.92665"
       y2="36.916862"
       id="linearGradient3946"
       xlink:href="#linearGradient3936"
       gradientUnits="userSpaceOnUse"
       gradientTransform="matrix(0.69626781,0.5250827,-0.5250827,0.69626781,12.350518,-40.12692)" />
    <linearGradient
       id="linearGradient3936">
      <stop
         id="stop3938"
         style="stop-color:#000000;stop-opacity:1"
         offset="0" />
      <stop
         id="stop3940"
         style="stop-color:#000000;stop-opacity:0"
         offset="1" />
    </linearGradient>
    <radialGradient
       cx="425.51019"
       cy="356.62274"
       r="143.34167"
       fx="425.51019"
       fy="356.62274"
       id="radialGradient3890"
       xlink:href="#linearGradient3294"
       gradientUnits="userSpaceOnUse"
       gradientTransform="matrix(-0.02122419,-0.01702548,0.22621343,-0.28200081,-136.43035,244.91947)" />
    <linearGradient
       id="linearGradient3294">
      <stop
         id="stop3296"
         style="stop-color:#7bade5;stop-opacity:1"
         offset="0" />
      <stop
         id="stop3302"
         style="stop-color:#255995;stop-opacity:1"
         offset="0.50094414" />
      <stop
         id="stop3298"
         style="stop-color:#062951;stop-opacity:1"
         offset="1" />
    </linearGradient>
    <radialGradient
       cx="289.44067"
       cy="390.45248"
       r="17.67668"
       fx="289.44067"
       fy="390.45248"
       id="radialGradient3892"
       xlink:href="#linearGradient3202"
       gradientUnits="userSpaceOnUse"
       gradientTransform="matrix(0.08730492,0.06948468,-0.10650365,0.13381795,-66.303078,90.119143)" />
    <linearGradient
       id="linearGradient3202">
      <stop
         id="stop3204"
         style="stop-color:#2b2b2b;stop-opacity:1"
         offset="0" />
      <stop
         id="stop3250"
         style="stop-color:#828383;stop-opacity:1"
         offset="0.5" />
      <stop
         id="stop3206"
         style="stop-color:#dadbdb;stop-opacity:1"
         offset="1" />
    </linearGradient>
    <radialGradient
       cx="283.50717"
       cy="382.14804"
       r="17.67668"
       fx="283.50717"
       fy="382.14804"
       id="radialGradient3894"
       xlink:href="#linearGradient3202"
       gradientUnits="userSpaceOnUse"
       gradientTransform="matrix(0.08730492,0.06948468,-0.10650365,0.13381795,-44.944061,65.934759)" />
    <radialGradient
       cx="418.45551"
       cy="181.18982"
       r="63.068935"
       fx="418.45551"
       fy="181.18982"
       id="radialGradient3896"
       xlink:href="#linearGradient3242"
       gradientUnits="userSpaceOnUse"
       gradientTransform="matrix(-0.01380294,-0.0125728,0.35517379,-0.38992442,-103.15415,193.49332)" />
    <linearGradient
       id="linearGradient3242">
      <stop
         id="stop3244"
         style="stop-color:#282828;stop-opacity:1"
         offset="0" />
      <stop
         id="stop3252"
         style="stop-color:#969696;stop-opacity:1"
         offset="0.39253417" />
      <stop
         id="stop3246"
         style="stop-color:#e3e3e3;stop-opacity:1"
         offset="1" />
    </linearGradient>
    <linearGradient
       x1="102.76233"
       y1="78.680206"
       x2="144.10181"
       y2="27.597383"
       id="linearGradient3007"
       xlink:href="#linearGradient3936"
       gradientUnits="userSpaceOnUse"
       gradientTransform="matrix(0.83325086,0.25728138,-0.25728138,0.83325086,-22.972667,-24.070257)" />
  </defs>
  <metadata
     id="metadata2413">
    <rdf:RDF>
      <cc:Work
         rdf:about="">
        <dc:format>image/svg+xml</dc:format>
        <dc:type
           rdf:resource="http://purl.org/dc/dcmitype/StillImage" />
        <dc:title />
      </cc:Work>
    </rdf:RDF>
  </metadata>
  <g
     id="layer2"
     style="display:none">
    <path
       d="M 11,7 C 7.676,7 5,9.676 5,13 l 0,73 c 0,3.324 2.676,6 6,6 l 74,0 c 3.324,0 6,-2.676 6,-6 L 91,13 C 91,9.676 88.324,7 85,7 l -5,0 0,2.5 c 1.470291,0.740605 2.5,2.242377 2.5,4 0,2.484 -2.016,4.5 -4.5,4.5 -2.484,0 -4.5,-2.016 -4.5,-4.5 0,-1.757623 1.029709,-3.259395 2.5,-4 L 76,7 68,7 68,9.5 c 1.470291,0.740605 2.5,2.242377 2.5,4 0,2.484 -2.016,4.5 -4.5,4.5 -2.484,0 -4.5,-2.016 -4.5,-4.5 0,-1.757623 1.029709,-3.259395 2.5,-4 L 64,7 56,7 56,9.5 c 1.470291,0.740605 2.5,2.242377 2.5,4 0,2.484 -2.016,4.5 -4.5,4.5 -2.484,0 -4.5,-2.016 -4.5,-4.5 0,-1.757623 1.029709,-3.259395 2.5,-4 L 52,7 44,7 44,9.5 c 1.470291,0.740605 2.5,2.242377 2.5,4 0,2.484 -2.016,4.5 -4.5,4.5 -2.484,0 -4.5,-2.016 -4.5,-4.5 0,-1.757623 1.029709,-3.259395 2.5,-4 L 40,7 32,7 32,9.5 c 1.470291,0.740605 2.5,2.242377 2.5,4 0,2.484 -2.016,4.5 -4.5,4.5 -2.484,0 -4.5,-2.016 -4.5,-4.5 0,-1.757623 1.029709,-3.259395 2.5,-4 L 28,7 20,7 20,9.5 c 1.470291,0.740605 2.5,2.242377 2.5,4 0,2.484 -2.016,4.5 -4.5,4.5 -2.484,0 -4.5,-2.016 -4.5,-4.5 0,-1.757623 1.029709,-3.259395 2.5,-4 L 16,7 11,7 z"
       inkscape:connector-curvature="0"
       id="rect3745"
       style="opacity:0.9;fill:url(#linearGradient3638);fill-opacity:1;fill-rule:nonzero;stroke:none;filter:url(#filter3174)" />
  </g>
  <g
     id="layer4"
     style="display:inline">
    <path
       d="m 20.90625,4.03125 c -1.119919,-0.039226 -2.394393,0.038225 -3.5,0.8125 A 0.90582636,0.90582636 0 0 0 17.21875,5.0625 C 17.094183,4.9385935 17.048059,4.7179548 16.90625,4.625 16.341303,4.2546802 15.714665,4.1396259 15.125,4.09375 c -1.179329,-0.091752 -2.375524,0.078075 -3.03125,0 a 0.90582636,0.90582636 0 0 0 -0.0625,0 C 5.9816915,3.9141658 1.3742267,9.7444122 2.09375,15.53125 c 5.52e-5,0.04167 -5.43e-5,0.08333 0,0.125 0.030515,23.419957 -0.077539,46.822793 0.03125,70.25 a 0.90582636,0.90582636 0 0 0 0,0.0625 c 0.4299168,5.796659 6.1856257,9.608197 11.65625,8.9375 0.04188,-0.0051 0.08315,0.0057 0.125,0 23.668957,-0.03053 47.323899,0.07754 71,-0.03125 a 0.90582636,0.90582636 0 0 0 0.0625,0 c 5.796659,-0.429919 9.608197,-6.185626 8.9375,-11.65625 -0.0051,-0.04188 0.0057,-0.08315 0,-0.125 -0.03051,-23.335574 0.07754,-46.657154 -0.03125,-70 a 0.90582636,0.90582636 0 0 0 0,-0.0625 C 93.450077,7.3019206 87.818966,3.5647439 82.40625,4.125 82.305272,4.1044147 82.196845,4.1080516 82.09375,4.09375 81.209443,3.9710759 80.244737,4.0664552 79.40625,4.5 79.136849,4.6392956 78.942767,4.8965714 78.71875,5.125 78.346059,4.7009612 77.882551,4.3154705 77.25,4.15625 A 0.90582636,0.90582636 0 0 0 77.03125,4.125 C 73.998155,4.1595539 70.801892,3.8872293 67.625,4.25 a 0.90582636,0.90582636 0 0 0 -0.3125,0.09375 c -0.414294,0.2141609 -0.60892,0.6109323 -0.875,0.9375 -0.185439,-0.2140684 -0.27292,-0.5465295 -0.5,-0.6875 C 65.351372,4.2298839 64.704792,4.1051672 64.09375,4.0625 62.871666,3.9771657 61.642064,4.1750297 60.9375,4.09375 a 0.90582636,0.90582636 0 0 0 -0.21875,0 c -0.812752,0.1113555 -1.850439,-0.02345 -2.96875,-0.0625 -1.118311,-0.03905 -2.392948,0.037212 -3.5,0.8125 A 0.90582636,0.90582636 0 0 0 54.0625,5.0625 c -0.01486,0.019982 -0.01689,0.042383 -0.03125,0.0625 C 53.880774,4.9736149 53.829948,4.7015813 53.65625,4.59375 53.070122,4.2298839 52.423542,4.1051672 51.8125,4.0625 50.590416,3.9771657 49.360814,4.1750297 48.65625,4.09375 a 0.90582636,0.90582636 0 0 0 -0.21875,0 c -0.812752,0.1113555 -1.850439,-0.02345 -2.96875,-0.0625 -1.118311,-0.03905 -2.392948,0.037212 -3.5,0.8125 A 0.90582636,0.90582636 0 0 0 41.78125,5.0625 C 41.766387,5.0824821 41.764365,5.1048835 41.75,5.125 41.599524,4.9736149 41.548698,4.7015813 41.375,4.59375 40.788872,4.2298839 40.142292,4.1051672 39.53125,4.0625 38.309166,3.9771657 37.079564,4.1750297 36.375,4.09375 a 0.90582636,0.90582636 0 0 0 -0.21875,0 c -0.812752,0.1113555 -1.850439,-0.02345 -2.96875,-0.0625 -1.118311,-0.03905 -2.392948,0.037212 -3.5,0.8125 A 0.90582636,0.90582636 0 0 0 29.5,5.0625 c -0.01486,0.019982 -0.01688,0.042383 -0.03125,0.0625 C 29.318274,4.9736149 29.267448,4.7015813 29.09375,4.59375 28.507622,4.2298839 27.861042,4.1051672 27.25,4.0625 26.027916,3.9771657 24.798314,4.1750297 24.09375,4.09375 a 0.90582636,0.90582636 0 0 0 -0.21875,0 C 23.066879,4.2044711 22.025911,4.0704666 20.90625,4.03125 z M 78.75,12.34375 c 0.201026,0.225089 0.344561,0.493603 0.625,0.65625 l 0,0.03125 c 0.04503,0.02958 0.0521,0.03375 0.09375,0.0625 0.98578,0.680457 1.084241,1.153991 1,1.53125 -0.0878,0.3932 -0.571145,0.932733 -1.21875,1.21875 -0.647605,0.286017 -1.366204,0.296382 -1.71875,0.09375 -0.336521,-0.193422 -0.587454,-0.625484 -0.4375,-1.8125 0.131473,-0.348897 0.622364,-0.737477 1.28125,-1.3125 0.136052,-0.118736 0.238546,-0.325605 0.375,-0.46875 z M 17.28125,12.4375 c 0.408191,0.450973 0.863545,0.813739 1.1875,1.09375 0.28627,0.247438 0.456812,0.458741 0.53125,0.625 0.07444,0.166259 0.09357,0.303898 -0.03125,0.6875 a 0.90582636,0.90582636 0 0 0 0,0.03125 c -0.325433,1.095545 -0.743516,1.310614 -1.15625,1.375 -0.412734,0.06439 -0.993831,-0.126184 -1.46875,-0.5625 -0.474919,-0.436316 -0.770592,-1.059696 -0.75,-1.5 0.02059,-0.440304 0.200828,-0.854569 1.21875,-1.28125 a 0.90582636,0.90582636 0 0 0 0.28125,-0.1875 c 0.09005,-0.08243 0.109697,-0.192714 0.1875,-0.28125 z m 12.28125,0 c 0.408191,0.450973 0.863545,0.813739 1.1875,1.09375 0.28627,0.247438 0.456812,0.458741 0.53125,0.625 0.07444,0.166259 0.09357,0.303898 -0.03125,0.6875 a 0.90582636,0.90582636 0 0 0 0,0.03125 c -0.325434,1.095545 -0.743517,1.310614 -1.15625,1.375 -0.412733,0.06439 -0.993831,-0.126184 -1.46875,-0.5625 -0.474919,-0.436316 -0.770592,-1.059696 -0.75,-1.5 0.02059,-0.440304 0.200828,-0.854569 1.21875,-1.28125 a 0.90582636,0.90582636 0 0 0 0.28125,-0.1875 c 0.09005,-0.08243 0.109697,-0.192714 0.1875,-0.28125 z m 12.28125,0 c 0.408191,0.450973 0.863545,0.813739 1.1875,1.09375 0.28627,0.247438 0.456812,0.458741 0.53125,0.625 0.07444,0.166259 0.09357,0.303898 -0.03125,0.6875 a 0.90582636,0.90582636 0 0 0 0,0.03125 c -0.325433,1.095545 -0.743516,1.310614 -1.15625,1.375 -0.412734,0.06439 -0.993831,-0.126184 -1.46875,-0.5625 -0.474919,-0.436316 -0.770592,-1.059696 -0.75,-1.5 0.02059,-0.440304 0.200828,-0.854569 1.21875,-1.28125 a 0.90582636,0.90582636 0 0 0 0.28125,-0.1875 c 0.09005,-0.08243 0.109697,-0.192714 0.1875,-0.28125 z m 12.28125,0 c 0.408343,0.450688 0.86385,0.814129 1.1875,1.09375 0.286,0.247093 0.456928,0.458802 0.53125,0.625 0.07432,0.166198 0.09375,0.302764 -0.03125,0.6875 a 0.90582636,0.90582636 0 0 0 0,0.03125 c -0.31729,1.091755 -0.713819,1.31137 -1.125,1.375 -0.411181,0.06363 -1.021672,-0.156233 -1.5,-0.59375 -0.478328,-0.437517 -0.769167,-1.031139 -0.75,-1.46875 0.01917,-0.437611 0.198808,-0.856404 1.21875,-1.28125 a 0.90582636,0.90582636 0 0 0 0.28125,-0.1875 c 0.09005,-0.08243 0.109697,-0.192714 0.1875,-0.28125 z m 12.25,0 c 0.39574,0.436423 0.835222,0.790037 1.15625,1.0625 0.301951,0.256272 0.513511,0.453631 0.59375,0.625 0.08024,0.171369 0.09739,0.323744 -0.03125,0.71875 a 0.90582636,0.90582636 0 0 0 0,0.03125 c -0.31729,1.091755 -0.713819,1.31137 -1.125,1.375 -0.411181,0.06363 -1.021672,-0.156233 -1.5,-0.59375 -0.478328,-0.437517 -0.769167,-1.031139 -0.75,-1.46875 0.01917,-0.437611 0.198808,-0.856404 1.21875,-1.28125 a 0.90582636,0.90582636 0 0 0 0.28125,-0.1875 c 0.08798,-0.08054 0.08078,-0.1955 0.15625,-0.28125 z"
       id="path3822"
       style="opacity:0.07999998;fill:url(#linearGradient3824);fill-opacity:1;fill-rule:nonzero;stroke:none" />
    <path
       d="M 12,7 C 8.122,7 5,10.122 5,14 l 0,71 c 0,3.878 3.122,7 7,7 l 72,0 c 3.878,0 7,-3.122 7,-7 L 91,14 C 91,10.122 87.878,7 84,7 l -3.25,0 0,3.53125 c 1.505298,0.749421 2.5625,2.283953 2.5625,4.0625 0,2.513571 -2.050607,4.5625 -4.59375,4.5625 -2.543143,0 -4.625,-2.048929 -4.625,-4.5625 0,-1.778547 1.057202,-3.313079 2.5625,-4.0625 l 0,-3.53125 -8.1875,0 0,3.53125 c 1.505298,0.749421 2.5625,2.283953 2.5625,4.0625 0,2.513571 -2.050607,4.5625 -4.59375,4.5625 -2.543142,0 -4.625,-2.048929 -4.625,-4.5625 0,-1.778547 1.057202,-3.313079 2.5625,-4.0625 l 0,-3.53125 -8.1875,0 0,3.53125 c 1.505298,0.749421 2.5625,2.283953 2.5625,4.0625 0,2.513571 -2.050607,4.5625 -4.59375,4.5625 -2.543143,0 -4.625,-2.048929 -4.625,-4.5625 0,-1.778547 1.057202,-3.313079 2.5625,-4.0625 l 0,-3.53125 -8.1875,0 0,3.53125 c 1.505298,0.749421 2.5625,2.283953 2.5625,4.0625 0,2.513571 -2.081857,4.5625 -4.625,4.5625 -2.543143,0 -4.59375,-2.048929 -4.59375,-4.5625 0,-1.778547 1.057202,-3.313079 2.5625,-4.0625 l 0,-3.53125 -8.1875,0 0,3.53125 c 1.505298,0.749421 2.5625,2.283953 2.5625,4.0625 0,2.513571 -2.081858,4.5625 -4.625,4.5625 -2.543143,0 -4.59375,-2.048929 -4.59375,-4.5625 0,-1.778547 1.057202,-3.313079 2.5625,-4.0625 l 0,-3.53125 -8.1875,0 0,3.53125 c 1.505298,0.749421 2.5625,2.283953 2.5625,4.0625 0,2.513571 -2.081857,4.5625 -4.625,4.5625 -2.543143,0 -4.59375,-2.048929 -4.59375,-4.5625 0,-1.778547 1.057202,-3.313079 2.5625,-4.0625 L 15.25,7 12,7 z"
       inkscape:connector-curvature="0"
       id="path2961"
       style="opacity:0.3;fill:url(#linearGradient3779);fill-opacity:1;fill-rule:nonzero;stroke:none" />
    <path
       d="M 12,7 C 8.676,7 6,9.676 6,13 l 0,72 c 0,3.324 2.676,6 6,6 l 72,0 c 3.324,0 6,-2.676 6,-6 L 90,13 C 90,9.676 87.324,7 84,7 l -4,0 0,3.5 c 1.470291,0.740605 2.5,2.242377 2.5,4 0,2.484 -2.016,4.5 -4.5,4.5 -2.484,0 -4.5,-2.016 -4.5,-4.5 0,-1.757623 1.029709,-3.259395 2.5,-4 l 0,-3.5 -8,0 0,3.5 c 1.470291,0.740605 2.5,2.242377 2.5,4 0,2.484 -2.016,4.5 -4.5,4.5 -2.484,0 -4.5,-2.016 -4.5,-4.5 0,-1.757623 1.029709,-3.259395 2.5,-4 l 0,-3.5 -8,0 0,3.5 c 1.470291,0.740605 2.5,2.242377 2.5,4 0,2.484 -2.016,4.5 -4.5,4.5 -2.484,0 -4.5,-2.016 -4.5,-4.5 0,-1.757623 1.029709,-3.259395 2.5,-4 l 0,-3.5 -8,0 0,3.5 c 1.470291,0.740605 2.5,2.242377 2.5,4 0,2.484 -2.016,4.5 -4.5,4.5 -2.484,0 -4.5,-2.016 -4.5,-4.5 0,-1.757623 1.029709,-3.259395 2.5,-4 l 0,-3.5 -8,0 0,3.5 c 1.470291,0.740605 2.5,2.242377 2.5,4 0,2.484 -2.016,4.5 -4.5,4.5 -2.484,0 -4.5,-2.016 -4.5,-4.5 0,-1.757623 1.029709,-3.259395 2.5,-4 l 0,-3.5 -8,0 0,3.5 c 1.470291,0.740605 2.5,2.242377 2.5,4 0,2.484 -2.016,4.5 -4.5,4.5 -2.484,0 -4.5,-2.016 -4.5,-4.5 0,-1.757623 1.029709,-3.259395 2.5,-4 L 16,7 12,7 z"
       inkscape:connector-curvature="0"
       id="path3781"
       style="opacity:0.45;fill:url(#linearGradient3786);fill-opacity:1;fill-rule:nonzero;stroke:none" />
    <path
       d="M 12,6.03125 C 7.6091626,6.03125 4.03125,9.6091626 4.03125,14 l 0,71 c 0,4.390837 3.5779126,7.96875 7.96875,7.96875 l 72,0 c 4.390837,0 7.96875,-3.577913 7.96875,-7.96875 l 0,-71 C 91.96875,9.6091626 88.390837,6.03125 84,6.03125 l -3.25,0 A 0.955629,0.955629 0 0 0 79.78125,7 l 0,3.53125 A 0.955629,0.955629 0 0 0 80.3125,11.375 c 1.199222,0.597039 2.03125,1.818861 2.03125,3.21875 0,1.993879 -1.595085,3.59375 -3.625,3.59375 -2.029915,0 -3.65625,-1.607791 -3.65625,-3.59375 0,-1.399889 0.832028,-2.621711 2.03125,-3.21875 A 0.955629,0.955629 0 0 0 77.625,10.53125 L 77.625,7 A 0.955629,0.955629 0 0 0 76.65625,6.03125 l -8.1875,0 A 0.955629,0.955629 0 0 0 67.5,7 l 0,3.53125 a 0.955629,0.955629 0 0 0 0.53125,0.84375 c 1.199222,0.597039 2.03125,1.818861 2.03125,3.21875 0,1.993879 -1.595085,3.59375 -3.625,3.59375 -2.029913,0 -3.65625,-1.607791 -3.65625,-3.59375 0,-1.399889 0.832028,-2.621711 2.03125,-3.21875 a 0.955629,0.955629 0 0 0 0.53125,-0.84375 L 65.34375,7 A 0.955629,0.955629 0 0 0 64.375,6.03125 l -8.1875,0 A 0.955629,0.955629 0 0 0 55.21875,7 l 0,3.53125 A 0.955629,0.955629 0 0 0 55.75,11.375 c 1.199222,0.597039 2.03125,1.818861 2.03125,3.21875 0,1.993879 -1.595085,3.59375 -3.625,3.59375 -2.029915,0 -3.65625,-1.607791 -3.65625,-3.59375 0,-1.399889 0.832028,-2.621711 2.03125,-3.21875 A 0.955629,0.955629 0 0 0 53.0625,10.53125 L 53.0625,7 A 0.955629,0.955629 0 0 0 52.09375,6.03125 l -8.1875,0 A 0.955629,0.955629 0 0 0 42.9375,7 l 0,3.53125 a 0.955629,0.955629 0 0 0 0.53125,0.84375 c 1.199222,0.597039 2.03125,1.818861 2.03125,3.21875 0,1.985959 -1.626335,3.59375 -3.65625,3.59375 -2.029915,0 -3.625,-1.599871 -3.625,-3.59375 0,-1.399889 0.832028,-2.621711 2.03125,-3.21875 a 0.955629,0.955629 0 0 0 0.53125,-0.84375 L 40.78125,7 A 0.955629,0.955629 0 0 0 39.8125,6.03125 l -8.1875,0 A 0.955629,0.955629 0 0 0 30.65625,7 l 0,3.53125 A 0.955629,0.955629 0 0 0 31.1875,11.375 c 1.199222,0.597039 2.03125,1.818861 2.03125,3.21875 0,1.985959 -1.626337,3.59375 -3.65625,3.59375 -2.029915,0 -3.625,-1.599871 -3.625,-3.59375 0,-1.399889 0.832028,-2.621711 2.03125,-3.21875 A 0.955629,0.955629 0 0 0 28.5,10.53125 L 28.5,7 A 0.955629,0.955629 0 0 0 27.53125,6.03125 l -8.1875,0 A 0.955629,0.955629 0 0 0 18.375,7 l 0,3.53125 a 0.955629,0.955629 0 0 0 0.53125,0.84375 c 1.199222,0.597039 2.03125,1.818861 2.03125,3.21875 0,1.985959 -1.626335,3.59375 -3.65625,3.59375 -2.029915,0 -3.625,-1.599871 -3.625,-3.59375 0,-1.399889 0.832028,-2.621711 2.03125,-3.21875 a 0.955629,0.955629 0 0 0 0.53125,-0.84375 L 16.21875,7 A 0.955629,0.955629 0 0 0 15.25,6.03125 l -3.25,0 z"
       id="path3792"
       style="opacity:0.15;fill:url(#linearGradient3794);fill-opacity:1;fill-rule:nonzero;stroke:none" />
    <path
       d="M 12,5 C 6.517113,4.8372377 2.2743415,10.246897 3,15.518889 3.0310699,38.984167 2.937795,62.452616 3.046752,85.915907 3.437013,91.177878 8.7605277,94.678026 13.772037,94 37.486265,93.96892 61.203666,94.06221 84.915907,93.95325 90.177878,93.562987 93.678026,88.239472 93,83.227963 92.968931,59.847068 93.062204,36.463001 92.953248,13.084093 92.562987,7.8221216 87.239472,4.3219737 82.227963,5 80.693824,4.6872529 78.552448,5.3363878 78.75,7.2531482 c 0.224121,1.6435449 -0.700479,4.0831528 1.125,5.0281018 5.178641,3.401619 -4.621409,7.77131 -3.677467,1.595936 0.488417,-1.496372 2.882779,-1.913998 2.458717,-3.852232 -0.121979,-1.7118672 0.649566,-4.4211695 -1.625,-4.993704 -3.090776,0.035211 -6.255859,-0.2240392 -9.3125,0.125 -2.070773,1.0704447 -1.005692,3.804248 -1.21875,5.65625 0.307784,1.807323 3.218034,2.044863 2.481093,4.30775 -1.524417,5.24533 -8.338137,-0.995549 -3.387343,-3.05775 1.466276,-1.342226 0.531716,-3.6816652 0.75,-5.4375 C 65.659569,4.1795396 62.680465,5.213366 60.830925,5 58.847293,5.2717785 56.508376,4.3842144 54.78125,5.59375 53.665319,7.0939901 54.340582,9.1951775 54.25,10.9375 c 0.414508,1.696213 3.166521,1.976837 2.449843,4.18275 C 55.175425,20.36558 48.361706,14.124701 53.3125,12.0625 54.778776,10.720274 53.844216,8.3808348 54.0625,6.625 53.378319,4.1795396 50.399215,5.213366 48.549675,5 46.566043,5.2717785 44.227126,4.3842144 42.5,5.59375 c -1.115931,1.5002401 -0.440668,3.6014275 -0.53125,5.34375 0.412301,1.6952 3.165202,1.973895 2.448391,4.176784 C 42.85645,20.368226 36.089545,14.133906 41.03125,12.0625 42.497526,10.720274 41.562966,8.3808348 41.78125,6.625 41.097069,4.1795396 38.117965,5.213366 36.268425,5 34.284793,5.2717785 31.945876,4.3842144 30.21875,5.59375 29.102819,7.0939901 29.778082,9.1951775 29.6875,10.9375 c 0.412301,1.6952 3.165202,1.973895 2.448391,4.176784 C 30.575199,20.368226 23.808296,14.133906 28.75,12.0625 30.216276,10.720274 29.281716,8.3808348 29.5,6.625 28.815819,4.1795396 25.836715,5.213366 23.987175,5 22.003543,5.2717785 19.664626,4.3842144 17.9375,5.59375 c -1.115931,1.5002401 -0.440668,3.6014275 -0.53125,5.34375 0.412301,1.6952 3.165202,1.973895 2.448391,4.176784 C 18.29395,20.368226 11.527045,14.133906 16.46875,12.0625 17.935026,10.720274 17.000466,8.3808348 17.21875,6.625 16.617248,4.2128879 13.760418,5.2096077 12,5 z"
       inkscape:connector-curvature="0"
       id="path3800"
       style="opacity:0.1;fill:url(#linearGradient3816);fill-opacity:1;fill-rule:nonzero;stroke:none" />
  </g>
  <g
     id="layer1">
    <path
       d="M 12,6 C 8.676,6 6,8.676 6,12 l 0,72 c 0,3.324 2.676,6 6,6 l 72,0 c 3.324,0 6,-2.676 6,-6 L 90,12 C 90,8.676 87.324,6 84,6 l -4,0 0,3.5 c 1.470291,0.740605 2.5,2.242377 2.5,4 0,2.484 -2.016,4.5 -4.5,4.5 -2.484,0 -4.5,-2.016 -4.5,-4.5 0,-1.757623 1.029709,-3.259395 2.5,-4 L 76,6 68,6 68,9.5 c 1.470291,0.740605 2.5,2.242377 2.5,4 0,2.484 -2.016,4.5 -4.5,4.5 -2.484,0 -4.5,-2.016 -4.5,-4.5 0,-1.757623 1.029709,-3.259395 2.5,-4 L 64,6 56,6 56,9.5 c 1.470291,0.740605 2.5,2.242377 2.5,4 0,2.484 -2.016,4.5 -4.5,4.5 -2.484,0 -4.5,-2.016 -4.5,-4.5 0,-1.757623 1.029709,-3.259395 2.5,-4 L 52,6 44,6 44,9.5 c 1.470291,0.740605 2.5,2.242377 2.5,4 0,2.484 -2.016,4.5 -4.5,4.5 -2.484,0 -4.5,-2.016 -4.5,-4.5 0,-1.757623 1.029709,-3.259395 2.5,-4 L 40,6 32,6 32,9.5 c 1.470291,0.740605 2.5,2.242377 2.5,4 0,2.484 -2.016,4.5 -4.5,4.5 -2.484,0 -4.5,-2.016 -4.5,-4.5 0,-1.757623 1.029709,-3.259395 2.5,-4 L 28,6 20,6 20,9.5 c 1.470291,0.740605 2.5,2.242377 2.5,4 0,2.484 -2.016,4.5 -4.5,4.5 -2.484,0 -4.5,-2.016 -4.5,-4.5 0,-1.757623 1.029709,-3.259395 2.5,-4 L 16,6 12,6 z"
       inkscape:connector-curvature="0"
       id="rect2419"
       style="fill:url(#linearGradient3646);fill-opacity:1;fill-rule:nonzero;stroke:none" />
    <path
       d="M 12,6 C 8.676,6 6,8.676 6,12 l 0,2 0,68 0,2 c 0,0.334721 0.04135,0.6507 0.09375,0.96875 0.0487,0.295596 0.09704,0.596915 0.1875,0.875 0.00988,0.03038 0.020892,0.0636 0.03125,0.09375 0.098865,0.287771 0.2348802,0.547452 0.375,0.8125 0.1445918,0.273507 0.3156161,0.535615 0.5,0.78125 0.1843839,0.245635 0.3737765,0.473472 0.59375,0.6875 0.439947,0.428056 0.94291,0.814526 1.5,1.09375 0.278545,0.139612 0.5734731,0.246947 0.875,0.34375 -0.2562018,-0.100222 -0.4867109,-0.236272 -0.71875,-0.375 -0.00741,-0.0044 -0.023866,0.0045 -0.03125,0 -0.031933,-0.0193 -0.062293,-0.04251 -0.09375,-0.0625 -0.120395,-0.0767 -0.2310226,-0.163513 -0.34375,-0.25 -0.1061728,-0.0808 -0.2132809,-0.161112 -0.3125,-0.25 C 8.4783201,88.557317 8.3087904,88.373362 8.15625,88.1875 8.0486711,88.057245 7.9378561,87.922215 7.84375,87.78125 7.818661,87.74287 7.805304,87.69538 7.78125,87.65625 7.716487,87.553218 7.6510225,87.451733 7.59375,87.34375 7.4927417,87.149044 7.3880752,86.928049 7.3125,86.71875 7.30454,86.69694 7.288911,86.6782 7.28125,86.65625 7.2494249,86.5643 7.2454455,86.469419 7.21875,86.375 7.1884177,86.268382 7.1483606,86.171969 7.125,86.0625 7.0521214,85.720988 7,85.364295 7,85 L 7,83 7,15 7,13 C 7,10.218152 9.2181517,8 12,8 l 2,0 2,0 0,-2 -4,0 z m 8,0 0,2 8,0 0,-2 -8,0 z m 12,0 0,2 8,0 0,-2 -8,0 z m 12,0 0,2 8,0 0,-2 -8,0 z m 12,0 0,2 8,0 0,-2 -8,0 z m 12,0 0,2 8,0 0,-2 -8,0 z m 12,0 0,2 2,0 2,0 c 2.781848,0 5,2.218152 5,5 l 0,2 0,68 0,2 c 0,0.364295 -0.05212,0.720988 -0.125,1.0625 -0.04415,0.206893 -0.08838,0.397658 -0.15625,0.59375 -0.0077,0.02195 -0.0233,0.04069 -0.03125,0.0625 -0.06274,0.173739 -0.138383,0.367449 -0.21875,0.53125 -0.04158,0.0828 -0.07904,0.169954 -0.125,0.25 -0.0546,0.09721 -0.126774,0.18835 -0.1875,0.28125 -0.09411,0.140965 -0.204921,0.275995 -0.3125,0.40625 -0.143174,0.17445 -0.303141,0.346998 -0.46875,0.5 -0.01117,0.0102 -0.01998,0.02115 -0.03125,0.03125 -0.138386,0.125556 -0.285091,0.234436 -0.4375,0.34375 -0.102571,0.07315 -0.204318,0.153364 -0.3125,0.21875 -0.0074,0.0045 -0.02384,-0.0044 -0.03125,0 -0.232039,0.138728 -0.462548,0.274778 -0.71875,0.375 0.301527,-0.0968 0.596455,-0.204138 0.875,-0.34375 0.55709,-0.279224 1.060053,-0.665694 1.5,-1.09375 0.219973,-0.214028 0.409366,-0.441865 0.59375,-0.6875 0.184384,-0.245635 0.355408,-0.507743 0.5,-0.78125 0.14012,-0.265048 0.276135,-0.524729 0.375,-0.8125 0.01041,-0.03078 0.02133,-0.06274 0.03125,-0.09375 0.09046,-0.278085 0.1388,-0.579404 0.1875,-0.875 C 89.95865,84.6507 90,84.334721 90,84 l 0,-2 0,-68 0,-2 C 90,8.676 87.324,6 84,6 l -4,0 z"
       inkscape:connector-curvature="0"
       id="rect3728"
       style="opacity:0.5;fill:url(#linearGradient3188);fill-opacity:1;fill-rule:nonzero;stroke:none" />
    <path
       d="M 12,90 C 8.676,90 6,87.324 6,84 L 6,82 6,14 6,12 c 0,-0.334721 0.04135,-0.6507 0.09375,-0.96875 0.0487,-0.295596 0.09704,-0.596915 0.1875,-0.875 C 6.29113,10.12587 6.302142,10.09265 6.3125,10.0625 6.411365,9.774729 6.5473802,9.515048 6.6875,9.25 6.8320918,8.976493 7.0031161,8.714385 7.1875,8.46875 7.3718839,8.223115 7.5612765,7.995278 7.78125,7.78125 8.221197,7.353194 8.72416,6.966724 9.28125,6.6875 9.559795,6.547888 9.8547231,6.440553 10.15625,6.34375 9.9000482,6.443972 9.6695391,6.580022 9.4375,6.71875 c -0.00741,0.0044 -0.023866,-0.0045 -0.03125,0 -0.031933,0.0193 -0.062293,0.04251 -0.09375,0.0625 -0.120395,0.0767 -0.2310226,0.163513 -0.34375,0.25 -0.1061728,0.0808 -0.2132809,0.161112 -0.3125,0.25 C 8.4783201,7.442683 8.3087904,7.626638 8.15625,7.8125 8.0486711,7.942755 7.9378561,8.077785 7.84375,8.21875 7.818661,8.25713 7.805304,8.30462 7.78125,8.34375 7.716487,8.446782 7.6510225,8.548267 7.59375,8.65625 7.4927417,8.850956 7.3880752,9.071951 7.3125,9.28125 7.30454,9.30306 7.288911,9.3218 7.28125,9.34375 7.2494249,9.4357 7.2454455,9.530581 7.21875,9.625 7.1884177,9.731618 7.1483606,9.828031 7.125,9.9375 7.0521214,10.279012 7,10.635705 7,11 l 0,2 0,68 0,2 c 0,2.781848 2.2181517,5 5,5 l 2,0 68,0 2,0 c 2.781848,0 5,-2.218152 5,-5 l 0,-2 0,-68 0,-2 C 89,10.635705 88.94788,10.279012 88.875,9.9375 88.83085,9.730607 88.78662,9.539842 88.71875,9.34375 88.71105,9.3218 88.69545,9.30306 88.6875,9.28125 88.62476,9.107511 88.549117,8.913801 88.46875,8.75 88.42717,8.6672 88.38971,8.580046 88.34375,8.5 88.28915,8.40279 88.216976,8.31165 88.15625,8.21875 88.06214,8.077785 87.951329,7.942755 87.84375,7.8125 87.700576,7.63805 87.540609,7.465502 87.375,7.3125 87.36383,7.3023 87.35502,7.29135 87.34375,7.28125 87.205364,7.155694 87.058659,7.046814 86.90625,6.9375 86.803679,6.86435 86.701932,6.784136 86.59375,6.71875 c -0.0074,-0.0045 -0.02384,0.0044 -0.03125,0 -0.232039,-0.138728 -0.462548,-0.274778 -0.71875,-0.375 0.301527,0.0968 0.596455,0.204138 0.875,0.34375 0.55709,0.279224 1.060053,0.665694 1.5,1.09375 0.219973,0.214028 0.409366,0.441865 0.59375,0.6875 0.184384,0.245635 0.355408,0.507743 0.5,0.78125 0.14012,0.265048 0.276135,0.524729 0.375,0.8125 0.01041,0.03078 0.02133,0.06274 0.03125,0.09375 0.09046,0.278085 0.1388,0.579404 0.1875,0.875 C 89.95865,11.3493 90,11.665279 90,12 l 0,2 0,68 0,2 c 0,3.324 -2.676,6 -6,6 l -72,0 z"
       inkscape:connector-curvature="0"
       id="path3615"
       style="opacity:0.6;fill:url(#radialGradient2855);fill-opacity:1;fill-rule:nonzero;stroke:none" />
    <path
       d="m 52.966009,46.384441 c 0.178699,0.201865 0.653084,0.650032 1.423184,1.344474 10.809772,10.765308 16.005581,16.792968 15.587449,18.082997 -0.300521,0.948926 -1.166756,1.753576 -2.598706,2.413951 -1.429587,0.621957 -2.717521,0.903985 -3.8638,0.846082 -0.907558,-0.04583 -5.216688,-4.58257 -12.927398,-13.61025 -1.555866,-1.891042 -2.469675,-2.959126 -2.741428,-3.20426 -1.129743,1.177005 -2.81847,3.598351 -5.066184,7.264042 -2.197536,3.629698 -3.723568,6.50274 -4.578096,8.619133 1.494538,-0.888599 2.719456,-1.30878 3.674758,-1.260547 0.47761,0.02413 0.794694,0.310092 0.951252,0.857878 0.206734,0.511779 0.218742,1.071556 0.03603,1.679337 -0.170449,0.415599 -1.323259,1.205776 -3.45845,2.370531 -1.537419,0.809323 -2.508264,1.37731 -2.912549,1.70396 -1.250831,0.823793 -2.115374,1.975601 -2.593638,3.455423 -0.665979,2.16449 -2.360226,3.177986 -5.082744,3.040489 -1.432923,-0.07237 -2.313309,-0.54103 -2.641158,-1.405986 -0.327869,-0.864959 -0.193794,-2.20791 0.402225,-4.028864 1.144233,-3.644309 6.647093,-12.486676 16.508606,-26.527122 -0.05609,-0.619821 -1.469095,-2.870024 -4.238986,-6.750613 -2.769937,-3.880521 -4.969025,-6.575343 -6.597258,-8.084469 -1.764166,-1.631597 -2.498472,-2.883433 -2.202921,-3.755516 0.665946,-2.164442 2.766183,-3.157435 6.30072,-2.978977 1.719474,0.0869 4.784146,3.481006 9.194028,10.182358 1.883658,2.75606 3.117473,4.43804 3.701447,5.04595 1.016886,-0.912694 2.466474,-2.594127 4.348758,-5.044301 1.884676,-2.488532 3.18805,-4.505139 3.910124,-6.049828 0.714592,-1.429276 1.841839,-2.567815 3.381741,-3.415622 1.539815,-0.847707 3.002317,-1.236608 4.387514,-1.166702 2.149318,0.108591 2.927234,1.054134 2.333746,2.836594 -0.666011,2.164538 -4.541284,6.92424 -11.625829,14.279118 -1.847764,1.912021 -2.851902,2.998934 -3.012418,3.26074"
       inkscape:connector-curvature="0"
       id="text1485-8"
       style="font-size:62.90097427px;font-style:italic;font-variant:normal;font-weight:normal;font-stretch:normal;text-align:start;line-height:125%;writing-mode:lr-tb;text-anchor:start;opacity:0.9;fill:url(#linearGradient4167);fill-opacity:1;stroke:none;font-family:Andy MT" />
  </g>
  <g
     id="layer3"
     style="display:inline">
    <path
       d="m 100.25085,29.749688 c 0,0 -0.24013,0.147954 -0.2466,0.152032 -1.91413,-0.29277 -7.195521,0.911613 -21.815671,10.519583 -0.01299,-0.01637 -0.106074,-0.118318 -0.106074,-0.118318 l -0.577427,0.392142 c 0.06463,0.07623 0.122536,0.152144 0.186111,0.228593 -9.752609,6.078691 -20.271669,13.297387 -21.111692,13.874325 -5.61e-4,-0.0011 -0.01797,-0.03404 -0.01795,-0.03407 l -0.0099,-0.06012 -0.04208,0.04405 c -5.04e-4,-0.0013 -0.01795,-0.03408 -0.01795,-0.03408 l -0.763901,0.534216 c 0.0057,0.01107 0.01225,0.023 0.01795,0.03407 l -0.03403,0.01801 0.01795,0.03408 c 2.9e-5,5.5e-5 0.0337,0.06347 0.03601,0.06816 -9.130156,7.158434 -14.95685,12.690832 -14.845966,13.441688 0.149164,1.010026 17.551468,-8.029539 18.283322,-8.501405 0.02452,0.02613 0.150036,0.160333 0.150113,0.160436 l 0.026,0.008 0.8401,-0.59625 -0.01796,-0.03407 c -1.2e-4,-1.12e-4 -0.0566,-0.07086 -0.06199,-0.07618 1.753038,-1.012948 11.334596,-6.587701 21.479715,-13.21878 0.122224,0.214489 0.233987,0.443029 0.233987,0.443029 l 0.577426,-0.392141 c -0.01577,-0.032 -0.03746,-0.06962 -0.05395,-0.102229 0.753038,-0.444553 16.637715,-9.84466 18.862007,-14.255185 0.20235,-0.112061 0.28623,-0.167809 0.48515,-0.278025 0,0 0.17913,-1.584127 -1.47245,-2.251506 z"
       inkscape:connector-curvature="0"
       id="path3902"
       style="opacity:0.25;fill:url(#linearGradient3007);fill-opacity:1" />
    <g
       transform="matrix(0.77030699,0.12230296,-0.12230296,0.77030699,140.2074,-59.200558)"
       id="g3861"
       style="display:inline">
      <g
         transform="matrix(0.21052296,0,0,0.21052296,-139.34468,79.702555)"
         id="g4820">
        <path
           d="m 279.476,404.243 c -0.007,-0.004 -7.446,-4.112 -16.804,-11.401 l 0,0 c -8.082,-6.285 -13.538,-12.214 -13.544,-12.22 l 0,0 -0.122,-0.133 3.646,-4.669 0.157,-0.205 0.169,0.197 c 0.017,0.01 5.4,6.295 13.725,12.78 l 0,0 c 7.913,6.157 16.594,10.586 16.612,10.595 l 0,0 0.229,0.117 -3.911,5.026 -0.157,-0.087 0,0 z m -16.542,-11.737 c 8.545,6.656 15.469,10.644 16.589,11.275 l 0,0 3.372,-4.334 c -1.423,-0.743 -9.253,-4.919 -16.453,-10.521 l 0,0 c -7.504,-5.845 -12.637,-11.533 -13.614,-12.645 l 0,0 -3.264,4.184 c 0.849,0.905 6.01,6.32 13.37,12.041 l 0,0 z"
           inkscape:connector-curvature="0"
           id="path4824"
           style="fill:#4d4d4d" />
      </g>
      <path
         d="m -80.520491,164.42315 c 0,0 11.20545,-12.0216 22.173568,-25.25929 l 0.479092,0.14793 c 0,0 22.746706,-24.92865 17.182764,-26.94694 0,0 -2.781971,-5.50939 -24.601354,21.00116 l -0.04196,0.39783 c -10.067183,11.61004 -21.252943,25.76582 -21.252943,25.76582 -8.640035,12.42004 -13.770056,21.60008 -13.345768,22.48723 0.576731,1.20589 19.440079,-17.47293 19.4066,-17.59374 z"
         inkscape:connector-curvature="0"
         id="path3254"
         style="fill:url(#radialGradient3890);fill-opacity:1;fill-rule:evenodd;stroke:#07213e;stroke-width:0.64106208;stroke-linecap:butt;stroke-linejoin:miter;stroke-miterlimit:4;stroke-opacity:1;stroke-dasharray:none" />
      <path
         d="m -86.947753,159.76108 c 2.449296,2.50716 6.441455,5.05288 6.441455,5.05288 l 0.790716,-1.00286 c -2.709026,-1.41579 -6.480025,-5.0143 -6.480025,-5.0143 l -0.752146,0.96428 z"
         inkscape:connector-curvature="0"
         id="path2430"
         style="fill:url(#radialGradient3892);fill-opacity:1;fill-rule:evenodd;stroke:none" />
      <path
         d="m -65.762308,133.68669 c 4.320018,2.75787 7.714317,6.09431 7.714317,6.09431 l 0.578572,-0.675 c -2.304024,-2.43794 -7.723275,-6.12627 -7.723275,-6.12627 l -0.569614,0.70696 z"
         inkscape:connector-curvature="0"
         id="path3236"
         style="fill:url(#radialGradient3894);fill-opacity:1;fill-rule:evenodd;stroke:none" />
      <path
         d="m -42.031143,111.66232 c 2.275724,0.19285 2.661442,2.19858 2.661442,2.19858 -10.375759,10.80004 -25.572963,26.49868 -25.572963,26.49868 l -0.771432,-0.65572 c 13.384341,-16.04578 23.682953,-28.04154 23.682953,-28.04154"
         inkscape:connector-curvature="0"
         id="path3240"
         style="fill:url(#radialGradient3896);fill-opacity:1;fill-rule:evenodd;stroke:none" />
    </g>
    <path
       d="m 109.95771,52.357972 c 0,0 -0.2761,0.05757 -0.28358,0.05921 -1.70079,-0.925703 -7.07719,-1.587379 -24.092038,2.481663 -0.0067,-0.0198 -0.05957,-0.147319 -0.05957,-0.147319 l -0.676312,0.172626 c 0.03489,0.09365 0.06356,0.184727 0.09737,0.278229 -11.237749,2.403517 -23.583681,5.618813 -24.569754,5.876022 -1.32e-4,-0.0012 -0.0053,-0.03811 -0.0053,-0.03814 l 0.0111,-0.0599 -0.05454,0.02713 c -1.7e-5,-0.0014 -0.0053,-0.03813 -0.0053,-0.03813 l -0.899964,0.242889 c 0.0016,0.01234 0.0038,0.0258 0.0053,0.03814 l -0.03814,0.0054 0.0053,0.03814 c 8e-6,6.2e-5 0.01014,0.07114 0.0107,0.07634 -11.01918,3.630515 -18.378948,6.854114 -18.529771,7.597975 -0.202878,1.000623 19.235486,-1.588561 20.084125,-1.7837 0.01418,0.0329 0.08664,0.201771 0.08667,0.201895 l 0.02172,0.0164 0.992708,-0.275348 -0.0053,-0.03814 c -7.3e-5,-1.47e-4 -0.02917,-0.08588 -0.03242,-0.09271 1.992914,-0.357073 12.898567,-2.344749 24.693155,-5.134434 0.04208,0.243256 0.06954,0.496172 0.06954,0.496172 l 0.676312,-0.172625 c -0.004,-0.03545 -0.01157,-0.07822 -0.01601,-0.114475 0.859296,-0.162283 18.992809,-3.606194 22.583309,-6.998615 0.2284,-0.03664 0.32621,-0.06058 0.55076,-0.09665 0,0 0.70669,-1.42903 -0.61989,-2.617848 z"
       inkscape:connector-curvature="0"
       id="path3944"
       style="opacity:0.4;fill:url(#linearGradient3946);fill-opacity:1" />
  </g>
</svg>
