<?xml version="1.0" encoding="UTF-8" standalone="no"?>
<!-- Created with Inkscape (http://www.inkscape.org/) -->

<svg
   xmlns:dc="http://purl.org/dc/elements/1.1/"
   xmlns:cc="http://creativecommons.org/ns#"
   xmlns:rdf="http://www.w3.org/1999/02/22-rdf-syntax-ns#"
   xmlns:svg="http://www.w3.org/2000/svg"
   xmlns="http://www.w3.org/2000/svg"
   xmlns:xlink="http://www.w3.org/1999/xlink"
   xmlns:inkscape="http://www.inkscape.org/namespaces/inkscape"
   version="1.0"
   width="96"
   height="96"
   id="svg2408"
   style="display:inline">
  <defs
     id="defs2410">
    <linearGradient
       x1="11"
       y1="3.9374998"
       x2="11"
       y2="18.083122"
       id="linearGradient3904"
       gradientUnits="userSpaceOnUse">
      <stop
         id="stop3906"
         style="stop-color:#323232;stop-opacity:1"
         offset="0" />
      <stop
         id="stop3908"
         style="stop-color:#787878;stop-opacity:1"
         offset="1" />
    </linearGradient>
    <clipPath
       id="clipPath3266">
      <path
         d="M 0,0 0,96 96,96 96,0 0,0 z m 12,6 72,0 c 3.324,0 6,2.676 6,6 l 0,72 c 0,3.324 -2.676,6 -6,6 L 12,90 C 8.676,90 6,87.324 6,84 L 6,12 C 6,8.676 8.676,6 12,6 z"
         inkscape:connector-curvature="0"
         id="path3268"
         style="opacity:0.3;color:#000000;fill:#ff0000;fill-opacity:1;fill-rule:nonzero;stroke:none;stroke-width:4;marker:none;visibility:visible;display:inline;overflow:visible;enable-background:accumulate" />
    </clipPath>
    <linearGradient
       x1="32.251034"
       y1="6.1317081"
       x2="32.251034"
       y2="90.238609"
       id="linearGradient3101"
       xlink:href="#ButtonShadow-0-5"
       gradientUnits="userSpaceOnUse"
       gradientTransform="matrix(1.0238095,0,0,1.0119048,-1.1428571,-98.071429)" />
    <linearGradient
       x1="45.447727"
       y1="92.539597"
       x2="45.447727"
       y2="7.0165396"
       id="ButtonShadow-0-5"
       gradientUnits="userSpaceOnUse"
       gradientTransform="matrix(1.0058652,0,0,0.994169,100,0)">
      <stop
         id="stop3750-8-9"
         style="stop-color:#000000;stop-opacity:1"
         offset="0" />
      <stop
         id="stop3752-5-7"
         style="stop-color:#000000;stop-opacity:0.58823532"
         offset="1" />
    </linearGradient>
    <linearGradient
       x1="32.251034"
       y1="6.1317081"
       x2="32.251034"
       y2="90.238609"
       id="linearGradient3780-7"
       xlink:href="#ButtonShadow-0-5"
       gradientUnits="userSpaceOnUse"
       gradientTransform="matrix(1.0238095,0,0,1.0119048,-1.1428571,-98.071429)" />
    <linearGradient
       x1="32.251034"
       y1="6.1317081"
       x2="32.251034"
       y2="90.238609"
       id="linearGradient3772-6"
       xlink:href="#ButtonShadow-0-5"
       gradientUnits="userSpaceOnUse"
       gradientTransform="matrix(1.0238095,0,0,1.0119048,-1.1428571,-98.071429)" />
    <linearGradient
       x1="32.251034"
       y1="6.1317081"
       x2="32.251034"
       y2="90.238609"
       id="linearGradient3725-7"
       xlink:href="#ButtonShadow-0-5"
       gradientUnits="userSpaceOnUse"
       gradientTransform="matrix(1.0238095,0,0,1.0119048,-1.1428571,-98.071429)" />
    <linearGradient
       x1="48"
       y1="90"
       x2="48"
       y2="5.9877172"
       id="linearGradient3052"
       xlink:href="#ButtonColor-6"
       gradientUnits="userSpaceOnUse" />
    <linearGradient
       x1="10.31979"
       y1="21"
       x2="10.31979"
       y2="0.99929649"
       id="ButtonColor-6"
       gradientUnits="userSpaceOnUse">
      <stop
         id="stop3189-4"
         style="stop-color:#c8c8c8;stop-opacity:1"
         offset="0" />
      <stop
         id="stop3191-0"
         style="stop-color:#e6e6e6;stop-opacity:1"
         offset="1" />
    </linearGradient>
    <linearGradient
       x1="36.357143"
       y1="6"
       x2="36.357143"
       y2="63.893143"
       id="linearGradient3188-6"
       xlink:href="#linearGradient3737-5"
       gradientUnits="userSpaceOnUse" />
    <linearGradient
       id="linearGradient3737-5">
      <stop
         id="stop3739-6"
         style="stop-color:#ffffff;stop-opacity:1"
         offset="0" />
      <stop
         id="stop3741-3"
         style="stop-color:#ffffff;stop-opacity:0"
         offset="1" />
    </linearGradient>
    <radialGradient
       cx="48"
       cy="90.171875"
       r="42"
       fx="48"
       fy="90.171875"
       id="radialGradient3619-9"
       xlink:href="#linearGradient3737-5"
       gradientUnits="userSpaceOnUse"
       gradientTransform="matrix(1.1573129,0,0,0.99590774,-7.551021,0.1971319)" />
    <linearGradient
       x1="32.251034"
       y1="6.1317081"
       x2="32.251034"
       y2="90.238609"
       id="linearGradient4256"
       xlink:href="#ButtonShadow-0-5"
       gradientUnits="userSpaceOnUse"
       gradientTransform="translate(0,-97)" />
    <linearGradient
       x1="56"
       y1="16"
       x2="56"
       y2="80"
       id="linearGradient3915"
       xlink:href="#linearGradient3904"
       gradientUnits="userSpaceOnUse" />
    <filter
       color-interpolation-filters="sRGB"
       id="filter3951">
      <feGaussianBlur
         id="feGaussianBlur3953"
         stdDeviation="0.98454545" />
    </filter>
  </defs>
  <metadata
     id="metadata2413">
    <rdf:RDF>
      <cc:Work
         rdf:about="">
        <dc:format>image/svg+xml</dc:format>
        <dc:type
           rdf:resource="http://purl.org/dc/dcmitype/StillImage" />
        <dc:title />
      </cc:Work>
    </rdf:RDF>
  </metadata>
  <g
     id="layer1">
    <g
       clip-path="url(#clipPath3266)"
       id="g3202"
       style="display:inline">
      <path
         d="m 12,-95.03125 c -5.5110903,0 -10.03125,4.52016 -10.03125,10.03125 l 0,71 c 0,5.5110902 4.5201598,10.03125 10.03125,10.03125 l 72,0 c 5.51109,0 10.03125,-4.5201597 10.03125,-10.03125 l 0,-71 c 0,-5.51109 -4.52016,-10.03125 -10.03125,-10.03125 l -72,0 z"
         transform="scale(1,-1)"
         id="path3786"
         style="opacity:0.07999998;fill:url(#linearGradient3101);fill-opacity:1;fill-rule:nonzero;stroke:none;display:inline" />
      <path
         d="m 12,-94.03125 c -4.971633,0 -9.03125,4.059617 -9.03125,9.03125 l 0,71 c 0,4.9716329 4.0596171,9.03125 9.03125,9.03125 l 72,0 c 4.971633,0 9.03125,-4.059617 9.03125,-9.03125 l 0,-71 c 0,-4.971633 -4.059617,-9.03125 -9.03125,-9.03125 l -72,0 z"
         transform="scale(1,-1)"
         id="path3778"
         style="opacity:0.1;fill:url(#linearGradient3780-7);fill-opacity:1;fill-rule:nonzero;stroke:none;display:inline" />
      <path
         d="m 12,-93 c -4.4091333,0 -8,3.590867 -8,8 l 0,71 c 0,4.4091333 3.5908667,8 8,8 l 72,0 c 4.409133,0 8,-3.5908667 8,-8 l 0,-71 c 0,-4.409133 -3.590867,-8 -8,-8 l -72,0 z"
         transform="scale(1,-1)"
         id="path3770"
         style="opacity:0.2;fill:url(#linearGradient3772-6);fill-opacity:1;fill-rule:nonzero;stroke:none;display:inline" />
      <rect
         width="86"
         height="85"
         rx="7"
         ry="7"
         x="5"
         y="-92"
         transform="scale(1,-1)"
         id="rect3723"
         style="opacity:0.3;fill:url(#linearGradient3725-7);fill-opacity:1;fill-rule:nonzero;stroke:none;display:inline" />
      <rect
         width="84"
         height="84"
         rx="6"
         ry="6"
         x="6"
         y="-91"
         transform="scale(1,-1)"
         id="rect3716"
         style="opacity:0.45;fill:url(#linearGradient4256);fill-opacity:1;fill-rule:nonzero;stroke:none;display:inline" />
    </g>
    <rect
       width="84"
       height="84"
       rx="6"
       ry="6"
       x="6"
       y="6"
       id="rect2419"
       style="opacity:0.75;fill:url(#linearGradient3052);fill-opacity:1;fill-rule:nonzero;stroke:none;display:inline" />
    <path
       d="M 12,6 C 8.676,6 6,8.676 6,12 l 0,2 0,68 0,2 c 0,0.334721 0.04135,0.6507 0.09375,0.96875 0.0487,0.295596 0.09704,0.596915 0.1875,0.875 0.00988,0.03038 0.020892,0.0636 0.03125,0.09375 0.098865,0.287771 0.2348802,0.547452 0.375,0.8125 0.1445918,0.273507 0.3156161,0.535615 0.5,0.78125 0.1843839,0.245635 0.3737765,0.473472 0.59375,0.6875 0.439947,0.428056 0.94291,0.814526 1.5,1.09375 0.278545,0.139612 0.5734731,0.246947 0.875,0.34375 -0.2562018,-0.100222 -0.4867109,-0.236272 -0.71875,-0.375 -0.00741,-0.0044 -0.023866,0.0045 -0.03125,0 -0.031933,-0.0193 -0.062293,-0.04251 -0.09375,-0.0625 -0.120395,-0.0767 -0.2310226,-0.163513 -0.34375,-0.25 -0.1061728,-0.0808 -0.2132809,-0.161112 -0.3125,-0.25 C 8.4783201,88.557317 8.3087904,88.373362 8.15625,88.1875 8.0486711,88.057245 7.9378561,87.922215 7.84375,87.78125 7.818661,87.74287 7.805304,87.69538 7.78125,87.65625 7.716487,87.553218 7.6510225,87.451733 7.59375,87.34375 7.4927417,87.149044 7.3880752,86.928049 7.3125,86.71875 7.30454,86.69694 7.288911,86.6782 7.28125,86.65625 7.2494249,86.5643 7.2454455,86.469419 7.21875,86.375 7.188418,86.268382 7.148361,86.171969 7.125,86.0625 7.052121,85.720988 7,85.364295 7,85 L 7,83 7,15 7,13 C 7,10.218152 9.2181517,8 12,8 l 2,0 68,0 2,0 c 2.781848,0 5,2.218152 5,5 l 0,2 0,68 0,2 c 0,0.364295 -0.05212,0.720988 -0.125,1.0625 -0.04415,0.206893 -0.08838,0.397658 -0.15625,0.59375 -0.0077,0.02195 -0.0233,0.04069 -0.03125,0.0625 -0.06274,0.173739 -0.138383,0.367449 -0.21875,0.53125 -0.04158,0.0828 -0.07904,0.169954 -0.125,0.25 -0.0546,0.09721 -0.126774,0.18835 -0.1875,0.28125 -0.09411,0.140965 -0.204921,0.275995 -0.3125,0.40625 -0.143174,0.17445 -0.303141,0.346998 -0.46875,0.5 -0.01117,0.0102 -0.01998,0.02115 -0.03125,0.03125 -0.138386,0.125556 -0.285091,0.234436 -0.4375,0.34375 -0.102571,0.07315 -0.204318,0.153364 -0.3125,0.21875 -0.0074,0.0045 -0.02384,-0.0044 -0.03125,0 -0.232039,0.138728 -0.462548,0.274778 -0.71875,0.375 0.301527,-0.0968 0.596455,-0.204138 0.875,-0.34375 0.55709,-0.279224 1.060053,-0.665694 1.5,-1.09375 0.219973,-0.214028 0.409366,-0.441865 0.59375,-0.6875 0.184384,-0.245635 0.355408,-0.507743 0.5,-0.78125 0.14012,-0.265048 0.276135,-0.524729 0.375,-0.8125 0.01041,-0.03078 0.02133,-0.06274 0.03125,-0.09375 0.09046,-0.278085 0.1388,-0.579404 0.1875,-0.875 C 89.95865,84.6507 90,84.334721 90,84 l 0,-2 0,-68 0,-2 C 90,8.676 87.324,6 84,6 L 12,6 z"
       inkscape:connector-curvature="0"
       id="rect3728"
       style="opacity:0.5;fill:url(#linearGradient3188-6);fill-opacity:1;fill-rule:nonzero;stroke:none;display:inline" />
    <path
       d="M 12,90 C 8.676,90 6,87.324 6,84 L 6,82 6,14 6,12 c 0,-0.334721 0.04135,-0.6507 0.09375,-0.96875 0.0487,-0.295596 0.09704,-0.596915 0.1875,-0.875 C 6.29113,10.12587 6.302142,10.09265 6.3125,10.0625 6.411365,9.774729 6.5473802,9.515048 6.6875,9.25 6.8320918,8.976493 7.0031161,8.714385 7.1875,8.46875 7.3718839,8.223115 7.5612765,7.995278 7.78125,7.78125 8.221197,7.353194 8.72416,6.966724 9.28125,6.6875 9.559795,6.547888 9.8547231,6.440553 10.15625,6.34375 9.9000482,6.443972 9.6695391,6.580022 9.4375,6.71875 c -0.00741,0.0044 -0.023866,-0.0045 -0.03125,0 -0.031933,0.0193 -0.062293,0.04251 -0.09375,0.0625 -0.120395,0.0767 -0.2310226,0.163513 -0.34375,0.25 -0.1061728,0.0808 -0.2132809,0.161112 -0.3125,0.25 C 8.4783201,7.442683 8.3087904,7.626638 8.15625,7.8125 8.0486711,7.942755 7.9378561,8.077785 7.84375,8.21875 7.818661,8.25713 7.805304,8.30462 7.78125,8.34375 7.716487,8.446782 7.6510225,8.548267 7.59375,8.65625 7.4927417,8.850956 7.3880752,9.071951 7.3125,9.28125 7.30454,9.30306 7.288911,9.3218 7.28125,9.34375 7.2494249,9.4357 7.2454455,9.530581 7.21875,9.625 7.188418,9.731618 7.148361,9.828031 7.125,9.9375 7.052121,10.279012 7,10.635705 7,11 l 0,2 0,68 0,2 c 0,2.781848 2.2181517,5 5,5 l 2,0 68,0 2,0 c 2.781848,0 5,-2.218152 5,-5 l 0,-2 0,-68 0,-2 C 89,10.635705 88.94788,10.279012 88.875,9.9375 88.83085,9.730607 88.78662,9.539842 88.71875,9.34375 88.71105,9.3218 88.69545,9.30306 88.6875,9.28125 88.62476,9.107511 88.549117,8.913801 88.46875,8.75 88.42717,8.6672 88.38971,8.580046 88.34375,8.5 88.28915,8.40279 88.216976,8.31165 88.15625,8.21875 88.06214,8.077785 87.951329,7.942755 87.84375,7.8125 87.700576,7.63805 87.540609,7.465502 87.375,7.3125 87.36383,7.3023 87.35502,7.29135 87.34375,7.28125 87.205364,7.155694 87.058659,7.046814 86.90625,6.9375 86.803679,6.86435 86.701932,6.784136 86.59375,6.71875 c -0.0074,-0.0045 -0.02384,0.0044 -0.03125,0 -0.232039,-0.138728 -0.462548,-0.274778 -0.71875,-0.375 0.301527,0.0968 0.596455,0.204138 0.875,0.34375 0.55709,0.279224 1.060053,0.665694 1.5,1.09375 0.219973,0.214028 0.409366,0.441865 0.59375,0.6875 0.184384,0.245635 0.355408,0.507743 0.5,0.78125 0.14012,0.265048 0.276135,0.524729 0.375,0.8125 0.01041,0.03078 0.02133,0.06274 0.03125,0.09375 0.09046,0.278085 0.1388,0.579404 0.1875,0.875 C 89.95865,11.3493 90,11.665279 90,12 l 0,2 0,68 0,2 c 0,3.324 -2.676,6 -6,6 l -72,0 z"
       inkscape:connector-curvature="0"
       id="path3615"
       style="opacity:0.2;fill:url(#radialGradient3619-9);fill-opacity:1;fill-rule:nonzero;stroke:none;display:inline" />
  </g>
  <g
     id="layer4">
    <path
       d="m 48,16 c -9.487401,0 -17.090909,7.145091 -17.090909,15.999998 0.0214,0.942932 0.09185,2.305886 0.181822,3.454547 -1.6224,0.688574 -1.740791,3.846112 -0.363639,7.090907 0.546112,1.286729 1.241661,2.274722 2,3.090913 0.184255,0.911919 0.135912,1.321319 0.363636,2.363635 0.635463,1.906391 3.140825,5.642664 5.454543,8.727274 0.226878,2.368929 0.462232,4.759562 0,7.454546 -6.666826,5.53118 -23.843732,7.910208 -23.81818,13.636361 L 14.363637,80 81.636363,80 81.272711,77.818181 C 81.245384,72.917363 64.039617,69.907972 57.454542,64.18182 57.1881,61.989842 57.13731,59.795335 57.272738,57.636364 59.381039,54.382824 62.20131,50.123371 62.909099,48 c 0.254375,-1.075253 0.34696,-1.801429 0.545451,-2.727275 0.631755,-0.765248 1.170984,-1.630753 1.636368,-2.727273 1.308295,-3.082554 1.223729,-6.025231 -0.181804,-6.90909 0.08287,-1.242006 0.145308,-2.563545 0.181804,-3.636364 C 65.090918,23.145091 57.487417,16 48.000008,16 z"
       inkscape:connector-curvature="0"
       id="path3949"
       style="opacity:0.2;fill:none;stroke:#ffffff;stroke-width:4;stroke-miterlimit:4;stroke-dasharray:none;filter:url(#filter3951)" />
    <path
       d="m 48,16 c -9.487401,0 -17.090909,7.145091 -17.090909,15.999998 0.0214,0.942932 0.09185,2.305886 0.181822,3.454547 -1.6224,0.688574 -1.740791,3.846112 -0.363639,7.090907 0.546112,1.286729 1.241661,2.274722 2,3.090913 0.184255,0.911919 0.135912,1.321319 0.363636,2.363635 0.635463,1.906391 3.140825,5.642664 5.454543,8.727274 0.226878,2.368929 0.462232,4.759562 0,7.454546 -6.666826,5.53118 -23.843732,7.910208 -23.81818,13.636361 L 14.363637,80 81.636363,80 81.272711,77.818181 C 81.245384,72.917363 64.039617,69.907972 57.454542,64.18182 57.1881,61.989842 57.13731,59.795335 57.272738,57.636364 59.381039,54.382824 62.20131,50.123371 62.909099,48 c 0.254375,-1.075253 0.34696,-1.801429 0.545451,-2.727275 0.631755,-0.765248 1.170984,-1.630753 1.636368,-2.727273 1.308295,-3.082554 1.223729,-6.025231 -0.181804,-6.90909 0.08287,-1.242006 0.145308,-2.563545 0.181804,-3.636364 C 65.090918,23.145091 57.487417,16 48.000008,16 z"
       inkscape:connector-curvature="0"
       id="path3159"
       style="fill:url(#linearGradient3915);fill-opacity:1;stroke:none" />
    <path
       d="m 48,16 c -9.487401,0 -17.09375,7.145093 -17.09375,16 0.0214,0.942932 0.09753,2.320089 0.1875,3.46875 -1.6224,0.688574 -1.752152,3.817705 -0.375,7.0625 0.546112,1.286729 1.241661,2.277559 2,3.09375 0.184255,0.911919 0.147276,1.332684 0.375,2.375 0.635463,1.906391 3.123782,5.63414 5.4375,8.71875 0.226878,2.368929 0.462232,4.773766 0,7.46875 -6.666826,5.53118 -23.838052,7.898847 -23.8125,13.625 L 14.375,80 l 67.25,0 -0.34375,-2.1875 c -0.02733,-4.900818 -17.227425,-7.898848 -23.8125,-13.625 -0.266442,-2.191978 -0.322928,-4.403529 -0.1875,-6.5625 2.108301,-3.25354 4.917211,-7.501629 5.625,-9.625 0.254375,-1.075253 0.364009,-1.792904 0.5625,-2.71875 0.631755,-0.765248 1.159616,-1.65348 1.625,-2.75 1.308295,-3.082554 1.218033,-6.022391 -0.1875,-6.90625 0.08287,-1.242006 0.151004,-2.552181 0.1875,-3.625 0,-8.854907 -7.606341,-16 -17.09375,-16 z m 0,2.15625 c 8.386228,0 14.901282,6.184666 14.9375,13.78125 5e-5,0.01059 -2.5e-5,0.02065 0,0.03125 -3.18e-4,0.0092 3.22e-4,0.02198 0,0.03125 -0.0359,1.031707 -0.107539,2.270348 -0.1875,3.46875 a 2.1468993,2.1468993 0 0 0 0.9375,1.9375 c 0.0033,0.03549 0.169986,0.28542 0.1875,0.90625 0.02335,0.827773 -0.198675,2.075989 -0.75,3.375 -0.400193,0.94292 -0.826194,1.629685 -1.3125,2.21875 a 2.1468993,2.1468993 0 0 0 -0.4375,0.9375 c -0.202128,0.942809 -0.317105,1.604668 -0.53125,2.53125 -0.23572,0.679303 -1.052155,2.244315 -2.0625,3.90625 -1.026324,1.688218 -2.253621,3.553433 -3.3125,5.1875 A 2.1468993,2.1468993 0 0 0 55.125,57.5 c -0.143497,2.287612 -0.06418,4.609907 0.21875,6.9375 a 2.1468993,2.1468993 0 0 0 0.71875,1.375 c 3.850912,3.348619 9.893079,5.442753 14.96875,7.5 2.537836,1.028623 4.819463,2.017216 6.3125,2.9375 0.746518,0.460142 1.297709,0.91232 1.5625,1.21875 0.264791,0.30643 0.218831,0.358349 0.21875,0.34375 a 2.1468993,2.1468993 0 0 0 0,0.03125 l -62.25,0 a 2.1468993,2.1468993 0 0 0 0,-0.03125 c -0.0016,-0.35802 0.329886,-1.023761 1.78125,-1.96875 1.451364,-0.944989 3.728133,-1.922167 6.25,-2.90625 5.043735,-1.968166 11.085414,-3.845986 15,-7.09375 a 2.1468993,2.1468993 0 0 0 0.75,-1.28125 c 0.518725,-3.024357 0.226591,-5.696573 0,-8.0625 A 2.1468993,2.1468993 0 0 0 40.25,55.4375 C 38.007471,52.447798 35.553243,48.516129 35.15625,47.375 35.004872,46.614616 35.018381,46.206451 34.8125,45.1875 a 2.1468993,2.1468993 0 0 0 -0.53125,-1.03125 c -0.614185,-0.66104 -1.148902,-1.420616 -1.59375,-2.46875 -0.582147,-1.371633 -0.791433,-2.694665 -0.75,-3.53125 0.03108,-0.627439 0.169356,-0.78988 0.125,-0.78125 a 2.1468993,2.1468993 0 0 0 1.15625,-2.0625 C 33.133453,34.223527 33.083965,32.876258 33.0625,32 c 0,-0.0212 -1.01e-4,-0.04132 0,-0.0625 C 33.098718,24.340918 39.613781,18.15625 48,18.15625 z"
       inkscape:connector-curvature="0"
       id="path3921"
       style="opacity:0.1;fill:#000000;fill-opacity:1;stroke:none" />
    <path
       d="m 48,16 c -9.487401,0 -17.09375,7.145093 -17.09375,16 0.0214,0.942932 0.09753,2.320089 0.1875,3.46875 -1.6224,0.688574 -1.752152,3.817705 -0.375,7.0625 0.546112,1.286729 1.241661,2.277559 2,3.09375 0.184255,0.911919 0.147276,1.332684 0.375,2.375 0.635463,1.906391 3.123782,5.63414 5.4375,8.71875 0.226878,2.368929 0.462232,4.773766 0,7.46875 -6.666826,5.53118 -23.838052,7.898847 -23.8125,13.625 L 14.375,80 l 67.25,0 -0.34375,-2.1875 c -0.02733,-4.900818 -17.227425,-7.898848 -23.8125,-13.625 -0.266442,-2.191978 -0.322928,-4.403529 -0.1875,-6.5625 2.108301,-3.25354 4.917211,-7.501629 5.625,-9.625 0.254375,-1.075253 0.364009,-1.792904 0.5625,-2.71875 0.631755,-0.765248 1.159616,-1.65348 1.625,-2.75 1.308295,-3.082554 1.218033,-6.022391 -0.1875,-6.90625 0.08287,-1.242006 0.151004,-2.552181 0.1875,-3.625 0,-8.854907 -7.606341,-16 -17.09375,-16 z m 0,1.03125 c 8.957611,0 16.044445,6.688352 16.0625,14.9375 2.3e-5,0.01053 0,0.02071 0,0.03125 -0.03621,1.052736 -0.106051,2.341789 -0.1875,3.5625 A 1.0325408,1.0325408 0 0 0 64.34375,36.5 c 0.274524,0.172633 0.626997,0.744304 0.65625,1.78125 0.02925,1.036946 -0.239054,2.41899 -0.84375,3.84375 -0.434031,1.022647 -0.906948,1.819486 -1.46875,2.5 a 1.0325408,1.0325408 0 0 0 -0.21875,0.4375 c -0.200032,0.933036 -0.297871,1.626723 -0.53125,2.625 -0.0059,0.02519 -0.0252,0.03691 -0.03125,0.0625 -0.301955,0.877238 -1.130918,2.407164 -2.15625,4.09375 -1.040813,1.712052 -2.287325,3.58847 -3.34375,5.21875 a 1.0325408,1.0325408 0 0 0 -0.15625,0.5 c -0.139309,2.22084 -0.08687,4.492799 0.1875,6.75 a 1.0325408,1.0325408 0 0 0 0.34375,0.65625 c 3.561085,3.096596 9.554157,5.244544 14.65625,7.3125 2.551047,1.033978 4.889549,2.038594 6.5,3.03125 0.805225,0.496328 1.432998,0.967069 1.8125,1.40625 0.379502,0.439181 0.498266,0.782797 0.5,1.09375 a 1.0325408,1.0325408 0 0 0 0,0.15625 l 0.15625,1 -64.8125,0 0.15625,-1 a 1.0325408,1.0325408 0 0 0 0,-0.15625 c -0.0041,-0.915235 0.726693,-1.873725 2.3125,-2.90625 1.585807,-1.032525 3.89507,-2.039143 6.4375,-3.03125 5.08486,-1.984214 11.074575,-3.908761 14.6875,-6.90625 a 1.0325408,1.0325408 0 0 0 0.375,-0.59375 c 0.489402,-2.853395 0.22674,-5.382515 0,-7.75 a 1.0325408,1.0325408 0 0 0 -0.21875,-0.53125 c -2.260498,-3.013658 -4.702825,-6.754335 -5.25,-8.3125 -0.0054,-0.02472 0.0051,-0.0385 0,-0.0625 -0.0027,-0.0079 -0.02865,-0.02344 -0.03125,-0.03125 -0.183114,-0.881758 -0.150154,-1.323101 -0.34375,-2.28125 a 1.0325408,1.0325408 0 0 0 -0.25,-0.46875 c -0.689009,-0.741572 -1.315091,-1.640522 -1.8125,-2.8125 -0.637389,-1.501793 -0.896426,-2.967646 -0.84375,-4.03125 0.05268,-1.063604 0.384931,-1.559084 0.6875,-1.6875 A 1.0325408,1.0325408 0 0 0 32.125,35.375 C 32.037314,34.255519 31.958958,32.910181 31.9375,32 c -1.98e-4,-0.0084 1.89e-4,-0.02293 0,-0.03125 0.01806,-8.249148 7.104898,-14.9375 16.0625,-14.9375 z"
       inkscape:connector-curvature="0"
       id="path3917"
       style="opacity:0.2;fill:#000000;fill-opacity:1;stroke:none" />
    <path
       d="m 48,16 c -9.487401,0 -17.09375,7.145093 -17.09375,16 0.0033,0.14445 0.02578,0.369366 0.03125,0.53125 C 31.205031,23.898377 38.683734,17 48,17 57.316274,17 64.794969,23.898377 65.0625,32.53125 65.068948,32.364312 65.088399,32.157281 65.09375,32 65.09375,23.145093 57.487409,16 48,16 z M 31.03125,35.5 c -0.925159,0.441695 -1.321054,1.711272 -1.21875,3.34375 0.09516,-1.178882 0.513652,-2.049218 1.28125,-2.375 -0.02514,-0.320978 -0.04105,-0.628146 -0.0625,-0.96875 z m 33.9375,0.15625 c -0.01913,0.337232 -0.04034,0.636616 -0.0625,0.96875 0.62766,0.394699 0.999345,1.236303 1.09375,2.28125 0.08646,-1.489395 -0.255164,-2.717125 -1.03125,-3.25 z m -7.75,25.25 c -0.0012,1.418498 0.07656,2.854396 0.25,4.28125 6.585075,5.726152 23.785173,8.724182 23.8125,13.625 L 81.46875,80 81.625,80 81.28125,77.8125 c -0.02733,-4.900818 -17.227425,-7.898848 -23.8125,-13.625 -0.133221,-1.095989 -0.220926,-2.188755 -0.25,-3.28125 z m -18.40625,0.1875 c -0.0068,0.998756 -0.09634,2.015682 -0.28125,3.09375 -6.666826,5.53118 -23.838052,7.898847 -23.8125,13.625 L 14.375,80 l 0.15625,0 0.1875,-1.1875 c -0.02555,-5.726153 17.145674,-8.09382 23.8125,-13.625 0.246744,-1.438612 0.324665,-2.785596 0.28125,-4.09375 z"
       inkscape:connector-curvature="0"
       id="path3931"
       style="opacity:0.3;fill:#000000;fill-opacity:1;stroke:none" />
    <path
       d="m 30.9375,32.53125 c -0.0049,0.158582 -0.03125,0.309024 -0.03125,0.46875 0.01542,0.679442 0.06969,1.62171 0.125,2.5 0.02145,-0.01024 0.0405,-0.02191 0.0625,-0.03125 -0.07619,-0.972695 -0.125989,-2.042649 -0.15625,-2.9375 z m 34.125,0 c -0.03754,0.971753 -0.08553,2.033829 -0.15625,3.09375 0.01933,0.01215 0.04367,0.01832 0.0625,0.03125 0.05241,-0.923837 0.09826,-1.870322 0.125,-2.65625 0,-0.159726 -0.02634,-0.310168 -0.03125,-0.46875 z m -35.25,6.3125 c -0.105969,1.312811 0.180663,2.977899 0.90625,4.6875 0.546112,1.286729 1.241661,2.277559 2,3.09375 0.184255,0.911919 0.147276,1.332684 0.375,2.375 0.635463,1.906391 3.123782,5.63414 5.4375,8.71875 0.105768,1.104369 0.243334,2.23256 0.28125,3.375 0.01027,-1.49796 -0.14513,-2.953708 -0.28125,-4.375 C 36.217532,53.63414 33.729213,49.906391 33.09375,48 c -0.227724,-1.042316 -0.190745,-1.463081 -0.375,-2.375 -0.758339,-0.816191 -1.453888,-1.807021 -2,-3.09375 -0.552914,-1.302755 -0.836032,-2.567015 -0.90625,-3.6875 z M 66,38.90625 c -0.06397,1.102109 -0.357512,2.332084 -0.90625,3.625 -0.465384,1.09652 -0.993245,1.984752 -1.625,2.75 -0.198491,0.925846 -0.308125,1.643497 -0.5625,2.71875 -0.707789,2.123371 -3.516699,6.37146 -5.625,9.625 -0.0543,0.865625 -0.06997,1.750403 -0.0625,2.625 0.01012,-0.54359 0.02864,-1.085257 0.0625,-1.625 2.108301,-3.25354 4.917211,-7.501629 5.625,-9.625 0.254375,-1.075253 0.364009,-1.792904 0.5625,-2.71875 0.631755,-0.765248 1.159616,-1.65348 1.625,-2.75 0.724058,-1.705997 1.023249,-3.329974 0.90625,-4.625 z M 14.53125,80 14.375,81 l 67.25,0 -0.15625,-1 -66.9375,0 z"
       inkscape:connector-curvature="0"
       id="path3940"
       style="opacity:0.5;fill:#ffffff;fill-opacity:1;stroke:none" />
  </g>
</svg>
