<?xml version="1.0" encoding="UTF-8" standalone="no"?>
<!-- Created with Inkscape (http://www.inkscape.org/) -->

<svg
   xmlns:dc="http://purl.org/dc/elements/1.1/"
   xmlns:cc="http://creativecommons.org/ns#"
   xmlns:rdf="http://www.w3.org/1999/02/22-rdf-syntax-ns#"
   xmlns:svg="http://www.w3.org/2000/svg"
   xmlns="http://www.w3.org/2000/svg"
   xmlns:xlink="http://www.w3.org/1999/xlink"
   xmlns:inkscape="http://www.inkscape.org/namespaces/inkscape"
   version="1.0"
   width="96"
   height="96"
   id="svg2"
   style="display:inline">
  <defs
     id="defs4">
    <linearGradient
       x1="12.80275"
       y1="3.7361259"
       x2="12.80275"
       y2="16.759111"
       id="linearGradient5044"
       gradientUnits="userSpaceOnUse"
       gradientTransform="matrix(0.8458416,0,0,1.0765258,-1.4962477,-3.0220357)">
      <stop
         id="stop5046"
         style="stop-color:#323232;stop-opacity:1"
         offset="0" />
      <stop
         id="stop5048"
         style="stop-color:#787878;stop-opacity:1"
         offset="1" />
    </linearGradient>
    <radialGradient
       cx="48"
       cy="90.171875"
       r="42"
       fx="48"
       fy="90.171875"
       id="radialGradient3619"
       xlink:href="#linearGradient3737"
       gradientUnits="userSpaceOnUse"
       gradientTransform="matrix(1.1573129,0,0,0.99590774,-7.551021,0.1971319)" />
    <linearGradient
       id="linearGradient3737">
      <stop
         id="stop3739"
         style="stop-color:#ffffff;stop-opacity:1"
         offset="0" />
      <stop
         id="stop3741"
         style="stop-color:#ffffff;stop-opacity:0"
         offset="1" />
    </linearGradient>
    <linearGradient
       x1="36.357143"
       y1="6"
       x2="36.357143"
       y2="63.893143"
       id="linearGradient3188"
       xlink:href="#linearGradient3737"
       gradientUnits="userSpaceOnUse" />
    <linearGradient
       x1="48"
       y1="90"
       x2="48"
       y2="5.9877172"
       id="linearGradient3052"
       xlink:href="#ButtonColor-6"
       gradientUnits="userSpaceOnUse" />
    <linearGradient
       x1="10.31979"
       y1="21"
       x2="10.31979"
       y2="0.99929649"
       id="ButtonColor-6"
       gradientUnits="userSpaceOnUse">
      <stop
         id="stop3189-4"
         style="stop-color:#c8c8c8;stop-opacity:1"
         offset="0" />
      <stop
         id="stop3191-0"
         style="stop-color:#e6e6e6;stop-opacity:1"
         offset="1" />
    </linearGradient>
    <clipPath
       id="clipPath3266">
      <path
         d="M 0,0 0,96 96,96 96,0 0,0 z m 12,6 72,0 c 3.324,0 6,2.676 6,6 l 0,72 c 0,3.324 -2.676,6 -6,6 L 12,90 C 8.676,90 6,87.324 6,84 L 6,12 C 6,8.676 8.676,6 12,6 z"
         inkscape:connector-curvature="0"
         id="path3268"
         style="opacity:0.3;color:#000000;fill:#ff0000;fill-opacity:1;fill-rule:nonzero;stroke:none;stroke-width:4;marker:none;visibility:visible;display:inline;overflow:visible;enable-background:accumulate" />
    </clipPath>
    <linearGradient
       x1="32.251034"
       y1="6.1317081"
       x2="32.251034"
       y2="90.238609"
       id="linearGradient3101"
       xlink:href="#ButtonShadow-0"
       gradientUnits="userSpaceOnUse"
       gradientTransform="matrix(1.0238095,0,0,1.0119048,-1.1428571,-98.071429)" />
    <linearGradient
       x1="45.447727"
       y1="92.539597"
       x2="45.447727"
       y2="7.0165396"
       id="ButtonShadow-0"
       gradientUnits="userSpaceOnUse"
       gradientTransform="matrix(1.0058652,0,0,0.994169,100,0)">
      <stop
         id="stop3750-8"
         style="stop-color:#000000;stop-opacity:1"
         offset="0" />
      <stop
         id="stop3752-5"
         style="stop-color:#000000;stop-opacity:0.58823532"
         offset="1" />
    </linearGradient>
    <linearGradient
       x1="32.251034"
       y1="6.1317081"
       x2="32.251034"
       y2="90.238609"
       id="linearGradient3780"
       xlink:href="#ButtonShadow-0"
       gradientUnits="userSpaceOnUse"
       gradientTransform="matrix(1.0238095,0,0,1.0119048,-1.1428571,-98.071429)" />
    <linearGradient
       x1="32.251034"
       y1="6.1317081"
       x2="32.251034"
       y2="90.238609"
       id="linearGradient3772"
       xlink:href="#ButtonShadow-0"
       gradientUnits="userSpaceOnUse"
       gradientTransform="matrix(1.0238095,0,0,1.0119048,-1.1428571,-98.071429)" />
    <linearGradient
       x1="32.251034"
       y1="6.1317081"
       x2="32.251034"
       y2="90.238609"
       id="linearGradient3725-9"
       xlink:href="#ButtonShadow-0"
       gradientUnits="userSpaceOnUse"
       gradientTransform="matrix(1.0238095,0,0,1.0119048,-1.1428571,-98.071429)" />
    <linearGradient
       x1="32.251034"
       y1="6.1317081"
       x2="32.251034"
       y2="90.238609"
       id="linearGradient4396"
       xlink:href="#ButtonShadow-0"
       gradientUnits="userSpaceOnUse"
       gradientTransform="translate(0,-97)" />
    <linearGradient
       x1="127.99561"
       y1="272.01312"
       x2="127.99561"
       y2="39.990356"
       id="linearGradient3124"
       xlink:href="#linearGradient5044"
       gradientUnits="userSpaceOnUse"
       gradientTransform="matrix(0.28151335,0,0,-0.275835,8.246504,17.030886)" />
    <filter
       color-interpolation-filters="sRGB"
       id="filter4005">
      <feGaussianBlur
         id="feGaussianBlur4007"
         stdDeviation="0.83447898" />
    </filter>
  </defs>
  <metadata
     id="metadata7">
    <rdf:RDF>
      <cc:Work
         rdf:about="">
        <dc:format>image/svg+xml</dc:format>
        <dc:type
           rdf:resource="http://purl.org/dc/dcmitype/StillImage" />
        <dc:title />
      </cc:Work>
    </rdf:RDF>
  </metadata>
  <g
     id="layer2">
    <g
       clip-path="url(#clipPath3266)"
       id="g3202"
       style="display:inline">
      <path
         d="m 12,-95.03125 c -5.5110903,0 -10.03125,4.52016 -10.03125,10.03125 l 0,71 c 0,5.5110902 4.5201598,10.03125 10.03125,10.03125 l 72,0 c 5.51109,0 10.03125,-4.5201597 10.03125,-10.03125 l 0,-71 c 0,-5.51109 -4.52016,-10.03125 -10.03125,-10.03125 l -72,0 z"
         transform="scale(1,-1)"
         id="path3786"
         style="opacity:0.07999998;fill:url(#linearGradient3101);fill-opacity:1;fill-rule:nonzero;stroke:none;display:inline" />
      <path
         d="m 12,-94.03125 c -4.971633,0 -9.03125,4.059617 -9.03125,9.03125 l 0,71 c 0,4.9716329 4.0596171,9.03125 9.03125,9.03125 l 72,0 c 4.971633,0 9.03125,-4.059617 9.03125,-9.03125 l 0,-71 c 0,-4.971633 -4.059617,-9.03125 -9.03125,-9.03125 l -72,0 z"
         transform="scale(1,-1)"
         id="path3778"
         style="opacity:0.1;fill:url(#linearGradient3780);fill-opacity:1;fill-rule:nonzero;stroke:none;display:inline" />
      <path
         d="m 12,-93 c -4.4091333,0 -8,3.590867 -8,8 l 0,71 c 0,4.4091333 3.5908667,8 8,8 l 72,0 c 4.409133,0 8,-3.5908667 8,-8 l 0,-71 c 0,-4.409133 -3.590867,-8 -8,-8 l -72,0 z"
         transform="scale(1,-1)"
         id="path3770"
         style="opacity:0.2;fill:url(#linearGradient3772);fill-opacity:1;fill-rule:nonzero;stroke:none;display:inline" />
      <rect
         width="86"
         height="85"
         rx="7"
         ry="7"
         x="5"
         y="-92"
         transform="scale(1,-1)"
         id="rect3723"
         style="opacity:0.3;fill:url(#linearGradient3725-9);fill-opacity:1;fill-rule:nonzero;stroke:none;display:inline" />
      <rect
         width="84"
         height="84"
         rx="6"
         ry="6"
         x="6"
         y="-91"
         transform="scale(1,-1)"
         id="rect3716"
         style="opacity:0.45;fill:url(#linearGradient4396);fill-opacity:1;fill-rule:nonzero;stroke:none;display:inline" />
    </g>
    <rect
       width="84"
       height="84"
       rx="6"
       ry="6"
       x="6"
       y="6"
       id="rect2419"
       style="opacity:0.75;fill:url(#linearGradient3052);fill-opacity:1;fill-rule:nonzero;stroke:none;display:inline" />
    <path
       d="M 12,6 C 8.676,6 6,8.676 6,12 l 0,2 0,68 0,2 c 0,0.334721 0.04135,0.6507 0.09375,0.96875 0.0487,0.295596 0.09704,0.596915 0.1875,0.875 0.00988,0.03038 0.020892,0.0636 0.03125,0.09375 0.098865,0.287771 0.2348802,0.547452 0.375,0.8125 0.1445918,0.273507 0.3156161,0.535615 0.5,0.78125 0.1843839,0.245635 0.3737765,0.473472 0.59375,0.6875 0.439947,0.428056 0.94291,0.814526 1.5,1.09375 0.278545,0.139612 0.5734731,0.246947 0.875,0.34375 -0.2562018,-0.100222 -0.4867109,-0.236272 -0.71875,-0.375 -0.00741,-0.0044 -0.023866,0.0045 -0.03125,0 -0.031933,-0.0193 -0.062293,-0.04251 -0.09375,-0.0625 -0.120395,-0.0767 -0.2310226,-0.163513 -0.34375,-0.25 -0.1061728,-0.0808 -0.2132809,-0.161112 -0.3125,-0.25 C 8.4783201,88.557317 8.3087904,88.373362 8.15625,88.1875 8.0486711,88.057245 7.9378561,87.922215 7.84375,87.78125 7.818661,87.74287 7.805304,87.69538 7.78125,87.65625 7.716487,87.553218 7.6510225,87.451733 7.59375,87.34375 7.4927417,87.149044 7.3880752,86.928049 7.3125,86.71875 7.30454,86.69694 7.288911,86.6782 7.28125,86.65625 7.2494249,86.5643 7.2454455,86.469419 7.21875,86.375 7.188418,86.268382 7.148361,86.171969 7.125,86.0625 7.052121,85.720988 7,85.364295 7,85 L 7,83 7,15 7,13 C 7,10.218152 9.2181517,8 12,8 l 2,0 68,0 2,0 c 2.781848,0 5,2.218152 5,5 l 0,2 0,68 0,2 c 0,0.364295 -0.05212,0.720988 -0.125,1.0625 -0.04415,0.206893 -0.08838,0.397658 -0.15625,0.59375 -0.0077,0.02195 -0.0233,0.04069 -0.03125,0.0625 -0.06274,0.173739 -0.138383,0.367449 -0.21875,0.53125 -0.04158,0.0828 -0.07904,0.169954 -0.125,0.25 -0.0546,0.09721 -0.126774,0.18835 -0.1875,0.28125 -0.09411,0.140965 -0.204921,0.275995 -0.3125,0.40625 -0.143174,0.17445 -0.303141,0.346998 -0.46875,0.5 -0.01117,0.0102 -0.01998,0.02115 -0.03125,0.03125 -0.138386,0.125556 -0.285091,0.234436 -0.4375,0.34375 -0.102571,0.07315 -0.204318,0.153364 -0.3125,0.21875 -0.0074,0.0045 -0.02384,-0.0044 -0.03125,0 -0.232039,0.138728 -0.462548,0.274778 -0.71875,0.375 0.301527,-0.0968 0.596455,-0.204138 0.875,-0.34375 0.55709,-0.279224 1.060053,-0.665694 1.5,-1.09375 0.219973,-0.214028 0.409366,-0.441865 0.59375,-0.6875 0.184384,-0.245635 0.355408,-0.507743 0.5,-0.78125 0.14012,-0.265048 0.276135,-0.524729 0.375,-0.8125 0.01041,-0.03078 0.02133,-0.06274 0.03125,-0.09375 0.09046,-0.278085 0.1388,-0.579404 0.1875,-0.875 C 89.95865,84.6507 90,84.334721 90,84 l 0,-2 0,-68 0,-2 C 90,8.676 87.324,6 84,6 L 12,6 z"
       inkscape:connector-curvature="0"
       id="rect3728"
       style="opacity:0.5;fill:url(#linearGradient3188);fill-opacity:1;fill-rule:nonzero;stroke:none;display:inline" />
    <path
       d="M 12,90 C 8.676,90 6,87.324 6,84 L 6,82 6,14 6,12 c 0,-0.334721 0.04135,-0.6507 0.09375,-0.96875 0.0487,-0.295596 0.09704,-0.596915 0.1875,-0.875 C 6.29113,10.12587 6.302142,10.09265 6.3125,10.0625 6.411365,9.774729 6.5473802,9.515048 6.6875,9.25 6.8320918,8.976493 7.0031161,8.714385 7.1875,8.46875 7.3718839,8.223115 7.5612765,7.995278 7.78125,7.78125 8.221197,7.353194 8.72416,6.966724 9.28125,6.6875 9.559795,6.547888 9.8547231,6.440553 10.15625,6.34375 9.9000482,6.443972 9.6695391,6.580022 9.4375,6.71875 c -0.00741,0.0044 -0.023866,-0.0045 -0.03125,0 -0.031933,0.0193 -0.062293,0.04251 -0.09375,0.0625 -0.120395,0.0767 -0.2310226,0.163513 -0.34375,0.25 -0.1061728,0.0808 -0.2132809,0.161112 -0.3125,0.25 C 8.4783201,7.442683 8.3087904,7.626638 8.15625,7.8125 8.0486711,7.942755 7.9378561,8.077785 7.84375,8.21875 7.818661,8.25713 7.805304,8.30462 7.78125,8.34375 7.716487,8.446782 7.6510225,8.548267 7.59375,8.65625 7.4927417,8.850956 7.3880752,9.071951 7.3125,9.28125 7.30454,9.30306 7.288911,9.3218 7.28125,9.34375 7.2494249,9.4357 7.2454455,9.530581 7.21875,9.625 7.188418,9.731618 7.148361,9.828031 7.125,9.9375 7.052121,10.279012 7,10.635705 7,11 l 0,2 0,68 0,2 c 0,2.781848 2.2181517,5 5,5 l 2,0 68,0 2,0 c 2.781848,0 5,-2.218152 5,-5 l 0,-2 0,-68 0,-2 C 89,10.635705 88.94788,10.279012 88.875,9.9375 88.83085,9.730607 88.78662,9.539842 88.71875,9.34375 88.71105,9.3218 88.69545,9.30306 88.6875,9.28125 88.62476,9.107511 88.549117,8.913801 88.46875,8.75 88.42717,8.6672 88.38971,8.580046 88.34375,8.5 88.28915,8.40279 88.216976,8.31165 88.15625,8.21875 88.06214,8.077785 87.951329,7.942755 87.84375,7.8125 87.700576,7.63805 87.540609,7.465502 87.375,7.3125 87.36383,7.3023 87.35502,7.29135 87.34375,7.28125 87.205364,7.155694 87.058659,7.046814 86.90625,6.9375 86.803679,6.86435 86.701932,6.784136 86.59375,6.71875 c -0.0074,-0.0045 -0.02384,0.0044 -0.03125,0 -0.232039,-0.138728 -0.462548,-0.274778 -0.71875,-0.375 0.301527,0.0968 0.596455,0.204138 0.875,0.34375 0.55709,0.279224 1.060053,0.665694 1.5,1.09375 0.219973,0.214028 0.409366,0.441865 0.59375,0.6875 0.184384,0.245635 0.355408,0.507743 0.5,0.78125 0.14012,0.265048 0.276135,0.524729 0.375,0.8125 0.01041,0.03078 0.02133,0.06274 0.03125,0.09375 0.09046,0.278085 0.1388,0.579404 0.1875,0.875 C 89.95865,11.3493 90,11.665279 90,12 l 0,2 0,68 0,2 c 0,3.324 -2.676,6 -6,6 l -72,0 z"
       inkscape:connector-curvature="0"
       id="path3615"
       style="opacity:0.2;fill:url(#radialGradient3619);fill-opacity:1;fill-rule:nonzero;stroke:none;display:inline" />
  </g>
  <g
     transform="translate(0,74)"
     id="layer1">
    <path
       d="m 59.79864,5.9974857 c -5.6742,0.00414 -10.933433,-4.8040888 -11.003651,-10.5715207 -0.09199,-3.2975323 -0.975179,-6.90651 -3.902173,-8.827802 -4.333422,-3.495849 -10.262945,-0.0088 -14.861385,-2.763148 -4.978974,-2.479804 -7.480273,-8.941045 -5.173463,-14.066915 1.842488,-4.488265 6.763455,-7.390008 11.598549,-6.76383 3.426934,0.420038 7.304309,0.03167 9.719042,-2.720878 3.848455,-3.686254 1.339407,-9.82422 4.733489,-13.763769 3.694832,-5.098588 11.700814,-6.05486 16.442351,-1.878229 4.836408,3.78184 5.285503,11.682747 0.882001,15.968468 -2.61078,2.899856 -6.679023,3.842686 -10.443476,3.338653 -3.820409,-0.570067 -8.006979,0.977426 -9.922896,4.458021 -1.807279,3.765186 -1.792007,8.665886 0.641449,12.155133 2.113192,2.867512 5.844675,3.960633 9.281447,3.490967 3.764453,-0.504035 7.832686,0.438802 10.443476,3.338643 4.285937,4.1819954 3.998136,11.8229478 -0.563592,15.6914036 C 65.54728,5.0185287 62.666277,6.067629 59.79864,5.9974857 z"
       inkscape:connector-curvature="0"
       id="path3998"
       style="opacity:0.2;color:#000000;fill:none;stroke:#ffffff;stroke-width:4;stroke-miterlimit:4;stroke-dasharray:none;marker:none;visibility:visible;display:inline;overflow:visible;filter:url(#filter4005);enable-background:accumulate" />
    <path
       d="m 59.79864,5.9974857 c -2.523146,-0.0537 -5.047828,-0.931008 -7.108212,-2.67215 -6.626141,-5.59948 -1.479549,-11.417204 -7.257767,-16.3001257 -5.778211,-4.882929 -10.898062,0.953379 -17.524207,-4.646097 l 0,-0.0086 c -1.471703,-1.243676 -2.533653,-2.783677 -3.175822,-4.447838 -0.0043,-0.01085 -0.0046,-0.02353 -0.0088,-0.03449 -0.129321,-0.338426 -0.239828,-0.678158 -0.334295,-1.02576 -0.04193,-0.154327 -0.08812,-0.309725 -0.123172,-0.465472 -0.0039,-0.01702 -0.0051,-0.03467 -0.0088,-0.05173 -0.07224,-0.328492 -0.125676,-0.658256 -0.167147,-0.991283 -3.64e-4,-0.0028 3.38e-4,-0.0057 0,-0.0086 -0.0022,-0.01735 -0.0067,-0.03437 -0.0088,-0.05172 -0.01845,-0.155118 -0.03226,-0.309754 -0.04399,-0.46547 -0.009,-0.117079 -0.02122,-0.236206 -0.02639,-0.353414 -0.0025,-0.05966 -0.0072,-0.121308 -0.0088,-0.181017 -5.65e-4,-0.01988 4.49e-4,-0.04044 0,-0.06034 -0.0032,-0.156237 -0.0033,-0.309149 0,-0.465472 0.0015,-0.07997 0.0054,-0.161458 0.0088,-0.241357 0.0053,-0.117203 0.01741,-0.236332 0.02639,-0.353413 0.01336,-0.173419 0.0311,-0.344308 0.0528,-0.51719 3.39e-4,-0.0028 -3.65e-4,-0.0057 0,-0.0086 0.04146,-0.333027 0.09492,-0.662789 0.167149,-0.991282 0.0038,-0.01718 0.005,-0.03456 0.0088,-0.05171 0.03556,-0.15669 0.08051,-0.310011 0.123172,-0.465472 0.09447,-0.3476 0.204972,-0.687333 0.334296,-1.02576 0.0043,-0.01099 0.0046,-0.02341 0.0088,-0.03449 0.642167,-1.664161 1.704119,-3.204163 3.175822,-4.44784 l 0,-0.0086 c 6.626144,-5.599476 11.745996,0.236832 17.524206,-4.646097 5.778218,-4.882923 0.631626,-10.700646 7.257768,-16.300126 4.709482,-3.979862 11.817455,-3.459503 15.879143,1.154956 4.061689,4.614456 3.539407,11.579055 -1.17004,15.558818 -6.626144,5.599473 -11.745991,-0.245448 -17.524206,4.637476 -2.918927,2.466666 -3.046801,5.178196 -3.31658,7.973356 0.269779,2.795159 0.397653,5.506689 3.31658,7.973355 5.778215,4.882926 10.898062,-0.961997 17.524206,4.637476 4.709447,3.9797067 5.231729,10.9443047 1.17004,15.5587627 -2.284697,2.595633 -5.526856,3.896254 -8.770901,3.82721 z"
       inkscape:connector-curvature="0"
       id="path3984-0-3-4-7"
       style="color:#000000;fill:url(#linearGradient3124);fill-opacity:1;fill-rule:evenodd;stroke:none;stroke-width:1;marker:none;visibility:visible;display:inline;overflow:visible;enable-background:accumulate" />
    <path
       d="m 59.78125,16 c -2.522624,0.05246 -5.033352,0.94631 -7.09375,2.6875 -6.626142,5.59948 -1.471782,11.398327 -7.25,16.28125 -5.77821,4.882929 -10.905106,-0.943226 -17.53125,4.65625 -1.471703,1.243677 -2.545333,2.804589 -3.1875,4.46875 -0.0042,0.01108 0.0043,0.02026 0,0.03125 -0.129324,0.338427 -0.24928,0.6524 -0.34375,1 -0.04266,0.155461 -0.05819,0.31206 -0.09375,0.46875 -0.0038,0.01715 -0.02745,0.04532 -0.03125,0.0625 -0.07223,0.328493 -0.11479,0.666973 -0.15625,1 -0.0217,0.172882 -0.04914,0.357831 -0.0625,0.53125 -0.009,0.117081 -0.02595,0.226547 -0.03125,0.34375 -0.0034,0.0799 0.0015,0.17003 0,0.25 -0.0033,0.156323 -0.0032,0.281263 0,0.4375 4.49e-4,0.0199 -5.65e-4,0.04262 0,0.0625 0.0016,0.05971 -0.0025,0.12784 0,0.1875 0.0052,0.117208 0.02225,0.257921 0.03125,0.375 0.01173,0.155716 0.04405,0.282382 0.0625,0.4375 0.0021,0.01735 -0.0022,0.04515 0,0.0625 0.04147,0.333027 0.08401,0.671508 0.15625,1 0.0037,0.01706 0.02735,0.04548 0.03125,0.0625 0.03505,0.155747 0.05182,0.314423 0.09375,0.46875 0.09447,0.347602 0.214429,0.661574 0.34375,1 0.0042,0.01096 -0.0043,0.05165 0,0.0625 0.642169,1.664161 1.715797,3.193824 3.1875,4.4375 6.626145,5.599476 11.753039,-0.226679 17.53125,4.65625 5.778218,4.882922 0.623859,10.68177 7.25,16.28125 2.060384,1.741142 4.601854,2.6338 7.125,2.6875 3.244045,0.06904 6.465303,-1.248117 8.75,-3.84375 C 72.624189,71.541792 72.115697,64.604707 67.40625,60.625 60.780106,55.025527 55.653215,60.851676 49.875,55.96875 46.956073,53.502084 46.832279,50.795159 46.5625,48 46.832279,45.20484 46.956073,42.497916 49.875,40.03125 55.653215,35.148326 60.780106,40.974473 67.40625,35.375 72.115697,31.395237 72.624189,24.458206 68.5625,19.84375 66.2778,17.248117 63.024624,15.932555 59.78125,16 z m 0.0625,2 c 0.296258,-0.0063 0.579045,0.0097 0.875,0.03125 2.366901,0.172501 4.668633,1.25316 6.34375,3.15625 3.345475,3.80077 2.914355,9.374795 -0.96875,12.65625 -2.854641,2.412336 -4.86884,2.268921 -7.65625,2.125 -2.78741,-0.143921 -6.460189,-0.354462 -9.875,2.53125 -3.452094,2.917224 -3.736504,6.582435 -4,9.3125 a 2.0133797,2.0133797 0 0 0 0,0.375 c 0.263496,2.730064 0.547906,6.395276 4,9.3125 3.414811,2.885713 7.08759,2.675171 9.875,2.53125 2.78741,-0.143921 4.801609,-0.287336 7.65625,2.125 3.883083,3.28139 4.31422,8.855484 0.96875,12.65625 C 65.174707,76.957213 62.514887,78.056851 59.84375,78 57.766355,77.955787 55.696105,77.214555 54,75.78125 c -2.854824,-2.412495 -2.992484,-4.349261 -3.25,-7.0625 -0.257516,-2.713239 -0.585398,-6.333218 -4,-9.21875 -3.41481,-2.885715 -7.087589,-2.675172 -9.875,-2.53125 -2.787411,0.143922 -4.801609,0.287337 -7.65625,-2.125 -1.199398,-1.013562 -2.071048,-2.239511 -2.59375,-3.5625 -0.0078,-0.02551 -0.02667,-0.04778 -0.03125,-0.0625 a 2.0133797,2.0133797 0 0 0 0,-0.03125 c -0.0011,-0.0035 2.2e-5,-0.03119 0,-0.03125 -0.129303,-0.338379 -0.219441,-0.585069 -0.28125,-0.8125 0.01401,0.05156 0.0067,-0.06768 -0.0625,-0.375 -0.01504,-0.06562 -0.01717,-0.01016 -0.03125,-0.0625 -0.0066,-0.03057 0.0064,-0.0037 0,-0.03125 -0.04329,-0.204392 -0.08527,-0.462209 -0.125,-0.78125 -0.0031,-0.03742 0.006,-0.01271 0,-0.0625 -0.03584,-0.301292 -0.06543,-0.382701 -0.0625,-0.34375 C 26.016779,48.499255 25.999694,48.368064 26,48.375 c 0.004,0.09639 0.0052,0.03651 0,-0.15625 0.0026,0.09203 0.0028,0.09153 0,-0.03125 -0.0028,-0.135127 -0.0028,-0.242164 0,-0.375 0.0036,-0.19052 0.0028,-0.253938 0,-0.1875 -9.05e-4,0.02002 0.0148,-0.06674 0.03125,-0.28125 0.0056,-0.07223 0.03678,-0.232576 0.0625,-0.4375 0.0397,-0.318914 0.08169,-0.576745 0.125,-0.78125 0.0017,-0.008 -0.0017,-0.02347 0,-0.03125 0.01395,-0.05315 0.01652,0.004 0.03125,-0.0625 0.07164,-0.315658 0.07815,-0.432037 0.0625,-0.375 0.06182,-0.227463 0.151955,-0.474148 0.28125,-0.8125 0.0063,-0.01616 -0.0058,-0.01517 0,-0.03125 0.523063,-1.355507 1.418904,-2.637027 2.625,-3.65625 2.854641,-2.412337 4.868839,-2.268922 7.65625,-2.125 2.787411,0.143922 6.460191,0.354466 9.875,-2.53125 3.414602,-2.885533 3.742484,-6.505511 4,-9.21875 0.257516,-2.713239 0.395175,-4.650005 3.25,-7.0625 C 55.699257,18.782752 57.769947,18.044444 59.84375,18 z"
       inkscape:connector-curvature="0"
       transform="translate(0,-74)"
       id="path3969"
       style="opacity:0.1;color:#000000;fill:#000000;fill-opacity:1;fill-rule:evenodd;stroke:none;stroke-width:1;marker:none;visibility:visible;display:inline;overflow:visible;enable-background:accumulate" />
    <path
       d="m 59.78125,-58 c -5.662928,0.01345 -10.914051,4.820467 -10.98567,10.578316 -0.0889,3.294597 -0.974011,6.898702 -3.897945,8.81751 -4.334974,3.49632 -10.268174,0.0172 -14.868174,2.772935 -4.868288,2.421988 -7.382017,8.642181 -5.310711,13.706239 1.68149,4.682529 6.794348,7.761291 11.738742,7.122525 3.428663,-0.416247 7.306808,-0.02666 9.722844,2.726309 3.846398,3.680402 1.334172,9.811908 4.726029,13.745641 3.654855,5.021904 11.523066,6.086214 16.278238,2.011269 4.77389,-3.616827 5.5272,-11.250021 1.435107,-15.662824 -2.483102,-2.990968 -6.496599,-4.274365 -10.297058,-3.78975 -3.383872,0.445882 -7.141753,-0.255149 -9.416972,-2.995385 -2.782005,-3.306958 -2.836969,-8.263969 -1.290374,-12.133194 1.6839,-3.577263 5.799993,-5.481792 9.649689,-4.981394 3.731801,0.465633 7.835151,-0.124496 10.570447,-2.924803 4.567149,-4.005152 4.580424,-11.800653 0.05976,-15.845829 C 65.749161,-56.925099 62.760941,-58.071689 59.78125,-58 z m 0.03125,1.09375 c 5.851014,-0.302207 11.190368,5.28018 10.315289,11.139206 -0.569304,5.318409 -5.932878,9.460027 -11.230387,8.668028 -3.736379,-0.441264 -7.945749,0.08687 -10.567951,3.063145 -3.304114,3.606153 -3.502658,9.272874 -1.681401,13.624316 1.824426,3.980956 6.396388,6.103068 10.655113,5.588976 3.269353,-0.374588 6.886575,-0.105495 9.384337,2.291329 4.37411,3.430019 4.6754,10.588743 0.634475,14.395244 C 63.422754,6.079146 56.112831,5.803655 52.385008,1.509272 48.507497,-2.162794 51.00991,-8.296087 47.654536,-12.253494 45.23238,-15.594578 40.862423,-16.645972 36.9375,-16.125 c -3.991221,0.616982 -8.183442,-1.163783 -10.319063,-4.62928 -2.864974,-4.304582 -1.492002,-10.627173 2.851957,-13.435829 3.257851,-2.659739 7.561012,-1.350918 11.356046,-1.697717 4.732978,-0.412559 8.62656,-4.621714 8.853001,-9.343535 0.187977,-3.250931 0.663109,-6.866095 3.448022,-8.995609 1.814651,-1.653343 4.227801,-2.633828 6.685037,-2.67928 z"
       inkscape:connector-curvature="0"
       id="path3965"
       style="opacity:0.2;color:#000000;fill:#000000;fill-opacity:1;fill-rule:evenodd;stroke:none;stroke-width:1;marker:none;visibility:visible;display:inline;overflow:visible;enable-background:accumulate" />
    <path
       d="m 59.78125,16 c -2.522624,0.05246 -5.033352,0.94631 -7.09375,2.6875 -6.626142,5.59948 -1.471782,11.398327 -7.25,16.28125 -5.77821,4.882929 -10.905106,-0.943226 -17.53125,4.65625 -1.471703,1.243677 -2.545333,2.804589 -3.1875,4.46875 -0.0042,0.01108 0.0043,0.02026 0,0.03125 -0.129324,0.338427 -0.24928,0.6524 -0.34375,1 -0.04266,0.155461 -0.05819,0.31206 -0.09375,0.46875 -0.0038,0.01715 -0.02745,0.04532 -0.03125,0.0625 -0.07223,0.328493 -0.11479,0.666973 -0.15625,1 -0.0217,0.172882 -0.04914,0.357831 -0.0625,0.53125 -0.009,0.117081 -0.02595,0.226547 -0.03125,0.34375 -0.0034,0.0799 0.0015,0.17003 0,0.25 -0.0033,0.156323 -0.0032,0.281263 0,0.4375 4.49e-4,0.0199 -5.65e-4,0.04262 0,0.0625 0.0016,0.05971 -0.0025,0.12784 0,0.1875 0.0061,-0.09653 0.02389,-0.185282 0.03125,-0.28125 0.01336,-0.173419 0.0408,-0.358368 0.0625,-0.53125 0.04146,-0.333027 0.08402,-0.671507 0.15625,-1 0.0038,-0.01718 0.02745,-0.04535 0.03125,-0.0625 0.03556,-0.15669 0.05109,-0.313289 0.09375,-0.46875 0.09447,-0.3476 0.214426,-0.661573 0.34375,-1 0.0043,-0.01099 -0.0042,-0.02017 0,-0.03125 0.642167,-1.664161 1.715797,-3.225073 3.1875,-4.46875 6.626144,-5.599476 11.75304,0.226679 17.53125,-4.65625 5.778218,-4.882923 0.623858,-10.68177 7.25,-16.28125 4.709482,-3.979862 11.813312,-3.458209 15.875,1.15625 1.717066,1.950746 2.610152,4.299806 2.71875,6.6875 0.126117,-2.716756 -0.762504,-5.465023 -2.71875,-7.6875 C 66.2778,17.248117 63.024624,15.932555 59.78125,16 z M 46.625,48.5 c -0.01599,0.169087 -0.04612,0.33026 -0.0625,0.5 0.269779,2.795159 0.393573,5.502084 3.3125,7.96875 5.778215,4.882926 10.905106,-0.943223 17.53125,4.65625 2.441219,2.062946 3.739265,4.919801 3.875,7.84375 0.148288,-3.260348 -1.156457,-6.546451 -3.875,-8.84375 C 60.780106,55.025527 55.653215,60.851676 49.875,55.96875 47.130707,53.64966 46.872545,51.117979 46.625,48.5 z"
       inkscape:connector-curvature="0"
       transform="translate(0,-74)"
       id="path3980"
       style="opacity:0.3;color:#000000;fill:#000000;fill-opacity:1;fill-rule:evenodd;stroke:none;stroke-width:1;marker:none;visibility:visible;display:inline;overflow:visible;enable-background:accumulate" />
    <path
       d="m 71.28125,27.53125 c -0.135735,2.923956 -1.433781,5.780774 -3.875,7.84375 C 60.780106,40.974473 55.653215,35.148326 49.875,40.03125 46.956073,42.497916 46.832279,45.20484 46.5625,48 c 0.01614,0.167229 0.04675,0.333404 0.0625,0.5 0.247367,-2.615321 0.508329,-5.151876 3.25,-7.46875 5.778215,-4.882924 10.905106,0.943223 17.53125,-4.65625 2.718543,-2.297331 4.023288,-5.583397 3.875,-8.84375 z M 24,48.53125 c -0.0034,0.0799 0.0015,0.17003 0,0.25 -0.0033,0.156323 -0.0032,0.281263 0,0.4375 4.49e-4,0.0199 -5.65e-4,0.04262 0,0.0625 0.0016,0.05971 -0.0025,0.12784 0,0.1875 0.0052,0.117208 0.02225,0.257921 0.03125,0.375 0.01173,0.155716 0.04405,0.282382 0.0625,0.4375 0.0021,0.01735 -0.0022,0.04515 0,0.0625 0.04147,0.333027 0.08401,0.671508 0.15625,1 0.0037,0.01706 0.02735,0.04548 0.03125,0.0625 0.03505,0.155747 0.05182,0.314423 0.09375,0.46875 0.09447,0.347602 0.214429,0.661574 0.34375,1 0.0042,0.01096 -0.0043,0.05165 0,0.0625 0.642169,1.664161 1.715797,3.193824 3.1875,4.4375 6.626145,5.599476 11.753039,-0.226679 17.53125,4.65625 5.778218,4.882922 0.623859,10.68177 7.25,16.28125 2.060384,1.741142 4.601854,2.6338 7.125,2.6875 3.244045,0.06904 6.465303,-1.248117 8.75,-3.84375 1.956246,-2.222478 2.844867,-4.97075 2.71875,-7.6875 -0.108598,2.387689 -1.001684,4.736753 -2.71875,6.6875 -2.284697,2.595633 -5.505955,3.912794 -8.75,3.84375 -2.523146,-0.0537 -5.064616,-0.946358 -7.125,-2.6875 -6.626141,-5.59948 -1.471782,-11.398328 -7.25,-16.28125 -5.778211,-4.882929 -10.905105,0.943226 -17.53125,-4.65625 -1.471703,-1.243676 -2.545331,-2.773339 -3.1875,-4.4375 -0.0043,-0.01085 0.0042,-0.05154 0,-0.0625 -0.129321,-0.338426 -0.249283,-0.652398 -0.34375,-1 -0.04193,-0.154327 -0.0587,-0.313003 -0.09375,-0.46875 -0.0039,-0.01702 -0.02755,-0.04544 -0.03125,-0.0625 -0.07224,-0.328492 -0.114779,-0.666973 -0.15625,-1 -0.0022,-0.01735 0.0021,-0.04515 0,-0.0625 -0.01845,-0.155118 -0.05077,-0.281784 -0.0625,-0.4375 -0.0075,-0.0977 -0.02522,-0.214253 -0.03125,-0.3125 z"
       inkscape:connector-curvature="0"
       transform="translate(0,-74)"
       id="path3989"
       style="opacity:0.5;color:#000000;fill:#ffffff;fill-opacity:1;fill-rule:evenodd;stroke:none;stroke-width:1;marker:none;visibility:visible;display:inline;overflow:visible;enable-background:accumulate" />
  </g>
</svg>
