<?xml version="1.0" encoding="UTF-8" standalone="no"?>
<!-- Created with Inkscape (http://www.inkscape.org/) -->

<svg
   xmlns:dc="http://purl.org/dc/elements/1.1/"
   xmlns:cc="http://creativecommons.org/ns#"
   xmlns:rdf="http://www.w3.org/1999/02/22-rdf-syntax-ns#"
   xmlns:svg="http://www.w3.org/2000/svg"
   xmlns="http://www.w3.org/2000/svg"
   xmlns:xlink="http://www.w3.org/1999/xlink"
   xmlns:inkscape="http://www.inkscape.org/namespaces/inkscape"
   version="1.0"
   width="96"
   height="96"
   id="svg2"
   style="display:inline">
  <defs
     id="defs4">
    <linearGradient
       x1="7.1904788"
       y1="6.9551144"
       x2="7.1904788"
       y2="18.319494"
       id="linearGradient4528"
       gradientUnits="userSpaceOnUse"
       gradientTransform="scale(1.1467263,0.8720476)">
      <stop
         id="stop4530"
         style="stop-color:#323232;stop-opacity:1"
         offset="0" />
      <stop
         id="stop4532"
         style="stop-color:#787878;stop-opacity:1"
         offset="1" />
    </linearGradient>
    <linearGradient
       x1="14"
       y1="1"
       x2="14"
       y2="21.024984"
       id="linearGradient3714"
       xlink:href="#linearGradient4528"
       gradientUnits="userSpaceOnUse"
       gradientTransform="matrix(3.1351351,0,0,3.1351351,9.3243243,-60.135135)" />
    <clipPath
       id="clipPath3266">
      <path
         d="M 0,0 0,96 96,96 96,0 0,0 z m 12,6 72,0 c 3.324,0 6,2.676 6,6 l 0,72 c 0,3.324 -2.676,6 -6,6 L 12,90 C 8.676,90 6,87.324 6,84 L 6,12 C 6,8.676 8.676,6 12,6 z"
         inkscape:connector-curvature="0"
         id="path3268"
         style="opacity:0.3;color:#000000;fill:#ff0000;fill-opacity:1;fill-rule:nonzero;stroke:none;stroke-width:4;marker:none;visibility:visible;display:inline;overflow:visible;enable-background:accumulate" />
    </clipPath>
    <linearGradient
       x1="32.251034"
       y1="6.1317081"
       x2="32.251034"
       y2="90.238609"
       id="linearGradient3101"
       xlink:href="#ButtonShadow-0"
       gradientUnits="userSpaceOnUse"
       gradientTransform="matrix(1.0238095,0,0,1.0119048,-1.1428571,-98.071429)" />
    <linearGradient
       x1="45.447727"
       y1="92.539597"
       x2="45.447727"
       y2="7.0165396"
       id="ButtonShadow-0"
       gradientUnits="userSpaceOnUse"
       gradientTransform="matrix(1.0058652,0,0,0.994169,100,0)">
      <stop
         id="stop3750-8"
         style="stop-color:#000000;stop-opacity:1"
         offset="0" />
      <stop
         id="stop3752-5"
         style="stop-color:#000000;stop-opacity:0.58823532"
         offset="1" />
    </linearGradient>
    <linearGradient
       x1="32.251034"
       y1="6.1317081"
       x2="32.251034"
       y2="90.238609"
       id="linearGradient3780"
       xlink:href="#ButtonShadow-0"
       gradientUnits="userSpaceOnUse"
       gradientTransform="matrix(1.0238095,0,0,1.0119048,-1.1428571,-98.071429)" />
    <linearGradient
       x1="32.251034"
       y1="6.1317081"
       x2="32.251034"
       y2="90.238609"
       id="linearGradient3772"
       xlink:href="#ButtonShadow-0"
       gradientUnits="userSpaceOnUse"
       gradientTransform="matrix(1.0238095,0,0,1.0119048,-1.1428571,-98.071429)" />
    <linearGradient
       x1="32.251034"
       y1="6.1317081"
       x2="32.251034"
       y2="90.238609"
       id="linearGradient3725-8"
       xlink:href="#ButtonShadow-0"
       gradientUnits="userSpaceOnUse"
       gradientTransform="matrix(1.0238095,0,0,1.0119048,-1.1428571,-98.071429)" />
    <linearGradient
       x1="48"
       y1="90"
       x2="48"
       y2="5.9877172"
       id="linearGradient3052"
       xlink:href="#ButtonColor-6"
       gradientUnits="userSpaceOnUse" />
    <linearGradient
       x1="10.31979"
       y1="21"
       x2="10.31979"
       y2="0.99929649"
       id="ButtonColor-6"
       gradientUnits="userSpaceOnUse">
      <stop
         id="stop3189-4"
         style="stop-color:#c8c8c8;stop-opacity:1"
         offset="0" />
      <stop
         id="stop3191-0"
         style="stop-color:#e6e6e6;stop-opacity:1"
         offset="1" />
    </linearGradient>
    <linearGradient
       x1="36.357143"
       y1="6"
       x2="36.357143"
       y2="63.893143"
       id="linearGradient3188"
       xlink:href="#linearGradient3737-1"
       gradientUnits="userSpaceOnUse" />
    <linearGradient
       id="linearGradient3737-1">
      <stop
         id="stop3739"
         style="stop-color:#ffffff;stop-opacity:1"
         offset="0" />
      <stop
         id="stop3741"
         style="stop-color:#ffffff;stop-opacity:0"
         offset="1" />
    </linearGradient>
    <radialGradient
       cx="48"
       cy="90.171875"
       r="42"
       fx="48"
       fy="90.171875"
       id="radialGradient3619"
       xlink:href="#linearGradient3737-1"
       gradientUnits="userSpaceOnUse"
       gradientTransform="matrix(1.1573129,0,0,0.99590774,-7.551021,0.1971319)" />
    <linearGradient
       x1="32.251034"
       y1="6.1317081"
       x2="32.251034"
       y2="90.238609"
       id="linearGradient4256"
       xlink:href="#ButtonShadow-0"
       gradientUnits="userSpaceOnUse"
       gradientTransform="translate(0,-97)" />
    <filter
       color-interpolation-filters="sRGB"
       id="filter3998">
      <feGaussianBlur
         id="feGaussianBlur4000"
         stdDeviation="0.78264169" />
    </filter>
  </defs>
  <metadata
     id="metadata7">
    <rdf:RDF>
      <cc:Work
         rdf:about="">
        <dc:format>image/svg+xml</dc:format>
        <dc:type
           rdf:resource="http://purl.org/dc/dcmitype/StillImage" />
        <dc:title />
      </cc:Work>
    </rdf:RDF>
  </metadata>
  <g
     id="layer2">
    <g
       clip-path="url(#clipPath3266)"
       id="g3202"
       style="display:inline">
      <path
         d="m 12,-95.03125 c -5.5110903,0 -10.03125,4.52016 -10.03125,10.03125 l 0,71 c 0,5.5110902 4.5201598,10.03125 10.03125,10.03125 l 72,0 c 5.51109,0 10.03125,-4.5201597 10.03125,-10.03125 l 0,-71 c 0,-5.51109 -4.52016,-10.03125 -10.03125,-10.03125 l -72,0 z"
         transform="scale(1,-1)"
         id="path3786"
         style="opacity:0.07999998;fill:url(#linearGradient3101);fill-opacity:1;fill-rule:nonzero;stroke:none;display:inline" />
      <path
         d="m 12,-94.03125 c -4.971633,0 -9.03125,4.059617 -9.03125,9.03125 l 0,71 c 0,4.9716329 4.0596171,9.03125 9.03125,9.03125 l 72,0 c 4.971633,0 9.03125,-4.059617 9.03125,-9.03125 l 0,-71 c 0,-4.971633 -4.059617,-9.03125 -9.03125,-9.03125 l -72,0 z"
         transform="scale(1,-1)"
         id="path3778"
         style="opacity:0.1;fill:url(#linearGradient3780);fill-opacity:1;fill-rule:nonzero;stroke:none;display:inline" />
      <path
         d="m 12,-93 c -4.4091333,0 -8,3.590867 -8,8 l 0,71 c 0,4.4091333 3.5908667,8 8,8 l 72,0 c 4.409133,0 8,-3.5908667 8,-8 l 0,-71 c 0,-4.409133 -3.590867,-8 -8,-8 l -72,0 z"
         transform="scale(1,-1)"
         id="path3770"
         style="opacity:0.2;fill:url(#linearGradient3772);fill-opacity:1;fill-rule:nonzero;stroke:none;display:inline" />
      <rect
         width="86"
         height="85"
         rx="7"
         ry="7"
         x="5"
         y="-92"
         transform="scale(1,-1)"
         id="rect3723"
         style="opacity:0.3;fill:url(#linearGradient3725-8);fill-opacity:1;fill-rule:nonzero;stroke:none;display:inline" />
      <rect
         width="84"
         height="84"
         rx="6"
         ry="6"
         x="6"
         y="-91"
         transform="scale(1,-1)"
         id="rect3716"
         style="opacity:0.45;fill:url(#linearGradient4256);fill-opacity:1;fill-rule:nonzero;stroke:none;display:inline" />
    </g>
    <rect
       width="84"
       height="84"
       rx="6"
       ry="6"
       x="6"
       y="6"
       id="rect2419"
       style="opacity:0.75;fill:url(#linearGradient3052);fill-opacity:1;fill-rule:nonzero;stroke:none;display:inline" />
    <path
       d="M 12,6 C 8.676,6 6,8.676 6,12 l 0,2 0,68 0,2 c 0,0.334721 0.04135,0.6507 0.09375,0.96875 0.0487,0.295596 0.09704,0.596915 0.1875,0.875 0.00988,0.03038 0.020892,0.0636 0.03125,0.09375 0.098865,0.287771 0.2348802,0.547452 0.375,0.8125 0.1445918,0.273507 0.3156161,0.535615 0.5,0.78125 0.1843839,0.245635 0.3737765,0.473472 0.59375,0.6875 0.439947,0.428056 0.94291,0.814526 1.5,1.09375 0.278545,0.139612 0.5734731,0.246947 0.875,0.34375 -0.2562018,-0.100222 -0.4867109,-0.236272 -0.71875,-0.375 -0.00741,-0.0044 -0.023866,0.0045 -0.03125,0 -0.031933,-0.0193 -0.062293,-0.04251 -0.09375,-0.0625 -0.120395,-0.0767 -0.2310226,-0.163513 -0.34375,-0.25 -0.1061728,-0.0808 -0.2132809,-0.161112 -0.3125,-0.25 C 8.4783201,88.557317 8.3087904,88.373362 8.15625,88.1875 8.0486711,88.057245 7.9378561,87.922215 7.84375,87.78125 7.818661,87.74287 7.805304,87.69538 7.78125,87.65625 7.716487,87.553218 7.6510225,87.451733 7.59375,87.34375 7.4927417,87.149044 7.3880752,86.928049 7.3125,86.71875 7.30454,86.69694 7.288911,86.6782 7.28125,86.65625 7.2494249,86.5643 7.2454455,86.469419 7.21875,86.375 7.188418,86.268382 7.148361,86.171969 7.125,86.0625 7.052121,85.720988 7,85.364295 7,85 L 7,83 7,15 7,13 C 7,10.218152 9.2181517,8 12,8 l 2,0 68,0 2,0 c 2.781848,0 5,2.218152 5,5 l 0,2 0,68 0,2 c 0,0.364295 -0.05212,0.720988 -0.125,1.0625 -0.04415,0.206893 -0.08838,0.397658 -0.15625,0.59375 -0.0077,0.02195 -0.0233,0.04069 -0.03125,0.0625 -0.06274,0.173739 -0.138383,0.367449 -0.21875,0.53125 -0.04158,0.0828 -0.07904,0.169954 -0.125,0.25 -0.0546,0.09721 -0.126774,0.18835 -0.1875,0.28125 -0.09411,0.140965 -0.204921,0.275995 -0.3125,0.40625 -0.143174,0.17445 -0.303141,0.346998 -0.46875,0.5 -0.01117,0.0102 -0.01998,0.02115 -0.03125,0.03125 -0.138386,0.125556 -0.285091,0.234436 -0.4375,0.34375 -0.102571,0.07315 -0.204318,0.153364 -0.3125,0.21875 -0.0074,0.0045 -0.02384,-0.0044 -0.03125,0 -0.232039,0.138728 -0.462548,0.274778 -0.71875,0.375 0.301527,-0.0968 0.596455,-0.204138 0.875,-0.34375 0.55709,-0.279224 1.060053,-0.665694 1.5,-1.09375 0.219973,-0.214028 0.409366,-0.441865 0.59375,-0.6875 0.184384,-0.245635 0.355408,-0.507743 0.5,-0.78125 0.14012,-0.265048 0.276135,-0.524729 0.375,-0.8125 0.01041,-0.03078 0.02133,-0.06274 0.03125,-0.09375 0.09046,-0.278085 0.1388,-0.579404 0.1875,-0.875 C 89.95865,84.6507 90,84.334721 90,84 l 0,-2 0,-68 0,-2 C 90,8.676 87.324,6 84,6 L 12,6 z"
       inkscape:connector-curvature="0"
       id="rect3728"
       style="opacity:0.5;fill:url(#linearGradient3188);fill-opacity:1;fill-rule:nonzero;stroke:none;display:inline" />
    <path
       d="M 12,90 C 8.676,90 6,87.324 6,84 L 6,82 6,14 6,12 c 0,-0.334721 0.04135,-0.6507 0.09375,-0.96875 0.0487,-0.295596 0.09704,-0.596915 0.1875,-0.875 C 6.29113,10.12587 6.302142,10.09265 6.3125,10.0625 6.411365,9.774729 6.5473802,9.515048 6.6875,9.25 6.8320918,8.976493 7.0031161,8.714385 7.1875,8.46875 7.3718839,8.223115 7.5612765,7.995278 7.78125,7.78125 8.221197,7.353194 8.72416,6.966724 9.28125,6.6875 9.559795,6.547888 9.8547231,6.440553 10.15625,6.34375 9.9000482,6.443972 9.6695391,6.580022 9.4375,6.71875 c -0.00741,0.0044 -0.023866,-0.0045 -0.03125,0 -0.031933,0.0193 -0.062293,0.04251 -0.09375,0.0625 -0.120395,0.0767 -0.2310226,0.163513 -0.34375,0.25 -0.1061728,0.0808 -0.2132809,0.161112 -0.3125,0.25 C 8.4783201,7.442683 8.3087904,7.626638 8.15625,7.8125 8.0486711,7.942755 7.9378561,8.077785 7.84375,8.21875 7.818661,8.25713 7.805304,8.30462 7.78125,8.34375 7.716487,8.446782 7.6510225,8.548267 7.59375,8.65625 7.4927417,8.850956 7.3880752,9.071951 7.3125,9.28125 7.30454,9.30306 7.288911,9.3218 7.28125,9.34375 7.2494249,9.4357 7.2454455,9.530581 7.21875,9.625 7.188418,9.731618 7.148361,9.828031 7.125,9.9375 7.052121,10.279012 7,10.635705 7,11 l 0,2 0,68 0,2 c 0,2.781848 2.2181517,5 5,5 l 2,0 68,0 2,0 c 2.781848,0 5,-2.218152 5,-5 l 0,-2 0,-68 0,-2 C 89,10.635705 88.94788,10.279012 88.875,9.9375 88.83085,9.730607 88.78662,9.539842 88.71875,9.34375 88.71105,9.3218 88.69545,9.30306 88.6875,9.28125 88.62476,9.107511 88.549117,8.913801 88.46875,8.75 88.42717,8.6672 88.38971,8.580046 88.34375,8.5 88.28915,8.40279 88.216976,8.31165 88.15625,8.21875 88.06214,8.077785 87.951329,7.942755 87.84375,7.8125 87.700576,7.63805 87.540609,7.465502 87.375,7.3125 87.36383,7.3023 87.35502,7.29135 87.34375,7.28125 87.205364,7.155694 87.058659,7.046814 86.90625,6.9375 86.803679,6.86435 86.701932,6.784136 86.59375,6.71875 c -0.0074,-0.0045 -0.02384,0.0044 -0.03125,0 -0.232039,-0.138728 -0.462548,-0.274778 -0.71875,-0.375 0.301527,0.0968 0.596455,0.204138 0.875,0.34375 0.55709,0.279224 1.060053,0.665694 1.5,1.09375 0.219973,0.214028 0.409366,0.441865 0.59375,0.6875 0.184384,0.245635 0.355408,0.507743 0.5,0.78125 0.14012,0.265048 0.276135,0.524729 0.375,0.8125 0.01041,0.03078 0.02133,0.06274 0.03125,0.09375 0.09046,0.278085 0.1388,0.579404 0.1875,0.875 C 89.95865,11.3493 90,11.665279 90,12 l 0,2 0,68 0,2 c 0,3.324 -2.676,6 -6,6 l -72,0 z"
       inkscape:connector-curvature="0"
       id="path3615"
       style="opacity:0.2;fill:url(#radialGradient3619);fill-opacity:1;fill-rule:nonzero;stroke:none;display:inline" />
  </g>
  <g
     transform="translate(0,74)"
     id="layer1">
    <path
       d="m 50.081081,-57 0,6.27027 0,6.270271 0,29.293918 c -3.321973,-1.302253 -7.502428,-1.423106 -11.658784,0 C 30.926726,-12.599106 26.50467,-6.1538956 28.625,-0.6655405 30.74533,4.822814 38.568618,7.191434 46.064189,4.625 52.197808,2.524889 56.250322,-2.1722645 56.351351,-6.8378378 c 0.0069,-0.3232826 0.03135,-0.658206 0,-0.9797298 l 0,-33.7027024 c 5.51301,3.501152 12.654675,10.781524 12.540541,25.277027 C 73.536733,-44.85546 58.999174,-41.764924 50.081081,-57 z"
       inkscape:connector-curvature="0"
       id="path3996"
       style="opacity:0.2;color:#000000;fill:none;stroke:#ffffff;stroke-width:4;stroke-miterlimit:4;stroke-dasharray:none;marker:none;visibility:visible;display:inline;overflow:visible;filter:url(#filter3998);enable-background:accumulate" />
    <path
       d="m 50.081081,-57 0,6.27027 0,6.270271 0,29.293918 c -3.321973,-1.302253 -7.502428,-1.423106 -11.658784,0 C 30.926726,-12.599106 26.50467,-6.1538956 28.625,-0.6655405 30.74533,4.822814 38.568618,7.191434 46.064189,4.625 52.197808,2.524889 56.250322,-2.1722645 56.351351,-6.8378378 c 0.0069,-0.3232826 0.03135,-0.658206 0,-0.9797298 l 0,-33.7027024 c 5.51301,3.501152 12.654675,10.781524 12.540541,25.277027 C 73.536733,-44.85546 58.999174,-41.764924 50.081081,-57 z"
       inkscape:connector-curvature="0"
       id="path2928"
       style="color:#000000;fill:url(#linearGradient3714);fill-opacity:1;stroke:none;stroke-width:1;marker:none;visibility:visible;display:inline;overflow:visible;enable-background:accumulate" />
    <rect
       width="96"
       height="96"
       x="-100"
       y="-74"
       id="rect3708"
       style="opacity:0.3;color:#000000;fill:#ff0000;fill-opacity:1;fill-rule:nonzero;stroke:none;stroke-width:4;marker:none;visibility:visible;display:inline;overflow:visible;enable-background:accumulate" />
    <path
       d="m 50.09375,17 0,6.28125 0,6.25 0,29.3125 c -3.321973,-1.302253 -7.499894,-1.423106 -11.65625,0 -7.495571,2.566435 -11.93283,9.011645 -9.8125,14.5 2.12033,5.488354 9.941929,7.847684 17.4375,5.28125 6.133619,-2.100111 10.180221,-6.803177 10.28125,-11.46875 0.0069,-0.323283 0.03135,-0.647226 0,-0.96875 l 0,-33.71875 C 61.85676,35.969902 69.020384,43.254497 68.90625,57.75 73.551091,29.137783 59.011843,32.235076 50.09375,17 z m 2.125,6.53125 c 3.865517,4.417011 7.936674,7.073874 10.75,10.25 1.444369,1.630631 2.537132,3.59255 3.375,5.9375 C 63.706563,35.460214 60.409436,32.503948 57.5,30.65625 a 2.1408319,2.1408319 0 0 0 -3.28125,1.8125 l 0,33.71875 a 2.1408319,2.1408319 0 0 0 0,0.21875 c 0.0074,0.07631 0.0086,0.318111 0,0.71875 -0.07492,3.459821 -3.363759,7.592437 -8.84375,9.46875 -3.341713,1.144181 -6.759739,1.184991 -9.4375,0.375 -2.677761,-0.809991 -4.534043,-2.391257 -5.3125,-4.40625 -0.777759,-2.013184 -0.414713,-4.203698 1.0625,-6.375 1.477213,-2.171302 4.086801,-4.165242 7.4375,-5.3125 3.705303,-1.268669 7.391419,-1.127347 10.1875,-0.03125 a 2.1408319,2.1408319 0 0 0 2.90625,-2 l 0,-29.3125 0,-6 z"
       inkscape:connector-curvature="0"
       transform="translate(0,-74)"
       id="path3968"
       style="opacity:0.1;color:#000000;fill:#000000;fill-opacity:1;stroke:none;stroke-width:1;marker:none;visibility:visible;display:inline;overflow:visible;enable-background:accumulate" />
    <path
       d="m 50.09375,17 0,6.28125 0,6.25 0,29.3125 c -3.321973,-1.302253 -7.499894,-1.423106 -11.65625,0 -7.495571,2.566435 -11.93283,9.011645 -9.8125,14.5 2.12033,5.488354 9.941929,7.847684 17.4375,5.28125 6.133619,-2.100111 10.180221,-6.803177 10.28125,-11.46875 0.0069,-0.323283 0.03135,-0.647226 0,-0.96875 l 0,-33.71875 C 61.85676,35.969902 69.020384,43.254497 68.90625,57.75 73.551091,29.137783 59.011843,32.235076 50.09375,17 z M 51.25,20.59375 c 4.230136,5.662162 9.074006,8.698728 12.46875,12.53125 2.759376,3.115218 4.623962,7.051279 4.8125,13.78125 C 66.07818,38.920243 61.097582,34.122101 56.96875,31.5 a 1.1517074,1.1517074 0 0 0 -1.78125,0.96875 l 0,33.71875 a 1.1517074,1.1517074 0 0 0 0,0.125 c 0.01849,0.189608 0.0078,0.447602 0,0.8125 -0.08698,4.016912 -3.718015,8.426536 -9.5,10.40625 -3.52933,1.208419 -7.131888,1.252023 -10.03125,0.375 -2.899362,-0.877023 -5.060136,-2.616854 -5.96875,-4.96875 -0.908238,-2.350924 -0.430173,-4.903491 1.1875,-7.28125 1.617673,-2.377759 4.403336,-4.508675 7.9375,-5.71875 3.913702,-1.340023 7.835942,-1.222597 10.875,-0.03125 a 1.1517074,1.1517074 0 0 0 1.5625,-1.0625 l 0,-29.3125 0,-6.25 0,-2.6875 z"
       inkscape:connector-curvature="0"
       transform="translate(0,-74)"
       id="path3196"
       style="opacity:0.2;color:#000000;fill:#000000;fill-opacity:1;stroke:none;stroke-width:1;marker:none;visibility:visible;display:inline;overflow:visible;enable-background:accumulate" />
    <path
       d="m 50.09375,17 0,1 C 57.802711,31.169475 69.694105,30.653217 69.78125,48.75 70.135322,29.624471 57.942796,30.408787 50.09375,17 z M 44.5625,57.8125 c -1.979905,-0.01511 -4.046822,0.319697 -6.125,1.03125 C 31.989009,61.051672 27.815144,66.129524 28.125,71 c 0.273596,-4.550146 4.305491,-9.099489 10.3125,-11.15625 4.156356,-1.423106 8.334277,-1.302253 11.65625,0 l 0,-1 C 48.432764,58.192624 46.542405,57.827607 44.5625,57.8125 z"
       inkscape:connector-curvature="0"
       transform="translate(0,-74)"
       id="path3978"
       style="opacity:0.3;color:#000000;fill:#000000;fill-opacity:1;stroke:none;stroke-width:1;marker:none;visibility:visible;display:inline;overflow:visible;enable-background:accumulate" />
    <path
       d="m 56.34375,32.46875 0,1 c 5.51301,3.501152 12.676634,10.785747 12.5625,25.28125 0.629756,-3.879299 0.888668,-7.161562 0.875,-10 -0.04823,2.604915 -0.318204,5.57014 -0.875,9 0.114134,-14.495503 -7.04949,-21.780098 -12.5625,-25.28125 z m 0,34.71875 C 56.225443,71.842839 52.182497,76.529553 46.0625,78.625 38.566929,81.191434 30.74533,78.832104 28.625,73.34375 28.328804,72.577064 28.175313,71.790848 28.125,71 c -0.0678,1.127545 0.07892,2.253806 0.5,3.34375 2.12033,5.488354 9.941929,7.847684 17.4375,5.28125 6.133619,-2.100111 10.180221,-6.803177 10.28125,-11.46875 0.0069,-0.323283 0.03135,-0.647226 0,-0.96875 z"
       inkscape:connector-curvature="0"
       transform="translate(0,-74)"
       id="path3987"
       style="opacity:0.5;color:#000000;fill:#ffffff;fill-opacity:1;stroke:none;stroke-width:1;marker:none;visibility:visible;display:inline;overflow:visible;enable-background:accumulate" />
  </g>
</svg>
