<?xml version="1.0" encoding="UTF-8" standalone="no"?>
<!-- Created with Inkscape (http://www.inkscape.org/) -->

<svg
   xmlns:dc="http://purl.org/dc/elements/1.1/"
   xmlns:cc="http://creativecommons.org/ns#"
   xmlns:rdf="http://www.w3.org/1999/02/22-rdf-syntax-ns#"
   xmlns:svg="http://www.w3.org/2000/svg"
   xmlns="http://www.w3.org/2000/svg"
   xmlns:xlink="http://www.w3.org/1999/xlink"
   xmlns:inkscape="http://www.inkscape.org/namespaces/inkscape"
   version="1.0"
   width="96"
   height="96"
   id="svg2408"
   style="display:inline">
  <defs
     id="defs2410">
    <linearGradient
       x1="11"
       y1="3.9374998"
       x2="11"
       y2="18.083122"
       id="linearGradient3904"
       gradientUnits="userSpaceOnUse">
      <stop
         id="stop3906"
         style="stop-color:#323232;stop-opacity:1"
         offset="0" />
      <stop
         id="stop3908"
         style="stop-color:#787878;stop-opacity:1"
         offset="1" />
    </linearGradient>
    <radialGradient
       cx="48"
       cy="90.171875"
       r="42"
       fx="48"
       fy="90.171875"
       id="radialGradient3619-7"
       xlink:href="#linearGradient3737-1"
       gradientUnits="userSpaceOnUse"
       gradientTransform="matrix(1.1573129,0,0,0.99590774,-7.551021,0.1971319)" />
    <linearGradient
       id="linearGradient3737-1">
      <stop
         id="stop3739-1"
         style="stop-color:#ffffff;stop-opacity:1"
         offset="0" />
      <stop
         id="stop3741-5"
         style="stop-color:#ffffff;stop-opacity:0"
         offset="1" />
    </linearGradient>
    <linearGradient
       x1="36.357143"
       y1="6"
       x2="36.357143"
       y2="63.893143"
       id="linearGradient3188-9"
       xlink:href="#linearGradient3737-1"
       gradientUnits="userSpaceOnUse" />
    <linearGradient
       x1="48"
       y1="90"
       x2="48"
       y2="5.9877172"
       id="linearGradient3052"
       xlink:href="#ButtonColor-6"
       gradientUnits="userSpaceOnUse" />
    <linearGradient
       x1="10.31979"
       y1="21"
       x2="10.31979"
       y2="0.99929649"
       id="ButtonColor-6"
       gradientUnits="userSpaceOnUse">
      <stop
         id="stop3189-4"
         style="stop-color:#c8c8c8;stop-opacity:1"
         offset="0" />
      <stop
         id="stop3191-0"
         style="stop-color:#e6e6e6;stop-opacity:1"
         offset="1" />
    </linearGradient>
    <clipPath
       id="clipPath3266">
      <path
         d="M 0,0 0,96 96,96 96,0 0,0 z m 12,6 72,0 c 3.324,0 6,2.676 6,6 l 0,72 c 0,3.324 -2.676,6 -6,6 L 12,90 C 8.676,90 6,87.324 6,84 L 6,12 C 6,8.676 8.676,6 12,6 z"
         inkscape:connector-curvature="0"
         id="path3268"
         style="opacity:0.3;color:#000000;fill:#ff0000;fill-opacity:1;fill-rule:nonzero;stroke:none;stroke-width:4;marker:none;visibility:visible;display:inline;overflow:visible;enable-background:accumulate" />
    </clipPath>
    <linearGradient
       x1="32.251034"
       y1="6.1317081"
       x2="32.251034"
       y2="90.238609"
       id="linearGradient3101"
       xlink:href="#ButtonShadow-0-7"
       gradientUnits="userSpaceOnUse"
       gradientTransform="matrix(1.0238095,0,0,1.0119048,-1.1428571,-98.071429)" />
    <linearGradient
       x1="45.447727"
       y1="92.539597"
       x2="45.447727"
       y2="7.0165396"
       id="ButtonShadow-0-7"
       gradientUnits="userSpaceOnUse"
       gradientTransform="matrix(1.0058652,0,0,0.994169,100,0)">
      <stop
         id="stop3750-8-7"
         style="stop-color:#000000;stop-opacity:1"
         offset="0" />
      <stop
         id="stop3752-5-6"
         style="stop-color:#000000;stop-opacity:0.58823532"
         offset="1" />
    </linearGradient>
    <linearGradient
       x1="32.251034"
       y1="6.1317081"
       x2="32.251034"
       y2="90.238609"
       id="linearGradient3780-7"
       xlink:href="#ButtonShadow-0-7"
       gradientUnits="userSpaceOnUse"
       gradientTransform="matrix(1.0238095,0,0,1.0119048,-1.1428571,-98.071429)" />
    <linearGradient
       x1="32.251034"
       y1="6.1317081"
       x2="32.251034"
       y2="90.238609"
       id="linearGradient3772-3"
       xlink:href="#ButtonShadow-0-7"
       gradientUnits="userSpaceOnUse"
       gradientTransform="matrix(1.0238095,0,0,1.0119048,-1.1428571,-98.071429)" />
    <linearGradient
       x1="32.251034"
       y1="6.1317081"
       x2="32.251034"
       y2="90.238609"
       id="linearGradient3725-6"
       xlink:href="#ButtonShadow-0-7"
       gradientUnits="userSpaceOnUse"
       gradientTransform="matrix(1.0238095,0,0,1.0119048,-1.1428571,-98.071429)" />
    <linearGradient
       x1="32.251034"
       y1="6.1317081"
       x2="32.251034"
       y2="90.238609"
       id="linearGradient4326"
       xlink:href="#ButtonShadow-0-7"
       gradientUnits="userSpaceOnUse"
       gradientTransform="translate(0,-97)" />
    <linearGradient
       x1="32"
       y1="36"
       x2="32"
       y2="68"
       id="linearGradient3928"
       xlink:href="#linearGradient3904"
       gradientUnits="userSpaceOnUse" />
    <linearGradient
       x1="64"
       y1="24"
       x2="64"
       y2="72"
       id="linearGradient3930"
       xlink:href="#linearGradient3904"
       gradientUnits="userSpaceOnUse" />
    <filter
       color-interpolation-filters="sRGB"
       id="filter3986">
      <feGaussianBlur
         id="feGaussianBlur3988"
         stdDeviation="0.87773437" />
    </filter>
  </defs>
  <metadata
     id="metadata2413">
    <rdf:RDF>
      <cc:Work
         rdf:about="">
        <dc:format>image/svg+xml</dc:format>
        <dc:type
           rdf:resource="http://purl.org/dc/dcmitype/StillImage" />
        <dc:title />
      </cc:Work>
    </rdf:RDF>
  </metadata>
  <g
     id="layer1">
    <g
       clip-path="url(#clipPath3266)"
       id="g3202"
       style="display:inline">
      <path
         d="m 12,-95.03125 c -5.5110903,0 -10.03125,4.52016 -10.03125,10.03125 l 0,71 c 0,5.5110902 4.5201598,10.03125 10.03125,10.03125 l 72,0 c 5.51109,0 10.03125,-4.5201597 10.03125,-10.03125 l 0,-71 c 0,-5.51109 -4.52016,-10.03125 -10.03125,-10.03125 l -72,0 z"
         transform="scale(1,-1)"
         id="path3786"
         style="opacity:0.07999998;fill:url(#linearGradient3101);fill-opacity:1;fill-rule:nonzero;stroke:none;display:inline" />
      <path
         d="m 12,-94.03125 c -4.971633,0 -9.03125,4.059617 -9.03125,9.03125 l 0,71 c 0,4.9716329 4.0596171,9.03125 9.03125,9.03125 l 72,0 c 4.971633,0 9.03125,-4.059617 9.03125,-9.03125 l 0,-71 c 0,-4.971633 -4.059617,-9.03125 -9.03125,-9.03125 l -72,0 z"
         transform="scale(1,-1)"
         id="path3778"
         style="opacity:0.1;fill:url(#linearGradient3780-7);fill-opacity:1;fill-rule:nonzero;stroke:none;display:inline" />
      <path
         d="m 12,-93 c -4.4091333,0 -8,3.590867 -8,8 l 0,71 c 0,4.4091333 3.5908667,8 8,8 l 72,0 c 4.409133,0 8,-3.5908667 8,-8 l 0,-71 c 0,-4.409133 -3.590867,-8 -8,-8 l -72,0 z"
         transform="scale(1,-1)"
         id="path3770"
         style="opacity:0.2;fill:url(#linearGradient3772-3);fill-opacity:1;fill-rule:nonzero;stroke:none;display:inline" />
      <rect
         width="86"
         height="85"
         rx="7"
         ry="7"
         x="5"
         y="-92"
         transform="scale(1,-1)"
         id="rect3723"
         style="opacity:0.3;fill:url(#linearGradient3725-6);fill-opacity:1;fill-rule:nonzero;stroke:none;display:inline" />
      <rect
         width="84"
         height="84"
         rx="6"
         ry="6"
         x="6"
         y="-91"
         transform="scale(1,-1)"
         id="rect3716"
         style="opacity:0.45;fill:url(#linearGradient4326);fill-opacity:1;fill-rule:nonzero;stroke:none;display:inline" />
    </g>
    <rect
       width="84"
       height="84"
       rx="6"
       ry="6"
       x="6"
       y="6"
       id="rect2419"
       style="opacity:0.75;fill:url(#linearGradient3052);fill-opacity:1;fill-rule:nonzero;stroke:none;display:inline" />
    <path
       d="M 12,6 C 8.676,6 6,8.676 6,12 l 0,2 0,68 0,2 c 0,0.334721 0.04135,0.6507 0.09375,0.96875 0.0487,0.295596 0.09704,0.596915 0.1875,0.875 0.00988,0.03038 0.020892,0.0636 0.03125,0.09375 0.098865,0.287771 0.2348802,0.547452 0.375,0.8125 0.1445918,0.273507 0.3156161,0.535615 0.5,0.78125 0.1843839,0.245635 0.3737765,0.473472 0.59375,0.6875 0.439947,0.428056 0.94291,0.814526 1.5,1.09375 0.278545,0.139612 0.5734731,0.246947 0.875,0.34375 -0.2562018,-0.100222 -0.4867109,-0.236272 -0.71875,-0.375 -0.00741,-0.0044 -0.023866,0.0045 -0.03125,0 -0.031933,-0.0193 -0.062293,-0.04251 -0.09375,-0.0625 -0.120395,-0.0767 -0.2310226,-0.163513 -0.34375,-0.25 -0.1061728,-0.0808 -0.2132809,-0.161112 -0.3125,-0.25 C 8.4783201,88.557317 8.3087904,88.373362 8.15625,88.1875 8.0486711,88.057245 7.9378561,87.922215 7.84375,87.78125 7.818661,87.74287 7.805304,87.69538 7.78125,87.65625 7.716487,87.553218 7.6510225,87.451733 7.59375,87.34375 7.4927417,87.149044 7.3880752,86.928049 7.3125,86.71875 7.30454,86.69694 7.288911,86.6782 7.28125,86.65625 7.2494249,86.5643 7.2454455,86.469419 7.21875,86.375 7.188418,86.268382 7.148361,86.171969 7.125,86.0625 7.052121,85.720988 7,85.364295 7,85 L 7,83 7,15 7,13 C 7,10.218152 9.2181517,8 12,8 l 2,0 68,0 2,0 c 2.781848,0 5,2.218152 5,5 l 0,2 0,68 0,2 c 0,0.364295 -0.05212,0.720988 -0.125,1.0625 -0.04415,0.206893 -0.08838,0.397658 -0.15625,0.59375 -0.0077,0.02195 -0.0233,0.04069 -0.03125,0.0625 -0.06274,0.173739 -0.138383,0.367449 -0.21875,0.53125 -0.04158,0.0828 -0.07904,0.169954 -0.125,0.25 -0.0546,0.09721 -0.126774,0.18835 -0.1875,0.28125 -0.09411,0.140965 -0.204921,0.275995 -0.3125,0.40625 -0.143174,0.17445 -0.303141,0.346998 -0.46875,0.5 -0.01117,0.0102 -0.01998,0.02115 -0.03125,0.03125 -0.138386,0.125556 -0.285091,0.234436 -0.4375,0.34375 -0.102571,0.07315 -0.204318,0.153364 -0.3125,0.21875 -0.0074,0.0045 -0.02384,-0.0044 -0.03125,0 -0.232039,0.138728 -0.462548,0.274778 -0.71875,0.375 0.301527,-0.0968 0.596455,-0.204138 0.875,-0.34375 0.55709,-0.279224 1.060053,-0.665694 1.5,-1.09375 0.219973,-0.214028 0.409366,-0.441865 0.59375,-0.6875 0.184384,-0.245635 0.355408,-0.507743 0.5,-0.78125 0.14012,-0.265048 0.276135,-0.524729 0.375,-0.8125 0.01041,-0.03078 0.02133,-0.06274 0.03125,-0.09375 0.09046,-0.278085 0.1388,-0.579404 0.1875,-0.875 C 89.95865,84.6507 90,84.334721 90,84 l 0,-2 0,-68 0,-2 C 90,8.676 87.324,6 84,6 L 12,6 z"
       inkscape:connector-curvature="0"
       id="rect3728"
       style="opacity:0.5;fill:url(#linearGradient3188-9);fill-opacity:1;fill-rule:nonzero;stroke:none;display:inline" />
    <path
       d="M 12,90 C 8.676,90 6,87.324 6,84 L 6,82 6,14 6,12 c 0,-0.334721 0.04135,-0.6507 0.09375,-0.96875 0.0487,-0.295596 0.09704,-0.596915 0.1875,-0.875 C 6.29113,10.12587 6.302142,10.09265 6.3125,10.0625 6.411365,9.774729 6.5473802,9.515048 6.6875,9.25 6.8320918,8.976493 7.0031161,8.714385 7.1875,8.46875 7.3718839,8.223115 7.5612765,7.995278 7.78125,7.78125 8.221197,7.353194 8.72416,6.966724 9.28125,6.6875 9.559795,6.547888 9.8547231,6.440553 10.15625,6.34375 9.9000482,6.443972 9.6695391,6.580022 9.4375,6.71875 c -0.00741,0.0044 -0.023866,-0.0045 -0.03125,0 -0.031933,0.0193 -0.062293,0.04251 -0.09375,0.0625 -0.120395,0.0767 -0.2310226,0.163513 -0.34375,0.25 -0.1061728,0.0808 -0.2132809,0.161112 -0.3125,0.25 C 8.4783201,7.442683 8.3087904,7.626638 8.15625,7.8125 8.0486711,7.942755 7.9378561,8.077785 7.84375,8.21875 7.818661,8.25713 7.805304,8.30462 7.78125,8.34375 7.716487,8.446782 7.6510225,8.548267 7.59375,8.65625 7.4927417,8.850956 7.3880752,9.071951 7.3125,9.28125 7.30454,9.30306 7.288911,9.3218 7.28125,9.34375 7.2494249,9.4357 7.2454455,9.530581 7.21875,9.625 7.188418,9.731618 7.148361,9.828031 7.125,9.9375 7.052121,10.279012 7,10.635705 7,11 l 0,2 0,68 0,2 c 0,2.781848 2.2181517,5 5,5 l 2,0 68,0 2,0 c 2.781848,0 5,-2.218152 5,-5 l 0,-2 0,-68 0,-2 C 89,10.635705 88.94788,10.279012 88.875,9.9375 88.83085,9.730607 88.78662,9.539842 88.71875,9.34375 88.71105,9.3218 88.69545,9.30306 88.6875,9.28125 88.62476,9.107511 88.549117,8.913801 88.46875,8.75 88.42717,8.6672 88.38971,8.580046 88.34375,8.5 88.28915,8.40279 88.216976,8.31165 88.15625,8.21875 88.06214,8.077785 87.951329,7.942755 87.84375,7.8125 87.700576,7.63805 87.540609,7.465502 87.375,7.3125 87.36383,7.3023 87.35502,7.29135 87.34375,7.28125 87.205364,7.155694 87.058659,7.046814 86.90625,6.9375 86.803679,6.86435 86.701932,6.784136 86.59375,6.71875 c -0.0074,-0.0045 -0.02384,0.0044 -0.03125,0 -0.232039,-0.138728 -0.462548,-0.274778 -0.71875,-0.375 0.301527,0.0968 0.596455,0.204138 0.875,0.34375 0.55709,0.279224 1.060053,0.665694 1.5,1.09375 0.219973,0.214028 0.409366,0.441865 0.59375,0.6875 0.184384,0.245635 0.355408,0.507743 0.5,0.78125 0.14012,0.265048 0.276135,0.524729 0.375,0.8125 0.01041,0.03078 0.02133,0.06274 0.03125,0.09375 0.09046,0.278085 0.1388,0.579404 0.1875,0.875 C 89.95865,11.3493 90,11.665279 90,12 l 0,2 0,68 0,2 c 0,3.324 -2.676,6 -6,6 l -72,0 z"
       inkscape:connector-curvature="0"
       id="path3615"
       style="opacity:0.2;fill:url(#radialGradient3619-7);fill-opacity:1;fill-rule:nonzero;stroke:none;display:inline" />
  </g>
  <g
     id="layer4">
    <path
       d="m 57,24 c -7.115551,0 -12.8125,5.35882 -12.8125,12 0.01606,0.7072 0.05752,1.732254 0.125,2.59375 -1.2168,0.51643 -1.314113,2.878904 -0.28125,5.3125 0.409584,0.965047 0.931247,1.700357 1.5,2.3125 0.138193,0.68394 0.110458,0.999513 0.28125,1.78125 0.476599,1.429793 2.358463,4.217792 4.09375,6.53125 0.170158,1.776697 0.346673,3.572512 0,5.59375 -1.789196,1.48442 -4.581986,2.67891 -7.4375,3.78125 -2.683621,-1.114687 -5.975381,-2.269353 -7.75,-3.8125 C 34.585529,58.997761 34.557284,57.891985 34.625,56.8125 35.679152,55.18573 37.114857,53.061686 37.46875,52 c 0.127188,-0.537627 0.150753,-0.912077 0.25,-1.375 0.315877,-0.382624 0.57981,-0.79549 0.8125,-1.34375 0.654149,-1.541277 0.640266,-3.026821 -0.0625,-3.46875 0.04143,-0.621003 0.04426,-1.27609 0.0625,-1.8125 -2e-6,-4.427454 -3.787547,-8 -8.53125,-8 -4.743701,0 -8.53125,3.572546 -8.53125,8 0.01071,0.471466 0.01752,1.144419 0.0625,1.71875 -0.8112,0.344286 -0.844825,1.940103 -0.15625,3.5625 0.273057,0.643365 0.620832,1.123155 1,1.53125 0.09213,0.45596 0.04239,0.666342 0.15625,1.1875 0.317732,0.953195 1.593142,2.832695 2.75,4.375 0.113439,1.184465 0.231115,2.371258 0,3.71875 -3.333414,2.76559 -11.919025,3.949423 -11.90625,6.8125 L 13.1875,68 33.5,68 c -0.904248,0.712414 -1.472685,1.49307 -1.46875,2.375 l -0.25,1.625 50.4375,0 -0.25,-1.625 c -0.02049,-3.675613 -12.936195,-5.955386 -17.875,-10.25 -0.199832,-1.643983 -0.226572,-3.287022 -0.125,-4.90625 1.581227,-2.440155 3.687909,-5.626221 4.21875,-7.21875 0.19078,-0.80644 0.257381,-1.336865 0.40625,-2.03125 0.473816,-0.573936 0.869713,-1.24011 1.21875,-2.0625 0.981222,-2.311916 0.929151,-4.524607 -0.125,-5.1875 C 69.74965,37.787245 69.78513,36.804615 69.8125,36 69.8125,29.35882 64.115556,24 57,24 z"
       inkscape:connector-curvature="0"
       id="path3979"
       style="opacity:0.2;fill:none;stroke:#ffffff;stroke-width:4;stroke-miterlimit:4;stroke-dasharray:none;filter:url(#filter3986)" />
    <path
       d="m 30,36 c -4.743701,0 -8.545454,3.572545 -8.545454,7.999999 0.01071,0.471466 0.04593,1.152943 0.09091,1.727274 -0.8112,0.344286 -0.870396,1.923056 -0.181821,3.545453 0.273057,0.643365 0.620832,1.137361 1,1.545456 0.09213,0.45596 0.06796,0.66066 0.181818,1.181818 0.317732,0.953195 1.570415,2.821332 2.727273,4.363637 0.113439,1.184465 0.231115,2.379781 0,3.727273 -3.333414,2.76559 -11.921866,3.955104 -11.909091,6.818181 L 13.181819,68 46.818181,68 46.636356,66.909091 c -0.01366,-2.450409 -8.616548,-3.955105 -11.909085,-6.818181 -0.133221,-1.095989 -0.158616,-2.193243 -0.0909,-3.272728 1.054152,-1.62677 2.464287,-3.756496 2.81818,-4.818182 0.127188,-0.537627 0.17348,-0.900714 0.272727,-1.363637 0.315877,-0.382624 0.585492,-0.815377 0.818182,-1.363637 0.654149,-1.541277 0.611866,-3.012616 -0.0909,-3.454545 0.04143,-0.621003 0.07266,-1.281772 0.0909,-1.818182 C 38.545458,39.572545 34.743708,36 30.000005,36 z"
       inkscape:connector-curvature="0"
       id="path3151"
       style="opacity:0.6;fill:url(#linearGradient3928);fill-opacity:1;stroke:none" />
    <path
       d="m 57.000001,24 c -7.115551,0 -12.818183,5.358818 -12.818183,11.999998 0.01606,0.7072 0.06889,1.729415 0.136367,2.590911 -1.2168,0.51643 -1.305593,2.884584 -0.27273,5.31818 0.409584,0.965047 0.931247,1.706041 1.5,2.318184 0.138193,0.68394 0.101934,0.99099 0.272726,1.772727 0.476599,1.429793 2.355622,4.231998 4.090909,6.545456 0.170158,1.776697 0.346673,3.569671 0,5.590909 -5.000119,4.148385 -17.882799,5.932656 -17.863635,10.227271 L 31.772728,72 82.227272,72 81.954534,70.363636 C 81.934039,66.688023 69.029713,64.430979 64.090908,60.136365 63.891076,58.492382 63.852982,56.846501 63.954554,55.227273 65.535781,52.787118 67.650984,49.592529 68.181825,48 c 0.19078,-0.80644 0.260219,-1.351071 0.409088,-2.045456 0.473816,-0.573936 0.878238,-1.223065 1.227275,-2.045455 0.981222,-2.311916 0.917798,-4.518924 -0.136353,-5.181817 0.06215,-0.931505 0.108983,-1.922659 0.136353,-2.727274 C 69.818188,29.358818 64.115563,24 57.000007,24 z"
       inkscape:connector-curvature="0"
       id="path3159"
       style="fill:url(#linearGradient3930);fill-opacity:1;stroke:none" />
    <path
       d="m 57,24 c -7.115551,0 -12.8125,5.35882 -12.8125,12 0.01606,0.7072 0.05752,1.732254 0.125,2.59375 -1.2168,0.51643 -1.314113,2.878904 -0.28125,5.3125 0.409584,0.965047 0.931247,1.700357 1.5,2.3125 0.138193,0.68394 0.110458,0.999513 0.28125,1.78125 0.476599,1.429793 2.358463,4.217792 4.09375,6.53125 0.170158,1.776697 0.346673,3.572512 0,5.59375 -1.789196,1.48442 -4.581986,2.67891 -7.4375,3.78125 -2.683621,-1.114687 -5.975381,-2.269353 -7.75,-3.8125 C 34.585529,58.997761 34.557284,57.891985 34.625,56.8125 35.679152,55.18573 37.114857,53.061686 37.46875,52 c 0.127188,-0.537627 0.150753,-0.912077 0.25,-1.375 0.315877,-0.382624 0.57981,-0.79549 0.8125,-1.34375 0.654149,-1.541277 0.640266,-3.026821 -0.0625,-3.46875 0.04143,-0.621003 0.04426,-1.27609 0.0625,-1.8125 -2e-6,-4.427454 -3.787547,-8 -8.53125,-8 -4.743701,0 -8.53125,3.572546 -8.53125,8 0.01071,0.471466 0.01752,1.144419 0.0625,1.71875 -0.8112,0.344286 -0.844825,1.940103 -0.15625,3.5625 0.273057,0.643365 0.620832,1.123155 1,1.53125 0.09213,0.45596 0.04239,0.666342 0.15625,1.1875 0.317732,0.953195 1.593142,2.832695 2.75,4.375 0.113439,1.184465 0.231115,2.371258 0,3.71875 -3.333414,2.76559 -11.919025,3.949423 -11.90625,6.8125 L 13.1875,68 33.5,68 c -0.904248,0.712414 -1.472685,1.49307 -1.46875,2.375 l -0.25,1.625 50.4375,0 -0.25,-1.625 c -0.02049,-3.675613 -12.936195,-5.955386 -17.875,-10.25 -0.199832,-1.643983 -0.226572,-3.287022 -0.125,-4.90625 1.581227,-2.440155 3.687909,-5.626221 4.21875,-7.21875 0.19078,-0.80644 0.257381,-1.336865 0.40625,-2.03125 0.473816,-0.573936 0.869713,-1.24011 1.21875,-2.0625 0.981222,-2.311916 0.929151,-4.524607 -0.125,-5.1875 C 69.74965,37.787245 69.78513,36.804615 69.8125,36 69.8125,29.35882 64.115556,24 57,24 z m 0,2.09375 c 6.045756,0 10.682679,4.423084 10.71875,9.84375 1.41e-4,0.02117 0,0.04129 0,0.0625 -0.02698,0.789557 -0.06721,1.72763 -0.125,2.59375 a 2.0839255,2.0839255 0 0 0 0.78125,1.75 c 0.0044,0.0254 0.05609,0.138312 0.0625,0.40625 0.01282,0.535876 -0.139221,1.420067 -0.53125,2.34375 -0.285757,0.673292 -0.573615,1.159578 -0.90625,1.5625 a 2.0839255,2.0839255 0 0 0 -0.4375,0.875 c -0.157179,0.733146 -0.228991,1.231112 -0.375,1.875 -0.153002,0.431647 -0.752792,1.583405 -1.5,2.8125 -0.763583,1.256031 -1.673547,2.647839 -2.46875,3.875 a 2.0839255,2.0839255 0 0 0 -0.34375,1 c -0.108516,1.729935 -0.06096,3.494284 0.15625,5.28125 a 2.0839255,2.0839255 0 0 0 0.6875,1.3125 c 3.010332,2.61768 7.575724,4.172697 11.375,5.71875 1.899638,0.773027 3.615515,1.525063 4.6875,2.1875 0.209234,0.129297 0.251314,0.196096 0.40625,0.3125 l -44.65625,0 c 0.09923,-0.115568 0.0021,-0.08597 0.25,-0.28125 A 2.0839255,2.0839255 0 0 0 33.5,65.90625 l -15.71875,0 c 0.393424,-0.17146 0.61273,-0.324491 1.0625,-0.5 2.484576,-0.969531 5.550418,-1.867924 7.78125,-3.71875 a 2.0839255,2.0839255 0 0 0 0.71875,-1.25 c 0.285496,-1.664557 0.112994,-3.070179 0,-4.25 A 2.0839255,2.0839255 0 0 0 26.9375,55.125 c -0.555192,-0.740173 -1.129669,-1.560182 -1.59375,-2.28125 -0.44526,-0.691825 -0.764379,-1.319447 -0.8125,-1.4375 -0.03042,-0.2249 7.63e-4,-0.377585 -0.125,-1 a 2.0839255,2.0839255 0 0 0 -0.5,-1 c -0.257297,-0.276927 -0.454977,-0.5369 -0.625,-0.9375 C 23.054705,47.934973 23.004574,47.442941 23,47.1875 a 2.0839255,2.0839255 0 0 0 0.59375,-1.625 C 23.558782,45.116012 23.57322,44.487686 23.5625,44 c 0,-0.02129 -2.37e-4,-0.04126 0,-0.0625 0.03583,-3.21037 2.764282,-5.84375 6.4375,-5.84375 3.67322,0 6.401668,2.633379 6.4375,5.84375 2.37e-4,0.02124 0,0.04121 0,0.0625 -0.01818,0.56841 -0.02839,1.176233 -0.0625,1.6875 a 2.0839255,2.0839255 0 0 0 0.5625,1.53125 c -0.0043,0.247911 -0.09197,0.730389 -0.3125,1.25 -0.158283,0.372944 -0.28984,0.589182 -0.5,0.84375 a 2.0839255,2.0839255 0 0 0 -0.4375,0.875 c -0.120808,0.56349 -0.147819,0.878623 -0.21875,1.21875 -0.06428,0.165503 -0.447086,0.89259 -0.9375,1.6875 -0.508151,0.823659 -1.119474,1.765396 -1.65625,2.59375 a 2.0839255,2.0839255 0 0 0 -0.34375,1 c -0.07555,1.204358 -0.02422,2.428626 0.125,3.65625 a 2.0839255,2.0839255 0 0 0 0.6875,1.3125 c 2.34903,2.042635 5.715565,3.108819 8.3125,4.1875 a 2.0839255,2.0839255 0 0 0 1.5625,0 c 2.901475,-1.120083 5.844756,-2.310959 8.03125,-4.125 a 2.0839255,2.0839255 0 0 0 0.71875,-1.25 c 0.401357,-2.340068 0.169824,-4.351794 0,-6.125 a 2.0839255,2.0839255 0 0 0 -0.40625,-1.0625 c -1.670355,-2.226891 -3.506413,-5.194843 -3.75,-5.875 -0.09847,-0.51493 -0.09204,-0.81196 -0.25,-1.59375 a 2.0839255,2.0839255 0 0 0 -0.5,-1 c -0.434847,-0.468022 -0.815291,-0.989024 -1.125,-1.71875 -0.412498,-0.971913 -0.557718,-1.932132 -0.53125,-2.46875 0.01192,-0.241744 0.04069,-0.277017 0.03125,-0.28125 A 2.0839255,2.0839255 0 0 0 46.375,38.4375 C 46.313943,37.658005 46.297384,36.670769 46.28125,36 c 0,-0.02121 -1.41e-4,-0.04133 0,-0.0625 0.03607,-5.420665 4.673,-9.84375 10.71875,-9.84375 z"
       inkscape:connector-curvature="0"
       id="path3941"
       style="opacity:0.1;fill:#000000;fill-opacity:1;stroke:none" />
    <path
       d="m 57,24 c -7.115551,0 -12.8125,5.35882 -12.8125,12 0.01606,0.7072 0.05752,1.732254 0.125,2.59375 -1.2168,0.51643 -1.314113,2.878904 -0.28125,5.3125 0.409584,0.965047 0.931247,1.700357 1.5,2.3125 0.138193,0.68394 0.110458,0.999513 0.28125,1.78125 0.476599,1.429793 2.358463,4.217792 4.09375,6.53125 0.170158,1.776697 0.346673,3.572512 0,5.59375 -1.789196,1.48442 -4.581986,2.67891 -7.4375,3.78125 -2.683621,-1.114687 -5.975381,-2.269353 -7.75,-3.8125 C 34.585529,58.997761 34.557284,57.891985 34.625,56.8125 35.679152,55.18573 37.114857,53.061686 37.46875,52 c 0.127188,-0.537627 0.150753,-0.912077 0.25,-1.375 0.315877,-0.382624 0.57981,-0.79549 0.8125,-1.34375 0.654149,-1.541277 0.640266,-3.026821 -0.0625,-3.46875 0.04143,-0.621003 0.04426,-1.27609 0.0625,-1.8125 -2e-6,-4.427454 -3.787547,-8 -8.53125,-8 -4.743701,0 -8.53125,3.572546 -8.53125,8 0.01071,0.471466 0.01752,1.144419 0.0625,1.71875 -0.8112,0.344286 -0.844825,1.940103 -0.15625,3.5625 0.273057,0.643365 0.620832,1.123155 1,1.53125 0.09213,0.45596 0.04239,0.666342 0.15625,1.1875 0.317732,0.953195 1.593142,2.832695 2.75,4.375 0.113439,1.184465 0.231115,2.371258 0,3.71875 -3.333414,2.76559 -11.919025,3.949423 -11.90625,6.8125 L 13.1875,68 33.5,68 c -0.904248,0.712414 -1.472685,1.49307 -1.46875,2.375 l -0.25,1.625 50.4375,0 -0.25,-1.625 c -0.02049,-3.675613 -12.936195,-5.955386 -17.875,-10.25 -0.199832,-1.643983 -0.226572,-3.287022 -0.125,-4.90625 1.581227,-2.440155 3.687909,-5.626221 4.21875,-7.21875 0.19078,-0.80644 0.257381,-1.336865 0.40625,-2.03125 0.473816,-0.573936 0.869713,-1.24011 1.21875,-2.0625 0.981222,-2.311916 0.929151,-4.524607 -0.125,-5.1875 C 69.74965,37.787245 69.78513,36.804615 69.8125,36 69.8125,29.35882 64.115556,24 57,24 z m 0,1.09375 c 6.55233,0 11.700684,4.876739 11.71875,10.875 3.2e-5,0.01056 0,0.02068 0,0.03125 -0.02717,0.797289 -0.06512,1.758779 -0.125,2.65625 a 1.098919,1.098919 0 0 0 0.5,1 c 0.06758,0.0425 0.295276,0.342686 0.3125,1.0625 0.01722,0.719814 -0.155124,1.716528 -0.59375,2.75 -0.315668,0.743766 -0.663133,1.328745 -1.0625,1.8125 A 1.098919,1.098919 0 0 0 67.53125,45.75 c -0.151196,0.705241 -0.214633,1.207005 -0.375,1.90625 -0.0081,0.03531 -0.02264,0.05736 -0.03125,0.09375 -0.215393,0.607366 -0.839185,1.727553 -1.59375,2.96875 -0.77639,1.277098 -1.706966,2.682437 -2.5,3.90625 A 1.098919,1.098919 0 0 0 62.875,55.15625 c -0.105234,1.677607 -0.084,3.374368 0.125,5.09375 a 1.098919,1.098919 0 0 0 0.375,0.71875 c 2.754651,2.39535 7.271047,3.975664 11.09375,5.53125 1.911351,0.777793 3.637042,1.523621 4.8125,2.25 0.587729,0.363189 1.029306,0.739438 1.28125,1.03125 0.251944,0.291812 0.311731,0.455725 0.3125,0.59375 a 1.098919,1.098919 0 0 0 0,0.15625 l 0.0625,0.375 -47.875,0 0.0625,-0.375 a 1.098919,1.098919 0 0 0 0,-0.15625 c -0.0018,-0.406902 0.288924,-0.890536 1.0625,-1.5 A 1.098919,1.098919 0 0 0 33.5,66.90625 l -19.03125,0 c -7.42e-4,-0.166275 0.183641,-0.498256 0.90625,-0.96875 0.722609,-0.470494 1.833286,-0.945642 3.09375,-1.4375 2.520927,-0.983716 5.535812,-1.932898 7.5,-3.5625 A 1.098919,1.098919 0 0 0 26.375,60.28125 c 0.259792,-1.51469 0.113204,-2.817984 0,-4 a 1.098919,1.098919 0 0 0 -0.21875,-0.5625 C 25.590075,54.963934 24.98256,54.12478 24.5,53.375 24.041414,52.66247 23.703652,52.041422 23.59375,51.75 c -0.0046,-0.02101 0.0038,-0.04262 0,-0.0625 -0.06858,-0.354652 -0.04231,-0.529831 -0.15625,-1.09375 a 1.098919,1.098919 0 0 0 -0.25,-0.53125 C 22.872598,49.723574 22.593724,49.359097 22.375,48.84375 22.083845,48.157741 21.984335,47.488069 22,47.0625 c 0.01175,-0.319177 0.065,-0.3871 0.03125,-0.375 A 1.098919,1.098919 0 0 0 22.625,45.625 c -0.03968,-0.506601 -0.0518,-1.143242 -0.0625,-1.625 -2.06e-4,-0.0093 2.07e-4,-0.02212 0,-0.03125 0.01798,-3.786295 3.257159,-6.875 7.4375,-6.875 4.180343,0 7.419517,3.088704 7.4375,6.875 5e-5,0.01057 0,0.02067 0,0.03125 -0.01828,0.555689 -0.02493,1.186934 -0.0625,1.75 a 1.098919,1.098919 0 0 0 0.46875,0.96875 c -0.009,0.0065 0.05769,0.125335 0.0625,0.4375 0.0064,0.41622 -0.09862,1.036306 -0.375,1.6875 -0.193453,0.45581 -0.396121,0.778654 -0.65625,1.09375 a 1.098919,1.098919 0 0 0 -0.21875,0.46875 c -0.108838,0.507658 -0.129431,0.839375 -0.21875,1.25 -0.0026,0.01179 -0.02857,0.01933 -0.03125,0.03125 -0.0029,0.0082 0.0033,0.0537 0,0.0625 -0.127153,0.342509 -0.533102,1.067555 -1.03125,1.875 -0.520809,0.844177 -1.155309,1.772471 -1.6875,2.59375 A 1.098919,1.098919 0 0 0 33.53125,56.75 c -0.07185,1.145334 -0.04791,2.303346 0.09375,3.46875 A 1.098919,1.098919 0 0 0 34,60.9375 c 2.077524,1.806542 5.424591,2.87305 8.0625,3.96875 a 1.098919,1.098919 0 0 0 0.8125,0.03125 c 2.879751,-1.111696 5.720046,-2.310511 7.71875,-3.96875 A 1.098919,1.098919 0 0 0 51,60.3125 c 0.37551,-2.189367 0.169982,-4.100144 0,-5.875 A 1.098919,1.098919 0 0 0 50.78125,53.875 c -1.699813,-2.266165 -3.552583,-5.158116 -3.90625,-6.1875 -0.0021,-0.0061 -0.02927,-0.02531 -0.03125,-0.03125 C 46.717846,47.037063 46.741961,46.733522 46.59375,46 a 1.098919,1.098919 0 0 0 -0.25,-0.53125 c -0.49814,-0.536143 -0.955583,-1.159045 -1.3125,-2 -0.461624,-1.087662 -0.630074,-2.138559 -0.59375,-2.875 0.03632,-0.736441 0.249098,-0.973091 0.3125,-1 A 1.098919,1.098919 0 0 0 45.40625,38.5 c -0.06412,-0.818572 -0.108934,-1.81221 -0.125,-2.5 -2e-4,-0.0086 1.93e-4,-0.02277 0,-0.03125 0.01807,-5.998261 5.166426,-10.875 11.71875,-10.875 z"
       inkscape:connector-curvature="0"
       id="path3932"
       style="opacity:0.2;fill:#000000;fill-opacity:1;stroke:none" />
    <path
       d="m 57,24 c -7.115551,0 -12.8125,5.35882 -12.8125,12 0.0031,0.136421 0.02626,0.343378 0.03125,0.5 C 44.500825,30.09593 50.067004,25 57,25 63.944374,25 69.516154,30.112358 69.78125,36.53125 69.78736,36.362036 69.807149,36.157316 69.8125,36 69.8125,29.35882 64.115556,24 57,24 z M 30,36 c -4.743701,0 -8.53125,3.572546 -8.53125,8 0.0031,0.137284 0.02775,0.335958 0.03125,0.5 0.276358,-4.189849 3.938917,-7.5 8.5,-7.5 4.572471,0 8.239988,3.326517 8.5,7.53125 0.0041,-0.173924 0.0259,-0.373895 0.03125,-0.53125 -2e-6,-4.427454 -3.787547,-8 -8.53125,-8 z m 14.28125,2.625 c -0.748195,0.34946 -1.073905,1.400459 -0.9375,2.75 0.07574,-0.875448 0.396239,-1.538267 0.96875,-1.78125 -0.02518,-0.321517 -0.01328,-0.626696 -0.03125,-0.96875 z m 25.4375,0.125 c -0.01621,0.334326 -0.0091,0.637043 -0.03125,0.96875 0.4643,0.291971 0.708415,0.886915 0.78125,1.65625 0.114155,-1.217488 -0.128989,-2.203392 -0.75,-2.625 z M 21.5,45.75 c -0.506281,0.247306 -0.685446,0.99573 -0.5625,1.9375 0.07577,-0.474273 0.26263,-0.828217 0.59375,-0.96875 C 21.505901,46.395084 21.508633,46.082595 21.5,45.75 z m 17,0.09375 c -0.0083,0.328041 -0.0091,0.63686 -0.03125,0.96875 0.249758,0.157058 0.423323,0.436161 0.5,0.8125 0.09119,-0.826052 -0.057,-1.490498 -0.46875,-1.78125 z m 25.40625,11.8125 c -0.01552,1.150263 0.04659,2.309531 0.1875,3.46875 4.938805,4.294614 17.85451,6.574387 17.875,10.25 L 82.0625,72 l 0.15625,0 -0.25,-1.625 c -0.02049,-3.675613 -12.936195,-5.955386 -17.875,-10.25 -0.09992,-0.821991 -0.168532,-1.650089 -0.1875,-2.46875 z m -13.8125,0.25 c -0.0089,0.720281 -0.05459,1.443826 -0.1875,2.21875 -1.789196,1.48442 -4.581986,2.67891 -7.4375,3.78125 -2.683621,-1.114687 -5.975381,-2.269353 -7.75,-3.8125 -0.05911,-0.486309 -0.106436,-0.981739 -0.125,-1.46875 -0.01436,0.817683 0.0251,1.64686 0.125,2.46875 1.774619,1.543147 5.066379,2.697813 7.75,3.8125 2.855514,-1.10234 5.648304,-2.29683 7.4375,-3.78125 0.194959,-1.136686 0.229286,-2.187957 0.1875,-3.21875 z m -24.6875,1.28125 c -0.0204,0.299909 -0.07089,0.590755 -0.125,0.90625 -3.333414,2.76559 -11.919025,3.949423 -11.90625,6.8125 L 13.1875,68 13.34375,68 13.375,67.90625 c -0.01277,-2.863077 8.572836,-4.04691 11.90625,-6.8125 0.115558,-0.673746 0.139709,-1.293057 0.125,-1.90625 z M 32.53125,69 c -0.309783,0.432596 -0.502183,0.885698 -0.5,1.375 l -0.25,1.625 0.15625,0 0.09375,-0.625 C 32.027315,70.49307 32.595752,69.712414 33.5,69 l -0.96875,0 z"
       inkscape:connector-curvature="0"
       id="path3951"
       style="opacity:0.3;fill:#000000;fill-opacity:1;stroke:none" />
    <path
       d="m 44.21875,36.5 c -0.0074,0.168627 -0.03125,0.329616 -0.03125,0.5 0.01007,0.443267 0.06357,1.050529 0.09375,1.625 0.01311,-0.0061 0.01787,-0.02557 0.03125,-0.03125 C 44.258037,37.89844 44.23964,37.155295 44.21875,36.5 z m 25.5625,0.03125 c -0.02514,0.696252 -0.04375,1.43812 -0.09375,2.1875 0.01252,0.0079 0.01901,0.02294 0.03125,0.03125 0.0293,-0.604534 0.07613,-1.231906 0.09375,-1.75 0,-0.159769 -0.02472,-0.310522 -0.03125,-0.46875 z M 43.34375,41.375 c -0.08524,0.985206 0.140605,2.242675 0.6875,3.53125 0.409584,0.965047 0.931247,1.700357 1.5,2.3125 0.138193,0.68394 0.110458,0.999513 0.28125,1.78125 0.476599,1.429793 2.358463,4.217792 4.09375,6.53125 0.07447,0.777534 0.154982,1.572852 0.1875,2.375 0.01439,-1.158431 -0.08258,-2.279472 -0.1875,-3.375 C 48.170963,52.217792 46.289099,49.429793 45.8125,48 c -0.170792,-0.781737 -0.143057,-1.09731 -0.28125,-1.78125 -0.568753,-0.612143 -1.090416,-1.347453 -1.5,-2.3125 -0.373286,-0.879524 -0.608949,-1.754092 -0.6875,-2.53125 z m 27.125,0.0625 c -0.07899,0.762566 -0.288292,1.601782 -0.65625,2.46875 -0.349037,0.82239 -0.744934,1.488564 -1.21875,2.0625 -0.148869,0.694385 -0.21547,1.22481 -0.40625,2.03125 -0.530841,1.592529 -2.637523,4.778595 -4.21875,7.21875 -0.04623,0.736956 -0.07365,1.474085 -0.0625,2.21875 0.0087,-0.407426 0.03711,-0.813943 0.0625,-1.21875 1.581227,-2.440155 3.687909,-5.626221 4.21875,-7.21875 0.19078,-0.80644 0.257381,-1.336865 0.40625,-2.03125 0.473816,-0.573936 0.869713,-1.24011 1.21875,-2.0625 0.537467,-1.266358 0.733698,-2.500326 0.65625,-3.46875 z M 21.5,44.5 c -0.01106,0.167755 -0.03125,0.329556 -0.03125,0.5 0.0047,0.20577 0.02456,0.492419 0.03125,0.75 0.0126,-0.0062 0.01825,-0.02573 0.03125,-0.03125 C 21.499368,45.311656 21.50851,44.899318 21.5,44.5 z m 17,0.03125 c -0.0098,0.418968 -0.002,0.842418 -0.03125,1.28125 0.01255,0.0079 0.01914,0.0227 0.03125,0.03125 0.0073,-0.285761 0.02276,-0.59402 0.03125,-0.84375 0,-0.159817 -0.02151,-0.311289 -0.03125,-0.46875 z M 20.9375,47.6875 c -0.109862,0.687631 0.02999,1.633592 0.4375,2.59375 0.273057,0.643365 0.620832,1.123155 1,1.53125 0.09213,0.45596 0.04239,0.666342 0.15625,1.1875 0.317732,0.953195 1.593142,2.832695 2.75,4.375 0.05477,0.571907 0.107991,1.15918 0.125,1.75 0.05909,-0.957781 -0.03992,-1.861651 -0.125,-2.75 -1.156858,-1.542305 -2.432268,-3.421805 -2.75,-4.375 -0.11386,-0.521158 -0.06412,-0.73154 -0.15625,-1.1875 -0.379168,-0.408095 -0.726943,-0.887885 -1,-1.53125 -0.234178,-0.551761 -0.372562,-1.096321 -0.4375,-1.59375 z m 18.03125,0 c -0.06121,0.494856 -0.201683,1.038128 -0.4375,1.59375 -0.23269,0.54826 -0.496623,0.961126 -0.8125,1.34375 -0.09925,0.462923 -0.122812,0.837373 -0.25,1.375 -0.353893,1.061686 -1.789598,3.18573 -2.84375,4.8125 -0.03767,0.600499 -0.05452,1.20194 -0.03125,1.8125 0.0048,-0.272695 0.01432,-0.542529 0.03125,-0.8125 1.054152,-1.62677 2.489857,-3.750814 2.84375,-4.8125 0.127188,-0.537627 0.150753,-0.912077 0.25,-1.375 0.315877,-0.382624 0.57981,-0.79549 0.8125,-1.34375 0.408843,-0.963298 0.555647,-1.915175 0.4375,-2.59375 z M 13.34375,68 13.1875,69 32.53125,69 C 32.779828,68.652874 33.097436,68.317161 33.5,68 l -20.15625,0 z m 18.59375,4 -0.15625,1 50.4375,0 -0.15625,-1 -50.125,0 z"
       inkscape:connector-curvature="0"
       id="path3965"
       style="opacity:0.5;fill:#ffffff;fill-opacity:1;stroke:none" />
  </g>
</svg>
