#define code_width 15
#define code_height 9
static unsigned char code_bits[] = {
 0x20, 0x00, 0x60, 0x00, 0xC0, 0x00, 0xC0, 0x00, 0x80, 0x01, 0xC0, 0x03,
 0x60, 0x03, 0x60, 0x06, 0x30, 0x0C };
