#define corner_right_width 10
#define corner_right_height 12
static unsigned char corner_right_bits[] = {
	0x03, 0x00, 0x07, 0x00, 0x0f, 0x00, 0x1f, 0x00, 0x3f, 0x00, 0x7f, 0x00,
	0xff, 0x00, 0xff, 0x01, 0xff, 0x03, 0xff, 0x03, 0xff, 0x03, 0xff, 0x01 };
