#define docs_width 15
#define docs_height 9
static unsigned char docs_bits[] = {
 0xF0, 0x01, 0x10, 0x01, 0x10, 0x07, 0x10, 0x04, 0x10, 0x04, 0x10, 0x04,
 0x10, 0x04, 0x10, 0x04, 0xF0, 0x07 };
