#define gridtall_reversed_width 12
#define gridtall_reversed_height 12
static unsigned char gridtall_reversed_bits[] = {
   0x00, 0x00, 0x00, 0x00, 0x66, 0x06, 0x66, 0x06, 0x00, 0x00, 0x66, 0x06,
   0x66, 0x06, 0x00, 0x00, 0x66, 0x06, 0x66, 0x06, 0x00, 0x00, 0x00, 0x00 };
