#define layout_mirror_tall_width 15
#define layout_mirror_tall_height 9
static unsigned char layout_mirror_tall_bits[] = {
 0xFF, 0x7F, 0x01, 0x40, 0x01, 0x40, 0x01, 0x40, 0xFF, 0x7F, 0x81, 0x40,
 0x81, 0x40, 0x81, 0x40, 0xFF, 0x7F };
