#define pics_width 15
#define pics_height 9
static unsigned char pics_bits[] = {
 0x00, 0x00, 0xFE, 0x3F, 0x02, 0x20, 0x02, 0x24, 0x8A, 0x2E, 0xDE, 0x3D,
 0xFE, 0x3B, 0xFE, 0x3F, 0x00, 0x00 };
