#define playpause_width 9
#define playpause_height 9
static unsigned char playpause_bits[] = {
   0x41, 0x01, 0x43, 0x01, 0x47, 0x01, 0x4f, 0x01, 0x5f, 0x01, 0x4f, 0x01,
   0x47, 0x01, 0x43, 0x01, 0x41, 0x01 };
