#define volume50_width 14
#define volume50_height 9
static unsigned char volume50_bits[] = {
   0x10, 0x20, 0x18, 0x00, 0x1c, 0x01, 0x5f, 0x01, 0x5f, 0x01, 0x5f, 0x01,
   0x1c, 0x01, 0x18, 0x00, 0x10, 0x20 };
