#define volume100_width 14
#define volume100_height 9
static unsigned char volume100_bits[] = {
   0x10, 0x30, 0x18, 0x14, 0x1c, 0x15, 0x5f, 0x15, 0x5f, 0x15, 0x5f, 0x15,
   0x1c, 0x15, 0x18, 0x14, 0x10, 0x30 };
