#define wifi_width 15
#define wifi_height 15
static unsigned char wifi_bits[] = {
   0x00, 0x60, 0x00, 0x60, 0x00, 0x66, 0x00, 0x66, 0xc0, 0x66, 0xc0, 0x66,
   0xcf, 0x66, 0xcf, 0x66, 0xcf, 0x66, 0xc0, 0x66, 0xc0, 0x66, 0x00, 0x66,
   0x00, 0x66, 0x00, 0x60, 0x00, 0x60 };
