#define wireless4_width 14
#define wireless4_height 9
static unsigned char wireless4_bits[] = {
   0x00, 0x00, 0x00, 0x00, 0x00, 0x06, 0x00, 0x06, 0xc0, 0x06, 0xc0, 0x06,
   0xd8, 0x06, 0xd8, 0x06, 0xdb, 0x06 };
