<svg xmlns="http://www.w3.org/2000/svg" width="48" height="48">
<defs>
  <path
     d="M 3.84375 7.125 C 2.823171 7.125 2 7.948173 2 8.96875 L 2 39.03125 C 2 40.05183 2.823171 40.875 3.84375 40.875 L 44.15625 40.875 C 45.176828 40.875 46 40.05183 46 39.03125 L 46 10.78125 C 46 9.7606715 45.176828 8.9375 44.15625 8.9375 L 15.6875 8.9375 L 14.0625 7.125 L 3.84375 7.125 z M 14.46875 17.46875 C 14.47725 17.46843 14.49138 17.46875 14.5 17.46875 L 18.28125 17.46875 C 18.647 17.46875 18.937498 17.7905 18.9375 18.15625 L 18.9375 18.84375 L 34.65625 18.84375 C 35.387751 18.84375 35.999999 19.424747 36 20.15625 L 36 31.15625 C 36.000002 31.887752 35.387751 32.46875 34.65625 32.46875 L 13.65625 32.46875 C 12.924748 32.46875 12.34375 31.887752 12.34375 31.15625 L 12.34375 20.15625 C 12.34375 19.441802 12.917291 18.87035 13.625 18.84375 C 13.63632 18.843463 13.6448 18.84375 13.65625 18.84375 L 13.875 18.84375 L 13.875 18.15625 C 13.875 17.79907 14.114954 17.482121 14.46875 17.46875 z M 31.03125 19.8125 C 30.877584 19.82592 30.75 19.936492 30.75 20.09375 L 30.75 21.75 C 30.75 21.91625 30.927499 22.031252 31.09375 22.03125 L 34.375 22.03125 C 34.541248 22.03125 34.656249 21.916248 34.65625 21.75 L 34.65625 20.09375 C 34.65625 19.9275 34.541248 19.8125 34.375 19.8125 L 31.09375 19.8125 C 31.08735 19.8125 31.03768 19.812096 31.03125 19.8125 z M 24.03125 20.84375 C 21.437744 20.90924 19.343751 23.078301 19.34375 25.6875 C 19.34375 28.337909 21.505844 30.5 24.15625 30.5 C 26.806658 30.5 28.999997 28.337907 29 25.6875 C 29 23.037091 26.806662 20.84375 24.15625 20.84375 C 24.13557 20.84375 24.1144 20.843489 24.09375 20.84375 C 24.08362 20.843942 24.04141 20.843492 24.03125 20.84375 z M 24.15625 22.59375 C 25.86245 22.593752 27.25 23.981297 27.25 25.6875 C 27.25 27.393701 25.862452 28.75 24.15625 28.75 C 22.450044 28.75 21.0625 27.393702 21.0625 25.6875 C 21.0625 23.981297 22.450045 22.59375 24.15625 22.59375 z "
     id="path-main" />
</defs>
<acyl-settings>
<linearGradient
     id="linearGradient4321">
    <stop
       style="stop-color:#FFFFFF;stop-opacity:1.0;"
       offset="1.0"
       id="stop1" />
  </linearGradient>
<linearGradient
     inkscape:collect="always"
     xlink:href="#linearGradient4321"
     id="acyl_gradient"
     x1="50.0%"
     y1="0.0%"
     x2="50.0%"
     y2="100.0%" />
<filter>
    </filter>
<use id="1" style="fill:url(#acyl_gradient);filter:url(#filter1111)" xlink:href="#path-main" />
</acyl-settings>
</svg>
