<svg xmlns="http://www.w3.org/2000/svg" width="48" height="48">
<defs>
  <path
     d="M 3.84375 7.125 C 2.823171 7.125 2 7.948173 2 8.96875 L 2 39.03125 C 2 40.05183 2.823171 40.875 3.84375 40.875 L 44.15625 40.875 C 45.176828 40.875 46 40.05183 46 39.03125 L 46 10.78125 C 46 9.7606715 45.176828 8.9375 44.15625 8.9375 L 15.6875 8.9375 L 14.0625 7.125 L 3.84375 7.125 z M 24.375 14 L 24.875 14 C 28.380618 14 30.875 15.994348 30.875 19.5 L 30.875 22.5 L 31.875 22.46875 C 32.876604 22.46875 33.375 22.998395 33.375 24 L 33.375 32.53125 C 33.375 33.022198 32.87179 33.995206 32.0625 34 L 17.34375 34 C 16.342146 34 15.84375 33.022199 15.84375 32.53125 L 15.84375 24 C 15.84375 22.998395 16.342146 22.5 17.34375 22.5 L 18.34375 22.5 L 18.34375 19.5 C 18.34375 16.081475 20.869382 14 24.375 14 z M 24.375 16.46875 C 20.869323 16.46875 20.875 19.467145 20.875 20.46875 L 20.875 22.5 L 28.34375 22.5 L 28.34375 20.46875 C 28.34375 19.467145 28.380616 16.46875 24.875 16.46875 L 24.375 16.46875 z M 24.53125 23.96875 C 23.269063 23.96875 22.28125 24.987813 22.28125 26.25 C 22.28125 26.963793 22.581116 27.580902 23.09375 28 L 23.09375 30.53125 C 23.09375 31.35422 23.73953 32 24.5625 32 C 25.385469 32 26.0625 31.35422 26.0625 30.53125 L 26.0625 27.9375 C 26.518607 27.519682 26.8125 26.917304 26.8125 26.25 C 26.8125 24.987813 25.793436 23.96875 24.53125 23.96875 z "
     id="path-main" />
</defs>
<acyl-settings>
<linearGradient
     id="linearGradient4321">
    <stop
       style="stop-color:#FFFFFF;stop-opacity:1.0;"
       offset="1.0"
       id="stop1" />
  </linearGradient>
<linearGradient
     inkscape:collect="always"
     xlink:href="#linearGradient4321"
     id="acyl_gradient"
     x1="50.0%"
     y1="0.0%"
     x2="50.0%"
     y2="100.0%" />
<filter>
    </filter>
<use id="1" style="fill:url(#acyl_gradient);filter:url(#filter1111)" xlink:href="#path-main" />
</acyl-settings>
</svg>
