/* XPM */
static char * close_inactive_xpm[] = {
"25 26 147 2",
"  	c None",
". 	c #6A6A6A",
"+ 	c #E8E8E8",
"@ 	c #E8E8E7",
"# 	c #E7E7E7",
"$ 	c #E7E7E8",
"% 	c #E8E7E7",
"& 	c #E7E8E7",
"* 	c #E6E6E7",
"= 	c #E6E6E6",
"- 	c #E6E7E6",
"; 	c #E7E7E6",
"> 	c #E7E6E6",
", 	c #E5E5E6",
"' 	c #E5E6E5",
") 	c #E6E5E5",
"! 	c #E5E5E5",
"~ 	c #E6E5E6",
"{ 	c #E6E6E5",
"] 	c #E5E6E6",
"^ 	c #E4E4E4",
"/ 	c #E4E5E4",
"( 	c #E4E5E5",
"_ 	c #E5E4E4",
": 	c #E1E1E0",
"< 	c #CDCDCD",
"[ 	c #BFBFBF",
"} 	c #B8B8B8",
"| 	c #B6B6B6",
"1 	c #CECECE",
"2 	c #E2E2E1",
"3 	c #E4E4E5",
"4 	c #E5E5E4",
"5 	c #E3E3E3",
"6 	c #E3E4E4",
"7 	c #E4E4E3",
"8 	c #E4E3E3",
"9 	c #D2D2D2",
"0 	c #B7B7B7",
"a 	c #C6C6C6",
"b 	c #D7D7D7",
"c 	c #E0E0E0",
"d 	c #C5C5C5",
"e 	c #D3D2D2",
"f 	c #E3E3E4",
"g 	c #E3E3E2",
"h 	c #CBCCCC",
"i 	c #BBBBBB",
"j 	c #DBDBDB",
"k 	c #BABABA",
"l 	c #CCCCCC",
"m 	c #E3E2E3",
"n 	c #E2E3E3",
"o 	c #E2E1E2",
"p 	c #E2E2E2",
"q 	c #E1E2E2",
"r 	c #D3D3D2",
"s 	c #E1E1E1",
"t 	c #DEDEDE",
"u 	c #DDDDDD",
"v 	c #DCDCDC",
"w 	c #9C9C9C",
"x 	c #C4C4C4",
"y 	c #DFDFDF",
"z 	c #BEBEBE",
"A 	c #B5B5B5",
"B 	c #686868",
"C 	c #B0B0B0",
"D 	c #E0DFDF",
"E 	c #E0DFE0",
"F 	c #DEDFDE",
"G 	c #919191",
"H 	c #DEDFDF",
"I 	c #DDDEDD",
"J 	c #DDDEDE",
"K 	c #DEDDDD",
"L 	c #B3B3B4",
"M 	c #949494",
"N 	c #666666",
"O 	c #939393",
"P 	c #B4B4B4",
"Q 	c #DEDEDD",
"R 	c #DCDDDC",
"S 	c #DCDDDD",
"T 	c #DCDCDD",
"U 	c #AFAFAF",
"V 	c #979797",
"W 	c #DDDCDD",
"X 	c #DDDDDC",
"Y 	c #DDDCDC",
"Z 	c #DBDBDC",
"` 	c #DCDBDB",
" .	c #DCDCDB",
"..	c #BDBDBD",
"+.	c #AEAEAE",
"@.	c #DCDBDC",
"#.	c #DBDBDA",
"$.	c #DADBDA",
"%.	c #DBDADA",
"&.	c #C9C9C9",
"*.	c #B1B1B1",
"=.	c #CACACA",
"-.	c #DADADA",
";.	c #D9DADA",
">.	c #DAD9DA",
",.	c #D7D6D7",
"'.	c #D8D8D8",
").	c #DADAD9",
"!.	c #D9D9D9",
"~.	c #D9D9D8",
"{.	c #D8D9D8",
"].	c #D8D8D9",
"^.	c #C6C7C7",
"/.	c #D9D8D8",
"(.	c #D7D8D8",
"_.	c #D8D7D7",
":.	c #D7D8D7",
"<.	c #D8D8D7",
"[.	c #D6D6D6",
"}.	c #D6D7D6",
"|.	c #D7D6D6",
"1.	c #D6D6D7",
"2.	c #D4D4D4",
"3.	c #C8C8C8",
"4.	c #BCBCBC",
"5.	c #B3B3B3",
"6.	c #D6D7D7",
"7.	c #D6D5D5",
"8.	c #D5D5D6",
"9.	c #D5D5D5",
"0.	c #D6D5D6",
"a.	c #D6D6D5",
"b.	c #D5D6D6",
"c.	c #D5D6D5",
"d.	c #D4D5D4",
"e.	c #D5D4D5",
"f.	c #D4D5D5",
"g.	c #D5D5D4",
"h.	c #D4D4D5",
"i.	c #D4D3D3",
"j.	c #D3D4D4",
"k.	c #D4D3D4",
"l.	c #D4D4D3",
"m.	c #D3D3D4",
"n.	c #D3D3D3",
"o.	c #D2D3D3",
"p.	c #D3D2D3",
". . . . . . . . . . . . . . . . . . . . . . . . . ",
"+ + + + + + + @ + + @ + + + + + + + + + + + + + + ",
"# # # # $ # # # # # # # # % # # % $ # & @ # % # # ",
"* = = - = * ; - = = > = ; = = - = = = * = # > ; = ",
", , , ' ' ) ! ! ~ ~ ) ' ! { { , , ! ] , ) ! ] ' ) ",
"^ ^ / ! ( ^ _ ( : < [ } | } [ 1 2 _ _ _ 3 _ 3 ( 4 ",
"5 ^ 6 7 7 8 6 9 0 a b c 5 c b d 0 e f ^ 8 7 6 ^ ^ ",
"5 g g g 5 5 h i j = = = = = = = j k l 5 m 5 n m g ",
"2 o o p q 9 k p = = = = = = = = = p i r p 2 p p p ",
"s s s : t 0 u = = = = = = = = = = = v 0 t s s s s ",
"c c c c l d = = = w } = = = } w = = = x < c c c c ",
"y y y y z b = = = A B C = C B | = = = b z y D E c ",
"F t t t | s = = = = A B G B A = = = = s 0 t H F t ",
"t I J K L ! = = = = = M N O = = = = = ! P K I Q Q ",
"R S T u 0 s = = = = U B V B U = = = = s 0 W X X Y ",
"Z Z `  ...b = = = +.B A = | B +.= = = b ..v @.v v ",
"#.$.#.%.&.d = = = V *.= = = C V = = = x =.j #.%.j ",
"-.-.;.>.,.0 u = = = = = = = = = = = v } '.-.-.).-.",
"!.~.!.!.!.l k p = = = = = = = = = p i < !.!.!.>.!.",
"{.].'.'.'.'.a i j = = = = = = = j k ^.'./.'.'./.'.",
"b (.b _.b b _.=.0 a b s = s b d 0 =.:._.<.b '.:.b ",
"[.}.}.|.1.,.[.[.2.3.4.| 5.| 4.3.2.}.}.6.b 6.[.}.}.",
"7.7.8.9.0.9.8.a.9.8.b.c.[.0.c.7.8.0.a.c.7.0.7.[.[.",
"d.9.e.f.2.g.f.h.9.h.h.9.h.g.9.9.f.9.g.2.9.g.f.9.9.",
"i.j.2.k.2.2.j.2.l.k.2.2.m.j.k.2.i.2.2.2.l.2.2.2.2.",
"n.n.o.n.p.o.o.n.p.n.n.p.n.r o.n.n.n.n.n.n.n.n.n.n."};
