/* XPM */
static char * close_active_xpm[] = {
"25 26 158 2",
"  	c None",
". 	c #6A6A6A",
"+ 	c #E8E8E8",
"@ 	c #E8E8E7",
"# 	c #E7E7E7",
"$ 	c #E7E7E8",
"% 	c #E8E7E7",
"& 	c #E7E8E7",
"* 	c #E6E6E7",
"= 	c #E6E6E6",
"- 	c #E6E7E6",
"; 	c #E7E7E6",
"> 	c #E7E6E6",
", 	c #E5E5E6",
"' 	c #E5E6E5",
") 	c #E6E5E5",
"! 	c #E5E5E5",
"~ 	c #E1E0E1",
"{ 	c #D2D2D2",
"] 	c #C6C6C6",
"^ 	c #C1C2C1",
"/ 	c #C0C0C0",
"( 	c #C2C2C1",
"_ 	c #D3D3D3",
": 	c #E0E0E1",
"< 	c #E5E6E6",
"[ 	c #E4E4E4",
"} 	c #E4E5E4",
"| 	c #E4E5E5",
"1 	c #E3E2E2",
"2 	c #D1D1D1",
"3 	c #C2C2C2",
"4 	c #C1C1C1",
"5 	c #E5E4E4",
"6 	c #E4E4E5",
"7 	c #E5E5E4",
"8 	c #E3E3E3",
"9 	c #E3E4E4",
"0 	c #E4E4E3",
"a 	c #E0DFDF",
"b 	c #C9CACA",
"c 	c #F1F1F1",
"d 	c #F4F4F4",
"e 	c #CACACA",
"f 	c #E1E1E1",
"g 	c #E4E3E3",
"h 	c #E3E3E2",
"i 	c #C7C7C7",
"j 	c #EBEBEB",
"k 	c #F6F6F6",
"l 	c #EAEAEA",
"m 	c #E2E3E3",
"n 	c #E3E2E3",
"o 	c #E2E2E1",
"p 	c #E2E1E2",
"q 	c #E2E2E2",
"r 	c #D2D3D3",
"s 	c #C4C4C4",
"t 	c #C5C5C5",
"u 	c #EFEFEF",
"v 	c #F3F3F3",
"w 	c #DEDEDD",
"x 	c #C8C8C8",
"y 	c #BFBFBF",
"z 	c #DEDEDE",
"A 	c #E0E0E0",
"B 	c #D5D5D5",
"C 	c #CFCFCF",
"D 	c #EEEEEE",
"E 	c #919191",
"F 	c #B4B4B4",
"G 	c #929292",
"H 	c #CECECE",
"I 	c #D6D6D6",
"J 	c #DFDFDF",
"K 	c #ECECEC",
"L 	c #B7B7B7",
"M 	c #4F4F4F",
"N 	c #AAAAAA",
"O 	c #B8B8B8",
"P 	c #DDDDDD",
"Q 	c #E0DFE0",
"R 	c #DEDFDE",
"S 	c #BCBCBC",
"T 	c #E9E9E9",
"U 	c #818181",
"V 	c #BDBDBD",
"W 	c #D0D0D0",
"X 	c #DEDFDF",
"Y 	c #DDDEDD",
"Z 	c #DDDEDE",
"` 	c #BBBBBB",
" .	c #F0F0F0",
"..	c #8D8D8D",
"+.	c #4D4D4D",
"@.	c #DCDDDC",
"#.	c #DCDDDD",
"$.	c #DCDCDD",
"%.	c #D4D4D4",
"&.	c #A3A3A3",
"*.	c #DDDDDC",
"=.	c #DDDCDC",
"-.	c #DBDBDC",
";.	c #DCDBDB",
">.	c #A1A1A1",
",.	c #D7D7D7",
"'.	c #DCDBDC",
").	c #DCDCDC",
"!.	c #DBDBDA",
"~.	c #DADBDA",
"{.	c #D9D9D9",
"].	c #8B8B8B",
"^.	c #B6B6B6",
"/.	c #B5B5B5",
"(.	c #DBDADA",
"_.	c #DBDBDB",
":.	c #DADADA",
"<.	c #D9DADA",
"[.	c #DAD9DA",
"}.	c #D8D8D8",
"|.	c #DADAD9",
"1.	c #D9D9D8",
"2.	c #BABABA",
"3.	c #B9B9B9",
"4.	c #D8D9D8",
"5.	c #D8D8D9",
"6.	c #D8D7D7",
"7.	c #D9D8D8",
"8.	c #D7D8D8",
"9.	c #BEBEBE",
"0.	c #D8D8D7",
"a.	c #D7D8D7",
"b.	c #D6D7D6",
"c.	c #D7D6D6",
"d.	c #D6D6D7",
"e.	c #D7D6D7",
"f.	c #B0B0B0",
"g.	c #D6D7D7",
"h.	c #D6D5D5",
"i.	c #D5D5D6",
"j.	c #D6D5D6",
"k.	c #D6D6D5",
"l.	c #E0E1E1",
"m.	c #E2E3E2",
"n.	c #E0E1E0",
"o.	c #D5D6D5",
"p.	c #D4D5D4",
"q.	c #D5D4D5",
"r.	c #D4D5D5",
"s.	c #D5D5D4",
"t.	c #D4D4D5",
"u.	c #D4D3D3",
"v.	c #D3D4D4",
"w.	c #D4D3D4",
"x.	c #D4D4D3",
"y.	c #D3D3D4",
"z.	c #D3D2D3",
"A.	c #D3D3D2",
". . . . . . . . . . . . . . . . . . . . . . . . . ",
"+ + + + + + + @ + + @ + + + + + + + + + + + + + + ",
"# # # # $ # # # # # # # # % # # % $ # & @ # % # # ",
"* = = - = * ; - = = > = ; = = - = = = * = # > ; = ",
", , , ' ' ) ! ! ~ { ] ^ / ( ] _ : ! < , ) ! < ' ) ",
"[ [ } ! | [ 1 2 3 4 / / / / / 4 3 2 1 5 6 5 6 | 7 ",
"8 [ 9 0 0 a b 4 / _ = c d c = _ / 4 e f g 0 9 [ [ ",
"8 h h h f e 3 i j k k k k k k k l i 3 e ~ 8 m n h ",
"o p p q r s t u v v v v v v v v v u t s _ o q q q ",
"f f f w x y + c c c c c c c c c c c # y x z f f f ",
"A A A B t C D D D E F D D D F G D D D H t I A A A ",
"J J J 2 / z K K K L M N K N M O K K K P / 2 a Q A ",
"R z z 2 S ! T T T c S M U M S c T T T [ V W X R z ",
"z Y Z { ` = # # # #  ...+... .# # # # = ` { Y w w ",
"@.#.$.%.S A [ [ [ [ &.M G M &.[ [ [ [ A S %.*.*.=.",
"-.-.;.I y B f f f >.M S v ` M >.f f f B / ,.'.).).",
"!.~.!.{.e ] J J J ].^.j J j /.].J J J t e {.!.(._.",
":.:.<.[.}.` B ).).c l ).).).j c ).).B ` {.{.:.|.:.",
"{.1.{.{._.C 2.,.:.:.:.:.:.:.:.:.:.,.3.C :.{.{.[.{.",
"4.5.}.}.,.).e O W ,.,.,.,.,.,.,.C O e ).6.}.}.7.}.",
",.8.,.6.,.,.z C L 9.e 2 B 2 e 9.L W z 6.0.,.}.a.,.",
"I b.b.c.d.e.I ).J C 9./.f./.9.C J ).b.g.,.g.I b.b.",
"h.h.i.B j.B i.k.I -.l.m.[ q n.;.d.j.k.o.h.j.h.I I ",
"p.B q.r.%.s.r.t.B t.t.B t.s.B B r.B s.%.B s.r.B B ",
"u.v.%.w.%.%.v.%.x.w.%.%.y.v.w.%.u.%.%.%.x.%.%.%.%.",
"_ _ r _ z.r r _ z._ _ z._ A.r _ _ _ _ _ _ _ _ _ _ "};
