/* XPM */
static char * close_pressed_xpm[] = {
"25 26 163 2",
"  	c None",
". 	c #6A6A6A",
"+ 	c #E8E8E8",
"@ 	c #E8E8E7",
"# 	c #E7E7E7",
"$ 	c #E7E7E8",
"% 	c #E8E7E7",
"& 	c #E7E8E7",
"* 	c #E6E6E7",
"= 	c #E6E6E6",
"- 	c #E6E7E6",
"; 	c #E7E7E6",
"> 	c #E7E6E6",
", 	c #E5E5E6",
"' 	c #E5E6E5",
") 	c #E6E5E5",
"! 	c #E5E5E5",
"~ 	c #E1E0E1",
"{ 	c #D2D2D2",
"] 	c #C6C6C6",
"^ 	c #C1C2C1",
"/ 	c #C0C0C0",
"( 	c #C2C2C1",
"_ 	c #D3D3D3",
": 	c #E0E0E1",
"< 	c #E5E6E6",
"[ 	c #E4E4E4",
"} 	c #E4E5E4",
"| 	c #E4E5E5",
"1 	c #E3E2E2",
"2 	c #D1D1D1",
"3 	c #BFBFBF",
"4 	c #AEAEAE",
"5 	c #A1A1A1",
"6 	c #9B9B9B",
"7 	c #9A9A9A",
"8 	c #E5E4E4",
"9 	c #E4E4E5",
"0 	c #E5E5E4",
"a 	c #E3E3E3",
"b 	c #E3E4E4",
"c 	c #E4E4E3",
"d 	c #E0DFDF",
"e 	c #C9CACA",
"f 	c #B4B4B4",
"g 	c #9F9F9F",
"h 	c #ABABAB",
"i 	c #BBBBBB",
"j 	c #C3C3C3",
"k 	c #B5B5B5",
"l 	c #CACACA",
"m 	c #E1E1E1",
"n 	c #E4E3E3",
"o 	c #E3E3E2",
"p 	c #B3B3B3",
"q 	c #A5A5A5",
"r 	c #C2C2C2",
"s 	c #CBCBCB",
"t 	c #E2E3E3",
"u 	c #E3E2E3",
"v 	c #E2E2E1",
"w 	c #E2E1E2",
"x 	c #E2E2E2",
"y 	c #D2D3D3",
"z 	c #A9A9A9",
"A 	c #CDCDCD",
"B 	c #DEDEDD",
"C 	c #C7C7C7",
"D 	c #AAAAAA",
"E 	c #C8C8C8",
"F 	c #CFCFCF",
"G 	c #DEDEDE",
"H 	c #E0E0E0",
"I 	c #D5D5D5",
"J 	c #BDBDBD",
"K 	c #BABABA",
"L 	c #858585",
"M 	c #A2A2A2",
"N 	c #B9B9B9",
"O 	c #D6D6D6",
"P 	c #DFDFDF",
"Q 	c #B7B7B7",
"R 	c #C9C9C9",
"S 	c #B0B0B0",
"T 	c #4F4F4F",
"U 	c #B1B1B1",
"V 	c #B8B8B8",
"W 	c #E0DFE0",
"X 	c #DEDFDE",
"Y 	c #BCBCBC",
"Z 	c #7B7B7B",
"` 	c #D0D0D0",
" .	c #DEDFDF",
"..	c #DDDEDD",
"+.	c #DDDEDE",
"@.	c #D7D7D7",
"#.	c #D8D8D8",
"$.	c #8D8D8D",
"%.	c #4D4D4D",
"&.	c #DCDDDC",
"*.	c #DCDDDD",
"=.	c #DCDCDD",
"-.	c #D4D4D4",
";.	c #C1C1C1",
">.	c #DADADA",
",.	c #9D9D9D",
"'.	c #929292",
").	c #DDDDDC",
"!.	c #DDDCDC",
"~.	c #DBDBDC",
"{.	c #DCDBDB",
"].	c #DCDCDC",
"^.	c #9E9E9E",
"/.	c #F1F1F1",
"(.	c #DCDBDC",
"_.	c #DBDBDA",
":.	c #DADBDA",
"<.	c #D9D9D9",
"[.	c #8B8B8B",
"}.	c #B6B6B6",
"|.	c #EAEAEA",
"1.	c #EBEBEB",
"2.	c #DBDADA",
"3.	c #DBDBDB",
"4.	c #D9DADA",
"5.	c #DAD9DA",
"6.	c #DDDDDD",
"7.	c #F3F3F3",
"8.	c #EDEDED",
"9.	c #DADAD9",
"0.	c #D9D9D8",
"a.	c #D8D9D8",
"b.	c #D8D8D9",
"c.	c #D8D7D7",
"d.	c #D9D8D8",
"e.	c #D7D8D8",
"f.	c #D8D8D7",
"g.	c #D7D8D7",
"h.	c #D6D7D6",
"i.	c #D7D6D6",
"j.	c #D6D6D7",
"k.	c #D7D6D7",
"l.	c #D6D7D7",
"m.	c #D6D5D5",
"n.	c #D5D5D6",
"o.	c #D6D5D6",
"p.	c #D6D6D5",
"q.	c #E0E1E1",
"r.	c #E2E3E2",
"s.	c #E0E1E0",
"t.	c #D5D6D5",
"u.	c #D4D5D4",
"v.	c #D5D4D5",
"w.	c #D4D5D5",
"x.	c #D5D5D4",
"y.	c #D4D4D5",
"z.	c #D4D3D3",
"A.	c #D3D4D4",
"B.	c #D4D3D4",
"C.	c #D4D4D3",
"D.	c #D3D3D4",
"E.	c #D3D2D3",
"F.	c #D3D3D2",
". . . . . . . . . . . . . . . . . . . . . . . . . ",
"+ + + + + + + @ + + @ + + + + + + + + + + + + + + ",
"# # # # $ # # # # # # # # % # # % $ # & @ # % # # ",
"* = = - = * ; - = = > = ; = = - = = = * = # > ; = ",
", , , ' ' ) ! ! ~ { ] ^ / ( ] _ : ! < , ) ! < ' ) ",
"[ [ } ! | [ 1 2 3 4 5 6 7 6 5 4 3 2 1 8 9 8 9 | 0 ",
"a [ b c c d e f g h i j ] j i h g k l m n c b [ [ ",
"a o o o m l p q r s s s s s s s r q p l ~ a t u o ",
"v w w x y i z l A A A A A A A A A l z i _ v x x x ",
"m m m B C D E F F F F F F F F F F F C h C G m m m ",
"H H H I J K 2 2 2 L 5 2 2 2 M L 2 2 2 N J O H H H ",
"P P P 2 Q R _ _ _ S T 6 _ 6 T U _ _ _ E V 2 d W H ",
"X G G 2 Q { I I I ! Y T Z T Y ! I I I 2 Q `  .X G ",
"G ..+.{ i @.#.#.#.#.# $.%.$.# #.#.#.#.@.i { ..B B ",
"&.*.=.-.;.#.>.>.>.>.,.T '.T ,.>.>.>.>.@.r -.).).!.",
"~.~.{.O R I ].].].^.T Y /.i T ^.].].].I R @.(.].].",
"_.:._.<.2 ` G G G [.}.|.G 1.k [.G G G 2 2 <._.2.3.",
">.>.4.5.<.F 6.H H 7.8.H H H 8.7.H H ].F <.<.>.9.>.",
"<.0.<.<.3.<.I m x x x x x x x x x m -.<.>.<.<.5.<.",
"a.b.#.#.@.].3.#.x [ [ [ [ [ [ [ x #.3.].c.#.#.d.#.",
"@.e.@.c.@.@.G G ].H a ! = ! a H ].G G c.f.@.#.g.@.",
"O h.h.i.j.k.O ].m x m m m m m x m ].h.l.@.l.O h.h.",
"m.m.n.I o.I n.p.O ~.q.r.[ x s.{.j.o.p.t.m.o.m.O O ",
"u.I v.w.-.x.w.y.I y.y.I y.x.I I w.I x.-.I x.w.I I ",
"z.A.-.B.-.-.A.-.C.B.-.-.D.A.B.-.z.-.-.-.C.-.-.-.-.",
"_ _ y _ E.y y _ E._ _ E._ F.y _ _ _ _ _ _ _ _ _ _ "};
