/* XPM */
static char * hide_pressed_xpm[] = {
"25 26 156 2",
"  	c None",
". 	c #6A6A6A",
"+ 	c #E8E8E8",
"@ 	c #E8E8E7",
"# 	c #E7E7E7",
"$ 	c #E7E7E8",
"% 	c #E8E7E7",
"& 	c #E7E8E7",
"* 	c #E6E6E7",
"= 	c #E6E6E6",
"- 	c #E6E7E6",
"; 	c #E7E7E6",
"> 	c #E7E6E6",
", 	c #E5E5E6",
"' 	c #E5E6E5",
") 	c #E6E5E5",
"! 	c #E5E5E5",
"~ 	c #E1E0E1",
"{ 	c #D2D2D2",
"] 	c #C6C6C6",
"^ 	c #C1C2C1",
"/ 	c #C0C0C0",
"( 	c #C2C2C1",
"_ 	c #D3D3D3",
": 	c #E0E0E1",
"< 	c #E5E6E6",
"[ 	c #E4E4E4",
"} 	c #E4E5E4",
"| 	c #E4E5E5",
"1 	c #E3E2E2",
"2 	c #D1D1D1",
"3 	c #BFBFBF",
"4 	c #AEAEAE",
"5 	c #A1A1A1",
"6 	c #9B9B9B",
"7 	c #9A9A9A",
"8 	c #E5E4E4",
"9 	c #E4E4E5",
"0 	c #E5E5E4",
"a 	c #E3E3E3",
"b 	c #E3E4E4",
"c 	c #E4E4E3",
"d 	c #E0DFDF",
"e 	c #C9CACA",
"f 	c #B4B4B4",
"g 	c #9F9F9F",
"h 	c #ABABAB",
"i 	c #BBBBBB",
"j 	c #C3C3C3",
"k 	c #B5B5B5",
"l 	c #CACACA",
"m 	c #E1E1E1",
"n 	c #E4E3E3",
"o 	c #E3E3E2",
"p 	c #B3B3B3",
"q 	c #A5A5A5",
"r 	c #C2C2C2",
"s 	c #CBCBCB",
"t 	c #E2E3E3",
"u 	c #E3E2E3",
"v 	c #E2E2E1",
"w 	c #E2E1E2",
"x 	c #E2E2E2",
"y 	c #D2D3D3",
"z 	c #A9A9A9",
"A 	c #CDCDCD",
"B 	c #DEDEDD",
"C 	c #C7C7C7",
"D 	c #AAAAAA",
"E 	c #C8C8C8",
"F 	c #CFCFCF",
"G 	c #DEDEDE",
"H 	c #E0E0E0",
"I 	c #D5D5D5",
"J 	c #BDBDBD",
"K 	c #BABABA",
"L 	c #B9B9B9",
"M 	c #D6D6D6",
"N 	c #DFDFDF",
"O 	c #B7B7B7",
"P 	c #C9C9C9",
"Q 	c #B8B8B8",
"R 	c #E0DFE0",
"S 	c #DEDFDE",
"T 	c #D4D4D4",
"U 	c #7E7E7E",
"V 	c #5C5C5C",
"W 	c #C1C1C1",
"X 	c #7F7F7F",
"Y 	c #D0D0D0",
"Z 	c #DEDFDF",
"` 	c #DDDEDD",
" .	c #DDDEDE",
"..	c #D7D7D7",
"+.	c #D8D8D8",
"@.	c #F0F0F0",
"#.	c #8C8C8C",
"$.	c #595959",
"%.	c #ACACAC",
"&.	c #DCDDDC",
"*.	c #DCDDDD",
"=.	c #DCDCDD",
"-.	c #DADADA",
";.	c #EFEFEF",
">.	c #4F4F4F",
",.	c #DDDDDC",
"'.	c #DDDCDC",
").	c #DBDBDC",
"!.	c #DCDBDB",
"~.	c #DCDCDC",
"{.	c #DDDDDD",
"].	c #EEEEEE",
"^.	c #838383",
"/.	c #DCDBDC",
"(.	c #DBDBDA",
"_.	c #DADBDA",
":.	c #D9D9D9",
"<.	c #F5F5F5",
"[.	c #DBDADA",
"}.	c #DBDBDB",
"|.	c #D9DADA",
"1.	c #DAD9DA",
"2.	c #DADAD9",
"3.	c #D9D9D8",
"4.	c #D8D9D8",
"5.	c #D8D8D9",
"6.	c #D8D7D7",
"7.	c #D9D8D8",
"8.	c #D7D8D8",
"9.	c #D8D8D7",
"0.	c #D7D8D7",
"a.	c #D6D7D6",
"b.	c #D7D6D6",
"c.	c #D6D6D7",
"d.	c #D7D6D7",
"e.	c #D6D7D7",
"f.	c #D6D5D5",
"g.	c #D5D5D6",
"h.	c #D6D5D6",
"i.	c #D6D6D5",
"j.	c #E0E1E1",
"k.	c #E2E3E2",
"l.	c #E0E1E0",
"m.	c #D5D6D5",
"n.	c #D4D5D4",
"o.	c #D5D4D5",
"p.	c #D4D5D5",
"q.	c #D5D5D4",
"r.	c #D4D4D5",
"s.	c #D4D3D3",
"t.	c #D3D4D4",
"u.	c #D4D3D4",
"v.	c #D4D4D3",
"w.	c #D3D3D4",
"x.	c #D3D2D3",
"y.	c #D3D3D2",
". . . . . . . . . . . . . . . . . . . . . . . . . ",
"+ + + + + + + @ + + @ + + + + + + + + + + + + + + ",
"# # # # $ # # # # # # # # % # # % $ # & @ # % # # ",
"* = = - = * ; - = = > = ; = = - = = = * = # > ; = ",
", , , ' ' ) ! ! ~ { ] ^ / ( ] _ : ! < , ) ! < ' ) ",
"[ [ } ! | [ 1 2 3 4 5 6 7 6 5 4 3 2 1 8 9 8 9 | 0 ",
"a [ b c c d e f g h i j ] j i h g k l m n c b [ [ ",
"a o o o m l p q r s s s s s s s r q p l ~ a t u o ",
"v w w x y i z l A A A A A A A A A l z i _ v x x x ",
"m m m B C D E F F F F F F F F F F F C h C G m m m ",
"H H H I J K 2 2 2 2 2 2 2 2 2 2 2 2 2 L J M H H H ",
"N N N 2 O P _ _ _ q 3 _ _ _ 3 q _ _ _ E Q 2 d R H ",
"S G G 2 O { I I T U V W I W V X T I I 2 O Y Z S G ",
"G `  .{ i ..+.+.+.@.#.$.%.$.#.@.+.+.+...i { ` B B ",
"&.*.=.T W +.-.-.-.-.;.U >.U ;.-.-.-.-...r T ,.,.'.",
").).!.M P I ~.~.~.~.{.].^.;.{.~.~.~.~.I P ../.~.~.",
"(._.(.:.2 Y G G G G G H <.H G G G G G 2 2 :.(.[.}.",
"-.-.|.1.:.F {.H H H H H H H H H H H ~.F :.:.-.2.-.",
":.3.:.:.}.:.I m x x x x x x x x x m T :.-.:.:.1.:.",
"4.5.+.+...~.}.+.x [ [ [ [ [ [ [ x +.}.~.6.+.+.7.+.",
"..8...6.....G G ~.H a ! = ! a H ~.G G 6.9...+.0...",
"M a.a.b.c.d.M ~.m x m m m m m x m ~.a.e...e.M a.a.",
"f.f.g.I h.I g.i.M ).j.k.[ x l.!.c.h.i.m.f.h.f.M M ",
"n.I o.p.T q.p.r.I r.r.I r.q.I I p.I q.T I q.p.I I ",
"s.t.T u.T T t.T v.u.T T w.t.u.T s.T T T v.T T T T ",
"_ _ y _ x.y y _ x._ _ x._ y.y _ _ _ _ _ _ _ _ _ _ "};
