/* XPM */
static char * hide_prelight_xpm[] = {
"25 26 157 2",
"  	c None",
". 	c #6A6A6A",
"+ 	c #E8E8E8",
"@ 	c #E8E8E7",
"# 	c #E7E7E7",
"$ 	c #E7E7E8",
"% 	c #E8E7E7",
"& 	c #E7E8E7",
"* 	c #E6E6E7",
"= 	c #E6E6E6",
"- 	c #E6E7E6",
"; 	c #E7E7E6",
"> 	c #E7E6E6",
", 	c #E5E5E6",
"' 	c #E5E6E5",
") 	c #E6E5E5",
"! 	c #E5E5E5",
"~ 	c #E1E0E1",
"{ 	c #D2D2D2",
"] 	c #C6C6C6",
"^ 	c #C1C2C1",
"/ 	c #C0C0C0",
"( 	c #C2C2C1",
"_ 	c #D3D3D3",
": 	c #E0E0E1",
"< 	c #E5E6E6",
"[ 	c #E4E4E4",
"} 	c #E4E5E4",
"| 	c #E4E5E5",
"1 	c #E3E2E2",
"2 	c #D1D1D1",
"3 	c #C2C2C2",
"4 	c #C1C1C1",
"5 	c #E5E4E4",
"6 	c #E4E4E5",
"7 	c #E5E5E4",
"8 	c #E3E3E3",
"9 	c #E3E4E4",
"0 	c #E4E4E3",
"a 	c #E0DFDF",
"b 	c #C9CACA",
"c 	c #D6D6D6",
"d 	c #EAEAEA",
"e 	c #F6F6F6",
"f 	c #FAFAFA",
"g 	c #CACACA",
"h 	c #E1E1E1",
"i 	c #E4E3E3",
"j 	c #E3E3E2",
"k 	c #C8C8C8",
"l 	c #F0F0F0",
"m 	c #FCFCFC",
"n 	c #EFEFEF",
"o 	c #E2E3E3",
"p 	c #E3E2E3",
"q 	c #E2E2E1",
"r 	c #E2E1E2",
"s 	c #E2E2E2",
"t 	c #D2D3D3",
"u 	c #C4C4C4",
"v 	c #FBFBFB",
"w 	c #DEDEDD",
"x 	c #BFBFBF",
"y 	c #EEEEEE",
"z 	c #F9F9F9",
"A 	c #EDEDED",
"B 	c #DEDEDE",
"C 	c #E0E0E0",
"D 	c #D5D5D5",
"E 	c #C5C5C5",
"F 	c #F8F8F8",
"G 	c #DFDFDF",
"H 	c #BCBCBC",
"I 	c #DDDDDD",
"J 	c #E0DFE0",
"K 	c #DEDFDE",
"L 	c #F5F5F5",
"M 	c #F4F4F4",
"N 	c #858585",
"O 	c #5F5F5F",
"P 	c #DCDCDC",
"Q 	c #868686",
"R 	c #BDBDBD",
"S 	c #D0D0D0",
"T 	c #DEDFDF",
"U 	c #DDDEDD",
"V 	c #DDDEDE",
"W 	c #BBBBBB",
"X 	c #F1F1F1",
"Y 	c #F3F3F3",
"Z 	c #8D8D8D",
"` 	c #5B5B5B",
" .	c #BEBEBE",
"..	c #DCDDDC",
"+.	c #DCDDDD",
"@.	c #DCDCDD",
"#.	c #D4D4D4",
"$.	c #EBEBEB",
"%.	c #F7F7F7",
"&.	c #7F7F7F",
"*.	c #4F4F4F",
"=.	c #DDDDDC",
"-.	c #DDDCDC",
";.	c #DBDBDC",
">.	c #DCDBDB",
",.	c #838383",
"'.	c #D7D7D7",
").	c #DCDBDC",
"!.	c #DBDBDA",
"~.	c #DADBDA",
"{.	c #D9D9D9",
"].	c #CBCBCB",
"^.	c #DBDADA",
"/.	c #DBDBDB",
"(.	c #DADADA",
"_.	c #D9DADA",
":.	c #DAD9DA",
"<.	c #D8D8D8",
"[.	c #DADAD9",
"}.	c #D9D9D8",
"|.	c #CFCFCF",
"1.	c #D8D9D8",
"2.	c #D8D8D9",
"3.	c #BABABA",
"4.	c #D8D7D7",
"5.	c #D9D8D8",
"6.	c #D7D8D8",
"7.	c #B7B7B7",
"8.	c #D8D8D7",
"9.	c #D7D8D7",
"0.	c #D6D7D6",
"a.	c #D7D6D6",
"b.	c #D6D6D7",
"c.	c #D7D6D7",
"d.	c #B5B5B5",
"e.	c #B0B0B0",
"f.	c #D6D7D7",
"g.	c #D6D5D5",
"h.	c #D5D5D6",
"i.	c #D6D5D6",
"j.	c #D6D6D5",
"k.	c #E0E1E1",
"l.	c #E2E3E2",
"m.	c #E0E1E0",
"n.	c #D5D6D5",
"o.	c #D4D5D4",
"p.	c #D5D4D5",
"q.	c #D4D5D5",
"r.	c #D5D5D4",
"s.	c #D4D4D5",
"t.	c #D4D3D3",
"u.	c #D3D4D4",
"v.	c #D4D3D4",
"w.	c #D4D4D3",
"x.	c #D3D3D4",
"y.	c #D3D2D3",
"z.	c #D3D3D2",
". . . . . . . . . . . . . . . . . . . . . . . . . ",
"+ + + + + + + @ + + @ + + + + + + + + + + + + + + ",
"# # # # $ # # # # # # # # % # # % $ # & @ # % # # ",
"* = = - = * ; - = = > = ; = = - = = = * = # > ; = ",
", , , ' ' ) ! ! ~ { ] ^ / ( ] _ : ! < , ) ! < ' ) ",
"[ [ } ! | [ 1 2 3 4 / / / / / 4 3 2 1 5 6 5 6 | 7 ",
"8 [ 9 0 0 a b 4 / c d e f e d c / 4 g h i 0 9 [ [ ",
"8 j j j h g 3 k l m m m m m m m n k 3 g ~ 8 o p j ",
"q r r s t u ] e v v v v v v v v v e ] u _ q s s s ",
"h h h w k x y z z z z z z z z z z z A x k B h h h ",
"C C C D E _ F F F F F F F F F F F F F { E c C C C ",
"G G G 2 / ! e e e H I e e e I H e e e [ / 2 a J C ",
"K B B 2 H l L L M N O P L P O Q M L L n R S T K B ",
"B U V { W X Y Y Y z Z `  .` Z z Y Y Y X W { U w w ",
"..+.@.#.H $.X X X X %.&.*.&.%.X X X X $.H #.=.=.-.",
";.;.>.c x G l l l l l M ,.L l l l l l C / '.).P P ",
"!.~.!.{.g ].y y y y y y f y y y y y y g g {.!.^./.",
"(.(._.:.<.W 8 A A A A A A A A A A A 8 W {.{.(.[.(.",
"{.}.{.{./.|.H = $.$.$.$.$.$.$.$.$.= W |.(.{.{.:.{.",
"1.2.<.<.'.P g 3.G d d d d d d d B 3.g P 4.<.<.5.<.",
"'.6.'.4.'.'.B |.7.E '.s + s '.E 7.S B 4.8.'.<.9.'.",
"c 0.0.a.b.c.c P G |. .d.e.d. .|.G P 0.f.'.f.c 0.0.",
"g.g.h.D i.D h.j.c ;.k.l.[ s m.>.b.i.j.n.g.i.g.c c ",
"o.D p.q.#.r.q.s.D s.s.D s.r.D D q.D r.#.D r.q.D D ",
"t.u.#.v.#.#.u.#.w.v.#.#.x.u.v.#.t.#.#.#.w.#.#.#.#.",
"_ _ t _ y.t t _ y._ _ y._ z.t _ _ _ _ _ _ _ _ _ _ "};
