/* XPM */
static char * hide_active_xpm[] = {
"25 26 156 2",
"  	c None",
". 	c #6A6A6A",
"+ 	c #E8E8E8",
"@ 	c #E8E8E7",
"# 	c #E7E7E7",
"$ 	c #E7E7E8",
"% 	c #E8E7E7",
"& 	c #E7E8E7",
"* 	c #E6E6E7",
"= 	c #E6E6E6",
"- 	c #E6E7E6",
"; 	c #E7E7E6",
"> 	c #E7E6E6",
", 	c #E5E5E6",
"' 	c #E5E6E5",
") 	c #E6E5E5",
"! 	c #E5E5E5",
"~ 	c #E1E0E1",
"{ 	c #D2D2D2",
"] 	c #C6C6C6",
"^ 	c #C1C2C1",
"/ 	c #C0C0C0",
"( 	c #C2C2C1",
"_ 	c #D3D3D3",
": 	c #E0E0E1",
"< 	c #E5E6E6",
"[ 	c #E4E4E4",
"} 	c #E4E5E4",
"| 	c #E4E5E5",
"1 	c #E3E2E2",
"2 	c #D1D1D1",
"3 	c #C2C2C2",
"4 	c #C1C1C1",
"5 	c #E5E4E4",
"6 	c #E4E4E5",
"7 	c #E5E5E4",
"8 	c #E3E3E3",
"9 	c #E3E4E4",
"0 	c #E4E4E3",
"a 	c #E0DFDF",
"b 	c #C9CACA",
"c 	c #F1F1F1",
"d 	c #F4F4F4",
"e 	c #CACACA",
"f 	c #E1E1E1",
"g 	c #E4E3E3",
"h 	c #E3E3E2",
"i 	c #C7C7C7",
"j 	c #EBEBEB",
"k 	c #F6F6F6",
"l 	c #EAEAEA",
"m 	c #E2E3E3",
"n 	c #E3E2E3",
"o 	c #E2E2E1",
"p 	c #E2E1E2",
"q 	c #E2E2E2",
"r 	c #D2D3D3",
"s 	c #C4C4C4",
"t 	c #C5C5C5",
"u 	c #EFEFEF",
"v 	c #F3F3F3",
"w 	c #DEDEDD",
"x 	c #C8C8C8",
"y 	c #BFBFBF",
"z 	c #DEDEDE",
"A 	c #E0E0E0",
"B 	c #D5D5D5",
"C 	c #CFCFCF",
"D 	c #EEEEEE",
"E 	c #CECECE",
"F 	c #D6D6D6",
"G 	c #DFDFDF",
"H 	c #ECECEC",
"I 	c #B6B6B6",
"J 	c #DDDDDD",
"K 	c #E0DFE0",
"L 	c #DEDFDE",
"M 	c #BCBCBC",
"N 	c #E9E9E9",
"O 	c #828282",
"P 	c #5E5E5E",
"Q 	c #838383",
"R 	c #BDBDBD",
"S 	c #D0D0D0",
"T 	c #DEDFDF",
"U 	c #DDDEDD",
"V 	c #DDDEDE",
"W 	c #BBBBBB",
"X 	c #F5F5F5",
"Y 	c #8C8C8C",
"Z 	c #5A5A5A",
"` 	c #DCDDDC",
" .	c #DCDDDD",
"..	c #DCDCDD",
"+.	c #D4D4D4",
"@.	c #F2F2F2",
"#.	c #7E7E7E",
"$.	c #4F4F4F",
"%.	c #DDDDDC",
"&.	c #DDDCDC",
"*.	c #DBDBDC",
"=.	c #DCDBDB",
"-.	c #F0F0F0",
";.	c #D7D7D7",
">.	c #DCDBDC",
",.	c #DCDCDC",
"'.	c #DBDBDA",
").	c #DADBDA",
"!.	c #D9D9D9",
"~.	c #DBDADA",
"{.	c #DBDBDB",
"].	c #DADADA",
"^.	c #D9DADA",
"/.	c #DAD9DA",
"(.	c #D8D8D8",
"_.	c #DADAD9",
":.	c #D9D9D8",
"<.	c #BABABA",
"[.	c #B9B9B9",
"}.	c #D8D9D8",
"|.	c #D8D8D9",
"1.	c #B8B8B8",
"2.	c #D8D7D7",
"3.	c #D9D8D8",
"4.	c #D7D8D8",
"5.	c #B7B7B7",
"6.	c #BEBEBE",
"7.	c #D8D8D7",
"8.	c #D7D8D7",
"9.	c #D6D7D6",
"0.	c #D7D6D6",
"a.	c #D6D6D7",
"b.	c #D7D6D7",
"c.	c #B5B5B5",
"d.	c #B0B0B0",
"e.	c #D6D7D7",
"f.	c #D6D5D5",
"g.	c #D5D5D6",
"h.	c #D6D5D6",
"i.	c #D6D6D5",
"j.	c #E0E1E1",
"k.	c #E2E3E2",
"l.	c #E0E1E0",
"m.	c #D5D6D5",
"n.	c #D4D5D4",
"o.	c #D5D4D5",
"p.	c #D4D5D5",
"q.	c #D5D5D4",
"r.	c #D4D4D5",
"s.	c #D4D3D3",
"t.	c #D3D4D4",
"u.	c #D4D3D4",
"v.	c #D4D4D3",
"w.	c #D3D3D4",
"x.	c #D3D2D3",
"y.	c #D3D3D2",
". . . . . . . . . . . . . . . . . . . . . . . . . ",
"+ + + + + + + @ + + @ + + + + + + + + + + + + + + ",
"# # # # $ # # # # # # # # % # # % $ # & @ # % # # ",
"* = = - = * ; - = = > = ; = = - = = = * = # > ; = ",
", , , ' ' ) ! ! ~ { ] ^ / ( ] _ : ! < , ) ! < ' ) ",
"[ [ } ! | [ 1 2 3 4 / / / / / 4 3 2 1 5 6 5 6 | 7 ",
"8 [ 9 0 0 a b 4 / _ = c d c = _ / 4 e f g 0 9 [ [ ",
"8 h h h f e 3 i j k k k k k k k l i 3 e ~ 8 m n h ",
"o p p q r s t u v v v v v v v v v u t s _ o q q q ",
"f f f w x y + c c c c c c c c c c c # y x z f f f ",
"A A A B t C D D D D D D D D D D D D D E t F A A A ",
"G G G 2 / z H H H I B H H H B I H H H J / 2 a K A ",
"L z z 2 M ! N N + O P { N { P Q + N N [ R S T L z ",
"z U V { W = # # # X Y Z I Z Y X # # # = W { U w w ",
"`  ...+.M A [ [ [ [ @.#.$.#.@.[ [ [ [ A M +.%.%.&.",
"*.*.=.F y B f f f f q -.Q -.q f f f f B / ;.>.,.,.",
"'.).'.!.e ] G G G G G f X f G G G G G t e !.'.~.{.",
"].].^./.(.W B ,.,.,.,.,.,.,.,.,.,.,.B W !.!.]._.].",
"!.:.!.!.{.C <.;.].].].].].].].].].;.[.C ].!.!./.!.",
"}.|.(.(.;.,.e 1.S ;.;.;.;.;.;.;.C 1.e ,.2.(.(.3.(.",
";.4.;.2.;.;.z C 5.6.e 2 B 2 e 6.5.S z 2.7.;.(.8.;.",
"F 9.9.0.a.b.F ,.G C 6.c.d.c.6.C G ,.9.e.;.e.F 9.9.",
"f.f.g.B h.B g.i.F *.j.k.[ q l.=.a.h.i.m.f.h.f.F F ",
"n.B o.p.+.q.p.r.B r.r.B r.q.B B p.B q.+.B q.p.B B ",
"s.t.+.u.+.+.t.+.v.u.+.+.w.t.u.+.s.+.+.+.v.+.+.+.+.",
"_ _ r _ x.r r _ x._ _ x._ y.r _ _ _ _ _ _ _ _ _ _ "};
