/* XPM */
static char * maximize_prelight_xpm[] = {
"25 26 157 2",
"  	c None",
". 	c #6A6A6A",
"+ 	c #E8E8E8",
"@ 	c #E8E8E7",
"# 	c #E7E7E7",
"$ 	c #E7E7E8",
"% 	c #E8E7E7",
"& 	c #E7E8E7",
"* 	c #E6E6E7",
"= 	c #E6E6E6",
"- 	c #E6E7E6",
"; 	c #E7E7E6",
"> 	c #E7E6E6",
", 	c #E5E5E6",
"' 	c #E5E6E5",
") 	c #E6E5E5",
"! 	c #E5E5E5",
"~ 	c #E1E0E1",
"{ 	c #D2D2D2",
"] 	c #C6C6C6",
"^ 	c #C1C2C1",
"/ 	c #C0C0C0",
"( 	c #C2C2C1",
"_ 	c #D3D3D3",
": 	c #E0E0E1",
"< 	c #E5E6E6",
"[ 	c #E4E4E4",
"} 	c #E4E5E4",
"| 	c #E4E5E5",
"1 	c #E3E2E2",
"2 	c #D1D1D1",
"3 	c #C2C2C2",
"4 	c #C1C1C1",
"5 	c #E5E4E4",
"6 	c #E4E4E5",
"7 	c #E5E5E4",
"8 	c #E3E3E3",
"9 	c #E3E4E4",
"0 	c #E4E4E3",
"a 	c #E0DFDF",
"b 	c #C9CACA",
"c 	c #D6D6D6",
"d 	c #EAEAEA",
"e 	c #F6F6F6",
"f 	c #FAFAFA",
"g 	c #CACACA",
"h 	c #E1E1E1",
"i 	c #E4E3E3",
"j 	c #E3E3E2",
"k 	c #C8C8C8",
"l 	c #F0F0F0",
"m 	c #FCFCFC",
"n 	c #EFEFEF",
"o 	c #E2E3E3",
"p 	c #E3E2E3",
"q 	c #E2E2E1",
"r 	c #E2E1E2",
"s 	c #E2E2E2",
"t 	c #D2D3D3",
"u 	c #C4C4C4",
"v 	c #FBFBFB",
"w 	c #DEDEDD",
"x 	c #BFBFBF",
"y 	c #EEEEEE",
"z 	c #F9F9F9",
"A 	c #EDEDED",
"B 	c #DEDEDE",
"C 	c #E0E0E0",
"D 	c #D5D5D5",
"E 	c #C5C5C5",
"F 	c #F8F8F8",
"G 	c #DFDFDF",
"H 	c #808080",
"I 	c #E0DFE0",
"J 	c #DEDFDE",
"K 	c #BCBCBC",
"L 	c #F5F5F5",
"M 	c #F2F2F2",
"N 	c #7C7C7C",
"O 	c #4F4F4F",
"P 	c #7D7D7D",
"Q 	c #BDBDBD",
"R 	c #D0D0D0",
"S 	c #DEDFDF",
"T 	c #DDDEDD",
"U 	c #DDDEDE",
"V 	c #BBBBBB",
"W 	c #F1F1F1",
"X 	c #F3F3F3",
"Y 	c #656565",
"Z 	c #D7D7D7",
"` 	c #636363",
" .	c #DCDDDC",
"..	c #DCDDDD",
"+.	c #DCDCDD",
"@.	c #D4D4D4",
"#.	c #EBEBEB",
"$.	c #828282",
"%.	c #606060",
"&.	c #F4F4F4",
"*.	c #838383",
"=.	c #DDDDDC",
"-.	c #DDDCDC",
";.	c #DBDBDC",
">.	c #DCDBDB",
",.	c #DCDBDC",
"'.	c #DCDCDC",
").	c #DBDBDA",
"!.	c #DADBDA",
"~.	c #D9D9D9",
"{.	c #CBCBCB",
"].	c #DBDADA",
"^.	c #DBDBDB",
"/.	c #DADADA",
"(.	c #D9DADA",
"_.	c #DAD9DA",
":.	c #D8D8D8",
"<.	c #DADAD9",
"[.	c #D9D9D8",
"}.	c #CFCFCF",
"|.	c #D8D9D8",
"1.	c #D8D8D9",
"2.	c #BABABA",
"3.	c #D8D7D7",
"4.	c #D9D8D8",
"5.	c #D7D8D8",
"6.	c #B7B7B7",
"7.	c #D8D8D7",
"8.	c #D7D8D7",
"9.	c #D6D7D6",
"0.	c #D7D6D6",
"a.	c #D6D6D7",
"b.	c #D7D6D7",
"c.	c #BEBEBE",
"d.	c #B5B5B5",
"e.	c #B0B0B0",
"f.	c #D6D7D7",
"g.	c #D6D5D5",
"h.	c #D5D5D6",
"i.	c #D6D5D6",
"j.	c #D6D6D5",
"k.	c #E0E1E1",
"l.	c #E2E3E2",
"m.	c #E0E1E0",
"n.	c #D5D6D5",
"o.	c #D4D5D4",
"p.	c #D5D4D5",
"q.	c #D4D5D5",
"r.	c #D5D5D4",
"s.	c #D4D4D5",
"t.	c #D4D3D3",
"u.	c #D3D4D4",
"v.	c #D4D3D4",
"w.	c #D4D4D3",
"x.	c #D3D3D4",
"y.	c #D3D2D3",
"z.	c #D3D3D2",
". . . . . . . . . . . . . . . . . . . . . . . . . ",
"+ + + + + + + @ + + @ + + + + + + + + + + + + + + ",
"# # # # $ # # # # # # # # % # # % $ # & @ # % # # ",
"* = = - = * ; - = = > = ; = = - = = = * = # > ; = ",
", , , ' ' ) ! ! ~ { ] ^ / ( ] _ : ! < , ) ! < ' ) ",
"[ [ } ! | [ 1 2 3 4 / / / / / 4 3 2 1 5 6 5 6 | 7 ",
"8 [ 9 0 0 a b 4 / c d e f e d c / 4 g h i 0 9 [ [ ",
"8 j j j h g 3 k l m m m m m m m n k 3 g ~ 8 o p j ",
"q r r s t u ] e v v v v v v v v v e ] u _ q s s s ",
"h h h w k x y z z z z z z z z z z z A x k B h h h ",
"C C C D E _ F F F F F F F F F F F F F { E c C C C ",
"G G G 2 / ! e e e e e n H l e e e e e [ / 2 a I C ",
"J B B 2 K l L L L L M N O P M L L L L n Q R S J B ",
"B T U { V W X X X A N Y Z ` N A X X X W V { T w w ",
" ...+.@.K #.W W l $.%.8 &.8 %.*.l W W #.K @.=.=.-.",
";.;.>.c x G l l l x 8 M l M 8 x l l l C / Z ,.'.'.",
").!.).~.g {.y y y &.l y y y l &.y y y g g ~.).].^.",
"/./.(._.:.V 8 A A A A A A A A A A A 8 V ~.~./.<./.",
"~.[.~.~.^.}.K = #.#.#.#.#.#.#.#.#.= V }./.~.~._.~.",
"|.1.:.:.Z '.g 2.G d d d d d d d B 2.g '.3.:.:.4.:.",
"Z 5.Z 3.Z Z B }.6.E Z s + s Z E 6.R B 3.7.Z :.8.Z ",
"c 9.9.0.a.b.c '.G }.c.d.e.d.c.}.G '.9.f.Z f.c 9.9.",
"g.g.h.D i.D h.j.c ;.k.l.[ s m.>.a.i.j.n.g.i.g.c c ",
"o.D p.q.@.r.q.s.D s.s.D s.r.D D q.D r.@.D r.q.D D ",
"t.u.@.v.@.@.u.@.w.v.@.@.x.u.v.@.t.@.@.@.w.@.@.@.@.",
"_ _ t _ y.t t _ y._ _ y._ z.t _ _ _ _ _ _ _ _ _ _ "};
