/* XPM */
static char * maximize_active_xpm[] = {
"25 26 153 2",
"  	c None",
". 	c #6A6A6A",
"+ 	c #E8E8E8",
"@ 	c #E8E8E7",
"# 	c #E7E7E7",
"$ 	c #E7E7E8",
"% 	c #E8E7E7",
"& 	c #E7E8E7",
"* 	c #E6E6E7",
"= 	c #E6E6E6",
"- 	c #E6E7E6",
"; 	c #E7E7E6",
"> 	c #E7E6E6",
", 	c #E5E5E6",
"' 	c #E5E6E5",
") 	c #E6E5E5",
"! 	c #E5E5E5",
"~ 	c #E1E0E1",
"{ 	c #D2D2D2",
"] 	c #C6C6C6",
"^ 	c #C1C2C1",
"/ 	c #C0C0C0",
"( 	c #C2C2C1",
"_ 	c #D3D3D3",
": 	c #E0E0E1",
"< 	c #E5E6E6",
"[ 	c #E4E4E4",
"} 	c #E4E5E4",
"| 	c #E4E5E5",
"1 	c #E3E2E2",
"2 	c #D1D1D1",
"3 	c #C2C2C2",
"4 	c #C1C1C1",
"5 	c #E5E4E4",
"6 	c #E4E4E5",
"7 	c #E5E5E4",
"8 	c #E3E3E3",
"9 	c #E3E4E4",
"0 	c #E4E4E3",
"a 	c #E0DFDF",
"b 	c #C9CACA",
"c 	c #F1F1F1",
"d 	c #F4F4F4",
"e 	c #CACACA",
"f 	c #E1E1E1",
"g 	c #E4E3E3",
"h 	c #E3E3E2",
"i 	c #C7C7C7",
"j 	c #EBEBEB",
"k 	c #F6F6F6",
"l 	c #EAEAEA",
"m 	c #E2E3E3",
"n 	c #E3E2E3",
"o 	c #E2E2E1",
"p 	c #E2E1E2",
"q 	c #E2E2E2",
"r 	c #D2D3D3",
"s 	c #C4C4C4",
"t 	c #C5C5C5",
"u 	c #EFEFEF",
"v 	c #F3F3F3",
"w 	c #DEDEDD",
"x 	c #C8C8C8",
"y 	c #BFBFBF",
"z 	c #DEDEDE",
"A 	c #E0E0E0",
"B 	c #D5D5D5",
"C 	c #CFCFCF",
"D 	c #EEEEEE",
"E 	c #CECECE",
"F 	c #D6D6D6",
"G 	c #DFDFDF",
"H 	c #ECECEC",
"I 	c #7E7E7E",
"J 	c #DDDDDD",
"K 	c #E0DFE0",
"L 	c #DEDFDE",
"M 	c #BCBCBC",
"N 	c #E9E9E9",
"O 	c #797979",
"P 	c #4F4F4F",
"Q 	c #BDBDBD",
"R 	c #D0D0D0",
"S 	c #DEDFDF",
"T 	c #DDDEDD",
"U 	c #DDDEDE",
"V 	c #BBBBBB",
"W 	c #787878",
"X 	c #646464",
"Y 	c #D7D7D7",
"Z 	c #636363",
"` 	c #DCDDDC",
" .	c #DCDDDD",
"..	c #DCDCDD",
"+.	c #D4D4D4",
"@.	c #7F7F7F",
"#.	c #5F5F5F",
"$.	c #DDDDDC",
"%.	c #DDDCDC",
"&.	c #DBDBDC",
"*.	c #DCDBDB",
"=.	c #DCDBDC",
"-.	c #DCDCDC",
";.	c #DBDBDA",
">.	c #DADBDA",
",.	c #D9D9D9",
"'.	c #DBDADA",
").	c #DBDBDB",
"!.	c #DADADA",
"~.	c #D9DADA",
"{.	c #DAD9DA",
"].	c #D8D8D8",
"^.	c #DADAD9",
"/.	c #D9D9D8",
"(.	c #BABABA",
"_.	c #B9B9B9",
":.	c #D8D9D8",
"<.	c #D8D8D9",
"[.	c #B8B8B8",
"}.	c #D8D7D7",
"|.	c #D9D8D8",
"1.	c #D7D8D8",
"2.	c #B7B7B7",
"3.	c #BEBEBE",
"4.	c #D8D8D7",
"5.	c #D7D8D7",
"6.	c #D6D7D6",
"7.	c #D7D6D6",
"8.	c #D6D6D7",
"9.	c #D7D6D7",
"0.	c #B5B5B5",
"a.	c #B0B0B0",
"b.	c #D6D7D7",
"c.	c #D6D5D5",
"d.	c #D5D5D6",
"e.	c #D6D5D6",
"f.	c #D6D6D5",
"g.	c #E0E1E1",
"h.	c #E2E3E2",
"i.	c #E0E1E0",
"j.	c #D5D6D5",
"k.	c #D4D5D4",
"l.	c #D5D4D5",
"m.	c #D4D5D5",
"n.	c #D5D5D4",
"o.	c #D4D4D5",
"p.	c #D4D3D3",
"q.	c #D3D4D4",
"r.	c #D4D3D4",
"s.	c #D4D4D3",
"t.	c #D3D3D4",
"u.	c #D3D2D3",
"v.	c #D3D3D2",
". . . . . . . . . . . . . . . . . . . . . . . . . ",
"+ + + + + + + @ + + @ + + + + + + + + + + + + + + ",
"# # # # $ # # # # # # # # % # # % $ # & @ # % # # ",
"* = = - = * ; - = = > = ; = = - = = = * = # > ; = ",
", , , ' ' ) ! ! ~ { ] ^ / ( ] _ : ! < , ) ! < ' ) ",
"[ [ } ! | [ 1 2 3 4 / / / / / 4 3 2 1 5 6 5 6 | 7 ",
"8 [ 9 0 0 a b 4 / _ = c d c = _ / 4 e f g 0 9 [ [ ",
"8 h h h f e 3 i j k k k k k k k l i 3 e ~ 8 m n h ",
"o p p q r s t u v v v v v v v v v u t s _ o q q q ",
"f f f w x y + c c c c c c c c c c c # y x z f f f ",
"A A A B t C D D D D D D D D D D D D D E t F A A A ",
"G G G 2 / z H H H H H ! I = H H H H H J / 2 a K A ",
"L z z 2 M ! N N N N = O P O = N N N N [ Q R S L z ",
"z T U { V = # # # q W X Y Z W q # # # = V { T w w ",
"`  ...+.M A [ [ 8 @.#.q l q #.@.8 [ [ A M +.$.$.%.",
"&.&.*.F y B f f f V q ! f ! q V f f f B / Y =.-.-.",
";.>.;.,.e ] G G G l [ G G G [ l G G G t e ,.;.'.).",
"!.!.~.{.].V B -.-.-.-.-.-.-.-.-.-.-.B V ,.,.!.^.!.",
",./.,.,.).C (.Y !.!.!.!.!.!.!.!.!.Y _.C !.,.,.{.,.",
":.<.].].Y -.e [.R Y Y Y Y Y Y Y C [.e -.}.].].|.].",
"Y 1.Y }.Y Y z C 2.3.e 2 B 2 e 3.2.R z }.4.Y ].5.Y ",
"F 6.6.7.8.9.F -.G C 3.0.a.0.3.C G -.6.b.Y b.F 6.6.",
"c.c.d.B e.B d.f.F &.g.h.[ q i.*.8.e.f.j.c.e.c.F F ",
"k.B l.m.+.n.m.o.B o.o.B o.n.B B m.B n.+.B n.m.B B ",
"p.q.+.r.+.+.q.+.s.r.+.+.t.q.r.+.p.+.+.+.s.+.+.+.+.",
"_ _ r _ u.r r _ u._ _ u._ v.r _ _ _ _ _ _ _ _ _ _ "};
