/* XPM */
static char * maximize_inactive_xpm[] = {
"25 26 141 2",
"  	c None",
". 	c #6A6A6A",
"+ 	c #E8E8E8",
"@ 	c #E8E8E7",
"# 	c #E7E7E7",
"$ 	c #E7E7E8",
"% 	c #E8E7E7",
"& 	c #E7E8E7",
"* 	c #E6E6E7",
"= 	c #E6E6E6",
"- 	c #E6E7E6",
"; 	c #E7E7E6",
"> 	c #E7E6E6",
", 	c #E5E5E6",
"' 	c #E5E6E5",
") 	c #E6E5E5",
"! 	c #E5E5E5",
"~ 	c #E6E5E6",
"{ 	c #E6E6E5",
"] 	c #E5E6E6",
"^ 	c #E4E4E4",
"/ 	c #E4E5E4",
"( 	c #E4E5E5",
"_ 	c #E5E4E4",
": 	c #E1E1E0",
"< 	c #CDCDCD",
"[ 	c #BFBFBF",
"} 	c #B8B8B8",
"| 	c #B6B6B6",
"1 	c #CECECE",
"2 	c #E2E2E1",
"3 	c #E4E4E5",
"4 	c #E5E5E4",
"5 	c #E3E3E3",
"6 	c #E3E4E4",
"7 	c #E4E4E3",
"8 	c #E4E3E3",
"9 	c #D2D2D2",
"0 	c #B7B7B7",
"a 	c #C6C6C6",
"b 	c #D7D7D7",
"c 	c #E0E0E0",
"d 	c #C5C5C5",
"e 	c #D3D2D2",
"f 	c #E3E3E4",
"g 	c #E3E3E2",
"h 	c #CBCCCC",
"i 	c #BBBBBB",
"j 	c #DBDBDB",
"k 	c #BABABA",
"l 	c #CCCCCC",
"m 	c #E3E2E3",
"n 	c #E2E3E3",
"o 	c #E2E1E2",
"p 	c #E2E2E2",
"q 	c #E1E2E2",
"r 	c #D3D3D2",
"s 	c #E1E1E1",
"t 	c #DEDEDE",
"u 	c #DDDDDD",
"v 	c #DCDCDC",
"w 	c #C4C4C4",
"x 	c #DFDFDF",
"y 	c #BEBEBE",
"z 	c #8C8C8C",
"A 	c #E0DFDF",
"B 	c #E0DFE0",
"C 	c #DEDFDE",
"D 	c #8A8A8A",
"E 	c #676767",
"F 	c #DEDFDF",
"G 	c #DDDEDD",
"H 	c #DDDEDE",
"I 	c #DEDDDD",
"J 	c #B3B3B4",
"K 	c #777777",
"L 	c #CACACA",
"M 	c #B4B4B4",
"N 	c #DEDEDD",
"O 	c #DCDDDC",
"P 	c #DCDDDD",
"Q 	c #DCDCDD",
"R 	c #909090",
"S 	c #737373",
"T 	c #D4D4D4",
"U 	c #DDDCDD",
"V 	c #DDDDDC",
"W 	c #DDDCDC",
"X 	c #DBDBDC",
"Y 	c #DCDBDB",
"Z 	c #DCDCDB",
"` 	c #BDBDBD",
" .	c #DCDBDC",
"..	c #DBDBDA",
"+.	c #DADBDA",
"@.	c #DBDADA",
"#.	c #C9C9C9",
"$.	c #DADADA",
"%.	c #D9DADA",
"&.	c #DAD9DA",
"*.	c #D7D6D7",
"=.	c #D8D8D8",
"-.	c #DADAD9",
";.	c #D9D9D9",
">.	c #D9D9D8",
",.	c #D8D9D8",
"'.	c #D8D8D9",
").	c #C6C7C7",
"!.	c #D9D8D8",
"~.	c #D7D8D8",
"{.	c #D8D7D7",
"].	c #D7D8D7",
"^.	c #D8D8D7",
"/.	c #D6D6D6",
"(.	c #D6D7D6",
"_.	c #D7D6D6",
":.	c #D6D6D7",
"<.	c #C8C8C8",
"[.	c #BCBCBC",
"}.	c #B3B3B3",
"|.	c #D6D7D7",
"1.	c #D6D5D5",
"2.	c #D5D5D6",
"3.	c #D5D5D5",
"4.	c #D6D5D6",
"5.	c #D6D6D5",
"6.	c #D5D6D6",
"7.	c #D5D6D5",
"8.	c #D4D5D4",
"9.	c #D5D4D5",
"0.	c #D4D5D5",
"a.	c #D5D5D4",
"b.	c #D4D4D5",
"c.	c #D4D3D3",
"d.	c #D3D4D4",
"e.	c #D4D3D4",
"f.	c #D4D4D3",
"g.	c #D3D3D4",
"h.	c #D3D3D3",
"i.	c #D2D3D3",
"j.	c #D3D2D3",
". . . . . . . . . . . . . . . . . . . . . . . . . ",
"+ + + + + + + @ + + @ + + + + + + + + + + + + + + ",
"# # # # $ # # # # # # # # % # # % $ # & @ # % # # ",
"* = = - = * ; - = = > = ; = = - = = = * = # > ; = ",
", , , ' ' ) ! ! ~ ~ ) ' ! { { , , ! ] , ) ! ] ' ) ",
"^ ^ / ! ( ^ _ ( : < [ } | } [ 1 2 _ _ _ 3 _ 3 ( 4 ",
"5 ^ 6 7 7 8 6 9 0 a b c 5 c b d 0 e f ^ 8 7 6 ^ ^ ",
"5 g g g 5 5 h i j = = = = = = = j k l 5 m 5 n m g ",
"2 o o p q 9 k p = = = = = = = = = p i r p 2 p p p ",
"s s s : t 0 u = = = = = = = = = = = v 0 t s s s s ",
"c c c c l d = = = = = = = = = = = = = w < c c c c ",
"x x x x y b = = = = = s z s = = = = = b y x A B c ",
"C t t t | s = = = = 5 D E D 5 = = = = s 0 t F C t ",
"t G H I J ! = = = p D K L K D p = = = ! M I G N N ",
"O P Q u 0 s = = ! R S T = T S R ! = = s 0 U V V W ",
"X X Y Z ` b = = = k T = = = T k = = = b ` v  .v v ",
"..+...@.#.d = = = = = = = = = = = = = w L j ..@.j ",
"$.$.%.&.*.0 u = = = = = = = = = = = v } =.$.$.-.$.",
";.>.;.;.;.l k p = = = = = = = = = p i < ;.;.;.&.;.",
",.'.=.=.=.=.a i j = = = = = = = j k ).=.!.=.=.!.=.",
"b ~.b {.b b {.L 0 a b s = s b d 0 L ].{.^.b =.].b ",
"/.(.(._.:.*././.T <.[.| }.| [.<.T (.(.|.b |./.(.(.",
"1.1.2.3.4.3.2.5.3.2.6.7./.4.7.1.2.4.5.7.1.4.1././.",
"8.3.9.0.T a.0.b.3.b.b.3.b.a.3.3.0.3.a.T 3.a.0.3.3.",
"c.d.T e.T T d.T f.e.T T g.d.e.T c.T T T f.T T T T ",
"h.h.i.h.j.i.i.h.j.h.h.j.h.r i.h.h.h.h.h.h.h.h.h.h."};
