/* XPM */
static char * menu_active_xpm[] = {
"25 26 147 2",
"  	c None",
". 	c #6A6A6A",
"+ 	c #E8E8E8",
"@ 	c #E8E8E7",
"# 	c #E7E7E7",
"$ 	c #E7E7E8",
"% 	c #E8E7E7",
"& 	c #E7E8E7",
"* 	c #E6E6E7",
"= 	c #E6E6E6",
"- 	c #E6E7E6",
"; 	c #E7E7E6",
"> 	c #E7E6E6",
", 	c #E5E5E6",
"' 	c #E5E6E5",
") 	c #E6E5E5",
"! 	c #E5E5E5",
"~ 	c #E6E5E6",
"{ 	c #E6E6E5",
"] 	c #E5E6E6",
"^ 	c #E4E4E4",
"/ 	c #E4E5E4",
"( 	c #E4E5E5",
"_ 	c #E5E4E4",
": 	c #E5E5E4",
"< 	c #E5E4E5",
"[ 	c #E4E4E5",
"} 	c #E3E3E3",
"| 	c #E3E4E4",
"1 	c #E4E4E3",
"2 	c #E4E3E3",
"3 	c #E4E3E4",
"4 	c #E3E3E4",
"5 	c #E3E3E2",
"6 	c #E2E3E3",
"7 	c #E3E2E3",
"8 	c #E2E3E2",
"9 	c #E2E2E1",
"0 	c #E2E1E2",
"a 	c #E2E2E2",
"b 	c #E1E2E2",
"c 	c #E1E1E1",
"d 	c #E1E1E0",
"e 	c #E0E1E1",
"f 	c #E0E0E0",
"g 	c #DBDBDB",
"h 	c #D2D2D2",
"i 	c #CBCBCB",
"j 	c #DFE0E0",
"k 	c #DADADA",
"l 	c #CECECE",
"m 	c #D6D6D6",
"n 	c #EEEEEE",
"o 	c #E0E0E1",
"p 	c #DFDFDF",
"q 	c #DFE0DF",
"r 	c #D1D1D1",
"s 	c #D4D4D4",
"t 	c #FDFDFD",
"u 	c #E0DFDF",
"v 	c #E0DFE0",
"w 	c #DEDFDE",
"x 	c #DEDEDE",
"y 	c #DEDEDF",
"z 	c #DFDEDE",
"A 	c #DFDEDF",
"B 	c #CAC9C9",
"C 	c #F9F9F9",
"D 	c #C9C9CA",
"E 	c #DEDFDF",
"F 	c #DDDEDD",
"G 	c #DDDEDE",
"H 	c #DEDDDD",
"I 	c #DDDDDE",
"J 	c #DDDDDD",
"K 	c #C8C9C8",
"L 	c #F5F5F5",
"M 	c #C8C8C8",
"N 	c #DEDEDD",
"O 	c #DEDDDE",
"P 	c #DCDDDC",
"Q 	c #DCDDDD",
"R 	c #DCDCDD",
"S 	c #DDDDDC",
"T 	c #DDDCDD",
"U 	c #CDCDCE",
"V 	c #F1F1F1",
"W 	c #CECDCD",
"X 	c #CFCFCE",
"Y 	c #DDDCDC",
"Z 	c #DBDBDC",
"` 	c #DCDBDB",
" .	c #DCDCDB",
"..	c #DCDBDC",
"+.	c #D6D6D5",
"@.	c #C8C8C9",
"#.	c #CBCACB",
"$.	c #CBCBCA",
"%.	c #C8C9C9",
"&.	c #DCDCDC",
"*.	c #DBDBDA",
"=.	c #DADBDA",
"-.	c #DBDADA",
";.	c #D5D5D5",
">.	c #CDCDCD",
",.	c #C6C6C5",
"'.	c #CCCDCD",
").	c #D5D4D5",
"!.	c #DADAD9",
"~.	c #D9DADA",
"{.	c #DAD9DA",
"].	c #DAD9D9",
"^.	c #D9D9D9",
"/.	c #D9D9D8",
"(.	c #D8D9D8",
"_.	c #D8D8D9",
":.	c #D8D8D8",
"<.	c #D9D8D8",
"[.	c #D8D9D9",
"}.	c #D7D7D7",
"|.	c #D7D8D8",
"1.	c #D8D7D7",
"2.	c #D7D8D7",
"3.	c #D8D8D7",
"4.	c #D6D7D6",
"5.	c #D7D6D6",
"6.	c #D6D6D7",
"7.	c #D7D6D7",
"8.	c #D6D7D7",
"9.	c #D6D5D5",
"0.	c #D5D5D6",
"a.	c #D6D5D6",
"b.	c #D5D6D6",
"c.	c #D5D6D5",
"d.	c #D4D5D4",
"e.	c #D4D5D5",
"f.	c #D5D5D4",
"g.	c #D4D4D5",
"h.	c #D4D3D3",
"i.	c #D3D4D4",
"j.	c #D4D3D4",
"k.	c #D4D4D3",
"l.	c #D3D3D4",
"m.	c #D3D3D3",
"n.	c #D2D3D3",
"o.	c #D3D2D3",
"p.	c #D3D3D2",
". . . . . . . . . . . . . . . . . . . . . . . . . ",
"+ + + + + + + @ + + @ + + + + + + + + + + + + + + ",
"# # # # $ # # # # # # # # % # # % $ # & @ # % # # ",
"* = = - = * ; - = = > = ; = = - = = = * = # > ; = ",
", , , ' ' ) ! ! ~ ~ ) ' ! { { , , ! ] , ) ! ] ' ) ",
"^ ^ / ! ( ^ _ ( : ! < : [ ( ! ^ : _ _ _ [ _ [ ( : ",
"} ^ | 1 1 2 | ^ | 1 | 3 4 ^ 1 2 ^ 2 4 ^ 2 1 | ^ ^ ",
"} 5 5 5 } } 6 5 5 5 6 5 7 } } } 8 8 } } 7 } 6 7 5 ",
"9 0 0 a b 9 b a a a 0 9 a a a b b a a 9 a 9 a a a ",
"c c c d c c c e f g h i i h g j d c c c c c c c c ",
"f f f f f f f f k l m n n m l k f f f o f f f f f ",
"p p p p p p q p r s t t t t s r q p p p p p u v f ",
"w x x x y z A A B + C C C C + D A x y w w x E w x ",
"x F G H I H I J K ! L L L L ! M H I N O O H F N N ",
"P Q R J S S T S l U V V V V W X R Y R T Y T S S Y ",
"Z Z `  . . ...` +.@.#.x x $.%.m  ... .....&...&.&.",
"*.=.*.-.g g g g k ;.>.,.,.'.).!.=.g g g g g *.-.g ",
"k k ~.{.{.k {.k k ].k k !.!.].~.k k k k k k k !.k ",
"^./.^.^.^.^.^.^.^.^./.^.^.^.^.^.^.^.^.^.^.^.^.{.^.",
"(._.:.:.:.:.:.:._._.:.:.:.:.:.:.<._.[.:.<.:.:.<.:.",
"}.|.}.1.}.}.1.1.2.2.}.}.}.}.}.}.}.}.2.1.3.}.:.2.}.",
"m 4.4.5.6.7.m m m m 8.5.6.5.5.}.m 4.4.8.}.8.m 4.4.",
"9.9.0.;.a.;.0.+.;.0.b.c.m a.c.9.0.a.+.c.9.a.9.m m ",
"d.;.).e.s f.e.g.;.g.g.;.g.f.;.;.e.;.f.s ;.f.e.;.;.",
"h.i.s j.s s i.s k.j.s s l.i.j.s h.s s s k.s s s s ",
"m.m.n.m.o.n.n.m.o.m.m.o.m.p.n.m.m.m.m.m.m.m.m.m.m."};
