/* XPM */
static char * top_right_active_shaded_xpm[] = {
"4 26 28 1",
" 	c None",
".	c #6A6A6A",
"+	c #E8E8E8",
"@	c #D3D3D3",
"#	c #828282",
"$	c #E7E7E7",
"%	c #E6E6E7",
"&	c #696A6A",
"*	c #E5E5E6",
"=	c #E4E4E4",
"-	c #E3E3E3",
";	c #E2E2E1",
">	c #E1E1E1",
",	c #E0E0E0",
"'	c #DFDFDF",
")	c #DEDFDE",
"!	c #DEDEDE",
"~	c #DCDDDC",
"{	c #DBDBDC",
"]	c #DBDBDA",
"^	c #DADADA",
"/	c #D9D9D9",
"(	c #D8D9D8",
"_	c #D7D7D7",
":	c #D6D6D6",
"<	c #D6D5D5",
"[	c #D4D5D4",
"}	c #D4D3D3",
"..  ",
"+@# ",
"$$@.",
"%%%&",
"***.",
"===.",
"---.",
"---.",
";;;.",
">>>.",
",,,.",
"'''.",
"))).",
"!!!.",
"~~~.",
"{{{.",
"]]].",
"^^^.",
"///.",
"(((.",
"___.",
":::.",
"<<<.",
"[[[.",
"}}}.",
"@@@."};
