/* XPM */
static char * close_active_xpm[] = {
"20 25 22 1",
" 	c None",
".	c #000000",
"+	c #717171",
"@	c #4F4F4F",
"#	c #4E4E4E",
"$	c #4D4D4D",
"%	c #4C4C4C",
"&	c #4B4B4B",
"*	c #4A4A4A",
"=	c #C1C1C1",
"-	c #494949",
";	c #484848",
">	c #474747",
",	c #464646",
"'	c #454545",
")	c #444444",
"!	c #434343",
"~	c #424242",
"{	c #414141",
"]	c #404040",
"^	c #3F3F3F",
"/	c #3E3E3E",
"....................",
"++++++++++++++++++++",
"@@@@@@@@@@@@@@@@@@@@",
"@@@@@@@@@@@@@@@@@@@@",
"####################",
"$$$$$$$$$$$$$$$$$$$$",
"%%%%%%%%%%%%%%%%%%%%",
"%%%%%%%%%%%%%%%%%%%%",
"&&&&&&&&&&&&&&&&&&&&",
"******==****==******",
"------===--===------",
";;;;;;;======;;;;;;;",
";;;;;;;;====;;;;;;;;",
">>>>>>>>====>>>>>>>>",
",,,,,,,======,,,,,,,",
"''''''===''===''''''",
"''''''==''''==''''''",
"))))))))))))))))))))",
"!!!!!!!!!!!!!!!!!!!!",
"~~~~~~~~~~~~~~~~~~~~",
"~~~~~~~~~~~~~~~~~~~~",
"{{{{{{{{{{{{{{{{{{{{",
"]]]]]]]]]]]]]]]]]]]]",
"^^^^^^^^^^^^^^^^^^^^",
"////////////////////"};
