/* XPM */
static char * close_pressed_xpm[] = {
"20 25 22 1",
" 	c None",
".	c #888888",
"+	c #F4F4F4",
"@	c #DADADA",
"#	c #D9D9D9",
"$	c #D8D8D8",
"%	c #D7D7D7",
"&	c #D6D6D6",
"*	c #232121",
"=	c #D0D0D0",
"-	c #D5D5D5",
";	c #CFCFCF",
">	c #C1C1C1",
",	c #D4D4D4",
"'	c #BCBCBC",
")	c #BABABA",
"!	c #D3D3D3",
"~	c #BEBEBE",
"{	c #D2D2D2",
"]	c #D1D1D1",
"^	c #CECECE",
"/	c #CDCDCD",
"....................",
"++++++++++++++++++++",
"@@@@@@@@@@@@@@@@@@@@",
"####################",
"####################",
"$$$$$$$$$$$$$$$$$$$$",
"$$$$$$$$$$$$$$$$$$$$",
"%%%%%%%%%%%%%%%%%%%%",
"&&&&&&&&&&&&&&&&&&&&",
"&&&&&&**&&&=**&&&&&&",
"------***--***------",
"------;******>------",
",,,,,,,'****),,,,,,,",
"!!!!!!!~****'!!!!!!!",
"!!!!!!;******;!!!!!!",
"{{{{{{***{{***{{{{{{",
"{{{{{{**{{{{**{{{{{{",
"]]]]]]]]]]]]]]]]]]]]",
"====================",
"====================",
";;;;;;;;;;;;;;;;;;;;",
";;;;;;;;;;;;;;;;;;;;",
"^^^^^^^^^^^^^^^^^^^^",
"^^^^^^^^^^^^^^^^^^^^",
"////////////////////"};
