/* XPM */
static char * hide_inactive_xpm[] = {
"20 25 18 1",
" 	c None",
".	c #888888",
"+	c #F4F4F4",
"@	c #DADADA",
"#	c #D9D9D9",
"$	c #D8D8D8",
"%	c #D7D7D7",
"&	c #D6D6D6",
"*	c #D5D5D5",
"=	c #D4D4D4",
"-	c #D3D3D3",
";	c #AAAAAA",
">	c #D2D2D2",
",	c #D1D1D1",
"'	c #D0D0D0",
")	c #CFCFCF",
"!	c #CECECE",
"~	c #CDCDCD",
"....................",
"++++++++++++++++++++",
"@@@@@@@@@@@@@@@@@@@@",
"####################",
"####################",
"$$$$$$$$$$$$$$$$$$$$",
"$$$$$$$$$$$$$$$$$$$$",
"%%%%%%%%%%%%%%%%%%%%",
"&&&&&&&&&&&&&&&&&&&&",
"&&&&&&&&&&&&&&&&&&&&",
"********************",
"********************",
"====================",
"--------------------",
"------;;;;;;;;------",
">>>>>>;;;;;;;;>>>>>>",
">>>>>>>>>>>>>>>>>>>>",
",,,,,,,,,,,,,,,,,,,,",
"''''''''''''''''''''",
"''''''''''''''''''''",
"))))))))))))))))))))",
"))))))))))))))))))))",
"!!!!!!!!!!!!!!!!!!!!",
"!!!!!!!!!!!!!!!!!!!!",
"~~~~~~~~~~~~~~~~~~~~"};
