<svg xmlns="http://www.w3.org/2000/svg" width="48" height="48">
<defs>
<defs
     id="defs4291">
  </defs>
  <path
     id="path-main"
       d="M 27.8125 5.15625 C 26.56152 5.297374 25.671376 6.4365205 25.8125 7.6875 C 25.953624 8.9384795 27.06152 9.828624 28.3125 9.6875 C 29.56348 9.546376 30.484874 8.4384795 30.34375 7.1875 C 30.202626 5.9365205 29.06348 5.015126 27.8125 5.15625 z M 21.8125 6.75 C 21.014867 6.75 20.375 7.3898667 20.375 8.1875 C 20.375 8.9851333 21.014867 9.625 21.8125 9.625 C 22.610133 9.625 23.28125 8.9851333 23.28125 8.1875 C 23.28125 7.3898667 22.610133 6.75 21.8125 6.75 z M 35 7.40625 C 33.089223 7.6218063 31.721944 9.3704734 31.9375 11.28125 C 32.153056 13.192027 33.870473 14.559306 35.78125 14.34375 C 37.692027 14.128194 39.059306 12.410777 38.84375 10.5 C 38.628194 8.5892234 36.910777 7.1906937 35 7.40625 z M 16.25 8.875 C 11.681578 8.875 8.40625 11.624501 8.40625 16.09375 L 8.40625 20 L 7.125 20 C 5.8197372 20 5.15625 20.659291 5.15625 21.96875 L 5.15625 33.09375 C 5.15625 33.735598 5.8197372 35.0625 7.125 35.0625 L 26.28125 35.0625 C 27.335891 35.0563 28 33.735597 28 33.09375 L 28 21.96875 C 28 20.659291 27.336513 20 26.03125 20 L 24.71875 20 L 24.71875 16.09375 C 24.71875 11.510631 21.474674 8.875 16.90625 8.875 L 16.25 8.875 z M 16.25 12.15625 L 16.90625 12.15625 C 21.474674 12.15625 21.46875 16.06554 21.46875 17.375 L 21.46875 20 L 11.6875 20 L 11.6875 17.375 C 11.6875 16.06554 11.681578 12.15625 16.25 12.15625 z M 39.90625 14.375 C 37.569568 14.638603 35.892647 16.757068 36.15625 19.09375 C 36.419853 21.430432 38.538318 23.107353 40.875 22.84375 C 43.211682 22.580147 44.888603 20.461682 44.625 18.125 C 44.361397 15.788318 42.242932 14.111397 39.90625 14.375 z "
 />
</defs>
<acyl-settings>
<linearGradient
     id="linearGradient4321">
    <stop
       style="stop-color:#FFFFFF;stop-opacity:1.0;"
       offset="1.0"
       id="stop1" />
  </linearGradient>
<linearGradient
     inkscape:collect="always"
     xlink:href="#linearGradient4321"
     id="acyl_gradient"
     x1="50.0%"
     y1="0.0%"
     x2="50.0%"
     y2="100.0%" />
<filter>
    </filter>
<use id="1" style="fill:url(#acyl_gradient);filter:url(#filter1111)" xlink:href="#path-main" />
</acyl-settings>
</svg>
