<svg xmlns="http://www.w3.org/2000/svg" width="48" height="48">
<defs>
  <path
     id="path-main"
     d="m 34.439812,2.0023641 c 2.328719,-0.097626 3.928185,2.8510042 2.548663,4.7397347 C 31.34279,12.563842 25.570341,18.264834 19.83976,24.004083 c 5.651858,5.675182 11.334052,11.321603 16.966945,17.014805 1.563302,1.73865 0.269041,4.838785 -2.061933,4.962914 -1.946885,0.220596 -3.023375,-1.615255 -4.290386,-2.744266 -5.7558,-5.769534 -11.52427,-11.52666 -17.272108,-17.303963 -1.188493,-1.344482 -0.729601,-3.487001 0.646307,-4.51558 C 20.070568,15.181519 26.28591,8.917201 32.544583,2.698178 33.070928,2.2567224 33.750943,1.9987439 34.439812,2.0023641 z"
      />
</defs>
<acyl-settings>
<linearGradient
     id="linearGradient4321">
    <stop
       style="stop-color:#FFFFFF;stop-opacity:1.0;"
       offset="1.0"
       id="stop1" />
  </linearGradient>
<linearGradient
     inkscape:collect="always"
     xlink:href="#linearGradient4321"
     id="acyl_gradient"
     x1="50.0%"
     y1="0.0%"
     x2="50.0%"
     y2="100.0%" />
<filter>
    </filter>
<use id="1" style="fill:url(#acyl_gradient);filter:url(#filter1111)" xlink:href="#path-main" />
</acyl-settings>
</svg>
