<svg xmlns="http://www.w3.org/2000/svg" width="48" height="48">
<defs>
  <path
     d="m 36.644517,2 c -1.581939,0 -2.855485,1.323807 -2.855485,2.98913 l 0,38.02174 C 33.789032,44.676193 35.062578,46 36.644517,46 38.226454,46 39.5,44.676193 39.5,43.01087 l 0,-38.02174 C 39.5,3.323807 38.226454,2 36.644517,2 z M 11.361589,2.777174 c -0.729913,0 -1.4633302,0.274895 -2.0226337,0.836956 -1.1186071,1.124124 -1.1186071,2.941094 0,4.065218 L 25.40105,23.820652 9.3389553,39.961956 c -1.1186071,1.124124 -1.1186071,2.941094 0,4.065218 1.1186067,1.124123 2.9266607,1.124123 4.0452687,0 L 31.112017,26.211956 c 0.643741,-0.646916 0.870559,-1.551533 0.77336,-2.391304 0.109512,-0.850885 -0.120271,-1.735006 -0.77336,-2.391304 L 13.384224,3.61413 C 12.82492,3.052069 12.091503,2.777174 11.361589,2.777174 z"
     id="path-main" />
</defs>
<acyl-settings>
<linearGradient
     id="linearGradient4321">
    <stop
       style="stop-color:#FFFFFF;stop-opacity:1.0;"
       offset="1.0"
       id="stop1" />
  </linearGradient>
<linearGradient
     inkscape:collect="always"
     xlink:href="#linearGradient4321"
     id="acyl_gradient"
     x1="50.0%"
     y1="0.0%"
     x2="50.0%"
     y2="100.0%" />
<filter>
    </filter>
<use id="1" style="fill:url(#acyl_gradient);filter:url(#filter1111)" xlink:href="#path-main" />
</acyl-settings>
</svg>
