<svg xmlns="http://www.w3.org/2000/svg" width="48" height="48">
<defs>
  <path
     d="m 24,5.3225704 c -0.301339,0 -0.598553,0.088704 -0.854247,0.2745796 -0.0376,0.023292 -0.05568,0.064509 -0.09153,0.091526 -0.02717,0.023492 -0.06571,0.035203 -0.09153,0.061018 -0.01004,0.010039 -0.02082,0.020259 -0.03051,0.030509 -0.01122,0.010548 -0.01954,0.019542 -0.03051,0.030509 L 2.4302515,26.282142 c -0.5736687,0.573669 -0.5736687,1.500931 0,2.074601 0.5736696,0.573669 1.5009313,0.573669 2.074601,0 L 24,8.8615955 43.495148,28.356743 c 0.573669,0.573668 1.500931,0.573668 2.074601,0 0.573668,-0.57367 0.573668,-1.500932 0,-2.074601 L 25.037301,5.7496941 C 24.750466,5.4628598 24.374335,5.3225704 24,5.3225704 z M 9.9964434,25.885527 c -0.6685155,0.136105 -1.1593359,0.754544 -1.1593359,1.464424 l 0,12.661168 c 0,0.811291 0.6531332,1.464424 1.4644245,1.464424 l 10.739111,0 c 0.811291,0 1.464424,-0.653133 1.464424,-1.464424 l 0,-9.274687 2.928849,0 0,9.274687 c 0,0.811291 0.653133,1.464424 1.464424,1.464424 l 10.739111,0 c 0.101411,0 0.209586,-0.01107 0.305088,-0.03051 0.668516,-0.136105 1.159336,-0.724036 1.159336,-1.433915 l 0,-12.661168 c 0,-0.811291 -0.653133,-1.464424 -1.464424,-1.464424 -0.811291,0 -1.464424,0.653133 -1.464424,1.464424 l 0,11.196744 -7.810263,0 0,-9.274687 c 0,-0.811291 -0.653133,-1.464424 -1.464424,-1.464424 l -5.857697,0 c -0.811291,0 -1.464424,0.653133 -1.464424,1.464424 l 0,9.274687 -7.810263,0 0,-11.196744 c 0,-0.811291 -0.653133,-1.464424 -1.464424,-1.464424 -0.101412,0 -0.209586,-0.01944 -0.3050886,0 z"
     id="path-main" />
</defs>
<acyl-settings>
<linearGradient
     id="linearGradient4321">
    <stop
       style="stop-color:#FFFFFF;stop-opacity:1.0;"
       offset="1.0"
       id="stop1" />
  </linearGradient>
<linearGradient
     inkscape:collect="always"
     xlink:href="#linearGradient4321"
     id="acyl_gradient"
     x1="50.0%"
     y1="0.0%"
     x2="50.0%"
     y2="100.0%" />
<filter>
    </filter>
<use id="1" style="fill:url(#acyl_gradient);filter:url(#filter1111)" xlink:href="#path-main" />
</acyl-settings>
</svg>
