<svg xmlns="http://www.w3.org/2000/svg" width="48" height="48">
<defs>
  <path
     d="m 27.943879,5.3684786 c -9.533328,0 -17.358786,7.4335544 -17.9505293,16.8594184 -0.067343,0.182746 -0.1055914,0.356463 -0.1055914,0.563154 l 0,4.962794 -4.9979905,-5.033188 c -0.6618185,-0.661818 -1.7315743,-0.661818 -2.393404,0 -0.6618184,0.661818 -0.6618184,1.731586 0,2.393404 l 7.8841542,7.919351 c 0.08273,0.08273 0.152611,0.149137 0.24638,0.211183 0.379448,0.259897 0.833037,0.330762 1.267096,0.24638 0.319162,-0.06205 0.631744,-0.209379 0.879928,-0.457563 l 7.884154,-7.919351 c 0.661825,-0.661824 0.661825,-1.731579 0,-2.393404 -0.661824,-0.661825 -1.731579,-0.661825 -2.393404,0 l -4.99799,5.033188 0,-4.188457 a 1.6896305,1.6896305 0 0 0 0.07039,-0.49276 c 0.155462,-7.992884 6.612407,-14.3252262 14.606803,-14.3252262 8.106565,0 14.642001,6.5002382 14.642001,14.6068032 0,8.106564 -6.535436,14.642001 -14.642001,14.642001 a 1.7070602,1.7070602 0 1 0 0,3.41412 c 9.932669,0 18.056121,-8.123452 18.056121,-18.056121 0,-9.93267 -8.123452,-17.9857264 -18.056121,-17.9857264 z"
     id="path-main" />
</defs>
<acyl-settings>
<linearGradient
     id="linearGradient4321">
    <stop
       style="stop-color:#FFFFFF;stop-opacity:1.0;"
       offset="1.0"
       id="stop1" />
  </linearGradient>
<linearGradient
     inkscape:collect="always"
     xlink:href="#linearGradient4321"
     id="acyl_gradient"
     x1="50.0%"
     y1="0.0%"
     x2="50.0%"
     y2="100.0%" />
<filter>
    </filter>
<use id="1" style="fill:url(#acyl_gradient);filter:url(#filter1111)" xlink:href="#path-main" />
</acyl-settings>
</svg>
