/* XPM */
static char *desktop[] = {
/* columns rows colors chars-per-pixel */
"48 48 247 2",
"   c #000000",
".  c #0A0A0A",
"X  c #0F161F",
"o  c #131314",
"O  c #12171F",
"+  c #1B1B1B",
"@  c #1F1F20",
"#  c #161F2A",
"$  c #1D222B",
"%  c #152335",
"&  c #12253E",
"*  c #242424",
"=  c #26292D",
"-  c #2A2B2C",
";  c #202935",
":  c #2E343C",
">  c #333333",
",  c #3D3D3D",
"<  c #122640",
"1  c #182640",
"2  c #132946",
"3  c #1A2B43",
"4  c #163256",
"5  c #363D46",
"6  c #313B4A",
"7  c #213652",
"8  c #2D3D51",
"9  c #20395C",
"0  c #0D2D65",
"q  c #0D2E69",
"w  c #0F316A",
"e  c #103167",
"r  c #1A3A64",
"t  c #13336C",
"y  c #1C3F6B",
"u  c #153570",
"i  c #163A74",
"p  c #173D7B",
"a  c #183E7C",
"s  c #3F4042",
"d  c #39404A",
"f  c #364354",
"g  c #3D4653",
"h  c #34455C",
"j  c #1F4474",
"k  c #18417D",
"l  c #304666",
"z  c #224574",
"x  c #2C4B74",
"c  c #214A7D",
"v  c #3A5374",
"b  c #36537C",
"n  c #434445",
"m  c #4A4B4B",
"M  c #545455",
"N  c #545659",
"B  c #5C5C5C",
"V  c #5E5F60",
"C  c #515E6F",
"Z  c #656565",
"A  c #6D6D6D",
"S  c #747577",
"D  c #797979",
"F  c #A28046",
"G  c #B28E4C",
"H  c #898170",
"J  c #A79575",
"K  c #C19A56",
"L  c #CBA769",
"P  c #CCA96A",
"I  c #C2A570",
"U  c #D7B477",
"Y  c #D2B178",
"T  c #173D82",
"R  c #193F82",
"E  c #1B4285",
"W  c #17428D",
"Q  c #1B448B",
"!  c #1D488F",
"~  c #174393",
"^  c #1B4694",
"/  c #1D4996",
"(  c #1E4B99",
")  c #1F509F",
"_  c #234D84",
"`  c #244F8A",
"'  c #245087",
"]  c #24508A",
"[  c #305589",
"{  c #224D92",
"}  c #214E9B",
"|  c #245293",
" . c #285694",
".. c #23519D",
"X. c #2B5C9E",
"o. c #365F95",
"O. c #335D98",
"+. c #3D649C",
"@. c #1F51A0",
"#. c #2454A3",
"$. c #2758A7",
"%. c #2A5DA2",
"&. c #2257A8",
"*. c #2459AB",
"=. c #295CAB",
"-. c #265EB1",
";. c #285FB0",
":. c #2B60AD",
">. c #3D66A2",
",. c #3D68A7",
"<. c #3465AD",
"1. c #3B67A9",
"2. c #3E6BAB",
"3. c #2761B3",
"4. c #2B63B4",
"5. c #2F68B1",
"6. c #2B66B9",
"7. c #2D69BC",
"8. c #3067B5",
"9. c #316BB3",
"0. c #3A6AB0",
"q. c #326BBB",
"w. c #396EB9",
"e. c #3D72BC",
"r. c #415B86",
"t. c #445E89",
"y. c #4D648D",
"u. c #456593",
"i. c #496795",
"p. c #496A96",
"a. c #426599",
"s. c #4C6D9A",
"d. c #4F719E",
"f. c #567199",
"g. c #58739B",
"h. c #4066A1",
"j. c #426AA4",
"k. c #4A6EA1",
"l. c #436CA9",
"z. c #4F73A0",
"x. c #4670AC",
"c. c #4A73AE",
"v. c #5074A2",
"b. c #5375AA",
"n. c #466FB3",
"m. c #4371B5",
"M. c #4B75B3",
"N. c #4E7AB7",
"B. c #4174BB",
"V. c #4D7BBB",
"C. c #5C7DB4",
"Z. c #2E6DC1",
"A. c #306FC2",
"S. c #3372C4",
"D. c #3B75C2",
"F. c #3D79C6",
"G. c #3475CA",
"H. c #367ACE",
"J. c #3B7BCC",
"K. c #397DD2",
"L. c #4277C0",
"P. c #437AC5",
"I. c #447EC8",
"U. c #7F8899",
"Y. c #5E82BB",
"T. c #6181B7",
"R. c #6488B7",
"E. c #6885BA",
"W. c #6789BA",
"Q. c #7390B7",
"!. c #3B81D6",
"~. c #3D85DA",
"^. c #3F88DE",
"/. c #4D83C7",
"(. c #4C83CC",
"). c #5383C6",
"_. c #5A86C4",
"`. c #5688C6",
"'. c #5D88C5",
"]. c #5C8CCB",
"[. c #408ADF",
"{. c #628AC5",
"}. c #638FCB",
"|. c #6C91C7",
" X c #6591CE",
".X c #6B94CC",
"XX c #6F98CE",
"oX c #7A97C6",
"OX c #7B98C7",
"+X c #7199CF",
"@X c #7E9AC8",
"#X c #6794D1",
"$X c #6896D3",
"%X c #6A99D5",
"&X c #6C9CDA",
"*X c #729BD1",
"=X c #7FA0CF",
"-X c #6EA0DE",
";X c #75A0D7",
":X c #7CA3D6",
">X c #74A4DD",
",X c #78A6DC",
"<X c #418CE2",
"1X c #72A5E2",
"2X c #75A8E3",
"3X c #838383",
"4X c #80868F",
"5X c #8C8C8C",
"6X c #939393",
"7X c #9E9E9E",
"8X c #9398A0",
"9X c #989EA5",
"0X c #8095B2",
"qX c #8F9EB3",
"wX c #9FA1A4",
"eX c #9AA2AF",
"rX c #A3A3A4",
"tX c #ABACAC",
"yX c #A3AAB5",
"uX c #B6B6B6",
"iX c #B4B7BC",
"pX c #B7B9BA",
"aX c #BCBCBC",
"sX c #859FCB",
"dX c #95AACE",
"fX c #84A8D9",
"gX c #8AAEDE",
"hX c #97AED3",
"jX c #98AED4",
"kX c #90B2DF",
"lX c #81ADE1",
"zX c #8DB3E2",
"xX c #8EB7E8",
"cX c #8FB8EA",
"vX c #90B6E5",
"bX c #91B8E7",
"nX c #93BBEB",
"mX c #BFC0C1",
"MX c #B8C1CD",
"NX c #C3C3C3",
"BX c #CCCCCC",
"VX c #D3D3D3",
"CX c #DBDBDB",
"ZX c #E4E4E4",
"AX c #EDEDED",
"SX c #F7F7F7",
"DX c None",
/* pixels */
"DXDXDXDXDXDXDXDXDXDXDXDXDXDXDXDXDXDXDXDXDXDXDXDXDXDXDXDXDXDXDXDXDXDXDXDXDXDXDXDXDXDXDXDXDXDXDXDX",
"DXDXDXDXDXDXDXDXDXDXDXDXDXDXDXDXDXDXDXDXDXDXDXDXDXDXDXDXDXDXDXDXDXDXDXDXDXDXDXDXDXDXDXDXDXDXDXDX",
"DXDXDXDXDXDXDXDXDXDXDXDXDXDXDXDXDXDXDXDXDXDXDXDXDXDXDXDXDXDXDXDXDXDXDXDXDXDXDXDXDXDXDXDXDXDXDXDX",
"DXDXDXDXVXAXSXSXSXSXSXSXSXSXSXSXSXSXSXSXSXSXSXSXSXSXSXSXSXSXSXSXSXSXSXSXSXSXSXSXSXSXAXVXDXDXDXDX",
"DXDXDXNXAXZXZXZXZXZXZXZXZXZXZXZXZXZXZXZXZXZXAXAXAXSXAXAXAXSXAXAXAXAXAXAXAXSXAXAXAXAXAXSXNXDXDXDX",
"DXDXDXZXZXZXZXZXZXZXZXZXZXZXZXZXZXZXZXZXZXZXZXAXAXAXAXAXAXAXAXAXAXAXAXAXAXAXAXAXSXAXAXAXZXDXDXDX",
"DXDXDXAXCXZXCXaXtXtXtXtXrXtXtXtXtXtXtXtXtXtXtXtXtXtXtXtXtXtXtXtXtXtXtXrXtXtXtXtXBXZXAXAXAXDXDXDX",
"DXDXDXZXZXZXNXeXy.r.t.t.t.t.y.t.t.y.t.t.r.t.t.t.t.t.t.t.t.t.t.t.y.[ y.y.r.r.r.y.eXNXAXAXZXDXDXDX",
"DXDXDXZXCXCXuXy.b.C.dXdXC.C.C.C.E.C.C.C.C.C.C.C.vX;X>X>X>X>X>X-X>X>X>X>X&X>X-X$Xy.uXZXAXAXDXDXDX",
"DXDXDXZXZXCXtXt.C.C.jXjXI.sXdXsXOXOXsXoX@XOXT._.kX2X2X2X>X2X>X,X,X2X>X1X>X>X>X>Xr.tXAXAXZXDXDXDX",
"DXDXDXZXCXCXuXr.C.Y.Y.Y.C.T.{.T.C.{.C.{.{.C.T.T.sX2X,X,X>X2X>X,X2X2X2X1X>X2X>X>Xr.tXZXNXVXDXDXDX",
"DXDXDXZXCXCXuXt T ~ ~ ~ ^ ~ ~ ^ R { ^ ^ / ^ ^ ^ } :X X].]. X]. X].].].].].].].`.e tXaXVXaXZX, > ",
"DXDXDXZXCXCXuXt ~ ~ ^ ^ ^ ^ ^ ^ ( ( ~ ( ~ ^ / ^ ^ |.].].].]. X].].].].].].].'.Y.4XBXCXBXVXaX7XDX",
"DXDXDXZXCXCXuXt W ~ T T W W ^ / ( R R ( / ^ ^ / / c..X].].].].].].'.].].].'.0XmXuXrXCXuX6XA 5XDX",
"DXDXDXZXCXCXuXt W W H I J S W ^ ~ ( ) ( ( ( ( ( ( } =X].].].].].].`.]._.Q.iXuXwXVXaX7XS m * DXDX",
"DXDXDXZXCXVXuXt W T Y U U Y R { ( ( ( ) } } } } ( ..{.].].].].`._._.W.yXNX9XmXBXtX3XN M uXDXDXDX",
"DXDXDXCXVXCXaXt W p P K K L T } ) } } ) #.#.#.#.} #.n.#XC. XC.#XW.qXNXtXtXVXtX5XZ m 6XCXCXDXDXDX",
"DXDXDXCXCXCXaXt W T F G G F Q #.#.#.#.#.#.#.#.#.#.#.$.fX XI. XI.pXtXrXCXpX6XA m 1 tXCXCXCXDXDXDX",
"DXDXDXCXVXVXmXt W ^ R E Q _ } #.#.$.$.$.$.=.$.$.$.$.$.C.}.C.C.eXtXVXmX9XD M f a.0 pXVXCXCXDXDXDX",
"DXDXDXVXVXVXNXt Q ^ R E Q Q } $.$.$.$.=.=.=.=.=.=.=.=.n.#Xk.V ZXBXtX3XB d u.M.l.0 mXCXCXCXDXDXDX",
"DXDXDXCXVXBXNXt ^ E tX6X6XwX` $.=.=.=.=.=.4.=.4.:.:.=.=.8 o n 5X5XZ n v c.M.M.M.t NXCXVXVXDXDXDX",
"DXDXDXCXVXVXNXi / Q mXBXpXuX{ =.=.;.=.4.4.8.8.4.4.4.z = - o . > m h k.M.M.N.V.m.q aXBXVXVXDXDXDX",
"DXDXDXVXBXVXBXi ( Q mXBXuXuX| :.4.4.4.8.8.8.4.4.O.6 , + = . O b k.c.M.V.M.M.l.h.e pXBXVXVXDXDXDX",
"DXDXDXVXVXBXNXi ( / 6X9XrX4X..:.4.4.8.4.4.q.8.l s s > o X C n.N.V.V.V.j.h.j.j.>.t pXBXVXVXDXDXDX",
"DXDXDXVXBXBXBXi ) ) { / |  .:.4.6.6.q.q.9.[ : , , - = 9 X.M.I.I.V.>.+.a.,.j.j.>.t aXBXBXBXDXDXDX",
"DXDXDXVXBXBXBXi ) &.*.*.3.3.4.6.8.q.7.:.8 m , $ - 7 %.=.8.<.b.i.+.+.>.>.>.,.,.>.t aXBXVXVXDXDXDX",
"DXDXDXBXBXBXBXi ) &.*.3.3.4.6.7.q.7.x n , * - 3 ..O.#.[ _ ` u.+.+.+.+.>.>.>.1.1.i BXVXBXBXDXDXDX",
"DXDXDXBXBXBXBXp #.*.*.3.4.4.6.7.X.g n > @ % j ' _ _ _ ` ` ` o.+.>.l.1.2.m.B.B.0.p BXBXVXBXDXDXDX",
"DXDXDXBXNXBXVXp #.*.3.3.4.6.7.b M , * $ 4 j j c c _ ' ' | %.8.).I.I.P.L.B.B.w.2.i VXBXBXBXDXDXDX",
"DXDXDXBXNXNXVXa @.3.3.3.4.:.C m > $ & r j j j c ' X.9.S.G.S.S.(.I.P.P.L.e.e.w.<.p VXBXBXBXDXDXDX",
"DXDXDXNXNXNXVXp &.*.3.3.+.N , $ < 4 y j ' X.5.D.!.K.H.H.J.G.G.F.I.P.D.e.e.w.q.<.i VXBXNXNXDXDXDX",
"DXDXDXBXNXNXVXp &.3.3.X.5 % < j ' :.9.H.!.!.!.!.!.!.!.K.K.H.G.G.I.F.D.S.D.q.q.:.k CXBXNXNXDXDXDX",
"DXDXDXNXNXNXVXk #.;.6.6.*.3.A.G.G.G.K.K.K.~.~.~.~.~.K.K.K.H.G.G.J.F.S.A.q.q.8.=.a CXNXNXNXDXDXDX",
"DXDXDXNXmXNXCXk &.;.3.6.Z.Z.A.S.G.H.K.K.K.^.^.^.^.^.^.~.K.H.H.G.G.S.D.A.7.7.6.=.p CXNXNXNXDXDXDX",
"DXDXDXNXNXNXCXk &.3.6.6.Z.Z.A.G.G.H.K.~.~.^.^.<X<X^.^.~.~.K.H.H.G.A.A.7.6.6.-.*.p CXNXNXNXDXDXDX",
"DXDXDXaXmXmXCXk &.3.3.6.Z.Z.A.G.G.K.K.K.~.^.<X<X<X^.^.~.K.K.K.G.G.A.Z.7.6.6.-.*.k CXmXmXmXDXDXDX",
"DXDXDXaXmXaXCXk &.3.4.6.6.Z.A.G.H.H.K.K.~.^.<X<X<X<X^.~.K.K.K.G.G.Z.Z.7.6.-.-.*.k ZXaXmXmXDXDXDX",
"DXDXDXNXmXaXCXu.'.}.#X X$X$X&X&X&X&X1X1X1X2X2X2X2X1X2X1X-X-X-X&X&X&X&X$X#X#X}.{.y.CXaXaXmXDXDXDX",
"DXDXDXaXaXaXZXu.'.}.fXgXgXkX2X&XzXxXxXcXxX1XnXnXnXnXcX1X1X&X-X&X&X&X$X$X#X#X}.'.u.ZXaXaXaXDXDXDX",
"DXDXDXaXaXaXZXf.C.{.|.XXXX%X*X$X*X;X;X;X>X&X,X,X2X,X>X&X&X$X%X$X X}.}.}.}.'.'.C.f.ZXaXaXmXDXDXDX",
"DXDXDXaXuXaXVXMXg.i.s.p.s.f.s.d.g.z.z.v.v.v.b.v.v.b.v.v.v.v.z.f.d.f.s.d.s.i.i.g.MXVXaXuXaXDXDXDX",
"DXDXDXaXpXpXmXVXZXZXZXZXZXZXZXZXZXZXZXZXZXZXZXZXZXZXZXZXZXZXZXZXZXZXZXZXZXZXZXZXCXpXuXpXaXDXDXDX",
"DXDXDX7XuXpXuXuXpXpXuXuXuXpXpXuXpXuXuXuXpXpXuXuXaXuXuXuXpXpXuXuXuXpXuXuXuXpXuXuXuXuXuXuX7XDXDXDX",
"DXDXDXB aXuXuXpXuXuXuXuXuXuXuXuXuXuXuXpXpXuXuXuXuXuXuXuXuXuXuXuXuXuXuXuXuXuXuXuXuXuXuXpXV DXDXDX",
"DXDXDX. B rXaXaXaXNXNXNXNXBXNXBXBXBXBXBXBXBXVXVXVXVXVXBXBXBXBXBXBXNXBXNXNXNXNXNXmXaXrXB . DXDXDX",
"DXDXDXDXDX                                                                            DXDXDXDXDX",
"DXDXDXDXDXDXDXDXDXDXDXDXDXDXDXDXDXDXDXDXDXDXDXDXDXDXDXDXDXDXDXDXDXDXDXDXDXDXDXDXDXDXDXDXDXDXDXDX",
"DXDXDXDXDXDXDXDXDXDXDXDXDXDXDXDXDXDXDXDXDXDXDXDXDXDXDXDXDXDXDXDXDXDXDXDXDXDXDXDXDXDXDXDXDXDXDXDX"
};
