<?xml version="1.0" encoding="UTF-8" standalone="no"?>
<!-- Created with Inkscape (http://www.inkscape.org/) -->

<svg
   xmlns:dc="http://purl.org/dc/elements/1.1/"
   xmlns:cc="http://creativecommons.org/ns#"
   xmlns:rdf="http://www.w3.org/1999/02/22-rdf-syntax-ns#"
   xmlns:svg="http://www.w3.org/2000/svg"
   xmlns="http://www.w3.org/2000/svg"
   xmlns:xlink="http://www.w3.org/1999/xlink"
   xmlns:inkscape="http://www.inkscape.org/namespaces/inkscape"
   version="1.0"
   width="96"
   height="96"
   id="svg2408">
  <defs
     id="defs2410">
    <linearGradient
       id="linearGradient3942">
      <stop
         id="stop3944"
         style="stop-color:#ffffff;stop-opacity:1"
         offset="0" />
      <stop
         id="stop3946"
         style="stop-color:#ffffff;stop-opacity:0"
         offset="1" />
    </linearGradient>
    <linearGradient
       id="linearGradient3727">
      <stop
         id="stop3729"
         style="stop-color:#d5d5d5;stop-opacity:1"
         offset="0" />
      <stop
         id="stop3731"
         style="stop-color:#f1f1f1;stop-opacity:1"
         offset="1" />
    </linearGradient>
    <linearGradient
       id="linearGradient3641">
      <stop
         id="stop3643"
         style="stop-color:#000000;stop-opacity:1"
         offset="0" />
      <stop
         id="stop3645"
         style="stop-color:#000000;stop-opacity:0"
         offset="1" />
    </linearGradient>
    <linearGradient
       x1="45.447727"
       y1="92.539597"
       x2="45.447727"
       y2="7.0165396"
       id="ButtonShadow"
       gradientUnits="userSpaceOnUse"
       gradientTransform="scale(1.0058652,0.994169)">
      <stop
         id="stop3750"
         style="stop-color:#000000;stop-opacity:1"
         offset="0" />
      <stop
         id="stop3752"
         style="stop-color:#000000;stop-opacity:0.58823532"
         offset="1" />
    </linearGradient>
    <linearGradient
       id="linearGradient3737">
      <stop
         id="stop3739"
         style="stop-color:#ffffff;stop-opacity:1"
         offset="0" />
      <stop
         id="stop3741"
         style="stop-color:#ffffff;stop-opacity:0"
         offset="1" />
    </linearGradient>
    <linearGradient
       id="linearGradient3700">
      <stop
         id="stop3702"
         style="stop-color:#dcdcdc;stop-opacity:1"
         offset="0" />
      <stop
         id="stop3704"
         style="stop-color:#f0f0f0;stop-opacity:1"
         offset="1" />
    </linearGradient>
    <filter
       color-interpolation-filters="sRGB"
       id="filter3174">
      <feGaussianBlur
         id="feGaussianBlur3176"
         stdDeviation="1.71" />
    </filter>
    <filter
       x="-0.192"
       y="-0.192"
       width="1.3839999"
       height="1.3839999"
       color-interpolation-filters="sRGB"
       id="filter3794">
      <feGaussianBlur
         id="feGaussianBlur3796"
         stdDeviation="5.28" />
    </filter>
    <linearGradient
       x1="48"
       y1="20.220806"
       x2="48"
       y2="138.66119"
       id="linearGradient3613"
       xlink:href="#linearGradient3737"
       gradientUnits="userSpaceOnUse" />
    <radialGradient
       cx="48"
       cy="90.171875"
       r="42"
       fx="48"
       fy="90.171875"
       id="radialGradient3619"
       xlink:href="#linearGradient3737"
       gradientUnits="userSpaceOnUse"
       gradientTransform="matrix(1.1573129,0,0,0.99590774,-7.5510206,0.19713193)" />
    <clipPath
       id="clipPath3613">
      <rect
         width="84"
         height="84"
         rx="6"
         ry="6"
         x="6"
         y="6"
         id="rect3615"
         style="fill:#ffffff;fill-opacity:1;fill-rule:nonzero;stroke:none" />
    </clipPath>
    <linearGradient
       x1="48"
       y1="88"
       x2="48"
       y2="32"
       id="linearGradient3627"
       xlink:href="#linearGradient3700"
       gradientUnits="userSpaceOnUse" />
    <linearGradient
       x1="48"
       y1="88"
       x2="48"
       y2="36"
       id="linearGradient3635"
       xlink:href="#linearGradient3727"
       gradientUnits="userSpaceOnUse" />
    <filter
       color-interpolation-filters="sRGB"
       id="filter3649">
      <feGaussianBlur
         id="feGaussianBlur3651"
         stdDeviation="1.38" />
    </filter>
    <filter
       color-interpolation-filters="sRGB"
       id="filter3665">
      <feGaussianBlur
         id="feGaussianBlur3667"
         stdDeviation="0.69" />
    </filter>
    <linearGradient
       x1="36.357143"
       y1="6"
       x2="36.357143"
       y2="63.893143"
       id="linearGradient3687"
       xlink:href="#linearGradient3737"
       gradientUnits="userSpaceOnUse" />
    <linearGradient
       x1="48"
       y1="90"
       x2="48"
       y2="5.9877172"
       id="linearGradient3689"
       xlink:href="#linearGradient3700"
       gradientUnits="userSpaceOnUse" />
    <clipPath
       id="clipPath3696">
      <rect
         width="84"
         height="84"
         rx="6"
         ry="6"
         x="106"
         y="6"
         id="rect3698"
         style="fill:#ff00ff;fill-opacity:1;fill-rule:nonzero;stroke:none" />
    </clipPath>
    <linearGradient
       x1="48"
       y1="32"
       x2="48"
       y2="80"
       id="linearGradient3701"
       xlink:href="#linearGradient3641"
       gradientUnits="userSpaceOnUse"
       gradientTransform="translate(100,0)" />
    <clipPath
       id="clipPath3703">
      <rect
         width="84"
         height="84"
         rx="6"
         ry="6"
         x="106"
         y="6"
         id="rect3705"
         style="fill:#ff00ff;fill-opacity:1;fill-rule:nonzero;stroke:none" />
    </clipPath>
    <linearGradient
       x1="51"
       y1="62"
       x2="51"
       y2="21"
       id="linearGradient3707"
       xlink:href="#linearGradient3641"
       gradientUnits="userSpaceOnUse"
       gradientTransform="translate(100,-1)" />
    <linearGradient
       id="linearGradient3737-3">
      <stop
         id="stop3739-5"
         style="stop-color:#ffffff;stop-opacity:1"
         offset="0" />
      <stop
         id="stop3741-7"
         style="stop-color:#ffffff;stop-opacity:0"
         offset="1" />
    </linearGradient>
    <radialGradient
       cx="48"
       cy="90.171875"
       r="42"
       fx="48"
       fy="90.171875"
       id="radialGradient2858"
       xlink:href="#linearGradient3737-3"
       gradientUnits="userSpaceOnUse"
       gradientTransform="matrix(1.1573129,0,0,0.99590774,-7.551021,0.1971319)" />
    <linearGradient
       x1="45.447727"
       y1="92.539597"
       x2="45.447727"
       y2="7.0165396"
       id="ButtonShadow-0"
       gradientUnits="userSpaceOnUse"
       gradientTransform="matrix(1.0058652,0,0,0.994169,100,0)">
      <stop
         id="stop3750-8"
         style="stop-color:#000000;stop-opacity:1"
         offset="0" />
      <stop
         id="stop3752-5"
         style="stop-color:#000000;stop-opacity:0.58823532"
         offset="1" />
    </linearGradient>
    <linearGradient
       x1="32.251034"
       y1="6.1317081"
       x2="32.251034"
       y2="90.238609"
       id="linearGradient3780"
       xlink:href="#ButtonShadow-0"
       gradientUnits="userSpaceOnUse"
       gradientTransform="matrix(1.0238095,0,0,1.0119048,-1.1428571,-98.071429)" />
    <linearGradient
       x1="32.251034"
       y1="6.1317081"
       x2="32.251034"
       y2="90.238609"
       id="linearGradient3772"
       xlink:href="#ButtonShadow-0"
       gradientUnits="userSpaceOnUse"
       gradientTransform="matrix(1.0238095,0,0,1.0119048,-1.1428571,-98.071429)" />
    <linearGradient
       x1="32.251034"
       y1="6.1317081"
       x2="32.251034"
       y2="90.238609"
       id="linearGradient3725"
       xlink:href="#ButtonShadow-0"
       gradientUnits="userSpaceOnUse"
       gradientTransform="matrix(1.0238095,0,0,1.0119048,-1.1428571,-98.071429)" />
    <linearGradient
       x1="32.251034"
       y1="6.1317081"
       x2="32.251034"
       y2="90.238609"
       id="linearGradient3721"
       xlink:href="#ButtonShadow-0"
       gradientUnits="userSpaceOnUse"
       gradientTransform="translate(0,-97)" />
    <linearGradient
       x1="32.251034"
       y1="6.1317081"
       x2="32.251034"
       y2="90.238609"
       id="linearGradient2918"
       xlink:href="#ButtonShadow-0"
       gradientUnits="userSpaceOnUse"
       gradientTransform="matrix(1.0238095,0,0,1.0119048,-1.1428571,-98.071429)" />
    <linearGradient
       id="linearGradient3801">
      <stop
         id="stop3803"
         style="stop-color:#a4d620;stop-opacity:1"
         offset="0" />
      <stop
         id="stop3805"
         style="stop-color:#62a915;stop-opacity:1"
         offset="1" />
    </linearGradient>
    <linearGradient
       x1="45.298355"
       y1="72.618279"
       x2="79.622185"
       y2="72.618279"
       id="linearGradient3915"
       xlink:href="#linearGradient3801"
       gradientUnits="userSpaceOnUse" />
    <linearGradient
       x1="68"
       y1="52"
       x2="68"
       y2="84"
       id="linearGradient3948"
       xlink:href="#linearGradient3942"
       gradientUnits="userSpaceOnUse" />
  </defs>
  <metadata
     id="metadata2413">
    <rdf:RDF>
      <cc:Work
         rdf:about="">
        <dc:format>image/svg+xml</dc:format>
        <dc:type
           rdf:resource="http://purl.org/dc/dcmitype/StillImage" />
        <dc:title />
      </cc:Work>
    </rdf:RDF>
  </metadata>
  <g
     id="layer2"
     style="display:none">
    <rect
       width="86"
       height="85"
       rx="6"
       ry="6"
       x="5"
       y="7"
       id="rect3745"
       style="opacity:0.9;fill:url(#ButtonShadow);fill-opacity:1;fill-rule:nonzero;stroke:none;filter:url(#filter3174)" />
  </g>
  <g
     id="layer3"
     style="display:inline">
    <path
       d="m 12,-95.03125 c -5.5110903,0 -10.03125,4.52016 -10.03125,10.03125 l 0,71 c 0,5.5110902 4.5201598,10.03125 10.03125,10.03125 l 72,0 c 5.51109,0 10.03125,-4.5201597 10.03125,-10.03125 l 0,-71 c 0,-5.51109 -4.52016,-10.03125 -10.03125,-10.03125 l -72,0 z"
       transform="scale(1,-1)"
       id="path3786"
       style="opacity:0.07999998;fill:url(#linearGradient2918);fill-opacity:1;fill-rule:nonzero;stroke:none;display:inline" />
    <path
       d="m 12,-94.03125 c -4.971633,0 -9.03125,4.059617 -9.03125,9.03125 l 0,71 c 0,4.9716329 4.0596171,9.03125 9.03125,9.03125 l 72,0 c 4.971633,0 9.03125,-4.059617 9.03125,-9.03125 l 0,-71 c 0,-4.971633 -4.059617,-9.03125 -9.03125,-9.03125 l -72,0 z"
       transform="scale(1,-1)"
       id="path3778"
       style="opacity:0.1;fill:url(#linearGradient3780);fill-opacity:1;fill-rule:nonzero;stroke:none;display:inline" />
    <path
       d="m 12,-93 c -4.4091333,0 -8,3.590867 -8,8 l 0,71 c 0,4.4091333 3.5908667,8 8,8 l 72,0 c 4.409133,0 8,-3.5908667 8,-8 l 0,-71 c 0,-4.409133 -3.590867,-8 -8,-8 l -72,0 z"
       transform="scale(1,-1)"
       id="path3770"
       style="opacity:0.2;fill:url(#linearGradient3772);fill-opacity:1;fill-rule:nonzero;stroke:none;display:inline" />
    <rect
       width="86"
       height="85"
       rx="7"
       ry="7"
       x="5"
       y="-92"
       transform="scale(1,-1)"
       id="rect3723"
       style="opacity:0.3;fill:url(#linearGradient3725);fill-opacity:1;fill-rule:nonzero;stroke:none;display:inline" />
    <rect
       width="84"
       height="84"
       rx="6"
       ry="6"
       x="6"
       y="-91"
       transform="scale(1,-1)"
       id="rect3716"
       style="opacity:0.45;fill:url(#linearGradient3721);fill-opacity:1;fill-rule:nonzero;stroke:none;display:inline" />
  </g>
  <g
     id="layer1"
     style="display:inline">
    <rect
       width="84"
       height="84"
       rx="6"
       ry="6"
       x="6"
       y="6"
       id="rect2419"
       style="fill:url(#linearGradient3689);fill-opacity:1;fill-rule:nonzero;stroke:none" />
    <path
       d="m 112,89 c -3.324,0 -6,-2.676 -6,-6 l 0,-6 42,-42 42,42 0,6 c 0,3.324 -2.676,6 -6,6 l -72,0 z"
       inkscape:connector-curvature="0"
       transform="translate(-100,-1)"
       clip-path="url(#clipPath3696)"
       id="path3653"
       style="opacity:0.3;fill:url(#linearGradient3701);fill-opacity:1;stroke:none;filter:url(#filter3665)" />
    <path
       d="M 12,90 C 8.676,90 6,87.324 6,84 l 0,-6 42,-42 42,42 0,6 c 0,3.324 -2.676,6 -6,6 l -72,0 z"
       inkscape:connector-curvature="0"
       id="path3619"
       style="fill:url(#linearGradient3635);fill-opacity:1;stroke:none" />
    <path
       d="M 48,36 6,78 6,79 48,37 90,79 90,78 48,36 z"
       inkscape:connector-curvature="0"
       id="path3718"
       style="opacity:0.4;fill:#ffffff;fill-opacity:1;stroke:none" />
    <path
       d="m 112,7 c -3.324,0 -6,2.676 -6,6 l 0,6 42,42 42,-42 0,-6 c 0,-3.324 -2.676,-6 -6,-6 l -72,0 z"
       inkscape:connector-curvature="0"
       transform="translate(-100,1)"
       clip-path="url(#clipPath3703)"
       id="path3637"
       style="opacity:0.4;fill:url(#linearGradient3707);fill-opacity:1;stroke:none;filter:url(#filter3649)" />
    <path
       d="M 12,6 C 8.676,6 6,8.676 6,12 l 0,6 42,42 42,-42 0,-6 C 90,8.676 87.324,6 84,6 L 12,6 z"
       inkscape:connector-curvature="0"
       id="path3613"
       style="fill:url(#linearGradient3627);fill-opacity:1;stroke:none" />
    <path
       d="M 6,17 6,18 48,60 90,18 90,17 48,59 6,17 z"
       inkscape:connector-curvature="0"
       id="path3709"
       style="opacity:0.6;fill:#ffffff;fill-opacity:1;stroke:none" />
  </g>
  <g
     id="layer5"
     style="display:inline">
    <rect
       width="66"
       height="66"
       rx="12"
       ry="12"
       x="15"
       y="15"
       clip-path="url(#clipPath3613)"
       id="rect3171"
       style="opacity:0.1;fill:url(#linearGradient3613);fill-opacity:1;fill-rule:nonzero;stroke:#ffffff;stroke-width:0.5;stroke-linecap:round;stroke-linejoin:miter;stroke-miterlimit:4;stroke-opacity:1;stroke-dasharray:none;stroke-dashoffset:0;filter:url(#filter3794)" />
    <path
       d="M 12,90 C 8.676,90 6,87.324 6,84 L 6,82 6,14 6,12 c 0,-0.334721 0.04135,-0.6507 0.09375,-0.96875 0.0487,-0.295596 0.09704,-0.596915 0.1875,-0.875 C 6.29113,10.12587 6.302142,10.09265 6.3125,10.0625 6.411365,9.774729 6.5473802,9.515048 6.6875,9.25 6.8320918,8.976493 7.0031161,8.714385 7.1875,8.46875 7.3718839,8.223115 7.5612765,7.995278 7.78125,7.78125 8.221197,7.353194 8.72416,6.966724 9.28125,6.6875 9.559795,6.547888 9.8547231,6.440553 10.15625,6.34375 9.9000482,6.443972 9.6695391,6.580022 9.4375,6.71875 c -0.00741,0.0044 -0.023866,-0.0045 -0.03125,0 -0.031933,0.0193 -0.062293,0.04251 -0.09375,0.0625 -0.120395,0.0767 -0.2310226,0.163513 -0.34375,0.25 -0.1061728,0.0808 -0.2132809,0.161112 -0.3125,0.25 C 8.4783201,7.442683 8.3087904,7.626638 8.15625,7.8125 8.0486711,7.942755 7.9378561,8.077785 7.84375,8.21875 7.818661,8.25713 7.805304,8.30462 7.78125,8.34375 7.716487,8.446782 7.6510225,8.548267 7.59375,8.65625 7.4927417,8.850956 7.3880752,9.071951 7.3125,9.28125 7.30454,9.30306 7.288911,9.3218 7.28125,9.34375 7.2494249,9.4357 7.2454455,9.530581 7.21875,9.625 7.1884177,9.731618 7.1483606,9.828031 7.125,9.9375 7.0521214,10.279012 7,10.635705 7,11 l 0,2 0,68 0,2 c 0,2.781848 2.2181517,5 5,5 l 2,0 68,0 2,0 c 2.781848,0 5,-2.218152 5,-5 l 0,-2 0,-68 0,-2 C 89,10.635705 88.94788,10.279012 88.875,9.9375 88.83085,9.730607 88.78662,9.539842 88.71875,9.34375 88.71105,9.3218 88.69545,9.30306 88.6875,9.28125 88.62476,9.107511 88.549117,8.913801 88.46875,8.75 88.42717,8.6672 88.38971,8.580046 88.34375,8.5 88.28915,8.40279 88.216976,8.31165 88.15625,8.21875 88.06214,8.077785 87.951329,7.942755 87.84375,7.8125 87.700576,7.63805 87.540609,7.465502 87.375,7.3125 87.36383,7.3023 87.35502,7.29135 87.34375,7.28125 87.205364,7.155694 87.058659,7.046814 86.90625,6.9375 86.803679,6.86435 86.701932,6.784136 86.59375,6.71875 c -0.0074,-0.0045 -0.02384,0.0044 -0.03125,0 -0.232039,-0.138728 -0.462548,-0.274778 -0.71875,-0.375 0.301527,0.0968 0.596455,0.204138 0.875,0.34375 0.55709,0.279224 1.060053,0.665694 1.5,1.09375 0.219973,0.214028 0.409366,0.441865 0.59375,0.6875 0.184384,0.245635 0.355408,0.507743 0.5,0.78125 0.14012,0.265048 0.276135,0.524729 0.375,0.8125 0.01041,0.03078 0.02133,0.06274 0.03125,0.09375 0.09046,0.278085 0.1388,0.579404 0.1875,0.875 C 89.95865,11.3493 90,11.665279 90,12 l 0,2 0,68 0,2 c 0,3.324 -2.676,6 -6,6 l -72,0 z"
       inkscape:connector-curvature="0"
       id="path3615"
       style="opacity:0;fill:url(#radialGradient3619);fill-opacity:1;fill-rule:nonzero;stroke:none" />
    <path
       d="M 12,6 C 8.676,6 6,8.676 6,12 l 0,2 0,68 0,2 c 0,0.334721 0.04135,0.6507 0.09375,0.96875 0.0487,0.295596 0.09704,0.596915 0.1875,0.875 0.0099,0.03038 0.02089,0.0636 0.03125,0.09375 0.09886,0.287771 0.23488,0.547452 0.375,0.8125 0.144592,0.273507 0.315616,0.535615 0.5,0.78125 0.184384,0.245635 0.373776,0.473472 0.59375,0.6875 0.439947,0.428056 0.94291,0.814526 1.5,1.09375 0.278545,0.139612 0.573473,0.246947 0.875,0.34375 -0.256202,-0.100222 -0.486711,-0.236272 -0.71875,-0.375 -0.0074,-0.0044 -0.02387,0.0045 -0.03125,0 -0.03193,-0.0193 -0.06229,-0.04251 -0.09375,-0.0625 -0.120395,-0.0767 -0.231023,-0.163513 -0.34375,-0.25 -0.106173,-0.0808 -0.213281,-0.161112 -0.3125,-0.25 C 8.47832,88.557317 8.30879,88.373362 8.15625,88.1875 8.048671,88.057245 7.937856,87.922215 7.84375,87.78125 7.81866,87.74287 7.8053,87.69538 7.78125,87.65625 7.71649,87.553218 7.651022,87.451733 7.59375,87.34375 7.492742,87.149044 7.388075,86.928049 7.3125,86.71875 7.3045,86.69694 7.28891,86.6782 7.28125,86.65625 7.24942,86.5643 7.24545,86.469419 7.21875,86.375 7.188418,86.268382 7.148361,86.171969 7.125,86.0625 7.052121,85.720988 7,85.364295 7,85 L 7,83 7,15 7,13 C 7,10.218152 9.218152,8 12,8 l 2,0 68,0 2,0 c 2.781848,0 5,2.218152 5,5 l 0,2 0,68 0,2 c 0,0.364295 -0.05212,0.720988 -0.125,1.0625 -0.04415,0.206893 -0.08838,0.397658 -0.15625,0.59375 -0.0077,0.02195 -0.0233,0.04069 -0.03125,0.0625 -0.06274,0.173739 -0.138383,0.367449 -0.21875,0.53125 -0.04158,0.0828 -0.07904,0.169954 -0.125,0.25 -0.0546,0.09721 -0.126774,0.18835 -0.1875,0.28125 -0.09411,0.140965 -0.204921,0.275995 -0.3125,0.40625 -0.143174,0.17445 -0.303141,0.346998 -0.46875,0.5 -0.01117,0.0102 -0.01998,0.02115 -0.03125,0.03125 -0.138386,0.125556 -0.285091,0.234436 -0.4375,0.34375 -0.102571,0.07315 -0.204318,0.153364 -0.3125,0.21875 -0.0074,0.0045 -0.02384,-0.0044 -0.03125,0 -0.232039,0.138728 -0.462548,0.274778 -0.71875,0.375 0.301527,-0.0968 0.596455,-0.204138 0.875,-0.34375 0.55709,-0.279224 1.060053,-0.665694 1.5,-1.09375 0.219973,-0.214028 0.409366,-0.441865 0.59375,-0.6875 0.184384,-0.245635 0.355408,-0.507743 0.5,-0.78125 0.14012,-0.265048 0.276135,-0.524729 0.375,-0.8125 0.01041,-0.03078 0.02133,-0.06274 0.03125,-0.09375 0.09046,-0.278085 0.1388,-0.579404 0.1875,-0.875 C 89.95865,84.6507 90,84.334721 90,84 l 0,-2 0,-68 0,-2 C 90,8.676 87.324,6 84,6 L 12,6 z"
       inkscape:connector-curvature="0"
       id="rect3728"
       style="opacity:0.6;fill:url(#linearGradient3687);fill-opacity:1;fill-rule:nonzero;stroke:none" />
    <path
       d="M 12,90 C 8.676,90 6,87.324 6,84 L 6,82 6,14 6,12 c 0,-0.334721 0.04135,-0.6507 0.09375,-0.96875 0.0487,-0.295596 0.09704,-0.596915 0.1875,-0.875 C 6.29113,10.12587 6.302142,10.09265 6.3125,10.0625 6.411365,9.774729 6.5473802,9.515048 6.6875,9.25 6.8320918,8.976493 7.0031161,8.714385 7.1875,8.46875 7.3718839,8.223115 7.5612765,7.995278 7.78125,7.78125 8.221197,7.353194 8.72416,6.966724 9.28125,6.6875 9.559795,6.547888 9.8547231,6.440553 10.15625,6.34375 9.9000482,6.443972 9.6695391,6.580022 9.4375,6.71875 c -0.00741,0.0044 -0.023866,-0.0045 -0.03125,0 -0.031933,0.0193 -0.062293,0.04251 -0.09375,0.0625 -0.120395,0.0767 -0.2310226,0.163513 -0.34375,0.25 -0.1061728,0.0808 -0.2132809,0.161112 -0.3125,0.25 C 8.4783201,7.442683 8.3087904,7.626638 8.15625,7.8125 8.0486711,7.942755 7.9378561,8.077785 7.84375,8.21875 7.818661,8.25713 7.805304,8.30462 7.78125,8.34375 7.716487,8.446782 7.6510225,8.548267 7.59375,8.65625 7.4927417,8.850956 7.3880752,9.071951 7.3125,9.28125 7.30454,9.30306 7.288911,9.3218 7.28125,9.34375 7.2494249,9.4357 7.2454455,9.530581 7.21875,9.625 7.1884177,9.731618 7.1483606,9.828031 7.125,9.9375 7.0521214,10.279012 7,10.635705 7,11 l 0,2 0,68 0,2 c 0,2.781848 2.2181517,5 5,5 l 2,0 68,0 2,0 c 2.781848,0 5,-2.218152 5,-5 l 0,-2 0,-68 0,-2 C 89,10.635705 88.94788,10.279012 88.875,9.9375 88.83085,9.730607 88.78662,9.539842 88.71875,9.34375 88.71105,9.3218 88.69545,9.30306 88.6875,9.28125 88.62476,9.107511 88.549117,8.913801 88.46875,8.75 88.42717,8.6672 88.38971,8.580046 88.34375,8.5 88.28915,8.40279 88.216976,8.31165 88.15625,8.21875 88.06214,8.077785 87.951329,7.942755 87.84375,7.8125 87.700576,7.63805 87.540609,7.465502 87.375,7.3125 87.36383,7.3023 87.35502,7.29135 87.34375,7.28125 87.205364,7.155694 87.058659,7.046814 86.90625,6.9375 86.803679,6.86435 86.701932,6.784136 86.59375,6.71875 c -0.0074,-0.0045 -0.02384,0.0044 -0.03125,0 -0.232039,-0.138728 -0.462548,-0.274778 -0.71875,-0.375 0.301527,0.0968 0.596455,0.204138 0.875,0.34375 0.55709,0.279224 1.060053,0.665694 1.5,1.09375 0.219973,0.214028 0.409366,0.441865 0.59375,0.6875 0.184384,0.245635 0.355408,0.507743 0.5,0.78125 0.14012,0.265048 0.276135,0.524729 0.375,0.8125 0.01041,0.03078 0.02133,0.06274 0.03125,0.09375 0.09046,0.278085 0.1388,0.579404 0.1875,0.875 C 89.95865,11.3493 90,11.665279 90,12 l 0,2 0,68 0,2 c 0,3.324 -2.676,6 -6,6 l -72,0 z"
       inkscape:connector-curvature="0"
       id="path3615-5"
       style="opacity:0.3;fill:url(#radialGradient2858);fill-opacity:1;fill-rule:nonzero;stroke:none" />
  </g>
  <g
     id="layer4">
    <path
       d="m 89.986349,69.238985 c -0.21488,-1.561093 -1.973583,-1.971086 -3.08095,-2.785965 0.452305,-1.002477 1.307299,-1.880744 1.442147,-2.982622 0.09844,-1.212445 -1.013508,-2.114893 -2.161243,-2.135756 -0.574938,-0.191984 -1.529962,-0.121132 -1.883184,-0.466436 0.105461,-1.303923 0.927598,-2.804937 -0.05258,-3.95302 -0.907896,-1.060888 -2.339545,-0.509432 -3.503632,-0.325674 -0.950635,0.504422 -0.81239,-0.565783 -0.973216,-1.2035 -0.130627,-1.071533 -0.401383,-2.422333 -1.652276,-2.666162 -1.269606,-0.351715 -2.257329,0.785416 -3.345553,1.248885 -0.564682,0.197811 -0.761585,-1.032508 -1.178359,-1.409042 -0.426005,-1.011804 -1.521655,-1.848863 -2.654045,-1.413094 -1.095119,0.436651 -1.63445,1.627605 -2.458205,2.425428 -0.973647,-0.65486 -1.72467,-1.7847 -2.91707,-1.99934 -1.243767,-0.181639 -2.134633,0.905175 -2.372989,2.019516 -0.345055,0.444832 -0.243497,1.842522 -1.003052,1.403006 -1.213096,-0.355405 -2.631658,-1.302577 -3.801916,-0.341572 -1.164288,0.944179 -0.641361,2.603822 -0.785903,3.912444 -1.186176,0.269467 -2.880347,-0.340038 -3.868298,0.741757 -1.026659,1.143887 -0.143349,2.597452 0.237559,3.813095 0.487992,0.76899 -0.891072,0.672735 -1.319748,1.016916 -1.098052,0.268634 -2.195073,1.121664 -2.064313,2.380723 0.249354,1.192288 1.335753,1.97237 1.99934,2.949845 -0.871859,0.915157 -2.269562,1.493314 -2.556533,2.818742 -0.186067,1.142981 0.709312,1.986005 1.663193,2.403037 0.374257,0.418594 1.762649,0.565214 1.196802,1.235928 -0.585967,1.153839 -1.765734,2.450576 -0.926208,3.768425 0.810341,1.207354 2.476744,0.956157 3.736472,1.311043 -0.08576,1.227497 -0.781478,2.521328 -0.229433,3.703695 0.526899,1.071756 1.844115,1.213477 2.87647,0.879241 0.560732,0.07218 1.729076,-0.722239 1.724808,0.155757 0.28962,1.207178 0.140911,2.908592 1.527846,3.422546 1.38487,0.596205 2.576146,-0.697698 3.773565,-1.225564 0.454783,0.276534 0.742145,1.177337 1.132089,1.695641 0.455828,1.285443 2.259105,1.820804 3.255585,0.80819 0.610876,-0.645848 1.17573,-1.360459 1.769908,-2.032116 1.070537,0.696774 1.92142,2.036743 3.310382,1.999339 1.284689,-0.0939 1.81764,-1.335721 2.151522,-2.404812 0.206115,-0.763429 0.45194,-1.441171 1.291319,-0.838121 1.079697,0.400421 2.40691,1.016712 3.407356,0.09643 1.036768,-1.007403 0.54752,-2.574581 0.688297,-3.867575 1.24572,-0.135375 2.670869,0.29881 3.736472,-0.524417 0.936001,-0.804307 0.694064,-2.129136 0.219537,-3.122161 -0.129526,-0.619425 -0.912001,-1.544893 0.15361,-1.604149 1.111548,-0.448238 2.718145,-0.69704 2.904459,-2.123887 0.293747,-1.438242 -1.158981,-2.317711 -1.863365,-3.381883 -0.0012,-0.497479 0.978512,-0.910082 1.354831,-1.374896 0.68176,-0.486375 1.154931,-1.160958 1.098503,-2.027866 z"
       inkscape:connector-curvature="0"
       id="path3960"
       style="opacity:0.1;color:#000000;fill:#000000;fill-opacity:1;fill-rule:nonzero;stroke:none;stroke-width:2;marker:none;visibility:visible;display:inline;overflow:visible;enable-background:accumulate" />
    <path
       d="m 60.9375,54.59375 a 0.86264402,0.86264402 0 0 0 -0.71875,0.4375 L 58.5,57.875 55.625,56.25 a 0.86264402,0.86264402 0 0 0 -1.28125,0.59375 l -0.625,3.3125 -3.28125,-0.5625 a 0.86264402,0.86264402 0 0 0 -1,1 L 50,63.875 46.6875,64.5 a 0.86264402,0.86264402 0 0 0 -0.59375,1.28125 l 1.625,2.875 L 44.875,70.375 A 0.86264402,0.86264402 0 0 0 44.75,71.78125 L 47.25,73.9375 45.15625,76.5 A 0.86264402,0.86264402 0 0 0 45.5,77.875 l 3.15625,1.1875 -1.125,3.15625 a 0.86264402,0.86264402 0 0 0 0.8125,1.15625 l 3.3125,0.03125 0.0625,3.3125 a 0.86264402,0.86264402 0 0 0 1.15625,0.8125 L 56,86.4375 l 1.1875,3.125 a 0.86264402,0.86264402 0 0 0 1.34375,0.34375 l 2.59375,-2.125 2.1875,2.5625 a 0.86264402,0.86264402 0 0 0 1.40625,-0.125 l 1.6875,-2.875 2.9375,1.625 a 0.86264402,0.86264402 0 0 0 1.25,-0.59375 l 0.59375,-3.28125 3.3125,0.5625 a 0.86264402,0.86264402 0 0 0 1,-1 L 74.9375,81.34375 78.21875,80.75 A 0.86264402,0.86264402 0 0 0 78.8125,79.5 l -1.625,-2.9375 2.875,-1.6875 a 0.86264402,0.86264402 0 0 0 0.125,-1.40625 L 77.625,71.28125 79.75,68.6875 a 0.86264402,0.86264402 0 0 0 -0.34375,-1.34375 l -3.125,-1.1875 1.09375,-3.125 A 0.86264402,0.86264402 0 0 0 76.5625,61.875 L 73.25,61.8125 73.21875,58.5 A 0.86264402,0.86264402 0 0 0 72.0625,57.6875 l -3.15625,1.125 -1.1875,-3.15625 a 0.86264402,0.86264402 0 0 0 -1.375,-0.34375 l -2.5625,2.09375 -2.15625,-2.5 a 0.86264402,0.86264402 0 0 0 -0.6875,-0.3125 z"
       transform="matrix(0,1.048834,-1.048834,0,146.16452,5.4895435)"
       id="path3956"
       style="opacity:0.15;color:#000000;fill:#000000;fill-opacity:1;fill-rule:nonzero;stroke:none;stroke-width:2;marker:none;visibility:visible;display:inline;overflow:visible;enable-background:accumulate" />
    <path
       d="m 74.641931,84.79994 -4.128425,-0.680449 -0.772592,4.112178 -3.646724,-2.051417 -2.132447,3.599941 -2.725174,-3.174954 -3.235096,2.653498 -1.474928,-3.915545 -3.947546,1.387004 -0.04678,-4.183864 -4.183864,-0.04678 1.387005,-3.947547 -3.915546,-1.474927 2.653499,-3.235097 -3.174955,-2.725173 3.599941,-2.132447 -2.051417,-3.646724 4.112178,-0.772592 -0.680448,-4.128426 4.128425,0.680449 0.772592,-4.112178 3.646724,2.051417 2.132447,-3.599941 2.725173,3.174954 3.235097,-2.653498 1.474927,3.915545 3.947547,-1.387004 0.04678,4.183864 4.183863,0.04678 -1.387004,3.947547 3.915545,1.474927 -2.653498,3.235097 3.174955,2.725173 -3.599942,2.132447 2.051418,3.646724 -4.112178,0.772592 z"
       transform="matrix(0,1.048834,-1.048834,0,146.16452,5.4895435)"
       id="path3950"
       style="opacity:0.3;color:#000000;fill:#000000;fill-opacity:1;fill-rule:nonzero;stroke:none;stroke-width:2;marker:none;visibility:visible;display:inline;overflow:visible;enable-background:accumulate" />
    <path
       d="m 74.641931,84.79994 -4.128425,-0.680449 -0.772592,4.112178 -3.646724,-2.051417 -2.132447,3.599941 -2.725174,-3.174954 -3.235096,2.653498 -1.474928,-3.915545 -3.947546,1.387004 -0.04678,-4.183864 -4.183864,-0.04678 1.387005,-3.947547 -3.915546,-1.474927 2.653499,-3.235097 -3.174955,-2.725173 3.599941,-2.132447 -2.051417,-3.646724 4.112178,-0.772592 -0.680448,-4.128426 4.128425,0.680449 0.772592,-4.112178 3.646724,2.051417 2.132447,-3.599941 2.725173,3.174954 3.235097,-2.653498 1.474927,3.915545 3.947547,-1.387004 0.04678,4.183864 4.183863,0.04678 -1.387004,3.947547 3.915545,1.474927 -2.653498,3.235097 3.174955,2.725173 -3.599942,2.132447 2.051418,3.646724 -4.112178,0.772592 z"
       transform="matrix(0,1.048834,-1.048834,0,146.16452,4.4895435)"
       id="path3139"
       style="color:#000000;fill:url(#linearGradient3915);fill-opacity:1;fill-rule:nonzero;stroke:none;stroke-width:2;marker:none;visibility:visible;display:inline;overflow:visible;enable-background:accumulate" />
    <path
       d="m 60,72 4,-4 4,4 8,-8 4,4 -12,12 -8,-8 z"
       inkscape:connector-curvature="0"
       id="path3919"
       style="opacity:0;fill:#000000;stroke:none;display:inline" />
    <path
       d="m 75.875,62 c -0.897869,0.0099 -1.438132,0.775583 -2.032335,1.344835 C 71.89511,65.29239 69.947555,67.239945 68,69.1875 c -0.964382,-0.939158 -1.868773,-1.970041 -2.875,-2.84375 -0.879623,-0.663028 -2.130727,-0.326947 -2.783407,0.470907 -1.284146,1.304182 -2.625329,2.584738 -3.872843,3.904093 -0.783383,0.836692 -0.536644,2.211406 0.302071,2.89513 2.649229,2.639204 5.299107,5.277758 7.947929,7.91737 0.836978,0.783668 2.210868,0.536107 2.895476,-0.301726 C 73.544901,77.298849 77.475575,73.368175 81.40625,69.4375 82.240045,68.656851 82.202094,67.170154 81.273706,66.461206 79.934643,65.122783 78.575876,63.762503 77.25,62.4375 76.861442,62.132871 76.36048,62.000022 75.875,62 z"
       inkscape:connector-curvature="0"
       id="path3929"
       style="opacity:0.07999998;fill:#000000;stroke:none;display:inline" />
    <path
       d="m 75.90625,63.09375 a 0.90850139,0.90850139 0 0 0 -0.5625,0.25 L 68,70.6875 64.65625,67.34375 a 0.90850139,0.90850139 0 0 0 -1.3125,0 l -4,4 a 0.90850139,0.90850139 0 0 0 0,1.3125 l 8,8 a 0.90850139,0.90850139 0 0 0 1.3125,0 l 12,-12 a 0.90850139,0.90850139 0 0 0 0,-1.3125 l -4,-4 a 0.90850139,0.90850139 0 0 0 -0.75,-0.25 z"
       id="path3925"
       style="opacity:0.12000002;fill:#000000;stroke:none;display:inline" />
    <path
       d="m 60,72 4,-4 4,4 8,-8 4,4 -12,12 -8,-8 z"
       inkscape:connector-curvature="0"
       id="path3921"
       style="opacity:0.3;fill:#000000;stroke:none;display:inline" />
    <path
       d="m 60,71 4,-4 4,4 8,-8 4,4 -12,12 -8,-8 z"
       inkscape:connector-curvature="0"
       id="path3917"
       style="fill:#ffffff;stroke:none;display:inline" />
    <path
       d="M 71.5625,52 68.71875,55.34375 65.3125,52.5625 63.78125,56.65625 59.625,55.1875 l 0,1 4.15625,1.46875 1.53125,-4.09375 3.40625,2.78125 L 71.5625,53 73.8125,56.78125 77.625,54.625 78.4375,58.9375 82.625,58.25 82.78125,57.21875 78.4375,57.9375 77.625,53.625 73.8125,55.78125 71.5625,52 z m -11.96875,7.59375 -4.40625,0.03125 0.34375,1 4.0625,-0.03125 0,-1 z m 22.625,2 -0.15625,0.96875 3.8125,0.71875 0.5,-0.90625 -4.15625,-0.78125 z m -25.875,2.3125 -3.78125,1.40625 0.625,0.78125 3.46875,-1.3125 -0.3125,-0.875 z m 28.3125,2.53125 -0.4375,0.75 3.09375,1.84375 L 88,68.4375 l -3.34375,-2 z M 54.875,69.125 52,71.5625 l 0.6875,0.40625 2.65625,-2.25 L 54.875,69.125 z m 30.25,2.75 -0.46875,0.40625 2.15625,2.625 0.625,-0.21875 -2.3125,-2.8125 z m -29.78125,2.6875 -1.71875,3.0625 0.5,0.09375 1.65625,-2.90625 -0.4375,-0.25 z m 28.3125,2.53125 -0.3125,0.125 1.125,3.15625 0.34375,0 -1.15625,-3.28125 z m -25.875,2.3125 -0.5625,3.375 L 57.375,82.75 57.9375,79.4375 57.78125,79.40625 z"
       inkscape:connector-curvature="0"
       id="path3933"
       style="opacity:0.6;color:#000000;fill:url(#linearGradient3948);fill-opacity:1;fill-rule:nonzero;stroke:none;stroke-width:2;marker:none;visibility:visible;display:inline;overflow:visible;enable-background:accumulate" />
  </g>
</svg>
