<?xml version="1.0" encoding="UTF-8" standalone="no"?>
<!-- Created with Inkscape (http://www.inkscape.org/) -->

<svg
   xmlns:dc="http://purl.org/dc/elements/1.1/"
   xmlns:cc="http://creativecommons.org/ns#"
   xmlns:rdf="http://www.w3.org/1999/02/22-rdf-syntax-ns#"
   xmlns:svg="http://www.w3.org/2000/svg"
   xmlns="http://www.w3.org/2000/svg"
   xmlns:xlink="http://www.w3.org/1999/xlink"
   xmlns:inkscape="http://www.inkscape.org/namespaces/inkscape"
   version="1.0"
   width="96"
   height="96"
   id="svg2408">
  <defs
     id="defs2410">
    <linearGradient
       id="linearGradient3727">
      <stop
         id="stop3729"
         style="stop-color:#d5d5d5;stop-opacity:1"
         offset="0" />
      <stop
         id="stop3731"
         style="stop-color:#f1f1f1;stop-opacity:1"
         offset="1" />
    </linearGradient>
    <linearGradient
       id="linearGradient3641">
      <stop
         id="stop3643"
         style="stop-color:#000000;stop-opacity:1"
         offset="0" />
      <stop
         id="stop3645"
         style="stop-color:#000000;stop-opacity:0"
         offset="1" />
    </linearGradient>
    <linearGradient
       x1="45.447727"
       y1="92.539597"
       x2="45.447727"
       y2="7.0165396"
       id="ButtonShadow"
       gradientUnits="userSpaceOnUse"
       gradientTransform="scale(1.0058652,0.994169)">
      <stop
         id="stop3750"
         style="stop-color:#000000;stop-opacity:1"
         offset="0" />
      <stop
         id="stop3752"
         style="stop-color:#000000;stop-opacity:0.58823532"
         offset="1" />
    </linearGradient>
    <linearGradient
       id="linearGradient3737">
      <stop
         id="stop3739"
         style="stop-color:#ffffff;stop-opacity:1"
         offset="0" />
      <stop
         id="stop3741"
         style="stop-color:#ffffff;stop-opacity:0"
         offset="1" />
    </linearGradient>
    <linearGradient
       id="linearGradient3700">
      <stop
         id="stop3702"
         style="stop-color:#dcdcdc;stop-opacity:1"
         offset="0" />
      <stop
         id="stop3704"
         style="stop-color:#f0f0f0;stop-opacity:1"
         offset="1" />
    </linearGradient>
    <filter
       color-interpolation-filters="sRGB"
       id="filter3174">
      <feGaussianBlur
         id="feGaussianBlur3176"
         stdDeviation="1.71" />
    </filter>
    <filter
       x="-0.192"
       y="-0.192"
       width="1.3839999"
       height="1.3839999"
       color-interpolation-filters="sRGB"
       id="filter3794">
      <feGaussianBlur
         id="feGaussianBlur3796"
         stdDeviation="5.28" />
    </filter>
    <linearGradient
       x1="48"
       y1="20.220806"
       x2="48"
       y2="138.66119"
       id="linearGradient3613"
       xlink:href="#linearGradient3737"
       gradientUnits="userSpaceOnUse" />
    <radialGradient
       cx="48"
       cy="90.171875"
       r="42"
       fx="48"
       fy="90.171875"
       id="radialGradient3619"
       xlink:href="#linearGradient3737"
       gradientUnits="userSpaceOnUse"
       gradientTransform="matrix(1.1573129,0,0,0.99590774,-7.5510206,0.19713193)" />
    <clipPath
       id="clipPath3613">
      <rect
         width="84"
         height="84"
         rx="6"
         ry="6"
         x="6"
         y="6"
         id="rect3615"
         style="fill:#ffffff;fill-opacity:1;fill-rule:nonzero;stroke:none" />
    </clipPath>
    <linearGradient
       x1="48"
       y1="88"
       x2="48"
       y2="32"
       id="linearGradient3627"
       xlink:href="#linearGradient3700"
       gradientUnits="userSpaceOnUse" />
    <linearGradient
       x1="48"
       y1="88"
       x2="48"
       y2="36"
       id="linearGradient3635"
       xlink:href="#linearGradient3727"
       gradientUnits="userSpaceOnUse" />
    <filter
       color-interpolation-filters="sRGB"
       id="filter3649">
      <feGaussianBlur
         id="feGaussianBlur3651"
         stdDeviation="1.38" />
    </filter>
    <filter
       color-interpolation-filters="sRGB"
       id="filter3665">
      <feGaussianBlur
         id="feGaussianBlur3667"
         stdDeviation="0.69" />
    </filter>
    <linearGradient
       x1="36.357143"
       y1="6"
       x2="36.357143"
       y2="63.893143"
       id="linearGradient3687"
       xlink:href="#linearGradient3737"
       gradientUnits="userSpaceOnUse" />
    <linearGradient
       x1="48"
       y1="90"
       x2="48"
       y2="5.9877172"
       id="linearGradient3689"
       xlink:href="#linearGradient3700"
       gradientUnits="userSpaceOnUse" />
    <clipPath
       id="clipPath3696">
      <rect
         width="84"
         height="84"
         rx="6"
         ry="6"
         x="106"
         y="6"
         id="rect3698"
         style="fill:#ff00ff;fill-opacity:1;fill-rule:nonzero;stroke:none" />
    </clipPath>
    <linearGradient
       x1="48"
       y1="32"
       x2="48"
       y2="80"
       id="linearGradient3701"
       xlink:href="#linearGradient3641"
       gradientUnits="userSpaceOnUse"
       gradientTransform="translate(100,0)" />
    <clipPath
       id="clipPath3703">
      <rect
         width="84"
         height="84"
         rx="6"
         ry="6"
         x="106"
         y="6"
         id="rect3705"
         style="fill:#ff00ff;fill-opacity:1;fill-rule:nonzero;stroke:none" />
    </clipPath>
    <linearGradient
       x1="51"
       y1="62"
       x2="51"
       y2="21"
       id="linearGradient3707"
       xlink:href="#linearGradient3641"
       gradientUnits="userSpaceOnUse"
       gradientTransform="translate(100,-1)" />
    <linearGradient
       id="linearGradient3737-3">
      <stop
         id="stop3739-5"
         style="stop-color:#ffffff;stop-opacity:1"
         offset="0" />
      <stop
         id="stop3741-7"
         style="stop-color:#ffffff;stop-opacity:0"
         offset="1" />
    </linearGradient>
    <radialGradient
       cx="48"
       cy="90.171875"
       r="42"
       fx="48"
       fy="90.171875"
       id="radialGradient2858"
       xlink:href="#linearGradient3737-3"
       gradientUnits="userSpaceOnUse"
       gradientTransform="matrix(1.1573129,0,0,0.99590774,-7.551021,0.1971319)" />
    <linearGradient
       x1="45.447727"
       y1="92.539597"
       x2="45.447727"
       y2="7.0165396"
       id="ButtonShadow-0"
       gradientUnits="userSpaceOnUse"
       gradientTransform="matrix(1.0058652,0,0,0.994169,100,0)">
      <stop
         id="stop3750-8"
         style="stop-color:#000000;stop-opacity:1"
         offset="0" />
      <stop
         id="stop3752-5"
         style="stop-color:#000000;stop-opacity:0.58823532"
         offset="1" />
    </linearGradient>
    <linearGradient
       x1="32.251034"
       y1="6.1317081"
       x2="32.251034"
       y2="90.238609"
       id="linearGradient3780"
       xlink:href="#ButtonShadow-0"
       gradientUnits="userSpaceOnUse"
       gradientTransform="matrix(1.0238095,0,0,1.0119048,-1.1428571,-98.071429)" />
    <linearGradient
       x1="32.251034"
       y1="6.1317081"
       x2="32.251034"
       y2="90.238609"
       id="linearGradient3772"
       xlink:href="#ButtonShadow-0"
       gradientUnits="userSpaceOnUse"
       gradientTransform="matrix(1.0238095,0,0,1.0119048,-1.1428571,-98.071429)" />
    <linearGradient
       x1="32.251034"
       y1="6.1317081"
       x2="32.251034"
       y2="90.238609"
       id="linearGradient3725"
       xlink:href="#ButtonShadow-0"
       gradientUnits="userSpaceOnUse"
       gradientTransform="matrix(1.0238095,0,0,1.0119048,-1.1428571,-98.071429)" />
    <linearGradient
       x1="32.251034"
       y1="6.1317081"
       x2="32.251034"
       y2="90.238609"
       id="linearGradient3721"
       xlink:href="#ButtonShadow-0"
       gradientUnits="userSpaceOnUse"
       gradientTransform="translate(0,-97)" />
    <linearGradient
       x1="32.251034"
       y1="6.1317081"
       x2="32.251034"
       y2="90.238609"
       id="linearGradient2918"
       xlink:href="#ButtonShadow-0"
       gradientUnits="userSpaceOnUse"
       gradientTransform="matrix(1.0238095,0,0,1.0119048,-1.1428571,-98.071429)" />
    <linearGradient
       id="linearGradient3686">
      <stop
         id="stop3688"
         style="stop-color:#dcdcdc;stop-opacity:1"
         offset="0" />
      <stop
         id="stop3690"
         style="stop-color:#ffffff;stop-opacity:1"
         offset="1" />
    </linearGradient>
    <linearGradient
       id="linearGradient3658">
      <stop
         id="stop3660"
         style="stop-color:#ff9604;stop-opacity:1"
         offset="0" />
      <stop
         id="stop3662"
         style="stop-color:#fff580;stop-opacity:1"
         offset="1" />
    </linearGradient>
    <linearGradient
       x1="11.087322"
       y1="15.37313"
       x2="10.540542"
       y2="4.9937253"
       id="linearGradient3127"
       xlink:href="#linearGradient3658"
       gradientUnits="userSpaceOnUse" />
    <linearGradient
       x1="11.087322"
       y1="15.37313"
       x2="10.540542"
       y2="4.9937253"
       id="linearGradient4077"
       xlink:href="#linearGradient3658"
       gradientUnits="userSpaceOnUse" />
    <linearGradient
       x1="11.087322"
       y1="15.37313"
       x2="10.540542"
       y2="4.9937253"
       id="linearGradient4079"
       xlink:href="#linearGradient3686"
       gradientUnits="userSpaceOnUse"
       gradientTransform="matrix(3.3567126,0.17689259,-0.17682969,3.357356,95.813745,32.088564)" />
    <linearGradient
       x1="11.087322"
       y1="15.37313"
       x2="10.540542"
       y2="4.9937253"
       id="linearGradient4081"
       xlink:href="#linearGradient3658"
       gradientUnits="userSpaceOnUse"
       gradientTransform="matrix(3.3567126,0.17689259,-0.17682969,3.357356,95.813745,32.088564)" />
    <linearGradient
       x1="10.999399"
       y1="4.1597385"
       x2="11.500113"
       y2="13.664667"
       id="linearGradient4092"
       xlink:href="#linearGradient3737-3"
       gradientUnits="userSpaceOnUse"
       gradientTransform="matrix(3.3567126,0.17689259,-0.17682969,3.357356,35.813745,32.088564)" />
  </defs>
  <metadata
     id="metadata2413">
    <rdf:RDF>
      <cc:Work
         rdf:about="">
        <dc:format>image/svg+xml</dc:format>
        <dc:type
           rdf:resource="http://purl.org/dc/dcmitype/StillImage" />
        <dc:title />
      </cc:Work>
    </rdf:RDF>
  </metadata>
  <g
     id="layer2"
     style="display:none">
    <rect
       width="86"
       height="85"
       rx="6"
       ry="6"
       x="5"
       y="7"
       id="rect3745"
       style="opacity:0.9;fill:url(#ButtonShadow);fill-opacity:1;fill-rule:nonzero;stroke:none;filter:url(#filter3174)" />
  </g>
  <g
     id="layer3"
     style="display:inline">
    <path
       d="m 12,-95.03125 c -5.5110903,0 -10.03125,4.52016 -10.03125,10.03125 l 0,71 c 0,5.5110902 4.5201598,10.03125 10.03125,10.03125 l 72,0 c 5.51109,0 10.03125,-4.5201597 10.03125,-10.03125 l 0,-71 c 0,-5.51109 -4.52016,-10.03125 -10.03125,-10.03125 l -72,0 z"
       transform="scale(1,-1)"
       id="path3786"
       style="opacity:0.07999998;fill:url(#linearGradient2918);fill-opacity:1;fill-rule:nonzero;stroke:none;display:inline" />
    <path
       d="m 12,-94.03125 c -4.971633,0 -9.03125,4.059617 -9.03125,9.03125 l 0,71 c 0,4.9716329 4.0596171,9.03125 9.03125,9.03125 l 72,0 c 4.971633,0 9.03125,-4.059617 9.03125,-9.03125 l 0,-71 c 0,-4.971633 -4.059617,-9.03125 -9.03125,-9.03125 l -72,0 z"
       transform="scale(1,-1)"
       id="path3778"
       style="opacity:0.1;fill:url(#linearGradient3780);fill-opacity:1;fill-rule:nonzero;stroke:none;display:inline" />
    <path
       d="m 12,-93 c -4.4091333,0 -8,3.590867 -8,8 l 0,71 c 0,4.4091333 3.5908667,8 8,8 l 72,0 c 4.409133,0 8,-3.5908667 8,-8 l 0,-71 c 0,-4.409133 -3.590867,-8 -8,-8 l -72,0 z"
       transform="scale(1,-1)"
       id="path3770"
       style="opacity:0.2;fill:url(#linearGradient3772);fill-opacity:1;fill-rule:nonzero;stroke:none;display:inline" />
    <rect
       width="86"
       height="85"
       rx="7"
       ry="7"
       x="5"
       y="-92"
       transform="scale(1,-1)"
       id="rect3723"
       style="opacity:0.3;fill:url(#linearGradient3725);fill-opacity:1;fill-rule:nonzero;stroke:none;display:inline" />
    <rect
       width="84"
       height="84"
       rx="6"
       ry="6"
       x="6"
       y="-91"
       transform="scale(1,-1)"
       id="rect3716"
       style="opacity:0.45;fill:url(#linearGradient3721);fill-opacity:1;fill-rule:nonzero;stroke:none;display:inline" />
  </g>
  <g
     id="layer1">
    <rect
       width="84"
       height="84"
       rx="6"
       ry="6"
       x="6"
       y="6"
       id="rect2419"
       style="fill:url(#linearGradient3689);fill-opacity:1;fill-rule:nonzero;stroke:none" />
    <path
       d="m 112,89 c -3.324,0 -6,-2.676 -6,-6 l 0,-6 42,-42 42,42 0,6 c 0,3.324 -2.676,6 -6,6 l -72,0 z"
       inkscape:connector-curvature="0"
       transform="translate(-100,-1)"
       clip-path="url(#clipPath3696)"
       id="path3653"
       style="opacity:0.3;fill:url(#linearGradient3701);fill-opacity:1;stroke:none;filter:url(#filter3665)" />
    <path
       d="M 12,90 C 8.676,90 6,87.324 6,84 l 0,-6 42,-42 42,42 0,6 c 0,3.324 -2.676,6 -6,6 l -72,0 z"
       inkscape:connector-curvature="0"
       id="path3619"
       style="fill:url(#linearGradient3635);fill-opacity:1;stroke:none" />
    <path
       d="M 48,36 6,78 6,79 48,37 90,79 90,78 48,36 z"
       inkscape:connector-curvature="0"
       id="path3718"
       style="opacity:0.4;fill:#ffffff;fill-opacity:1;stroke:none" />
    <path
       d="m 112,7 c -3.324,0 -6,2.676 -6,6 l 0,6 42,42 42,-42 0,-6 c 0,-3.324 -2.676,-6 -6,-6 l -72,0 z"
       inkscape:connector-curvature="0"
       transform="translate(-100,1)"
       clip-path="url(#clipPath3703)"
       id="path3637"
       style="opacity:0.4;fill:url(#linearGradient3707);fill-opacity:1;stroke:none;filter:url(#filter3649)" />
    <path
       d="M 12,6 C 8.676,6 6,8.676 6,12 l 0,6 42,42 42,-42 0,-6 C 90,8.676 87.324,6 84,6 L 12,6 z"
       inkscape:connector-curvature="0"
       id="path3613"
       style="fill:url(#linearGradient3627);fill-opacity:1;stroke:none" />
    <path
       d="M 6,17 6,18 48,60 90,18 90,17 48,59 6,17 z"
       inkscape:connector-curvature="0"
       id="path3709"
       style="opacity:0.6;fill:#ffffff;fill-opacity:1;stroke:none" />
  </g>
  <g
     id="layer5">
    <rect
       width="66"
       height="66"
       rx="12"
       ry="12"
       x="15"
       y="15"
       clip-path="url(#clipPath3613)"
       id="rect3171"
       style="opacity:0.1;fill:url(#linearGradient3613);fill-opacity:1;fill-rule:nonzero;stroke:#ffffff;stroke-width:0.5;stroke-linecap:round;stroke-linejoin:miter;stroke-miterlimit:4;stroke-opacity:1;stroke-dasharray:none;stroke-dashoffset:0;filter:url(#filter3794)" />
    <path
       d="M 12,90 C 8.676,90 6,87.324 6,84 L 6,82 6,14 6,12 c 0,-0.334721 0.04135,-0.6507 0.09375,-0.96875 0.0487,-0.295596 0.09704,-0.596915 0.1875,-0.875 C 6.29113,10.12587 6.302142,10.09265 6.3125,10.0625 6.411365,9.774729 6.5473802,9.515048 6.6875,9.25 6.8320918,8.976493 7.0031161,8.714385 7.1875,8.46875 7.3718839,8.223115 7.5612765,7.995278 7.78125,7.78125 8.221197,7.353194 8.72416,6.966724 9.28125,6.6875 9.559795,6.547888 9.8547231,6.440553 10.15625,6.34375 9.9000482,6.443972 9.6695391,6.580022 9.4375,6.71875 c -0.00741,0.0044 -0.023866,-0.0045 -0.03125,0 -0.031933,0.0193 -0.062293,0.04251 -0.09375,0.0625 -0.120395,0.0767 -0.2310226,0.163513 -0.34375,0.25 -0.1061728,0.0808 -0.2132809,0.161112 -0.3125,0.25 C 8.4783201,7.442683 8.3087904,7.626638 8.15625,7.8125 8.0486711,7.942755 7.9378561,8.077785 7.84375,8.21875 7.818661,8.25713 7.805304,8.30462 7.78125,8.34375 7.716487,8.446782 7.6510225,8.548267 7.59375,8.65625 7.4927417,8.850956 7.3880752,9.071951 7.3125,9.28125 7.30454,9.30306 7.288911,9.3218 7.28125,9.34375 7.2494249,9.4357 7.2454455,9.530581 7.21875,9.625 7.1884177,9.731618 7.1483606,9.828031 7.125,9.9375 7.0521214,10.279012 7,10.635705 7,11 l 0,2 0,68 0,2 c 0,2.781848 2.2181517,5 5,5 l 2,0 68,0 2,0 c 2.781848,0 5,-2.218152 5,-5 l 0,-2 0,-68 0,-2 C 89,10.635705 88.94788,10.279012 88.875,9.9375 88.83085,9.730607 88.78662,9.539842 88.71875,9.34375 88.71105,9.3218 88.69545,9.30306 88.6875,9.28125 88.62476,9.107511 88.549117,8.913801 88.46875,8.75 88.42717,8.6672 88.38971,8.580046 88.34375,8.5 88.28915,8.40279 88.216976,8.31165 88.15625,8.21875 88.06214,8.077785 87.951329,7.942755 87.84375,7.8125 87.700576,7.63805 87.540609,7.465502 87.375,7.3125 87.36383,7.3023 87.35502,7.29135 87.34375,7.28125 87.205364,7.155694 87.058659,7.046814 86.90625,6.9375 86.803679,6.86435 86.701932,6.784136 86.59375,6.71875 c -0.0074,-0.0045 -0.02384,0.0044 -0.03125,0 -0.232039,-0.138728 -0.462548,-0.274778 -0.71875,-0.375 0.301527,0.0968 0.596455,0.204138 0.875,0.34375 0.55709,0.279224 1.060053,0.665694 1.5,1.09375 0.219973,0.214028 0.409366,0.441865 0.59375,0.6875 0.184384,0.245635 0.355408,0.507743 0.5,0.78125 0.14012,0.265048 0.276135,0.524729 0.375,0.8125 0.01041,0.03078 0.02133,0.06274 0.03125,0.09375 0.09046,0.278085 0.1388,0.579404 0.1875,0.875 C 89.95865,11.3493 90,11.665279 90,12 l 0,2 0,68 0,2 c 0,3.324 -2.676,6 -6,6 l -72,0 z"
       inkscape:connector-curvature="0"
       id="path3615"
       style="opacity:0;fill:url(#radialGradient3619);fill-opacity:1;fill-rule:nonzero;stroke:none" />
    <path
       d="M 12,6 C 8.676,6 6,8.676 6,12 l 0,2 0,68 0,2 c 0,0.334721 0.04135,0.6507 0.09375,0.96875 0.0487,0.295596 0.09704,0.596915 0.1875,0.875 0.0099,0.03038 0.02089,0.0636 0.03125,0.09375 0.09886,0.287771 0.23488,0.547452 0.375,0.8125 0.144592,0.273507 0.315616,0.535615 0.5,0.78125 0.184384,0.245635 0.373776,0.473472 0.59375,0.6875 0.439947,0.428056 0.94291,0.814526 1.5,1.09375 0.278545,0.139612 0.573473,0.246947 0.875,0.34375 -0.256202,-0.100222 -0.486711,-0.236272 -0.71875,-0.375 -0.0074,-0.0044 -0.02387,0.0045 -0.03125,0 -0.03193,-0.0193 -0.06229,-0.04251 -0.09375,-0.0625 -0.120395,-0.0767 -0.231023,-0.163513 -0.34375,-0.25 -0.106173,-0.0808 -0.213281,-0.161112 -0.3125,-0.25 C 8.47832,88.557317 8.30879,88.373362 8.15625,88.1875 8.048671,88.057245 7.937856,87.922215 7.84375,87.78125 7.81866,87.74287 7.8053,87.69538 7.78125,87.65625 7.71649,87.553218 7.651022,87.451733 7.59375,87.34375 7.492742,87.149044 7.388075,86.928049 7.3125,86.71875 7.3045,86.69694 7.28891,86.6782 7.28125,86.65625 7.24942,86.5643 7.24545,86.469419 7.21875,86.375 7.188418,86.268382 7.148361,86.171969 7.125,86.0625 7.052121,85.720988 7,85.364295 7,85 L 7,83 7,15 7,13 C 7,10.218152 9.218152,8 12,8 l 2,0 68,0 2,0 c 2.781848,0 5,2.218152 5,5 l 0,2 0,68 0,2 c 0,0.364295 -0.05212,0.720988 -0.125,1.0625 -0.04415,0.206893 -0.08838,0.397658 -0.15625,0.59375 -0.0077,0.02195 -0.0233,0.04069 -0.03125,0.0625 -0.06274,0.173739 -0.138383,0.367449 -0.21875,0.53125 -0.04158,0.0828 -0.07904,0.169954 -0.125,0.25 -0.0546,0.09721 -0.126774,0.18835 -0.1875,0.28125 -0.09411,0.140965 -0.204921,0.275995 -0.3125,0.40625 -0.143174,0.17445 -0.303141,0.346998 -0.46875,0.5 -0.01117,0.0102 -0.01998,0.02115 -0.03125,0.03125 -0.138386,0.125556 -0.285091,0.234436 -0.4375,0.34375 -0.102571,0.07315 -0.204318,0.153364 -0.3125,0.21875 -0.0074,0.0045 -0.02384,-0.0044 -0.03125,0 -0.232039,0.138728 -0.462548,0.274778 -0.71875,0.375 0.301527,-0.0968 0.596455,-0.204138 0.875,-0.34375 0.55709,-0.279224 1.060053,-0.665694 1.5,-1.09375 0.219973,-0.214028 0.409366,-0.441865 0.59375,-0.6875 0.184384,-0.245635 0.355408,-0.507743 0.5,-0.78125 0.14012,-0.265048 0.276135,-0.524729 0.375,-0.8125 0.01041,-0.03078 0.02133,-0.06274 0.03125,-0.09375 0.09046,-0.278085 0.1388,-0.579404 0.1875,-0.875 C 89.95865,84.6507 90,84.334721 90,84 l 0,-2 0,-68 0,-2 C 90,8.676 87.324,6 84,6 L 12,6 z"
       inkscape:connector-curvature="0"
       id="rect3728"
       style="opacity:0.6;fill:url(#linearGradient3687);fill-opacity:1;fill-rule:nonzero;stroke:none" />
    <path
       d="M 12,90 C 8.676,90 6,87.324 6,84 L 6,82 6,14 6,12 c 0,-0.334721 0.04135,-0.6507 0.09375,-0.96875 0.0487,-0.295596 0.09704,-0.596915 0.1875,-0.875 C 6.29113,10.12587 6.302142,10.09265 6.3125,10.0625 6.411365,9.774729 6.5473802,9.515048 6.6875,9.25 6.8320918,8.976493 7.0031161,8.714385 7.1875,8.46875 7.3718839,8.223115 7.5612765,7.995278 7.78125,7.78125 8.221197,7.353194 8.72416,6.966724 9.28125,6.6875 9.559795,6.547888 9.8547231,6.440553 10.15625,6.34375 9.9000482,6.443972 9.6695391,6.580022 9.4375,6.71875 c -0.00741,0.0044 -0.023866,-0.0045 -0.03125,0 -0.031933,0.0193 -0.062293,0.04251 -0.09375,0.0625 -0.120395,0.0767 -0.2310226,0.163513 -0.34375,0.25 -0.1061728,0.0808 -0.2132809,0.161112 -0.3125,0.25 C 8.4783201,7.442683 8.3087904,7.626638 8.15625,7.8125 8.0486711,7.942755 7.9378561,8.077785 7.84375,8.21875 7.818661,8.25713 7.805304,8.30462 7.78125,8.34375 7.716487,8.446782 7.6510225,8.548267 7.59375,8.65625 7.4927417,8.850956 7.3880752,9.071951 7.3125,9.28125 7.30454,9.30306 7.288911,9.3218 7.28125,9.34375 7.2494249,9.4357 7.2454455,9.530581 7.21875,9.625 7.1884177,9.731618 7.1483606,9.828031 7.125,9.9375 7.0521214,10.279012 7,10.635705 7,11 l 0,2 0,68 0,2 c 0,2.781848 2.2181517,5 5,5 l 2,0 68,0 2,0 c 2.781848,0 5,-2.218152 5,-5 l 0,-2 0,-68 0,-2 C 89,10.635705 88.94788,10.279012 88.875,9.9375 88.83085,9.730607 88.78662,9.539842 88.71875,9.34375 88.71105,9.3218 88.69545,9.30306 88.6875,9.28125 88.62476,9.107511 88.549117,8.913801 88.46875,8.75 88.42717,8.6672 88.38971,8.580046 88.34375,8.5 88.28915,8.40279 88.216976,8.31165 88.15625,8.21875 88.06214,8.077785 87.951329,7.942755 87.84375,7.8125 87.700576,7.63805 87.540609,7.465502 87.375,7.3125 87.36383,7.3023 87.35502,7.29135 87.34375,7.28125 87.205364,7.155694 87.058659,7.046814 86.90625,6.9375 86.803679,6.86435 86.701932,6.784136 86.59375,6.71875 c -0.0074,-0.0045 -0.02384,0.0044 -0.03125,0 -0.232039,-0.138728 -0.462548,-0.274778 -0.71875,-0.375 0.301527,0.0968 0.596455,0.204138 0.875,0.34375 0.55709,0.279224 1.060053,0.665694 1.5,1.09375 0.219973,0.214028 0.409366,0.441865 0.59375,0.6875 0.184384,0.245635 0.355408,0.507743 0.5,0.78125 0.14012,0.265048 0.276135,0.524729 0.375,0.8125 0.01041,0.03078 0.02133,0.06274 0.03125,0.09375 0.09046,0.278085 0.1388,0.579404 0.1875,0.875 C 89.95865,11.3493 90,11.665279 90,12 l 0,2 0,68 0,2 c 0,3.324 -2.676,6 -6,6 l -72,0 z"
       inkscape:connector-curvature="0"
       id="path3615-5"
       style="opacity:0.3;fill:url(#radialGradient2858);fill-opacity:1;fill-rule:nonzero;stroke:none" />
  </g>
  <g
     id="layer4">
    <path
       d="m 67.375,49.6875 a 1.0797953,1.0797953 0 0 0 -0.40625,0.09375 c -0.935542,0.354874 -1.33405,1.065567 -1.53125,1.28125 a 1.0797953,1.0797953 0 0 0 -0.1875,0.25 c -1.548195,3.228877 -3.290242,6.423713 -4.9375,9.6875 -0.0022,0.0043 -0.02909,-0.0043 -0.03125,0 -0.189325,0.02047 -0.58251,0.05473 -1.03125,0.1875 l 0,-0.03125 c -3.370653,0.6068 -6.824119,1.201331 -10.15625,1.8125 a 1.0797953,1.0797953 0 0 0 -0.34375,0.125 c -0.515036,0.292211 -1.134185,0.826328 -1.40625,1.625 L 47.3125,64.6875 c -0.02047,0.04274 -0.01344,0.08229 -0.03125,0.125 -0.01374,0.04869 -0.05175,0.07408 -0.0625,0.125 l 0.0625,0 c -0.155557,0.43168 -0.256013,0.877949 -0.21875,1.28125 0.02815,0.304617 0.199862,0.582231 0.34375,0.875 l -0.03125,0 c 0.02445,0.09668 0.09072,0.103425 0.125,0.1875 0.06864,0.104129 0.02273,0.209299 0.125,0.3125 l 0.03125,-0.03125 c 0.174834,0.273206 0.334578,0.59871 0.5,0.75 0.265715,0.243015 0.468658,0.435944 0.5625,0.5625 a 1.0797953,1.0797953 0 0 0 0.09375,0.09375 l 6.71875,6.875 c -0.522804,3.707767 -1.151437,7.452628 -1.59375,11.21875 a 1.0797953,1.0797953 0 0 0 0,0.34375 c 0.06123,0.306918 0.140236,0.66785 0.34375,1.0625 0.132564,0.257065 0.419262,0.447663 0.6875,0.65625 l -0.03125,0.03125 c 0.05574,0.0683 0.129963,0.03813 0.1875,0.09375 0.0941,0.05976 0.115728,0.174848 0.21875,0.21875 l 0.03125,-0.0625 c 0.283749,0.192376 0.561214,0.402761 0.875,0.46875 0.473051,0.09948 1.019022,0.130749 1.5625,-0.0625 0.724707,-0.258455 1.388115,-0.696364 1.875,-0.90625 A 1.0797953,1.0797953 0 0 0 59.71875,88.875 l 8.1875,-4.03125 9.78125,4.84375 A 1.0797953,1.0797953 0 0 0 77.875,89.75 c 0.287691,0.07865 0.679709,0.164501 1.125,0.1875 0.413084,0.02134 0.936707,0.02806 1.46875,-0.40625 0.04148,-0.03386 0.08352,-0.02266 0.125,-0.0625 0.482398,-0.233067 0.859643,-0.586341 1.09375,-1.0625 l 0.03125,0.03125 c 0.02967,-0.04237 0.0057,-0.0822 0.03125,-0.125 0.03003,-0.06975 0.102298,-0.114934 0.125,-0.1875 l -0.0625,-0.03125 c 0.185381,-0.421563 0.327159,-0.866491 0.3125,-1.21875 -0.01881,-0.45201 -0.110184,-0.841241 -0.15625,-1.15625 l -1.4375,-9.9375 c 2.521318,-2.581715 5.035506,-5.154095 7.5625,-7.71875 0.031,-0.03146 0.06274,-0.06229 0.09375,-0.09375 L 88.15625,67.9375 c 0.365656,-0.345752 0.614428,-0.738116 0.75,-1.1875 0.137765,-0.456654 0.175218,-0.993002 0.03125,-1.53125 l 0.03125,0 c -0.0055,-0.02596 -0.02506,-0.03699 -0.03125,-0.0625 -0.0066,-0.02205 0.0072,-0.04036 0,-0.0625 l -0.03125,0 c -0.197297,-0.725084 -0.632452,-1.307424 -1.09375,-1.6875 a 1.0797953,1.0797953 0 0 0 -0.25,-0.125 c -0.692411,-0.319504 -1.366964,-0.400947 -2.0625,-0.5 l -0.03125,0 L 75.875,61.1875 C 74.106761,57.801571 72.274958,54.378182 70.5625,51.03125 A 1.0797953,1.0797953 0 0 0 70.1875,50.625 c -0.114569,-0.07523 -0.321724,-0.272729 -0.6875,-0.5 -0.329352,-0.204639 -0.860471,-0.331473 -1.40625,-0.3125 l 0,-0.0625 c -0.130457,-0.0046 -0.353652,-0.05263 -0.71875,-0.0625 z"
       transform="translate(2,-1)"
       id="path3998"
       style="opacity:0.05;fill:#000000;fill-opacity:1;stroke:none;display:inline" />
    <path
       d="m 69.33047,49.794452 c -0.619398,0.234953 -0.767687,0.625806 -1.104232,0.993895 -1.580642,3.296547 -3.345308,6.543411 -4.996745,9.820844 -0.266249,0.653901 -1.223796,0.372371 -1.79473,0.613987 -3.376171,0.607793 -6.834221,1.213318 -10.158342,1.823018 -0.484619,0.274953 -0.891938,0.569605 -1.004861,1.10434 -0.27443,0.572826 -0.171448,1.394228 0.12138,1.689733 0.132543,0.524057 0.812441,0.841325 1.215755,1.385239 2.353232,2.419043 4.706463,4.838089 7.059696,7.257132 -0.540038,3.900073 -1.208884,7.787322 -1.667877,11.695467 0.116172,0.582318 0.227933,1.071013 0.772867,1.303232 0.263045,0.322313 1.068922,0.511053 1.667304,0.298281 0.507283,-0.180914 1.192356,-0.60979 1.799839,-0.871664 2.891199,-1.419223 5.782399,-2.838446 8.673597,-4.257669 3.417371,1.68808 6.83474,3.376157 10.252112,5.064237 0.469373,0.128317 1.347138,0.307029 1.683882,-0.01647 0.492948,-0.08551 0.848124,-0.428821 0.993809,-0.894505 0.338733,-0.483659 0.157151,-1.219097 0.05567,-1.913051 -0.502364,-3.490946 -1.004723,-6.981893 -1.507083,-10.47284 2.670845,-2.732711 5.323609,-5.484236 8.005729,-8.205216 0.413733,-0.3455 0.713548,-1.150798 0.51353,-1.761484 C 89.807907,63.964812 89.495777,63.551235 89.133377,63.252644 88.669867,63.038763 88.032664,62.937653 87.325773,62.83614 83.933032,62.273458 80.540295,61.710776 77.147554,61.148093 75.308575,57.616942 73.403825,54.0612 71.605053,50.545572 71.145392,50.243732 70.800218,49.746039 70.06475,49.83315 c -0.244978,-0.0087 -0.4897,-0.03209 -0.734281,-0.0387 z"
       inkscape:connector-curvature="0"
       id="path3992"
       style="opacity:0.07999998;fill:#000000;fill-opacity:1;stroke:none;display:inline" />
    <path
       d="M 10.34375,4.71875 A 0.28523713,0.28523713 0 0 0 10.25,4.78125 0.28523713,0.28523713 0 0 0 10.1875,4.875 L 8.71875,8.09375 5.25,8.90625 A 0.28523713,0.28523713 0 0 0 5.03125,9.21875 0.28523713,0.28523713 0 0 0 5.09375,9.375 0.28523713,0.28523713 0 0 0 5.125,9.40625 l 2.59375,2.40625 -0.3125,3.5 A 0.28523713,0.28523713 0 0 0 7.4375,15.46875 0.28523713,0.28523713 0 0 0 7.5,15.5625 0.28523713,0.28523713 0 0 0 7.65625,15.625 0.28523713,0.28523713 0 0 0 7.8125,15.59375 l 3.125,-1.71875 3.21875,1.375 a 0.28523713,0.28523713 0 0 0 0.25,0 0.28523713,0.28523713 0 0 0 0.09375,-0.0625 0.28523713,0.28523713 0 0 0 0.0625,-0.125 0.28523713,0.28523713 0 0 0 0,-0.125 L 13.875,11.46875 16.21875,8.8125 a 0.28523713,0.28523713 0 0 0 0.0625,-0.25 0.28523713,0.28523713 0 0 0 -0.0625,-0.125 A 0.28523713,0.28523713 0 0 0 16.125,8.375 0.28523713,0.28523713 0 0 0 16.03125,8.34375 l -3.5,-0.40625 -1.84375,-3.09375 a 0.28523713,0.28523713 0 0 0 -0.3125,-0.125 0.28523713,0.28523713 0 0 0 -0.03125,0 z"
       transform="matrix(3.3567126,0.17689259,-0.17682969,3.357356,35.813745,33.088564)"
       id="path3988"
       style="opacity:0.15;fill:#000000;fill-opacity:1;stroke:none;display:inline" />
    <path
       d="M 5.3053385,9.1740304 8.9014493,8.35593 10.449345,5.0084956 l 1.889319,3.1672977 3.661926,0.4377224 -2.428448,2.7755983 0.715299,3.617961 -3.390182,-1.451883 -3.219847,1.798301 0.3331997,-3.672912 z"
       transform="matrix(3.3567126,0.17689259,-0.17682969,3.357356,35.813745,33.088564)"
       id="path3982"
       style="opacity:0.3;fill:#000000;fill-opacity:1;stroke:none;display:inline" />
    <path
       d="M 5.3053385,9.1740304 8.9014493,8.35593 10.449345,5.0084956 l 1.889319,3.1672977 3.661926,0.4377224 -2.428448,2.7755983 0.715299,3.617961 -3.390182,-1.451883 -3.219847,1.798301 0.3331997,-3.672912 z"
       transform="matrix(3.3567126,0.17689259,-0.17682969,3.357356,35.813745,32.088564)"
       id="path3748"
       style="fill:url(#linearGradient3127);fill-opacity:1;stroke:none;display:inline" />
    <path
       d="M 70,50.75 64.21875,61.71875 52,63.8125 60.625,72.71875 58.875,85 70,79.53125 81.125,85 79.34375,72.71875 88,63.84375 75.78125,61.71875 z m -0.03125,3.0625 3.8125,7.21875 c 0.43138,0.63521 0.56567,1.551159 1.25,1.96875 3.31127,0.639535 6.64628,1.153303 9.96875,1.75 l -5.65625,5.71875 c -0.49872,0.63221 -1.37917,1.034227 -1.53125,1.875 0.45108,3.330655 0.98622,6.671959 1.46875,10 l -7.3125,-3.5625 c -0.70394,-0.255998 -1.356084,-0.8582 -2.125,-0.84375 -3.073895,1.409915 -6.099876,2.949709 -9.15625,4.40625 L 61.875,74.125 c 0.01799,-0.738251 0.420716,-1.516123 0.09375,-2.21875 C 59.691351,69.493457 57.36149,67.144319 55.0625,64.75 l 8,-1.4375 c 0.728425,-0.216777 1.615547,-0.118073 2.21875,-0.625 1.601728,-2.931533 3.119286,-5.922489 4.6875,-8.875 z"
       inkscape:connector-curvature="0"
       id="path4018"
       style="opacity:0.8;fill:url(#linearGradient4092);fill-opacity:1;stroke:none;display:inline" />
    <path
       d="m 67.375,49.6875 a 1.0797953,1.0797953 0 0 0 -0.40625,0.09375 c -0.935542,0.354874 -1.33405,1.065567 -1.53125,1.28125 a 1.0797953,1.0797953 0 0 0 -0.1875,0.25 c -1.548195,3.228877 -3.290242,6.423713 -4.9375,9.6875 -0.0022,0.0043 -0.02909,-0.0043 -0.03125,0 -0.189325,0.02047 -0.58251,0.05473 -1.03125,0.1875 l 0,-0.03125 c -3.370653,0.6068 -6.824119,1.201331 -10.15625,1.8125 a 1.0797953,1.0797953 0 0 0 -0.34375,0.125 c -0.515036,0.292211 -1.134185,0.826328 -1.40625,1.625 L 47.3125,64.6875 c -0.02047,0.04274 -0.01344,0.08229 -0.03125,0.125 -0.01374,0.04869 -0.05175,0.07408 -0.0625,0.125 l 0.0625,0 c -0.155557,0.43168 -0.256013,0.877949 -0.21875,1.28125 0.02815,0.304617 0.199862,0.582231 0.34375,0.875 l -0.03125,0 c 0.02445,0.09668 0.09072,0.103425 0.125,0.1875 0.06864,0.104129 0.02273,0.209299 0.125,0.3125 l 0.03125,-0.03125 c 0.174834,0.273206 0.334578,0.59871 0.5,0.75 0.265715,0.243015 0.468658,0.435944 0.5625,0.5625 a 1.0797953,1.0797953 0 0 0 0.09375,0.09375 l 6.71875,6.875 c -0.522804,3.707767 -1.151437,7.452628 -1.59375,11.21875 a 1.0797953,1.0797953 0 0 0 0,0.34375 c 0.06123,0.306918 0.140236,0.66785 0.34375,1.0625 0.132564,0.257065 0.419262,0.447663 0.6875,0.65625 l -0.03125,0.03125 c 0.05574,0.0683 0.129963,0.03813 0.1875,0.09375 0.0941,0.05976 0.115728,0.174848 0.21875,0.21875 l 0.03125,-0.0625 c 0.283749,0.192376 0.561214,0.402761 0.875,0.46875 0.473051,0.09948 1.019022,0.130749 1.5625,-0.0625 0.724707,-0.258455 1.388115,-0.696364 1.875,-0.90625 A 1.0797953,1.0797953 0 0 0 59.71875,88.875 l 8.1875,-4.03125 9.78125,4.84375 A 1.0797953,1.0797953 0 0 0 77.875,89.75 c 0.287691,0.07865 0.679709,0.164501 1.125,0.1875 0.413084,0.02134 0.936707,0.02806 1.46875,-0.40625 0.04148,-0.03386 0.08352,-0.02266 0.125,-0.0625 0.482398,-0.233067 0.859643,-0.586341 1.09375,-1.0625 l 0.03125,0.03125 c 0.02967,-0.04237 0.0057,-0.0822 0.03125,-0.125 0.03003,-0.06975 0.102298,-0.114934 0.125,-0.1875 l -0.0625,-0.03125 c 0.185381,-0.421563 0.327159,-0.866491 0.3125,-1.21875 -0.01881,-0.45201 -0.110184,-0.841241 -0.15625,-1.15625 l -1.4375,-9.9375 c 2.521318,-2.581715 5.035506,-5.154095 7.5625,-7.71875 0.031,-0.03146 0.06274,-0.06229 0.09375,-0.09375 L 88.15625,67.9375 c 0.365656,-0.345752 0.614428,-0.738116 0.75,-1.1875 0.137765,-0.456654 0.175218,-0.993002 0.03125,-1.53125 l 0.03125,0 c -0.0055,-0.02596 -0.02506,-0.03699 -0.03125,-0.0625 -0.0066,-0.02205 0.0072,-0.04036 0,-0.0625 l -0.03125,0 c -0.197297,-0.725084 -0.632452,-1.307424 -1.09375,-1.6875 a 1.0797953,1.0797953 0 0 0 -0.25,-0.125 c -0.692411,-0.319504 -1.366964,-0.400947 -2.0625,-0.5 l -0.03125,0 L 75.875,61.1875 C 74.106761,57.801571 72.274958,54.378182 70.5625,51.03125 A 1.0797953,1.0797953 0 0 0 70.1875,50.625 c -0.114569,-0.07523 -0.321724,-0.272729 -0.6875,-0.5 -0.329352,-0.204639 -0.860471,-0.331473 -1.40625,-0.3125 l 0,-0.0625 c -0.130457,-0.0046 -0.353652,-0.05263 -0.71875,-0.0625 z"
       transform="translate(62,-1)"
       id="path4057"
       style="opacity:0.05;fill:#000000;fill-opacity:1;stroke:none;display:inline" />
    <path
       d="m 129.33047,49.794452 c -0.6194,0.234953 -0.76769,0.625806 -1.10423,0.993895 -1.58064,3.296547 -3.34531,6.543411 -4.99675,9.820844 -0.26625,0.653901 -1.22379,0.372371 -1.79473,0.613987 -3.37617,0.607793 -6.83422,1.213318 -10.15834,1.823018 -0.48462,0.274953 -0.89194,0.569605 -1.00486,1.10434 -0.27443,0.572826 -0.17145,1.394228 0.12138,1.689733 0.13254,0.524057 0.81244,0.841325 1.21575,1.385239 2.35324,2.419043 4.70647,4.838089 7.0597,7.257132 -0.54004,3.900073 -1.20888,7.787322 -1.66788,11.695467 0.11618,0.582318 0.22794,1.071013 0.77287,1.303232 0.26305,0.322313 1.06892,0.511053 1.66731,0.298281 0.50728,-0.180914 1.19235,-0.60979 1.79983,-0.871664 2.8912,-1.419223 5.7824,-2.838446 8.6736,-4.257669 3.41737,1.68808 6.83474,3.376157 10.25211,5.064237 0.46938,0.128317 1.34714,0.307029 1.68389,-0.01647 0.49294,-0.08551 0.84812,-0.428821 0.9938,-0.894505 0.33874,-0.483659 0.15716,-1.219097 0.0557,-1.913051 -0.50236,-3.490946 -1.00472,-6.981893 -1.50708,-10.47284 2.67085,-2.732711 5.32361,-5.484236 8.00573,-8.205216 0.41373,-0.3455 0.71355,-1.150798 0.51353,-1.761484 -0.10386,-0.486146 -0.41599,-0.899723 -0.77839,-1.198314 -0.46351,-0.213881 -1.10072,-0.314991 -1.80761,-0.416504 -3.39274,-0.562682 -6.78547,-1.125364 -10.17822,-1.688047 -1.83897,-3.531151 -3.74372,-7.086893 -5.5425,-10.602521 -0.45966,-0.30184 -0.80483,-0.799533 -1.5403,-0.712422 -0.24498,-0.0087 -0.4897,-0.03209 -0.73428,-0.0387 z"
       inkscape:connector-curvature="0"
       id="path4059"
       style="opacity:0.07999998;fill:#000000;fill-opacity:1;stroke:none;display:inline" />
    <path
       d="M 10.34375,4.71875 A 0.28523713,0.28523713 0 0 0 10.25,4.78125 0.28523713,0.28523713 0 0 0 10.1875,4.875 L 8.71875,8.09375 5.25,8.90625 A 0.28523713,0.28523713 0 0 0 5.03125,9.21875 0.28523713,0.28523713 0 0 0 5.09375,9.375 0.28523713,0.28523713 0 0 0 5.125,9.40625 l 2.59375,2.40625 -0.3125,3.5 A 0.28523713,0.28523713 0 0 0 7.4375,15.46875 0.28523713,0.28523713 0 0 0 7.5,15.5625 0.28523713,0.28523713 0 0 0 7.65625,15.625 0.28523713,0.28523713 0 0 0 7.8125,15.59375 l 3.125,-1.71875 3.21875,1.375 a 0.28523713,0.28523713 0 0 0 0.25,0 0.28523713,0.28523713 0 0 0 0.09375,-0.0625 0.28523713,0.28523713 0 0 0 0.0625,-0.125 0.28523713,0.28523713 0 0 0 0,-0.125 L 13.875,11.46875 16.21875,8.8125 a 0.28523713,0.28523713 0 0 0 0.0625,-0.25 0.28523713,0.28523713 0 0 0 -0.0625,-0.125 A 0.28523713,0.28523713 0 0 0 16.125,8.375 0.28523713,0.28523713 0 0 0 16.03125,8.34375 l -3.5,-0.40625 -1.84375,-3.09375 a 0.28523713,0.28523713 0 0 0 -0.3125,-0.125 0.28523713,0.28523713 0 0 0 -0.03125,0 z"
       transform="matrix(3.3567126,0.17689259,-0.17682969,3.357356,95.813745,33.088564)"
       id="path4061"
       style="opacity:0.15;fill:#000000;fill-opacity:1;stroke:none;display:inline" />
    <path
       d="M 5.3053385,9.1740304 8.9014493,8.35593 10.449345,5.0084956 l 1.889319,3.1672977 3.661926,0.4377224 -2.428448,2.7755983 0.715299,3.617961 -3.390182,-1.451883 -3.219847,1.798301 0.3331997,-3.672912 z"
       transform="matrix(3.3567126,0.17689259,-0.17682969,3.357356,95.813745,33.088564)"
       id="path4063"
       style="opacity:0.3;fill:#000000;fill-opacity:1;stroke:none;display:inline" />
    <path
       d="M 5.3053385,9.1740304 8.9014493,8.35593 10.449345,5.0084956 l 1.889319,3.1672977 3.661926,0.4377224 -2.428448,2.7755983 0.715299,3.617961 -3.390182,-1.451883 -3.219847,1.798301 0.3331997,-3.672912 z"
       transform="matrix(3.3567126,0.17689259,-0.17682969,3.357356,95.813745,32.088564)"
       id="path4065"
       style="fill:url(#linearGradient4077);fill-opacity:1;stroke:none;display:inline" />
    <path
       d="M 130,50.75 124.21875,61.71875 112,63.8125 120.625,72.71875 118.875,85 130,79.53125 141.125,85 139.34375,72.71875 148,63.84375 l -12.21875,-2.125 z m -0.0312,3.0625 3.8125,7.21875 c 0.43138,0.63521 0.56567,1.551159 1.25,1.96875 3.31127,0.639535 6.64628,1.153303 9.96875,1.75 l -5.65625,5.71875 c -0.49872,0.63221 -1.37917,1.034227 -1.53125,1.875 0.45108,3.330655 0.98622,6.671959 1.46875,10 l -7.3125,-3.5625 c -0.70394,-0.255998 -1.35608,-0.8582 -2.125,-0.84375 -3.07389,1.409915 -6.09988,2.949709 -9.15625,4.40625 L 121.875,74.125 c 0.018,-0.738251 0.42072,-1.516123 0.0937,-2.21875 -2.27735,-2.412793 -4.60721,-4.761931 -6.9062,-7.15625 l 8,-1.4375 c 0.72843,-0.216777 1.61555,-0.118073 2.21875,-0.625 1.60173,-2.931533 3.11929,-5.922489 4.6875,-8.875 z"
       inkscape:connector-curvature="0"
       id="path4067"
       style="fill:url(#linearGradient4079);fill-opacity:1;stroke:none;display:inline" />
    <path
       d="m 129.96875,53.8125 c -1.56821,2.952511 -3.08577,5.943467 -4.6875,8.875 -0.6032,0.506927 -1.49032,0.408223 -2.21875,0.625 l -8,1.4375 c 2.29899,2.394319 4.62885,4.743457 6.90625,7.15625 0.32697,0.702627 -0.0758,1.480499 -0.0937,2.21875 l -1.1875,8.21875 c 3.05637,-1.456541 6.08236,-2.996335 9.15625,-4.40625 0.76892,-0.01445 1.42106,0.587752 2.125,0.84375 l 7.3125,3.5625 c -0.48253,-3.328041 -1.01767,-6.669345 -1.46875,-10 0.15208,-0.840773 1.03253,-1.24279 1.53125,-1.875 L 145,64.75 c -3.32247,-0.596697 -6.65748,-1.110465 -9.96875,-1.75 -0.68433,-0.417591 -0.81862,-1.33354 -1.25,-1.96875 l -3.8125,-7.21875 z"
       inkscape:connector-curvature="0"
       id="path4069"
       style="fill:url(#linearGradient4081);fill-opacity:1;stroke:none;display:inline" />
    <path
       d="m 129.96875,53.8125 c -1.56821,2.952511 -3.08577,5.943467 -4.6875,8.875 -0.6032,0.506927 -1.49032,0.408223 -2.21875,0.625 l -8,1.4375 c 2.29899,2.394319 4.62885,4.743457 6.90625,7.15625 0.32697,0.702627 -0.0759,1.480499 -0.0937,2.21875 l -1.1875,8.21875 c 3.05637,-1.456541 6.08236,-2.996335 9.15625,-4.40625 0.76892,-0.01445 1.42106,0.587752 2.125,0.84375 l 7.3125,3.5625 c -0.48253,-3.328041 -1.01767,-6.669345 -1.46875,-10 0.15208,-0.840773 1.03253,-1.24279 1.53125,-1.875 L 145,64.75 c -3.32247,-0.596697 -6.65748,-1.110465 -9.96875,-1.75 -0.68433,-0.417591 -0.81862,-1.33354 -1.25,-1.96875 l -3.8125,-7.21875 z m 0,3.40625 2.40625,4.5625 a 1.5919611,1.5919611 0 0 0 0.0937,0.15625 c 0.059,0.08694 0.18698,0.386819 0.40625,0.84375 0.21927,0.456931 0.56811,1.108262 1.3125,1.5625 a 1.5919611,1.5919611 0 0 0 0.53125,0.21875 c 2.34521,0.452952 4.67602,0.823677 7,1.21875 l -3.5,3.5625 a 1.5919611,1.5919611 0 0 0 -0.125,0.125 c -0.0689,0.0873 -0.3579,0.317293 -0.75,0.6875 -0.3921,0.370207 -0.92985,1.000146 -1.09375,1.90625 a 1.5919611,1.5919611 0 0 0 0,0.5 c 0.3196,2.359807 0.67881,4.689677 1.03125,7.03125 l -4.625,-2.25 A 1.5919611,1.5919611 0 0 0 132.5,77.28125 c -0.24718,-0.08989 -1.071,-0.967878 -2.6875,-0.9375 A 1.5919611,1.5919611 0 0 0 129.1875,76.5 c -2.20359,1.01073 -4.34901,2.074527 -6.5,3.125 l 0.75,-5.28125 a 1.5919611,1.5919611 0 0 0 0.0312,-0.1875 c 0.002,-0.09341 0.0751,-0.416413 0.15625,-0.90625 0.0812,-0.489837 0.14503,-1.218262 -0.21875,-2 a 1.5919611,1.5919611 0 0 0 -0.2812,-0.4375 c -1.61189,-1.707722 -3.22362,-3.364148 -4.84375,-5.03125 l 5.0625,-0.90625 a 1.5919611,1.5919611 0 0 0 0.1875,-0.03125 c 0.13159,-0.03916 0.47855,-0.07318 0.96875,-0.15625 0.4902,-0.08307 1.1777,-0.247769 1.8125,-0.78125 a 1.5919611,1.5919611 0 0 0 0.375,-0.46875 c 1.13301,-2.073677 2.19687,-4.142993 3.28125,-6.21875 z"
       inkscape:connector-curvature="0"
       id="path4071"
       style="opacity:0.1;fill:#aa4400;fill-opacity:1;stroke:none;display:inline" />
    <path
       d="m 129.96875,53.8125 c -1.56821,2.952511 -3.08577,5.943467 -4.6875,8.875 -0.6032,0.506927 -1.49032,0.408223 -2.21875,0.625 l -8,1.4375 c 2.29899,2.394319 4.62885,4.743457 6.90625,7.15625 0.32697,0.702627 -0.0759,1.480499 -0.0937,2.21875 l -1.1875,8.21875 c 3.05637,-1.456541 6.08236,-2.996335 9.15625,-4.40625 0.76892,-0.01445 1.42106,0.587752 2.125,0.84375 l 7.3125,3.5625 c -0.48253,-3.328041 -1.01767,-6.669345 -1.46875,-10 0.15208,-0.840773 1.03253,-1.24279 1.53125,-1.875 L 145,64.75 c -3.32247,-0.596697 -6.65748,-1.110465 -9.96875,-1.75 -0.68433,-0.417591 -0.81862,-1.33354 -1.25,-1.96875 l -3.8125,-7.21875 z m 0,1.96875 3,5.6875 A 0.93563018,0.93563018 0 0 0 133,61.5625 c 0.12363,0.182039 0.26854,0.52029 0.46875,0.9375 0.20021,0.41721 0.48394,0.959453 1.0625,1.3125 a 0.93563018,0.93563018 0 0 0 0.3125,0.09375 c 2.75062,0.531251 5.51362,0.965273 8.25,1.4375 l -4.40625,4.46875 a 0.93563018,0.93563018 0 0 0 -0.0937,0.0625 c -0.14328,0.18163 -0.42651,0.446326 -0.78125,0.78125 -0.35474,0.334924 -0.77857,0.825397 -0.90625,1.53125 a 0.93563018,0.93563018 0 0 0 -0.0312,0.28125 c 0.37387,2.760549 0.80946,5.504922 1.21875,8.25 L 132.375,77.9375 a 0.93563018,0.93563018 0 0 0 -0.0937,-0.03125 C 131.84576,77.747877 131.07956,76.976189 129.8125,77 a 0.93563018,0.93563018 0 0 0 -0.34375,0.09375 c -2.56167,1.174974 -5.07925,2.436123 -7.59375,3.65625 l 0.9375,-6.5 a 0.93563018,0.93563018 0 0 0 0,-0.09375 c 0.005,-0.20708 0.0829,-0.557682 0.15625,-1 0.0733,-0.442318 0.12496,-1.051967 -0.15625,-1.65625 a 0.93563018,0.93563018 0 0 0 -0.15625,-0.25 c -1.88633,-1.998477 -3.78843,-3.94588 -5.6875,-5.90625 l 6.25,-1.125 a 0.93563018,0.93563018 0 0 0 0.125,0 c 0.2275,-0.0677 0.58309,-0.111558 1.03125,-0.1875 0.44816,-0.07594 1.00257,-0.206964 1.5,-0.625 a 0.93563018,0.93563018 0 0 0 0.21875,-0.28125 c 1.33268,-2.439104 2.59129,-4.897256 3.875,-7.34375 z"
       inkscape:connector-curvature="0"
       id="path4073"
       style="opacity:0.2;fill:#aa4400;fill-opacity:1;stroke:none;display:inline" />
    <path
       d="m 129.96875,53.8125 c -1.56821,2.952511 -3.08577,5.943467 -4.6875,8.875 -0.6032,0.506927 -1.49032,0.408223 -2.21875,0.625 l -8,1.4375 c 0.27583,0.287267 0.56718,0.557596 0.84375,0.84375 l 7.15625,-1.28125 c 0.72843,-0.216777 1.61555,-0.118073 2.21875,-0.625 1.60173,-2.931533 3.11929,-5.922489 4.6875,-8.875 l 3.8125,7.21875 c 0.43138,0.63521 0.56567,1.551159 1.25,1.96875 3.03113,0.585429 6.08191,1.059013 9.125,1.59375 L 145,64.75 c -3.32247,-0.596697 -6.65748,-1.110465 -9.96875,-1.75 -0.68433,-0.417591 -0.81862,-1.33354 -1.25,-1.96875 l -3.8125,-7.21875 z m 7.9375,19.25 c -0.0396,0.09269 -0.0747,0.176153 -0.0937,0.28125 0.4018,2.966746 0.8739,5.939505 1.3125,8.90625 l 0.15625,0.09375 c -0.44791,-3.089287 -0.94574,-6.188233 -1.375,-9.28125 z m -15.875,0.0625 c -0.0621,0.333438 -0.14826,0.67213 -0.15625,1 l -1.1875,8.21875 c 0.0506,-0.02409 0.10571,-0.03836 0.15625,-0.0625 L 121.875,75.125 c 0.0163,-0.667502 0.33468,-1.352622 0.15625,-2 z"
       inkscape:connector-curvature="0"
       id="path4075"
       style="opacity:0.4;fill:#aa4400;fill-opacity:1;stroke:none;display:inline" />
    <path
       d="M 70,78.53125 59.03125,83.9375 58.875,85 70,79.53125 81.125,85 80.96875,83.9375 z"
       inkscape:connector-curvature="0"
       id="path4094"
       style="opacity:0.3;fill:#aa4400;fill-opacity:1;stroke:none;display:inline" />
  </g>
</svg>
