<?xml version="1.0" encoding="UTF-8" standalone="no"?>
<!-- Created with Inkscape (http://www.inkscape.org/) -->

<svg
   xmlns:dc="http://purl.org/dc/elements/1.1/"
   xmlns:cc="http://creativecommons.org/ns#"
   xmlns:rdf="http://www.w3.org/1999/02/22-rdf-syntax-ns#"
   xmlns:svg="http://www.w3.org/2000/svg"
   xmlns="http://www.w3.org/2000/svg"
   xmlns:xlink="http://www.w3.org/1999/xlink"
   xmlns:inkscape="http://www.inkscape.org/namespaces/inkscape"
   version="1.0"
   width="96"
   height="96"
   id="svg2408">
  <defs
     id="defs2410">
    <linearGradient
       id="linearGradient3727">
      <stop
         id="stop3729"
         style="stop-color:#d5d5d5;stop-opacity:1"
         offset="0" />
      <stop
         id="stop3731"
         style="stop-color:#f1f1f1;stop-opacity:1"
         offset="1" />
    </linearGradient>
    <linearGradient
       id="linearGradient3641">
      <stop
         id="stop3643"
         style="stop-color:#000000;stop-opacity:1"
         offset="0" />
      <stop
         id="stop3645"
         style="stop-color:#000000;stop-opacity:0"
         offset="1" />
    </linearGradient>
    <linearGradient
       x1="45.447727"
       y1="92.539597"
       x2="45.447727"
       y2="7.0165396"
       id="ButtonShadow"
       gradientUnits="userSpaceOnUse"
       gradientTransform="scale(1.0058652,0.994169)">
      <stop
         id="stop3750"
         style="stop-color:#000000;stop-opacity:1"
         offset="0" />
      <stop
         id="stop3752"
         style="stop-color:#000000;stop-opacity:0.58823532"
         offset="1" />
    </linearGradient>
    <linearGradient
       id="linearGradient3737">
      <stop
         id="stop3739"
         style="stop-color:#ffffff;stop-opacity:1"
         offset="0" />
      <stop
         id="stop3741"
         style="stop-color:#ffffff;stop-opacity:0"
         offset="1" />
    </linearGradient>
    <linearGradient
       id="linearGradient3700">
      <stop
         id="stop3702"
         style="stop-color:#dcdcdc;stop-opacity:1"
         offset="0" />
      <stop
         id="stop3704"
         style="stop-color:#f0f0f0;stop-opacity:1"
         offset="1" />
    </linearGradient>
    <filter
       color-interpolation-filters="sRGB"
       id="filter3174">
      <feGaussianBlur
         id="feGaussianBlur3176"
         stdDeviation="1.71" />
    </filter>
    <filter
       x="-0.192"
       y="-0.192"
       width="1.3839999"
       height="1.3839999"
       color-interpolation-filters="sRGB"
       id="filter3794">
      <feGaussianBlur
         id="feGaussianBlur3796"
         stdDeviation="5.28" />
    </filter>
    <linearGradient
       x1="48"
       y1="20.220806"
       x2="48"
       y2="138.66119"
       id="linearGradient3613"
       xlink:href="#linearGradient3737"
       gradientUnits="userSpaceOnUse" />
    <radialGradient
       cx="48"
       cy="90.171875"
       r="42"
       fx="48"
       fy="90.171875"
       id="radialGradient3619"
       xlink:href="#linearGradient3737"
       gradientUnits="userSpaceOnUse"
       gradientTransform="matrix(1.1573129,0,0,0.99590774,-7.5510206,0.19713193)" />
    <clipPath
       id="clipPath3613">
      <rect
         width="84"
         height="84"
         rx="6"
         ry="6"
         x="6"
         y="6"
         id="rect3615"
         style="fill:#ffffff;fill-opacity:1;fill-rule:nonzero;stroke:none" />
    </clipPath>
    <linearGradient
       x1="48"
       y1="88"
       x2="48"
       y2="32"
       id="linearGradient3627"
       xlink:href="#linearGradient3700"
       gradientUnits="userSpaceOnUse" />
    <linearGradient
       x1="48"
       y1="88"
       x2="48"
       y2="36"
       id="linearGradient3635"
       xlink:href="#linearGradient3727"
       gradientUnits="userSpaceOnUse" />
    <filter
       color-interpolation-filters="sRGB"
       id="filter3649">
      <feGaussianBlur
         id="feGaussianBlur3651"
         stdDeviation="1.38" />
    </filter>
    <filter
       color-interpolation-filters="sRGB"
       id="filter3665">
      <feGaussianBlur
         id="feGaussianBlur3667"
         stdDeviation="0.69" />
    </filter>
    <linearGradient
       x1="36.357143"
       y1="6"
       x2="36.357143"
       y2="63.893143"
       id="linearGradient3687"
       xlink:href="#linearGradient3737"
       gradientUnits="userSpaceOnUse" />
    <linearGradient
       x1="48"
       y1="90"
       x2="48"
       y2="5.9877172"
       id="linearGradient3689"
       xlink:href="#linearGradient3700"
       gradientUnits="userSpaceOnUse" />
    <clipPath
       id="clipPath3696">
      <rect
         width="84"
         height="84"
         rx="6"
         ry="6"
         x="106"
         y="6"
         id="rect3698"
         style="fill:#ff00ff;fill-opacity:1;fill-rule:nonzero;stroke:none" />
    </clipPath>
    <linearGradient
       x1="48"
       y1="32"
       x2="48"
       y2="80"
       id="linearGradient3701"
       xlink:href="#linearGradient3641"
       gradientUnits="userSpaceOnUse"
       gradientTransform="translate(100,0)" />
    <clipPath
       id="clipPath3703">
      <rect
         width="84"
         height="84"
         rx="6"
         ry="6"
         x="106"
         y="6"
         id="rect3705"
         style="fill:#ff00ff;fill-opacity:1;fill-rule:nonzero;stroke:none" />
    </clipPath>
    <linearGradient
       x1="51"
       y1="62"
       x2="51"
       y2="21"
       id="linearGradient3707"
       xlink:href="#linearGradient3641"
       gradientUnits="userSpaceOnUse"
       gradientTransform="translate(100,-1)" />
    <linearGradient
       id="linearGradient3737-3">
      <stop
         id="stop3739-5"
         style="stop-color:#ffffff;stop-opacity:1"
         offset="0" />
      <stop
         id="stop3741-7"
         style="stop-color:#ffffff;stop-opacity:0"
         offset="1" />
    </linearGradient>
    <radialGradient
       cx="48"
       cy="90.171875"
       r="42"
       fx="48"
       fy="90.171875"
       id="radialGradient2858"
       xlink:href="#linearGradient3737-3"
       gradientUnits="userSpaceOnUse"
       gradientTransform="matrix(1.1573129,0,0,0.99590774,-7.551021,0.1971319)" />
    <linearGradient
       x1="45.447727"
       y1="92.539597"
       x2="45.447727"
       y2="7.0165396"
       id="ButtonShadow-0"
       gradientUnits="userSpaceOnUse"
       gradientTransform="matrix(1.0058652,0,0,0.994169,100,0)">
      <stop
         id="stop3750-8"
         style="stop-color:#000000;stop-opacity:1"
         offset="0" />
      <stop
         id="stop3752-5"
         style="stop-color:#000000;stop-opacity:0.58823532"
         offset="1" />
    </linearGradient>
    <linearGradient
       x1="32.251034"
       y1="6.1317081"
       x2="32.251034"
       y2="90.238609"
       id="linearGradient3780"
       xlink:href="#ButtonShadow-0"
       gradientUnits="userSpaceOnUse"
       gradientTransform="matrix(1.0238095,0,0,1.0119048,-1.1428571,-98.071429)" />
    <linearGradient
       x1="32.251034"
       y1="6.1317081"
       x2="32.251034"
       y2="90.238609"
       id="linearGradient3772"
       xlink:href="#ButtonShadow-0"
       gradientUnits="userSpaceOnUse"
       gradientTransform="matrix(1.0238095,0,0,1.0119048,-1.1428571,-98.071429)" />
    <linearGradient
       x1="32.251034"
       y1="6.1317081"
       x2="32.251034"
       y2="90.238609"
       id="linearGradient3725"
       xlink:href="#ButtonShadow-0"
       gradientUnits="userSpaceOnUse"
       gradientTransform="matrix(1.0238095,0,0,1.0119048,-1.1428571,-98.071429)" />
    <linearGradient
       x1="32.251034"
       y1="6.1317081"
       x2="32.251034"
       y2="90.238609"
       id="linearGradient3721"
       xlink:href="#ButtonShadow-0"
       gradientUnits="userSpaceOnUse"
       gradientTransform="translate(0,-97)" />
    <linearGradient
       x1="32.251034"
       y1="6.1317081"
       x2="32.251034"
       y2="90.238609"
       id="linearGradient2918"
       xlink:href="#ButtonShadow-0"
       gradientUnits="userSpaceOnUse"
       gradientTransform="matrix(1.0238095,0,0,1.0119048,-1.1428571,-98.071429)" />
    <linearGradient
       id="linearGradient3203">
      <stop
         id="stop3205"
         style="stop-color:#ff3000;stop-opacity:1"
         offset="0" />
      <stop
         id="stop3211"
         style="stop-color:#ff7e00;stop-opacity:1"
         offset="0.27244934" />
      <stop
         id="stop3213"
         style="stop-color:#ffd200;stop-opacity:1"
         offset="0.62384999" />
      <stop
         id="stop3207"
         style="stop-color:#fff3b9;stop-opacity:1"
         offset="1" />
    </linearGradient>
    <linearGradient
       x1="10.351493"
       y1="2.5798409"
       x2="10.351493"
       y2="18.417696"
       id="linearGradient3721-4"
       xlink:href="#linearGradient3290"
       gradientUnits="userSpaceOnUse"
       gradientTransform="matrix(2.3841083,0,0,2.4591314,46.809841,39.645851)" />
    <linearGradient
       id="linearGradient3290">
      <stop
         id="stop3292"
         style="stop-color:#a50000;stop-opacity:1"
         offset="0" />
      <stop
         id="stop3294"
         style="stop-color:#ff580a;stop-opacity:1"
         offset="1" />
    </linearGradient>
    <linearGradient
       id="linearGradient4069">
      <stop
         id="stop4071"
         style="stop-color:#ff2400;stop-opacity:1"
         offset="0" />
      <stop
         id="stop4073"
         style="stop-color:#ff4700;stop-opacity:0"
         offset="1" />
    </linearGradient>
    <radialGradient
       cx="-10.959364"
       cy="11.931095"
       r="7"
       fx="-10.959364"
       fy="11.931095"
       id="radialGradient3087"
       xlink:href="#linearGradient4069"
       gradientUnits="userSpaceOnUse"
       gradientTransform="matrix(7.4695966,2.0379667e-7,-2.0572941e-7,7.5404359,13.075366,-26.577408)" />
    <linearGradient
       x1="10.351493"
       y1="2.5798409"
       x2="10.351493"
       y2="18.417696"
       id="linearGradient3895"
       xlink:href="#linearGradient3290"
       gradientUnits="userSpaceOnUse"
       gradientTransform="matrix(2.3841083,0,0,2.4591314,46.809841,40.645851)" />
    <linearGradient
       x1="10.351493"
       y1="2.1772521"
       x2="10.351493"
       y2="18.417696"
       id="linearGradient3903"
       xlink:href="#linearGradient3290"
       gradientUnits="userSpaceOnUse"
       gradientTransform="matrix(2.3841083,0,0,2.4591314,46.809841,40.645851)" />
    <linearGradient
       x1="10.351493"
       y1="2.1772521"
       x2="10.351493"
       y2="18.417696"
       id="linearGradient3917"
       xlink:href="#linearGradient3290"
       gradientUnits="userSpaceOnUse"
       gradientTransform="matrix(2.3841083,0,0,2.4591314,46.809841,40.645851)" />
    <linearGradient
       x1="10.351493"
       y1="5.4949298"
       x2="10.351493"
       y2="18.417696"
       id="linearGradient3940"
       xlink:href="#linearGradient3203"
       gradientUnits="userSpaceOnUse"
       gradientTransform="matrix(2.5299765,0,0,2.756407,45.295331,35.853737)" />
    <linearGradient
       x1="10.351493"
       y1="4.2104902"
       x2="10.351493"
       y2="18.417696"
       id="linearGradient3956"
       xlink:href="#linearGradient3203"
       gradientUnits="userSpaceOnUse"
       gradientTransform="matrix(2.3841083,0,0,2.4591314,46.809841,39.645851)" />
    <linearGradient
       x1="10.351493"
       y1="3.8038428"
       x2="10.351493"
       y2="16.40992"
       id="linearGradient3964"
       xlink:href="#linearGradient3203"
       gradientUnits="userSpaceOnUse"
       gradientTransform="matrix(2.3841083,0,0,2.4591314,46.809841,39.645851)" />
  </defs>
  <metadata
     id="metadata2413">
    <rdf:RDF>
      <cc:Work
         rdf:about="">
        <dc:format>image/svg+xml</dc:format>
        <dc:type
           rdf:resource="http://purl.org/dc/dcmitype/StillImage" />
        <dc:title />
      </cc:Work>
    </rdf:RDF>
  </metadata>
  <g
     id="layer2"
     style="display:none">
    <rect
       width="86"
       height="85"
       rx="6"
       ry="6"
       x="5"
       y="7"
       id="rect3745"
       style="opacity:0.9;fill:url(#ButtonShadow);fill-opacity:1;fill-rule:nonzero;stroke:none;filter:url(#filter3174)" />
  </g>
  <g
     id="layer3"
     style="display:inline">
    <path
       d="m 12,-95.03125 c -5.5110903,0 -10.03125,4.52016 -10.03125,10.03125 l 0,71 c 0,5.5110902 4.5201598,10.03125 10.03125,10.03125 l 72,0 c 5.51109,0 10.03125,-4.5201597 10.03125,-10.03125 l 0,-71 c 0,-5.51109 -4.52016,-10.03125 -10.03125,-10.03125 l -72,0 z"
       transform="scale(1,-1)"
       id="path3786"
       style="opacity:0.07999998;fill:url(#linearGradient2918);fill-opacity:1;fill-rule:nonzero;stroke:none;display:inline" />
    <path
       d="m 12,-94.03125 c -4.971633,0 -9.03125,4.059617 -9.03125,9.03125 l 0,71 c 0,4.9716329 4.0596171,9.03125 9.03125,9.03125 l 72,0 c 4.971633,0 9.03125,-4.059617 9.03125,-9.03125 l 0,-71 c 0,-4.971633 -4.059617,-9.03125 -9.03125,-9.03125 l -72,0 z"
       transform="scale(1,-1)"
       id="path3778"
       style="opacity:0.1;fill:url(#linearGradient3780);fill-opacity:1;fill-rule:nonzero;stroke:none;display:inline" />
    <path
       d="m 12,-93 c -4.4091333,0 -8,3.590867 -8,8 l 0,71 c 0,4.4091333 3.5908667,8 8,8 l 72,0 c 4.409133,0 8,-3.5908667 8,-8 l 0,-71 c 0,-4.409133 -3.590867,-8 -8,-8 l -72,0 z"
       transform="scale(1,-1)"
       id="path3770"
       style="opacity:0.2;fill:url(#linearGradient3772);fill-opacity:1;fill-rule:nonzero;stroke:none;display:inline" />
    <rect
       width="86"
       height="85"
       rx="7"
       ry="7"
       x="5"
       y="-92"
       transform="scale(1,-1)"
       id="rect3723"
       style="opacity:0.3;fill:url(#linearGradient3725);fill-opacity:1;fill-rule:nonzero;stroke:none;display:inline" />
    <rect
       width="84"
       height="84"
       rx="6"
       ry="6"
       x="6"
       y="-91"
       transform="scale(1,-1)"
       id="rect3716"
       style="opacity:0.45;fill:url(#linearGradient3721);fill-opacity:1;fill-rule:nonzero;stroke:none;display:inline" />
  </g>
  <g
     id="layer1">
    <rect
       width="84"
       height="84"
       rx="6"
       ry="6"
       x="6"
       y="6"
       id="rect2419"
       style="fill:url(#linearGradient3689);fill-opacity:1;fill-rule:nonzero;stroke:none" />
    <path
       d="m 112,89 c -3.324,0 -6,-2.676 -6,-6 l 0,-6 42,-42 42,42 0,6 c 0,3.324 -2.676,6 -6,6 l -72,0 z"
       inkscape:connector-curvature="0"
       transform="translate(-100,-1)"
       clip-path="url(#clipPath3696)"
       id="path3653"
       style="opacity:0.3;fill:url(#linearGradient3701);fill-opacity:1;stroke:none;filter:url(#filter3665)" />
    <path
       d="M 12,90 C 8.676,90 6,87.324 6,84 l 0,-6 42,-42 42,42 0,6 c 0,3.324 -2.676,6 -6,6 l -72,0 z"
       inkscape:connector-curvature="0"
       id="path3619"
       style="fill:url(#linearGradient3635);fill-opacity:1;stroke:none" />
    <path
       d="M 48,36 6,78 6,79 48,37 90,79 90,78 48,36 z"
       inkscape:connector-curvature="0"
       id="path3718"
       style="opacity:0.4;fill:#ffffff;fill-opacity:1;stroke:none" />
    <path
       d="m 112,7 c -3.324,0 -6,2.676 -6,6 l 0,6 42,42 42,-42 0,-6 c 0,-3.324 -2.676,-6 -6,-6 l -72,0 z"
       inkscape:connector-curvature="0"
       transform="translate(-100,1)"
       clip-path="url(#clipPath3703)"
       id="path3637"
       style="opacity:0.4;fill:url(#linearGradient3707);fill-opacity:1;stroke:none;filter:url(#filter3649)" />
    <path
       d="M 12,6 C 8.676,6 6,8.676 6,12 l 0,6 42,42 42,-42 0,-6 C 90,8.676 87.324,6 84,6 L 12,6 z"
       inkscape:connector-curvature="0"
       id="path3613"
       style="fill:url(#linearGradient3627);fill-opacity:1;stroke:none" />
    <path
       d="M 6,17 6,18 48,60 90,18 90,17 48,59 6,17 z"
       inkscape:connector-curvature="0"
       id="path3709"
       style="opacity:0.6;fill:#ffffff;fill-opacity:1;stroke:none" />
  </g>
  <g
     id="layer5"
     style="display:inline">
    <rect
       width="66"
       height="66"
       rx="12"
       ry="12"
       x="15"
       y="15"
       clip-path="url(#clipPath3613)"
       id="rect3171"
       style="opacity:0.1;fill:url(#linearGradient3613);fill-opacity:1;fill-rule:nonzero;stroke:#ffffff;stroke-width:0.5;stroke-linecap:round;stroke-linejoin:miter;stroke-miterlimit:4;stroke-opacity:1;stroke-dasharray:none;stroke-dashoffset:0;filter:url(#filter3794)" />
    <path
       d="M 12,90 C 8.676,90 6,87.324 6,84 L 6,82 6,14 6,12 c 0,-0.334721 0.04135,-0.6507 0.09375,-0.96875 0.0487,-0.295596 0.09704,-0.596915 0.1875,-0.875 C 6.29113,10.12587 6.302142,10.09265 6.3125,10.0625 6.411365,9.774729 6.5473802,9.515048 6.6875,9.25 6.8320918,8.976493 7.0031161,8.714385 7.1875,8.46875 7.3718839,8.223115 7.5612765,7.995278 7.78125,7.78125 8.221197,7.353194 8.72416,6.966724 9.28125,6.6875 9.559795,6.547888 9.8547231,6.440553 10.15625,6.34375 9.9000482,6.443972 9.6695391,6.580022 9.4375,6.71875 c -0.00741,0.0044 -0.023866,-0.0045 -0.03125,0 -0.031933,0.0193 -0.062293,0.04251 -0.09375,0.0625 -0.120395,0.0767 -0.2310226,0.163513 -0.34375,0.25 -0.1061728,0.0808 -0.2132809,0.161112 -0.3125,0.25 C 8.4783201,7.442683 8.3087904,7.626638 8.15625,7.8125 8.0486711,7.942755 7.9378561,8.077785 7.84375,8.21875 7.818661,8.25713 7.805304,8.30462 7.78125,8.34375 7.716487,8.446782 7.6510225,8.548267 7.59375,8.65625 7.4927417,8.850956 7.3880752,9.071951 7.3125,9.28125 7.30454,9.30306 7.288911,9.3218 7.28125,9.34375 7.2494249,9.4357 7.2454455,9.530581 7.21875,9.625 7.1884177,9.731618 7.1483606,9.828031 7.125,9.9375 7.0521214,10.279012 7,10.635705 7,11 l 0,2 0,68 0,2 c 0,2.781848 2.2181517,5 5,5 l 2,0 68,0 2,0 c 2.781848,0 5,-2.218152 5,-5 l 0,-2 0,-68 0,-2 C 89,10.635705 88.94788,10.279012 88.875,9.9375 88.83085,9.730607 88.78662,9.539842 88.71875,9.34375 88.71105,9.3218 88.69545,9.30306 88.6875,9.28125 88.62476,9.107511 88.549117,8.913801 88.46875,8.75 88.42717,8.6672 88.38971,8.580046 88.34375,8.5 88.28915,8.40279 88.216976,8.31165 88.15625,8.21875 88.06214,8.077785 87.951329,7.942755 87.84375,7.8125 87.700576,7.63805 87.540609,7.465502 87.375,7.3125 87.36383,7.3023 87.35502,7.29135 87.34375,7.28125 87.205364,7.155694 87.058659,7.046814 86.90625,6.9375 86.803679,6.86435 86.701932,6.784136 86.59375,6.71875 c -0.0074,-0.0045 -0.02384,0.0044 -0.03125,0 -0.232039,-0.138728 -0.462548,-0.274778 -0.71875,-0.375 0.301527,0.0968 0.596455,0.204138 0.875,0.34375 0.55709,0.279224 1.060053,0.665694 1.5,1.09375 0.219973,0.214028 0.409366,0.441865 0.59375,0.6875 0.184384,0.245635 0.355408,0.507743 0.5,0.78125 0.14012,0.265048 0.276135,0.524729 0.375,0.8125 0.01041,0.03078 0.02133,0.06274 0.03125,0.09375 0.09046,0.278085 0.1388,0.579404 0.1875,0.875 C 89.95865,11.3493 90,11.665279 90,12 l 0,2 0,68 0,2 c 0,3.324 -2.676,6 -6,6 l -72,0 z"
       inkscape:connector-curvature="0"
       id="path3615"
       style="opacity:0;fill:url(#radialGradient3619);fill-opacity:1;fill-rule:nonzero;stroke:none" />
    <path
       d="M 12,6 C 8.676,6 6,8.676 6,12 l 0,2 0,68 0,2 c 0,0.334721 0.04135,0.6507 0.09375,0.96875 0.0487,0.295596 0.09704,0.596915 0.1875,0.875 0.0099,0.03038 0.02089,0.0636 0.03125,0.09375 0.09886,0.287771 0.23488,0.547452 0.375,0.8125 0.144592,0.273507 0.315616,0.535615 0.5,0.78125 0.184384,0.245635 0.373776,0.473472 0.59375,0.6875 0.439947,0.428056 0.94291,0.814526 1.5,1.09375 0.278545,0.139612 0.573473,0.246947 0.875,0.34375 -0.256202,-0.100222 -0.486711,-0.236272 -0.71875,-0.375 -0.0074,-0.0044 -0.02387,0.0045 -0.03125,0 -0.03193,-0.0193 -0.06229,-0.04251 -0.09375,-0.0625 -0.120395,-0.0767 -0.231023,-0.163513 -0.34375,-0.25 -0.106173,-0.0808 -0.213281,-0.161112 -0.3125,-0.25 C 8.47832,88.557317 8.30879,88.373362 8.15625,88.1875 8.048671,88.057245 7.937856,87.922215 7.84375,87.78125 7.81866,87.74287 7.8053,87.69538 7.78125,87.65625 7.71649,87.553218 7.651022,87.451733 7.59375,87.34375 7.492742,87.149044 7.388075,86.928049 7.3125,86.71875 7.3045,86.69694 7.28891,86.6782 7.28125,86.65625 7.24942,86.5643 7.24545,86.469419 7.21875,86.375 7.188418,86.268382 7.148361,86.171969 7.125,86.0625 7.052121,85.720988 7,85.364295 7,85 L 7,83 7,15 7,13 C 7,10.218152 9.218152,8 12,8 l 2,0 68,0 2,0 c 2.781848,0 5,2.218152 5,5 l 0,2 0,68 0,2 c 0,0.364295 -0.05212,0.720988 -0.125,1.0625 -0.04415,0.206893 -0.08838,0.397658 -0.15625,0.59375 -0.0077,0.02195 -0.0233,0.04069 -0.03125,0.0625 -0.06274,0.173739 -0.138383,0.367449 -0.21875,0.53125 -0.04158,0.0828 -0.07904,0.169954 -0.125,0.25 -0.0546,0.09721 -0.126774,0.18835 -0.1875,0.28125 -0.09411,0.140965 -0.204921,0.275995 -0.3125,0.40625 -0.143174,0.17445 -0.303141,0.346998 -0.46875,0.5 -0.01117,0.0102 -0.01998,0.02115 -0.03125,0.03125 -0.138386,0.125556 -0.285091,0.234436 -0.4375,0.34375 -0.102571,0.07315 -0.204318,0.153364 -0.3125,0.21875 -0.0074,0.0045 -0.02384,-0.0044 -0.03125,0 -0.232039,0.138728 -0.462548,0.274778 -0.71875,0.375 0.301527,-0.0968 0.596455,-0.204138 0.875,-0.34375 0.55709,-0.279224 1.060053,-0.665694 1.5,-1.09375 0.219973,-0.214028 0.409366,-0.441865 0.59375,-0.6875 0.184384,-0.245635 0.355408,-0.507743 0.5,-0.78125 0.14012,-0.265048 0.276135,-0.524729 0.375,-0.8125 0.01041,-0.03078 0.02133,-0.06274 0.03125,-0.09375 0.09046,-0.278085 0.1388,-0.579404 0.1875,-0.875 C 89.95865,84.6507 90,84.334721 90,84 l 0,-2 0,-68 0,-2 C 90,8.676 87.324,6 84,6 L 12,6 z"
       inkscape:connector-curvature="0"
       id="rect3728"
       style="opacity:0.6;fill:url(#linearGradient3687);fill-opacity:1;fill-rule:nonzero;stroke:none" />
    <path
       d="M 12,90 C 8.676,90 6,87.324 6,84 L 6,82 6,14 6,12 c 0,-0.334721 0.04135,-0.6507 0.09375,-0.96875 0.0487,-0.295596 0.09704,-0.596915 0.1875,-0.875 C 6.29113,10.12587 6.302142,10.09265 6.3125,10.0625 6.411365,9.774729 6.5473802,9.515048 6.6875,9.25 6.8320918,8.976493 7.0031161,8.714385 7.1875,8.46875 7.3718839,8.223115 7.5612765,7.995278 7.78125,7.78125 8.221197,7.353194 8.72416,6.966724 9.28125,6.6875 9.559795,6.547888 9.8547231,6.440553 10.15625,6.34375 9.9000482,6.443972 9.6695391,6.580022 9.4375,6.71875 c -0.00741,0.0044 -0.023866,-0.0045 -0.03125,0 -0.031933,0.0193 -0.062293,0.04251 -0.09375,0.0625 -0.120395,0.0767 -0.2310226,0.163513 -0.34375,0.25 -0.1061728,0.0808 -0.2132809,0.161112 -0.3125,0.25 C 8.4783201,7.442683 8.3087904,7.626638 8.15625,7.8125 8.0486711,7.942755 7.9378561,8.077785 7.84375,8.21875 7.818661,8.25713 7.805304,8.30462 7.78125,8.34375 7.716487,8.446782 7.6510225,8.548267 7.59375,8.65625 7.4927417,8.850956 7.3880752,9.071951 7.3125,9.28125 7.30454,9.30306 7.288911,9.3218 7.28125,9.34375 7.2494249,9.4357 7.2454455,9.530581 7.21875,9.625 7.1884177,9.731618 7.1483606,9.828031 7.125,9.9375 7.0521214,10.279012 7,10.635705 7,11 l 0,2 0,68 0,2 c 0,2.781848 2.2181517,5 5,5 l 2,0 68,0 2,0 c 2.781848,0 5,-2.218152 5,-5 l 0,-2 0,-68 0,-2 C 89,10.635705 88.94788,10.279012 88.875,9.9375 88.83085,9.730607 88.78662,9.539842 88.71875,9.34375 88.71105,9.3218 88.69545,9.30306 88.6875,9.28125 88.62476,9.107511 88.549117,8.913801 88.46875,8.75 88.42717,8.6672 88.38971,8.580046 88.34375,8.5 88.28915,8.40279 88.216976,8.31165 88.15625,8.21875 88.06214,8.077785 87.951329,7.942755 87.84375,7.8125 87.700576,7.63805 87.540609,7.465502 87.375,7.3125 87.36383,7.3023 87.35502,7.29135 87.34375,7.28125 87.205364,7.155694 87.058659,7.046814 86.90625,6.9375 86.803679,6.86435 86.701932,6.784136 86.59375,6.71875 c -0.0074,-0.0045 -0.02384,0.0044 -0.03125,0 -0.232039,-0.138728 -0.462548,-0.274778 -0.71875,-0.375 0.301527,0.0968 0.596455,0.204138 0.875,0.34375 0.55709,0.279224 1.060053,0.665694 1.5,1.09375 0.219973,0.214028 0.409366,0.441865 0.59375,0.6875 0.184384,0.245635 0.355408,0.507743 0.5,0.78125 0.14012,0.265048 0.276135,0.524729 0.375,0.8125 0.01041,0.03078 0.02133,0.06274 0.03125,0.09375 0.09046,0.278085 0.1388,0.579404 0.1875,0.875 C 89.95865,11.3493 90,11.665279 90,12 l 0,2 0,68 0,2 c 0,3.324 -2.676,6 -6,6 l -72,0 z"
       inkscape:connector-curvature="0"
       id="path3615-5"
       style="opacity:0.3;fill:url(#radialGradient2858);fill-opacity:1;fill-rule:nonzero;stroke:none" />
  </g>
  <g
     id="layer4"
     style="display:inline">
    <rect
       width="84"
       height="84"
       rx="6"
       ry="6"
       x="-90"
       y="6"
       transform="matrix(0,-1,1,0,0,0)"
       id="rect3752"
       style="opacity:0.2;fill:url(#radialGradient3087);fill-opacity:1;fill-rule:nonzero;stroke:none;display:inline" />
    <path
       d="m 73.34375,44.90625 c -1.479677,0.110248 -2.313686,1.582162 -3.413764,2.405429 -5.760891,5.386628 -10.749484,12.252962 -11.770524,20.266402 -0.616081,5.338389 0.05775,11.108742 3.104762,15.653927 1.794974,2.57295 4.517647,4.579125 7.61879,5.175542 3.638746,0.960375 7.58296,0.904535 11.083405,-0.556955 4.080903,-1.075434 6.823543,-4.943019 7.66095,-8.929905 C 89.209767,71.553057 86.330232,63.835 81.65625,58.15625 80.544645,56.772488 78.08594,57.683797 78.0625,59.4375 c 0.07881,1.018127 0.500445,3.581538 0.233337,3.488796 -0.984666,-3.347726 -3.966503,-5.945733 -3.959419,-9.597114 -0.104474,-2.131291 0.617893,-4.17248 1.101082,-6.204182 0.08284,-1.193344 -0.919712,-2.203301 -2.09375,-2.21875 z"
       inkscape:connector-curvature="0"
       id="path3909"
       style="opacity:0.1;fill:url(#linearGradient3917);fill-opacity:1;fill-rule:evenodd;stroke:none;display:inline" />
    <path
       d="m 73.21875,46 a 1.0074292,1.0074292 0 0 0 -0.53125,0.25 c -9.901576,8.5878 -14.60381,17.324648 -13.53125,27.4375 0.839148,7.912146 4.271064,11.486377 8.3125,13.21875 a 1.0074292,1.0074292 0 0 0 0.0625,0 c 1.872292,0.676672 3.895051,1.05525 6.0625,1.0625 0.02178,0.0015 0.04076,-0.0014 0.0625,0 2.569639,0.160684 4.835695,-0.692202 6.9375,-1.46875 a 1.0074292,1.0074292 0 0 0 0.03125,0 C 84.581702,84.848101 86.834852,80.557184 87,75.46875 87.165148,70.380316 85.300933,64.385738 80.9375,58.9375 A 1.0074292,1.0074292 0 0 0 79.15625,59.75 c 0.657448,3.773115 0.54419,6.42149 -0.03125,8.34375 -0.247034,0.825218 -0.599118,1.456128 -1,2.0625 0.426046,-5.212334 -1.204462,-8.266763 -2.71875,-10.75 -0.902694,-1.480303 -1.678415,-2.800986 -2,-4.59375 -0.321585,-1.792764 -0.189878,-4.104552 0.90625,-7.5 A 1.0074292,1.0074292 0 0 0 73.21875,46 z"
       id="path3901"
       style="opacity:0.15;fill:url(#linearGradient3903);fill-opacity:1;fill-rule:evenodd;stroke:none;display:inline" />
    <path
       d="M 73.340525,46.990019 C 63.572567,55.46193 59.11195,63.83067 60.146143,73.581775 c 0.813804,7.673184 3.911075,10.752443 7.71364,12.382423 1.784634,0.644991 3.708354,1.014954 5.78523,1.014954 2.329227,0.16098 4.479797,-0.638627 6.597189,-1.420934 7.013611,-2.92814 8.34979,-15.430409 -0.101491,-25.982786 1.348766,7.74061 -0.351896,11.280466 -3.349343,13.498869 3.149519,-14.257372 -7.974011,-12.072984 -3.450843,-26.084282 z"
       inkscape:connector-curvature="0"
       id="path3893"
       style="opacity:0.3;fill:url(#linearGradient3895);fill-opacity:1;fill-rule:evenodd;stroke:none;display:inline" />
    <path
       d="M 73.340525,45.990019 C 63.572567,54.46193 59.11195,62.83067 60.146143,72.581775 c 0.813804,7.673184 3.911075,10.752443 7.71364,12.382423 1.784634,0.644991 3.708354,1.014954 5.78523,1.014954 2.329227,0.16098 4.479797,-0.638627 6.597189,-1.420934 7.013611,-2.92814 8.34979,-15.430409 -0.101491,-25.982786 1.348766,7.74061 -0.351896,11.280466 -3.349343,13.498869 3.149519,-14.257372 -7.974011,-12.072984 -3.450843,-26.084282 z"
       inkscape:connector-curvature="0"
       id="path2421"
       style="opacity:0.7;fill:url(#linearGradient3721-4);fill-opacity:1;fill-rule:evenodd;stroke:none;display:inline" />
    <path
       d="m 70.8125,50.65625 c -6.85678,7.017596 -9.993071,13.891111 -9.15625,21.78125 0.769131,7.251972 3.318125,9.645215 6.71875,11.125 0.0187,0.0068 0.04377,-0.0067 0.0625,0 0.01327,0.0057 0.01796,0.02555 0.03125,0.03125 1.600676,0.567544 3.316748,0.875 5.1875,0.875 a 1.5041203,1.5041203 0 0 1 0.09375,0 c 1.909422,0.131966 3.819071,-0.511095 5.90625,-1.28125 0.02117,-0.0088 0.04144,-0.02219 0.0625,-0.03125 2.7993,-1.204809 4.639299,-4.407555 4.78125,-8.78125 0.09767,-3.009464 -0.713031,-6.519723 -2.46875,-10.03125 -0.06636,1.257704 -0.195084,2.450175 -0.5,3.46875 -0.730569,2.440469 -2.148434,4.214051 -3.84375,5.46875 A 1.5041203,1.5041203 0 0 1 75.3125,71.75 C 76.810438,64.969075 75.087978,62.732796 73.25,59.71875 72.331011,58.211727 71.345626,56.52521 70.9375,54.25 70.746695,53.186308 70.698538,51.976374 70.8125,50.65625 z"
       id="path3954"
       style="opacity:0.5;fill:url(#linearGradient3956);fill-opacity:1;fill-rule:evenodd;stroke:none;display:inline" />
    <path
       d="m 69.356465,54 c -4.30696,5.927954 -6.90713,11.740723 -6.246896,18.316109 0.759491,7.563977 2.738767,9.278216 5.816075,10.693878 1.523006,0.581404 3.078436,0.910117 4.84673,0.910117 a 3.6688738,3.8752868 0 0 1 0.21541,0 c 1.483225,0.108267 3.241227,-0.486429 5.49296,-1.365176 2.023722,-0.969653 3.640567,-3.598968 3.769679,-7.849761 0.03905,-1.285228 -0.370272,-2.855031 -0.646231,-4.323057 -0.982102,1.857495 -1.919002,3.781927 -3.338858,4.89188 a 3.6688738,3.8752868 0 0 1 -5.70837,-3.867998 C 75.040368,64.313063 73.599046,62.891645 71.618272,59.460703 70.824756,58.086241 69.966934,56.147891 69.356465,54 z"
       inkscape:connector-curvature="0"
       id="path4033"
       style="opacity:0.5;fill:url(#linearGradient3940);fill-opacity:1;fill-rule:evenodd;stroke:none;display:inline" />
    <path
       d="m 68.71875,59.03125 c -2.795904,4.255787 -3.930358,8.38424 -3.4375,13.03125 0.344342,3.246729 1.048459,5.007959 1.75,6.03125 0.66262,0.966519 1.415649,1.484996 2.625,2.03125 a 3.6561643,3.6561643 0 0 1 0.03125,0.03125 c 0.01865,0.0066 0.04382,-0.0065 0.0625,0 1.200193,0.418886 2.458586,0.65625 3.90625,0.65625 A 3.6561643,3.6561643 0 0 1 74,80.84375 l 0,-0.03125 c 0.907056,0.06269 2.353968,-0.314959 4.3125,-1.03125 0.969877,-0.433944 1.86647,-1.906506 2.25,-4.25 -0.242068,0.20537 -0.437798,0.502696 -0.6875,0.6875 A 3.6561643,3.6561643 0 0 1 74.6875,75.3125 3.6561643,3.6561643 0 0 1 71.75,70.96875 c 1.334094,-6.039231 0.323076,-6.149157 -1.625,-9.34375 -0.431819,-0.708127 -0.93085,-1.602041 -1.40625,-2.59375 z m 1.1875,21.1875 c 0.0072,0.0032 -0.0071,0.02809 0,0.03125 0.405003,0.180268 0.590891,0.34884 0.8125,0.53125 -0.226562,-0.181688 -0.399126,-0.385313 -0.8125,-0.5625 z"
       transform="translate(0,2)"
       id="path3962"
       style="opacity:0.5;fill:url(#linearGradient3964);fill-opacity:1;fill-rule:evenodd;stroke:none;display:inline" />
  </g>
</svg>
