<?xml version="1.0" encoding="UTF-8" standalone="no"?>
<!-- Created with Inkscape (http://www.inkscape.org/) -->

<svg
   xmlns:dc="http://purl.org/dc/elements/1.1/"
   xmlns:cc="http://creativecommons.org/ns#"
   xmlns:rdf="http://www.w3.org/1999/02/22-rdf-syntax-ns#"
   xmlns:svg="http://www.w3.org/2000/svg"
   xmlns="http://www.w3.org/2000/svg"
   xmlns:xlink="http://www.w3.org/1999/xlink"
   xmlns:inkscape="http://www.inkscape.org/namespaces/inkscape"
   version="1.0"
   width="96"
   height="96"
   id="svg2408"
   style="display:inline">
  <defs
     id="defs2410">
    <linearGradient
       id="linearGradient3637">
      <stop
         id="stop3639"
         style="stop-color:#f0f0f0;stop-opacity:1"
         offset="0" />
      <stop
         id="stop3641"
         style="stop-color:#dcdcdc;stop-opacity:1"
         offset="1" />
    </linearGradient>
    <linearGradient
       x1="45.447727"
       y1="92.539597"
       x2="45.447727"
       y2="7.0165396"
       id="ButtonShadow"
       gradientUnits="userSpaceOnUse"
       gradientTransform="scale(1.0058652,0.994169)">
      <stop
         id="stop3750"
         style="stop-color:#000000;stop-opacity:1"
         offset="0" />
      <stop
         id="stop3752"
         style="stop-color:#000000;stop-opacity:0.58823532"
         offset="1" />
    </linearGradient>
    <linearGradient
       id="linearGradient3737">
      <stop
         id="stop3739"
         style="stop-color:#ffffff;stop-opacity:1"
         offset="0" />
      <stop
         id="stop3741"
         style="stop-color:#ffffff;stop-opacity:0"
         offset="1" />
    </linearGradient>
    <linearGradient
       id="linearGradient3700">
      <stop
         id="stop3702"
         style="stop-color:#2276c5;stop-opacity:1"
         offset="0" />
      <stop
         id="stop3704"
         style="stop-color:#68baf4;stop-opacity:1"
         offset="1" />
    </linearGradient>
    <filter
       color-interpolation-filters="sRGB"
       id="filter3174">
      <feGaussianBlur
         id="feGaussianBlur3176"
         stdDeviation="1.71" />
    </filter>
    <linearGradient
       x1="36.357143"
       y1="6"
       x2="36.357143"
       y2="63.893143"
       id="linearGradient3188"
       xlink:href="#linearGradient3737"
       gradientUnits="userSpaceOnUse" />
    <radialGradient
       cx="48"
       cy="90.171875"
       r="42"
       fx="48"
       fy="90.171875"
       id="radialGradient3619"
       xlink:href="#linearGradient3737"
       gradientUnits="userSpaceOnUse"
       gradientTransform="matrix(1.1573129,0,0,0.99590774,-7.5510206,0.19713193)" />
    <linearGradient
       x1="48"
       y1="90"
       x2="48"
       y2="5.9877172"
       id="linearGradient2843"
       xlink:href="#linearGradient3700"
       gradientUnits="userSpaceOnUse"
       gradientTransform="translate(0,100)" />
    <clipPath
       id="clipPath3625">
      <path
         d="M 0,0 0,96 96,96 96,0 0,0 z m 12,6 72,0 c 3.324,0 6,2.676 6,6 l 0,72 c 0,3.324 -2.676,6 -6,6 L 12,90 C 8.676,90 6,87.324 6,84 L 6,12 C 6,8.676 8.676,6 12,6 z"
         inkscape:connector-curvature="0"
         id="path3627"
         style="fill:#ffffff;fill-opacity:1;stroke:none" />
    </clipPath>
    <linearGradient
       x1="44.512066"
       y1="6"
       x2="44.512066"
       y2="90.015434"
       id="linearGradient3643"
       xlink:href="#linearGradient3637"
       gradientUnits="userSpaceOnUse" />
    <clipPath
       id="clipPath3649">
      <rect
         width="76"
         height="76"
         rx="4"
         ry="4"
         x="10"
         y="10"
         id="rect3651"
         style="fill:#ffffff;fill-opacity:1;fill-rule:nonzero;stroke:none" />
    </clipPath>
    <filter
       color-interpolation-filters="sRGB"
       id="filter3657">
      <feGaussianBlur
         id="feGaussianBlur3659"
         stdDeviation="1.14" />
    </filter>
    <linearGradient
       id="linearGradient4081">
      <stop
         id="stop4083"
         style="stop-color:#aaaaaa;stop-opacity:1"
         offset="0" />
      <stop
         id="stop4085"
         style="stop-color:#f0f0f0;stop-opacity:1"
         offset="1" />
    </linearGradient>
    <linearGradient
       x1="45.447727"
       y1="92.539597"
       x2="45.447727"
       y2="7.0165396"
       id="ButtonShadow-0"
       gradientUnits="userSpaceOnUse"
       gradientTransform="matrix(1.0058652,0,0,0.994169,100,0)">
      <stop
         id="stop3750-8"
         style="stop-color:#000000;stop-opacity:1"
         offset="0" />
      <stop
         id="stop3752-5"
         style="stop-color:#000000;stop-opacity:0.58823532"
         offset="1" />
    </linearGradient>
    <linearGradient
       x1="32.251034"
       y1="6.1317081"
       x2="32.251034"
       y2="90.238609"
       id="linearGradient3780"
       xlink:href="#ButtonShadow-0"
       gradientUnits="userSpaceOnUse"
       gradientTransform="matrix(1.0238095,0,0,-1.0119048,-1.1428571,98.071429)" />
    <linearGradient
       x1="32.251034"
       y1="6.1317081"
       x2="32.251034"
       y2="90.238609"
       id="linearGradient3772"
       xlink:href="#ButtonShadow-0"
       gradientUnits="userSpaceOnUse"
       gradientTransform="matrix(1.0238095,0,0,-1.0119048,-1.1428571,98.071429)" />
    <linearGradient
       x1="32.251034"
       y1="6.1317081"
       x2="32.251034"
       y2="90.238609"
       id="linearGradient3725-2"
       xlink:href="#ButtonShadow-0"
       gradientUnits="userSpaceOnUse"
       gradientTransform="matrix(1.0238095,0,0,-1.0119048,-1.1428571,98.071429)" />
    <linearGradient
       x1="32.251034"
       y1="6.1317081"
       x2="32.251034"
       y2="90.238609"
       id="linearGradient3721-4"
       xlink:href="#ButtonShadow-0"
       gradientUnits="userSpaceOnUse"
       gradientTransform="matrix(1,0,0,-1,0,97)" />
    <linearGradient
       x1="32.251034"
       y1="6.1317081"
       x2="32.251034"
       y2="90.238609"
       id="linearGradient3289"
       xlink:href="#ButtonShadow-0"
       gradientUnits="userSpaceOnUse"
       gradientTransform="matrix(1.0238095,0,0,-1.0119048,-1.1428571,98.071429)" />
    <linearGradient
       x1="36.357143"
       y1="6"
       x2="36.357143"
       y2="63.893143"
       id="linearGradient3188-9"
       xlink:href="#linearGradient3737-1"
       gradientUnits="userSpaceOnUse" />
    <linearGradient
       id="linearGradient3737-1">
      <stop
         id="stop3739-6"
         style="stop-color:#ffffff;stop-opacity:1"
         offset="0" />
      <stop
         id="stop3741-4"
         style="stop-color:#ffffff;stop-opacity:0"
         offset="1" />
    </linearGradient>
    <radialGradient
       cx="48"
       cy="90.171875"
       r="42"
       fx="48"
       fy="90.171875"
       id="radialGradient3619-5"
       xlink:href="#linearGradient3737-1"
       gradientUnits="userSpaceOnUse"
       gradientTransform="matrix(1.1573129,0,0,0.99590774,-7.551021,0.1971319)" />
    <linearGradient
       x1="48"
       y1="72"
       x2="48"
       y2="24"
       id="linearGradient4005"
       xlink:href="#linearGradient4081"
       gradientUnits="userSpaceOnUse" />
  </defs>
  <metadata
     id="metadata2413">
    <rdf:RDF>
      <cc:Work
         rdf:about="">
        <dc:format>image/svg+xml</dc:format>
        <dc:type
           rdf:resource="http://purl.org/dc/dcmitype/StillImage" />
        <dc:title />
      </cc:Work>
    </rdf:RDF>
  </metadata>
  <g
     id="layer2"
     style="display:none">
    <rect
       width="86"
       height="85"
       rx="6"
       ry="6"
       x="5"
       y="7"
       clip-path="url(#clipPath3625)"
       id="rect3745"
       style="opacity:0.9;fill:url(#ButtonShadow);fill-opacity:1;fill-rule:nonzero;stroke:none;filter:url(#filter3174)" />
  </g>
  <g
     id="layer7"
     style="display:inline">
    <path
       d="M 12,3.96875 C 6.4889098,3.96875 1.96875,8.4889098 1.96875,14 l 0,71 c 0,5.51109 4.5201597,10.03125 10.03125,10.03125 l 72,0 c 5.51109,0 10.03125,-4.52016 10.03125,-10.03125 l 0,-71 C 94.03125,8.4889097 89.51109,3.96875 84,3.96875 l -72,0 z M 12,6 84,6 c 3.324,0 6,2.676 6,6 l 0,72 c 0,3.324 -2.676,6 -6,6 L 12,90 C 8.676,90 6,87.324 6,84 L 6,12 C 6,8.676 8.676,6 12,6 z"
       inkscape:connector-curvature="0"
       id="path3786"
       style="opacity:0.07999998;fill:url(#linearGradient3289);fill-opacity:1;fill-rule:nonzero;stroke:none;display:inline" />
    <path
       d="M 12,4.96875 C 7.0283671,4.96875 2.96875,9.0283671 2.96875,14 l 0,71 c 0,4.971633 4.059617,9.03125 9.03125,9.03125 l 72,0 c 4.971633,0 9.03125,-4.059617 9.03125,-9.03125 l 0,-71 C 93.03125,9.028367 88.971633,4.96875 84,4.96875 l -72,0 z M 12,6 84,6 c 3.324,0 6,2.676 6,6 l 0,72 c 0,3.324 -2.676,6 -6,6 L 12,90 C 8.676,90 6,87.324 6,84 L 6,12 C 6,8.676 8.676,6 12,6 z"
       inkscape:connector-curvature="0"
       id="path3778"
       style="opacity:0.1;fill:url(#linearGradient3780);fill-opacity:1;fill-rule:nonzero;stroke:none;display:inline" />
    <path
       d="M 11.1875,6.03125 C 7.159982,6.4419011 4,9.8664375 4,14 l 0,71 c 0,4.409133 3.590867,8 8,8 l 72,0 c 4.409133,0 8,-3.590867 8,-8 L 92,14 C 92,9.8029382 88.741028,6.3539584 84.625,6.03125 87.657886,6.337417 90,8.88375 90,12 l 0,72 c 0,3.324 -2.676,6 -6,6 L 12,90 C 8.676,90 6,87.324 6,84 L 6,12 c 0,-3.11625 2.342114,-5.662583 5.375,-5.96875 -0.06227,0.00488 -0.12563,-0.00631 -0.1875,0 z"
       inkscape:connector-curvature="0"
       id="path3770"
       style="opacity:0.2;fill:url(#linearGradient3772);fill-opacity:1;fill-rule:nonzero;stroke:none;display:inline" />
    <path
       d="M 6.4375,9.75 C 5.5380109,10.927446 5,12.397277 5,14 l 0,71 c 0,3.878 3.122,7 7,7 l 72,0 c 3.878,0 7,-3.122 7,-7 L 91,14 C 91,12.397277 90.461989,10.927446 89.5625,9.75 89.841816,10.444095 90,11.203625 90,12 l 0,72 c 0,3.324 -2.676,6 -6,6 L 12,90 C 8.676,90 6,87.324 6,84 L 6,12 C 6,11.203625 6.1581836,10.444095 6.4375,9.75 z"
       inkscape:connector-curvature="0"
       id="rect3723"
       style="opacity:0.3;fill:url(#linearGradient3725-2);fill-opacity:1;fill-rule:nonzero;stroke:none;display:inline" />
    <path
       d="m 6,84 0,1 c 0,3.324 2.676,6 6,6 l 72,0 c 3.324,0 6,-2.676 6,-6 l 0,-1 c 0,3.324 -2.676,6 -6,6 L 12,90 C 8.676,90 6,87.324 6,84 z"
       inkscape:connector-curvature="0"
       id="rect3716"
       style="opacity:0.45;fill:url(#linearGradient3721-4);fill-opacity:1;fill-rule:nonzero;stroke:none;display:inline" />
  </g>
  <g
     id="layer1"
     style="display:none">
    <rect
       width="84"
       height="84"
       rx="6"
       ry="6"
       x="6"
       y="6"
       id="rect2419"
       style="opacity:0.7;fill:#000000;fill-opacity:1;fill-rule:nonzero;stroke:none" />
    <path
       d="m 14,10 c -2.216,0 -4,1.784 -4,4 l 0,68 c 0,2.216 1.784,4 4,4 l 68,0 c 2.216,0 4,-1.784 4,-4 l 0,-68 c 0,-2.216 -1.784,-4 -4,-4 l -68,0 z m 0,3.0625 68,0 c 0.578769,0 0.9375,0.358731 0.9375,0.9375 l 0,68 c 0,0.578769 -0.358731,0.9375 -0.9375,0.9375 l -68,0 c -0.578769,0 -0.9375,-0.358731 -0.9375,-0.9375 l 0,-68 c 0,-0.578769 0.358731,-0.9375 0.9375,-0.9375 z"
       inkscape:connector-curvature="0"
       id="rect3726"
       style="opacity:0.07999998;fill:#000000;fill-opacity:1;fill-rule:nonzero;stroke:none" />
    <path
       d="M 12,6 C 8.676,6 6,8.676 6,12 l 0,72 c 0,3.324 2.676,6 6,6 l 72,0 c 3.324,0 6,-2.676 6,-6 L 90,12 C 90,8.676 87.324,6 84,6 L 12,6 z m 2,4 68,0 c 2.216,0 4,1.784 4,4 l 0,68 c 0,2.216 -1.784,4 -4,4 l -68,0 c -2.216,0 -4,-1.784 -4,-4 l 0,-68 c 0,-2.216 1.784,-4 4,-4 z"
       inkscape:connector-curvature="0"
       id="rect3629"
       style="fill:url(#linearGradient3643);fill-opacity:1;fill-rule:nonzero;stroke:none" />
    <path
       d="M 12,6 C 8.676,6 6,8.676 6,12 l 0,2 0,68 0,2 c 0,0.334721 0.04135,0.6507 0.09375,0.96875 0.0487,0.295596 0.09704,0.596915 0.1875,0.875 0.00988,0.03038 0.020892,0.0636 0.03125,0.09375 0.098865,0.287771 0.2348802,0.547452 0.375,0.8125 0.1445918,0.273507 0.3156161,0.535615 0.5,0.78125 0.1843839,0.245635 0.3737765,0.473472 0.59375,0.6875 0.439947,0.428056 0.94291,0.814526 1.5,1.09375 0.278545,0.139612 0.5734731,0.246947 0.875,0.34375 -0.2562018,-0.100222 -0.4867109,-0.236272 -0.71875,-0.375 -0.00741,-0.0044 -0.023866,0.0045 -0.03125,0 -0.031933,-0.0193 -0.062293,-0.04251 -0.09375,-0.0625 -0.120395,-0.0767 -0.2310226,-0.163513 -0.34375,-0.25 -0.1061728,-0.0808 -0.2132809,-0.161112 -0.3125,-0.25 C 8.4783201,88.557317 8.3087904,88.373362 8.15625,88.1875 8.0486711,88.057245 7.9378561,87.922215 7.84375,87.78125 7.818661,87.74287 7.805304,87.69538 7.78125,87.65625 7.716487,87.553218 7.6510225,87.451733 7.59375,87.34375 7.4927417,87.149044 7.3880752,86.928049 7.3125,86.71875 7.30454,86.69694 7.288911,86.6782 7.28125,86.65625 7.2494249,86.5643 7.2454455,86.469419 7.21875,86.375 7.1884177,86.268382 7.1483606,86.171969 7.125,86.0625 7.0521214,85.720988 7,85.364295 7,85 L 7,83 7,15 7,13 C 7,10.218152 9.2181517,8 12,8 l 2,0 68,0 2,0 c 2.781848,0 5,2.218152 5,5 l 0,2 0,68 0,2 c 0,0.364295 -0.05212,0.720988 -0.125,1.0625 -0.04415,0.206893 -0.08838,0.397658 -0.15625,0.59375 -0.0077,0.02195 -0.0233,0.04069 -0.03125,0.0625 -0.06274,0.173739 -0.138383,0.367449 -0.21875,0.53125 -0.04158,0.0828 -0.07904,0.169954 -0.125,0.25 -0.0546,0.09721 -0.126774,0.18835 -0.1875,0.28125 -0.09411,0.140965 -0.204921,0.275995 -0.3125,0.40625 -0.143174,0.17445 -0.303141,0.346998 -0.46875,0.5 -0.01117,0.0102 -0.01998,0.02115 -0.03125,0.03125 -0.138386,0.125556 -0.285091,0.234436 -0.4375,0.34375 -0.102571,0.07315 -0.204318,0.153364 -0.3125,0.21875 -0.0074,0.0045 -0.02384,-0.0044 -0.03125,0 -0.232039,0.138728 -0.462548,0.274778 -0.71875,0.375 0.301527,-0.0968 0.596455,-0.204138 0.875,-0.34375 0.55709,-0.279224 1.060053,-0.665694 1.5,-1.09375 0.219973,-0.214028 0.409366,-0.441865 0.59375,-0.6875 0.184384,-0.245635 0.355408,-0.507743 0.5,-0.78125 0.14012,-0.265048 0.276135,-0.524729 0.375,-0.8125 0.01041,-0.03078 0.02133,-0.06274 0.03125,-0.09375 0.09046,-0.278085 0.1388,-0.579404 0.1875,-0.875 C 89.95865,84.6507 90,84.334721 90,84 l 0,-2 0,-68 0,-2 C 90,8.676 87.324,6 84,6 L 12,6 z"
       inkscape:connector-curvature="0"
       id="rect3728"
       style="fill:url(#linearGradient3188);fill-opacity:1;fill-rule:nonzero;stroke:none" />
    <path
       d="M 12,90 C 8.676,90 6,87.324 6,84 L 6,82 6,14 6,12 c 0,-0.334721 0.04135,-0.6507 0.09375,-0.96875 0.0487,-0.295596 0.09704,-0.596915 0.1875,-0.875 C 6.29113,10.12587 6.302142,10.09265 6.3125,10.0625 6.411365,9.774729 6.5473802,9.515048 6.6875,9.25 6.8320918,8.976493 7.0031161,8.714385 7.1875,8.46875 7.3718839,8.223115 7.5612765,7.995278 7.78125,7.78125 8.221197,7.353194 8.72416,6.966724 9.28125,6.6875 9.559795,6.547888 9.8547231,6.440553 10.15625,6.34375 9.9000482,6.443972 9.6695391,6.580022 9.4375,6.71875 c -0.00741,0.0044 -0.023866,-0.0045 -0.03125,0 -0.031933,0.0193 -0.062293,0.04251 -0.09375,0.0625 -0.120395,0.0767 -0.2310226,0.163513 -0.34375,0.25 -0.1061728,0.0808 -0.2132809,0.161112 -0.3125,0.25 C 8.4783201,7.442683 8.3087904,7.626638 8.15625,7.8125 8.0486711,7.942755 7.9378561,8.077785 7.84375,8.21875 7.818661,8.25713 7.805304,8.30462 7.78125,8.34375 7.716487,8.446782 7.6510225,8.548267 7.59375,8.65625 7.4927417,8.850956 7.3880752,9.071951 7.3125,9.28125 7.30454,9.30306 7.288911,9.3218 7.28125,9.34375 7.2494249,9.4357 7.2454455,9.530581 7.21875,9.625 7.1884177,9.731618 7.1483606,9.828031 7.125,9.9375 7.0521214,10.279012 7,10.635705 7,11 l 0,2 0,68 0,2 c 0,2.781848 2.2181517,5 5,5 l 2,0 68,0 2,0 c 2.781848,0 5,-2.218152 5,-5 l 0,-2 0,-68 0,-2 C 89,10.635705 88.94788,10.279012 88.875,9.9375 88.83085,9.730607 88.78662,9.539842 88.71875,9.34375 88.71105,9.3218 88.69545,9.30306 88.6875,9.28125 88.62476,9.107511 88.549117,8.913801 88.46875,8.75 88.42717,8.6672 88.38971,8.580046 88.34375,8.5 88.28915,8.40279 88.216976,8.31165 88.15625,8.21875 88.06214,8.077785 87.951329,7.942755 87.84375,7.8125 87.700576,7.63805 87.540609,7.465502 87.375,7.3125 87.36383,7.3023 87.35502,7.29135 87.34375,7.28125 87.205364,7.155694 87.058659,7.046814 86.90625,6.9375 86.803679,6.86435 86.701932,6.784136 86.59375,6.71875 c -0.0074,-0.0045 -0.02384,0.0044 -0.03125,0 -0.232039,-0.138728 -0.462548,-0.274778 -0.71875,-0.375 0.301527,0.0968 0.596455,0.204138 0.875,0.34375 0.55709,0.279224 1.060053,0.665694 1.5,1.09375 0.219973,0.214028 0.409366,0.441865 0.59375,0.6875 0.184384,0.245635 0.355408,0.507743 0.5,0.78125 0.14012,0.265048 0.276135,0.524729 0.375,0.8125 0.01041,0.03078 0.02133,0.06274 0.03125,0.09375 0.09046,0.278085 0.1388,0.579404 0.1875,0.875 C 89.95865,11.3493 90,11.665279 90,12 l 0,2 0,68 0,2 c 0,3.324 -2.676,6 -6,6 l -72,0 z"
       inkscape:connector-curvature="0"
       id="path3615"
       style="opacity:0.6;fill:url(#radialGradient3619);fill-opacity:1;fill-rule:nonzero;stroke:none" />
    <rect
       width="84"
       height="84"
       rx="6"
       ry="6"
       x="6"
       y="106"
       id="rect2841"
       style="fill:url(#linearGradient2843);fill-opacity:1;fill-rule:nonzero;stroke:none" />
    <rect
       width="76"
       height="76"
       rx="4"
       ry="4"
       x="10"
       y="110"
       id="rect3634"
       style="fill:#ff0000;fill-opacity:1;fill-rule:nonzero;stroke:none" />
    <path
       d="m 14,9 c -2.752703,0 -5,2.247297 -5,5 l 0,68 c 0,2.752703 2.247297,5 5,5 l 68,0 c 2.752703,0 5,-2.247297 5,-5 L 87,14 C 87,11.247297 84.752703,9 82,9 L 14,9 z m 0,2 68,0 c 1.679297,0 3,1.320703 3,3 l 0,68 c 0,1.679297 -1.320703,3 -3,3 l -68,0 c -1.679297,0 -3,-1.320703 -3,-3 l 0,-68 c 0,-1.679297 1.320703,-3 3,-3 z"
       inkscape:connector-curvature="0"
       transform="translate(-110,0)"
       clip-path="url(#clipPath3649)"
       id="rect3647"
       style="font-size:medium;font-style:normal;font-variant:normal;font-weight:normal;font-stretch:normal;text-indent:0;text-align:start;text-decoration:none;line-height:normal;letter-spacing:normal;word-spacing:normal;text-transform:none;direction:ltr;block-progression:tb;writing-mode:lr-tb;text-anchor:start;color:#000000;fill:#000000;fill-opacity:1;stroke:none;stroke-width:2;marker:none;visibility:visible;display:inline;overflow:visible;filter:url(#filter3657);enable-background:accumulate;font-family:Abandoned Bitplane;-inkscape-font-specification:Abandoned Bitplane" />
    <path
       d="m 14.089286,10 c -2.216,0 -4,1.784 -4,4 l 0,68 c 0,2.216 1.784,4 4,4 l 68,0 c 2.216,0 4,-1.784 4,-4 l 0,-68 c 0,-2.216 -1.784,-4 -4,-4 l -68,0 z m 0,2 68,0 c 1.140301,0 2,0.859699 2,2 l 0,68 c 0,1.140301 -0.859699,2 -2,2 l -68,0 c -1.140301,0 -2,-0.859699 -2,-2 l 0,-68 c 0,-1.140301 0.859699,-2 2,-2 z"
       inkscape:connector-curvature="0"
       id="path3709"
       style="opacity:0.16000001;fill:#000000;fill-opacity:1;fill-rule:nonzero;stroke:none" />
    <path
       d="m 14,10 c -2.216,0 -4,1.784 -4,4 l 0,68 c 0,2.216 1.784,4 4,4 l 68,0 c 2.216,0 4,-1.784 4,-4 l 0,-68 c 0,-2.216 -1.784,-4 -4,-4 l -68,0 z m 0,1 68,0 c 1.673848,0 3,1.326152 3,3 l 0,68 c 0,1.673848 -1.326152,3 -3,3 l -68,0 c -1.673848,0 -3,-1.326152 -3,-3 l 0,-68 c 0,-1.673848 1.326152,-3 3,-3 z"
       inkscape:connector-curvature="0"
       id="path3707"
       style="opacity:0.36000001;fill:#000000;fill-opacity:1;fill-rule:nonzero;stroke:none" />
  </g>
  <g
     id="layer11"
     style="display:inline">
    <rect
       width="84"
       height="84"
       rx="6"
       ry="6"
       x="6"
       y="6"
       id="rect2419-1"
       style="opacity:0.6;fill:#000000;fill-opacity:1;fill-rule:nonzero;stroke:none;display:inline" />
    <path
       d="M 12,6 C 8.676,6 6,8.676 6,12 l 0,2 0,68 0,2 c 0,0.334721 0.04135,0.6507 0.09375,0.96875 0.0487,0.295596 0.09704,0.596915 0.1875,0.875 0.00988,0.03038 0.020892,0.0636 0.03125,0.09375 0.098865,0.287771 0.2348802,0.547452 0.375,0.8125 0.1445918,0.273507 0.3156161,0.535615 0.5,0.78125 0.1843839,0.245635 0.3737765,0.473472 0.59375,0.6875 0.439947,0.428056 0.94291,0.814526 1.5,1.09375 0.278545,0.139612 0.5734731,0.246947 0.875,0.34375 -0.2562018,-0.100222 -0.4867109,-0.236272 -0.71875,-0.375 -0.00741,-0.0044 -0.023866,0.0045 -0.03125,0 -0.031933,-0.0193 -0.062293,-0.04251 -0.09375,-0.0625 -0.120395,-0.0767 -0.2310226,-0.163513 -0.34375,-0.25 -0.1061728,-0.0808 -0.2132809,-0.161112 -0.3125,-0.25 C 8.4783201,88.557317 8.3087904,88.373362 8.15625,88.1875 8.0486711,88.057245 7.9378561,87.922215 7.84375,87.78125 7.818661,87.74287 7.805304,87.69538 7.78125,87.65625 7.716487,87.553218 7.6510225,87.451733 7.59375,87.34375 7.4927417,87.149044 7.3880752,86.928049 7.3125,86.71875 7.30454,86.69694 7.288911,86.6782 7.28125,86.65625 7.2494249,86.5643 7.2454455,86.469419 7.21875,86.375 7.1884177,86.268382 7.1483606,86.171969 7.125,86.0625 7.0521214,85.720988 7,85.364295 7,85 L 7,83 7,15 7,13 C 7,10.218152 9.2181517,8 12,8 l 2,0 68,0 2,0 c 2.781848,0 5,2.218152 5,5 l 0,2 0,68 0,2 c 0,0.364295 -0.05212,0.720988 -0.125,1.0625 -0.04415,0.206893 -0.08838,0.397658 -0.15625,0.59375 -0.0077,0.02195 -0.0233,0.04069 -0.03125,0.0625 -0.06274,0.173739 -0.138383,0.367449 -0.21875,0.53125 -0.04158,0.0828 -0.07904,0.169954 -0.125,0.25 -0.0546,0.09721 -0.126774,0.18835 -0.1875,0.28125 -0.09411,0.140965 -0.204921,0.275995 -0.3125,0.40625 -0.143174,0.17445 -0.303141,0.346998 -0.46875,0.5 -0.01117,0.0102 -0.01998,0.02115 -0.03125,0.03125 -0.138386,0.125556 -0.285091,0.234436 -0.4375,0.34375 -0.102571,0.07315 -0.204318,0.153364 -0.3125,0.21875 -0.0074,0.0045 -0.02384,-0.0044 -0.03125,0 -0.232039,0.138728 -0.462548,0.274778 -0.71875,0.375 0.301527,-0.0968 0.596455,-0.204138 0.875,-0.34375 0.55709,-0.279224 1.060053,-0.665694 1.5,-1.09375 0.219973,-0.214028 0.409366,-0.441865 0.59375,-0.6875 0.184384,-0.245635 0.355408,-0.507743 0.5,-0.78125 0.14012,-0.265048 0.276135,-0.524729 0.375,-0.8125 0.01041,-0.03078 0.02133,-0.06274 0.03125,-0.09375 0.09046,-0.278085 0.1388,-0.579404 0.1875,-0.875 C 89.95865,84.6507 90,84.334721 90,84 l 0,-2 0,-68 0,-2 C 90,8.676 87.324,6 84,6 L 12,6 z"
       inkscape:connector-curvature="0"
       id="rect3728-9"
       style="opacity:0.01000001;fill:url(#linearGradient3188-9);fill-opacity:1;fill-rule:nonzero;stroke:none;display:inline" />
    <path
       d="M 12,90 C 8.676,90 6,87.324 6,84 L 6,82 6,14 6,12 c 0,-0.334721 0.04135,-0.6507 0.09375,-0.96875 0.0487,-0.295596 0.09704,-0.596915 0.1875,-0.875 C 6.29113,10.12587 6.302142,10.09265 6.3125,10.0625 6.411365,9.774729 6.5473802,9.515048 6.6875,9.25 6.8320918,8.976493 7.0031161,8.714385 7.1875,8.46875 7.3718839,8.223115 7.5612765,7.995278 7.78125,7.78125 8.221197,7.353194 8.72416,6.966724 9.28125,6.6875 9.559795,6.547888 9.8547231,6.440553 10.15625,6.34375 9.9000482,6.443972 9.6695391,6.580022 9.4375,6.71875 c -0.00741,0.0044 -0.023866,-0.0045 -0.03125,0 -0.031933,0.0193 -0.062293,0.04251 -0.09375,0.0625 -0.120395,0.0767 -0.2310226,0.163513 -0.34375,0.25 -0.1061728,0.0808 -0.2132809,0.161112 -0.3125,0.25 C 8.4783201,7.442683 8.3087904,7.626638 8.15625,7.8125 8.0486711,7.942755 7.9378561,8.077785 7.84375,8.21875 7.818661,8.25713 7.805304,8.30462 7.78125,8.34375 7.716487,8.446782 7.6510225,8.548267 7.59375,8.65625 7.4927417,8.850956 7.3880752,9.071951 7.3125,9.28125 7.30454,9.30306 7.288911,9.3218 7.28125,9.34375 7.2494249,9.4357 7.2454455,9.530581 7.21875,9.625 7.1884177,9.731618 7.1483606,9.828031 7.125,9.9375 7.0521214,10.279012 7,10.635705 7,11 l 0,2 0,68 0,2 c 0,2.781848 2.2181517,5 5,5 l 2,0 68,0 2,0 c 2.781848,0 5,-2.218152 5,-5 l 0,-2 0,-68 0,-2 C 89,10.635705 88.94788,10.279012 88.875,9.9375 88.83085,9.730607 88.78662,9.539842 88.71875,9.34375 88.71105,9.3218 88.69545,9.30306 88.6875,9.28125 88.62476,9.107511 88.549117,8.913801 88.46875,8.75 88.42717,8.6672 88.38971,8.580046 88.34375,8.5 88.28915,8.40279 88.216976,8.31165 88.15625,8.21875 88.06214,8.077785 87.951329,7.942755 87.84375,7.8125 87.700576,7.63805 87.540609,7.465502 87.375,7.3125 87.36383,7.3023 87.35502,7.29135 87.34375,7.28125 87.205364,7.155694 87.058659,7.046814 86.90625,6.9375 86.803679,6.86435 86.701932,6.784136 86.59375,6.71875 c -0.0074,-0.0045 -0.02384,0.0044 -0.03125,0 -0.232039,-0.138728 -0.462548,-0.274778 -0.71875,-0.375 0.301527,0.0968 0.596455,0.204138 0.875,0.34375 0.55709,0.279224 1.060053,0.665694 1.5,1.09375 0.219973,0.214028 0.409366,0.441865 0.59375,0.6875 0.184384,0.245635 0.355408,0.507743 0.5,0.78125 0.14012,0.265048 0.276135,0.524729 0.375,0.8125 0.01041,0.03078 0.02133,0.06274 0.03125,0.09375 0.09046,0.278085 0.1388,0.579404 0.1875,0.875 C 89.95865,11.3493 90,11.665279 90,12 l 0,2 0,68 0,2 c 0,3.324 -2.676,6 -6,6 l -72,0 z"
       inkscape:connector-curvature="0"
       id="path3615-0"
       style="opacity:0.15;fill:url(#radialGradient3619-5);fill-opacity:1;fill-rule:nonzero;stroke:none;display:inline" />
  </g>
  <g
     id="layer3"
     style="display:inline">
    <path
       d="m 48,23.0625 c -14.30776,0 -25.9375,11.62974 -25.9375,25.9375 0,14.30776 11.62974,25.9375 25.9375,25.9375 1.777864,0 3.528841,-0.196245 5.1875,-0.53125 0.0031,-7.19e-4 0.09067,8.67e-4 0.09375,0 0.0031,-8.67e-4 0.09072,-0.03024 0.09375,-0.03125 0.003,-0.001 0.09077,-0.03009 0.09375,-0.03125 0.003,-0.0012 0.09083,-0.0612 0.09375,-0.0625 0.0029,-0.0013 0.05965,-0.02981 0.0625,-0.03125 0.0029,-0.0014 0.09097,-0.02968 0.09375,-0.03125 0.0028,-0.0016 0.09105,-0.0608 0.09375,-0.0625 0.0027,-0.0017 0.05988,-0.02942 0.0625,-0.03125 0.0026,-0.0018 0.05997,-0.06055 0.0625,-0.0625 0.0025,-0.002 0.09132,-0.06043 0.09375,-0.0625 0.0024,-0.0021 0.06017,-0.06031 0.0625,-0.0625 0.0023,-0.0022 0.06028,-0.0602 0.0625,-0.0625 l 4.4375,4.4375 c 0.0023,0.0022 0.09134,0.06037 0.09375,0.0625 0.0024,0.0021 0.05999,0.06048 0.0625,0.0625 0.0025,0.002 0.0599,0.06061 0.0625,0.0625 0.0026,0.0019 0.09106,0.06074 0.09375,0.0625 0.0027,0.0018 0.05973,0.02962 0.0625,0.03125 0.0028,0.0016 0.0909,0.061 0.09375,0.0625 0.0029,0.0015 0.09083,0.02989 0.09375,0.03125 0.0029,0.0014 0.05952,0.03004 0.0625,0.03125 0.003,0.0012 0.09071,0.03018 0.09375,0.03125 0.003,0.0011 0.09067,0.03033 0.09375,0.03125 0.0031,9.21e-4 0.09062,0.03048 0.09375,0.03125 0.0031,7.71e-4 0.09059,0.03063 0.09375,0.03125 0.0032,6.19e-4 0.09056,-4.65e-4 0.09375,0 0.0032,4.65e-4 0.09055,-3.11e-4 0.09375,0 0.0032,3.11e-4 0.09053,0.03109 0.09375,0.03125 0.0032,1.56e-4 0.09053,0 0.09375,0 0.0032,0 0.09053,1.56e-4 0.09375,0 0.0032,-1.56e-4 0.09055,-0.03094 0.09375,-0.03125 0.0032,-3.11e-4 0.09056,4.65e-4 0.09375,0 0.0032,-4.65e-4 0.09059,6.19e-4 0.09375,0 0.0032,-6.19e-4 0.09062,-0.03048 0.09375,-0.03125 0.0031,-7.71e-4 0.09067,-0.03033 0.09375,-0.03125 0.0031,-9.21e-4 0.09071,-0.03018 0.09375,-0.03125 0.003,-0.0011 0.09077,-0.03004 0.09375,-0.03125 0.003,-0.0012 0.05958,-0.02989 0.0625,-0.03125 0.0029,-0.0014 0.0909,-0.02975 0.09375,-0.03125 0.0029,-0.0015 0.09098,-0.06087 0.09375,-0.0625 0.0028,-0.0016 0.05981,-0.02949 0.0625,-0.03125 0.0027,-0.0018 0.09115,-0.06061 0.09375,-0.0625 0.0026,-0.0019 0.05999,-0.06048 0.0625,-0.0625 0.0025,-0.002 0.06009,-0.06037 0.0625,-0.0625 0.0024,-0.0021 0.09145,-0.06025 0.09375,-0.0625 l 12.09375,-12 a 0.87390781,0.87390781 0 0 0 0,-0.03125 c 0.0033,-0.0035 0.09071,-0.09005 0.09375,-0.09375 0.003,-0.0037 0.09098,-0.121085 0.09375,-0.125 0.0028,-0.0039 0.06002,-0.08965 0.0625,-0.09375 0.0025,-0.0041 0.09157,-0.120729 0.09375,-0.125 0.0022,-0.0043 0.02939,-0.120583 0.03125,-0.125 0.0019,-0.0044 0.06096,-0.15171 0.0625,-0.15625 0.0015,-0.0045 0.03004,-0.120361 0.03125,-0.125 0.0012,-0.0046 0.03038,-0.120286 0.03125,-0.125 8.75e-4,-0.0047 0.03072,-0.151485 0.03125,-0.15625 5.34e-4,-0.0048 -1.9e-4,-0.120209 0,-0.125 1.9e-4,-0.0048 1.55e-4,-0.151458 0,-0.15625 -1.55e-4,-0.0048 5e-4,-0.120231 0,-0.125 -5e-4,-0.0048 -0.03041,-0.15153 -0.03125,-0.15625 -8.41e-4,-0.0047 -0.03007,-0.120352 -0.03125,-0.125 -0.0012,-0.0046 -0.02974,-0.120449 -0.03125,-0.125 -0.0015,-0.0046 -0.02942,-0.12057 -0.03125,-0.125 -0.0018,-0.0044 -0.06035,-0.151963 -0.0625,-0.15625 -0.0021,-0.0043 -0.06005,-0.08963 -0.0625,-0.09375 -0.0024,-0.0041 -0.09101,-0.121065 -0.09375,-0.125 -0.0027,-0.0039 -0.05948,-0.121273 -0.0625,-0.125 -0.003,-0.0037 -0.09047,-0.09025 -0.09375,-0.09375 -0.0033,-0.0035 -0.12148,-0.09049 -0.125,-0.09375 -0.0035,-0.0033 -0.09001,-0.09076 -0.09375,-0.09375 -0.0037,-0.003 -0.12105,-0.09103 -0.125,-0.09375 -0.004,-0.0027 -0.08961,-0.06007 -0.09375,-0.0625 -0.0041,-0.0024 -0.120701,-0.09163 -0.125,-0.09375 -0.0043,-0.0021 -0.120559,-0.02944 -0.125,-0.03125 -0.0044,-0.0018 -0.151691,-0.06102 -0.15625,-0.0625 -0.0046,-0.0015 -0.120346,-0.0301 -0.125,-0.03125 -0.0047,-0.0012 -0.120275,-0.03044 -0.125,-0.03125 -0.0047,-8.14e-4 -0.151479,-0.03078 -0.15625,-0.03125 -0.0048,-4.72e-4 -0.120207,1.28e-4 -0.125,0 a 0.87390781,0.87390781 0 0 0 -0.03125,0 l -2.25,0 c 2.607194,-4.045826 4.125,-8.836936 4.125,-14 C 73.9375,34.69224 62.30776,23.0625 48,23.0625 z m 0,21.875 c 2.263845,0 4.0625,1.798655 4.0625,4.0625 0,2.263845 -1.798655,4.0625 -4.0625,4.0625 -2.263845,0 -4.0625,-1.798655 -4.0625,-4.0625 0,-2.263845 1.798655,-4.0625 4.0625,-4.0625 z m 18.125,8.28125 c -0.0667,0.05873 -0.08728,0.09924 -0.1875,0.1875 -0.109063,0.09604 -0.19434,0.166004 -0.21875,0.1875 0,0 0.145972,-0.194507 0.1875,-0.25 0.0058,-0.0078 0.03125,-0.03125 0.03125,-0.03125 0,0 0.112525,-0.04829 0.1875,-0.09375 z m 2.46875,1.09375 c -0.0046,0.0088 0.005,0.02165 0,0.03125 -0.0076,0.01458 -0.02284,0.0152 -0.03125,0.03125 -0.01252,0.01523 -0.01805,0.0152 -0.03125,0.03125 -0.04477,0.08542 -0.04753,0.09931 -0.09375,0.1875 0.12209,-0.116586 0.235774,-0.237807 0.28125,-0.28125 0.0026,-0.0025 0.02901,0.0021 0.03125,0 0.0043,0.01387 -0.0044,0.01695 0,0.03125 -0.03302,0.06302 -0.103922,0.152991 -0.1875,0.3125 -0.06784,-0.0036 -0.07844,0.0041 -0.15625,0 -5.56e-4,-2.9e-5 5.56e-4,-0.03122 0,-0.03125 -0.01556,-8.26e-4 -0.01577,8.22e-4 -0.03125,0 -0.01033,0.01256 -0.05317,-0.01135 -0.0625,0 -0.04452,-0.0024 -0.05567,0.002 -0.09375,0 0.0255,-0.01891 0.05657,-0.03494 0.09375,-0.0625 0.01444,-0.0107 0.01564,-0.01968 0.03125,-0.03125 -0.0024,-0.04572 0.0022,-0.05305 0,-0.09375 0.122544,-0.06421 0.169482,-0.08281 0.25,-0.125 z m 1.09375,1.3125 c 0.003,0.0041 0.02934,-0.0026 0.03125,0 0.0027,0.0036 3e-6,0.03126 0,0.03125 -0.0089,-0.01877 -0.03123,-0.03122 -0.03125,-0.03125 z m 0.15625,1.15625 c -0.01043,0.03046 0,0.0625 0,0.0625 -0.04987,0.08864 -0.15625,0.21875 -0.15625,0.21875 0,0 -0.03572,0.04246 -0.0625,0.0625 -0.08202,0.06138 -0.21875,0.15625 -0.21875,0.15625 0.0182,-0.02067 0.07832,-0.099 0.15625,-0.1875 0.134309,-0.152524 0.249878,-0.276873 0.28125,-0.3125 z m -22.625,4.34375 c 0.0055,-0.0011 0.01661,0.0022 0.03125,0 -0.0062,0.0027 0.0062,0.02856 0,0.03125 -0.01246,0.0054 -0.03125,0 -0.03125,0 0,0 -0.01374,0.02143 -0.03125,0.03125 -0.02737,0.01163 -0.0456,0.024 -0.0625,0.03125 -2.49e-4,-9.6e-4 -0.03102,8.7e-4 -0.03125,0 -0.001,-0.0039 6.82e-4,-0.02925 0,-0.03125 0.06148,-0.02943 0.125034,-0.06251 0.125,-0.0625 z m 0.75,0.125 c 0.03631,0.02022 0.09375,0.03125 0.09375,0.03125 0,0 0.125,0.15625 0.125,0.15625 0,0 0.1875,0.59375 0.1875,0.59375 0,0 -0.03125,0.1875 -0.03125,0.1875 0,0 -0.03019,0.06366 -0.0625,0.125 -0.01417,-0.0088 -0.06737,-0.01487 -0.09375,-0.03125 0.0022,-0.0037 0,-0.03125 0,-0.03125 0,0 0.0625,-0.21875 0.0625,-0.21875 0,0 -0.21875,-0.6875 -0.21875,-0.6875 0,0 -0.05288,-0.02759 -0.09375,-0.0625 0.0099,-0.01892 0.02492,-0.05039 0.03125,-0.0625 z m -1.375,0.0625 c 0,0 0.02819,0.07518 0.03125,0.09375 0.0039,0.02337 -0.0074,0.08042 0,0.125 7.8e-4,0.03145 -0.001,0.053 0,0.09375 -0.01861,-0.01478 -0.01568,-0.05013 -0.03125,-0.0625 -0.0038,0.0036 -0.09023,0.12112 -0.09375,0.125 -0.03943,-0.116764 -0.0817,-0.214374 -0.09375,-0.25 9.62e-4,-0.0019 0,-0.03125 0,-0.03125 -2e-5,1.2e-5 0.06906,-0.02695 0.125,-0.0625 -6.1e-5,1.7e-5 0.06255,-0.03126 0.0625,-0.03125 z m 0.15625,0.25 c 0.0023,-0.003 0.02811,0.0041 0.03125,0 0.0052,0.01609 -0.006,0.04398 0,0.0625 -6.88e-4,0.0286 7.35e-4,0.03199 0,0.0625 -0.0018,0.005 -0.02953,-0.0048 -0.03125,0 -0.01211,-0.06128 0.01082,-0.07025 0,-0.125 z m -0.96875,0.15625 c 0.003,-0.002 0.02433,0.0042 0.03125,0 -5e-6,5e-6 0.0032,0.02703 0,0.03125 -4.76e-4,-7.2e-4 -0.03097,4.31e-4 -0.03125,0 -4.04e-4,-6.19e-4 -9e-6,-0.03124 0,-0.03125 z m 0.875,0.09375 c 0.0015,0.06199 -0.0013,0.07067 0,0.125 -0.0036,-0.01266 -0.03125,-0.0625 -0.03125,-0.0625 0,0 0.02523,-0.04052 0.03125,-0.0625 z m -0.875,0.125 c 0.01367,0.008 0.0424,0.01952 0.0625,0.03125 -0.0057,0.0247 -0.02401,0.03128 -0.03125,0.0625 C 45.794282,62.025255 45.71875,62 45.71875,62 c 0,0 0.0513,-0.03455 0.0625,-0.0625 z M 45.375,62.03125 c -7e-5,7.2e-5 0.02114,0.0095 0.03125,0 0,0 -0.01416,0.03642 -0.03125,0.0625 -0.0031,-0.003 -0.03093,-0.03152 -0.03125,-0.03125 0.0052,-0.0079 0.03126,-0.03126 0.03125,-0.03125 z m 1.40625,0.15625 c 0.0044,0.0012 0.04924,0.02762 0.0625,0.03125 4.59e-4,0.0059 -5.87e-4,0.0237 0,0.03125 0.01777,0.05974 0.01835,0.08164 0.03125,0.125 0.0089,0.0063 0.02192,-0.0066 0.03125,0 0.0058,0.01935 -0.0039,0.04923 0,0.0625 -0.01407,-0.0016 -0.01664,0.0017 -0.03125,0 -0.007,-0.0063 0.0067,-0.02513 0,-0.03125 -0.02829,-0.02577 -0.03998,-0.04198 -0.0625,-0.0625 -0.0042,-0.01426 0.0041,-0.01712 0,-0.03125 0.0018,-0.01 -0.0016,-0.0225 0,-0.03125 -0.01343,-0.04612 -0.0199,-0.05477 -0.03125,-0.09375 z m -1.5625,0.0625 c 0,0 0.02115,0.0043 0.03125,0 0.0052,0.0036 0.02321,0.02576 0.03125,0.03125 0.0026,0.0087 0.04802,0.10803 0.0625,0.15625 0.01171,0.0033 0.01829,0.02764 0.03125,0.03125 0.03049,0.0085 0.05755,-0.01009 0.09375,0 0.02029,0.04303 0.01018,0.04909 0.03125,0.09375 -0.05006,-0.02231 -0.04649,-0.04144 -0.09375,-0.0625 -0.02457,-0.01095 -0.03998,0.01004 -0.0625,0 0.01526,0.01359 0.01534,0.01708 0.03125,0.03125 0.0034,0.01145 -0.0036,0.01912 0,0.03125 -0.04226,-0.0346 -0.05635,-0.03188 -0.09375,-0.0625 0.01532,0.01342 0.04586,-0.01458 0.0625,0 -0.02728,-0.01216 -0.03967,-0.02108 -0.0625,-0.03125 -0.01341,-0.006 -0.01981,-0.02615 -0.03125,-0.03125 -0.008,-0.0036 -0.02432,0.0031 -0.03125,0 -0.0029,-0.0013 0.0027,-0.03004 0,-0.03125 -0.0052,-0.0014 -0.02719,0.0011 -0.03125,0 0.004,-0.01248 -0.0039,-0.01915 0,-0.03125 0.0039,-0.0121 -0.0026,-0.02331 0,-0.03125 0.0026,-0.0079 0,-0.03125 0,-0.03125 -0.01933,0.01366 -0.03921,-0.01646 -0.0625,0 0,0 0.09375,-0.0625 0.09375,-0.0625 z M 45,62.46875 c 0.0053,0.0038 0.04988,0.0223 0.0625,0.03125 -0.0034,0.01063 0,0.03125 0,0.03125 0,0 0.0011,0.02234 0,0.03125 -0.0261,-0.01582 -0.08792,-0.05897 -0.09375,-0.0625 0,0 0.01707,-0.01915 0.03125,-0.03125 z m -0.03125,0.09375 c 0,0 0.04934,0.07281 0.0625,0.09375 0.0031,0.0049 -0.0037,0.02537 0,0.03125 0,0 -0.0032,0.05244 0,0.0625 -0.0068,0.0011 -0.03125,0 -0.03125,0 -0.03884,-0.04026 -0.08311,-0.114004 -0.09375,-0.125 0.03023,-0.02532 0.06253,-0.06251 0.0625,-0.0625 z M 44.875,62.625 c 0,0 3.69e-4,0.105851 0,0.1875 -0.06774,0.03298 -0.125,0.0625 -0.125,0.0625 -0.0016,-0.0011 -0.03025,6.77e-4 -0.03125,0 -6.83e-4,-4.61e-4 4.11e-4,-0.03097 0,-0.03125 0.01297,-0.01998 0.06269,-0.12521 0.0625,-0.125 0.02495,-0.03096 0.07831,-0.07639 0.09375,-0.09375 z m 0.34375,0 c 0.08419,0.05967 0.100546,0.06337 0.1875,0.125 0.0099,0.007 0.02166,-0.0068 0.03125,0 0.0043,0.01435 -0.0043,0.0169 0,0.03125 -0.01649,-0.01 -0.01377,-0.02066 -0.03125,-0.03125 -0.06808,-0.04126 -0.08647,-0.02021 -0.15625,-0.0625 -0.01792,-0.01086 -0.01409,-0.02085 -0.03125,-0.03125 -0.0033,-0.0094 0.0029,-0.02294 0,-0.03125 z m 0.75,0.125 c 0,0 0.03125,0.03125 0.03125,0.03125 -0.03116,0.03043 -0.07382,0.04304 -0.09375,0.0625 z M 44.875,62.875 c -2.11e-4,0.04666 2.17e-4,0.04564 0,0.09375 -0.01566,-0.01058 -0.05233,-0.05563 -0.0625,-0.0625 0,0 0.0289,-0.0184 0.0625,-0.03125 z M 45,63.03125 c 0,0 0.08244,-0.0057 0.15625,0 0.02254,0.07048 0.02142,0.125522 0.03125,0.15625 C 45.09854,63.127378 45.06442,63.074784 45,63.03125 z m 0.375,0.03125 c 0.0044,3.42e-4 0.03125,0 0.03125,0 0,0 0.04929,0.05016 0.0625,0.0625 0.01321,0.01234 0.0396,0.04111 0.0625,0.0625 -0.0095,0.0027 -0.0625,0.03125 -0.0625,0.03125 0,0 3.3e-4,0.07588 0,0.09375 0.008,-0.0037 0.08507,-0.04397 0.125,-0.0625 4.65e-4,0.0016 0,0.03125 0,0.03125 0.0075,0.007 0.02354,-0.0072 0.03125,0 0.06937,0.0648 0.06232,0.0977 0.125,0.15625 -0.141401,-0.04174 -0.28125,-0.09375 -0.28125,-0.09375 -1.41e-4,0.0076 1.69e-4,0.02212 0,0.03125 -0.09137,-0.06175 -0.09908,-0.06524 -0.1875,-0.125 0.03217,-0.0042 0.07584,-0.0289 0.09375,-0.03125 0.01316,0.02094 0.0625,0.09375 0.0625,0.09375 -0.0024,-0.0069 0.0069,-0.07375 0,-0.09375 0.002,-2.69e-4 0.03125,0 0.03125,0 -8e-6,4e-6 -0.05106,-0.05064 -0.0625,-0.0625 -0.0057,-0.0059 -0.02316,-0.02286 -0.03125,-0.03125 -0.0074,-0.02132 0.0085,-0.03816 0,-0.0625 z m -0.5,0.03125 c -2.74e-4,0.06075 0,0.15625 0,0.15625 0,0 0.05525,0.02747 0.0625,0.03125 0.0029,0.0015 0.02736,-0.002 0.03125,0 0.121045,-0.01589 0.149364,-0.01804 0.25,-0.03125 0,0 0.11174,0.113473 0.15625,0.15625 0,0 -0.204031,-0.04292 -0.40625,-0.09375 0.0626,0.03269 0.170442,0.09701 0.34375,0.1875 0.07406,0.03867 0.08385,0.0247 0.15625,0.0625 -0.01659,0.0079 -0.01614,0.02405 -0.03125,0.03125 0.01008,0.0082 0.01913,0.02139 0.03125,0.03125 0,0 -0.03125,0.03125 -0.03125,0.03125 -0.01611,-0.01829 -0.01951,-0.04917 -0.03125,-0.0625 -0.03725,0.01774 -0.07337,0.05279 -0.09375,0.0625 0.01583,0.01335 0.06301,0.03656 0.09375,0.0625 0.0129,-0.0025 0.01755,0.0026 0.03125,0 0.0025,5.57e-4 -0.0026,0.03068 0,0.03125 0.0064,0.0054 -0.0067,0.02562 0,0.03125 -5.29e-4,0.0286 4.7e-4,0.03708 0,0.0625 0.0073,0.0051 -0.0073,0.02612 0,0.03125 0.08575,0.06021 0.145373,0.06417 0.1875,0.09375 -0.03417,-0.0057 -0.06784,0.0095 -0.125,0 -0.02858,-0.0048 -0.03239,0.005 -0.0625,0 -0.0025,-4.18e-4 0.0025,-0.03083 0,-0.03125 -0.01505,-0.0025 -0.0164,0.0025 -0.03125,0 -0.02969,-0.005 -0.03574,0.0045 -0.0625,0 -0.05315,-0.04136 -0.109218,-0.08147 -0.125,-0.09375 0.0041,-0.0242 -0.0034,-0.04245 0,-0.0625 -0.0041,1.29e-4 -0.02911,-6.7e-5 -0.03125,0 -0.0013,0.0061 0.0016,0.0236 0,0.03125 0,0 -0.02935,-5.03e-4 -0.03125,0 9.26e-4,0.0046 0.02854,0.04895 0.03125,0.0625 -0.0022,0.01034 0.0024,0.01979 0,0.03125 -0.01387,-0.005 -0.01732,0.005 -0.03125,0 0,0 -0.0397,-0.04337 -0.0625,-0.0625 -0.01137,0.003 -0.04552,-0.0045 -0.0625,0 -0.0275,-0.0099 -0.03558,0.0096 -0.0625,0 0.0073,0.0093 -0.0072,0.02202 0,0.03125 -0.0468,0.01241 -0.06569,0.01552 -0.125,0.03125 -0.02791,0.0074 -0.03347,-0.0077 -0.0625,0 -0.01415,-0.01734 -0.01725,-0.01409 -0.03125,-0.03125 -0.014,-0.01716 -0.01757,-0.01449 -0.03125,-0.03125 -0.02121,-0.02599 -0.01139,-0.03817 -0.03125,-0.0625 0.04115,-0.009 0.04928,0.0097 0.09375,0 -0.04307,-0.01531 -0.05698,-0.04954 -0.09375,-0.0625 0.09317,0.0099 0.105741,0.0226 0.1875,0.03125 0.0058,0.0075 0.02539,-0.0075 0.03125,0 0.03761,0.004 0.06654,-0.0029 0.09375,0 -0.01541,-0.01292 -0.018,-0.02014 -0.03125,-0.03125 0.04759,-0.01043 0.09935,0.0056 0.125,0 -0.0026,-0.004 0.0033,-0.02615 0,-0.03125 0.01819,-0.004 0.09375,0 0.09375,0 -0.008,-0.0025 -0.08892,-0.02003 -0.125,-0.03125 -0.01579,-0.02427 -0.0093,-0.05994 -0.03125,-0.09375 -0.06907,-0.0086 -0.09615,0.01131 -0.1875,0 -0.0087,-0.02657 -0.01734,-0.05124 -0.03125,-0.09375 0.07571,0.02147 0.08854,0.01205 0.15625,0.03125 -0.05975,-0.09184 -0.06856,-0.100749 -0.125,-0.1875 0.03884,-0.0051 0.0482,-0.02527 0.09375,-0.03125 -0.06251,-0.01571 -0.06958,-0.01732 -0.125,-0.03125 -0.02423,-0.03725 -0.04823,-0.07181 -0.0625,-0.09375 0.06066,-0.03001 0.07784,-0.03918 0.125,-0.0625 z m -0.4375,0.25 c 5.83e-4,-0.002 0.03048,0.0026 0.03125,0 0.02032,0.0058 0.09488,0.0451 0.15625,0.0625 0.02446,0.03147 0.05631,0.07684 0.09375,0.125 -0.131316,-0.04085 -0.241965,-0.05029 -0.28125,-0.0625 -0.0053,-0.0016 -0.02883,-0.0305 -0.03125,-0.03125 0,0 0.01884,-0.01427 0.03125,-0.03125 0,0 -0.0051,-0.03045 0,-0.0625 z m 0.96875,0.09375 c 0.0016,0.0015 0.02885,-0.0022 0.03125,0 0.0048,0.0018 0.0209,0.0274 0.03125,0.03125 -0.01002,-0.01026 -0.05815,-0.0268 -0.0625,-0.03125 z m -1.0625,0.25 c 0.004,4.26e-4 0.02544,-6.15e-4 0.03125,0 0.003,0.01908 0.0267,0.03342 0.03125,0.0625 -0.01651,-0.0084 -0.05346,-0.02667 -0.0625,-0.03125 -8.8e-4,-0.0095 0,-0.03125 0,-0.03125 z m 1.34375,0 c 0.01434,-0.0028 0.01755,0.0026 0.03125,0 0.02493,0.0209 0.0071,0.04223 0.03125,0.0625 -0.01358,4.26e-4 -0.01695,-4.48e-4 -0.03125,0 -0.02267,-0.02321 -0.0084,-0.03912 -0.03125,-0.0625 z m 0.4375,0.03125 c 0.0058,0.01358 0.02254,0.01086 0.03125,0.03125 0.0058,0.0136 -0.005,0.01968 0,0.03125 3.5e-5,-5.3e-5 0.0059,0.02282 0,0.03125 0.0012,0.0027 0.03103,-4.73e-4 0.03125,0 0.0022,0.0047 0.05989,0.15171 0.0625,0.15625 4.17e-4,7.26e-4 -0.0036,0.02553 0,0.03125 -0.003,0.0053 -0.09123,0.150672 -0.09375,0.15625 -0.0025,0.0056 -0.0605,0.150464 -0.0625,0.15625 -0.0013,0.0038 -0.01673,0.07561 -0.03125,0.125 -0.02564,0.0066 -0.06061,-5.63e-4 -0.0625,0 -0.0049,0.0015 -0.120211,0.02941 -0.125,0.03125 -8.26e-4,3.17e-4 -0.02434,-0.0029 -0.03125,0 -0.0028,0.0012 0.0035,0.02978 0,0.03125 -0.0086,0.0037 -0.02009,-0.0048 -0.03125,0 -7.55e-4,-0.0032 -0.03028,0.0041 -0.03125,0 -0.0082,-0.03451 -0.02483,-0.06687 -0.03125,-0.09375 0.01314,0.0032 0.09044,0.03059 0.09375,0.03125 0.001,2.02e-4 0.03123,6.2e-5 0.03125,0 8.51e-4,-0.0033 -0.0016,-0.02492 0,-0.03125 0.0016,-0.0063 -0.0021,-0.02283 0,-0.03125 0.0021,-0.0084 0.02892,0.0092 0.03125,0 0.0044,-0.01314 -0.0048,-0.04785 0,-0.0625 0.0048,-0.01465 -0.0033,-0.02118 0,-0.03125 0.0017,-0.0049 0.02952,0.0051 0.03125,0 0.0014,-0.0042 0,-0.03125 0,-0.03125 0.0022,-0.0067 -0.0025,-0.02394 0,-0.03125 0.004,-0.0063 -0.0036,-0.02549 0,-0.03125 0.0012,-0.0082 -2e-6,-0.03123 0,-0.03125 0.0055,-0.005 0,-0.03125 0,-0.03125 0.0066,-0.0084 0.02866,0.0035 0.03125,0 -7.31e-4,0.0028 -0.0055,-0.0067 0,-0.03125 0.0022,-0.0081 0.02831,-0.02024 0.03125,-0.03125 -0.0083,0.01013 -0.03128,3.6e-5 -0.03125,0 0,0 -0.03125,-0.03125 -0.03125,-0.03125 0.0093,-0.0084 0.03125,0 0.03125,0 0,0 0.03125,0.03125 0.03125,0.03125 9.23e-4,-0.0051 -0.0016,-0.02009 0,-0.03125 C 46.008142,64.022961 46,64 46,64 c 0,0 -0.05044,-0.05127 -0.0625,-0.0625 -0.0031,-0.0029 -0.02748,0.0035 -0.03125,0 -0.02564,-0.02388 -0.04509,-0.07967 -0.09375,-0.125 0.02801,0.0061 0.03955,0.02623 0.0625,0.03125 0.03082,0.02584 0.07788,0.04919 0.09375,0.0625 0.0063,0.0052 0.02795,0.02848 0.03125,0.03125 -0.0011,0.0058 8.36e-4,0.02707 0,0.03125 0,0 0.03125,0.03125 0.03125,0.03125 0.01863,-0.02589 -0.0051,-0.02368 0,-0.03125 0.0101,-0.01515 0.02191,-0.01696 0.03125,-0.03125 0.0093,-0.01429 0.02675,-0.0244 0.03125,-0.03125 0.01157,-0.01649 -0.0043,-0.02481 0,-0.03125 0.0086,-0.01287 0.02184,-0.017 0.03125,-0.03125 -0.001,-6.85e-4 -0.0286,-0.02946 -0.03125,-0.03125 0.0016,-0.0061 0.02788,-0.01479 0.03125,-0.03125 0.0051,-0.02469 -2.3e-5,-0.06235 0,-0.0625 z m -1.5625,0.09375 c 0.01901,-0.0042 0.03871,0.0052 0.0625,0 0.0067,0.008 -0.0069,0.02295 0,0.03125 -0.01463,0.0015 -0.01716,-0.0015 -0.03125,0 -0.01409,0.0015 -0.01786,-0.0014 -0.03125,0 -0.0059,-0.003 0.0058,-0.02831 0,-0.03125 z m -0.15625,0.03125 c 8.06e-4,0.0011 0.02987,-0.0019 0.03125,0 0.005,0.0068 0.01984,0.04697 0.03125,0.0625 0.03857,0.01335 0.101387,0.01228 0.15625,0.03125 0,0 -0.02428,0.02655 -0.03125,0.03125 -0.02539,0.0067 -0.04048,-0.0058 -0.0625,0 0.0062,0.0084 -0.0066,0.02229 0,0.03125 -0.02371,0.016 -0.0332,0.01148 -0.0625,0.03125 -0.007,-0.0084 -0.02746,-0.02671 -0.03125,-0.03125 -0.0072,0.0019 -0.02557,-0.0015 -0.03125,0 -0.02393,-0.01762 -0.08069,-0.02164 -0.09375,-0.03125 0,0 0.0338,-0.03478 0.0625,-0.0625 -0.0039,-0.01433 0.0032,-0.01921 0,-0.03125 0.005,-0.0049 0.0279,0.0032 0.03125,0 0.0045,-0.0043 0,-0.03125 0,-0.03125 z m -0.125,0.1875 c 0.0031,8.18e-4 0.02723,-0.001 0.03125,0 0,0 -0.09375,0.125 -0.09375,0.125 -0.0031,-0.0019 -0.03002,-0.03049 -0.03125,-0.03125 0,0 0.0598,-0.04455 0.09375,-0.09375 z M 44.5,64.09375 c 0.038,0.0099 0.0768,0.01868 0.125,0.03125 0.05829,0.07932 0.09793,0.119409 0.125,0.15625 -0.103472,-0.07619 -0.138115,-0.105117 -0.25,-0.1875 z m 0.8125,0.46875 c 0.0016,0.0082 0,0.0625 0,0.0625 0,0 0.125,0 0.125,0 0.0044,0.001 0.02896,-5.44e-4 0.03125,0 0.0023,5.44e-4 0.03125,0 0.03125,0 0,0 -0.0041,0.02768 0,0.03125 0.0088,7.33e-4 0.02322,-6.67e-4 0.03125,0 0.008,6.67e-4 0.02406,-5.97e-4 0.03125,0 0.0077,6.42e-4 0.02454,0.03069 0.03125,0.03125 -0.03261,0.01012 -0.05192,0.01826 -0.09375,0.03125 -0.04183,0.01299 -0.04741,0.01686 -0.09375,0.03125 -0.07446,0.02312 -0.08603,0.0095 -0.15625,0.03125 -0.01326,0.0041 -0.01856,-0.0039 -0.03125,0 -0.01269,0.0039 -0.01926,-0.0037 -0.03125,0 -0.01366,-0.03094 -0.0173,-0.03091 -0.03125,-0.0625 -0.01466,-0.0016 -0.01626,0.0016 -0.03125,0 -0.01467,-0.0091 -0.01573,-0.02163 -0.03125,-0.03125 0.01978,-0.0097 0.03729,-0.01894 0.0625,-0.03125 0.06546,-0.03196 0.07414,-0.05366 0.15625,-0.09375 z M 44.125,64.625 c 0.01038,0.01715 0.04014,0.05682 0.0625,0.09375 0,0 -0.01598,0.03453 -0.03125,0.0625 C 44.153006,64.777112 44.125,64.75 44.125,64.75 c 10e-7,1.7e-5 0.0072,-0.06403 0,-0.125 z m -0.0625,0.34375 c 0,0 0.03016,-1.8e-5 0.03125,0 -0.0038,0.01375 0.0035,0.01881 0,0.03125 -0.0011,1.5e-5 -0.03125,0 -0.03125,0 -8.7e-5,-0.0053 1.4e-5,-0.02932 0,-0.03125 z m 0.0625,0.59375 c 0.01493,0.03404 0.0625,0.0625 0.0625,0.0625 0,0 0.0625,0.09375 0.0625,0.09375 -0.003,0.0095 0,0.03125 0,0.03125 -0.0057,0.0018 -0.02716,-0.0013 -0.03125,0 -0.02029,-0.03536 -0.05172,-0.04372 -0.0625,-0.0625 -5.61e-4,-0.0029 0.0018,-0.02017 0,-0.03125 0,0 0,-0.03125 0,-0.03125 1e-5,3.1e-5 -0.02219,-0.03063 -0.03125,-0.0625 z m 1.46875,0.125 c 0.01423,0.0039 0.01754,-0.0038 0.03125,0 0.04504,0.01247 0.05952,0.02177 0.09375,0.03125 -0.02093,0.02322 -0.06346,0.0289 -0.09375,0.0625 0.01683,-0.0062 0.04818,0.0054 0.0625,0 -0.0069,0.0054 -0.04681,0.01902 -0.0625,0.03125 0.02519,0.0072 0.04307,0.02573 0.0625,0.03125 0.0085,0.0024 0.0241,-0.002 0.03125,0 0.0143,0.0041 0.05425,-0.0023 0.0625,0 -0.01887,0.0072 -0.06727,0.0212 -0.09375,0.03125 -0.0054,-0.0029 -0.02478,0.0035 -0.03125,0 -0.01629,-0.0088 -0.04036,-0.01931 -0.0625,-0.03125 -0.04105,0.04553 -0.05008,0.04532 -0.09375,0.09375 -0.01738,0.01355 -0.01369,0.01756 -0.03125,0.03125 -0.0097,0.0076 -0.02166,-0.0075 -0.03125,0 -0.01405,0.0025 -0.01667,-0.0026 -0.03125,0 -0.0069,0.01 0.0067,0.02161 0,0.03125 -0.09736,0.03686 -0.111721,0.02209 -0.21875,0.0625 0.0063,-0.0034 -0.0056,-0.02818 0,-0.03125 -0.0029,-0.01402 -0.02803,-0.01581 -0.03125,-0.03125 -0.004,-0.01132 0.0043,-0.01913 0,-0.03125 -0.0028,-0.01342 0.0029,-0.0172 0,-0.03125 0.106537,-0.03766 0.122993,-0.02829 0.21875,-0.0625 0.04321,-0.03826 0.04433,-0.04999 0.09375,-0.09375 0.01409,0.004 0.01746,-0.0039 0.03125,0 0.04899,-0.04338 0.05589,-0.06023 0.09375,-0.09375 z m -0.25,0.03125 c 0.01379,0.0039 0.01716,-0.004 0.03125,0 -0.05209,0.01647 -0.06761,0.01308 -0.125,0.03125 -0.06158,0.0195 -0.06037,0.04201 -0.125,0.0625 -0.0031,-0.01508 0.0031,-0.01632 0,-0.03125 0.06225,-0.01292 0.06578,-0.01896 0.125,-0.03125 0.04512,-0.0094 0.05177,-0.02254 0.09375,-0.03125 z m -0.84375,0.25 c 0.02387,-0.0074 0.06455,0.009 0.09375,0 -0.0031,9.88e-4 0.003,0.03028 0,0.03125 -0.01177,-0.003 -0.02038,0.0028 -0.03125,0 -0.02447,-0.0063 -0.04364,-0.02638 -0.0625,-0.03125 z m -0.21875,0.0625 c 0.0043,-0.0013 0.0548,0.0024 0.0625,0 0.0034,0.0041 0.02919,-0.0025 0.03125,0 0.0025,0.003 0,0.03125 0,0.03125 -0.0072,0.02923 -0.03125,0.0625 -0.03125,0.0625 0,0 0.0027,0.02546 0,0.0625 -0.0079,0.0012 -0.0625,0 -0.0625,0 0,0 0.0023,-0.0279 0,-0.0625 0,0 0.07284,-0.04842 0.09375,-0.0625 -0.01365,0.0046 -0.08753,-0.0023 -0.09375,0 0,0 -8.48e-4,-0.02222 0,-0.03125 z m -0.0625,0.03125 c 0,0 0.0303,2.94e-4 0.03125,0 0.0054,0.01034 -0.0039,0.0238 0,0.03125 -8.97e-4,4.02e-4 -0.03128,-1.12e-4 -0.03125,0 -0.0024,-0.0078 0,-0.03125 0,-0.03125 z m 0.1875,0.1875 c 7.2e-4,-7.72e-4 0.02991,0.0014 0.03125,0 0.03582,-4.72e-4 0.105824,0.0011 0.1875,0 -1.53e-4,0.01395 1.37e-4,0.0173 0,0.03125 -0.06107,0.02247 -0.201913,0.05708 -0.21875,0.0625 -0.0052,0.0017 -0.06239,0.03153 -0.0625,0.03125 -0.0042,-0.01088 -0.0313,-0.09394 -0.03125,-0.09375 0,0 0.07457,-0.02622 0.09375,-0.03125 z m 0.21875,0.09375 c 8.7e-5,0.0031 -0.0028,0.05201 0,0.09375 -0.0542,0.01793 -0.09311,0.05195 -0.125,0.0625 0.0085,-0.01071 0.0858,-0.106741 0.125,-0.15625 z M 44.40625,66.375 c 0.0045,0.02349 0.01827,0.05747 0.03125,0.125 -0.004,0.0013 -0.0289,-7.79e-4 -0.03125,0 0,0 0,-0.125 0,-0.125 z"
       id="path4035"
       style="opacity:0.1;fill:#000000;fill-opacity:1;stroke:none" />
    <path
       d="m 48,23.9375 c -13.835007,0 -25.0625,11.227493 -25.0625,25.0625 0,13.835007 11.227493,25.0625 25.0625,25.0625 1.718103,0 3.397082,-0.176253 5,-0.5 a 1.0736271,1.0736271 0 0 0 0.8125,-1.25 l 5.40625,5.375 a 1.0736271,1.0736271 0 0 0 1.5,0 l 12.09375,-12 a 1.0736271,1.0736271 0 0 0 -0.75,-1.8125 l -4.9375,0 0,-1.03125 a 1.0736271,1.0736271 0 0 0 1.78125,0 C 71.543684,58.875196 73.0625,54.120241 73.0625,49 73.0625,35.164993 61.835007,23.9375 48,23.9375 z m 0,20.125 c 2.733535,0 4.9375,2.203965 4.9375,4.9375 0,2.733535 -2.203965,4.9375 -4.9375,4.9375 -2.733535,0 -4.9375,-2.203965 -4.9375,-4.9375 0,-2.733535 2.203965,-4.9375 4.9375,-4.9375 z m 18.21875,9.875 c -0.04311,-0.0024 0.199193,0.0045 0.15625,0 -0.04294,-0.0045 0.167674,0.03782 0.125,0.03125 -0.04267,-0.0066 0.198554,0.03989 0.15625,0.03125 -0.0423,-0.0086 0.198083,0.04193 0.15625,0.03125 -0.04183,-0.01068 0.166264,0.04396 0.125,0.03125 -0.04126,-0.01271 0.196847,0.04595 0.15625,0.03125 -0.0406,-0.0147 0.164834,0.07916 0.125,0.0625 -0.03983,-0.01666 0.163976,0.08107 0.125,0.0625 -0.03898,-0.01857 0.163027,0.08295 0.125,0.0625 -0.03803,-0.02045 0.193237,0.116024 0.15625,0.09375 -0.03699,-0.02227 0.129609,0.08655 0.09375,0.0625 -0.03586,-0.02405 0.159647,0.119513 0.125,0.09375 -0.03465,-0.02576 0.158353,0.121168 0.125,0.09375 -0.03335,-0.02742 0.156979,0.122759 0.125,0.09375 -0.03198,-0.02901 0.12428,0.12428 0.09375,0.09375 -0.03053,-0.03053 0.122759,0.125729 0.09375,0.09375 -0.02901,-0.03198 0.121168,0.158353 0.09375,0.125 -0.02742,-0.03335 0.119513,0.159647 0.09375,0.125 -0.02576,-0.03465 0.117797,0.160859 0.09375,0.125 -0.02405,-0.03586 0.08477,0.130737 0.0625,0.09375 -0.02227,-0.03699 0.114199,0.194277 0.09375,0.15625 -0.02045,-0.03803 0.08107,0.163976 0.0625,0.125 -0.01857,-0.03898 0.07916,0.164834 0.0625,0.125 -0.01666,-0.03983 0.0772,0.165597 0.0625,0.125 -0.0147,-0.0406 0.04396,0.197514 0.03125,0.15625 -0.01271,-0.04126 0.04193,0.166833 0.03125,0.125 -0.01068,-0.04183 0.03989,0.198554 0.03125,0.15625 -0.0086,-0.0423 0.03782,0.198924 0.03125,0.15625 -0.0066,-0.04267 0.03573,0.167943 0.03125,0.125 -0.0027,-0.02577 -0.0044,0.04015 0,0.09375 A 1.0736271,1.0736271 0 0 0 67.03125,56.5 1.0736271,1.0736271 0 0 0 66.5,55.96875 1.0736271,1.0736271 0 0 0 66.21875,53.9375 z m -10.9375,0.15625 c -0.05361,0.07632 -0.06911,0.175461 -0.125,0.25 A 1.0736271,1.0736271 0 0 0 55.375,55.875 l -1.3125,0 a 1.0736271,1.0736271 0 0 0 -0.40625,0.0625 c 0.648827,-0.529597 1.142981,-1.157044 1.625,-1.84375 z m -2,2.09375 A 1.0736271,1.0736271 0 0 0 53,56.9375 l 0,0.59375 a 1.0736271,1.0736271 0 0 0 -1.09375,-0.4375 c 0.501719,-0.24353 0.929706,-0.578187 1.375,-0.90625 z m -5.6875,5.75 c -0.01792,0.0022 0.142982,-0.0015 0.125,0 A 1.0736271,1.0736271 0 0 0 47.5,63.96875 a 1.0736271,1.0736271 0 0 0 -0.59375,1.3125 1.0736271,1.0736271 0 0 0 -1.25,1.59375 c -0.01436,-0.01798 -0.103013,-0.07435 -0.09375,-0.0625 0.01112,0.01422 -0.07309,-0.108362 -0.0625,-0.09375 0.01059,0.01461 -0.07255,-0.108738 -0.0625,-0.09375 0.01005,0.01499 -0.072,-0.109094 -0.0625,-0.09375 0.0095,0.01534 -0.04018,-0.10943 -0.03125,-0.09375 0.0089,0.01568 -0.07086,-0.109745 -0.0625,-0.09375 0.0084,0.016 -0.07027,-0.110039 -0.0625,-0.09375 0.0078,0.01629 -0.03842,-0.110311 -0.03125,-0.09375 0.0072,0.01656 -0.03781,-0.110562 -0.03125,-0.09375 0.0066,0.01681 -0.06844,-0.142039 -0.0625,-0.125 0.0059,0.01704 -0.03657,-0.110995 -0.03125,-0.09375 0.0053,0.01725 -0.03594,-0.111177 -0.03125,-0.09375 0.0047,0.01743 -0.0353,-0.142586 -0.03125,-0.125 0.004,0.01759 -0.0034,-0.111472 0,-0.09375 0.0034,0.01772 -0.03401,-0.142834 -0.03125,-0.125 0.0028,0.01783 -0.0021,-0.111673 0,-0.09375 0.0021,0.01792 -0.0327,-0.142988 -0.03125,-0.125 0.0014,0.01799 -7.93e-4,-0.111778 0,-0.09375 7.93e-4,0.01803 -1.35e-4,-0.143045 0,-0.125 1.35e-4,0.01805 5.22e-4,-0.111788 0,-0.09375 -5.22e-4,0.01804 0.0012,-0.143007 0,-0.125 -0.0012,0.01801 0.0018,-0.111702 0,-0.09375 -0.0018,0.01795 0.03374,-0.142874 0.03125,-0.125 -0.0025,0.01787 0.0031,-0.111521 0,-0.09375 -0.0031,0.01777 0.03503,-0.142645 0.03125,-0.125 -0.0038,0.01765 0.03567,-0.111245 0.03125,-0.09375 -0.0044,0.01749 0.03631,-0.142322 0.03125,-0.125 -0.0051,0.01732 0.03694,-0.110877 0.03125,-0.09375 -0.0057,0.01713 0.03756,-0.110658 0.03125,-0.09375 -0.0063,0.01691 0.03817,-0.141667 0.03125,-0.125 -0.0069,0.01667 0.07002,-0.110154 0.0625,-0.09375 -0.0075,0.0164 0.03936,-0.109869 0.03125,-0.09375 -0.0081,0.01612 0.0712,-0.109562 0.0625,-0.09375 -0.0087,0.01581 0.07177,-0.109235 0.0625,-0.09375 -0.0093,0.01548 0.07232,-0.108887 0.0625,-0.09375 -0.0098,0.01514 0.04162,-0.108519 0.03125,-0.09375 -0.01037,0.01477 0.104651,-0.108131 0.09375,-0.09375 -0.0109,0.01438 0.07392,-0.107724 0.0625,-0.09375 -0.01142,0.01397 0.07442,-0.107299 0.0625,-0.09375 -0.01192,0.01355 0.07491,-0.07561 0.0625,-0.0625 -0.01241,0.01311 0.106625,-0.106395 0.09375,-0.09375 -0.01288,0.01264 0.07583,-0.07467 0.0625,-0.0625 -0.01333,0.01217 0.107512,-0.07417 0.09375,-0.0625 -0.01376,0.01167 0.107928,-0.104914 0.09375,-0.09375 -0.01418,0.01116 0.108325,-0.07314 0.09375,-0.0625 -0.01458,0.01064 0.108703,-0.0726 0.09375,-0.0625 -0.01495,0.0101 0.07781,-0.07205 0.0625,-0.0625 -0.01531,0.0095 0.109399,-0.07149 0.09375,-0.0625 -0.01565,0.009 0.140966,-0.03966 0.125,-0.03125 -0.01597,0.0084 0.110012,-0.07032 0.09375,-0.0625 -0.01626,0.0078 0.110287,-0.03847 0.09375,-0.03125 -0.01654,0.0072 0.110539,-0.06912 0.09375,-0.0625 -0.01679,0.0066 0.142019,-0.03725 0.125,-0.03125 -0.01702,0.006 0.110976,-0.03663 0.09375,-0.03125 -0.01723,0.0054 0.111161,-0.03599 0.09375,-0.03125 -0.01741,0.0047 0.142572,-0.03536 0.125,-0.03125 -0.01757,0.0041 0.11146,-0.03471 0.09375,-0.03125 -0.01771,0.0035 0.142825,-0.0028 0.125,0 -0.01783,0.0028 0.111665,-0.03342 0.09375,-0.03125 z M 53,63.625 l 0,0.25 -0.28125,0 A 1.0736271,1.0736271 0 0 0 53,63.625 z"
       id="path4031"
       style="opacity:0.15;fill:#000000;fill-opacity:1;stroke:none" />
    <path
       d="m 48,25 c -13.254834,0 -24,10.745166 -24,24 0,13.254834 10.745166,24 24,24 1.635769,0 3.237403,-0.188184 4.78125,-0.5 L 46.5625,66.3125 A 1.9506019,1.9506019 0 0 1 47.9375,63 l 4.1875,0 0,-4.875 C 50.871512,58.690676 49.464541,59 48,59 42.477152,59 38,54.522848 38,49 c 0,-5.522848 4.477152,-10 10,-10 5.522848,0 10,4.477152 10,10 0,2.248204 -0.747665,4.329829 -2,6 l 10.0625,0 A 1.9506019,1.9506019 0 0 1 68,56.9375 L 68,62.25 C 70.525667,58.449621 72,53.905129 72,49 72,35.745166 61.254834,25 48,25 z m 0,16 c -4.418278,0 -8,3.581722 -8,8 0,4.418278 3.581722,8 8,8 4.418278,0 8,-3.581722 8,-8 0,-4.418278 -3.581722,-8 -8,-8 z m 0,2 c 3.313708,0 6,2.686292 6,6 0,3.313708 -2.686292,6 -6,6 -3.313708,0 -6,-2.686292 -6,-6 0,-3.313708 2.686292,-6 6,-6 z m 6.0625,13.9375 0,8 -6.125,0 12.03125,12 12.09375,-12 -6,0 0,-8 -12,0 z"
       inkscape:connector-curvature="0"
       id="path4025"
       style="opacity:0.3;fill:#000000;fill-opacity:1;stroke:none" />
    <path
       d="m 48,24 c -13.254834,0 -24,10.745166 -24,24 0,13.254834 10.745166,24 24,24 1.635769,0 3.237403,-0.188184 4.78125,-0.5 L 46.5625,65.3125 A 1.9506019,1.9506019 0 0 1 47.9375,62 l 4.1875,0 0,-4.875 C 50.871512,57.690676 49.464541,58 48,58 42.477152,58 38,53.522848 38,48 c 0,-5.522848 4.477152,-10 10,-10 5.522848,0 10,4.477152 10,10 0,2.248204 -0.747665,4.329829 -2,6 l 10.0625,0 A 1.9506019,1.9506019 0 0 1 68,55.9375 L 68,61.25 C 70.525667,57.449621 72,52.905129 72,48 72,34.745166 61.254834,24 48,24 z m 0,16 c -4.418278,0 -8,3.581722 -8,8 0,4.418278 3.581722,8 8,8 4.418278,0 8,-3.581722 8,-8 0,-4.418278 -3.581722,-8 -8,-8 z m 0,2 c 3.313708,0 6,2.686292 6,6 0,3.313708 -2.686292,6 -6,6 -3.313708,0 -6,-2.686292 -6,-6 0,-3.313708 2.686292,-6 6,-6 z m 6.0625,13.9375 0,8 -6.125,0 12.03125,12 12.09375,-12 -6,0 0,-8 -12,0 z"
       inkscape:connector-curvature="0"
       id="path3794"
       style="fill:url(#linearGradient4005);fill-opacity:1;stroke:none" />
    <path
       d="m 48,24 c -13.254834,0 -24,10.745166 -24,24 0,0.165582 -0.0033,0.335217 0,0.5 C 24.263839,35.473936 34.910748,25 48,25 61.058205,25 71.687717,35.423185 72,48.40625 72.0023,48.269558 72,48.137265 72,48 72,34.745166 61.254834,24 48,24 z m 0,16 c -4.418278,0 -8,3.581722 -8,8 0,0.170091 0.02079,0.332546 0.03125,0.5 C 40.292493,44.317655 43.751813,41 48,41 c 4.248187,0 7.707507,3.317655 7.96875,7.5 C 55.97921,48.332546 56,48.170091 56,48 56,43.581722 52.418278,40 48,40 z m -9.96875,8.5 C 38.023121,48.665362 38,48.832622 38,49 c 0,5.522848 4.477152,10 10,10 1.464541,0 2.871512,-0.309324 4.125,-0.875 l 0,-1 C 50.871512,57.690676 49.464541,58 48,58 42.64453,58 38.291343,53.790952 38.03125,48.5 z m 4,0.125 C 42.023779,48.747591 42,48.875529 42,49 c 0,3.313708 2.686292,6 6,6 3.313708,0 6,-2.686292 6,-6 0,-0.124471 -0.02378,-0.252409 -0.03125,-0.375 C 53.66149,51.650536 51.106601,54 48,54 44.893399,54 42.33851,51.650536 42.03125,48.625 z m 15.9375,0 C 57.844952,50.635027 57.136322,52.484549 56,54 l 0.65625,0 C 57.506287,52.528884 58,50.818834 58,49 c 0,-0.125692 -0.02665,-0.250432 -0.03125,-0.375 z m -3.90625,7.3125 0,1 12,0 0,-1 -12,0 z m -6.125,8 1,1 5.125,0 0,-1 -6.125,0 z m 18.125,0 0,1 5,0 1,-1 -6,0 z m -19.96875,0.53125 a 1.9506019,1.9506019 0 0 0 0.46875,1.84375 l 5.375,5.34375 c 0.285139,-0.04824 0.562308,-0.09941 0.84375,-0.15625 L 46.5625,65.3125 a 1.9506019,1.9506019 0 0 1 -0.46875,-0.84375 z"
       inkscape:connector-curvature="0"
       id="path4007"
       style="opacity:0.75;fill:#ffffff;fill-opacity:1;stroke:none" />
    <path
       d="m 48,37 c -5.522848,0 -10,4.477152 -10,10 0,0.167378 0.02312,0.334638 0.03125,0.5 C 38.291343,42.209048 42.64453,38 48,38 c 5.397156,0 9.771339,4.276094 9.96875,9.625 C 57.981389,47.419787 58,47.208267 58,47 58,41.477152 53.522848,37 48,37 z m 0,4 c -3.313708,0 -6,2.686292 -6,6 0,0.124471 0.02378,0.252409 0.03125,0.375 C 42.33851,44.349464 44.893399,42 48,42 c 3.106601,0 5.66149,2.349464 5.96875,5.375 C 53.976221,47.252409 54,47.124471 54,47 54,43.686292 51.313708,41 48,41 z m 24,6.40625 c -0.07988,4.747953 -1.545011,9.149721 -4,12.84375 l 0,1 c 2.525667,-3.800379 4,-8.344871 4,-13.25 0,-0.196629 0.0047,-0.398253 0,-0.59375 z M 24,47.5 c -0.0033,0.164783 0,0.334418 0,0.5 0,13.254834 10.745166,24 24,24 1.635769,0 3.237403,-0.188184 4.78125,-0.5 L 51.9375,70.65625 C 50.658509,70.872609 49.33757,71 48,71 34.910748,71 24.263839,60.526064 24,47.5 z m 16.03125,0 C 40.02079,47.667454 40,47.829909 40,48 c 0,4.418278 3.581722,8 8,8 4.418278,0 8,-3.581722 8,-8 0,-0.170091 -0.02079,-0.332546 -0.03125,-0.5 C 55.707507,51.682345 52.248187,55 48,55 43.751813,55 40.292493,51.682345 40.03125,47.5 z m 16.625,5.5 C 56.455583,53.347285 56.239175,53.681025 56,54 l 10.0625,0 A 1.9506019,1.9506019 0 0 1 68,55.8125 l 0,-0.875 A 1.9506019,1.9506019 0 0 0 66.0625,53 l -9.40625,0 z M 47.875,61 A 1.9506019,1.9506019 0 0 0 46.09375,63.4375 1.9506019,1.9506019 0 0 1 47.9375,62 l 4.1875,0 0,-1 -4.1875,0 a 1.9506019,1.9506019 0 0 0 -0.0625,0 z m 0.0625,2.9375 12.03125,12 12.09375,-12 -1,0 -11.09375,11 -11.03125,-11 -1,0 z"
       inkscape:connector-curvature="0"
       id="path4016"
       style="opacity:0.15;fill:#000000;fill-opacity:1;stroke:none" />
  </g>
</svg>
