<svg xmlns="http://www.w3.org/2000/svg" width="48" height="48">
<defs>
<defs
     id="defs4">
  </defs>
  <g
     inkscape:label="Layer 1"
     inkscape:groupmode="layer"
     id="layer1">
    <path
         d="M 6.625 10 C 4.4437601 10 2.71875 11.855151 2.71875 14.0625 L 2.71875 26.90625 C 2.71875 26.980768 2.7461169 27.051342 2.75 27.125 C 2.7430289 27.304541 2.71875 27.475029 2.71875 27.65625 L 2.71875 40.53125 C 2.7187776 40.807381 2.9426191 41.031222 3.21875 41.03125 L 32.78125 41.03125 C 40.123609 41.03125 46.249999 35.002324 46.25 27.65625 L 46.25 14.8125 C 46.249972 14.536369 46.026131 14.312528 45.75 14.3125 L 43.375 14.3125 L 43.375 14.0625 C 43.375 11.855151 41.64999 10 39.46875 10 L 6.625 10 z M 6.625 12 L 39.46875 12 C 40.527421 12 41.375 12.881546 41.375 14.0625 L 41.375 14.3125 L 15.8125 14.3125 C 11.068956 14.3125 7.0124466 16.838243 4.71875 20.59375 L 4.71875 14.0625 C 4.71875 12.881546 5.5663292 12 6.625 12 z M 23.25 17.9375 C 23.258917 17.937167 23.272169 17.937557 23.28125 17.9375 C 23.283074 17.937489 23.310673 17.9375 23.3125 17.9375 L 25.59375 17.9375 C 26.0622 17.9375 26.334219 18.395797 26.4375 18.78125 L 26.8125 20.375 C 27.259541 20.515579 27.715994 20.692353 28.125 20.90625 L 29.5 20.0625 C 29.926979 19.815985 30.387507 19.731259 30.71875 20.0625 L 32.34375 21.6875 C 32.674994 22.018743 32.543277 22.529413 32.34375 22.875 L 31.46875 24.28125 C 31.682741 24.690429 31.859393 25.115253 32 25.5625 L 33.59375 25.9375 C 34.069983 26.065104 34.4375 26.312804 34.4375 26.78125 L 34.4375 29.09375 C 34.437501 29.562197 33.979207 29.834218 33.59375 29.9375 L 32 30.3125 C 31.86044 30.756299 31.680599 31.187411 31.46875 31.59375 L 32.34375 32.96875 C 32.543278 33.314338 32.674993 33.856257 32.34375 34.1875 L 30.71875 35.8125 C 30.387507 36.143744 29.926981 36.059016 29.5 35.8125 L 28.125 34.9375 C 27.711865 35.154584 27.264576 35.357852 26.8125 35.5 L 26.4375 37.09375 C 26.334218 37.479204 26.062201 37.9375 25.59375 37.9375 L 23.3125 37.9375 C 22.844051 37.9375 22.565106 37.569976 22.4375 37.09375 L 22.09375 35.5 C 21.646644 35.359416 21.19031 35.182677 20.78125 34.96875 L 19.40625 35.8125 C 19.060659 36.012028 18.518744 36.143742 18.1875 35.8125 L 16.5625 34.1875 C 16.231255 33.856257 16.315982 33.426976 16.5625 33 L 17.4375 31.59375 C 17.223571 31.184693 17.046837 30.759603 16.90625 30.3125 L 15.28125 29.9375 C 14.895796 29.834219 14.4375 29.562197 14.4375 29.09375 L 14.4375 26.78125 C 14.4375 26.312804 14.805015 26.065104 15.28125 25.9375 L 16.90625 25.5625 C 17.047826 25.112132 17.221537 24.692992 17.4375 24.28125 L 16.5625 22.875 C 16.315982 22.448024 16.231255 21.987492 16.5625 21.65625 L 18.1875 20.03125 C 18.518744 19.700008 19.060661 19.831725 19.40625 20.03125 L 20.8125 20.90625 C 21.217269 20.695605 21.651856 20.51396 22.09375 20.375 L 22.4375 18.78125 C 22.562124 18.316146 22.802412 17.95423 23.25 17.9375 z M 23.9375 22.9375 C 21.417236 23.193701 19.437498 25.35 19.4375 27.9375 C 19.4375 30.6975 21.677498 32.9375 24.4375 32.9375 C 27.1975 32.9375 29.437498 30.6975 29.4375 27.9375 C 29.4375 25.1775 27.197498 22.9375 24.4375 22.9375 C 24.265 22.9375 24.105518 22.92042 23.9375 22.9375 z "
       id="path-main" />
  </g>
</defs>
<acyl-settings>
<linearGradient
     id="linearGradient4321">
    <stop
       style="stop-color:#FFFFFF;stop-opacity:1.0;"
       offset="1.0"
       id="stop1" />
  </linearGradient>
<linearGradient
     inkscape:collect="always"
     xlink:href="#linearGradient4321"
     id="acyl_gradient"
     x1="50.0%"
     y1="0.0%"
     x2="50.0%"
     y2="100.0%" />
<filter>
    </filter>
<use id="1" style="fill:url(#acyl_gradient);filter:url(#filter1111)" xlink:href="#path-main" />
</acyl-settings>
</svg>
