/* XPM */
static char *bluefish[] = {
/* columns rows colors chars-per-pixel */
"48 48 256 2",
"   c #000000",
".  c #0D0904",
"X  c #2D2D2D",
"o  c #665D35",
"O  c #695F36",
"+  c #304C5F",
"@  c #3F585C",
"#  c #2A4563",
"$  c #24416C",
"%  c #284568",
"&  c #2F4968",
"*  c #2C4865",
"=  c #314B66",
"-  c #3B5363",
";  c #3C5568",
":  c #224374",
">  c #23467A",
",  c #24497D",
"<  c #2A4A73",
"1  c #3F5F78",
"2  c #4D4D4D",
"3  c #5A5A5A",
"4  c #445C64",
"5  c #486166",
"6  c #4E6C68",
"7  c #466366",
"8  c #52726A",
"9  c #557F6D",
"0  c #48657F",
"q  c #446679",
"w  c #506874",
"e  c #5B7573",
"r  c #587B70",
"t  c #58787B",
"y  c #696969",
"u  c #607A76",
"i  c #627C78",
"p  c #71815F",
"a  c #56806E",
"s  c #58816F",
"d  c #5B8573",
"f  c #5F8877",
"g  c #5F8478",
"h  c #608677",
"j  c #608977",
"k  c #64857D",
"l  c #648C7B",
"z  c #698E7F",
"x  c #67907F",
"c  c #68907F",
"v  c #254D83",
"b  c #284D83",
"n  c #264F88",
"m  c #2C5487",
"M  c #27518A",
"N  c #29538D",
"B  c #2F598F",
"V  c #3C5F87",
"C  c #305789",
"Z  c #345B8D",
"A  c #285693",
"S  c #2A5996",
"D  c #2B5C9C",
"F  c #325C92",
"G  c #395F93",
"H  c #305E99",
"J  c #3C6586",
"K  c #31619F",
"L  c #3C689C",
"P  c #2C5FA1",
"I  c #2C61A4",
"U  c #2D66AA",
"Y  c #2E69AE",
"T  c #336AAD",
"R  c #3868A3",
"E  c #3D70A7",
"W  c #2F6CB3",
"Q  c #316EB6",
"!  c #306FB8",
"~  c #3172BC",
"^  c #3F78BA",
"/  c #3975BA",
"(  c #496C8B",
")  c #45698D",
"_  c #557680",
"`  c #577983",
"'  c #5E7880",
"]  c #53778E",
"[  c #59798D",
"{  c #486C96",
"}  c #486F9B",
"|  c #476D9B",
" . c #4C7096",
".. c #4C729C",
"X. c #587B97",
"o. c #436DA2",
"O. c #4770A5",
"+. c #4A74A3",
"@. c #4474A8",
"#. c #4A75AA",
"$. c #4D79AE",
"%. c #527CAC",
"&. c #4977B0",
"*. c #4D7CB4",
"=. c #4B7FBA",
"-. c #527EB2",
";. c #587FB1",
":. c #3176C2",
">. c #3278C6",
",. c #5E8093",
"<. c #688581",
"1. c #6B8D81",
"2. c #738C8C",
"3. c #738E86",
"4. c #6C9382",
"5. c #6F9886",
"6. c #729686",
"7. c #749689",
"8. c #78968E",
"9. c #759B8B",
"0. c #7A9C8D",
"q. c #698B9C",
"w. c #698797",
"e. c #718F93",
"r. c #7B8C9D",
"t. c #769790",
"y. c #799590",
"u. c #7D9E91",
"i. c #73989E",
"p. c #72969A",
"a. c #77A08E",
"s. c #78A08F",
"d. c #7BA292",
"f. c #7DA09A",
"g. c #5782A6",
"h. c #5D83AF",
"j. c #5881AB",
"k. c #4E82BF",
"l. c #5380B7",
"z. c #5883B6",
"x. c #5B88B6",
"c. c #5583B9",
"v. c #5886BC",
"b. c #5B8ABF",
"n. c #6086A6",
"m. c #688CA2",
"M. c #638CAC",
"N. c #6C8BA8",
"B. c #6385AE",
"V. c #6D94AD",
"C. c #7C9DA2",
"Z. c #6085B2",
"A. c #608DBF",
"S. c #6896BF",
"D. c #6893B3",
"F. c #719DBF",
"G. c #7292B8",
"H. c #5587C0",
"J. c #5D8DC2",
"K. c #5D94CF",
"L. c #6091C6",
"P. c #6495CA",
"I. c #6798CE",
"U. c #6A9ACD",
"Y. c #7E9FC7",
"T. c #799EC8",
"R. c #749EC6",
"E. c #6B9DD3",
"W. c #729ED0",
"Q. c #77A0CF",
"!. c #6EA1D5",
"~. c #75A6D6",
"^. c #72A5DA",
"/. c #75A8DC",
"(. c #7CABDC",
"). c #8A8A8A",
"_. c #839795",
"`. c #819E95",
"'. c #9B9B9B",
"]. c #82A495",
"[. c #82A897",
"{. c #85A699",
"}. c #86AA9B",
"|. c #8BAB9D",
" X c #8CA09D",
".X c #88B09F",
"XX c #B2B382",
"oX c #BABB88",
"OX c #829DA7",
"+X c #809FAC",
"@X c #8795A6",
"#X c #839DBD",
"$X c #8DADA0",
"%X c #8AA2A0",
"&X c #91AFA2",
"*X c #96A1AE",
"=X c #91ACAB",
"-X c #8CB4A4",
";X c #8FB8A7",
":X c #91B5A6",
">X c #90B8A7",
",X c #94B5A8",
"<X c #9CB5AD",
"1X c #92B9A8",
"2X c #9BBCAE",
"3X c #91A3B8",
"4X c #9EBDB0",
"5X c #A3A3A3",
"6X c #ABABAB",
"7X c #ABAFB4",
"8X c #A0B7B0",
"9X c #A2BEB3",
"0X c #BCBCBC",
"qX c #9DC0B1",
"wX c #BBCBAF",
"eX c #A4C2B6",
"rX c #A8C3B7",
"tX c #A7C4B8",
"yX c #ABC6BA",
"uX c #ADC9BD",
"iX c #B0CABF",
"pX c #C5D3BA",
"aX c #80A4CE",
"sX c #80AFDF",
"dX c #92AFD1",
"fX c #82B0DF",
"gX c #99B7DA",
"hX c #AEBAC9",
"jX c #AFCCC0",
"kX c #BFC0C2",
"lX c #B3CCC2",
"zX c #B7D0C7",
"xX c #B9D1C7",
"cX c #BDD4CB",
"vX c #AFC1D9",
"bX c #B9C3D0",
"nX c #C0C0C0",
"mX c #CDCDCD",
"MX c #C0D7CD",
"NX c #C2D9CF",
"BX c #C7DCD3",
"VX c #C6D0DC",
"CX c #CBD2DB",
"ZX c #D1D2D3",
"AX c #DEDEDE",
"SX c #CDE0D8",
"DX c #D4E4DD",
"FX c #D9E8E1",
"GX c #E1E1E1",
"HX c #E0ECE7",
"JX c #EFEFEF",
"KX c #E6ECF4",
"LX c #EEF2F7",
"PX c #F2F2F2",
"IX c #FFFFFF",
"UX c None",
/* pixels */
"UXUXUXUXUXUXUXUXUXUXUXUXUXUXUXUXUXUXUXUXUXUXUXUXUXUXUXUXUXUXUXUXUXUXUXUXUXUXUXUXUXUXUXUXUXUXUXUX",
"UXUXUXUXUXUXUXUXUXUXUXUXUXUXUXUXUXUXUXUXUXUXUXUXUXUXUXUXUXUXUXUXUXUXUXUXUXUXUXUXUXUXUXUXUXUXUXUX",
"UXUXUXUXUXUXUXUXUXUXUXUXUXUXUXUXUXUXUXUXUXUXUXUXUXUXUXUXUXUXUXUXUXUXUXUXUXUXUXUXUXUXUXUXUXUXUXUX",
"UXUXUXUXoXpXBXBXBXBXSXHXHXHXHXHXHXHXHXFXBXBXBXSXBXBXBXBXFXHXHXHXHXHXHXFXHXDXBXBXBXBXpXoXUXUXUXUX",
"UXUXUXXXlXqX;X;X;X;X1XjXcXBXcXBXBXcXBXcX;X1X1X1X;XqX1X1XcXBXMXNXBXcXBXBXzX1X>X;X1X;XqXjXXXUXUXUX",
"UXUXUXwX;X;X;X;X;X;X;X1XcXcXBXcXcXBXcXBXqX1X;X1X;X1X1X1XcXcXMXcXMXMXcXcX2X;X;X;X;X;X;X;XwXUXUXUX",
"UXUXUXuX;X-X;X-X;X;X;X;XqXcXcXcXcXcXBXcXqX1X;X1X;X;X1XqXcXBXNXcXMXMXcXtX;X;X;X;X;X-X-X;XtXUXUXUX",
"UXUXUXqX-X-X-X-X-X;X;X;X1XlXcXcXcXcXcXcXjX;X;X1X;X1X1XuXcXcXcXcXcXcXzX:X;X;X-X;X;X-X-X-XtXUXUXUX",
"UXUXUXeX-X-X-X-X-X;X-X;X:X2XcXcXcXcXcXcXzX1X1X>X1X1X1XlXcXcXcXcXcXcX2X;X;X;X;X-X-X-X-X-XeXUXUXUX",
"UXUXUXqX.X-X.X-X-X-X-X;X:X;XeXcXcXcXcXMXxX1X:X;X>X;X1XxXcXcXcXcXcXyX;X;X-X$X|.-X-X-X.X.XeXUXUXUX",
"UXUXUXuX-X.X.X-X-X-X-X;X:X:X;XlXxXxXxXxXxX9X:X:X>X:X2XxXxXcXxXxXzX,X;X}.C.V.s.-X.X-X}.-XeXUXUXUX",
"UXUXUXMXyX-X|..X-X-X-X;X-X;X;X1XxXxXlXlXiX9X-X;X;X:XqXxXxXxXxXxX4X-Xu.F.^.X.d.-X.X.X-XeXMXUXUXUX",
"UXUXUXMXlXlXqX-X|.-X-X-X-X$X}.$X4X9X+Xn.@.E +.j.i.$XyXlXxXxXxXyX-X].R.(.!.<.}.$X.X2XuXjXMXUXUXUX",
"UXUXUXxXuXiXiXyX:X.X$X}.p.h.x.j.@.! ! ! W H.P.J.H.%.=XlXzXlXlX:X}.V.fX^.S.8.|.-XqXjXlXjXxXUXUXUX",
"UXUXUXxXuXiXiXiXlX9X{.q.P.I.J./ ! ! ! ! H.P.E.I.J.v.L OXyXlX2X|.t.(.(.^.M.u.2XiXiXlXyXuXxXUXUXUX",
"UXUXUXzXyXyXiXiXuXyXC.P.!.K.~ ~ :.:.:.~ J.I.!.E.P.v.$.S q.2X.X}.m.(.(.^.M.,XiXiXuXiXyXyXzXUXUXUX",
"UXUXUXlXyXyXyXyXyX<Xh.L.P.! ! :.:.:.:.&.v.P.P.P.J.-.&.F P { u.u.D.fX/.~.V.8XyXjXyXyXyXyXlXUXUXUX",
"UXUXUXiXeXtXyXyXyX%Xx.Q.=.! ~ ~ :.>.>.=.l.A.aXR.c.-.#.%.P S J 7.~.sX~.^.N.<XyXyXyXyX9XyXiXUXUXUX",
"UXUXUXiXeXrXyXrX9X_.ZXVX! ! ~ :.:.:.:.W.KXIXIXIXLXhX*.Z.S S S { (.sX^.W.N.<XyXyXyXyXyX9XuXUXUXUX",
"UXUXUX4X2XeXeXeX9X`.5XF W W ! ~ :.~ :.gXPXPXPXJXmX).CXG.S A A M U.(.E.E.q.<XtXtX9XrX9X9XeXUXUXUX",
"UXUXUX}.d.d.}.1X<X_.y P W W ! ! ! ! ! dXGXGXAXAX2 X '.bXA A N n S W.U.P.2.<XtXqX,X$X[.d.}.UXUXUX",
"UXUXUX}.s.s.d.d.u.k 7XY Y W W W ! ! ! Y.ZXZXZXmX5X3 hXhXm A N n v | P.g.t.}.}.d.d.d.d.a.[.UXUXUX",
"UXUXUX[.a.s.s.d.u.<.r.U Y Y Y W W W W *.kXnXkX0X0X0X0X#XC N n n v b J.] 7.f.d.d.d.s.a.a.}.UXUXUX",
"UXUXUXd.a.9.a.s.d.6.( I I Y Y W W W W T 3X6X6X6X6X6X*X;.m n n v , , O._ 9.d.d.d.d.a.a.9.d.UXUXUX",
"UXUXUXd.9.9.a.a.s.5.J I U U U Y Y Y Y T $.@X'.'.'._.Z.#.> n n , , > G ' 9.d.d.s.a.9.9.9.d.UXUXUX",
"UXUXUXd.9.9.9.9.0.7.q P I I U U U U U U R #.;.N.B.%.#.F : n b , > : O.' 9.u.s.0.a.a.9.9.d.UXUXUX",
"UXUXUXs.5.5.9.9.9.9.e P I I I I P I I P D A o.#.#.O.C : v v , , > > ;.[ u.u.0.t.9.5.5.5.0.UXUXUX",
"UXUXUX9.5.a.d.}.&X&X2.S P P P P P P P D D S n v , > , b v v , : : C $...{.,X:X$X}.d.9.5.9.UXUXUX",
"UXUXUX}.-X&X&X&X:X&X8.L D P P P P P D S S S A H N M v v , > > : : o.#.#.w.&X,X&X-X:X&X{.{.UXUXUX",
"UXUXUX$X}.$X&X&X&X{.N.^.*.K S D D S S S R *.L.P.M v v v > : : : 4 w | #.+.e.|.&X|.$X$X|.&XUXUXUX",
"UXUXUX|.|.|.|.|.&X_.X.J.J.J.=.-.*.#.=.J.b.b.P.o.v v , , > : : * e <.u 0 {  .8.|.|.|.|.|.$XUXUXUX",
"UXUXUX|.{.{.|.|.|.`.' -.#.$.#.#.#.#.#.$.-.J.$.v v , > : : : $ 6 z 4.3.<.i i 3.{.|.|.|.{.{.UXUXUX",
"UXUXUX{.{.{.{.}.}.{.k ..;.+.| } O.#.%.-.-.o.v > > > : : $ % 5 k 4.5.4.4.4.d.{.{.|.{.{.{.].UXUXUX",
"UXUXUX].].].].{.].0.k 6 ) #.#.#.#.#.#.o.m v > > > > : $ = u z 4.4.5.4.5.5.4.0.}.{.].].].].UXUXUX",
"UXUXUX].].].].s.c c c h 6 4 1 V F F b , > > > : : : $ - u 8.].c 4.4.4.4.5.4.c 4.s.].].].].UXUXUX",
"UXUXUX0.s.0.4.x c c c c l g r 6 4 < > : > : : : $ * 5 ' 0.].].7.4.1.4.4.c c c x z 6.s.0.0.UXUXUX",
"UXUXUX0.6.l j x x x x z z x l 1.1.e 4 - = % # + 4 6 z 0.].].].].4.x c c x x x l x j l 9.0.UXUXUX",
"UXUXUXl f f j j j j j z l z 1.9.0.6.3.k i 8 8 r u h 4.0.u.0.`.s.9.x l x l l x j j j j f 4.UXUXUX",
"UXUXUXj f f f f f j j z j l 5.0.0.0.0.8.7.l j l l l l 0.0.0.0.0.a.4.l l l j j j j f f f j UXUXUX",
"UXUXUXh d d d f f f j j j l 9.9.0.7.9.9.6.j l j j j l 6.0.9.8.7.9.7.j j j f j f f d f d d UXUXUX",
"UXUXUXd d d d d f f f f d 6.6.6.6.6.6.6.z h j d j j h c 6.6.6.6.6.7.4.j f d d d d d s d f UXUXUX",
"UXUXUXd s s s d s s d d j 4.4.4.6.6.z 6.j s d d s s h j 4.4.4.4.z c 6.j d d d s d s s s s UXUXUX",
"UXUXUXp s s s s s s s d z z 4.z z z z z d s d s s d s h z 4.6.z c z z z d s s d s s a s p UXUXUX",
"UXUXUXO s s 9 9 a a a j z l l z z l z l 9 s s 9 s s 9 r l z l l z z l z d s 9 s s 9 s s O UXUXUX",
"UXUXUX. o p d h h l z 7.7.7.0.0.0.0.0.0.7.7.7.7.0.7.7.6.0.0.0.0.0.0.7.6.7.l j h j d p O . UXUXUX",
"UXUXUXUXUX                                                                            UXUXUXUXUX",
"UXUXUXUXUXUXUXUXUXUXUXUXUXUXUXUXUXUXUXUXUXUXUXUXUXUXUXUXUXUXUXUXUXUXUXUXUXUXUXUXUXUXUXUXUXUXUXUX",
"UXUXUXUXUXUXUXUXUXUXUXUXUXUXUXUXUXUXUXUXUXUXUXUXUXUXUXUXUXUXUXUXUXUXUXUXUXUXUXUXUXUXUXUXUXUXUXUX"
};
