/* XPM */
static char *browser[] = {
/* columns rows colors chars-per-pixel */
"48 48 212 2",
"   c #000000",
".  c #000408",
"X  c #7C2530",
"o  c #10375A",
"O  c #11385E",
"+  c #61354A",
"@  c #67425B",
"#  c #514D69",
"$  c #485377",
"%  c #614C65",
"&  c #A91B1E",
"*  c #B71616",
"=  c #B51718",
"-  c #AB2329",
";  c #BF2424",
":  c #AA3131",
">  c #C91515",
",  c #C11A1B",
"<  c #F21919",
"1  c #DF2024",
"2  c #F6362A",
"3  c #EB3B31",
"4  c #F6523B",
"5  c #F9523A",
"6  c #8D3340",
"7  c #AF3242",
"8  c #91444A",
"9  c #A64E5C",
"0  c #836A71",
"q  c #846E7A",
"w  c #8F6B79",
"e  c #BE6960",
"r  c #D04140",
"t  c #E65241",
"y  c #E66957",
"u  c #C27673",
"i  c #19568F",
"p  c #1D5D9B",
"a  c #205282",
"s  c #2C5583",
"d  c #2C5A87",
"f  c #245B8F",
"g  c #355C82",
"h  c #25629A",
"j  c #356898",
"k  c #1D61A1",
"l  c #1E65A9",
"z  c #1F69AE",
"x  c #1D69B1",
"c  c #196DBC",
"v  c #1E71BE",
"b  c #266AAA",
"n  c #2C6EAD",
"m  c #356FA6",
"M  c #3D76AB",
"N  c #266FB4",
"B  c #2C71B3",
"V  c #2272BD",
"C  c #2877BF",
"Z  c #3E7BB6",
"A  c #3377B8",
"S  c #337BBE",
"D  c #397CBD",
"F  c #456786",
"G  c #4C6E8D",
"H  c #536283",
"J  c #57738E",
"K  c #416A93",
"L  c #4E769D",
"P  c #7B6484",
"I  c #716C8D",
"U  c #667196",
"Y  c #647C92",
"T  c #4072A0",
"R  c #4979A5",
"E  c #4177AF",
"W  c #507AA2",
"Q  c #417CB4",
"!  c #707FA7",
"~  c #2374C1",
"^  c #2778C4",
"/  c #2A7AC5",
"(  c #2E7EC8",
")  c #317DC4",
"_  c #327FC8",
"`  c #846683",
"'  c #977B80",
"]  c #6A8095",
"[  c #798999",
"{  c #5383AE",
"}  c #4D81B1",
"|  c #4481BC",
" . c #4E86B9",
".. c #4E88BF",
"X. c #5587B5",
"o. c #5A87B2",
"O. c #5A89B5",
"+. c #5086BB",
"@. c #578ABA",
"#. c #638AAF",
"$. c #6A86B1",
"%. c #618BB3",
"&. c #6890B4",
"*. c #6F99BF",
"=. c #3780C4",
"-. c #3C83C5",
";. c #3382CB",
":. c #3A85CC",
">. c #3E88CE",
",. c #3A87D0",
"<. c #3E8AD2",
"1. c #4386C6",
"2. c #4F8BC2",
"3. c #4387C8",
"4. c #458ACB",
"5. c #4C8DCA",
"6. c #578DC1",
"7. c #5E93C6",
"8. c #5B95CB",
"9. c #5E98CD",
"0. c #438DD3",
"q. c #4B8FD0",
"w. c #4691D6",
"e. c #4C92D4",
"r. c #4C95DA",
"t. c #4F98DC",
"y. c #5295D4",
"u. c #5897D1",
"i. c #5699D6",
"p. c #5B99D3",
"a. c #5197D9",
"s. c #539ADD",
"d. c #5C9DDA",
"f. c #6493C0",
"g. c #6399CC",
"h. c #719AC0",
"j. c #639DD3",
"k. c #6C9FD0",
"l. c #609FDA",
"z. c #5FA0DD",
"x. c #7DA1C1",
"c. c #65A0D7",
"v. c #63A3DE",
"b. c #6AA5DD",
"n. c #6FA8DE",
"m. c #79A9D6",
"M. c #75AADB",
"N. c #7DADD9",
"B. c #569DE0",
"V. c #589FE1",
"C. c #5DA1E2",
"Z. c #65A5E1",
"A. c #68A7E2",
"S. c #6BAAE3",
"D. c #73ADE4",
"F. c #7AAFE1",
"G. c #76B0E6",
"H. c #7AB2E6",
"J. c #7DB4E8",
"K. c #828492",
"L. c #8E9AA7",
"P. c #999FA5",
"I. c #B09DA3",
"U. c #ABADAE",
"Y. c #AEB4BA",
"T. c #B4B4B5",
"R. c #B7BBBF",
"E. c #82A5C4",
"W. c #99AFC4",
"Q. c #9BB3C9",
"!. c #82B1DE",
"~. c #A3AEC1",
"^. c #A0B1C2",
"/. c #80B4E4",
"(. c #88B5E0",
"). c #8EBDE8",
"_. c #91BDE7",
"`. c #99BFE3",
"'. c #BDC6CF",
"]. c #B3C2D1",
"[. c #93C1ED",
"{. c #99C4ED",
"}. c #A0C5E7",
"|. c #A2C6E9",
" X c #A4C9ED",
".X c #AACBEB",
"XX c #B0CEEA",
"oX c #B3D1ED",
"OX c #BAD4ED",
"+X c #B7D5F1",
"@X c #B9D5F1",
"#X c #C6C7C7",
"$X c #CCCCCC",
"%X c #C5CDD5",
"&X c #D1D6DA",
"*X c #DCDCDC",
"=X c #C1D8EE",
"-X c #DADEE0",
";X c #C5DDF3",
":X c #C9DFF4",
">X c #DFE0E2",
",X c #D3E4F5",
"<X c #D8E7F5",
"1X c #DDEAF7",
"2X c #E6E6E6",
"3X c #EAEAEA",
"4X c #E2EEF9",
"5X c #EAF2FA",
"6X c #F6F6F6",
"7X c #F6F9FD",
"8X c #FEFFFF",
"9X c None",
/* pixels */
"9X9X9X9X9X9X9X9X9X9X9X9X9X9X9X9X9X9X9X9X9X9X9X9X9X9X9X9X9X9X9X9X9X9X9X9X9X9X9X9X9X9X9X9X9X9X9X9X",
"9X9X9X9X9X9X9X9X9X9X9X9X9X9X9X9X9X9X9X9X9X9X9X9X9X9X9X9X9X9X9X9X9X9X9X9X9X9X9X9X9X9X9X9X9X9X9X9X",
"9X9X9X9X9X9X9X9X9X9X9X9X9X9X9X9X9X9X9X9X9X9X9X9X9X9X9X9X9X9X9X9X9X9X9X9X9X9X9X9X9X9X9X9X9X9X9X9X",
"9X9X9X9Xh.(.[.[.[.[.[.[.[.[.[.[.[.[.{.{.{.{.{.[.{.{.{.[.[.[.[.[.[.[.[.[.[.[.[.[.[.[./.h.9X9X9X9X",
"9X9X9X%.J.A.C.C.C.C.C.C.C.C.C.B.C.V.Z.S.S.S.S.G.S.C.V.B.C.V.V.V.B.B.C.C.C.B.B.B.V.V.Z.J.%.9X9X9X",
"9X9X9XN.C.Z.Z.C.C.C.C.Z.S.Z.C.C.B.V.C.S.G.S.S.S.S.C.B.B.V.V.V.V.B.B.B.B.B.C.B.B.V.V.V.V.m.9X9X9X",
"9X9X9XD.B.C.Z.Z.B.B.C.C.C.S.S.C.B.B.B.C.S.S.G.S.S.C.B.B.B.B.B.B.B.B.B.B.C.C.B.B.B.B.B.B.D.9X9X9X",
"9X9X9XG.C.C.C.C.B.C.C.B.C.B.A.S.B.B.t.C.S.S.S.S.S.C.t.B.t.B.B.B.t.B.B.Z.S.S.Z.B.B.B.B.B.D.9X9X9X",
"9X9X9XG.Z.Z.Z.Z.Z.Z.S.A.Z.B.C.S.Z.B.B.C.S.D.S.H.S.V.B.B.B.B.t.B.s.t.Z.S.S.A.A.Z.B.C.Z.Z.D.9X9X9X",
"9X9X9XG.Z.Z.Z.Z.Z.S.S.C.s.t.Z.S.C.t.t.Z.S.S.C.{.[.B.Z.C.r.t.t.r.s.V.A.S.Z.S.Z.B.Z.Z.Z.Z.G.9X9X9X",
"9X9X9XD.Z.Z.Z.A.A.A.Z.t.C.r.B.A.V.t.t.B.D.S.t.:X:Xt.C.B.t.t.r.t.s.Z.S.d.d.j.Z.Z.Z.Z.Z.Z.D.9X9X9X",
"9X9X9XD.Z.Z.Z.A.A.Z.B.t.t.s.C.t.t.t.t.r.C.C.s.7X7Xt.r.r.t.r.t.r.Z.S.b.+.P @.b.A.A.Z.Z.Z.D.9X9X9X",
"9X9X9XD.Z.Z.Z.A.A.A.r.r.r.s.S.Z.s.r.r.r.r.r.D.8X8XD.r.r.r.r.r.r.d.v.! 7 K 9.A.A.A.Z.Z.Z.D.9X9X9X",
"9X9X9XD.Z.v.A.Z.A.S.Z.t.r.s.D.S.S.s.w.r.w.r..X8X8X.Xw.r.r.r.B.w.3.` 1 $ 6.b.A.A.Z.A.Z.Z.D.9X9X9X",
"9X9X9XS.v.v.A.A.A.A.A.A.s.z.S.S.S.S.r.r.w.r.1X8X8X1Xw.r.r.s.Z.| 9 < @ X.b.A.A.A.A.Z.v.Z.D.9X9X9X",
"9X9X9XD.Z.v.Z.Z.A.A.A.S.A.A.S.J.G.A.t.0.w.s.8X8X8X8Xs.w.w.w.$.r < 6 { j.S.A.A.A.Z.A.v.v.S.9X9X9X",
"9X9X9XA.v.v.A.A.A.A.S.S.S.S.S.D.4X_.A.w.s.@X8X8X8X8XOXs.1.I 3 < - L 9.A.S.n.A.A.A.v.v.v.D.9X9X9X",
"9X9X9Xn.v.v.v.v.A.A.b.A.S.S.S.S. X8X1X+X7X8X8X8X8X8X7X-Xu 2 < , H f.A.S.A.v.z.s.v.v.s.v.S.9X9X9X",
"9X9X9Xv.v.Z.v.A.v.A.A.S.S.S.S.a.w.4X8X8X8XoXF.i.s.m.~.y 2 < > % Q y.a.A.A.d.w.w.v.d.s.v.A.9X9X9X",
"9X9X9Xz.v.v.v.A.Z.n.A.A.S.S.s.<.<.XX8X5Xn.<.<.<.-.U t 2 < > 8 m >.w.s.s.s.A.Z.v.Z.v.0.v.b.9X9X9X",
"9X9X9Xe.z.v.v.v.v.A.n.A.S.v.<.0.a.7X8Xb.<.<.>.D w 4 2 < > : T.g.z.r.<.<.<.e.s.v.v.Z.d.v.Z.9X9X9X",
"9X9X9Xw.<.z.v.v.Z.A.A.A.S.0.>.w.OX8XoX<.,.:.Q e 5 2 < > & K.*X;XH.A.a.e.e.e.s.A.v.v.v.v.v.9X9X9X",
"9X9X9Xe.:.r.z.v.v.z.<.w.J.}.<X8X8X8XM.,.:.Z I.5 2 < > = # E.6X8X8X4X@X).A.A.v.v.v.v.y.d.v.9X9X9X",
"9X9X9X0.,.:.>.z.F.[.@X7X8X8X8X8X8X8Xe.:.A ].3X' ; > = + X.M.8X8X8X8X8X8X7X,X Xn.v.v.d.e.e.9X9X9X",
"9X9X9X0.;.,.:.<.G.{.:X6X8X8X8X8X8X8Xe.S E.3X3XT.0 * X M g.H.8X8X8X8X8X8X6X,X Xv.d.v.v.s.0.9X9X9X",
"9X9X9X<.;.;.,.;.;.0.z.v.b.{.1X8X8X8Xk.X.3X3X2X$X#Xq s 2.n.{.8X8X8X4X+X).A.Z.v.v.y.d.e.,.>.9X9X9X",
"9X9X9X:.;.;.;.;.;.;.;.e.y.:.0.d.OX6XQ.*X3X2X$X#XL.d n 4.A.;X8X:XG.A.v.Z.v.v.v.z.d.0.;.;.:.9X9X9X",
"9X9X9X:.;.;.;.;.;.;.;.;.;.y.v.A.D.-X*X3X2X$X#X] f B ) ;.G.8X8XA.A.v.Z.v.v.v.z.z.d.s.;.;.:.9X9X9X",
"9X9X9X;.;.;.;.;.;.;.( ;.;.e.Z.b.9.'.3X2X$XR.F h B ) ;.j.5X8X.X;.;.v.v.v.v.z.v.d.d.:._ ;.;.9X9X9X",
"9X9X9X;.( ( ( ( ( ( ( ( ( d.v.p.x.3X2X$XT.[ o.| 4.b.XX8X8X8X1X_ ;.e.v.z.z.j.d.d.4._ ( ( ;.9X9X9X",
"9X9X9X;.( ( ( / ( ( ( ( ( d.p.f.>X2X$XP.U.*X6X8X8X8X8X7X.X4X8X!.;.:.v.d.d.d.d.i.( ( ( ( _ 9X9X9X",
"9X9X9X( / / ( / ( / / / ( :.6.%X2X#XY R g.=X8X8X8X8XXX>./ ( !.<X=.;.d.d.d.d.s.a.( / ( / ( 9X9X9X",
"9X9X9X/ / / / / / / / / ^ N W.2XY.G } 8.l.n.8X8X8X8X:./ / / / ;.0._ d.d.i.i.i.y.^ >.( / / 9X9X9X",
"9X9X9X/ ^ ^ / ^ ^ ^ / ^ V %.2XL.K  .u.d.z.d.<X8X8X<X/ ^ ^ / ^ ^ ^ / i.i.i.y.i._ / q./ ^ ^ 9X9X9X",
"9X9X9X/ ^ ^ ^ ^ ^ ^ ^ V E &XJ j +.u.p.d.p.;.{.8X8X`.^ ^ ^ ^ ^ ^ ^ ^ q.i.y.y.0.^ / _ ^ ^ / 9X9X9X",
"9X9X9X^ ^ ^ ~ ^ ^ ^ ~ b Y.g p 1.y.i.s.i./ ^ 8.8X8Xu.^ ~ ~ ^ ~ ^ ~ ^ _ y.y.y._ ~ ^ ~ ^ ~ ^ 9X9X9X",
"9X9X9X~ ~ ~ ~ ~ ~ ~ N W a k V q.y.y.i.:.~ ~ ~ 7X7X~ ~ ~ ~ ~ ~ ~ ~ ^ ^ q.q.:.~ ~ ~ ~ ~ ~ ~ 9X9X9X",
"9X9X9X~ ~ ~ ~ ~ ~ c p i l c ^ e.y.e._ V ~ ~ ~ OXOX~ ~ ~ ~ ~ ~ ~ ~ ~ ~ ^ ^ ~ ~ ~ ~ ~ ~ ~ ~ 9X9X9X",
"9X9X9X~ ~ ~ ~ v ~ V x x v ~ / 5.5.;.V ~ ~ ~ V N.N.v V ~ v ~ v ~ ~ v ~ v ~ ~ v ~ ~ v ~ ~ ~ 9X9X9X",
"9X9X9X~ v v v v v c v v v v ) 4.>.v v v v v c >.>.V v v v v v v v v v v v v v v v v c ~ ~ 9X9X9X",
"9X9X9XV v v v c c ~ c v c c _ 4.~ c V v v v c v v v v c v v c v v v c c c V c c c ~ v v V 9X9X9X",
"9X9X9Xv v c c c c c c c c ~ / >.c c c c v c c c v c c c c c v c c v c c v v c c c c v c V 9X9X9X",
"9X9X9Xk c c c c c c c c c c V ) c c c c c c c c c c c c c c c c c c c c c c c c c c c c k 9X9X9X",
"9X9X9XO V c c c c c c c c c c c c c c c c c c c c c c c c c c c c c c c c c c c c c c c O 9X9X9X",
"9X9X9X. o b V C C ) ) ) ) ) -.-.-.1.4.4.4.5.5.5.5.5.5.4.4.1.1.-.-.=.=.) ) ) S / C ~ k o . 9X9X9X",
"9X9X9X9X9X                                                                            9X9X9X9X9X",
"9X9X9X9X9X9X9X9X9X9X9X9X9X9X9X9X9X9X9X9X9X9X9X9X9X9X9X9X9X9X9X9X9X9X9X9X9X9X9X9X9X9X9X9X9X9X9X9X",
"9X9X9X9X9X9X9X9X9X9X9X9X9X9X9X9X9X9X9X9X9X9X9X9X9X9X9X9X9X9X9X9X9X9X9X9X9X9X9X9X9X9X9X9X9X9X9X9X"
};
