/* XPM */
static char *ccc_large[] = {
/* columns rows colors chars-per-pixel */
"48 48 67 1",
"  c #000000",
". c #0B0202",
"X c #373737",
"o c #3C3C3C",
"O c #571A1A",
"+ c #5A1B1B",
"@ c #563232",
"# c #444444",
"$ c #4B4B4B",
"% c #535353",
"& c #595959",
"* c #D50B0B",
"= c #D61414",
"- c #EE0D0D",
"; c #E31717",
": c #EF1515",
"> c #E41B1B",
", c #EF1919",
"< c #F11414",
"1 c #F21C1C",
"2 c #FA1E1E",
"3 c #E62121",
"4 c #E12929",
"5 c #EA2A2A",
"6 c #F42323",
"7 c #FD2424",
"8 c #F72929",
"9 c #FA2C2C",
"0 c #EA3737",
"q c #FA3131",
"w c #F63A3A",
"e c #FB3B3B",
"r c #C24D4D",
"t c #D25656",
"y c #DC5F5F",
"u c #E14C4C",
"i c #FC4343",
"p c #FD4A4A",
"a c #E25252",
"s c #E65C5C",
"d c #EB5A5A",
"f c #FD5656",
"g c #F45F5F",
"h c #FB5D5D",
"j c #E06E6E",
"k c #FB6060",
"l c #F46D6D",
"z c #FA6F6F",
"x c #E27272",
"c c #EE7A7A",
"v c #F77272",
"b c #F87676",
"n c #F07A7A",
"m c #FE7A7A",
"M c #E68787",
"N c #F18F8F",
"B c #F49292",
"V c #F6BEBE",
"C c #FABFBF",
"Z c #FAC0C0",
"A c #F3CECE",
"S c #F4D1D1",
"D c #FAD2D2",
"F c #FCE1E1",
"G c #FCEAEA",
"H c #FFFFFF",
"J c None",
/* pixels */
"JJJJJJJJJJJJJJJJJJJJJJJJJJJJJJJJJJJJJJJJJJJJJJJJ",
"JJJJJJJJJJJJJJJJJJJJJJJJJJJJJJJJJJJJJJJJJJJJJJJJ",
"JJJJJJJJJJJJJJJJJJJJJJJJJJJJJJJJJJJJJJJJJJJJJJJJ",
"JJJJtlmmmmmmmmmmmmmmmmmmmmmmmmmmmmmmmmmmmmvtJJJJ",
"JJJrfq772777777777777777777777777777777777qfrJJJ",
"JJJd7272777777777777777797777797777727777227dJJJ",
"JJJp2227777797779799979979777779777777772272pJJJ",
"JJJi2272777799999797979779999997999977777222iJJJ",
"JJJi2777777989999999999999999999999997777272iJJJ",
"JJJi22277899999q99q99q9999q99qq9q99999877722iJJJ",
"JJJi222779999q9qqq9qq99qq9q9q99qq9q999777222eJJJ",
"JJJe22768789q9qqqqqqqqqqqqqqqqqqq9q999977272eJJJ",
"JJJe272778999qq999qmFGzqkDHHHHHHHHSk9hBNf622eJJJ",
"JJJq22278989999q9qmHHHG9DHHHHHHHHHHD9B66N222eJJJ",
"JJJe122688989q999mHHHHHqSHHHHHHHHHHS9Z88V212eJJJ",
"JJJq22267889999qnHHHHHH9sSHHHHHHHHSs8HCCH122qJJJ",
"JJJq<2267888998vHHHHHHH89544HHHH44589HHHH221qJJJ",
"JJJq2216678888bHHHHHHHH89888HHHH88888HHHH22<qJJJ",
"JJJ9<22167888nHHHHHHHHH88888HHHH88888HHHH21<9JJJ",
"JJJ82<126668bHHHHHxHHHH88888HHHH88888HHHH2<28JJJ",
"JJJ8<222266vHHHHHx6HHHH86888HHHH86868HHHH1<28JJJ",
"JJJ8<2<266vHHHHHx68HHHH88666HHHH68686HHHH12<8JJJ",
"JJJ6<<112lHHHHHMSDwHHHH66668HHHH66666HHHH1<<7JJJ",
"JJJ2<<<1lHHHHHjcHHnHHHH66666HHHH66666HHHH<<<1JJJ",
"JJJ2<<1gHHHHHj60SS0HHHH66666HHHH66666HHHH<<<2JJJ",
"JJJ1<<<SHHHHx,66336HHHH66666HHHH66,6,HHHH<<<1JJJ",
"JJJ<<<<AHHHx36666,2SHHD26,66AHHA66166SHHA<<<1JJJ",
"JJJ1-<<uAAy,1111,62tAAt6,66,aAAt,616,aAAu<<<<JJJ",
"JJJ<<-<<;;11,6,,66,6>>,,,66,1>>6,6,,,1>;<:-<:JJJ",
"JJJ--<<<1<,1,,66,,,,6,6,6,,611,1,66,111<1<<-<JJJ",
"JJJ<-<<<:1,,,,,,,,,66,1,,,,,6,,11,,,,,1:<<--<JJJ",
"JJJ---:<:1,,6,6,,,,,1,,,,,,,,1,,,,11:1:<:-<--JJJ",
"JJJ----::::,,:,,,,,,,,,,,,,,,,,,,,,,,::::----JJJ",
"JJJ----:-::::1:::,,::,,::,,::,,:,:,::,:::----JJJ",
"JJJ----:::::,,,:,:,:,,:,:,:,,,,,,,::::::-:---JJJ",
"JJJ******=============================*=*****JJJ",
"JJJ%$%%%&%%&&&&&&&&&&%&&&&&&&&&&&&&&&&&%%%%$%JJJ",
"JJJ#####$$$$$$$$$$$%$%$$$$$$$$$$$$$$$$$$$####JJJ",
"JJJ########$$$$$$$$$$$$#$$#$$$$$$$$$$########JJJ",
"JJJ##o########$#####$#$##$#$#$##########o##o#JJJ",
"JJJ#ooooo###########o#############o####o#ooooJJJ",
"JJJoooooooooooooooo##ooooooooooooo#ooooooooooJJJ",
"JJJ@ooXooooooooooooooooooooooooooooooooooXoo@JJJ",
"JJJOooXXXXXXXoXooXXoXoXXXoXoXoXoXooXXXXoXXXo+JJJ",
"JJJ.O@#####$$$$%&%%&&&&&&&&&%%%%$%$$$####o@+.JJJ",
"JJJJJ                                      JJJJJ",
"JJJJJJJJJJJJJJJJJJJJJJJJJJJJJJJJJJJJJJJJJJJJJJJJ",
"JJJJJJJJJJJJJJJJJJJJJJJJJJJJJJJJJJJJJJJJJJJJJJJJ"
};
