/* XPM */
static char *control_center2[] = {
/* columns rows colors chars-per-pixel */
"48 48 222 2 ",
"   c #000000",
".  c #1C2A39",
"X  c #7E6031",
"o  c #253244",
"O  c #2D3D50",
"+  c #304864",
"@  c #3B536D",
"#  c #345273",
"$  c #3D5774",
"%  c #3E5875",
"&  c #395678",
"*  c #3C5A7C",
"=  c #535046",
"-  c #454A50",
";  c #40505F",
":  c #5A5B54",
">  c #6B5B41",
",  c #6D6D5E",
"<  c #455563",
"1  c #465769",
"2  c #46586B",
"3  c #4A596A",
"4  c #445B75",
"5  c #415D7E",
"6  c #5E6368",
"7  c #476079",
"8  c #4A627E",
"9  c #5B6673",
"0  c #596979",
"q  c #646660",
"w  c #646E7B",
"e  c #61717D",
"r  c #6D757D",
"t  c #707474",
"y  c #B6781B",
"u  c #85652F",
"i  c #926B2E",
"p  c #836633",
"a  c #836B36",
"s  c #866F3A",
"d  c #946F33",
"f  c #9D793C",
"g  c #BA7F21",
"h  c #947E4C",
"j  c #877B53",
"k  c #927C51",
"l  c #7D8176",
"z  c #BE801B",
"x  c #DD8707",
"c  c #DE8708",
"v  c #DD8C0E",
"b  c #ED8B06",
"n  c #E38D0D",
"m  c #EE8E09",
"M  c #F99605",
"N  c #F2910B",
"B  c #FA9909",
"V  c #E49311",
"C  c #E39814",
"Z  c #E59C1B",
"A  c #F99710",
"S  c #F39C17",
"D  c #F09A1A",
"F  c #FCA413",
"G  c #FEAC1A",
"H  c #FFB31F",
"J  c #FEBA1F",
"K  c #C38422",
"L  c #D6A13B",
"P  c #E5A324",
"I  c #E6A72D",
"U  c #F1A427",
"Y  c #FBA624",
"T  c #FEAF28",
"R  c #FFB621",
"E  c #FFBB23",
"W  c #FEB32C",
"Q  c #FFBC2B",
"!  c #E7AA33",
"~  c #E8AB37",
"^  c #E9AC38",
"/  c #F3AD32",
"(  c #ECB036",
")  c #FCB336",
"_  c #FFBE33",
"`  c #FEBC38",
"'  c #FFC226",
"]  c #FFC32A",
"[  c #FFC929",
"{  c #FEC637",
"}  c #FEC23B",
"|  c #968452",
" . c #998756",
".. c #9B8957",
"X. c #928862",
"o. c #DDA842",
"O. c #E0AB45",
"+. c #E3AE48",
"@. c #F5B842",
"#. c #FCBD44",
"$. c #F1BD49",
"%. c #F0BC51",
"&. c #FDC544",
"*. c #FECA41",
"=. c #FCC54E",
"-. c #FFD34C",
";. c #F1C153",
":. c #FCC550",
">. c #FDCB5A",
",. c #FED854",
"<. c #415F82",
"1. c #446284",
"2. c #4A6584",
"3. c #4E6984",
"4. c #476688",
"5. c #496689",
"6. c #4C6A8C",
"7. c #526A85",
"8. c #536E8C",
"9. c #53708F",
"0. c #59718C",
"q. c #4E6D91",
"w. c #516E92",
"e. c #547294",
"r. c #597695",
"t. c #5F7896",
"y. c #557599",
"u. c #597799",
"i. c #5C7A9C",
"p. c #657282",
"a. c #627488",
"s. c #6F7C8E",
"d. c #607791",
"f. c #647B93",
"g. c #627D9C",
"h. c #5E7DA1",
"j. c #617EA1",
"k. c #7C8289",
"l. c #7B8693",
"z. c #6382A5",
"x. c #6A85A5",
"c. c #6C88A7",
"v. c #6684A9",
"b. c #6986AA",
"n. c #6C8AAD",
"m. c #7087A1",
"M. c #7E8EA3",
"N. c #718DAD",
"B. c #7E92AA",
"V. c #6D8CB1",
"C. c #718FB2",
"Z. c #6F90B4",
"A. c #7492B5",
"S. c #7894B6",
"D. c #7595BA",
"F. c #7996BA",
"G. c #7798BD",
"H. c #7C9BBD",
"J. c #7D9EC2",
"K. c #7FA1C6",
"L. c #828A94",
"P. c #8A8E92",
"I. c #838F9D",
"U. c #89929D",
"Y. c #939393",
"T. c #9E9E9E",
"R. c #8F99A7",
"E. c #8292AA",
"W. c #8F9AAA",
"Q. c #969EA8",
"!. c #8199B3",
"~. c #8D9FB1",
"^. c #819EBD",
"/. c #8A9FB9",
"(. c #8BA0B9",
"). c #93A2B5",
"_. c #96A5B9",
"`. c #A3A3A3",
"'. c #ADADAD",
"]. c #A9AEB5",
"[. c #AFB0B0",
"{. c #A7B1BE",
"}. c gray70",
"|. c #B2B7BE",
" X c #B6B9BD",
".X c #BBBBBB",
"XX c #819EC2",
"oX c #82A1C5",
"OX c #89A5C5",
"+X c #8CA8C7",
"@X c #83A4CA",
"#X c #88A7C9",
"$X c #87A8CE",
"%X c #8AA9CD",
"&X c #95ACC4",
"*X c #93AECC",
"=X c #97B0CC",
"-X c #86A8D0",
";X c #89ABD2",
":X c #94B2D6",
">X c #9DB7D4",
",X c #98B6D8",
"<X c #9FB9D9",
"1X c #A1B1C5",
"2X c #A9B5C3",
"3X c #A9B7C8",
"4X c #A6BDD5",
"5X c #BCC2CB",
"6X c #B2C6DD",
"7X c #AFC8E5",
"8X c #B0C7E2",
"9X c #B0C8E5",
"0X c #C4C4C4",
"qX c gray80",
"wX c #CED2D8",
"eX c #D5D5D5",
"rX c #DCDCDC",
"tX c #DFE0E2",
"yX c #E3E3E3",
"uX c #EBEBEB",
"iX c gray95",
"pX c None",
/* pixels */
"pXpXpXpXpXpXpXpXpXpXpXpXpXpXpXpXpXpXpXpXpXpXpXpXpXpXpXpXpXpXpXpXpXpXpXpXpXpXpXpXpXpXpXpXpXpXpXpX",
"pXpXpXpXpXpXpXpXpXpXpXpXpXpXpXpXpXpXpXpXpXpXpXpXpXpXpXpXpXpXpXpXpXpXpXpXpXpXpXpXpXpXpXpXpXpXpXpX",
"pXpXpXpXpXpXpXpXpXpXpXpXpXpXpXpXpXpXpXpXpXpXpXpXpXpXpXpXpXpXpXpXpXpXpXpXpXpXpXpXpXpXpXpXpXpXpXpX",
"pXpXpXpX/.4X6X6X8X9X7X7X9X9X9X8X8X6X6X6X6X6X6X6X6X6X6X6X6X6X8X8X9X7X7X7X7X7X9X9X7X7X6X(.pXpXpXpX",
"pXpXpXE.4X;X@XJ.J.K.-X-X-X@X;X-X$XoXK.K.K.K.K.K.K.K.K.oXoX@X@X@X;X;X;X;X;X;XK.$X@X@X-X,XM.pXpXpX",
"pXpXpX:XK.@X@XJ.J.J.K.@X@X-X-X;X@X@XXXJ.J.K.K.J.J.K.K.K.K.@X@X-X;X;X;X;X;XK.-X@X@X@XJ.J.&XpXpXpX",
"pXpXpX,X-XK.K.@XJ.J.XXXX@X@X@X-X$X@XJ.J.K.J.K.K.J.J.K.H.oX@X@X-X;X;X;X;X;XK.@XK.K.J.J.J.*XpXpXpX",
"pXpXpX:X-XK.K.K.@XJ.XXXX-XXX@X-X$X@XXXJ.H.K.H.(.J.J.J.H.oX@X@X;X;X;X;X;X-XK.K.K.J.G.G.G.+XpXpXpX",
"pXpXpX:XK.K.K.K.K.-XK.J.XXXX@X-X;X#X(.J.H.J.J.J.J.H.J.J.(.@X#X;X;X%X;X#XK.K.K.H.G.G.G.D.+XpXpXpX",
"pXpXpX;XK.K.-XK.K.K.K.J.XXXXXXXXK.oXK.H.J.J.J.J.H.J.J.H.K.@X#X;X%X;X#XoXoXoXH.H.G.G.D.D.OXpXpXpX",
"pXpXpX%XJ.K.XX@X@XK.K.J.XX!.!.XX&X5X3XH.B.G.H.H.H.(.H.J.oX@X%X%X;X#XoXK.oXH.H.D.D.D.D.D.OXpXpXpX",
"pXpXpX+XJ.J.J.J.@X@XXX@XXXXXj.U.yXiXiXiXwXB.D.H.H.H.H.K.oX#X%X%X;XoXoX(.H.H.G.D.D.D.A.A.oXpXpXpX",
"pXpXpXOXG.H.J.J.@X@X@XXXXXXXC.d.l.yXuXiXiXuX~.Z.F.F.G.K.oX#X#X#XK.K.J.H.G.F.F.A.Z.Z.Z.Z.^.pXpXpX",
"pXpXpXoXD.G.D.J.J.J.XXXXXXXXXXj.z.L.yXuXuXuXtXl.A.F.F.(.oX#X#XK.(.J.H.S.S.S.D.A.Z.Z.Z.Z.^.pXpXpX",
"pXpXpXoXD.D.D.J.J.XXJ.XXXXXXXX!.c.m.'.uXuXuXyX|.c.S.F.H.oXOXoXK.H.S.S.S.S.A.A.A.Z.Z.n.V.F.pXpXpX",
"pXpXpXXXD.D.D.D.J.j.E.1XXXXXXXXXN.).yXyXyXuXyXeXm.N.F.oX@XOXJ.H.S.S.A.A.A.A.Z.Z.n.V.V.n.H.pXpXpX",
"pXpXpXJ.Z.D.D.D.H.N.W.uX2XS.(.A.).yXyXyXyXyXyXrXk.c.H.J.oX^.H.S.C.C.A.A.C.C.C.n.V.V.C.A.J.pXpXpX",
"pXpXpXH.V.Z.Z.Z.S.n.R.yXyX{.n._.yXyXyXyXyXyXyXeXl.c.H.K.H.F.A.C.C.N.N.N.C.N.V.A.A.A.Z.Z.J.pXpXpX",
"pXpXpXF.V.Z.Z.Z.A.c.I.yXyXyX5XtXrXyXyXrXyXrXrX0Xp.b.H.J.F.N.N.n.N.N.n.N.C.A.A.A.Z.D.D.D.H.pXpXpX",
"pXpXpXC.v.V.V.V.A.n.a.yXtXyXyXrXrXyXrXrXrXrXrX'.0 n.K.A.N.n.n.n.n.n.C.A.A.F.F.F.J.V.V.V.G.pXpXpX",
"pXpXpXn.z.z.z.z.n.n.0. XtXrXrXrXrXrXrXrXeXrX.XT.k.c.S.n.n.c.n.n.C.A.S.F.F.A.Z.A.b.V.V.j.J.pXpXpX",
"pXpXpXc.i.z.z.z.z.z.t.0 0XrXrXrXrXrXrXrXeX0XT.Y.}.Q.X.l g.n.N.A.A.A.A.C.C.C.C.V.V.b.V.V.D.pXpXpX",
"pXpXpXz.i.z.z.z.z.z.z.7.e [.eXrXeXeXeXqX'.T.Y.`.qXO.%.~ ..c.C.C.C.C.C.C.C.V.V.n.V.V.v.V.V.pXpXpX",
"pXpXpXb.i.z.z.z.z.z.z.g.0 3 P.`.[.'.`.T.Y.Y.}.qXo.;.Y #.~  .x.N.V.N.n.C.n.V.n.n.v.v.v.j.V.pXpXpX",
"pXpXpXb.v.v.v.v.c.n.n.n.z.i.7 ; 9 r 9 2 6 Y.qX+.%.W M M #.~  .j.c.n.n.n.n.n.n.v.v.v.v.z.b.pXpXpX",
"pXpXpXb.z.z.v.v.v.c.b.V.N.n.z.z.t.r.0.0.7 r L $.} F G F B &.I  .z.c.n.n.n.b.n.n.v.z.v.z.b.pXpXpX",
"pXpXpXz.z.v.v.n.V.V.c.z.n.v.z.z.z.i.i.i.i.j ( -.J J H H G F &.P | e.i.z.z.z.z.z.z.z.z.h.v.pXpXpX",
"pXpXpXV.v.v.z.z.z.z.z.z.z.r.z.r.i.i.z.n.c., P ,.[ ' E E R R G *.Z | 9.t.r.i.i.r.y.h.i.h.z.pXpXpX",
"pXpXpXz.h.h.h.h.z.e.e.z.r.u.u.u.t.z.n.n.z.0 a P -.[ ] ' E E ' E *.Z h e.e.z.y.e.y.e.w.w.e.pXpXpX",
"pXpXpXi.y.q.q.e.e.e.y.y.r.r.u.i.z.n.n.z.z.9.7 s Z *.[ ] ] ] ] ] Q { C h 8.y.e.e.w.w.w.q.e.pXpXpX",
"pXpXpX6.6.6.q.q.9.9.e.e.e.r.z.z.n.z.z.i.r.e.9.2.a Z { ] ] ] Q Q Q _ ] V | e.e.q.q.q.q.6.6.pXpXpX",
"pXpXpX4.6.6.q.q.9.9.9.e.u.z.z.b.c.z.z.i.e.9.r.e.4 a C Q Q Q Q } >.@.:.{ v e z.y.e.6.6.6.6.pXpXpX",
"pXpXpX4.4.5.6.6.6.6.e.i.i.z.n.v.g.h.i.e.e.8.e.i.3.4 a V E W Q :.z = z #.D f y.i.u.y.q.4.4.pXpXpX",
"pXpXpX4.1.4.6.6.6.y.i.h.v.v.z.i.i.i.u.8.6.6.r.r.6.3.% X V W W / q 3.: U A g w.t.y.y.y.e.q.pXpXpX",
"pXpXpX4.1.4.4.q.y.y.i.v.v.j.i.i.i.u.8.8.6.6.r.e.6.6.2.$ u V W ) K t K Y b d 8.u.y.y.w.e.y.pXpXpX",
"pXpXpX1.<.4.q.e.y.i.z.z.j.u.u.u.u.w.5.5.6.6.i.9.3.6.3.8 @ u n Y Y D Y A c ; <.r.r.w.e.w.q.pXpXpX",
"pXpXpX1.4.q.q.q.y.j.j.j.y.r.r.r.r.3.2.5.3.5.y.6.4.3.3.2.1.@ X x m N b n > $ <.2.5.w.q.q.q.pXpXpX",
"pXpXpX6.6.6.q.h.h.h.h.e.w.e.w.w.8.1.<.2.1.6.e.5.1.1.1.1.8 5 @ - i y i < 5 2.<.<.<.1.6.q.q.pXpXpX",
"pXpXpX6.6.q.h.h.h.y.w.w.w.w.w.w.1.<.<.5 <.6.w.2.1.1.1.1.1.1.5 % 5 4 5 w.r.q.5.<.5 * 5 4.6.pXpXpX",
"pXpXpX6.w.y.y.y.y.q.6.6.q.6.w.2.5 5 5 5 5 6.q.1.* 7 * * * * 5 5 1.7.6.w.u.y.6.<.* * & * 4.pXpXpX",
"pXpXpXe.y.y.y.y.5.5.5.5.5.q.5.* * * * * & 5.6.* * * * * * * * * * 5.6.5.q.y.q.4.<.& & & & pXpXpX",
"pXpXpXy.q.y.w.5.4.5.4.5.5.5.* & & & & & * 5.5.* & & & # & & & & & 5 5.4.4.q.y.q.1.<.# & & pXpXpX",
"pXpXpX4.q.q.4.1.<.4.4.4.<.<.# # # # # # * 1.1.& # # # # # # # # # # <.4.<.4.q.w.4.4.* # + pXpXpX",
"pXpXpXO y.4.<.<.<.<.<.<.<.& # # # # # # * <.1.# # # # # # # # # # # & <.<.<.1.w.q.1.<.<.. pXpXpX",
"pXpXpX  o % 5.5.6.6.8.8.q.<.3.3.3.3.7.7.r.f.g.0.7.0.7.7.8.7.3.3.2.1.8 7.w.8.6.6.y.y.* o   pXpXpX",
"pXpXpXpXpX                                                                            pXpXpXpXpX",
"pXpXpXpXpXpXpXpXpXpXpXpXpXpXpXpXpXpXpXpXpXpXpXpXpXpXpXpXpXpXpXpXpXpXpXpXpXpXpXpXpXpXpXpXpXpXpXpX",
"pXpXpXpXpXpXpXpXpXpXpXpXpXpXpXpXpXpXpXpXpXpXpXpXpXpXpXpXpXpXpXpXpXpXpXpXpXpXpXpXpXpXpXpXpXpXpXpX"
};
