/* XPM */
static char *DC__[] = {
/* columns rows colors chars-per-pixel */
"48 48 152 2",
"   c #000000",
".  c #080808",
"X  c #1C1C1C",
"o  c #292B17",
"O  c #2B2C1D",
"+  c #303216",
"@  c #252524",
"#  c #2C2C2C",
"$  c #333333",
"%  c #3C3C3C",
"&  c #5D6416",
"*  c #5A611C",
"=  c #646B19",
"-  c #69731A",
";  c #737D19",
":  c #454925",
">  c #505520",
",  c #4A4C3C",
"<  c #636A22",
"1  c #6F7721",
"2  c #6F7921",
"3  c #727B25",
"4  c #787F24",
"5  c #787F2C",
"6  c #6D7534",
"7  c #707633",
"8  c #727934",
"9  c #707438",
"0  c #777F39",
"q  c #444444",
"w  c #4B4B4B",
"e  c #535353",
"r  c #565852",
"t  c #5B5B5B",
"y  c #737741",
"u  c #767B44",
"i  c #777A4B",
"p  c #747659",
"a  c #646464",
"s  c #6D6D6D",
"d  c #747474",
"f  c #7A7A7A",
"g  c #7F8C0D",
"h  c #768119",
"j  c #788025",
"k  c #7A802E",
"l  c #798134",
"z  c #7C8346",
"x  c #7F806D",
"c  c #808D0E",
"v  c #96A40D",
"b  c #96A215",
"n  c #9AA712",
"m  c #9DAA14",
"M  c #A1AE17",
"N  c #A7B21C",
"B  c #AAB51F",
"V  c #848B29",
"C  c #848B33",
"Z  c #8C9334",
"A  c #96A024",
"S  c #9EA432",
"D  c #A3AD23",
"F  c #A0A82D",
"G  c #ACB722",
"H  c #B2BB25",
"J  c #B5BF28",
"K  c #A5B233",
"L  c #A7B33A",
"P  c #BBC42D",
"I  c #BDC536",
"U  c #BBC438",
"Y  c #C0C730",
"T  c #C3CA33",
"R  c #C8CE37",
"E  c #C0C73C",
"W  c #C3CB38",
"Q  c #C9CF38",
"!  c #CCD23B",
"~  c #D1D63F",
"^  c #858D45",
"/  c #8A905B",
"(  c #B6BC40",
")  c #B9BF41",
"_  c #B5BA4F",
"`  c #838663",
"'  c #8A8D6A",
"]  c #979C6D",
"[  c #888A79",
"{  c #989C79",
"}  c #9FA667",
"|  c #A1A867",
" . c #A2A969",
".. c #C4CB4A",
"X. c #CCD14F",
"o. c #D2D740",
"O. c #D5D942",
"+. c #DADD46",
"@. c #DBDE4A",
"#. c #C7CE53",
"$. c #C1C95A",
"%. c #C9CC5C",
"&. c #CCD254",
"*. c #D0D552",
"=. c #DFE25B",
"-. c #E2E44D",
";. c #E1E450",
":. c #E8E952",
">. c #E0E35B",
",. c #C6CE63",
"<. c #C8CF64",
"1. c #C2CB6A",
"2. c #C9D066",
"3. c #D8DB62",
"4. c #DBDF6D",
"5. c #C9D076",
"6. c #CCD379",
"7. c #DFE269",
"8. c #E2E576",
"9. c #858585",
"0. c #8A8A8A",
"q. c #929484",
"w. c #969696",
"e. c #9A9A95",
"r. c #9A9A9A",
"t. c #A0A481",
"y. c #A5A5A4",
"u. c #ACACAC",
"i. c #B3B3B3",
"p. c #BBBBBB",
"a. c #CDD489",
"s. c #D1D78C",
"d. c #D2D88D",
"f. c #D6DBA1",
"g. c #D8DDA3",
"h. c #D9DEA9",
"j. c #C5C8B4",
"k. c #C6C7B8",
"l. c #D7DBB0",
"z. c #E0E4BB",
"x. c #C4C4C4",
"c. c #CDCDCD",
"v. c #D1D3CD",
"b. c #D4D4D4",
"n. c #DBDBDB",
"m. c #EBEED3",
"M. c #E3E3E3",
"N. c #ECECEC",
"B. c #F4F6E7",
"V. c #F4F4F4",
"C. c #FAFAFA",
"Z. c None",
/* pixels */
"Z.Z.Z.Z.Z.Z.Z.Z.Z.Z.Z.Z.Z.Z.Z.Z.Z.Z.Z.Z.Z.Z.Z.Z.Z.Z.Z.Z.Z.Z.Z.Z.Z.Z.Z.Z.Z.Z.Z.Z.Z.Z.Z.Z.Z.Z.Z.Z.",
"Z.Z.Z.Z.Z.Z.Z.Z.Z.Z.Z.Z.Z.Z.Z.Z.Z.Z.Z.Z.Z.Z.Z.Z.Z.Z.Z.Z.Z.Z.Z.Z.Z.Z.Z.Z.Z.Z.Z.Z.Z.Z.Z.Z.Z.Z.Z.Z.",
"Z.Z.Z.Z.Z.Z.Z.Z.Z.Z.Z.Z.Z.Z.Z.Z.Z.Z.Z.Z.Z.Z.Z.Z.Z.Z.Z.Z.Z.Z.Z.Z.Z.Z.Z.Z.Z.Z.Z.Z.Z.Z.Z.Z.Z.Z.Z.Z.",
"Z.Z.Z.Z.M.C.C.C.C.C.C.C.C.C.C.C.C.C.C.C.C.C.C.C.C.C.C.C.C.C.C.C.C.C.C.C.C.C.C.C.C.C.C.M.Z.Z.Z.Z.",
"Z.Z.Z.b.C.C.C.C.C.C.C.C.C.C.C.C.C.C.C.C.C.C.C.C.C.C.C.C.C.C.C.C.C.C.C.C.C.C.C.C.C.C.C.C.b.Z.Z.Z.",
"Z.Z.Z.V.C.C.C.C.V.C.C.C.V.C.C.C.C.C.V.C.C.C.V.C.C.C.V.C.C.C.C.C.V.C.C.C.V.C.C.C.C.C.C.C.V.Z.Z.Z.",
"Z.Z.Z.C.V.C.C.C.C.C.C.V.C.C.C.V.C.C.V.C.V.C.V.C.V.C.C.C.C.V.C.C.C.C.C.V.C.C.C.V.C.C.C.C.C.Z.Z.Z.",
"Z.Z.Z.C.V.C.V.V.V.C.V.C.V.V.C.V.V.V.V.C.V.C.V.C.V.V.V.C.V.C.V.V.V.C.V.C.V.V.V.V.C.V.V.V.C.Z.Z.Z.",
"Z.Z.Z.C.V.V.V.V.V.V.V.V.N.M.k.] z ] j.M.V.V.V.V.C.V.V.V.V.V.V.C.V.C.V.V.C.V.V.V.V.V.V.V.C.Z.Z.Z.",
"Z.Z.Z.C.V.V.V.V.V.V.V.M./  .l.m.B.m.l. ./ M.V.V.V.V.V.V.V.V.V.V.V.V.V.V.V.V.V.V.V.V.V.V.C.Z.Z.Z.",
"Z.Z.Z.V.V.V.V.V.V.N.k.^ z.m.m.m.m.m.m.m.z.^ k.N.V.V.V.V.V.V.V.V.V.V.V.V.V.V.V.V.V.V.V.V.V.Z.Z.Z.",
"Z.Z.Z.C.N.V.V.N.N.v.3 h.z.z.z.z.z.z.z.z.z.l.2 v.V.V.V.V.V.V.V.N.N.V.V.V.V.V.V.V.V.N.V.V.V.Z.Z.Z.",
"Z.Z.Z.V.V.V.V.V.M.l L f.f.f.f.g.f.g.g.f.f.f.L 0 M.V.V.N.n.i.s w d i.M.M.V.V.V.V.V.V.V.N.V.Z.Z.Z.",
"Z.Z.Z.V.N.N.N.N.t.g K a.a.a.s.d.d.d.d.d.a.a.K g t.M.n.t s y.p.b.p.y.s t n.N.N.N.N.N.N.V.V.Z.Z.Z.",
"Z.Z.Z.V.N.V.N.n.8 b m 1.5.5.6.6.6.6.6.5.5.1.m v 6 u.w i.x.x.x.x.x.x.x.i.w i.M.V.V.N.N.N.V.Z.Z.Z.",
"Z.Z.Z.V.N.N.N.n.3 m M G $.,.2.2.2.2.2.,.$.G M n < # r.u.u.u.u.u.u.u.u.u.r.$ c.N.N.N.V.N.V.Z.Z.Z.",
"Z.Z.Z.V.N.N.M.c.h M N B H I ....#.....U H G B b o % w.w.r.r.r.r.e.r.r.r.r.% % M.N.N.N.N.N.Z.Z.Z.",
"Z.Z.Z.N.N.N.N.k.h N B H P P I T T T T P J H N = X $ 9.9.9.0.0.0.0.0.9.9.9.$ X 9.M.N.N.N.V.Z.Z.Z.",
"Z.Z.Z.V.N.M.N.c.4 B G P P T ! ! ! ! R T Y J N + X @ s d f f f f f d f d s @ X % n.N.N.M.V.Z.Z.Z.",
"Z.Z.Z.N.M.N.M.b.8 G P P T ! ! o.O.o.! Q T P D # X @ $ a s s s s s s s a $ @ X # b.N.M.N.N.Z.Z.Z.",
"Z.Z.Z.N.N.M.N.n.' A I T Q ! o.+.+.+.o.! Q I F @ @ # $ % q e a a t t q % $ # @ @ x.M.N.M.N.Z.Z.Z.",
"Z.Z.Z.N.M.N.M.M.p.8 U W Q o.+.-.-.-.+.o.! I S @ # # % % q w w w w w q % % $ # # p.M.M.N.N.Z.Z.Z.",
"Z.Z.Z.N.M.M.M.M.b.y.j &.&.o.+.-.:.;.+.o.X.#.- # # % q q w e e e e e w w % $ $ $ x.M.N.M.N.Z.Z.Z.",
"Z.Z.Z.M.M.M.N.M.M.c.q.k ..7.7.=.@.*._ Z - = p $ $ % q w e t t t t t e w q % $ % c.M.M.M.M.Z.Z.Z.",
"Z.Z.Z.M.M.M.M.M.M.n.x.y.i V ( %.C | l.m.B.m.l.| > q q e e a a s a a t w w q % s b.M.M.M.M.Z.Z.Z.",
"Z.Z.Z.M.M.M.M.M.M.M.M.b.i.w.p l z.m.m.m.m.m.m.m.z.7 , e t a s s s a t e w w % i.n.M.M.M.M.Z.Z.Z.",
"Z.Z.Z.M.M.M.M.M.M.M.M.M.b.i.3 h.z.z.z.z.z.z.z.z.z.h.- r t s s f d a t a a $ r.b.n.M.n.M.M.Z.Z.Z.",
"Z.Z.Z.M.n.n.M.M.M.n.M.M.b.9 L f.f.g.f.g.g.g.g.f.f.f.L * s d d s d d d t % 9.c.n.M.n.M.M.M.Z.Z.Z.",
"Z.Z.Z.M.M.M.n.M.M.M.n.b.{ g K a.a.s.s.s.d.d.s.s.a.a.K c : e d f d t % w y.c.n.M.M.M.n.n.M.Z.Z.Z.",
"Z.Z.Z.M.n.n.n.n.n.m.M.c.6 b m 1.5.5.6.6.6.6.6.6.5.1.m v < s t q e f w.i.c.n.n.n.n.n.M.n.n.Z.Z.Z.",
"Z.Z.Z.n.n.n.n.n.n.n.M.x.1 n M G $.2.<.2.2.2.<.,.$.G M n 1 i.p.i.p.x.b.b.n.n.M.n.n.n.n.n.n.Z.Z.Z.",
"Z.Z.Z.n.n.n.n.n.n.n.n.p.; M G G H J ..#.#.....U H G G M ; p.b.n.n.n.n.n.n.n.n.n.n.n.n.n.n.Z.Z.Z.",
"Z.Z.Z.n.n.n.n.n.n.n.n.i.h N B H P P Y T T T Y P P H B N h i.n.n.n.n.n.n.n.n.n.n.n.n.n.n.n.Z.Z.Z.",
"Z.Z.Z.b.n.b.b.n.n.n.b.p.3 G H P P T R ! ! Q R T P P H B 3 p.b.n.n.n.n.n.n.n.b.n.b.n.n.b.b.Z.Z.Z.",
"Z.Z.Z.n.n.n.n.n.b.n.b.x.6 H H P T Q ~ ~ O.~ ~ R T P H H 8 x.n.n.b.n.n.n.n.n.n.n.n.n.n.n.b.Z.Z.Z.",
"Z.Z.Z.b.b.b.b.b.b.n.n.x.` A I T R ! O.+.@.+.O.~ R Y I A ` x.b.n.n.n.b.b.n.b.b.b.b.b.b.b.b.Z.Z.Z.",
"Z.Z.Z.b.b.b.b.b.b.b.b.c.u.8 E R Q ~ +.-.;.-.+.o.Q W E 7 u.v.b.b.b.b.n.b.n.b.b.b.b.b.b.b.b.Z.Z.Z.",
"Z.Z.Z.b.b.b.b.b.b.b.b.b.x.e.4 &.*.o.+.-.:.-.+.O.*.&.4 e.x.b.b.b.b.b.b.b.b.b.b.b.b.b.b.b.b.Z.Z.Z.",
"Z.Z.Z.b.b.b.b.b.b.b.b.b.c.p.[ 5 ..4.7.>.;.>.4.4...l [ p.b.b.b.b.b.b.b.b.b.b.b.b.b.b.b.b.b.Z.Z.Z.",
"Z.Z.Z.b.b.c.c.b.b.b.v.b.b.c.p.e.y V ) 3.8.3.) V 9 e.p.c.b.b.b.b.b.b.b.b.b.b.b.b.b.c.b.b.b.Z.Z.Z.",
"Z.Z.Z.b.b.c.c.c.b.c.b.c.b.b.c.x.y.0.f u 8 i ` 0.u.x.c.c.b.c.c.b.c.b.c.c.b.c.c.c.c.c.b.c.b.Z.Z.Z.",
"Z.Z.Z.c.c.c.c.c.c.c.c.c.c.c.c.c.c.p.p.u.u.i.p.p.x.c.c.c.c.b.c.c.c.c.b.c.c.b.c.c.c.c.c.c.c.Z.Z.Z.",
"Z.Z.Z.i.c.c.c.c.c.c.c.c.c.c.c.c.c.c.c.c.c.x.c.c.c.b.c.c.c.c.b.c.c.c.c.c.c.c.c.c.c.c.c.c.i.Z.Z.Z.",
"Z.Z.Z.a c.c.c.c.c.c.c.c.c.c.c.c.c.c.c.c.c.c.c.c.c.c.c.c.c.c.c.c.c.c.c.c.c.c.c.c.c.c.c.c.a Z.Z.Z.",
"Z.Z.Z.. a u.b.b.c.b.b.b.b.b.b.b.b.n.b.n.b.n.n.n.n.n.b.n.n.b.b.b.b.b.b.b.b.b.b.b.c.b.u.a . Z.Z.Z.",
"Z.Z.Z.Z.Z.                                                                            Z.Z.Z.Z.Z.",
"Z.Z.Z.Z.Z.Z.Z.Z.Z.Z.Z.Z.Z.Z.Z.Z.Z.Z.Z.Z.Z.Z.Z.Z.Z.Z.Z.Z.Z.Z.Z.Z.Z.Z.Z.Z.Z.Z.Z.Z.Z.Z.Z.Z.Z.Z.Z.Z.",
"Z.Z.Z.Z.Z.Z.Z.Z.Z.Z.Z.Z.Z.Z.Z.Z.Z.Z.Z.Z.Z.Z.Z.Z.Z.Z.Z.Z.Z.Z.Z.Z.Z.Z.Z.Z.Z.Z.Z.Z.Z.Z.Z.Z.Z.Z.Z.Z."
};
