/* XPM */
static char *gnome_activity_journal[] = {
/* columns rows colors chars-per-pixel */
"48 48 181 2",
"   c #000000",
".  c #16414F",
"X  c #174453",
"o  c #1F596B",
"O  c #285D6E",
"+  c #205E73",
"@  c #216176",
"#  c #22657B",
"$  c #28657A",
"%  c #366575",
"&  c #316678",
"*  c #35697B",
"=  c #3E6B79",
"-  c #45707D",
";  c #246F87",
":  c #2B6A80",
">  c #336F84",
",  c #26748D",
"<  c #2A758D",
"1  c #317185",
"2  c #3D7385",
"3  c #347489",
"4  c #3A768C",
"5  c #31788E",
"6  c #3D7A8E",
"7  c #277790",
"8  c #2C7A94",
"9  c #2A7E99",
"0  c #337C93",
"q  c #3B7F96",
"w  c #347E99",
"e  c #437687",
"r  c #4F7A87",
"t  c #447789",
"y  c #447B8C",
"u  c #4B7B8B",
"i  c #507783",
"p  c #547A87",
"a  c #547D8C",
"s  c #5A7F8C",
"d  c #497F91",
"f  c #2C819D",
"g  c #36829C",
"h  c #3B849C",
"j  c #2786A5",
"k  c #2987A5",
"l  c #2B88A7",
"z  c #2D8CAB",
"x  c #3486A2",
"c  c #3887A0",
"v  c #3489A5",
"b  c #3C8AA4",
"n  c #338EAC",
"m  c #3A8EAA",
"M  c #3390AF",
"N  c #3C91AD",
"B  c #3493B3",
"V  c #3A95B4",
"C  c #3C98B7",
"Z  c #3597B8",
"A  c #3698BA",
"S  c #3B9BBB",
"D  c #498094",
"F  c #568696",
"G  c #5D8896",
"H  c #538898",
"J  c #62838E",
"K  c #628591",
"L  c #628997",
"P  c #748F98",
"I  c #6C919E",
"U  c #74929C",
"Y  c #408CA5",
"T  c #428FAA",
"R  c #4193AE",
"E  c #4993AC",
"W  c #5096AD",
"Q  c #4396B2",
"!  c #4399B5",
"~  c #4B9AB4",
"^  c #439DBC",
"/  c #499EBB",
"(  c #509DB6",
")  c #6195A6",
"_  c #6A94A2",
"`  c #6399AA",
"'  c #6A9CAC",
"]  c #729BA7",
"[  c #789BA5",
"{  c #759FAD",
"}  c #7E9DA8",
"|  c #44A0BF",
" . c #4AA1BE",
".. c #56A1BC",
"X. c #58A5BF",
"o. c #69A3B6",
"O. c #64A3B8",
"+. c #69A7BC",
"@. c #70A2B2",
"#. c #7CA4B1",
"$. c #72A6B8",
"%. c #74ABBD",
"&. c #7AA9BA",
"*. c #3B9FC1",
"=. c #3EA1C3",
"-. c #3FA5C8",
";. c #44A3C3",
":. c #49A5C4",
">. c #4BA8C7",
",. c #42A7C9",
"<. c #44AACC",
"1. c #4CACCC",
"2. c #54AECB",
"3. c #5AB2CE",
"4. c #46AED2",
"5. c #4AAFD2",
"6. c #56B6D6",
"7. c #5EB3D1",
"8. c #63A9C2",
"9. c #6EACC1",
"0. c #61B6D2",
"q. c #66B9D6",
"w. c #69BCD8",
"e. c #7FBED2",
"r. c #70C0DB",
"t. c #7EC7E0",
"y. c #819EA8",
"u. c #86A3AD",
"i. c #8EA6AE",
"p. c #8FACB6",
"a. c #84AEBC",
"s. c #93ACB4",
"d. c #9CADB3",
"f. c #87B0BF",
"g. c #8FB3BF",
"h. c #9DB3BA",
"j. c #88B4C2",
"k. c #8BBAC8",
"l. c #90B7C4",
"z. c #92B8C5",
"x. c #9FB8C1",
"c. c #9BBECA",
"v. c #A2BAC1",
"b. c #A9BCC2",
"n. c #93C1D1",
"m. c #93C9DD",
"M. c #A5C2CB",
"N. c #ACC3CB",
"B. c #B3C1C6",
"V. c #B4C4CA",
"C. c #BBC6CA",
"Z. c #B9C9CE",
"A. c #ACCAD4",
"S. c #B3CBD4",
"D. c #BBCDD2",
"F. c #B5D2DC",
"G. c #BAD0D8",
"H. c #A2D6E9",
"J. c #C3CDD1",
"K. c #C4D1D6",
"L. c #C4D6DC",
"P. c #CAD5D8",
"I. c #CBD8DD",
"U. c #D9DDDF",
"Y. c #C7DDE4",
"T. c #D5DFE1",
"R. c #DADFE1",
"E. c #D4E2E6",
"W. c #DDE4E6",
"Q. c #DCE5E8",
"!. c #DEE8EC",
"~. c #E2E6E7",
"^. c #E2E7E8",
"/. c #E4EAEC",
"(. c #EDEDEE",
"). c #EBEFF0",
"_. c #EEF0F1",
"`. c #F3F3F3",
"'. c #F7F8F8",
"]. c #F9F9F9",
"[. c None",
/* pixels */
"[.[.[.[.[.[.[.[.[.[.[.[.[.[.[.[.[.[.[.[.[.[.[.[.[.[.[.[.[.[.[.[.[.[.[.[.[.[.[.[.[.[.[.[.[.[.[.[.",
"[.[.[.[.[.[.[.[.[.[.[.[.[.[.[.[.[.[.[.[.[.[.[.[.[.[.[.[.[.[.[.[.[.[.[.[.[.[.[.[.[.[.[.[.[.[.[.[.",
"[.[.[.[.[.[.[.[.[.[.[.[.[.[.[.[.[.[.[.[.[.[.[.[.[.[.[.[.[.[.[.[.[.[.[.[.[.[.[.[.[.[.[.[.[.[.[.[.",
"[.[.[.[.%.m.H.H.H.H.H.H.H.H.H.H.H.H.H.H.H.H.H.H.H.H.H.H.H.H.H.H.H.H.H.H.H.H.H.H.H.H.m.9.[.[.[.[.",
"[.[.[.' t.6.4.4.4.4.4.4.5.4.5.5.5.4.5.4.5.5.5.4.5.5.4.5.5.5.4.5.5.5.5.4.4.4.4.4.5.5.6.t.o.[.[.[.",
"[.[.[.e.4.4.4.4.4.4.4.5.4.5.5.5.5.5.5.5.5.4.5.5.5.4.5.5.5.5.5.5.5.5.5.4.4.4.4.4.4.4.4.4.e.[.[.[.",
"[.[.[.r.-.4.<.4.4.4.5.5.5.5.5.5.5.5.5.5.5.5.5.<.4.5.5.5.5.5.5.5.5.5.5.5.5.4.4.4.4.4.-.-.r.[.[.[.",
"[.[.[.w.4.4.<.4.4.4.5.5.5.5.5.5.5.5.5.:.>.c.F.Y.F.k.8./ 5.5.5.5.1.5.5.5.5.5.5.5.4.4.4.4.w.[.[.[.",
"[.[.[.w.4.<.4.4.<.4.5.1.5.5.2.2.>.| A./.].].].].].].].'.Y.8.:.5.5.5.5.1.5.5.5.<.<.4.<.4.w.[.[.[.",
"[.[.[.w.-.<.<.<.4.1.5.5.5.5.5.:.O./.].].].].].].].].].].].'.E.( 1.1.2.6.5.1.5.<.<.4.-.<.q.[.[.[.",
"[.[.[.q.<.<.<.<.1.5.1.5.2.1./ N.'.].].].].].].~.D.i.b.T.'.].].).9.1.5.2.2.1.5.1.<.<.<.-.q.[.[.[.",
"[.[.[.0.,.,.<.<.1.1.1.2.2./ E.].'.].`.].`.v.t 3 h Y D 5 2 } `.].`.k.>.1.5.1.1.1.<.<.<.,.0.[.[.[.",
"[.[.[.0.,.,.<.>.<.1.1.1. .A.'.'.].'.`.^.L q Q  .:.2.:. .! b u P.].`.+.1.1.1.1.1.<.,.<.,.0.[.[.[.",
"[.[.[.7.-.,.,.<.1.1.1.:.%.`.'.'.'.'.R.t T  .1.2.1.>. ./ 2.:.R 4 Z.'.Q.~ 1.1.1.>.>.<.,.-.7.[.[.[.",
"[.[.[.7.-.,.,.>.<.1.>.~ Q.'.'.`.].]._ R :.1.1.>.>.Q Y.c. .2.>.! d (.'.L...| :.,.>.,.,.-.3.[.[.[.",
"[.[.[.3.-.-.,.,.<.>.! S.'.'.`.'.'.b.q  .>.2.1.2.Q l.).P.Q >.2.:.b } '.].]./.G.C ,.,.-.-.3.[.[.[.",
"[.[.[.2.-.=.;.,.:.>.T ).`.].].].'.d ^ >.1.1.>.:.T ' e I Y >.>.1. .q W.'.'.`.'.G.! ,.;.-.3.[.[.[.",
"[.[.[.2.=.-.-.,.>.^ a.`.`.`.`.`.~.q :.>.>.>.:.O./.]._.j.T >.>.>.:.m V.`.'.`.`.(.m | =.=.2.[.[.[.",
"[.[.[.2.*.=.;.;.;.! V.`.].`.'.`.Z.b :.>.>.>.! M.`.`.`.I.N :.>.>.>.N s.`.`.`.`.(.g *.=.=.2.[.[.[.",
"[.[.[.1.*.=.*.;.:.m K.`.].`.`.`.s.R :.>.:.:.m Z.`.'.'.~.c :.:.>.>.~ _ '.`.'.'.B.g S =.=.1.[.[.[.",
"[.[.[.>.*.*.=.;.;.x ~.`.`.`.`.`.v.! :.:.:.:.Q I `.`.`.s.Y :.:.:.,.! #.`.`.`.^.t N =.*.*.>.[.[.[.",
"[.[.[.>.*.S *.;.C l.`.`.`.`.`.`.P.m | :.:.:.! 0 K b.U q T  .:.:.:.Q v.`.`.E.u c S *.*.*.>.[.[.[.",
"[.[.[.:.*.*.*.C o.).`.`.`.`.`.`./.Y | :.:.:.| ! h ) M./.` ! :.;. .R K.`.`.} c ! | ^ *.*. .[.[.[.",
"[.[.[.:.S S S m L.`.`.`.`.`.`.`.`.@.! ;.| ;.| | m ] `.`.{ C | | | Y ^.`.`.F V *.*.*.S S :.[.[.[.",
"[.[.[.;.A S C g `.`.`.`.`.(.`.`._.T.T ^ | | ;.| ! q U `.p.m :./ N D._.`.(.0 ! | *.S S S | [.[.[.",
"[.[.[.| A S C w (.`.).`.`.`.(.`.`.`.b.V | | | | / V 5 s.b.v / C &.`.`._.J.w S ^ S S S A ^ [.[.[.",
"[.[.[.! A C Z 0 C.`.).`.(.(.`.`._.`.(.$.V | | | ^ ^ m 3 u.h C E ~.`.(.`.s.v ^ *.S S A A S [.[.[.",
"[.[.[.S Z A A x 2 J.`.`.`.`.(.`.`._.`._.S.m ! ^ S ^ ! v > w z.).(.`.`.`.L m S ! S C A A S [.[.[.",
"[.[.[.C Z Z A B w : & d.(.(.`.(.).)._.(.`.R.j.E m V N T &.Y.`.(.`.(.`.b.5 V S A C C Z Z A [.[.[.",
"[.[.[.Z Z B A C V n x F `.`.(.`.`.`.(.`.`.(.`.`.).T./.`.`.`.`.(.(.`.(.e x ! S C A A Z B V [.[.[.",
"[.[.[.A B Z B C C S N 6 (.(.(.(.(.`.(.`.(.`.(.(.`.(.`.(.(.(.(.(.(.).i.0 V ! C C A Z B Z Z [.[.[.",
"[.[.[.B B B B A V C V 5 R.(.`.(.(.(.(.(.(.(.`.`.(.(.(.(.`.(.`.(.`.R.> v C C C A B B B B V [.[.[.",
"[.[.[.B Z B Z B Z A V 0 R.(.(.(.(.(.(.(.(.(.(.(.(.(.(.(.(.(.(.(.^.a 9 V V V V V Z B B B z [.[.[.",
"[.[.[.M z Z B B B B B 0 (.(.(.(.(.(.(.(.(.(.(.(.(.(.(.(.(.(.(.(.J 5 m C V V V V B B B B z [.[.[.",
"[.[.[.M B z B B B B m ) (.(.`.(.(.(.(.(.(.(.(.(.(.(.(.(.(.(.(.J < m B V V V B B B B z B B [.[.[.",
"[.[.[.M z B z B B B x v.(.(.(.(.(.(.(.(.(.(.(.(.(.(.(.(.(.U.i < v N V B V V M B M M B z B [.[.[.",
"[.[.[.M z M B z M M 5 ~.(.(.(.(.(.(.(.(.(.(.(.(.(.(.(.(.C.* 8 v B B B N B B B M B z z z z [.[.[.",
"[.[.[.z z z z z M v _ (.(.(.~.(.(.(.(.(.~.(.(.(.(.(.K.J $ 8 v B N N M B M M M M z B z z z [.[.[.",
"[.[.[.z z z z z z 9 s.(.~.(.(.(.(.(.(.(.(.(.(.(.B.p @ < g n M M B n B M M M n z z z z z M [.[.[.",
"[.[.[.z z z z z l 9 i J.~.(.(.~.(.~.(.~.~.J.d.- & : f x n n n n n n n z n z z z z z l z z [.[.[.",
"[.[.[.z l l l l l j ; + O = i K P U p % o + # < f x l n l n n z z n n z z z z l z z j j z [.[.[.",
"[.[.[.z l j l l l l j 9 8 7 , , ; : , < 9 9 j l l l z l z z l l l l l l l l l l j j z j z [.[.[.",
"[.[.[.7 j l l l l l l l k k j j j j k l l l l l l l l l l l l l l l l l l l l l j j z j 7 [.[.[.",
"[.[.[.X l j j j l j j j k l k k k k k l j l j l l l k k l l l l l l k l k l l l j j j z X [.[.[.",
"[.[.[.  . < n n n m N N R R R Q Q ~ ~ ~ ~ ( ( ( ( ( ~ ~ ~ ~ ~ Q R R R N N N n n n n 8 X   [.[.[.",
"[.[.[.[.[.                                                                            [.[.[.[.[.",
"[.[.[.[.[.[.[.[.[.[.[.[.[.[.[.[.[.[.[.[.[.[.[.[.[.[.[.[.[.[.[.[.[.[.[.[.[.[.[.[.[.[.[.[.[.[.[.[.",
"[.[.[.[.[.[.[.[.[.[.[.[.[.[.[.[.[.[.[.[.[.[.[.[.[.[.[.[.[.[.[.[.[.[.[.[.[.[.[.[.[.[.[.[.[.[.[.[."
};
