/* XPM */
static char *gnome_term[] = {
/* columns rows colors chars-per-pixel */
"48 48 53 1",
"  c #000000",
". c #0C0C0D",
"X c #0F0E10",
"o c #100F12",
"O c #131214",
"+ c #161518",
"@ c #18161A",
"# c #1C1A1E",
"$ c #1F1D21",
"% c #211E24",
"& c #232225",
"* c #262529",
"= c #29262C",
"- c #2B292E",
"; c #2B2630",
": c #2E2A31",
"> c #312D35",
", c #342E39",
"< c #343037",
"1 c #36313A",
"2 c #39333E",
"3 c #3C3642",
"4 c #3E3845",
"5 c #3F3848",
"6 c #413947",
"7 c #433C4B",
"8 c #473F50",
"9 c #434143",
"0 c #49474B",
"q c #484051",
"w c #515052",
"e c #5C5C5C",
"r c #717072",
"t c #7B7A7D",
"y c #8C8C8C",
"u c #969696",
"i c #9C9C9C",
"p c #A09FA1",
"a c #A3A3A3",
"s c #A7A7A8",
"d c #ACACAC",
"f c #B6B6B6",
"g c #BBBBBB",
"h c #C4C4C4",
"j c #CCCCCC",
"k c #D0CFD0",
"l c #D4D4D4",
"z c #DBDBDB",
"x c #E4E4E4",
"c c #ECECEC",
"v c #F2F2F2",
"b c #FDFDFD",
"n c None",
/* pixels */
"nnnnnnnnnnnnnnnnnnnnnnnnnnnnnnnnnnnnnnnnnnnnnnnn",
"nnnnnnnnnnnnnnnnnnnnnnnnnnnnnnnnnnnnnnnnnnnnnnnn",
"nnnnnnnnnnnnnnnnnnnnnnnnnnnnnnnnnnnnnnnnnnnnnnnn",
"nnnnjxvvvvvvvvvvvvvvvvvvvvvvvvvvvvvvvvvvvvcjnnnn",
"nnnfcxxxxxxxxxxxxxxxxxxxxxxxxxxxxxxxxxxxxxxcgnnn",
"nnnzxxxxxxxxxxxxxxxxxxxxxxxxxxxxxxxxxxxxxxzxznnn",
"nnncxzzduuuuuuuuiuiuiiuiiuiuuuuuuuuuuuuudzxxcnnn",
"nnnxxxdeO..OOOOOOOOOXOXOOOOO+OO+OOOOX.XOedxxxnnn",
"nnnxzxuOO@###&#$&$$&$$$&$$$$$$$$$$$###+O+uxzxnnn",
"nnnxxziX@#$&&&&&&&&&&&&&&&&&&&&&&&&&$$#+.izxxnnn",
"nnnxzzaX@$$&&&&*&&&&&&&&&&*&*&&&&&&&&$$#Opzzxnnn",
"nnnxzzaX#$&&&****&************&-****&&$#Xazzxnnn",
"nnnxzzsX$&&&lr-**&&**-*&************&&&#Oszzxnnn",
"nnnxlzdO$$&&bbxy9&*****-*-**-*******&&$$Oszzxnnn",
"nnnzzzdO$&&&wsvbvd-****-*-******-&&-&&&$Odlzznnn",
"nnnzlzdO$$&&&*>dbv-**--*----*--*&-&&&&&$Odzlznnn",
"nnnzllfO#&&&9uxbbh------:-------*****&$$Ofllznnn",
"nnnzllfO$$&*bbva9---:-::::--------**&&&$Ofzlznnn",
"nnnzlzfO$&**lt<----<>>>>:-:-<-----=***&#Ogllznnn",
"nnnlllgO$&*---::<-bbbbbb<<<<-<-<>-=-**&#Ogllznnn",
"nnnlllgO$*==::::<:bbbbbb<<<<<<:<->-=**%%Oglllnnn",
"nnnlklhO&*-:::<<<<<<<1111<<<<--&&%%$#@@o.hkklnnn",
"nnnllkhO&=->>>><<<12221<<--**&&&%&&%$#@O.hlklnnn",
"nnnlkkh+*--::<11<<2<<-----*----&*&&%%##o.hkklnnn",
"nnnkjjj+*;:>>11111:;;::::-::;;==&=&%&%#+.jjjknnn",
"nnnkjjj+*:>><11::::::::::::::=-===*%%%$+.jjjknnn",
"nnnjjjk+=:>,>::;::>:>>>>>>:>:::;===&&%%#.kjjjnnn",
"nnnjjhl+;>:*;=-:::>>>>1><>>>>::::;==*%%#Xljjjnnn",
"nnnjhjl@;;%*;;::>>>1>11,,>1>>>>:;;;==&$$Xlhjknnn",
"nnnhjhz+$%;;:;>>>,111,11131111>>>:;==%%$Xzjhhnnn",
"nnnjhhzO$*=;::>,,111131,33111,,>>::;;%%$ozhhjnnn",
"nnnhhhzX$&=;::>,,11333333331331,>>:;=;&$oxhhhnnn",
"nnnhhhzO$*;;>>>,,333333333333,2,,>>:;%%$oxhhhnnn",
"nnnhhhxO%*;:>>>3,233336666533,2,,,>:;*;$oxhhgnnn",
"nnnhhhxO%*;;>,,32333666666633332,,>;;;*%oxhhhnnn",
"nnngghco%;;;>,,,3356677777663332,,>>;;*%ocghhnnn",
"nnnhggcO$*;;>,3,333677777776333,3>>;;;%%Xcghgnnn",
"nnngghcO%;;;>,,333667788887563323,,;;;%$Xvhggnnn",
"nnnhggvo$;;;;3,33356778888756522,,>;;;%$Xvgggnnn",
"nnngggv##$%*;;;;,,33357765532,,,;;;;%%%$$cgghnnn",
"nnnggglu$oo++++@###$$$$%%$$$$##@@++oOoO#yzgfgnnn",
"nnngfggzvbbbbbbbbbbbbbbbbbbbbbbbbbbbbbbvzggfgnnn",
"nnnpffffffffgfffgfgffffgffgffffgfgfggfffffgfpnnn",
"nnnegffffffffffffffgfffffffffffffffffffgfffgennn",
"nnn.eaghghhhhjhjjjjjjjllklkkjjjjhhhhhhhghgae.nnn",
"nnnnn                                      nnnnn",
"nnnnnnnnnnnnnnnnnnnnnnnnnnnnnnnnnnnnnnnnnnnnnnnn",
"nnnnnnnnnnnnnnnnnnnnnnnnnnnnnnnnnnnnnnnnnnnnnnnn"
};
