/* XPM */
static char *googleearth[] = {
/* columns rows colors chars-per-pixel */
"48 48 256 2",
"   c #000000",
".  c #151222",
"X  c #1C2437",
"o  c #1E283C",
"O  c #25243B",
"+  c #28203F",
"@  c #23283D",
"#  c #2C2A3E",
"$  c #271E43",
"%  c #281F43",
"&  c #132C43",
"*  c #122F49",
"=  c #1E2C42",
"-  c #13324D",
";  c #1A3249",
":  c #143451",
">  c #1D3A55",
",  c #1A3A57",
"<  c #2C2247",
"1  c #212D45",
"2  c #2B2C41",
"3  c #2E2549",
"4  c #332E44",
"5  c #30274B",
"6  c #32294D",
"7  c #34324A",
"8  c #39334E",
"9  c #362C51",
"0  c #392E52",
"q  c #223F5B",
"w  c #293A54",
"e  c #343750",
"r  c #3C3455",
"t  c #3E3459",
"y  c #3F385A",
"u  c #393A55",
"i  c #2B354E",
"p  c #1A3F60",
"a  c #423954",
"s  c #41365B",
"d  c #433B5C",
"f  c #493F5F",
"g  c #463D61",
"h  c #493F64",
"j  c #21415E",
"k  c #2C435C",
"l  c #38415B",
"z  c #1C4569",
"x  c #1F4B71",
"c  c #244462",
"v  c #2E4B65",
"b  c #2D4D6C",
"n  c #234A6C",
"m  c #374966",
"M  c #3A526C",
"N  c #36536F",
"B  c #214D75",
"V  c #2E5272",
"C  c #23527C",
"Z  c #325575",
"A  c #3A5E7D",
"S  c #3B5879",
"D  c #48405F",
"F  c #4B4264",
"G  c #4E4369",
"H  c #51466C",
"J  c #544A6E",
"K  c #574B72",
"L  c #594D74",
"P  c #445C76",
"I  c #4A5978",
"U  c #5C5276",
"Y  c #5E5279",
"T  c #5A5A79",
"R  c #49506A",
"E  c #61557C",
"W  c #63587D",
"Q  c #48627B",
"!  c #47637E",
"~  c #68607E",
"^  c #245680",
"/  c #255985",
"(  c #275C89",
")  c #285F8D",
"_  c #385F80",
"`  c #3D6486",
"'  c #346288",
"]  c #2A6393",
"[  c #2C699B",
"{  c #2C6799",
"}  c #366B97",
"|  c #2F6EA2",
" . c #366FA0",
".. c #3A71A1",
"X. c #3274AB",
"o. c #3877AB",
"O. c #367BB5",
"+. c #4F5F85",
"@. c #505F80",
"#. c #665A81",
"$. c #6A5D83",
"%. c #476888",
"&. c #566687",
"*. c #59728D",
"=. c #4B7395",
"-. c #43749E",
";. c #497397",
":. c #517796",
">. c #5C7794",
",. c #466E91",
"<. c #6D6186",
"1. c #69648A",
"2. c #72658B",
"3. c #756A8F",
"4. c #77708F",
"5. c #776C90",
"6. c #7A6E93",
"7. c #647E98",
"8. c #7D7195",
"9. c #7F7198",
"0. c #4379A5",
"q. c #4C7BA4",
"w. c #477BA7",
"e. c #527FA6",
"r. c #877F94",
"t. c #82759B",
"y. c #85799E",
"u. c #887C9F",
"i. c #8577A0",
"p. c #8779A0",
"a. c #8B7DA4",
"s. c #3D81B8",
"d. c #6B839C",
"f. c #64819B",
"g. c #4F82AE",
"h. c #5383AC",
"j. c #5B87AF",
"k. c #5A84A8",
"l. c #4286BC",
"z. c #4886B9",
"x. c #5689B5",
"c. c #5C8CB3",
"v. c #568AB6",
"b. c #5E90BA",
"n. c #648BAD",
"m. c #6688A6",
"M. c #738BA2",
"N. c #748EAB",
"B. c #7D95AB",
"V. c #7591AD",
"C. c #6292BA",
"Z. c #6894BA",
"A. c #7D99B3",
"S. c #769DBC",
"D. c #7E9DBB",
"F. c #7497B4",
"G. c #498DC3",
"H. c #4489C0",
"J. c #4E91C6",
"K. c #5396C9",
"L. c #5C9ACA",
"P. c #5D9FD0",
"I. c #6395C1",
"U. c #689BC6",
"Y. c #739FC4",
"T. c #5FA1D2",
"R. c #7BA1C2",
"E. c #78A5CC",
"W. c #62A2D2",
"Q. c #6BA9D7",
"!. c #7DABD1",
"~. c #76AFD9",
"^. c #76B1DC",
"/. c #79B2DC",
"(. c #7BB6E0",
"). c #8E80A6",
"_. c #8F81A9",
"`. c #9084A7",
"'. c #9283AB",
"]. c #9489AC",
"[. c #978EA9",
"{. c #8299AD",
"}. c #998BB1",
"|. c #849CB3",
" X c #829FBB",
".X c #9D91B3",
"XX c #A196B7",
"oX c #A399B3",
"OX c #85A2BA",
"+X c #8CA8BF",
"@X c #8BA2B7",
"#X c #97A9BB",
"$X c #A0AFBA",
"%X c #A4B2BE",
"&X c #8AA6C5",
"*X c #8CAAC5",
"=X c #84AACA",
"-X c #8DADC9",
";X c #87A9C4",
":X c #92ACC3",
">X c #99AFC4",
",X c #92ADCA",
"<X c #8FB1CE",
"1X c #97B2C7",
"2X c #94B2CC",
"3X c #9BB3CE",
"4X c #9DB5C7",
"5X c #8BB3D3",
"6X c #84B5D8",
"7X c #93B5D1",
"8X c #99B9D3",
"9X c #93BED8",
"0X c #85AFD3",
"qX c #ACA1C0",
"wX c #B2AAC2",
"eX c #A3B6CA",
"rX c #A7B7C6",
"tX c #BFB6CE",
"yX c #A0B7D0",
"uX c #A4BAD1",
"iX c #AABED4",
"pX c #84BBE2",
"aX c #8DBFE2",
"sX c #9DC1DF",
"dX c #B6C3CE",
"fX c #ADC1D6",
"gX c #ABC6DB",
"hX c #A9C5DB",
"jX c #B1C3D6",
"kX c #B4C5D9",
"lX c #BCCBDC",
"zX c #B9C8D6",
"xX c #89C1E7",
"cX c #8EC3E8",
"vX c #97CAEC",
"bX c #9ED0F2",
"nX c #B2D6EE",
"mX c #C0CFDE",
"MX c #C5D1DE",
"NX c #C8D1D9",
"BX c #C5D3E1",
"VX c #CAD6E3",
"CX c #CDD9E4",
"ZX c #CBDDEC",
"AX c #D3DDE6",
"SX c #D6DEE8",
"DX c #D2E2EE",
"FX c #DBE4EC",
"GX c #E3E9EF",
"HX c #E2E7ED",
"JX c #E8EDF2",
"KX c #EDF1F5",
"LX c #F5F6F6",
"PX c #F5F7F8",
"IX c #FAFAFA",
"UX c None",
/* pixels */
"UXUXUXUXUXUXUXUXUXUXUXUXUXUXUXUXUXUXUXUXUXUXUXUXUXUXUXUXUXUXUXUXUXUXUXUXUXUXUXUXUXUXUXUXUXUXUXUX",
"UXUXUXUXUXUXUXUXUXUXUXUXUXUXUXUXUXUXUXUXUXUXUXUXUXUXUXUXUXUXUXUXUXUXUXUXUXUXUXUXUXUXUXUXUXUXUXUX",
"UXUXUXUXUXUXUXUXUXUXUXUXUXUXUXUXUXUXUXUXUXUXUXUXUXUXUXUXUXUXUXUXUXUXUXUXUXUXUXUXUXUXUXUXUXUXUXUX",
"UXUXUXUX[.wXtXtXtXtXtXtXtXtXtXtXtXtXtXtXtXtXtXtXtXtXtXtXtXtXtXtXtXtXtXtXtXtXtXtXtXtXwX[.UXUXUXUX",
"UXUXUXu.$X}.a.}.a.}.a.a.'.'.}.a.}.}.a.}.}.a.'.'.a.}.}.a.}.}.a.a.'.'.'.'.'.'._._.'.'.}.qXa.UXUXUX",
"UXUXUXXXa.a.a.a.a.}.a.}.a.'.a.`.a.a.}.a.}.a.}.a.'.'.a.}.}.a.a.}.'.'.'.'.'._._.)._.a.a.a.oXUXUXUX",
"UXUXUXXXa.a.a.a.a.a.a.}.'.'.`.`.}.}.a.}.a.}.a.}.'.a.}.a.}.a.}.a._._._._._._.).).a.a.a.a.XXUXUXUX",
"UXUXUXXXa.a.a.a.a.a.a.a.a.a.a.`.a.a.a.a.a.a.a.a.a.a.a.a.a.}.a.a._.a._._._.a.).p.a.a.a.a..XUXUXUX",
"UXUXUX.Xi.i.i.p.a.a.a.a.).).).`.).).u.y.3.1.&.&.+.1.1.5.t.a.a.a.).).).).).p.p.).a.i.i.i.}.UXUXUX",
"UXUXUX}.i.i.i.i.p.a.a.a.a.).a.a.9.3.&.V.jXAXFXHXDXZXlX>Xm.I 3.u.).).).u.).).).p.i.i.i.i.[.UXUXUX",
"UXUXUX].t.t.t.t.y.p.p.a.u.).u.4.%.n.1X4X$X%XrXrXtXAXSXSXSXMXM.I 4.y.u.a.y.).y.p.u.t.t.9.].UXUXUX",
"UXUXUX`.6.t.t.t.t.y.p.p.y.t.&.q.2XgXhX8X8XgXgXfX7X|.|.dXVXMXMXmX*.W t.u.y.y.9.y.t.9.t.9.`.UXUXUX",
"UXUXUX`.6.t.t.t.t.y.y.y.8.I x.VXKXIXPXFXhXgXsX7X2X2X,XOX{.dXBXlXlXM.I 8.u.t.t.t.9.9.9.6.).UXUXUX",
"UXUXUXu.6.6.6.t.t.t.t.8.I C.GXIXIXLXIXIXIXlX5X6X5X-X;X;X:X@X$XmXkXzX7.R 5.t.t.9.9.9.6.6.a.UXUXUX",
"UXUXUXu.5.6.6.6.t.t.6.T C.KXIXLXIXIXIXIXIXIXZX6X0X=X;X-XD.OXB.>XlXfXjX*.U 8.t.9.6.6.6.5.u.UXUXUX",
"UXUXUXy.3.3.3.6.3.6.W ;.FXIXIXIXIXIXIXIXIXIXIXDX6X!.E.2X2X,X:X|.rXkXiXuXP ~ 6.6.6.6.5.2.y.UXUXUX",
"UXUXUXt.2.2.3.3.5.2.S BXLXIXIXLXIXIXIXIXIXIXIXIXDX=XR.5X2X-X;XOXB.jXfX8X|.l 2.5.3.3.2.2.t.UXUXUX",
"UXUXUXt.2.<.2.3.2.T *XLXzX#X+X*X+X1XDXIXIXIXIXIXIXDX5X9XR.S.S.OXB.{.fXeX3XP U 3.3.2.2.2.t.UXUXUX",
"UXUXUX6.$.2.2.2.<.M ZX>XC.!.vX5XxXvXsXfXKXIXIXIXIXIXFXR.C.c.m.m.M.m.B.uX2XB.u $.2.2.$.$.6.UXUXUX",
"UXUXUX3.$.$.$.<.E :.OXv.U.E.!.6XxXvXbXbXsXCXIXIXIXIXPXFX<XD.k.k.:.%.A |.3X*Xc W <.<.$.$.3.UXUXUX",
"UXUXUX2.$.$.$.$.H -.h.v.z.I.K.~.6XcXbXbXvX6XsXLXIXIXIXLXGX-XS.F.m.%.` b Q P > J $.$.$.#.2.UXUXUX",
"UXUXUX<.W W #.W l -.0.X.O.l.K.P.^.6XxXcXxXpX/.S.AXIXLXLXLXHX;Xn.;.` B V j ; > l W $.#.W <.UXUXUX",
"UXUXUX<.E E W U l w...X.o.s.G.K.T.Q.^./.(.^.Q.W.Z.dXLXIXLXHXFXOX=.%.n V j j - u E W W E $.UXUXUX",
"UXUXUXW E E E U k } w.x.o.O.l.G.K.P.T.T.T.T.P.K.Z.E.A.NXJXHXFXAX+X%.Z j j > - w L E E Y $.UXUXUX",
"UXUXUXW U Y Y J w ) } 0.g.O.O.z.z.J.K.K.K.J.G.s.v.E.R.n.B.NXAXMXMX>XA j > - - i K Y Y Y W UXUXUX",
"UXUXUXE L U U J w ( ] { ..0.I.U.Y.z.l.l.H.H.s.s.O.C.Z.Z.c.:.B.lXzXfXjXM.> - - i J U L L E UXUXUX",
"UXUXUXU K L L K e / ) ] [ } C.I.U.L.z.O.O.O.O.| | | q...} ;.=.! d.1X3X3XeX@X&.8 J L K K U UXUXUX",
"UXUXUXU J J K J r C / ) ] 0.x.b.C.I.L.o.X.X.X.| | [ ] ) / ' ,.` S v P 7.D.;X! u J L J J L UXUXUX",
"UXUXUXJ H H J J f , ^ / } e.g.j.c.C.C.C.x. .[ [ ] ] ) ( C C %.A Z b j ; & w > f J J H H K UXUXUX",
"UXUXUXH G H H H F 1 B eXFXFXAXuXj.h.h.j.j.-.] ] ) ( / C B x ` V b j j - - - 2 D H H H G H UXUXUX",
"UXUXUXG h H G H F 4 Z lXmXMXCXAXFXzXF.h.q.) ( ( / ^ C B x z V b c j q : - - 8 F H H h F G UXUXUX",
"UXUXUXh h h F h F a 1 A.zXlXlXMXVXVXSXNX;X' ^ C C B x z z p b c j j , - : = s h G F h h h UXUXUX",
"UXUXUXg g g h h h h 6 , :XjXkXlXlXlXmXmXBXCXzX>Xm._ z p p , j j v Q M.#XM 6 D F h h g g g UXUXUX",
"UXUXUXs s g g g h h r < b eXiXiXjXjXkXkXkXkXjXiXkXlXlXjXeX>XeXiXiXyX&Xv # y F h g g g g t UXUXUX",
"UXUXUXs s s t g h g g 0 X %.3XyXuXeX7.f.&XuXuXeX8X3X2X,X;X&X;X;X&XN.M @ r s h h s g y s g UXUXUX",
"UXUXUXt t t t g s g h g 8 X Z OX1XN.j , : q v M I &.>.7.>.&.I M > & @ 8 f F s s y y t t t UXUXUX",
"UXUXUXt 0 t t t y h h F f a O = >.;X- : : - - - : - * * * * - - - # r D D f g t s t 0 0 0 UXUXUX",
"UXUXUX0 0 9 0 0 t s s h h f a 4 X m v - - - - - * : - - : - - 1 4 a F F h f s t t 0 0 0 0 UXUXUX",
"UXUXUX9 9 9 9 0 r t s f f F F D a # X & - - - - : : * - ; 1 4 r f F F f d y t r 9 9 9 6 0 UXUXUX",
"UXUXUX9 6 6 6 6 9 0 r r t d f D D a u 4 # @ O o o o 1 # 4 r a f f d s d t r 0 9 6 6 6 6 9 UXUXUX",
"UXUXUX6 3 5 5 5 3 6 9 9 0 r t t y y y r r 8 8 8 7 8 8 r r d y y t t 0 e 0 6 6 6 5 5 3 3 5 UXUXUX",
"UXUXUX3 < < < < 3 3 < 3 < 3 5 6 6 6 8 0 0 e 0 0 0 r 8 6 0 8 6 6 6 5 5 3 3 3 3 < 3 3 < < 5 UXUXUX",
"UXUXUX+ < < < $ < < < < < < < < < < < < < < < < < < < < < < < < < < < < < < < < $ $ < < < UXUXUX",
"UXUXUX. < $ $ $ $ $ $ $ < $ < < < + < < % % % % % % < $ $ < < $ % % $ $ $ $ $ $ $ $ $ < . UXUXUX",
"UXUXUX  . + 5 6 6 6 0 r e r r d D D D D D F F H G F F F F f d d d a r r r 0 9 6 6 3 < .   UXUXUX",
"UXUXUXUXUX                                                                            UXUXUXUXUX",
"UXUXUXUXUXUXUXUXUXUXUXUXUXUXUXUXUXUXUXUXUXUXUXUXUXUXUXUXUXUXUXUXUXUXUXUXUXUXUXUXUXUXUXUXUXUXUXUX",
"UXUXUXUXUXUXUXUXUXUXUXUXUXUXUXUXUXUXUXUXUXUXUXUXUXUXUXUXUXUXUXUXUXUXUXUXUXUXUXUXUXUXUXUXUXUXUXUX"
};
