/* XPM */
static char *google[] = {
/* columns rows colors chars-per-pixel */
"48 48 256 2",
"   c #000000",
".  c #043D1B",
"X  c #285238",
"o  c #0C6C31",
"O  c #067533",
"+  c #127E36",
"@  c #06682C",
"#  c #5D7434",
"$  c #7E6837",
"%  c #1D7C44",
"&  c #2A6F46",
"*  c #617252",
"=  c #B92E2E",
"-  c #BB3423",
";  c #A13A34",
":  c #DB2422",
">  c #C8352E",
",  c #CD3C3C",
"<  c #DB3737",
"1  c #D53B3B",
"2  c #DD3C3C",
"3  c #E02525",
"4  c #E12C2C",
"5  c #E23434",
"6  c #E33C3C",
"7  c #80402B",
"8  c #955A35",
"9  c #A7583B",
"0  c #B0563C",
"q  c #C5483A",
"w  c #D1433A",
"e  c #B84B46",
"r  c #8E6F50",
"t  c #967958",
"y  c #A76D5E",
"u  c #9B6F63",
"i  c #9C7968",
"p  c #937F70",
"a  c #DC4242",
"s  c #E34343",
"d  c #E54C4C",
"f  c #E75656",
"g  c #C77262",
"h  c #CD7F70",
"j  c #EC7D7D",
"k  c #E07777",
"l  c #E86565",
"z  c #038537",
"x  c #028937",
"c  c #038738",
"v  c #0C8339",
"b  c #058B39",
"n  c #0A8E3D",
"m  c #13853A",
"M  c #138C3C",
"N  c #128337",
"B  c #039137",
"V  c #059339",
"C  c #0B933D",
"Z  c #069B39",
"A  c #0B9C3D",
"S  c #0F9C37",
"D  c #14913F",
"F  c #2C8C35",
"G  c #0CA23D",
"H  c #06A038",
"J  c #11A53F",
"K  c #0D8C40",
"L  c #138E44",
"P  c #178F48",
"I  c #0E9340",
"U  c #0F9C40",
"Y  c #119642",
"T  c #1B9244",
"R  c #139C43",
"E  c #1C924B",
"W  c #208F47",
"Q  c #22924D",
"!  c #2C9248",
"~  c #3A9340",
"^  c #15A345",
"/  c #18A747",
"(  c #16A945",
")  c #19A947",
"_  c #1AAB48",
"`  c #28A246",
"'  c #508B43",
"]  c #46875F",
"[  c #588D6B",
"{  c #5A906C",
"}  c #56996B",
"|  c #5C9F74",
" . c #678F77",
".. c #629573",
"X. c #9F900F",
"o. c #8C871D",
"O. c #938C14",
"+. c #9E9718",
"@. c #B59B0C",
"#. c #A79618",
"$. c #B49E19",
"%. c #B6A20F",
"&. c #AFA314",
"*. c #BFAC14",
"=. c #BAA412",
"-. c #BFB015",
";. c #8D8D2B",
":. c #9E9422",
">. c #8B9038",
",. c #B49B2B",
"<. c #CDA10B",
"1. c #DDAB0C",
"2. c #D7AD0E",
"3. c #D7B60E",
"4. c #CABA16",
"5. c #C5B716",
"6. c #D6BE15",
"7. c #DBBF12",
"8. c #E7AF0D",
"9. c #E2B40E",
"0. c #E8B50E",
"q. c #E8BA0F",
"w. c #E4AE1C",
"e. c #E4BD12",
"r. c #E8BC11",
"t. c #EAB41E",
"y. c #C6A126",
"u. c #EAB522",
"i. c #EAB826",
"p. c #EBBA2A",
"a. c #E5B82C",
"s. c #CEC018",
"d. c #D5C417",
"f. c #D6C718",
"g. c #E9C314",
"h. c #E1C916",
"j. c #E9CA16",
"k. c #E3CE18",
"l. c #E9CE18",
"z. c #E4C315",
"x. c #E6D41A",
"c. c #E9D319",
"v. c #8C9246",
"b. c #9B9C49",
"n. c #8D9753",
"m. c #8A965C",
"M. c #8C995E",
"N. c #A79E40",
"B. c #A5A347",
"V. c #B8A849",
"C. c #978370",
"Z. c #919F71",
"A. c #9FAD7F",
"S. c #1D5483",
"D. c #064E98",
"F. c #3A6C88",
"G. c #2E6B91",
"H. c #356E90",
"J. c #3A6993",
"K. c #0C56A3",
"L. c #0E5CAA",
"P. c #0857A7",
"I. c #115DAB",
"U. c #035BB3",
"Y. c #0A5DB5",
"T. c #035EBD",
"R. c #105FB0",
"E. c #1867AA",
"W. c #0C62BD",
"Q. c #0761BF",
"!. c #1165BC",
"~. c #1568BF",
"^. c #1464B5",
"/. c #3A7EA0",
"(. c #2A77B1",
"). c #4A7788",
"_. c #557E8B",
"`. c #457293",
"'. c #0562C4",
"]. c #0B66C5",
"[. c #0E68C6",
"{. c #0465CB",
"}. c #0B67C8",
"|. c #0C6ACA",
" X c #0669CF",
".X c #126AC5",
"XX c #126CCB",
"oX c #1570CF",
"OX c #0B6ED5",
"+X c #046CDA",
"@X c #106ED0",
"#X c #0B70DB",
"$X c #1573D5",
"%X c #1676DB",
"&X c #1778DE",
"*X c #0572E5",
"=X c #0B75E4",
"-X c #1077E3",
";X c #1579E1",
":X c #3C81A8",
">X c #3480B2",
",X c #48839F",
"<X c #59879B",
"1X c #709D82",
"2X c #658C97",
"3X c #63929C",
"4X c #759799",
"5X c #7FA98F",
"6X c #4887A3",
"7X c #5088A0",
"8X c #5990A1",
"9X c #6298A4",
"0X c #7C9BA0",
"qX c #75A2A5",
"wX c #B69689",
"eX c #92B39E",
"rX c #9BAA84",
"tX c #A2B294",
"yX c #A9B78C",
"uX c #85A5A5",
"iX c #83ACAB",
"pX c #89A5A7",
"aX c #98B7A4",
"sX c #98B8A5",
"dX c #8DB4B2",
"fX c #86B4B4",
"gX c #96B9B5",
"hX c #99BEB9",
"jX c #AFBFA6",
"kX c #B4BEAC",
"lX c #A8C5BD",
"zX c #A7C7B2",
"xX c #B6C6B8",
"cX c #B3D4BD",
"vX c #ABC9C1",
"bX c #A6C7C0",
"nX c #BECFC9",
"mX c #BAD1C9",
"MX c #BFD5C7",
"NX c #CAD5CA",
"BX c #C6D5CA",
"VX c #CCDBD2",
"CX c #D4DDD6",
"ZX c #D1DFD8",
"AX c #DBE4DE",
"SX c #DDE7E1",
"DX c #E1E6E2",
"FX c #E4EBE6",
"GX c #E7EBE8",
"HX c #EBEDEC",
"JX c #ECF1EE",
"KX c #EFF4F0",
"LX c #F4F4F4",
"PX c #F6F8F7",
"IX c #FBFBFB",
"UX c None",
/* pixels */
"UXUXUXUXUXUXUXUXUXUXUXUXUXUXUXUXUXUXUXUXUXUXUXUXUXUXUXUXUXUXUXUXUXUXUXUXUXUXUXUXUXUXUXUXUXUXUXUX",
"UXUXUXUXUXUXUXUXUXUXUXUXUXUXUXUXUXUXUXUXUXUXUXUXUXUXUXUXUXUXUXUXUXUXUXUXUXUXUXUXUXUXUXUXUXUXUXUX",
"UXUXUXUXUXUXUXUXUXUXUXUXUXUXUXUXUXUXUXUXUXUXUXUXUXUXUXUXUXUXUXUXUXUXUXUXUXUXUXUXUXUXUXUXUXUXUXUX",
"UXUXUXUX| MXIXIXIXIXZX0X<XJ.`.2XpXLXIXIXIXIXIXIXwXk j j j j j j j j j j j j j j j j h t UXUXUXUX",
"UXUXUX} IXIXIXIXIXlXP.Q.{. X X{.T.G.JXIXIXIXIXIXGXe a s d d s s s d s d s s s s s s d l r UXUXUX",
"UXUXUXcXIXIXIXIXJXL.+X*X*X*X*X*X+X'.H.KXIXIXIXIXIXxXw s s s s s s s s s s s s s s s s s g UXUXUX",
"UXUXUXIXIXIXIXIXiX'.*X*X*X*X=X=X=X=XQ.3XIXIXIXIXIXIXy 2 s s d s s s s s s s s 6 s 6 6 6 f UXUXUX",
"UXUXUXIXIXIXIXIX8X X*X=X=X=X=X=X=X=XOXL.SXIXIXIXIXIXxX, s s s s s s s s s s 6 6 6 6 6 2 f UXUXUX",
"UXUXUXIXIXIXIXIX8XOX=X=X-X-X-X-X-X-X-X].3XIXIXIXIXIXLXe s s s s s s s s s 6 6 6 6 6 6 5 d UXUXUX",
"UXUXUXIXIXIXIXIX7X#X=X-X-X-X-X;X-X;X-X$XI.PXIXIXIXIXIXi 2 s s s s s s 6 s 6 6 6 5 5 5 5 d UXUXUX",
"UXUXUXIXIXIXIXIX,XOX&X-X;X;X;X-X;X;X;X&X!.MXIXIXIXIXIXC.2 6 s s s s s s 6 s 6 6 5 5 5 5 d UXUXUX",
"UXUXUXPXIXIXIXIX6XOX&X&X;X;X&X&X;X;X;X&XXXuXIXIXIXIXIXC.1 s s 6 s 6 6 6 6 6 6 5 5 5 4 5 s UXUXUX",
"UXUXUXPXIXPXIXIXdXXX&X&X&X&X&X&X&X&X&X&XoX<XIXIXPXIXPXu 1 6 6 6 6 6 6 6 6 6 6 5 5 5 4 4 s UXUXUX",
"UXUXUXPXIXIXIXIXAX].%X%X&X&X&X%X&X&X&X&XoX7XIXIXIXIXLX; < 6 6 6 6 6 6 6 5 6 5 5 5 4 4 4 6 UXUXUX",
"UXUXUXPXIXIXIXIXIX:X$X%X%X&X%X%X%X%X%X%XoX6XIXIXIXIXBX= 5 6 6 < w q 0 0 w < 5 5 4 4 3 3 6 UXUXUX",
"UXUXUXPXIXPXIXIXIXiX.X%X%X$X%X%X%X%X%X%XXX8XIXIXPXIXp > 9 ' ` _ _ _ _ _ / _ ~ $ > 3 3 3 5 UXUXUX",
"UXUXUXNXIXIXIXIXPXKX(.$X%X%X$X%X%X%X%X%X.XhXIXPXIXNX7 F _ _ _ _ ) ) ) ) ) ) ( ( G # > : 5 UXUXUX",
"UXUXUXH.HXIXPXIXIXPXnX~.oX%X$X$X%XoX%XoX^.AXIXIXLX* D / _ _ _ _ ) ) ) ) ) ( ( U G H F - 4 UXUXUX",
"UXUXUXR.2XPXIXPXPXPXPXhX.XoX$X$X$X$XoX~.vXIXPXPX[ m / / _ ( ( ( ( ) ) ) / ( ^ ^ G G G S 8 UXUXUX",
"UXUXUX].D.pXPXIXIXPXIXPXvX(.XXoXoXXX>XxXPXPXPX{ N J / / / / / ( / / / ( / ^ ( ^ G G G H / UXUXUX",
"UXUXUX@XT.D.).GXPXLXPXIXPXPXbXfXfXmXIXIXLXLX{ N T ^ / / / / / / ) / ^ ^ ( ( U ( J G H H / UXUXUX",
"UXUXUX@X{.T.P.S.0XBXLXLXPXPXPXPXIXPXLXIXIX..N T / / ^ / / / / ^ ^ ( / / ^ ( ( U J H H H ^ UXUXUX",
"UXUXUXOX{.{.].Y.K.D.S.`.)._.pXPXLXPXIXLXVX+ T ^ / ^ / / / / / R ^ ^ ^ ^ ^ U ^ U G G Z H ^ UXUXUX",
"UXUXUX|.{.{.{.]..X].Y.I.I.I.3XIXIXPXLXIXzXM ^ ^ ^ ^ R / R / R / ^ ^ ^ ^ ^ ^ ( U A A S Z A UXUXUX",
"UXUXUX|.{.{.{.}.|.XXXXXXXX!.qXPXPXPXPXPXAXM R / ^ R ^ ^ R / ^ R / ^ R ^ ^ R ^ U G A Z Z U UXUXUX",
"UXUXUX}.'.{.{.].|.|.|.XXXX!.3XPXPXPXPXPXLXzXT R ^ ^ ^ ^ / R R / R / ^ R ^ R U U A A Z Z A UXUXUX",
"UXUXUX].'.{.'.].|.[.[.XX.X!.H.PXPXPXPXPXPXPXcXT R R R R / R R / R R R ^ R R ^ U U A Z V A UXUXUX",
"UXUXUX].'.'.'.].[.[.[.[..X.XK.xXPXLXPXPXLXPXLXBXW R R ^ R R R R / R R R R R U U A Z Z Z A UXUXUX",
"UXUXUX'.'.'.'.].[.[.[.[.~.~.R.F.PXPXLXPXLXPXPXPXBXW Y R R R R R R R R R R R U A A A V Z Z UXUXUX",
"UXUXUXQ.T.'.'.Q.W.R.E.6X9XdXvXZXLXLXLXLXLXLXLXLXPXZXQ Y R R R R R R R R R U U U A V Z V V UXUXUX",
"UXUXUX'.T.T.U./.gXAXLXPXPXPXKXKXLXHXHXPXLXLXLXLXPXPXZX! Y R R R R Y R R U U U I I V V V V UXUXUX",
"UXUXUXU.E.qXVXLXPXLXLXNXeXM.>.:.8 X.;.NXLXLXPXLXLXLXLXVXL P R R R R Y R Y U U I A Z V V V UXUXUX",
"UXUXUXlXHXLXLXLXNXm.o.X.=.-.s.s.f.f.4.+.eXLXLXLXLXLXLXLX| K U Y R Y R Y U I U I Z V V V B UXUXUX",
"UXUXUXPXLXLXKXZ.X.5.6.d.k.x.x.x.x.x.x.f.&.n.DXLXLXLXLXLXVX+ I Y Y Y Y Y U I I I I V V V B UXUXUX",
"UXUXUXPXLXLXn.%.3.f.l.c.c.l.x.x.c.c.c.c.f.5.;.AXLXLXLXLXLX} I Y Y Y Y Y U I I V V V V B B UXUXUX",
"UXUXUXLXLXxX@.d.j.j.l.l.l.c.c.c.c.c.c.c.c.k.5.v.HXLXLXLXLX5XK I Y I Y Y I I I I I V b B b UXUXUX",
"UXUXUXLXLXn.2.h.j.l.j.l.l.l.l.l.l.l.c.l.l.k.z.5.rXLXLXHXLXeXv I I Y I I I I I b I V b B V UXUXUX",
"UXUXUXLXLX+.3.g.g.g.g.j.j.j.j.j.j.l.j.j.j.j.j.6.v.LXLXLXLXaXv I I I I I I I I I b b B B b UXUXUX",
"UXUXUXLXHX@.9.g.g.g.g.g.g.g.g.g.j.g.j.j.j.g.j.z.$.HXKXLXLX1Xc K K I I I b b I B B b b b b UXUXUX",
"UXUXUXLXKX#.9.r.g.r.r.g.g.g.g.g.g.g.g.g.g.g.g.z.<.CXKXKXLX* c K K I K K b I b b b b b b b UXUXUX",
"UXUXUXKXLXb.2.r.q.q.r.r.r.r.r.r.g.r.g.r.g.g.g.z.$.JXLXKXZXo c K n n n n C b b b b b x x b UXUXUX",
"UXUXUXLXKXkX<.0.q.q.q.0.r.r.r.r.r.r.r.r.r.r.r.e.N.JXLXKX{ O b b c n b b b b b b b b b c b UXUXUX",
"UXUXUXsXKXHX,.2.0.9.0.0.0.0.0.r.q.0.0.r.q.q.q.2.rXLXKXBX@ + b b c b c b b c c c c c c c O UXUXUX",
"UXUXUXX LXKXAX,.8.8.8.8.0.0.0.0.0.0.0.0.0.0.9.B.HXKXGX& O c b b c c b c c c z z c c c b . UXUXUX",
"UXUXUX  X aXKXGXyXy.w.u.u.u.u.i.p.p.p.p.p.a.V.DXLXKX .% Q Q Q Q E E E P P P L L K K O .   UXUXUX",
"UXUXUXUXUX                                                                            UXUXUXUXUX",
"UXUXUXUXUXUXUXUXUXUXUXUXUXUXUXUXUXUXUXUXUXUXUXUXUXUXUXUXUXUXUXUXUXUXUXUXUXUXUXUXUXUXUXUXUXUXUXUX",
"UXUXUXUXUXUXUXUXUXUXUXUXUXUXUXUXUXUXUXUXUXUXUXUXUXUXUXUXUXUXUXUXUXUXUXUXUXUXUXUXUXUXUXUXUXUXUXUX"
};
