/* XPM */
static char *gtk_recordmydesktop[] = {
/* columns rows colors chars-per-pixel */
"48 48 191 2",
"   c #000000",
".  c #060802",
"X  c #525E15",
"o  c #566216",
"O  c #5C6A17",
"+  c #667616",
"@  c #6D7E17",
"#  c #66761A",
"$  c #68771B",
"%  c #677919",
"&  c #6A7B1D",
"*  c #6B7D23",
"=  c #6C7E29",
"-  c #6E801C",
";  c #738417",
":  c #73851C",
">  c #76891C",
",  c #798D1C",
"<  c #7F931C",
"1  c #6E8122",
"2  c #6E822B",
"3  c #728523",
"4  c #758925",
"5  c #798D23",
"6  c #71862C",
"7  c #758A2A",
"8  c #798D2B",
"9  c #7C9122",
"0  c #7D922C",
"q  c #6E8333",
"w  c #718535",
"e  c #748A34",
"r  c #7A8E33",
"t  c #71873A",
"y  c #748A3B",
"u  c #7A8C3B",
"i  c #7C9233",
"p  c #7F9933",
"a  c #779038",
"s  c #7D943A",
"d  c #7E993C",
"f  c #748B41",
"g  c #798E42",
"h  c #7C9343",
"j  c #82961C",
"k  c #869B1D",
"l  c #889D1E",
"z  c #829624",
"x  c #869D21",
"c  c #889F21",
"v  c #869E29",
"b  c #8B9E29",
"n  c #829633",
"m  c #839A35",
"M  c #899C35",
"N  c #81963E",
"B  c #88973F",
"V  c #839B3A",
"C  c #8A9D3C",
"Z  c #8AA125",
"A  c #8DA52B",
"S  c #8FA82F",
"D  c #93AA26",
"F  c #8CA533",
"G  c #8FA931",
"H  c #86A13E",
"J  c #8AA53D",
"K  c #8EA83A",
"L  c #91A631",
"P  c #92AC34",
"I  c #92A53C",
"U  c #93AD3B",
"Y  c #98AF3B",
"T  c #9CB334",
"R  c #95B13C",
"E  c #9CB33C",
"W  c #A4BC36",
"Q  c #A2BA3D",
"!  c #ACC627",
"~  c #ACC72B",
"^  c #B0C92F",
"/  c #ACC633",
"(  c #AEC833",
")  c #ACC63B",
"_  c #AFC93B",
"`  c #B1CA33",
"'  c #B2CB3C",
"]  c #819541",
"[  c #849A42",
"{  c #8A9C42",
"}  c #849B4C",
"|  c #899D49",
" . c #829550",
".. c #86A240",
"X. c #8CA343",
"o. c #8DAA42",
"O. c #88A14F",
"+. c #93A543",
"@. c #92AD44",
"#. c #9AAC44",
"$. c #94A548",
"%. c #93A94C",
"&. c #9AAD4A",
"*. c #96B342",
"=. c #99B645",
"-. c #99B847",
";. c #96B548",
":. c #9CB54B",
">. c #9AB949",
",. c #8EA554",
"<. c #91A553",
"1. c #94AA56",
"2. c #98AD54",
"3. c #93A758",
"4. c #95AB5B",
"5. c #9AAE5A",
"6. c #9CB254",
"7. c #9FB951",
"8. c #9BB35C",
"9. c #9FBA5A",
"0. c #A2B346",
"q. c #A3B941",
"w. c #A0B74A",
"e. c #A6BC4C",
"r. c #A8BD4B",
"t. c #A6B755",
"y. c #A5BC53",
"u. c #A8BE55",
"i. c #A1B75B",
"p. c #A4BA5A",
"a. c #ABBE58",
"s. c #9AAE62",
"d. c #9EB168",
"f. c #95A371",
"g. c #A3BC61",
"h. c #A8BE64",
"j. c #A2B46C",
"k. c #A6BB6C",
"l. c #A9BB68",
"z. c #A6B970",
"x. c #ACBF70",
"c. c #A3B17E",
"v. c #A7C041",
"b. c #ACC743",
"n. c #AEC844",
"m. c #A7C04A",
"M. c #ACC64C",
"N. c #AFC84C",
"B. c #B1CA44",
"V. c #B8CF46",
"C. c #B1CA4C",
"Z. c #B9CF4B",
"A. c #BAD04C",
"S. c #ACC653",
"D. c #AFC854",
"F. c #A7C05E",
"G. c #ADC65C",
"H. c #AEC85C",
"J. c #B1C551",
"K. c #B1CA53",
"L. c #B9CE54",
"P. c #B1C35C",
"I. c #B2CB5B",
"U. c #B9CE5C",
"Y. c #BCD15A",
"T. c #ABC665",
"R. c #AEC864",
"E. c #ACC768",
"W. c #AEC868",
"Q. c #B2C564",
"!. c #B2CB63",
"~. c #B1C66E",
"^. c #B3CB6A",
"/. c #B8CB6F",
"(. c #BED360",
"). c #BFD26B",
"_. c #AEC273",
"`. c #B4C674",
"'. c #B5CC72",
"]. c #B8CF74",
"[. c #B1C478",
"{. c #B9CD7B",
"}. c #BBD174",
"|. c #BAD07B",
" X c #C0D37E",
".X c #B5C787",
"XX c #BDD282",
"oX c #BFD48B",
"OX c #C0D198",
"+X c #CDDCA4",
"@X c None",
/* pixels */
"@X@X@X@X@X@X@X@X@X@X@X@X@X@X@X@X@X@X@X@X@X@X@X@X@X@X@X@X@X@X@X@X@X@X@X@X@X@X@X@X@X@X@X@X@X@X@X@X",
"@X@X@X@X@X@X@X@X@X@X@X@X@X@X@X@X@X@X@X@X@X@X@X@X@X@X@X@X@X@X@X@X@X@X@X@X@X@X@X@X@X@X@X@X@X@X@X@X",
"@X@X@X@X@X@X@X@X@X@X@X@X@X@X@X@X@X@X@X@X@X@X@X@X@X@X@X@X@X@X@X@X@X@X@X@X@X@X@X@X@X@X@X@X@X@X@X@X",
"@X@X@X@Xc.oX+X+X+X+X+X+X+X+X+X+X+X+X+X+X+X+X+X+X+X+X+X+X+X+X+X+X+X+X+X+X+X+X+X+X+X+XOXc.@X@X@X@X",
"@X@X@Xf.oX`.E.T.E.E.E.E.E.E.E.E.E.E.E.E.E.T.g.8.1.,.h h h } ,.4.8.g.E.E.E.E.T.E.W.W.W.oXf.@X@X@X",
"@X@X@X.XE.E.E.T.T.E.T.E.E.E.E.E.E.E.E.s.} f t t a h h ....s a y e t f ,.d.T.E.R.T.E.T.E..X@X@X@X",
"@X@X@XXXT.T.T.T.T.R.E.W.W.W.W.W.T.3.t q a o.@.;.;.;.>.>.>.>.>.>.;.@.H a e y 4.T.T.T.T.T.XX@X@X@X",
"@X@X@X|.G.T.T.T.R.R.T.W.W.W.E.,.y t X.*.;.>.;.>.>.>.>.>.>.>.>.>.>.>.-.;.;.H q a 8.T.G.T.|.@X@X@X",
"@X@X@X{.T.T.G.T.R.R.R.W.^.T.f e o.o.@.o...H J J o.o.;.-.-.-.-.-.-.-.-.-.-.-.*.H q h G.R.|.@X@X@X",
"@X@X@X|.G.T.T.T.R.R.W.W.4.q s J V d <.d.k.z.z.j.d.,.d d J *.=.-.=.=.-.=.=.=.-.-.@.s t 9.|.@X@X@X",
"@X@X@X].G.G.H.H.R.W.!.1.q d s 4.[.XX].^.W.^.^.^.^.].XX[.3.s J *.-.-.=.=.=.-.*.R -.@.V q l.@X@X@X",
"@X@X@X].H.H.R.R.R.W.2.q s s.{.].^.^.^.^.^.^.~.^.W.^.^.^.'.{.4.d K *.=.*.*.=.*.-.*.=.*.J  .@X@X@X",
"@X@X@X].G.G.H.R.I.6.q s _.].E.p.8.} u h ,.i.h.Q.^.^.^.^.^.^.]._.s X.*.*.R =.R =.R =.R *.2.@X@X@X",
"@X@X@X/.G.D.H.H.H.q { {.T.} t 2 2 s V p r 2 q y 6.^.!.!.!.^.!.W.`.[ J R *.R =.=.=.R *.R p.@X@X@X",
"@X@X@X^.D.G.G.G.[ h ].8.w 8 V m i i O.[ i s m m 6 h F.^.!.!.!.!.^.'.d K R R R R R =.R R y.@X@X@X",
"@X@X@X^.D.G.D.6.y ~.s 2 m i <._.{. X}.}.|.[.k.N m i q 6.^.!.!.!.!.!.W.d K R R R R R R R i.@X@X@X",
"@X@X@X^.S.D.G.s p.{ r s d `.^.!.!.!.!.!.!.!.!.|.8.i p 2 F.!.!.I.!.!.I.8.m U R R R U R R 7.@X@X@X",
"@X@X@X!.D.S.S.| 6.6 p $.}.!.I.R.!.I.!.I.H.!.I.!.!.`.s p u H.!.!.!.!.!.!.N J P R R R R P e.@X@X@X",
"@X@X@X!.S.D.o.6.w m [ ^.I.I.I.u.%.N [ %.a.!.I.I.I.I.l.i 0 { I.I.I.I.I.I.i.i P R R R R P :.@X@X@X",
"@X@X@XI.S.M.X.C 0 i E.I.I.G.N = 2 6 6 2 = X.H.I.I.I.!.2.i q S.I.I.I.I.I.I.i G U P P R P :.@X@X@X",
"@X@X@XI.S.M.:.s 0 1.I.D.P.i 6 i 5.l.l.2.8 6 N I.I.I.I.!.s 0 &.I.I.I.I.I.I.X.m P P P G P -.@X@X@X",
"@X@X@XI.N.M.y.7 0 u.K.I.+.6 N /.I.L.I.I.'.r 6 &.I.I.L.I...0 C I.K.I.K.I.G.%.v G P P R P =.@X@X@X",
"@X@X@XL.M.M.w.4 8 K.K.I.r 5 G.I.I.I.K.I.I.i.8 V I.K.K.K.#.0 i K.K.I.K.I.I.w.0 P P P P P *.@X@X@X",
"@X@X@XD.b.M.U 0 s D.K.N.6 8 I.K.K.K.K.K.K.S.3 8 K.D.K.D.y.0 6 K.K.K.K.K.K.m.7 G G G G G R @X@X@X",
"@X@X@XD.n.b.@.8 8 N.K.K.8 6 J.K.K.K.K.K.K.e.6 n K.C.I.K.=.8 7 I.K.K.D.K.K.m.7 A G G G S Y @X@X@X",
"@X@X@XN.b.N.m.4 3 r.C.K.C 4 K K.K.C.K.J.C.m 8 +.K.K.C.D.M 9 a C.K.K.C.C.C.=.8 F S S S S U @X@X@X",
"@X@X@XN.n.n.n.8 8 U N.C.u.7 = I M.C.K.M.C 1 8 S.C.C.C.K.8 8 { C.K.C.C.K.C.U 8 A A S A L P @X@X@X",
"@X@X@Xn.b.b.n.V 8 p C.C.C.6.4 * = 7 8 = * 4 p.C.C.C.C.m.3 5 6.C.C.C.C.C.C.m z A A A A L P @X@X@X",
"@X@X@Xb.b.b.b.@.5 1 I N.C.K.Q.V 4 3 3 3 { Q.C.C.C.C.N.7 8 7 K.C.C.C.C.C.N.1 Z A S A A A S @X@X@X",
"@X@X@Xb.) ) _ C.C 5 * q.B.C.C.Y.).Q.Q.).L.C.C.C.C.B.n 3 4 y.C.B.C.C.B.n.R 3 A A A A A A L @X@X@X",
"@X@X@Xb.) _ b.B.S.7 5 * E n.B.n.B.n.B.B.B.N.n.B.b.M 1 5 +.C.B.B.N.B.n.n.1 z A Z A A Z A A @X@X@X",
"@X@X@X) ) ) ) ) ' y.4 5 * 8 v.B.N.B.C.n.B.B.n.E * & , i K.N.B.B.B.B.n.F 3 Z A Z Z Z Z Z A @X@X@X",
"@X@X@X) ) ) ) ) _ n.a.8 5 : * 6 b Y q.Q I 0 3 $ 5 4 C L.B.B.B.n.B.B.Q $ x Z Z Z Z Z Z Z Z @X@X@X",
"@X@X@X/ / ) _ _ _ n.' I.$.: , > @ + $ # $ : > 4 7 a.C.n.' n.n.n.' Q & 5 b Z Z Z Z Z c c z @X@X@X",
"@X@X@X/ / ) _ _ _ _ _ n.B.a.+.n ; ; > > : 7 B &.U.B.' B.n.n.' ' Q * , b Z c Z c c Z c z 5 @X@X@X",
"@X@X@X/ / / / ( _ _ _ ) Q ) B.L. XP.t.a.U.Y.Z.' _ _ _ ' _ ' ' L $ , c c c c c c c l , 0 J.@X@X@X",
"@X@X@X/ / / / / ( _ _ _ Q 5 L _ ) ) _ _ _ ' _ ' ) _ ' _ _ W 3 $ < x l l c c l l z > n N./ @X@X@X",
"@X@X@X/ / ~ / / _ ( ( _ _ C.r & T W W ' _ ` _ ' _ _ W L > O > j l l l l l l k , : +.B.~ / @X@X@X",
"@X@X@X/ ~ / ~ / W ^ ( ( ( ( V.a.r O O $ 4 b b z 5 @ $ + : j k k k k k k j , @ C J.` ~ / ~ @X@X@X",
"@X@X@X~ ~ ~ ~ / ^ ^ / ( ( ^ / / V.P.B $ + + + @ ; , j j k k k k k j , ; : M J._ ~ ~ / ~ ~ @X@X@X",
"@X@X@X/ ! ~ ! ^ ~ ~ ~ / ~ ^ / ^ ^ / ' L.:.M 3 @ @ ; > , , > ; ; @ 3 J e.L.' ~ ~ ~ ~ ~ ! ~ @X@X@X",
"@X@X@X~ ! ! ! ! ~ ~ ~ ~ ~ ^ ~ ~ ~ ! ^ ~ ^ _ Z.J.r.0.#.+.#.&.e.J.L.Z.^ ~ ~ ^ ~ ^ ~ ~ ! ! ~ @X@X@X",
"@X@X@XD ! ! ! ! ~ ! ! ! ! ~ ~ ~ ^ ! ! ^ ! ! ! ! ! ^ ! ! ! ! ! ! ^ ! ~ ~ ! ! ! ! ! ! ! ! D @X@X@X",
"@X@X@Xo ~ ! ! ! ! ! ! ! ! ! ! ! ! ! ! ! ! ! ! ! ! ! ! ! ! ! ! ! ! ! ! ! ! ! ! ! ! ! ! ~ o @X@X@X",
"@X@X@X. o D ^ ` ^ ' ' ' ' ' ' V.V.V.V.V.A.A.A.A.A.A.A.A.V.V.V.V.' V.' ' ' ` ` ` ` ` D X . @X@X@X",
"@X@X@X@X@X                                                                            @X@X@X@X@X",
"@X@X@X@X@X@X@X@X@X@X@X@X@X@X@X@X@X@X@X@X@X@X@X@X@X@X@X@X@X@X@X@X@X@X@X@X@X@X@X@X@X@X@X@X@X@X@X@X",
"@X@X@X@X@X@X@X@X@X@X@X@X@X@X@X@X@X@X@X@X@X@X@X@X@X@X@X@X@X@X@X@X@X@X@X@X@X@X@X@X@X@X@X@X@X@X@X@X"
};
