/* XPM */
static char *opera[] = {
/* columns rows colors chars-per-pixel */
"48 48 185 2",
"   c #000000",
".  c #3C0404",
"X  c #5D1313",
"o  c #6E0707",
"O  c #670E0E",
"+  c #6C0D0D",
"@  c #7E0303",
"#  c #6A1111",
"$  c #631C1C",
"%  c #721313",
"&  c #7B1313",
"*  c #711F1F",
"=  c #7F1919",
"-  c #6A2323",
";  c #7E2A2A",
":  c #7A3131",
">  c #764A4A",
",  c #7E4E4E",
"<  c #820606",
"1  c #890707",
"2  c #850B0B",
"3  c #8B0C0C",
"4  c #930D0D",
"5  c #9A0E0E",
"6  c #831313",
"7  c #8D1212",
"8  c #851B1B",
"9  c #8B1C1C",
"0  c #931414",
"q  c #9C1414",
"w  c #951B1B",
"e  c #9C1C1C",
"r  c #A31515",
"t  c #AA1616",
"y  c #A41B1B",
"u  c #AB1B1B",
"i  c #B21B1B",
"p  c #8B2323",
"a  c #862B2B",
"s  c #8C2B2B",
"d  c #932323",
"f  c #9D2222",
"g  c #922D2D",
"h  c #9A2C2C",
"j  c #8F3232",
"k  c #933232",
"l  c #9B3232",
"z  c #933A3A",
"x  c #9B3A3A",
"c  c #A32323",
"v  c #AA2525",
"b  c #A52A2A",
"n  c #AD2929",
"m  c #B22323",
"M  c #B92424",
"N  c #B42D2D",
"B  c #BB2B2B",
"V  c #A43232",
"C  c #AC3333",
"Z  c #A43C3C",
"A  c #B43333",
"S  c #BC3232",
"D  c #B63A3A",
"F  c #BB3C3C",
"G  c #C02525",
"H  c #C02E2E",
"J  c #DD2727",
"K  c #DD2B2B",
"L  c #C33535",
"P  c #CB3333",
"I  c #C53A3A",
"U  c #CB3B3B",
"Y  c #D63737",
"T  c #DD3434",
"R  c #D43C3C",
"E  c #DB3B3B",
"W  c #E22C2C",
"Q  c #E23333",
"!  c #E43B3B",
"~  c #874040",
"^  c #8C4040",
"/  c #874949",
"(  c #954242",
")  c #835656",
"_  c #845858",
"`  c #955656",
"'  c #985757",
"]  c #945B5B",
"[  c #A54343",
"{  c #AB4444",
"}  c #A54949",
"|  c #B24747",
" . c #BC4444",
".. c #B34A4A",
"X. c #BB4B4B",
"o. c #A55454",
"O. c #AC5252",
"+. c #A65C5C",
"@. c #B15151",
"#. c #B95252",
"$. c #BB5959",
"%. c #8B6464",
"&. c #8A6B6B",
"*. c #936666",
"=. c #957373",
"-. c #9E7676",
";. c #957B7B",
":. c #997878",
">. c #A26363",
",. c #AC6E6E",
"<. c #B76161",
"1. c #BC6767",
"2. c #A67070",
"3. c #A47C7C",
"4. c #AA7C7C",
"5. c #B47777",
"6. c #B57F7F",
"7. c #C34343",
"8. c #CB4444",
"9. c #C44A4A",
"0. c #CB4B4B",
"q. c #D34343",
"w. c #DB4343",
"e. c #D44B4B",
"r. c #DC4D4D",
"t. c #C25050",
"y. c #CE5252",
"u. c #C35A5A",
"i. c #D35454",
"p. c #DC5353",
"a. c #D65B5B",
"s. c #DD5959",
"d. c #E24444",
"f. c #E24B4B",
"g. c #E25252",
"h. c #E15959",
"j. c #E95E5E",
"k. c #DA6464",
"l. c #E37272",
"z. c #EF7E7E",
"x. c #9B8484",
"c. c #A58787",
"v. c #A68E8E",
"b. c #A88C8C",
"n. c #B48080",
"m. c #B48B8B",
"M. c #B29494",
"N. c #B49C9C",
"B. c #BB9D9D",
"V. c #B5A5A5",
"C. c #BDA3A3",
"Z. c #BEA8A8",
"A. c #BFBABA",
"S. c #C78C8C",
"D. c #CC8A8A",
"F. c #CD9999",
"G. c #D59393",
"H. c #D09D9D",
"J. c #F18383",
"K. c #C7A5A5",
"L. c #C2AAAA",
"P. c #D1A0A0",
"I. c #D0AFAF",
"U. c #C9B6B6",
"Y. c #CCBABA",
"T. c #DFB4B4",
"R. c #D2BABA",
"E. c #DFBDBD",
"W. c #E0B7B7",
"Q. c #CBC4C4",
"!. c #CCCCCC",
"~. c #D3CACA",
"^. c #D8CECE",
"/. c #D4D3D3",
"(. c #D9D5D5",
"). c #DDDDDD",
"_. c #E4C7C7",
"`. c #E3DCDC",
"'. c #E4E4E4",
"]. c #E8E5E5",
"[. c #EBEBEB",
"{. c #F3EEEE",
"}. c #F3F3F3",
"|. c #F9F9F9",
" X c None",
/* pixels */
" X X X X X X X X X X X X X X X X X X X X X X X X X X X X X X X X X X X X X X X X X X X X X X X X",
" X X X X X X X X X X X X X X X X X X X X X X X X X X X X X X X X X X X X X X X X X X X X X X X X",
" X X X X X X X X X X X X X X X X X X X X X X X X X X X X X X X X X X X X X X X X X X X X X X X X",
" X X X Xu.l.z.z.z.z.z.z.z.z.z.z.J.z.J.J.J.J.J.J.J.J.J.z.z.z.J.z.z.z.z.z.z.z.z.z.z.z.l.u. X X X X",
" X X X..j.! W W W W W W Q W W W W W Q Q ! Q ! ! ! Q W W W W W W W W W W W W W W W W Q j.@. X X X",
" X X Xk.K W W W W W W Q Q Q Q W W W Q ! d.! ! ! ! Q W Q W Q W W Q W W W W J W W J W J K k. X X X",
" X X Xg.K K W W K K Q Q ! ! d.! Q T Q ! d.d.d.d.d.! Q T T Q Q Q Q T T K W Q K K J J J J f. X X X",
" X X Xg.K K K K K T T Y ! Q d.d.T T T d.d.f.d.f.d.! T T T ! Q Q T T T ! w.! ! K J J J J f. X X X",
" X X Xg.K T T T E ! d.d.d.Y d.f.f.E E ! g.f.r.q.Y Y Y E T Y E E E E ! f.d.d.! E K T T K g. X X X",
" X X Xg.T T T E d.w.d.w.E Y f.f.f.E Y w.y.G.W._._.T.G.7.R Y E E E w.g.f.r.d.w.T E T T T g. X X X",
" X X Xp.T Y E E w.f.r.Y w.q.w.f.w.U 7.~.}.|.}.}.}.|.|.{.W.X.R R E g.g.w.f.r.d.w.E E T Y r. X X X",
" X X Xf.Y E E w.d.r.E Y Y w.p.q.I D.{.}.}.Q.-.] ] :.Q.}.|.{.D.I r.h.h.q.g.f.r.w.w.E Y T p. X X X",
" X X Xr.Y E E w.r.r.R R R q.h.8.P.}.}.}.N.s V C C V s M.}.}.}.F.9.h.g.R w.p.r.w.w.w.Y Y p. X X X",
" X X Xi.Y E w.w.r.r.r.q.R e.i.H.}.}.}.(.k D I U U I D j ^.}.}.}.S.8.r.q.p.g.p.r.w.w.E Y r. X X X",
" X X Xr.R E w.w.r.g.p.h.q.e.$.].[.}.[.' C U U R R U U C ` [.}.[.].#.e.p.h.p.p.r.w.w.E R r. X X X",
" X X Xr.Y q.q.r.r.p.p.h.s.9.U.[.[.[.^.h I U U q.U U U I h ~.[.}.[.I.t.s.h.p.p.r.r.w.R R r. X X X",
" X X Xr.Y R w.e.r.p.p.h.a.1.[.[.[.[.L.V U U U R I U U L n C.[.[.[.].1.a.s.s.p.r.r.q.R R r. X X X",
" X X Xe.R q.q.r.r.p.s.s.t.Y.].].[.[.3.C L U U L U L U I C 4.].[.[.].Y.t.a.p.q.q.r.R P R r. X X X",
" X X X8.R q.q.r.p.a.s.a.<.].].].].[.' A I I I I I U L U S *.].].].].].<.a.q.L H r.U P R e. X X X",
" X X XU U R q.e.r.p.s.u.5.'.'.'.'.].z A L L L L L L L L S +.].'.'.].].,.7.a.p.p.e.q.G U e. X X X",
" X X XL P R e.e.i.a.p.t.m.'.'.'.'.'.z S S L L S L L L L A z '.'.'.'.'.4.n I 8.i.e.q.R U e. X X X",
" X X XB M q.e.q.r.i.a...C.'.).'.'.'.k A L S L S S L S S D O.`.'.'.'.).N.V I 8.r.q.e.R U e. X X X",
" X X XM i H U e.i.e.S h U.).'.).).).s N S S S S S B S S y.O.'.).'.).`.U...a.i.i.e.q.L U U  X X X",
" X X XM u i M 8.r.S N d /.).).).).).s N S N B S S S A I k.O.).).).).).(.} i.e.8.e.8.L H M  X X X",
" X X Xm u i i B 0.8.7.g A.!.!.!.!.!.p C A B N N N N A i.k.O.!.Q.!.!.!.A.[ y.i.I 8.8.U L M  X X X",
" X X Xm t i i v m I 0.Z N.!.!.!.!.!.s n N N N N N N N i.k.O.!.!.!.!.!.V.} y.i.0.I 8.B t v  X X X",
" X X Xu t u u u v m n l c.!.!.!.!.!.s n N N N N N n N I k.+.!.!.!.!.!.b.{ i.0.e.8.B u t u  X X X",
" X X Xu t u u u v n v d *.!././.!./.( v n n n n n N n n F o./.!./.!./.-.{ 0.0.0.7.I u t u  X X X",
" X X Xt q t y u v v v d / /././././.+.F n v n n n n v n f ^ /././././.] ..0.0.8.7.v t r r  X X X",
" X X Xt r r y y u v v f ; /././././.2.t.9.F v n v c n n f ] /././././.( X.0.8.7.M y t q t  X X X",
" X X Xr r q r y y c c f p v././.(./.m.#.a.y.9.n c n v v d c./.)./.).v.x 9.9.7.7.y r q r r  X X X",
" X X X5 5 q r e y c c c 9 : !.).).).Z.| y.y.9.c c c c c 9 Z./.).).!.^ Z 9.7.7.F e r q 5 q  X X X",
" X X X5 5 q q q y f c c d 8 :.).).).!.[ 9.y.D c c c c f 8 !.).).).=.z  . .7.F D q v q 5 5  X X X",
" X X X4 4 q q q e e e e e 9 * Q.).).`.n. .9.c f f c f w 2.'.'.).Q.* Z  . .F F c e N q 4 4  X X X",
" X X X4 4 5 0 q q e e e e w = _ /.'.'.(.} b e f f e e z /.'.'.)., 6 C F F D A q q e 5 4 4  X X X",
" X X X4 4 4 4 0 0 e e e e e 9 a %.).'.'.U.9 9 w w 9 p Y.'.'.)., % 8 b D D A f 0 0 4 4 4 4  X X X",
" X X X4 3 4 4 0 0 0 w w w w w V a _ Q.'.].).K.n.6.K.`.[.].Q.> % 8 e e C C b 0 0 0 4 4 4 4  X X X",
" X X X3 1 3 3 4 0 0 0 0 w w e C V s - ;.!.'.].[.[.[.'.Q.;.X % 7 w w w w w 0 0 0 4 3 1 3 1  X X X",
" X X X1 1 1 3 3 3 7 7 7 w 7 w b C d & + X > &.x.x.&.> X # & 8 w 7 w 7 7 7 0 7 7 3 1 1 1 3  X X X",
" X X X1 1 1 1 1 1 3 3 7 7 7 w b f 7 7 6 & # # O O + + & 6 7 7 7 7 7 7 7 7 3 3 1 1 1 1 < 1  X X X",
" X X X< < < < < 2 1 3 3 3 6 0 f 7 6 7 6 3 6 6 2 2 3 6 6 3 6 3 6 7 3 7 6 3 3 1 < 2 < < < <  X X X",
" X X X< < < < < < 2 < < < 2 7 w 2 3 < 3 2 2 2 3 2 2 2 2 3 2 3 3 < < 2 2 < < < < < < < < <  X X X",
" X X Xo < @ @ < < @ < @ @ 2 < 7 < < < < < < < < @ < < 2 @ < < < < < < @ @ < @ < < @ @ @ o  X X X",
" X X X. @ @ @ @ @ @ @ @ @ @ @ @ @ @ @ @ @ @ @ @ @ @ @ @ @ @ @ @ @ @ @ @ @ @ @ @ @ @ @ @ X  X X X",
" X X X  . + & 2 2 8 8 8 p 8 p p p s g g g k k k z k k g g g d p p p p 8 8 8 8 6 & 2 + .    X X X",
" X X X X X                                                                             X X X X X",
" X X X X X X X X X X X X X X X X X X X X X X X X X X X X X X X X X X X X X X X X X X X X X X X X",
" X X X X X X X X X X X X X X X X X X X X X X X X X X X X X X X X X X X X X X X X X X X X X X X X"
};
