/* XPM */
static char *picasa[] = {
/* columns rows colors chars-per-pixel */
"48 48 256 2",
"   c #000000",
".  c #080808",
"X  c #287C1D",
"o  c #6E6E6E",
"O  c #727272",
"+  c #BE2F32",
"@  c #BF3D3E",
"#  c #C32B2E",
"$  c #DE3032",
"%  c #E03033",
"&  c #EF3336",
"*  c #EC393C",
"=  c #F23437",
"-  c #F93538",
";  c #F03D3F",
":  c #F93B3E",
">  c #D56B0A",
",  c #DC700C",
"<  c #E27007",
"1  c #E47108",
"2  c #E37B08",
"3  c #F17708",
"4  c #F57A08",
"5  c #FD7D08",
"6  c #E17715",
"7  c #E47B1A",
"8  c #C67329",
"9  c #C07939",
"0  c #BF3E40",
"q  c #F93E41",
"w  c #BF4B4D",
"e  c #BE6061",
"r  c #C04E50",
"t  c #EB4447",
"y  c #F94144",
"u  c #F14548",
"i  c #F94648",
"p  c #FA4A4D",
"a  c #E84E50",
"s  c #F14F51",
"d  c #E6595B",
"f  c #FA5355",
"g  c #F15859",
"h  c #FA5B5E",
"j  c #FA5659",
"k  c #C05F61",
"l  c #F95F61",
"z  c #C77172",
"x  c #E56668",
"c  c #F16062",
"v  c #FA6164",
"b  c #F96769",
"n  c #F2686B",
"m  c #FB6B6E",
"M  c #F76E71",
"N  c #E37376",
"B  c #EB7577",
"V  c #F37275",
"C  c #F77678",
"Z  c #2C831C",
"A  c #358E17",
"S  c #328A18",
"D  c #369017",
"F  c #389417",
"G  c #329526",
"H  c #339C26",
"J  c #35962A",
"K  c #3E9934",
"L  c #36A427",
"P  c #38A726",
"I  c #3BAB25",
"U  c #35A328",
"Y  c #3EB223",
"T  c #41B31F",
"R  c #45BC1E",
"E  c #48BF1E",
"W  c #419B38",
"Q  c #489D3E",
"!  c #42B621",
"~  c #44B920",
"^  c #49C01E",
"/  c #5EA754",
"(  c #77AF66",
")  c #77B470",
"_  c #79B372",
"`  c #E38308",
"'  c #E38808",
"]  c #F58509",
"[  c #FE8308",
"{  c #F58C09",
"}  c #FE8B09",
"|  c #F5950A",
" . c #FE9309",
".. c #F5980A",
"X. c #FE9809",
"o. c #DF8431",
"O. c #D28136",
"+. c #E48B3A",
"@. c #81BA74",
"#. c #82B57B",
"$. c #83B87B",
"%. c #C78346",
"&. c #D5904F",
"*. c #DD924E",
"=. c #E29855",
"-. c #E4AF5F",
";. c #D09D6F",
":. c #CD9F74",
">. c #DCA16C",
",. c #E4AE63",
"<. c #E5AD6B",
"1. c #E4B061",
"2. c #E4AA73",
"3. c #1B4D8E",
"4. c #1E538F",
"5. c #1B529B",
"6. c #2E5E9E",
"7. c #235A91",
"8. c #2F6B98",
"9. c #276293",
"0. c #38749C",
"q. c #1C55A2",
"w. c #1D59A6",
"e. c #1D5CA9",
"r. c #1C62AC",
"t. c #1A6BAF",
"y. c #1C67B0",
"u. c #1B6BB2",
"i. c #1973B5",
"p. c #1A75B9",
"a. c #3B68A3",
"s. c #805792",
"d. c #825894",
"f. c #865A9A",
"g. c #8A5B9E",
"h. c #8B619D",
"j. c #846292",
"k. c #8F749A",
"l. c #8F5FA4",
"z. c #905EA5",
"x. c #9163A5",
"c. c #9663AC",
"v. c #9864AE",
"b. c #9B6AAF",
"n. c #956DA6",
"m. c #9471A4",
"M. c #967CA0",
"N. c #9973A9",
"B. c #9E7BAF",
"V. c #9D6BB2",
"C. c #A07EAF",
"Z. c #A273B6",
"A. c #A07BB1",
"S. c #A577B8",
"D. c #A77BBA",
"F. c #A97EBC",
"G. c #6887B2",
"H. c #6D99BE",
"J. c #7792B7",
"K. c #7893B7",
"L. c #7496B9",
"P. c #7198BC",
"I. c #7B96BB",
"U. c #679CC0",
"Y. c #699CC0",
"T. c #86B980",
"R. c #90BE8A",
"E. c #96BF92",
"W. c #9F82AB",
"Q. c #9984A4",
"!. c #8699B1",
"~. c #839EBF",
"^. c #A287AC",
"/. c #A682B6",
"(. c #A88AB6",
"). c #AC83BD",
"_. c #AD8CB9",
"`. c #A896B0",
"'. c #AB98B3",
"]. c #AF94B9",
"[. c #B297BD",
"{. c #B59CBF",
"}. c #9AA9BE",
"|. c #B6A6BC",
" X c #D48D8E",
".X c #CF9596",
"XX c #E48081",
"oX c #E38A8C",
"OX c #E39394",
"+X c #E39798",
"@X c #E39899",
"#X c #DBB18C",
"$X c #E5B992",
"%X c #E79EA0",
"&X c #DDBFA3",
"*X c #E5A1A3",
"=X c #E9B1B2",
"-X c #9DC599",
";X c #9AC396",
":X c #AFCEAB",
">X c #AEC4AB",
",X c #BDD5BA",
"<X c #E1CAB6",
"1X c #AF87C0",
"2X c #B28BC2",
"3X c #B592C4",
"4X c #B895C7",
"5X c #B999C7",
"6X c #BA96C8",
"7X c #BA99C9",
"8X c #9DB0C9",
"9X c #B9A2C1",
"0X c #BBA8C4",
"qX c #A7B7CD",
"wX c #A7BECC",
"eX c #ADBAC9",
"rX c #C3B7C7",
"tX c #C3B8C9",
"yX c #C8BFCE",
"uX c #C4B1CB",
"iX c #C9BAD0",
"pX c #BBC8D8",
"aX c #BCC7D2",
"sX c #C3C3C3",
"dX c #CBDDC9",
"fX c #CFC5D2",
"gX c #C5CEDC",
"hX c #D3C6D7",
"jX c #CDD6DD",
"kX c #D3D3D3",
"lX c #D9D0DE",
"zX c #EECFCF",
"xX c #EBC2C2",
"cX c #E7DCD2",
"vX c #E9DFD5",
"bX c #ECDEDE",
"nX c #EDD3D3",
"mX c #F0D9D9",
"MX c #DCE5DB",
"NX c #DADFE3",
"BX c #DDD4E1",
"VX c #E2DCE4",
"CX c #DDE1E6",
"ZX c #E4E4E4",
"AX c #E6EAE5",
"SX c #EBEAE6",
"DX c #E6E6E9",
"FX c #E9E5EB",
"GX c #ECEBEC",
"HX c #F2E2E2",
"JX c #F4ECEC",
"KX c #EFEEF0",
"LX c #F0EFF0",
"PX c #F3F3F3",
"IX c #FBFBFB",
"UX c None",
/* pixels */
"UXUXUXUXUXUXUXUXUXUXUXUXUXUXUXUXUXUXUXUXUXUXUXUXUXUXUXUXUXUXUXUXUXUXUXUXUXUXUXUXUXUXUXUXUXUXUXUX",
"UXUXUXUXUXUXUXUXUXUXUXUXUXUXUXUXUXUXUXUXUXUXUXUXUXUXUXUXUXUXUXUXUXUXUXUXUXUXUXUXUXUXUXUXUXUXUXUX",
"UXUXUXUXUXUXUXUXUXUXUXUXUXUXUXUXUXUXUXUXUXUXUXUXUXUXUXUXUXUXUXUXUXUXUXUXUXUXUXUXUXUXUXUXUXUXUXUX",
"UXUXUXUXkXPXIXIXIXIXIXIXIXIXIXIXIXIXIXIXIXIXIXIXIXIXIXIXIXIXIXIXIXIXIXIXIXIXIXIXIXIXPXkXUXUXUXUX",
"UXUXUXsXIXPXPXPXPXPXIXPXPXIXPXPXPXIXPXPXPXIXPXPXPXPXPXPXPXIXPXPXPXPXIXPXPXIXPXPXPXPXIXIXsXUXUXUX",
"UXUXUXFXPXPXPXPXPXPXPXPXPXPXPXPXPXPXPXPXPXPXPXLXPXPXPXPXPXPXPXPXPXPXPXPXPXPXPXPXPXIXPXPXFXUXUXUX",
"UXUXUXIXPXIXPXPXIXPXPXPXPXPXPXPXPXPXHX.Xe r w + # r r k .XbXPXPXPXPXPXPXPXPXPXPXPXPXPXPXPXUXUXUX",
"UXUXUXPXPXPXPXPXPXPXPXPXPXPXPXPXPXz # $ & = = - - - = = % #  XIXPXIXPXPXPXPXPXPXPXPXPXPXIXUXUXUX",
"UXUXUXPXPXPXLXPXPXPXPXPXPXPXyXfXPXJXN = - - - - - - - - - = oXPX#X<XPXPXPXPXPXPXPXPXPXPXPXUXUXUX",
"UXUXUXPXPXPXPXPXLXPXPXPXPX`.s.s.rXPXJXoX* q q q q : : : - = oXPX2.> :.LXPXPXPXLXPXPXPXPXPXUXUXUX",
"UXUXUXPXPXLXLXPXPXPXPXAXk.f.c.c.s.|.PXPX%Xt p p p p p p y ; oXPX2.4 < 9 vXPXPXPXLXLXPXPXPXUXUXUX",
"UXUXUXIXPXLXPXLXPXPXAXj.l.v.c.V.V.h.'.PXPX=Xa j f f f p p u oXPX2.4 5 4 8 SXPXPXLXPXPXPXPXUXUXUX",
"UXUXUXPXPXLXLXPXLXPXm.l.v.v.V.V.Z.S.n.^.LXPXxXd l v h h j s oXPX2.4 5 5 4 %.LXLXPXLXLXLXPXUXUXUX",
"UXUXUXPXLXLXLXPXLX'.l.v.v.V.Z.Z.D.F.).B.Q.GXPXzXx b b v v g OXPX<.] 5 5 5 2 >.LXLXLXLXLXPXUXUXUX",
"UXUXUXPXLXLXLXLXfXd.v.v.V.Z.Z.D.).2X_.2X(.M.DXPXmXN M m n l OXGX<.] [ [ 5 5 > &XLXPXLXLXPXUXUXUX",
"UXUXUXPXLXLXLXLXk.c.v.v.V.Z.D.).2X2X2X6X5X(.tXLXJXHXXXV C n OXPX<.] [ [ 5 5 ] O.LXLXLXLXPXUXUXUX",
"UXUXUXPXKXPXKXfXl.v.v.V.Z.D.F.1X2X3X6X6X[.BXLXKXPXGXHXoXC V @XLX<.{ } [ [ 5 5 1 <XLXLXLXPXUXUXUX",
"UXUXUXLXGXGXKXW.z.v.V.V.S.F.1X2X3X6X7X3XVXPXGXPXGXPXGXJX@XB @XLX,.{ } } [ 5 5 4 &.LXLXGXPXUXUXUX",
"UXUXUXPXGXPXNXf.v.v.V.S.D.1X2X3X6X7X5XAXPXGXGXPXPXPXGXPXLX*X@XLX,.| } } [ [ 5 5 , cXLXGXLXUXUXUX",
"UXUXUXPXGXGX0Xl.v.v.V.S.D.1X3X4X3X9XGXGXGXPXGXGXGXGXLXGXLXLXnXKX,.| X. .} [ 5 5 4 #XLXGXLXUXUXUX",
"UXUXUXGXKXGX].c.v.V.Z.S.F.1X3X3X0XKXPXGXPXGXGXPXLXLXLXLXGXGXLXGX-.| X.} } [ 5 5 4 >.GXLXLXUXUXUX",
"UXUXUXPXGXGXW.c.v.V.Z.D.1X1X_.0XLXGXGXGXGXGXGXPXGXGXGXGXGXLXGXLX-...X.} } [ [ 5 5 *.GXGXLXUXUXUX",
"UXUXUXGXKXGXm.v.v.V.Z.F.1X/.iXGXGXGXPXGXGXPXGXGXGXGXGXLXLXGXGXLX-...X. .} } [ 5 5 o.GXGXLXUXUXUX",
"UXUXUXGXGXGXh.v.v.V.Z.D.B.hXKXAXGXGXGXGXGXGXGXGXGXGXGXGXGXGXGXGX-...X. .} [ 5 5 5 6 FXGXGXUXUXUX",
"UXUXUXGXGXGXn.c.v.V.Z.N.lXJXDXaXGXGXGXGXGXGXGXGXGXLXGXGXGXGXGXGX-.| X. .} } [ 5 5 7 GXGXGXUXUXUX",
"UXUXUXGXFXGXB.c.v.b.N.NXGXNX0.U.GXGXGXGXGXGXGXGXGXGXGXGXGXGXGXGX,.| X. .} [ [ 5 5 +.GXGXGXUXUXUX",
"UXUXUXGXFXGX_.c.c.N.ZXGXjX8.i.U.GXGXGXGXGXGXGXGXGXGXGXGXGXGXGXGX-.| X. .} [ [ 5 5 =.GXAXGXUXUXUX",
"UXUXUXGXGXFX|.l.A.FXFXaX9.i.p.U.GXGXGXGXGXGXGXGXSXGXGXGXGXGXGXGX,.| X.} } [ 5 5 4 2.FXGXFXUXUXUX",
"UXUXUXGXSXFXyX(.FXGXeX7.t.p.p.Y.GXGXGXGXGXAXGXGXDXGXFXGXGXGXAXGX1.' ' ` 2 2 1 1 , $XSXFXGXUXUXUX",
"UXUXUXSXAXFXZXGXFX}.7.e.u.i.i.Y.AXFXDXSXGXFXFXGXGXGXGXAXGXAXGXGXLXPXPXPXPXPXPXPXPXGXAXSXGXUXUXUX",
"UXUXUXFXSXFXFXFX!.3.e.r.y.u.u.H.GXDXGXDXGXSXAXGXAXFXDXGXGXDXAXFXFXFXFXDXFXFXAXFXGXFXFXSXFXUXUXUX",
"UXUXUXDXDXAXAXaX3.w.w.e.r.u.t.H.AX( D F F F F F F F F F D A A A A Z Z Z Z X X X >XFXAXDXZXUXUXUX",
"UXUXUXAXFXSXFXFXI.q.w.w.e.y.r.P.GX@.T R R E E E E E E R ~ ~ ! ! Y I I U U U H $.FXGXFXSXDXUXUXUX",
"UXUXUXDXZXSXAXDXCXa.w.w.e.r.r.P.ZX@.T T ~ R R R R R R ! ! ! Y Y I I I U U U W MXDXAXZXSXDXUXUXUX",
"UXUXUXDXZXZXDXDXSXpX5.e.w.e.w.P.SX@.I ! ! ! ! ! T ! ! Y Y Y Y I I P U U U G :XZXAXZXAXZXDXUXUXUX",
"UXUXUXDXZXAXZXAXAXFX~.5.w.w.q.J.ZX@.I I I ! ! Y ! Y ! I Y I I I U U U U H _ SXAXDXDXZXZXDXUXUXUX",
"UXUXUXDXZXZXZXSXDXZXZXG.5.w.5.K.DX@.L I I I I I Y I I I I I P U U U L H $.AXDXDXAXZXZXAXZXUXUXUX",
"UXUXUXZXDXZXZXZXAXDXAXFX8X5.q.K.ZX#.H I I I I I I I I P P U U U U U H ;XFXDXSXZXZXZXDXZXZXUXUXUX",
"UXUXUXZXZXZXZXZXZXZXZXZXAXgX6.J.DX#.H U U L L L U U U P U U U U U G :XFXZXZXZXZXZXZXZXZXDXUXUXUX",
"UXUXUXDXZXZXZXZXZXZXDXZXDXDXCXqXDX#.U U U U U U U U U U U U U G R.MXDXDXAXDXZXZXZXZXZXZXZXUXUXUX",
"UXUXUXZXZXZXZXZXZXZXZXZXVXZXZXZXZXE.G H H H U U U U H H H J -XMXAXZXZXZXZXZXZXVXZXZXVXZXZXUXUXUX",
"UXUXUXZXZXVXMXZXZXZXMXZXZXZXZXZXZXFXSXdX-X_ / K Q _ -X,XdXAXFXZXZXZXZXZXZXZXMXZXMXZXZXZXZXUXUXUX",
"UXUXUXsXZXbXVXZXMXZXMXZXVXZXZXZXZXMXMXZXDXFXGXGXLXGXZXMXZXZXMXZXCXMXZXbXVXZXZXZXVXZXbXMXsXUXUXUX",
"UXUXUXO ZXCXMXZXVXZXVXZXZXMXZXVXZXVXZXZXZXMXZXZXZXVXZXZXVXMXZXZXZXVXZXVXMXZXMXZXZXZXCXZXO UXUXUX",
"UXUXUX. o sXZXDXSXFXZXZXAXZXGXGXFXGXGXGXGXGXGXGXGXGXGXGXFXGXGXFXFXFXSXAXDXDXZXDXZXDXsXo . UXUXUX",
"UXUXUXUXUX                                                                            UXUXUXUXUX",
"UXUXUXUXUXUXUXUXUXUXUXUXUXUXUXUXUXUXUXUXUXUXUXUXUXUXUXUXUXUXUXUXUXUXUXUXUXUXUXUXUXUXUXUXUXUXUXUX",
"UXUXUXUXUXUXUXUXUXUXUXUXUXUXUXUXUXUXUXUXUXUXUXUXUXUXUXUXUXUXUXUXUXUXUXUXUXUXUXUXUXUXUXUXUXUXUXUX"
};
