/* XPM */
static char *picasa_fontcfg[] = {
/* columns rows colors chars-per-pixel */
"48 48 256 2",
"   c #000000",
".  c #080808",
"X  c #333333",
"o  c #393939",
"O  c #287C1D",
"+  c #434343",
"@  c #4C4C4C",
"#  c #5A5A5A",
"$  c #626262",
"%  c #6E6E6E",
"&  c #727272",
"*  c #7A7A7A",
"=  c #BE2F32",
"-  c #BF3D3E",
";  c #C32B2E",
":  c #DE3032",
">  c #E03033",
",  c #EE3639",
"<  c #F23437",
"1  c #F93538",
"2  c #F43C3F",
"3  c #D56B0A",
"4  c #DC700C",
"5  c #E27007",
"6  c #E47108",
"7  c #E37B08",
"8  c #F17708",
"9  c #F57A08",
"0  c #FD7D08",
"q  c #E27918",
"w  c #C67329",
"e  c #C07939",
"r  c #BF3E40",
"t  c #F93E41",
"y  c #BF4B4D",
"u  c #BE6061",
"i  c #C04E50",
"p  c #EB4447",
"a  c #F94144",
"s  c #F94648",
"d  c #FA4A4D",
"f  c #F14548",
"g  c #E84E50",
"h  c #F14F51",
"j  c #E6595B",
"k  c #FA5355",
"l  c #F15859",
"z  c #FA5B5E",
"x  c #FA5659",
"c  c #C05F61",
"v  c #F95F61",
"b  c #C77172",
"n  c #E56668",
"m  c #FA6164",
"M  c #F96769",
"N  c #FB6B6E",
"B  c #F16467",
"V  c #F76E71",
"C  c #E37376",
"Z  c #EB7577",
"A  c #F37275",
"S  c #F77678",
"D  c #2C831C",
"F  c #358E17",
"G  c #328A18",
"H  c #369017",
"J  c #389417",
"K  c #329526",
"L  c #339C26",
"P  c #35962A",
"I  c #3E9934",
"U  c #36A427",
"Y  c #38A726",
"T  c #3BAB25",
"R  c #35A328",
"E  c #3EB223",
"W  c #45BC1E",
"Q  c #48BF1E",
"!  c #41B31F",
"~  c #419B38",
"^  c #489D3E",
"/  c #42B621",
"(  c #44B920",
")  c #49C01E",
"_  c #5EA754",
"`  c #77AF66",
"'  c #77B470",
"]  c #79B372",
"[  c #E38808",
"{  c #E38308",
"}  c #F58509",
"|  c #FE8308",
" . c #F58C09",
".. c #FE8B09",
"X. c #F5950A",
"o. c #FE9309",
"O. c #F5980A",
"+. c #FE9809",
"@. c #DF8431",
"#. c #D28136",
"$. c #E48B3A",
"%. c #81BA74",
"&. c #82B57B",
"*. c #83B87B",
"=. c #C78346",
"-. c #D5904F",
";. c #DD924E",
":. c #E29855",
">. c #E4AF5F",
",. c #D09D6F",
"<. c #CD9F74",
"1. c #DCA16C",
"2. c #E4AE63",
"3. c #E5AD6B",
"4. c #E4B061",
"5. c #E4AA73",
"6. c #1B4D8E",
"7. c #1E538F",
"8. c #1B529B",
"9. c #285C97",
"0. c #2F6B98",
"q. c #276293",
"w. c #38749C",
"e. c #1C55A2",
"r. c #1D59A6",
"t. c #1D5CA9",
"y. c #1C62AC",
"u. c #1A6BAF",
"i. c #1C67B0",
"p. c #1B6BB2",
"a. c #1973B5",
"s. c #1A75B9",
"d. c #3B68A3",
"f. c #805792",
"g. c #865A9A",
"h. c #8A5B9E",
"j. c #825894",
"k. c #8B619D",
"l. c #846292",
"z. c #8F749A",
"x. c #8F5FA4",
"c. c #905EA5",
"v. c #9163A5",
"b. c #9663AC",
"n. c #9864AE",
"m. c #986CAB",
"M. c #9471A4",
"N. c #967CA0",
"B. c #9973A9",
"V. c #9E7BAF",
"C. c #9D6BB2",
"Z. c #A07EAF",
"A. c #A273B6",
"S. c #A577B8",
"D. c #A77BBA",
"F. c #A97EBC",
"G. c #A07BB1",
"H. c #6887B2",
"J. c #6D99BE",
"K. c #7792B7",
"L. c #7893B7",
"P. c #7496B9",
"I. c #7697BC",
"U. c #679CC0",
"Y. c #699CC0",
"T. c #858585",
"R. c #8D8D8D",
"E. c #969696",
"W. c #86B980",
"Q. c #90BE8A",
"!. c #96BF92",
"~. c #9C83A7",
"^. c #849CB8",
"/. c #A287AC",
"(. c #A88AB6",
"). c #AC83BD",
"_. c #AD8CB9",
"`. c #A682B6",
"'. c #A896B0",
"]. c #AB98B3",
"[. c #AF94B9",
"{. c #B39ABE",
"}. c #9AA9BE",
"|. c #A3A3A3",
" X c #ABABAB",
".X c #B6A6BC",
"XX c #BFBFBF",
"oX c #D48D8E",
"OX c #CF9596",
"+X c #E38A8C",
"@X c #E48081",
"#X c #E39394",
"$X c #E39798",
"%X c #E39899",
"&X c #DBB18C",
"*X c #E5B992",
"=X c #E79EA0",
"-X c #DDBFA3",
";X c #E5A1A3",
":X c #E9B1B2",
">X c #9DC599",
",X c #9AC396",
"<X c #AFCEAB",
"1X c #AEC4AB",
"2X c #BDD5BA",
"3X c #E1CAB6",
"4X c #AF87C0",
"5X c #B28BC2",
"6X c #B592C4",
"7X c #B895C7",
"8X c #B999C7",
"9X c #BA96C8",
"0X c #BA99C9",
"qX c #9DB0C9",
"wX c #B9A2C1",
"eX c #BBA8C4",
"rX c #A7B7CD",
"tX c #A7BECC",
"yX c #ADBAC9",
"uX c #C3B7C7",
"iX c #C8BFCE",
"pX c #C3B4CA",
"aX c #C9BAD0",
"sX c #BCC7D4",
"dX c #C3C3C3",
"fX c #CACACA",
"gX c #CBDDC9",
"hX c #CFC5D2",
"jX c #C5CEDC",
"kX c #D3C6D7",
"lX c #CDD6DD",
"zX c #D4D4D4",
"xX c #D9D0DE",
"cX c #EECFCF",
"vX c #EBC2C2",
"bX c #E9DFD5",
"nX c #ECDEDE",
"mX c #EAD7D2",
"MX c #F0D9D9",
"NX c #DCE5DB",
"BX c #DCDAE2",
"VX c #E2DCE4",
"CX c #DDE1E6",
"ZX c #E4E4E4",
"AX c #E6EAE5",
"SX c #EBEAE6",
"DX c #E6E6E9",
"FX c #E9E5EB",
"GX c #EBEBEB",
"HX c #F2E2E2",
"JX c #F4ECEC",
"KX c #EFEEF0",
"LX c #F0EFF0",
"PX c #F3F3F3",
"IX c #FBFBFB",
"UX c None",
/* pixels */
"UXUXUXUXUXUXUXUXUXUXUXUXUXUXUXUXUXUXUXUXUXUXUXUXUXUXUXUXUXUXUXUXUXUXUXUXUXUXUXUXUXUXUXUXUXUXUXUX",
"UXUXUXUXUXUXUXUXUXUXUXUXUXUXUXUXUXUXUXUXUXUXUXUXUXUXUXUXUXUXUXUXUXUXUXUXUXUXUXUXUXUXUXUXUXUXUXUX",
"UXUXUXUXUXUXUXUXUXUXUXUXUXUXUXUXUXUXUXUXUXUXUXUXUXUXUXUXUXUXUXUXUXUXUXUXUXUXUXUXUXUXUXUXUXUXUXUX",
"UXUXUXUXzXPXIXIXIXIXIXIXIXIXIXIXIXIXIXIXIXIXIXIXIXIXIXIXIXIXIXIXIXIXIXIXIXIXIXIXIXIXPXzXUXUXUXUX",
"UXUXUXdXIXIXPXPXIXPXPXPXPXPXIXPXIXPXPXIXPXPXIXPXPXPXPXPXIXPXPXIXIXPXPXPXPXPXPXIXIXPXPXIXdXUXUXUX",
"UXUXUXDXPXPXPXPXPXPXPXPXPXPXPXPXPXPXPXPXPXPXPXJXPXPXIXPXPXPXPXPXPXPXPXPXIXPXPXPXPXPXPXIXGXUXUXUX",
"UXUXUXIXPXPXPXPXPXPXPXPXPXPXLXPXPXKXnXOXu y y = = ; y c OXnXPXPXPXPXPXPXLXPXPXPXPXPXPXPXIXUXUXUX",
"UXUXUXIXPXPXPXPXPXPXPXPXPXIXIXPXIXb ; : < < < 1 2 2 < < : ; oXPXPXPXIXPXPXPXPXPXPXPXPXPXPXUXUXUX",
"UXUXUXIXLXPXPXPXPXLXPXPXPXPXiXhXPXJXC < 1 1 1 1 1 1 1 1 1 < +XPX&X3XPXPXPXPXLXPXPXPXPXPXIXUXUXUX",
"UXUXUXPXPXPXPXLXPXPXPXPXPX'.f.f.uXPXJX+X, t a a a t 2 2 1 1 +XPX5.3 <.PXPXPXPXPXPXPXPXPXPXUXUXUX",
"UXUXUXIXPXPXPXPXPXPXPXDXz.g.b.b.j..XLXPX=Xp d d d d d a a 2 +XPX5.9 6 e bXPXPXPXGXPXGXPXPXUXUXUX",
"UXUXUXPXPXGXPXPXPXPXFXl.x.n.n.C.C.k.].PXPX:Xg k x k k k d f +XPX5.9 0 8 w SXPXPXPXPXPXGXIXUXUXUX",
"UXUXUXPXPXGXPXGXLXLXM.x.n.n.C.C.S.S.M.~.JXPXvXj v v v z x h +XLX5.8 0 0 8 =.LXLXGXGXPXPXPXUXUXUX",
"UXUXUXPXPXPXPXGXPX].x.n.n.C.C.S.D.F.).V.~.GXPXcXn M M v m l #XPX3.} 0 0 0 6 1.LXPXPXPXGXPXUXUXUX",
"UXUXUXPXGXPXGXPXhXg.n.n.C.A.S.D.).4X5X5X).N.FXPXMXC N N N B #XLX3.} | | 0 0 4 -XPXLXGXPXPXUXUXUX",
"UXUXUXPXPXGXPXPXz.c.n.n.C.S.S.).4X5X6X7X9X).pXKXKXHX,.A S B #XLX3.} | | | 0 9 #.LXLXLXLXPXUXUXUX",
"UXUXUXPXLXLXLXkXx.n.C.C.A.S.4X4X5X6X9X0X[.BXPXPXKXLXHX+XS Z %XPX3. ...| | 0 0 6 3XPXGXLXPXUXUXUX",
"UXUXUXPXGXKXLX~.c.n.C.C.S.D.4X5X6X0X0X{.CXKXKXGXLXKXLXJX%XZ %XGX2. .....| 0 0 0 -.KXLXGXPXUXUXUX",
"UXUXUXLXKXGXBXg.b.b.C.S.D.4X4X6X9X0X8XDXKXKXKXPX Xo fXGXJX;X%XLX2.X.o...| | 0 0 4 bXLXGXLXUXUXUX",
"UXUXUXLXLXGXeXc.n.n.C.S.D.4X6X7X7XwXFXGXKXKXKXCX@ X |.GXJXPXmXGX2.X.o.....| 0 0 8 &XLXGXPXUXUXUX",
"UXUXUXLXGXKX[.b.n.C.C.D.).4X6X6XeXGXGXPXGXGXKXR.~.X ] GXGXLXGXLX>.X.+.o...| 0 0 9 1.GXGXLXUXUXUX",
"UXUXUXLXGXGX/.c.n.C.A.D.).4X_.eXPXGXGXPXGXLXlX# FX@ # LXGXLXLXGX>.X.+.....| | 0 0 ;.GXGXGXUXUXUX",
"UXUXUXLXGXKXB.n.n.C.S.D.4X`.iXGXGXGXKXGXLXSX% -XFX& o GXLXGXGXLX>.O.+.o.....| 0 0 @.GXGXLXUXUXUX",
"UXUXUXGXGXGXk.n.n.C.A.D.G.kXKXAXGXGXGXGXGXsX& SXFXE.X fXGXGXGXGX>.O.+.o...| 0 0 0 q GXGXGXUXUXUX",
"UXUXUXGXGXGXv.b.n.C.A.B.xXGXDXsXGXGXGXGXGX# XXzXzX|.X  XJXGXGXGX>.O.+.o.....| 0 0 q GXGXGXUXUXUX",
"UXUXUXGXGXGXV.n.n.m.B.VXGXBXw.U.LXGXGXDX|.$ & * * * X T.GXGXGXGX>.X.+.o...| | 0 0 $.GXAXGXUXUXUX",
"UXUXUXGXGXGX[.b.b.B.DXGXlX0.a.U.GXGXGXnX# DXGXGXFXGX+ $ GXGXGXGX>.X.+.o...| | 0 0 :.DXGXGXUXUXUX",
"UXUXUXGXAXFX.Xx.Z.FXSXsXq.s.s.Y.GXGXGXT. XGXGXGXGXGX$ + GXGXGXGX2.X.o.....| 0 0 9 5.GXGXGXUXUXUX",
"UXUXUXAXFXGXiX(.FXGXyX7.u.s.s.J.AXGX& $ $ zXFXGXGX% $ # $ DXGXGX2.[ { { 7 6 6 6 5 *XGXFXGXUXUXUX",
"UXUXUXGXAXFXZXFXDX}.7.y.p.a.a.J.GXGXGXDXGXSXAXGXAXGXGXGXGXGXAXGXLXPXPXPXPXPXPXPXPXGXAXDXGXUXUXUX",
"UXUXUXFXDXAXFXGX^.6.t.y.i.p.p.J.DXGXGXAXGXDXGXAXGXDXGXFXFXAXGXFXAXFXGXGXGXGXFXAXGXSXGXDXFXUXUXUX",
"UXUXUXSXAXZXDXsX6.r.r.t.y.p.u.J.GX` F H J J J J J J J J H F F G G D D O O O O O 1XAXDXDXAXUXUXUX",
"UXUXUXDXSXDXDXGXL.e.r.r.t.i.i.P.SX%.! W Q Q W ) ) W W W ( ( / E E T T Y R R L *.DXDXSXDXDXUXUXUX",
"UXUXUXDXDXAXZXSXZXd.r.r.t.y.t.P.DX%.! ! W W W W W W W W ( / E E E Y Y R R R ~ NXAXAXZXDXZXUXUXUX",
"UXUXUXDXDXZXDXDXDXsX8.r.r.t.t.J.ZX%.E ! / ! ( / / / / / E E E T T Y R R R K <XAXFXDXZXAXAXUXUXUX",
"UXUXUXDXZXSXZXAXAXGX^.e.r.e.e.P.DX%.Y T T E / E / E / T T T T Y Y Y R R L ' GXDXAXDXDXZXDXUXUXUX",
"UXUXUXDXZXZXZXZXSXZXCXH.8.r.e.P.ZX*.U T T T T T T T T T T T Y Y R R R K W.AXZXAXSXZXDXZXDXUXUXUX",
"UXUXUXZXZXSXZXDXZXDXZXGXqX8.e.L.DX*.L T T T T T T T Y Y Y Y R R R R K ,XGXAXZXAXDXZXZXZXZXUXUXUX",
"UXUXUXZXZXZXZXZXZXDXDXZXGXjX9.L.ZX*.L U R U U U Y Y Y R R R R R R K <XGXZXZXDXZXZXZXZXZXDXUXUXUX",
"UXUXUXDXZXZXZXZXZXZXZXZXDXFXBXrXDX*.L R R R R R R R R R R R L P Q.NXDXZXZXDXDXZXZXZXZXZXZXUXUXUX",
"UXUXUXZXnXZXZXZXZXZXZXZXZXZXZXZXZX!.K L L L R R R R L L L P >XNXDXZXZXZXZXZXZXVXZXZXZXZXZXUXUXUX",
"UXUXUXZXCXZXZXZXZXZXZXZXZXZXZXZXZXDXAXgX>X] _ I ^ ' >X2XgXAXAXZXZXZXZXZXZXZXZXZXZXZXZXZXZXUXUXUX",
"UXUXUXdXNXZXNXVXZXCXZXZXnXNXxXAXZXNXxXZXDXAXGXGXGXGXZXZXZXZXAXZXZXxXNXZXnXNXZXNXnXVXZXVXdXUXUXUX",
"UXUXUX% ZXZXZXZXNXnXNXVXCXZXZXZXZXZXAXZXZXZXZXZXZXZXNXCXnXZXxXZXZXAXCXnXZXCXZXZXNXZXZXNX& UXUXUX",
"UXUXUX. % dXDXDXZXDXDXDXDXAXFXGXGXGXGXGXGXGXGXGXGXGXGXGXGXGXGXGXAXGXDXDXDXDXZXDXZXDXdX% . UXUXUX",
"UXUXUXUXUX                                                                            UXUXUXUXUX",
"UXUXUXUXUXUXUXUXUXUXUXUXUXUXUXUXUXUXUXUXUXUXUXUXUXUXUXUXUXUXUXUXUXUXUXUXUXUXUXUXUXUXUXUXUXUXUXUX",
"UXUXUXUXUXUXUXUXUXUXUXUXUXUXUXUXUXUXUXUXUXUXUXUXUXUXUXUXUXUXUXUXUXUXUXUXUXUXUXUXUXUXUXUXUXUXUXUX"
};
