/* XPM */
static char *steam[] = {
/* columns rows colors chars-per-pixel */
"48 48 142 2 ",
"   c #000000",
".  c #0C0B07",
"X  c #282728",
"o  c #2C2A2D",
"O  c #312E2F",
"+  c #2F2E31",
"@  c #312E31",
"#  c #343235",
"$  c #383537",
"%  c #373538",
"&  c #393639",
"*  c #3C3A3D",
"=  c #403D3E",
"-  c #4E452D",
";  c #50472D",
":  c #534A2D",
">  c #584F2F",
",  c #524930",
"<  c #575030",
"1  c #655B39",
"2  c #70653F",
"3  c #766A3E",
"4  c #3E3D41",
"5  c #403E41",
"6  c #444245",
"7  c #484547",
"8  c #454549",
"9  c #494649",
"0  c #4C4A4D",
"q  c #514D4F",
"w  c #4F4D51",
"e  c #514E52",
"r  c #555255",
"t  c #585557",
"y  c #565459",
"u  c #59565A",
"i  c #5C5A5D",
"p  c #605647",
"a  c #665C4C",
"s  c #726742",
"d  c #5D5C62",
"f  c #615E62",
"g  c #5F6066",
"h  c #636265",
"j  c #64646A",
"k  c #686669",
"l  c #66686D",
"z  c #6C6A6D",
"x  c #676A70",
"c  c #6A6B72",
"v  c #726D72",
"b  c #6E7078",
"n  c #757376",
"m  c #757379",
"M  c #79777B",
"N  c #7B7A7D",
"B  c #907827",
"V  c #9A7F21",
"C  c #957D2C",
"Z  c #997F2E",
"A  c #8E7C3F",
"S  c #957C33",
"D  c #987F34",
"F  c #967F39",
"G  c #9C831D",
"H  c #A0861D",
"J  c #B59314",
"K  c #B99714",
"L  c #BC9A15",
"P  c #B4931B",
"I  c #B9961B",
"U  c #BB9A1B",
"Y  c #9A8224",
"T  c #9C842A",
"R  c #98813A",
"E  c #A88F20",
"W  c #B69622",
"Q  c #B89621",
"!  c #B79922",
"~  c #BB9A22",
"^  c #B5962B",
"/  c #B8972E",
"(  c #B7982C",
")  c #BB9A2A",
"_  c #AC8D32",
"`  c #B49534",
"'  c #B79835",
"]  c #BB9B34",
"[  c #B4953B",
"{  c #B6983C",
"}  c #BA9C3D",
"|  c #BFA139",
" . c #C09C16",
".. c #C09F1C",
"X. c #C6A416",
"o. c #C3A31E",
"O. c #C2A525",
"+. c #C0A22B",
"@. c #9B8A5E",
"#. c #A28D44",
"$. c #B49640",
"%. c #BB9D41",
"&. c #B0954D",
"*. c #B69B4C",
"=. c #A3905C",
"-. c #A28F62",
";. c #A39063",
":. c #A99560",
">. c #B39E66",
",. c #B5A069",
"<. c #BBA46B",
"1. c #BFA86E",
"2. c #C0AA6E",
"3. c #7F7C81",
"4. c #7D7F89",
"5. c #817E83",
"6. c #7E8086",
"7. c #848284",
"8. c #83858D",
"9. c #8C8B8D",
"0. c #878991",
"q. c #888A92",
"w. c #949394",
"e. c #979698",
"r. c #9C9B9C",
"t. c #A09FA0",
"y. c #A3A2A3",
"u. c #ACABAC",
"i. c #B4B3B4",
"p. c #B8B7B7",
"a. c #BBBBBB",
"s. c #C3C3C3",
"d. c #CBCBCB",
"f. c #D5D5D5",
"g. c #DDDCDD",
"h. c #E0DFE0",
"j. c #E4E4E4",
"k. c #E7E7E8",
"l. c #EBEBEB",
"z. c #F2F2F2",
"x. c #F9F9F9",
"c. c None",
/* pixels */
"c.c.c.c.c.c.c.c.c.c.c.c.c.c.c.c.c.c.c.c.c.c.c.c.c.c.c.c.c.c.c.c.c.c.c.c.c.c.c.c.c.c.c.c.c.c.c.c.",
"c.c.c.c.c.c.c.c.c.c.c.c.c.c.c.c.c.c.c.c.c.c.c.c.c.c.c.c.c.c.c.c.c.c.c.c.c.c.c.c.c.c.c.c.c.c.c.c.",
"c.c.c.c.c.c.c.c.c.c.c.c.c.c.c.c.c.c.c.c.c.c.c.c.c.c.c.c.c.c.c.c.c.c.c.c.c.c.c.c.c.c.c.c.c.c.c.c.",
"c.c.c.c.6.8.q.0.5.3.3.M 5.N 7.3.m 3.3.M 3.5.5.M 5.v N 5.N M m n m 5.5.v M v n v v v n n c.c.c.c.",
"c.c.c.b 4.b c j h u u f f h u f i i k u k i h f u i i f u f y u f r u u u u i u r i f k k c.c.c.",
"c.c.c.b l c l k y f f f i f u i u i f i f f f f f i f u f u u d t u f u r u u u r r t r v c.c.c.",
"c.c.c.c l x c i q f u u f q q f r u r f f k k f j i u u u u r u t r u u r u t e q u t u j c.c.c.",
"c.c.c.c j j l u u t i i u h q q q t u u h h k k i u u i u u u i u r u r r u t r t q t r j c.c.c.",
"c.c.c.j g g g y w y d y h i q 0 q y u h h f h u u r u r y u e u r e r r r r u r e e r r l c.c.c.",
"c.c.c.c g g x y y y y j g k q q q r h d h t u u u t u r r u r u r y r r y y r r y r r y j c.c.c.",
"c.c.c.j g g x y h y w l l j r q w y d d i i u y r u r u r r i e e e e r e r r e r e r r d c.c.c.",
"c.c.c.j g g g g g y r g f i t y h i i u i y r y f e e r u r r r r e e e r e r e y w e r g c.c.c.",
"c.c.c.g d i y g g u e g j u i r i i i i t u u y w u u r u r u r w e r e w r y w r w w e d c.c.c.",
"c.c.c.g d y y y d e y d g g u r y y d i d r y t u q e e r 0 w e r e w w 5 w 5 w w w e w d c.c.c.",
"c.c.c.j d y y y d w 8 u y u w w i i i i u w 0 0 w e e e w r w e e 0 z f.l.l.g.5.9 w w e u c.c.c.",
"c.c.  d i d y d s.f.a.l 9 0 y r y r y i t q r 0 q e e q w w 0 w 5 w.z.k.p.u.g.z.i.9 w w d   c.c.",
"c.c.  d i y l g.w.h N d.9.7 y 0 r w u r e e w 0 0 e 0 q 0 0 q 0 u l.d.7 7.w.= u.z.9.0 0 r   c.c.",
"c.c.  i y 0 s.N f.x.z.f.g.7 6 q w 8 e e q 9 0 0 9 0 0 9 0 0 0 0 t.z.q d.z.z.k.= f.a.4 0 y   c.c.",
"c.c.  y r 8 f.6.z.z.z.z.z.g.w.6 7 6 0 r e 7 9 7 0 0 0 9 0 0 0 6 p.f.i l.l.z.l.w.t.h.4 0 y   c.c.",
"c.c.. y w 4 f.x z.z.z.z.z.z.z.k.p.e 8 0 q 6 7 7 9 7 6 7 6 7 7 n l.f.q l.l.l.l.v u.f.* 8 e   c.c.",
"c.c.  y w 6 y.e.e.l.z.z.l.l.l.z.z.z.d.n 6 = 7 7 7 7 7 7 7 7 0 h.l.l.v r.j.j.s.i j.u.& 8 w   c.c.",
"c.c.  r 0 8 4 d.s.7.s.j.l.l.z.l.l.l.l.z.g.w.= = = 6 6 7 = = s.l.l.k.g.k w f f f.j.r * 6 0   c.c.",
"c.c.  r 0 6 * % 7.a.w.r 6.d.k.l.l.l.l.l.l.l.k.p.r = 6 6 * w.l.k.k.k.k.l.g.g.l.h.n # 6 6 0   c.c.",
"c.c.  w 0 0 6 * * + # = * + g i.j.l.k.l.k.l.k.l.z.d.z h i.j.k.j.k.k.j.j.h.s.w.w # 4 6 4 9   c.c.",
"c.c.  0 9 8 8 8 6 & 6 0 8 5 # X 7 w.f.j.k.k.j.j.j.j.l.z.i.N a.j.k.j.j.f.k o @ # 4 5 6 5 9   c.c.",
"c.c.  8 9 8 6 4 6 = 6 8 8 4 * % * # % N s.j.j.j.j.j.j.j.k.j.k a.h.h.a.7 # & * 5 4 5 5 5 6   c.c.",
"c.c.  0 9 8 4 4 6 * 8 8 8 6 * - = * * + + h u.g.j.j.j.j.j.j.f.k g.w.@ # & = = = 5 5 4 4 6   c.c.",
"c.c.  8 8 6 * 6 6 * 6 6 6 = * * = 5 = * = $ + 7 9.f.h.h.g.h.f.h r.o % = 5 * * & & * * * 4   c.c.",
"c.c.  5 6 6 4 4 4 * 4 6 5 = = * * 5 6 5 6 & 5 $ + d p.a.f.f.N u.k # 5 * 5 * * * & * * * *   c.c.",
"c.c.  4 4 8 4 4 6 % 5 6 * & * * * * 5 6 4 * 4 & # o u.w., y i.u.o % & = * % = % & * * * *   c.c.",
"c.c.  4 4 4 * * 4 * * 6 6 * $ $ * * * 4 = = & $ = # + N a.d.7.+ O $ & % % & % * $ $ * & *   c.c.",
"c.c.  4 4 4 % 4 4 % 4 4 4 * % # * * * * & = & $ = & + o o X o # # % & * & & % $ $ $ * & *   c.c.",
"c.c.  4 4 % 4 % % * % * 4 % % # # * * # # * % # $ % # # @ @ # # $ & $ 4 4 # # # # % % % %   c.c.",
"c.c.  4 * * # * * # * * % # @ # # # # * # * $ $ # # $ $ # $ $ # # # # # $ $ # $ # # % % %   c.c.",
"c.c.  % & & % # % # # % # # # % # # * * % # * % $ # # # # # # # # @ # # # # # @ # # # # #   c.c.",
"c.c.  % & # % # % # # # % # + # * # # # # # # % # # # # # # # # # # # # # # # # # @ # # #   c.c.",
"c.c.  % # # # # # # # & % + o # # O # @ O O # # # # # @ @ # @ # @ @ # # @ @ @ @ # O # @ #   c.c.",
"c.c.  # # < L X. .L X.E # o o # @ : K K L K L H O # O @ o > L J K I L G @ # @ @ @ ; L J J   c.c.",
"c.c.  # + Y U O.U U X.< + O X O o Y o.U I I I : o O O O @ Y I P P I I : + @ + @ @ V U P P   c.c.",
"c.c.  @ , +.~ O.~ W T # + O o O - U ~ ~ ~ ~ Z @ O o + o : Q ~ I Q Q Y @ + + o o ; ~ U ( W   c.c.",
"c.c.  @ T ) W +.) ! , + + o o o B ^ ) W ( ) , o O o o o C ( ) ) ^ ) - o + o o o B ) ) ( W   c.c.",
"c.c.  , ] ] / | ] T + + + o o - ^ ] ^ / / Z o o o o o ; ) / / ] ] S o o o o o - ^ ) ] ` `   c.c.",
"c.c.  A ` ` ' ' | - X + o o X F ' ' ] ] ] ; o o o o o R ' ' ' ] ] - o o o o o S ` ] ] _ #.  c.c.",
"c.c.  3 *.} { { R X o o X X - } } { { { F o o o o X - } } { { } R X o X X o - [ [ [ $.&.1   c.c.",
"c.c.c.. s =.<.<.p # # % % % ;.1.1.,.2.1.a * 4 * = 4 ;.1.<.,.<.<.a % % # # # @.<.,.,.:.s   c.c.c.",
"c.c.c.c.                                                                                c.c.c.c.",
"c.c.c.c.c.c.c.c.c.c.c.c.c.c.c.c.c.c.c.c.c.c.c.c.c.c.c.c.c.c.c.c.c.c.c.c.c.c.c.c.c.c.c.c.c.c.c.c.",
"c.c.c.c.c.c.c.c.c.c.c.c.c.c.c.c.c.c.c.c.c.c.c.c.c.c.c.c.c.c.c.c.c.c.c.c.c.c.c.c.c.c.c.c.c.c.c.c."
};
