/* XPM */
static char *xchat[] = {
/* columns rows colors chars-per-pixel */
"48 48 183 2",
"   c #000000",
".  c #374E0F",
"X  c #39520E",
"o  c #4F6D15",
"O  c #506F15",
"+  c #517215",
"@  c #567916",
"#  c #597C17",
"$  c #577818",
"%  c #5B7E19",
"&  c #5D8317",
"*  c #5E821A",
"=  c #61851B",
"-  c #638B1A",
";  c #6B941D",
":  c #6E9A1D",
">  c #719D1E",
",  c #71A317",
"<  c #73A519",
"1  c #76A91A",
"2  c #7AAC1D",
"3  c #7DB01F",
"4  c #628322",
"5  c #678B22",
"6  c #698C24",
"7  c #668628",
"8  c #6A8C2D",
"9  c #6D9322",
"0  c #6E9822",
"q  c #6F912E",
"w  c #719524",
"e  c #739C22",
"r  c #72962A",
"t  c #759A2B",
"y  c #789C2C",
"u  c #708F35",
"i  c #728F39",
"p  c #6F9031",
"a  c #729532",
"s  c #769931",
"d  c #789D36",
"f  c #7B9F3B",
"g  c #76A323",
"h  c #79A425",
"j  c #7CAB24",
"k  c #7CA42A",
"l  c #7DAA2A",
"z  c #7EB122",
"x  c #7EA432",
"c  c #7EAC30",
"v  c #7FA33A",
"b  c #768B4D",
"n  c #779246",
"m  c #7F9A48",
"M  c #7B8E58",
"N  c #7D9552",
"B  c #7E9159",
"V  c #81AE26",
"C  c #80A72E",
"Z  c #82AC2C",
"A  c #82B424",
"S  c #85B926",
"D  c #84B32B",
"F  c #88B52E",
"G  c #87B929",
"H  c #8BBC2C",
"J  c #81A631",
"K  c #83AD34",
"L  c #88AF36",
"P  c #80A33E",
"I  c #84AA3C",
"U  c #86B432",
"Y  c #8AB531",
"T  c #8DBB31",
"R  c #86B03B",
"E  c #8AB33D",
"W  c #8DB939",
"Q  c #91BE32",
"!  c #92BD3C",
"~  c #8EC12D",
"^  c #91C32E",
"/  c #92C434",
"(  c #96C933",
")  c #9ACD35",
"_  c #95C33C",
"`  c #98C53D",
"'  c #97C839",
"]  c #9CCC3C",
"[  c #9ED137",
"{  c #9FD238",
"}  c #A2D53B",
"|  c #A6D93B",
" . c #AADD3E",
".. c #ACE03F",
"X. c #809752",
"o. c #829B50",
"O. c #82955D",
"+. c #84985D",
"@. c #86AB42",
"#. c #88AC42",
"$. c #8AB342",
"%. c #8EB548",
"&. c #92BD47",
"*. c #90B849",
"=. c #89A554",
"-. c #8EA55D",
";. c #94B452",
":. c #96B855",
">. c #899B65",
",. c #94AD63",
"<. c #97AB6F",
"1. c #9BB26D",
"2. c #9FB968",
"3. c #93A275",
"4. c #9AAD74",
"5. c #98A67E",
"6. c #9BAB7B",
"7. c #A0BA6A",
"8. c #A1B47B",
"9. c #94C041",
"0. c #9AC741",
"q. c #9DCB40",
"w. c #A0CE44",
"e. c #A5D443",
"r. c #A8D745",
"t. c #A7D841",
"y. c #ABDD43",
"u. c #A5D24A",
"i. c #A8D64B",
"p. c #ACDD49",
"a. c #AAD751",
"s. c #AED954",
"d. c #B2DE59",
"f. c #AEE142",
"g. c #AFE148",
"h. c #B1E443",
"j. c #B1E24B",
"k. c #B8E754",
"l. c #B7E15E",
"z. c #A6C072",
"x. c #AEC973",
"c. c #B1CA7D",
"v. c #BFDE7D",
"b. c #BCE565",
"n. c #C1E96E",
"m. c #C9ED7C",
"M. c #9FAD86",
"N. c #A2B383",
"B. c #A6B689",
"V. c #AFBE92",
"C. c #B1BB9F",
"Z. c #B7BFA6",
"A. c #ACC281",
"S. c #B7CC8E",
"D. c #B9CD8E",
"F. c #BBD18F",
"G. c #B5C694",
"H. c #B7CA93",
"J. c #B9CC94",
"K. c #B4C299",
"L. c #BDC4AF",
"P. c #CCE891",
"I. c #D8F39F",
"U. c #C0CFA1",
"Y. c #C4D1A6",
"T. c #C4CDB3",
"R. c #C7CCBC",
"E. c #C8CFBA",
"W. c #C9D4B5",
"Q. c #CCD3BE",
"!. c #CED4C2",
"~. c #D1D6C7",
"^. c #D1D8C2",
"/. c #D5DACB",
"(. c #D8DDCF",
"). c #DCE1D3",
"_. c #E1E3DD",
"`. c #E6E6E6",
"'. c #ECECEC",
"]. c #F0F0EF",
"[. c #F1F1F1",
"{. c #FAFAFA",
"}. c None",
/* pixels */
"}.}.}.}.}.}.}.}.}.}.}.}.}.}.}.}.}.}.}.}.}.}.}.}.}.}.}.}.}.}.}.}.}.}.}.}.}.}.}.}.}.}.}.}.}.}.}.}.",
"}.}.}.}.}.}.}.}.}.}.}.}.}.}.}.}.}.}.}.}.}.}.}.}.}.}.}.}.}.}.}.}.}.}.}.}.}.}.}.}.}.}.}.}.}.}.}.}.",
"}.}.}.}.}.}.}.}.}.}.}.}.}.}.}.}.}.}.}.}.}.}.}.}.}.}.}.}.}.}.}.}.}.}.}.}.}.}.}.}.}.}.}.}.}.}.}.}.",
"}.}.}.}.x.P.I.I.I.I.I.I.I.I.I.I.I.I.I.I.I.I.I.I.I.I.I.I.I.I.I.I.I.I.I.I.I.I.I.I.I.I.P.x.}.}.}.}.",
"}.}.}.2.m.k.h.h.h.h.h.h...h...h.h.h.h.h.h.h.h.h.h.h.h.h.h.h.h.h.h...h.h.h.h.h.h.h.h.k.m.z.}.}.}.",
"}.}.}.m.h.h.h.....h...h.h.h.h.h.h.h.h.h.h.h.h.h.h.h.h.h.h.h.h.h.h.h.h.........h...h.h.h.m.}.}.}.",
"}.}.}.n.........h.........h...h.h.h.h.h.h.h.j.j.j.h.j.h.h.h.h.h.h.....h...h.y.....h.....n.}.}.}.",
"}.}.}.n.................h...y.y.h.h.k.h.k.j.j.j.k.j.j.j.g.j.h.j.f.h.h.h.................n.}.}.}.",
"}.}.}.b............... .y.h.y.g.j.p.p.p.u.0.! ! ! ! 0.u.j.j.j.p.p.f.y.f..... . . ... ...b.}.}.}.",
"}.}.}.b. ...|  .| .. . .y.y.j.j.p.! J C C J J Z Z Z J J C J ! p.j.p.y.y.y... . . . . . .b.}.}.}.",
"}.}.}.l.| | | |  .|  .y.y.p.r.L r J Z Y F Y T T Q T Q T Y Y J C W i.p.y.y. . . .| | | | l.}.}.}.",
"}.}.}.l.| | | | | | y.y.p.! r k C L Y Y Y Y T T T T Q Q Q Q Q Y D y ` p.y.r. .|  .| | | l.}.}.}.",
"}.}.}.d.| | | | t.t.r.p.x r C Z F L F F T Y F F Y Y T ! T T T Q T F k K p.r.t.| | | | | d.}.}.}.",
"}.}.}.d.} } } | | t.e.y t Z L D F F F F Y 7.{.{.W.F T 7.{.{.Y.T Q Q Q Z x r.t.t.} } } } d.}.}.}.",
"}.}.}.s.[ } } } e.e.t t Z Z Z D F L F F Y V.[.[.-.F Y G.[.[.=.Y Q Q Q Q l J r.t.| } } [ s.}.}.}.",
"}.}.}.s.[ } } } t.L q l Z Z D Z Z Z Z F Y Q.[.].y F Y ^.[.`.C T Q H Q H T k Y | } } [ [ s.}.}.}.",
"}.}.}.a.) } } } ] 6 e C Z V Z Z Z Z Z F C `.[.^.y F K '.[.E.Z F H H H Q H F w ] } } [ [ a.}.}.}.",
"}.}.}.i.) ] { w.J w C V C C Z V ;.D.D.D.U.[.[.E.D.D.Y.[.[.T.D.F.c.F H T T T C Y e.} [ [ i.}.}.}.",
"}.}.}.i.) [ { e.6 e k V h V C h 8.[.].[.[.[.].[.[.[.[.].[.[.].[.).C F H F H F y e.] ) ) i.}.}.}.",
"}.}.}.u.) ) ] ! 5 k k h k k V h 8.].].].].[.].].].].[.[.].].[.]./.V F F F H F > ! ] ) ) u.}.}.}.",
"}.}.}.w.( ) ] U 6 k h h h k k k i O.O.+.].].~.O.+.>.[.[.Q.+.+.+.X.j G D G G F h Y ] ) ( w.}.}.}.",
"}.}.}.w.( ) ] k w e h h h k k h y w y ,.'.].N.e e 1.'.'.8.e h k k V D D D D F k L ] ) ( w.}.}.}.",
"}.}.}.q.( ( ` C 6 k e k g h h j V C > V.'.'.o.C Z K.'.'.o.V Z V V D D D D D G g J ` ( ( w.}.}.}.",
"}.}.}.0.^ ( ` E - e g e h g e B.G.S.H./.'.'.H.J.J.(.'.`.S.J.J.:.V D V D V D D e Y ) ( / ` }.}.}.",
"}.}.}.' / / ( ! = w e g e g : (.'.'.'.'.'.'.].].'.'.'.'.'.'.'.8.Z V V D V D V 0 W ( ^ ^ ` }.}.}.",
"}.}.}./ ~ ^ / ` 4 0 e e e e 6 !.'.'.'.'.`.'.'.'.'.'.'.'.'.'.'.<.j j V j j V h r ` ( ^ ~ ( }.}.}.",
"}.}.}./ ~ ^ / / v - 0 g e e w b M M C.`.'.5.X.M Z.'.'.3.M O.M u h j j j j V > J ( / ~ ~ / }.}.}.",
"}.}.}./ H H H / 9.* ; 0 e e > ; 9 - T.'.`.7 w ; E.'._.5 : > e e j j j z j h ; ! / T H H / }.}.}.",
"}.}.}.~ S S ~ ^ / v * 0 0 > > e e 9 _.`.R.; e w `.`.T.: g h h h g j j j h ; I / H ~ H S ~ }.}.}.",
"}.}.}.H S ~ S H T _ p * ; e ; > w =.'.`.M.; > ,.`.`.5.> g 1 h 1 j g g g ; a _ T H H ~ S ~ }.}.}.",
"}.}.}.S S S G H H T _ 8 = ; > 0 ; N.`.`.N : > B.`.`.n > g e g 1 g g > 9 r 9.~ H S S S A S }.}.}.",
"}.}.}.S A S A S G G H ! a % - ; ; @ o o = : : $ O O - > e 1 > e < > - s 9.H H S S S S A S }.}.}.",
"}.}.}.A A A A A S S G H W #.4 - ; ; ; ; : : : : ; : : > > > > > ; & @._ S z ~ z ~ z ~ 3 3 }.}.}.",
"}.}.}.A 3 A A A A A S G Y W *.@ ; ; : ; ; ; : > > : : : 0 - - * v &.~ c ~ z z z z z 3 S A }.}.}.",
"}.}.}.z 3 A 3 3 3 A A S G Y r & ; ; ; * & & & * - - & & * p v 9.T U z z ~ 3 3 3 z 3 z 3 z }.}.}.",
"}.}.}.3 3 3 3 3 3 A 3 A D F * - ; & # p $.R v v v v @.$.9._ U c c G z z z z 3 3 3 3 3 3 z }.}.}.",
"}.}.}.z 3 2 3 2 z z z z c 0 & & & $ f W U U U D z c c z z c z z z z 3 3 3 2 2 2 2 3 3 2 3 }.}.}.",
"}.}.}.2 2 2 3 3 2 j z z ; + @ + 7 $.c D z z z j z z z j z z z z 3 z 2 2 2 2 2 2 2 2 2 2 3 }.}.}.",
"}.}.}.2 2 2 1 1 1 j g 5 7 8 x $.U z z j j j 2 2 z z z z z 2 2 2 2 2 2 2 2 2 2 1 2 1 2 1 3 }.}.}.",
"}.}.}.2 1 1 1 1 1 1 j z l j j j j 2 j 2 j 2 2 2 2 1 < 1 2 2 1 1 1 1 1 1 1 1 1 1 1 1 1 2 2 }.}.}.",
"}.}.}.2 1 1 1 1 1 1 1 1 j j 1 1 g 2 1 2 1 1 2 1 1 1 < 1 < 1 1 1 1 1 1 1 1 1 1 < 1 1 1 1 1 }.}.}.",
"}.}.}.2 , < < < , 1 < 1 1 < 1 1 1 1 1 , 1 , , , 1 , < < < < < , , 1 , < , < < < , 1 1 , 1 }.}.}.",
"}.}.}.- , , , , , , , , < , , , , , , , , , , , , , , , < , , , , , , , , , , , , , , , ; }.}.}.",
"}.}.}.X < , , , , , , , , , , , , , , , , , , , , , , , , , , , , , , , , , , , , , , 1 X }.}.}.",
"}.}.}.  . - h h h l l c c c c K K R R R R E $.$.E $.E E E R U K c c c c l l l j g j - X   }.}.}.",
"}.}.}.}.}.                                                                            }.}.}.}.}.",
"}.}.}.}.}.}.}.}.}.}.}.}.}.}.}.}.}.}.}.}.}.}.}.}.}.}.}.}.}.}.}.}.}.}.}.}.}.}.}.}.}.}.}.}.}.}.}.}.",
"}.}.}.}.}.}.}.}.}.}.}.}.}.}.}.}.}.}.}.}.}.}.}.}.}.}.}.}.}.}.}.}.}.}.}.}.}.}.}.}.}.}.}.}.}.}.}.}."
};
