/* XPM */
static char *xterm_color___x__[] = {
/* columns rows colors chars-per-pixel */
"48 48 60 1",
"  c #000000",
". c #0C0C0D",
"X c #0F0E10",
"o c #100F12",
"O c #131314",
"+ c #161518",
"@ c #19171A",
"# c #1C1A1E",
"$ c #1F1D21",
"% c #211E24",
"& c #242226",
"* c #262529",
"= c #29262D",
"- c #2B292D",
"; c #2C2731",
": c #2E2A31",
"> c #312D35",
", c #332E39",
"< c #323135",
"1 c #35323A",
"2 c #38343E",
"3 c #3A393C",
"4 c #3C3643",
"5 c #3E3944",
"6 c #3F3848",
"7 c #413C46",
"8 c #433C4B",
"9 c #473F50",
"0 c #444346",
"q c #46424A",
"w c #49444D",
"e c #4B4A4D",
"r c #494351",
"t c #4E4B52",
"y c #504E53",
"u c #525154",
"i c #565459",
"p c #59565C",
"a c #5C5A5E",
"s c #5B5660",
"d c #5E5A62",
"f c #615C65",
"g c #625E68",
"h c #747476",
"j c #787779",
"k c #969696",
"l c #9C9C9C",
"z c #A3A3A3",
"x c #ACACAC",
"c c #B6B6B6",
"v c #BBBBBB",
"b c #C4C4C4",
"n c #CCCCCC",
"m c #D4D4D4",
"M c #DBDBDB",
"N c #E4E4E4",
"B c #ECECEC",
"V c #F2F2F2",
"C c #FCFCFC",
"Z c None",
/* pixels */
"ZZZZZZZZZZZZZZZZZZZZZZZZZZZZZZZZZZZZZZZZZZZZZZZZ",
"ZZZZZZZZZZZZZZZZZZZZZZZZZZZZZZZZZZZZZZZZZZZZZZZZ",
"ZZZZZZZZZZZZZZZZZZZZZZZZZZZZZZZZZZZZZZZZZZZZZZZZ",
"ZZZZnNVVVVVVVVVVVVVVVVVVVVVVVVVVVVVVVVVVVVBnZZZZ",
"ZZZvBNNNNNNNNNNNNNNNNNNNNNNNNNNNNNNNNNNNNNNBvZZZ",
"ZZZMNNNNNNNNNNNNNNNNNNNNNNNNNNNNNNNNNNNNNNNNNZZZ",
"ZZZBMNMxkkkkkkkkllklklkklkkklkllkkkkkkkkxMNMNZZZ",
"ZZZNNNxaO.XOOOOOOOOOOOOOOOOOOOOOOOOOO.OOaxNNNZZZ",
"ZZZNMNkO+@###$$$#&#&$#&&$$$$$$$&&$$$##OOOkNMNZZZ",
"ZZZNNMl.@#$$<33333&&&&&&&&&&&&&&&&<<&$#@.lMNNZZZ",
"ZZZNMMzX@$&&<eyuuu3&&&&-&&&&*&&&&-ee&$$#OzMMNZZZ",
"ZZZNMMzX##&&&0uueuu3&&&&********&eu-&&$#XzMMNZZZ",
"ZZZNMMzO#&&&mhuuuuue&**&**&*****3u3&&&&$OzMMNZZZ",
"ZZZNmMxO$$&&CCNzaueu0**********<ue**&&&#OxMMNZZZ",
"ZZZMMMxO$&&&ezVCVcuuu<*--******eu<*&&&&#OxmMMZZZ",
"ZZZMmMxO#&&&*&<xCVuuue--------3u3*&**&&#OxMmMZZZ",
"ZZZMMmcO#&&*0kNCCnuuii3------<ue=**&&&&#OcmmMZZZ",
"ZZZMmmcO$&&*CCVl00auipi<-<:--ui<---**&&$OcmmMZZZ",
"ZZZMmmcO$&**mh<--3uapppt<:::0i0---==**&$OvmmMZZZ",
"ZZZMmmvO$&***-::--CCCCCC3<<3pu<->---**&$OvmmMZZZ",
"ZZZmmmvO&&*-::::<<CCCCCCu11up2<>>:-=*&%$OvmnmZZZ",
"ZZZmnmbO&*-::><<<<>1yyyyp7ea0:=&*%$$#@+O.bmmMZZZ",
"ZZZmnmbO&*-<>><<<111yfaay2ue=&&&&%&$$#@O.bnnmZZZ",
"ZZZmmnnO&=-<><<1<1111uiu>ti<====&&&&$#@+.nnmmZZZ",
"ZZZmnnnO*;>>>11111>:-wp50ii7--===**%%%#+.nnnnZZZ",
"ZZZnnnnO=;>><11>>-;;3pe2iiip<:-==**%%%$@.nnnmZZZ",
"ZZZnnnm+=>,,>:=:;>:,ii1ypppat::;==**&%%@XnnnnZZZ",
"ZZZnnnmO=>>===::>>>ya7>qasspp7:::===*%%@omnnnZZZ",
"ZZZnbnmO:=%==:::>>7ay,,,iaafsp1:;;==**%$ombnnZZZ",
"ZZZbbnMO%%=;;::>>,ia4,227fsaday>>:;==%%#oMnbnZZZ",
"ZZZnbbMO%%==::>>,yf8222,2yffsas7>::;=*%$OMbbbZZZ",
"ZZZbbbMO%%==:>>,8fy2244444sfffsp,>>;;%&$XNbbbZZZ",
"ZZZbbbMo%*;;:>,2ss444444449fggfs9>:;;%%%oNbbbZZZ",
"ZZZbbbNO%=;;>>,yf9444468846iggfff4>:;;=%oNbbbZZZ",
"ZZZbbbNo%%;>>>8fy44487778477ggfsfi,:>;%%oNbbbZZZ",
"ZZZvvbBO%;;;>1ss446688788888rgffsf9;;;%%oBvvbZZZ",
"ZZZbvbBO%;;;>tf84446888888864sfffps2-=%%oBbvbZZZ",
"ZZZvvvBo%%;>4st444478899888847fffspy;=%%XBvbvZZZ",
"ZZZbvvVo%%;;794,44478899988884899908>;%$XVvvbZZZ",
"ZZZvvvV#%%%%;;>>,,44668888444,,,>;;=%%%#@BvvvZZZ",
"ZZZvcvmk%oO+++@$+#$@$$%%$$$$$@#@@+@oOoO#kmcvvZZZ",
"ZZZvccbMVCCCCCVCCCCCCCCCCCCCCCCCCCCCCCCVMbvcvZZZ",
"ZZZlcvccccccvcvccvcvcvccccvcccvccvcvvccccccclZZZ",
"ZZZavccvcccccvcccvcccccccccccccccccccccvcccvaZZZ",
"ZZZ.azvvbbbbbbnbnnnnmnmmmmnnnnnnbbbnbbbvbvza.ZZZ",
"ZZZZZ                                      ZZZZZ",
"ZZZZZZZZZZZZZZZZZZZZZZZZZZZZZZZZZZZZZZZZZZZZZZZZ",
"ZZZZZZZZZZZZZZZZZZZZZZZZZZZZZZZZZZZZZZZZZZZZZZZZ"
};
