#define max_width 11
#define max_height 11
static unsigned char max_bits[] = {
   0x40, 0x00, 0xa0, 0x00, 0x90, 0x01, 0x48, 0x02, 0x04, 0x01, 0x92, 0x00,
   0x4c, 0x00, 0x28, 0x00, 0x10, 0x00, 0x00, 0x00, 0x00, 0x00 };
