<?xml version="1.0" encoding="UTF-8" standalone="no"?>
<!-- Created with Inkscape (http://www.inkscape.org/) -->

<svg
   xmlns:dc="http://purl.org/dc/elements/1.1/"
   xmlns:cc="http://creativecommons.org/ns#"
   xmlns:rdf="http://www.w3.org/1999/02/22-rdf-syntax-ns#"
   xmlns:svg="http://www.w3.org/2000/svg"
   xmlns="http://www.w3.org/2000/svg"
   xmlns:xlink="http://www.w3.org/1999/xlink"
   xmlns:inkscape="http://www.inkscape.org/namespaces/inkscape"
   version="1.0"
   width="96"
   height="96"
   id="svg2408">
  <defs
     id="defs2410">
    <linearGradient
       x1="45.447727"
       y1="92.539597"
       x2="45.447727"
       y2="7.0165396"
       id="ButtonShadow"
       gradientUnits="userSpaceOnUse"
       gradientTransform="scale(1.0058652,0.994169)">
      <stop
         id="stop3750"
         style="stop-color:#000000;stop-opacity:1"
         offset="0" />
      <stop
         id="stop3752"
         style="stop-color:#000000;stop-opacity:0.58823532"
         offset="1" />
    </linearGradient>
    <linearGradient
       id="linearGradient3737">
      <stop
         id="stop3739"
         style="stop-color:#ffffff;stop-opacity:1"
         offset="0" />
      <stop
         id="stop3741"
         style="stop-color:#ffffff;stop-opacity:0"
         offset="1" />
    </linearGradient>
    <linearGradient
       id="linearGradient3700">
      <stop
         id="stop3702"
         style="stop-color:#bebebe;stop-opacity:1"
         offset="0" />
      <stop
         id="stop3704"
         style="stop-color:#dcdcdc;stop-opacity:1"
         offset="1" />
    </linearGradient>
    <filter
       color-interpolation-filters="sRGB"
       id="filter3174">
      <feGaussianBlur
         id="feGaussianBlur3176"
         stdDeviation="1.71" />
    </filter>
    <linearGradient
       x1="36.357143"
       y1="6"
       x2="36.357143"
       y2="63.893143"
       id="linearGradient3188"
       xlink:href="#linearGradient3737"
       gradientUnits="userSpaceOnUse" />
    <filter
       x="-0.192"
       y="-0.192"
       width="1.3839999"
       height="1.3839999"
       color-interpolation-filters="sRGB"
       id="filter3794">
      <feGaussianBlur
         id="feGaussianBlur3796"
         stdDeviation="5.28" />
    </filter>
    <linearGradient
       x1="48"
       y1="20.220806"
       x2="48"
       y2="138.66119"
       id="linearGradient3613"
       xlink:href="#linearGradient3737"
       gradientUnits="userSpaceOnUse" />
    <radialGradient
       cx="48"
       cy="90.171875"
       r="42"
       fx="48"
       fy="90.171875"
       id="radialGradient3619"
       xlink:href="#linearGradient3737"
       gradientUnits="userSpaceOnUse"
       gradientTransform="matrix(1.1573129,0,0,0.99590774,-7.5510206,0.19713193)" />
    <clipPath
       id="clipPath3613">
      <rect
         width="84"
         height="84"
         rx="6"
         ry="6"
         x="6"
         y="6"
         id="rect3615"
         style="fill:#ffffff;fill-opacity:1;fill-rule:nonzero;stroke:none" />
    </clipPath>
    <linearGradient
       x1="48"
       y1="90"
       x2="48"
       y2="5.9877172"
       id="linearGradient3617"
       xlink:href="#linearGradient3700"
       gradientUnits="userSpaceOnUse" />
    <linearGradient
       x1="45.447727"
       y1="92.539597"
       x2="45.447727"
       y2="7.0165396"
       id="ButtonShadow-0"
       gradientUnits="userSpaceOnUse"
       gradientTransform="matrix(1.0058652,0,0,0.994169,100,0)">
      <stop
         id="stop3750-8"
         style="stop-color:#000000;stop-opacity:1"
         offset="0" />
      <stop
         id="stop3752-5"
         style="stop-color:#000000;stop-opacity:0.58823532"
         offset="1" />
    </linearGradient>
    <linearGradient
       x1="32.251034"
       y1="6.1317081"
       x2="32.251034"
       y2="90.238609"
       id="linearGradient3780"
       xlink:href="#ButtonShadow-0"
       gradientUnits="userSpaceOnUse"
       gradientTransform="matrix(1.0238095,0,0,1.0119048,-1.1428571,-98.071429)" />
    <linearGradient
       x1="32.251034"
       y1="6.1317081"
       x2="32.251034"
       y2="90.238609"
       id="linearGradient3772"
       xlink:href="#ButtonShadow-0"
       gradientUnits="userSpaceOnUse"
       gradientTransform="matrix(1.0238095,0,0,1.0119048,-1.1428571,-98.071429)" />
    <linearGradient
       x1="32.251034"
       y1="6.1317081"
       x2="32.251034"
       y2="90.238609"
       id="linearGradient3725"
       xlink:href="#ButtonShadow-0"
       gradientUnits="userSpaceOnUse"
       gradientTransform="matrix(1.0238095,0,0,1.0119048,-1.1428571,-98.071429)" />
    <linearGradient
       x1="32.251034"
       y1="6.1317081"
       x2="32.251034"
       y2="90.238609"
       id="linearGradient3721"
       xlink:href="#ButtonShadow-0"
       gradientUnits="userSpaceOnUse"
       gradientTransform="translate(0,-97)" />
    <linearGradient
       x1="32.251034"
       y1="6.1317081"
       x2="32.251034"
       y2="90.238609"
       id="linearGradient3026"
       xlink:href="#ButtonShadow-0"
       gradientUnits="userSpaceOnUse"
       gradientTransform="matrix(1.0238095,0,0,1.0119048,-1.1428571,-98.071429)" />
    <linearGradient
       x1="11.998966"
       y1="0.92195445"
       x2="11.998966"
       y2="19.387045"
       id="StandardGradient"
       gradientUnits="userSpaceOnUse"
       gradientTransform="scale(0.9219544,1.0846523)">
      <stop
         id="stop3283"
         style="stop-color:#000000;stop-opacity:0.86274511"
         offset="0" />
      <stop
         id="stop2651"
         style="stop-color:#000000;stop-opacity:0.47058824"
         offset="1" />
    </linearGradient>
    <linearGradient
       x1="11.998966"
       y1="0.92195445"
       x2="11.998966"
       y2="19.387045"
       id="StandardGradient-3"
       gradientUnits="userSpaceOnUse"
       gradientTransform="scale(0.9219544,1.0846523)">
      <stop
         id="stop3283-5"
         style="stop-color:#000000;stop-opacity:0.86274511"
         offset="0" />
      <stop
         id="stop2651-2"
         style="stop-color:#000000;stop-opacity:0.47058824"
         offset="1" />
    </linearGradient>
    <linearGradient
       x1="56"
       y1="16"
       x2="56"
       y2="80"
       id="linearGradient3736"
       xlink:href="#StandardGradient-3"
       gradientUnits="userSpaceOnUse"
       gradientTransform="matrix(0.94249199,0,0,0.94249199,-97.239616,0.875402)" />
    <linearGradient
       x1="49"
       y1="20"
       x2="49"
       y2="76"
       id="linearGradient3829"
       xlink:href="#StandardGradient"
       gradientUnits="userSpaceOnUse" />
  </defs>
  <metadata
     id="metadata2413">
    <rdf:RDF>
      <cc:Work
         rdf:about="">
        <dc:format>image/svg+xml</dc:format>
        <dc:type
           rdf:resource="http://purl.org/dc/dcmitype/StillImage" />
        <dc:title />
      </cc:Work>
    </rdf:RDF>
  </metadata>
  <g
     id="layer2"
     style="display:none">
    <rect
       width="86"
       height="85"
       rx="6"
       ry="6"
       x="5"
       y="7"
       id="rect3745"
       style="opacity:0.9;fill:url(#ButtonShadow);fill-opacity:1;fill-rule:nonzero;stroke:none;filter:url(#filter3174)" />
  </g>
  <g
     id="layer3">
    <path
       d="m 12,-95.03125 c -5.5110903,0 -10.03125,4.52016 -10.03125,10.03125 l 0,71 c 0,5.5110902 4.5201598,10.03125 10.03125,10.03125 l 72,0 c 5.51109,0 10.03125,-4.5201597 10.03125,-10.03125 l 0,-71 c 0,-5.51109 -4.52016,-10.03125 -10.03125,-10.03125 l -72,0 z"
       transform="scale(1,-1)"
       id="path3786"
       style="opacity:0.07999998;fill:url(#linearGradient3026);fill-opacity:1;fill-rule:nonzero;stroke:none;display:inline" />
    <path
       d="m 12,-94.03125 c -4.971633,0 -9.03125,4.059617 -9.03125,9.03125 l 0,71 c 0,4.9716329 4.0596171,9.03125 9.03125,9.03125 l 72,0 c 4.971633,0 9.03125,-4.059617 9.03125,-9.03125 l 0,-71 c 0,-4.971633 -4.059617,-9.03125 -9.03125,-9.03125 l -72,0 z"
       transform="scale(1,-1)"
       id="path3778"
       style="opacity:0.1;fill:url(#linearGradient3780);fill-opacity:1;fill-rule:nonzero;stroke:none;display:inline" />
    <path
       d="m 12,-93 c -4.4091333,0 -8,3.590867 -8,8 l 0,71 c 0,4.4091333 3.5908667,8 8,8 l 72,0 c 4.409133,0 8,-3.5908667 8,-8 l 0,-71 c 0,-4.409133 -3.590867,-8 -8,-8 l -72,0 z"
       transform="scale(1,-1)"
       id="path3770"
       style="opacity:0.2;fill:url(#linearGradient3772);fill-opacity:1;fill-rule:nonzero;stroke:none;display:inline" />
    <rect
       width="86"
       height="85"
       rx="7"
       ry="7"
       x="5"
       y="-92"
       transform="scale(1,-1)"
       id="rect3723"
       style="opacity:0.3;fill:url(#linearGradient3725);fill-opacity:1;fill-rule:nonzero;stroke:none;display:inline" />
    <rect
       width="84"
       height="84"
       rx="6"
       ry="6"
       x="6"
       y="-91"
       transform="scale(1,-1)"
       id="rect3716"
       style="opacity:0.45;fill:url(#linearGradient3721);fill-opacity:1;fill-rule:nonzero;stroke:none;display:inline" />
  </g>
  <g
     id="layer1">
    <rect
       width="84"
       height="84"
       rx="6"
       ry="6"
       x="6"
       y="6"
       id="rect2419"
       style="fill:url(#linearGradient3617);fill-opacity:1;fill-rule:nonzero;stroke:none" />
    <path
       d="M 12,6 C 8.676,6 6,8.676 6,12 l 0,2 0,68 0,2 c 0,0.334721 0.04135,0.6507 0.09375,0.96875 0.0487,0.295596 0.09704,0.596915 0.1875,0.875 0.00988,0.03038 0.020892,0.0636 0.03125,0.09375 0.098865,0.287771 0.2348802,0.547452 0.375,0.8125 0.1445918,0.273507 0.3156161,0.535615 0.5,0.78125 0.1843839,0.245635 0.3737765,0.473472 0.59375,0.6875 0.439947,0.428056 0.94291,0.814526 1.5,1.09375 0.278545,0.139612 0.5734731,0.246947 0.875,0.34375 -0.2562018,-0.100222 -0.4867109,-0.236272 -0.71875,-0.375 -0.00741,-0.0044 -0.023866,0.0045 -0.03125,0 -0.031933,-0.0193 -0.062293,-0.04251 -0.09375,-0.0625 -0.120395,-0.0767 -0.2310226,-0.163513 -0.34375,-0.25 -0.1061728,-0.0808 -0.2132809,-0.161112 -0.3125,-0.25 C 8.4783201,88.557317 8.3087904,88.373362 8.15625,88.1875 8.0486711,88.057245 7.9378561,87.922215 7.84375,87.78125 7.818661,87.74287 7.805304,87.69538 7.78125,87.65625 7.716487,87.553218 7.6510225,87.451733 7.59375,87.34375 7.4927417,87.149044 7.3880752,86.928049 7.3125,86.71875 7.30454,86.69694 7.288911,86.6782 7.28125,86.65625 7.2494249,86.5643 7.2454455,86.469419 7.21875,86.375 7.1884177,86.268382 7.1483606,86.171969 7.125,86.0625 7.0521214,85.720988 7,85.364295 7,85 L 7,83 7,15 7,13 C 7,10.218152 9.2181517,8 12,8 l 2,0 68,0 2,0 c 2.781848,0 5,2.218152 5,5 l 0,2 0,68 0,2 c 0,0.364295 -0.05212,0.720988 -0.125,1.0625 -0.04415,0.206893 -0.08838,0.397658 -0.15625,0.59375 -0.0077,0.02195 -0.0233,0.04069 -0.03125,0.0625 -0.06274,0.173739 -0.138383,0.367449 -0.21875,0.53125 -0.04158,0.0828 -0.07904,0.169954 -0.125,0.25 -0.0546,0.09721 -0.126774,0.18835 -0.1875,0.28125 -0.09411,0.140965 -0.204921,0.275995 -0.3125,0.40625 -0.143174,0.17445 -0.303141,0.346998 -0.46875,0.5 -0.01117,0.0102 -0.01998,0.02115 -0.03125,0.03125 -0.138386,0.125556 -0.285091,0.234436 -0.4375,0.34375 -0.102571,0.07315 -0.204318,0.153364 -0.3125,0.21875 -0.0074,0.0045 -0.02384,-0.0044 -0.03125,0 -0.232039,0.138728 -0.462548,0.274778 -0.71875,0.375 0.301527,-0.0968 0.596455,-0.204138 0.875,-0.34375 0.55709,-0.279224 1.060053,-0.665694 1.5,-1.09375 0.219973,-0.214028 0.409366,-0.441865 0.59375,-0.6875 0.184384,-0.245635 0.355408,-0.507743 0.5,-0.78125 0.14012,-0.265048 0.276135,-0.524729 0.375,-0.8125 0.01041,-0.03078 0.02133,-0.06274 0.03125,-0.09375 0.09046,-0.278085 0.1388,-0.579404 0.1875,-0.875 C 89.95865,84.6507 90,84.334721 90,84 l 0,-2 0,-68 0,-2 C 90,8.676 87.324,6 84,6 L 12,6 z"
       inkscape:connector-curvature="0"
       id="rect3728"
       style="opacity:0.5;fill:url(#linearGradient3188);fill-opacity:1;fill-rule:nonzero;stroke:none" />
    <path
       d="M 12,90 C 8.676,90 6,87.324 6,84 L 6,82 6,14 6,12 c 0,-0.334721 0.04135,-0.6507 0.09375,-0.96875 0.0487,-0.295596 0.09704,-0.596915 0.1875,-0.875 C 6.29113,10.12587 6.302142,10.09265 6.3125,10.0625 6.411365,9.774729 6.5473802,9.515048 6.6875,9.25 6.8320918,8.976493 7.0031161,8.714385 7.1875,8.46875 7.3718839,8.223115 7.5612765,7.995278 7.78125,7.78125 8.221197,7.353194 8.72416,6.966724 9.28125,6.6875 9.559795,6.547888 9.8547231,6.440553 10.15625,6.34375 9.9000482,6.443972 9.6695391,6.580022 9.4375,6.71875 c -0.00741,0.0044 -0.023866,-0.0045 -0.03125,0 -0.031933,0.0193 -0.062293,0.04251 -0.09375,0.0625 -0.120395,0.0767 -0.2310226,0.163513 -0.34375,0.25 -0.1061728,0.0808 -0.2132809,0.161112 -0.3125,0.25 C 8.4783201,7.442683 8.3087904,7.626638 8.15625,7.8125 8.0486711,7.942755 7.9378561,8.077785 7.84375,8.21875 7.818661,8.25713 7.805304,8.30462 7.78125,8.34375 7.716487,8.446782 7.6510225,8.548267 7.59375,8.65625 7.4927417,8.850956 7.3880752,9.071951 7.3125,9.28125 7.30454,9.30306 7.288911,9.3218 7.28125,9.34375 7.2494249,9.4357 7.2454455,9.530581 7.21875,9.625 7.1884177,9.731618 7.1483606,9.828031 7.125,9.9375 7.0521214,10.279012 7,10.635705 7,11 l 0,2 0,68 0,2 c 0,2.781848 2.2181517,5 5,5 l 2,0 68,0 2,0 c 2.781848,0 5,-2.218152 5,-5 l 0,-2 0,-68 0,-2 C 89,10.635705 88.94788,10.279012 88.875,9.9375 88.83085,9.730607 88.78662,9.539842 88.71875,9.34375 88.71105,9.3218 88.69545,9.30306 88.6875,9.28125 88.62476,9.107511 88.549117,8.913801 88.46875,8.75 88.42717,8.6672 88.38971,8.580046 88.34375,8.5 88.28915,8.40279 88.216976,8.31165 88.15625,8.21875 88.06214,8.077785 87.951329,7.942755 87.84375,7.8125 87.700576,7.63805 87.540609,7.465502 87.375,7.3125 87.36383,7.3023 87.35502,7.29135 87.34375,7.28125 87.205364,7.155694 87.058659,7.046814 86.90625,6.9375 86.803679,6.86435 86.701932,6.784136 86.59375,6.71875 c -0.0074,-0.0045 -0.02384,0.0044 -0.03125,0 -0.232039,-0.138728 -0.462548,-0.274778 -0.71875,-0.375 0.301527,0.0968 0.596455,0.204138 0.875,0.34375 0.55709,0.279224 1.060053,0.665694 1.5,1.09375 0.219973,0.214028 0.409366,0.441865 0.59375,0.6875 0.184384,0.245635 0.355408,0.507743 0.5,0.78125 0.14012,0.265048 0.276135,0.524729 0.375,0.8125 0.01041,0.03078 0.02133,0.06274 0.03125,0.09375 0.09046,0.278085 0.1388,0.579404 0.1875,0.875 C 89.95865,11.3493 90,11.665279 90,12 l 0,2 0,68 0,2 c 0,3.324 -2.676,6 -6,6 l -72,0 z"
       inkscape:connector-curvature="0"
       id="path3615"
       style="opacity:0.2;fill:url(#radialGradient3619);fill-opacity:1;fill-rule:nonzero;stroke:none" />
  </g>
  <g
     id="layer5"
     style="display:inline">
    <rect
       width="66"
       height="66"
       rx="12"
       ry="12"
       x="15"
       y="15"
       clip-path="url(#clipPath3613)"
       id="rect3171"
       style="opacity:0.1;fill:url(#linearGradient3613);fill-opacity:1;fill-rule:nonzero;stroke:#ffffff;stroke-width:0.5;stroke-linecap:round;stroke-linejoin:miter;stroke-miterlimit:4;stroke-opacity:1;stroke-dasharray:none;stroke-dashoffset:0;filter:url(#filter3794)" />
  </g>
  <g
     id="layer4">
    <path
       d="m -52.000013,16.000055 c -6.578084,0 -11.910673,4.933473 -11.910673,11.019222 0.01598,0.697437 0.0261,1.493764 0.09926,2.36126 -1.041033,0.550102 -1.176728,2.701364 -0.24814,4.870099 0.358069,0.836275 0.846451,1.515776 1.339951,2.066101 0.01645,0.0184 0.03308,0.0312 0.04963,0.04913 0.117798,0.573005 0.204935,1.026217 0.347397,1.672559 0.441331,1.3124 2.265031,3.781004 3.870968,5.903154 0.160151,1.637089 0.173325,3.253913 -0.148893,5.116069 -4.622431,3.801433 -16.444509,5.509609 -16.42679,9.445046 l -1.588084,10.232128 c 0,2.09638 3.159367,4.015841 8.188586,5.312838 l 0.694789,2.804 a 1.7295878,1.7144325 0 0 0 1.091813,1.131438 c 0.223226,0.08562 0.380762,0.266676 0.992554,0.442732 C -62.424897,79.353274 -57.517708,80 -52,80 c 5.517709,0 10.474525,-0.646726 13.697272,-1.574169 0.611792,-0.176056 0.769331,-0.357156 0.992554,-0.442732 a 1.7295878,1.7144325 0 0 0 1.042187,-1.082247 l 0.843671,-2.951578 c 4.906344,-1.294943 8.039703,-3.147592 8.039703,-5.214451 l -1.588095,-10.23212 c -0.01886,-3.368207 -11.910674,-5.509608 -16.47643,-9.445053 -0.18486,-1.507492 -0.193385,-2.991749 -0.09928,-4.476547 1.460096,-2.232553 3.382384,-5.08976 3.870967,-6.542667 0.179567,-0.752422 0.257562,-1.272434 0.397022,-1.918525 0.431165,-0.522382 0.823158,-1.125974 1.141439,-1.86933 0.881833,-2.059528 0.799501,-4.053827 -0.09926,-4.722522 0.0628,-0.894886 0.122622,-1.744011 0.148877,-2.50884 C -40.089364,20.933471 -45.421951,16 -52.000034,16 z"
       inkscape:connector-curvature="0"
       id="path3798"
       style="fill:url(#linearGradient3736);fill-opacity:1;stroke:none;display:inline;enable-background:new" />
    <path
       d="m -62,16 c -6.578084,0 -11.90625,4.945501 -11.90625,11.03125 0.01598,0.697437 0.02059,1.476254 0.09375,2.34375 -1.041033,0.550102 -1.178588,2.706265 -0.25,4.875 0.358069,0.836275 0.85025,1.512175 1.34375,2.0625 0.01645,0.0184 0.04595,0.04457 0.0625,0.0625 0.117798,0.573005 0.201288,1.009908 0.34375,1.65625 0.441331,1.3124 2.269063,3.7841 3.875,5.90625 0.160151,1.637089 0.165968,3.262844 -0.15625,5.125 -4.622431,3.801433 -16.455219,5.502063 -16.4375,9.4375 L -86.625,68.75 c 0,2.09638 3.158281,4.015503 8.1875,5.3125 l 0.71875,2.78125 a 1.7295878,1.7144325 0 0 0 1.09375,1.125 c 0.223226,0.08562 0.356958,0.292694 0.96875,0.46875 C -72.433502,79.364943 -67.517708,80 -62,80 c 5.517709,0 10.464753,-0.635057 13.6875,-1.5625 0.611792,-0.176056 0.776777,-0.383174 1,-0.46875 a 1.7295878,1.7144325 0 0 0 1.03125,-1.0625 l 0.84375,-2.96875 c 4.906344,-1.294943 8.0625,-3.120641 8.0625,-5.1875 L -38.96875,58.5 c -0.01886,-3.368207 -11.902994,-5.502055 -16.46875,-9.4375 -0.18486,-1.507492 -0.219105,-2.983952 -0.125,-4.46875 1.460096,-2.232553 3.386417,-5.109593 3.875,-6.5625 0.179567,-0.752422 0.26679,-1.260159 0.40625,-1.90625 0.431165,-0.522382 0.837969,-1.131644 1.15625,-1.875 0.881833,-2.059528 0.773761,-4.050055 -0.125,-4.71875 0.0628,-0.894886 0.129995,-1.735171 0.15625,-2.5 C -50.093741,20.945502 -55.421917,16 -62,16 z m 0,1.9375 c 5.589056,0 9.931987,4.097552 9.96875,9.03125 1.56e-4,0.02098 0,0.04149 0,0.0625 -0.02545,0.688779 -0.063,1.491583 -0.125,2.375 a 1.9260586,1.9260586 0 0 0 0.625,1.5625 c -0.04866,-0.03591 0.081,0.101771 0.09375,0.46875 0.017,0.489306 -0.127404,1.265284 -0.46875,2.0625 -0.234439,0.54754 -0.533235,0.992182 -0.875,1.40625 a 1.9260586,1.9260586 0 0 0 -0.375,0.8125 c -0.13846,0.641458 -0.229377,1.123605 -0.375,1.75 -0.140365,0.390152 -0.691849,1.41967 -1.375,2.53125 -0.699714,1.13853 -1.546271,2.407434 -2.28125,3.53125 a 1.9260586,1.9260586 0 0 0 -0.3125,0.9375 c -0.101068,1.594663 -0.0436,3.21399 0.15625,4.84375 a 1.9260586,1.9260586 0 0 0 0.65625,1.21875 c 2.778403,2.394839 6.970946,3.82248 10.46875,5.25 1.748902,0.71376 3.325784,1.389438 4.3125,2 0.493358,0.305281 0.830394,0.621172 0.96875,0.78125 0.02661,0.03078 0.02025,0.01685 0.03125,0.03125 0.0028,0.0078 -0.0026,0.02524 0,0.03125 a 1.9260586,1.9260586 0 0 0 0.03125,0.15625 l 1.5625,9.96875 c 0,0.05314 -0.146787,0.540805 -1.28125,1.25 -1.134463,0.709195 -3.007984,1.446016 -5.34375,2.0625 a 1.9260586,1.9260586 0 0 0 -1.34375,1.34375 l -0.78125,2.78125 c -0.668375,0.271611 -0.489908,0.32241 -0.78125,0.40625 -2.94392,0.847202 -7.786312,1.46875 -13.15625,1.46875 -5.369937,0 -10.177899,-0.620633 -13.125,-1.46875 -0.28413,-0.08176 0.01006,-0.09166 -0.78125,-0.40625 l -0.65625,-2.59375 a 1.9260586,1.9260586 0 0 0 -1.40625,-1.40625 c -2.386591,-0.615483 -4.259795,-1.363017 -5.40625,-2.09375 -1.146455,-0.730733 -1.3125,-1.262692 -1.3125,-1.34375 l 1.5625,-9.96875 A 1.9260586,1.9260586 0 0 0 -83.09375,58.5 c -8.2e-5,-0.01817 0.08294,-0.37888 1.03125,-1 0.948312,-0.62112 2.487742,-1.286755 4.21875,-1.96875 3.462017,-1.36399 7.643678,-2.645444 10.46875,-4.96875 a 1.9260586,1.9260586 0 0 0 0.6875,-1.15625 c 0.354991,-2.051555 0.32799,-3.900697 0.15625,-5.65625 a 1.9260586,1.9260586 0 0 0 -0.375,-0.96875 c -0.798009,-1.054521 -1.635807,-2.193362 -2.3125,-3.1875 -0.66528,-0.97737 -1.15615,-1.896071 -1.25,-2.15625 C -70.47035,37.433 -70.49863,37.41032 -70.5,37.40625 -70.606616,36.910433 -70.677182,36.506216 -70.78125,36 A 1.9260586,1.9260586 0 0 0 -71.25,35.0625 c -0.156701,-0.169767 -0.172559,-0.18931 -0.03125,-0.03125 -0.395143,-0.440643 -0.745486,-0.936828 -1,-1.53125 -0.359852,-0.840442 -0.496566,-1.682848 -0.46875,-2.1875 0.01391,-0.252326 0.05994,-0.355372 0.0625,-0.375 a 1.9260586,1.9260586 0 0 0 0.78125,-1.71875 c -0.06469,-0.767115 -0.04649,-1.475745 -0.0625,-2.1875 0,-0.0105 -3.9e-5,-0.02075 0,-0.03125 0.01844,-4.947692 4.367811,-9.0625 9.96875,-9.0625 z"
       inkscape:connector-curvature="0"
       id="path3698"
       style="opacity:0.1;fill:#000000;fill-opacity:1;stroke:none;display:inline;enable-background:new" />
    <path
       d="m -62,16 c -6.578084,0 -11.90625,4.945501 -11.90625,11.03125 0.01598,0.697437 0.02059,1.476254 0.09375,2.34375 -1.041033,0.550102 -1.178588,2.706265 -0.25,4.875 0.358069,0.836275 0.85025,1.512175 1.34375,2.0625 0.01645,0.0184 0.04595,0.04457 0.0625,0.0625 0.117798,0.573005 0.201288,1.009908 0.34375,1.65625 0.441331,1.3124 2.269063,3.7841 3.875,5.90625 0.160151,1.637089 0.165968,3.262844 -0.15625,5.125 -4.622431,3.801433 -16.455219,5.502063 -16.4375,9.4375 L -86.625,68.75 c 0,2.09638 3.158281,4.015503 8.1875,5.3125 l 0.71875,2.78125 a 1.7295878,1.7144325 0 0 0 1.09375,1.125 c 0.223226,0.08562 0.356958,0.292694 0.96875,0.46875 C -72.433502,79.364943 -67.517708,80 -62,80 c 5.517709,0 10.464753,-0.635057 13.6875,-1.5625 0.611792,-0.176056 0.776777,-0.383174 1,-0.46875 a 1.7295878,1.7144325 0 0 0 1.03125,-1.0625 l 0.84375,-2.96875 c 4.906344,-1.294943 8.0625,-3.120641 8.0625,-5.1875 L -38.96875,58.5 c -0.01886,-3.368207 -11.902994,-5.502055 -16.46875,-9.4375 -0.18486,-1.507492 -0.219105,-2.983952 -0.125,-4.46875 1.460096,-2.232553 3.386417,-5.109593 3.875,-6.5625 0.179567,-0.752422 0.26679,-1.260159 0.40625,-1.90625 0.431165,-0.522382 0.837969,-1.131644 1.15625,-1.875 0.881833,-2.059528 0.773761,-4.050055 -0.125,-4.71875 0.0628,-0.894886 0.129995,-1.735171 0.15625,-2.5 C -50.093741,20.945502 -55.421917,16 -62,16 z m 0,1.0625 c 6.039419,0 10.825314,4.479735 10.84375,9.9375 3.6e-5,0.01053 0,0.02072 0,0.03125 -0.02575,0.723069 -0.0938,1.54758 -0.15625,2.4375 a 1.0515944,1.0515944 0 0 0 0.4375,0.90625 c 0.0647,0.04813 0.289992,0.383332 0.3125,1.03125 0.02251,0.647918 -0.144697,1.534703 -0.53125,2.4375 -0.272505,0.636444 -0.617646,1.161756 -1,1.625 a 1.0515944,1.0515944 0 0 0 -0.21875,0.4375 c -0.136962,0.634517 -0.219439,1.116441 -0.375,1.78125 -0.0084,0.03588 -0.02241,0.05671 -0.03125,0.09375 -0.196607,0.546091 -0.748278,1.566042 -1.4375,2.6875 -0.711269,1.157332 -1.54851,2.442107 -2.28125,3.5625 a 1.0515944,1.0515944 0 0 0 -0.1875,0.5 c -0.09791,1.544782 -0.0368,3.082002 0.15625,4.65625 a 1.0515944,1.0515944 0 0 0 0.34375,0.65625 c 2.553426,2.200921 6.699922,3.6889 10.21875,5.125 1.759414,0.71805 3.359339,1.426603 4.4375,2.09375 0.539081,0.333574 0.959556,0.642518 1.1875,0.90625 0.227944,0.263732 0.249372,0.419065 0.25,0.53125 A 1.0515944,1.0515944 0 0 0 -40,58.65625 L -38.4375,68.75 c 0,0.498211 -0.43142,1.214778 -1.6875,2 -1.25608,0.785222 -3.20468,1.525697 -5.59375,2.15625 a 1.0515944,1.0515944 0 0 0 -0.71875,0.75 l -0.8125,2.90625 -0.03125,0.03125 c -0.0095,0.02386 -0.0015,0.03464 0,0.03125 0.0015,-0.0034 -0.0204,-0.02329 -0.03125,0 -0.0217,0.04658 0.02427,0.01721 0,0.0625 -0.02427,0.04529 -0.0045,-0.01261 -0.03125,0.03125 -0.02676,0.04386 -0.0021,-0.01105 -0.03125,0.03125 -0.03147,0.04061 0.0024,-0.0075 -0.03125,0.03125 -0.03367,0.03879 0.0045,-0.0056 -0.03125,0.03125 -0.03578,0.03686 0.0065,-0.0036 -0.03125,0.03125 -0.03776,0.03481 0.0084,-0.0014 -0.03125,0.03125 -0.01982,0.01633 -0.01013,0.03132 0,0.03125 -0.04138,0.03042 0.01175,-0.02808 -0.03125,0 -0.043,0.02808 0.01323,0.0056 -0.03125,0.03125 -0.04448,0.02565 -0.01667,0.0081 -0.0625,0.03125 -0.04583,0.02315 0.01579,-0.02059 -0.03125,0 -0.04704,0.02059 0.01685,-0.01796 -0.03125,0 a 1.0515944,1.0515944 0 0 0 0,0.03125 c -0.591024,0.226578 -0.456797,0.30816 -0.90625,0.4375 -3.070512,0.883633 -7.969221,1.5 -13.40625,1.5 -5.437028,0 -10.302751,-0.615868 -13.375,-1.5 C -75.815352,77.310779 -75.628603,77.238341 -76.25,77 a 1.0515944,1.0515944 0 0 0 -0.03125,-0.03125 c -0.05173,-0.01761 0.01936,0.02062 -0.03125,0 -0.05061,-0.02062 -0.01318,-0.0077 -0.0625,-0.03125 -0.04932,-0.02356 0.0166,0.02642 -0.03125,0 -0.04785,-0.02642 0.01496,-0.0021 -0.03125,-0.03125 -0.04621,-0.02919 0.01317,6.13e-4 -0.03125,-0.03125 -0.04442,-0.03186 0.01121,0.0032 -0.03125,-0.03125 -0.02123,-0.01721 -0.03379,-0.0089 -0.03125,0 -0.04036,-0.03688 0.0069,0.008 -0.03125,-0.03125 -0.03811,-0.0392 0.0045,0.01014 -0.03125,-0.03125 0.0086,0.0028 0.01661,-0.0095 0,-0.03125 -0.03322,-0.04344 -6.63e-4,0.01408 -0.03125,-0.03125 -0.03059,-0.04533 -0.0034,0.01582 -0.03125,-0.03125 -0.02785,-0.04707 0.025,0.01739 0,-0.03125 -0.025,-0.04864 -0.0092,0.0188 -0.03125,-0.03125 -0.01103,-0.02502 -0.0015,-0.0349 0,-0.03125 l 0,-0.03125 c -0.01905,-0.05127 -0.01528,0.02107 -0.03125,-0.03125 l -0.6875,-2.71875 a 1.0515944,1.0515944 0 0 0 -0.78125,-0.78125 c -2.444714,-0.630473 -4.386408,-1.409372 -5.65625,-2.21875 -1.269842,-0.809378 -1.71875,-1.542347 -1.71875,-2.0625 L -84,58.65625 A 1.0515944,1.0515944 0 0 0 -83.96875,58.5 c -0.0021,-0.456611 0.384425,-1.029013 1.4375,-1.71875 1.053075,-0.689737 2.627699,-1.374086 4.375,-2.0625 3.494601,-1.376828 7.626978,-2.712307 10.21875,-4.84375 a 1.0515944,1.0515944 0 0 0 0.375,-0.625 c 0.340111,-1.965565 0.322728,-3.704481 0.15625,-5.40625 a 1.0515944,1.0515944 0 0 0 -0.1875,-0.53125 c -0.800261,-1.057497 -1.650645,-2.200501 -2.34375,-3.21875 -0.693105,-1.018249 -1.230547,-1.976685 -1.375,-2.40625 -0.121357,-0.55822 -0.202286,-0.995134 -0.3125,-1.53125 a 1.0515944,1.0515944 0 0 0 -0.25,-0.5 c -0.02327,-0.02521 -0.04683,-0.0175 -0.0625,-0.03125 -0.439799,-0.49044 -0.85472,-1.077023 -1.15625,-1.78125 -0.407271,-0.951189 -0.568432,-1.919185 -0.53125,-2.59375 0.03718,-0.674565 0.27681,-0.918641 0.3125,-0.9375 a 1.0515944,1.0515944 0 0 0 0.5625,-1.03125 c -0.0681,-0.807473 -0.07798,-1.547924 -0.09375,-2.25 0,-0.01053 -3.6e-5,-0.02072 0,-0.03125 0.01844,-5.457768 4.80433,-9.9375 10.84375,-9.9375 z"
       inkscape:connector-curvature="0"
       id="path3691"
       style="opacity:0.15;fill:#000000;fill-opacity:1;stroke:none;display:inline;enable-background:new" />
    <path
       d="m -62,16 c -6.578084,0 -11.90625,4.945501 -11.90625,11.03125 0.0048,0.209345 0.02565,0.429835 0.03125,0.65625 C -73.676299,21.76281 -68.452215,17 -62,17 c 6.383903,0 11.57293,4.663117 11.875,10.5 0.0071,-0.149119 0.02633,-0.325307 0.03125,-0.46875 C -50.093741,20.945502 -55.421917,16 -62,16 z m -11.875,13.40625 c -0.609597,0.370124 -0.873775,1.329002 -0.78125,2.5 0.09528,-0.722115 0.387821,-1.290328 0.84375,-1.53125 -0.02837,-0.336398 -0.04907,-0.655372 -0.0625,-0.96875 z m 23.6875,0.1875 c -0.0211,0.320759 -0.03894,0.601831 -0.0625,0.9375 0.407828,0.303432 0.629688,0.893433 0.6875,1.625 0.13658,-1.15474 -0.0914,-2.105822 -0.625,-2.5625 z M -68.375,46.75 c -0.02908,0.735547 -0.0793,1.506579 -0.21875,2.3125 -4.622431,3.801433 -16.455219,5.502063 -16.4375,9.4375 L -86.625,68.75 c 0,0.173606 0.0199,0.329073 0.0625,0.5 l 1.53125,-9.75 c -0.01772,-3.935437 11.815069,-5.636067 16.4375,-9.4375 0.203424,-1.175624 0.23527,-2.265609 0.21875,-3.3125 z m 12.78125,0.40625 c -0.0082,0.963601 0.03649,1.929609 0.15625,2.90625 4.565756,3.935445 16.44989,6.069293 16.46875,9.4375 l 1.53125,9.75 c 0.0422,-0.168029 0.0625,-0.328838 0.0625,-0.5 L -38.96875,58.5 c -0.01886,-3.368207 -11.902994,-5.502055 -16.46875,-9.4375 -0.07832,-0.638679 -0.135628,-1.274104 -0.15625,-1.90625 z"
       inkscape:connector-curvature="0"
       id="path3682"
       style="opacity:0.5;fill:#000000;fill-opacity:1;stroke:none;display:inline;enable-background:new" />
    <path
       d="m -40.125,27.5 c -0.03069,0.645974 -0.07398,1.304199 -0.125,2.03125 0.02247,0.01672 0.04105,0.04415 0.0625,0.0625 0.03516,-0.534376 0.07734,-1.084556 0.09375,-1.5625 0,-0.179647 -0.02206,-0.353709 -0.03125,-0.53125 z m -23.75,0.1875 c -0.0039,0.115578 -0.03125,0.227302 -0.03125,0.34375 0.0098,0.426984 0.01005,0.880246 0.03125,1.375 0.0193,-0.01172 0.04253,-0.0207 0.0625,-0.03125 -0.0512,-0.607106 -0.04943,-1.159609 -0.0625,-1.6875 z m -0.78125,4.28125 c -0.106491,0.91862 0.0832,2.088843 0.59375,3.28125 0.358069,0.836275 0.85025,1.512175 1.34375,2.0625 0.01645,0.0184 0.04595,0.04457 0.0625,0.0625 0.117798,0.573005 0.201288,1.009908 0.34375,1.65625 0.441331,1.3124 2.269063,3.7841 3.875,5.90625 0.05904,0.603555 0.05285,1.201144 0.0625,1.8125 0.03812,-0.964003 0.02834,-1.883926 -0.0625,-2.8125 -1.605937,-2.12215 -3.433669,-4.59385 -3.875,-5.90625 -0.142462,-0.646342 -0.225952,-1.083245 -0.34375,-1.65625 -0.01655,-0.01793 -0.04605,-0.0441 -0.0625,-0.0625 -0.4935,-0.550325 -0.985681,-1.226225 -1.34375,-2.0625 -0.338697,-0.791032 -0.530521,-1.571715 -0.59375,-2.28125 z m 25.09375,0.1875 c -0.07751,0.65529 -0.251229,1.366774 -0.5625,2.09375 -0.318281,0.743356 -0.725085,1.352618 -1.15625,1.875 -0.13946,0.646091 -0.226683,1.153828 -0.40625,1.90625 -0.488583,1.452907 -2.414904,4.329947 -3.875,6.5625 -0.0212,0.334536 0.0099,0.665247 0,1 1.460096,-2.232553 3.386417,-5.109593 3.875,-6.5625 0.179567,-0.752422 0.26679,-1.260159 0.40625,-1.90625 0.431165,-0.522382 0.837969,-1.131644 1.15625,-1.875 0.481686,-1.124982 0.632092,-2.213108 0.5625,-3.09375 z m -37,37.09375 -0.0625,0.5 c 0,2.09638 3.158281,4.015503 8.1875,5.3125 l 0.71875,2.78125 a 1.7295878,1.7144325 0 0 0 1.09375,1.125 c 0.223226,0.08562 0.356958,0.292694 0.96875,0.46875 C -62.433502,80.364943 -57.517708,81 -52,81 c 5.517709,0 10.464753,-0.635057 13.6875,-1.5625 0.611792,-0.176056 0.776777,-0.383174 1,-0.46875 a 1.7295878,1.7144325 0 0 0 1.03125,-1.0625 l 0.84375,-2.96875 c 4.906344,-1.294943 8.0625,-3.120641 8.0625,-5.1875 l -0.0625,-0.5 c -0.467429,1.860996 -3.499963,3.499794 -8,4.6875 l -0.84375,2.96875 a 1.7295878,1.7144325 0 0 1 -1.03125,1.0625 c -0.223223,0.08558 -0.388208,0.292694 -1,0.46875 C -41.535247,79.364943 -46.482291,80 -52,80 c -5.517708,0 -10.433502,-0.635057 -13.65625,-1.5625 -0.611792,-0.176056 -0.745524,-0.38313 -0.96875,-0.46875 a 1.7295878,1.7144325 0 0 1 -1.09375,-1.125 L -68.4375,74.0625 c -4.612737,-1.189589 -7.653174,-2.919405 -8.125,-4.8125 z"
       inkscape:connector-curvature="0"
       id="path3705"
       style="opacity:0.5;fill:#ffffff;fill-opacity:1;stroke:none;display:inline;enable-background:new" />
    <path
       d="m 48,20 c -8.301477,0 -14.954547,6.251954 -14.954547,13.999997 0.01872,0.825067 0.08037,2.017651 0.159096,3.02273 -1.419601,0.602502 -1.523191,3.365348 -0.318183,6.204543 0.477848,1.125889 1.086452,1.990381 1.75,2.704548 0.161223,0.79793 0.118923,1.156157 0.318179,2.068182 0.556032,1.668092 2.748224,4.937331 4.772727,7.636364 0.198518,2.072813 0.404452,4.164618 0,6.522727 -5.833473,4.839784 -20.863266,6.921433 -20.840907,11.931818 L 18.568182,76 77.431817,76 77.113622,74.090909 C 77.089706,69.802694 62.034664,67.169477 56.272724,62.159091 56.039587,60.241112 55.995145,58.320918 56.113647,56.431818 57.958409,53.584971 60.426146,49.857949 61.045461,48 c 0.222579,-0.940847 0.30359,-1.576251 0.47727,-2.386365 0.552785,-0.669592 1.02461,-1.426909 1.431821,-2.386365 1.144759,-2.697235 1.070764,-5.272078 -0.159077,-6.045453 0.07251,-1.086755 0.127145,-2.243102 0.159077,-3.18182 C 62.954552,26.251954 56.30149,20 48.000007,20 z"
       inkscape:connector-curvature="0"
       id="path3159"
       style="fill:url(#linearGradient3829);fill-opacity:1;stroke:none" />
    <path
       d="m 48,20 c -8.301477,0 -14.96875,6.251957 -14.96875,14 0.01872,0.825067 0.108774,2.026171 0.1875,3.03125 -1.419601,0.602502 -1.548758,3.348305 -0.34375,6.1875 0.477848,1.125889 1.086452,2.004583 1.75,2.71875 0.161223,0.79793 0.144494,1.150475 0.34375,2.0625 0.556032,1.668092 2.725497,4.925967 4.75,7.625 0.198518,2.072813 0.404452,4.173141 0,6.53125 -5.833473,4.839784 -20.866109,6.927115 -20.84375,11.9375 L 18.5625,76 77.4375,76 77.125,74.09375 C 77.101084,69.805535 62.04319,67.166636 56.28125,62.15625 56.048113,60.238271 56.006498,58.3266 56.125,56.4375 57.969762,53.590653 60.411935,49.857949 61.03125,48 c 0.222579,-0.940847 0.32632,-1.564886 0.5,-2.375 0.552785,-0.669592 1.030289,-1.446794 1.4375,-2.40625 1.144759,-2.697235 1.042341,-5.257875 -0.1875,-6.03125 C 62.85376,36.100745 62.936818,34.938718 62.96875,34 62.96875,26.251957 56.301483,20 48,20 z m 0,2.03125 c 7.260271,0 12.901311,5.35003 12.9375,11.90625 -5.94e-4,0.01746 6.34e-4,0.04482 0,0.0625 -0.0312,0.869331 -0.115989,1.990712 -0.1875,3.0625 a 2.0274208,2.0274208 0 0 0 0.84375,1.78125 c -0.01842,0.0034 0.138765,0.200566 0.15625,0.71875 0.02331,0.690912 -0.182502,1.758774 -0.65625,2.875 -0.338361,0.797235 -0.697628,1.388572 -1.125,1.90625 A 2.0274208,2.0274208 0 0 0 59.5625,45.1875 c -0.169168,0.789067 -0.291496,1.382457 -0.46875,2.15625 -0.185657,0.556973 -0.889128,1.991248 -1.78125,3.46875 -0.892122,1.477502 -1.950494,3.104547 -2.875,4.53125 a 2.0274208,2.0274208 0 0 0 -0.34375,0.96875 c -0.125709,2.003983 -0.06162,4.044283 0.1875,6.09375 a 2.0274208,2.0274208 0 0 0 0.65625,1.28125 c 3.407825,2.963328 8.716678,4.791243 13.15625,6.59375 2.219786,0.901254 4.208272,1.76543 5.5,2.5625 0.645864,0.398535 1.126936,0.78025 1.34375,1.03125 0.09083,0.105149 0.04071,0.05622 0.0625,0.09375 l -54.03125,0 c 0.05518,-0.269367 0.317709,-0.738911 1.4375,-1.46875 1.253032,-0.816681 3.232656,-1.70058 5.4375,-2.5625 C 32.253438,68.213661 37.534916,66.593582 41,63.71875 A 2.0274208,2.0274208 0 0 0 41.71875,62.5 c 0.457738,-2.668784 0.229474,-4.992762 0.03125,-7.0625 a 2.0274208,2.0274208 0 0 0 -0.40625,-1.03125 c -1.971777,-2.62874 -4.131309,-6.143928 -4.4375,-7.0625 -0.119489,-0.619136 -0.11206,-0.97514 -0.28125,-1.8125 a 2.0274208,2.0274208 0 0 0 -0.5,-0.96875 c -0.519888,-0.559548 -0.990804,-1.219771 -1.375,-2.125 -0.500505,-1.179272 -0.693487,-2.327827 -0.65625,-3.03125 0.01862,-0.351712 0.05442,-0.510077 0.0625,-0.5625 -0.02526,0.01384 -0.08391,0.0318 -0.15625,0.0625 A 2.0274208,2.0274208 0 0 0 35.25,36.875 C 35.172533,35.885991 35.080202,34.724521 35.0625,34 c -1.92e-4,-0.0078 1.75e-4,-0.02352 0,-0.03125 0.01813,-6.570655 5.665538,-11.9375 12.9375,-11.9375 z"
       inkscape:connector-curvature="0"
       id="path3849"
       style="opacity:0.1;fill:#000000;fill-opacity:1;stroke:none" />
    <path
       d="m 48,20 c -8.301477,0 -14.96875,6.251957 -14.96875,14 0.01872,0.825067 0.108774,2.026171 0.1875,3.03125 -1.419601,0.602502 -1.548758,3.348305 -0.34375,6.1875 0.477848,1.125889 1.086452,2.004583 1.75,2.71875 0.161223,0.79793 0.144494,1.150475 0.34375,2.0625 0.556032,1.668092 2.725497,4.925967 4.75,7.625 0.198518,2.072813 0.404452,4.173141 0,6.53125 -5.833473,4.839784 -20.866109,6.927115 -20.84375,11.9375 L 18.5625,76 77.4375,76 77.125,74.09375 C 77.101084,69.805535 62.04319,67.166636 56.28125,62.15625 56.048113,60.238271 56.006498,58.3266 56.125,56.4375 57.969762,53.590653 60.411935,49.857949 61.03125,48 c 0.222579,-0.940847 0.32632,-1.564886 0.5,-2.375 0.552785,-0.669592 1.030289,-1.446794 1.4375,-2.40625 1.144759,-2.697235 1.042341,-5.257875 -0.1875,-6.03125 C 62.85376,36.100745 62.936818,34.938718 62.96875,34 62.96875,26.251957 56.301483,20 48,20 z m 0,1 c 7.783097,0 13.950648,5.814429 13.96875,12.96875 2.7e-5,0.01054 0,0.0207 0,0.03125 -0.03157,0.903446 -0.115481,2.045601 -0.1875,3.125 A 1.0097464,1.0097464 0 0 0 62.25,38.03125 c 0.200523,0.126097 0.470198,0.616802 0.5,1.5 0.0298,0.883198 -0.195493,2.048374 -0.71875,3.28125 -0.372921,0.878663 -0.790926,1.562318 -1.28125,2.15625 a 1.0097464,1.0097464 0 0 0 -0.21875,0.4375 c -0.171448,0.799702 -0.239123,1.428986 -0.4375,2.28125 -5.17e-4,0.0022 -0.03073,-0.0022 -0.03125,0 -0.2479,0.743701 -0.969611,2.125526 -1.875,3.625 -0.905389,1.499474 -1.982811,3.137443 -2.90625,4.5625 a 1.0097464,1.0097464 0 0 0 -0.15625,0.5 c -0.122091,1.946317 -0.08485,3.922784 0.15625,5.90625 a 1.0097464,1.0097464 0 0 0 0.34375,0.625 c 3.143367,2.733365 8.380017,4.625183 12.84375,6.4375 2.231866,0.906158 4.257433,1.761851 5.65625,2.625 0.699408,0.431575 1.241045,0.877859 1.5625,1.25 0.321455,0.372141 0.436157,0.634115 0.4375,0.875 a 1.0097464,1.0097464 0 0 0 0,0.15625 l 0.125,0.75 -56.5,0 0.125,-0.75 a 1.0097464,1.0097464 0 0 0 0,-0.15625 c -0.0033,-0.747426 0.593099,-1.540901 1.96875,-2.4375 1.375651,-0.896599 3.401368,-1.786986 5.625,-2.65625 4.447264,-1.738529 9.716412,-3.416027 12.90625,-6.0625 a 1.0097464,1.0097464 0 0 0 0.34375,-0.625 c 0.430991,-2.512839 0.198371,-4.709968 0,-6.78125 a 1.0097464,1.0097464 0 0 0 -0.1875,-0.5 c -1.988308,-2.650779 -4.115893,-6.003581 -4.5625,-7.3125 -0.0022,-0.0065 -0.0291,-0.02481 -0.03125,-0.03125 C 35.778788,46.924498 35.792031,46.576674 35.625,45.75 a 1.0097464,1.0097464 0 0 0 -0.25,-0.5 c -0.591999,-0.63716 -1.131295,-1.421509 -1.5625,-2.4375 -0.551704,-1.299905 -0.798218,-2.557899 -0.75,-3.46875 0.04822,-0.910851 0.35032,-1.284947 0.5625,-1.375 A 1.0097464,1.0097464 0 0 0 34.21875,36.9375 C 34.141056,35.945602 34.05009,34.774512 34.03125,34 c -2e-4,-0.0082 1.84e-4,-0.02314 0,-0.03125 C 34.049352,26.814429 40.216909,21 48,21 z"
       inkscape:connector-curvature="0"
       id="path3840"
       style="opacity:0.15;fill:#000000;fill-opacity:1;stroke:none" />
    <path
       d="m 48,20 c -8.301477,0 -14.96875,6.251957 -14.96875,14 0.0031,0.136099 0.02594,0.346392 0.03125,0.5 C 33.343114,26.986183 39.878958,21 48,21 56.132279,21 62.673855,27.00281 62.9375,34.53125 62.944061,34.364036 62.963428,34.156453 62.96875,34 62.96875,26.251957 56.301483,20 48,20 z M 33.15625,37.0625 c -0.816271,0.39645 -1.167518,1.544066 -1.0625,3 0.09185,-1.00456 0.46502,-1.751144 1.125,-2.03125 -0.02516,-0.321263 -0.04167,-0.627298 -0.0625,-0.96875 z m 29.6875,0.1875 c -0.01812,0.324514 -0.04116,0.617719 -0.0625,0.9375 0.550778,0.346352 0.856017,1.050593 0.9375,1.96875 0.101569,-1.346169 -0.190515,-2.417806 -0.875,-2.90625 z M 56.0625,59.28125 c -0.0064,1.284368 0.06164,2.582449 0.21875,3.875 5.76194,5.010386 20.819834,7.649285 20.84375,11.9375 L 77.28125,76 77.4375,76 77.125,74.09375 c -0.02392,-4.288215 -15.08181,-6.927114 -20.84375,-11.9375 -0.116568,-0.95899 -0.19331,-1.919067 -0.21875,-2.875 z m -16.09375,0.25 c -0.0095,0.84681 -0.09354,1.712806 -0.25,2.625 -5.833473,4.839784 -20.866109,6.927115 -20.84375,11.9375 L 18.5625,76 18.71875,76 18.875,75.09375 c -0.02236,-5.010385 15.010277,-7.097716 20.84375,-11.9375 0.218032,-1.27121 0.289948,-2.469825 0.25,-3.625 z"
       inkscape:connector-curvature="0"
       id="path3831"
       style="opacity:0.5;fill:#000000;fill-opacity:1;stroke:none" />
    <path
       d="m 33.0625,34.5 c -0.0062,0.166944 -0.03125,0.331594 -0.03125,0.5 0.01274,0.561343 0.08066,1.335712 0.125,2.0625 0.02154,-0.01046 0.04032,-0.02184 0.0625,-0.03125 C 33.15301,36.191964 33.089371,35.277604 33.0625,34.5 z m 29.875,0.03125 c -0.03281,0.836069 -0.09582,1.750621 -0.15625,2.65625 0.02456,0.01544 0.03887,0.04563 0.0625,0.0625 0.04346,-0.778327 0.102464,-1.587502 0.125,-2.25 0,-0.157923 -0.02576,-0.31211 -0.03125,-0.46875 z M 32.09375,40.0625 c -0.105714,1.156224 0.136457,2.637012 0.78125,4.15625 0.477848,1.125889 1.086452,2.004583 1.75,2.71875 0.161223,0.79793 0.144494,1.150475 0.34375,2.0625 0.556032,1.668092 2.725497,4.925967 4.75,7.625 0.0915,0.9554 0.215844,1.918563 0.25,2.90625 0.01512,-1.342276 -0.128275,-2.635269 -0.25,-3.90625 C 37.694247,52.925967 35.524782,49.668092 34.96875,48 34.769494,47.087975 34.786223,46.73543 34.625,45.9375 33.961452,45.223333 33.352848,44.344639 32.875,43.21875 32.402371,42.105158 32.16331,41.026857 32.09375,40.0625 z m 31.625,0.09375 c -0.07056,0.93523 -0.290091,1.978882 -0.75,3.0625 -0.407211,0.959456 -0.884715,1.736658 -1.4375,2.40625 -0.17368,0.810114 -0.277421,1.434153 -0.5,2.375 -0.619315,1.857949 -3.061488,5.590653 -4.90625,8.4375 -0.05024,0.800814 -0.07279,1.596798 -0.0625,2.40625 0.0089,-0.475641 0.03287,-0.933975 0.0625,-1.40625 1.844762,-2.846847 4.286935,-6.579551 4.90625,-8.4375 0.222579,-0.940847 0.32632,-1.564886 0.5,-2.375 0.552785,-0.669592 1.030289,-1.446794 1.4375,-2.40625 0.632085,-1.489292 0.850462,-2.930489 0.75,-4.0625 z m -45,35.84375 -0.15625,1 58.875,0 -0.15625,-1 -58.5625,0 z"
       inkscape:connector-curvature="0"
       id="path3862"
       style="opacity:0.5;fill:#ffffff;fill-opacity:1;stroke:none" />
  </g>
</svg>
