/* XPM */
static char *desktop[] = {
/* columns rows colors chars-per-pixel */
"22 22 243 2",
"   c #000000",
".  c #222222",
"X  c #0B214C",
"o  c #333B48",
"O  c #343C48",
"+  c #353D49",
"@  c #0B2E6F",
"#  c #0B2F70",
"$  c #0B2F71",
"%  c #0C3172",
"&  c #0D3274",
"*  c #0E3274",
"=  c #0E3375",
"-  c #0E3476",
";  c #0E357B",
":  c #243E61",
">  c #1F4070",
",  c #2C4264",
"<  c #2C4265",
"1  c #21406B",
"2  c #25497B",
"3  c #304B73",
"4  c #3C587F",
"5  c #464646",
"6  c #474747",
"7  c #44484F",
"8  c #444950",
"9  c #4E535A",
"0  c #5A5A5A",
"q  c #5E5E5E",
"w  c #42526A",
"e  c #626364",
"r  c #66696C",
"t  c #676F7A",
"y  c #747474",
"u  c #74787F",
"i  c #D1A85F",
"p  c #D9B97D",
"a  c #0E3680",
"s  c #0E3781",
"d  c #0F3782",
"f  c #0F3882",
"g  c #0F3A88",
"h  c #0F3B8A",
"j  c #113A80",
"k  c #103A84",
"l  c #133D86",
"z  c #103D8F",
"x  c #103D90",
"c  c #15438F",
"v  c #164394",
"b  c #144396",
"n  c #164796",
"m  c #194994",
"M  c #1A4A95",
"N  c #154698",
"B  c #164799",
"V  c #1F4F9B",
"C  c #1B4D9C",
"Z  c #1A4C9E",
"A  c #1A4C9F",
"S  c #1E509B",
"D  c #284781",
"F  c #264D86",
"G  c #2A4B84",
"H  c #2B4C86",
"J  c #2C4E88",
"K  c #324F83",
"L  c #2D5086",
"P  c #2D508A",
"I  c #2E528C",
"U  c #30548E",
"Y  c #30558F",
"T  c #39568B",
"R  c #3A588C",
"E  c #3B588C",
"W  c #23539B",
"Q  c #315690",
"!  c #3B5E9A",
"~  c #3A609B",
"^  c #1B4FA2",
"/  c #1C50A2",
"(  c #1D50A2",
")  c #1C50A3",
"_  c #1D52A4",
"`  c #1F54A4",
"'  c #1F55A8",
"]  c #2556A3",
"[  c #2E5BA6",
"{  c #2158AB",
"}  c #2359AB",
"|  c #235CAB",
" . c #235BAE",
".. c #245DB0",
"X. c #2B60AF",
"o. c #3460A7",
"O. c #3A64A9",
"+. c #2A63B2",
"@. c #2A65B1",
"#. c #2863B7",
"$. c #2E68B3",
"%. c #2965B8",
"&. c #2A66BA",
"*. c #2F67B8",
"=. c #2C69BC",
"-. c #3465B0",
";. c #3B69B0",
":. c #386CB7",
">. c #3E6EB6",
",. c #3F72B9",
"<. c #3D71BD",
"1. c #44618F",
"2. c #536687",
"3. c #406AAE",
"4. c #466CAD",
"5. c #4F7BB6",
"6. c #5274B1",
"7. c #5279B1",
"8. c #5578B5",
"9. c #547BB4",
"0. c #527FBE",
"q. c #587BB8",
"w. c #2F6EC3",
"e. c #2F6FC3",
"r. c #3370C2",
"t. c #3172C6",
"y. c #3273C7",
"u. c #3774C5",
"i. c #3A73C1",
"p. c #3274C8",
"a. c #3375C8",
"s. c #3476CB",
"d. c #3577CC",
"f. c #3578CD",
"g. c #367ACF",
"h. c #377BD0",
"j. c #397FD4",
"k. c #467BC4",
"l. c #5F82B1",
"z. c #5880BD",
"x. c #5981BE",
"c. c #6585BE",
"v. c #3A80D5",
"b. c #3A81D6",
"n. c #3F87DD",
"m. c #3F88DD",
"M. c #5482C0",
"N. c #5685C5",
"B. c #5D85C2",
"V. c #608AC7",
"C. c #688CC3",
"Z. c #648FCC",
"A. c #6796CF",
"S. c #6A93CC",
"D. c #6C97CD",
"F. c #789ACC",
"G. c #789BCF",
"H. c #6794D2",
"J. c #6999D6",
"K. c #6C9BD6",
"L. c #6D9BD6",
"P. c #6D9CD7",
"I. c #6D9DD7",
"U. c #6A99D8",
"Y. c #6B9AD8",
"T. c #6E9DD8",
"R. c #6C9DDC",
"E. c #6E9FDD",
"W. c #6E9FDE",
"Q. c #7AA0D5",
"!. c #76A4DC",
"~. c #77A5DC",
"^. c #7DA4D8",
"/. c #71A5E3",
"(. c #75AAE8",
"). c #75AAE9",
"_. c #898989",
"`. c #8D8D8D",
"'. c #878D97",
"]. c #939393",
"[. c #959595",
"{. c #949596",
"}. c #969696",
"|. c #999A9B",
" X c #9F9F9F",
".X c #808EA0",
"XX c #919AA7",
"oX c #A3A3A3",
"OX c #A3A5A6",
"+X c #A5A5A5",
"@X c #A6A6A6",
"#X c #A3A5A9",
"$X c #AAAAAA",
"%X c #AEAEAE",
"&X c #AFAFAF",
"*X c #B1B1B1",
"=X c #B2B2B2",
"-X c #B4B4B4",
";X c #B9B9B9",
":X c #BABABA",
">X c #BDBDBD",
",X c #BEBEBE",
"<X c #BFBFBF",
"1X c #839CC9",
"2X c #82A5D6",
"3X c #85AADA",
"4X c #80A8DD",
"5X c #96B4DB",
"6X c #82ACE1",
"7X c #84AEE4",
"8X c #8BB3E5",
"9X c #99B7E0",
"0X c #C2C2C2",
"qX c #C3C3C3",
"wX c #C2C3C4",
"eX c #C4C4C4",
"rX c #C5C5C5",
"tX c #C7C7C7",
"yX c #C9C9C9",
"uX c #CACACA",
"iX c #CACACB",
"pX c #CCCCCC",
"aX c #CECECE",
"sX c #CFCFCF",
"dX c #D3D3D3",
"fX c #D4D4D4",
"gX c #D7D7D7",
"hX c #D9D9D9",
"jX c #DBDBDB",
"kX c #DCDCDC",
"lX c #DEDEDE",
"zX c #E2E2E2",
"xX c #E3E3E3",
"cX c #E2E3E4",
"vX c #E4E4E4",
"bX c #E6E6E6",
"nX c #E7E7E7",
"mX c #E8E8E8",
"MX c #EAEAEA",
"NX c #ECECEC",
"BX c #EDEDED",
"VX c #F2F2F2",
"CX c None",
/* pixels */
"CXCXCXCXCXCXCXCXCXCXCXCXCXCXCXCXCXCXCXCXCXCX",
"CXCXNXVXVXVXVXVXVXVXVXVXVXVXVXVXVXVXVXNXCXCX",
"CXmXwX{.{.{.{.{.{.{.{.}.[.}.}.}.{.{.{.rXnXCX",
"CXNX|.K D T T D D D 2 D D D D D D D K |.NXCX",
"CXmX XD 6.1X1X8.8.8.8.9XT.L.L.L.L.A.D {.mXCX",
"CXmX+XD 8.c.c.q.q.q.q.5X~.~.!.~.!.D.2.rX=X. ",
"CXvX$X# g a f h x x x 4.S.N.N.M.l.XX+X].0 CX",
"CXxX*X@ a p p a x x h b F.z.8..X#X+Xe 6 @XCX",
"CXlX-X# f i i f b N N B C.l.].=Xy o X +XkXCX",
"CXjX;X# f ; j c A / _ _ 1.2.`.7 < ! @ ;XjXCX",
"CXgX,X# f %X%Xm ' ' W w q o , ~ 3.O.@ ,XgXCX",
"CXfXqX# l _._.S | 3 r + - 5.5.3.;.o.$ qXfXCX",
"CXsXyX% b M S F t 8 : @.=.M.i.:.-.[ % yXpXCX",
"CXpXpX& Z ] 4 9 : $.s.s.a.u.i.&.+.] * aXpXCX",
"CXtXfX- A L 2 #.t.h.b.j.g.p.r.#.{ _ & dXyXCX",
"CXeXhX- ) { %.e.s.j.m.m.b.f.e.&..._ - hXrXCX",
"CX<XlXH B.S.H.U.E./.(.(./.E.R.H.Z.B.G lX<XCX",
"CX,XxXH z.F.2X~.J.6X8X7XE.4X3XQ.V.x.G cX,XCX",
"CX;XcXE H J J I Q Y Q Q Q Q I J J H E vX;XCX",
"CX XyXcXvXmXvXvXvXmXvXvXvXbXvXbXvXmXcXyX XCX",
"CX6 oX0XrXrXyXyXyXpXpXdXpXpXyXrXrXrX0XoX6 CX",
"CXCXCX                                CXCXCX"
};
