<svg xmlns="http://www.w3.org/2000/svg" width="48" height="48">
<defs>
  <path
     d="M 23.992714,2.001869 C 15.343636,1.882994 7.005774,7.445974 3.7275559,15.439197 0.30425675,23.292138 2.0788441,33.047353 8.073877,39.172819 13.84101,45.380717 23.342633,47.651766 31.299313,44.751164 39.546066,41.946393 45.629945,33.845424 45.958551,25.130126 46.505573,16.657686 41.591018,8.192811 34.002974,4.409476 30.920455,2.824524 27.458073,1.996594 23.992714,2.001869 z m 9.426203,6.284815 c 2.094713,2.094938 4.189423,4.189876 6.284136,6.284815 C 33.942596,22.427518 28.182137,30.283536 22.42168,38.139554 18.232258,34.473412 14.042833,30.807272 9.85341,27.141129 c 2.094712,-2.09494 4.189423,-4.189876 6.284135,-6.284815 2.094713,2.094939 4.189423,4.189875 6.284135,6.284815 C 26.087427,20.856314 29.753171,14.5715 33.418917,8.286684 z"
     id="path-main" />
</defs>
<acyl-settings>
<linearGradient
     id="linearGradient4321">
    <stop
       style="stop-color:#FFFFFF;stop-opacity:1.0;"
       offset="1.0"
       id="stop1" />
  </linearGradient>
<linearGradient
     inkscape:collect="always"
     xlink:href="#linearGradient4321"
     id="acyl_gradient"
     x1="50.0%"
     y1="0.0%"
     x2="50.0%"
     y2="100.0%" />
<filter>
    </filter>
<use id="1" style="fill:url(#acyl_gradient);filter:url(#filter1111)" xlink:href="#path-main" />
</acyl-settings>
</svg>
