<svg xmlns="http://www.w3.org/2000/svg" width="48" height="48">
<defs>
  <path
     d="m 16,11.03125 c -1.434435,-0.04232 -2.68331,0.825844 -3.5,1.9375 -1.146771,1.347001 -2.290729,2.715499 -3.4375,4.0625 -1.4700137,0.0855 -2.9824068,-0.210911 -4.40625,0.25 -1.7474978,0.613234 -2.8220176,2.493291 -2.625,4.3125 0.022472,2.00844 -0.038565,4.026683 0.0625,6.03125 0.2821345,2.063661 2.3199322,3.587387 4.375,3.375 L 9.125,31 c 1.423984,1.638467 2.854338,3.278289 4.25,4.9375 1.537159,1.596878 4.359064,1.343869 5.6875,-0.375 C 19.9798,34.561517 20.042398,33.153318 20,31.875 l 0,-17.03125 c -0.0776,-2.057409 -1.938329,-3.843536 -4,-3.8125 z m 9.125,3.866519 c -0.757272,0.0737 -1.44839,0.61854 -1.696823,1.337688 -0.248432,0.719148 -0.04099,1.574403 0.509323,2.099812 l 5.1875,5.21875 -5.1875,5.1875 c -0.871083,0.701952 -0.950352,2.180751 -0.159302,2.971802 0.79105,0.79105 2.26985,0.711781 2.971802,-0.159302 l 5.1875,-5.1875 5.21875,5.1875 c 0.701952,0.871083 2.180752,0.950352 2.971802,0.159302 0.79105,-0.791051 0.711781,-2.26985 -0.159302,-2.971802 l -5.21875,-5.1875 5.21875,-5.21875 c 0.574295,-0.555366 0.763106,-1.472491 0.454885,-2.209543 -0.308222,-0.737052 -1.093703,-1.246746 -1.892385,-1.227957 -0.515859,0.02037 -1.020456,0.249734 -1.375,0.625 l -5.21875,5.21875 -5.1875,-5.21875 c -0.369111,-0.389877 -0.900629,-0.620972 -1.4375,-0.625 -0.06245,-0.0029 -0.125046,-0.0029 -0.1875,0 z"
     id="path-main"
     sodipodi:nodetypes="ccccccccccccccscccscccscccsscccsc" />
</defs>
<acyl-settings>
<linearGradient
     id="linearGradient4321">
    <stop
       style="stop-color:#FFFFFF;stop-opacity:1.0;"
       offset="1.0"
       id="stop1" />
  </linearGradient>
<linearGradient
     inkscape:collect="always"
     xlink:href="#linearGradient4321"
     id="acyl_gradient"
     x1="50.0%"
     y1="0.0%"
     x2="50.0%"
     y2="100.0%" />
<filter>
    </filter>
<use id="1" style="fill:url(#acyl_gradient);filter:url(#filter1111)" xlink:href="#path-main" />
</acyl-settings>
</svg>
