<svg xmlns="http://www.w3.org/2000/svg" width="48" height="48">
<defs>
  <path
     d="m 15.6736,12.089596 c -0.695312,0 -1.290572,0.291496 -1.70853,0.783076 l -5.125589,6.051042 -4.5560789,0 c -1.2574778,0 -2.2780394,1.020562 -2.2780394,2.27804 -0.014283,2.269089 0.00506,4.589222 0,6.834118 0,1.257478 1.0205619,2.27804 2.2780394,2.27804 l 4.5560789,0 4.912023,5.623909 c 0.390361,0.694618 1.069094,1.210209 1.922096,1.210209 1.257477,0 2.27804,-1.020562 2.278039,-2.27804 l 0,-20.502354 c 0,-1.257478 -1.020562,-2.27804 -2.278039,-2.27804 z m 8.756214,3.061116 c -0.14444,0.0077 -0.28801,0.03161 -0.427133,0.07119 -0.713885,0.155014 -1.313491,0.74779 -1.476672,1.459853 -0.163181,0.712063 0.118455,1.50679 0.693596,1.957206 0,0 0.208281,0.122787 0.640699,0.996643 0.432408,0.873847 0.899561,2.396165 0.925453,4.912022 0.02533,2.459905 -0.470458,4.037057 -0.925453,4.983212 -0.454995,0.946154 -0.711887,1.139019 -0.711887,1.139019 -0.924567,0.612764 -1.111597,2.085205 -0.369587,2.90966 0.742009,0.824455 2.225948,0.793025 2.932381,-0.06211 0,0 0.929488,-0.87726 1.637341,-2.349229 0.707853,-1.471968 1.383667,-3.672283 1.352586,-6.69174 -0.03121,-3.032677 -0.721711,-5.201762 -1.423775,-6.620553 -0.702064,-1.41879 -1.637341,-2.20685 -1.637341,-2.20685 -0.330038,-0.298532 -0.765653,-0.477903 -1.210208,-0.498323 z"
     id="path-main"
     sodipodi:nodetypes="cccccscccsccccsscssscscssscc" />
</defs>
<acyl-settings>
<linearGradient
     id="linearGradient4321">
    <stop
       style="stop-color:#FFFFFF;stop-opacity:1.0;"
       offset="1.0"
       id="stop1" />
  </linearGradient>
<linearGradient
     inkscape:collect="always"
     xlink:href="#linearGradient4321"
     id="acyl_gradient"
     x1="50.0%"
     y1="0.0%"
     x2="50.0%"
     y2="100.0%" />
<filter>
    </filter>
<use id="1" style="fill:url(#acyl_gradient);filter:url(#filter1111)" xlink:href="#path-main" />
</acyl-settings>
</svg>
