<svg xmlns="http://www.w3.org/2000/svg" width="48" height="48">
<defs>
  <path
     d="m 37.813295,5.2554782 a 1.9365272,1.9365272 0 0 0 -0.996642,3.3458704 c 0,0 1.200595,1.0807518 2.562795,3.7018134 1.362199,2.621062 2.77636,6.702491 2.77636,12.315651 0,5.581823 -1.408796,9.595082 -2.77636,12.244462 -1.367565,2.64938 -2.562795,3.773003 -2.562795,3.773003 a 1.9394847,1.9394847 0 1 0 2.633983,2.847549 c 0,0 1.731513,-1.713338 3.345871,-4.840834 C 44.410864,35.515498 46,30.852224 46,24.618813 46,18.358369 44.411179,13.630298 42.796507,10.523444 41.181835,7.4165904 39.450636,5.7537993 39.450636,5.7537993 A 1.9365272,1.9365272 0 0 0 37.813295,5.2554782 z m -6.549363,5.0543998 a 1.9365272,1.9365272 0 0 0 -0.355944,0.07119 1.9365272,1.9365272 0 0 0 -0.925453,3.34587 c 0,0 0.801079,0.701932 1.708529,2.491606 0.907451,1.789673 1.848566,4.562589 1.779719,8.40027 -0.07003,3.903699 -1.025587,6.674902 -1.922096,8.471459 -0.896509,1.796558 -1.637341,2.491606 -1.637341,2.491606 a 1.9365272,1.9365272 0 1 0 2.705172,2.705172 c 0,0 1.293758,-1.230481 2.420417,-3.488248 1.126659,-2.257767 2.197265,-5.677542 2.278039,-10.179989 0.08071,-4.499312 -0.978611,-7.898052 -2.135662,-10.179989 -1.15705,-2.281937 -2.491605,-3.559436 -2.491605,-3.559436 a 1.9365272,1.9365272 0 0 0 -1.423775,-0.56951 z M 15.6736,12.089596 c -0.695312,0 -1.290572,0.291496 -1.70853,0.783076 l -5.125589,6.051042 -4.5560789,0 c -1.2574778,0 -2.2780394,1.020562 -2.2780394,2.27804 -0.014283,2.269089 0.00506,4.589222 0,6.834118 0,1.257478 1.0205619,2.27804 2.2780394,2.27804 l 4.5560789,0 4.912023,5.623909 c 0.390361,0.694618 1.069094,1.210209 1.922096,1.210209 1.257477,0 2.27804,-1.020562 2.278039,-2.27804 l 0,-20.502354 c 0,-1.257478 -1.020562,-2.27804 -2.278039,-2.27804 z m 8.756214,3.061116 a 1.9365272,1.9365272 0 0 0 -0.427133,0.07119 1.9365272,1.9365272 0 0 0 -0.783076,3.417059 c 0,0 0.208281,0.122787 0.640699,0.996643 0.432408,0.873847 0.899561,2.396165 0.925453,4.912022 0.02533,2.459905 -0.470458,4.037057 -0.925453,4.983212 -0.454995,0.946154 -0.711887,1.139019 -0.711887,1.139019 a 1.9365272,1.9365272 0 1 0 2.562794,2.84755 c 0,0 0.929488,-0.87726 1.637341,-2.349229 0.707853,-1.471968 1.383667,-3.672283 1.352586,-6.69174 -0.03121,-3.032677 -0.721711,-5.201762 -1.423775,-6.620553 -0.702064,-1.41879 -1.637341,-2.20685 -1.637341,-2.20685 a 1.9365272,1.9365272 0 0 0 -1.210208,-0.498323 z"
     id="path-main" />
</defs>
<acyl-settings>
<linearGradient
     id="linearGradient4321">
    <stop
       style="stop-color:#FFFFFF;stop-opacity:1.0;"
       offset="1.0"
       id="stop1" />
  </linearGradient>
<linearGradient
     inkscape:collect="always"
     xlink:href="#linearGradient4321"
     id="acyl_gradient"
     x1="50.0%"
     y1="0.0%"
     x2="50.0%"
     y2="100.0%" />
<filter>
    </filter>
<use id="1" style="fill:url(#acyl_gradient);filter:url(#filter1111)" xlink:href="#path-main" />
</acyl-settings>
</svg>
