<svg xmlns="http://www.w3.org/2000/svg" width="48" height="48">
<defs>
  <path
     d="m 22.53125,2 c -2.37071,0.3374671 -3.610094,2.9839103 -3.31107,5.1868556 0.01536,2.5835867 0.04677,5.1670504 0.06107,7.7506444 -1.1439,-1.175268 -2.329098,-2.765902 -4.181344,-2.57125 -2.336133,0.03988 -4.238907,2.530882 -3.446102,4.780127 0.756956,1.806095 2.410937,2.938898 3.679287,4.351958 0.816053,0.823472 1.632106,1.646943 2.448159,2.470415 -1.823166,1.896801 -3.819122,3.668932 -5.529734,5.648955 -1.532568,2.160503 0.139997,5.628137 2.810984,5.694795 1.793664,0.330368 3.249508,-1.214103 4.34375,-2.46875 0.0555,3.339823 -0.07304,6.69154 0.124781,10.024032 0.347928,2.227133 2.95252,3.794952 5.012269,2.856872 1.809185,-0.744572 2.77894,-2.573729 4.177946,-3.829009 2.138012,-2.334785 4.376335,-4.626685 6.422011,-7.014993 1.155384,-1.849331 0.185768,-4.198295 -1.425675,-5.416139 C 31.895055,27.622175 30.072527,25.779838 28.25,23.9375 30.482712,21.622529 32.816659,19.372475 34.96875,17 36.44722,15.081871 35.301358,12.512491 33.555529,11.229801 30.743831,8.3866665 28.013991,5.4550945 25.149273,2.6689697 24.403408,2.1172953 23.442653,1.9360692 22.53125,2 z m 0.125,1.28125 c 2.161964,-0.2033734 3.140596,2.1907958 4.614409,3.3334091 2.199842,2.3150278 4.520658,4.5377499 6.662028,6.8954659 1.162807,1.645313 -0.278556,3.294263 -1.514858,4.335618 -1.98324,2.040554 -3.989902,4.058312 -5.980329,6.091757 2.477573,2.430279 4.906258,4.958788 7.331105,7.408551 1.345851,1.544563 0.166359,3.429067 -1.159225,4.485948 -2.532343,2.703373 -5.032075,5.399403 -7.521172,8.073165 -1.057655,1.135512 -3.020435,1.060974 -3.862342,-0.313793 -0.905326,-1.575042 -0.338131,-3.513421 -0.52145,-5.247872 -0.0059,-2.300951 7.1e-5,-4.610879 -0.01692,-6.905999 -1.361456,-1.781974 -2.721701,1.707511 -4.051742,2.264375 -1.484442,1.069204 -3.676886,-0.227083 -3.665585,-2.014503 -0.02896,-1.831271 1.91717,-2.72931 2.917801,-4.02641 1.227056,-1.228537 2.450215,-2.460957 3.674526,-3.692212 -2.088159,-2.213903 -4.306204,-4.31179 -6.362436,-6.547615 -1.248538,-1.622379 0.466225,-4.073764 2.420755,-3.745092 1.668912,0.464599 2.545174,2.217444 3.847931,3.261457 0.324242,0.158343 1.118236,1.427923 1.09375,0.761318 0.0113,-3.926214 -0.0826,-7.8567877 -0.04704,-11.780021 0.127782,-1.1785814 0.858136,-2.4756041 2.140787,-2.637547 z m 1.71875,7.3125 c -0.0063,2.81255 0.03731,5.62495 0.03125,8.4375 1.384726,-1.375749 2.745627,-2.77518 4.125,-4.15625 C 27.168543,13.426241 25.722698,12.057229 24.375,10.59375 z M 25.65625,13.75 c 0.220097,0.437134 1.343872,0.86772 0.883891,1.309781 -0.610658,0.732099 -1.117004,1.217838 -0.868255,-0.216031 -0.0068,-0.364556 -0.01368,-0.729127 -0.01564,-1.09375 z m -1.125,15.21875 c 0,2.75 0,5.5 0,8.25 1.329056,-1.410302 2.674729,-2.804905 4,-4.21875 -1.337732,-1.339379 -2.65646,-2.697638 -4,-4.03125 z m 1.3125,3.15625 c 0.341005,0.435999 1.280953,0.85678 0.471244,1.322015 -0.600224,0.957548 -0.479357,0.04095 -0.471244,-0.582597 0,-0.246473 0,-0.492945 0,-0.739418 z"
     id="path-main" />
</defs>
<acyl-settings>
<linearGradient
     id="linearGradient4321">
    <stop
       style="stop-color:#FFFFFF;stop-opacity:1.0;"
       offset="1.0"
       id="stop1" />
  </linearGradient>
<linearGradient
     inkscape:collect="always"
     xlink:href="#linearGradient4321"
     id="acyl_gradient"
     x1="50.0%"
     y1="0.0%"
     x2="50.0%"
     y2="100.0%" />
<filter>
    </filter>
<use id="1" style="fill:url(#acyl_gradient);filter:url(#filter1111)" xlink:href="#path-main" />
</acyl-settings>
</svg>
