<svg xmlns="http://www.w3.org/2000/svg" width="48" height="48">
<defs>
<defs
   id="defs17">
</defs>	
<path
   d="m 30.854414,2 -25.0364574,0.028646 0,43.971354 36.1510414,0 0,-32.65625 L 30.854414,2 z m -1.317708,3.6666667 9.052083,9.4531253 0,27.213541 -29.3906241,0 0.028646,-36.6380205 20.3098961,-0.028646 z m -5.557292,6.2447913 c -0.680136,0 -1.23177,0.551636 -1.231771,1.231771 0,0.680137 0.551636,1.231771 1.231771,1.231771 0.680137,0 1.231771,-0.551634 1.231771,-1.231771 0,-0.680136 -0.551634,-1.231771 -1.231771,-1.231771 z m 9.940104,6.273438 c -0.05722,-0.0052 -0.113711,0.01094 -0.171875,0.02865 -0.01,0.0091 -0.01952,0.01868 -0.02865,0.02865 l -7.877605,3.179688 c -0.0463,0.01852 -0.07822,0.05567 -0.114583,0.08594 -0.420109,-0.512829 -1.062813,-0.830729 -1.776042,-0.830729 -1.262351,0 -2.291666,1.029316 -2.291666,2.291667 0,1.26235 1.029316,2.291667 2.291666,2.291667 0.148083,0 0.289366,-0.03031 0.429688,-0.05729 0.0168,0.05961 0.02481,0.117478 0.05729,0.171875 l 2.778645,4.927083 c 0.101732,0.257512 0.353809,0.442061 0.630209,0.458334 0.2764,0.01627 0.527608,-0.1286 0.658854,-0.372396 0.131245,-0.243795 0.108481,-0.55167 -0.05729,-0.773438 l -2.75,-4.927083 c -0.02507,-0.04989 -0.05131,-0.101825 -0.08594,-0.143229 0.39654,-0.411776 0.630208,-0.959968 0.630208,-1.575521 0,-0.241601 -0.04491,-0.468706 -0.114583,-0.6875 0.01955,-0.005 0.03805,0.0077 0.05729,0 l 7.877605,-3.208333 c 0.223289,-0.09636 0.341533,-0.344588 0.257812,-0.572917 -0.06279,-0.171247 -0.229366,-0.299626 -0.401042,-0.315104 z m -9.96875,3.4375 c 0.749049,0 1.346355,0.597304 1.346355,1.346354 0,0.749049 -0.597305,1.346354 -1.346355,1.346354 -0.74905,0 -1.346354,-0.597304 -1.346354,-1.346354 0,-0.749051 0.597305,-1.346354 1.346354,-1.346354 z m -9.82552,0.143229 c -0.680137,0 -1.231771,0.551634 -1.231771,1.231771 0,0.680136 0.551634,1.23177 1.231771,1.231771 0.680136,0 1.231771,-0.551636 1.231771,-1.231771 0,-0.680137 -0.551636,-1.231771 -1.231771,-1.231771 z m 19.708333,0 c -0.680136,0 -1.231772,0.551634 -1.231771,1.231771 0,0.680136 0.551634,1.23177 1.231771,1.231771 0.680136,0 1.231773,-0.551636 1.231771,-1.231771 0,-0.680137 -0.551636,-1.231771 -1.231771,-1.231771 z m -9.854167,9.854167 c -0.680136,0 -1.23177,0.551635 -1.231771,1.23177 0,0.680137 0.551636,1.231771 1.231771,1.231771 0.680137,0 1.231771,-0.551634 1.231771,-1.231771 0,-0.680136 -0.551634,-1.231769 -1.231771,-1.23177 z"
   id="path-main"
    /></defs>
<acyl-settings>
<linearGradient
     id="linearGradient4321">
    <stop
       style="stop-color:#FFFFFF;stop-opacity:1.0;"
       offset="1.0"
       id="stop1" />
  </linearGradient>
<linearGradient
     inkscape:collect="always"
     xlink:href="#linearGradient4321"
     id="acyl_gradient"
     x1="50.0%"
     y1="0.0%"
     x2="50.0%"
     y2="100.0%" />
<filter>
    </filter>
<use id="1" style="fill:url(#acyl_gradient);filter:url(#filter1111)" xlink:href="#path-main" />
</acyl-settings>
</svg>
