<svg xmlns="http://www.w3.org/2000/svg" width="48" height="48">
<defs>
<defs
     id="defs3" />
  <g
     id="layer1">
    <g
       transform="translate(-53.99282,-31.64138)"
       id="g4438" />
    <path
       d="M 12.5,3.3125 C 11.703454,3.3285898 11.014671,3.7414261 10.59375,4.25 C 10.172829,4.7585739 9.9395057,5.3439734 9.9375,5.96875 L 9.90625,7 L 6.34375,7 C 3.9462961,7 2,8.9462958 2,11.34375 L 2,41.40625 C 2,43.780141 3.9145179,45.74379 6.28125,45.78125 C 6.3047189,45.781621 6.3201711,45.78125 6.34375,45.78125 L 25.5625,45.78125 C 27.959955,45.78125 29.9375,43.803704 29.9375,41.40625 L 29.9375,37.78125 C 30.19489,37.931268 30.457723,38.058845 30.71875,38.1875 C 32.72268,39.175194 34.397785,39.421017 34.71875,39.46875 L 34.71875,46.21875 L 34.71875,46.8125 L 35.125,46.8125 L 38.3125,46.8125 L 38.78125,46.8125 L 38.78125,46.21875 L 38.78125,39.59375 C 39.128397,39.541566 40.763758,39.291475 42.75,38.3125 C 43.844311,37.773142 44.920458,37.00976 45.78125,35.96875 C 46.642042,34.92774 47.28125,33.537979 47.28125,31.8125 C 47.281249,25.708812 47.28125,25.6875 47.28125,25.6875 L 47.28125,25.125 L 46.875,25.125 L 44.40625,25.125 L 44.40625,19.6875 C 44.406249,16.964174 40.875,16.965085 40.875,19.6875 L 40.875,25.125 L 32.375,25.125 L 32.375,19.625 C 32.375,18.950485 32.097351,18.397208 31.75,18.09375 C 31.402648,17.790292 31.000581,17.649223 30.59375,17.65625 C 30.368266,17.660145 30.150505,17.697433 29.9375,17.78125 L 29.9375,11.34375 C 29.9375,8.9462958 27.959954,7 25.5625,7 L 22.15625,7 L 22.15625,5.875 L 22.15625,5.84375 C 22.116993,4.5077703 21.061219,3.3327522 19.65625,3.34375 L 12.5,3.3125 z M 12.53125,5.3125 L 19.65625,5.34375 C 19.891065,5.3419119 20.147701,5.6153267 20.15625,5.90625 L 20.15625,8 L 20.15625,9 L 21.15625,9 L 25.5625,9 C 26.886548,9 27.9375,10.019702 27.9375,11.34375 L 27.9375,25.125 L 26.59375,25.125 L 26.1875,25.125 L 26.1875,25.6875 C 26.187499,25.690263 26.1875,25.720662 26.1875,31.71875 C 26.187501,33.444228 26.795453,34.86524 27.65625,35.90625 C 27.742287,36.0103 27.847128,36.089952 27.9375,36.1875 L 27.9375,41.40625 C 27.9375,42.730298 26.886549,43.78125 25.5625,43.78125 L 6.34375,43.78125 C 6.3307529,43.78125 6.3254631,43.781455 6.3125,43.78125 C 5.0086423,43.760613 4,42.717285 4,41.40625 L 4,11.34375 C 4,10.019702 5.0197019,9 6.34375,9 L 10.90625,9 L 11.90625,9 L 11.90625,8 L 11.9375,6 L 11.9375,5.96875 C 11.937856,5.8577204 12.013407,5.6660815 12.125,5.53125 C 12.236593,5.3964185 12.340009,5.3163629 12.53125,5.3125 z M 6,21 L 6,24 L 26,24 L 26,21 L 6,21 z M 6,26 L 6,33 L 26,33 L 26,26 L 6,26 z M 26.0625,34.9375 L 6.03125,35 L 6.03125,39.9375 C 6.03125,41.402005 6.7017501,42.000001 8.125,42 L 24,42.03125 C 25.331072,42.03125 26.0625,41.315024 26.0625,40 L 26.0625,34.9375 z"
       id="path-main"
        />
    <g
       transform="matrix(0,-1.7024768,1.1879061,0,-77.607103,27.557583)"
       id="Layer_x0020_3"
       style="opacity:0.98999999;fill:url(#acyl_gradient);filter:url(#filter1111);fill-opacity:1;fill-rule:nonzero;stroke:#91cbff;stroke-width:0.703183;stroke-miterlimit:4;stroke-opacity:1">
      <g
         id="g5"
         style="fill:url(#acyl_gradient);filter:url(#filter1111);fill-opacity:1;stroke:#91cbff;stroke-opacity:1">
        <g
           id="g7"
           style="fill:url(#acyl_gradient);filter:url(#filter1111);fill-opacity:1;stroke:#91cbff;stroke-opacity:1">
          <g
             id="g9"
             style="fill:url(#acyl_gradient);filter:url(#filter1111);fill-opacity:1;stroke:#91cbff;stroke-opacity:1" />
          <g
             id="g15"
             style="fill:url(#acyl_gradient);filter:url(#filter1111);fill-opacity:1;stroke:#91cbff;stroke-width:4.57539988;stroke-linejoin:round;stroke-opacity:1" />
        </g>
        <g
           id="g21"
           style="fill:url(#acyl_gradient);filter:url(#filter1111);fill-opacity:1;stroke:#91cbff;stroke-opacity:1" />
      </g>
    </g>
  </g>
  <g
     id="layer2" />
</defs>
<acyl-settings>
<linearGradient
     id="linearGradient4321">
    <stop
       style="stop-color:#FFFFFF;stop-opacity:1.0;"
       offset="1.0"
       id="stop1" />
  </linearGradient>
<linearGradient
     inkscape:collect="always"
     xlink:href="#linearGradient4321"
     id="acyl_gradient"
     x1="50.0%"
     y1="0.0%"
     x2="50.0%"
     y2="100.0%" />
<filter>
    </filter>
<use id="1" style="fill:url(#acyl_gradient);filter:url(#filter1111)" xlink:href="#path-main" />
</acyl-settings>
</svg>
