<svg xmlns="http://www.w3.org/2000/svg" width="48" height="48">
<defs>
<defs
     id="defs3" />
  <g
     id="layer1">
    <path
       d="M 25.03125,3.3125 C 24.028671,3.342626 23.0625,4.2002052 23.0625,5.53125 L 23.0625,10.28125 C 20.727555,10.682883 18.592829,11.628114 16.78125,13 L 13.34375,9.5625 C 12.26042,8.4791705 10.91712,8.4421436 10.1875,9.1875 C 9.4578797,9.9328564 9.4983659,11.279616 10.5625,12.34375 L 14,15.78125 C 12.623663,17.584424 11.687398,19.706666 11.28125,22.03125 L 6.53125,22.03125 C 5.7537996,22.03125 5.1204834,22.250959 4.6875,22.625 C 4.2545166,22.999041 4.0389747,23.512536 4.0625,24.03125 C 4.1095505,25.068678 5.0911971,26 6.53125,26 L 11.15625,26 C 11.414425,28.461395 12.257628,30.746936 13.59375,32.6875 L 10.5625,35.71875 C 10.040615,36.240635 9.7458526,36.81736 9.71875,37.375 C 9.6916474,37.93264 9.9403157,38.431612 10.3125,38.78125 C 11.056869,39.480526 12.354682,39.489068 13.34375,38.5 L 16.25,35.59375 C 18.168162,37.189538 20.500996,38.283873 23.0625,38.71875 L 23.0625,42.53125 C 23.0625,44.046199 23.987894,45.030475 25.03125,45.03125 C 26.074606,45.032025 27.03125,44.048093 27.03125,42.53125 L 27.03125,38.875 C 29.724372,38.585055 32.174884,37.558015 34.21875,36 L 36.71875,38.5 C 37.626725,39.489562 38.948874,39.444639 39.6875,38.75 C 40.059839,38.399834 40.28667,37.898875 40.28125,37.34375 C 40.27583,36.788625 40.020602,36.182072 39.5,35.6875 L 37,33.21875 C 38.563217,31.162289 39.561359,28.702956 39.84375,26 L 43.53125,26 C 44.794304,26 45.611338,25.018784 45.65625,24.03125 C 45.678706,23.537483 45.52675,23.042438 45.15625,22.65625 C 44.78575,22.270062 44.215897,22.03125 43.53125,22.03125 L 39.71875,22.03125 C 39.280315,19.481654 38.182703,17.160244 36.59375,15.25 L 39.5,12.34375 L 39.53125,12.34375 C 40.458372,11.313614 40.375089,10.01707 39.65625,9.34375 C 38.937411,8.6704301 37.669007,8.6337845 36.71875,9.53125 L 36.71875,9.5625 L 33.6875,12.59375 C 31.755254,11.26369 29.480725,10.418407 27.03125,10.15625 L 27.03125,5.53125 C 27.03125,4.8295735 26.817929,4.2639805 26.4375,3.875 C 26.057071,3.4860195 25.53254,3.297437 25.03125,3.3125 z M 25.0625,4.3125 C 25.303398,4.3052614 25.542538,4.3823271 25.71875,4.5625 C 25.894962,4.7426729 26.03125,5.0388656 26.03125,5.53125 L 26.03125,10.5625 L 26.03125,11.03125 L 26.5,11.0625 C 29.098886,11.253856 31.452601,12.169714 33.4375,13.625 L 33.8125,13.875 L 34.09375,13.5625 L 37.40625,10.25 C 38.046983,9.6448636 38.640714,9.7864862 38.96875,10.09375 C 39.296786,10.401014 39.445118,10.918619 38.78125,11.65625 L 35.625,14.84375 L 35.28125,15.15625 L 35.59375,15.53125 C 37.317863,17.466987 38.46587,19.896677 38.84375,22.59375 L 38.90625,23.03125 L 39.34375,23.03125 L 43.53125,23.03125 C 43.999046,23.03125 44.273971,23.173297 44.4375,23.34375 C 44.601029,23.514203 44.667548,23.751579 44.65625,24 C 44.633654,24.496841 44.303049,25 43.53125,25 L 39.4375,25 L 38.96875,25 L 38.9375,25.46875 C 38.736023,28.307936 37.656239,30.881098 35.96875,32.96875 L 35.6875,33.3125 L 36.03125,33.625 L 38.8125,36.40625 L 38.8125,36.4375 C 39.175782,36.782618 39.278738,37.086452 39.28125,37.34375 C 39.283762,37.601048 39.184244,37.826728 39,38 C 38.631512,38.346544 38.031676,38.476579 37.4375,37.8125 L 37.40625,37.8125 L 34.625,35.03125 L 34.3125,34.6875 L 33.96875,34.96875 C 31.890217,36.650343 29.321296,37.763341 26.5,37.96875 L 26.03125,38 L 26.03125,38.46875 L 26.03125,42.53125 C 26.03125,43.671943 25.503519,44.031578 25.0625,44.03125 C 24.621481,44.030922 24.0625,43.669424 24.0625,42.53125 L 24.0625,38.34375 L 24.0625,37.90625 L 23.625,37.84375 C 20.915918,37.470151 18.473587,36.32374 16.53125,34.59375 L 16.15625,34.28125 L 15.84375,34.625 L 12.65625,37.8125 C 11.963615,38.505135 11.335206,38.377399 11,38.0625 C 10.832397,37.90505 10.736993,37.673876 10.75,37.40625 C 10.763007,37.138624 10.865635,36.790615 11.25,36.40625 L 14.5625,33.09375 L 14.875,32.8125 L 14.625,32.4375 C 13.164354,30.445289 12.248907,28.079396 12.0625,25.46875 L 12.03125,25 L 11.5625,25 L 6.53125,25 C 5.4948513,25 5.0827704,24.446947 5.0625,24 C 5.0523648,23.776527 5.1323751,23.5576 5.34375,23.375 C 5.5551249,23.1924 5.9358328,23.03125 6.53125,23.03125 L 11.65625,23.03125 L 12.09375,23.03125 L 12.15625,22.59375 C 12.507535,20.123554 13.529806,17.88006 15.03125,16.03125 L 15.3125,15.6875 L 14.96875,15.375 L 11.25,11.65625 C 10.453841,10.86009 10.600164,10.218937 10.90625,9.90625 C 11.212336,9.5935627 11.834611,9.4283607 12.65625,10.25 L 16.375,13.96875 L 16.6875,14.3125 L 17.03125,14.03125 C 18.89022,12.53511 21.149563,11.500504 23.625,11.15625 L 24.0625,11.09375 L 24.0625,10.65625 L 24.0625,5.53125 C 24.0625,4.6525861 24.580704,4.3269772 25.0625,4.3125 z"
       id="path-main"
        />
    <g
       transform="translate(66.28739,-2.97788)"
       id="layer2" />
  </g>
</defs>
<acyl-settings>
<linearGradient
     id="linearGradient4321">
    <stop
       style="stop-color:#FFFFFF;stop-opacity:1.0;"
       offset="1.0"
       id="stop1" />
  </linearGradient>
<linearGradient
     inkscape:collect="always"
     xlink:href="#linearGradient4321"
     id="acyl_gradient"
     x1="50.0%"
     y1="0.0%"
     x2="50.0%"
     y2="100.0%" />
<filter>
    </filter>
<use id="1" style="fill:url(#acyl_gradient);filter:url(#filter1111)" xlink:href="#path-main" />
</acyl-settings>
</svg>
