<svg xmlns="http://www.w3.org/2000/svg" width="48" height="48">
<defs>
  <path
     d="M 21.375,2 C 18.051262,2 15.039221,2.970585 12.78125,4.6640625 10.523279,6.35754 9,8.8477723 9,11.625 l 0,24.75 c 0,2.777228 1.523279,5.26746 3.78125,6.960937 C 15.039221,45.029415 18.051262,46 21.375,46 l 5.5,0 c 3.323738,0 6.33578,-0.970585 8.59375,-2.664063 C 37.72672,41.64246 39.25,39.152228 39.25,36.375 l 0,-24.75 C 39.25,8.8477723 37.72672,6.35754 35.46875,4.6640625 33.21078,2.970585 30.198738,2 26.875,2 l -5.5,0 z m 0,2.75 1.460937,0 0,9.625 a 1.3751374,1.3751374 0 1 0 2.75,0 l 0,-9.625 1.289063,0 c 2.770262,0 5.242407,0.85954 6.960937,2.1484375 C 35.554467,8.187335 36.5,9.8317277 36.5,11.625 l 0,11.859375 c -0.331075,-1.626158 -1.710723,-2.835938 -3.4375,-2.835938 l -17.875,0 c -1.726776,0 -3.106424,1.20978 -3.4375,2.835938 l 0,-11.859375 c 0,-1.7932723 0.945533,-3.437665 2.664063,-4.7265625 C 16.132592,5.60954 18.604738,4.75 21.375,4.75 z"
     id="path-main" />
</defs>
<acyl-settings>
<linearGradient
     id="linearGradient4321">
    <stop
       style="stop-color:#FFFFFF;stop-opacity:1.0;"
       offset="1.0"
       id="stop1" />
  </linearGradient>
<linearGradient
     inkscape:collect="always"
     xlink:href="#linearGradient4321"
     id="acyl_gradient"
     x1="50.0%"
     y1="0.0%"
     x2="50.0%"
     y2="100.0%" />
<filter>
    </filter>
<use id="1" style="fill:url(#acyl_gradient);filter:url(#filter1111)" xlink:href="#path-main" />
</acyl-settings>
</svg>
