<svg xmlns="http://www.w3.org/2000/svg" width="48" height="48">
<defs>
<defs
     id="defs3">
  </defs>
  <path
     d="m 36.489583,1.46875 c -3.369702,0 -6.454396,1.4802163 -8.679687,3.90625 -0.138626,0.1169792 -0.207492,0.3127986 -0.171875,0.5 0.03562,0.1872012 0.173901,0.3278675 0.34375,0.375 0.16985,0.047132 0.34505,-0.010368 0.458333,-0.15625 2.059266,-2.2450323 4.9275,-3.625 8.049479,-3.625 3.121978,0 5.961569,1.3799678 8.020834,3.625 C 44.6237,6.2396323 44.7989,6.2971325 44.96875,6.25 45.138597,6.202867 45.276883,6.0622013 45.3125,5.875 45.348112,5.6877985 45.279252,5.4919792 45.140625,5.375 42.915335,2.948966 39.859285,1.46875 36.489583,1.46875 z M 11.625,2.03125 C 10.894397,2.0473099 10.264324,2.4602781 9.8776042,2.96875 9.4908841,3.4772219 9.3065324,4.0620886 9.3046875,4.6875 l -0.028646,1.03125 -3.265625,0 C 3.8097488,5.71875 2,7.6949697 2,10.09375 L 2,40.125 c 0,2.375204 1.7520156,4.337586 3.9244792,4.375 0.021543,3.71e-4 0.064305,0 0.085938,0 l 17.6458328,0 c 2.200669,0 4.010416,-1.97622 4.010417,-4.375 l 0,-1.21875 c 0,3.148342 2.327559,5.6875 5.213541,5.6875 l 7.90625,0 C 43.67244,44.593748 46,42.054592 46,38.90625 l 0,-12.9375 -18.333333,0 0,-1.375 8.45052,0 0,-10 -3.236979,0 c -2.885982,0 -5.213541,2.539156 -5.213541,5.6875 l 0,-10.1875 c 0,-2.39878 -1.809748,-4.3749998 -4.010417,-4.375 l -3.122396,0 0,-1.125 0,-0.03125 c -0.03611,-1.3372671 -1.031888,-2.5109755 -2.320312,-2.5 l -6.559896,-0.03125 -0.02865,0 z m 0.05729,2 6.53125,0.03125 0.02865,0 C 18.460614,4.06064 18.6927,4.3353651 18.700521,4.625 l 0,2.09375 0,1 0.916666,0 4.039063,0 c 1.219139,1e-7 2.177083,1.052278 2.177083,2.375 l 0,30.03125 c -1e-6,1.322722 -0.957944,2.375 -2.177083,2.375 l -17.6458333,0 c -0.011978,0 -0.045356,2.05e-4 -0.057292,0 C 4.7525674,42.47932 3.833333,41.434722 3.833333,40.125 l 0,-30.03125 c 0,-1.3227224 0.957946,-2.375 2.1770834,-2.375 l 4.1822916,0 0.888021,0 0.02865,-0.96875 0.02865,-2.03125 C 11.138347,4.6083545 11.207271,4.3849336 11.309896,4.25 11.41252,4.1150664 11.505186,4.0351431 11.682292,4.03125 z m 24.807291,1.5 c -2.343932,2e-6 -4.496732,1.0302313 -6.044271,2.71875 -0.181937,0.1984773 -0.181937,0.5202727 0,0.71875 0.181938,0.1984773 0.476917,0.1984773 0.658855,0 1.382199,-1.5081173 3.290403,-2.4374982 5.385416,-2.4375 2.095013,0 3.974573,0.9293814 5.356771,2.4375 0.181937,0.1984774 0.476917,0.1984774 0.658854,0 0.181938,-0.1984773 0.181938,-0.5202727 0,-0.71875 C 40.957671,6.5614792 38.833515,5.53125 36.489583,5.53125 z m 0,4.0625 c -1.322006,2.4e-6 -2.53851,0.613012 -3.408854,1.5625 -0.133725,0.123582 -0.186434,0.314709 -0.143229,0.5 0.0432,0.18529 0.172149,0.336145 0.34375,0.375 0.1716,0.03885 0.351103,-0.03627 0.458333,-0.1875 0.708818,-0.773274 1.679359,-1.249998 2.75,-1.25 1.070638,0 2.012536,0.476726 2.721354,1.25 0.107231,0.151228 0.286732,0.226355 0.458334,0.1875 0.171603,-0.03885 0.300545,-0.18971 0.34375,-0.375 0.0432,-0.185291 -0.0095,-0.376418 -0.143229,-0.5 -0.870345,-0.949488 -2.058203,-1.5625 -3.380209,-1.5625 z m 0.888021,5 0,10 8.622396,0 0,-4.3125 c 0,-3.148344 -2.32756,-5.6875 -5.213542,-5.6875 l -3.408854,0 z M 5.6666667,28.4375 l 0,3.28125 18.3333333,0 0,-3.28125 -18.3333333,0 z m 18.3906253,5.21875 -18.3619795,0.0625 0,4.9375 c 0,1.464505 0.6146251,2.062501 1.9192708,2.0625 L 22.166667,40.75 c 1.220149,0 1.890625,-0.716226 1.890625,-2.03125 l 0,-5.0625 z"
     id="path-main"
      />
  <g
     id="layer2" />
</defs>
<acyl-settings>
<linearGradient
     id="linearGradient4321">
    <stop
       style="stop-color:#FFFFFF;stop-opacity:1.0;"
       offset="1.0"
       id="stop1" />
  </linearGradient>
<linearGradient
     inkscape:collect="always"
     xlink:href="#linearGradient4321"
     id="acyl_gradient"
     x1="50.0%"
     y1="0.0%"
     x2="50.0%"
     y2="100.0%" />
<filter>
    </filter>
<use id="1" style="fill:url(#acyl_gradient);filter:url(#filter1111)" xlink:href="#path-main" />
</acyl-settings>
</svg>
