<svg xmlns="http://www.w3.org/2000/svg" width="48" height="48">
<defs>
  <path
     d="m 12.231142,3.6828643 c -0.77615,0.015713 -1.447296,0.4188732 -1.85744,0.9155273 C 9.9635595,5.0950458 9.7362104,5.6972427 9.734256,6.3073761 l -0.03045,0.9765625 -3.4712803,0 C 3.8964602,7.2839386 1.9999999,9.2151358 2,11.5564 l 0,29.327393 c 0,2.318253 1.8654945,4.235881 4.1716264,4.272461 0.022868,3.62e-4 0.037865,2e-6 0.060899,0 l 18.7266446,0 c 2.336067,0 4.262976,-1.931196 4.262976,-4.272461 l 0,-29.327393 c 0,-2.341264 -1.92691,-4.2724612 -4.262976,-4.2724614 l -3.319031,0 0,-1.0986329 0,-0.030518 C 21.601887,4.8501205 20.573147,3.7331597 19.204153,3.7438994 l -6.973011,-0.061035 z m 0.03045,1.953125 6.942561,0.061035 c 0.228802,-0.0018 0.478867,0.234694 0.487197,0.5187988 l 0,2.0446778 0,0.9765625 0.974395,0 4.293425,0 c 1.290146,10e-8 2.314187,1.0263206 2.314187,2.3193366 l 0,29.327393 c 0,1.293017 -1.024041,2.319336 -2.314187,2.319336 l -18.7266441,0 c -0.012605,1e-6 -0.017818,2e-4 -0.03045,0 C 4.9316039,43.182973 3.9487874,42.1641 3.9487874,40.883793 l 0,-29.327393 c 1.3e-6,-1.293016 0.9935933,-2.3193364 2.2837385,-2.3193364 l 4.4456751,0 0.974394,0 0,-0.9460449 0.03045,-1.9836426 c 3.47e-4,-0.1084274 0.07396,-0.3260922 0.182699,-0.4577637 0.108736,-0.1316715 0.209503,-0.2098507 0.395848,-0.2136231 z m 19.640139,0 c -0.883236,0 -1.583391,0.7463999 -1.583391,1.6784669 l 0,35.9802258 c 0,0.932066 0.700156,1.708985 1.583391,1.708984 l 12.514879,0 c 0.883236,0 1.583389,-0.776917 1.583391,-1.708984 l 0,-35.9802258 c 0,-0.9320667 -0.700156,-1.6784669 -1.583391,-1.6784669 l -12.514879,0 z m 11.601385,13.9770507 -4.932872,5.371094 2.770935,2.563477 -8.89135,5.096436 5.694117,-5.096436 -2.588235,-2.319336 7.947405,-5.615235 z m -17.56955,14.465333 -0.487197,0.03052 -19.5183405,0.06104 -0.4871972,0 0,0.488281 0,4.821777 c 0,0.791276 0.2045102,1.450058 0.6698963,1.89209 0.4653859,0.442032 1.0965062,0.610351 1.8574394,0.610352 l 15.468512,0 c 0.73322,0 1.372884,-0.202403 1.82699,-0.640869 0.454106,-0.438467 0.669897,-1.067125 0.669897,-1.800538 l 0,-4.943847 0,-0.518799 z m -0.974395,1.00708 0,4.455566 c 0,0.550792 -0.135831,0.876972 -0.365398,1.098633 -0.229567,0.221661 -0.593323,0.366211 -1.157094,0.366211 l -15.468512,0 c -0.6258746,0 -0.9722499,-0.131203 -1.1875442,-0.335693 -0.2152944,-0.20449 -0.365398,-0.55128 -0.365398,-1.190186 l 0,-4.333496 18.5439452,-0.06103 z"
     id="path-main"
      />
</defs>
<acyl-settings>
<linearGradient
     id="linearGradient4321">
    <stop
       style="stop-color:#FFFFFF;stop-opacity:1.0;"
       offset="1.0"
       id="stop1" />
  </linearGradient>
<linearGradient
     inkscape:collect="always"
     xlink:href="#linearGradient4321"
     id="acyl_gradient"
     x1="50.0%"
     y1="0.0%"
     x2="50.0%"
     y2="100.0%" />
<filter>
    </filter>
<use id="1" style="fill:url(#acyl_gradient);filter:url(#filter1111)" xlink:href="#path-main" />
</acyl-settings>
</svg>
