<svg xmlns="http://www.w3.org/2000/svg" width="48" height="48">
<defs>
<defs
     id="defs3" />
  <g
     id="layer1">
    <path
       d="M 25.0625,3.3125 C 24.062596,3.3425456 23.0625,4.1954434 23.0625,5.53125 L 23.0625,10.28125 C 20.727555,10.682883 18.592829,11.628114 16.78125,13 L 13.34375,9.5625 C 12.26042,8.4791705 10.91712,8.4421436 10.1875,9.1875 C 9.4578797,9.9328564 9.4983659,11.279616 10.5625,12.34375 L 14,15.78125 C 12.623663,17.584424 11.687398,19.706666 11.28125,22.03125 L 6.53125,22.03125 C 5.7537996,22.03125 5.1204834,22.250959 4.6875,22.625 C 4.2545166,22.999041 4.0389747,23.512536 4.0625,24.03125 C 4.1095505,25.068678 5.0911971,26 6.53125,26 L 11.15625,26 C 11.414425,28.461395 12.257628,30.746936 13.59375,32.6875 L 10.5625,35.71875 C 10.040615,36.240635 9.7458526,36.81736 9.71875,37.375 C 9.6916474,37.93264 9.9403157,38.431612 10.3125,38.78125 C 11.018735,39.444702 12.221235,39.467185 13.1875,38.625 L 12.21875,43.625 C 12.163409,43.914152 12.136432,44.279477 12.375,44.59375 C 12.613568,44.908023 13.006068,45 13.53125,45 L 44.0625,45 C 44.587679,45 45.011433,44.908022 45.25,44.59375 C 45.488567,44.279478 45.46159,43.914151 45.40625,43.625 L 43.03125,31.28125 C 42.993199,31.082456 43.035636,30.813887 42.84375,30.5 C 42.747807,30.343056 42.566625,30.22733 42.375,30.15625 C 42.183375,30.08517 41.981342,30.0625 41.71875,30.0625 L 38.875,30.0625 C 39.37491,28.793078 39.665524,27.410646 39.8125,26 L 43.53125,26 C 44.794304,26 45.611338,25.018784 45.65625,24.03125 C 45.678706,23.537483 45.52675,23.042438 45.15625,22.65625 C 44.78575,22.270062 44.215897,22.03125 43.53125,22.03125 L 39.71875,22.03125 C 39.280315,19.481654 38.182703,17.160244 36.59375,15.25 L 39.5,12.34375 L 39.53125,12.34375 C 40.458372,11.313614 40.375089,10.01707 39.65625,9.34375 C 38.937411,8.6704301 37.669007,8.6337845 36.71875,9.53125 L 36.71875,9.5625 L 33.6875,12.59375 C 31.755254,11.26369 29.480725,10.418407 27.03125,10.15625 L 27.03125,5.53125 C 27.03125,4.8317767 26.814364,4.2639542 26.4375,3.875 C 26.060636,3.4860458 25.562452,3.2974772 25.0625,3.3125 z M 25.0625,4.3125 C 25.304736,4.3052212 25.546786,4.385019 25.71875,4.5625 C 25.890714,4.739981 26.03125,5.0366625 26.03125,5.53125 L 26.03125,10.5625 L 26.03125,11.03125 L 26.5,11.0625 C 29.098886,11.253856 31.452601,12.169714 33.4375,13.625 L 33.8125,13.875 L 34.09375,13.5625 L 37.40625,10.25 C 38.046983,9.6448636 38.640714,9.7864862 38.96875,10.09375 C 39.296786,10.401014 39.445118,10.918619 38.78125,11.65625 L 35.625,14.84375 L 35.28125,15.15625 L 35.59375,15.53125 C 37.317863,17.466987 38.46587,19.896677 38.84375,22.59375 L 38.90625,23.03125 L 39.34375,23.03125 L 43.53125,23.03125 C 43.999046,23.03125 44.273971,23.173297 44.4375,23.34375 C 44.601029,23.514203 44.667548,23.751579 44.65625,24 C 44.633654,24.496841 44.303049,25 43.53125,25 L 39.4375,25 L 38.96875,25 L 38.9375,25.46875 C 38.823525,27.07487 38.369615,28.574295 37.75,29.96875 L 15.90625,29.96875 C 15.636533,29.96875 15.426127,29.983923 15.21875,30.0625 C 15.011373,30.141077 14.822837,30.29465 14.71875,30.46875 C 14.510575,30.816949 14.535659,31.094941 14.5,31.28125 L 14.375,31.96875 C 13.093503,30.068306 12.235493,27.891531 12.0625,25.46875 L 12.03125,25 L 11.5625,25 L 6.53125,25 C 5.4948513,25 5.0827704,24.446947 5.0625,24 C 5.0523648,23.776527 5.1323751,23.5576 5.34375,23.375 C 5.5551249,23.1924 5.9358328,23.03125 6.53125,23.03125 L 11.65625,23.03125 L 12.09375,23.03125 L 12.15625,22.59375 C 12.507535,20.123554 13.529806,17.88006 15.03125,16.03125 L 15.3125,15.6875 L 14.96875,15.375 L 11.25,11.65625 C 10.453841,10.86009 10.600164,10.218937 10.90625,9.90625 C 11.212336,9.5935627 11.834611,9.4283607 12.65625,10.25 L 16.375,13.96875 L 16.6875,14.3125 L 17.03125,14.03125 C 18.89022,12.53511 21.149563,11.500504 23.625,11.15625 L 24.0625,11.09375 L 24.0625,10.65625 L 24.0625,5.53125 C 24.0625,4.6573478 24.578028,4.3270576 25.0625,4.3125 z M 38.53125,30.875 L 41.71875,30.875 C 41.922171,30.875 42.042409,30.918456 42.09375,30.9375 C 42.145091,30.956544 42.122023,30.93263 42.125,30.9375 C 42.130235,30.946064 42.173878,31.134947 42.21875,31.375 C 42.190461,31.357211 42.158305,31.346492 42.125,31.34375 L 15.625,31.34375 C 15.614598,31.342967 15.604152,31.342967 15.59375,31.34375 C 15.571305,31.350571 15.550174,31.361137 15.53125,31.375 C 15.519754,31.384278 15.509278,31.394754 15.5,31.40625 C 15.542057,31.166153 15.572902,30.982602 15.5625,31 C 15.597476,30.986747 15.709955,30.96875 15.90625,30.96875 L 38.15625,30.96875 L 38.46875,30.96875 L 38.53125,30.875 z M 15.78125,31.78125 L 41.9375,31.78125 L 44.09375,43.375 L 13.5625,43.375 L 15.78125,31.78125 z M 16.4375,32.46875 L 15,39.84375 L 15.03125,39.84375 L 14.875,40.71875 L 14.84375,40.875 L 15,40.875 L 19.21875,40.875 L 19.4375,40.875 L 19.53125,40.875 L 31.65625,40.875 L 31.8125,40.875 L 31.78125,40.71875 L 31.4375,38.1875 L 31.40625,38.0625 L 31.375,37.9375 L 31.75,37.9375 L 32.21875,40.84375 L 32.21875,40.9375 L 32.34375,40.9375 L 37.34375,40.9375 L 37.5,40.9375 L 37.46875,40.78125 L 37.3125,39.90625 L 37.34375,39.90625 L 35.96875,32.46875 L 16.4375,32.46875 z M 41.25,32.59375 L 37.40625,32.71875 L 37.5,33.375 L 37.40625,33.375 L 37.25,33.375 L 37.28125,33.5 L 38.375,40.5 L 38.375,40.625 L 38.5,40.625 L 42.46875,40.75 L 42.625,40.75 L 42.59375,40.59375 L 41.375,33.34375 L 41.375,33.21875 L 41.34375,33.21875 L 41.25,32.59375 z M 14.03125,33.625 L 13.375,37.09375 L 12.65625,37.8125 C 11.963615,38.505135 11.335206,38.377399 11,38.0625 C 10.832397,37.90505 10.736993,37.673876 10.75,37.40625 C 10.763007,37.138624 10.865635,36.790615 11.25,36.40625 L 14.03125,33.625 z M 19.875,36.9375 L 31.90625,36.9375 L 32,37.6875 L 31.90625,37.6875 L 31.34375,37.6875 L 31.3125,37.4375 L 19.78125,37.5625 L 19.875,36.9375 z M 38.53125,39.71875 L 42.1875,39.84375 L 42.3125,40.5 L 38.625,40.375 L 38.53125,39.71875 z M 15.3125,39.84375 L 19.375,39.84375 L 19.375,40 L 19.25,40.625 L 15.15625,40.625 L 15.3125,39.84375 z M 32.34375,39.90625 L 37.03125,39.90625 L 37.1875,40.6875 L 32.46875,40.6875 L 32.34375,39.90625 z M 19.6875,40 L 31.40625,40 L 31.5,40.625 L 19.59375,40.625 L 19.6875,40 z M 44.53125,43.625 L 44.59375,43.78125 C 44.634064,43.991889 44.600851,44.084396 44.59375,44.09375 C 44.586649,44.103104 44.469337,44.1875 44.0625,44.1875 L 13.53125,44.1875 C 13.124408,44.1875 13.038351,44.103104 13.03125,44.09375 C 13.024149,44.084396 12.990935,43.991889 13.03125,43.78125 L 13.09375,43.65625 C 13.103028,43.667746 13.113504,43.678222 13.125,43.6875 C 13.152916,43.733793 13.197743,43.767413 13.25,43.78125 C 13.260402,43.782033 13.270848,43.782033 13.28125,43.78125 L 44.3125,43.78125 C 44.333215,43.784395 44.354285,43.784395 44.375,43.78125 C 44.385402,43.782033 44.395848,43.782033 44.40625,43.78125 C 44.431316,43.76513 44.45263,43.743816 44.46875,43.71875 C 44.480246,43.709472 44.490722,43.698996 44.5,43.6875 C 44.513863,43.668576 44.524429,43.647445 44.53125,43.625 z"
       id="path-main"
        />
    <g
       transform="translate(66.28739,-2.97788)"
       id="layer2" />
  </g>
</defs>
<acyl-settings>
<linearGradient
     id="linearGradient4321">
    <stop
       style="stop-color:#FFFFFF;stop-opacity:1.0;"
       offset="1.0"
       id="stop1" />
  </linearGradient>
<linearGradient
     inkscape:collect="always"
     xlink:href="#linearGradient4321"
     id="acyl_gradient"
     x1="50.0%"
     y1="0.0%"
     x2="50.0%"
     y2="100.0%" />
<filter>
    </filter>
<use id="1" style="fill:url(#acyl_gradient);filter:url(#filter1111)" xlink:href="#path-main" />
</acyl-settings>
</svg>
