<svg xmlns="http://www.w3.org/2000/svg" width="48" height="48">
<defs>
  <path
     id="path-main"
     d="m 21.8,7.5617978 0,6.6000002 -14.91875,0 c -2.7084446,0 -4.88125,1.9624 -4.88125,4.4 l 0,17.6 c 0,2.4376 2.1728056,4.4 4.88125,4.4 l 34.2375,0 c 2.708442,0 4.88125,-1.9624 4.88125,-4.4 l 0,-17.6 c 0,-2.4376 -2.172806,-4.4 -4.88125,-4.4 l -17.11875,0 0,-4.4000002 2.2,0 0,2.2000002 8.8,0 0,-2.2000002 c 0,0 -6.6,0 -6.6,0 l 0,-2.2 -6.6,0 z m -14.91875,8.8000002 34.2375,0 c 1.354219,0 2.40625,0.9812 2.40625,2.2 l 0,17.6 c 0,1.2188 -1.052029,2.2 -2.40625,2.2 l -34.2375,0 c -1.3542223,0 -2.40625,-0.9812 -2.40625,-2.2 l 0,-17.6 c -2e-7,-1.2188 1.0520279,-2.2 2.40625,-2.2 z m 2.81875,2.2 c -0.6094,0 -1.1,0.4906 -1.1,1.1 l 0,2.2 c 0,0.6094 0.4906,1.1 1.1,1.1 l 2.2,0 c 0.6094,0 1.1,-0.4906 1.1,-1.1 l 0,-2.2 c 0,-0.6094 -0.4906,-1.1 -1.1,-1.1 l -2.2,0 z m 6.6,0 c -0.6094,0 -1.1,0.4906 -1.1,1.1 l 0,2.2 c 0,0.6094 0.4906,1.1 1.1,1.1 l 2.2,0 c 0.6094,0 1.1,-0.4906 1.1,-1.1 l 0,-2.2 c 0,-0.6094 -0.4906,-1.1 -1.1,-1.1 l -2.2,0 z m 6.6,0 c -0.6094,0 -1.1,0.4906 -1.1,1.1 l 0,2.2 c 0,0.6094 0.4906,1.1 1.1,1.1 l 2.2,0 c 0.6094,0 1.1,-0.4906 1.1,-1.1 l 0,-2.2 c 0,-0.6094 -0.4906,-1.1 -1.1,-1.1 l -2.2,0 z m 6.6,0 c -0.6094,0 -1.1,0.4906 -1.1,1.1 l 0,2.2 c 0,0.6094 0.4906,1.1 1.1,1.1 l 2.2,0 c 0.6094,0 1.1,-0.4906 1.1,-1.1 l 0,-2.2 c 0,-0.6094 -0.4906,-1.1 -1.1,-1.1 l -2.2,0 z m 6.6,0 c -0.6094,0 -1.1,0.4906 -1.1,1.1 l 0,2.2 c 0,0.6094 0.4906,1.1 1.1,1.1 l 2.2,0 c 0.6094,0 1.1,-0.4906 1.1,-1.1 l 0,-2.2 c 0,-0.6094 -0.4906,-1.1 -1.1,-1.1 l -2.2,0 z m -26.4,6.6 c -0.6094,0 -1.1,0.4906 -1.1,1.1 l 0,2.2 c 0,0.6094 0.4906,1.1 1.1,1.1 l 2.2,0 c 0.6094,0 1.1,-0.4906 1.1,-1.1 l 0,-2.2 c 0,-0.6094 -0.4906,-1.1 -1.1,-1.1 l -2.2,0 z m 6.6,0 c -0.6094,0 -1.1,0.4906 -1.1,1.1 l 0,2.2 c 0,0.6094 0.4906,1.1 1.1,1.1 l 2.2,0 c 0.6094,0 1.1,-0.4906 1.1,-1.1 l 0,-2.2 c 0,-0.6094 -0.4906,-1.1 -1.1,-1.1 l -2.2,0 z m 6.6,0 c -0.6094,0 -1.1,0.4906 -1.1,1.1 l 0,2.2 c 0,0.6094 0.4906,1.1 1.1,1.1 l 2.2,0 c 0.6094,0 1.1,-0.4906 1.1,-1.1 l 0,-2.2 c 0,-0.6094 -0.4906,-1.1 -1.1,-1.1 l -2.2,0 z m 6.6,0 c -0.6094,0 -1.1,0.4906 -1.1,1.1 l 0,2.2 c 0,0.6094 0.4906,1.1 1.1,1.1 l 2.2,0 c 0.6094,0 1.1,-0.4906 1.1,-1.1 l 0,-2.2 c 0,-0.6094 -0.4906,-1.1 -1.1,-1.1 l -2.2,0 z m 6.6,0 c -0.6094,0 -1.1,0.4906 -1.1,1.1 l 0,2.2 c 0,0.6094 0.4906,1.1 1.1,1.1 l 2.2,0 c 0.6094,0 1.1,-0.4906 1.1,-1.1 l 0,-2.2 c 0,-0.6094 -0.4906,-1.1 -1.1,-1.1 l -2.2,0 z m -22,6.6 c -0.6094,0 -1.1,0.4906 -1.1,1.1 l 0,2.2 c 0,0.6094 0.4906,1.1 1.1,1.1 l 19.8,0 c 0.6094,0 1.1,-0.4906 1.1,-1.1 l 0,-2.2 c 0,-0.6094 -0.4906,-1.1 -1.1,-1.1 l -19.8,0 z" />
</defs>
<acyl-settings>
<linearGradient
     id="linearGradient4321">
    <stop
       style="stop-color:#FFFFFF;stop-opacity:1.0;"
       offset="1.0"
       id="stop1" />
  </linearGradient>
<linearGradient
     inkscape:collect="always"
     xlink:href="#linearGradient4321"
     id="acyl_gradient"
     x1="50.0%"
     y1="0.0%"
     x2="50.0%"
     y2="100.0%" />
<filter>
    </filter>
<use id="1" style="fill:url(#acyl_gradient);filter:url(#filter1111)" xlink:href="#path-main" />
</acyl-settings>
</svg>
