<svg xmlns="http://www.w3.org/2000/svg" width="48" height="48">
<defs>
  <path
     d="M 33.84375 3 L 33.28125 4.40625 L 30.6875 10.96875 L 23.59375 11.28125 L 22.09375 11.3125 L 23.25 12.28125 L 26.09375 14.65625 L 4.5625 14.71875 C 3.3775435 14.71875 2 16.204027 2 17.28125 L 2 35.3125 C 2 36.733845 3.5514495 38 4.84375 38 L 34.09375 38 C 35.644143 38 37 36.670194 37 35.3125 L 37 22.71875 L 39.53125 24.40625 L 40.75 25.21875 L 40.40625 23.78125 L 38.6875 16.90625 L 44.25 12.53125 L 45.375 11.59375 L 43.90625 11.53125 L 36.8125 11.03125 L 34.34375 4.40625 L 33.84375 3 z M 33.8125 6.21875 L 35.875 11.78125 L 36.03125 12.125 L 36.375 12.15625 L 42.375 12.53125 L 37.65625 16.28125 L 37.375 16.5 L 37.46875 16.84375 L 38.9375 22.59375 L 33.96875 19.3125 L 33.65625 19.125 L 33.34375 19.3125 L 28.28125 22.5 L 29.875 16.75 L 30 16.40625 L 29.71875 16.15625 L 25.15625 12.375 L 31.09375 12.125 L 31.46875 12.09375 L 31.625 11.75 L 33.8125 6.21875 z M 5.59375 17.15625 L 18.90625 30.46875 L 20.03125 30.46875 L 26.71875 23.78125 L 26.375 25.03125 L 27.65625 24.28125 L 31.34375 21.96875 L 26.78125 26.5625 L 32.8125 32.71875 L 31.46875 34.0625 L 25.34375 27.90625 L 20.90625 32.40625 L 18.09375 32.40625 L 13.65625 27.90625 L 7.53125 34.125 L 6.1875 32.71875 L 12.28125 26.5625 L 4.25 18.5 L 5.59375 17.15625 z "
     id="path-main" />
</defs>
<acyl-settings>
<linearGradient
     id="linearGradient4321">
    <stop
       style="stop-color:#FFFFFF;stop-opacity:1.0;"
       offset="1.0"
       id="stop1" />
  </linearGradient>
<linearGradient
     inkscape:collect="always"
     xlink:href="#linearGradient4321"
     id="acyl_gradient"
     x1="50.0%"
     y1="0.0%"
     x2="50.0%"
     y2="100.0%" />
<filter>
    </filter>
<use id="1" style="fill:url(#acyl_gradient);filter:url(#filter1111)" xlink:href="#path-main" />
</acyl-settings>
</svg>
