<svg xmlns="http://www.w3.org/2000/svg" width="48" height="48">
<defs>
<defs
     id="defs4">
  </defs>
  <path
     id="path-main"
     d="M 24.5,4 C 21.710437,4 20.155941,4.2383337 19.125,4.625 18.094059,5.0116663 17.624502,5.5622695 17.15625,6 l -0.3125,0.28125 C 16.80208,6.317984 16.77668,6.359862 16.75,6.40625 l -5.96875,0 C 9.8800043,6.4062501 9.09375,7.0980528 9.09375,8 l 0,5.53125 -2.9375,2.75 C 6.0534494,16.378509 5.9966731,16.514772 6,16.65625 l 0,2.40625 c -3.968e-4,0.0097 -1.738e-4,0.02139 0,0.03125 l 0,22 c 1e-7,1.048439 0.8578115,1.906254 1.90625,1.90625 l 33.1875,0 C 42.142188,43.000001 43,42.142187 43,41.09375 l 0,-22 c -10e-7,-0.01119 7.25e-4,-0.02024 0,-0.03125 l 0,-2.40625 c 0.0033,-0.141478 -0.05345,-0.277741 -0.15625,-0.375 l -2.9375,-2.75 0,-5.53125 c 0,-0.9019467 -0.786254,-1.59375 -1.6875,-1.59375 l -5.96875,0 C 32.22332,6.359862 32.19792,6.317984 32.15625,6.28125 L 31.84375,6 C 31.374119,5.5609817 30.908098,5.0113026 29.875,4.625 28.841902,4.2386974 27.278328,3.999999 24.5,4 z m 0,1 c 2.721672,-9e-7 4.158098,0.2476903 5,0.5625 0.415705,0.1554433 0.574507,0.4024771 0.8125,0.59375 l -11.65625,0 C 18.894515,5.9620728 19.049559,5.7197225 19.46875,5.5625 20.307133,5.2480549 21.76686,5 24.5,5 z m -13.71875,2.1875 27.4375,0 c 0.501592,0 0.875,0.3708877 0.875,0.8125 l 0,5.5625 C 39.04078,13.64281 38.99921,13.741248 39,13.84375 l 0,5.21875 c 1e-5,0.09934 0.04379,0.172182 0.09375,0.25 l 0,4.96875 0,0.03125 L 32.1875,30.65625 31.84375,30.25 C 31.373047,29.762902 30.911546,29.116561 29.875,28.6875 28.838454,28.25844 27.280133,27.999999 24.5,28 c -2.79136,0 -4.340599,0.258029 -5.375,0.6875 -1.034399,0.429472 -1.499377,1.076776 -1.96875,1.5625 l -0.34375,0.40625 -6.90625,-6.5625 0,-0.03125 0,-4.75 C 9.956207,19.23468 9.99999,19.16184 10,19.0625 l 0,-5.21875 c 8.02e-4,-0.103738 -0.035907,-0.197435 -0.09375,-0.28125 l 0,-5.5625 c 0,-0.4416118 0.37341,-0.8125 0.875,-0.8125 z M 13.5,9.59375 c -0.277,0 -0.5,0.2229998 -0.5,0.5 0,0.277 0.223,0.5 0.5,0.5 l 10,0 c 0.277,0 0.5,-0.223 0.5,-0.5 0,-0.277 -0.223,-0.5000002 -0.5,-0.5 l -10,0 z m 18,0 c -0.277,0 -0.5,0.2229998 -0.5,0.5 0,0.277 0.223,0.5 0.5,0.5 l 4,0 c 0.277,0 0.5,-0.223 0.5,-0.5 0,-0.277 -0.223,-0.5000002 -0.5,-0.5 l -4,0 z m -18,3 c -0.277,0 -0.5,0.223 -0.5,0.5 0,0.277 0.223,0.5 0.5,0.5 l 6,0 c 0.277,0 0.5,-0.223 0.5,-0.5 0,-0.277 -0.223,-0.5 -0.5,-0.5 l -6,0 z M 9,15 l 0,3.5625 -2,0 L 7,16.875 9,15 z m 31,0 2,1.875 0,1.6875 -2,0 L 40,15 z m -26.5,1.59375 c -0.277,0 -0.5,0.223 -0.5,0.5 0,0.277 0.223,0.5 0.5,0.5 l 22,0 c 0.277,0 0.5,-0.223 0.5,-0.5 0,-0.277 -0.223,-0.5 -0.5,-0.5 l -22,0 z m 0,2 c -0.277,0 -0.5,0.223001 -0.5,0.5 0,0.277 0.223,0.500001 0.5,0.5 l 22,0 c 0.277,0 0.5,-0.222999 0.5,-0.5 0,-0.277 -0.223,-0.5 -0.5,-0.5 l -22,0 z m -6.5,1 2.09375,0 0,3.6875 L 7,21.3125 7,19.59375 z m 32.90625,0 2.09375,0 0,2 -2.09375,1.9375 0,-3.9375 z m -26.40625,1 c -0.277,0 -0.5,0.223001 -0.5,0.5 0,0.277 0.223,0.500001 0.5,0.5 l 22,0 c 0.277,0 0.5,-0.222999 0.5,-0.5 0,-0.277 -0.223,-0.499999 -0.5,-0.5 l -22,0 z M 7,22 9.09375,24.09375 16.25,31.3125 7.21875,41.71875 l 9.9375,-10.4375 c 1.879446,-2.231697 4.672901,-2.198735 7.34375,-2.25 2.825503,-0.119945 5.299743,0.211801 7.34375,2.25 l 9.9375,10.4375 -9,-10.375 L 42,22.3125 42,41.09375 c 0,0.242637 -0.07527,0.465966 -0.21875,0.625 C 41.618115,41.899569 41.369624,42.000001 41.09375,42 L 7.90625,42 C 7.6303764,42.000001 7.3818848,41.899569 7.21875,41.71875 7.07527,41.559717 7,41.336388 7,41.09375 L 7,22 z m 6.5,0.59375 c -0.277,0 -0.5,0.223001 -0.5,0.5 0,0.277 0.223,0.500001 0.5,0.5 l 22,0 c 0.277,0 0.5,-0.222999 0.5,-0.5 0,-0.277 -0.223,-0.499999 -0.5,-0.5 l -22,0 z m 0,2 c -0.277,0 -0.5,0.223001 -0.5,0.5 0,0.277 0.223,0.500001 0.5,0.5 l 22,0 c 0.277,0 0.5,-0.222999 0.5,-0.5 0,-0.277 -0.223,-0.499999 -0.5,-0.5 l -22,0 z" />
</defs>
<acyl-settings>
<linearGradient
     id="linearGradient4321">
    <stop
       style="stop-color:#FFFFFF;stop-opacity:1.0;"
       offset="1.0"
       id="stop1" />
  </linearGradient>
<linearGradient
     inkscape:collect="always"
     xlink:href="#linearGradient4321"
     id="acyl_gradient"
     x1="50.0%"
     y1="0.0%"
     x2="50.0%"
     y2="100.0%" />
<filter>
    </filter>
<use id="1" style="fill:url(#acyl_gradient);filter:url(#filter1111)" xlink:href="#path-main" />
</acyl-settings>
</svg>
