<svg xmlns="http://www.w3.org/2000/svg" width="48" height="48">
<defs>
<defs
     id="defs7856" />
  <g
     id="layer1">
    <path
       d="M 13.5,14 C 10.488251,14 8,16.488251 8,19.5 L 8,28.5625 C 8,31.574249 10.488251,34.0625 13.5,34.0625 L 18.5,34.0625 C 18.776131,34.062472 18.999972,33.838631 19,33.5625 L 19,29.5625 C 18.999972,29.286369 18.776131,29.062528 18.5,29.0625 L 13.5,29.0625 C 13.143427,29.0625 13,28.919073 13,28.5625 L 13,19.5 C 13,19.143428 13.143428,19 13.5,19 L 34.5,19 C 34.856579,19 35,19.143425 35,19.5 L 35,28.5625 C 35,28.919072 34.856572,29.0625 34.5,29.0625 L 30,29.0625 L 30,26.5 C 29.997348,26.316058 29.893915,26.148426 29.730701,26.063555 C 29.567488,25.978684 29.370855,25.990282 29.21875,26.09375 L 22.21875,31.09375 C 22.087875,31.187679 22.010266,31.338907 22.010266,31.5 C 22.010266,31.661093 22.087875,31.812321 22.21875,31.90625 L 29.21875,36.90625 C 29.370855,37.009718 29.567488,37.021316 29.730701,36.936445 C 29.893915,36.851574 29.997348,36.683942 30,36.5 L 30,34.0625 L 34.5,34.0625 C 37.511749,34.0625 39.999998,31.574249 40,28.5625 L 40,19.5 C 40,16.488251 37.51175,14 34.5,14 L 13.5,14 z"
       id="path-main"
        />
  </g>
</defs>
<acyl-settings>
<linearGradient
     id="linearGradient4321">
    <stop
       style="stop-color:#FFFFFF;stop-opacity:1.0;"
       offset="1.0"
       id="stop1" />
  </linearGradient>
<linearGradient
     inkscape:collect="always"
     xlink:href="#linearGradient4321"
     id="acyl_gradient"
     x1="50.0%"
     y1="0.0%"
     x2="50.0%"
     y2="100.0%" />
<filter>
    </filter>
<use id="1" style="fill:url(#acyl_gradient);filter:url(#filter1111)" xlink:href="#path-main" />
</acyl-settings>
</svg>
