<svg xmlns="http://www.w3.org/2000/svg" width="48" height="48">
<defs>
  <path
     d="M 40 8 L 40 23 L 41.5 29 L 44.5 29 L 46 23 L 46 8 L 40 8 z M 34.25 14.65625 L 4.5625 14.71875 C 3.3775435 14.71875 2 16.204027 2 17.28125 L 2 35.3125 C 2 36.733845 3.5514495 38 4.84375 38 L 34.09375 38 C 35.644143 38 37 36.670194 37 35.3125 L 37 17.53125 C 37 16.023257 35.650004 14.65625 34.25 14.65625 z M 5.59375 17.15625 L 18.90625 30.46875 L 20.03125 30.46875 L 33.40625 17.15625 L 34.75 18.5 L 26.78125 26.5625 L 32.8125 32.71875 L 31.46875 34.0625 L 25.34375 27.90625 L 20.90625 32.40625 L 18.09375 32.40625 L 13.65625 27.90625 L 7.53125 34.125 L 6.1875 32.71875 L 12.28125 26.5625 L 4.25 18.5 L 5.59375 17.15625 z M 40 32 L 40 38 L 46 38 L 46 32 L 40 32 z "
     id="path-main" />
</defs>
<acyl-settings>
<linearGradient
     id="linearGradient4321">
    <stop
       style="stop-color:#FFFFFF;stop-opacity:1.0;"
       offset="1.0"
       id="stop1" />
  </linearGradient>
<linearGradient
     inkscape:collect="always"
     xlink:href="#linearGradient4321"
     id="acyl_gradient"
     x1="50.0%"
     y1="0.0%"
     x2="50.0%"
     y2="100.0%" />
<filter>
    </filter>
<use id="1" style="fill:url(#acyl_gradient);filter:url(#filter1111)" xlink:href="#path-main" />
</acyl-settings>
</svg>
