<svg xmlns="http://www.w3.org/2000/svg" width="48" height="48">
<defs>
  <path
     d="M 4.75,2 C 3.2265003,2 2,3.2265 2,4.75 l 0,27.5 C 2,33.7735 3.2264997,35 4.75,35 l 38.5,0 C 44.7735,35 46,33.7735 46,32.25 L 46,4.75 C 46,3.2265 44.7735,2 43.25,2 L 4.75,2 z m 4.125,5.5 30.25,0 c 0.76175,0 1.375,0.61325 1.375,1.375 l 0,19.25 c 0,0.76175 -0.61325,1.375 -1.375,1.375 l -30.25,0 C 8.11325,29.5 7.5,28.88675 7.5,28.125 l 0,-19.25 C 7.5,8.11325 8.11325,7.5 8.875,7.5 z M 24,11.625 c -4.387468,-0.06126 -7.438886,1.050767 -9.367188,2.234375 -1.928301,1.183608 -2.835937,2.578125 -2.835937,2.578125 -0.382472,0.629953 -0.114328,1.508152 0.515625,1.890625 0.629955,0.382473 1.508153,0.200255 1.890625,-0.429687 0,0 0.393968,-0.800088 1.890625,-1.71875 C 17.590407,15.261025 20.087303,14.320371 24,14.375 c 3.929654,0.05486 6.398733,0.990803 7.90625,1.890625 1.507517,0.899822 1.976562,1.632813 1.976562,1.632813 0.344815,0.711628 1.412337,0.965736 2.0625,0.515624 0.650161,-0.450111 0.716587,-1.489262 0.171875,-2.062499 0,0 -0.918494,-1.261747 -2.835937,-2.40625 C 31.363807,12.800809 28.370512,11.68602 24,11.625 z m 0,5.5 c -2.979166,0 -5.008864,0.78829 -6.273438,1.632812 -1.264572,0.844523 -1.804687,1.890625 -1.804687,1.890625 -0.508558,0.638075 -0.300117,1.6976 0.429687,2.0625 0.729806,0.364903 1.771239,-0.06968 1.976563,-0.859375 0,0 0.150983,-0.328897 0.945312,-0.859375 C 20.067767,20.46171 21.479166,19.875 24,19.875 c 2.511234,0 3.932701,0.650752 4.726562,1.203125 0.793862,0.552373 0.859375,0.859375 0.859375,0.859375 0.314941,0.652512 1.238141,1.002493 1.890625,0.6875 0.652487,-0.314993 0.916608,-1.238163 0.601563,-1.890625 0,0 -0.539649,-1.010408 -1.804688,-1.890625 C 29.008399,17.963533 26.988766,17.125 24,17.125 z m -0.429688,5.15625 c -1.355796,0 -2.492187,1.136391 -2.492187,2.492187 0,1.355797 1.136391,2.40625 2.492187,2.40625 1.355797,0 2.40625,-1.050453 2.40625,-2.40625 0,-1.355796 -1.050453,-2.492187 -2.40625,-2.492187 z M 18.5,37.75 c -1.5235,0 -2.75,1.2265 -2.75,2.75 l -2.75,0 c -1.5235,0 -2.75,1.2265 -2.75,2.75 0,1.5235 1.2265,2.75 2.75,2.75 l 5.5,0 11,0 5.5,0 c 1.5235,0 2.75,-1.2265 2.75,-2.75 0,-1.5235 -1.2265,-2.75 -2.75,-2.75 l -2.75,0 c 0,-1.5235 -1.2265,-2.75 -2.75,-2.75 l -11,0 z"
     id="path-main" />
</defs>
<acyl-settings>
<linearGradient
     id="linearGradient4321">
    <stop
       style="stop-color:#FFFFFF;stop-opacity:1.0;"
       offset="1.0"
       id="stop1" />
  </linearGradient>
<linearGradient
     inkscape:collect="always"
     xlink:href="#linearGradient4321"
     id="acyl_gradient"
     x1="50.0%"
     y1="0.0%"
     x2="50.0%"
     y2="100.0%" />
<filter>
    </filter>
<use id="1" style="fill:url(#acyl_gradient);filter:url(#filter1111)" xlink:href="#path-main" />
</acyl-settings>
</svg>
