<svg xmlns="http://www.w3.org/2000/svg" width="48" height="48">
<defs>
    <path
       d="M 13.40585,12.90575 C 13.16681,12.951361 12.99531,13.162434 12.9996,13.40575 L 12.9996,34.40575 C 12.99963,34.68188 13.22347,34.90572 13.4996,34.90575 L 21.4996,34.90575 C 21.77573,34.90572 21.99957,34.68188 21.9996,34.40575 L 21.9996,13.40575 C 21.99957,13.129619 21.77573,12.905778 21.4996,12.90575 L 13.4996,12.90575 C 13.46842,12.902814 13.43703,12.902814 13.40585,12.90575 L 13.40585,12.90575 z M 26.40585,12.90575 C 26.16681,12.951361 25.99531,13.162434 25.9996,13.40575 L 25.9996,34.40575 C 25.99963,34.68188 26.22347,34.90572 26.4996,34.90575 L 34.4996,34.90575 C 34.77573,34.90572 34.99957,34.68188 34.9996,34.40575 L 34.9996,13.40575 C 34.99957,13.129619 34.77573,12.905778 34.4996,12.90575 L 26.4996,12.90575 C 26.46842,12.902814 26.43703,12.902814 26.40585,12.90575 L 26.40585,12.90575 z"
       id="path-main"
        />
</defs>
<acyl-settings>
<linearGradient
     id="linearGradient4321">
    <stop
       style="stop-color:#FFFFFF;stop-opacity:1.0;"
       offset="1.0"
       id="stop1" />
  </linearGradient>
<linearGradient
     inkscape:collect="always"
     xlink:href="#linearGradient4321"
     id="acyl_gradient"
     x1="50.0%"
     y1="0.0%"
     x2="50.0%"
     y2="100.0%" />
<filter>
    </filter>
<use id="1" style="fill:url(#acyl_gradient);filter:url(#filter1111)" xlink:href="#path-main" />
</acyl-settings>
</svg>
