<svg xmlns="http://www.w3.org/2000/svg" width="48" height="48">
<defs>
<defs
     id="defs7946">
  </defs>
  <path
     id="path-main"
     d="m 23.999946,34.5625 c -1.607379,0.0011 -3.075673,0.391754 -4.217912,1.09375 -0.570418,0.351793 -1.059367,0.777115 -1.426201,1.3125 -0.370025,0.536404 -0.606894,1.185017 -0.606894,1.875 0,0.689982 0.236607,1.338218 0.606894,1.875 0.550349,0.796831 1.369661,1.37619 2.336541,1.78125 0.971079,0.40374 2.102285,0.625 3.307572,0.625 1.606472,-0.0011 3.076267,-0.391453 4.217912,-1.09375 0.572999,-0.351592 1.060072,-0.779343 1.426201,-1.3125 0.369553,-0.535719 0.609381,-1.181899 0.606894,-1.875 0.0025,-0.693099 -0.237602,-1.339659 -0.606894,-1.875 -0.549571,-0.799786 -1.368871,-1.378045 -2.336542,-1.78125 -0.97078,-0.403614 -2.100808,-0.623933 -3.307571,-0.625 z" />
</defs>
<acyl-settings>
<linearGradient
     id="linearGradient4321">
    <stop
       style="stop-color:#FFFFFF;stop-opacity:1.0;"
       offset="1.0"
       id="stop1" />
  </linearGradient>
<linearGradient
     inkscape:collect="always"
     xlink:href="#linearGradient4321"
     id="acyl_gradient"
     x1="50.0%"
     y1="0.0%"
     x2="50.0%"
     y2="100.0%" />
<filter>
    </filter>
<use id="1" style="fill:url(#acyl_gradient);filter:url(#filter1111)" xlink:href="#path-main" />
</acyl-settings>
</svg>
