<svg xmlns="http://www.w3.org/2000/svg" width="48" height="48">
<defs>
<defs
     id="defs7946">
  </defs>
  <path
     id="path-main"
     d="m 23.969591,28.134721 c -3.835318,-9.71e-4 -7.647764,1.466343 -10.742016,4.308947 l -0.940685,0.879996 c -0.216959,0.19654 -0.326465,0.444941 -0.333792,0.728273 -0.0075,0.289921 0.09899,0.586996 0.303447,0.788962 l 0.910341,0.879996 c 0.351865,0.350895 0.525925,0.526898 0.879996,0.879996 l 0.819306,0.819307 c 0.202479,0.202478 0.4945,0.333791 0.758618,0.333791 0.247077,-2e-6 0.500619,-0.09504 0.697928,-0.273102 l 0.849651,-0.788962 c 2.091613,-1.898354 4.462408,-2.78898 6.827556,-2.791712 2.362054,0.0027 4.737064,0.892609 6.827556,2.791712 l 0.849651,0.788962 c 0.407655,0.368833 1.066476,0.35491 1.456545,-0.03034 l 0,-0.03035 L 33.953,36.60089 c 0.352893,-0.352895 0.527922,-0.527922 0.879996,-0.879996 l 0.910341,-0.910341 c 0.206286,-0.203768 0.308323,-0.475753 0.303447,-0.758617 -0.005,-0.290565 -0.116068,-0.533334 -0.333792,-0.728273 l -0.940685,-0.879996 c -3.102682,-2.851004 -6.933296,-4.30996 -10.772366,-4.308946 -0.0058,0 -0.0284,0 -0.03035,0 z m 0.03036,6.675833 c -1.607379,0.0011 -3.075673,0.380405 -4.217912,1.062064 -0.570418,0.341602 -1.059367,0.754603 -1.426201,1.274478 -0.370025,0.520864 -0.606894,1.150687 -0.606894,1.820681 0,0.669993 0.236607,1.29945 0.606894,1.820682 0.550349,0.773747 1.369661,1.336322 2.336541,1.729647 0.971079,0.392044 2.102285,0.606894 3.307572,0.606894 1.606472,-0.0011 3.076267,-0.380113 4.217912,-1.062064 0.572999,-0.341407 1.060072,-0.756766 1.426201,-1.274477 0.369553,-0.5202 0.609381,-1.14766 0.606894,-1.820682 0.0025,-0.67302 -0.237602,-1.300849 -0.606894,-1.820681 -0.549571,-0.776617 -1.368871,-1.338124 -2.336542,-1.729648 -0.97078,-0.391921 -2.100808,-0.605858 -3.307571,-0.606894 z" />
</defs>
<acyl-settings>
<linearGradient
     id="linearGradient4321">
    <stop
       style="stop-color:#FFFFFF;stop-opacity:1.0;"
       offset="1.0"
       id="stop1" />
  </linearGradient>
<linearGradient
     inkscape:collect="always"
     xlink:href="#linearGradient4321"
     id="acyl_gradient"
     x1="50.0%"
     y1="0.0%"
     x2="50.0%"
     y2="100.0%" />
<filter>
    </filter>
<use id="1" style="fill:url(#acyl_gradient);filter:url(#filter1111)" xlink:href="#path-main" />
</acyl-settings>
</svg>
