<svg xmlns="http://www.w3.org/2000/svg" width="48" height="48">
<defs>
<defs
     id="defs7946">
  </defs>
  <path
     id="path-main"
     d="m 23.969596,13.963751 c -7.404244,0 -14.7946922,2.837505 -20.6647359,8.405479 L 2.33383,23.309916 c -0.1992377,0.192035 -0.3313802,0.44854 -0.3337916,0.728272 -0.00238,0.275636 0.1058973,0.561068 0.3034469,0.758618 l 0.9710301,0.940685 c 0.42274,0.422739 0.6096635,0.640008 1.0317196,1.062064 l 0.9103408,0.910341 c 0.3946635,0.394666 1.0500665,0.382284 1.4565452,0 l 0.9406855,-0.849651 c 4.7413925,-4.479667 10.5664315,-6.672996 16.4164795,-6.675833 5.822114,0.0028 11.657331,2.209742 16.386134,6.675833 l 0.91034,0.849651 c 0.199964,0.187766 0.470026,0.303447 0.728273,0.303447 0.264123,2e-6 0.523268,-0.123787 0.728273,-0.333791 l 0.91034,-0.879997 c 0.42388,-0.422908 0.610465,-0.639838 1.03172,-1.062064 l 0.97103,-0.940685 c 0.19755,-0.197551 0.308373,-0.475374 0.303447,-0.758618 -0.0049,-0.280289 -0.131847,-0.535945 -0.333792,-0.728272 l -0.97103,-0.940686 c -5.875156,-5.575059 -13.286371,-8.406472 -20.69508,-8.405479 -0.0015,0 -0.02988,0 -0.03035,0 z m 0.03035,7.131002 c -5.599584,0 -11.209511,2.143265 -15.6882066,6.342041 l -0.9710302,0.910341 c -0.2033937,0.191288 -0.3289038,0.475128 -0.3337916,0.758617 -0.00487,0.282741 0.1040816,0.559252 0.3034469,0.758617 L 8.25105,30.805055 c 0.396605,0.395634 0.6038598,0.573515 1.0013749,0.97103 l 0.8799961,0.879996 c 0.391695,0.389295 1.050539,0.407351 1.456546,0.03034 l 0.91034,-0.849652 c 3.390205,-3.1551 7.433902,-4.670278 11.500639,-4.673082 4.058386,0.0028 8.114191,1.519859 11.500638,4.673082 l 0.910341,0.849652 c 0.197834,0.183353 0.474033,0.273102 0.728273,0.273102 0.269057,-3e-6 0.526466,-0.104043 0.728272,-0.303447 l 0.879996,-0.879996 c 0.395818,-0.395816 0.604649,-0.573332 1.001375,-0.97103 l 0.910341,-0.940686 c 0.199365,-0.199364 0.338666,-0.475877 0.333792,-0.758617 -0.0049,-0.283496 -0.1304,-0.567332 -0.333792,-0.758617 l -0.97103,-0.910341 c -4.48054,-4.198636 -10.08768,-6.342041 -15.688206,-6.342041 z m -0.03035,7.039969 c -3.835318,-9.71e-4 -7.647769,1.466342 -10.742021,4.308946 l -0.940685,0.879996 c -0.216959,0.19654 -0.326465,0.444941 -0.333792,0.728273 -0.0075,0.289921 0.09899,0.586996 0.303447,0.788962 l 0.910341,0.879996 c 0.351865,0.350895 0.525925,0.526898 0.879996,0.879996 l 0.819306,0.819307 c 0.202479,0.202478 0.4945,0.333791 0.758618,0.333791 0.247077,-2e-6 0.500619,-0.09504 0.697928,-0.273102 l 0.849651,-0.788962 c 2.091613,-1.898354 4.462408,-2.78898 6.827556,-2.791712 2.362054,0.0027 4.737064,0.892609 6.827556,2.791712 l 0.849651,0.788962 c 0.407655,0.368833 1.066476,0.35491 1.456545,-0.03034 l 0,-0.03035 L 33.953,36.60089 c 0.352893,-0.352895 0.527922,-0.527922 0.879996,-0.879996 l 0.910341,-0.910341 c 0.206286,-0.203768 0.308323,-0.475753 0.303447,-0.758617 -0.005,-0.290565 -0.116068,-0.533334 -0.333792,-0.728273 l -0.940685,-0.879996 c -3.102682,-2.851004 -6.933296,-4.30996 -10.772366,-4.308946 -0.0058,0 -0.0284,0 -0.03035,0 z m 0.03035,6.675832 c -1.607379,0.0011 -3.075673,0.380405 -4.217912,1.062064 -0.570418,0.341602 -1.059367,0.754603 -1.426201,1.274478 -0.370025,0.520864 -0.606894,1.150687 -0.606894,1.820681 0,0.669993 0.236607,1.29945 0.606894,1.820682 0.550349,0.773747 1.369661,1.336322 2.336541,1.729647 0.971079,0.392044 2.102285,0.606894 3.307572,0.606894 1.606472,-0.0011 3.076267,-0.380113 4.217912,-1.062064 0.572999,-0.341407 1.060072,-0.756766 1.426201,-1.274477 0.369553,-0.5202 0.609381,-1.14766 0.606894,-1.820682 0.0025,-0.67302 -0.237602,-1.300849 -0.606894,-1.820681 -0.549571,-0.776617 -1.368871,-1.338124 -2.336542,-1.729648 -0.97078,-0.391921 -2.100808,-0.605858 -3.307571,-0.606894 z" />
</defs>
<acyl-settings>
<linearGradient
     id="linearGradient4321">
    <stop
       style="stop-color:#FFFFFF;stop-opacity:1.0;"
       offset="1.0"
       id="stop1" />
  </linearGradient>
<linearGradient
     inkscape:collect="always"
     xlink:href="#linearGradient4321"
     id="acyl_gradient"
     x1="50.0%"
     y1="0.0%"
     x2="50.0%"
     y2="100.0%" />
<filter>
    </filter>
<use id="1" style="fill:url(#acyl_gradient);filter:url(#filter1111)" xlink:href="#path-main" />
</acyl-settings>
</svg>
