<svg xmlns="http://www.w3.org/2000/svg" width="48" height="48">
<defs>
<defs
     id="defs8577">
  </defs>
  <g
     id="layer1"
     inkscape:label="Layer 1"
     inkscape:groupmode="layer">
    <path
         d="M 37.928276,4.7917241 C 36.560729,4.7917239 35.44,5.9134995 35.44,7.28 l 0,36.231724 C 35.440003,44.878873 36.561127,46 37.928276,46 l 5.583448,0 C 44.878874,45.999998 46,44.878873 46,43.511724 L 46,7.28 c -10e-7,-1.3665005 -1.120729,-2.4882759 -2.488276,-2.4882759 l -5.583448,0 z m -33.4400001,0.2731035 0,9.9227584 2.5489655,0 0,-4.217931 3.7627586,0 0,4.217931 2.57931,0 0,-9.9227584 -2.57931,0 0,3.7931034 -3.7627586,0 0,-3.7931034 -2.5489655,0 z m 33.4400001,1.0013793 5.583448,0 c 0.68522,0 1.213793,0.5294689 1.213793,1.2137931 l 0,36.231724 c 0,0.685618 -0.528173,1.244137 -1.213793,1.244138 l -5.583448,0 c -0.685618,0 -1.213792,-0.558519 -1.213793,-1.244138 l 0,-36.231724 c 0,-0.6843243 0.528573,-1.2137932 1.213793,-1.2137931 z M 26.791724,13.166897 c -1.366501,0 -2.488276,1.120729 -2.488276,2.488275 l 0,27.856552 C 24.303448,44.879272 25.425223,46 26.791724,46 l 5.553104,0 c 1.367149,-2e-6 2.488275,-1.121127 2.488275,-2.488276 l 0,-27.856552 c 0.0013,-1.367869 -1.121127,-2.488275 -2.488275,-2.488275 l -5.553104,0 z M 15.624828,21.511724 C 14.258327,21.511725 13.136552,22.632453 13.136552,24 l 0,19.511724 C 13.136552,44.879272 14.258327,46 15.624828,46 l 5.583448,0 c 1.367148,-2e-6 2.488276,-1.121127 2.488276,-2.488276 l 0,-19.511724 c 0,-1.367149 -1.121128,-2.488276 -2.488276,-2.488276 l -5.583448,0 z M 4.4882759,29.886897 C 3.1211273,29.886898 2,31.008024 2,32.375172 L 2,43.511724 C 2.0000001,44.878874 3.121127,46 4.4882759,46 l 5.5834481,0 c 1.3665,-2e-6 2.488276,-1.120729 2.488276,-2.488276 l 0,-11.136552 c 0,-1.3665 -1.120729,-2.488275 -2.488276,-2.488275 l -5.5834481,0 z"
       id="path-main" />
  </g>
</defs>
<acyl-settings>
<linearGradient
     id="linearGradient4321">
    <stop
       style="stop-color:#FFFFFF;stop-opacity:1.0;"
       offset="1.0"
       id="stop1" />
  </linearGradient>
<linearGradient
     inkscape:collect="always"
     xlink:href="#linearGradient4321"
     id="acyl_gradient"
     x1="50.0%"
     y1="0.0%"
     x2="50.0%"
     y2="100.0%" />
<filter>
    </filter>
<use id="1" style="fill:url(#acyl_gradient);filter:url(#filter1111)" xlink:href="#path-main" />
</acyl-settings>
</svg>
