<svg xmlns="http://www.w3.org/2000/svg" width="48" height="48">
<defs>
<defs
     id="defs1308">
  </defs>
  <path
     id="path-main"
     d="m 26.695073,10.439414 c -1.640093,0 -2.977934,1.269707 -3.134487,2.870839 -2.641782,0.382148 -4.926246,1.827356 -6.386152,3.925433 -0.550213,-0.229908 -1.075963,-0.527297 -1.699068,-0.527297 -0.128673,0 -0.204573,0.04588 -0.322237,0.05859 -0.395616,-1.022858 -1.217882,-1.845539 -2.372836,-1.845539 -1.496084,0 -2.724368,1.228229 -2.724368,2.724368 0,0.930563 0.565096,1.640876 1.288949,2.138482 -0.09244,0.257853 -0.160427,0.512836 -0.20506,0.790945 -0.35134,-0.09238 -0.641823,-0.292945 -1.0253,-0.292945 -1.4146002,-1e-6 -2.5710469,0.764322 -3.3981358,1.786951 C 6.2499403,21.804635 5.7316444,21.629827 5.1637816,21.629827 3.4202061,21.629826 2,23.050505 2,24.793609 c 10e-8,1.743102 1.420206,3.193075 3.1637816,3.193075 0.5725569,-1e-6 1.0835171,-0.200008 1.5525966,-0.468708 0.8270891,1.022628 1.9835367,1.78695 3.3981358,1.786951 0.618634,-1e-6 1.168201,-0.154544 1.699068,-0.380826 0.946161,1.552889 2.616566,2.636485 4.569907,2.636485 1.266858,-1e-6 2.366051,-0.533349 3.280958,-1.259654 C 21.175139,31.322958 22.95058,32 24.908123,32 c 2.607415,-1e-6 4.877963,-1.160652 6.591211,-2.870839 0.939459,0.645223 2.024462,1.083888 3.251665,1.083888 1.437804,0 2.704702,-0.6077 3.720373,-1.464713 0.527683,0.255147 1.039877,0.556591 1.669773,0.556591 0.88989,-1e-6 1.646613,-0.36314 2.314248,-0.849534 0.367373,0.250733 0.787675,0.41012 1.259654,0.41012 1.248595,0 2.284956,-1.035777 2.284953,-2.284954 -10e-7,-1.122639 -0.887248,-1.958354 -1.962716,-2.138482 -0.388972,-1.840781 -1.943524,-3.251664 -3.896139,-3.251664 -0.194872,0 -0.370005,0.06113 -0.556591,0.08788 -0.646497,-0.999614 -1.552803,-1.738754 -2.665779,-2.197071 0.03451,-0.189987 0.117177,-0.351109 0.117177,-0.556591 2e-6,-1.990074 -1.641429,-3.603196 -3.63249,-3.603196 -0.830625,0 -1.547635,0.344248 -2.167776,0.82024 -0.51228,-0.466842 -1.068492,-0.885194 -1.669774,-1.23036 0.09504,-0.307868 0.292943,-0.576446 0.292943,-0.908122 0,-1.743106 -1.420209,-3.163782 -3.163782,-3.163782 z" />
</defs>
<acyl-settings>
<linearGradient
     id="linearGradient4321">
    <stop
       style="stop-color:#FFFFFF;stop-opacity:1.0;"
       offset="1.0"
       id="stop1" />
  </linearGradient>
<linearGradient
     inkscape:collect="always"
     xlink:href="#linearGradient4321"
     id="acyl_gradient"
     x1="50.0%"
     y1="0.0%"
     x2="50.0%"
     y2="100.0%" />
<filter>
    </filter>
<use id="1" style="fill:url(#acyl_gradient);filter:url(#filter1111)" xlink:href="#path-main" />
</acyl-settings>
</svg>
