<svg xmlns="http://www.w3.org/2000/svg" width="48" height="48">
<defs>
<defs
     id="defs1308">
  </defs>
  <path
     id="path-main"
     d="m 25.348558,2 -3.463942,11.211538 c -0.206381,0.0403 -0.406069,0.10693 -0.608174,0.158654 L 13.132212,4.9086538 16.278846,16.19952 c -0.153778,0.152496 -0.30488,0.314682 -0.449519,0.47596 L 4.4326924,13.951923 13.23798,21.83173 c -0.03724,0.183959 -0.07785,0.368173 -0.105768,0.55529 L 2,26.30048 l 9.625,1.533654 c 0.09497,-0.0079 0.193135,-0.02645 0.290866,-0.02645 0.242833,0 0.4529,0.07668 0.661057,0.158654 l 0.290865,0.05288 c 0.04018,-0.228467 0.08176,-0.446557 0.158654,-0.661057 C 12.373061,26.909 11.86298,26.26784 11.86298,25.427872 c 0,-1.350481 1.108703,-2.459135 2.459136,-2.459135 1.042512,0 1.784726,0.742588 2.141826,1.665866 0.106209,-0.01147 0.17472,-0.05288 0.290866,-0.05288 0.562442,0 1.037007,0.268436 1.533654,0.475961 1.317775,-1.893816 3.379834,-3.198325 5.764422,-3.543268 0.141313,-1.445254 1.348907,-2.591347 2.829328,-2.591347 1.573826,0 2.855769,1.282365 2.855768,2.855769 0,0.299386 -0.17863,0.541816 -0.264422,0.819712 0.542743,0.311562 1.044805,0.689185 1.507212,1.110577 0.559767,-0.429648 1.206972,-0.740382 1.95673,-0.740382 1.797219,0 3.278849,1.456075 3.278846,3.252404 0,0.185476 -0.07463,0.330913 -0.10577,0.502404 1.004622,0.413697 1.822695,1.080877 2.40625,1.983172 0.168421,-0.02415 0.326505,-0.07933 0.502404,-0.07933 0.482982,0 0.933795,0.117823 1.348558,0.290866 L 46,28.627404 34.973558,23.365384 c -0.0026,-0.04438 0.0031,-0.08797 0,-0.132211 L 44.86298,16.09375 32.963942,17.627404 c -0.06163,-0.08621 -0.147514,-0.153636 -0.211538,-0.237981 L 37.16827,6.1778846 28.125,13.819712 c -0.161957,-0.06584 -0.336752,-0.126865 -0.502404,-0.185096 L 25.348558,2 z m 1.533654,18.615384 c -0.660114,0 -1.189903,0.507631 -1.189904,1.163462 0,0.07081 0.005,0.166229 0.02645,0.264424 l 0.23798,0.978364 -1.004807,0.05288 c -2.393512,0.109511 -4.442162,1.417494 -5.579327,3.358172 l -0.475966,0.793273 -0.740384,-0.528846 c -0.380297,-0.266081 -0.885133,-0.423078 -1.401442,-0.423078 -0.159976,-1e-6 -0.342767,0.04423 -0.581732,0.10577 l -0.978364,0.23798 -0.475962,0.819712 c -0.212163,0.35943 -0.34375,0.78172 -0.34375,1.216346 0,0.06813 0.0014,0.1758 0.02645,0.34375 l 0.264423,1.798077 -1.533654,-0.925481 C 12.759615,29.645914 12.354272,29.5 11.915866,29.5 c -0.973063,-1e-6 -1.789971,0.574808 -2.1682698,1.401442 l -0.4495192,0.978366 0.4495192,0.978365 c 0.3782988,0.826634 1.1952058,1.401442 2.1682698,1.401443 0.515194,-1e-6 0.996568,-0.156164 1.401442,-0.44952 l 0.899038,-0.661058 0.370192,1.03125 c 0.454506,1.222977 1.608849,2.115385 2.987982,2.115385 0.90659,0 1.708987,-0.388156 2.30048,-1.004807 l 0.528846,-0.55529 0.608174,0.475962 c 1.170707,0.93189 2.639708,1.48077 4.25721,1.48077 2.116867,-10e-7 4.005731,-0.98068 5.26202,-2.485578 l 0.555288,-0.661057 0.661058,0.581731 c 0.645343,0.585349 1.471754,0.951922 2.40625,0.951922 1.016247,0 1.929857,-0.429168 2.591346,-1.110576 l 0.502404,-0.528846 0.608174,0.449519 c 0.336974,0.246455 0.729763,0.370193 1.16346,0.370193 0.618923,-1e-6 1.163308,-0.266191 1.533654,-0.713943 l 0.423078,-0.528847 0.02645,-0.6875 c -1.24e-4,0.0047 10e-7,-0.0129 0,-0.05288 0,-1.101679 -0.876278,-1.95673 -1.983174,-1.95673 -0.196293,0 -0.396235,0.02286 -0.58173,0.07933 L 37.723566,30.610584 37.4327,29.949527 c -0.461545,-0.97081 -1.383114,-1.703934 -2.459134,-1.956731 l -0.97837,-0.237985 0.396634,-0.925481 c 0.0895,-0.211054 0.132213,-0.407769 0.132212,-0.608172 10e-7,-0.878753 -0.70303,-1.560097 -1.586538,-1.560097 -0.527151,0 -0.984757,0.231768 -1.269231,0.608173 L 31.0601,26.088946 30.3726,25.322119 c -0.599411,-0.670166 -1.358744,-1.216061 -2.194716,-1.612985 l -0.899038,-0.423076 0.58173,-0.819712 c 0.121987,-0.176214 0.185098,-0.432752 0.185098,-0.6875 0,-0.65583 -0.503349,-1.163462 -1.163462,-1.163462 z m -12.560096,4.045674 c -0.436724,0 -0.766828,0.333917 -0.766828,0.766826 0,0.377923 0.273578,0.693201 0.608174,0.766828 l 0.872596,0.185096 0.07933,-0.899038 c -0.0035,0.04524 0,0.03279 0,-0.05288 0,-0.43291 -0.356547,-0.766826 -0.793269,-0.766826 z m -6.8750006,6.055288 c -0.6601056,-1e-6 -1.1634616,0.507642 -1.1634616,1.163462 0,0.655818 0.5033561,1.189904 1.1634616,1.189904 0.3616297,-1e-6 0.6835567,-0.152379 0.8990384,-0.396636 l 0.6875,-0.793268 -0.6875,-0.766828 C 8.1306715,30.868724 7.8087437,30.716346 7.4471154,30.716346 z m 34.7980766,2.40625 c -0.0088,0 -0.04292,0.03107 -0.105769,0.05288 l -0.396635,0.132211 0.185096,0.370192 c 0.06355,0.116702 0.166742,0.185097 0.317308,0.185097 0.213324,0 0.370194,-0.160212 0.370192,-0.370193 0,-0.209986 -0.156866,-0.370192 -0.370192,-0.370192 z M 9.1658654,34.682692 6.6009616,37.98798 11.334134,35.899038 C 10.476804,35.754914 9.7533091,35.290385 9.1658654,34.682692 z M 37.51202,35.44952 c -0.748737,0.631776 -1.658925,1.113871 -2.670674,1.26923 l 5.341346,3.040866 -2.670672,-4.310096 z m -16.975962,1.401442 c -0.825836,0.655594 -1.818015,1.137018 -2.961538,1.137018 -0.0438,0 -0.08873,0.0012 -0.132212,0 l -0.661058,7.350962 5.103366,-7.721154 c -0.474511,-0.219398 -0.91912,-0.476299 -1.348558,-0.766826 z m 8.911058,0.317308 c -1.20893,0.739949 -2.578268,1.200546 -4.098558,1.216346 L 29.314904,46 29.447116,37.16827 z" />
</defs>
<acyl-settings>
<linearGradient
     id="linearGradient4321">
    <stop
       style="stop-color:#FFFFFF;stop-opacity:1.0;"
       offset="1.0"
       id="stop1" />
  </linearGradient>
<linearGradient
     inkscape:collect="always"
     xlink:href="#linearGradient4321"
     id="acyl_gradient"
     x1="50.0%"
     y1="0.0%"
     x2="50.0%"
     y2="100.0%" />
<filter>
    </filter>
<use id="1" style="fill:url(#acyl_gradient);filter:url(#filter1111)" xlink:href="#path-main" />
</acyl-settings>
</svg>
