<svg xmlns="http://www.w3.org/2000/svg" width="48" height="48">
<defs>
<defs
     id="defs1308">
  </defs>
  <path
     d="m 27.09375,6.2202362 c -1.601977,0 -2.876541,1.2447535 -3.036458,2.8072925 -2.612004,0.369593 -4.867506,1.7862553 -6.302084,3.8671873 -0.535714,-0.222458 -1.02688,-0.515625 -1.632812,-0.515625 -0.13049,0 -0.224825,0.04402 -0.34375,0.05729 -0.384686,-1.007337 -1.156691,-1.833333 -2.291667,-1.833333 -1.465807,0 -2.664063,1.198254 -2.664062,2.664062 0,0.920761 0.539713,1.633589 1.260416,2.119792 -0.08926,0.251458 -0.186129,0.502471 -0.229166,0.773438 -0.345997,-0.09169 -0.624686,-0.286458 -1.002604,-0.286458 -1.3942776,-10e-7 -2.5134476,0.762405 -3.3229172,1.776042 -0.457716,-0.261091 -0.9602379,-0.458334 -1.5182291,-0.458334 -1.7082675,-2e-6 -3.0937501,1.414131 -3.09375,3.122396 0,1.708263 1.3854821,3.09375 3.09375,3.09375 0.5579911,0 1.0605131,-0.168597 1.5182291,-0.429687 0.086075,0.107784 0.1934457,0.185355 0.2864584,0.286458 L 2.1432292,42.457216 2,42.915549 l 0.4583333,0 2.75,0 0.4583334,0 0.1432291,-0.458334 5.2421872,-17.731771 c 0.532403,-0.03116 1.025122,-0.171228 1.489584,-0.372395 0.09764,0.16071 0.202775,0.308721 0.315104,0.458333 L 7.6432292,42.457216 7.5,42.915549 l 0.4583333,0 2.7499997,0 0.458334,0 0.143229,-0.458334 4.611979,-15.669271 c 0.343898,0.07446 0.690387,0.14323 1.059896,0.14323 0.2611,0 0.527024,-0.01591 0.773437,-0.05729 L 13.143229,42.457216 13,42.915549 l 0.458333,0 2.75,0 0.458334,0 0.143229,-0.458334 4.726562,-15.984375 c 0.522735,0.249694 1.063712,0.452856 1.632813,0.601563 L 18.643229,42.457216 18.5,42.915549 l 0.458333,0 2.75,0 0.458334,0 0.143229,-0.458334 4.497396,-15.239583 c 0.701681,-0.124464 1.370313,-0.31992 2.005208,-0.601563 L 24.143229,42.457216 24,42.915549 l 0.458333,0 2.75,0 0.458334,0 0.143229,-0.458334 5.098958,-17.330729 c 0.537067,0.23824 1.103292,0.411915 1.71875,0.458333 L 29.643229,42.457216 29.5,42.915549 l 0.458333,0 2.75,0 0.458334,0 0.143229,-0.458334 5.385416,-18.21875 c 0.489994,0.238715 0.990409,0.486979 1.575521,0.486979 0.03931,0 0.07575,0.0014 0.114584,0 l -5.242188,17.731772 c -0.05106,0.165296 -0.0037,0.31771 0.114583,0.401041 0.118212,0.08333 0.291,0.08333 0.458334,0 0.167335,-0.08333 0.297376,-0.235745 0.34375,-0.401041 L 41.330729,24.55357 c 0.442812,-0.146965 0.857558,-0.385635 1.231771,-0.658854 0.358644,0.2438 0.771572,0.401042 1.231771,0.401042 1.223346,-1e-6 2.205732,-1.011022 2.205729,-2.234375 0,-1.103896 -0.85967,-1.919851 -1.919271,-2.091146 -0.375177,-1.812141 -1.89179,-3.208333 -3.809896,-3.208333 -0.191582,10e-7 -0.360873,0.05949 -0.544271,0.08594 -0.634714,-0.979593 -1.515457,-1.729101 -2.60677,-2.177083 0.03137,-0.17966 0.114583,-0.321992 0.114583,-0.515625 -10e-7,-1.950725 -1.601359,-3.552083 -3.552083,-3.552083 -0.816054,0 -1.540369,0.332665 -2.148438,0.802083 -0.494993,-0.452094 -1.024049,-0.83853 -1.604167,-1.174479 0.09471,-0.3043103 0.257813,-0.5885243 0.257813,-0.9166673 0,-1.708266 -1.385485,-3.0937505 -3.09375,-3.0937505 z M 8.5026042,23.952007 c 0.4763583,0.351884 1.0318638,0.572277 1.6328128,0.6875 l -5.1276045,17.359375 -1.8333333,0 5.328125,-18.046875 z m 23.3177078,0.572917 c 0.0921,0.06352 0.191587,0.112585 0.286459,0.171875 l -5.098959,17.302083 -1.833333,0 4.726563,-15.955728 c 0.697765,-0.425862 1.344322,-0.942822 1.91927,-1.51823 z m 5.729167,0.401041 -5.041667,17.072917 -1.833333,0 4.841146,-16.414062 c 0.734923,-0.07435 1.414261,-0.321801 2.033854,-0.658855 z m -24.005208,0.601563 c 0.457527,0.424434 0.962799,0.764625 1.546875,1.002604 l -4.583333,15.46875 -1.8333338,0 4.8697918,-16.471354 z m 6.645833,0.171875 c 0.170858,0.115692 0.366605,0.209354 0.544271,0.315104 l -4.726563,15.984375 -1.833333,0 4.554688,-15.411458 c 0.536013,-0.213015 1.013115,-0.532179 1.460937,-0.888021 z m 3.838542,1.546876 c 0.428933,0.06734 0.868196,0.114583 1.317708,0.114583 0.16453,0 0.325089,-0.0193 0.486979,-0.02865 l -4.325521,14.666667 -1.833333,0 4.354167,-14.752604 z"
     id="path-main"
      />
</defs>
<acyl-settings>
<linearGradient
     id="linearGradient4321">
    <stop
       style="stop-color:#FFFFFF;stop-opacity:1.0;"
       offset="1.0"
       id="stop1" />
  </linearGradient>
<linearGradient
     inkscape:collect="always"
     xlink:href="#linearGradient4321"
     id="acyl_gradient"
     x1="50.0%"
     y1="0.0%"
     x2="50.0%"
     y2="100.0%" />
<filter>
    </filter>
<use id="1" style="fill:url(#acyl_gradient);filter:url(#filter1111)" xlink:href="#path-main" />
</acyl-settings>
</svg>
