<svg xmlns="http://www.w3.org/2000/svg" width="48" height="48">
<defs>
<defs
     id="defs7856" />
  <g
     id="layer1">
    <path
       d="M 20.28125,4.03125 C 19.511707,4.03125 18.901805,4.4409738 18.53125,4.9375 C 18.160695,5.4340262 18,6.0050708 18,6.53125 L 18,10 L 12.25,10 C 10.458149,10 9,11.458149 9,13.25 L 9,39.75 C 9,41.541851 10.458149,43 12.25,43 L 36.75,43 C 38.541851,43 40,41.541851 40,39.75 L 40,13.25 C 40,11.458149 38.541851,10 36.75,10 L 31,10 L 31,6.5625 C 31,6.0110297 30.80548,5.4372961 30.4375,4.96875 C 30.06952,4.5002039 29.499825,4.125 28.8125,4.125 L 20.28125,4.03125 z M 20.28125,5.03125 L 28.8125,5.125 C 29.132178,5.125 29.426578,5.3013104 29.65625,5.59375 C 29.885922,5.8861896 30,6.2913559 30,6.5625 L 30,10.3125 L 30,10.5625 L 30.1875,10.6875 L 30.375,10.84375 C 30.385166,10.854446 30.395028,10.865117 30.40625,10.875 L 32.84375,12.8125 C 32.833385,12.95699 32.834113,13.140173 32.75,13.4375 C 32.693239,13.638142 32.604689,13.815626 32.53125,13.90625 C 32.457811,13.996874 32.452668,14.00353 32.375,14 L 32.34375,14 L 16.75,14 C 16.741699,13.999585 16.724961,14.00056 16.71875,14 C 16.686143,13.997061 16.675988,13.980859 16.625,13.90625 C 16.5643,13.817429 16.509467,13.658776 16.46875,13.46875 C 16.406968,13.180414 16.407666,13.004317 16.40625,12.875 L 18.15625,11.375 L 18.75,10.875 C 18.756906,10.868918 18.743492,10.850146 18.75,10.84375 L 18.8125,10.8125 L 19,10.65625 L 19,10.4375 L 19,6.53125 C 19,6.2444635 19.119271,5.8320409 19.34375,5.53125 C 19.568229,5.2304591 19.838366,5.03125 20.28125,5.03125 z M 13.9375,13 L 15.40625,13 C 15.423762,13.188714 15.445667,13.433926 15.5,13.6875 C 15.55676,13.952399 15.634365,14.208091 15.8125,14.46875 C 15.990635,14.729409 16.297439,14.980497 16.6875,15 L 16.71875,15 L 32.34375,15 C 32.752219,15.018567 33.102262,14.790686 33.3125,14.53125 C 33.522738,14.271814 33.640344,13.995904 33.71875,13.71875 C 33.793977,13.452832 33.823522,13.20116 33.84375,13 L 35.0625,13 C 35.584605,13 36,13.415395 36,13.9375 L 36,34.25 C 34.640155,34.613913 33.786197,35.061043 32.03125,34.59375 C 31.86721,34.549077 31.68887,34.605017 31.5625,34.71875 C 31.436129,34.832484 31.379043,34.988427 31.40625,35.15625 L 32.09375,39 L 13.9375,39 C 13.415394,38.999999 13,38.584605 13,38.0625 L 13,13.9375 C 13,13.415393 13.415394,13 13.9375,13 z M 24.5,20.5 C 23.75,20.5 23,21 23,22 L 23,29 L 26,29 L 26,22 C 26,21 25.25,20.5 24.5,20.5 z M 24.5,29.9375 C 23.611733,29.9375 23.01676,30.563721 23,31.46875 C 23,32.340257 23.594973,33 24.5,33 C 25.388268,33 26,32.340257 26,31.46875 C 26,30.563721 25.388269,29.9375 24.5,29.9375 z M 35.21875,35.5 C 34.886025,35.920292 34.684259,36.161961 34.21875,36.75 L 32.96875,38.3125 L 32.46875,35.5625 C 33.529237,35.713908 34.443022,35.710641 35.21875,35.5 z"
       id="path-main"
        />
    <g
       transform="matrix(0.6232035,0,0,0.6771684,35.310401,9.7651474)"
       id="g3266"
       style="fill:url(#acyl_gradient);filter:url(#filter1111);fill-opacity:1;stroke:#91cbff;stroke-opacity:1">
      <g
         transform="matrix(1.1,0,0,1,-43.74165,5.918957)"
         id="g3268"
         style="fill:url(#acyl_gradient);filter:url(#filter1111);fill-opacity:1;stroke:#91cbff;stroke-opacity:1">
        <g
           transform="matrix(1,0,0,0.555556,-4.549998e-7,13.88887)"
           id="g3270"
           style="fill:url(#acyl_gradient);filter:url(#filter1111);fill-opacity:1;stroke:#91cbff;stroke-opacity:1">
          <g
             id="g3272"
             style="fill:url(#acyl_gradient);filter:url(#filter1111);fill-opacity:1;stroke:#91cbff;stroke-opacity:1;display:inline">
            <g
               transform="matrix(1.052632,0,0,1.285713,-1.263158,-13.42854)"
               id="g3274"
               style="opacity:0.4;fill:url(#acyl_gradient);filter:url(#filter1111);fill-opacity:1;stroke:#91cbff;stroke-opacity:1" />
          </g>
        </g>
        <g
           transform="translate(50.6887,6.21499)"
           id="g3276"
           style="fill:url(#acyl_gradient);filter:url(#filter1111);fill-opacity:1;stroke:#91cbff;stroke-opacity:1;display:inline" />
        <g
           transform="matrix(0.186703,0,0,0.186703,29.5814,63.83798)"
           id="g3278"
           style="fill:url(#acyl_gradient);filter:url(#filter1111);fill-opacity:1;stroke:#91cbff;stroke-opacity:1" />
      </g>
      <g
         id="g3280"
         style="fill:url(#acyl_gradient);filter:url(#filter1111);fill-opacity:1;stroke:#91cbff;stroke-opacity:1;display:inline" />
    </g>
  </g>
</defs>
<acyl-settings>
<linearGradient
     id="linearGradient4321">
    <stop
       style="stop-color:#FFFFFF;stop-opacity:1.0;"
       offset="1.0"
       id="stop1" />
  </linearGradient>
<linearGradient
     inkscape:collect="always"
     xlink:href="#linearGradient4321"
     id="acyl_gradient"
     x1="50.0%"
     y1="0.0%"
     x2="50.0%"
     y2="100.0%" />
<filter>
    </filter>
<use id="1" style="fill:url(#acyl_gradient);filter:url(#filter1111)" xlink:href="#path-main" />
</acyl-settings>
</svg>
