<svg xmlns="http://www.w3.org/2000/svg" width="48" height="48">
<defs>
  <path
     id="path-main"
     d="m 27.666667,6.5982722 c -4.129781,2e-7 -7.667743,2.5972713 -9.548611,6.3402778 -1.059104,-0.880991 -2.411567,-1.451388 -3.895833,-1.45139 -3.373334,2e-6 -6.1111111,2.737779 -6.1111121,6.111112 0,0.757599 0.12958,1.469216 0.381945,2.138889 C 4.6564812,21.451401 2,25.332573 2,29.820495 2,35.914494 6.906,40.820494 13.000001,40.820494 l 22,0 C 41.094,40.820494 46,35.914494 46,29.820495 c 0,-4.826979 -3.10134,-8.900304 -7.409722,-10.388889 0.0096,-0.20882 0.07639,-0.399665 0.07639,-0.611112 0,-6.746667 -4.928,-12.2222218 -11,-12.2222218 z M 24,16.376049 c 3.624212,0 5.897887,1.364713 7.333334,3.055557 l 0,-3.055557 2.444444,0 0,4.88889 0,2.444444 -2.444444,0 -4.888889,0 0,-2.444444 3.208334,0 C 28.588584,19.904075 26.860117,18.820494 24,18.820494 c -7.333334,0 -7.333334,7.333334 -7.333334,7.333334 l -2.444443,0 c 0,0 0,-9.77778 9.777777,-9.777779 z m 7.333334,9.777779 2.444444,0 c 0,0 0,9.777777 -9.777778,9.777777 -3.624211,0 -5.897887,-1.364711 -7.333334,-3.055555 l 0,3.055555 -2.444443,0 0,-4.888888 0,-2.444445 2.444443,0 4.888889,0 0,2.444445 -3.208332,0 c 1.064193,1.360863 2.79266,2.444444 5.652777,2.444444 7.333334,0 7.333334,-7.333333 7.333334,-7.333333 z" />
</defs>
<acyl-settings>
<linearGradient
     id="linearGradient4321">
    <stop
       style="stop-color:#FFFFFF;stop-opacity:1.0;"
       offset="1.0"
       id="stop1" />
  </linearGradient>
<linearGradient
     inkscape:collect="always"
     xlink:href="#linearGradient4321"
     id="acyl_gradient"
     x1="50.0%"
     y1="0.0%"
     x2="50.0%"
     y2="100.0%" />
<filter>
    </filter>
<use id="1" style="fill:url(#acyl_gradient);filter:url(#filter1111)" xlink:href="#path-main" />
</acyl-settings>
</svg>
