<svg xmlns="http://www.w3.org/2000/svg" width="48" height="48">
<defs>
<defs
     id="defs4">
  </defs>
  <path
     id="path-main"
   d="M 14.65625 4 C 10.65625 4.222222 4 6.6562502 4 14.65625 L 4 22.65625 C 4 30.65625 10.582176 33.260414 14.65625 33.34375 L 22.65625 33.34375 L 34.21875 44 L 36 44 C 34.623584 40.598173 29.610219 33.30596 36 33.34375 C 39.962963 33.34375 44 30.65625 44 22.65625 L 44 14.65625 C 44 6.6562502 37.34375 4.305554 33.34375 4 L 14.65625 4 z M 24.71875 7.59375 C 26.276683 7.59375 27.741384 8.376831 28.84375 9.5 C 29.946116 10.623169 30.718751 12.121316 30.71875 13.65625 C 30.71875 15.199653 29.921408 16.618067 28.78125 17.6875 C 27.641092 18.756932 26.140134 19.46875 24.59375 19.46875 C 21.509299 19.46875 18.655705 16.782647 18.65625 13.71875 C 18.65625 12.179854 19.412885 10.669638 20.53125 9.53125 C 21.649616 8.392861 23.157529 7.59375 24.71875 7.59375 z M 24.6875 19.90625 C 25.735913 19.90625 27.654235 20.055114 29.0625 20.34375 C 31.824747 20.909601 33.476112 22.036332 34.40625 23.5625 C 35.336389 25.088668 35.5506 26.929101 35.59375 28.90625 L 35.59375 29.40625 L 35.125 29.40625 L 14.53125 29.40625 C 14.426998 29.40625 14.32668 29.3805 14.25 29.375 L 13.8125 29.34375 L 13.8125 28.90625 C 13.857823 26.927125 14.062973 25.087761 15 23.5625 C 15.937027 22.037238 17.606778 20.905863 20.375 20.34375 C 21.772258 20.061162 23.64811 19.90625 24.6875 19.90625 z "
/>
</defs>
<acyl-settings>
<linearGradient
     id="linearGradient4321">
    <stop
       style="stop-color:#FFFFFF;stop-opacity:1.0;"
       offset="1.0"
       id="stop1" />
  </linearGradient>
<linearGradient
     inkscape:collect="always"
     xlink:href="#linearGradient4321"
     id="acyl_gradient"
     x1="50.0%"
     y1="0.0%"
     x2="50.0%"
     y2="100.0%" />
<filter>
    </filter>
<use id="1" style="fill:url(#acyl_gradient);filter:url(#filter1111)" xlink:href="#path-main" />
</acyl-settings>
</svg>
