<svg xmlns="http://www.w3.org/2000/svg" width="48" height="48">
<defs>
  <path
     d="M 26.125 2 C 25.989536 1.9979491 25.820136 2.0037389 25.65625 2.03125 C 20.412242 2.9116059 15.651432 6.0249364 12.5625 10.375 C 9.5761628 14.581044 8.260279 19.945959 8.96875 25.0625 C 9.444854 24.97512 9.9430658 24.96875 10.4375 24.96875 C 11.152638 24.96875 11.549042 25.329786 12.15625 25.5 C 14.176733 23.559741 16.696397 22.125 19.75 22.125 C 25.210852 22.125 29.643342 26.133046 30.53125 31.3125 C 33.544899 33.037227 36.03125 35.716466 36.03125 39.4375 C 36.03125 40.097113 35.940679 40.727812 35.8125 41.34375 C 39.698677 39.942881 43.224643 37.442863 45.625 34.0625 C 48.714271 29.712403 31.094388 34.146686 30.21875 28.875 C 30.459078 22.232315 26.254157 20.377845 25.125 19.375 C 21.265636 15.946446 30.324399 2.0635783 26.125 2 z M 19.75 25.71875 C 16.893887 25.71875 14.457038 27.249545 13.15625 29.46875 C 12.423784 28.946417 11.464003 28.59375 10.4375 28.59375 C 8.1045378 28.59375 6.2187503 30.218722 6.21875 32.21875 C 6.21875 32.667926 6.3254673 33.102959 6.5 33.5 C 3.8466659 34.516364 2 36.807886 2 39.46875 C 2 43.081848 5.379204 46 9.59375 46 L 24.8125 46 C 29.027046 46 32.4375 43.081848 32.4375 39.46875 C 32.4375 36.606865 30.292135 34.195074 27.3125 33.3125 C 27.3193 33.188696 27.34375 33.094119 27.34375 32.96875 C 27.34375 28.968692 23.949331 25.71875 19.75 25.71875 z "
     id="path-main" />
</defs>
<acyl-settings>
<linearGradient
     id="linearGradient4321">
    <stop
       style="stop-color:#FFFFFF;stop-opacity:1.0;"
       offset="1.0"
       id="stop1" />
  </linearGradient>
<linearGradient
     inkscape:collect="always"
     xlink:href="#linearGradient4321"
     id="acyl_gradient"
     x1="50.0%"
     y1="0.0%"
     x2="50.0%"
     y2="100.0%" />
<filter>
    </filter>
<use id="1" style="fill:url(#acyl_gradient);filter:url(#filter1111)" xlink:href="#path-main" />
</acyl-settings>
</svg>
