<svg xmlns="http://www.w3.org/2000/svg" width="48" height="48">
<defs>
  <path
     d="m 25.600494,2 c -3.303533,0 -6.11356,1.7410371 -7.618122,4.3074433 -0.847211,-0.6040552 -1.945378,-0.8899676 -3.132687,-0.8899676 -2.698429,0 -4.9482199,1.8165105 -4.9482199,4.1294498 -10e-7,0.5194505 0.1897119,1.0003905 0.3915869,1.4595475 -3.0689909,1.175376 -5.2330099,3.864587 -5.2330099,6.941747 0,2.76037 1.727775,5.050797 4.307443,6.33657 L 27.772016,5.8802589 C 28.191865,5.4484309 28.7452,5.1303602 29.338359,5.02589 c 1.031287,-0.1732276 2.092497,0.2120691 2.7411,1.0323624 0.648603,0.8202934 0.797984,1.9555582 0.391586,2.9190938 l -4.307443,10.7152108 4.592233,0 c 1.137204,-0.02112 2.157667,0.640429 2.634304,1.673138 0.476637,1.032711 0.291,2.245337 -0.462784,3.097088 l -0.462782,0.569579 c 3.349865,-1.057363 5.802589,-3.83361 5.802589,-7.084142 0,-3.309636 -2.534178,-6.099089 -5.980583,-7.119741 0.0076,-0.143162 0.106798,-0.317801 0.106798,-0.462783 C 34.393377,5.7398152 30.457671,2 25.600497,2 z m 4.200648,5.8737864 -20.5404529,20.5404526 11.7475729,0 L 12.215382,46 32.755835,22.540453 l -8.828479,0 5.873786,-14.6666666 z"
     id="path-main" />
</defs>
<acyl-settings>
<linearGradient
     id="linearGradient4321">
    <stop
       style="stop-color:#FFFFFF;stop-opacity:1.0;"
       offset="1.0"
       id="stop1" />
  </linearGradient>
<linearGradient
     inkscape:collect="always"
     xlink:href="#linearGradient4321"
     id="acyl_gradient"
     x1="50.0%"
     y1="0.0%"
     x2="50.0%"
     y2="100.0%" />
<filter>
    </filter>
<use id="1" style="fill:url(#acyl_gradient);filter:url(#filter1111)" xlink:href="#path-main" />
</acyl-settings>
</svg>
