<svg xmlns="http://www.w3.org/2000/svg" width="48" height="48">
<defs>
  <path
     d="M 13.662315,2 C 9.6591877,2 5.8288578,3.77735 2.7746876,7.018529 a 2.6440031,2.8058981 0 1 0 3.7391851,3.968139 C 8.7385517,8.625771 11.06688,7.602079 13.662315,7.602079 c 2.595435,0 5.616696,1.08587 8.798082,3.618009 3.963853,3.154924 7.994621,4.930419 11.987388,4.901819 3.992767,-0.02861 7.747757,-1.919821 10.777651,-5.135239 A 2.6440031,2.8058981 0 1 0 41.486251,7.018529 C 39.237295,9.40519 36.994724,10.501585 34.447785,10.519828 31.900845,10.538058 28.849758,9.419639 25.539726,6.785109 21.682647,3.715171 17.665442,2 13.662315,2 z m 0,14.938877 c -4.0031273,0 -7.8334569,1.777348 -10.8876274,5.018528 a 2.6440031,2.8058981 0 1 0 3.7391851,3.968139 c 2.224679,-2.360895 4.5530073,-3.384589 7.1484423,-3.384589 2.595435,0 5.616696,1.08587 8.798082,3.618009 3.963853,3.15493 7.994617,4.93042 11.987388,4.901819 3.99277,-0.02876 7.747757,-1.919814 10.777651,-5.135239 a 2.6440031,2.8058981 0 1 0 -3.739185,-3.968139 c -2.248956,2.386665 -4.491527,3.483055 -7.038466,3.501299 -2.54694,0.0183 -5.598027,-1.100184 -8.908059,-3.734719 -3.857079,-3.069935 -7.874284,-4.785108 -11.877411,-4.785108 z m 0,14.938876 c -4.0031273,0 -7.8334569,1.777353 -10.8876274,5.018529 a 2.6440031,2.8058981 0 1 0 3.7391851,3.968139 c 2.224679,-2.360895 4.5530073,-3.384589 7.1484423,-3.384589 2.595435,0 5.616696,1.085873 8.798082,3.618009 3.963853,3.154926 7.994621,4.930416 11.987388,4.901819 3.992767,-0.02876 7.747757,-1.919821 10.777651,-5.135239 a 2.6440031,2.8058981 0 1 0 -3.739185,-3.968139 c -2.248956,2.386661 -4.491527,3.483055 -7.038466,3.501299 -2.54694,0.0183 -5.598027,-1.100188 -8.908059,-3.734719 -3.857079,-3.069935 -7.874284,-4.785109 -11.877411,-4.785109 z"
     id="path-main" />
</defs>
<acyl-settings>
<linearGradient
     id="linearGradient4321">
    <stop
       style="stop-color:#FFFFFF;stop-opacity:1.0;"
       offset="1.0"
       id="stop1" />
  </linearGradient>
<linearGradient
     inkscape:collect="always"
     xlink:href="#linearGradient4321"
     id="acyl_gradient"
     x1="50.0%"
     y1="0.0%"
     x2="50.0%"
     y2="100.0%" />
<filter>
    </filter>
<use id="1" style="fill:url(#acyl_gradient);filter:url(#filter1111)" xlink:href="#path-main" />
</acyl-settings>
</svg>
