<svg xmlns="http://www.w3.org/2000/svg" width="48" height="48">
<defs>
  <path
     d="m 23.858533,3.6602294 a 2.7310929,2.7310929 0 0 0 -0.341352,0.085338 2.7310929,2.7310929 0 0 0 -2.133453,2.7308198 l 0,2.7308199 a 2.7310929,2.7310929 0 1 0 5.461639,0 l 0,-2.7308199 A 2.7310929,2.7310929 0 0 0 23.858533,3.6602294 z M 10.033758,9.2925453 A 2.7310929,2.7310929 0 0 0 8.6683481,13.986142 l 1.5360859,1.536086 a 2.7310929,2.7310929 0 1 0 3.840215,-3.840215 l -1.536086,-1.536087 a 2.7310929,2.7310929 0 0 0 -2.218791,-0.8533807 2.7310929,2.7310929 0 0 0 -0.256014,0 z m 27.308198,0 a 2.7310929,2.7310929 0 0 0 -1.621424,0.8533807 l -1.36541,1.36541 a 2.7310929,2.7310929 0 1 0 3.840215,3.840216 l 1.36541,-1.36541 a 2.7310929,2.7310929 0 0 0 -1.962776,-4.6935967 2.7310929,2.7310929 0 0 0 -0.256015,0 z M 24.114548,14.668847 c -6.032733,0 -10.92328,4.890518 -10.92328,10.923279 0,0.783052 0.09942,1.567764 0.256015,2.304129 1.586729,-1.440608 3.553476,-2.474805 5.88833,-2.474805 4.410572,0 7.98735,3.241849 8.704488,7.424416 0.841175,0.481326 1.545371,1.122212 2.218791,1.792101 0.0142,0.0142 0.07111,-0.01447 0.08534,0 2.873896,-1.967763 4.693597,-5.299817 4.693597,-9.045841 0,-6.032761 -4.890546,-10.923279 -10.923279,-10.923279 z M 4.4867801,22.861306 a 2.7427944,2.7427944 0 1 0 0.5120287,5.46164 l 2.7308199,0 a 2.7310929,2.7310929 0 1 0 0,-5.46164 l -2.7308199,0 a 2.7310929,2.7310929 0 0 0 -0.2560144,0 2.7338183,2.7338183 0 0 0 -0.2560143,0 z m 35.5006579,0 a 2.7427944,2.7427944 0 1 0 0.512029,5.46164 l 2.73082,0 a 2.7310929,2.7310929 0 1 0 0,-5.46164 l -2.73082,0 a 2.7310929,2.7310929 0 0 0 -0.256015,0 2.7338183,2.7338183 0 0 0 -0.256014,0 z m -20.651825,5.46164 c -2.306798,0 -4.325693,1.280096 -5.376302,3.072172 -0.591591,-0.421799 -1.304376,-0.768043 -2.133453,-0.768043 -1.8842649,0 -3.4135239,1.371751 -3.4135239,2.986834 0,0.362724 0.02971,0.703435 0.170676,1.024058 -2.1430215,0.820745 -3.5842013,2.630205 -3.5842013,4.778935 0,2.917687 2.7403777,5.290963 6.1443442,5.290963 l 12.28869,0 c 3.403967,0 6.144344,-2.373276 6.144344,-5.290963 0,-2.311061 -1.775003,-4.236906 -4.181568,-4.949611 0.0055,-0.09998 0.08534,-0.154775 0.08534,-0.256015 0,-3.230169 -2.752664,-5.88833 -6.144345,-5.88833 z m 16.214243,6.485697 a 2.7310929,2.7310929 0 0 0 -1.36541,4.693597 l 1.536086,1.536086 a 2.7310929,2.7310929 0 1 0 3.840215,-3.840216 l -1.536086,-1.536086 a 2.7310929,2.7310929 0 0 0 -2.218791,-0.853381 2.7310929,2.7310929 0 0 0 -0.256014,0 z"
     id="path-main" />
</defs>
<acyl-settings>
<linearGradient
     id="linearGradient4321">
    <stop
       style="stop-color:#FFFFFF;stop-opacity:1.0;"
       offset="1.0"
       id="stop1" />
  </linearGradient>
<linearGradient
     inkscape:collect="always"
     xlink:href="#linearGradient4321"
     id="acyl_gradient"
     x1="50.0%"
     y1="0.0%"
     x2="50.0%"
     y2="100.0%" />
<filter>
    </filter>
<use id="1" style="fill:url(#acyl_gradient);filter:url(#filter1111)" xlink:href="#path-main" />
</acyl-settings>
</svg>
