/* XPM */
static char *desktop[] = {
/* columns rows colors chars-per-pixel */
"32 32 203 2",
"   c #000000",
".  c #171717",
"X  c #171818",
"o  c #1D2229",
"O  c #142337",
"+  c #1F2630",
"@  c #13253B",
"#  c #2B2C2E",
"$  c #202833",
"%  c #222C3A",
"&  c #2F3339",
"*  c #333333",
"=  c #34393E",
"-  c #3A3A3A",
";  c #152F51",
":  c #23395A",
">  c #1A3A63",
",  c #3A4047",
"<  c #324258",
"1  c #3C4859",
"2  c #374964",
"3  c #224473",
"4  c #284873",
"5  c #204778",
"6  c #214A7D",
"7  c #344F7D",
"8  c #3E5274",
"9  c #424242",
"0  c #45484B",
"q  c #4C4C4D",
"w  c #424D5B",
"e  c #4D5055",
"r  c #5C5C5C",
"t  c #445062",
"y  c #455368",
"u  c #5E5F60",
"i  c #535C6D",
"p  c #485A73",
"a  c #465B7D",
"s  c #6C6C6C",
"d  c #696E74",
"f  c #797979",
"g  c #B8934F",
"h  c #B99450",
"j  c #D2AD6E",
"k  c #D3B070",
"l  c #173F88",
"z  c #1F4486",
"x  c #1A448C",
"c  c #1B4693",
"v  c #1D4A95",
"b  c #1E4B98",
"n  c #1F519D",
"m  c #234C82",
"M  c #21468A",
"N  c #244F88",
"B  c #24518C",
"V  c #2C5289",
"C  c #355583",
"Z  c #385687",
"A  c #3D5A84",
"S  c #3F5D88",
"D  c #214E9C",
"F  c #265390",
"G  c #2C5293",
"H  c #2F5895",
"J  c #24529C",
"K  c #295B9C",
"L  c #325895",
"P  c #335C9C",
"I  c #3A649B",
"U  c #1F52A0",
"Y  c #2354A2",
"T  c #2759A4",
"R  c #2C5CA4",
"E  c #255AAB",
"W  c #295CAC",
"Q  c #325AA1",
"!  c #265EB1",
"~  c #2E62AB",
"^  c #3660A0",
"/  c #3D66A2",
"(  c #3F68A4",
")  c #3464AA",
"_  c #2660B4",
"`  c #2B63B4",
"'  c #2E68B3",
"]  c #2B66B9",
"[  c #2D69BC",
"{  c #316AB6",
"}  c #3D6EB1",
"|  c #336CBB",
" . c #3B6FBA",
".. c #3C72BE",
"X. c #42679B",
"o. c #43689B",
"O. c #4C6899",
"+. c #6E7A8B",
"@. c #797E85",
"#. c #4067A2",
"$. c #436AA5",
"%. c #406DAB",
"&. c #5072A5",
"*. c #5676AD",
"=. c #5678AE",
"-. c #5979AE",
";. c #406FB2",
":. c #4270B1",
">. c #4B75B3",
",. c #4D79B7",
"<. c #4171B8",
"1. c #4D79B8",
"2. c #5B7AB0",
"3. c #2F6FC3",
"4. c #316EC2",
"5. c #3471C4",
"6. c #3C75C4",
"7. c #3F7AC6",
"8. c #3475C9",
"9. c #3679CD",
"0. c #3A79C9",
"q. c #397ED2",
"w. c #4077C2",
"e. c #427AC6",
"r. c #447ECB",
"t. c #7B8088",
"y. c #5C83BB",
"u. c #7587A1",
"i. c #7C8FA9",
"p. c #6284B5",
"a. c #6384BD",
"s. c #708CB2",
"d. c #7690BC",
"f. c #3B82D6",
"g. c #3D85DA",
"h. c #3F88DE",
"j. c #4782CF",
"k. c #4880CA",
"l. c #5180C0",
"z. c #5A86C4",
"x. c #5C89C5",
"c. c #5C8BCA",
"v. c #4A86D4",
"b. c #4089DF",
"n. c #4D8DDA",
"m. c #6186C0",
"M. c #638CC4",
"N. c #6A8BC0",
"B. c #6590C7",
"V. c #6692CB",
"C. c #6995CD",
"Z. c #7391C3",
"A. c #7D99C8",
"S. c #6696D2",
"D. c #6B97D1",
"F. c #6B99D2",
"G. c #6C9DDB",
"H. c #759CD0",
"J. c #6FA1DF",
"K. c #75A5DE",
"L. c #428DE3",
"P. c #5294E2",
"I. c #75A6E0",
"U. c #7AABE6",
"Y. c #858483",
"T. c #9E9380",
"R. c #949494",
"E. c #9D9D9D",
"W. c #969BA4",
"Q. c #9CA4AF",
"!. c #9EA5B1",
"~. c #A5A6A7",
"^. c #ACACAC",
"/. c #A1A7B1",
"(. c #A2A8B2",
"). c #ABAEB5",
"_. c #A5ADB9",
"`. c #ADB1B7",
"'. c #AAB1BC",
"]. c #B7B7B7",
"[. c #B7B9BC",
"{. c #BCBCBC",
"}. c #87ADDD",
"|. c #89ADDD",
" X c #ADB5C2",
".X c #B1B9C6",
"XX c #B5BDC9",
"oX c #8FB5E5",
"OX c #8FB7E8",
"+X c #8FB8EA",
"@X c #92BBEB",
"#X c #C3C3C3",
"$X c #C0C6CF",
"%X c #CCCCCC",
"&X c #C3CBD4",
"*X c #CACFD5",
"=X c #CBD0D6",
"-X c #D3D3D3",
";X c #DBDBDB",
":X c #E3E3E3",
">X c #ECECEC",
",X c #F2F2F2",
"<X c None",
/* pixels */
"<X<X<X<X<X<X<X<X<X<X<X<X<X<X<X<X<X<X<X<X<X<X<X<X<X<X<X<X<X<X<X<X",
"<X<X<X<X<X<X<X<X<X<X<X<X<X<X<X<X<X<X<X<X<X<X<X<X<X<X<X<X<X<X<X<X",
"<X<X<X>X,X,X,X,X,X,X,X,X,X,X,X,X,X,X,X,X,X,X,X,X,X,X,X,X>X<X<X<X",
"<X<X;X:X:X:X:X:X:X:X:X:X:X:X:X>X,X>X>X,X,X>X>X>X>X>X,X,X>X;X<X<X",
"<X<X>X:X%X)././././././././._. X/./././././.(.(./.(.`.-X>X>X<X<X",
"<X<X:X:X).O.*.d.2.2.2.2.2.*.2.2.H.S.C.C.V.V.V.V.V.V.=.`.>X>X<X<X",
"<X<X:X;X/.*.a.A.2.A.Z.Z.Z.Z.2.2.}.I.I.I.K.I.I.K.K.K.B.(.>X:X<X<X",
"<X<X:X;X!.G Q P Q Q Q Q Q Q Q Q m.S.S.S.D.S.D.S.S.S.>.W.].#XE.q ",
"<X<X:X;X!.l c c c c c c c c c c J F.c.c.c.c.c.c.c.y.u.{.$X#X^.<X",
"<X<X;X;X!.l z h +.b c b b b b b D M.c.c.c.c.x.z.s.'.].#XE.s # <X",
"<X<X;X;X!.x i j j p b U D D D D D >.c.c.c.z.p./.[.#X~.f r ^.<X<X",
"<X<X;X-X!.x t g g y U U D Y Q Y Y Q C.x.z.i..X].].Y.e d ;X;X<X<X",
"<X<X;X-X(.l c z l D Y Y W E W W W W x.c.+.{.{.R.u 2 L Q.;X;X<X<X",
"<X<X-X-X_.x 7 t.@.Z T W W W W W W W #.$ r ~.s w X.>.I _.;X-X<X<X",
"<X<X-X-X_.c 8 ;X#Xa W ` W ` ` ` ` : # . . & S >.1.1.P Q.-X-X<X<X",
"<X<X-X*X'.c 7 ].~.A W ` { ] { V : - . % X.,.1.>.$.#.L Q.%X-X<X<X",
"<X<X%X%X'.b J n J W ' [ | ~ < - * % m } r.*.I $.#.$.H !.%X%X<X<X",
"<X<X%X%X'.b E E _ ] [ | 4 0 # + 2 P J F X.I I I / / H _.*X%X<X<X",
"<X<X%X#X Xn E _ ` [ K 1 - o ; 6 m m N N I %.%.;.<.<.R  X-X%X<X<X",
"<X<X%X%X'.n _ _ ] C e # @ > 5 6 B K { 4.e.r.e.w... .R .X%X%X<X<X",
"<X<X#X%X XU _ _ p = O > m K { 0.f.q.9.9.8.r.e.6. .| R  X%X#X<X<X",
"<X<X#X#X.XU _ _ N T ' 8.9.f.g.h.b.f.q.q.8.0.6.5.| { T .X#X#X<X<X",
"<X<X#X{..XU _ ] [ 3.8.9.9.f.h.L.b.b.q.q.9.8.5.4.[ ` Y .X#X#X<X<X",
"<X<X{.#XXXU _ ] [ 3.8.9.f.f.h.L.b.b.f.q.9.8.4.3.] ! Y .X#X#X<X<X",
"<X<X{.{.$X) ....e.r.j.v.v.n.P.P.P.P.n.n.v.j.r.e.6...{ XX{.#X<X<X",
"<X<X{.{.$Xy.F.}.|.|.K.oXOXOXU.@X+X+XJ.J.G.G.F.S.S.V.2.$X{.{.<X<X",
"<X<X{.{.=X&.y.a.M.B.M.B.C.F.C.C.F.F.C.V.V.B.x.a.m.y.&.*X{.{.<X<X",
"<X<X{.].%X=X&X&X&X&X&X&X&X&X&X*X&X&X&X&X&X&X&X&X&X$X=X%X].{.<X<X",
"<X<XE.{.].].].].].].{.].].].].].[.].].].].{.].].].].].].].E.<X<X",
"<X<X9 E.{.{.{.{.{.#X#X#X#X#X%X%X%X#X$X#X#X#X{.#X{.{.{.{.E.9 <X<X",
"<X<X<X<X                                                <X<X<X<X",
"<X<X<X<X<X<X<X<X<X<X<X<X<X<X<X<X<X<X<X<X<X<X<X<X<X<X<X<X<X<X<X<X"
};
