#define iconify_width 6
#define iconify_height 6
static unsigned char iconify_bits[] = {
   0x00, 0x00, 0x22, 0x14, 0x08, 0x00 };
