#define max_width 6
#define max_height 6
static unsigned char max_bits[] = {
   0x00, 0x00, 0x08, 0x14, 0x22, 0x00 };
