<svg xmlns="http://www.w3.org/2000/svg" width="48" height="48">
<defs>
  <path
     id="path-main"
     d="M 24,2 C 11.849736,2 2,11.867065 2,24.014407 2,36.16175 11.849736,46 24,46 36.150264,46 46,36.16175 46,24.014407 46,11.867065 36.150264,2 24,2 z m 7.104167,8.212181 c 0.368661,0.0058 0.682129,0.192812 0.945312,0.547478 0.526359,0.709373 0.346538,1.372571 -0.544271,2.017027 l -1.375,6.022266 c 1.930576,-0.284738 4.357164,0.456494 7.276042,2.247544 l 0.6875,-0.489849 c 0.948274,-0.686044 1.679354,-0.680528 2.205729,0.02881 0.526352,0.709362 0.318063,1.388611 -0.630208,2.074656 l -2.348959,1.72888 C 35.691011,23.234807 34.181572,22.411694 32.794271,21.910936 31.42133,21.399803 30.308305,21.28563 29.5,21.56516 l -0.486979,2.017027 1.71875,2.305174 0.744791,-0.547479 c 0.94828,-0.686048 1.708007,-0.680532 2.234375,0.02882 0.526358,0.709357 0.289424,1.417421 -0.658854,2.103471 L 29.84375,29.806161 C 28.895466,30.492216 28.135738,30.4867 27.609375,29.777341 27.083013,29.06799 27.2913,28.359927 28.239583,27.67387 l 0.34375,-0.230517 -6.044271,-8.154551 -0.34375,0.230517 c -0.948277,0.686064 -1.679358,0.680549 -2.205729,-0.02881 -0.305283,-0.411413 -0.396786,-0.776364 -0.257812,-1.094957 0.128464,-0.332756 0.428255,-0.675868 0.888021,-1.008514 l 3.236979,-2.333988 c 0.948286,-0.686037 1.679368,-0.680522 2.205729,0.02881 0.526364,0.709368 0.318078,1.417432 -0.630208,2.103471 l -0.744792,0.547478 2.348958,3.169614 1.432292,-6.022266 c -0.571733,0.152009 -1.056246,-0.02166 -1.403646,-0.489849 -0.536889,-0.723523 -0.318074,-1.417399 0.630208,-2.103471 l 2.148438,-1.555992 c 0.47414,-0.343016 0.891755,-0.524489 1.260417,-0.518664 z m -14.4375,11.468238 c 0.408884,-0.0069 0.826262,0.03097 1.231771,0.08644 0.825378,0.100583 1.712486,0.439389 2.664062,1.037328 0.955406,0.573392 1.7991,1.39942 2.578125,2.449247 1.294844,1.745022 1.831123,3.666346 1.575521,5.791749 -0.241255,2.115026 -1.198001,3.771126 -2.835938,4.956123 -1.666686,1.205795 -3.55678,1.591682 -5.671875,1.181401 C 14.097077,36.747856 12.389049,35.641972 11.052083,33.84021 9.7256531,32.052648 9.1780322,30.105861 9.4192708,27.990832 9.6499941,25.861641 10.6029,24.201307 12.255208,23.005894 c 0.316097,-0.228668 0.727044,-0.450187 1.231771,-0.662737 0.494204,-0.226703 1.137759,-0.419204 1.947917,-0.547479 0.412262,-0.06932 0.822886,-0.108336 1.231771,-0.115259 z m -0.658854,2.65095 c -0.791888,0.05338 -1.512566,0.326063 -2.177084,0.80681 -1.048857,0.758832 -1.628055,1.839738 -1.747396,3.256058 -0.129861,1.402157 0.232901,2.698277 1.117188,3.88998 0.894819,1.205909 2.048204,1.980297 3.4375,2.305174 1.393133,0.300308 2.603435,0.04885 3.666666,-0.720367 1.048854,-0.758811 1.646171,-1.825089 1.776042,-3.227243 0.129859,-1.402134 -0.243431,-2.712441 -1.117187,-3.88998 -0.90535,-1.220072 -2.062486,-1.99067 -3.466146,-2.305174 -0.520987,-0.121825 -1.014451,-0.147285 -1.489583,-0.115258 z" />
</defs>
<acyl-settings>
<linearGradient
     id="linearGradient4321">
    <stop
       style="stop-color:#FFFFFF;stop-opacity:1.0;"
       offset="1.0"
       id="stop1" />
  </linearGradient>
<linearGradient
     inkscape:collect="always"
     xlink:href="#linearGradient4321"
     id="acyl_gradient"
     x1="50.0%"
     y1="0.0%"
     x2="50.0%"
     y2="100.0%" />
<filter>
    </filter>
<use id="1" style="fill:url(#acyl_gradient);filter:url(#filter1111)" xlink:href="#path-main" />
</acyl-settings>
</svg>
