<svg xmlns="http://www.w3.org/2000/svg" width="48" height="48">
<defs>
    <path
         d="m 11.420213,9.5895106 c -2.3374492,0 -4.2420215,1.3048124 -4.2420215,2.9255324 l 31.5372345,0 c 0,-1.620719 -1.904574,-2.9255324 -4.242022,-2.9255324 l -23.053191,0 z M 7.8803191,13.275681 C 4.6150646,13.275681 2,15.534536 2,18.336851 L 2,36.09483 c 0,2.802315 2.6150646,5.061169 5.8803191,5.06117 l 32.2393619,0 C 43.384935,41.156 46,38.897145 46,36.09483 l 0,-17.757979 c 0,-2.802315 -2.615065,-5.06117 -5.880319,-5.06117 l -32.2393619,0 z m 12.9308509,3.218085 5.763298,0 c 0.228361,0 0.438831,0.139887 0.43883,0.351064 l 0,7.31383 7.284574,0 c 0.21118,-1e-6 0.380319,0.181212 0.380319,0.409574 l 0,5.763298 c -10e-7,0.228366 -0.169141,0.409574 -0.380319,0.409574 l -7.284574,0 0,7.31383 c -10e-7,0.21118 -0.210465,0.380319 -0.43883,0.380319 l -5.763298,0 c -0.228364,0 -0.409572,-0.169138 -0.409574,-0.380319 l 0,-7.31383 -7.284575,0 c -0.21118,0 -0.380319,-0.181208 -0.380319,-0.409574 l 0,-5.763298 c 0,-0.228362 0.169139,-0.409574 0.380319,-0.409574 l 7.284575,0 0,-7.31383 c 0,-0.211178 0.18121,-0.351064 0.409574,-0.351064 z"
       id="path-main" />
</defs>
<acyl-settings>
<linearGradient
     id="linearGradient4321">
    <stop
       style="stop-color:#FFFFFF;stop-opacity:1.0;"
       offset="1.0"
       id="stop1" />
  </linearGradient>
<linearGradient
     inkscape:collect="always"
     xlink:href="#linearGradient4321"
     id="acyl_gradient"
     x1="50.0%"
     y1="0.0%"
     x2="50.0%"
     y2="100.0%" />
<filter>
    </filter>
<use id="1" style="fill:url(#acyl_gradient);filter:url(#filter1111)" xlink:href="#path-main" />
</acyl-settings>
</svg>
