<svg xmlns="http://www.w3.org/2000/svg" width="48" height="48">
<defs>
  <path
     id="path-main"
     d="m 11.420213,9.5895106 c -2.3374492,0 -4.2420215,1.3048124 -4.2420215,2.9255324 l 31.5372345,0 c 0,-1.620719 -1.904574,-2.9255324 -4.242022,-2.9255324 l -23.053191,0 z M 7.8803191,13.275681 C 4.6150646,13.275681 2,15.534536 2,18.336851 L 2,36.09483 c 0,2.802315 2.6150646,5.061169 5.8803191,5.06117 l 32.2393619,0 C 43.384935,41.156 46,38.897145 46,36.09483 l 0,-17.757979 c 0,-2.802315 -2.615065,-5.06117 -5.880319,-5.06117 l -32.2393619,0 z m 6.6994679,6.553191 c 0.0079,-2.98e-4 0.0212,0 0.02926,0 l 3.539893,0 c 0.34135,0 0.585106,0.273012 0.585107,0.614362 l 0,0.672872 14.715425,0 c 0.682703,0 1.228723,0.546021 1.228723,1.228724 l 0,10.268617 c 10e-7,0.682703 -0.54602,1.228723 -1.228723,1.228723 l -19.601064,0 c -0.682703,0 -1.257978,-0.54602 -1.257978,-1.228723 l 0,-10.268617 c 0,-0.666787 0.538971,-1.203896 1.199468,-1.228724 0.0052,-1.96e-4 0.02411,1.31e-4 0.02925,0 0.01061,-2.68e-4 0.01856,0 0.02926,0 l 0.175532,0 0,-0.672872 c 0,-0.333351 0.225657,-0.601883 0.555851,-0.614362 z m 15.476064,2.164894 c -0.143414,0.01252 -0.263298,0.11653 -0.263298,0.263298 l 0,1.521276 c 0,0.15516 0.137393,0.292555 0.292553,0.292554 l 3.071809,0 c 0.155158,0 0.292551,-0.137395 0.292553,-0.292554 l 0,-1.521276 c 0,-0.155159 -0.137392,-0.263298 -0.292553,-0.263298 l -3.071809,0 c -0.006,0 -0.02326,-3.77e-4 -0.02925,0 z m -6.553191,0.994681 c -2.42049,0.06112 -4.359042,2.040929 -4.359043,4.476064 0,2.473595 2.00247,4.505319 4.476064,4.505319 2.473594,0 4.505317,-2.031725 4.505319,-4.505319 0,-2.473596 -2.031722,-4.476064 -4.505319,-4.476064 -0.0193,0 -0.03924,-2.43e-4 -0.05851,0 -0.0095,1.21e-4 -0.01977,-1.81e-4 -0.02925,0 -0.0095,1.8e-4 -0.01976,-2.41e-4 -0.02926,0 z m 0.117021,1.609042 c 1.592378,1e-6 2.896276,1.274642 2.896276,2.867022 0,1.592377 -1.303896,2.896276 -2.896276,2.896276 -1.592381,0 -2.867021,-1.303898 -2.867021,-2.896276 0,-1.59238 1.274641,-2.867022 2.867021,-2.867022 z" />
</defs>
<acyl-settings>
<linearGradient
     id="linearGradient4321">
    <stop
       style="stop-color:#FFFFFF;stop-opacity:1.0;"
       offset="1.0"
       id="stop1" />
  </linearGradient>
<linearGradient
     inkscape:collect="always"
     xlink:href="#linearGradient4321"
     id="acyl_gradient"
     x1="50.0%"
     y1="0.0%"
     x2="50.0%"
     y2="100.0%" />
<filter>
    </filter>
<use id="1" style="fill:url(#acyl_gradient);filter:url(#filter1111)" xlink:href="#path-main" />
</acyl-settings>
</svg>
