<svg xmlns="http://www.w3.org/2000/svg" width="48" height="48">
<defs>
<defs
     id="defs4" />
  <g
     id="layer1">
    <path
       d="M 29.4375,3 L 4.4375,6 C 4.1860219,6.0316981 3.9980355,6.2465396 4,6.5 L 4,40.625 C 3.9926186,40.858877 4.1484111,41.0666 4.375,41.125 L 29.375,46.875 C 29.527469,46.914431 29.689524,46.879631 29.8125,46.78125 C 29.935476,46.682872 30.005001,46.532406 30,46.375 L 30,5.6875 L 33.5,6.28125 L 33.5,42.5625 L 30.65625,43.1875 C 30.382864,43.191366 30.15625,43.414088 30.15625,43.6875 C 30.156249,43.960912 30.382865,44.183634 30.65625,44.1875 L 35.40625,45.21875 C 35.554169,45.246991 35.697311,45.222001 35.8125,45.125 C 35.927689,45.028 36.002657,44.869318 36,44.71875 L 36,4.5 C 36.001115,4.3558225 35.951513,4.2207892 35.84375,4.125 C 35.735987,4.0292107 35.580553,3.9819892 35.4375,4 L 30,4.59375 L 30,3.5 C 30.001115,3.3558225 29.951513,3.2207892 29.84375,3.125 C 29.735987,3.0292107 29.580553,2.9819892 29.4375,3 z M 16.65625,14 C 17.923208,14.000014 19.089921,14.299731 20.125,14.90625 C 21.160054,15.505744 22.023034,16.364525 22.71875,17.5 C 23.142943,18.191175 23.441303,18.938949 23.65625,19.75 C 23.876821,20.554018 23.999985,21.423865 24,22.3125 C 23.999985,24.22379 23.546929,25.692098 22.625,26.75 C 21.703039,27.80791 20.398602,28.343751 18.71875,28.34375 L 18.375,28.34375 L 18.375,26.71875 C 18.205305,27.219493 17.941449,27.592893 17.5625,27.875 C 17.189189,28.150056 16.753385,28.312501 16.25,28.3125 C 15.277141,28.312501 14.485853,27.874538 13.875,27 C 13.26979,26.118414 12.968746,24.973045 12.96875,23.5625 C 12.968746,22.151964 13.264135,21.006597 13.875,20.125 C 14.485854,19.243422 15.282798,18.78126 16.25,18.78125 C 16.753385,18.78126 17.189188,18.936651 17.5625,19.21875 C 17.94145,19.500868 18.205306,19.874266 18.375,20.375 L 18.375,19 L 20.15625,19 L 20.15625,26.34375 C 20.857595,26.209751 21.410904,25.767775 21.8125,25.0625 C 22.214069,24.350181 22.406235,23.451031 22.40625,22.34375 C 22.406235,21.638486 22.320263,20.988593 22.15625,20.375 C 21.992209,19.754369 21.739946,19.171108 21.40625,18.65625 C 20.868907,17.795832 20.215061,17.152991 19.40625,16.6875 C 18.603072,16.222035 17.720154,15.968762 16.78125,15.96875 C 16.125133,15.968762 15.50579,16.093879 14.90625,16.3125 C 14.306697,16.524094 13.759045,16.833902 13.25,17.25 C 12.412892,17.941177 11.750703,18.837287 11.28125,19.9375 C 10.817446,21.030679 10.593748,22.223466 10.59375,23.5 C 10.593748,24.55086 10.731473,25.513598 11.03125,26.4375 C 11.336676,27.354354 11.772479,28.16973 12.34375,28.875 C 12.909356,29.566164 13.551607,30.109061 14.28125,30.46875 C 15.016537,30.835489 15.824794,30.999998 16.65625,31 C 17.368909,30.999998 18.06857,30.831476 18.78125,30.5 C 19.493908,30.168522 20.090344,29.720466 20.59375,29.15625 L 21.5,30.875 C 20.792973,31.55911 20.024592,32.077808 19.1875,32.4375 C 18.356042,32.804235 17.515968,32.999997 16.65625,33 C 15.609862,32.999997 14.615096,32.777975 13.6875,32.3125 C 12.759893,31.854067 11.942728,31.162837 11.21875,30.28125 C 10.494765,29.399662 9.9414573,28.406647 9.5625,27.25 C 9.1835398,26.086307 8.9999989,24.832967 9,23.5 C 8.9999989,22.216415 9.1778833,20.976205 9.5625,19.8125 C 9.9471131,18.648813 10.506077,17.631601 11.21875,16.75 C 11.931416,15.875476 12.774174,15.198348 13.71875,14.71875 C 14.668969,14.239181 15.638143,14.000014 16.65625,14 z M 16.53125,20.75 C 16.033506,20.750009 15.643515,20.999265 15.34375,21.5 C 15.049624,21.993695 14.906244,22.677879 14.90625,23.53125 C 14.906244,24.398739 15.049624,25.093012 15.34375,25.59375 C 15.643515,26.094495 16.053441,26.343752 16.5625,26.34375 C 17.065885,26.343751 17.450217,26.094496 17.75,25.59375 C 18.049765,25.085959 18.21874,24.391685 18.21875,23.53125 C 18.218741,22.67788 18.055421,21.993695 17.75,21.5 C 17.450218,20.999265 17.040291,20.750009 16.53125,20.75 z"
       id="path-main"
        />
  </g>
</defs>
<acyl-settings>
<linearGradient
     id="linearGradient4321">
    <stop
       style="stop-color:#FFFFFF;stop-opacity:1.0;"
       offset="1.0"
       id="stop1" />
  </linearGradient>
<linearGradient
     inkscape:collect="always"
     xlink:href="#linearGradient4321"
     id="acyl_gradient"
     x1="50.0%"
     y1="0.0%"
     x2="50.0%"
     y2="100.0%" />
<filter>
    </filter>
<use id="1" style="fill:url(#acyl_gradient);filter:url(#filter1111)" xlink:href="#path-main" />
</acyl-settings>
</svg>
