<svg xmlns="http://www.w3.org/2000/svg" width="48" height="48">
<defs>
  <path
     d="M 5.665649,11.501318 C 3.634293,11.501318 2,13.135611 2,15.166967 l 0,18.340461 c 0,2.031356 1.634293,3.665649 3.665649,3.665649 l 36.668704,0 C 44.365709,37.173077 46,35.538784 46,33.507428 l 0,-18.340461 c 0,-2.031356 -1.634291,-3.665649 -3.665647,-3.665649 l -36.668704,0 z m 29.594002,3.311303 c 2.842845,0 5.156346,2.30128 5.156346,5.144126 0,2.842847 -2.313501,5.156346 -5.156346,5.156346 -2.842852,0 -5.131907,-2.313499 -5.131907,-5.156346 0,-2.842846 2.289055,-5.144126 5.131907,-5.144126 z m -28.750903,1.991669 13.440711,0 c 0.973359,0 1.759512,0.773934 1.759512,1.747292 0,0.973358 -0.786153,1.759511 -1.759512,1.759511 l -13.440711,0 c -0.973358,0 -1.759511,-0.786153 -1.759511,-1.759511 0,-0.973358 0.786153,-1.747292 1.759511,-1.747292 z m 0,5.999444 13.440711,0 c 0.973359,0 1.759512,0.786154 1.759512,1.759512 0,0.973358 -0.786153,1.759511 -1.759512,1.759511 l -13.440711,0 c -0.973358,0 -1.759511,-0.786153 -1.759511,-1.759511 0,-0.973358 0.786153,-1.759512 1.759511,-1.759512 z m 24.474314,1.612886 c 1.111888,1.065027 2.615339,1.735073 4.276589,1.735073 1.666841,0 3.175854,-0.663687 4.288809,-1.735073 1.879912,1.940636 3.305105,5.09328 3.885585,8.858651 l -16.312133,0 c 0.580002,-3.765988 1.979678,-6.918679 3.86115,-8.858651 z"
     id="path-main"/>
</defs>
<acyl-settings>
<linearGradient
     id="linearGradient4321">
    <stop
       style="stop-color:#FFFFFF;stop-opacity:1.0;"
       offset="1.0"
       id="stop1" />
  </linearGradient>
<linearGradient
     inkscape:collect="always"
     xlink:href="#linearGradient4321"
     id="acyl_gradient"
     x1="50.0%"
     y1="0.0%"
     x2="50.0%"
     y2="100.0%" />
<filter>
    </filter>
<use id="1" style="fill:url(#acyl_gradient);filter:url(#filter1111)" xlink:href="#path-main" />
</acyl-settings>
</svg>
