<svg xmlns="http://www.w3.org/2000/svg" width="48" height="48">
<defs>
<defs
   id="defs31">
</defs>	
<path
   d="m 16.829843,2 0,18.280053 L 2,20.280053 2,46 l 29.170157,0 0,-18.280053 14.829843,0 L 46,2 16.829843,2 z m 4.089005,3.9233818 21.020943,0 0,17.8731832 -21.020943,0 0,-17.8731832 z M 24,9.614267 l 0,3.051519 14.743455,0 0,-3.051519 -14.743455,0 z m 0,7.091149 0,3.051519 14.743455,0 0,-3.051519 -14.743455,0 z m -17.9397906,7.498019 10.7696336,0 0,3.516512 10.251309,0 0,14.356671 -21.0209426,0 0,-17.873183 z m 3.1963351,4.03963 0,3.051519 14.7434555,0 0,-3.051519 -14.7434555,0 z m 0,7.091149 0,3.051519 14.7434555,0 0,-3.051519 -14.7434555,0 z"
   id="path-main"
    /></defs>
<acyl-settings>
<linearGradient
     id="linearGradient4321">
    <stop
       style="stop-color:#FFFFFF;stop-opacity:1.0;"
       offset="1.0"
       id="stop1" />
  </linearGradient>
<linearGradient
     inkscape:collect="always"
     xlink:href="#linearGradient4321"
     id="acyl_gradient"
     x1="50.0%"
     y1="0.0%"
     x2="50.0%"
     y2="100.0%" />
<filter>
    </filter>
<use id="1" style="fill:url(#acyl_gradient);filter:url(#filter1111)" xlink:href="#path-main" />
</acyl-settings>
</svg>
