<svg xmlns="http://www.w3.org/2000/svg" width="48" height="48">
<defs>
<defs
   id="defs25"></defs>
	<path
   
   id="path-main"
   d="M 17.194975,6.6059133 C 16.55408,6.6813003 16.00399,7.0972216 15.756799,7.6933143 L 2.1467489,39.333174 c -0.2394465,0.552999 -0.1832466,1.189544 0.1493882,1.692035 0.3326348,0.502491 0.8966546,0.802874 1.4992519,0.798463 l 10.31277,0 c 0.739824,0.0116 1.409876,-0.435104 1.683718,-1.122478 l 2.665886,-6.945335 10.418002,0 2.911429,6.980412 c 0.280137,0.661634 0.93015,1.090367 1.64864,1.087401 l 10.768777,0 c 0.602597,0.0044 1.166617,-0.295972 1.499251,-0.798463 0.332636,-0.502491 0.388836,-1.139036 0.149389,-1.692035 L 32.032736,7.6582368 c -0.29082,-0.6479007 -0.93852,-1.0613269 -1.64864,-1.0523235 l -13.013734,0 c -0.05842,-0.00287 -0.11696,-0.00287 -0.175387,0 l 0,0 z m 6.313941,11.9614107 c 1.055074,2.734067 1.738082,4.538894 2.385266,6.208708 l -4.700378,0 c 0.407598,-1.074261 0.590064,-1.559124 1.227711,-3.262203 0.453675,-1.211716 0.679266,-1.837021 1.087401,-2.946505 z" />
	
</defs>
<acyl-settings>
<linearGradient
     id="linearGradient4321">
    <stop
       style="stop-color:#FFFFFF;stop-opacity:1.0;"
       offset="1.0"
       id="stop1" />
  </linearGradient>
<linearGradient
     inkscape:collect="always"
     xlink:href="#linearGradient4321"
     id="acyl_gradient"
     x1="50.0%"
     y1="0.0%"
     x2="50.0%"
     y2="100.0%" />
<filter>
    </filter>
<use id="1" style="fill:url(#acyl_gradient);filter:url(#filter1111)" xlink:href="#path-main" />
</acyl-settings>
</svg>
