<svg xmlns="http://www.w3.org/2000/svg" width="48" height="48">
<defs>
<defs
   id="defs15">
</defs>
	<path
   d="m 28.59375,6.75 c -0.579317,0.00498 -1.118192,0.2978503 -1.4375,0.78125 l -20.5,31 C 6.2943091,39.064173 6.2562821,39.753415 6.5573996,40.322919 6.8585171,40.892424 7.4495398,41.249065 8.09375,41.25 l 5.09375,0 c 0.59645,-0.0013 1.150697,-0.307924 1.46875,-0.8125 l 5.875,-9.09375 11.3125,0 1.34375,8.34375 c 0.147398,0.833212 0.872604,1.439748 1.71875,1.4375 l 5,0 c 0.512886,7.14e-4 0.999985,-0.224791 1.33128,-0.616321 0.331295,-0.391531 0.473065,-0.909235 0.38747,-1.414929 L 36.125,8.1875 C 35.977602,7.3542882 35.252396,6.7477522 34.40625,6.75 l -5.8125,0 z m 1,10.09375 c 0.395661,2.713243 0.835234,5.419673 1.28125,8.125 l -6.34375,0 c 1.335799,-2.137806 3.002456,-4.816693 5.0625,-8.125 z"
   id="path-main"
   
   transform="matrix(1.1332803,0,0,1.1332803,-3.1987282,-3.1987282)" />
</defs>
<acyl-settings>
<linearGradient
     id="linearGradient4321">
    <stop
       style="stop-color:#FFFFFF;stop-opacity:1.0;"
       offset="1.0"
       id="stop1" />
  </linearGradient>
<linearGradient
     inkscape:collect="always"
     xlink:href="#linearGradient4321"
     id="acyl_gradient"
     x1="50.0%"
     y1="0.0%"
     x2="50.0%"
     y2="100.0%" />
<filter>
    </filter>
<use id="1" style="fill:url(#acyl_gradient);filter:url(#filter1111)" xlink:href="#path-main" />
</acyl-settings>
</svg>
