<svg xmlns="http://www.w3.org/2000/svg" width="48" height="48">
<defs>
<defs
   id="defs15">
</defs>
	<path
   d="m 41.588689,18.101333 c -1.470437,0 -2.827764,1.361892 -3.619537,3.291238 -1.131106,0.567455 -2.827764,0.113491 -3.280206,-1.134909 l 0,-8.17135 -0.226221,0 -21.038561,0 -0.226221,0 0,8.284841 c -0.452442,1.361891 -2.035989,1.815855 -3.167095,1.2484 C 9.3521851,19.463225 7.8817481,18.101333 6.2982005,18.101333 3.9228792,18.101333 2,21.27908 2,25.137773 c 0,3.858693 1.9228792,7.03644 4.2982005,7.03644 1.470437,0 2.8277635,-1.361891 3.6195373,-3.291238 1.1311052,-0.567455 2.8277632,-0.113491 3.2802052,1.13491 l 0,8.17135 0.226221,0 21.151671,0 0.226221,0 0,-8.284841 c 0.452443,-1.361892 2.03599,-1.815855 3.167096,-1.248401 0.678663,2.156329 2.1491,3.51822 3.732647,3.51822 2.375322,0 4.298201,-3.177747 4.298201,-7.03644 0,-3.858693 -1.922879,-7.03644 -4.298201,-7.03644 l -0.11311,0 z"
   id="path-main"
    />
	
</defs>
<acyl-settings>
<linearGradient
     id="linearGradient4321">
    <stop
       style="stop-color:#FFFFFF;stop-opacity:1.0;"
       offset="1.0"
       id="stop1" />
  </linearGradient>
<linearGradient
     inkscape:collect="always"
     xlink:href="#linearGradient4321"
     id="acyl_gradient"
     x1="50.0%"
     y1="0.0%"
     x2="50.0%"
     y2="100.0%" />
<filter>
    </filter>
<use id="1" style="fill:url(#acyl_gradient);filter:url(#filter1111)" xlink:href="#path-main" />
</acyl-settings>
</svg>
