<svg xmlns="http://www.w3.org/2000/svg" width="48" height="48">
<defs>
<defs
     id="defs4">
  </defs>
  <path
     id="path-main"
     d="M 35.811418,1.745991 35.613855,2 l -7.987171,9.228993 -23.8203979,0 17.1597179,17.159718 9.652341,-9.652342 0,3.33034 0,0.282233 -1.524054,1.524054 1.524054,1.524053 0,0.282233 0,3.33034 -3.33034,-3.33034 -6.322001,6.322001 -6.322001,-6.322001 -10.8377169,10.837716 23.8203979,0 7.987171,9.228993 L 35.811418,46 36.037203,45.717768 45.576652,34.682489 46,34.202694 l -0.649134,0 -4.261706,0 0,-8.523412 0,-0.282233 -0.310456,0 -0.846696,0 0,-3.048107 0.846696,0 0.310456,0 0,-0.282233 0,-8.523412 4.261706,0 0.649134,0 L 45.576652,13.063502 36.037203,2.0282232 35.811418,1.745991 z m 0,0.9031431 8.918537,10.3014749 -3.951251,0 -0.282232,0 0,0.282233 0,8.551635 -9.313663,0 0,-8.551635 0,-0.282233 -0.282232,0 -3.979474,0 8.890315,-10.3014749 z M 2,13.035279 2,34.710712 12.837716,23.872996 2,13.035279 z m 29.182809,12.926235 9.313663,0 0,8.551635 0,0.282233 0.282232,0 3.951251,0 -8.918537,10.301475 -8.890315,-10.301475 3.979474,0 0.282232,0 0,-0.282233 0,-8.551635 z" />
</defs>
<acyl-settings>
<linearGradient
     id="linearGradient4321">
    <stop
       style="stop-color:#FFFFFF;stop-opacity:1.0;"
       offset="1.0"
       id="stop1" />
  </linearGradient>
<linearGradient
     inkscape:collect="always"
     xlink:href="#linearGradient4321"
     id="acyl_gradient"
     x1="50.0%"
     y1="0.0%"
     x2="50.0%"
     y2="100.0%" />
<filter>
    </filter>
<use id="1" style="fill:url(#acyl_gradient);filter:url(#filter1111)" xlink:href="#path-main" />
</acyl-settings>
</svg>
