<svg xmlns="http://www.w3.org/2000/svg" width="48" height="48">
<defs>
  <path
     d="M 19.59375 2 C 9.8807319 2 2 9.8731112 2 19.5625 C 2 29.251891 9.8807328 37.093749 19.59375 37.09375 C 23.918039 37.09375 27.877053 35.54901 30.9375 32.96875 L 32.25 37.09375 L 39.9375 45.3125 C 40.4681 45.87962 42.962143 46.720628 44.90625 44.78125 C 46.55588 43.135634 46.024035 40.389849 45.4375 39.84375 L 37.1875 32.15625 L 33.03125 30.875 C 35.617803 27.821996 37.1875 23.876271 37.1875 19.5625 C 37.1875 9.8731102 29.306769 2 19.59375 2 z M 19.59375 6.375 C 26.878514 6.375 32.78125 12.295458 32.78125 19.5625 C 32.781249 26.829544 26.878513 32.71875 19.59375 32.71875 C 12.308987 32.718749 6.375 26.829543 6.375 19.5625 C 6.375 12.295458 12.308987 6.375 19.59375 6.375 z M 10.46875 10.46875 L 10.46875 11.875 L 10.46875 17.125 L 13.3125 17.125 L 13.3125 13.28125 L 17.4375 13.28125 L 17.4375 10.46875 L 11.90625 10.46875 L 10.46875 10.46875 z M 21.90625 10.46875 L 21.90625 13.28125 L 25.875 13.28125 L 25.875 17.125 L 28.71875 17.125 L 28.71875 11.875 L 28.71875 10.46875 L 27.28125 10.46875 L 21.90625 10.46875 z M 10.46875 21.625 L 10.46875 27.21875 L 10.46875 28.625 L 11.90625 28.625 L 17.4375 28.625 L 17.4375 25.8125 L 13.3125 25.8125 L 13.3125 21.625 L 10.46875 21.625 z M 25.875 21.625 L 25.875 25.8125 L 21.90625 25.8125 L 21.90625 28.625 L 27.28125 28.625 L 28.71875 28.625 L 28.71875 27.21875 L 28.71875 21.625 L 25.875 21.625 z "
     id="path-main" />
</defs>
<acyl-settings>
<linearGradient
     id="linearGradient4321">
    <stop
       style="stop-color:#FFFFFF;stop-opacity:1.0;"
       offset="1.0"
       id="stop1" />
  </linearGradient>
<linearGradient
     inkscape:collect="always"
     xlink:href="#linearGradient4321"
     id="acyl_gradient"
     x1="50.0%"
     y1="0.0%"
     x2="50.0%"
     y2="100.0%" />
<filter>
    </filter>
<use id="1" style="fill:url(#acyl_gradient);filter:url(#filter1111)" xlink:href="#path-main" />
</acyl-settings>
</svg>
