/* XPM */
static char *locked[] = {
/* columns rows colors chars-per-pixel */
"22 22 33 1 ",
"  c black",
". c #353535",
"X c #434343",
"o c gray56",
"O c #939393",
"+ c gray60",
"@ c #9A9A9A",
"# c gray64",
"$ c #ACACAC",
"% c gray69",
"& c #B4B4B4",
"* c gray72",
"= c #BCBCBC",
"- c #C0C0C0",
"; c gray77",
": c #C8C8C8",
"> c gray80",
", c gray81",
"< c gray82",
"1 c #D2D2D2",
"2 c #D5D5D5",
"3 c #D7D7D7",
"4 c gray85",
"5 c #DDDDDD",
"6 c #E1E1E1",
"7 c gray89",
"8 c gray90",
"9 c #E6E6E6",
"0 c gray91",
"q c gray93",
"w c #EEEEEE",
"e c #F6F6F6",
"r c None",
/* pixels */
"rrrrrrrrrrrrrrrrrrrrrr",
"rrrrrrrrrrrrrrrrrrrrrr",
"rrrrrrrrrrrrrrrrrrrrrr",
"rrrrrrrr#weeeew#rrrrrr",
"rrrrrrrr80888808rrrrrr",
"rrrrrrrr86X  X68rrrrrr",
"rrrrrrrr55rrrr55rrrrrr",
"rrrrrrrr44rrrr44rrrrrr",
"rrrrrrrr33rrrr33rrrrrr",
"rrrrrr@6<<0www<,6+rrrr",
"rrrrrr3<>>>>>>>><3rrrr",
"rrrrrr,:::::::::>,rrrr",
"rrrrrr:;;;;:;;;;;;rrrr",
"rrrrrr=;=;===;;=;=rrrr",
"rrrrrr============rrrr",
"rrrrrr***=*******=rrrr",
"rrrrrr*%*%**%**%*%rrrr",
"rrrrrrO%%%$%%$%%%Orrrr",
"rrrrrr.o$$$$$$$$o.rrrr",
"rrrrrrrr        rrrrrr",
"rrrrrrrrrrrrrrrrrrrrrr",
"rrrrrrrrrrrrrrrrrrrrrr"
};
