/* XPM */
static char *x[] = {
/* columns rows colors chars-per-pixel */
"22 22 59 1 ",
"  c black",
". c #060200",
"X c #1D0502",
"o c #1D0503",
"O c #1F0A07",
"+ c #460C03",
"@ c #491009",
"# c #4E1911",
"$ c #7D0F01",
"% c #811709",
"& c #AA1806",
"* c #AB1806",
"= c #B12311",
"- c #902F23",
"; c #8F3023",
": c #CC1D07",
"> c #C5210A",
", c #CE220B",
"< c #CE2D17",
"1 c #D12610",
"2 c #D32A14",
"3 c #D62F19",
"4 c #D8331D",
"5 c #C83C2A",
"6 c #DB3722",
"7 c #D93A25",
"8 c #DE3C27",
"9 c #DE3D28",
"0 c #DB4432",
"q c #DE4A37",
"w c #E0402B",
"e c #E34430",
"r c #E04935",
"t c #E54834",
"y c #E84D39",
"u c #EA513D",
"i c #B14D40",
"p c #B24E40",
"a c #AF5247",
"s c #E95441",
"d c #ED5542",
"f c #ED5643",
"g c #E45D4C",
"h c #C46A5F",
"j c #DD6555",
"k c #D5695B",
"l c #DF695B",
"z c #EC614F",
"x c #E26E5E",
"c c #F06654",
"v c #C56D60",
"b c #D97263",
"n c #E07A6C",
"m c #E97D6E",
"M c #F07262",
"N c #E88476",
"B c #F18170",
"V c #F28171",
"C c None",
/* pixels */
"CCCCCCCCCCCCCCCCCCCCCC",
"CCCCCCCCCCCCCCCCCCCCCC",
"CCCCCCCCCCCCCCCCCCCCCC",
"CCCCCCNCCCCCCCCNCCCCCC",
"CCCChVcVvCCCChVcVvCCCC",
"CCCnMfffMnCCnMfffMnCCC",
"CCbzuuuuuzmmzuuuuuzbCC",
"CCC-yyyyyyssyyyyyy;CCC",
"CCCC#0tttt  tttt0#CCCC",
"CCCCCO5eeeCCeee5OCCCCC",
"CCCCCarwwwCCwwwraCCCCC",
"CCCCkg9888CC8889gkCCCC",
"CCClq66666CC66666qxCCC",
"CCp7444444CC4444446iCC",
"CCC@<33333xx33333<@CCC",
"CCCCo=2222  2222=oCCCC",
"CCCCC.%111CC111%.CCCCC",
"CCCCCCC+>,jj,>+CCCCCCC",
"CCCCCCCCo&::&oCCCCCCCC",
"CCCCCCCCC.$$.CCCCCCCCC",
"CCCCCCCCCCCCCCCCCCCCCC",
"CCCCCCCCCCCCCCCCCCCCCC"
};
