#define close_width 6
#define close_height 6
static unsigned char close_bits[] = {
   0x33, 0x33, 0x00, 0x00, 0x33, 0x33 };
