<?xml version="1.0" encoding="UTF-8" standalone="no"?>
<!-- Created with Inkscape (http://www.inkscape.org/) -->

<svg
   xmlns:dc="http://purl.org/dc/elements/1.1/"
   xmlns:cc="http://creativecommons.org/ns#"
   xmlns:rdf="http://www.w3.org/1999/02/22-rdf-syntax-ns#"
   xmlns:svg="http://www.w3.org/2000/svg"
   xmlns="http://www.w3.org/2000/svg"
   xmlns:xlink="http://www.w3.org/1999/xlink"
   xmlns:inkscape="http://www.inkscape.org/namespaces/inkscape"
   version="1.0"
   width="96"
   height="96"
   id="svg2408">
  <defs
     id="defs2410">
    <linearGradient
       id="linearGradient4008">
      <stop
         id="stop4010"
         style="stop-color:#dab980;stop-opacity:1"
         offset="0" />
      <stop
         id="stop4012"
         style="stop-color:#c29856;stop-opacity:1"
         offset="0.71691591" />
      <stop
         id="stop4014"
         style="stop-color:#a2773a;stop-opacity:1"
         offset="1" />
    </linearGradient>
    <linearGradient
       id="linearGradient3874">
      <stop
         id="stop3876"
         style="stop-color:#ffffff;stop-opacity:1"
         offset="0" />
      <stop
         id="stop3878"
         style="stop-color:#ffffff;stop-opacity:0"
         offset="1" />
    </linearGradient>
    <linearGradient
       x1="11.794092"
       y1="3.2126782"
       x2="11.794092"
       y2="20.137329"
       id="linearGradient3317"
       gradientUnits="userSpaceOnUse"
       gradientTransform="scale(1.0598527,0.9435274)">
      <stop
         id="stop3319"
         style="stop-color:#c6953a;stop-opacity:1"
         offset="0" />
      <stop
         id="stop3321"
         style="stop-color:#ab7a1f;stop-opacity:1"
         offset="1" />
    </linearGradient>
    <linearGradient
       x1="48.035713"
       y1="25.910715"
       x2="48.035713"
       y2="85.821426"
       id="linearGradient3361"
       xlink:href="#linearGradient3317"
       gradientUnits="userSpaceOnUse" />
    <linearGradient
       id="linearGradient3187">
      <stop
         id="stop3189"
         style="stop-color:#c29656;stop-opacity:1"
         offset="0" />
      <stop
         id="stop3191"
         style="stop-color:#ddc08b;stop-opacity:1"
         offset="1" />
    </linearGradient>
    <linearGradient
       x1="45.447727"
       y1="80.471962"
       x2="45.447727"
       y2="7.0165396"
       id="ButtonShadow"
       gradientUnits="userSpaceOnUse"
       gradientTransform="matrix(1.0058652,0,0,0.994169,0,12)">
      <stop
         id="stop3750"
         style="stop-color:#000000;stop-opacity:1"
         offset="0" />
      <stop
         id="stop3752"
         style="stop-color:#000000;stop-opacity:0.58823532"
         offset="1" />
    </linearGradient>
    <linearGradient
       x1="48"
       y1="78"
       x2="48"
       y2="5.9877172"
       id="linearGradient3706"
       xlink:href="#linearGradient3187"
       gradientUnits="userSpaceOnUse"
       gradientTransform="translate(0,8)" />
    <filter
       color-interpolation-filters="sRGB"
       id="filter3174">
      <feGaussianBlur
         id="feGaussianBlur3176"
         stdDeviation="1.71" />
    </filter>
    <linearGradient
       x1="45.447727"
       y1="80.471962"
       x2="45.447727"
       y2="5.297224"
       id="linearGradient3664"
       xlink:href="#ButtonShadow"
       gradientUnits="userSpaceOnUse"
       gradientTransform="matrix(1.0058652,0,0,0.994169,0,12)" />
    <clipPath
       id="clipPath3860">
      <rect
         width="84"
         height="72"
         rx="6"
         ry="6"
         x="6"
         y="18"
         id="rect3862"
         style="fill:#ff00ff;fill-opacity:1;fill-rule:nonzero;stroke:none" />
    </clipPath>
    <filter
       x="-0.16558799"
       y="-0.19715989"
       width="1.331176"
       height="1.3943198"
       color-interpolation-filters="sRGB"
       id="filter3870">
      <feGaussianBlur
         id="feGaussianBlur3872"
         stdDeviation="5.1703125" />
    </filter>
    <linearGradient
       id="linearGradient3699">
      <stop
         id="stop3701"
         style="stop-color:#aa7932;stop-opacity:0.78431374"
         offset="0" />
      <stop
         id="stop3703"
         style="stop-color:#aa7932;stop-opacity:0.39215687"
         offset="1" />
    </linearGradient>
    <linearGradient
       x1="48.021698"
       y1="22.933374"
       x2="48.021698"
       y2="81.481377"
       id="linearGradient3123"
       xlink:href="#linearGradient3874"
       gradientUnits="userSpaceOnUse" />
    <linearGradient
       x1="34.85965"
       y1="16.275133"
       x2="34.85965"
       y2="26.986736"
       id="linearGradient3105"
       xlink:href="#linearGradient4008"
       gradientUnits="userSpaceOnUse"
       gradientTransform="matrix(0.72,0,0,0.72,1.92,-5.52)" />
    <linearGradient
       x1="43"
       y1="91"
       x2="43"
       y2="7"
       id="linearGradient3952"
       xlink:href="#ButtonShadow"
       gradientUnits="userSpaceOnUse" />
    <linearGradient
       x1="45"
       y1="92"
       x2="45"
       y2="7"
       id="linearGradient3961"
       xlink:href="#ButtonShadow"
       gradientUnits="userSpaceOnUse" />
    <linearGradient
       x1="45"
       y1="92"
       x2="45"
       y2="7"
       id="linearGradient3969"
       xlink:href="#ButtonShadow"
       gradientUnits="userSpaceOnUse" />
    <linearGradient
       x1="45"
       y1="92"
       x2="45"
       y2="7"
       id="linearGradient3977"
       xlink:href="#ButtonShadow"
       gradientUnits="userSpaceOnUse" />
    <linearGradient
       x1="45"
       y1="92"
       x2="45"
       y2="7"
       id="linearGradient3986"
       xlink:href="#ButtonShadow"
       gradientUnits="userSpaceOnUse" />
    <linearGradient
       x1="45.76516"
       y1="75.814552"
       x2="45.76516"
       y2="32.185188"
       id="linearGradient3092"
       xlink:href="#linearGradient3699"
       gradientUnits="userSpaceOnUse"
       gradientTransform="matrix(1.0741685,0,0,1.0741471,-3.263416,-6.104644)" />
    <linearGradient
       x1="45.76516"
       y1="75.814552"
       x2="45.76516"
       y2="32.185188"
       id="linearGradient4920"
       xlink:href="#linearGradient3699"
       gradientUnits="userSpaceOnUse"
       gradientTransform="matrix(1.0741685,0,0,1.0741471,-3.263416,-6.104644)" />
    <linearGradient
       x1="45.76516"
       y1="75.814552"
       x2="45.76516"
       y2="32.185188"
       id="linearGradient4933"
       xlink:href="#linearGradient3699"
       gradientUnits="userSpaceOnUse"
       gradientTransform="matrix(1.0741685,0,0,1.0741471,-3.263416,-6.104644)" />
    <linearGradient
       x1="45.76516"
       y1="75.814552"
       x2="45.76516"
       y2="32.185188"
       id="linearGradient4946"
       xlink:href="#linearGradient3699"
       gradientUnits="userSpaceOnUse"
       gradientTransform="matrix(1.0741685,0,0,1.0741471,-3.263416,-6.104644)" />
    <radialGradient
       cx="48"
       cy="90.171875"
       r="42"
       fx="48"
       fy="90.171875"
       id="radialGradient2874"
       xlink:href="#linearGradient3737-5"
       gradientUnits="userSpaceOnUse"
       gradientTransform="matrix(1.1573129,0,0,0.99590774,-7.551021,0.197132)" />
    <linearGradient
       id="linearGradient3737-5">
      <stop
         id="stop3739-0"
         style="stop-color:#ffffff;stop-opacity:1"
         offset="0" />
      <stop
         id="stop3741-4"
         style="stop-color:#ffffff;stop-opacity:0"
         offset="1" />
    </linearGradient>
    <linearGradient
       id="linearGradient3737">
      <stop
         id="stop3739"
         style="stop-color:#ffffff;stop-opacity:1"
         offset="0" />
      <stop
         id="stop3741"
         style="stop-color:#ffffff;stop-opacity:0"
         offset="1" />
    </linearGradient>
    <linearGradient
       x1="36.357143"
       y1="16"
       x2="36.357143"
       y2="73.994667"
       id="linearGradient3916"
       xlink:href="#linearGradient3737"
       gradientUnits="userSpaceOnUse" />
  </defs>
  <metadata
     id="metadata2413">
    <rdf:RDF>
      <cc:Work
         rdf:about="">
        <dc:format>image/svg+xml</dc:format>
        <dc:type
           rdf:resource="http://purl.org/dc/dcmitype/StillImage" />
        <dc:title />
      </cc:Work>
    </rdf:RDF>
  </metadata>
  <g
     id="layer2"
     style="display:none">
    <path
       d="M 14.96875,8.8028918 C 13.32891,8.8028918 12,10.085142 12,11.677892 L 12,19 c -3.324,0 -7,2.676 -7,6 l 0,61 c 0,3.324 2.676,6 6,6 l 74,0 c 3.324,0 6,-2.676 6,-6 l 0,-61 c 0,-3.324 -3.74743,-6 -7.07143,-6 l 0,-0.134608 c 0,-2.389125 -1.97774,-4.3125 -4.4375,-4.3125 l -43.33482,0 -1.46875,-2.875 C 33.95414,10.253293 33.35859,8.8028918 31.71875,8.8028918 l -16.75,0 z"
       inkscape:connector-curvature="0"
       id="rect3745"
       style="opacity:0.9;fill:url(#linearGradient3664);fill-opacity:1;fill-rule:nonzero;stroke:none;filter:url(#filter3174)" />
  </g>
  <g
     id="layer4"
     style="display:inline">
    <path
       d="M 14.125,4 C 9.6910704,4 6,7.568413 6,12 l 0,2.15625 C 3.6235961,15.958367 2,18.759045 2,22 l 0,63 c 0,5.503629 4.496371,10 10,10 l 72,0 c 5.503629,0 10,-4.496371 10,-10 L 94,22 C 94,18.516601 92.146607,15.546894 89.46875,13.78125 88.481551,10.491738 85.526024,8 81.875,8 l -39.5,0 C 40.972352,6.645177 39.835329,5.4903784 38.6875,4.84375 37.192287,4.0014231 35.756649,4.0295412 34.875,4 a 0.92780092,0.92780092 0 0 0 -0.03125,0 c -0.0012,-1.73e-5 -0.03009,-1.73e-5 -0.03125,0 L 34.78125,4 14.125,4 z"
       id="path3984"
       style="opacity:0.07999998;fill:url(#linearGradient3986);fill-opacity:1;fill-rule:nonzero;stroke:none;display:inline" />
    <path
       d="M 14.125,4.9375 C 10.184407,4.9375 6.9375,8.0807925 6.9375,12 l 0,2.59375 c -2.3826099,1.622076 -4,4.293928 -4,7.40625 l 0,63 c 0,5.001444 4.0610559,9.0625 9.0625,9.0625 l 72,0 c 5.001444,0 9.0625,-4.061056 9.0625,-9.0625 l 0,-63 c 0,-3.260846 -1.77319,-6.039741 -4.34375,-7.625 C 87.957559,11.279325 85.241489,8.9375 81.875,8.9375 l -39.8125,0 C 40.465021,7.3963057 39.290438,6.2599842 38.21875,5.65625 36.945571,4.9390059 35.771277,4.9685784 34.84375,4.9375 a 1.043776,1.043776 0 0 0 -0.03125,0 c -10e-7,0 -0.03125,0 -0.03125,0 l -20.65625,0 z"
       id="path3975"
       style="opacity:0.1;fill:url(#linearGradient3977);fill-opacity:1;fill-rule:nonzero;stroke:none;display:inline" />
    <path
       d="M 14.125,5.96875 C 10.736326,5.96875 7.96875,8.6567706 7.96875,12 l 0,3.125 c -2.3751432,1.394016 -4,3.920462 -4,6.875 l 0,63 c 0,4.438141 3.5931086,8.03125 8.03125,8.03125 l 72,0 c 4.438141,0 8.03125,-3.593109 8.03125,-8.03125 l 0,-63 c 0,-3.031992 -1.712245,-5.604362 -4.1875,-6.96875 -0.491893,-2.85962 -2.928643,-5.0625 -5.96875,-5.0625 l -40.1875,0 C 39.852667,8.1939079 38.678863,7.1033787 37.71875,6.5625 36.681475,5.9781523 35.778304,6.0011109 34.8125,5.96875 a 1.043776,1.043776 0 0 0 -0.03125,0 l -20.65625,0 z"
       id="path3967"
       style="opacity:0.2;fill:url(#linearGradient3969);fill-opacity:1;fill-rule:nonzero;stroke:none;display:inline" />
    <path
       d="M 14.125,7 C 11.282105,7 9,9.23 9,12 l 0,3.6875 C 6.6359408,16.808884 5,19.200342 5,22 l 0,63 c 0,3.878 3.122,7 7,7 l 72,0 c 3.878,0 7,-3.122 7,-7 L 91,22 C 91,19.190264 89.346632,16.803629 86.96875,15.6875 86.799101,13.069075 84.606585,11 81.875,11 l -40.59375,0 c -4.220528,-4.1123102 -4.502768,-3.9330794 -6.5,-4 L 14.125,7 z"
       inkscape:connector-curvature="0"
       id="path3908-1"
       style="opacity:0.3;fill:url(#linearGradient3961);fill-opacity:1;fill-rule:nonzero;stroke:none;display:inline" />
    <path
       d="m 15,7 c -2.77,0 -5,2.23 -5,5 l 0,3.34375 C 7.6664933,16.164656 6,18.378887 6,21 l 0,64 c 0,3.324 2.676,6 6,6 l 72,0 c 3.324,0 6,-2.676 6,-6 L 90,21 C 90,18.358112 88.300137,16.148775 85.9375,15.34375 85.611464,12.893448 83.542274,11 81,11 L 40.46875,11 C 36.35644,6.8876898 36.102271,7.0669206 34.15625,7 L 15,7 z"
       inkscape:connector-curvature="0"
       id="path3941"
       style="opacity:0.45;fill:url(#linearGradient3952);fill-opacity:1;fill-rule:nonzero;stroke:none;display:inline" />
  </g>
  <g
     id="layer3"
     style="display:inline">
    <rect
       width="75"
       height="62.678574"
       rx="6"
       ry="6"
       x="10.535714"
       y="23.142857"
       id="rect3352"
       style="fill:url(#linearGradient3361);fill-opacity:1;fill-rule:nonzero;stroke:none;display:inline" />
    <path
       d="m 15,6 c -2.77,0 -5,2.23 -5,5 l 0,59.8125 c 0,2.39328 1.91922,4.3125 4.3125,4.3125 l 67.375,0 C 84.08078,75.125 86,73.20578 86,70.8125 L 86,15 c 0,-2.77 -2.23,-5 -5,-5 L 40.46875,10 C 36.35644,5.8876898 36.102271,6.0669206 34.15625,6 z"
       inkscape:connector-curvature="0"
       id="path3908"
       style="fill:url(#linearGradient3105);fill-opacity:1;fill-rule:nonzero;stroke:none;display:inline" />
    <path
       d="m 15,6 c -2.77,0 -5,2.23 -5,5 l 0,59.8125 c 0,2.39328 1.91922,4.3125 4.3125,4.3125 l 67.375,0 C 84.08078,75.125 86,73.20578 86,70.8125 L 86,15 c 0,-2.77 -2.23,-5 -5,-5 L 40.46875,10 C 36.35644,5.8876898 36.102271,6.0669206 34.15625,6 L 15,6 z m 0,1.03125 19.125,0 0.03125,0 c 0.964976,0.031157 1.192535,-0.016972 1.8125,0.34375 0.630289,0.366729 1.706808,1.3318077 3.75,3.375 a 1.043776,1.043776 0 0 0 0.75,0.28125 l 40.53125,0 c 2.209859,0 3.96875,1.758891 3.96875,3.96875 l 0,55.8125 c 0,1.835319 -1.445931,3.28125 -3.28125,3.28125 l -67.375,0 c -1.835319,0 -3.28125,-1.445931 -3.28125,-3.28125 l 0,-59.8125 c 0,-2.2098586 1.758891,-3.96875 3.96875,-3.96875 z"
       inkscape:connector-curvature="0"
       id="path3108"
       style="opacity:0.2;fill:#ffffff;fill-opacity:1;fill-rule:nonzero;stroke:none;display:inline" />
  </g>
  <g
     id="layer1"
     style="display:inline">
    <rect
       width="84"
       height="76"
       rx="6"
       ry="6"
       x="6"
       y="14"
       id="rect2419"
       style="fill:url(#linearGradient3706);fill-opacity:1;fill-rule:nonzero;stroke:none" />
    <path
       d="m 12,14 c -3.324,0 -6,2.676 -6,6 l 0,2 0,60 0,2 c 0,0.334721 0.04135,0.6507 0.09375,0.96875 0.0487,0.295596 0.09704,0.596915 0.1875,0.875 0.00988,0.03038 0.020892,0.0636 0.03125,0.09375 0.098865,0.287771 0.2348802,0.547452 0.375,0.8125 0.1445918,0.273507 0.3156161,0.535615 0.5,0.78125 0.1843839,0.245635 0.3737765,0.473472 0.59375,0.6875 0.439947,0.428056 0.94291,0.814526 1.5,1.09375 0.278545,0.139612 0.5734731,0.246947 0.875,0.34375 -0.2562018,-0.100222 -0.4867109,-0.236272 -0.71875,-0.375 -0.00741,-0.0044 -0.023866,0.0045 -0.03125,0 -0.031933,-0.0193 -0.062293,-0.04251 -0.09375,-0.0625 -0.120395,-0.0767 -0.2310226,-0.163513 -0.34375,-0.25 -0.1061728,-0.0808 -0.2132809,-0.161112 -0.3125,-0.25 C 8.4783201,88.557317 8.3087904,88.373362 8.15625,88.1875 8.0486711,88.057245 7.9378561,87.922215 7.84375,87.78125 7.818661,87.74287 7.805304,87.69538 7.78125,87.65625 7.716487,87.553218 7.6510225,87.451733 7.59375,87.34375 7.4927417,87.149044 7.3880752,86.928049 7.3125,86.71875 7.30454,86.69694 7.288911,86.6782 7.28125,86.65625 7.2494249,86.5643 7.2454455,86.469419 7.21875,86.375 7.1884177,86.268382 7.1483606,86.171969 7.125,86.0625 7.0521214,85.720988 7,85.364295 7,85 L 7,83 7,23 7,21 c 0,-2.781848 2.2181517,-5 5,-5 l 2,0 68,0 2,0 c 2.781848,0 5,2.218152 5,5 l 0,2 0,60 0,2 c 0,0.364295 -0.05212,0.720988 -0.125,1.0625 -0.04415,0.206893 -0.08838,0.397658 -0.15625,0.59375 -0.0077,0.02195 -0.0233,0.04069 -0.03125,0.0625 -0.06274,0.173739 -0.138383,0.367449 -0.21875,0.53125 -0.04158,0.0828 -0.07904,0.169954 -0.125,0.25 -0.0546,0.09721 -0.126774,0.18835 -0.1875,0.28125 -0.09411,0.140965 -0.204921,0.275995 -0.3125,0.40625 -0.143174,0.17445 -0.303141,0.346998 -0.46875,0.5 -0.01117,0.0102 -0.01998,0.02115 -0.03125,0.03125 -0.138386,0.125556 -0.285091,0.234436 -0.4375,0.34375 -0.102571,0.07315 -0.204318,0.153364 -0.3125,0.21875 -0.0074,0.0045 -0.02384,-0.0044 -0.03125,0 -0.232039,0.138728 -0.462548,0.274778 -0.71875,0.375 0.301527,-0.0968 0.596455,-0.204138 0.875,-0.34375 0.55709,-0.279224 1.060053,-0.665694 1.5,-1.09375 0.219973,-0.214028 0.409366,-0.441865 0.59375,-0.6875 0.184384,-0.245635 0.355408,-0.507743 0.5,-0.78125 0.14012,-0.265048 0.276135,-0.524729 0.375,-0.8125 0.01041,-0.03078 0.02133,-0.06274 0.03125,-0.09375 0.09046,-0.278085 0.1388,-0.579404 0.1875,-0.875 C 89.95865,84.6507 90,84.334721 90,84 l 0,-2 0,-60 0,-2 c 0,-3.324 -2.676,-6 -6,-6 z"
       inkscape:connector-curvature="0"
       id="rect3728"
       style="opacity:0.35;fill:url(#linearGradient3916);fill-opacity:1;fill-rule:nonzero;stroke:none;display:inline" />
    <path
       d="M 12,90 C 8.676,90 6,87.324 6,84 L 6,82 6,26 6,24 c 0,-0.334721 0.04135,-0.6507 0.09375,-0.96875 0.0487,-0.295596 0.09704,-0.596915 0.1875,-0.875 0.00988,-0.03038 0.020892,-0.0636 0.03125,-0.09375 0.098865,-0.287771 0.2348802,-0.547452 0.375,-0.8125 0.1445918,-0.273507 0.3156161,-0.535615 0.5,-0.78125 0.1843839,-0.245635 0.3737765,-0.473472 0.59375,-0.6875 0.439947,-0.428056 0.94291,-0.814526 1.5,-1.09375 0.278545,-0.139612 0.5734731,-0.246947 0.875,-0.34375 -0.2562018,0.100222 -0.4867109,0.236272 -0.71875,0.375 -0.00741,0.0044 -0.023866,-0.0045 -0.03125,0 -0.031933,0.0193 -0.062293,0.04251 -0.09375,0.0625 -0.120395,0.0767 -0.2310226,0.163513 -0.34375,0.25 -0.1061728,0.0808 -0.2132809,0.161112 -0.3125,0.25 -0.1779299,0.161433 -0.3474596,0.345388 -0.5,0.53125 -0.1075789,0.130255 -0.2183939,0.265285 -0.3125,0.40625 -0.025089,0.03838 -0.038446,0.08587 -0.0625,0.125 -0.064763,0.103032 -0.1302275,0.204517 -0.1875,0.3125 -0.1010083,0.194706 -0.2056748,0.415701 -0.28125,0.625 C 7.30454,21.30306 7.288911,21.3218 7.28125,21.34375 7.2494249,21.4357 7.2454455,21.530581 7.21875,21.625 7.1884177,21.731618 7.1483606,21.828031 7.125,21.9375 7.0521214,22.279012 7,22.635705 7,23 l 0,2 0,56 0,2 c 0,2.781848 2.2181517,5 5,5 l 2,0 68,0 2,0 c 2.781848,0 5,-2.218152 5,-5 l 0,-2 0,-56 0,-2 c 0,-0.364295 -0.05212,-0.720988 -0.125,-1.0625 -0.04415,-0.206893 -0.08838,-0.397658 -0.15625,-0.59375 -0.0077,-0.02195 -0.0233,-0.04069 -0.03125,-0.0625 -0.06274,-0.173739 -0.138383,-0.367449 -0.21875,-0.53125 -0.04158,-0.0828 -0.07904,-0.169954 -0.125,-0.25 -0.0546,-0.09721 -0.126774,-0.18835 -0.1875,-0.28125 -0.09411,-0.140965 -0.204921,-0.275995 -0.3125,-0.40625 -0.143174,-0.17445 -0.303141,-0.346998 -0.46875,-0.5 -0.01117,-0.0102 -0.01998,-0.02115 -0.03125,-0.03125 -0.138386,-0.125556 -0.285091,-0.234436 -0.4375,-0.34375 -0.102571,-0.07315 -0.204318,-0.153364 -0.3125,-0.21875 -0.0074,-0.0045 -0.02384,0.0044 -0.03125,0 -0.232039,-0.138728 -0.462548,-0.274778 -0.71875,-0.375 0.301527,0.0968 0.596455,0.204138 0.875,0.34375 0.55709,0.279224 1.060053,0.665694 1.5,1.09375 0.219973,0.214028 0.409366,0.441865 0.59375,0.6875 0.184384,0.245635 0.355408,0.507743 0.5,0.78125 0.14012,0.265048 0.276135,0.524729 0.375,0.8125 0.01041,0.03078 0.02133,0.06274 0.03125,0.09375 0.09046,0.278085 0.1388,0.579404 0.1875,0.875 C 89.95865,23.3493 90,23.665279 90,24 l 0,2 0,56 0,2 c 0,3.324 -2.676,6 -6,6 l -72,0 z"
       inkscape:connector-curvature="0"
       id="path3615"
       style="opacity:0.2;fill:url(#radialGradient2874);fill-opacity:1;fill-rule:nonzero;stroke:none;display:inline" />
  </g>
  <g
     id="layer5"
     style="display:inline">
    <path
       d="m 15.96875,22.53125 c -2.845903,0.0043 -5.433244,2.591597 -5.4375,5.4375 l 0,48.0625 c 0.0043,2.845903 2.591597,5.433244 5.4375,5.4375 l 64.0625,0 c 2.845903,-0.0043 5.433244,-2.591597 5.4375,-5.4375 l 0,-48.0625 c -0.0043,-2.845903 -2.591597,-5.433244 -5.4375,-5.4375 z"
       inkscape:connector-curvature="0"
       clip-path="url(#clipPath3860)"
       id="path3850"
       style="opacity:0.15;fill:url(#linearGradient3123);fill-opacity:1;fill-rule:nonzero;stroke:none;filter:url(#filter3870)" />
  </g>
  <g
     id="layer6">
    <path
       d="m 58.15625,26.375 c -2.802802,0 -5.221983,1.742403 -6.25,4.1875 C 51.8378,30.54573 51.82279,30.48137 51.75,30.46875 50.508012,30.253515 49.276972,30.125 48.0625,30.125 c -3.281759,4.25e-4 -6.544831,0.820931 -9.5,2.28125 -0.783662,0.388759 -1.107093,0.989356 -1.25,1.5 -0.03081,0.108626 0.07104,0.314969 0.0625,0.46875 C 37.202554,34.29704 37.07049,34.196115 36.84375,34.15625 36.639596,34.1203 36.319918,34.07837 35.875,34.1875 35.77825,34.21123 35.518734,34.23315 35,34.625 l -0.03125,0 0,-0.03125 c -3.436666,2.646862 -5.977918,6.333385 -7.28125,10.4375 -0.67701,-0.224195 -1.376525,-0.40625 -2.125,-0.40625 -3.791089,0 -6.90625,3.117298 -6.90625,6.90625 0,3.788953 3.115162,6.90625 6.90625,6.90625 0.771784,0 1.492323,-0.199747 2.1875,-0.4375 1.31004,4.009336 3.809038,7.614321 7.15625,10.21875 l 0,-0.03125 0.03125,0 c 0.292423,0.223804 0.957871,0.649742 1.8125,0.5 0.230725,-0.03973 0.357442,-0.140309 0.53125,-0.21875 0.0081,0.151181 -0.09099,0.365248 -0.0625,0.46875 0.144984,0.525055 0.439283,1.111825 1.21875,1.5 2.99541,1.499577 6.325094,2.28125 9.625,2.28125 1.213895,0 2.462774,-0.124438 3.71875,-0.34375 0.760485,2.976929 3.358419,5.25 6.5625,5.25 3.782564,0 6.90625,-3.094371 6.90625,-6.875 0,-1.7442 -0.722792,-3.291568 -1.8125,-4.5 3.340302,-3.434953 5.430035,-7.939324 5.90625,-12.6875 0.06378,-0.629558 -0.213947,-1.359954 -0.625,-1.8125 -0.12818,-0.141132 -0.345511,-0.113294 -0.5,-0.21875 0.171855,-0.102846 0.342251,-0.138725 0.5,-0.3125 0.414596,-0.456716 0.682538,-1.197385 0.625,-1.8125 C 68.907989,44.929182 67.023691,40.612651 64,37.25 c -0.122592,-0.137057 -0.299654,-0.116361 -0.4375,-0.21875 0.805022,-1.11499 1.375,-2.407216 1.375,-3.875 0,-3.720502 -3.058372,-6.78125 -6.78125,-6.78125 z m 0,2 c 2.643984,0 4.78125,2.139433 4.78125,4.78125 0,2.641819 -2.137266,4.78125 -4.78125,4.78125 -2.643984,0 -4.78125,-2.139431 -4.78125,-4.78125 0,-2.641817 2.137266,-4.78125 4.78125,-4.78125 z m -10.09375,3.75 c 1.074573,0 2.191111,0.112749 3.34375,0.3125 0.181008,0.03138 0.3125,0.223713 0.3125,0.40625 0,0.0061 3.83e-4,0.1231 0,0.125 3.83e-4,3.663728 3.00112,6.65625 6.6875,6.65625 1.263617,0 2.492772,-0.382741 3.59375,-1.09375 0.155751,-0.100634 0.376776,-0.07526 0.5,0.0625 2.730438,3.036524 4.450353,6.958189 4.84375,11 0.01,0.106383 -0.02219,0.20242 -0.09375,0.28125 -0.07156,0.07883 -0.174865,0.09375 -0.28125,0.09375 l -7.3125,0 c -0.184836,0 -0.31467,-0.129582 -0.34375,-0.3125 -0.868689,-5.447375 -5.709523,-9.53125 -11.25,-9.53125 -1.506237,0 -3.000912,0.298946 -4.4375,0.90625 -0.170295,0.07156 -0.3704,-1.18e-4 -0.46875,-0.15625 l -3.875,-6.15625 C 39.22461,34.628439 39.22091,34.54006 39.25,34.4375 c 0.0287,-0.102556 0.09183,-0.20254 0.1875,-0.25 2.690258,-1.329411 5.674137,-2.062118 8.625,-2.0625 z m -11.71875,4 c 0.05051,-0.01239 0.10401,-0.0092 0.15625,0 0.104473,0.01837 0.19336,0.09795 0.25,0.1875 l 3.875,6.125 c 0.09911,0.15728 0.04593,0.377928 -0.09375,0.5 -2.47825,2.158669 -3.875,5.245734 -3.875,8.5 0,3.230157 1.391137,6.310848 3.84375,8.46875 0.13967,0.12284 0.16238,0.343486 0.0625,0.5 l -3.90625,6.125 c -0.05702,0.08916 -0.145526,0.16951 -0.25,0.1875 C 36.301395,66.73712 36.20881,66.69044 36.125,66.625 33.000016,64.193484 30.646133,60.788733 29.5,57.03125 c -0.04516,-0.148478 0.0037,-0.3102 0.125,-0.40625 1.590428,-1.259384 2.53125,-3.199121 2.53125,-5.1875 0,-1.988378 -0.941205,-3.928118 -2.53125,-5.1875 -0.122013,-0.09643 -0.17016,-0.258154 -0.125,-0.40625 1.155319,-3.789245 3.523482,-7.219377 6.6875,-9.65625 0.04152,-0.03233 0.10574,-0.05011 0.15625,-0.0625 z m 11.71875,6 c 4.55768,0 8.570046,3.383933 9.28125,7.84375 0.08945,0.562679 0.515015,1.075273 1.0625,1.46875 -0.544662,0.349809 -0.981197,0.838414 -1.09375,1.53125 -0.720438,4.423668 -4.712598,7.8125 -9.25,7.8125 -1.247985,0 -2.506551,-0.262021 -3.71875,-0.78125 -0.536578,-0.228386 -1.160232,-0.184326 -1.75,0.03125 -0.03152,-0.596911 -0.259632,-1.166236 -0.78125,-1.625 -2.025461,-1.782077 -3.15625,-4.312822 -3.15625,-6.96875 0,-2.681992 1.14071,-5.217152 3.1875,-7 0.488224,-0.426679 0.702724,-0.997499 0.75,-1.625 0.562028,0.242817 1.180249,0.328183 1.8125,0.0625 1.195138,-0.505233 2.414642,-0.75 3.65625,-0.75 z m -22.5,4.5 c 2.70591,0 4.90625,2.202298 4.90625,4.90625 0,2.703954 -2.20034,4.90625 -4.90625,4.90625 -2.70591,0 -4.90625,-2.202296 -4.90625,-4.90625 0,-2.703952 2.20034,-4.90625 4.90625,-4.90625 z m 34.09375,6.34375 7.3125,0 c 0.106386,-3.82e-4 0.2093,0.04578 0.28125,0.125 0.07195,0.07921 0.10449,0.175242 0.09375,0.28125 -0.433196,4.319248 -2.350531,8.41513 -5.40625,11.53125 -0.116718,0.11901 -0.290167,0.13942 -0.4375,0.0625 -0.968951,-0.50513 -2.045965,-0.75 -3.09375,-0.75 -3.379851,0 -6.236195,2.517029 -6.625,5.875 -0.01952,0.164933 -0.117462,0.2838 -0.28125,0.3125 -1.1668,0.207027 -2.330399,0.3125 -3.4375,0.3125 -2.984922,0 -6.007445,-0.705153 -8.71875,-2.0625 -0.09528,-0.04745 -0.15918,-0.14744 -0.1875,-0.25 -0.02833,-0.10294 -0.02577,-0.19132 0.03125,-0.28125 l 3.90625,-6.15625 c 0.09988,-0.15498 0.298839,-0.19732 0.46875,-0.125 1.452663,0.622229 2.976159,0.9375 4.5,0.9375 5.52517,0 10.338198,-4.093189 11.21875,-9.5 0.02947,-0.181388 0.190931,-0.312117 0.375,-0.3125 z m -1.8125,12.9375 c 0.164725,-0.01661 0.330881,0 0.5,0 2.70591,0 4.90625,2.153745 4.90625,4.84375 0,2.690003 -2.20034,4.875 -4.90625,4.875 -2.70591,0 -4.90625,-2.184997 -4.90625,-4.875 0,-2.52188 1.935378,-4.594567 4.40625,-4.84375 z"
       inkscape:connector-curvature="0"
       id="path4975"
       style="opacity:0.05;fill:#ffffff;fill-opacity:1;display:inline;overflow:visible" />
    <path
       d="m 58.15625,27.34375 c -2.85604,0 -5.145433,2.122399 -5.625,4.84375 -0.176198,-0.363806 -0.431587,-0.662297 -0.9375,-0.75 -1.198636,-0.207722 -2.384656,-0.34375 -3.53125,-0.34375 -3.12121,4.04e-4 -6.267114,0.759447 -9.09375,2.15625 -0.449852,0.223163 -0.631255,0.593608 -0.71875,0.90625 -0.07772,0.273996 -0.05031,0.795641 0.15625,1.125 l 3.875,6.15625 c 0.358291,0.568791 1.087756,0.809537 1.75,0.53125 1.312288,-0.554757 2.661246,-0.8125 4.03125,-0.8125 5.034528,0 9.431135,3.717275 10.21875,8.65625 C 58.3731,50.390257 58.990199,51 59.65625,51 l 7.3125,0 C 67.171394,51 67.640439,50.958589 68,50.5625 68.248157,50.289132 68.409449,49.868281 68.375,49.5 67.96059,45.242295 66.121767,41.139267 63.25,37.9375 c -0.0055,-0.0061 0.0055,-0.02511 0,-0.03125 -0.409689,-0.440885 -0.978275,-0.507213 -1.5,-0.3125 1.314613,-1.067464 2.21875,-2.62122 2.21875,-4.4375 0,-3.197129 -2.613096,-5.8125 -5.8125,-5.8125 z m 0,1.03125 c 2.643984,0 4.78125,2.139433 4.78125,4.78125 0,2.641819 -2.137266,4.78125 -4.78125,4.78125 -2.643984,0 -4.78125,-2.139431 -4.78125,-4.78125 0,-2.641817 2.137266,-4.78125 4.78125,-4.78125 z m -10.09375,3.75 c 1.074573,0 2.191111,0.112749 3.34375,0.3125 0.181008,0.03138 0.3125,0.223713 0.3125,0.40625 0,0.0061 3.83e-4,0.1231 0,0.125 3.83e-4,3.663728 3.00112,6.65625 6.6875,6.65625 1.263617,0 2.492772,-0.382741 3.59375,-1.09375 0.155751,-0.100634 0.376776,-0.07526 0.5,0.0625 2.730438,3.036524 4.450353,6.958189 4.84375,11 0.01,0.106383 -0.02219,0.20242 -0.09375,0.28125 -0.07156,0.07883 -0.174865,0.09375 -0.28125,0.09375 l -7.3125,0 c -0.184836,0 -0.31467,-0.129582 -0.34375,-0.3125 -0.868689,-5.447375 -5.709523,-9.53125 -11.25,-9.53125 -1.506237,0 -3.000912,0.298946 -4.4375,0.90625 -0.170295,0.07156 -0.3704,-1.18e-4 -0.46875,-0.15625 l -3.875,-6.15625 C 39.22461,34.628439 39.22091,34.54006 39.25,34.4375 c 0.0287,-0.102556 0.09183,-0.20254 0.1875,-0.25 2.690258,-1.329411 5.674137,-2.062118 8.625,-2.0625 z m -11.625,2.96875 c -0.100437,-0.0049 -0.216972,1.55e-4 -0.34375,0.03125 -0.07575,0.01858 -0.228059,0.01392 -0.53125,0.25 -3.337298,2.57033 -5.843265,6.15737 -7.0625,10.15625 -0.132155,0.433383 0.133223,0.860527 0.40625,1.21875 -0.964433,-0.678152 -2.082216,-1.15625 -3.34375,-1.15625 -3.264566,0 -5.9375,2.674985 -5.9375,5.9375 0,3.262517 2.672935,5.9375 5.9375,5.9375 1.22738,0 2.300778,-0.479989 3.25,-1.125 -0.165703,0.322094 -0.420369,0.645324 -0.3125,1 1.21027,3.967749 3.705137,7.530053 7,10.09375 0.186513,0.145632 0.595369,0.368573 1.09375,0.28125 0.513907,-0.08849 0.771206,-0.364973 0.9375,-0.625 l 3.90625,-6.125 c 0.374013,-0.586086 0.307222,-1.353672 -0.25,-1.84375 -2.232713,-1.964426 -3.5,-4.752959 -3.5,-7.6875 0,-2.959656 1.275118,-5.753556 3.53125,-7.71875 C 41.72383,43.277341 41.919217,42.540285 41.5,41.875 L 37.625,35.75 c -0.169464,-0.267929 -0.431592,-0.536053 -0.9375,-0.625 -0.06522,-0.01149 -0.149563,-0.02635 -0.25,-0.03125 z M 36.34375,36.125 c 0.05051,-0.01239 0.10401,-0.0092 0.15625,0 0.104473,0.01837 0.19336,0.09795 0.25,0.1875 l 3.875,6.125 c 0.09911,0.15728 0.04593,0.377928 -0.09375,0.5 -2.47825,2.158669 -3.875,5.245734 -3.875,8.5 0,3.230157 1.391137,6.310848 3.84375,8.46875 0.13967,0.12284 0.16238,0.343486 0.0625,0.5 l -3.90625,6.125 c -0.05702,0.08916 -0.145526,0.16951 -0.25,0.1875 C 36.301395,66.73712 36.20881,66.69044 36.125,66.625 33.000016,64.193484 30.646133,60.788733 29.5,57.03125 c -0.04516,-0.148478 0.0037,-0.3102 0.125,-0.40625 1.590428,-1.259384 2.53125,-3.199121 2.53125,-5.1875 0,-1.988378 -0.941205,-3.928118 -2.53125,-5.1875 -0.122013,-0.09643 -0.17016,-0.258154 -0.125,-0.40625 1.155319,-3.789245 3.523482,-7.219377 6.6875,-9.65625 0.04152,-0.03233 0.10574,-0.05011 0.15625,-0.0625 z m -10.78125,10.5 c 2.70591,0 4.90625,2.202298 4.90625,4.90625 0,2.703954 -2.20034,4.90625 -4.90625,4.90625 -2.70591,0 -4.90625,-2.202296 -4.90625,-4.90625 0,-2.703952 2.20034,-4.90625 4.90625,-4.90625 z m 34.09375,5.3125 c -0.670311,0.0014 -1.293882,0.495802 -1.40625,1.1875 -0.798124,4.900684 -5.170838,8.625 -10.1875,8.625 -1.381829,0 -2.764879,-0.274546 -4.09375,-0.84375 -0.569653,-0.242464 -1.359104,-0.106538 -1.75,0.5 L 38.3125,67.5625 c -0.212917,0.335806 -0.228796,0.861398 -0.15625,1.125 0.08838,0.320062 0.271245,0.652142 0.71875,0.875 2.857564,1.430568 6.040422,2.1875 9.1875,2.1875 1.172495,0 2.401491,-0.126661 3.625,-0.34375 0.285555,-0.05004 0.54738,-0.211943 0.75,-0.4375 0.122558,3.145693 2.723263,5.6875 5.90625,5.6875 3.260177,0 5.9375,-2.654788 5.9375,-5.90625 0,-2.022786 -1.088222,-3.725489 -2.65625,-4.78125 0.383441,0.01446 0.781394,-0.05712 1.0625,-0.34375 3.22076,-3.284423 5.23065,-7.601153 5.6875,-12.15625 C 68.41305,53.093216 68.246522,52.677657 68,52.40625 67.733363,52.112672 67.375353,51.93604 66.96875,51.9375 l -7.3125,0 z m 0,1.03125 7.3125,0 c 0.106386,-3.82e-4 0.2093,0.04578 0.28125,0.125 0.07195,0.07921 0.10449,0.175242 0.09375,0.28125 -0.433196,4.319248 -2.350531,8.41513 -5.40625,11.53125 -0.116718,0.11901 -0.290167,0.13942 -0.4375,0.0625 -0.968951,-0.50513 -2.045965,-0.75 -3.09375,-0.75 -3.379851,0 -6.236195,2.517029 -6.625,5.875 -0.01952,0.164933 -0.117462,0.2838 -0.28125,0.3125 -1.1668,0.207027 -2.330399,0.3125 -3.4375,0.3125 -2.984922,0 -6.007445,-0.705153 -8.71875,-2.0625 -0.09528,-0.04745 -0.15918,-0.14744 -0.1875,-0.25 -0.02833,-0.10294 -0.02577,-0.19132 0.03125,-0.28125 l 3.90625,-6.15625 c 0.09988,-0.15498 0.298839,-0.19732 0.46875,-0.125 1.452663,0.622229 2.976159,0.9375 4.5,0.9375 5.52517,0 10.338198,-4.093189 11.21875,-9.5 0.02947,-0.181388 0.190931,-0.312117 0.375,-0.3125 z m -1.8125,12.9375 c 0.164725,-0.01661 0.330881,0 0.5,0 2.70591,0 4.90625,2.153745 4.90625,4.84375 0,2.690003 -2.20034,4.875 -4.90625,4.875 -2.70591,0 -4.90625,-2.184997 -4.90625,-4.875 0,-2.52188 1.935378,-4.594567 4.40625,-4.84375 z"
       inkscape:connector-curvature="0"
       id="path4964"
       style="opacity:0.1;fill:#ffffff;fill-opacity:1;display:inline;overflow:visible" />
    <path
       d="m 58.161417,28.368764 c -2.643984,0 -4.784898,2.142985 -4.784898,4.784802 0,2.641819 2.140914,4.784803 4.784898,4.784803 2.643984,0 4.784898,-2.142984 4.784898,-4.784803 0,-2.641817 -2.140914,-4.784802 -4.784898,-4.784802 z m -10.10517,3.747538 c -2.950863,3.82e-4 -5.942635,0.745118 -8.632893,2.074529 -0.09567,0.04746 -0.155333,0.131665 -0.184034,0.234221 -0.02909,0.10256 -0.02318,0.210831 0.03346,0.301142 l 3.881456,6.139938 c 0.09835,0.156132 0.298157,0.222132 0.468452,0.150571 1.436588,-0.607304 2.927321,-0.903424 4.433558,-0.903424 5.540477,0 10.374149,4.1055 11.242838,9.552875 0.02908,0.182918 0.183233,0.317872 0.368069,0.317872 l 7.29446,0 c 0.106385,0 0.212856,-0.03828 0.284417,-0.117111 0.07156,-0.07883 0.110332,-0.178028 0.100381,-0.284411 -0.393397,-4.041811 -2.121381,-7.955138 -4.851819,-10.991662 -0.123224,-0.137763 -0.329431,-0.150834 -0.485182,-0.0502 -1.100978,0.711009 -2.350152,1.087455 -3.613769,1.087455 -3.68638,0 -6.675052,-2.994844 -6.675435,-6.658572 3.83e-4,-0.0019 0,-0.127718 0,-0.13384 0,-0.182537 -0.136869,-0.353413 -0.317877,-0.384792 -1.152639,-0.199751 -2.27151,-0.334596 -3.346083,-0.334596 z m -11.711289,4.015219 c -0.05051,0.01239 -0.109052,0.03459 -0.150573,0.06692 -3.164018,2.436873 -5.536846,5.86401 -6.692165,9.653255 -0.04516,0.148096 -0.0049,0.305088 0.117113,0.401522 1.590045,1.259382 2.543022,3.197946 2.543022,5.186324 0,1.988379 -0.952594,3.926941 -2.543022,5.186325 -0.12131,0.09605 -0.16227,0.253044 -0.117113,0.401522 1.146133,3.757483 3.50026,7.171549 6.625244,9.603065 0.08381,0.06544 0.179561,0.102022 0.284416,0.08365 0.104474,-0.01799 0.193937,-0.09487 0.250957,-0.18403 l 3.914916,-6.123209 c 0.09988,-0.156514 0.07275,-0.362333 -0.06692,-0.485173 -2.452613,-2.157902 -3.864726,-5.251993 -3.864726,-8.48215 0,-3.254266 1.419936,-6.356941 3.898186,-8.51561 0.13968,-0.122072 0.182767,-0.327892 0.08366,-0.485172 l -3.88146,-6.139942 c -0.05664,-0.08955 -0.146484,-0.148932 -0.250957,-0.1673 -0.05224,-0.0092 -0.100059,-0.01239 -0.150574,0 z M 25.553843,46.63801 c -2.70591,0 -4.902011,2.19796 -4.902011,4.901912 0,2.703954 2.196101,4.885184 4.902011,4.885184 2.70591,0 4.902011,-2.18123 4.902011,-4.885184 0,-2.703952 -2.196101,-4.901912 -4.902011,-4.901912 z m 41.407771,6.323969 -7.29446,0.01673 c -0.184069,3.83e-4 -0.355332,0.136484 -0.384799,0.317872 -0.880552,5.406811 -5.700938,9.485954 -11.226108,9.485954 -1.523841,0 -3.031087,-0.314655 -4.48375,-0.936884 -0.169911,-0.07232 -0.368571,-0.02114 -0.468451,0.13384 l -3.914917,6.13994 c -0.05702,0.08993 -0.06179,0.198201 -0.03346,0.301141 0.02832,0.10256 0.08875,0.186769 0.184035,0.234221 2.711305,1.357347 5.731622,2.074529 8.716544,2.074529 1.107101,0 2.262936,-0.110844 3.429736,-0.317871 0.163788,-0.0287 0.281631,-0.152938 0.301147,-0.317871 0.388805,-3.357971 3.228662,-5.888988 6.608513,-5.888988 1.047785,0 2.126175,0.264453 3.095126,0.769583 0.147333,0.07692 0.318273,0.05209 0.434991,-0.06692 3.055719,-3.11612 4.987457,-7.224505 5.420653,-11.543753 0.01074,-0.106008 -0.02843,-0.205198 -0.100381,-0.284412 -0.07195,-0.07922 -0.178031,-0.117493 -0.284417,-0.117111 z M 58.345451,65.89433 c -2.70591,0 -4.90201,2.178449 -4.90201,4.868454 0,2.690003 2.1961,4.868452 4.90201,4.868452 2.70591,0 4.902011,-2.178449 4.902011,-4.868452 0,-2.690005 -2.196101,-4.868454 -4.902011,-4.868454 z"
       inkscape:connector-curvature="0"
       id="path3324"
       style="opacity:0.9;fill:url(#linearGradient3092);fill-opacity:1;display:inline;overflow:visible" />
    <path
       d="m 58.15625,28.375 c -2.643984,0 -4.78125,2.139433 -4.78125,4.78125 0,2.641819 2.137266,4.78125 4.78125,4.78125 2.643984,0 4.78125,-2.139431 4.78125,-4.78125 0,-2.641817 -2.137266,-4.78125 -4.78125,-4.78125 z m 0,1.96875 c 1.581287,0 2.8125,1.233174 2.8125,2.8125 0,1.579329 -1.231212,2.8125 -2.8125,2.8125 -1.581288,0 -2.8125,-1.233171 -2.8125,-2.8125 0,-1.579326 1.231213,-2.8125 2.8125,-2.8125 z M 48.0625,32.125 c -2.950863,3.82e-4 -5.934742,0.733089 -8.625,2.0625 -0.09567,0.04746 -0.158799,0.147444 -0.1875,0.25 -0.02909,0.10256 -0.02539,0.190939 0.03125,0.28125 l 3.875,6.15625 c 0.09835,0.156132 0.298455,0.227811 0.46875,0.15625 1.436588,-0.607304 2.931263,-0.90625 4.4375,-0.90625 5.540477,0 10.381311,4.083875 11.25,9.53125 0.02908,0.182918 0.158914,0.3125 0.34375,0.3125 l 7.3125,0 c 0.106385,0 0.209689,-0.01492 0.28125,-0.09375 0.07156,-0.07883 0.103701,-0.174867 0.09375,-0.28125 -0.393397,-4.041811 -2.113312,-7.963476 -4.84375,-11 -0.123224,-0.137763 -0.344249,-0.163134 -0.5,-0.0625 -1.100978,0.711009 -2.330133,1.09375 -3.59375,1.09375 -3.68638,0 -6.687117,-2.992522 -6.6875,-6.65625 3.83e-4,-0.0019 0,-0.118878 0,-0.125 0,-0.182537 -0.131492,-0.374871 -0.3125,-0.40625 C 50.253611,32.237749 49.137073,32.125 48.0625,32.125 z m 0,1.96875 c 0.614843,0 1.29727,0.106002 1.96875,0.1875 0.286501,1.762248 0.963425,3.386345 2.15625,4.625 -1.31745,-0.434218 -2.683361,-0.75 -4.125,-0.75 -1.310631,0 -2.603148,0.266789 -3.875,0.65625 L 42,35.34375 c 1.971083,-0.74318 4.01878,-1.249735 6.0625,-1.25 z M 36.34375,36.125 c -0.05051,0.01239 -0.114729,0.03017 -0.15625,0.0625 -3.164018,2.436873 -5.532181,5.867005 -6.6875,9.65625 -0.04516,0.148096 0.003,0.309816 0.125,0.40625 1.590045,1.259382 2.53125,3.199122 2.53125,5.1875 0,1.988379 -0.940822,3.928116 -2.53125,5.1875 -0.12131,0.09605 -0.170157,0.257772 -0.125,0.40625 1.146133,3.757483 3.500016,7.162234 6.625,9.59375 0.08381,0.06544 0.176395,0.112122 0.28125,0.09375 0.104474,-0.01799 0.19298,-0.09834 0.25,-0.1875 l 3.90625,-6.125 c 0.09988,-0.156514 0.07717,-0.37716 -0.0625,-0.5 -2.452613,-2.157902 -3.84375,-5.238593 -3.84375,-8.46875 0,-3.254266 1.39675,-6.341331 3.875,-8.5 0.13968,-0.122072 0.192857,-0.34272 0.09375,-0.5 l -3.875,-6.125 c -0.05664,-0.08955 -0.145527,-0.169132 -0.25,-0.1875 -0.05224,-0.0092 -0.105735,-0.01239 -0.15625,0 z m -0.1875,2.90625 2.15625,3.4375 c -2.274305,2.445787 -3.625,5.617106 -3.625,8.96875 0,3.332632 1.309469,6.49517 3.5625,8.9375 l -2.15625,3.375 c -1.951468,-1.883402 -3.515395,-4.125984 -4.40625,-6.65625 1.444261,-1.575752 2.4375,-3.506815 2.4375,-5.65625 0,-2.149643 -0.993471,-4.08061 -2.4375,-5.65625 0.904036,-2.572452 2.477636,-4.85265 4.46875,-6.75 z m 25.46875,1.8125 c 1.648188,2.098801 2.734857,4.551942 3.28125,7.15625 l -4.125,0 c -0.749125,-2.712541 -2.196611,-5.099071 -4.3125,-6.8125 0.64404,0.154138 1.248501,0.40625 1.9375,0.40625 1.124909,0 2.192972,-0.320003 3.21875,-0.75 z M 25.5625,46.625 c -2.70591,0 -4.90625,2.202298 -4.90625,4.90625 0,2.703954 2.20034,4.90625 4.90625,4.90625 2.70591,0 4.90625,-2.202296 4.90625,-4.90625 0,-2.703952 -2.20034,-4.90625 -4.90625,-4.90625 z m 0,1.96875 c 1.637022,0 2.9375,1.302259 2.9375,2.9375 0,1.635244 -1.300477,2.9375 -2.9375,2.9375 -1.637023,0 -2.9375,-1.302256 -2.9375,-2.9375 0,-1.635241 1.300478,-2.9375 2.9375,-2.9375 z m 34.09375,4.375 c -0.184069,3.83e-4 -0.345533,0.131112 -0.375,0.3125 -0.880552,5.406811 -5.69358,9.5 -11.21875,9.5 -1.523841,0 -3.047337,-0.315271 -4.5,-0.9375 -0.169911,-0.07232 -0.36887,-0.02998 -0.46875,0.125 L 39.1875,68.125 c -0.05702,0.08993 -0.05958,0.17831 -0.03125,0.28125 0.02832,0.10256 0.09222,0.202548 0.1875,0.25 2.711305,1.357347 5.733828,2.0625 8.71875,2.0625 1.107101,0 2.2707,-0.105473 3.4375,-0.3125 0.163788,-0.0287 0.261734,-0.147567 0.28125,-0.3125 0.388805,-3.357971 3.245149,-5.875 6.625,-5.875 1.047785,0 2.124799,0.24487 3.09375,0.75 0.147333,0.07692 0.320782,0.05651 0.4375,-0.0625 3.055719,-3.11612 4.973054,-7.212002 5.40625,-11.53125 0.01074,-0.106008 -0.0218,-0.202036 -0.09375,-0.28125 -0.07195,-0.07922 -0.174864,-0.125382 -0.28125,-0.125 l -7.3125,0 z m 1.09375,1.96875 4.15625,0 c -0.608044,2.884008 -1.85883,5.579702 -3.8125,7.8125 -0.886502,-0.289084 -1.783205,-0.5 -2.6875,-0.5 -3.886135,0 -7.144805,2.669773 -8.1875,6.3125 -0.730906,0.09131 -1.472082,0.1875 -2.15625,0.1875 -2.088638,0 -4.168439,-0.500183 -6.15625,-1.25 l 2.1875,-3.4375 c 1.296091,0.407234 2.627008,0.6875 3.96875,0.6875 6.00668,0 11.105875,-4.15955 12.6875,-9.8125 z m -2.90625,10.96875 c -2.470872,0.249183 -4.40625,2.32187 -4.40625,4.84375 0,2.690003 2.20034,4.875 4.90625,4.875 2.70591,0 4.90625,-2.184997 4.90625,-4.875 0,-2.690005 -2.20034,-4.84375 -4.90625,-4.84375 -0.169119,0 -0.335275,-0.01661 -0.5,0 z m 0.5,1.96875 c 1.660587,0 2.9375,1.259247 2.9375,2.875 0,1.61575 -1.292081,2.90625 -2.9375,2.90625 -1.645419,0 -2.9375,-1.2905 -2.9375,-2.90625 0,-1.615753 1.276913,-2.875 2.9375,-2.875 z"
       inkscape:connector-curvature="0"
       id="path4936"
       style="opacity:0.25;fill:url(#linearGradient4946);fill-opacity:1;display:inline;overflow:visible" />
    <path
       d="m 58.15625,28.375 c -2.643984,0 -4.78125,2.139433 -4.78125,4.78125 0,2.641819 2.137266,4.78125 4.78125,4.78125 2.643984,0 4.78125,-2.139431 4.78125,-4.78125 0,-2.641817 -2.137266,-4.78125 -4.78125,-4.78125 z m 0,0.96875 c 2.115013,0 3.8125,1.699552 3.8125,3.8125 0,2.112951 -1.697487,3.8125 -3.8125,3.8125 -2.115013,0 -3.8125,-1.699549 -3.8125,-3.8125 0,-2.112948 1.697487,-3.8125 3.8125,-3.8125 z M 48.0625,32.125 c -2.950863,3.82e-4 -5.934742,0.733089 -8.625,2.0625 -0.09567,0.04746 -0.158799,0.147444 -0.1875,0.25 -0.02909,0.10256 -0.02539,0.190939 0.03125,0.28125 l 3.875,6.15625 c 0.09835,0.156132 0.298455,0.227811 0.46875,0.15625 1.436588,-0.607304 2.931263,-0.90625 4.4375,-0.90625 5.540477,0 10.381311,4.083875 11.25,9.53125 0.02908,0.182918 0.158914,0.3125 0.34375,0.3125 l 7.3125,0 c 0.106385,0 0.209689,-0.01492 0.28125,-0.09375 0.07156,-0.07883 0.103701,-0.174867 0.09375,-0.28125 -0.393397,-4.041811 -2.113312,-7.963476 -4.84375,-11 -0.123224,-0.137763 -0.344249,-0.163134 -0.5,-0.0625 -1.100978,0.711009 -2.330133,1.09375 -3.59375,1.09375 -3.68638,0 -6.687117,-2.992522 -6.6875,-6.65625 3.83e-4,-0.0019 0,-0.118878 0,-0.125 0,-0.182537 -0.131492,-0.374871 -0.3125,-0.40625 C 50.253611,32.237749 49.137073,32.125 48.0625,32.125 z m 0,0.96875 c 0.878031,0 1.824075,0.132953 2.78125,0.28125 0.226643,4.000927 3.490566,7.21875 7.5625,7.21875 1.26485,0 2.477564,-0.388718 3.59375,-1 2.274819,2.650907 3.710685,5.962793 4.1875,9.40625 l -6.09375,0 c -1.168307,-5.659111 -6.192504,-9.84375 -12.03125,-9.84375 -1.463936,0 -2.907895,0.286542 -4.3125,0.8125 L 40.53125,34.8125 c 2.389444,-1.073593 4.972948,-1.718419 7.53125,-1.71875 z M 36.34375,36.125 c -0.05051,0.01239 -0.114729,0.03017 -0.15625,0.0625 -3.164018,2.436873 -5.532181,5.867005 -6.6875,9.65625 -0.04516,0.148096 0.003,0.309816 0.125,0.40625 1.590045,1.259382 2.53125,3.199122 2.53125,5.1875 0,1.988379 -0.940822,3.928116 -2.53125,5.1875 -0.12131,0.09605 -0.170157,0.257772 -0.125,0.40625 1.146133,3.757483 3.500016,7.162234 6.625,9.59375 0.08381,0.06544 0.176395,0.112122 0.28125,0.09375 0.104474,-0.01799 0.19298,-0.09834 0.25,-0.1875 l 3.90625,-6.125 c 0.09988,-0.156514 0.07717,-0.37716 -0.0625,-0.5 -2.452613,-2.157902 -3.84375,-5.238593 -3.84375,-8.46875 0,-3.254266 1.39675,-6.341331 3.875,-8.5 0.13968,-0.122072 0.192857,-0.34272 0.09375,-0.5 l -3.875,-6.125 c -0.05664,-0.08955 -0.145527,-0.169132 -0.25,-0.1875 -0.05224,-0.0092 -0.105735,-0.01239 -0.15625,0 z m -0.03125,1.34375 3.21875,5.09375 c -2.451596,2.32153 -3.84375,5.510965 -3.84375,8.875 0,3.342003 1.385449,6.523854 3.8125,8.84375 l -3.25,5.0625 C 33.62479,63.134193 31.6065,60.235646 30.5625,57 c 1.575462,-1.440197 2.5625,-3.443469 2.5625,-5.5625 0,-2.119146 -0.987367,-4.122353 -2.5625,-5.5625 1.053159,-3.26727 3.091915,-6.190033 5.75,-8.40625 z m -10.75,9.15625 c -2.70591,0 -4.90625,2.202298 -4.90625,4.90625 0,2.703954 2.20034,4.90625 4.90625,4.90625 2.70591,0 4.90625,-2.202296 4.90625,-4.90625 0,-2.703952 -2.20034,-4.90625 -4.90625,-4.90625 z m 0,0.96875 c 2.173857,0 3.9375,1.765513 3.9375,3.9375 0,2.17199 -1.763642,3.9375 -3.9375,3.9375 -2.173858,0 -3.9375,-1.76551 -3.9375,-3.9375 0,-2.171987 1.763643,-3.9375 3.9375,-3.9375 z m 34.09375,5.375 c -0.184069,3.83e-4 -0.345533,0.131112 -0.375,0.3125 -0.880552,5.406811 -5.69358,9.5 -11.21875,9.5 -1.523841,0 -3.047337,-0.315271 -4.5,-0.9375 -0.169911,-0.07232 -0.36887,-0.02998 -0.46875,0.125 L 39.1875,68.125 c -0.05702,0.08993 -0.05958,0.17831 -0.03125,0.28125 0.02832,0.10256 0.09222,0.202548 0.1875,0.25 2.711305,1.357347 5.733828,2.0625 8.71875,2.0625 1.107101,0 2.2707,-0.105473 3.4375,-0.3125 0.163788,-0.0287 0.261734,-0.147567 0.28125,-0.3125 0.388805,-3.357971 3.245149,-5.875 6.625,-5.875 1.047785,0 2.124799,0.24487 3.09375,0.75 0.147333,0.07692 0.320782,0.05651 0.4375,-0.0625 3.055719,-3.11612 4.973054,-7.212002 5.40625,-11.53125 0.01074,-0.106008 -0.0218,-0.202036 -0.09375,-0.28125 -0.07195,-0.07922 -0.174864,-0.125382 -0.28125,-0.125 l -7.3125,0 z m 0.40625,0.96875 6.1875,0 C 65.733072,57.677983 64.078775,61.206768 61.46875,63.96875 60.483807,63.541221 59.437814,63.25 58.40625,63.25 c -3.684389,0 -6.762523,2.64237 -7.4375,6.21875 C 49.984532,69.623912 48.988047,69.75 48.0625,69.75 45.450417,69.75 42.821341,69.100163 40.40625,68 l 3.25,-5.09375 c 1.431105,0.548547 2.909753,0.84375 4.40625,0.84375 5.825022,0 10.820137,-4.193678 12,-9.8125 z m -2.21875,11.96875 c -2.470872,0.249183 -4.40625,2.32187 -4.40625,4.84375 0,2.690003 2.20034,4.875 4.90625,4.875 2.70591,0 4.90625,-2.184997 4.90625,-4.875 0,-2.690005 -2.20034,-4.84375 -4.90625,-4.84375 -0.169119,0 -0.335275,-0.01661 -0.5,0 z m 0.5,0.96875 c 2.185587,0 3.9375,1.719718 3.9375,3.875 0,2.15528 -1.759463,3.90625 -3.9375,3.90625 -2.178037,0 -3.9375,-1.75097 -3.9375,-3.90625 0,-2.155282 1.751913,-3.875 3.9375,-3.875 z m -18.3125,1.71875 c -0.0089,0.02197 0.01126,0.04475 0,0.0625 l -0.03125,0 0.03125,-0.0625 z"
       inkscape:connector-curvature="0"
       id="path4923"
       style="opacity:0.5;fill:url(#linearGradient4933);fill-opacity:1;display:inline;overflow:visible" />
    <path
       d="m 58.15625,28.375 c -2.643984,0 -4.78125,2.139433 -4.78125,4.78125 0,0.170901 0.04502,0.333719 0.0625,0.5 0.252665,-2.404116 2.245807,-4.28125 4.71875,-4.28125 2.472943,0 4.466085,1.877134 4.71875,4.28125 0.01748,-0.166281 0.0625,-0.329099 0.0625,-0.5 0,-2.641817 -2.137266,-4.78125 -4.78125,-4.78125 z m -10.09375,3.75 c -2.950863,3.82e-4 -5.934742,0.733089 -8.625,2.0625 -0.09567,0.04746 -0.158799,0.147444 -0.1875,0.25 -0.02909,0.10256 -0.02539,0.190939 0.03125,0.28125 l 0.25,0.40625 c 2.663788,-1.298062 5.617598,-1.999623 8.53125,-2 1.074573,0 2.191111,0.112749 3.34375,0.3125 0.181008,0.03138 0.3125,0.223713 0.3125,0.40625 0,0.0061 3.83e-4,0.1231 0,0.125 3.83e-4,3.663728 3.00112,6.65625 6.6875,6.65625 1.263617,0 2.492772,-0.382741 3.59375,-1.09375 0.155751,-0.100634 0.376776,-0.07526 0.5,0.0625 2.570512,2.85867 4.233537,6.49276 4.75,10.28125 0.07156,-0.07883 0.103701,-0.174867 0.09375,-0.28125 -0.393397,-4.041811 -2.113312,-7.963476 -4.84375,-11 -0.123224,-0.137763 -0.344249,-0.163134 -0.5,-0.0625 -1.100978,0.711009 -2.330133,1.09375 -3.59375,1.09375 -3.68638,0 -6.687117,-2.992522 -6.6875,-6.65625 3.83e-4,-0.0019 0,-0.118878 0,-0.125 0,-0.182537 -0.131492,-0.374871 -0.3125,-0.40625 C 50.253611,32.237749 49.137073,32.125 48.0625,32.125 z m -11.71875,4 c -0.05051,0.01239 -0.114729,0.03017 -0.15625,0.0625 -3.164018,2.436873 -5.532181,5.867005 -6.6875,9.65625 -0.04516,0.148096 0.003,0.309816 0.125,0.40625 0.0233,0.01846 0.03947,0.04375 0.0625,0.0625 1.209374,-3.576565 3.485271,-6.803107 6.5,-9.125 0.04152,-0.03233 0.10574,-0.05011 0.15625,-0.0625 0.05051,-0.01239 0.10401,-0.0092 0.15625,0 0.104473,0.01837 0.19336,0.09795 0.25,0.1875 l 3.65625,5.75 c 0.04434,-0.03986 0.07996,-0.08576 0.125,-0.125 0.13968,-0.122072 0.192857,-0.34272 0.09375,-0.5 l -3.875,-6.125 c -0.05664,-0.08955 -0.145527,-0.169132 -0.25,-0.1875 -0.05224,-0.0092 -0.105735,-0.01239 -0.15625,0 z m -10.78125,10.5 c -2.70591,0 -4.90625,2.202298 -4.90625,4.90625 0,0.168997 0.0145,0.335492 0.03125,0.5 0.25118,-2.469463 2.338209,-4.40625 4.875,-4.40625 2.536791,0 4.62382,1.936787 4.875,4.40625 0.01675,-0.164508 0.03125,-0.331003 0.03125,-0.5 0,-2.703952 -2.20034,-4.90625 -4.90625,-4.90625 z m 6.5625,5.3125 c -0.143643,1.810907 -1.042223,3.533156 -2.5,4.6875 -0.12131,0.09605 -0.170157,0.257772 -0.125,0.40625 0.05516,0.180846 0.126789,0.352066 0.1875,0.53125 1.548632,-1.26041 2.46875,-3.165761 2.46875,-5.125 0,-0.165842 -0.01817,-0.335216 -0.03125,-0.5 z m 4.5625,0 c -0.0074,0.166076 -0.03125,0.333019 -0.03125,0.5 0,3.156769 1.337003,6.162455 3.6875,8.3125 l 0.21875,-0.34375 c 0.09988,-0.156514 0.07717,-0.37716 -0.0625,-0.5 -2.326766,-2.047177 -3.675949,-4.919583 -3.8125,-7.96875 z m 22.96875,1.03125 c -0.184069,3.83e-4 -0.345533,0.131112 -0.375,0.3125 -0.880552,5.406811 -5.69358,9.5 -11.21875,9.5 -1.523841,0 -3.047337,-0.315271 -4.5,-0.9375 -0.169911,-0.07232 -0.36887,-0.02998 -0.46875,0.125 L 39.1875,68.125 c -0.05702,0.08993 -0.05958,0.17831 -0.03125,0.28125 0.02832,0.10256 0.09222,0.202548 0.1875,0.25 0.04178,0.02092 0.08307,0.04189 0.125,0.0625 l 3.625,-5.75 c 0.09988,-0.15498 0.298839,-0.19732 0.46875,-0.125 1.452663,0.622229 2.976159,0.9375 4.5,0.9375 5.52517,0 10.338198,-4.093189 11.21875,-9.5 0.02947,-0.181388 0.190931,-0.312117 0.375,-0.3125 l 7.3125,0 c 0.106386,-3.82e-4 0.2093,0.04578 0.28125,0.125 0.03384,-0.241786 0.06935,-0.475487 0.09375,-0.71875 0.01074,-0.106008 -0.0218,-0.202036 -0.09375,-0.28125 -0.07195,-0.07922 -0.174864,-0.125382 -0.28125,-0.125 l -7.3125,0 z m -1.8125,12.9375 c -2.470872,0.249183 -4.40625,2.32187 -4.40625,4.84375 0,0.168125 0.0145,0.336278 0.03125,0.5 0.25118,-2.455827 2.338209,-4.34375 4.875,-4.34375 2.536791,0 4.62382,1.887923 4.875,4.34375 0.01675,-0.163722 0.03125,-0.331875 0.03125,-0.5 0,-2.690005 -2.20034,-4.84375 -4.90625,-4.84375 -0.169119,0 -0.335275,-0.01661 -0.5,0 z"
       inkscape:connector-curvature="0"
       id="path4914"
       style="fill:url(#linearGradient4920);fill-opacity:1;display:inline;overflow:visible" />
    <path
       d="m 53.4375,33.65625 c -0.01748,0.166281 -0.0625,0.329099 -0.0625,0.5 0,2.641819 2.137266,4.78125 4.78125,4.78125 2.643984,0 4.78125,-2.139431 4.78125,-4.78125 0,-0.170901 -0.04502,-0.333719 -0.0625,-0.5 -0.252665,2.404117 -2.245807,4.28125 -4.71875,4.28125 -2.472943,0 -4.466085,-1.877133 -4.71875,-4.28125 z M 39.53125,35.125 c -0.03402,0.01658 -0.05983,0.04574 -0.09375,0.0625 -0.09567,0.04746 -0.158799,0.147444 -0.1875,0.25 -0.02909,0.10256 -0.02539,0.190939 0.03125,0.28125 l 3.875,6.15625 c 0.09835,0.156132 0.298455,0.227811 0.46875,0.15625 1.436588,-0.607304 2.931263,-0.90625 4.4375,-0.90625 5.540477,0 10.381311,4.083875 11.25,9.53125 0.02908,0.182918 0.158914,0.3125 0.34375,0.3125 l 7.3125,0 c 0.106385,0 0.209689,-0.01492 0.28125,-0.09375 0.07156,-0.07883 0.103701,-0.174867 0.09375,-0.28125 C 67.32071,50.357015 67.28213,50.110703 67.25,49.875 c -0.07156,0.07883 -0.174865,0.09375 -0.28125,0.09375 l -7.3125,0 c -0.184836,0 -0.31467,-0.129582 -0.34375,-0.3125 -0.868689,-5.447375 -5.709523,-9.53125 -11.25,-9.53125 -1.506237,0 -3.000912,0.298946 -4.4375,0.90625 -0.170295,0.07156 -0.3704,-1.18e-4 -0.46875,-0.15625 l -3.625,-5.75 z m 0.875,7.9375 c -2.395316,2.152869 -3.75,5.179883 -3.75,8.375 0,0.165744 0.02386,0.33508 0.03125,0.5 0.137338,-3.070547 1.492663,-5.952095 3.84375,-8 0.13968,-0.122072 0.192857,-0.34272 0.09375,-0.5 l -0.21875,-0.375 z m -10.71875,3.25 c -0.05989,0.177111 -0.132988,0.352461 -0.1875,0.53125 -0.04516,0.148096 0.003,0.309816 0.125,0.40625 1.457426,1.154343 2.356306,2.876593 2.5,4.6875 0.01307,-0.164784 0.03125,-0.334158 0.03125,-0.5 0,-1.959238 -0.920473,-3.864592 -2.46875,-5.125 z m -9,5.71875 c -0.01675,0.164631 -0.03125,0.331003 -0.03125,0.5 0,2.703954 2.20034,4.90625 4.90625,4.90625 2.70591,0 4.90625,-2.202296 4.90625,-4.90625 0,-0.168997 -0.0145,-0.335369 -0.03125,-0.5 -0.25118,2.467627 -2.338209,4.40625 -4.875,4.40625 -2.536791,0 -4.62382,-1.938623 -4.875,-4.40625 z m 46.5625,2.0625 c -0.566968,4.051231 -2.428881,7.871882 -5.3125,10.8125 -0.116718,0.11901 -0.290167,0.13942 -0.4375,0.0625 -0.968951,-0.50513 -2.045965,-0.75 -3.09375,-0.75 -3.379851,0 -6.236195,2.517029 -6.625,5.875 -0.01952,0.164933 -0.117462,0.2838 -0.28125,0.3125 -1.1668,0.207027 -2.330399,0.3125 -3.4375,0.3125 -2.938921,0 -5.914932,-0.683016 -8.59375,-2 L 39.1875,69.125 c -0.05702,0.08993 -0.05958,0.17831 -0.03125,0.28125 0.02832,0.10256 0.09222,0.202548 0.1875,0.25 2.711305,1.357347 5.733828,2.0625 8.71875,2.0625 1.107101,0 2.2707,-0.105473 3.4375,-0.3125 0.163788,-0.0287 0.261734,-0.147567 0.28125,-0.3125 0.388805,-3.357971 3.245149,-5.875 6.625,-5.875 1.047785,0 2.124799,0.24487 3.09375,0.75 0.147333,0.07692 0.320782,0.05651 0.4375,-0.0625 3.055719,-3.11612 4.973054,-7.212002 5.40625,-11.53125 0.01074,-0.106008 -0.0218,-0.202036 -0.09375,-0.28125 z M 29.6875,57.5625 c -0.02303,0.01875 -0.03919,0.04404 -0.0625,0.0625 -0.12131,0.09605 -0.170157,0.257772 -0.125,0.40625 1.146133,3.757483 3.500016,7.162234 6.625,9.59375 0.08381,0.06544 0.176395,0.112122 0.28125,0.09375 0.104474,-0.01799 0.19298,-0.09834 0.25,-0.1875 l 3.90625,-6.125 c 0.09988,-0.156514 0.07717,-0.37716 -0.0625,-0.5 C 40.44428,60.85722 40.398394,60.799984 40.34375,60.75 l -3.6875,5.78125 c -0.05702,0.08916 -0.145526,0.16951 -0.25,0.1875 C 36.301395,66.737122 36.20881,66.69044 36.125,66.625 33.15042,64.310512 30.88819,61.106262 29.6875,57.5625 z M 53.46875,71.25 c -0.01675,0.163722 -0.03125,0.331875 -0.03125,0.5 0,2.690003 2.20034,4.875 4.90625,4.875 2.70591,0 4.90625,-2.184997 4.90625,-4.875 0,-0.168125 -0.0145,-0.336278 -0.03125,-0.5 -0.25118,2.455826 -2.338209,4.375 -4.875,4.375 -2.536791,0 -4.62382,-1.919174 -4.875,-4.375 z"
       inkscape:connector-curvature="0"
       id="path4949"
       style="opacity:0.2;fill:#ffffff;fill-opacity:1;display:inline;overflow:visible" />
  </g>
</svg>
