/* XPM */
static char * close_active_xpm[] = {
"43 25 22 1",
" 	c None",
".	c #9A1212",
"+	c #AD5454",
"@	c #9F2222",
"#	c #9D1B1B",
"$	c #AF5A5A",
"%	c #D2D2D2",
"&	c #C8B0B0",
"*	c #C5A5A5",
"=	c #B26666",
"-	c #C9B2B2",
";	c #A12A2A",
">	c #CBBBBB",
",	c #A12B2B",
"'	c #D0CACA",
")	c #D1CECE",
"!	c #A53838",
"~	c #B05D5D",
"{	c #B56F6F",
"]	c #B36868",
"^	c #B67171",
"/	c #000000",
"...........................................",
"...........................................",
"...........................................",
"...........................................",
"..................+@...#$..................",
".................+%&@.#*%=.................",
".................@-%&;*%>,.................",
"..................@-%'%>,..................",
"...................;'%)!...................",
"..................#*%)%&@..................",
".................#*%>!-%&@.................",
".................~%>,.@-%{.................",
"..................],...@^..................",
"...........................................",
"...........................................",
"...........................................",
"...........................................",
"///////////////////////////////////////////",
"///////////////////////////////////////////",
"///////////////////////////////////////////",
"///////////////////////////////////////////",
"///////////////////////////////////////////",
"///////////////////////////////////////////",
"///////////////////////////////////////////",
"///////////////////////////////////////////"};
