/* XPM */
static char * close_pressed_xpm[] = {
"43 25 22 1",
" 	c None",
".	c #000000",
"+	c #5C5C5C",
"@	c #2E2E2E",
"#	c #282828",
"$	c #636363",
"%	c #D2D2D2",
"&	c #B2B2B2",
"*	c #A8A8A8",
"=	c #6D6D6D",
"-	c #B4B4B4",
";	c #363636",
">	c #BDBDBD",
",	c #373737",
"'	c #CACACA",
")	c #CBCBCB",
"!	c #CECECE",
"~	c #434343",
"{	c #656565",
"]	c #757575",
"^	c #6F6F6F",
"/	c #777777",
"...........................................",
"...........................................",
"...........................................",
"...........................................",
"..................+@...#$..................",
".................+%&@.#*%=.................",
".................@-%&;*%>,.................",
"..................@-%'%>,..................",
"...................;)%!~...................",
"..................#*%!%&@..................",
".................#*%>~-%&@.................",
".................{%>,.@-%].................",
"..................^,...@/..................",
"...........................................",
"...........................................",
"...........................................",
"...........................................",
"...........................................",
"...........................................",
"...........................................",
"...........................................",
"...........................................",
"...........................................",
"...........................................",
"..........................................."};
