/* XPM */
static char * close_inactive_xpm[] = {
"43 25 21 1",
" 	c None",
".	c #5C5C5C",
"+	c #848484",
"@	c #666666",
"#	c #626262",
"$	c #888888",
"%	c #D2D2D2",
"&	c #BDBDBD",
"*	c #B6B6B6",
"=	c #8F8F8F",
"-	c #BFBFBF",
";	c #6B6B6B",
">	c #C4C4C4",
",	c #CDCDCD",
"'	c #D0D0D0",
")	c #747474",
"!	c #8A8A8A",
"~	c #959595",
"{	c #919191",
"]	c #969696",
"^	c #000000",
"...........................................",
"...........................................",
"...........................................",
"...........................................",
"..................+@...#$..................",
".................+%&@.#*%=.................",
".................@-%&;*%>;.................",
"..................@-%,%>;..................",
"...................;,%')...................",
"..................#*%'%&@..................",
".................#*%>)-%&@.................",
".................!%>;.@-%~.................",
"..................{;...@]..................",
"...........................................",
"...........................................",
"...........................................",
"...........................................",
"^^^^^^^^^^^^^^^^^^^^^^^^^^^^^^^^^^^^^^^^^^^",
"^^^^^^^^^^^^^^^^^^^^^^^^^^^^^^^^^^^^^^^^^^^",
"^^^^^^^^^^^^^^^^^^^^^^^^^^^^^^^^^^^^^^^^^^^",
"^^^^^^^^^^^^^^^^^^^^^^^^^^^^^^^^^^^^^^^^^^^",
"^^^^^^^^^^^^^^^^^^^^^^^^^^^^^^^^^^^^^^^^^^^",
"^^^^^^^^^^^^^^^^^^^^^^^^^^^^^^^^^^^^^^^^^^^",
"^^^^^^^^^^^^^^^^^^^^^^^^^^^^^^^^^^^^^^^^^^^",
"^^^^^^^^^^^^^^^^^^^^^^^^^^^^^^^^^^^^^^^^^^^"};
