<svg xmlns="http://www.w3.org/2000/svg" width="48" height="48">
<defs>
  <path
     d="M 3.84375 7.125 C 2.823171 7.125 2 7.948173 2 8.96875 L 2 39.03125 C 2 40.05183 2.823171 40.875 3.84375 40.875 L 44.15625 40.875 C 45.176828 40.875 46 40.05183 46 39.03125 L 46 10.78125 C 46 9.7606715 45.176828 8.9375 44.15625 8.9375 L 15.6875 8.9375 L 14.0625 7.125 L 3.84375 7.125 z M 20.25 12.46875 C 20.627139 12.40595 21.098465 12.58266 21.25 13.0625 C 21.553069 14.022181 21.25 15.1375 26.25 16.9375 C 31.25 18.7375 31.345352 25.53534 28.9375 29.34375 C 31.866757 20.10322 23.917629 17.21786 22.90625 18.0625 L 27.28125 31.53125 C 28.42701 35.028604 25.05497 36.4375 22.84375 36.4375 C 20.63253 36.4375 18.0285 35.454853 17.9375 33.0625 C 17.8465 30.670147 21.904035 29.109056 24.9375 29.875 L 19.75 13.34375 C 19.589911 12.833875 19.872861 12.531554 20.25 12.46875 z "
     id="path-main" />
</defs>
<acyl-settings>
<linearGradient
     id="linearGradient4321">
    <stop
       style="stop-color:#FFFFFF;stop-opacity:1.0;"
       offset="1.0"
       id="stop1" />
  </linearGradient>
<linearGradient
     inkscape:collect="always"
     xlink:href="#linearGradient4321"
     id="acyl_gradient"
     x1="50.0%"
     y1="0.0%"
     x2="50.0%"
     y2="100.0%" />
<filter>
    </filter>
<use id="1" style="fill:url(#acyl_gradient);filter:url(#filter1111)" xlink:href="#path-main" />
</acyl-settings>
</svg>
