<svg xmlns="http://www.w3.org/2000/svg" width="48" height="48">
<defs>
  <path
     d="M 3.84375 7.125 C 2.823171 7.125 2 7.948173 2 8.96875 L 2 39.03125 C 2 40.05183 2.823171 40.875 3.84375 40.875 L 44.15625 40.875 C 45.176828 40.875 46 40.05183 46 39.03125 L 46 10.78125 C 46 9.7606715 45.176828 8.9375 44.15625 8.9375 L 15.6875 8.9375 L 14.0625 7.125 L 3.84375 7.125 z M 24.375 14.09375 C 25.102232 14.09375 25.777823 14.511299 26.125 15.1875 L 34.9375 32.9375 L 34.96875 32.9375 L 34.96875 32.96875 C 35.22622 33.596804 35.190405 34.317705 34.84375 34.9375 C 34.83705 34.94945 34.85065 34.95692 34.84375 34.96875 C 34.520768 35.60286 33.86447 35.968751 33.15625 35.96875 L 15.625 35.96875 C 14.941351 35.96875 14.319161 35.60616 13.96875 35 C 13.593971 34.351693 13.579089 33.630272 13.875 33 L 13.875 32.96875 L 22.59375 15.25 L 22.625 15.21875 C 22.968061 14.560562 23.604184 14.093751 24.375 14.09375 z M 24.375 19.5 C 24.30352 19.5 24.263198 19.569965 24.21875 19.6875 L 17.96875 32.21875 C 17.835854 32.453835 17.998812 32.59375 18.21875 32.59375 L 30.625 32.59375 C 30.84494 32.593752 30.974776 32.453838 30.84375 32.21875 L 24.5625 19.6875 C 24.496991 19.569961 24.446485 19.5 24.375 19.5 z M 23.28125 23.6875 L 25.78125 23.71875 L 24.84375 27.4375 L 24.21875 27.5 L 23.28125 23.6875 z M 24.375 28.65625 C 24.480871 28.63258 24.577263 28.64155 24.6875 28.65625 C 24.834485 28.67586 24.977248 28.758455 25.125 28.84375 C 25.716005 29.184966 25.830089 29.768278 25.5 30.4375 C 25.154289 31.036293 24.528505 31.309968 23.9375 30.96875 C 23.388706 30.651904 23.21679 29.942539 23.5625 29.34375 C 23.77192 28.981021 24.057401 28.727245 24.375 28.65625 z "
     id="path-main" />
</defs>
<acyl-settings>
<linearGradient
     id="linearGradient4321">
    <stop
       style="stop-color:#FFFFFF;stop-opacity:1.0;"
       offset="1.0"
       id="stop1" />
  </linearGradient>
<linearGradient
     inkscape:collect="always"
     xlink:href="#linearGradient4321"
     id="acyl_gradient"
     x1="50.0%"
     y1="0.0%"
     x2="50.0%"
     y2="100.0%" />
<filter>
    </filter>
<use id="1" style="fill:url(#acyl_gradient);filter:url(#filter1111)" xlink:href="#path-main" />
</acyl-settings>
</svg>
