<svg xmlns="http://www.w3.org/2000/svg" width="48" height="48">
<defs>
<defs
     id="defs3">
  </defs>
  <g
     id="layer1"
     inkscape:label="Layer 1"
     inkscape:groupmode="layer">
    <path
       id="path-main"
       d="m 25.807059,2.0046113 c -2.07188,-0.01939 -3.92487,0.028643 -3.92487,0.028643 2.359496,0.5987102 4.183169,4.7648086 4.211357,4.8119956 0.736106,1.2323393 2.807571,5.3562091 2.807571,5.3562091 l -5.156763,3.265283 5.758386,0.458285 -5.500548,5.499424 L 6.0394649,3.4653957 3.4610831,6.0432504 12.514068,15.094385 2,15.867742 6.6983847,19.362167 c -2e-7,-1e-6 -3.2586521,4.717324 -2.8075713,6.501923 0.4510807,1.784596 3.0081121,9.165706 3.0081121,9.165706 -0.640071,-2.40578 2.0076289,-6.081316 2.0340568,-6.129566 0.6902151,-1.259984 3.5810857,-6.129566 3.5810857,-6.129566 l 4.841628,2.864283 -3.351896,-9.051134 7.42001,7.418493 -5.729737,5.728566 -6.188117,0.171857 c -1.1744548,2.177394 -2.7443895,4.682753 -1.3464882,7.361208 l -4.6983847,4.697424 2.5783818,2.577855 5.3573041,-5.35621 c 2.828908,0.7222 6.388658,0.658784 6.388658,0.658785 L 18.15786,32.423298 24.002192,26.580161 27.841116,30.4183 23.314623,35.946366 30.906525,46 31.049769,39.669934 c 10e-7,0 3.757033,0.354043 5.815683,-0.229142 l 5.099467,5.098424 2.578382,-2.577855 -4.927575,-4.926567 c 2.038344,-2.377096 4.927575,-5.929066 4.927575,-5.929066 -1.713035,1.769158 -6.134177,1.259718 -6.188117,1.260284 -0.604439,0.0063 -2.097395,-0.03127 -3.466491,-0.05729 l -3.581086,-3.580354 -0.02865,-2.520569 -1.117298,1.374856 -3.581086,-3.580354 7.706497,-7.704922 1.776218,0.143214 1.289191,-3.207997 L 44.5433,6.0432454 41.964918,3.4653907 40.81897,4.6111039 40.84762,4.5251749 35.203829,8.5924565 c -2e-6,0 -2.415352,-5.7787609 -4.15406,-6.2441368 C 30.180416,2.115639 27.87894,2.0240015 25.807059,2.0046113 z m -6.216765,0.4296424 c -2.998575,0 -6.789739,7.3612073 -6.789739,7.3612073 l 8.394066,5.413496 4.068113,-7.9913505 C 23.96882,5.0830804 22.614236,2.4342537 19.590294,2.4342537 z m 23.405977,16.5269143 -8.852444,4.582853 4.58379,7.704921 c 2.449622,-0.04206 5.379126,0.14108 6.932982,-2.520569 1.540829,-2.639322 -2.664327,-9.767205 -2.664328,-9.767205 z"
        />
  </g>
</defs>
<acyl-settings>
<linearGradient
     id="linearGradient4321">
    <stop
       style="stop-color:#FFFFFF;stop-opacity:1.0;"
       offset="1.0"
       id="stop1" />
  </linearGradient>
<linearGradient
     inkscape:collect="always"
     xlink:href="#linearGradient4321"
     id="acyl_gradient"
     x1="50.0%"
     y1="0.0%"
     x2="50.0%"
     y2="100.0%" />
<filter>
    </filter>
<use id="1" style="fill:url(#acyl_gradient);filter:url(#filter1111)" xlink:href="#path-main" />
</acyl-settings>
</svg>
