/* XPM */
static char *top[] = {
/* columns rows colors chars-per-pixel */
"48 48 78 1",
"  c #000000",
". c #020202",
"X c #030303",
"o c #040404",
"O c #050505",
"+ c #070707",
"@ c #080808",
"# c #0C0C0C",
"$ c #0E0E0E",
"% c #121212",
"& c #131313",
"* c #171717",
"= c #181818",
"- c #1B1B1B",
"; c #1D1D1D",
": c #1F1F1F",
"> c #202020",
", c #212121",
"< c #232323",
"1 c #242424",
"2 c #272727",
"3 c #292929",
"4 c #2C2C2C",
"5 c #2D2D2D",
"6 c #303030",
"7 c #313131",
"8 c #343434",
"9 c #353535",
"0 c #373737",
"q c #383838",
"w c #4E4E4E",
"e c #535353",
"r c #686868",
"t c #727272",
"y c #767676",
"u c #8E8E8E",
"i c #979797",
"p c #9E9E9E",
"a c #A2A2A2",
"s c #A3A3A3",
"d c #A6A6A6",
"f c #A9A9A9",
"g c #ABABAB",
"h c #AEAEAE",
"j c #B0B0B0",
"k c #B1B1B1",
"l c #B2B2B2",
"z c #B3B3B3",
"x c #B4B4B4",
"c c #B6B6B6",
"v c #B7B7B7",
"b c #B9B9B9",
"n c #BCBCBC",
"m c #BFBFBF",
"M c #C1C1C1",
"N c #C2C2C2",
"B c #C5C5C5",
"V c #C6C6C6",
"C c #C8C8C8",
"Z c #CBCBCB",
"A c #CECECE",
"S c #D1D1D1",
"D c #D4D4D4",
"F c #D5D5D5",
"G c #D7D7D7",
"H c #DADADA",
"J c #DBDBDB",
"K c #DCDCDC",
"L c #DDDDDD",
"P c #DEDEDE",
"I c #DFDFDF",
"U c #E0E0E0",
"Y c #E3E3E3",
"T c #E5E5E5",
"R c #E6E6E6",
"E c #F0F0F0",
"W c #F6F6F6",
"Q c None",
/* pixels */
"QQQQQQQQQQQQQQQQQQQQQQQQQQQQQQQQQQQQQQQQQQQQQQQQ",
"QQQQQQQQQQQQQQQQQQQQQQQQQQQQQQQQQQQQQQQQQQQQQQQQ",
"QQQQQQQQQQQQQQQQQQQQQQQQQQQQQQQQQQQQQQQQQQQQQQQQ",
"QQQQQQXXXXXXXXXXXXXXXXXXXXXXXXXXXXXXXXXXXXQQQQQQ",
"QQQQXXXXXXXXXXXXXXXXXXXXXXXXXXXXXXXXXXXXXXXXQQQQ",
"QQQXXXXXXXXXXXXXXXXXXXXXXXXXXXXXXXXXXXXXXXXXXQQQ",
"QQQXXXXXXXXXXXXXXXXXXXXXXXXXXXXXXXXXXXXXXXXXXQQQ",
"QQQXXXXXXXXXXXXXXXXXXXXXXXXXXXXXXXXXXXXXXXXXXQQQ",
"QQQXXXXXXXXXXXXXXXXXXXXXXXXXXXXXXXXXXXXXXXXXXQQQ",
"QQQXXXXXXXXXXXXXXXXXXXXXXXXXXXXXXXXXXXXXXXXXXQQQ",
"QQQXXXXXXXXXXXXXXXXXXXXXXXXXXXXXXXXXXXXXXXXXXQQQ",
"QQQXXXXXXXXXXXXWWWWWWWWWWWWWWWWWWXXXXXXXXXXXXQQQ",
"QQQXXXXXXXXXXXXEEEEEEEEWEWEEEEEEEXXXXXXXXXXXXQQQ",
"QQQXXXXXXXXXXXXHHHKHHHHKKHHHHHKHHXXXXXXXXXXXXQQQ",
"QQQXXXXXXXXXXXXXXXXXXXXttXXXXXXXXXXXXXXXXXXXXQQQ",
"QQQXXXXXXXXXXXXXXXXXXX>KK:XXXXXXXXXXXXXXXXXXXQQQ",
"QQQXXXXXXXXXXXXXXXXXXXkTTcXXXXXXXXXXXXXXXXXXXQQQ",
"QQQXXXXXXXXXXXXXXXXXXrTUTTrXXXXXXXXXXXXXXXXXXQQQ",
"QQQXXXXXXXXXXXXXXXXX$SUUUUS$XXXXXXXXXXXXXXXXXQQQ",
"QQQXXXXXXXXXXXXXXXXXdKKKKKKsXXXXXXXXXXXXXXXXXQQQ",
"QQQXXXXXXXXXXXXXXXXwHHKHHHHHwXXXXXXXXXXXXXXXXQQQ",
"QQQXXXXXXXXXXXXXXXoNDDDHDHDHmXXXXXXXXXXXXXXXXQQQ",
"QQQXXXXXXXXXXXXXXXuDDDDDDDSDDuXXXXXXXXXXXXXXXQQQ",
"QQQXXXXXXXXXXXXXX8ASSSSSSSSSSS8XXXXXXXXXXXXXXQQQ",
"QQQXXXXXXXXXXXXXXkAAAAAAAAAAAAkXXXXXXXXXXXXXXQQQ",
"QQQXXXXXXXXXXXXXyAZZZZZZZAZZZZAyXXXXXXXXXXXXXQQQ",
"QQQXXXXXXXXXXXX:BBBZBZBZZZBZBZBB:XXXXXXXXXXXXQQQ",
"QQQXXXXXXXXXXXXsBBBBBBBBNBBBBBBBsXXXXXXXXXXXXQQQ",
"QQQXXXXXXXXXXXeggffNNNNNNNNNNffggeXXXXXXXXXXXQQQ",
"QQQXXXXXXXXXXXXXXXXcmmmmmmmmmXXXXXXXXXXXXXXXXQQQ",
"QQQXXXXXXXXXXXXXXXXkbmmbbmbmbXXXXXXXXXXXXXXXXQQQ",
"QQQXXXXXXXXXXXXXXXXgbbbbbbbbbXXXXXXXXXXXXXXXXQQQ",
"QQQXXXXXXXXXXXXXXXXgccccbcbccXXXXXXXXXXXXXXXXQQQ",
"QQQXXXXXXXXXXXXXXXXfccccckkckXXXXXXXXXXXXXXXXQQQ",
"QQQXXXXXXXXXXXXXXXXfkkkkkkkkkXXXXXXXXXXXXXXXXQQQ",
"QQQXXXXXXXXXXXXXXXXsggkgkgkgfXXXXXXXXXXXXXXXXQQQ",
"QQQXXXXXXXXXXXXXXXXipppppppppXXXXXXXXXXXXXXXXQQQ",
"QQQXXXXXXXXXXXXXXXXXXXXXXXXXXXXXXXXXXXXXXXXXXQQQ",
"QQQXXXXXXXXXXXXXXXXXXXXXXXXXXXXXXXXXXXXXXXXXXQQQ",
"QQQXXXXXXXXXXXXXXXXXXXXXXXXXXXXXXXXXXXXXXXXXXQQQ",
"QQQoXXXXXXXXXXXXXXXXXXXXXXXXXXXXXXXXXXXXXXXXXQQQ",
"QQQoXXXXXXXXXXXXXXXXXXXXXXXXXXXXXXXXXXXXXXXXXQQQ",
"QQQoXXXXXXXXXXXXXXXXXXXXXXXXXXXXXXXXXXXXXXXXoQQQ",
"QQQXoXXXXXXXXXXXXXXXXXXXXXXXXXXXXXXXXXXXXXXooQQQ",
"QQQXo$%%**--:>>323557788878755522>>>--**%%$oXQQQ",
"QQQQQXXXXXXXXXXXXXXXXXXXXXXXXXXXXXXXXXXXXXXQQQQQ",
"QQQQQQQQQQQQQQQQQQQQQQQQQQQQQQQQQQQQQQQQQQQQQQQQ",
"QQQQQQQQQQQQQQQQQQQQQQQQQQQQQQQQQQQQQQQQQQQQQQQQ"
};
