<?xml version="1.0" encoding="UTF-8" standalone="no"?>
<!-- Created with Inkscape (http://www.inkscape.org/) -->

<svg
   xmlns:dc="http://purl.org/dc/elements/1.1/"
   xmlns:cc="http://creativecommons.org/ns#"
   xmlns:rdf="http://www.w3.org/1999/02/22-rdf-syntax-ns#"
   xmlns:svg="http://www.w3.org/2000/svg"
   xmlns="http://www.w3.org/2000/svg"
   xmlns:xlink="http://www.w3.org/1999/xlink"
   xmlns:inkscape="http://www.inkscape.org/namespaces/inkscape"
   version="1.0"
   width="96"
   height="96"
   id="svg2408"
   style="display:inline">
  <defs
     id="defs2410">
    <linearGradient
       id="linearGradient3424">
      <stop
         id="stop3426"
         style="stop-color:#002255;stop-opacity:1"
         offset="0" />
      <stop
         id="stop3428"
         style="stop-color:#2b81ff;stop-opacity:1"
         offset="0.2" />
      <stop
         id="stop3430"
         style="stop-color:#003380;stop-opacity:0"
         offset="1" />
    </linearGradient>
    <linearGradient
       id="linearGradient3412">
      <stop
         id="stop3414"
         style="stop-color:#0d350d;stop-opacity:1"
         offset="0" />
      <stop
         id="stop3416"
         style="stop-color:#66d566;stop-opacity:0.99215686"
         offset="0.2" />
      <stop
         id="stop3418"
         style="stop-color:#217821;stop-opacity:0"
         offset="1" />
    </linearGradient>
    <linearGradient
       id="linearGradient3377">
      <stop
         id="stop3379"
         style="stop-color:#461552;stop-opacity:1"
         offset="0" />
      <stop
         id="stop3381"
         style="stop-color:#e27ffb;stop-opacity:0.88627452"
         offset="0.2" />
      <stop
         id="stop3383"
         style="stop-color:#892ca0;stop-opacity:0"
         offset="1" />
    </linearGradient>
    <linearGradient
       id="linearGradient3361">
      <stop
         id="stop3363"
         style="stop-color:#c978e0;stop-opacity:1"
         offset="0" />
      <stop
         id="stop3365"
         style="stop-color:#dab4e4;stop-opacity:0"
         offset="1" />
    </linearGradient>
    <linearGradient
       id="linearGradient3305">
      <stop
         id="stop3307"
         style="stop-color:#6c257e;stop-opacity:1"
         offset="0" />
      <stop
         id="stop3309"
         style="stop-color:#be66d4;stop-opacity:1"
         offset="1" />
    </linearGradient>
    <linearGradient
       id="linearGradient3604">
      <stop
         id="stop3606"
         style="stop-color:#2f2f2f;stop-opacity:1"
         offset="0" />
      <stop
         id="stop3608"
         style="stop-color:#ffffff;stop-opacity:1"
         offset="0.43731192" />
      <stop
         id="stop3610"
         style="stop-color:#979797;stop-opacity:1"
         offset="0.62138397" />
      <stop
         id="stop3612"
         style="stop-color:#505050;stop-opacity:1"
         offset="0.7723214" />
      <stop
         id="stop3614"
         style="stop-color:#e6e6e6;stop-opacity:1"
         offset="1" />
    </linearGradient>
    <linearGradient
       id="linearGradient3435">
      <stop
         id="stop3437"
         style="stop-color:#ededed;stop-opacity:1"
         offset="0" />
      <stop
         id="stop3439"
         style="stop-color:#b0b0b0;stop-opacity:1"
         offset="1" />
    </linearGradient>
    <linearGradient
       id="linearGradient3354">
      <stop
         id="stop3356"
         style="stop-color:#b4b4b4;stop-opacity:1"
         offset="0" />
      <stop
         id="stop3362"
         style="stop-color:#646464;stop-opacity:1"
         offset="0.20467032" />
      <stop
         id="stop3364"
         style="stop-color:#ffffff;stop-opacity:1"
         offset="0.49567693" />
      <stop
         id="stop3358"
         style="stop-color:#3c3c3c;stop-opacity:1"
         offset="1" />
    </linearGradient>
    <linearGradient
       id="linearGradient3290">
      <stop
         id="stop3292"
         style="stop-color:#ffffff;stop-opacity:1"
         offset="0" />
      <stop
         id="stop3304"
         style="stop-color:#8c8c8c;stop-opacity:1"
         offset="0.48973215" />
      <stop
         id="stop3306"
         style="stop-color:#cfcfcf;stop-opacity:1"
         offset="0.50044644" />
      <stop
         id="stop3298"
         style="stop-color:#ffffff;stop-opacity:1"
         offset="0.62276787" />
      <stop
         id="stop3300"
         style="stop-color:#c8c8c8;stop-opacity:1"
         offset="0.81696427" />
      <stop
         id="stop3294"
         style="stop-color:#505050;stop-opacity:1"
         offset="1" />
    </linearGradient>
    <linearGradient
       id="linearGradient3199">
      <stop
         id="stop3201"
         style="stop-color:#853798;stop-opacity:1"
         offset="0" />
      <stop
         id="stop3203"
         style="stop-color:#c78bd5;stop-opacity:1"
         offset="1" />
    </linearGradient>
    <linearGradient
       x1="45.447727"
       y1="92.539597"
       x2="45.447727"
       y2="7.0165396"
       id="ButtonShadow"
       gradientUnits="userSpaceOnUse"
       gradientTransform="scale(1.0058652,0.994169)">
      <stop
         id="stop3750"
         style="stop-color:#000000;stop-opacity:1"
         offset="0" />
      <stop
         id="stop3752"
         style="stop-color:#000000;stop-opacity:0.58823532"
         offset="1" />
    </linearGradient>
    <filter
       color-interpolation-filters="sRGB"
       id="filter3174">
      <feGaussianBlur
         id="feGaussianBlur3176"
         stdDeviation="1.71" />
    </filter>
    <linearGradient
       x1="19.035713"
       y1="74"
       x2="87.5"
       y2="27.428572"
       id="linearGradient3220"
       xlink:href="#linearGradient3361"
       gradientUnits="userSpaceOnUse" />
    <linearGradient
       x1="38.748035"
       y1="74.004211"
       x2="38.748035"
       y2="5.8331571"
       id="linearGradient3223"
       xlink:href="#linearGradient3199"
       gradientUnits="userSpaceOnUse" />
    <clipPath
       id="clipPath3235">
      <path
         d="m 66,6 0,55 c 0,1.662 1.338,3 3,3 l 6,0 c 1.662,0 3,-1.338 3,-3 l 0,-55 -4,0 0,2 -4,0 0,-2 -4,0 z"
         inkscape:connector-curvature="0"
         id="path3237"
         style="fill:#ffffff;fill-opacity:1;fill-rule:nonzero;stroke:none" />
    </clipPath>
    <filter
       x="-0.16615385"
       y="-0.036610167"
       width="1.3323077"
       height="1.0732203"
       color-interpolation-filters="sRGB"
       id="filter3243">
      <feGaussianBlur
         id="feGaussianBlur3245"
         stdDeviation="0.9" />
    </filter>
    <linearGradient
       x1="68.75"
       y1="59"
       x2="75.25"
       y2="59"
       id="linearGradient3360"
       xlink:href="#linearGradient3354"
       gradientUnits="userSpaceOnUse"
       gradientTransform="translate(0,-1)" />
    <linearGradient
       x1="69"
       y1="54"
       x2="73"
       y2="54"
       id="linearGradient3372"
       xlink:href="#linearGradient3290"
       gradientUnits="userSpaceOnUse"
       gradientTransform="translate(0,-1)" />
    <linearGradient
       x1="63.484772"
       y1="64.163078"
       x2="79"
       y2="65"
       id="linearGradient3393"
       xlink:href="#linearGradient3305"
       gradientUnits="userSpaceOnUse" />
    <filter
       x="-0.16182838"
       y="-0.095353596"
       width="1.3236568"
       height="1.1907072"
       color-interpolation-filters="sRGB"
       id="filter3429">
      <feGaussianBlur
         id="feGaussianBlur3431"
         stdDeviation="0.53551312" />
    </filter>
    <linearGradient
       x1="68.96875"
       y1="17.5"
       x2="75.0625"
       y2="17.5"
       id="linearGradient3489"
       xlink:href="#linearGradient3435"
       gradientUnits="userSpaceOnUse"
       gradientTransform="matrix(-1,0,0,1,144.03125,-2)" />
    <linearGradient
       x1="68.02903"
       y1="17.763245"
       x2="75.97097"
       y2="17.763245"
       id="linearGradient3516"
       xlink:href="#linearGradient3435"
       gradientUnits="userSpaceOnUse"
       gradientTransform="translate(0,-2)" />
    <linearGradient
       x1="68.75"
       y1="59"
       x2="72.250572"
       y2="59"
       id="linearGradient3530"
       xlink:href="#linearGradient3354"
       gradientUnits="userSpaceOnUse"
       gradientTransform="matrix(1.1262691,0,0,1,-7.4019692,-49.5)" />
    <linearGradient
       x1="69"
       y1="54"
       x2="73"
       y2="54"
       id="linearGradient3602"
       xlink:href="#linearGradient3604"
       gradientUnits="userSpaceOnUse"
       gradientTransform="matrix(-1,0,0,1,144,-4)" />
    <clipPath
       id="clipPath3353">
      <path
         d="m 7.03125,60.09375 c -2.216,0 -4,1.784 -4,4 l 0,45.28125 c 0,2.216 1.784,4 4,4 l 55.375,0 c 2.216,0 3.999997,-1.784 4,-4 l 0,-45.28125 c 0,-2.216 -1.783999,-4 -4,-4 l -55.375,0 z M 18,80 l 4.90625,0 c 0.377353,1.4e-5 0.72287,0.02478 1.0625,0.0625 0.339615,0.03775 0.679434,0.124229 0.96875,0.25 0.301879,0.1258 0.560919,0.292268 0.8125,0.53125 0.251563,0.226428 0.467562,0.547576 0.65625,0.9375 0.314456,0.641521 0.468741,1.326465 0.46875,2.09375 -10e-6,0.981141 -0.240772,1.795996 -0.71875,2.4375 -0.465417,0.628937 -1.119506,1.073513 -2,1.3125 0.402509,0.327049 0.73584,0.691239 1,1.09375 0.276721,0.389942 0.523575,0.809754 0.75,1.25 L 27.9375,94 25.71875,94 c -0.0629,-0.125786 -0.161566,-0.354365 -0.3125,-0.65625 -0.150951,-0.301886 -0.348671,-0.622642 -0.5625,-1 C 24.642485,91.953814 24.426486,91.552676 24.1875,91.125 23.961078,90.684752 23.726408,90.252361 23.5,89.875 c -0.226421,-0.389932 -0.423748,-0.710689 -0.625,-1 -0.201263,-0.301882 -0.392892,-0.511787 -0.53125,-0.625 -0.213842,-0.176095 -0.405076,-0.274758 -0.59375,-0.3125 -0.176105,-0.05031 -0.416869,-0.09374 -0.71875,-0.09375 l -1.21875,0 0,6.15625 L 18,94 18,80 z m 15.78125,0 1.8125,0 4.53125,14 -2.0625,0 -1.25,-4.125 -4.125,0 L 31.5,94 l -1.96875,0 4.25,-14 z M 42,80 l 4.90625,0 c 0.377353,1.4e-5 0.754121,0.02478 1.09375,0.0625 0.339615,0.03775 0.648186,0.124229 0.9375,0.25 0.301879,0.1258 0.560917,0.292268 0.8125,0.53125 0.251563,0.226428 0.467564,0.547576 0.65625,0.9375 0.314456,0.641521 0.499991,1.326465 0.5,2.09375 -1e-5,0.981141 -0.240772,1.795996 -0.71875,2.4375 -0.465417,0.628937 -1.150756,1.073513 -2.03125,1.3125 0.402508,0.327049 0.73584,0.691239 1,1.09375 0.276721,0.389942 0.523577,0.809754 0.75,1.25 L 51.9375,94 49.71875,94 c -0.0629,-0.125786 -0.161564,-0.354365 -0.3125,-0.65625 -0.150951,-0.301886 -0.348671,-0.622642 -0.5625,-1 C 48.642485,91.953814 48.426486,91.552676 48.1875,91.125 47.961078,90.684752 47.726408,90.252361 47.5,89.875 c -0.226421,-0.389932 -0.423748,-0.710689 -0.625,-1 -0.201263,-0.301882 -0.36164,-0.511787 -0.5,-0.625 -0.213841,-0.176095 -0.436328,-0.274758 -0.625,-0.3125 -0.176105,-0.05031 -0.416867,-0.09374 -0.71875,-0.09375 l -1.21875,0 0,6.15625 L 42,94 42,80 z m -22.15625,1.6875 0,4.40625 2.8125,0 c 0.779868,7e-6 1.36615,-0.16037 1.78125,-0.5 0.427665,-0.352193 0.656242,-0.926289 0.65625,-1.71875 -8e-6,-0.691814 -0.179057,-1.24763 -0.53125,-1.625 C 24.210291,81.872654 23.691817,81.687512 23,81.6875 l -3.15625,0 z m 24,0 0,4.40625 2.8125,0 c 0.779868,7e-6 1.397398,-0.16037 1.8125,-0.5 0.427665,-0.352193 0.624994,-0.926289 0.625,-1.71875 -8e-6,-0.691814 -0.179055,-1.24763 -0.53125,-1.625 C 48.210291,81.872654 47.691817,81.687512 47,81.6875 l -3.15625,0 z m -9.15625,1.15625 c -0.188683,0.90567 -0.392101,1.788333 -0.65625,2.65625 -0.264155,0.855353 -0.548353,1.725833 -0.8125,2.59375 l 3,0 C 35.967172,87.225832 35.714224,86.367934 35.4375,85.5 c -0.264156,-0.867915 -0.523588,-1.763159 -0.75,-2.65625 z"
         inkscape:connector-curvature="0"
         id="path3355"
         style="fill:#ffffff;fill-opacity:1;fill-rule:nonzero;stroke:none" />
    </clipPath>
    <linearGradient
       x1="6"
       y1="73"
       x2="24"
       y2="73"
       id="linearGradient3374"
       xlink:href="#linearGradient3377"
       gradientUnits="userSpaceOnUse" />
    <linearGradient
       x1="6"
       y1="73"
       x2="24"
       y2="73"
       id="linearGradient3398"
       xlink:href="#linearGradient3412"
       gradientUnits="userSpaceOnUse"
       gradientTransform="translate(0,6)" />
    <linearGradient
       x1="6"
       y1="73"
       x2="24"
       y2="73"
       id="linearGradient3422"
       xlink:href="#linearGradient3424"
       gradientUnits="userSpaceOnUse"
       gradientTransform="translate(0,12)" />
    <linearGradient
       x1="6"
       y1="73"
       x2="24"
       y2="73"
       id="linearGradient3452"
       xlink:href="#linearGradient3424"
       gradientUnits="userSpaceOnUse"
       gradientTransform="translate(0,12)" />
    <linearGradient
       x1="6"
       y1="73"
       x2="24"
       y2="73"
       id="linearGradient3454"
       xlink:href="#linearGradient3412"
       gradientUnits="userSpaceOnUse"
       gradientTransform="translate(0,6)" />
    <linearGradient
       x1="6"
       y1="73"
       x2="24"
       y2="73"
       id="linearGradient3456"
       xlink:href="#linearGradient3377"
       gradientUnits="userSpaceOnUse" />
    <linearGradient
       x1="45.447727"
       y1="92.539597"
       x2="45.447727"
       y2="7.0165396"
       id="ButtonShadow-0"
       gradientUnits="userSpaceOnUse"
       gradientTransform="matrix(1.0058652,0,0,0.994169,100,0)">
      <stop
         id="stop3750-8"
         style="stop-color:#000000;stop-opacity:1"
         offset="0" />
      <stop
         id="stop3752-5"
         style="stop-color:#000000;stop-opacity:0.58823532"
         offset="1" />
    </linearGradient>
    <linearGradient
       x1="32.251034"
       y1="6.1317081"
       x2="32.251034"
       y2="90.238609"
       id="linearGradient3780"
       xlink:href="#ButtonShadow-0"
       gradientUnits="userSpaceOnUse"
       gradientTransform="matrix(1.0238095,0,0,1.0119048,-1.1428571,-98.071429)" />
    <linearGradient
       x1="32.251034"
       y1="6.1317081"
       x2="32.251034"
       y2="90.238609"
       id="linearGradient3772"
       xlink:href="#ButtonShadow-0"
       gradientUnits="userSpaceOnUse"
       gradientTransform="matrix(1.0238095,0,0,1.0119048,-1.1428571,-98.071429)" />
    <linearGradient
       x1="32.251034"
       y1="6.1317081"
       x2="32.251034"
       y2="90.238609"
       id="linearGradient3725"
       xlink:href="#ButtonShadow-0"
       gradientUnits="userSpaceOnUse"
       gradientTransform="matrix(1.0238095,0,0,1.0119048,-1.1428571,-98.071429)" />
    <linearGradient
       x1="32.251034"
       y1="6.1317081"
       x2="32.251034"
       y2="90.238609"
       id="linearGradient3721"
       xlink:href="#ButtonShadow-0"
       gradientUnits="userSpaceOnUse"
       gradientTransform="translate(0,-97)" />
    <linearGradient
       x1="32.251034"
       y1="6.1317081"
       x2="32.251034"
       y2="90.238609"
       id="linearGradient3760"
       xlink:href="#ButtonShadow-0"
       gradientUnits="userSpaceOnUse"
       gradientTransform="matrix(1.0238095,0,0,1.0119048,-1.1428571,-98.071429)" />
  </defs>
  <metadata
     id="metadata2413">
    <rdf:RDF>
      <cc:Work
         rdf:about="">
        <dc:format>image/svg+xml</dc:format>
        <dc:type
           rdf:resource="http://purl.org/dc/dcmitype/StillImage" />
      </cc:Work>
    </rdf:RDF>
  </metadata>
  <g
     id="layer2"
     style="display:none">
    <rect
       width="86"
       height="85"
       rx="6"
       ry="6"
       x="5"
       y="7"
       id="rect3745"
       style="opacity:0.9;fill:url(#ButtonShadow);fill-opacity:1;fill-rule:nonzero;stroke:none;filter:url(#filter3174)" />
  </g>
  <g
     id="layer7"
     style="display:inline">
    <path
       d="m 12,-95.03125 c -5.5110903,0 -10.03125,4.52016 -10.03125,10.03125 l 0,71 c 0,5.5110902 4.5201598,10.03125 10.03125,10.03125 l 72,0 c 5.51109,0 10.03125,-4.5201597 10.03125,-10.03125 l 0,-71 c 0,-5.51109 -4.52016,-10.03125 -10.03125,-10.03125 l -72,0 z"
       transform="scale(1,-1)"
       id="path3786"
       style="opacity:0.07999998;fill:url(#linearGradient3760);fill-opacity:1;fill-rule:nonzero;stroke:none;display:inline" />
    <path
       d="m 12,-94.03125 c -4.971633,0 -9.03125,4.059617 -9.03125,9.03125 l 0,71 c 0,4.9716329 4.0596171,9.03125 9.03125,9.03125 l 72,0 c 4.971633,0 9.03125,-4.059617 9.03125,-9.03125 l 0,-71 c 0,-4.971633 -4.059617,-9.03125 -9.03125,-9.03125 l -72,0 z"
       transform="scale(1,-1)"
       id="path3778"
       style="opacity:0.1;fill:url(#linearGradient3780);fill-opacity:1;fill-rule:nonzero;stroke:none;display:inline" />
    <path
       d="m 12,-93 c -4.4091333,0 -8,3.590867 -8,8 l 0,71 c 0,4.4091333 3.5908667,8 8,8 l 72,0 c 4.409133,0 8,-3.5908667 8,-8 l 0,-71 c 0,-4.409133 -3.590867,-8 -8,-8 l -72,0 z"
       transform="scale(1,-1)"
       id="path3770"
       style="opacity:0.2;fill:url(#linearGradient3772);fill-opacity:1;fill-rule:nonzero;stroke:none;display:inline" />
    <rect
       width="86"
       height="85"
       rx="7"
       ry="7"
       x="5"
       y="-92"
       transform="scale(1,-1)"
       id="rect3723"
       style="opacity:0.3;fill:url(#linearGradient3725);fill-opacity:1;fill-rule:nonzero;stroke:none;display:inline" />
    <rect
       width="84"
       height="84"
       rx="6"
       ry="6"
       x="6"
       y="-91"
       transform="scale(1,-1)"
       id="rect3716"
       style="opacity:0.45;fill:url(#linearGradient3721);fill-opacity:1;fill-rule:nonzero;stroke:none;display:inline" />
  </g>
  <g
     id="layer1"
     style="display:inline">
    <path
       d="m 12,18 c -3.324,0 -6,2.676 -6,6 l 0,60 c 0,3.324 2.676,6 6,6 l 72,0 c 3.324,0 6,-2.676 6,-6 l 0,-60 c 0,-3.324 -2.676,-6 -6,-6 l -9,0 0,3 -6,0 0,-3 -57,0 z"
       inkscape:connector-curvature="0"
       id="path3303"
       style="fill:#235299;fill-opacity:1;fill-rule:nonzero;stroke:none" />
    <path
       d="m 12,12 c -3.324,0 -6,2.676 -6,6 l 0,60 c 0,3.324 2.676,6 6,6 l 72,0 c 3.324,0 6,-2.676 6,-6 l 0,-60 c 0,-3.324 -2.676,-6 -6,-6 l -9,0 0,3 -6,0 0,-3 -57,0 z"
       inkscape:connector-curvature="0"
       id="path3301"
       style="fill:#217821;fill-opacity:1;fill-rule:nonzero;stroke:none" />
    <path
       d="M 12,6 C 8.676,6 6,8.676 6,12 l 0,60 c 0,3.324 2.676,6 6,6 l 72,0 c 3.324,0 6,-2.676 6,-6 L 90,12 C 90,8.676 87.324,6 84,6 l -9,0 0,3 -6,0 0,-3 -57,0 z"
       inkscape:connector-curvature="0"
       id="rect2419"
       style="fill:#892ca0;fill-opacity:1;fill-rule:nonzero;stroke:none" />
    <g
       transform="matrix(-1,0,0,1,96,0)"
       id="g3444">
      <path
         d="m 6,78 0,6 c 0,3.324 2.676,6 6,6 l 12,0 0,-6 -12,0 C 8.676,84 6,81.324 6,78 z"
         inkscape:connector-curvature="0"
         id="path3446"
         style="fill:url(#linearGradient3452);fill-opacity:1;fill-rule:nonzero;stroke:none" />
      <path
         d="m 6,72 0,6 c 0,3.324 2.676,6 6,6 l 12,0 0,-6 -12,0 C 8.676,78 6,75.324 6,72 z"
         inkscape:connector-curvature="0"
         id="path3448"
         style="fill:url(#linearGradient3454);fill-opacity:1;fill-rule:nonzero;stroke:none" />
      <path
         d="m 6,56 0,16 c 0,3.324 2.676,6 6,6 l 12,0 0,-22 -18,0 z"
         inkscape:connector-curvature="0"
         id="path3450"
         style="fill:url(#linearGradient3456);fill-opacity:1;fill-rule:nonzero;stroke:none" />
    </g>
    <g
       id="g3432">
      <path
         d="m 6,78 0,6 c 0,3.324 2.676,6 6,6 l 12,0 0,-6 -12,0 C 8.676,84 6,81.324 6,78 z"
         inkscape:connector-curvature="0"
         id="path3420"
         style="fill:url(#linearGradient3422);fill-opacity:1;fill-rule:nonzero;stroke:none" />
      <path
         d="m 6,72 0,6 c 0,3.324 2.676,6 6,6 l 12,0 0,-6 -12,0 C 8.676,78 6,75.324 6,72 z"
         inkscape:connector-curvature="0"
         id="path3385"
         style="fill:url(#linearGradient3398);fill-opacity:1;fill-rule:nonzero;stroke:none" />
      <path
         d="m 6,56 0,16 c 0,3.324 2.676,6 6,6 l 12,0 0,-22 -18,0 z"
         inkscape:connector-curvature="0"
         id="rect3222"
         style="fill:url(#linearGradient3374);fill-opacity:1;fill-rule:nonzero;stroke:none" />
    </g>
    <path
       d="m 6,82 0,2 c 0,3.324 2.676,6 6,6 l 72,0 c 3.324,0 6,-2.676 6,-6 l 0,-2 c 0,3.324 -2.676,6 -6,6 L 12,88 C 8.676,88 6,85.324 6,82 z"
       inkscape:connector-curvature="0"
       id="rect2412"
       style="opacity:0.5;fill:#081323;fill-opacity:1;fill-rule:nonzero;stroke:none" />
    <path
       d="m 6,78 0,2 c 0,3.324 2.676,6 6,6 l 72,0 c 3.324,0 6,-2.676 6,-6 l 0,-2 c 0,3.324 -2.676,6 -6,6 L 12,84 C 8.676,84 6,81.324 6,78 z"
       inkscape:connector-curvature="0"
       id="path3187"
       style="opacity:0.3;fill:#ffffff;fill-opacity:1;fill-rule:nonzero;stroke:none" />
    <path
       d="m 6,76 0,2 c 0,3.324 2.676,6 6,6 l 72,0 c 3.324,0 6,-2.676 6,-6 l 0,-2 c 0,3.324 -2.676,6 -6,6 L 12,82 C 8.676,82 6,79.324 6,76 z"
       inkscape:connector-curvature="0"
       id="path3189"
       style="opacity:0.5;fill:#0b280b;fill-opacity:1;fill-rule:nonzero;stroke:none" />
    <path
       d="m 6,72 0,2 c 0,3.324 2.676,6 6,6 l 72,0 c 3.324,0 6,-2.676 6,-6 l 0,-2 c 0,3.324 -2.676,6 -6,6 L 12,78 C 8.676,78 6,75.324 6,72 z"
       inkscape:connector-curvature="0"
       id="path3191"
       style="opacity:0.3;fill:#ffffff;fill-opacity:1;fill-rule:nonzero;stroke:none" />
    <path
       d="m 6,70 0,2 c 0,3.324 2.676,6 6,6 l 72,0 c 3.324,0 6,-2.676 6,-6 l 0,-2 c 0,3.324 -2.676,6 -6,6 L 12,76 C 8.676,76 6,73.324 6,70 z"
       inkscape:connector-curvature="0"
       id="path3193"
       style="opacity:0.5;fill:#210e26;fill-opacity:1;fill-rule:nonzero;stroke:none" />
    <path
       d="M 12,6 C 8.676,6 6,8.676 6,12 l 0,56 c 0,3.324 2.676,6 6,6 l 72,0 c 3.324,0 6,-2.676 6,-6 L 90,12 C 90,8.676 87.324,6 84,6 l -9,0 0,3 -6,0 0,-3 -57,0 z"
       inkscape:connector-curvature="0"
       id="rect3195"
       style="fill:url(#linearGradient3223);fill-opacity:1;fill-rule:nonzero;stroke:none" />
    <path
       d="M 12,6 C 8.676,6 6,8.676 6,12 l 0,56 c 0,3.324 2.676,6 6,6 l 72,0 c 3.324,0 6,-2.676 6,-6 L 90,12 C 90,8.676 87.324,6 84,6 l -9,0 0,2 9,0 c 2.245802,0 4,1.7541975 4,4 l 0,56 c 0,2.245802 -1.754198,4 -4,4 L 12,72 C 9.7541975,72 8,70.245802 8,68 L 8,12 C 8,9.7541975 9.7541975,8 12,8 L 69,8 69,6 12,6 z"
       inkscape:connector-curvature="0"
       id="rect3207"
       style="fill:url(#linearGradient3220);fill-opacity:1;fill-rule:nonzero;stroke:none" />
  </g>
  <g
     id="layer3">
    <path
       d="m 18,80 0,14 1.8125,0 0,-6.15625 1.21875,0 c 0.301881,5e-6 0.542645,0.04344 0.71875,0.09375 0.188674,0.03774 0.379908,0.136405 0.59375,0.3125 0.138358,0.113213 0.329987,0.323118 0.53125,0.625 0.201252,0.289311 0.398579,0.610068 0.625,1 0.226408,0.377361 0.461078,0.809752 0.6875,1.25 0.238986,0.427676 0.454985,0.828814 0.65625,1.21875 0.213829,0.377358 0.411549,0.698114 0.5625,1 0.150934,0.301885 0.249598,0.530464 0.3125,0.65625 l 2.21875,0 -2.03125,-4.03125 c -0.226425,-0.440246 -0.473279,-0.860058 -0.75,-1.25 -0.26416,-0.402511 -0.597491,-0.766701 -1,-1.09375 0.880494,-0.238987 1.534583,-0.683563 2,-1.3125 0.477978,-0.641504 0.71874,-1.456359 0.71875,-2.4375 -9e-6,-0.767285 -0.154294,-1.452229 -0.46875,-2.09375 C 26.217562,81.391326 26.001563,81.070178 25.75,80.84375 25.498419,80.604768 25.239379,80.4383 24.9375,80.3125 24.648184,80.186729 24.308365,80.10025 23.96875,80.0625 23.62912,80.024778 23.283603,80.000014 22.90625,80 L 18,80 z m 15.78125,0 -4.25,14 1.96875,0 1.1875,-4.125 4.125,0 1.25,4.125 2.0625,0 -4.53125,-14 -1.8125,0 z M 42,80 l 0,14 1.8125,0 0,-6.15625 1.21875,0 c 0.301883,5e-6 0.542645,0.04344 0.71875,0.09375 0.188672,0.03774 0.411159,0.136405 0.625,0.3125 0.13836,0.113213 0.298737,0.323118 0.5,0.625 0.201252,0.289311 0.398579,0.610068 0.625,1 0.226408,0.377361 0.461078,0.809752 0.6875,1.25 0.238986,0.427676 0.454985,0.828814 0.65625,1.21875 0.213829,0.377358 0.411549,0.698114 0.5625,1 0.150936,0.301885 0.249598,0.530464 0.3125,0.65625 l 2.21875,0 -2.03125,-4.03125 c -0.226423,-0.440246 -0.473279,-0.860058 -0.75,-1.25 -0.26416,-0.402511 -0.597492,-0.766701 -1,-1.09375 0.880494,-0.238987 1.565833,-0.683563 2.03125,-1.3125 0.477978,-0.641504 0.71874,-1.456359 0.71875,-2.4375 -9e-6,-0.767285 -0.185544,-1.452229 -0.5,-2.09375 C 50.217564,81.391326 50.001563,81.070178 49.75,80.84375 49.498417,80.604768 49.239379,80.4383 48.9375,80.3125 48.648186,80.186729 48.339615,80.10025 48,80.0625 47.660371,80.024778 47.283603,80.000014 46.90625,80 L 42,80 z m -22.15625,1.6875 3.15625,0 c 0.691817,1.2e-5 1.210291,0.185154 1.5625,0.5625 0.352193,0.37737 0.531242,0.933186 0.53125,1.625 -8e-6,0.792461 -0.228585,1.366557 -0.65625,1.71875 -0.4151,0.33963 -1.001382,0.500007 -1.78125,0.5 l -2.8125,0 0,-4.40625 z m 24,0 3.15625,0 c 0.691817,1.2e-5 1.210291,0.185154 1.5625,0.5625 0.352195,0.37737 0.531242,0.933186 0.53125,1.625 -6e-6,0.792461 -0.197335,1.366557 -0.625,1.71875 -0.415102,0.33963 -1.032632,0.500007 -1.8125,0.5 l -2.8125,0 0,-4.40625 z m -9.15625,1.15625 c 0.226412,0.893091 0.485844,1.788335 0.75,2.65625 0.276724,0.867934 0.529672,1.725832 0.78125,2.59375 l -3,0 c 0.264147,-0.867917 0.548345,-1.738397 0.8125,-2.59375 0.264149,-0.867917 0.467567,-1.75058 0.65625,-2.65625 z"
       inkscape:connector-curvature="0"
       transform="translate(0,-30)"
       clip-path="url(#clipPath3353)"
       id="path3742"
       style="font-size:18.86792374px;font-style:normal;font-variant:normal;font-weight:bold;font-stretch:normal;text-align:start;line-height:120.00000477%;writing-mode:lr-tb;text-anchor:start;opacity:0.05;fill:none;stroke:#ffffff;stroke-width:6;stroke-linecap:butt;stroke-linejoin:miter;stroke-miterlimit:4;stroke-opacity:1;stroke-dasharray:none;font-family:BabelSans;-inkscape-font-specification:BabelSans Bold" />
    <path
       d="m 18,80 0,14 1.8125,0 0,-6.15625 1.21875,0 c 0.301881,5e-6 0.542645,0.04344 0.71875,0.09375 0.188674,0.03774 0.379908,0.136405 0.59375,0.3125 0.138358,0.113213 0.329987,0.323118 0.53125,0.625 0.201252,0.289311 0.398579,0.610068 0.625,1 0.226408,0.377361 0.461078,0.809752 0.6875,1.25 0.238986,0.427676 0.454985,0.828814 0.65625,1.21875 0.213829,0.377358 0.411549,0.698114 0.5625,1 0.150934,0.301885 0.249598,0.530464 0.3125,0.65625 l 2.21875,0 -2.03125,-4.03125 c -0.226425,-0.440246 -0.473279,-0.860058 -0.75,-1.25 -0.26416,-0.402511 -0.597491,-0.766701 -1,-1.09375 0.880494,-0.238987 1.534583,-0.683563 2,-1.3125 0.477978,-0.641504 0.71874,-1.456359 0.71875,-2.4375 -9e-6,-0.767285 -0.154294,-1.452229 -0.46875,-2.09375 C 26.217562,81.391326 26.001563,81.070178 25.75,80.84375 25.498419,80.604768 25.239379,80.4383 24.9375,80.3125 24.648184,80.186729 24.308365,80.10025 23.96875,80.0625 23.62912,80.024778 23.283603,80.000014 22.90625,80 L 18,80 z m 15.78125,0 -4.25,14 1.96875,0 1.1875,-4.125 4.125,0 1.25,4.125 2.0625,0 -4.53125,-14 -1.8125,0 z M 42,80 l 0,14 1.8125,0 0,-6.15625 1.21875,0 c 0.301883,5e-6 0.542645,0.04344 0.71875,0.09375 0.188672,0.03774 0.411159,0.136405 0.625,0.3125 0.13836,0.113213 0.298737,0.323118 0.5,0.625 0.201252,0.289311 0.398579,0.610068 0.625,1 0.226408,0.377361 0.461078,0.809752 0.6875,1.25 0.238986,0.427676 0.454985,0.828814 0.65625,1.21875 0.213829,0.377358 0.411549,0.698114 0.5625,1 0.150936,0.301885 0.249598,0.530464 0.3125,0.65625 l 2.21875,0 -2.03125,-4.03125 c -0.226423,-0.440246 -0.473279,-0.860058 -0.75,-1.25 -0.26416,-0.402511 -0.597492,-0.766701 -1,-1.09375 0.880494,-0.238987 1.565833,-0.683563 2.03125,-1.3125 0.477978,-0.641504 0.71874,-1.456359 0.71875,-2.4375 -9e-6,-0.767285 -0.185544,-1.452229 -0.5,-2.09375 C 50.217564,81.391326 50.001563,81.070178 49.75,80.84375 49.498417,80.604768 49.239379,80.4383 48.9375,80.3125 48.648186,80.186729 48.339615,80.10025 48,80.0625 47.660371,80.024778 47.283603,80.000014 46.90625,80 L 42,80 z m -22.15625,1.6875 3.15625,0 c 0.691817,1.2e-5 1.210291,0.185154 1.5625,0.5625 0.352193,0.37737 0.531242,0.933186 0.53125,1.625 -8e-6,0.792461 -0.228585,1.366557 -0.65625,1.71875 -0.4151,0.33963 -1.001382,0.500007 -1.78125,0.5 l -2.8125,0 0,-4.40625 z m 24,0 3.15625,0 c 0.691817,1.2e-5 1.210291,0.185154 1.5625,0.5625 0.352195,0.37737 0.531242,0.933186 0.53125,1.625 -6e-6,0.792461 -0.197335,1.366557 -0.625,1.71875 -0.415102,0.33963 -1.032632,0.500007 -1.8125,0.5 l -2.8125,0 0,-4.40625 z m -9.15625,1.15625 c 0.226412,0.893091 0.485844,1.788335 0.75,2.65625 0.276724,0.867934 0.529672,1.725832 0.78125,2.59375 l -3,0 c 0.264147,-0.867917 0.548345,-1.738397 0.8125,-2.59375 0.264149,-0.867917 0.467567,-1.75058 0.65625,-2.65625 z"
       inkscape:connector-curvature="0"
       transform="translate(0,-30)"
       clip-path="url(#clipPath3353)"
       id="path3740"
       style="font-size:18.86792374px;font-style:normal;font-variant:normal;font-weight:bold;font-stretch:normal;text-align:start;line-height:120.00000477%;writing-mode:lr-tb;text-anchor:start;opacity:0.07999998;fill:none;stroke:#ffffff;stroke-width:4;stroke-linecap:butt;stroke-linejoin:miter;stroke-miterlimit:4;stroke-opacity:1;stroke-dasharray:none;font-family:BabelSans;-inkscape-font-specification:BabelSans Bold" />
    <path
       d="m 18,80 0,14 1.8125,0 0,-6.15625 1.21875,0 c 0.301881,5e-6 0.542645,0.04344 0.71875,0.09375 0.188674,0.03774 0.379908,0.136405 0.59375,0.3125 0.138358,0.113213 0.329987,0.323118 0.53125,0.625 0.201252,0.289311 0.398579,0.610068 0.625,1 0.226408,0.377361 0.461078,0.809752 0.6875,1.25 0.238986,0.427676 0.454985,0.828814 0.65625,1.21875 0.213829,0.377358 0.411549,0.698114 0.5625,1 0.150934,0.301885 0.249598,0.530464 0.3125,0.65625 l 2.21875,0 -2.03125,-4.03125 c -0.226425,-0.440246 -0.473279,-0.860058 -0.75,-1.25 -0.26416,-0.402511 -0.597491,-0.766701 -1,-1.09375 0.880494,-0.238987 1.534583,-0.683563 2,-1.3125 0.477978,-0.641504 0.71874,-1.456359 0.71875,-2.4375 -9e-6,-0.767285 -0.154294,-1.452229 -0.46875,-2.09375 C 26.217562,81.391326 26.001563,81.070178 25.75,80.84375 25.498419,80.604768 25.239379,80.4383 24.9375,80.3125 24.648184,80.186729 24.308365,80.10025 23.96875,80.0625 23.62912,80.024778 23.283603,80.000014 22.90625,80 L 18,80 z m 15.78125,0 -4.25,14 1.96875,0 1.1875,-4.125 4.125,0 1.25,4.125 2.0625,0 -4.53125,-14 -1.8125,0 z M 42,80 l 0,14 1.8125,0 0,-6.15625 1.21875,0 c 0.301883,5e-6 0.542645,0.04344 0.71875,0.09375 0.188672,0.03774 0.411159,0.136405 0.625,0.3125 0.13836,0.113213 0.298737,0.323118 0.5,0.625 0.201252,0.289311 0.398579,0.610068 0.625,1 0.226408,0.377361 0.461078,0.809752 0.6875,1.25 0.238986,0.427676 0.454985,0.828814 0.65625,1.21875 0.213829,0.377358 0.411549,0.698114 0.5625,1 0.150936,0.301885 0.249598,0.530464 0.3125,0.65625 l 2.21875,0 -2.03125,-4.03125 c -0.226423,-0.440246 -0.473279,-0.860058 -0.75,-1.25 -0.26416,-0.402511 -0.597492,-0.766701 -1,-1.09375 0.880494,-0.238987 1.565833,-0.683563 2.03125,-1.3125 0.477978,-0.641504 0.71874,-1.456359 0.71875,-2.4375 -9e-6,-0.767285 -0.185544,-1.452229 -0.5,-2.09375 C 50.217564,81.391326 50.001563,81.070178 49.75,80.84375 49.498417,80.604768 49.239379,80.4383 48.9375,80.3125 48.648186,80.186729 48.339615,80.10025 48,80.0625 47.660371,80.024778 47.283603,80.000014 46.90625,80 L 42,80 z m -22.15625,1.6875 3.15625,0 c 0.691817,1.2e-5 1.210291,0.185154 1.5625,0.5625 0.352193,0.37737 0.531242,0.933186 0.53125,1.625 -8e-6,0.792461 -0.228585,1.366557 -0.65625,1.71875 -0.4151,0.33963 -1.001382,0.500007 -1.78125,0.5 l -2.8125,0 0,-4.40625 z m 24,0 3.15625,0 c 0.691817,1.2e-5 1.210291,0.185154 1.5625,0.5625 0.352195,0.37737 0.531242,0.933186 0.53125,1.625 -6e-6,0.792461 -0.197335,1.366557 -0.625,1.71875 -0.415102,0.33963 -1.032632,0.500007 -1.8125,0.5 l -2.8125,0 0,-4.40625 z m -9.15625,1.15625 c 0.226412,0.893091 0.485844,1.788335 0.75,2.65625 0.276724,0.867934 0.529672,1.725832 0.78125,2.59375 l -3,0 c 0.264147,-0.867917 0.548345,-1.738397 0.8125,-2.59375 0.264149,-0.867917 0.467567,-1.75058 0.65625,-2.65625 z"
       inkscape:connector-curvature="0"
       transform="translate(0,-30)"
       clip-path="url(#clipPath3353)"
       id="path3346"
       style="font-size:18.86792374px;font-style:normal;font-variant:normal;font-weight:bold;font-stretch:normal;text-align:start;line-height:120.00000477%;writing-mode:lr-tb;text-anchor:start;opacity:0.15;fill:none;stroke:#ffffff;stroke-width:2;stroke-linecap:butt;stroke-linejoin:miter;stroke-miterlimit:4;stroke-opacity:1;stroke-dasharray:none;font-family:BabelSans;-inkscape-font-specification:BabelSans Bold" />
    <path
       d="m 66,6 0,55 c 0,1.662 1.338,3 3,3 l 6,0 c 1.662,0 3,-1.338 3,-3 l 0,-55 -4,0 0,2 -4,0 0,-2 -4,0 z"
       inkscape:connector-curvature="0"
       id="rect3201"
       style="fill:#252525;fill-opacity:1;fill-rule:nonzero;stroke:none" />
    <rect
       width="4"
       height="49"
       x="70"
       y="8"
       id="rect3247"
       style="fill:#4d4d4d;fill-opacity:1;fill-rule:nonzero;stroke:none" />
    <rect
       width="6"
       height="4"
       rx="1"
       ry="1"
       x="69"
       y="56"
       id="rect3211"
       style="fill:url(#linearGradient3360);fill-opacity:1;fill-rule:nonzero;stroke:#000000;stroke-width:0.5;stroke-linecap:square;stroke-linejoin:miter;stroke-miterlimit:4;stroke-opacity:0.56363639;stroke-dasharray:none;stroke-dashoffset:0" />
    <path
       d="m 66,6 0,55 c 0,1.662 1.338,3 3,3 l 6,0 c 1.662,0 3,-1.338 3,-3 l 0,-55 -4,0 0,2 -4,0 0,-2 -4,0 z"
       inkscape:connector-curvature="0"
       clip-path="url(#clipPath3235)"
       id="path3231"
       style="fill:none;stroke:#000000;stroke-width:2;stroke-linecap:square;stroke-linejoin:miter;stroke-miterlimit:4;stroke-opacity:1;stroke-dasharray:none;stroke-dashoffset:0;filter:url(#filter3243)" />
    <path
       d="M 69.5,51 C 69.230226,51 69,51.217964 69,51.5 l 0,3 c 0,0.282036 0.230229,0.5 0.5,0.5 l 1,0 c 0.269774,0 0.5,-0.217964 0.5,-0.5 l 0,-0.5 1.5,0 c 0.277,0 0.5,-0.223 0.5,-0.5 l 0,-1 C 73,52.223 72.777,52 72.5,52 L 71,52 71,51.5 C 71,51.217964 70.769771,51 70.5,51 l -1,0 z"
       inkscape:connector-curvature="0"
       id="rect3249"
       style="fill:url(#linearGradient3372);fill-opacity:1;fill-rule:nonzero;stroke:#000000;stroke-width:0.5;stroke-linecap:square;stroke-linejoin:miter;stroke-miterlimit:4;stroke-opacity:0.56363639;stroke-dasharray:none;stroke-dashoffset:0" />
    <use
       transform="translate(0,-6)"
       id="use3308"
       x="0"
       y="0"
       width="96"
       height="96"
       xlink:href="#rect3249" />
    <use
       transform="translate(0,-6)"
       id="use3310"
       x="0"
       y="0"
       width="96"
       height="96"
       xlink:href="#use3308" />
    <use
       transform="translate(0,-6)"
       id="use3312"
       x="0"
       y="0"
       width="96"
       height="96"
       xlink:href="#use3310" />
    <use
       transform="translate(0,-6)"
       id="use3314"
       x="0"
       y="0"
       width="96"
       height="96"
       xlink:href="#use3312" />
    <use
       transform="translate(0,-6)"
       id="use3316"
       x="0"
       y="0"
       width="96"
       height="96"
       xlink:href="#use3314" />
    <use
       transform="translate(0,-6)"
       id="use3318"
       x="0"
       y="0"
       width="96"
       height="96"
       xlink:href="#use3316" />
    <use
       transform="translate(0,-6)"
       id="use3320"
       x="0"
       y="0"
       width="96"
       height="96"
       xlink:href="#use3318" />
    <path
       d="m 74.5,48 c 0.269774,0 0.5,0.217964 0.5,0.5 l 0,3 c 0,0.282036 -0.230229,0.5 -0.5,0.5 l -1,0 C 73.230226,52 73,51.782036 73,51.5 L 73,51 71.5,51 C 71.223,51 71,50.777 71,50.5 l 0,-1 C 71,49.223 71.223,49 71.5,49 l 1.5,0 0,-0.5 C 73,48.217964 73.230229,48 73.5,48 l 1,0 z"
       inkscape:connector-curvature="0"
       id="path3322"
       style="fill:url(#linearGradient3602);fill-opacity:1;fill-rule:nonzero;stroke:#000000;stroke-width:0.5;stroke-linecap:square;stroke-linejoin:miter;stroke-miterlimit:4;stroke-opacity:0.56363639;stroke-dasharray:none;stroke-dashoffset:0" />
    <use
       transform="translate(0,-6)"
       id="use3340"
       x="0"
       y="0"
       width="96"
       height="96"
       xlink:href="#path3322" />
    <use
       transform="translate(0,-6)"
       id="use3342"
       x="0"
       y="0"
       width="96"
       height="96"
       xlink:href="#use3340" />
    <use
       transform="translate(0,-6)"
       id="use3344"
       x="0"
       y="0"
       width="96"
       height="96"
       xlink:href="#use3342" />
    <use
       transform="translate(0,-6)"
       id="use3346"
       x="0"
       y="0"
       width="96"
       height="96"
       xlink:href="#use3344" />
    <use
       transform="translate(0,-6)"
       id="use3348"
       x="0"
       y="0"
       width="96"
       height="96"
       xlink:href="#use3346" />
    <use
       transform="translate(0,-6)"
       id="use3350"
       x="0"
       y="0"
       width="96"
       height="96"
       xlink:href="#use3348" />
    <path
       d="m 65,6 0,55 c 0,2.202295 1.797705,4 4,4 l 6,0 c 2.202295,0 4,-1.797705 4,-4 l 0,-55 -1,0 0,55 c 0,1.662 -1.338,3 -3,3 l -6,0 c -1.662,0 -3,-1.338 -3,-3 L 66,6 65,6 z"
       inkscape:connector-curvature="0"
       id="path3376"
       style="fill:url(#linearGradient3393);fill-opacity:1;fill-rule:nonzero;stroke:none" />
    <path
       d="m 69.5,10.53125 c -1.027701,0 -1.96875,0.765203 -1.96875,1.8125 l 0,10.8125 C 67.531245,24.203555 68.449331,25 69.5,25 l 5,0 c 1.050668,0 1.96875,-0.796448 1.96875,-1.84375 l 0,-10.8125 c -3e-6,-1.047297 -0.941051,-1.8125 -1.96875,-1.8125 l -5,0 z m 1.0625,9.0625 2.875,0 0,1.75 -2.875,0 0,-1.75 z"
       transform="translate(0,-2)"
       id="path3433"
       style="fill:#000000;fill-opacity:1;fill-rule:nonzero;stroke:#000000;stroke-width:0.49999994;stroke-linecap:square;stroke-linejoin:miter;stroke-miterlimit:4;stroke-opacity:0.56363639;stroke-dasharray:none;stroke-dashoffset:0;filter:url(#filter3429)" />
    <path
       d="M 69.229249,9.021415 C 68.54211,9.021415 68,9.503785 68,10.102963 L 67.9949,20.918451 C 67.994922,21.51763 68.537034,22 69.224171,22 l 5.583221,0 c 0.687139,0 1.229249,-0.48237 1.229249,-1.081549 l 0.0051,-10.815488 c 0,-0.599178 -0.542112,-1.081548 -1.229249,-1.081548 l -5.583221,0 z m 0.704303,7.949648 4.101324,0 0,3.118378 -4.101324,0 0,-3.118378 z"
       inkscape:connector-curvature="0"
       id="rect3403"
       style="fill:url(#linearGradient3516);fill-opacity:1;fill-rule:nonzero;stroke:none" />
    <path
       d="m 74.5625,9.96875 c 0.277,0 0.5,0.223 0.5,0.5 l 0,10.0625 c 0,0.277 -0.223,0.5 -0.5,0.5 l -5.09375,0 c -0.277,0 -0.499999,-0.223 -0.5,-0.5 l 0,-10.0625 c 0,-0.277 0.223001,-0.5 0.5,-0.5 l 5.09375,0 z m -0.4375,6.96875 -4.125,0 0,3.125 4.125,0 0,-3.125 z"
       inkscape:connector-curvature="0"
       id="rect3470"
       style="fill:url(#linearGradient3489);fill-opacity:1;fill-rule:nonzero;stroke:none" />
    <rect
       width="3.3788073"
       height="5"
       rx="0.56313455"
       ry="0.5"
       x="70.3106"
       y="7.5"
       id="rect3399"
       style="fill:url(#linearGradient3530);fill-opacity:1;fill-rule:nonzero;stroke:#000000;stroke-width:1;stroke-linecap:square;stroke-linejoin:miter;stroke-miterlimit:4;stroke-opacity:0.56363639;stroke-dasharray:none;stroke-dashoffset:0" />
    <rect
       width="4"
       height="1"
       x="69.984634"
       y="16"
       id="rect3518"
       style="opacity:0.3;fill:#000000;fill-opacity:1;fill-rule:nonzero;stroke:none" />
    <path
       d="m 18,50 0,14 1.8125,0 0,-6.15625 1.21875,0 c 0.301881,5e-6 0.542645,0.04344 0.71875,0.09375 0.188674,0.03774 0.379908,0.136405 0.59375,0.3125 0.138358,0.113213 0.329987,0.323118 0.53125,0.625 0.201252,0.289311 0.398579,0.610068 0.625,1 0.226408,0.377361 0.461078,0.809752 0.6875,1.25 0.238986,0.427676 0.454985,0.828814 0.65625,1.21875 0.213829,0.377358 0.411549,0.698114 0.5625,1 0.150934,0.301885 0.249598,0.530464 0.3125,0.65625 l 2.21875,0 -2.03125,-4.03125 c -0.226425,-0.440246 -0.473279,-0.860058 -0.75,-1.25 -0.26416,-0.402511 -0.597491,-0.766701 -1,-1.09375 0.880494,-0.238987 1.534583,-0.683563 2,-1.3125 0.477978,-0.641504 0.71874,-1.456359 0.71875,-2.4375 -9e-6,-0.767285 -0.154294,-1.452229 -0.46875,-2.09375 C 26.217562,51.391326 26.001563,51.070178 25.75,50.84375 25.498419,50.604768 25.239379,50.4383 24.9375,50.3125 24.648184,50.186729 24.308365,50.10025 23.96875,50.0625 23.62912,50.024778 23.283603,50.000014 22.90625,50 L 18,50 z m 15.78125,0 -4.25,14 1.96875,0 1.1875,-4.125 4.125,0 1.25,4.125 2.0625,0 -4.53125,-14 -1.8125,0 z M 42,50 l 0,14 1.8125,0 0,-6.15625 1.21875,0 c 0.301883,5e-6 0.542645,0.04344 0.71875,0.09375 0.188672,0.03774 0.411159,0.136405 0.625,0.3125 0.13836,0.113213 0.298737,0.323118 0.5,0.625 0.201252,0.289311 0.398579,0.610068 0.625,1 0.226408,0.377361 0.461078,0.809752 0.6875,1.25 0.238986,0.427676 0.454985,0.828814 0.65625,1.21875 0.213829,0.377358 0.411549,0.698114 0.5625,1 0.150936,0.301885 0.249598,0.530464 0.3125,0.65625 l 2.21875,0 -2.03125,-4.03125 c -0.226423,-0.440246 -0.473279,-0.860058 -0.75,-1.25 -0.26416,-0.402511 -0.597492,-0.766701 -1,-1.09375 0.880494,-0.238987 1.565833,-0.683563 2.03125,-1.3125 0.477978,-0.641504 0.71874,-1.456359 0.71875,-2.4375 -9e-6,-0.767285 -0.185544,-1.452229 -0.5,-2.09375 C 50.217564,51.391326 50.001563,51.070178 49.75,50.84375 49.498417,50.604768 49.239379,50.4383 48.9375,50.3125 48.648186,50.186729 48.339615,50.10025 48,50.0625 47.660371,50.024778 47.283603,50.000014 46.90625,50 L 42,50 z m -22.15625,1.6875 3.15625,0 c 0.691817,1.2e-5 1.210291,0.185154 1.5625,0.5625 0.352193,0.37737 0.531242,0.933186 0.53125,1.625 -8e-6,0.792461 -0.228585,1.366557 -0.65625,1.71875 -0.4151,0.33963 -1.001382,0.500007 -1.78125,0.5 l -2.8125,0 0,-4.40625 z m 24,0 3.15625,0 c 0.691817,1.2e-5 1.210291,0.185154 1.5625,0.5625 0.352195,0.37737 0.531242,0.933186 0.53125,1.625 -6e-6,0.792461 -0.197335,1.366557 -0.625,1.71875 -0.415102,0.33963 -1.032632,0.500007 -1.8125,0.5 l -2.8125,0 0,-4.40625 z m -9.15625,1.15625 c 0.226412,0.893091 0.485844,1.788335 0.75,2.65625 0.276724,0.867934 0.529672,1.725832 0.78125,2.59375 l -3,0 c 0.264147,-0.867917 0.548345,-1.738397 0.8125,-2.59375 0.264149,-0.867917 0.467567,-1.75058 0.65625,-2.65625 z"
       inkscape:connector-curvature="0"
       id="path3335"
       style="font-size:18.86792374px;font-style:normal;font-variant:normal;font-weight:bold;font-stretch:normal;text-align:start;line-height:120.00000477%;writing-mode:lr-tb;text-anchor:start;fill:#43134e;fill-opacity:1;stroke:none;font-family:BabelSans;-inkscape-font-specification:BabelSans Bold" />
    <path
       d="m 18,50 0,1 4.90625,0 c 0.377353,1.4e-5 0.72287,0.02478 1.0625,0.0625 0.339615,0.03775 0.679434,0.124229 0.96875,0.25 0.301879,0.1258 0.560919,0.292268 0.8125,0.53125 0.251563,0.226428 0.467562,0.547576 0.65625,0.9375 0.235842,0.481141 0.379363,0.98484 0.4375,1.53125 0.01117,-0.14174 0.03125,-0.288015 0.03125,-0.4375 -9e-6,-0.767285 -0.154294,-1.452229 -0.46875,-2.09375 C 26.217562,51.391326 26.001563,51.070178 25.75,50.84375 25.498419,50.604768 25.239379,50.4383 24.9375,50.3125 24.648184,50.186729 24.308365,50.10025 23.96875,50.0625 23.62912,50.024778 23.283603,50.000014 22.90625,50 L 18,50 z m 15.78125,0 -4.25,14 0.3125,0 3.9375,-13 1.8125,0 4.21875,13 0.3125,0 -4.53125,-14 -1.8125,0 z M 42,50 l 0,1 4.90625,0 c 0.377353,1.4e-5 0.754121,0.02478 1.09375,0.0625 0.339615,0.03775 0.648186,0.124229 0.9375,0.25 0.301879,0.1258 0.560917,0.292268 0.8125,0.53125 0.251563,0.226428 0.467564,0.547576 0.65625,0.9375 0.235842,0.481141 0.401824,0.98484 0.46875,1.53125 0.01117,-0.14174 0.03125,-0.288015 0.03125,-0.4375 -9e-6,-0.767285 -0.185544,-1.452229 -0.5,-2.09375 C 50.217564,51.391326 50.001563,51.070178 49.75,50.84375 49.498417,50.604768 49.239379,50.4383 48.9375,50.3125 48.648186,50.186729 48.339615,50.10025 48,50.0625 47.660371,50.024778 47.283603,50.000014 46.90625,50 L 42,50 z m -16.9375,4.4375 c -0.08434,0.512293 -0.304251,0.892105 -0.625,1.15625 -0.4151,0.33963 -1.001382,0.500007 -1.78125,0.5 l -2.8125,0 0,1 2.8125,0 c 0.779868,7e-6 1.36615,-0.16037 1.78125,-0.5 0.427665,-0.352193 0.656242,-0.926289 0.65625,-1.71875 -2e-6,-0.151418 -0.01416,-0.299557 -0.03125,-0.4375 z m 24,0 c -0.07555,0.512293 -0.273001,0.892105 -0.59375,1.15625 -0.415102,0.33963 -1.032632,0.500007 -1.8125,0.5 l -2.8125,0 0,1 2.8125,0 c 0.779868,7e-6 1.397398,-0.16037 1.8125,-0.5 0.427665,-0.352193 0.624994,-0.926289 0.625,-1.71875 -2e-6,-0.151418 -0.01416,-0.299557 -0.03125,-0.4375 z m -15.53125,3.65625 c -0.10548,0.334295 -0.210682,0.665453 -0.3125,1 l 3,0 c -0.0973,-0.335663 -0.213498,-0.666175 -0.3125,-1 l -2.375,0 z m -8.65625,0.25 c -0.222318,0.106512 -0.457576,0.210361 -0.71875,0.28125 0.402509,0.327049 0.73584,0.691239 1,1.09375 0.276721,0.389942 0.523575,0.809754 0.75,1.25 L 27.4375,64 l 0.5,0 -2.03125,-4.03125 c -0.226425,-0.440246 -0.473279,-0.860058 -0.75,-1.25 -0.08687,-0.132364 -0.179421,-0.250882 -0.28125,-0.375 z m 24,0 c -0.226186,0.106512 -0.457576,0.210361 -0.71875,0.28125 0.402508,0.327049 0.73584,0.691239 1,1.09375 0.276721,0.389942 0.523577,0.809754 0.75,1.25 L 51.4375,64 l 0.5,0 -2.03125,-4.03125 c -0.226423,-0.440246 -0.473279,-0.860058 -0.75,-1.25 -0.08687,-0.132364 -0.179421,-0.250882 -0.28125,-0.375 z"
       inkscape:connector-curvature="0"
       id="path3341"
       style="font-size:18.86792374px;font-style:normal;font-variant:normal;font-weight:bold;font-stretch:normal;text-align:start;line-height:120.00000477%;writing-mode:lr-tb;text-anchor:start;opacity:0.4;fill:#000000;fill-opacity:1;stroke:none;font-family:BabelSans;-inkscape-font-specification:BabelSans Bold" />
  </g>
</svg>
