<?xml version="1.0" encoding="UTF-8" standalone="no"?>
<!-- Created with Inkscape (http://www.inkscape.org/) -->

<svg
   xmlns:dc="http://purl.org/dc/elements/1.1/"
   xmlns:cc="http://creativecommons.org/ns#"
   xmlns:rdf="http://www.w3.org/1999/02/22-rdf-syntax-ns#"
   xmlns:svg="http://www.w3.org/2000/svg"
   xmlns="http://www.w3.org/2000/svg"
   xmlns:xlink="http://www.w3.org/1999/xlink"
   xmlns:inkscape="http://www.inkscape.org/namespaces/inkscape"
   version="1.0"
   width="96"
   height="96"
   id="svg2408"
   style="display:inline">
  <defs
     id="defs2410">
    <linearGradient
       id="linearGradient3329">
      <stop
         id="stop3331"
         style="stop-color:#b2822c;stop-opacity:1"
         offset="0" />
      <stop
         id="stop3333"
         style="stop-color:#fcdd67;stop-opacity:1"
         offset="1" />
    </linearGradient>
    <linearGradient
       id="linearGradient3321">
      <stop
         id="stop3323"
         style="stop-color:#b67229;stop-opacity:1"
         offset="0" />
      <stop
         id="stop3325"
         style="stop-color:#ffe169;stop-opacity:1"
         offset="0.2" />
      <stop
         id="stop3327"
         style="stop-color:#e5b54c;stop-opacity:0"
         offset="1" />
    </linearGradient>
    <linearGradient
       id="linearGradient3315">
      <stop
         id="stop3317"
         style="stop-color:#d09618;stop-opacity:1"
         offset="0" />
      <stop
         id="stop3319"
         style="stop-color:#eec363;stop-opacity:1"
         offset="1" />
    </linearGradient>
    <linearGradient
       id="linearGradient3604">
      <stop
         id="stop3606"
         style="stop-color:#2f2f2f;stop-opacity:1"
         offset="0" />
      <stop
         id="stop3608"
         style="stop-color:#ffffff;stop-opacity:1"
         offset="0.43731192" />
      <stop
         id="stop3610"
         style="stop-color:#979797;stop-opacity:1"
         offset="0.62138397" />
      <stop
         id="stop3612"
         style="stop-color:#505050;stop-opacity:1"
         offset="0.7723214" />
      <stop
         id="stop3614"
         style="stop-color:#e6e6e6;stop-opacity:1"
         offset="1" />
    </linearGradient>
    <linearGradient
       id="linearGradient3435">
      <stop
         id="stop3437"
         style="stop-color:#ededed;stop-opacity:1"
         offset="0" />
      <stop
         id="stop3439"
         style="stop-color:#b0b0b0;stop-opacity:1"
         offset="1" />
    </linearGradient>
    <linearGradient
       id="linearGradient3354">
      <stop
         id="stop3356"
         style="stop-color:#b4b4b4;stop-opacity:1"
         offset="0" />
      <stop
         id="stop3362"
         style="stop-color:#646464;stop-opacity:1"
         offset="0.20467032" />
      <stop
         id="stop3364"
         style="stop-color:#ffffff;stop-opacity:1"
         offset="0.49567693" />
      <stop
         id="stop3358"
         style="stop-color:#3c3c3c;stop-opacity:1"
         offset="1" />
    </linearGradient>
    <linearGradient
       id="linearGradient3290">
      <stop
         id="stop3292"
         style="stop-color:#ffffff;stop-opacity:1"
         offset="0" />
      <stop
         id="stop3304"
         style="stop-color:#8c8c8c;stop-opacity:1"
         offset="0.48973215" />
      <stop
         id="stop3306"
         style="stop-color:#cfcfcf;stop-opacity:1"
         offset="0.50044644" />
      <stop
         id="stop3298"
         style="stop-color:#ffffff;stop-opacity:1"
         offset="0.62276787" />
      <stop
         id="stop3300"
         style="stop-color:#c8c8c8;stop-opacity:1"
         offset="0.81696427" />
      <stop
         id="stop3294"
         style="stop-color:#505050;stop-opacity:1"
         offset="1" />
    </linearGradient>
    <linearGradient
       id="linearGradient3199">
      <stop
         id="stop3201"
         style="stop-color:#e5a824;stop-opacity:1"
         offset="0" />
      <stop
         id="stop3203"
         style="stop-color:#ffe680;stop-opacity:1"
         offset="1" />
    </linearGradient>
    <linearGradient
       x1="45.447727"
       y1="92.539597"
       x2="45.447727"
       y2="7.0165396"
       id="ButtonShadow"
       gradientUnits="userSpaceOnUse"
       gradientTransform="scale(1.0058652,0.994169)">
      <stop
         id="stop3750"
         style="stop-color:#000000;stop-opacity:1"
         offset="0" />
      <stop
         id="stop3752"
         style="stop-color:#000000;stop-opacity:0.58823532"
         offset="1" />
    </linearGradient>
    <linearGradient
       id="linearGradient3737">
      <stop
         id="stop3739"
         style="stop-color:#ffffff;stop-opacity:1"
         offset="0" />
      <stop
         id="stop3741"
         style="stop-color:#ffffff;stop-opacity:0"
         offset="1" />
    </linearGradient>
    <filter
       color-interpolation-filters="sRGB"
       id="filter3174">
      <feGaussianBlur
         id="feGaussianBlur3176"
         stdDeviation="1.71" />
    </filter>
    <linearGradient
       x1="19.035713"
       y1="74"
       x2="87.5"
       y2="27.428572"
       id="linearGradient3220"
       xlink:href="#linearGradient3737"
       gradientUnits="userSpaceOnUse" />
    <linearGradient
       x1="6"
       y1="73"
       x2="24"
       y2="73"
       id="linearGradient3234"
       xlink:href="#linearGradient3321"
       gradientUnits="userSpaceOnUse" />
    <linearGradient
       x1="6"
       y1="73"
       x2="24"
       y2="73"
       id="linearGradient3246"
       xlink:href="#linearGradient3321"
       gradientUnits="userSpaceOnUse"
       gradientTransform="matrix(-1,0,0,1,96,0)" />
    <linearGradient
       x1="38.748035"
       y1="72.409348"
       x2="38.748035"
       y2="5.8331571"
       id="linearGradient3223"
       xlink:href="#linearGradient3199"
       gradientUnits="userSpaceOnUse" />
    <radialGradient
       cx="90"
       cy="90"
       r="42"
       fx="90"
       fy="90"
       id="radialGradient3229"
       xlink:href="#linearGradient3315"
       gradientUnits="userSpaceOnUse"
       gradientTransform="matrix(0,-1.085034,2,0,-90,187.65306)" />
    <clipPath
       id="clipPath3235">
      <path
         d="m 66,6 0,55 c 0,1.662 1.338,3 3,3 l 6,0 c 1.662,0 3,-1.338 3,-3 l 0,-55 -4,0 0,2 -4,0 0,-2 -4,0 z"
         inkscape:connector-curvature="0"
         id="path3237"
         style="fill:#ffffff;fill-opacity:1;fill-rule:nonzero;stroke:none" />
    </clipPath>
    <filter
       x="-0.16615385"
       y="-0.036610167"
       width="1.3323077"
       height="1.0732203"
       color-interpolation-filters="sRGB"
       id="filter3243">
      <feGaussianBlur
         id="feGaussianBlur3245"
         stdDeviation="0.9" />
    </filter>
    <linearGradient
       x1="68.75"
       y1="59"
       x2="75.25"
       y2="59"
       id="linearGradient3360"
       xlink:href="#linearGradient3354"
       gradientUnits="userSpaceOnUse"
       gradientTransform="translate(0,-1)" />
    <linearGradient
       x1="69"
       y1="54"
       x2="73"
       y2="54"
       id="linearGradient3372"
       xlink:href="#linearGradient3290"
       gradientUnits="userSpaceOnUse"
       gradientTransform="translate(0,-1)" />
    <linearGradient
       x1="63.484772"
       y1="64.163078"
       x2="79"
       y2="65"
       id="linearGradient3393"
       xlink:href="#linearGradient3329"
       gradientUnits="userSpaceOnUse" />
    <filter
       x="-0.16182838"
       y="-0.095353596"
       width="1.3236568"
       height="1.1907072"
       color-interpolation-filters="sRGB"
       id="filter3429">
      <feGaussianBlur
         id="feGaussianBlur3431"
         stdDeviation="0.53551312" />
    </filter>
    <linearGradient
       x1="68.96875"
       y1="17.5"
       x2="75.0625"
       y2="17.5"
       id="linearGradient3489"
       xlink:href="#linearGradient3435"
       gradientUnits="userSpaceOnUse"
       gradientTransform="matrix(-1,0,0,1,144.03125,-2)" />
    <linearGradient
       x1="68.02903"
       y1="17.763245"
       x2="75.97097"
       y2="17.763245"
       id="linearGradient3516"
       xlink:href="#linearGradient3435"
       gradientUnits="userSpaceOnUse"
       gradientTransform="translate(0,-2)" />
    <linearGradient
       x1="68.75"
       y1="59"
       x2="72.250572"
       y2="59"
       id="linearGradient3530"
       xlink:href="#linearGradient3354"
       gradientUnits="userSpaceOnUse"
       gradientTransform="matrix(1.1262691,0,0,1,-7.4019692,-49.5)" />
    <linearGradient
       x1="69"
       y1="54"
       x2="73"
       y2="54"
       id="linearGradient3602"
       xlink:href="#linearGradient3604"
       gradientUnits="userSpaceOnUse"
       gradientTransform="matrix(-1,0,0,1,144,-4)" />
    <clipPath
       id="clipPath3352">
      <path
         d="m 11.6875,64.375 c -2.216,0 -4,1.784 -4,4 l 0,33.6875 c 0,2.216 1.7839995,4 4,4 l 36.09375,0 c 2.216,0 4.000001,-1.784 4,-4 l 0,-33.6875 c 0,-2.216 -1.783999,-4 -4,-4 l -36.09375,0 z m 6.875,15.625 7.28125,0 0,1.90625 c -0.205135,0.352212 -0.433858,0.778115 -0.71875,1.28125 -0.273511,0.490577 -0.575773,1.015144 -0.90625,1.59375 -0.33049,0.578625 -0.697833,1.202249 -1.0625,1.84375 -0.364677,0.641516 -0.717686,1.295995 -1.09375,1.9375 -0.364676,0.641514 -0.748935,1.258652 -1.125,1.875 -0.376071,0.616355 -0.740476,1.177874 -1.09375,1.71875 l 6.15625,0 0,1.84375 -8,0 0,-1.96875 5,-8.71875 c 0.159539,-0.26414 0.289347,-0.498418 0.4375,-0.75 0.159538,-0.251561 0.329054,-0.529665 0.5,-0.78125 l -5.375,0 0,-1.78125 z M 28,80 l 1.8125,0 0,14 L 28,94 28,80 z m 4,0 4.21875,0 c 0.440246,1.4e-5 0.847477,0.0122 1.25,0.0625 0.402509,0.03775 0.785371,0.130319 1.125,0.28125 0.339615,0.150957 0.64209,0.398204 0.90625,0.6875 0.276721,0.289321 0.498811,0.665695 0.6875,1.15625 0.125777,0.314476 0.230925,0.641715 0.28125,0.96875 0.05031,0.314475 0.06249,0.641717 0.0625,0.96875 -9e-6,0.528311 -0.06782,1.034206 -0.21875,1.5625 -0.138374,0.515731 -0.360463,0.997257 -0.6875,1.4375 -0.188688,0.264157 -0.466793,0.492735 -0.78125,0.65625 -0.314473,0.163528 -0.647806,0.274379 -1,0.375 -0.352208,0.08806 -0.697724,0.149768 -1.0625,0.1875 -0.352206,0.02516 -0.660776,0.06251 -0.9375,0.0625 l -2.03125,0 0,5.59375 L 32,94 32,80 z m 1.84375,1.78125 0,4.78125 2.09375,0 c 0.85534,7e-6 1.509425,-0.222477 2,-0.625 0.503137,-0.415086 0.781243,-1.020037 0.78125,-1.8125 -8e-6,-0.226406 -0.02477,-0.461073 -0.0625,-0.6875 -0.03774,-0.238983 -0.09946,-0.45498 -0.1875,-0.65625 C 38.380692,82.580003 38.263356,82.400955 38.125,82.25 37.986628,82.08649 37.826253,81.981733 37.625,81.90625 37.461472,81.843369 37.251566,81.812514 37,81.8125 c -0.239,-0.01257 -0.448905,-0.03124 -0.625,-0.03125 l -2.53125,0 z"
         inkscape:connector-curvature="0"
         id="path3354"
         style="fill:#ffffff;fill-opacity:1;fill-rule:nonzero;stroke:none" />
    </clipPath>
    <linearGradient
       x1="45.447727"
       y1="92.539597"
       x2="45.447727"
       y2="7.0165396"
       id="ButtonShadow-0"
       gradientUnits="userSpaceOnUse"
       gradientTransform="matrix(1.0058652,0,0,0.994169,100,0)">
      <stop
         id="stop3750-8"
         style="stop-color:#000000;stop-opacity:1"
         offset="0" />
      <stop
         id="stop3752-5"
         style="stop-color:#000000;stop-opacity:0.58823532"
         offset="1" />
    </linearGradient>
    <linearGradient
       x1="32.251034"
       y1="6.1317081"
       x2="32.251034"
       y2="90.238609"
       id="linearGradient3780"
       xlink:href="#ButtonShadow-0"
       gradientUnits="userSpaceOnUse"
       gradientTransform="matrix(1.0238095,0,0,1.0119048,-1.1428571,-98.071429)" />
    <linearGradient
       x1="32.251034"
       y1="6.1317081"
       x2="32.251034"
       y2="90.238609"
       id="linearGradient3772"
       xlink:href="#ButtonShadow-0"
       gradientUnits="userSpaceOnUse"
       gradientTransform="matrix(1.0238095,0,0,1.0119048,-1.1428571,-98.071429)" />
    <linearGradient
       x1="32.251034"
       y1="6.1317081"
       x2="32.251034"
       y2="90.238609"
       id="linearGradient3725"
       xlink:href="#ButtonShadow-0"
       gradientUnits="userSpaceOnUse"
       gradientTransform="matrix(1.0238095,0,0,1.0119048,-1.1428571,-98.071429)" />
    <linearGradient
       x1="32.251034"
       y1="6.1317081"
       x2="32.251034"
       y2="90.238609"
       id="linearGradient3721"
       xlink:href="#ButtonShadow-0"
       gradientUnits="userSpaceOnUse"
       gradientTransform="translate(0,-97)" />
    <linearGradient
       x1="32.251034"
       y1="6.1317081"
       x2="32.251034"
       y2="90.238609"
       id="linearGradient3760"
       xlink:href="#ButtonShadow-0"
       gradientUnits="userSpaceOnUse"
       gradientTransform="matrix(1.0238095,0,0,1.0119048,-1.1428571,-98.071429)" />
  </defs>
  <metadata
     id="metadata2413">
    <rdf:RDF>
      <cc:Work
         rdf:about="">
        <dc:format>image/svg+xml</dc:format>
        <dc:type
           rdf:resource="http://purl.org/dc/dcmitype/StillImage" />
      </cc:Work>
    </rdf:RDF>
  </metadata>
  <g
     id="layer2"
     style="display:none">
    <rect
       width="86"
       height="85"
       rx="6"
       ry="6"
       x="5"
       y="7"
       id="rect3745"
       style="opacity:0.9;fill:url(#ButtonShadow);fill-opacity:1;fill-rule:nonzero;stroke:none;filter:url(#filter3174)" />
  </g>
  <g
     id="layer4"
     style="display:inline">
    <path
       d="m 12,-95.03125 c -5.5110903,0 -10.03125,4.52016 -10.03125,10.03125 l 0,71 c 0,5.5110902 4.5201598,10.03125 10.03125,10.03125 l 72,0 c 5.51109,0 10.03125,-4.5201597 10.03125,-10.03125 l 0,-71 c 0,-5.51109 -4.52016,-10.03125 -10.03125,-10.03125 l -72,0 z"
       transform="scale(1,-1)"
       id="path3786"
       style="opacity:0.07999998;fill:url(#linearGradient3760);fill-opacity:1;fill-rule:nonzero;stroke:none;display:inline" />
    <path
       d="m 12,-94.03125 c -4.971633,0 -9.03125,4.059617 -9.03125,9.03125 l 0,71 c 0,4.9716329 4.0596171,9.03125 9.03125,9.03125 l 72,0 c 4.971633,0 9.03125,-4.059617 9.03125,-9.03125 l 0,-71 c 0,-4.971633 -4.059617,-9.03125 -9.03125,-9.03125 l -72,0 z"
       transform="scale(1,-1)"
       id="path3778"
       style="opacity:0.1;fill:url(#linearGradient3780);fill-opacity:1;fill-rule:nonzero;stroke:none;display:inline" />
    <path
       d="m 12,-93 c -4.4091333,0 -8,3.590867 -8,8 l 0,71 c 0,4.4091333 3.5908667,8 8,8 l 72,0 c 4.409133,0 8,-3.5908667 8,-8 l 0,-71 c 0,-4.409133 -3.590867,-8 -8,-8 l -72,0 z"
       transform="scale(1,-1)"
       id="path3770"
       style="opacity:0.2;fill:url(#linearGradient3772);fill-opacity:1;fill-rule:nonzero;stroke:none;display:inline" />
    <rect
       width="86"
       height="85"
       rx="7"
       ry="7"
       x="5"
       y="-92"
       transform="scale(1,-1)"
       id="rect3723"
       style="opacity:0.3;fill:url(#linearGradient3725);fill-opacity:1;fill-rule:nonzero;stroke:none;display:inline" />
    <rect
       width="84"
       height="84"
       rx="6"
       ry="6"
       x="6"
       y="-91"
       transform="scale(1,-1)"
       id="rect3716"
       style="opacity:0.45;fill:url(#linearGradient3721);fill-opacity:1;fill-rule:nonzero;stroke:none;display:inline" />
  </g>
  <g
     id="layer1"
     style="display:inline">
    <path
       d="M 12,6 C 8.676,6 6,8.676 6,12 l 0,72 c 0,3.324 2.676,6 6,6 l 72,0 c 3.324,0 6,-2.676 6,-6 L 90,12 C 90,8.676 87.324,6 84,6 l -9,0 0,3 -6,0 0,-3 -57,0 z"
       inkscape:connector-curvature="0"
       id="rect2419"
       style="fill:url(#radialGradient3229);fill-opacity:1;fill-rule:nonzero;stroke:none" />
    <path
       d="m 6,56 0,28 c 0,3.324 2.676,6 6,6 l 12,0 0,-34 -18,0 z"
       inkscape:connector-curvature="0"
       id="rect3222"
       style="fill:url(#linearGradient3234);fill-opacity:1;fill-rule:nonzero;stroke:none" />
    <path
       d="m 90,56 0,28 c 0,3.324 -2.676,6 -6,6 l -12,0 0,-34 18,0 z"
       inkscape:connector-curvature="0"
       id="path3244"
       style="fill:url(#linearGradient3246);fill-opacity:1;fill-rule:nonzero;stroke:none" />
    <path
       d="m 6,82 0,2 c 0,3.324 2.676,6 6,6 l 72,0 c 3.324,0 6,-2.676 6,-6 l 0,-2 c 0,3.324 -2.676,6 -6,6 L 12,88 C 8.676,88 6,85.324 6,82 z"
       inkscape:connector-curvature="0"
       id="rect2412"
       style="opacity:0.3;fill:#502d16;fill-opacity:1;fill-rule:nonzero;stroke:none" />
    <path
       d="m 6,78 0,2 c 0,3.324 2.676,6 6,6 l 72,0 c 3.324,0 6,-2.676 6,-6 l 0,-2 c 0,3.324 -2.676,6 -6,6 L 12,84 C 8.676,84 6,81.324 6,78 z"
       inkscape:connector-curvature="0"
       id="path3187"
       style="opacity:0.3;fill:#ffffff;fill-opacity:1;fill-rule:nonzero;stroke:none" />
    <path
       d="m 6,76 0,2 c 0,3.324 2.676,6 6,6 l 72,0 c 3.324,0 6,-2.676 6,-6 l 0,-2 c 0,3.324 -2.676,6 -6,6 L 12,82 C 8.676,82 6,79.324 6,76 z"
       inkscape:connector-curvature="0"
       id="path3189"
       style="opacity:0.3;fill:#502d16;fill-opacity:1;fill-rule:nonzero;stroke:none" />
    <path
       d="m 6,72 0,2 c 0,3.324 2.676,6 6,6 l 72,0 c 3.324,0 6,-2.676 6,-6 l 0,-2 c 0,3.324 -2.676,6 -6,6 L 12,78 C 8.676,78 6,75.324 6,72 z"
       inkscape:connector-curvature="0"
       id="path3191"
       style="opacity:0.3;fill:#ffffff;fill-opacity:1;fill-rule:nonzero;stroke:none" />
    <path
       d="m 6,70 0,2 c 0,3.324 2.676,6 6,6 l 72,0 c 3.324,0 6,-2.676 6,-6 l 0,-2 c 0,3.324 -2.676,6 -6,6 L 12,76 C 8.676,76 6,73.324 6,70 z"
       inkscape:connector-curvature="0"
       id="path3193"
       style="opacity:0.3;fill:#502d16;fill-opacity:1;fill-rule:nonzero;stroke:none" />
    <path
       d="M 12,6 C 8.676,6 6,8.676 6,12 l 0,56 c 0,3.324 2.676,6 6,6 l 72,0 c 3.324,0 6,-2.676 6,-6 L 90,12 C 90,8.676 87.324,6 84,6 l -9,0 0,3 -6,0 0,-3 -57,0 z"
       inkscape:connector-curvature="0"
       id="rect3195"
       style="fill:url(#linearGradient3223);fill-opacity:1;fill-rule:nonzero;stroke:none" />
    <path
       d="M 12,6 C 8.676,6 6,8.676 6,12 l 0,56 c 0,3.324 2.676,6 6,6 l 72,0 c 3.324,0 6,-2.676 6,-6 L 90,12 C 90,8.676 87.324,6 84,6 l -9,0 0,2 9,0 c 2.245802,0 4,1.7541975 4,4 l 0,56 c 0,2.245802 -1.754198,4 -4,4 L 12,72 C 9.7541975,72 8,70.245802 8,68 L 8,12 C 8,9.7541975 9.7541975,8 12,8 L 69,8 69,6 12,6 z"
       inkscape:connector-curvature="0"
       id="rect3207"
       style="opacity:0.5;fill:url(#linearGradient3220);fill-opacity:1;fill-rule:nonzero;stroke:none" />
  </g>
  <g
     id="layer3">
    <path
       d="m 18.5625,80 0,1.78125 5.375,0 c -0.170946,0.251585 -0.340462,0.529689 -0.5,0.78125 -0.148153,0.251582 -0.277961,0.48586 -0.4375,0.75 L 18,92.03125 18,94 l 8,0 0,-1.84375 -6.15625,0 c 0.353274,-0.540876 0.717679,-1.102395 1.09375,-1.71875 0.376065,-0.616348 0.760324,-1.233486 1.125,-1.875 0.376064,-0.641505 0.729073,-1.295984 1.09375,-1.9375 0.364667,-0.641501 0.73201,-1.265125 1.0625,-1.84375 0.330477,-0.578606 0.632739,-1.103173 0.90625,-1.59375 0.284892,-0.503135 0.513615,-0.929038 0.71875,-1.28125 l 0,-1.90625 -7.28125,0 z M 28,80 l 0,14 1.8125,0 0,-14 L 28,80 z m 4,0 0,14 1.8125,0 0,-5.59375 2.03125,0 c 0.276724,5e-6 0.585294,-0.03734 0.9375,-0.0625 0.364776,-0.03773 0.710292,-0.09944 1.0625,-0.1875 0.352194,-0.100621 0.685527,-0.211472 1,-0.375 0.314457,-0.163515 0.592562,-0.392093 0.78125,-0.65625 0.327037,-0.440243 0.549126,-0.921769 0.6875,-1.4375 0.150933,-0.528294 0.218741,-1.034189 0.21875,-1.5625 -9e-6,-0.327033 -0.01219,-0.654275 -0.0625,-0.96875 C 40.41842,82.829215 40.313277,82.501976 40.1875,82.1875 39.998811,81.696945 39.776721,81.320571 39.5,81.03125 39.23584,80.741954 38.933365,80.494707 38.59375,80.34375 38.254121,80.192819 37.871259,80.10025 37.46875,80.0625 37.066227,80.0122 36.658996,80.00001 36.21875,80 L 32,80 z m 1.84375,1.78125 2.53125,0 c 0.176095,1.3e-5 0.386,0.01868 0.625,0.03125 0.251566,1.4e-5 0.461472,0.03087 0.625,0.09375 0.201253,0.07548 0.361628,0.18024 0.5,0.34375 0.138356,0.150955 0.255692,0.330003 0.34375,0.53125 0.08804,0.20127 0.149756,0.417267 0.1875,0.65625 0.03773,0.226427 0.06249,0.461094 0.0625,0.6875 -7e-6,0.792463 -0.278113,1.397414 -0.78125,1.8125 -0.490575,0.402523 -1.14466,0.625007 -2,0.625 l -2.09375,0 0,-4.78125 z"
       inkscape:connector-curvature="0"
       transform="translate(0,-30)"
       clip-path="url(#clipPath3352)"
       id="path3783"
       style="font-size:18.86792374px;font-style:normal;font-variant:normal;font-weight:bold;font-stretch:normal;text-align:start;line-height:120.00000477%;writing-mode:lr-tb;text-anchor:start;opacity:0.05;fill:none;stroke:#ffffff;stroke-width:6;stroke-linecap:butt;stroke-linejoin:miter;stroke-miterlimit:4;stroke-opacity:1;stroke-dasharray:none;font-family:BabelSans;-inkscape-font-specification:BabelSans Bold" />
    <path
       d="m 18.5625,80 0,1.78125 5.375,0 c -0.170946,0.251585 -0.340462,0.529689 -0.5,0.78125 -0.148153,0.251582 -0.277961,0.48586 -0.4375,0.75 L 18,92.03125 18,94 l 8,0 0,-1.84375 -6.15625,0 c 0.353274,-0.540876 0.717679,-1.102395 1.09375,-1.71875 0.376065,-0.616348 0.760324,-1.233486 1.125,-1.875 0.376064,-0.641505 0.729073,-1.295984 1.09375,-1.9375 0.364667,-0.641501 0.73201,-1.265125 1.0625,-1.84375 0.330477,-0.578606 0.632739,-1.103173 0.90625,-1.59375 0.284892,-0.503135 0.513615,-0.929038 0.71875,-1.28125 l 0,-1.90625 -7.28125,0 z M 28,80 l 0,14 1.8125,0 0,-14 L 28,80 z m 4,0 0,14 1.8125,0 0,-5.59375 2.03125,0 c 0.276724,5e-6 0.585294,-0.03734 0.9375,-0.0625 0.364776,-0.03773 0.710292,-0.09944 1.0625,-0.1875 0.352194,-0.100621 0.685527,-0.211472 1,-0.375 0.314457,-0.163515 0.592562,-0.392093 0.78125,-0.65625 0.327037,-0.440243 0.549126,-0.921769 0.6875,-1.4375 0.150933,-0.528294 0.218741,-1.034189 0.21875,-1.5625 -9e-6,-0.327033 -0.01219,-0.654275 -0.0625,-0.96875 C 40.41842,82.829215 40.313277,82.501976 40.1875,82.1875 39.998811,81.696945 39.776721,81.320571 39.5,81.03125 39.23584,80.741954 38.933365,80.494707 38.59375,80.34375 38.254121,80.192819 37.871259,80.10025 37.46875,80.0625 37.066227,80.0122 36.658996,80.00001 36.21875,80 L 32,80 z m 1.84375,1.78125 2.53125,0 c 0.176095,1.3e-5 0.386,0.01868 0.625,0.03125 0.251566,1.4e-5 0.461472,0.03087 0.625,0.09375 0.201253,0.07548 0.361628,0.18024 0.5,0.34375 0.138356,0.150955 0.255692,0.330003 0.34375,0.53125 0.08804,0.20127 0.149756,0.417267 0.1875,0.65625 0.03773,0.226427 0.06249,0.461094 0.0625,0.6875 -7e-6,0.792463 -0.278113,1.397414 -0.78125,1.8125 -0.490575,0.402523 -1.14466,0.625007 -2,0.625 l -2.09375,0 0,-4.78125 z"
       inkscape:connector-curvature="0"
       transform="translate(0,-30)"
       clip-path="url(#clipPath3352)"
       id="path3781"
       style="font-size:18.86792374px;font-style:normal;font-variant:normal;font-weight:bold;font-stretch:normal;text-align:start;line-height:120.00000477%;writing-mode:lr-tb;text-anchor:start;opacity:0.1;fill:none;stroke:#ffffff;stroke-width:4;stroke-linecap:butt;stroke-linejoin:miter;stroke-miterlimit:4;stroke-opacity:1;stroke-dasharray:none;font-family:BabelSans;-inkscape-font-specification:BabelSans Bold" />
    <path
       d="m 18.5625,80 0,1.78125 5.375,0 c -0.170946,0.251585 -0.340462,0.529689 -0.5,0.78125 -0.148153,0.251582 -0.277961,0.48586 -0.4375,0.75 L 18,92.03125 18,94 l 8,0 0,-1.84375 -6.15625,0 c 0.353274,-0.540876 0.717679,-1.102395 1.09375,-1.71875 0.376065,-0.616348 0.760324,-1.233486 1.125,-1.875 0.376064,-0.641505 0.729073,-1.295984 1.09375,-1.9375 0.364667,-0.641501 0.73201,-1.265125 1.0625,-1.84375 0.330477,-0.578606 0.632739,-1.103173 0.90625,-1.59375 0.284892,-0.503135 0.513615,-0.929038 0.71875,-1.28125 l 0,-1.90625 -7.28125,0 z M 28,80 l 0,14 1.8125,0 0,-14 L 28,80 z m 4,0 0,14 1.8125,0 0,-5.59375 2.03125,0 c 0.276724,5e-6 0.585294,-0.03734 0.9375,-0.0625 0.364776,-0.03773 0.710292,-0.09944 1.0625,-0.1875 0.352194,-0.100621 0.685527,-0.211472 1,-0.375 0.314457,-0.163515 0.592562,-0.392093 0.78125,-0.65625 0.327037,-0.440243 0.549126,-0.921769 0.6875,-1.4375 0.150933,-0.528294 0.218741,-1.034189 0.21875,-1.5625 -9e-6,-0.327033 -0.01219,-0.654275 -0.0625,-0.96875 C 40.41842,82.829215 40.313277,82.501976 40.1875,82.1875 39.998811,81.696945 39.776721,81.320571 39.5,81.03125 39.23584,80.741954 38.933365,80.494707 38.59375,80.34375 38.254121,80.192819 37.871259,80.10025 37.46875,80.0625 37.066227,80.0122 36.658996,80.00001 36.21875,80 L 32,80 z m 1.84375,1.78125 2.53125,0 c 0.176095,1.3e-5 0.386,0.01868 0.625,0.03125 0.251566,1.4e-5 0.461472,0.03087 0.625,0.09375 0.201253,0.07548 0.361628,0.18024 0.5,0.34375 0.138356,0.150955 0.255692,0.330003 0.34375,0.53125 0.08804,0.20127 0.149756,0.417267 0.1875,0.65625 0.03773,0.226427 0.06249,0.461094 0.0625,0.6875 -7e-6,0.792463 -0.278113,1.397414 -0.78125,1.8125 -0.490575,0.402523 -1.14466,0.625007 -2,0.625 l -2.09375,0 0,-4.78125 z"
       inkscape:connector-curvature="0"
       transform="translate(0,-30)"
       clip-path="url(#clipPath3352)"
       id="path3341"
       style="font-size:18.86792374px;font-style:normal;font-variant:normal;font-weight:bold;font-stretch:normal;text-align:start;line-height:120.00000477%;writing-mode:lr-tb;text-anchor:start;opacity:0.2;fill:none;stroke:#ffffff;stroke-width:2;stroke-linecap:butt;stroke-linejoin:miter;stroke-miterlimit:4;stroke-opacity:1;stroke-dasharray:none;font-family:BabelSans;-inkscape-font-specification:BabelSans Bold" />
    <path
       d="m 66,6 0,55 c 0,1.662 1.338,3 3,3 l 6,0 c 1.662,0 3,-1.338 3,-3 l 0,-55 -4,0 0,2 -4,0 0,-2 -4,0 z"
       inkscape:connector-curvature="0"
       id="rect3201"
       style="fill:#252525;fill-opacity:1;fill-rule:nonzero;stroke:none" />
    <rect
       width="4"
       height="49"
       x="70"
       y="8"
       id="rect3247"
       style="fill:#4d4d4d;fill-opacity:1;fill-rule:nonzero;stroke:none" />
    <rect
       width="6"
       height="4"
       rx="1"
       ry="1"
       x="69"
       y="56"
       id="rect3211"
       style="fill:url(#linearGradient3360);fill-opacity:1;fill-rule:nonzero;stroke:#000000;stroke-width:0.5;stroke-linecap:square;stroke-linejoin:miter;stroke-miterlimit:4;stroke-opacity:0.56363639;stroke-dasharray:none;stroke-dashoffset:0" />
    <path
       d="m 66,6 0,55 c 0,1.662 1.338,3 3,3 l 6,0 c 1.662,0 3,-1.338 3,-3 l 0,-55 -4,0 0,2 -4,0 0,-2 -4,0 z"
       inkscape:connector-curvature="0"
       clip-path="url(#clipPath3235)"
       id="path3231"
       style="fill:none;stroke:#000000;stroke-width:2;stroke-linecap:square;stroke-linejoin:miter;stroke-miterlimit:4;stroke-opacity:1;stroke-dasharray:none;stroke-dashoffset:0;filter:url(#filter3243)" />
    <path
       d="M 69.5,51 C 69.230226,51 69,51.217964 69,51.5 l 0,3 c 0,0.282036 0.230229,0.5 0.5,0.5 l 1,0 c 0.269774,0 0.5,-0.217964 0.5,-0.5 l 0,-0.5 1.5,0 c 0.277,0 0.5,-0.223 0.5,-0.5 l 0,-1 C 73,52.223 72.777,52 72.5,52 L 71,52 71,51.5 C 71,51.217964 70.769771,51 70.5,51 l -1,0 z"
       inkscape:connector-curvature="0"
       id="rect3249"
       style="fill:url(#linearGradient3372);fill-opacity:1;fill-rule:nonzero;stroke:#000000;stroke-width:0.5;stroke-linecap:square;stroke-linejoin:miter;stroke-miterlimit:4;stroke-opacity:0.56363639;stroke-dasharray:none;stroke-dashoffset:0" />
    <use
       transform="translate(0,-6)"
       id="use3308"
       x="0"
       y="0"
       width="96"
       height="96"
       xlink:href="#rect3249" />
    <use
       transform="translate(0,-6)"
       id="use3310"
       x="0"
       y="0"
       width="96"
       height="96"
       xlink:href="#use3308" />
    <use
       transform="translate(0,-6)"
       id="use3312"
       x="0"
       y="0"
       width="96"
       height="96"
       xlink:href="#use3310" />
    <use
       transform="translate(0,-6)"
       id="use3314"
       x="0"
       y="0"
       width="96"
       height="96"
       xlink:href="#use3312" />
    <use
       transform="translate(0,-6)"
       id="use3316"
       x="0"
       y="0"
       width="96"
       height="96"
       xlink:href="#use3314" />
    <use
       transform="translate(0,-6)"
       id="use3318"
       x="0"
       y="0"
       width="96"
       height="96"
       xlink:href="#use3316" />
    <use
       transform="translate(0,-6)"
       id="use3320"
       x="0"
       y="0"
       width="96"
       height="96"
       xlink:href="#use3318" />
    <path
       d="m 74.5,48 c 0.269774,0 0.5,0.217964 0.5,0.5 l 0,3 c 0,0.282036 -0.230229,0.5 -0.5,0.5 l -1,0 C 73.230226,52 73,51.782036 73,51.5 L 73,51 71.5,51 C 71.223,51 71,50.777 71,50.5 l 0,-1 C 71,49.223 71.223,49 71.5,49 l 1.5,0 0,-0.5 C 73,48.217964 73.230229,48 73.5,48 l 1,0 z"
       inkscape:connector-curvature="0"
       id="path3322"
       style="fill:url(#linearGradient3602);fill-opacity:1;fill-rule:nonzero;stroke:#000000;stroke-width:0.5;stroke-linecap:square;stroke-linejoin:miter;stroke-miterlimit:4;stroke-opacity:0.56363639;stroke-dasharray:none;stroke-dashoffset:0" />
    <use
       transform="translate(0,-6)"
       id="use3340"
       x="0"
       y="0"
       width="96"
       height="96"
       xlink:href="#path3322" />
    <use
       transform="translate(0,-6)"
       id="use3342"
       x="0"
       y="0"
       width="96"
       height="96"
       xlink:href="#use3340" />
    <use
       transform="translate(0,-6)"
       id="use3344"
       x="0"
       y="0"
       width="96"
       height="96"
       xlink:href="#use3342" />
    <use
       transform="translate(0,-6)"
       id="use3346"
       x="0"
       y="0"
       width="96"
       height="96"
       xlink:href="#use3344" />
    <use
       transform="translate(0,-6)"
       id="use3348"
       x="0"
       y="0"
       width="96"
       height="96"
       xlink:href="#use3346" />
    <use
       transform="translate(0,-6)"
       id="use3350"
       x="0"
       y="0"
       width="96"
       height="96"
       xlink:href="#use3348" />
    <path
       d="m 65,6 0,55 c 0,2.202295 1.797705,4 4,4 l 6,0 c 2.202295,0 4,-1.797705 4,-4 l 0,-55 -1,0 0,55 c 0,1.662 -1.338,3 -3,3 l -6,0 c -1.662,0 -3,-1.338 -3,-3 L 66,6 65,6 z"
       inkscape:connector-curvature="0"
       id="path3376"
       style="fill:url(#linearGradient3393);fill-opacity:1;fill-rule:nonzero;stroke:none" />
    <path
       d="m 69.5,10.53125 c -1.027701,0 -1.96875,0.765203 -1.96875,1.8125 l 0,10.8125 C 67.531245,24.203555 68.449331,25 69.5,25 l 5,0 c 1.050668,0 1.96875,-0.796448 1.96875,-1.84375 l 0,-10.8125 c -3e-6,-1.047297 -0.941051,-1.8125 -1.96875,-1.8125 l -5,0 z m 1.0625,9.0625 2.875,0 0,1.75 -2.875,0 0,-1.75 z"
       transform="translate(0,-2)"
       id="path3433"
       style="fill:#000000;fill-opacity:1;fill-rule:nonzero;stroke:#000000;stroke-width:0.49999994;stroke-linecap:square;stroke-linejoin:miter;stroke-miterlimit:4;stroke-opacity:0.56363639;stroke-dasharray:none;stroke-dashoffset:0;filter:url(#filter3429)" />
    <path
       d="M 69.229249,9.021415 C 68.54211,9.021415 68,9.503785 68,10.102963 L 67.9949,20.918451 C 67.994922,21.51763 68.537034,22 69.224171,22 l 5.583221,0 c 0.687139,0 1.229249,-0.48237 1.229249,-1.081549 l 0.0051,-10.815488 c 0,-0.599178 -0.542112,-1.081548 -1.229249,-1.081548 l -5.583221,0 z m 0.704303,7.949648 4.101324,0 0,3.118378 -4.101324,0 0,-3.118378 z"
       inkscape:connector-curvature="0"
       id="rect3403"
       style="fill:url(#linearGradient3516);fill-opacity:1;fill-rule:nonzero;stroke:none" />
    <path
       d="m 74.5625,9.96875 c 0.277,0 0.5,0.223 0.5,0.5 l 0,10.0625 c 0,0.277 -0.223,0.5 -0.5,0.5 l -5.09375,0 c -0.277,0 -0.499999,-0.223 -0.5,-0.5 l 0,-10.0625 c 0,-0.277 0.223001,-0.5 0.5,-0.5 l 5.09375,0 z m -0.4375,6.96875 -4.125,0 0,3.125 4.125,0 0,-3.125 z"
       inkscape:connector-curvature="0"
       id="rect3470"
       style="fill:url(#linearGradient3489);fill-opacity:1;fill-rule:nonzero;stroke:none" />
    <rect
       width="3.3788073"
       height="5"
       rx="0.56313455"
       ry="0.5"
       x="70.3106"
       y="7.5"
       id="rect3399"
       style="fill:url(#linearGradient3530);fill-opacity:1;fill-rule:nonzero;stroke:#000000;stroke-width:1;stroke-linecap:square;stroke-linejoin:miter;stroke-miterlimit:4;stroke-opacity:0.56363639;stroke-dasharray:none;stroke-dashoffset:0" />
    <rect
       width="4"
       height="1"
       x="69.984634"
       y="16"
       id="rect3518"
       style="opacity:0.3;fill:#000000;fill-opacity:1;fill-rule:nonzero;stroke:none" />
    <path
       d="m 18.5625,50 0,1.78125 5.375,0 c -0.170946,0.251585 -0.340462,0.529689 -0.5,0.78125 -0.148153,0.251582 -0.277961,0.48586 -0.4375,0.75 L 18,62.03125 18,64 l 8,0 0,-1.84375 -6.15625,0 c 0.353274,-0.540876 0.717679,-1.102395 1.09375,-1.71875 0.376065,-0.616348 0.760324,-1.233486 1.125,-1.875 0.376064,-0.641505 0.729073,-1.295984 1.09375,-1.9375 0.364667,-0.641501 0.73201,-1.265125 1.0625,-1.84375 0.330477,-0.578606 0.632739,-1.103173 0.90625,-1.59375 0.284892,-0.503135 0.513615,-0.929038 0.71875,-1.28125 l 0,-1.90625 -7.28125,0 z M 28,50 l 0,14 1.8125,0 0,-14 L 28,50 z m 4,0 0,14 1.8125,0 0,-5.59375 2.03125,0 c 0.276724,5e-6 0.585294,-0.03734 0.9375,-0.0625 0.364776,-0.03773 0.710292,-0.09944 1.0625,-0.1875 0.352194,-0.100621 0.685527,-0.211472 1,-0.375 0.314457,-0.163515 0.592562,-0.392093 0.78125,-0.65625 0.327037,-0.440243 0.549126,-0.921769 0.6875,-1.4375 0.150933,-0.528294 0.218741,-1.034189 0.21875,-1.5625 -9e-6,-0.327033 -0.01219,-0.654275 -0.0625,-0.96875 C 40.41842,52.829215 40.313277,52.501976 40.1875,52.1875 39.998811,51.696945 39.776721,51.320571 39.5,51.03125 39.23584,50.741954 38.933365,50.494707 38.59375,50.34375 38.254121,50.192819 37.871259,50.10025 37.46875,50.0625 37.066227,50.0122 36.658996,50.00001 36.21875,50 L 32,50 z m 1.84375,1.78125 2.53125,0 c 0.176095,1.3e-5 0.386,0.01868 0.625,0.03125 0.251566,1.4e-5 0.461472,0.03087 0.625,0.09375 0.201253,0.07548 0.361628,0.18024 0.5,0.34375 0.138356,0.150955 0.255692,0.330003 0.34375,0.53125 0.08804,0.20127 0.149756,0.417267 0.1875,0.65625 0.03773,0.226427 0.06249,0.461094 0.0625,0.6875 -7e-6,0.792463 -0.278113,1.397414 -0.78125,1.8125 -0.490575,0.402523 -1.14466,0.625007 -2,0.625 l -2.09375,0 0,-4.78125 z"
       inkscape:connector-curvature="0"
       id="path3312"
       style="font-size:18.86792374px;font-style:normal;font-variant:normal;font-weight:bold;font-stretch:normal;text-align:start;line-height:120.00000477%;writing-mode:lr-tb;text-anchor:start;fill:#7a4b21;fill-opacity:1;stroke:none;font-family:BabelSans;-inkscape-font-specification:BabelSans Bold" />
    <path
       d="m 18.5625,50 0,1 7.28125,0 0,-1 -7.28125,0 z M 28,50 l 0,1 1.8125,0 0,-1 L 28,50 z m 4,0 0,1 4.21875,0 c 0.440246,1.4e-5 0.847477,0.0122 1.25,0.0625 0.402509,0.03775 0.785371,0.130319 1.125,0.28125 0.339615,0.150957 0.64209,0.398204 0.90625,0.6875 0.276721,0.289321 0.498811,0.665695 0.6875,1.15625 0.125777,0.314476 0.230925,0.641715 0.28125,0.96875 0.02111,0.131982 0.02165,0.27073 0.03125,0.40625 0.01096,-0.145298 0.03125,-0.289674 0.03125,-0.4375 -9e-6,-0.327033 -0.01219,-0.654275 -0.0625,-0.96875 C 40.41842,52.829215 40.313277,52.501976 40.1875,52.1875 39.998811,51.696945 39.776721,51.320571 39.5,51.03125 39.23584,50.741954 38.933365,50.494707 38.59375,50.34375 38.254121,50.192819 37.871259,50.10025 37.46875,50.0625 37.066227,50.0122 36.658996,50.00001 36.21875,50 L 32,50 z m -8.6875,2.78125 C 23.212018,52.955525 23.113248,53.125002 23,53.3125 l -5,8.71875 0,1 5,-8.71875 c 0.159539,-0.26414 0.289347,-0.498418 0.4375,-0.75 0.159538,-0.251561 0.329054,-0.529665 0.5,-0.78125 l -0.625,0 z m 15.34375,1.78125 c -0.08573,0.578867 -0.313786,1.040906 -0.71875,1.375 -0.490575,0.402523 -1.14466,0.625007 -2,0.625 l -2.09375,0 0,1 2.09375,0 c 0.85534,7e-6 1.509425,-0.222477 2,-0.625 0.503137,-0.415086 0.781243,-1.020037 0.78125,-1.8125 -7e-6,-0.185579 -0.03572,-0.374908 -0.0625,-0.5625 z m -18.1875,7.59375 c -0.212046,0.333535 -0.420517,0.686928 -0.625,1 l 6.15625,0 0,-1 -5.53125,0 z"
       inkscape:connector-curvature="0"
       id="path3336"
       style="font-size:18.86792374px;font-style:normal;font-variant:normal;font-weight:bold;font-stretch:normal;text-align:start;line-height:120.00000477%;writing-mode:lr-tb;text-anchor:start;opacity:0.4;fill:#000000;fill-opacity:1;stroke:none;font-family:BabelSans;-inkscape-font-specification:BabelSans Bold" />
  </g>
</svg>
