<?xml version="1.0" encoding="UTF-8" standalone="no"?>
<!-- Created with Inkscape (http://www.inkscape.org/) -->

<svg
   xmlns:dc="http://purl.org/dc/elements/1.1/"
   xmlns:cc="http://creativecommons.org/ns#"
   xmlns:rdf="http://www.w3.org/1999/02/22-rdf-syntax-ns#"
   xmlns:svg="http://www.w3.org/2000/svg"
   xmlns="http://www.w3.org/2000/svg"
   xmlns:xlink="http://www.w3.org/1999/xlink"
   xmlns:inkscape="http://www.inkscape.org/namespaces/inkscape"
   version="1.2"
   width="96"
   height="96"
   id="svg2408"
   style="display:inline">
  <defs
     id="defs2410">
    <linearGradient
       id="linearGradient3789">
      <stop
         id="stop3791"
         style="stop-color:#949494;stop-opacity:1"
         offset="0" />
      <stop
         id="stop3793"
         style="stop-color:#b3b3b3;stop-opacity:1"
         offset="1" />
    </linearGradient>
    <linearGradient
       x1="45.447727"
       y1="92.539597"
       x2="45.447727"
       y2="7.0165396"
       id="ButtonShadow"
       gradientUnits="userSpaceOnUse"
       gradientTransform="scale(1.0058652,0.994169)">
      <stop
         id="stop3750"
         style="stop-color:#000000;stop-opacity:1"
         offset="0" />
      <stop
         id="stop3752"
         style="stop-color:#000000;stop-opacity:0.58823532"
         offset="1" />
    </linearGradient>
    <linearGradient
       id="linearGradient3700">
      <stop
         id="stop3702"
         style="stop-color:#e6e6e6;stop-opacity:1"
         offset="0" />
      <stop
         id="stop3704"
         style="stop-color:#f5f5f5;stop-opacity:1"
         offset="1" />
    </linearGradient>
    <linearGradient
       x1="48"
       y1="90"
       x2="48"
       y2="5.9877172"
       id="linearGradient3706"
       xlink:href="#linearGradient3700"
       gradientUnits="userSpaceOnUse" />
    <filter
       color-interpolation-filters="sRGB"
       id="filter3174">
      <feGaussianBlur
         id="feGaussianBlur3176"
         stdDeviation="1.71" />
    </filter>
    <linearGradient
       x1="45.447727"
       y1="92.539597"
       x2="45.447727"
       y2="7.0165396"
       id="ButtonShadow-0"
       gradientUnits="userSpaceOnUse"
       gradientTransform="matrix(1.0058652,0,0,0.994169,100,0)">
      <stop
         id="stop3750-8"
         style="stop-color:#000000;stop-opacity:1"
         offset="0" />
      <stop
         id="stop3752-5"
         style="stop-color:#000000;stop-opacity:0.58823532"
         offset="1" />
    </linearGradient>
    <linearGradient
       x1="32.251034"
       y1="6.1317081"
       x2="32.251034"
       y2="90.238609"
       id="linearGradient3780"
       xlink:href="#ButtonShadow-0"
       gradientUnits="userSpaceOnUse"
       gradientTransform="matrix(1.0238095,0,0,1.0119048,-1.1428571,-98.071429)" />
    <linearGradient
       x1="32.251034"
       y1="6.1317081"
       x2="32.251034"
       y2="90.238609"
       id="linearGradient3772"
       xlink:href="#ButtonShadow-0"
       gradientUnits="userSpaceOnUse"
       gradientTransform="matrix(1.0238095,0,0,1.0119048,-1.1428571,-98.071429)" />
    <linearGradient
       x1="32.251034"
       y1="6.1317081"
       x2="32.251034"
       y2="90.238609"
       id="linearGradient3725"
       xlink:href="#ButtonShadow-0"
       gradientUnits="userSpaceOnUse"
       gradientTransform="matrix(1.0238095,0,0,1.0119048,-1.1428571,-98.071429)" />
    <linearGradient
       x1="32.251034"
       y1="6.1317081"
       x2="32.251034"
       y2="90.238609"
       id="linearGradient3721"
       xlink:href="#ButtonShadow-0"
       gradientUnits="userSpaceOnUse"
       gradientTransform="translate(0,-97)" />
    <linearGradient
       x1="32.251034"
       y1="6.1317081"
       x2="32.251034"
       y2="90.238609"
       id="linearGradient3760"
       xlink:href="#ButtonShadow-0"
       gradientUnits="userSpaceOnUse"
       gradientTransform="matrix(1.0238095,0,0,1.0119048,-1.1428571,-98.071429)" />
    <radialGradient
       cx="48"
       cy="90.171875"
       r="42"
       fx="48"
       fy="90.171875"
       id="radialGradient2886"
       xlink:href="#linearGradient3737-0"
       gradientUnits="userSpaceOnUse"
       gradientTransform="matrix(1.1573129,0,0,0.99590774,-7.551021,0.1971319)" />
    <linearGradient
       id="linearGradient3737-0">
      <stop
         id="stop3739-6"
         style="stop-color:#ffffff;stop-opacity:1"
         offset="0" />
      <stop
         id="stop3741-0"
         style="stop-color:#ffffff;stop-opacity:0"
         offset="1" />
    </linearGradient>
    <linearGradient
       id="linearGradient3737-1">
      <stop
         id="stop3739-9-8"
         style="stop-color:#ffffff;stop-opacity:1"
         offset="0" />
      <stop
         id="stop3741-3"
         style="stop-color:#ffffff;stop-opacity:0"
         offset="1" />
    </linearGradient>
    <linearGradient
       x1="36.357143"
       y1="6"
       x2="36.357143"
       y2="63.893143"
       id="linearGradient3680"
       xlink:href="#linearGradient3737-1"
       gradientUnits="userSpaceOnUse" />
    <clipPath
       id="clipPath3776">
      <path
         d="m -88,6 c -3.324,0 -6,2.676 -6,6 l 0,72 c 0,3.324 2.676,6 6,6 l 72,0 c 3.324,0 6,-2.676 6,-6 l 0,-72 c 0,-3.324 -2.676,-6 -6,-6 l -72,0 z m 14.78125,18 4.40625,0 c 0.944132,1.3e-5 1.646705,0.342872 2.15625,1.09375 0.404619,0.605567 0.656238,1.330757 0.65625,2.09375 l 0,5.6875 c -1.2e-5,0.763003 -0.25163,1.449916 -0.65625,2.03125 C -67.165796,35.645027 -67.868369,36 -68.8125,36 l -4.40625,0 c -0.929155,0 -1.677969,-0.35497 -2.1875,-1.09375 C -75.810883,34.324914 -76,33.638004 -76,32.875 l 0,-5.6875 c 10e-7,-0.762992 0.189117,-1.488183 0.59375,-2.09375 0.509531,-0.750878 1.258345,-1.093738 2.1875,-1.09375 z m 11.25,0 4.09375,0 0,11 3.875,0 0,1 -10,0 0,-1 3.875,0 0,-10 -1.84375,0 0,-1 z m 12.75,0 4.40625,0 c 0.944132,1.3e-5 1.646705,0.342872 2.15625,1.09375 0.404619,0.605567 0.656238,1.330757 0.65625,2.09375 l 0,5.6875 c -1.2e-5,0.763003 -0.25163,1.449916 -0.65625,2.03125 C -43.165796,35.645027 -43.868369,36 -44.8125,36 l -4.40625,0 c -0.929155,0 -1.677969,-0.35497 -2.1875,-1.09375 C -51.810883,34.324914 -52,33.638004 -52,32.875 l 0,-5.6875 c 10e-7,-0.762992 0.189117,-1.488183 0.59375,-2.09375 0.509531,-0.750878 1.258345,-1.093738 2.1875,-1.09375 z m 12,0 4.40625,0 c 0.944132,1.3e-5 1.646705,0.342872 2.15625,1.09375 0.404619,0.605567 0.656238,1.330757 0.65625,2.09375 l 0,5.6875 c -1.2e-5,0.763003 -0.25163,1.449916 -0.65625,2.03125 C -31.165796,35.645027 -31.868369,36 -32.8125,36 l -4.40625,0 c -0.929155,0 -1.677969,-0.35497 -2.1875,-1.09375 C -39.810883,34.324914 -40,33.638004 -40,32.875 l 0,-5.6875 c 10e-7,-0.762992 0.189117,-1.488183 0.59375,-2.09375 0.509531,-0.750878 1.258345,-1.093738 2.1875,-1.09375 z m -34.875,1 c -0.614442,1.2e-5 -1.107805,0.260482 -1.4375,0.78125 -0.254769,0.411788 -0.406252,0.897591 -0.40625,1.40625 l 0,5.6875 c -2e-6,0.363335 0.100134,0.704251 0.25,1.03125 l 4.53125,-8.78125 c -0.209815,-0.08476 -0.432739,-0.124989 -0.6875,-0.125 l -2.25,0 z m 24,0 c -0.614442,1.2e-5 -1.107805,0.260482 -1.4375,0.78125 -0.254769,0.411788 -0.406252,0.897591 -0.40625,1.40625 l 0,5.6875 c -2e-6,0.363335 0.100134,0.704251 0.25,1.03125 l 4.53125,-8.78125 c -0.209815,-0.08476 -0.432739,-0.124989 -0.6875,-0.125 l -2.25,0 z m 12,0 c -0.614442,1.2e-5 -1.107805,0.260482 -1.4375,0.78125 -0.254769,0.411788 -0.406252,0.897591 -0.40625,1.40625 l 0,5.6875 c -2e-6,0.363335 0.100134,0.704251 0.25,1.03125 l 4.53125,-8.78125 c -0.209815,-0.08476 -0.432739,-0.124989 -0.6875,-0.125 l -2.25,0 z m -32.15625,1.15625 -4.5,8.75 c 0.194818,0.07266 0.43145,0.125001 0.65625,0.125 l 2.25,0 c 0.614432,2e-6 1.06028,-0.260469 1.375,-0.78125 0.254761,-0.399664 0.406243,-0.878441 0.40625,-1.375 l 0,-5.6875 c -7e-6,-0.351212 -0.05263,-0.692128 -0.1875,-1.03125 z m 24,0 -4.5,8.75 c 0.194818,0.07266 0.43145,0.125001 0.65625,0.125 l 2.25,0 c 0.614432,2e-6 1.06028,-0.260469 1.375,-0.78125 0.254761,-0.399664 0.406243,-0.878441 0.40625,-1.375 l 0,-5.6875 c -7e-6,-0.351212 -0.05263,-0.692128 -0.1875,-1.03125 z m 12,0 -4.5,8.75 c 0.194818,0.07266 0.43145,0.125001 0.65625,0.125 l 2.25,0 c 0.614432,2e-6 1.06028,-0.260469 1.375,-0.78125 0.254761,-0.399664 0.406243,-0.878441 0.40625,-1.375 l 0,-5.6875 c -7e-6,-0.351212 -0.05263,-0.692128 -0.1875,-1.03125 z M -73.96875,42 l 4.09375,0 0,11 3.875,0 0,1 -10,0 0,-1 3.875,0 0,-10 -1.84375,0 0,-1 z m 12,0 4.09375,0 0,11 3.875,0 0,1 -10,0 0,-1 3.875,0 0,-10 -1.84375,0 0,-1 z m 12.75,0 4.40625,0 c 0.944132,1.3e-5 1.646705,0.342872 2.15625,1.09375 0.404619,0.605567 0.656238,1.330757 0.65625,2.09375 l 0,5.6875 c -1.2e-5,0.763003 -0.25163,1.449916 -0.65625,2.03125 C -43.165796,53.645027 -43.868369,54 -44.8125,54 l -4.40625,0 c -0.929155,0 -1.677969,-0.35497 -2.1875,-1.09375 C -51.810883,52.324914 -52,51.638004 -52,50.875 l 0,-5.6875 c 10e-7,-0.762992 0.189117,-1.488183 0.59375,-2.09375 0.509531,-0.750878 1.258345,-1.093738 2.1875,-1.09375 z m 11.25,0 4.09375,0 0,11 3.875,0 0,1 -10,0 0,-1 3.875,0 0,-10 -1.84375,0 0,-1 z m -10.125,1 c -0.614442,1.2e-5 -1.107805,0.260482 -1.4375,0.78125 -0.254769,0.411788 -0.406252,0.897591 -0.40625,1.40625 l 0,5.6875 c -2e-6,0.363335 0.100134,0.704251 0.25,1.03125 l 4.53125,-8.78125 c -0.209815,-0.08476 -0.432739,-0.124989 -0.6875,-0.125 l -2.25,0 z m 3.84375,1.15625 -4.5,8.75 c 0.194818,0.07266 0.43145,0.125001 0.65625,0.125 l 2.25,0 c 0.614432,2e-6 1.06028,-0.260469 1.375,-0.78125 0.254761,-0.399664 0.406243,-0.878441 0.40625,-1.375 l 0,-5.6875 c -7e-6,-0.351212 -0.05263,-0.692128 -0.1875,-1.03125 z M -73.96875,60 l 4.09375,0 0,11 3.875,0 0,1 -10,0 0,-1 3.875,0 0,-10 -1.84375,0 0,-1 z m 12.75,0 4.40625,0 c 0.944132,1.3e-5 1.646705,0.342872 2.15625,1.09375 0.404619,0.605567 0.656238,1.330757 0.65625,2.09375 l 0,5.6875 c -1.2e-5,0.763003 -0.25163,1.449916 -0.65625,2.03125 C -55.165796,71.645027 -55.868369,72 -56.8125,72 l -4.40625,0 c -0.929155,0 -1.677969,-0.35497 -2.1875,-1.09375 C -63.810883,70.324914 -64,69.638004 -64,68.875 l 0,-5.6875 c 10e-7,-0.762992 0.189117,-1.488183 0.59375,-2.09375 0.509531,-0.750878 1.258345,-1.093738 2.1875,-1.09375 z m 12,0 4.40625,0 c 0.944132,1.3e-5 1.646705,0.342872 2.15625,1.09375 0.404619,0.605567 0.656238,1.330757 0.65625,2.09375 l 0,5.6875 c -1.2e-5,0.763003 -0.25163,1.449916 -0.65625,2.03125 C -43.165796,71.645027 -43.868369,72 -44.8125,72 l -4.40625,0 c -0.929155,0 -1.677969,-0.35497 -2.1875,-1.09375 C -51.810883,70.324914 -52,69.638004 -52,68.875 l 0,-5.6875 c 10e-7,-0.762992 0.189117,-1.488183 0.59375,-2.09375 0.509531,-0.750878 1.258345,-1.093738 2.1875,-1.09375 z m 11.25,0 4.09375,0 0,11 3.875,0 0,1 -10,0 0,-1 3.875,0 0,-10 -1.84375,0 0,-1 z m -22.125,1 c -0.614442,1.2e-5 -1.107805,0.260482 -1.4375,0.78125 -0.254769,0.411788 -0.406252,0.897591 -0.40625,1.40625 l 0,5.6875 c -2e-6,0.363335 0.100134,0.704251 0.25,1.03125 l 4.53125,-8.78125 c -0.209815,-0.08476 -0.432739,-0.124989 -0.6875,-0.125 l -2.25,0 z m 12,0 c -0.614442,1.2e-5 -1.107805,0.260482 -1.4375,0.78125 -0.254769,0.411788 -0.406252,0.897591 -0.40625,1.40625 l 0,5.6875 c -2e-6,0.363335 0.100134,0.704251 0.25,1.03125 l 4.53125,-8.78125 c -0.209815,-0.08476 -0.432739,-0.124989 -0.6875,-0.125 l -2.25,0 z m -8.15625,1.15625 -4.5,8.75 c 0.194818,0.07266 0.43145,0.125001 0.65625,0.125 l 2.25,0 c 0.614432,2e-6 1.06028,-0.260469 1.375,-0.78125 0.254761,-0.399664 0.406243,-0.878441 0.40625,-1.375 l 0,-5.6875 c -7e-6,-0.351212 -0.05263,-0.692128 -0.1875,-1.03125 z m 12,0 -4.5,8.75 c 0.194818,0.07266 0.43145,0.125001 0.65625,0.125 l 2.25,0 c 0.614432,2e-6 1.06028,-0.260469 1.375,-0.78125 0.254761,-0.399664 0.406243,-0.878441 0.40625,-1.375 l 0,-5.6875 c -7e-6,-0.351212 -0.05263,-0.692128 -0.1875,-1.03125 z"
         inkscape:connector-curvature="0"
         id="path3779"
         style="fill:#ff00ff;fill-opacity:1;fill-rule:nonzero;stroke:none" />
    </clipPath>
    <filter
       x="-0.14713043"
       y="-0.141"
       width="1.2942609"
       height="1.2819999"
       color-interpolation-filters="sRGB"
       id="filter3785">
      <feGaussianBlur
         id="feGaussianBlur3787"
         stdDeviation="2.82" />
    </filter>
    <linearGradient
       x1="42"
       y1="72"
       x2="42"
       y2="24"
       id="linearGradient3795"
       xlink:href="#linearGradient3789"
       gradientUnits="userSpaceOnUse" />
    <linearGradient
       id="linearGradient3737-9">
      <stop
         id="stop3739-2"
         style="stop-color:#ffffff;stop-opacity:1"
         offset="0" />
      <stop
         id="stop3741-1"
         style="stop-color:#ffffff;stop-opacity:0"
         offset="1" />
    </linearGradient>
    <clipPath
       id="clipPath3613">
      <rect
         width="84"
         height="84"
         rx="6"
         ry="6"
         x="6"
         y="6"
         id="rect3615"
         style="fill:#ffffff;fill-opacity:1;fill-rule:nonzero;stroke:none" />
    </clipPath>
    <filter
       x="-0.192"
       y="-0.192"
       width="1.3839999"
       height="1.3839999"
       color-interpolation-filters="sRGB"
       id="filter3794">
      <feGaussianBlur
         id="feGaussianBlur3796"
         stdDeviation="5.28" />
    </filter>
    <linearGradient
       x1="48"
       y1="20.220806"
       x2="48"
       y2="138.66119"
       id="linearGradient4209"
       xlink:href="#linearGradient3737-9"
       gradientUnits="userSpaceOnUse" />
  </defs>
  <metadata
     id="metadata2413">
    <rdf:RDF>
      <cc:Work
         rdf:about="">
        <dc:format>image/svg+xml</dc:format>
        <dc:type
           rdf:resource="http://purl.org/dc/dcmitype/StillImage" />
      </cc:Work>
    </rdf:RDF>
  </metadata>
  <g
     id="layer2"
     style="display:none">
    <rect
       width="86"
       height="85"
       rx="6"
       ry="6"
       x="5"
       y="7"
       id="rect3745"
       style="opacity:0.9;fill:url(#ButtonShadow);fill-opacity:1;fill-rule:nonzero;stroke:none;filter:url(#filter3174)" />
  </g>
  <g
     id="layer4">
    <path
       d="m 12,-95.03125 c -5.5110903,0 -10.03125,4.52016 -10.03125,10.03125 l 0,71 c 0,5.5110902 4.5201598,10.03125 10.03125,10.03125 l 72,0 c 5.51109,0 10.03125,-4.5201597 10.03125,-10.03125 l 0,-71 c 0,-5.51109 -4.52016,-10.03125 -10.03125,-10.03125 l -72,0 z"
       transform="scale(1,-1)"
       id="path3786"
       style="opacity:0.07999998;fill:url(#linearGradient3760);fill-opacity:1;fill-rule:nonzero;stroke:none;display:inline" />
    <path
       d="m 12,-94.03125 c -4.971633,0 -9.03125,4.059617 -9.03125,9.03125 l 0,71 c 0,4.9716329 4.0596171,9.03125 9.03125,9.03125 l 72,0 c 4.971633,0 9.03125,-4.059617 9.03125,-9.03125 l 0,-71 c 0,-4.971633 -4.059617,-9.03125 -9.03125,-9.03125 l -72,0 z"
       transform="scale(1,-1)"
       id="path3778"
       style="opacity:0.1;fill:url(#linearGradient3780);fill-opacity:1;fill-rule:nonzero;stroke:none;display:inline" />
    <path
       d="m 12,-93 c -4.4091333,0 -8,3.590867 -8,8 l 0,71 c 0,4.4091333 3.5908667,8 8,8 l 72,0 c 4.409133,0 8,-3.5908667 8,-8 l 0,-71 c 0,-4.409133 -3.590867,-8 -8,-8 l -72,0 z"
       transform="scale(1,-1)"
       id="path3770"
       style="opacity:0.2;fill:url(#linearGradient3772);fill-opacity:1;fill-rule:nonzero;stroke:none;display:inline" />
    <rect
       width="86"
       height="85"
       rx="7"
       ry="7"
       x="5"
       y="-92"
       transform="scale(1,-1)"
       id="rect3723"
       style="opacity:0.3;fill:url(#linearGradient3725);fill-opacity:1;fill-rule:nonzero;stroke:none;display:inline" />
    <rect
       width="84"
       height="84"
       rx="6"
       ry="6"
       x="6"
       y="-91"
       transform="scale(1,-1)"
       id="rect3716"
       style="opacity:0.45;fill:url(#linearGradient3721);fill-opacity:1;fill-rule:nonzero;stroke:none;display:inline" />
  </g>
  <g
     id="layer1"
     style="display:inline">
    <rect
       width="84"
       height="84"
       rx="6"
       ry="6"
       x="6"
       y="6"
       id="rect2419"
       style="fill:url(#linearGradient3706);fill-opacity:1;fill-rule:nonzero;stroke:none" />
    <flowRoot
       transform="matrix(1.0888502,0,0,1.126549,2.592769,68.632277)"
       id="flowRoot2424"
       xml:space="preserve"
       style="font-size:16px;font-style:normal;font-variant:normal;font-weight:normal;font-stretch:normal;text-align:start;line-height:100%;writing-mode:lr-tb;text-anchor:start;fill:#b3b3b3;fill-opacity:1;stroke:none;font-family:Unispace;-inkscape-font-specification:Unispace"><flowRegion
         id="flowRegion2426"><rect
           width="72.225906"
           height="71.958221"
           x="13.763329"
           y="34.506962"
           id="rect2428"
           style="font-size:16px;font-style:normal;font-variant:normal;font-weight:normal;font-stretch:normal;text-align:start;line-height:100%;writing-mode:lr-tb;text-anchor:start;fill:#b3b3b3;font-family:Unispace;-inkscape-font-specification:Unispace" /></flowRegion><flowPara
         id="flowPara2430">0101110</flowPara><flowPara
         id="flowPara2432">1101001</flowPara><flowPara
         id="flowPara2434">0001011</flowPara></flowRoot>    <path
       d="m -73.21875,24 c -0.929155,1.2e-5 -1.677969,0.342872 -2.1875,1.09375 -0.404633,0.605567 -0.593749,1.330758 -0.59375,2.09375 l 0,5.6875 c 0,0.763004 0.189117,1.449914 0.59375,2.03125 0.509531,0.73878 1.258345,1.09375 2.1875,1.09375 l 4.40625,0 c 0.944131,0 1.646704,-0.354973 2.15625,-1.09375 0.40462,-0.581334 0.656238,-1.268247 0.65625,-2.03125 l 0,-5.6875 c -1.2e-5,-0.762993 -0.251631,-1.488183 -0.65625,-2.09375 C -67.165795,24.342872 -67.868368,24.000013 -68.8125,24 l -4.40625,0 z m 11.25,0 0,1 1.84375,0 0,10 -3.875,0 0,1 10,0 0,-1 -3.875,0 0,-11 -4.09375,0 z m 12.75,0 c -0.929155,1.2e-5 -1.677969,0.342872 -2.1875,1.09375 -0.404633,0.605567 -0.593749,1.330758 -0.59375,2.09375 l 0,5.6875 c 0,0.763004 0.189117,1.449914 0.59375,2.03125 0.509531,0.73878 1.258345,1.09375 2.1875,1.09375 l 4.40625,0 c 0.944131,0 1.646704,-0.354973 2.15625,-1.09375 0.40462,-0.581334 0.656238,-1.268247 0.65625,-2.03125 l 0,-5.6875 c -1.2e-5,-0.762993 -0.251631,-1.488183 -0.65625,-2.09375 C -43.165795,24.342872 -43.868368,24.000013 -44.8125,24 l -4.40625,0 z m 12,0 c -0.929155,1.2e-5 -1.677969,0.342872 -2.1875,1.09375 -0.404633,0.605567 -0.593749,1.330758 -0.59375,2.09375 l 0,5.6875 c 0,0.763004 0.189117,1.449914 0.59375,2.03125 0.509531,0.73878 1.258345,1.09375 2.1875,1.09375 l 4.40625,0 c 0.944131,0 1.646704,-0.354973 2.15625,-1.09375 0.40462,-0.581334 0.656238,-1.268247 0.65625,-2.03125 l 0,-5.6875 c -1.2e-5,-0.762993 -0.251631,-1.488183 -0.65625,-2.09375 C -31.165795,24.342872 -31.868368,24.000013 -32.8125,24 l -4.40625,0 z m -34.875,1 2.25,0 c 0.254761,1.1e-5 0.477685,0.04024 0.6875,0.125 l -4.53125,8.78125 c -0.149866,-0.326999 -0.250002,-0.667915 -0.25,-1.03125 l 0,-5.6875 c -2e-6,-0.508659 0.151481,-0.994462 0.40625,-1.40625 0.329695,-0.520768 0.823058,-0.781238 1.4375,-0.78125 z m 24,0 2.25,0 c 0.254761,1.1e-5 0.477685,0.04024 0.6875,0.125 l -4.53125,8.78125 c -0.149866,-0.326999 -0.250002,-0.667915 -0.25,-1.03125 l 0,-5.6875 c -2e-6,-0.508659 0.151481,-0.994462 0.40625,-1.40625 0.329695,-0.520768 0.823058,-0.781238 1.4375,-0.78125 z m 12,0 2.25,0 c 0.254761,1.1e-5 0.477685,0.04024 0.6875,0.125 l -4.53125,8.78125 c -0.149866,-0.326999 -0.250002,-0.667915 -0.25,-1.03125 l 0,-5.6875 c -2e-6,-0.508659 0.151481,-0.994462 0.40625,-1.40625 0.329695,-0.520768 0.823058,-0.781238 1.4375,-0.78125 z M -68.25,26.15625 c 0.134869,0.339122 0.187493,0.680038 0.1875,1.03125 l 0,5.6875 c -7e-6,0.496559 -0.151489,0.975336 -0.40625,1.375 -0.31472,0.520781 -0.760568,0.781252 -1.375,0.78125 l -2.25,0 c -0.2248,10e-7 -0.461432,-0.05234 -0.65625,-0.125 l 4.5,-8.75 z m 24,0 c 0.134869,0.339122 0.187493,0.680038 0.1875,1.03125 l 0,5.6875 c -7e-6,0.496559 -0.151489,0.975336 -0.40625,1.375 -0.31472,0.520781 -0.760568,0.781252 -1.375,0.78125 l -2.25,0 c -0.2248,10e-7 -0.461432,-0.05234 -0.65625,-0.125 l 4.5,-8.75 z m 12,0 c 0.134869,0.339122 0.187493,0.680038 0.1875,1.03125 l 0,5.6875 c -7e-6,0.496559 -0.151489,0.975336 -0.40625,1.375 -0.31472,0.520781 -0.760568,0.781252 -1.375,0.78125 l -2.25,0 c -0.2248,10e-7 -0.461432,-0.05234 -0.65625,-0.125 l 4.5,-8.75 z M -73.96875,42 l 0,1 1.84375,0 0,10 -3.875,0 0,1 10,0 0,-1 -3.875,0 0,-11 -4.09375,0 z m 12,0 0,1 1.84375,0 0,10 -3.875,0 0,1 10,0 0,-1 -3.875,0 0,-11 -4.09375,0 z m 12.75,0 c -0.929155,1.2e-5 -1.677969,0.342872 -2.1875,1.09375 -0.404633,0.605567 -0.593749,1.330758 -0.59375,2.09375 l 0,5.6875 c 0,0.763004 0.189117,1.449914 0.59375,2.03125 0.509531,0.73878 1.258345,1.09375 2.1875,1.09375 l 4.40625,0 c 0.944131,0 1.646704,-0.354973 2.15625,-1.09375 0.40462,-0.581334 0.656238,-1.268247 0.65625,-2.03125 l 0,-5.6875 c -1.2e-5,-0.762993 -0.251631,-1.488183 -0.65625,-2.09375 C -43.165795,42.342872 -43.868368,42.000013 -44.8125,42 l -4.40625,0 z m 11.25,0 0,1 1.84375,0 0,10 -3.875,0 0,1 10,0 0,-1 -3.875,0 0,-11 -4.09375,0 z m -10.125,1 2.25,0 c 0.254761,1.1e-5 0.477685,0.04024 0.6875,0.125 l -4.53125,8.78125 c -0.149866,-0.326999 -0.250002,-0.667915 -0.25,-1.03125 l 0,-5.6875 c -2e-6,-0.508659 0.151481,-0.994462 0.40625,-1.40625 0.329695,-0.520768 0.823058,-0.781238 1.4375,-0.78125 z m 3.84375,1.15625 c 0.134869,0.339122 0.187493,0.680038 0.1875,1.03125 l 0,5.6875 c -7e-6,0.496559 -0.151489,0.975336 -0.40625,1.375 -0.31472,0.520781 -0.760568,0.781252 -1.375,0.78125 l -2.25,0 c -0.2248,10e-7 -0.461432,-0.05234 -0.65625,-0.125 l 4.5,-8.75 z M -73.96875,60 l 0,1 1.84375,0 0,10 -3.875,0 0,1 10,0 0,-1 -3.875,0 0,-11 -4.09375,0 z m 12.75,0 c -0.929155,1.2e-5 -1.677969,0.342872 -2.1875,1.09375 -0.404633,0.605567 -0.593749,1.330758 -0.59375,2.09375 l 0,5.6875 c 0,0.763004 0.189117,1.449914 0.59375,2.03125 0.509531,0.73878 1.258345,1.09375 2.1875,1.09375 l 4.40625,0 c 0.944131,0 1.646704,-0.354973 2.15625,-1.09375 0.40462,-0.581334 0.656238,-1.268247 0.65625,-2.03125 l 0,-5.6875 c -1.2e-5,-0.762993 -0.251631,-1.488183 -0.65625,-2.09375 C -55.165795,60.342872 -55.868368,60.000013 -56.8125,60 l -4.40625,0 z m 12,0 c -0.929155,1.2e-5 -1.677969,0.342872 -2.1875,1.09375 -0.404633,0.605567 -0.593749,1.330758 -0.59375,2.09375 l 0,5.6875 c 0,0.763004 0.189117,1.449914 0.59375,2.03125 0.509531,0.73878 1.258345,1.09375 2.1875,1.09375 l 4.40625,0 c 0.944131,0 1.646704,-0.354973 2.15625,-1.09375 0.40462,-0.581334 0.656238,-1.268247 0.65625,-2.03125 l 0,-5.6875 c -1.2e-5,-0.762993 -0.251631,-1.488183 -0.65625,-2.09375 C -43.165795,60.342872 -43.868368,60.000013 -44.8125,60 l -4.40625,0 z m 11.25,0 0,1 1.84375,0 0,10 -3.875,0 0,1 10,0 0,-1 -3.875,0 0,-11 -4.09375,0 z m -22.125,1 2.25,0 c 0.254761,1.1e-5 0.477685,0.04024 0.6875,0.125 l -4.53125,8.78125 c -0.149866,-0.326999 -0.250002,-0.667915 -0.25,-1.03125 l 0,-5.6875 c -2e-6,-0.508659 0.151481,-0.994462 0.40625,-1.40625 0.329695,-0.520768 0.823058,-0.781238 1.4375,-0.78125 z m 12,0 2.25,0 c 0.254761,1.1e-5 0.477685,0.04024 0.6875,0.125 l -4.53125,8.78125 c -0.149866,-0.326999 -0.250002,-0.667915 -0.25,-1.03125 l 0,-5.6875 c -2e-6,-0.508659 0.151481,-0.994462 0.40625,-1.40625 0.329695,-0.520768 0.823058,-0.781238 1.4375,-0.78125 z M -56.25,62.15625 c 0.134869,0.339122 0.187493,0.680038 0.1875,1.03125 l 0,5.6875 c -7e-6,0.496559 -0.151489,0.975336 -0.40625,1.375 -0.31472,0.520781 -0.760568,0.781252 -1.375,0.78125 l -2.25,0 c -0.2248,10e-7 -0.461432,-0.05234 -0.65625,-0.125 l 4.5,-8.75 z m 12,0 c 0.134869,0.339122 0.187493,0.680038 0.1875,1.03125 l 0,5.6875 c -7e-6,0.496559 -0.151489,0.975336 -0.40625,1.375 -0.31472,0.520781 -0.760568,0.781252 -1.375,0.78125 l -2.25,0 c -0.2248,10e-7 -0.461432,-0.05234 -0.65625,-0.125 l 4.5,-8.75 z"
       inkscape:connector-curvature="0"
       transform="translate(100,0)"
       clip-path="url(#clipPath3776)"
       id="path3699"
       style="font-size:16px;font-style:normal;font-variant:normal;font-weight:normal;font-stretch:normal;text-align:start;line-height:100%;writing-mode:lr-tb;text-anchor:start;opacity:0.6;fill:none;stroke:#ffffff;stroke-width:2;stroke-miterlimit:4;stroke-dasharray:none;filter:url(#filter3785);font-family:Unispace;-inkscape-font-specification:Unispace" />
    <g
       transform="translate(6,0)"
       id="g2467"
       style="fill:url(#linearGradient3795);fill-opacity:1">
      <path
         d="m 20.782258,24 c -0.929155,1.2e-5 -1.667888,0.351484 -2.177419,1.102362 C 18.200206,25.707929 18.000001,26.41811 18,27.181102 l 0,5.700788 c 0,0.763004 0.200206,1.434412 0.604839,2.015748 C 19.11437,35.636418 19.853103,36 20.782258,36 l 4.395161,0 c 0.944131,0 1.667874,-0.363585 2.17742,-1.102362 C 27.759459,34.316304 27.999988,33.644893 28,32.88189 l 0,-5.700788 c -1.2e-5,-0.762993 -0.240542,-1.473173 -0.645161,-2.07874 C 26.845294,24.351484 26.121551,24.000013 25.177419,24 l -4.395161,0 z m 1.109674,1.007874 2.27927,0 c 0.254761,1.1e-5 0.475669,0.04122 0.685484,0.125984 l -4.537334,8.787402 c -0.149866,-0.326999 -0.241938,-0.676035 -0.241936,-1.03937 l 0,-5.700788 c -2e-6,-0.508659 0.148457,-0.974038 0.403226,-1.385826 0.329695,-0.520768 0.796848,-0.78739 1.41129,-0.787402 z m 3.85185,1.133858 c 0.134869,0.339122 0.201606,0.688158 0.201613,1.03937 l 0,5.700788 c -7e-6,0.496559 -0.148464,0.954666 -0.403225,1.35433 -0.31472,0.520781 -0.756536,0.787404 -1.370968,0.787402 l -2.27927,0 c -0.2248,10e-7 -0.450343,-0.05332 -0.645161,-0.125984 l 4.497011,-8.755906 z"
         inkscape:connector-curvature="0"
         id="path2439"
         style="font-size:16px;font-style:normal;font-variant:normal;font-weight:normal;font-stretch:normal;text-align:start;line-height:100%;writing-mode:lr-tb;text-anchor:start;fill:url(#linearGradient3795);fill-opacity:1;stroke:none;font-family:Unispace;-inkscape-font-specification:Unispace" />
      <path
         d="m 40,36 -10,0 0,-0.996979 3.860465,0 0,-9.987915 -1.825459,0 0,-1.015106 4.076237,0 0,11.003021 3.888757,0 L 40,36"
         inkscape:connector-curvature="0"
         id="flowRoot2412"
         style="font-size:16px;font-style:normal;font-variant:normal;font-weight:normal;font-stretch:normal;text-align:start;line-height:100%;writing-mode:lr-tb;text-anchor:start;fill:url(#linearGradient3795);fill-opacity:1;stroke:none;font-family:Unispace;-inkscape-font-specification:Unispace" />
      <path
         d="m 44.782258,24 c -0.929155,1.2e-5 -1.667888,0.351484 -2.177419,1.102362 C 42.200206,25.707929 42.000001,26.41811 42,27.181102 l 0,5.700788 c 0,0.763004 0.200206,1.434412 0.604839,2.015748 C 43.11437,35.636418 43.853103,36 44.782258,36 l 4.395161,0 c 0.944131,0 1.667874,-0.363585 2.17742,-1.102362 C 51.759459,34.316304 51.999988,33.644893 52,32.88189 l 0,-5.700788 c -1.2e-5,-0.762993 -0.240542,-1.473173 -0.645161,-2.07874 C 50.845294,24.351484 50.121551,24.000013 49.177419,24 l -4.395161,0 z m 1.109674,1.007874 2.27927,0 c 0.254761,1.1e-5 0.475669,0.04122 0.685484,0.125984 l -4.537334,8.787402 c -0.149866,-0.326999 -0.241938,-0.676035 -0.241936,-1.03937 l 0,-5.700788 c -2e-6,-0.508659 0.148457,-0.974038 0.403226,-1.385826 0.329695,-0.520768 0.796848,-0.78739 1.41129,-0.787402 z m 3.85185,1.133858 c 0.134869,0.339122 0.201606,0.688158 0.201613,1.03937 l 0,5.700788 c -7e-6,0.496559 -0.148464,0.954666 -0.403225,1.35433 -0.31472,0.520781 -0.756536,0.787404 -1.370968,0.787402 l -2.27927,0 c -0.2248,10e-7 -0.450343,-0.05332 -0.645161,-0.125984 l 4.497011,-8.755906 z"
         inkscape:connector-curvature="0"
         id="path2447"
         style="font-size:16px;font-style:normal;font-variant:normal;font-weight:normal;font-stretch:normal;text-align:start;line-height:100%;writing-mode:lr-tb;text-anchor:start;fill:url(#linearGradient3795);fill-opacity:1;stroke:none;font-family:Unispace;-inkscape-font-specification:Unispace" />
      <path
         d="m 56.782258,24 c -0.929155,1.2e-5 -1.667888,0.351484 -2.177419,1.102362 C 54.200206,25.707929 54.000001,26.41811 54,27.181102 l 0,5.700788 c 0,0.763004 0.200206,1.434412 0.604839,2.015748 C 55.11437,35.636418 55.853103,36 56.782258,36 l 4.395161,0 c 0.944131,0 1.667874,-0.363585 2.17742,-1.102362 C 63.759459,34.316304 63.999988,33.644893 64,32.88189 l 0,-5.700788 c -1.2e-5,-0.762993 -0.240542,-1.473173 -0.645161,-2.07874 C 62.845294,24.351484 62.121551,24.000013 61.177419,24 l -4.395161,0 z m 1.109674,1.007874 2.27927,0 c 0.254761,1.1e-5 0.475669,0.04122 0.685484,0.125984 l -4.537334,8.787402 c -0.149866,-0.326999 -0.241938,-0.676035 -0.241936,-1.03937 l 0,-5.700788 c -2e-6,-0.508659 0.148457,-0.974038 0.403226,-1.385826 0.329695,-0.520768 0.796848,-0.78739 1.41129,-0.787402 z m 3.85185,1.133858 c 0.134869,0.339122 0.201606,0.688158 0.201613,1.03937 l 0,5.700788 c -7e-6,0.496559 -0.148464,0.954666 -0.403225,1.35433 -0.31472,0.520781 -0.756536,0.787404 -1.370968,0.787402 l -2.27927,0 c -0.2248,10e-7 -0.450343,-0.05332 -0.645161,-0.125984 l 4.497011,-8.755906 z"
         inkscape:connector-curvature="0"
         id="path2449"
         style="font-size:16px;font-style:normal;font-variant:normal;font-weight:normal;font-stretch:normal;text-align:start;line-height:100%;writing-mode:lr-tb;text-anchor:start;fill:url(#linearGradient3795);fill-opacity:1;stroke:none;font-family:Unispace;-inkscape-font-specification:Unispace" />
      <path
         d="m 28,54 -10,0 0,-0.996979 3.860465,0 0,-9.987915 -1.825459,0 0,-1.015106 4.076237,0 0,11.003021 3.888757,0 L 28,54"
         inkscape:connector-curvature="0"
         id="path2451"
         style="font-size:16px;font-style:normal;font-variant:normal;font-weight:normal;font-stretch:normal;text-align:start;line-height:100%;writing-mode:lr-tb;text-anchor:start;fill:url(#linearGradient3795);fill-opacity:1;stroke:none;font-family:Unispace;-inkscape-font-specification:Unispace" />
      <path
         d="m 40,54 -10,0 0,-0.996979 3.860465,0 0,-9.987915 -1.825459,0 0,-1.015106 4.076237,0 0,11.003021 3.888757,0 L 40,54"
         inkscape:connector-curvature="0"
         id="path2453"
         style="font-size:16px;font-style:normal;font-variant:normal;font-weight:normal;font-stretch:normal;text-align:start;line-height:100%;writing-mode:lr-tb;text-anchor:start;fill:url(#linearGradient3795);fill-opacity:1;stroke:none;font-family:Unispace;-inkscape-font-specification:Unispace" />
      <path
         d="m 44.782258,42 c -0.929155,1.2e-5 -1.667888,0.351484 -2.177419,1.102362 C 42.200206,43.707929 42.000001,44.41811 42,45.181102 l 0,5.700788 c 0,0.763004 0.200206,1.434412 0.604839,2.015748 C 43.11437,53.636418 43.853103,54 44.782258,54 l 4.395161,0 c 0.944131,0 1.667874,-0.363585 2.17742,-1.102362 C 51.759459,52.316304 51.999988,51.644893 52,50.88189 l 0,-5.700788 c -1.2e-5,-0.762993 -0.240542,-1.473173 -0.645161,-2.07874 C 50.845294,42.351484 50.121551,42.000013 49.177419,42 l -4.395161,0 z m 1.109674,1.007874 2.27927,0 c 0.254761,1.1e-5 0.475669,0.04122 0.685484,0.125984 l -4.537334,8.787402 c -0.149866,-0.326999 -0.241938,-0.676035 -0.241936,-1.03937 l 0,-5.700788 c -2e-6,-0.508659 0.148457,-0.974038 0.403226,-1.385826 0.329695,-0.520768 0.796848,-0.78739 1.41129,-0.787402 z m 3.85185,1.133858 c 0.134869,0.339122 0.201606,0.688158 0.201613,1.03937 l 0,5.700788 c -7e-6,0.496559 -0.148464,0.954666 -0.403225,1.35433 -0.31472,0.520781 -0.756536,0.787404 -1.370968,0.787402 l -2.27927,0 c -0.2248,10e-7 -0.450343,-0.05332 -0.645161,-0.125984 l 4.497011,-8.755906 z"
         inkscape:connector-curvature="0"
         id="path2455"
         style="font-size:16px;font-style:normal;font-variant:normal;font-weight:normal;font-stretch:normal;text-align:start;line-height:100%;writing-mode:lr-tb;text-anchor:start;fill:url(#linearGradient3795);fill-opacity:1;stroke:none;font-family:Unispace;-inkscape-font-specification:Unispace" />
      <path
         d="m 64,54 -10,0 0,-0.996979 3.860465,0 0,-9.987915 -1.825459,0 0,-1.015106 4.076237,0 0,11.003021 3.888757,0 L 64,54"
         inkscape:connector-curvature="0"
         id="path2457"
         style="font-size:16px;font-style:normal;font-variant:normal;font-weight:normal;font-stretch:normal;text-align:start;line-height:100%;writing-mode:lr-tb;text-anchor:start;fill:url(#linearGradient3795);fill-opacity:1;stroke:none;font-family:Unispace;-inkscape-font-specification:Unispace" />
      <path
         d="m 28,72 -10,0 0,-0.996979 3.860465,0 0,-9.987915 -1.825459,0 0,-1.015106 4.076237,0 0,11.003021 3.888757,0 L 28,72"
         inkscape:connector-curvature="0"
         id="path2459"
         style="font-size:16px;font-style:normal;font-variant:normal;font-weight:normal;font-stretch:normal;text-align:start;line-height:100%;writing-mode:lr-tb;text-anchor:start;fill:url(#linearGradient3795);fill-opacity:1;stroke:none;font-family:Unispace;-inkscape-font-specification:Unispace" />
      <path
         d="m 32.782258,60 c -0.929155,1.2e-5 -1.667888,0.351484 -2.177419,1.102362 C 30.200206,61.707929 30.000001,62.41811 30,63.181102 l 0,5.700788 c 0,0.763004 0.200206,1.434412 0.604839,2.015748 C 31.11437,71.636418 31.853103,72 32.782258,72 l 4.395161,0 c 0.944131,0 1.667874,-0.363585 2.17742,-1.102362 C 39.759459,70.316304 39.999988,69.644893 40,68.88189 l 0,-5.700788 c -1.2e-5,-0.762993 -0.240542,-1.473173 -0.645161,-2.07874 C 38.845294,60.351484 38.121551,60.000013 37.177419,60 l -4.395161,0 z m 1.109674,1.007874 2.27927,0 c 0.254761,1.1e-5 0.475669,0.04122 0.685484,0.125984 l -4.537334,8.787402 c -0.149866,-0.326999 -0.241938,-0.676035 -0.241936,-1.03937 l 0,-5.700788 c -2e-6,-0.508659 0.148457,-0.974038 0.403226,-1.385826 0.329695,-0.520768 0.796848,-0.78739 1.41129,-0.787402 z m 3.85185,1.133858 c 0.134869,0.339122 0.201606,0.688158 0.201613,1.03937 l 0,5.700788 c -7e-6,0.496559 -0.148464,0.954666 -0.403225,1.35433 -0.31472,0.520781 -0.756536,0.787404 -1.370968,0.787402 l -2.27927,0 c -0.2248,10e-7 -0.450343,-0.05332 -0.645161,-0.125984 l 4.497011,-8.755906 z"
         inkscape:connector-curvature="0"
         id="path2461"
         style="font-size:16px;font-style:normal;font-variant:normal;font-weight:normal;font-stretch:normal;text-align:start;line-height:100%;writing-mode:lr-tb;text-anchor:start;fill:url(#linearGradient3795);fill-opacity:1;stroke:none;font-family:Unispace;-inkscape-font-specification:Unispace" />
      <path
         d="m 44.782258,60 c -0.929155,1.2e-5 -1.667888,0.351484 -2.177419,1.102362 C 42.200206,61.707929 42.000001,62.41811 42,63.181102 l 0,5.700788 c 0,0.763004 0.200206,1.434412 0.604839,2.015748 C 43.11437,71.636418 43.853103,72 44.782258,72 l 4.395161,0 c 0.944131,0 1.667874,-0.363585 2.17742,-1.102362 C 51.759459,70.316304 51.999988,69.644893 52,68.88189 l 0,-5.700788 c -1.2e-5,-0.762993 -0.240542,-1.473173 -0.645161,-2.07874 C 50.845294,60.351484 50.121551,60.000013 49.177419,60 l -4.395161,0 z m 1.109674,1.007874 2.27927,0 c 0.254761,1.1e-5 0.475669,0.04122 0.685484,0.125984 l -4.537334,8.787402 c -0.149866,-0.326999 -0.241938,-0.676035 -0.241936,-1.03937 l 0,-5.700788 c -2e-6,-0.508659 0.148457,-0.974038 0.403226,-1.385826 0.329695,-0.520768 0.796848,-0.78739 1.41129,-0.787402 z m 3.85185,1.133858 c 0.134869,0.339122 0.201606,0.688158 0.201613,1.03937 l 0,5.700788 c -7e-6,0.496559 -0.148464,0.954666 -0.403225,1.35433 -0.31472,0.520781 -0.756536,0.787404 -1.370968,0.787402 l -2.27927,0 c -0.2248,10e-7 -0.450343,-0.05332 -0.645161,-0.125984 l 4.497011,-8.755906 z"
         inkscape:connector-curvature="0"
         id="path2463"
         style="font-size:16px;font-style:normal;font-variant:normal;font-weight:normal;font-stretch:normal;text-align:start;line-height:100%;writing-mode:lr-tb;text-anchor:start;fill:url(#linearGradient3795);fill-opacity:1;stroke:none;font-family:Unispace;-inkscape-font-specification:Unispace" />
      <path
         d="m 64,72 -10,0 0,-0.996979 3.860465,0 0,-9.987915 -1.825459,0 0,-1.015106 4.076237,0 0,11.003021 3.888757,0 L 64,72"
         inkscape:connector-curvature="0"
         id="path2465"
         style="font-size:16px;font-style:normal;font-variant:normal;font-weight:normal;font-stretch:normal;text-align:start;line-height:100%;writing-mode:lr-tb;text-anchor:start;fill:url(#linearGradient3795);fill-opacity:1;stroke:none;font-family:Unispace;-inkscape-font-specification:Unispace" />
    </g>
    <path
       d="M 12,6 C 8.676,6 6,8.676 6,12 l 0,2 0,68 0,2 c 0,0.334721 0.04135,0.6507 0.09375,0.96875 0.0487,0.295596 0.09704,0.596915 0.1875,0.875 0.0099,0.03038 0.02089,0.0636 0.03125,0.09375 0.09886,0.287771 0.23488,0.547452 0.375,0.8125 0.144592,0.273507 0.315616,0.535615 0.5,0.78125 0.184384,0.245635 0.373776,0.473472 0.59375,0.6875 0.439947,0.428056 0.94291,0.814526 1.5,1.09375 0.278545,0.139612 0.573473,0.246947 0.875,0.34375 -0.256202,-0.100222 -0.486711,-0.236272 -0.71875,-0.375 -0.0074,-0.0044 -0.02387,0.0045 -0.03125,0 -0.03193,-0.0193 -0.06229,-0.04251 -0.09375,-0.0625 -0.120395,-0.0767 -0.231023,-0.163513 -0.34375,-0.25 -0.106173,-0.0808 -0.213281,-0.161112 -0.3125,-0.25 C 8.47832,88.557317 8.30879,88.373362 8.15625,88.1875 8.048671,88.057245 7.937856,87.922215 7.84375,87.78125 7.81866,87.74287 7.8053,87.69538 7.78125,87.65625 7.71649,87.553218 7.651022,87.451733 7.59375,87.34375 7.492742,87.149044 7.388075,86.928049 7.3125,86.71875 7.3045,86.69694 7.28891,86.6782 7.28125,86.65625 7.24942,86.5643 7.24545,86.469419 7.21875,86.375 7.188418,86.268382 7.148361,86.171969 7.125,86.0625 7.052121,85.720988 7,85.364295 7,85 L 7,83 7,15 7,13 C 7,10.218152 9.218152,8 12,8 l 2,0 68,0 2,0 c 2.781848,0 5,2.218152 5,5 l 0,2 0,68 0,2 c 0,0.364295 -0.05212,0.720988 -0.125,1.0625 -0.04415,0.206893 -0.08838,0.397658 -0.15625,0.59375 -0.0077,0.02195 -0.0233,0.04069 -0.03125,0.0625 -0.06274,0.173739 -0.138383,0.367449 -0.21875,0.53125 -0.04158,0.0828 -0.07904,0.169954 -0.125,0.25 -0.0546,0.09721 -0.126774,0.18835 -0.1875,0.28125 -0.09411,0.140965 -0.204921,0.275995 -0.3125,0.40625 -0.143174,0.17445 -0.303141,0.346998 -0.46875,0.5 -0.01117,0.0102 -0.01998,0.02115 -0.03125,0.03125 -0.138386,0.125556 -0.285091,0.234436 -0.4375,0.34375 -0.102571,0.07315 -0.204318,0.153364 -0.3125,0.21875 -0.0074,0.0045 -0.02384,-0.0044 -0.03125,0 -0.232039,0.138728 -0.462548,0.274778 -0.71875,0.375 0.301527,-0.0968 0.596455,-0.204138 0.875,-0.34375 0.55709,-0.279224 1.060053,-0.665694 1.5,-1.09375 0.219973,-0.214028 0.409366,-0.441865 0.59375,-0.6875 0.184384,-0.245635 0.355408,-0.507743 0.5,-0.78125 0.14012,-0.265048 0.276135,-0.524729 0.375,-0.8125 0.01041,-0.03078 0.02133,-0.06274 0.03125,-0.09375 0.09046,-0.278085 0.1388,-0.579404 0.1875,-0.875 C 89.95865,84.6507 90,84.334721 90,84 l 0,-2 0,-68 0,-2 C 90,8.676 87.324,6 84,6 L 12,6 z"
       inkscape:connector-curvature="0"
       id="rect3728"
       style="opacity:0.5;fill:url(#linearGradient3680);fill-opacity:1;fill-rule:nonzero;stroke:none;display:inline" />
    <path
       d="M 12,90 C 8.676,90 6,87.324 6,84 L 6,82 6,14 6,12 c 0,-0.334721 0.04135,-0.6507 0.09375,-0.96875 0.0487,-0.295596 0.09704,-0.596915 0.1875,-0.875 C 6.29113,10.12587 6.302142,10.09265 6.3125,10.0625 6.411365,9.774729 6.5473802,9.515048 6.6875,9.25 6.8320918,8.976493 7.0031161,8.714385 7.1875,8.46875 7.3718839,8.223115 7.5612765,7.995278 7.78125,7.78125 8.221197,7.353194 8.72416,6.966724 9.28125,6.6875 9.559795,6.547888 9.8547231,6.440553 10.15625,6.34375 9.9000482,6.443972 9.6695391,6.580022 9.4375,6.71875 c -0.00741,0.0044 -0.023866,-0.0045 -0.03125,0 -0.031933,0.0193 -0.062293,0.04251 -0.09375,0.0625 -0.120395,0.0767 -0.2310226,0.163513 -0.34375,0.25 -0.1061728,0.0808 -0.2132809,0.161112 -0.3125,0.25 C 8.4783201,7.442683 8.3087904,7.626638 8.15625,7.8125 8.0486711,7.942755 7.9378561,8.077785 7.84375,8.21875 7.818661,8.25713 7.805304,8.30462 7.78125,8.34375 7.716487,8.446782 7.6510225,8.548267 7.59375,8.65625 7.4927417,8.850956 7.3880752,9.071951 7.3125,9.28125 7.30454,9.30306 7.288911,9.3218 7.28125,9.34375 7.2494249,9.4357 7.2454455,9.530581 7.21875,9.625 7.1884177,9.731618 7.1483606,9.828031 7.125,9.9375 7.0521214,10.279012 7,10.635705 7,11 l 0,2 0,68 0,2 c 0,2.781848 2.2181517,5 5,5 l 2,0 68,0 2,0 c 2.781848,0 5,-2.218152 5,-5 l 0,-2 0,-68 0,-2 C 89,10.635705 88.94788,10.279012 88.875,9.9375 88.83085,9.730607 88.78662,9.539842 88.71875,9.34375 88.71105,9.3218 88.69545,9.30306 88.6875,9.28125 88.62476,9.107511 88.549117,8.913801 88.46875,8.75 88.42717,8.6672 88.38971,8.580046 88.34375,8.5 88.28915,8.40279 88.216976,8.31165 88.15625,8.21875 88.06214,8.077785 87.951329,7.942755 87.84375,7.8125 87.700576,7.63805 87.540609,7.465502 87.375,7.3125 87.36383,7.3023 87.35502,7.29135 87.34375,7.28125 87.205364,7.155694 87.058659,7.046814 86.90625,6.9375 86.803679,6.86435 86.701932,6.784136 86.59375,6.71875 c -0.0074,-0.0045 -0.02384,0.0044 -0.03125,0 -0.232039,-0.138728 -0.462548,-0.274778 -0.71875,-0.375 0.301527,0.0968 0.596455,0.204138 0.875,0.34375 0.55709,0.279224 1.060053,0.665694 1.5,1.09375 0.219973,0.214028 0.409366,0.441865 0.59375,0.6875 0.184384,0.245635 0.355408,0.507743 0.5,0.78125 0.14012,0.265048 0.276135,0.524729 0.375,0.8125 0.01041,0.03078 0.02133,0.06274 0.03125,0.09375 0.09046,0.278085 0.1388,0.579404 0.1875,0.875 C 89.95865,11.3493 90,11.665279 90,12 l 0,2 0,68 0,2 c 0,3.324 -2.676,6 -6,6 l -72,0 z"
       inkscape:connector-curvature="0"
       id="path3615"
       style="opacity:0.4;fill:url(#radialGradient2886);fill-opacity:1;fill-rule:nonzero;stroke:none;display:inline" />
    <rect
       width="84"
       height="84"
       rx="6"
       ry="6"
       x="-94"
       y="6"
       id="rect3691"
       style="fill:#ff00ff;fill-opacity:1;fill-rule:nonzero;stroke:none" />
    <rect
       width="16"
       height="16"
       x="112"
       y="8"
       id="rect3797"
       style="color:#000000;fill:#ffffff;stroke:#000000;stroke-width:0.5;stroke-linecap:round;stroke-linejoin:miter;stroke-miterlimit:4;stroke-opacity:1;stroke-dasharray:none;stroke-dashoffset:8.6;marker:none;visibility:visible;display:inline;overflow:visible;enable-background:accumulate" />
    <text
       x="131.39261"
       y="11.969256"
       id="text3799"
       xml:space="preserve"
       style="font-size:4px;font-style:normal;font-variant:normal;font-weight:normal;font-stretch:normal;text-align:start;line-height:125%;writing-mode:lr-tb;text-anchor:start;fill:#000000;fill-opacity:1;stroke:none;font-family:Liberation Sans;-inkscape-font-specification:Liberation Sans"><tspan
         x="131.39261"
         y="11.969256"
         id="tspan3801">Width: 2px</tspan><tspan
         x="131.39261"
         y="16.969257"
         id="tspan3803">Blur: 12</tspan><tspan
         x="131.39261"
         y="21.969257"
         id="tspan3807">Opacity: 60</tspan></text>
  </g>
  <g
     id="layer3">
    <rect
       width="66"
       height="66"
       rx="12"
       ry="12"
       x="15"
       y="15"
       clip-path="url(#clipPath3613)"
       id="rect3171"
       style="opacity:0.5;fill:url(#linearGradient4209);fill-opacity:1;fill-rule:nonzero;stroke:#ffffff;stroke-width:0.5;stroke-linecap:round;stroke-linejoin:miter;stroke-miterlimit:4;stroke-opacity:1;stroke-dasharray:none;stroke-dashoffset:0;display:inline;filter:url(#filter3794)" />
  </g>
</svg>
