<?xml version="1.0" encoding="UTF-8" standalone="no"?>
<!-- Created with Inkscape (http://www.inkscape.org/) -->

<svg
   xmlns:dc="http://purl.org/dc/elements/1.1/"
   xmlns:cc="http://creativecommons.org/ns#"
   xmlns:rdf="http://www.w3.org/1999/02/22-rdf-syntax-ns#"
   xmlns:svg="http://www.w3.org/2000/svg"
   xmlns="http://www.w3.org/2000/svg"
   xmlns:xlink="http://www.w3.org/1999/xlink"
   xmlns:inkscape="http://www.inkscape.org/namespaces/inkscape"
   version="1.0"
   width="96"
   height="96"
   id="svg2408"
   style="display:inline">
  <defs
     id="defs2410">
    <linearGradient
       x1="628"
       y1="667"
       x2="628"
       y2="779"
       id="linearGradient3971"
       gradientUnits="userSpaceOnUse"
       gradientTransform="translate(-564,-664)">
      <stop
         id="stop3973"
         style="stop-color:#4a91d6;stop-opacity:1"
         offset="0" />
      <stop
         id="stop3977"
         style="stop-color:#225c95;stop-opacity:1"
         offset="1" />
    </linearGradient>
    <linearGradient
       x1="45.447727"
       y1="92.539597"
       x2="45.447727"
       y2="7.0165396"
       id="ButtonShadow"
       gradientUnits="userSpaceOnUse"
       gradientTransform="scale(1.0058652,0.994169)">
      <stop
         id="stop3750"
         style="stop-color:#000000;stop-opacity:1"
         offset="0" />
      <stop
         id="stop3752"
         style="stop-color:#000000;stop-opacity:0.58823532"
         offset="1" />
    </linearGradient>
    <linearGradient
       id="linearGradient3700">
      <stop
         id="stop3702"
         style="stop-color:#ebebeb;stop-opacity:1"
         offset="0" />
      <stop
         id="stop3704"
         style="stop-color:#fafafa;stop-opacity:1"
         offset="1" />
    </linearGradient>
    <linearGradient
       x1="48"
       y1="90"
       x2="48"
       y2="5.9877172"
       id="linearGradient3706"
       xlink:href="#linearGradient3700"
       gradientUnits="userSpaceOnUse" />
    <filter
       color-interpolation-filters="sRGB"
       id="filter3174">
      <feGaussianBlur
         id="feGaussianBlur3176"
         stdDeviation="1.71" />
    </filter>
    <linearGradient
       x1="45.447727"
       y1="92.539597"
       x2="45.447727"
       y2="7.0165396"
       id="ButtonShadow-0"
       gradientUnits="userSpaceOnUse"
       gradientTransform="matrix(1.0058652,0,0,0.994169,100,0)">
      <stop
         id="stop3750-8"
         style="stop-color:#000000;stop-opacity:1"
         offset="0" />
      <stop
         id="stop3752-5"
         style="stop-color:#000000;stop-opacity:0.58823532"
         offset="1" />
    </linearGradient>
    <linearGradient
       x1="32.251034"
       y1="6.1317081"
       x2="32.251034"
       y2="90.238609"
       id="linearGradient3780"
       xlink:href="#ButtonShadow-0"
       gradientUnits="userSpaceOnUse"
       gradientTransform="matrix(1.0238095,0,0,1.0119048,-1.1428571,-98.071429)" />
    <linearGradient
       x1="32.251034"
       y1="6.1317081"
       x2="32.251034"
       y2="90.238609"
       id="linearGradient3772"
       xlink:href="#ButtonShadow-0"
       gradientUnits="userSpaceOnUse"
       gradientTransform="matrix(1.0238095,0,0,1.0119048,-1.1428571,-98.071429)" />
    <linearGradient
       x1="32.251034"
       y1="6.1317081"
       x2="32.251034"
       y2="90.238609"
       id="linearGradient3725"
       xlink:href="#ButtonShadow-0"
       gradientUnits="userSpaceOnUse"
       gradientTransform="matrix(1.0238095,0,0,1.0119048,-1.1428571,-98.071429)" />
    <linearGradient
       x1="32.251034"
       y1="6.1317081"
       x2="32.251034"
       y2="90.238609"
       id="linearGradient3721"
       xlink:href="#ButtonShadow-0"
       gradientUnits="userSpaceOnUse"
       gradientTransform="translate(0,-97)" />
    <linearGradient
       x1="32.251034"
       y1="6.1317081"
       x2="32.251034"
       y2="90.238609"
       id="linearGradient3760"
       xlink:href="#ButtonShadow-0"
       gradientUnits="userSpaceOnUse"
       gradientTransform="matrix(1.0238095,0,0,1.0119048,-1.1428571,-98.071429)" />
    <linearGradient
       id="linearGradient3737-1">
      <stop
         id="stop3739-9"
         style="stop-color:#ffffff;stop-opacity:1"
         offset="0" />
      <stop
         id="stop3741-3"
         style="stop-color:#ffffff;stop-opacity:0"
         offset="1" />
    </linearGradient>
    <radialGradient
       cx="48"
       cy="90.171875"
       r="42"
       fx="48"
       fy="90.171875"
       id="radialGradient2886"
       xlink:href="#linearGradient3737-0"
       gradientUnits="userSpaceOnUse"
       gradientTransform="matrix(1.1573129,0,0,0.99590774,-7.551021,0.1971319)" />
    <linearGradient
       id="linearGradient3737-0">
      <stop
         id="stop3739-6"
         style="stop-color:#ffffff;stop-opacity:1"
         offset="0" />
      <stop
         id="stop3741-0"
         style="stop-color:#ffffff;stop-opacity:0"
         offset="1" />
    </linearGradient>
    <linearGradient
       x1="36.357143"
       y1="6"
       x2="36.357143"
       y2="63.893143"
       id="linearGradient3923"
       xlink:href="#linearGradient3737-1"
       gradientUnits="userSpaceOnUse" />
    <clipPath
       id="clipPath3948">
      <path
         d="m -88,6 c -3.324,0 -6,2.676 -6,6 l 0,72 c 0,3.324 2.676,6 6,6 l 72,0 c 3.324,0 6,-2.676 6,-6 l 0,-72 c 0,-3.324 -2.676,-6 -6,-6 l -72,0 z m 31.84375,12 8.3125,0 c 1.180648,0 2.125,0.986683 2.125,2.1875 l 0,4.21875 c 2.111082,0.562476 4.123141,1.426616 5.96875,2.5 l 3,-3.03125 c 0.849111,-0.849025 2.196406,-0.866085 3.03125,-0.03125 l 5.875,5.875 c 0.834848,0.834847 0.817863,2.18214 -0.03125,3.03125 l -3.03125,3 c 1.073391,1.845617 1.937528,3.857672 2.5,5.96875 l 4.21875,0 c 1.200827,0 2.1875,0.944356 2.1875,2.125 l 0,8.3125 c 0,1.180653 -0.986672,2.125 -2.1875,2.125 l -4.21875,0 c -0.562472,2.111079 -1.426609,4.123134 -2.5,5.96875 l 3.03125,3 c 0.849106,0.849111 0.866094,2.196416 0.03125,3.03125 l -5.875,5.875 c -0.834844,0.834921 -2.182138,0.81786 -3.03125,-0.03125 l -3,-3.03125 c -1.84561,1.073389 -3.857669,1.937515 -5.96875,2.5 l 0,4.21875 c 0,1.200828 -0.944354,2.1875 -2.125,2.1875 l -8.3125,0 c -1.180646,0 -2.125,-0.986673 -2.125,-2.1875 l 0,-4.21875 c -2.111081,-0.562485 -4.123141,-1.426613 -5.96875,-2.5 l -3,3.03125 c -0.849114,0.849022 -2.196407,0.866084 -3.03125,0.03125 l -5.875,-5.875 c -0.417421,-0.417418 -0.6298,-0.981833 -0.625,-1.53125 0.0047,-0.549422 0.231693,-1.075441 0.65625,-1.5 l 3.03125,-3 c -1.073391,-1.845614 -1.937528,-3.857673 -2.5,-5.96875 l -4.21875,0 c -1.200828,0 -2.1875,-0.944347 -2.1875,-2.125 l 0,-8.3125 c 0,-1.180643 0.986672,-2.125 2.1875,-2.125 l 4.21875,0 c 0.562472,-2.111076 1.426609,-4.123135 2.5,-5.96875 l -3.03125,-3 c -0.849107,-0.84911 -0.866093,-2.196403 -0.03125,-3.03125 l 5.875,-5.875 c 0.834843,-0.834932 2.182137,-0.817858 3.03125,0.03125 l 3,3.03125 c 1.845609,-1.073383 3.85767,-1.937533 5.96875,-2.5 l 0,-4.21875 c 0,-1.200817 0.944355,-2.1875 2.125,-2.1875 z M -52,38.9375 c -5.006511,0 -9.0625,4.055982 -9.0625,9.0625 0,5.006505 4.055989,9.0625 9.0625,9.0625 5.00651,0 9.0625,-4.055995 9.0625,-9.0625 0,-5.00652 -4.05599,-9.0625 -9.0625,-9.0625 z"
         inkscape:connector-curvature="0"
         id="path3950"
         style="fill:#ff00ff;fill-opacity:1;fill-rule:nonzero;stroke:none" />
    </clipPath>
    <filter
       x="-0.14400022"
       y="-0.14399979"
       width="1.2880003"
       height="1.2879996"
       color-interpolation-filters="sRGB"
       id="filter3952">
      <feGaussianBlur
         id="feGaussianBlur3954"
         stdDeviation="3.6000051" />
    </filter>
    <linearGradient
       id="linearGradient3737-9">
      <stop
         id="stop3739-2"
         style="stop-color:#ffffff;stop-opacity:1"
         offset="0" />
      <stop
         id="stop3741-1"
         style="stop-color:#ffffff;stop-opacity:0"
         offset="1" />
    </linearGradient>
    <clipPath
       id="clipPath3613">
      <rect
         width="84"
         height="84"
         rx="6"
         ry="6"
         x="6"
         y="6"
         id="rect3615"
         style="fill:#ffffff;fill-opacity:1;fill-rule:nonzero;stroke:none" />
    </clipPath>
    <filter
       x="-0.192"
       y="-0.192"
       width="1.3839999"
       height="1.3839999"
       color-interpolation-filters="sRGB"
       id="filter3794">
      <feGaussianBlur
         id="feGaussianBlur3796"
         stdDeviation="5.28" />
    </filter>
    <linearGradient
       x1="48"
       y1="20.220806"
       x2="48"
       y2="138.66119"
       id="linearGradient4481"
       xlink:href="#linearGradient3737-9"
       gradientUnits="userSpaceOnUse" />
    <linearGradient
       x1="18.000002"
       y1="47.999897"
       x2="78.000175"
       y2="47.999897"
       id="linearGradient3921"
       xlink:href="#linearGradient3971"
       gradientUnits="userSpaceOnUse"
       gradientTransform="matrix(0,1,1,0,1.9e-4,-1.9e-4)" />
  </defs>
  <metadata
     id="metadata2413">
    <rdf:RDF>
      <cc:Work
         rdf:about="">
        <dc:format>image/svg+xml</dc:format>
        <dc:type
           rdf:resource="http://purl.org/dc/dcmitype/StillImage" />
        <dc:title />
      </cc:Work>
    </rdf:RDF>
  </metadata>
  <g
     id="layer2"
     style="display:none">
    <rect
       width="86"
       height="85"
       rx="6"
       ry="6"
       x="5"
       y="7"
       id="rect3745"
       style="opacity:0.9;fill:url(#ButtonShadow);fill-opacity:1;fill-rule:nonzero;stroke:none;filter:url(#filter3174)" />
  </g>
  <g
     id="layer6"
     style="display:inline">
    <path
       d="m 12,-95.03125 c -5.5110903,0 -10.03125,4.52016 -10.03125,10.03125 l 0,71 c 0,5.5110902 4.5201598,10.03125 10.03125,10.03125 l 72,0 c 5.51109,0 10.03125,-4.5201597 10.03125,-10.03125 l 0,-71 c 0,-5.51109 -4.52016,-10.03125 -10.03125,-10.03125 l -72,0 z"
       transform="scale(1,-1)"
       id="path3786"
       style="opacity:0.07999998;fill:url(#linearGradient3760);fill-opacity:1;fill-rule:nonzero;stroke:none;display:inline" />
    <path
       d="m 12,-94.03125 c -4.971633,0 -9.03125,4.059617 -9.03125,9.03125 l 0,71 c 0,4.9716329 4.0596171,9.03125 9.03125,9.03125 l 72,0 c 4.971633,0 9.03125,-4.059617 9.03125,-9.03125 l 0,-71 c 0,-4.971633 -4.059617,-9.03125 -9.03125,-9.03125 l -72,0 z"
       transform="scale(1,-1)"
       id="path3778"
       style="opacity:0.1;fill:url(#linearGradient3780);fill-opacity:1;fill-rule:nonzero;stroke:none;display:inline" />
    <path
       d="m 12,-93 c -4.4091333,0 -8,3.590867 -8,8 l 0,71 c 0,4.4091333 3.5908667,8 8,8 l 72,0 c 4.409133,0 8,-3.5908667 8,-8 l 0,-71 c 0,-4.409133 -3.590867,-8 -8,-8 l -72,0 z"
       transform="scale(1,-1)"
       id="path3770"
       style="opacity:0.2;fill:url(#linearGradient3772);fill-opacity:1;fill-rule:nonzero;stroke:none;display:inline" />
    <rect
       width="86"
       height="85"
       rx="7"
       ry="7"
       x="5"
       y="-92"
       transform="scale(1,-1)"
       id="rect3723"
       style="opacity:0.3;fill:url(#linearGradient3725);fill-opacity:1;fill-rule:nonzero;stroke:none;display:inline" />
    <rect
       width="84"
       height="84"
       rx="6"
       ry="6"
       x="6"
       y="-91"
       transform="scale(1,-1)"
       id="rect3716"
       style="opacity:0.45;fill:url(#linearGradient3721);fill-opacity:1;fill-rule:nonzero;stroke:none;display:inline" />
  </g>
  <g
     id="layer1"
     style="display:inline">
    <rect
       width="84"
       height="84"
       rx="6"
       ry="6"
       x="6"
       y="6"
       id="rect2419"
       style="fill:url(#linearGradient3706);fill-opacity:1;fill-rule:nonzero;stroke:none" />
    <path
       d="M 12,6 C 8.676,6 6,8.676 6,12 l 0,2 0,68 0,2 c 0,0.334721 0.04135,0.6507 0.09375,0.96875 0.0487,0.295596 0.09704,0.596915 0.1875,0.875 0.0099,0.03038 0.02089,0.0636 0.03125,0.09375 0.09886,0.287771 0.23488,0.547452 0.375,0.8125 0.144592,0.273507 0.315616,0.535615 0.5,0.78125 0.184384,0.245635 0.373776,0.473472 0.59375,0.6875 0.439947,0.428056 0.94291,0.814526 1.5,1.09375 0.278545,0.139612 0.573473,0.246947 0.875,0.34375 -0.256202,-0.100222 -0.486711,-0.236272 -0.71875,-0.375 -0.0074,-0.0044 -0.02387,0.0045 -0.03125,0 -0.03193,-0.0193 -0.06229,-0.04251 -0.09375,-0.0625 -0.120395,-0.0767 -0.231023,-0.163513 -0.34375,-0.25 -0.106173,-0.0808 -0.213281,-0.161112 -0.3125,-0.25 C 8.47832,88.557317 8.30879,88.373362 8.15625,88.1875 8.048671,88.057245 7.937856,87.922215 7.84375,87.78125 7.81866,87.74287 7.8053,87.69538 7.78125,87.65625 7.71649,87.553218 7.651022,87.451733 7.59375,87.34375 7.492742,87.149044 7.388075,86.928049 7.3125,86.71875 7.3045,86.69694 7.28891,86.6782 7.28125,86.65625 7.24942,86.5643 7.24545,86.469419 7.21875,86.375 7.188418,86.268382 7.148361,86.171969 7.125,86.0625 7.052121,85.720988 7,85.364295 7,85 L 7,83 7,15 7,13 C 7,10.218152 9.218152,8 12,8 l 2,0 68,0 2,0 c 2.781848,0 5,2.218152 5,5 l 0,2 0,68 0,2 c 0,0.364295 -0.05212,0.720988 -0.125,1.0625 -0.04415,0.206893 -0.08838,0.397658 -0.15625,0.59375 -0.0077,0.02195 -0.0233,0.04069 -0.03125,0.0625 -0.06274,0.173739 -0.138383,0.367449 -0.21875,0.53125 -0.04158,0.0828 -0.07904,0.169954 -0.125,0.25 -0.0546,0.09721 -0.126774,0.18835 -0.1875,0.28125 -0.09411,0.140965 -0.204921,0.275995 -0.3125,0.40625 -0.143174,0.17445 -0.303141,0.346998 -0.46875,0.5 -0.01117,0.0102 -0.01998,0.02115 -0.03125,0.03125 -0.138386,0.125556 -0.285091,0.234436 -0.4375,0.34375 -0.102571,0.07315 -0.204318,0.153364 -0.3125,0.21875 -0.0074,0.0045 -0.02384,-0.0044 -0.03125,0 -0.232039,0.138728 -0.462548,0.274778 -0.71875,0.375 0.301527,-0.0968 0.596455,-0.204138 0.875,-0.34375 0.55709,-0.279224 1.060053,-0.665694 1.5,-1.09375 0.219973,-0.214028 0.409366,-0.441865 0.59375,-0.6875 0.184384,-0.245635 0.355408,-0.507743 0.5,-0.78125 0.14012,-0.265048 0.276135,-0.524729 0.375,-0.8125 0.01041,-0.03078 0.02133,-0.06274 0.03125,-0.09375 0.09046,-0.278085 0.1388,-0.579404 0.1875,-0.875 C 89.95865,84.6507 90,84.334721 90,84 l 0,-2 0,-68 0,-2 C 90,8.676 87.324,6 84,6 L 12,6 z"
       inkscape:connector-curvature="0"
       id="rect3728"
       style="opacity:0.5;fill:url(#linearGradient3923);fill-opacity:1;fill-rule:nonzero;stroke:none;display:inline" />
    <path
       d="M 12,90 C 8.676,90 6,87.324 6,84 L 6,82 6,14 6,12 c 0,-0.334721 0.04135,-0.6507 0.09375,-0.96875 0.0487,-0.295596 0.09704,-0.596915 0.1875,-0.875 C 6.29113,10.12587 6.302142,10.09265 6.3125,10.0625 6.411365,9.774729 6.5473802,9.515048 6.6875,9.25 6.8320918,8.976493 7.0031161,8.714385 7.1875,8.46875 7.3718839,8.223115 7.5612765,7.995278 7.78125,7.78125 8.221197,7.353194 8.72416,6.966724 9.28125,6.6875 9.559795,6.547888 9.8547231,6.440553 10.15625,6.34375 9.9000482,6.443972 9.6695391,6.580022 9.4375,6.71875 c -0.00741,0.0044 -0.023866,-0.0045 -0.03125,0 -0.031933,0.0193 -0.062293,0.04251 -0.09375,0.0625 -0.120395,0.0767 -0.2310226,0.163513 -0.34375,0.25 -0.1061728,0.0808 -0.2132809,0.161112 -0.3125,0.25 C 8.4783201,7.442683 8.3087904,7.626638 8.15625,7.8125 8.0486711,7.942755 7.9378561,8.077785 7.84375,8.21875 7.818661,8.25713 7.805304,8.30462 7.78125,8.34375 7.716487,8.446782 7.6510225,8.548267 7.59375,8.65625 7.4927417,8.850956 7.3880752,9.071951 7.3125,9.28125 7.30454,9.30306 7.288911,9.3218 7.28125,9.34375 7.2494249,9.4357 7.2454455,9.530581 7.21875,9.625 7.1884177,9.731618 7.1483606,9.828031 7.125,9.9375 7.0521214,10.279012 7,10.635705 7,11 l 0,2 0,68 0,2 c 0,2.781848 2.2181517,5 5,5 l 2,0 68,0 2,0 c 2.781848,0 5,-2.218152 5,-5 l 0,-2 0,-68 0,-2 C 89,10.635705 88.94788,10.279012 88.875,9.9375 88.83085,9.730607 88.78662,9.539842 88.71875,9.34375 88.71105,9.3218 88.69545,9.30306 88.6875,9.28125 88.62476,9.107511 88.549117,8.913801 88.46875,8.75 88.42717,8.6672 88.38971,8.580046 88.34375,8.5 88.28915,8.40279 88.216976,8.31165 88.15625,8.21875 88.06214,8.077785 87.951329,7.942755 87.84375,7.8125 87.700576,7.63805 87.540609,7.465502 87.375,7.3125 87.36383,7.3023 87.35502,7.29135 87.34375,7.28125 87.205364,7.155694 87.058659,7.046814 86.90625,6.9375 86.803679,6.86435 86.701932,6.784136 86.59375,6.71875 c -0.0074,-0.0045 -0.02384,0.0044 -0.03125,0 -0.232039,-0.138728 -0.462548,-0.274778 -0.71875,-0.375 0.301527,0.0968 0.596455,0.204138 0.875,0.34375 0.55709,0.279224 1.060053,0.665694 1.5,1.09375 0.219973,0.214028 0.409366,0.441865 0.59375,0.6875 0.184384,0.245635 0.355408,0.507743 0.5,0.78125 0.14012,0.265048 0.276135,0.524729 0.375,0.8125 0.01041,0.03078 0.02133,0.06274 0.03125,0.09375 0.09046,0.278085 0.1388,0.579404 0.1875,0.875 C 89.95865,11.3493 90,11.665279 90,12 l 0,2 0,68 0,2 c 0,3.324 -2.676,6 -6,6 l -72,0 z"
       inkscape:connector-curvature="0"
       id="path3615"
       style="opacity:0.4;fill:url(#radialGradient2886);fill-opacity:1;fill-rule:nonzero;stroke:none;display:inline" />
    <rect
       width="84"
       height="84"
       rx="6"
       ry="6"
       x="-94"
       y="6"
       id="rect3654"
       style="fill:#ff00ff;fill-opacity:1;fill-rule:nonzero;stroke:none" />
    <rect
       width="16"
       height="16"
       x="112"
       y="8"
       id="rect3797"
       style="color:#000000;fill:#ffffff;stroke:#000000;stroke-width:0.5;stroke-linecap:round;stroke-linejoin:miter;stroke-miterlimit:4;stroke-opacity:1;stroke-dasharray:none;stroke-dashoffset:8.6;marker:none;visibility:visible;display:inline;overflow:visible;enable-background:accumulate" />
    <text
       x="131.39261"
       y="11.969256"
       id="text3799"
       xml:space="preserve"
       style="font-size:4px;font-style:normal;font-variant:normal;font-weight:normal;font-stretch:normal;text-align:start;line-height:125%;writing-mode:lr-tb;text-anchor:start;fill:#000000;fill-opacity:1;stroke:none;display:inline;font-family:Liberation Sans;-inkscape-font-specification:Liberation Sans"><tspan
         x="131.39261"
         y="11.969256"
         id="tspan3801">Width: 2px</tspan><tspan
         x="131.39261"
         y="16.969257"
         id="tspan3803">Blur: 12</tspan><tspan
         x="131.39261"
         y="21.969257"
         id="tspan3807">Opacity: 60</tspan></text>
    <path
       d="m -81.999911,52.142336 c 0,1.180653 0.979404,2.136636 2.180232,2.136636 l 4.22965,0 c 0.562472,2.111077 1.412074,4.128219 2.485465,5.973833 l -3.00872,3.008727 c -0.424557,0.424559 -0.649414,0.933132 -0.654072,1.482554 -0.0048,0.549417 0.193045,1.10874 0.610466,1.526158 l 5.886628,5.886633 c 0.834843,0.834834 2.159607,0.805502 3.008721,-0.04352 l 3.008721,-3.008725 c 1.845609,1.073387 3.862754,1.922985 5.973835,2.48547 l 0,4.229646 c 0,1.200827 0.955981,2.180234 2.136627,2.180234 l 8.284884,0 c 1.180646,0 2.136628,-0.979407 2.136628,-2.180235 l 0,-4.229645 c 2.111081,-0.562485 4.128226,-1.412083 5.973836,-2.485472 l 3.008721,3.008727 c 0.849112,0.84911 2.173875,0.878441 3.008719,0.04352 l 5.886628,-5.886633 c 0.834844,-0.834834 0.805506,-2.159603 -0.0436,-3.008714 l -3.00872,-3.008725 c 1.073391,-1.845616 1.922992,-3.862756 2.485464,-5.973835 l 4.229651,0 c 1.200828,0 2.180233,-0.955981 2.180233,-2.136634 l 0,-8.284881 c 0,-1.180644 -0.979405,-2.136624 -2.180232,-2.136624 l -4.229651,0 c -0.562472,-2.111078 -1.412073,-4.128218 -2.485464,-5.973835 l 3.00872,-3.008725 c 0.849113,-0.84911 0.878448,-2.173877 0.0436,-3.008724 l -5.886627,-5.886621 c -0.834844,-0.834835 -2.159609,-0.805505 -3.00872,0.04352 l -3.008721,3.008711 c -1.845609,-1.073384 -3.862754,-1.922981 -5.973836,-2.485457 l 0,-4.229657 c 0,-1.200817 -0.95598,-2.180232 -2.136628,-2.180232 l -8.284884,0 c -1.180645,0 -2.136628,0.979415 -2.136628,2.180232 l 0,4.229657 c -2.11108,0.562467 -4.128225,1.412068 -5.973834,2.485451 l -3.008722,-3.008713 c -0.849113,-0.849108 -2.173877,-0.878452 -3.00872,-0.04352 l -5.886628,5.886625 c -0.834843,0.834847 -0.805507,2.159615 0.0436,3.008725 l 3.008722,3.008725 c -1.073391,1.845615 -1.922994,3.862756 -2.485466,5.973832 l -4.22965,0 c -1.200828,0 -2.180231,0.955982 -2.180231,2.136625 l 0,8.284881 z m 20.930229,-4.142435 c 0,-5.006518 4.063256,-9.069769 9.069767,-9.069769 5.00651,0 9.069766,4.063249 9.069766,9.069769 0,5.006505 -4.063256,9.069769 -9.069766,9.069769 -5.006511,0 -9.069767,-4.063263 -9.069767,-9.069768 z"
       inkscape:connector-curvature="0"
       transform="translate(100,0)"
       clip-path="url(#clipPath3948)"
       id="path3939"
       style="opacity:0.6;fill:none;stroke:#ffffff;stroke-width:2;stroke-miterlimit:4;stroke-dasharray:none;marker:none;visibility:visible;display:block;overflow:visible;filter:url(#filter3952);enable-background:accumulate" />
  </g>
  <g
     id="layer3"
     style="display:inline">
    <rect
       width="66"
       height="66"
       rx="12"
       ry="12"
       x="15"
       y="15"
       clip-path="url(#clipPath3613)"
       id="rect3171"
       style="opacity:0.5;fill:url(#linearGradient4481);fill-opacity:1;fill-rule:nonzero;stroke:#ffffff;stroke-width:0.5;stroke-linecap:round;stroke-linejoin:miter;stroke-miterlimit:4;stroke-opacity:1;stroke-dasharray:none;stroke-dashoffset:0;display:inline;filter:url(#filter3794)" />
  </g>
  <g
     id="layer4">
    <path
       d="m 18.000089,43.857457 c 0,-1.180653 0.979404,-2.136636 2.180232,-2.136636 l 4.22965,0 c 0.562472,-2.111077 1.412074,-4.128219 2.485465,-5.973833 l -3.00872,-3.008727 c -0.424557,-0.424559 -0.649414,-0.933132 -0.654072,-1.482554 -0.0048,-0.549417 0.193045,-1.10874 0.610466,-1.526158 l 5.886628,-5.886633 c 0.834843,-0.834834 2.159607,-0.805502 3.008721,0.04352 l 3.008721,3.008725 c 1.845609,-1.073387 3.862754,-1.922985 5.973835,-2.48547 l 0,-4.229646 c 0,-1.200827 0.955981,-2.180234 2.136627,-2.180234 l 8.284884,0 c 1.180646,0 2.136628,0.979407 2.136628,2.180235 l 0,4.229645 c 2.111081,0.562485 4.128226,1.412083 5.973836,2.485472 l 3.008721,-3.008727 c 0.849112,-0.84911 2.173875,-0.878441 3.008719,-0.04352 l 5.886628,5.886633 c 0.834844,0.834834 0.805506,2.159603 -0.0436,3.008714 l -3.00872,3.008725 c 1.073391,1.845616 1.922992,3.862756 2.485464,5.973835 l 4.229651,0 c 1.200828,0 2.180233,0.955981 2.180233,2.136634 l 0,8.284881 c 0,1.180644 -0.979405,2.136624 -2.180232,2.136624 l -4.229651,0 c -0.562472,2.111078 -1.412073,4.128218 -2.485464,5.973835 l 3.00872,3.008725 c 0.849113,0.84911 0.878448,2.173877 0.0436,3.008724 l -5.886627,5.886621 c -0.834844,0.834835 -2.159609,0.805505 -3.00872,-0.04352 l -3.008721,-3.008711 c -1.845609,1.073384 -3.862754,1.922981 -5.973836,2.485457 l 0,4.229657 c 0,1.200817 -0.95598,2.180232 -2.136628,2.180232 l -8.284884,0 c -1.180645,0 -2.136628,-0.979415 -2.136628,-2.180232 l 0,-4.229657 c -2.11108,-0.562467 -4.128225,-1.412068 -5.973834,-2.485451 l -3.008722,3.008713 c -0.849113,0.849108 -2.173877,0.878452 -3.00872,0.04352 L 23.843111,66.27025 c -0.834843,-0.834847 -0.805507,-2.159615 0.0436,-3.008725 L 26.895433,60.2528 c -1.073391,-1.845615 -1.922994,-3.862756 -2.485466,-5.973832 l -4.22965,0 c -1.200828,0 -2.180231,-0.955982 -2.180231,-2.136625 l 0,-8.284881 z m 20.930229,4.142435 c 0,5.006518 4.063256,9.069769 9.069767,9.069769 5.00651,0 9.069766,-4.063249 9.069766,-9.069769 0,-5.006505 -4.063256,-9.069769 -9.069766,-9.069769 -5.006511,0 -9.069767,4.063263 -9.069767,9.069768 z"
       inkscape:connector-curvature="0"
       id="rect3267"
       style="fill:url(#linearGradient3921);fill-opacity:1;fill-rule:nonzero;stroke:none;stroke-width:1;marker:none;visibility:visible;display:block;overflow:visible;enable-background:accumulate" />
    <path
       d="m 43.84375,18 c -1.180645,0 -2.125,0.986683 -2.125,2.1875 l 0,1 c 0,-1.200817 0.944355,-2.1875 2.125,-2.1875 l 8.3125,0 c 1.180648,0 2.125,0.986683 2.125,2.1875 l 0,-1 C 54.28125,18.986683 53.336898,18 52.15625,18 l -8.3125,0 z m -12.625,5.21875 c -0.541685,-0.0091 -1.082579,0.207534 -1.5,0.625 l -5.875,5.875 c -0.546032,0.546035 -0.712161,1.304966 -0.53125,2 0.08476,-0.362825 0.244784,-0.713533 0.53125,-1 l 5.875,-5.875 C 30.553593,24.008818 31.900887,24.025892 32.75,24.875 l 3,3.03125 c 1.845609,-1.073383 3.85767,-1.937533 5.96875,-2.5 l 0,-1 c -2.11108,0.562467 -4.123141,1.426617 -5.96875,2.5 l -3,-3.03125 c -0.424557,-0.424554 -0.989565,-0.647142 -1.53125,-0.65625 z m 33.5625,0 C 64.239564,23.22785 63.674555,23.450488 63.25,23.875 l -3,3.03125 c -1.845609,-1.073384 -3.857668,-1.937524 -5.96875,-2.5 l 0,1 c 2.111082,0.562476 4.123141,1.426616 5.96875,2.5 l 3,-3.03125 c 0.849111,-0.849025 2.196406,-0.866085 3.03125,-0.03125 l 5.875,5.875 c 0.286467,0.286467 0.446492,0.637175 0.53125,1 0.180912,-0.695033 0.01479,-1.453965 -0.53125,-2 l -5.875,-5.875 c -0.417422,-0.417417 -0.958314,-0.634106 -1.5,-0.625 z M 26.5625,36.40625 c -0.903523,1.667225 -1.658515,3.444397 -2.15625,5.3125 l -4.21875,0 c -1.200828,0 -2.1875,0.944357 -2.1875,2.125 l 0,1 c 0,-1.180643 0.986672,-2.125 2.1875,-2.125 l 4.21875,0 c 0.562472,-2.111076 1.426609,-4.123135 2.5,-5.96875 L 26.5625,36.40625 z m 42.875,0 -0.34375,0.34375 c 1.073391,1.845617 1.937528,3.857672 2.5,5.96875 l 4.21875,0 c 1.200827,0 2.1875,0.944356 2.1875,2.125 l 0,-1 c 0,-1.180644 -0.986673,-2.125 -2.1875,-2.125 l -4.21875,0 C 71.096015,39.850645 70.341022,38.073476 69.4375,36.40625 z M 38.96875,48.5 c -0.0089,0.16483 -0.03125,0.332954 -0.03125,0.5 0,5.006505 4.055989,9.0625 9.0625,9.0625 5.00651,0 9.0625,-4.055995 9.0625,-9.0625 0,-0.167046 -0.02232,-0.33517 -0.03125,-0.5 -0.258742,4.775258 -4.191786,8.5625 -9.03125,8.5625 -4.839465,0 -8.772508,-3.787242 -9.03125,-8.5625 z M 26.5625,60.59375 23.875,63.25 c -0.424557,0.424559 -0.651592,0.950578 -0.65625,1.5 -0.0016,0.179795 0.05132,0.354653 0.09375,0.53125 0.09341,-0.36845 0.262657,-0.731405 0.5625,-1.03125 l 3.03125,-3 C 26.782709,61.03758 26.680016,60.810596 26.5625,60.59375 z m 42.875,0 c -0.117516,0.216846 -0.220209,0.44383 -0.34375,0.65625 l 3.03125,3 c 0.293745,0.293747 0.466811,0.663629 0.5625,1.03125 C 72.84975,64.586702 72.6827,63.807749 72.125,63.25 l -2.6875,-2.65625 z"
       inkscape:connector-curvature="0"
       id="path3921"
       style="opacity:0.3;fill:#000000;fill-opacity:1;fill-rule:nonzero;stroke:none;stroke-width:1;marker:none;visibility:visible;display:block;overflow:visible;enable-background:accumulate" />
    <path
       d="m 43.84375,18 c -1.180646,0 -2.125,0.986673 -2.125,2.1875 l 0,4.21875 c -2.111081,0.562485 -4.123141,1.426613 -5.96875,2.5 l -3,-3.03125 c -0.849114,-0.849022 -2.196407,-0.866084 -3.03125,-0.03125 l -5.875,5.875 c -0.417421,0.417418 -0.6298,0.981833 -0.625,1.53125 0.0047,0.549422 0.231693,1.075441 0.65625,1.5 l 3.03125,3 c -1.073391,1.845614 -1.937528,3.857673 -2.5,5.96875 l -4.21875,0 c -1.200828,0 -2.1875,0.944347 -2.1875,2.125 l 0,8.3125 c 0,1.180643 0.986672,2.125 2.1875,2.125 l 4.21875,0 c 0.562472,2.111076 1.426609,4.123135 2.5,5.96875 l -3.03125,3 c -0.849107,0.84911 -0.866093,2.196403 -0.03125,3.03125 l 5.875,5.875 c 0.834843,0.834932 2.182137,0.817858 3.03125,-0.03125 l 3,-3.03125 c 1.845609,1.073383 3.85767,1.937533 5.96875,2.5 l 0,4.21875 c 0,1.200817 0.944355,2.1875 2.125,2.1875 l 8.3125,0 c 1.180648,0 2.125,-0.986683 2.125,-2.1875 l 0,-4.21875 c 2.111082,-0.562476 4.123141,-1.426616 5.96875,-2.5 l 3,3.03125 c 0.849111,0.849025 2.196406,0.866085 3.03125,0.03125 l 5.875,-5.875 C 72.991098,65.446403 72.974113,64.09911 72.125,63.25 l -3.03125,-3 c 1.073391,-1.845617 1.937528,-3.857672 2.5,-5.96875 l 4.21875,0 c 1.200827,0 2.1875,-0.944356 2.1875,-2.125 l 0,-8.3125 c 0,-1.180653 -0.986672,-2.125 -2.1875,-2.125 l -4.21875,0 c -0.562472,-2.111079 -1.426609,-4.123134 -2.5,-5.96875 l 3.03125,-3 c 0.849106,-0.849111 0.866094,-2.196416 0.03125,-3.03125 l -5.875,-5.875 C 65.446406,23.008829 64.099112,23.02589 63.25,23.875 l -3,3.03125 c -1.84561,-1.073389 -3.857669,-1.937515 -5.96875,-2.5 l 0,-4.21875 C 54.28125,18.986672 53.336896,18 52.15625,18 l -8.3125,0 z m 0,2.03125 8.3125,0 c 0.04194,0 0.09375,0.02697 0.09375,0.15625 l 0,4.21875 a 2.0440505,2.0440505 0 0 0 1.5,1.96875 c 1.920061,0.511589 3.769099,1.323999 5.46875,2.3125 a 2.0440505,2.0440505 0 0 0 2.46875,-0.34375 l 3,-3.03125 c 0.09441,-0.09441 0.108657,-0.07885 0.15625,-0.03125 l 5.875,5.875 c 0.04758,0.04758 0.06311,0.06189 -0.03125,0.15625 l -3.03125,3 a 2.0440505,2.0440505 0 0 0 -0.34375,2.46875 c 0.988507,1.699665 1.800927,3.548706 2.3125,5.46875 a 2.0440505,2.0440505 0 0 0 1.96875,1.5 l 4.21875,0 c 0.12929,0 0.15625,0.05179 0.15625,0.09375 l 0,8.3125 c 0,0.04194 -0.02697,0.09375 -0.15625,0.09375 l -4.21875,0 a 2.0440505,2.0440505 0 0 0 -1.96875,1.5 c -0.511573,1.920043 -1.323993,3.769084 -2.3125,5.46875 a 2.0440505,2.0440505 0 0 0 0.34375,2.46875 l 3.03125,3 c 0.09437,0.09437 0.07886,0.108644 0.03125,0.15625 l -5.875,5.875 c -0.04755,0.04755 -0.06188,0.06311 -0.15625,-0.03125 l -3,-3.03125 A 2.0440505,2.0440505 0 0 0 59.21875,67.3125 C 57.519091,68.301001 55.670048,69.113423 53.75,69.625 a 2.0440505,2.0440505 0 0 0 -1.5,1.96875 l 0,4.21875 c 0,0.129263 -0.05181,0.15625 -0.09375,0.15625 l -8.3125,0 c -0.04193,0 -0.09375,-0.02699 -0.09375,-0.15625 l 0,-4.21875 A 2.0440505,2.0440505 0 0 0 42.25,69.625 c -1.920035,-0.511566 -3.769087,-1.323997 -5.46875,-2.3125 a 2.0440505,2.0440505 0 0 0 -2.46875,0.34375 l -3,3.03125 c -0.09442,0.09442 -0.108661,0.07884 -0.15625,0.03125 l -5.875,-5.875 c -0.0476,-0.0476 -0.06311,-0.06189 0.03125,-0.15625 l 3.03125,-3 A 2.0440505,2.0440505 0 0 0 28.6875,59.21875 C 27.698994,57.519088 26.886573,55.670042 26.375,53.75 a 2.0440505,2.0440505 0 0 0 -1.96875,-1.5 l -4.21875,0 c -0.129278,0 -0.15625,-0.05181 -0.15625,-0.09375 l 0,-8.3125 c 0,-0.04196 0.02696,-0.09375 0.15625,-0.09375 l 4.21875,0 a 2.0440505,2.0440505 0 0 0 1.96875,-1.5 c 0.511573,-1.920043 1.323994,-3.769089 2.3125,-5.46875 A 2.0440505,2.0440505 0 0 0 28.34375,34.3125 l -3.03125,-3 c -0.08531,-0.08531 -0.06252,-0.09625 -0.0625,-0.09375 -9.2e-5,-0.01055 0.02011,-0.05137 0.03125,-0.0625 l 5.875,-5.875 c 0.04755,-0.04755 0.06187,-0.06312 0.15625,0.03125 l 3,3.03125 a 2.0440505,2.0440505 0 0 0 2.46875,0.34375 C 38.480901,27.699 40.32994,26.886589 42.25,26.375 a 2.0440505,2.0440505 0 0 0 1.5,-1.96875 l 0,-4.21875 c 0,-0.12928 0.05181,-0.15625 0.09375,-0.15625 z M 48,36.90625 c -6.110384,0 -11.09375,4.983372 -11.09375,11.09375 0,6.110388 4.983369,11.09375 11.09375,11.09375 6.110379,0 11.09375,-4.98336 11.09375,-11.09375 0,-6.110378 -4.983367,-11.09375 -11.09375,-11.09375 z m 0,2.03125 c 5.00651,0 9.0625,4.055995 9.0625,9.0625 0,5.00652 -4.05599,9.0625 -9.0625,9.0625 -5.006511,0 -9.0625,-4.055982 -9.0625,-9.0625 0,-5.006505 4.055989,-9.0625 9.0625,-9.0625 z"
       inkscape:connector-curvature="0"
       id="path3948"
       style="opacity:0.1;fill:#000000;fill-opacity:1;fill-rule:nonzero;stroke:none;stroke-width:1;marker:none;visibility:visible;display:block;overflow:visible;enable-background:accumulate" />
    <path
       d="m 43.84375,18 c -1.180646,0 -2.125,0.986673 -2.125,2.1875 l 0,4.21875 c -2.111081,0.562485 -4.123141,1.426613 -5.96875,2.5 l -3,-3.03125 c -0.849114,-0.849022 -2.196407,-0.866084 -3.03125,-0.03125 l -5.875,5.875 c -0.417421,0.417418 -0.6298,0.981833 -0.625,1.53125 0.0047,0.549422 0.231693,1.075441 0.65625,1.5 l 3.03125,3 c -1.073391,1.845614 -1.937528,3.857673 -2.5,5.96875 l -4.21875,0 c -1.200828,0 -2.1875,0.944347 -2.1875,2.125 l 0,8.3125 c 0,1.180643 0.986672,2.125 2.1875,2.125 l 4.21875,0 c 0.562472,2.111076 1.426609,4.123135 2.5,5.96875 l -3.03125,3 c -0.849107,0.84911 -0.866093,2.196403 -0.03125,3.03125 l 5.875,5.875 c 0.834843,0.834932 2.182137,0.817858 3.03125,-0.03125 l 3,-3.03125 c 1.845609,1.073383 3.85767,1.937533 5.96875,2.5 l 0,4.21875 c 0,1.200817 0.944355,2.1875 2.125,2.1875 l 8.3125,0 c 1.180648,0 2.125,-0.986683 2.125,-2.1875 l 0,-4.21875 c 2.111082,-0.562476 4.123141,-1.426616 5.96875,-2.5 l 3,3.03125 c 0.849111,0.849025 2.196406,0.866085 3.03125,0.03125 l 5.875,-5.875 C 72.991098,65.446403 72.974113,64.09911 72.125,63.25 l -3.03125,-3 c 1.073391,-1.845617 1.937528,-3.857672 2.5,-5.96875 l 4.21875,0 c 1.200827,0 2.1875,-0.944356 2.1875,-2.125 l 0,-8.3125 c 0,-1.180653 -0.986672,-2.125 -2.1875,-2.125 l -4.21875,0 c -0.562472,-2.111079 -1.426609,-4.123134 -2.5,-5.96875 l 3.03125,-3 c 0.849106,-0.849111 0.866094,-2.196416 0.03125,-3.03125 l -5.875,-5.875 C 65.446406,23.008829 64.099112,23.02589 63.25,23.875 l -3,3.03125 c -1.84561,-1.073389 -3.857669,-1.937515 -5.96875,-2.5 l 0,-4.21875 C 54.28125,18.986672 53.336896,18 52.15625,18 l -8.3125,0 z m 0,0.96875 8.3125,0 c 0.638407,0 1.15625,0.528182 1.15625,1.21875 l 0,4.21875 a 0.97335743,0.97335743 0 0 0 0.71875,0.9375 c 2.020119,0.538249 3.942644,1.373284 5.71875,2.40625 a 0.97335743,0.97335743 0 0 0 1.1875,-0.15625 l 3,-3.03125 c 0.48973,-0.489729 1.196288,-0.491255 1.65625,-0.03125 l 5.875,5.875 c 0.459955,0.459949 0.458453,1.166544 -0.03125,1.65625 l -3.03125,3 A 0.97335743,0.97335743 0 0 0 68.25,36.25 c 1.03297,1.776115 1.868016,3.69864 2.40625,5.71875 a 0.97335743,0.97335743 0 0 0 0.9375,0.71875 l 4.21875,0 c 0.690572,0 1.21875,0.517833 1.21875,1.15625 l 0,8.3125 c 0,0.638404 -0.528185,1.15625 -1.21875,1.15625 l -4.21875,0 a 0.97335743,0.97335743 0 0 0 -0.9375,0.71875 C 70.118016,56.051359 69.28297,57.973884 68.25,59.75 a 0.97335743,0.97335743 0 0 0 0.15625,1.1875 l 3.03125,3 c 0.48971,0.489708 0.491221,1.19628 0.03125,1.65625 l -5.875,5.875 c -0.459943,0.459938 -1.166539,0.458411 -1.65625,-0.03125 l -3,-3.03125 A 0.97335743,0.97335743 0 0 0 59.75,68.25 c -1.776109,1.032964 -3.698637,1.868012 -5.71875,2.40625 a 0.97335743,0.97335743 0 0 0 -0.71875,0.9375 l 0,4.21875 c 0,0.690553 -0.517846,1.21875 -1.15625,1.21875 l -8.3125,0 c -0.638399,0 -1.15625,-0.528198 -1.15625,-1.21875 l 0,-4.21875 a 0.97335743,0.97335743 0 0 0 -0.71875,-0.9375 C 39.948644,70.118022 38.026111,69.282964 36.25,68.25 a 0.97335743,0.97335743 0 0 0 -1.1875,0.15625 l -3,3.03125 c -0.489735,0.489732 -1.19629,0.491259 -1.65625,0.03125 l -5.875,-5.875 C 24.071283,65.133781 24.072794,64.427207 24.5625,63.9375 l 3.03125,-3 A 0.97335743,0.97335743 0 0 0 27.75,59.75 c -1.03297,-1.776114 -1.868016,-3.698643 -2.40625,-5.71875 a 0.97335743,0.97335743 0 0 0 -0.9375,-0.71875 l -4.21875,0 c -0.690566,0 -1.21875,-0.517847 -1.21875,-1.15625 l 0,-8.3125 c 0,-0.638417 0.528178,-1.15625 1.21875,-1.15625 l 4.21875,0 a 0.97335743,0.97335743 0 0 0 0.9375,-0.71875 C 25.881984,39.948642 26.71703,38.026112 27.75,36.25 a 0.97335743,0.97335743 0 0 0 -0.15625,-1.1875 l -3.03125,-3 c -0.26301,-0.263011 -0.37257,-0.5259 -0.375,-0.8125 -0.0026,-0.292812 0.119798,-0.6198 0.34375,-0.84375 l 5.875,-5.875 c 0.459941,-0.459936 1.166535,-0.458412 1.65625,0.03125 l 3,3.03125 A 0.97335743,0.97335743 0 0 0 36.25,27.75 c 1.776105,-1.032964 3.698631,-1.868001 5.71875,-2.40625 a 0.97335743,0.97335743 0 0 0 0.71875,-0.9375 l 0,-4.21875 c 0,-0.690566 0.517844,-1.21875 1.15625,-1.21875 z m 4.15625,19 c -5.532165,0 -10.03125,4.499091 -10.03125,10.03125 0,5.53217 4.499087,10.03125 10.03125,10.03125 5.532162,0 10.03125,-4.499078 10.03125,-10.03125 0,-5.532159 -4.499086,-10.03125 -10.03125,-10.03125 z m 0,0.96875 c 5.00651,0 9.0625,4.055995 9.0625,9.0625 0,5.00652 -4.05599,9.0625 -9.0625,9.0625 -5.006511,0 -9.0625,-4.055982 -9.0625,-9.0625 0,-5.006505 4.055989,-9.0625 9.0625,-9.0625 z"
       inkscape:connector-curvature="0"
       id="path3944"
       style="opacity:0.15;fill:#000000;fill-opacity:1;fill-rule:nonzero;stroke:none;stroke-width:1;marker:none;visibility:visible;display:block;overflow:visible;enable-background:accumulate" />
    <path
       d="m 23.3125,31.71875 c -0.16225,0.694552 0.0048,1.473501 0.5625,2.03125 l 2.6875,2.65625 c 0.117516,-0.216846 0.220209,-0.44383 0.34375,-0.65625 l -3.03125,-3 c -0.293745,-0.293746 -0.466812,-0.663629 -0.5625,-1.03125 z m 49.375,0 C 72.59181,32.086371 72.418747,32.456254 72.125,32.75 l -3.03125,3 c 0.123541,0.21242 0.226234,0.439404 0.34375,0.65625 L 72.125,33.75 c 0.557751,-0.557749 0.724751,-1.336699 0.5625,-2.03125 z M 48,38.9375 c -5.006511,0 -9.0625,4.055982 -9.0625,9.0625 0,0.167046 0.02232,0.33517 0.03125,0.5 0.258742,-4.775269 4.191785,-8.5625 9.03125,-8.5625 4.839464,0 8.772508,3.787229 9.03125,8.5625 0.0089,-0.16483 0.03125,-0.332954 0.03125,-0.5 0,-5.00652 -4.05599,-9.0625 -9.0625,-9.0625 z m -30,13.21875 0,1 c 0,1.180653 0.986672,2.125 2.1875,2.125 l 4.21875,0 c 0.497735,1.868104 1.252727,3.645276 2.15625,5.3125 L 26.90625,60.25 c -1.073391,-1.845614 -1.937528,-3.857673 -2.5,-5.96875 l -4.21875,0 C 18.986672,54.28125 18,53.336903 18,52.15625 z m 60,0 c 0,1.180653 -0.986672,2.125 -2.1875,2.125 l -4.21875,0 c -0.562472,2.111079 -1.426609,4.123134 -2.5,5.96875 l 0.34375,0.34375 c 0.903522,-1.667225 1.658515,-3.444394 2.15625,-5.3125 l 4.21875,0 c 1.200828,0 2.1875,-0.944347 2.1875,-2.125 l 0,-1 z m -54.6875,13.125 c -0.03885,0.153249 -0.09238,0.307357 -0.09375,0.46875 -0.0048,0.549417 0.207579,1.113832 0.625,1.53125 l 5.875,5.875 c 0.834843,0.834834 2.182136,0.817772 3.03125,-0.03125 l 3,-3.03125 c 1.845609,1.073387 3.857669,1.937515 5.96875,2.5 l 0,-1 c -2.111081,-0.562485 -4.123141,-1.426613 -5.96875,-2.5 l -3,3.03125 c -0.849114,0.849022 -2.196407,0.866084 -3.03125,0.03125 l -5.875,-5.875 c -0.280821,-0.280819 -0.444032,-0.636954 -0.53125,-1 z m 49.375,0 c -0.08476,0.362824 -0.244784,0.713537 -0.53125,1 l -5.875,5.875 C 65.446406,72.991171 64.099112,72.97411 63.25,72.125 l -3,-3.03125 c -1.84561,1.073389 -3.857669,1.937515 -5.96875,2.5 l 0,1 c 2.111081,-0.562485 4.12314,-1.426611 5.96875,-2.5 l 3,3.03125 c 0.849112,0.84911 2.196406,0.866171 3.03125,0.03125 l 5.875,-5.875 c 0.546033,-0.546027 0.712161,-1.304967 0.53125,-2 z m -30.96875,10.53125 0,1 c 0,1.200827 0.944354,2.1875 2.125,2.1875 l 8.3125,0 c 1.180646,0 2.125,-0.986672 2.125,-2.1875 l 0,-1 c 0,1.200828 -0.944354,2.1875 -2.125,2.1875 l -8.3125,0 c -1.180646,0 -2.125,-0.986673 -2.125,-2.1875 z"
       inkscape:connector-curvature="0"
       id="path3930"
       style="fill:#ffffff;fill-opacity:1;fill-rule:nonzero;stroke:none;stroke-width:1;marker:none;visibility:visible;display:block;overflow:visible;enable-background:accumulate" />
  </g>
</svg>
