<svg xmlns="http://www.w3.org/2000/svg" width="48" height="48">
<defs>
<defs
     id="defs4">
  </defs>
  <path
     id="path-main"
     d="M 11.326068,2.01136 C 9.2638115,2.1356671 7.4734747,3.2260754 6.072617,4.6075418 4.8491514,5.8140733 3.4974654,6.9011739 3.2931753,8.7003463 3.0888852,10.499518 4.1147846,12.409665 6.7140266,15.175529 11.83869,20.628703 27.996304,37.958873 29.6826,39.701811 c 0.927749,0.958912 2.197599,1.639242 3.604112,1.771512 1.406512,0.132271 2.938126,-0.322809 4.24552,-1.527165 1.129216,-1.04022 2.200762,-1.947189 2.535096,-3.359765 0.167166,-0.706288 0.0831,-1.490252 -0.244347,-2.260206 C 39.495533,33.556234 38.969558,32.775793 38.173642,31.882722 35.204747,28.551419 21.161015,13.220756 21.161015,13.220756 l -1.435536,1.313363 c 0,0 14.066929,15.390963 16.982084,18.661966 0.709691,0.796321 1.110907,1.417635 1.313362,1.893685 0.202456,0.476051 0.219828,0.754923 0.152717,1.038473 -0.134223,0.567101 -0.827827,1.344251 -1.954772,2.382379 -0.950526,0.875613 -1.872011,1.120936 -2.748899,1.038472 C 32.593084,39.466634 31.72339,39.015058 31.087593,38.357905 29.574486,36.793973 13.285426,19.296715 8.1495624,13.831623 5.6899884,11.21438 5.1517724,9.7611583 5.2479475,8.9141493 5.3441222,8.0671405 6.1777257,7.2337623 7.4470662,5.981991 8.6137492,4.8314579 9.9997135,4.0534454 11.448241,3.9661322 c 1.448527,-0.087313 3.04561,0.4807818 4.856387,2.3518353 0,0 20.219702,21.6510145 24.251393,26.0839915 1.845518,2.029208 1.766609,3.483655 1.404992,4.581497 -0.361617,1.097842 -1.099559,1.771512 -1.099559,1.771512 l -0.03054,0 c -2.257221,2.028626 -4.128878,3.997177 -5.681056,4.825844 -0.776089,0.414334 -1.41624,0.546011 -2.076946,0.427606 -0.660705,-0.118404 -1.426705,-0.52486 -2.351835,-1.496622 L 10.684658,21.467452 9.2796655,22.811358 29.316081,43.855702 c 1.111359,1.167378 2.243077,1.865879 3.420851,2.076945 1.177774,0.211067 2.302792,-0.09343 3.329221,-0.641409 2.052858,-1.095967 3.901854,-3.114321 6.07812,-5.070191 0,0 1.133811,-0.968893 1.679882,-2.626725 0.546072,-1.657831 0.380072,-4.07282 -1.832599,-6.505726 C 37.90687,26.597349 17.740164,4.9740616 17.740164,4.9740616 l -0.03054,-0.030543 C 15.613544,2.7776684 13.388323,1.8870529 11.326068,2.01136 z" />
</defs>
<acyl-settings>
<linearGradient
     id="linearGradient4321">
    <stop
       style="stop-color:#FFFFFF;stop-opacity:1.0;"
       offset="1.0"
       id="stop1" />
  </linearGradient>
<linearGradient
     inkscape:collect="always"
     xlink:href="#linearGradient4321"
     id="acyl_gradient"
     x1="50.0%"
     y1="0.0%"
     x2="50.0%"
     y2="100.0%" />
<filter>
    </filter>
<use id="1" style="fill:url(#acyl_gradient);filter:url(#filter1111)" xlink:href="#path-main" />
</acyl-settings>
</svg>
