<svg xmlns="http://www.w3.org/2000/svg" width="48" height="48">
<defs>
<defs
     id="defs5286">
  </defs>
  <path
     id="path-main"
     d="m 13.250488,1.999998 c -1.439384,0 -2.756758,0.1934398 -3.8646715,0.515625 L 2.6870527,4.5208313 C 2.2818401,4.6248183 2,4.990254 2,5.4088522 2,5.8274503 2.2818401,6.1928861 2.6870527,6.296873 l 0.6297983,0.171875 3.2921275,4.039063 0,27.041666 C 6.1192861,37.946218 5.6929081,38.42713 5.6929083,39.124998 l 0,0.916667 c 0,0.663432 0.3799113,1.223923 0.8301886,1.604166 0.4502773,0.380244 1.0106012,0.655808 1.6603774,0.888021 1.2995526,0.464428 2.9796387,0.716146 4.8379957,0.716146 0.524057,0 1.026103,-0.01977 1.517242,-0.05729 0.245885,0.21975 0.499436,0.434725 0.772934,0.630209 C 17.231846,45.19538 19.808418,46 22.640208,46 c 2.831791,0 5.408363,-0.80462 7.328562,-2.177083 1.796069,-1.283741 3.024643,-3.116698 3.177619,-5.184896 3.07631,-0.03977 5.874817,-0.470895 7.986988,-1.231771 1.106115,-0.398461 2.014491,-0.889395 2.719583,-1.489583 0.705092,-0.600189 1.23097,-1.377991 1.23097,-2.291667 l 0,-11.802083 0,-6.502605 C 45.587358,14.799727 46,14.195538 46,13.458333 l 0,-0.916666 C 46,11.600436 45.372496,10.81189 44.597267,10.307292 43.822039,9.802693 42.857268,9.462881 41.677293,9.190104 39.317344,8.644551 36.171891,8.4166667 32.716981,8.4166667 c -3.454909,0 -6.600363,0.2278843 -8.960312,0.7734373 -1.179975,0.272777 -2.144746,0.612589 -2.919974,1.117188 -0.775228,0.504598 -1.402733,1.293144 -1.402733,2.234375 l 0,-5.4713545 c 0.495114,-0.4223258 0.916071,-0.9406765 0.916071,-1.6614583 0,-0.6516041 -0.339536,-1.2204807 -0.772935,-1.6328125 C 19.1437,3.3637079 18.608254,3.0581826 17.973975,2.8020813 16.705419,2.2898787 15.057528,1.999998 13.250488,1.999998 z m 0,1.8333333 c 1.606237,0 3.066574,0.2672555 4.036435,0.6588542 0.48493,0.1957994 0.8379,0.4182495 1.030579,0.6015625 0.192679,0.183313 0.20039,0.2821233 0.20039,0.3151042 0,0.013778 -0.06486,0.1889408 -0.51529,0.4869791 -0.255304,0.173762 -0.405968,0.4645174 -0.40078,0.7734375 l 0,12.9479162 c -0.683972,0.260766 -1.363356,0.522564 -2.089786,0.744792 -0.308265,0.09011 -0.547779,0.348153 -0.629798,0.658854 -0.08202,0.310701 0.0054,0.628689 0.229018,0.859375 l 2.490566,2.635417 0,2.119792 c -0.06963,0.163474 -0.143756,0.315879 -0.257645,0.458333 -0.185619,0.232174 -0.439734,0.541203 -0.658426,0.802083 l 0,-1.604166 -7.3285617,0 0,12.833333 c 0,0.700562 1.4003587,1.261388 3.2062457,1.346354 0.134739,0.331049 0.298237,0.63625 0.486663,0.945313 -0.0097,4.5e-5 -0.01888,0 -0.02863,0 -1.681336,0 -3.2150532,-0.265054 -4.2368226,-0.630209 C 8.2737607,40.603878 7.8957994,40.410223 7.696812,40.242185 7.4978246,40.074148 7.5250488,40.010734 7.5250488,40.041665 l 0,-0.916667 c 0,0.065 0.019592,-0.138101 0.4580351,-0.401042 0.2772027,-0.160061 0.4508416,-0.453267 0.4580352,-0.773437 l 0,-27.757813 C 8.4412743,9.984505 8.3706017,9.782452 8.2407287,9.61979 L 5.06311,5.7239563 9.9011061,4.2916647 C 10.830324,4.0214449 11.983172,3.8333313 13.250488,3.8333313 z m 19.466493,6.4166667 c 3.371646,0 6.414018,0.226782 8.530904,0.716146 1.058444,0.244682 1.899132,0.577588 2.376058,0.888021 0.476925,0.310433 0.543916,0.49023 0.543916,0.6875 l 0,0.916666 c 0,0.179796 -0.107248,0.449266 -0.572543,0.83073 -0.217287,0.174098 -0.343687,0.437604 -0.343527,0.716145 l 0,6.817709 0,11.802083 c 0,0.224823 -0.118234,0.529949 -0.572544,0.916667 -0.454309,0.386717 -1.209173,0.797668 -2.175667,1.145833 -1.864937,0.671815 -4.528884,1.115541 -7.471698,1.145833 -0.04883,-0.329567 -0.101357,-0.658506 -0.171763,-0.973958 5.242304,-0.02569 9.475602,-1.432459 9.475602,-3.151042 l 0,-11.458333 -13.741054,0 c 0,-0.603048 -0.331299,-1.079113 -0.71568,-1.403646 -0.384381,-0.324533 -0.845518,-0.554021 -1.374105,-0.744792 -1.057175,-0.38154 -2.411972,-0.601562 -3.864672,-0.601562 -0.160353,0 -0.303955,0.02215 -0.458035,0.02865 l 0,-3.523438 c 1.6e-4,-0.278541 -0.12624,-0.542047 -0.343526,-0.716145 -0.465296,-0.381464 -0.572544,-0.650934 -0.572544,-0.83073 l 0,-0.916666 c 0,-0.197269 0.06699,-0.377067 0.543917,-0.6875 0.476925,-0.310433 1.317614,-0.643339 2.376057,-0.888021 2.116886,-0.489368 5.159258,-0.71615 8.530904,-0.71615 z m -13.283019,3.208333 c 0,0.737205 0.412642,1.341394 0.916071,1.861979 l 0,3.4375 c -0.313726,0.06743 -0.620742,0.142324 -0.916071,0.229167 l 0,-5.528646 z m 3.206246,6.875 c 1.268487,0 2.453151,0.204851 3.234873,0.486979 0.390862,0.141064 0.666431,0.315597 0.801562,0.429688 -0.09894,0.115022 -0.167797,0.252824 -0.200391,0.401042 -0.06168,0.294212 -0.524607,1.421951 -0.744307,2.635416 -0.219699,1.213465 -0.211737,2.721485 0.772935,3.953125 1.849746,2.313687 4.598749,5.501473 4.837996,9.96875 0.0011,0.01974 -9.16e-4,0.0375 0,0.05729 -0.02047,1.529476 -0.890075,2.964679 -2.433312,4.067708 -1.561783,1.116287 -3.791603,1.833334 -6.269356,1.833334 -2.477753,0 -4.707572,-0.717047 -6.269356,-1.833334 -1.561783,-1.116286 -2.433311,-2.574682 -2.433311,-4.125 -0.0441,-4.666187 2.934142,-7.587384 4.837996,-9.96875 1.049905,-1.313237 0.957781,-2.947472 0.687052,-4.210937 -0.03623,-0.16127 -0.115362,-0.309737 -0.229017,-0.429688 l -1.832141,-1.947916 c 1.775355,-0.655427 3.26896,-1.317709 5.238777,-1.317709 z m 6.8419,8.708334 c 0.276863,0.366802 0.552422,0.763555 0.830189,1.174479 -0.278978,-0.412396 -0.552134,-0.806479 -0.830189,-1.174479 z m -14.571243,1.088541 c -0.284399,0.395414 -0.562492,0.818118 -0.830188,1.260417 0.270709,-0.444164 0.542739,-0.864114 0.830188,-1.260417 z m 2.547821,1.088542 c -1.405937,1.842696 -2.632329,3.962345 -2.605075,6.846354 7.4e-5,0.0096 7.4e-5,0.01909 0,0.02865 0,1.20389 0.678192,2.391733 2.061158,3.380208 1.382966,0.988476 3.42432,1.661459 5.725439,1.661459 2.301119,0 4.342474,-0.672983 5.725439,-1.661459 1.372679,-0.981124 2.05128,-2.157017 2.061158,-3.351562 -5.34e-4,-0.0099 5.61e-4,-0.01877 0,-0.02865 -0.156813,-2.761372 -1.352324,-4.990475 -2.690956,-6.875 l -10.277163,0 z" />
</defs>
<acyl-settings>
<linearGradient
     id="linearGradient4321">
    <stop
       style="stop-color:#FFFFFF;stop-opacity:1.0;"
       offset="1.0"
       id="stop1" />
  </linearGradient>
<linearGradient
     inkscape:collect="always"
     xlink:href="#linearGradient4321"
     id="acyl_gradient"
     x1="50.0%"
     y1="0.0%"
     x2="50.0%"
     y2="100.0%" />
<filter>
    </filter>
<use id="1" style="fill:url(#acyl_gradient);filter:url(#filter1111)" xlink:href="#path-main" />
</acyl-settings>
</svg>
