<svg xmlns="http://www.w3.org/2000/svg" width="48" height="48">
<defs>
<defs
     id="defs4">
  </defs>
  <path
     id="path-main"
     d="M 21.389602,2.0002996 C 20.404907,2.037107 19.874174,2.8339377 19.6,3.8571674 L 18.779205,7.3825262 C 17.807041,7.6882355 16.870922,8.076286 15.980428,8.5397046 L 12.872171,6.6155591 c -0.760297,-0.4389572 -1.90857,-0.7287315 -2.637309,0 L 6.6556576,10.208195 c -0.7287355,0.728731 -0.5423374,1.684488 0,2.623835 l 1.9107031,3.09478 c -0.4751155,0.905833 -0.87263,1.861771 -1.1840977,2.85258 L 3.8568805,19.60018 C 2.8091653,19.880909 2,20.439923 2,21.470504 l 0,5.072748 c 0,1.030582 1.0088817,1.629649 1.8568805,1.856868 l 3.5253825,0.820789 c 0.3092901,0.983627 0.6999974,1.9392 1.170642,2.839125 l -1.8972474,3.067869 c -0.542337,0.939348 -0.7287359,1.908557 0,2.637291 l 3.5792044,3.579179 c 0.72874,0.728733 1.877011,0.438962 2.637309,0 l 3.06789,-1.897236 c 0.899931,0.470637 1.855513,0.861349 2.839144,1.170633 L 19.6,44.143134 C 19.880731,45.190836 20.439749,46 21.470337,46 l 5.059326,0 C 27.560255,46 28.172779,44.991133 28.4,44.143134 l 0.820795,-3.525364 c 0.994569,-0.312725 1.957159,-0.706503 2.866055,-1.184088 l 3.040979,1.883781 c 0.939361,0.542335 1.908572,0.728737 2.637309,0 l 3.579204,-3.592636 c 0.728737,-0.728735 0.438962,-1.863542 0,-2.623835 l -1.897247,-3.067869 c 0.466068,-0.893947 0.863608,-1.835855 1.17064,-2.812214 L 44.143121,28.40012 C 44.991124,28.172902 46,27.573835 46,26.543252 l 0,-5.072748 c 0,-1.030581 -0.809169,-1.589595 -1.856879,-1.870324 l -3.525386,-0.82079 c -0.309337,-0.983944 -0.699859,-1.938931 -1.17064,-2.839124 l 1.897247,-3.067869 c 0.438962,-0.760291 0.728737,-1.895101 0,-2.623836 L 37.765138,6.6559256 c -0.728737,-0.7287324 -1.697954,-0.5423326 -2.637309,0 l -3.06789,1.8972346 C 31.160127,8.0825838 30.204285,7.6918008 29.220795,7.3825262 L 28.4,3.8571674 C 28.172779,3.0091712 27.560254,2.0002996 26.529663,2.0002996 l -5.059326,0 c -0.004,0 -0.0094,-2.42e-5 -0.01346,0 -0.01998,1.254e-4 -0.04766,-7.48e-4 -0.06728,0 z M 35.000001,24 C 35.000001,30.072 30.072,35 24,35 17.928,35 13,30.072 13,24 c 0,-6.072 4.928,-11 11,-11 6.072,0 11.000001,4.928 11.000001,11 z" />
</defs>
<acyl-settings>
<linearGradient
     id="linearGradient4321">
    <stop
       style="stop-color:#FFFFFF;stop-opacity:1.0;"
       offset="1.0"
       id="stop1" />
  </linearGradient>
<linearGradient
     inkscape:collect="always"
     xlink:href="#linearGradient4321"
     id="acyl_gradient"
     x1="50.0%"
     y1="0.0%"
     x2="50.0%"
     y2="100.0%" />
<filter>
    </filter>
<use id="1" style="fill:url(#acyl_gradient);filter:url(#filter1111)" xlink:href="#path-main" />
</acyl-settings>
</svg>
