<?xml version="1.0" encoding="UTF-8" standalone="no"?>
<!-- Created with Inkscape (http://www.inkscape.org/) -->

<svg
   xmlns:dc="http://purl.org/dc/elements/1.1/"
   xmlns:cc="http://creativecommons.org/ns#"
   xmlns:rdf="http://www.w3.org/1999/02/22-rdf-syntax-ns#"
   xmlns:svg="http://www.w3.org/2000/svg"
   xmlns="http://www.w3.org/2000/svg"
   xmlns:xlink="http://www.w3.org/1999/xlink"
   xmlns:sodipodi="http://sodipodi.sourceforge.net/DTD/sodipodi-0.dtd"
   xmlns:inkscape="http://www.inkscape.org/namespaces/inkscape"
   width="52"
   height="52"
   id="svg2"
   version="1.1"
   inkscape:version="0.48.1 r9760"
   sodipodi:docname="corner-ripple.svg">
  <defs
     id="defs4">
    <linearGradient
       id="linearGradient3761">
      <stop
         style="stop-color:#ffffff;stop-opacity:0;"
         offset="0"
         id="stop3763" />
      <stop
         style="stop-color:#ffffff;stop-opacity:0.19607843;"
         offset="1"
         id="stop3765" />
    </linearGradient>
    <radialGradient
       inkscape:collect="always"
       xlink:href="#linearGradient3761"
       id="radialGradient3767"
       cx="0"
       cy="4"
       fx="0"
       fy="4"
       r="48"
       gradientUnits="userSpaceOnUse" />
    <clipPath
       clipPathUnits="userSpaceOnUse"
       id="clipPath3785">
      <path
         style="opacity:0.1;color:#000000;fill:#ff00ff;fill-opacity:1;fill-rule:nonzero;stroke:none;stroke-width:1.5;marker:none;visibility:visible;display:inline;overflow:visible;enable-background:accumulate"
         d="m -52.000002,-48.00003 0,104 104,0 0,-104 -104,0 z m 52.00000024,4 c 26.50966776,0 47.99999976,21.490332 47.99999976,48 0,26.509668 -21.490332,48 -47.99999976,48 -26.50966824,0 -48.00000024,-21.490332 -48.00000024,-48 0,-26.509668 21.490332,-48 48.00000024,-48 z"
         id="path3787"
         inkscape:connector-curvature="0" />
    </clipPath>
    <filter
       inkscape:collect="always"
       id="filter3789">
      <feGaussianBlur
         inkscape:collect="always"
         stdDeviation="2.4"
         id="feGaussianBlur3791" />
    </filter>
  </defs>
  <sodipodi:namedview
     id="base"
     pagecolor="#ffffff"
     bordercolor="#666666"
     borderopacity="1.0"
     inkscape:pageopacity="0.0"
     inkscape:pageshadow="2"
     inkscape:zoom="5.4679048"
     inkscape:cx="30.800666"
     inkscape:cy="44.090779"
     inkscape:document-units="px"
     inkscape:current-layer="layer1"
     showgrid="true"
     inkscape:window-width="1920"
     inkscape:window-height="1022"
     inkscape:window-x="0"
     inkscape:window-y="25"
     inkscape:window-maximized="1">
    <inkscape:grid
       type="xygrid"
       id="grid3755"
       empspacing="8"
       visible="true"
       enabled="true"
       snapvisiblegridlinesonly="true" />
  </sodipodi:namedview>
  <metadata
     id="metadata7">
    <rdf:RDF>
      <cc:Work
         rdf:about="">
        <dc:format>image/svg+xml</dc:format>
        <dc:type
           rdf:resource="http://purl.org/dc/dcmitype/StillImage" />
        <dc:title />
      </cc:Work>
    </rdf:RDF>
  </metadata>
  <g
     inkscape:label="Calque 1"
     inkscape:groupmode="layer"
     id="layer1"
     transform="translate(0,-1000.3622)">
    <path
       transform="translate(1.76e-6,996.36223)"
       d="M 48,4 C 48,30.509668 26.509668,52 0,52 -26.509668,52 -48,30.509668 -48,4 c 0,-26.509668 21.490332,-48 48,-48 26.509668,0 48,21.490332 48,48 z"
       sodipodi:ry="48"
       sodipodi:rx="48"
       sodipodi:cy="4"
       sodipodi:cx="0"
       id="path3783"
       style="opacity:0.2;color:#000000;fill:#000000;fill-opacity:1;fill-rule:nonzero;stroke:none;stroke-width:1.50000000000000000;marker:none;visibility:visible;display:inline;overflow:visible;enable-background:accumulate;filter:url(#filter3789)"
       sodipodi:type="arc"
       clip-path="url(#clipPath3785)" />
    <path
       sodipodi:type="arc"
       style="opacity:1;color:#000000;fill:url(#radialGradient3767);fill-opacity:1;fill-rule:nonzero;stroke:none;stroke-width:1.50000000000000000;marker:none;visibility:visible;display:inline;overflow:visible;enable-background:accumulate"
       id="path3759"
       sodipodi:cx="0"
       sodipodi:cy="4"
       sodipodi:rx="48"
       sodipodi:ry="48"
       d="M 48,4 C 48,30.509668 26.509668,52 0,52 -26.509668,52 -48,30.509668 -48,4 c 0,-26.509668 21.490332,-48 48,-48 26.509668,0 48,21.490332 48,48 z"
       transform="translate(1.76e-6,996.36223)" />
    <path
       style="opacity:0.4;color:#000000;fill:#ffffff;fill-opacity:1;fill-rule:nonzero;stroke:none;stroke-width:1.50000000000000000;marker:none;visibility:visible;display:inline;overflow:visible;enable-background:accumulate"
       d="M 0 -48 C -26.509668 -48 -48 -26.509668 -48 0 C -48 26.509668 -26.509668 48 0 48 C 26.509668 48 48 26.509668 48 0 C 48 -26.509668 26.509668 -48 0 -48 z M 0 -47 C 25.957383 -47 47 -25.957383 47 0 C 47 25.957383 25.957383 47 0 47 C -25.957383 47 -47 25.957383 -47 0 C -47 -25.957383 -25.957383 -47 0 -47 z "
       transform="translate(0,1000.3622)"
       id="path3769" />
    <rect
       style="opacity:0;color:#000000;fill:none;fill-opacity:1;fill-rule:nonzero;stroke:none;stroke-width:1.50000000000000000;marker:none;visibility:visible;display:inline;overflow:visible;enable-background:accumulate"
       id="rect3793"
       width="52"
       height="52"
       x="0"
       y="1000.3622"
       inkscape:export-filename="/home/matthieu/.themes/MyDwaita/gnome-shell/corner-ripple-ltr.png"
       inkscape:export-xdpi="90"
       inkscape:export-ydpi="90" />
    <rect
       y="1000.3622"
       x="-52"
       height="52"
       width="52"
       id="rect3795"
       style="opacity:0;color:#000000;fill:none;stroke:none;stroke-width:1.5;marker:none;visibility:visible;display:inline;overflow:visible;enable-background:accumulate"
       inkscape:export-filename="/home/matthieu/.themes/MyDwaita/gnome-shell/corner-ripple-rtl.png"
       inkscape:export-xdpi="90"
       inkscape:export-ydpi="90" />
  </g>
</svg>
