<?xml version="1.0" encoding="UTF-8" standalone="no"?>
<!-- Created with Inkscape (http://www.inkscape.org/) -->

<svg
   xmlns:dc="http://purl.org/dc/elements/1.1/"
   xmlns:cc="http://creativecommons.org/ns#"
   xmlns:rdf="http://www.w3.org/1999/02/22-rdf-syntax-ns#"
   xmlns:svg="http://www.w3.org/2000/svg"
   xmlns="http://www.w3.org/2000/svg"
   xmlns:sodipodi="http://sodipodi.sourceforge.net/DTD/sodipodi-0.dtd"
   xmlns:inkscape="http://www.inkscape.org/namespaces/inkscape"
   id="svg25070"
   height="96"
   width="96"
   version="1.1"
   inkscape:version="0.48.2 r9819"
   sodipodi:docname="ws-switch-arrow-down.svg">
  <defs
     id="defs15" />
  <sodipodi:namedview
     pagecolor="#ffffff"
     bordercolor="#666666"
     borderopacity="1"
     objecttolerance="10"
     gridtolerance="10"
     guidetolerance="10"
     inkscape:pageopacity="0"
     inkscape:pageshadow="2"
     inkscape:window-width="1920"
     inkscape:window-height="1030"
     id="namedview13"
     showgrid="true"
     inkscape:zoom="7.6796574"
     inkscape:cx="26.538978"
     inkscape:cy="52.33479"
     inkscape:window-x="0"
     inkscape:window-y="22"
     inkscape:window-maximized="1"
     inkscape:current-layer="svg25070">
    <inkscape:grid
       type="xygrid"
       id="grid3010" />
  </sodipodi:namedview>
  <metadata
     id="metadata3353">
    <rdf:RDF>
      <cc:Work
         rdf:about="">
        <dc:format>image/svg+xml</dc:format>
        <dc:type
           rdf:resource="http://purl.org/dc/dcmitype/StillImage" />
      </cc:Work>
    </rdf:RDF>
  </metadata>
  <path
     style="color:#000000;fill:#ffffff;fill-opacity:1;fill-rule:nonzero;stroke:none;stroke-width:0.80000000999999998;marker:none;visibility:visible;display:inline;overflow:visible;enable-background:accumulate"
     d="m 25,48.233336 c 0,-0.391951 0.08222,-0.753838 0.379615,-1.054168 l 6.453466,-6.516667 c 0.594839,-0.600665 1.587952,-0.600665 2.182791,0 l 7.877021,7.954169 0,-21.083337 C 41.892893,26.683867 42.570127,26 43.411356,26 l 9.110774,0 c 0.841228,0 1.518462,0.683867 1.518462,1.533333 l 0,21.083337 7.877027,-7.954169 c 0.594839,-0.600665 1.58795,-0.600665 2.182786,0 l 6.453465,6.516667 c 0.59484,0.600667 0.59484,1.50767 0,2.108336 L 47.966743,72 25.379615,49.287503 C 25.08221,48.987184 25,48.625288 25,48.233336 z"
     id="rect3051"
     inkscape:connector-curvature="0"
     sodipodi:nodetypes="sssscsssscssscccs"
     inkscape:transform-center-y="23" />
</svg>
