<?xml version="1.0" encoding="UTF-8" standalone="no"?>
<!-- Created with Inkscape (http://www.inkscape.org/) -->

<svg
   xmlns:dc="http://purl.org/dc/elements/1.1/"
   xmlns:cc="http://creativecommons.org/ns#"
   xmlns:rdf="http://www.w3.org/1999/02/22-rdf-syntax-ns#"
   xmlns:svg="http://www.w3.org/2000/svg"
   xmlns="http://www.w3.org/2000/svg"
   xmlns:xlink="http://www.w3.org/1999/xlink"
   xmlns:sodipodi="http://sodipodi.sourceforge.net/DTD/sodipodi-0.dtd"
   xmlns:inkscape="http://www.inkscape.org/namespaces/inkscape"
   version="1.0"
   width="15"
   height="22"
   id="svg3941"
   sodipodi:version="0.32"
   inkscape:version="0.48.0 r9654"
   sodipodi:docname="gpm-mouse-020.svg"
   inkscape:output_extension="org.inkscape.output.svg.inkscape">
  <metadata
     id="metadata19">
    <rdf:RDF>
      <cc:Work
         rdf:about="">
        <dc:format>image/svg+xml</dc:format>
        <dc:type
           rdf:resource="http://purl.org/dc/dcmitype/StillImage" />
      </cc:Work>
    </rdf:RDF>
  </metadata>
  <sodipodi:namedview
     inkscape:window-height="706"
     inkscape:window-width="685"
     inkscape:pageshadow="2"
     inkscape:pageopacity="0.0"
     guidetolerance="10.0"
     gridtolerance="10.0"
     objecttolerance="10.0"
     borderopacity="1.0"
     bordercolor="#666666"
     pagecolor="#ffffff"
     id="base"
     showgrid="false"
     inkscape:zoom="7.5853271"
     inkscape:cx="5.5"
     inkscape:cy="11.489407"
     inkscape:window-x="399"
     inkscape:window-y="51"
     inkscape:current-layer="layer1"
     inkscape:window-maximized="0" />
  <defs
     id="defs3943">
    <linearGradient
       id="linearGradient3187">
      <stop
         id="stop3189"
         style="stop-color:#a60000;stop-opacity:1"
         offset="0" />
      <stop
         id="stop3191"
         style="stop-color:#ff1313;stop-opacity:1"
         offset="1" />
    </linearGradient>
    <linearGradient
       x1="57.494007"
       y1="20.070547"
       x2="57.494007"
       y2="12.738144"
       id="linearGradient3939"
       xlink:href="#linearGradient3187"
       gradientUnits="userSpaceOnUse"
       gradientTransform="matrix(0.4101105,0,0,-0.4101105,-15.449863,22.231142)" />
    <linearGradient
       id="linearGradient3587-6-5-3">
      <stop
         id="stop3589-9-2-2"
         style="stop-color:#000000;stop-opacity:1"
         offset="0" />
      <stop
         id="stop3591-7-4-73"
         style="stop-color:#363636;stop-opacity:1"
         offset="1" />
    </linearGradient>
    <linearGradient
       x1="14"
       y1="4"
       x2="14"
       y2="20"
       id="linearGradient3204"
       xlink:href="#linearGradient3587-6-5-3"
       gradientUnits="userSpaceOnUse"
       gradientTransform="translate(-5,-1)" />
  </defs>
  <g
     id="layer1">
    <path
       d="m 4,15 0,1 c 0,1.108 1.338,2 3,2 l 1,0 c 1.662,0 3,-0.892 3,-2 l 0,-1 c 0,0 -7,0 -7,0 z"
       id="path3291"
       style="opacity:0.6;fill:#ffffff;fill-opacity:1;fill-rule:nonzero;stroke:none;stroke-width:1;marker:none;visibility:visible;display:inline;overflow:visible;enable-background:accumulate"
       inkscape:connector-curvature="0" />
    <path
       d="M 3.25,15.450001 C 3.252844,12.443791 3.2443067,9.437377 3.254278,6.4312954 3.3659022,5.2690397 4.5191399,4.5697645 5.566642,4.3530654 6.038101,4.263253 6.75,4.245207 6.75,4.245207 c 0,0 0,3.254793 0,3.254793 0,0 0.058301,0.75 0.798532,0.75 C 8.271982,8.25 8.25,7.5 8.25,7.5 c 0,0 0,-3.2452164 0,-3.2452164 1.562167,-0.078009 2.75,0.5175975 3.35212,1.6098018 0.244364,0.6091286 0.115217,1.2771243 0.14788,1.9170201 -0.0028,2.5956745 0.0057,5.1915535 -0.0043,7.7870995 -0.111624,1.162256 -1.264862,1.86153 -2.312364,2.07823 C 8.506212,17.823555 7.557192,17.723572 6.619145,17.75 5.387631,17.764194 3.9779253,17.310668 3.3978805,16.135415 3.3019013,15.920455 3.2495712,15.685646 3.25,15.450001 z"
       id="rect3236"
       style="opacity:0.3;fill:none;stroke:#000000;stroke-width:0.49999994;stroke-linecap:round;stroke-linejoin:miter;stroke-miterlimit:4;stroke-opacity:1;stroke-dasharray:none;stroke-dashoffset:0;marker:none;visibility:visible;display:inline;overflow:visible;enable-background:accumulate"
       inkscape:connector-curvature="0" />
    <path
       d="m 6.5,4.499999 2,0 c 2.216,0 4,1.338 4,3 L 12.5,16.5 c 0,1.662 -1.784,3 -4,3 l -2,0 c -2.2160001,0 -4,-1.338 -4,-3 l 0,-9.000001 c 0,-1.662 1.7839999,-3 4,-3 z m 1.041885,1e-6 0,4"
       id="path3212"
       style="opacity:0.6;fill:none;stroke:#ffffff;stroke-width:0.99999994;stroke-linecap:round;stroke-linejoin:miter;stroke-miterlimit:4;stroke-opacity:1;stroke-dashoffset:0;marker:none;visibility:visible;display:inline;overflow:visible;enable-background:accumulate"
       inkscape:connector-curvature="0" />
    <path
       d="m 4,14 0,1 c 0,1.108 1.338,2 3,2 l 1,0 c 1.662,0 3,-0.892 3,-2 l 0,-1 c 0,0 -7,0 -7,0 z"
       id="rect3728"
       style="opacity:0.8;fill:url(#linearGradient3939);fill-opacity:1;fill-rule:nonzero;stroke:none;stroke-width:1;marker:none;visibility:visible;display:inline;overflow:visible;enable-background:accumulate"
       inkscape:connector-curvature="0" />
    <path
       d="m 6.5,3.499999 2,0 c 2.216,0 4,1.338 4,3 L 12.5,15.5 c 0,1.662 -1.784,3 -4,3 l -2,0 c -2.2160001,0 -4,-1.338 -4,-3 l 0,-9.000001 c 0,-1.662 1.7839999,-3 4,-3 z m 1,1e-6 0,4"
       id="path3231"
       style="opacity:0.7;fill:none;stroke:url(#linearGradient3204);stroke-width:0.99999994;stroke-linecap:round;stroke-linejoin:miter;stroke-miterlimit:4;stroke-opacity:1;stroke-dashoffset:0;marker:none;visibility:visible;display:inline;overflow:visible;enable-background:accumulate"
       inkscape:connector-curvature="0" />
  </g>
</svg>
