/* XPM */
static char *top[] = {
/* columns rows colors chars-per-pixel */
"22 22 30 1",
"  c #000000",
". c #050505",
"X c #6D6D6D",
"o c #ACACAC",
"O c #B0B0B0",
"+ c #B4B4B4",
"@ c #B8B8B8",
"# c #BABABA",
"$ c #BCBCBC",
"% c #BDBDBD",
"& c #BEBEBE",
"* c #C0C0C0",
"= c #C4C4C4",
"- c #C8C8C8",
"; c #CCCCCC",
": c #CDCDCD",
"> c #CFCFCF",
", c #D1D1D1",
"< c #D2D2D2",
"1 c #D5D5D5",
"2 c #D7D7D7",
"3 c #D8D8D8",
"4 c #DBDBDB",
"5 c #DCDCDC",
"6 c #DDDDDD",
"7 c #E0E0E0",
"8 c #E5E5E5",
"9 c #E7E7E7",
"0 c #F6F6F6",
"q c None",
/* pixels */
"qqqqqqqqqqqqqqqqqqqqqq",
"qqqqqqqqqqqqqqqqqqqqqq",
"qqqqqqqqqqqqqqqqqqqqqq",
"qqqqq000000000000qqqqq",
"qqqqq888888888888qqqqq",
"qqqqq     XX     qqqqq",
"qqqqqqqqqq89qqqqqqqqqq",
"qqqqqqqqq5445qqqqqqqqq",
"qqqqqqqq#5115$qqqqqqqq",
"qqqqqqqq7<<<<5qqqqqqqq",
"qqqqqqq4<>>>><4qqqqqqq",
"qqqqqq#1=-=-==<#qqqqqq",
"qqqqqq1========1qqqqqq",
"qqqqq>$$******$$>qqqqq",
"qqqqq   $$$$$$.  qqqqq",
"qqqqqqqq##+###qqqqqqqq",
"qqqqqqqq++++++qqqqqqqq",
"qqqqqqqqOOOOOOqqqqqqqq",
"qqqqqqqqooooooqqqqqqqq",
"qqqqqqqq      qqqqqqqq",
"qqqqqqqqqqqqqqqqqqqqqq",
"qqqqqqqqqqqqqqqqqqqqqq"
};
