<svg xmlns="http://www.w3.org/2000/svg" width="48" height="48">
<defs>
  <path
     d="M 10.21875,3 C 8.9852537,3 8,4.0435306 8,5.3125 L 8,42.71875 C 8,43.98772 8.9852537,45 10.21875,45 l 27.5,0 c 1.233493,0 2.25,-1.01228 2.25,-2.28125 L 40,14.125 29.15625,3 z m 9.034081,6.1633287 c 0.13767,-0.010987 0.265792,-0.013415 0.40625,0 0.280921,0.026831 0.565883,0.113295 0.8125,0.25 0.493234,0.273412 0.821288,0.6963963 1.03125,1.1562503 0.419917,0.919709 0.49486,2.024749 0.46875,3.3125 -0.01441,0.710907 -0.05963,1.501345 -0.15625,2.3125 1.082576,1.455493 2.309417,2.980115 3.75,4.46875 1.441652,1.489742 2.925747,2.778239 4.34375,3.90625 0.811897,-0.07637 1.571857,-0.1293 2.28125,-0.125 1.279805,0.0078 2.378806,0.115732 3.28125,0.5625 0.451222,0.223383 0.866456,0.559057 1.125,1.0625 0.258544,0.503442 0.30597,1.122242 0.15625,1.65625 -0.149719,0.534008 -0.486858,1.050569 -0.96875,1.34375 -0.481894,0.293182 -1.030556,0.35944 -1.53125,0.3125 -1.001387,-0.09386 -1.998674,-0.552115 -3.09375,-1.21875 -0.604173,-0.367794 -1.225712,-0.823072 -1.875,-1.3125 -1.794922,0.21567 -3.746939,0.5508 -5.75,1.0625 -2.002283,0.511501 -3.851842,1.140803 -5.53125,1.8125 -0.338568,0.741362 -0.674715,1.44957 -1.03125,2.0625 -0.64658,1.111557 -1.320577,1.999342 -2.15625,2.5625 -0.417837,0.281578 -0.906257,0.46389 -1.46875,0.4375 -0.562493,-0.02638 -1.115336,-0.290006 -1.5,-0.6875 -0.384664,-0.397495 -0.644909,-0.964658 -0.65625,-1.53125 -0.01134,-0.566592 0.209267,-1.055828 0.5,-1.46875 0.581465,-0.825845 1.472561,-1.472634 2.59375,-2.09375 0.619789,-0.34335 1.315024,-0.646987 2.0625,-0.96875 0.71141,-1.671589 1.407883,-3.530799 1.96875,-5.53125 0.559985,-1.997305 0.956871,-3.921534 1.21875,-5.71875 -0.472665,-0.670638 -0.929656,-1.347258 -1.28125,-1.96875 -0.633224,-1.119318 -1.05823,-2.115075 -1.125,-3.125 -0.03338,-0.504962 0.0398,-1.05419 0.34375,-1.53125 0.30395,-0.4770593 0.840616,-0.8009873 1.375,-0.9375003 0.133596,-0.034135 0.26858,-0.051512 0.40625,-0.0625 z m 0.1875,2.1250003 c 0.01797,0.01 0.04785,-0.0049 -0.09375,0.03125 -0.07081,0.01809 -0.08663,0.0336 -0.09375,0.03125 0.0022,8.35e-4 -0.01113,0.01919 0,0.1875 0.01954,0.295512 0.245196,0.89223 0.5625,1.5625 -0.03856,-0.743351 -0.126913,-1.355416 -0.25,-1.625 -0.08165,-0.178818 -0.14297,-0.1975 -0.125,-0.1875 z m 1.875,7.75 c -0.261786,1.324938 -0.555463,2.699885 -0.9375,4.0625 -0.381941,1.362276 -0.847652,2.670539 -1.3125,3.9375 1.26998,-0.433829 2.575203,-0.87074 3.9375,-1.21875 1.36172,-0.347865 2.741188,-0.615516 4.0625,-0.84375 -1.009042,-0.89049 -2.04991,-1.829674 -3.03125,-2.84375 -0.980492,-1.013198 -1.861493,-2.055955 -2.71875,-3.09375 z m 11.59375,7.625 c 0.654498,0.334844 1.239189,0.56638 1.53125,0.59375 0.194718,0.01825 0.23631,-0.01068 0.21875,0 -0.01756,0.01068 -0.0084,0.04775 0.03125,-0.09375 0.03963,-0.14151 0.02185,-0.1121 0.03125,-0.09375 0.0094,0.01835 -0.01203,-0.03813 -0.1875,-0.125 -0.263204,-0.130302 -0.893122,-0.22241 -1.625,-0.28125 z m -18.1875,4.625 c -0.622155,0.406082 -1.110511,0.788752 -1.28125,1.03125 -0.113108,0.160569 -0.124587,0.2394 -0.125,0.21875 -4.2e-4,-0.02065 -0.03943,-0.04283 0.0625,0.0625 0.10193,0.10533 0.083,0.0635 0.0625,0.0625 -0.0205,-9.62e-4 0.05626,0.01575 0.21875,-0.09375 0.245054,-0.165142 0.64334,-0.66741 1.0625,-1.28125 z M 27,38.59375 l 1.3125,0 c 0.490232,4e-6 0.874997,0.121098 1.125,0.34375 0.25195,0.220707 0.374997,0.541019 0.375,0.96875 -3e-6,0.431643 -0.12305,0.748049 -0.375,0.96875 -0.250003,0.220705 -0.634768,0.343752 -1.125,0.34375 l -0.71875,0 0,1.75 -0.59375,0 z m 3.59375,0 1.21875,0 c 0.847654,4e-6 1.478512,0.177739 1.875,0.53125 0.39648,0.351566 0.593746,0.906253 0.59375,1.65625 -4e-6,0.753908 -0.195317,1.302735 -0.59375,1.65625 -0.398441,0.353516 -1.031253,0.53125 -1.875,0.53125 l -1.21875,0 z m 4.625,0 2.53125,0 0,0.5 -1.9375,0 0,1.28125 1.75,0 0,0.5 -1.75,0 0,2.09375 -0.59375,0 z m -7.625,0.5 0,1.625 0.71875,0 c 0.275388,2e-6 0.505857,-0.07617 0.65625,-0.21875 0.150388,-0.142576 0.218747,-0.330075 0.21875,-0.59375 -3e-6,-0.261715 -0.06836,-0.451168 -0.21875,-0.59375 -0.150393,-0.142574 -0.380862,-0.218746 -0.65625,-0.21875 z m 3.59375,0 0,3.40625 0.71875,0 c 0.603513,0 1.06445,-0.164062 1.34375,-0.4375 0.281246,-0.273436 0.406246,-0.691405 0.40625,-1.28125 C 33.656246,40.195315 33.531246,39.771488 33.25,39.5 32.9707,39.226566 32.509763,39.093754 31.90625,39.09375 z"
     id="path-main" />
</defs>
<acyl-settings>
<linearGradient
     id="linearGradient4321">
    <stop
       style="stop-color:#FFFFFF;stop-opacity:1.0;"
       offset="1.0"
       id="stop1" />
  </linearGradient>
<linearGradient
     inkscape:collect="always"
     xlink:href="#linearGradient4321"
     id="acyl_gradient"
     x1="50.0%"
     y1="0.0%"
     x2="50.0%"
     y2="100.0%" />
<filter>
    </filter>
<use id="1" style="fill:url(#acyl_gradient);filter:url(#filter1111)" xlink:href="#path-main" />
</acyl-settings>
</svg>
