<svg xmlns="http://www.w3.org/2000/svg" width="48" height="48">
<defs>
<defs
     id="defs18271" />
  <g
     id="layer1">
    <path
       d="M 22.125,4.3125 C 20.71675,4.2666719 19.675207,5.60446 18.0625,5.65625 C 16.219407,5.7154384 15.024194,4.0328573 13.3125,4.71875 C 11.600806,5.4046429 11.87384,7.4576314 10.5,8.6875 C 9.1261605,9.9173684 7.1202798,9.4057463 6.25,11.03125 C 5.3797203,12.656754 6.9492511,14.018671 6.6875,15.84375 C 6.4257488,17.668829 4.5279016,18.570477 4.90625,20.375 C 5.2845984,22.179524 7.3709364,22.246184 8.34375,23.8125 C 9.3165634,25.378815 8.4563074,27.267063 9.90625,28.40625 C 11.356193,29.545437 12.997812,28.269094 14.75,28.84375 C 16.502188,29.418405 17.031906,31.402939 18.875,31.34375 C 20.208014,31.300942 20.786725,30.227302 21.65625,29.375 C 22.619489,34.622855 24.522882,39.62525 27,44.46875 L 27.625,45.65625 L 27.9375,44.34375 L 30.5,33.84375 L 41.0625,36.125 L 43.875,36.71875 L 41.4375,35.21875 C 38.371264,33.312907 32.594767,28.147254 28.78125,23.5 C 28.824471,23.387996 28.847168,23.266602 28.90625,23.15625 C 29.77653,21.530746 31.863248,21.325079 32.125,19.5 C 32.386751,17.67492 30.440848,16.898273 30.0625,15.09375 C 29.684152,13.289227 31.160313,11.816315 30.1875,10.25 C 29.214686,8.6836845 27.231193,9.3266869 25.78125,8.1875 C 24.331307,7.0483135 24.502188,4.980905 22.75,4.40625 C 22.530976,4.3344181 22.326179,4.3190469 22.125,4.3125 z M 18.0625,7.21875 C 23.653805,7.21875 28.187501,11.784596 28.1875,17.375 C 28.187493,22.96543 23.653805,27.53125 18.0625,27.53125 C 12.471197,27.531275 7.9062502,22.96543 7.90625,17.375 C 7.90625,11.784595 12.471197,7.2187498 18.0625,7.21875 z M 18.0625,8.75 C 13.282856,8.75 9.4062502,12.596152 9.40625,17.375 C 9.40625,22.153874 13.282856,26.031251 18.0625,26.03125 C 22.842144,26.03125 26.687495,22.153874 26.6875,17.375 C 26.6875,12.596151 22.842143,8.7500001 18.0625,8.75 z M 18.84375,10 C 20.560724,10.052722 21.670061,10.660456 21.65625,11.4375 C 21.634153,12.680771 20.291488,10.525394 15.75,12.4375 C 11.170945,14.365424 12.33021,18.513297 11.125,18.125 C 9.9197895,17.736703 11.530328,11.893166 15.1875,10.625 C 16.55373,10.151244 17.813566,9.9683667 18.84375,10 z M 28.53125,24.6875 C 31.839651,28.602071 36.031658,32.40138 39.21875,34.71875 L 30.25,32.78125 L 29.78125,32.65625 L 29.65625,33.125 L 27.3125,42.65625 C 25.118507,38.144019 23.424263,33.515249 22.59375,28.6875 C 22.676212,28.644942 22.754638,28.598208 22.84375,28.5625 C 24.555444,27.876607 26.282411,29.073617 27.65625,27.84375 C 28.609544,26.990356 28.444206,25.850604 28.53125,24.6875 z"
       id="path-main"
        />
  </g>
</defs>
<acyl-settings>
<linearGradient
     id="linearGradient4321">
    <stop
       style="stop-color:#FFFFFF;stop-opacity:1.0;"
       offset="1.0"
       id="stop1" />
  </linearGradient>
<linearGradient
     inkscape:collect="always"
     xlink:href="#linearGradient4321"
     id="acyl_gradient"
     x1="50.0%"
     y1="0.0%"
     x2="50.0%"
     y2="100.0%" />
<filter>
    </filter>
<use id="1" style="fill:url(#acyl_gradient);filter:url(#filter1111)" xlink:href="#path-main" />
</acyl-settings>
</svg>
