<svg xmlns="http://www.w3.org/2000/svg" width="48" height="48">
<defs>
  <path
     d="m 18.29854,2.3345063 c -2.226717,0.027367 -3.420663,1.4537283 -3.953004,2.7975106 -0.532342,1.3437825 -0.516931,2.6758798 -0.516931,2.6758798 0.0161,0.2567456 0.229274,0.4565946 0.486523,0.4561158 l 22.653755,0 0,2.0069095 -2.797511,0 c -0.268688,2.8e-5 -0.486496,0.217835 -0.486524,0.486524 l 0,1.915686 c 2.8e-5,0.268689 0.217836,0.486497 0.486524,0.486524 l 2.797511,0 0,0.881824 -2.797511,0 c -0.268688,2.7e-5 -0.486496,0.217835 -0.486524,0.486524 l 0,1.702832 c 2.8e-5,0.268689 0.217836,0.486497 0.486524,0.486524 l 2.797511,0 0,1.06427 -2.797511,0 c -0.268688,2.7e-5 -0.486496,0.217835 -0.486524,0.486524 l 0,1.794055 c 2.8e-5,0.268689 0.217836,0.486497 0.486524,0.486524 l 2.797511,0 0,0.912232 -2.797511,0 c -0.268688,2.7e-5 -0.486496,0.217835 -0.486524,0.486523 l 0,1.733241 c 2.8e-5,0.268688 0.217836,0.486496 0.486524,0.486523 l 2.797511,0 0,1.003455 -2.797511,0 c -0.268688,2.7e-5 -0.486496,0.217835 -0.486524,0.486524 l 0,1.854871 c 2.8e-5,0.268688 0.217836,0.486496 0.486524,0.486523 l 2.797511,0 0,0.94264 -2.797511,0 c -0.268688,2.7e-5 -0.486496,0.217835 -0.486524,0.486523 l 0,1.794056 c 2.8e-5,0.268689 0.217836,0.486496 0.486524,0.486524 l 2.797511,0 0,0.851416 -2.797511,0 c -0.268688,2.7e-5 -0.486496,0.217835 -0.486524,0.486524 l 0,1.73324 c 2.8e-5,0.268688 0.217836,0.486496 0.486524,0.486523 l 2.797511,0 0,1.550794 c -0.436015,-0.0038 -4.870999,-0.0395 -10.125772,-0.06082 -5.507248,-0.02234 -11.381377,-0.03183 -13.10573,0.06082 -0.245452,0.01494 -0.441177,0.210664 -0.456115,0.456116 -0.152088,2.273929 0.755615,3.771299 1.702832,4.621974 0.947218,0.850675 1.946094,1.094678 1.946094,1.094678 0.03906,0.01534 0.07995,0.02556 0.121631,0.03041 l 19.91706,0 0,2.493433 c 2.7e-5,0.268689 0.217835,0.486497 0.486523,0.486524 l 3.405665,0 c 0.268689,-2.7e-5 0.486497,-0.217835 0.486524,-0.486524 l 0,-2.584656 c 2.195031,-0.255824 3.467048,-1.590917 4.044227,-2.888734 0.621652,-1.397815 0.608155,-2.736695 0.608155,-2.736695 -2.8e-5,-0.268689 -0.217835,-0.486496 -0.486524,-0.486524 l -4.165858,0 0,-1.550794 2.827918,0 c 0.268689,-2.7e-5 0.486497,-0.217835 0.486524,-0.486523 l 0,-1.73324 c -2.7e-5,-0.268689 -0.217835,-0.486497 -0.486524,-0.486524 l -2.827918,0 0,-0.851416 2.827918,0 c 0.268689,-2.8e-5 0.486497,-0.217835 0.486524,-0.486524 l 0,-1.794056 c -2.7e-5,-0.268688 -0.217835,-0.486496 -0.486524,-0.486523 l -2.827918,0 0,-0.94264 2.827918,0 c 0.268689,-2.7e-5 0.486497,-0.217835 0.486524,-0.486523 l 0,-1.854871 c -2.7e-5,-0.268689 -0.217835,-0.486497 -0.486524,-0.486524 l -2.827918,0 0,-1.003455 2.827918,0 c 0.268689,-2.7e-5 0.486497,-0.217835 0.486524,-0.486523 l 0,-1.733241 c -2.7e-5,-0.268688 -0.217835,-0.486496 -0.486524,-0.486523 l -2.827918,0 0,-0.912232 2.827918,0 c 0.268689,-2.7e-5 0.486497,-0.217835 0.486524,-0.486524 l 0,-1.794055 c -2.7e-5,-0.268689 -0.217835,-0.486497 -0.486524,-0.486524 l -2.827918,0 0,-1.06427 2.827918,0 c 0.268689,-2.7e-5 0.486497,-0.217835 0.486524,-0.486524 l 0,-1.702832 c -2.7e-5,-0.268689 -0.217835,-0.486497 -0.486524,-0.486524 l -2.827918,0 0,-0.881824 2.827918,0 c 0.268689,-2.7e-5 0.486497,-0.217835 0.486524,-0.486524 l 0,-1.915686 c -2.7e-5,-0.268689 -0.217835,-0.486496 -0.486524,-0.486524 l -2.827918,0 0,-2.0069095 4.105043,0 c 0.257249,4.788e-4 0.470421,-0.1993702 0.486523,-0.4561158 0.05691,-2.4008024 -0.875726,-3.8340943 -1.854871,-4.5915664 -0.979145,-0.7574721 -2.00691,-0.881824 -2.00691,-0.881824 -0.02025,-0.00126 -0.04057,-0.00126 -0.06081,0 0,0 -19.63473,-0.050185 -23.718025,0 z M 6.5003432,9.541137 c -0.7133893,0 -1.1977827,0.22519 -1.5203862,1.429163 C 4.4502406,12.367541 4.0230646,13.800688 3.5812016,15.227381 2.8114308,17.742014 2.0090889,20.638963 2,22.555643 c 0.09634,3.676223 2.076048,9.176223 2.4934334,10.733926 0.4099184,1.529837 0.9279022,2.310987 1.8852789,2.310987 l 22.3496767,0.06082 c 0.326819,8.89e-4 0.601886,-0.10094 0.885625,-0.319281 0.287965,-0.221593 0.348619,-0.253146 0.634762,-1.109882 0.286143,-0.856736 0.881936,-2.794505 1.307532,-4.196266 0.71836,-2.48529 1.450525,-5.390451 1.45957,-7.297854 0.0091,-1.907403 -0.704402,-4.8222 -1.398755,-7.358669 C 31.269947,14.111189 30.934528,12.949959 30.674484,12.09539 30.490114,11.50477 30.390633,10.931618 30.096737,10.331742 29.802841,9.731865 29.409563,9.601956 28.85002,9.601956 L 6.5003432,9.541137 z"
     id="path-main"
      />
</defs>
<acyl-settings>
<linearGradient
     id="linearGradient4321">
    <stop
       style="stop-color:#FFFFFF;stop-opacity:1.0;"
       offset="1.0"
       id="stop1" />
  </linearGradient>
<linearGradient
     inkscape:collect="always"
     xlink:href="#linearGradient4321"
     id="acyl_gradient"
     x1="50.0%"
     y1="0.0%"
     x2="50.0%"
     y2="100.0%" />
<filter>
    </filter>
<use id="1" style="fill:url(#acyl_gradient);filter:url(#filter1111)" xlink:href="#path-main" />
</acyl-settings>
</svg>
