<svg xmlns="http://www.w3.org/2000/svg" width="48" height="48">
<defs>
<defs
     id="defs3">
  </defs>
  <path
     id="path-main"
     d="m 40.273854,1.9999904 c -0.05807,-6.06e-4 -0.102034,0.011712 -0.159412,0.031882 l -29.650664,0.031883 c -0.133243,0.00526 -0.25913,0.062483 -0.350707,0.1594122 L 7.0523573,5.2838811 c -0.1542878,0.1193468 -0.2309359,0.3191295 -0.1912946,0.510119 0.00991,0.047747 0.041636,0.085702 0.063765,0.1275297 l 0,6.8547232 0,32.711378 c 2.81e-5,0.281719 0.2283997,0.51009 0.5101189,0.510119 l 29.5868994,0 c 0.03181,0.003 0.06384,0.003 0.09565,0 0.05046,-0.0096 0.08395,-0.04089 0.12753,-0.06376 0.01566,-0.0083 0.04916,0.0097 0.06376,0 0.06242,-0.02531 0.108789,-0.07691 0.159412,-0.12753 l 3.060714,-3.060713 c 0.0066,-0.0058 -0.0063,-0.02578 0,-0.03188 0.03973,-0.02319 0.06408,-0.06383 0.09565,-0.09565 0.09469,-0.09546 0.161364,-0.212732 0.159412,-0.350707 l 0,-39.6617484 c 0.0029,-0.018903 -7.63e-4,-0.044631 0,-0.063765 0.0024,-0.062017 -0.0113,-0.1310832 -0.03188,-0.1912946 -0.01117,-0.032668 -0.01371,-0.064975 -0.03188,-0.095647 -0.01938,-0.032702 -0.07049,-0.036977 -0.09565,-0.063765 -0.09561,-0.1018 -0.212777,-0.1898607 -0.35071,-0.1912996 z m -0.510119,1.7216514 0,38.3226862 -0.255059,0.25506 0,-38.3226867 0.255059,-0.2550595 z m -0.637648,0.6376487 0,38.3226865 -0.286942,0.286942 0,-38.3226866 0.286942,-0.2869419 z m -0.701414,0.7014136 0,38.2270389 0,0.09565 -0.255059,0.25506 0,-38.3545689 0.255059,-0.223177 z m -0.637649,0.6057662 0,38.1951567 0,0.159412 0,0.03188 -0.255059,0.223178 0,-31.499846 0,-6.8547232 0.255059,-0.2550595 z m -29.8419585,7.6199017 28.5666615,0 0,17.949811 c 0,0 -0.175416,1.200276 -1.17965,2.3593 -1.004234,1.159024 -2.79804,2.280212 -6.217075,1.912946 l -0.797061,-0.09565 0.25506,0.765178 c 0.939541,2.626756 1.007296,4.46683 0.446354,5.802603 -0.54707,1.302739 -1.717024,2.229434 -3.53895,2.996949 l -17.5353395,0 0,-31.69114 z m 5.8026035,1.275298 0,7.301077 2.040476,0 c 1.413914,0 2.45679,-0.26842 3.124478,-0.860826 0.667678,-0.592404 0.98835,-1.542289 0.988356,-2.805654 -7e-6,-1.256812 -0.323951,-2.184633 -0.988356,-2.773772 -0.664416,-0.592399 -1.704017,-0.860818 -3.124478,-0.860825 l -2.040476,0 z m 0.988355,0.79706 1.211533,0 c 1.01134,7e-6 1.73185,0.243206 2.199888,0.701414 0.4713,0.454947 0.701407,1.15424 0.701413,2.136123 -6e-6,0.988437 -0.230112,1.709793 -0.701413,2.168006 -0.468038,0.458215 -1.188547,0.701414 -2.199888,0.701413 l -1.211533,0 0,-5.706956 z m 9.022729,0.892709 c -0.824789,6e-6 -1.489041,0.266847 -1.976711,0.79706 -0.484398,0.526951 -0.733296,1.236063 -0.733296,2.136124 -1e-6,0.870608 0.254597,1.561778 0.765179,2.072358 0.513853,0.510582 1.227084,0.765178 2.10424,0.765178 0.350203,0 0.679846,-0.05552 1.020238,-0.12753 0.340383,-0.07201 0.664328,-0.149478 0.988356,-0.286941 l 0,-0.860826 c -0.320756,0.170195 -0.629183,0.297493 -0.956473,0.382589 -0.324028,0.0851 -0.673309,0.127531 -1.020238,0.12753 -0.598954,1e-6 -1.065715,-0.154213 -1.402827,-0.478237 C 22.213378,20.45145 22.044492,19.9659 22.005219,19.344035 l 4.144717,0 0,-0.446354 c -6e-6,-0.818236 -0.205624,-1.470246 -0.637649,-1.944829 -0.428762,-0.477847 -1.013849,-0.701407 -1.753534,-0.701413 z m 6.248957,0 c -0.857518,6e-6 -1.546261,0.251328 -2.040475,0.765178 -0.490945,0.513859 -0.733296,1.207453 -0.733296,2.104241 -1e-6,0.883701 0.245624,1.58384 0.733296,2.10424 0.487669,0.520401 1.148649,0.797061 1.976711,0.797061 0.304381,0 0.592437,-0.03674 0.860825,-0.09565 0.271652,-0.05892 0.545039,-0.137232 0.797061,-0.25506 l 0,-0.828943 c -0.255295,0.140738 -0.538501,0.246821 -0.797061,0.318825 -0.255295,0.06873 -0.503345,0.09565 -0.765178,0.09565 -0.585863,1e-6 -1.046924,-0.204038 -1.370945,-0.573884 -0.324024,-0.373116 -0.478238,-0.891281 -0.478236,-1.562239 -10e-7,-0.670954 0.154211,-1.192392 0.478236,-1.56224 0.324021,-0.373113 0.785081,-0.541997 1.370945,-0.542001 0.261833,5e-6 0.509884,0.02365 0.765178,0.09565 0.25856,0.06873 0.541766,0.178093 0.797061,0.318825 l 0,-0.828944 c -0.248749,-0.114548 -0.531955,-0.199413 -0.797061,-0.255059 -0.265114,-0.05891 -0.518862,-0.09564 -0.797061,-0.09565 z m -6.248957,0.765178 c 0.445119,5e-6 0.815617,0.151792 1.084003,0.446354 0.271651,0.29457 0.407921,0.685438 0.414472,1.17965 l -3.220126,0 c 0.04582,-0.517124 0.209005,-0.92678 0.510119,-1.211532 0.304383,-0.284744 0.707493,-0.414468 1.211532,-0.414472 z m -1.466592,7.524255 c -1.503052,1.5e-5 -2.698229,0.478401 -3.602715,1.402827 -0.904491,0.924454 -1.370945,2.136842 -1.370944,3.66648 -10e-7,1.562912 0.442593,2.793879 1.307179,3.698362 0.871232,0.897844 2.049199,1.37095 3.538951,1.370945 0.718263,5e-6 1.384794,-0.172302 1.976711,-0.478237 0.591899,-0.305924 1.080844,-0.735218 1.466591,-1.30718 -0.09977,1.822285 -0.506572,3.183118 -1.211532,4.080952 -0.698326,0.89119 -1.73059,1.339064 -3.060714,1.339062 -0.498803,1e-6 -1.011611,-0.06493 -1.530357,-0.191294 -0.518754,-0.126361 -1.02491,-0.302575 -1.530356,-0.542002 l 0,1.817299 c 0.558651,0.19952 1.107249,0.346593 1.626004,0.446354 0.518747,0.09976 1.024901,0.159411 1.530357,0.159412 1.882127,0 3.384755,-0.707601 4.495423,-2.10424 1.117299,-1.403286 1.657874,-3.263623 1.657886,-5.611309 -1.1e-5,-2.513937 -0.427933,-4.421996 -1.339062,-5.738838 -0.904498,-1.323466 -2.23091,-2.008579 -3.953422,-2.008593 z m 0,1.594121 c 0.904482,1.4e-5 1.610714,0.331326 2.136123,0.956473 0.532044,0.618524 0.797052,1.447969 0.797061,2.518713 -9e-6,1.077415 -0.265017,1.932093 -0.797061,2.550594 -0.525409,0.618519 -1.231641,0.924598 -2.136123,0.924591 -0.904494,6e-6 -1.635958,-0.306072 -2.168005,-0.924591 -0.525405,-0.618502 -0.765182,-1.473178 -0.765179,-2.550594 -3e-6,-1.070744 0.239773,-1.900189 0.765179,-2.518713 0.532048,-0.625148 1.26351,-0.95646 2.168005,-0.956473 z m 14.219566,7.619902 0,11.222617 -8.289433,0 8.289433,-11.222617 z m -2.136123,1.849181 -4.080952,5.547544 c 0.192236,-1.294234 -0.01416,-2.834821 -0.573883,-4.622953 1.98297,0.09744 3.509791,-0.310616 4.654835,-0.924591 z" />
</defs>
<acyl-settings>
<linearGradient
     id="linearGradient4321">
    <stop
       style="stop-color:#FFFFFF;stop-opacity:1.0;"
       offset="1.0"
       id="stop1" />
  </linearGradient>
<linearGradient
     inkscape:collect="always"
     xlink:href="#linearGradient4321"
     id="acyl_gradient"
     x1="50.0%"
     y1="0.0%"
     x2="50.0%"
     y2="100.0%" />
<filter>
    </filter>
<use id="1" style="fill:url(#acyl_gradient);filter:url(#filter1111)" xlink:href="#path-main" />
</acyl-settings>
</svg>
