<svg xmlns="http://www.w3.org/2000/svg" width="48" height="48">
<defs>
<defs
     id="defs1373">
  </defs>
  <path
     id="path-main"
     d="M 6.3106446,2.0061076 C 6.0976363,2.0758936 5.9576288,2.2795408 5.9687467,2.5034137 l 0,40.7791053 c 2.75e-5,0.274643 0.2226629,0.497278 0.4973061,0.497306 l 32.3249012,0 1.678408,1.70949 c 0.565755,0.570467 1.392104,0.612415 2.113551,0.37298 0.721447,-0.239435 1.399041,-0.710944 1.989225,-1.305429 0.590184,-0.594485 1.070027,-1.292162 1.305429,-2.020306 0.235402,-0.728144 0.197528,-1.569372 -0.37298,-2.144633 l -3.698714,-3.729796 0,-34.1587173 C 41.805845,2.2287705 41.58321,2.0061351 41.308566,2.0061076 l -34.8425132,0 c -0.051483,-0.00814 -0.1039254,-0.00814 -0.1554082,0 z m 0.6527144,0.9946123 33.847901,0 0,32.6667981 -2.455449,-2.48653 c 0.922787,-1.738592 1.460837,-3.711879 1.460837,-5.812266 0,-3.265114 -1.261189,-6.233883 -3.325735,-8.454205 l 1.33651,0 0,-0.994613 -2.362204,0 C 34.515668,17.10499 33.459944,16.431898 32.294892,15.93068 l 5.532531,0 0,-0.994613 -10.443429,0 -12.432655,0 0,0.994613 7.521756,0 c -1.165052,0.501218 -2.220776,1.17431 -3.170327,1.989224 l -4.351429,0 0,0.994613 3.325735,0 c -0.571057,0.614145 -1.084248,1.269493 -1.523,1.989225 l -1.802735,0 0,0.994612 1.274347,0 c -0.312063,0.635014 -0.575891,1.2992 -0.77704,1.989225 l -0.497307,0 0,0.994612 0.248653,0 c -0.129907,0.64148 -0.190864,1.316348 -0.217571,1.989225 l -0.03108,0 0,0.497306 0,0.497306 0.03108,0 c 0.0267,0.672876 0.08766,1.347744 0.217571,1.989225 l -0.248653,0 0,0.994612 0.497307,0 c 0.201149,0.690024 0.464977,1.35421 0.77704,1.989225 l -1.274347,0 0,0.994612 1.802735,0 c 0.438752,0.719731 0.951943,1.375079 1.523,1.989225 l -3.325735,0 0,0.994612 4.351429,0 c 2.175402,1.866954 4.995233,2.983837 8.081226,2.983837 1.585167,0 3.088378,-0.319152 4.475755,-0.870286 l 0,0.870286 2.983837,0 2.952756,2.983837 -30.832983,0 0,-39.7844931 z m 7.98798,2.983837 0,0.9946124 22.876084,0 0,-0.9946124 -22.876084,0 z m 0,2.983837 0,0.9946126 22.876084,0 0,-0.9946126 -22.876084,0 z m 0,2.9838361 0,0.994613 22.876084,0 0,-0.994613 -22.876084,0 z m 12.432655,6.962287 c 2.075615,0 3.968572,0.749936 5.439286,1.989225 l -10.878573,0 c 1.470713,-1.239289 3.363671,-1.989225 5.439287,-1.989225 z m -6.433899,2.983837 12.867797,0 c 0.510779,0.599849 0.945802,1.262079 1.274347,1.989225 l -15.416491,0 c 0.328545,-0.727146 0.763568,-1.389376 1.274347,-1.989225 z m -1.647327,2.983837 16.162451,0 c 0.194578,0.634231 0.302033,1.300945 0.341898,1.989225 l -16.846247,0 c 0.03986,-0.688281 0.14732,-1.354994 0.341898,-1.989225 z m -0.341898,2.983837 16.846247,0 c -0.03986,0.68828 -0.14732,1.354993 -0.341898,1.989225 l -16.162451,0 C 19.10819,29.221021 19.000735,28.554308 18.96087,27.866028 z m 0.714878,2.983837 15.416491,0 c -0.328545,0.727145 -0.763568,1.389376 -1.274347,1.989225 l -12.867797,0 c -0.510779,-0.599849 -0.945802,-1.26208 -1.274347,-1.989225 z m 2.268959,2.983837 10.878573,0 c -1.470714,1.23929 -3.363671,1.989225 -5.439286,1.989225 -2.075616,0 -3.968573,-0.749936 -5.439287,-1.989225 z m 11.375879,4.413592 0.559469,0.55947 -1.740571,0 c 0.402755,-0.171292 0.799735,-0.350262 1.181102,-0.55947 z" />
</defs>
<acyl-settings>
<linearGradient
     id="linearGradient4321">
    <stop
       style="stop-color:#FFFFFF;stop-opacity:1.0;"
       offset="1.0"
       id="stop1" />
  </linearGradient>
<linearGradient
     inkscape:collect="always"
     xlink:href="#linearGradient4321"
     id="acyl_gradient"
     x1="50.0%"
     y1="0.0%"
     x2="50.0%"
     y2="100.0%" />
<filter>
    </filter>
<use id="1" style="fill:url(#acyl_gradient);filter:url(#filter1111)" xlink:href="#path-main" />
</acyl-settings>
</svg>
