<svg xmlns="http://www.w3.org/2000/svg" width="48" height="48">
<defs>
<defs
     id="defs1373">
  </defs>
  <path
     id="path-main"
     d="M 6.3164091,2.0062103 C 6.0998159,2.0771709 5.9574521,2.2842454 5.968757,2.5118861 l 0,41.4654109 c 2.81e-5,0.279266 0.2264104,0.505647 0.5056758,0.505676 l 21.0803572,0 C 29.253272,45.4538 31.211652,46 33.306852,46 c 2.0952,0 4.05358,-0.5462 5.752062,-1.517027 l 2.844426,0 c 0.279265,-2.9e-5 0.505647,-0.22641 0.505675,-0.505676 l 0,-2.370355 c 1.582328,-1.986778 2.528379,-4.502081 2.528379,-7.237484 0,-2.735403 -0.946051,-5.250706 -2.528379,-7.237484 l 0,-24.6200879 C 42.408987,2.2326207 42.182605,2.0062383 41.90334,2.0062103 l -35.4289072,0 c -0.052349,-0.00828 -0.1056745,-0.00828 -0.1580237,0 z m 0.6636994,1.0113515 34.4175555,0 0,23.0082462 c -2.094307,-2.031488 -4.944881,-3.286892 -8.090812,-3.286892 -2.0952,0 -4.05358,0.546199 -5.752062,1.517027 l -12.452265,0 0,1.011352 10.966843,0 c -0.742752,0.591549 -1.412396,1.269424 -1.991098,2.022702 l -8.975745,0 0,1.011352 8.28044,0 c -0.387463,0.631634 -0.685506,1.3191 -0.948142,2.022703 l -7.332298,0 0,1.011351 6.984646,0 c -0.178699,0.659493 -0.287707,1.322358 -0.347652,2.022703 l -6.636994,0 0,1.011352 6.573785,0 c 0,0.691639 0.07369,1.364143 0.189628,2.022703 l -6.763413,0 0,1.011351 6.984646,0 c 0.656794,2.423895 2.071398,4.546292 3.982197,6.068109 l -19.0892595,0 0,-40.4540592 z m 8.1224165,3.0340545 0,1.0113515 23.261084,0 0,-1.0113515 -23.261084,0 z m 0,3.0340544 0,1.0113513 23.261084,0 0,-1.0113513 -23.261084,0 z m 0,3.0340543 0,1.011352 23.261084,0 0,-1.011352 -23.261084,0 z m 0,3.034055 0,1.011351 23.261084,0 0,-1.011351 -23.261084,0 z m 0,3.034054 0,1.011352 23.261084,0 0,-1.011352 -23.261084,0 z m 0,3.034055 0,1.011351 23.261084,0 0,-1.011351 -23.261084,0 z m 18.457165,5.056757 c 0.492139,1.6e-5 0.888081,0.15045 1.232584,0.474071 0.352698,0.316128 0.537275,0.717802 0.537281,1.169375 -7e-6,0.451604 -0.184584,0.845751 -0.537281,1.169375 -0.344502,0.316126 -0.740446,0.474084 -1.232584,0.474071 -0.492145,1.5e-5 -0.943096,-0.157944 -1.295794,-0.474071 -0.344503,-0.323625 -0.505678,-0.717771 -0.505676,-1.169375 -1e-6,-0.451572 0.161174,-0.853246 0.505676,-1.169375 0.352697,-0.323622 0.803648,-0.474055 1.295794,-0.474071 z m -3.286893,5.056757 5.056758,0 0,11.124867 -3.00245,0 0,-9.102164 -2.054308,0 0,-2.022703 z m 11.124867,11.377705 0,0.758513 -0.853328,0 c 0.298175,-0.237474 0.580031,-0.493415 0.853328,-0.758513 z" />
</defs>
<acyl-settings>
<linearGradient
     id="linearGradient4321">
    <stop
       style="stop-color:#FFFFFF;stop-opacity:1.0;"
       offset="1.0"
       id="stop1" />
  </linearGradient>
<linearGradient
     inkscape:collect="always"
     xlink:href="#linearGradient4321"
     id="acyl_gradient"
     x1="50.0%"
     y1="0.0%"
     x2="50.0%"
     y2="100.0%" />
<filter>
    </filter>
<use id="1" style="fill:url(#acyl_gradient);filter:url(#filter1111)" xlink:href="#path-main" />
</acyl-settings>
</svg>
