<svg xmlns="http://www.w3.org/2000/svg" width="48" height="48">
<defs>
<defs
     id="defs1373">
  </defs>
  <path
     id="path-main"
     d="M 6.3008737,2.0059333 C 6.0939418,2.0737286 5.9579283,2.2715663 5.968729,2.4890528 l 0,39.6157962 c 2.68e-5,0.266809 0.2163111,0.483093 0.4831195,0.48312 l 27.0244955,0 c 0.338085,0.75107 0.708217,1.493758 1.087019,2.234427 L 35.167262,46 l 0.30195,-1.268189 0.513314,-2.143842 4.31788,0 c 0.266809,-2.7e-5 0.483093,-0.216311 0.48312,-0.48312 l 0,-3.774371 3.653591,0.78507 2.717547,0.573704 -2.355208,-1.449358 c -1.007858,-0.626444 -2.480091,-1.786057 -4.01593,-3.170472 l 0,-32.5803692 c -2.7e-5,-0.2668084 -0.216311,-0.4830927 -0.48312,-0.4831195 l -33.8485575,0 c -0.050014,-0.00791 -0.1009607,-0.00791 -0.1509748,0 z m 0.6340943,0.9662389 32.882319,0 0,31.1914008 c -1.380895,-1.306985 -2.747502,-2.737935 -3.864956,-4.106515 0.0057,-0.0122 0.0242,-0.01802 0.03019,-0.0302 l 0.936044,0 0,-0.966239 -0.06039,0 c 0.609426,-0.453619 1.270728,-0.806091 1.388969,-1.630529 0.181804,-1.26765 -1.186569,-1.796319 -1.449359,-3.049691 -0.01022,-0.04877 0.0065,-0.102885 0,-0.150975 -0.0458,-0.338777 -0.0083,-0.654268 0.06039,-0.966239 0.167655,-0.760997 0.471193,-1.478312 0.06039,-2.204233 l 0,-0.694484 -0.785069,0 C 35.43247,20.070412 34.545329,20.134598 33.838678,19.579399 33.443589,19.268986 33.250793,18.839325 33.053609,18.43199 l 3.864956,0 0,-0.966239 -4.468855,0 c -0.182383,-0.22615 -0.395754,-0.405438 -0.724679,-0.513314 -0.152127,-0.0499 -0.282996,-0.05584 -0.42273,-0.06039 -0.596282,-0.0194 -1.10617,0.2989 -1.660723,0.573704 l -2.506182,0 c 0.20731,0.09254 0.416907,0.172082 0.634094,0.24156 -0.224089,-0.06415 -0.426463,-0.148882 -0.634094,-0.24156 -0.636351,-0.284039 -1.242811,-0.590405 -1.962673,-0.301949 -0.195412,0.0783 -0.350991,0.179095 -0.48312,0.301949 l -9.994534,0 0,0.966239 9.42083,0 c -0.216148,0.515955 -0.436297,1.059208 -0.905849,1.479554 -0.238558,0.213558 -0.480625,0.348472 -0.754874,0.452924 l -7.760107,0 0,0.966239 5.737044,0 c -0.0533,0.06877 -0.10593,0.127231 -0.150975,0.211365 -0.319027,0.595877 -0.188923,1.153021 0,1.721113 l -5.586069,0 0,0.966239 5.857824,0 c -0.02671,-0.16847 -0.07244,-0.322537 -0.12078,-0.48312 0.04696,0.157434 0.09459,0.317933 0.12078,0.48312 0.03392,0.213966 0.06354,0.431795 0.0302,0.664289 -0.07167,0.499747 -0.315296,0.890087 -0.573704,1.268189 l -5.314315,0 0,0.966239 4.74061,0 c -0.107303,0.273183 -0.161919,0.565622 -0.09058,0.905849 0.09855,0.470014 0.365631,0.77752 0.694485,1.026629 l -5.34451,0 0,0.966239 6.703283,0 c 0.116935,0.115969 0.239321,0.24308 0.332145,0.392534 0.302758,0.487469 0.342129,1.029607 0.392534,1.539943 l -7.427962,0 0,0.966239 7.609132,0 c 0.09616,0.251223 0.261542,0.496672 0.513315,0.694485 1.007089,0.791247 2.134618,-0.09719 3.351641,0.301949 0.562986,0.18464 0.954635,0.569754 1.328578,0.936044 l -12.802666,0 0,0.966239 14.493585,0 0,-0.18117 c 0.760687,-0.096 1.1519,-0.704668 1.660723,-1.237993 0.211828,1.137487 0.483959,2.247711 0.815264,3.351641 l -0.54351,0 0,0.966239 0.875654,0 c 0.323332,0.974741 0.654675,1.945243 1.056824,2.898717 l -26.118646,0 0,-38.6495578 z M 36.85818,23.26319 c -0.06873,0.311971 -0.106188,0.627462 -0.06039,0.966239 l 0.12078,0 0,-0.966239 -0.06039,0 z M 14.695074,5.8708891 l 0,0.9662389 22.223496,0 0,-0.9662389 -22.223496,0 z m 0,2.8987169 0,0.966239 22.223496,0 0,-0.966239 -22.223496,0 z m 0,2.898717 0,0.966239 22.223496,0 0,-0.966239 -22.223496,0 z m 0,2.898717 0,0.966238 22.223496,0 0,-0.966238 -22.223496,0 z m 13.768905,4.348075 c 3.883568,0 7.035429,3.152486 7.035428,7.035427 -6e-6,3.88296 -3.151861,7.065622 -7.035428,7.065622 -3.883564,1.7e-5 -7.035427,-3.182662 -7.035427,-7.065622 -1e-6,-3.882941 3.151862,-7.035427 7.035427,-7.035427 z m 0,1.056824 c -3.319808,-10e-7 -6.008798,2.659347 -6.008798,5.978603 -1e-6,3.319275 2.688989,6.008799 6.008798,6.008798 3.319811,0 6.008795,-2.689523 6.008799,-6.008798 -10e-7,-3.319257 -2.68899,-5.978603 -6.008799,-5.978603 z m 0,0.875654 c 0.197486,-0.01396 0.364625,-0.0055 0.54351,0 1.192563,0.03662 1.972265,0.45672 1.962673,0.996434 -0.01534,0.863541 -0.952123,-0.633613 -4.106516,0.694484 -3.180485,1.339081 -2.363561,4.195046 -3.200666,3.925345 -0.837107,-0.2697 0.26796,-4.312701 2.808132,-5.193534 0.711708,-0.246794 1.40041,-0.38085 1.992867,-0.422729 z m 7.276987,10.387068 c 2.147351,2.516914 4.759104,4.887829 6.914648,6.522113 l -5.706849,-1.237994 -0.452924,-0.09058 -0.09058,0.452924 -1.539944,6.220163 c -1.44076,-3.026099 -2.530818,-6.133619 -3.079886,-9.36044 1.188895,-0.4764 2.39741,0.340919 3.351641,-0.513314 0.605056,-0.541648 0.571953,-1.258079 0.603899,-1.992868 z M 22.153231,32.14051 c 0.01525,0.140694 0.03435,0.257929 0.06039,0.392535 -0.02331,-0.125188 -0.04635,-0.260729 -0.06039,-0.392535 z m 15.067289,5.404899 2.596767,0.573705 0,3.502616 -3.593201,0 0.694484,-2.898717 0.30195,-1.177604 z" />
</defs>
<acyl-settings>
<linearGradient
     id="linearGradient4321">
    <stop
       style="stop-color:#FFFFFF;stop-opacity:1.0;"
       offset="1.0"
       id="stop1" />
  </linearGradient>
<linearGradient
     inkscape:collect="always"
     xlink:href="#linearGradient4321"
     id="acyl_gradient"
     x1="50.0%"
     y1="0.0%"
     x2="50.0%"
     y2="100.0%" />
<filter>
    </filter>
<use id="1" style="fill:url(#acyl_gradient);filter:url(#filter1111)" xlink:href="#path-main" />
</acyl-settings>
</svg>
