<svg xmlns="http://www.w3.org/2000/svg" width="48" height="48">
<defs>
<defs
     id="defs4">
  </defs>
  <path
     id="path-main"
     d="M 25.161304,2.0127181 6.4261994,3.9549539 C 6.2945609,3.9646539 6.1820149,4.0328359 6.0975133,4.1342372 6.0130123,4.235639 5.9637986,4.3615733 5.9779911,4.4928037 7.4930351,17.250989 6.7963889,30.552586 6.0975133,41.365403 c -0.013432,0.2522 0.1682312,0.472792 0.4183277,0.507969 l 18.466179,2.420324 0.08964,0.02988 0.08964,0.02988 1.942235,1.225102 c 0.0617,0.04592 0.133362,0.07663 0.209164,0.08964 l 3.675308,0.328686 c 0.233307,0.01742 0.446254,-0.132896 0.507969,-0.358567 l 0.149403,-0.448208 6.095632,0.806775 c 0.263254,0.03017 0.469187,-0.162401 0.53785,-0.418328 0.01542,-0.05748 0.07771,-3.868684 0.119522,-6.035871 0.01784,-0.06988 0.01377,-0.138125 0,-0.209164 0.0384,-2.011689 0.07494,-2.620621 0.119522,-5.46814 L 39.2948,33.148247 c 0.133856,-0.11981 0.191222,-0.303379 0.149402,-0.478088 l -0.836655,-3.376502 c -0.0067,-0.02867 -0.01837,-0.06298 -0.02988,-0.08964 0.129964,-9.558306 0.209402,-19.7827016 0,-20.348655 C 38.190224,7.8082137 37.791247,6.9875656 36.814718,6.1959951 35.81686,5.3871348 34.504639,4.649363 33.079649,4.014715 30.229669,2.7454188 27.041962,1.8839994 25.191184,2.0127181 c -0.01,-3.057e-4 -0.01993,-3.057e-4 -0.02988,0 z m -0.02988,1.8824747 c 1.627779,-0.099248 4.724117,0.6861891 7.290854,1.852594 1.283369,0.5832025 2.445357,1.2561842 3.2271,1.9422358 0.100428,0.088135 0.182143,0.175478 0.268925,0.2689249 C 32.297533,7.7717237 28.390967,8.8964628 25.250945,11.903181 24.462769,11.122543 23.840252,9.8519188 23.697157,8.3175141 23.561788,6.8659623 23.861192,5.2951996 24.563693,3.9549539 l 0.56773,-0.059761 z m -1.762952,0.1792833 c -0.57844,1.383765 -0.759272,2.9196055 -0.627492,4.3326796 0.05981,0.6413183 0.173378,1.2719966 0.358567,1.8525943 l -12.340667,0.358567 0,1.284864 13.147442,0 c 0.276538,0.41261 0.588436,0.785135 0.956177,1.0757 l 0.328686,0.268924 0.298806,-0.328686 c 0.356623,-0.369307 0.727051,-0.699936 1.10558,-1.015938 l 7.111571,0 0,-1.9123563 -4.302799,0.1195223 c 2.330263,-1.1158831 4.815499,-1.4908556 7.141451,-1.254983 0.169779,0.3442407 0.259467,0.6652631 0.268925,0.8964165 0.773563,6.2612655 0.905149,12.4797665 0.717133,18.7052245 L 36.246989,27.65023 c -0.05531,-0.03139 -0.116205,-0.05169 -0.179284,-0.05976 -0.03842,-0.01496 -0.07858,-0.025 -0.119522,-0.02988 l -1.165341,-0.149403 0.02988,-3.107577 c -6.68e-4,-0.171753 -0.09141,-0.330557 -0.239045,-0.418329 L 32.5418,22.660179 c -0.0096,-0.01038 -0.0195,-0.02036 -0.02988,-0.02988 l -0.02988,-0.02988 c -0.01922,-0.01131 -0.03918,-0.02129 -0.05976,-0.02988 -0.0096,-0.01038 -0.0195,-0.02036 -0.02988,-0.02988 l -2.778891,-1.344624 c -0.01196,-0.007 -0.01745,-0.02397 -0.02988,-0.02988 l 4.123516,-0.02988 0,-1.912356 -22.948262,0.866536 0,1.284864 18.376538,-0.179283 c -0.04547,0.03031 -0.08616,0.07526 -0.119522,0.119522 l -2.330683,2.629488 -1.553789,-0.956177 -0.02988,-0.02988 -0.05976,-0.02988 -0.05976,-0.02988 -1.10558,-0.866536 c -0.157132,-0.116741 -0.368753,-0.128498 -0.53785,-0.02988 l -2.659369,1.673311 c -0.157136,0.09304 -0.249325,0.265886 -0.239044,0.448209 l 0.02988,0.268924 -9.711178,0.239045 0,1.284863 9.830701,0 0.209164,2.270922 -2.838653,0.747014 -7.201212,0.08964 0,1.284863 6.095632,0.08964 -0.358567,2.061758 c -0.01657,0.176253 0.06343,0.347695 0.209164,0.448208 l 0.53785,0.418328 -6.484079,-0.08964 0,1.284864 8.486076,0.328686 0.358567,0.268925 -1.822714,2.71913 -7.021929,-0.448208 0,1.284863 7.171332,0.776894 1.553788,2.061758 c 0.03502,0.03583 0.07533,0.06606 0.119523,0.08964 0.01816,0.02161 0.03815,0.0416 0.05976,0.05976 l 0.02988,0 c 0.01922,0.01131 0.03918,0.02129 0.05976,0.02988 l 0.23904,0.149401 L 8.0098685,40.229942 C 8.6523066,30.07672 9.2453469,17.699457 7.8903463,5.6880257 L 23.368471,4.0744761 z m 10.33867,10.4283129 -22.948262,0.926297 0,1.284863 22.948262,-0.298805 0,-1.912355 z m -4.302799,8.605598 2.001997,0.986058 -0.02988,4.003994 c 0.0062,0.233615 0.185696,0.425905 0.418328,0.448208 l 3.227099,0.478089 0.567731,2.480085 -2.599608,2.450205 c -0.153892,0.133427 -0.20242,0.351803 -0.119522,0.53785 l 1.762952,3.436263 -1.314744,2.121519 -3.167338,-0.866536 c -0.238788,-0.06909 -0.489495,0.06286 -0.567731,0.298806 l -1.135461,3.645427 -2.778891,-0.239044 -1.553788,-3.645427 c -0.102051,-0.227901 -0.36654,-0.333696 -0.597611,-0.239045 l -2.958175,1.314744 -1.314744,-1.822713 2.18128,-3.197219 c 0.140605,-0.199995 0.101338,-0.474865 -0.08964,-0.627491 l -2.928293,-2.360564 0.268925,-1.852594 3.555785,-1.0757 c 0.22044,-0.06429 0.360366,-0.28054 0.328686,-0.507969 l -0.507969,-4.003994 1.67331,-0.986058 2.778891,2.061758 c 0.199996,0.140605 0.474866,0.101338 0.627492,-0.08964 l 2.270922,-2.74901 z m 2.898413,0.53785 1.523908,0.926297 -0.02988,3.25698 c 4.72e-4,0.04064 0.01999,0.08167 0.02988,0.119522 l -1.523908,-0.239045 0.02988,-3.914352 c -2.17e-4,-0.05554 -0.01114,-0.09914 -0.02988,-0.149402 z m 3.555786,4.93029 0.05976,0 1.822713,1.165342 0.687253,2.898413 -2.838652,2.599608 c -0.159961,0.142597 -0.208414,0.372744 -0.119523,0.56773 l 1.912356,3.615547 -1.434267,2.300802 -2.539847,-0.687252 c 0.196872,0.04923 0.402846,-0.03558 0.50797,-0.209164 l 1.64343,-2.659369 c 0.0772,-0.13943 0.0772,-0.308779 0,-0.448208 l -1.703191,-3.346622 2.569727,-2.390444 c 0.128082,-0.110797 0.18539,-0.282722 0.149403,-0.448208 l -0.717133,-2.958175 z m -8.934285,0.747014 c -1.832418,0 -3.256978,1.737467 -3.25698,3.764949 0,1.013742 0.355624,1.976584 0.926297,2.71913 0.570674,0.742547 1.390328,1.284864 2.330683,1.284864 0.940355,0 1.808038,-0.519928 2.450205,-1.254983 0.0052,-0.0058 -0.0051,-0.02397 0,-0.02988 0.633704,-0.732999 1.0757,-1.690225 1.0757,-2.71913 0,-0.99581 -0.266849,-1.931832 -0.866536,-2.629488 -0.599687,-0.697656 -1.535381,-1.135461 -2.659369,-1.135461 z m 0,0.926297 c 0.477809,0 0.862794,0.08209 1.195222,0.239045 -1.499918,0.464715 -2.569725,2.02149 -2.569727,3.82471 0,0.509714 0.104301,0.971517 0.268925,1.404386 -0.164507,-0.135514 -0.33491,-0.291787 -0.478089,-0.478089 -0.43892,-0.571112 -0.747014,-1.350348 -0.747014,-2.1514 1e-6,-1.602106 1.09269,-2.838652 2.330683,-2.838652 z m 1.972116,1.135461 c 0.275189,0.477577 0.50797,1.012032 0.50797,1.61355 0,0.151734 -0.01162,0.304952 -0.02988,0.448208 l -2.71913,-0.02988 c 0.313147,-1.154159 1.216148,-1.943976 2.241041,-2.031877 z m 8.336674,3.645427 c -0.0396,0.607197 -0.07514,1.215234 -0.119522,1.822714 l -0.597611,-1.135461 0.717133,-0.687253 z m -10.547834,0.119522 1.822713,0.05976 c -0.407943,0.392987 -0.914645,0.640564 -1.464147,0.687253 -0.137227,-0.236676 -0.265881,-0.485347 -0.358566,-0.747014 z m -3.2271,4.87053 0.50797,1.225102 -1.912355,0.747014 -1.225103,-0.776894 2.629488,-1.195222 z m 6.872527,0.179283 2.18128,0.597611 c -0.255353,-0.07043 -0.520346,0.07532 -0.597611,0.328686 l -1.225103,3.854591 -3.197218,-0.298805 -1.284864,-0.806775 2.539847,0.209164 c 0.216798,0.01639 0.415754,-0.120397 0.478089,-0.328686 l 1.10558,-3.555786 z m 2.360563,1.64343 3.346622,0.926297 c 0.212538,0.04925 0.431987,-0.04828 0.53785,-0.239044 l 0.08964,-0.149403 c -0.04787,0.557912 -0.09665,1.115451 -0.149402,1.673311 l -4.33268,-0.597611 0.507969,-1.61355 z m -8.665359,0.418328 0.05976,0.119522 -0.268925,-0.02988 0.209164,-0.08964 z" />
</defs>
<acyl-settings>
<linearGradient
     id="linearGradient4321">
    <stop
       style="stop-color:#FFFFFF;stop-opacity:1.0;"
       offset="1.0"
       id="stop1" />
  </linearGradient>
<linearGradient
     inkscape:collect="always"
     xlink:href="#linearGradient4321"
     id="acyl_gradient"
     x1="50.0%"
     y1="0.0%"
     x2="50.0%"
     y2="100.0%" />
<filter>
    </filter>
<use id="1" style="fill:url(#acyl_gradient);filter:url(#filter1111)" xlink:href="#path-main" />
</acyl-settings>
</svg>
