<svg xmlns="http://www.w3.org/2000/svg" width="48" height="48">
<defs>
<defs
     id="defs1373">
  </defs>
  <path
     id="path-main"
     d="M 6.3048014,2.0060033 C 6.0954269,2.0745989 5.9578079,2.2747719 5.9687361,2.4948255 l 0,40.0834195 c 2.71e-5,0.269958 0.2188644,0.488795 0.4888222,0.488822 l 11.1512557,0 c 3.002384,1.837904 6.77662,2.932934 10.876294,2.932933 4.099674,-10e-7 7.873912,-1.09503 10.876294,-2.932933 l 1.344261,0 c 0.269958,-2.7e-5 0.488794,-0.218864 0.488822,-0.488822 l 0,-0.824888 c 3.00195,-2.44249 4.888227,-5.75902 4.888222,-9.440378 10e-7,-3.681357 -1.886272,-6.997889 -4.888222,-9.440379 l 0,-20.3777745 C 41.194457,2.2248677 40.975621,2.0060304 40.705663,2.0060033 l -34.2481047,0 c -0.050604,-0.008 -0.1021525,-0.008 -0.1527569,0 z m 0.6415791,0.9776444 33.2704595,0 0,19.1251683 c -3.123094,-2.173391 -7.232864,-3.482858 -11.731732,-3.482858 -3.304921,0 -6.392948,0.71807 -9.04321,1.955288 l -4.643811,0 0,0.977645 2.810727,0 c -0.531618,0.325429 -1.04747,0.668241 -1.527569,1.038747 -0.375934,0.290119 -0.727696,0.6003 -1.069298,0.916541 l -0.21386,0 0,0.21386 c -2.427447,2.339182 -3.910578,5.319177 -3.910578,8.58494 0,3.812392 2.002215,7.252356 5.193736,9.715341 0.02864,0.0221 0.06283,0.03916 0.09165,0.0611 l -9.2265185,0 0,-39.1057753 z m 21.5387275,15.6423103 8.798799,0 0,-0.977645 -22.48582,0 0,0.977645 13.687021,0 z M 14.798087,5.9165808 l 0,0.9776444 22.48582,0 0,-0.9776444 -22.48582,0 z m 0,2.9329331 0,0.9776441 22.48582,0 0,-0.9776441 -22.48582,0 z m 0,2.9329331 0,0.977644 22.48582,0 0,-0.977644 -22.48582,0 z m 0,2.932933 0,0.977645 22.48582,0 0,-0.977645 -22.48582,0 z m 13.687021,4.857671 c 4.630822,0 8.813428,1.434951 11.823387,3.75782 3.009958,2.32287 4.82712,5.496731 4.827119,8.982108 5e-6,3.485375 -1.817161,6.659239 -4.827119,8.982107 -3.009959,2.322869 -7.19256,3.75782 -11.823387,3.757821 -4.630827,0 -8.813425,-1.434951 -11.823387,-3.757821 -3.009961,-2.322869 -4.827119,-5.496733 -4.827119,-8.982107 0,-3.485376 1.817158,-6.659238 4.827119,-8.982108 3.009962,-2.322869 7.19256,-3.75782 11.823387,-3.75782 z m 0,6.415791 c -1.834842,0 -3.510774,0.59361 -4.735465,1.588672 -1.224692,0.995063 -2.016391,2.408379 -2.016391,3.97168 -1e-6,1.563301 0.7917,2.976618 2.016391,3.97168 1.22469,0.995062 2.900622,1.588673 4.735465,1.588673 1.834842,0 3.510774,-0.593611 4.735465,-1.588673 1.224691,-0.995061 1.98584,-2.408379 1.98584,-3.97168 0,-1.563301 -0.761149,-2.976618 -1.98584,-3.97168 -1.224691,-0.995061 -2.900623,-1.588672 -4.735465,-1.588672 z m 0,0.794336 c 1.672944,0 3.170938,0.561904 4.246643,1.435915 1.075704,0.874011 1.741429,2.043325 1.741429,3.330101 0,1.286777 -0.665724,2.45609 -1.741429,3.330101 -1.075706,0.874009 -2.573699,1.435915 -4.246643,1.435915 -1.672944,10e-7 -3.170938,-0.561905 -4.246643,-1.435915 -1.075705,-0.874012 -1.710877,-2.043324 -1.710877,-3.330101 0,-1.286776 0.635172,-2.456091 1.710877,-3.330101 1.075705,-0.87401 2.573699,-1.435915 4.246643,-1.435915 z m 0,0.397168 c -1.524185,0 -2.912663,0.449909 -3.941129,1.222055 -1.028466,0.772147 -1.710877,1.905523 -1.710877,3.146793 0,1.241271 0.682411,2.344095 1.710877,3.116242 1.028466,0.772146 2.416944,1.222055 3.941129,1.222055 1.52418,0 2.912665,-0.449909 3.941129,-1.222055 1.028464,-0.772147 1.710877,-1.874971 1.710878,-3.116242 0,-1.24127 -0.682415,-2.374645 -1.710878,-3.146793 -1.028463,-0.772147 -2.416944,-1.222055 -3.941129,-1.222055 z m 0,0.947093 c 1.334711,0 2.544802,0.403288 3.391204,1.038747 0.08458,0.0635 0.136946,0.146377 0.21386,0.21386 l -7.210128,0 c 0.07691,-0.06749 0.129289,-0.150366 0.21386,-0.21386 0.846405,-0.635459 2.056493,-1.038747 3.391204,-1.038747 z m -4.3994,2.230251 8.7988,0 c 0.19189,0.378125 0.305514,0.772104 0.305514,1.191504 0,0.259444 -0.04749,0.521623 -0.122206,0.763785 l -9.165416,0 c -0.07471,-0.242162 -0.122206,-0.504342 -0.122206,-0.763785 0,-0.4194 0.113624,-0.813379 0.305514,-1.191504 z m 0.397168,2.932933 8.004464,0 c -0.17932,0.211456 -0.36606,0.427112 -0.611028,0.611028 -0.846403,0.635459 -2.056497,1.069298 -3.391204,1.069298 -1.334711,0 -2.544799,-0.433839 -3.391204,-1.069298 -0.244969,-0.183916 -0.431708,-0.399572 -0.611028,-0.611028 z" />
</defs>
<acyl-settings>
<linearGradient
     id="linearGradient4321">
    <stop
       style="stop-color:#FFFFFF;stop-opacity:1.0;"
       offset="1.0"
       id="stop1" />
  </linearGradient>
<linearGradient
     inkscape:collect="always"
     xlink:href="#linearGradient4321"
     id="acyl_gradient"
     x1="50.0%"
     y1="0.0%"
     x2="50.0%"
     y2="100.0%" />
<filter>
    </filter>
<use id="1" style="fill:url(#acyl_gradient);filter:url(#filter1111)" xlink:href="#path-main" />
</acyl-settings>
</svg>
