<svg xmlns="http://www.w3.org/2000/svg" width="48" height="48">
<defs>
  <path
     d="M 10.21875 3 C 8.9852537 3 8 4.0435306 8 5.3125 L 8 42.71875 C 8 43.98772 8.9852537 45 10.21875 45 L 37.71875 45 C 38.952243 45 39.96875 43.98772 39.96875 42.71875 L 40 14.125 L 29.15625 3 L 10.21875 3 z M 24.0625 12.0625 C 28.928291 12.0625 30.09375 13.175728 30.09375 17.90625 C 30.093749 23.076416 29.322488 23.78125 23.78125 23.78125 C 18.882839 23.781249 16.9375 25.038923 16.9375 28.125 C 16.9375 29.753608 16.695584 29.96875 15.03125 29.96875 C 13.99037 29.968751 12.756816 29.537835 12.28125 29 C 11.805684 28.462165 11.276854 26.40795 11.125 24.4375 C 10.727605 19.280933 11.924074 18.273325 18.71875 18.125 C 22.301261 18.046795 22.914483 17.943755 20.71875 17.78125 C 17.639417 17.553352 17.59375 17.517624 17.59375 15.40625 C 17.59375 12.868216 19.152372 12.0625 24.0625 12.0625 z M 20.1875 14.0625 C 19.848587 14.076672 19.5625 14.304333 19.5625 14.78125 C 19.5625 15.318811 20.021021 15.75 20.59375 15.75 C 21.166479 15.75 21.518183 15.43442 21.375 15.03125 C 21.146347 14.387412 20.623244 14.04428 20.1875 14.0625 z M 31.6875 18.25 C 31.978499 18.23674 32.371545 18.23536 32.875 18.28125 C 34.269751 18.408363 35.285893 19.035534 35.875 20.09375 C 36.481186 21.18265 36.691268 22.734533 36.53125 24.84375 C 36.44294 26.007787 36.336912 26.88089 36.125 27.59375 C 35.91796 28.290222 35.58915 28.831415 35.09375 29.1875 C 34.038814 29.94577 32.347699 30.05922 29.1875 30.125 C 27.471089 30.160729 26.477181 30.22437 26.0625 30.28125 C 26.245421 30.31019 26.511508 30.30991 26.96875 30.34375 C 27.712233 30.398774 28.266364 30.46054 28.6875 30.53125 C 29.108635 30.60196 29.299753 30.607014 29.625 30.8125 C 29.661286 30.835425 29.792741 30.899941 29.90625 31.0625 C 30.019759 31.225058 30.04224 31.32865 30.0625 31.40625 C 30.14256 31.712875 30.125 31.96528 30.125 32.375 C 30.124999 32.871873 30.003524 33.401901 29.8125 33.875 C 29.617661 34.357546 29.444075 34.69586 29.09375 34.96875 C 28.850192 35.158474 28.651028 35.21065 28.4375 35.28125 C 28.223971 35.351846 28.008617 35.40611 27.8125 35.46875 C 27.758576 35.48598 27.72131 35.48535 27.625 35.53125 C 27.528687 35.577148 27.373787 35.64841 27.1875 35.6875 C 26.372212 35.858569 25.419499 35.9727 24.4375 36 C 22.467835 36.054767 20.496287 35.842938 19.375 35.25 C 18.960913 35.03103 18.670764 34.877069 18.40625 34.65625 C 18.141734 34.435431 17.928457 34.126977 17.8125 33.8125 C 17.551825 33.105544 17.53125 32.121318 17.53125 30.28125 C 17.53125 28.981252 17.591585 27.95888 17.75 27.15625 C 17.906843 26.361587 18.177871 25.793272 18.625 25.375 C 19.560523 24.499853 21.090848 24.34375 23.875 24.34375 C 26.33718 24.34375 28.034871 24.036766 29.125 23.34375 C 30.189979 22.666723 30.6875 21.569877 30.6875 20.03125 C 30.6875 19.582861 30.7032 19.267504 30.75 19 C 30.76068 18.938961 30.76908 18.8911 30.78125 18.84375 C 30.79129 18.806787 30.79728 18.75741 30.8125 18.71875 C 30.81676 18.70792 30.8079 18.69878 30.8125 18.6875 L 30.90625 18.53125 C 30.91323 18.52233 30.92022 18.48646 30.9375 18.46875 C 30.95478 18.45104 31 18.4375 31 18.4375 C 31.00014 18.43738 31.093657 18.375057 31.09375 18.375 L 31.1875 18.34375 L 31.375 18.28125 C 31.465383 18.26026 31.54861 18.2563 31.6875 18.25 z M 32 19.5625 C 31.98996 19.710294 31.96875 19.782669 31.96875 20.03125 C 31.96875 21.86785 31.287046 23.531355 29.8125 24.46875 C 28.363104 25.390158 26.433884 25.65625 23.875 25.65625 C 21.164595 25.65625 19.868894 25.967414 19.5 26.3125 C 19.294919 26.504345 19.128358 26.787159 19 27.4375 C 18.873214 28.079875 18.84375 29.016492 18.84375 30.28125 C 18.84375 32.09121 18.93186 33.074201 19.03125 33.34375 C 19.095326 33.517525 19.107258 33.56318 19.21875 33.65625 C 19.330242 33.749325 19.566977 33.881292 19.96875 34.09375 C 20.546733 34.399389 22.592314 34.73794 24.40625 34.6875 C 25.316051 34.662203 26.218294 34.588408 26.9375 34.4375 C 27.013129 34.42163 27.00262 34.40354 27.0625 34.375 C 27.108273 34.353188 27.235867 34.29173 27.34375 34.25 C 27.21629 34.24046 27.064719 34.25391 26.9375 34.1875 C 26.74667 34.087881 26.591238 33.920977 26.4375 33.6875 C 26.146522 33.2456 26.202217 32.752089 26.4375 32.40625 C 26.487103 32.333339 26.53357 32.27666 26.59375 32.21875 C 26.650232 32.164395 26.718863 32.09823 26.90625 32.03125 C 26.964495 32.01102 27.080559 31.9936 27.1875 32 C 27.442778 32.01537 27.45137 32.06554 27.5 32.09375 C 27.646676 32.178832 27.62543 32.1601 27.65625 32.1875 C 27.687072 32.21489 27.71356 32.27299 27.75 32.3125 C 27.822881 32.391524 27.92596 32.474475 28 32.625 C 28.127756 32.884725 28.15625 33.110478 28.15625 33.375 C 28.15625 33.564991 28.211076 33.713565 28.03125 34 C 28.004708 34.04228 27.95087 34.05447 27.90625 34.09375 C 27.947855 34.08073 27.99371 34.04366 28.03125 34.03125 C 28.162766 33.987767 28.26445 33.91185 28.28125 33.90625 C 28.265532 33.909052 28.509521 33.661 28.625 33.375 C 28.752202 33.059964 28.84375 32.644555 28.84375 32.375 C 28.84375 32.087136 28.8194 31.99523 28.8125 31.90625 C 28.763912 31.89621 28.722456 31.8551 28.46875 31.8125 C 28.105649 31.751534 27.589692 31.70914 26.875 31.65625 C 26.349777 31.617374 26.001061 31.59508 25.6875 31.53125 C 25.590398 31.51148 25.480916 31.482 25.375 31.4375 C 25.414487 31.45409 25.114878 31.326272 24.9375 31.15625 C 24.746216 30.972901 24.68729 30.833646 24.625 30.625 C 24.56271 30.416356 24.522158 30.141775 24.625 29.84375 C 24.762545 29.445163 25.18781 29.17356 25.21875 29.15625 C 25.356184 29.079397 25.48047 29.03715 25.5 29.03125 C 25.638382 28.98919 25.76114 28.97185 25.78125 28.96875 C 26.381141 28.876261 27.380615 28.84946 29.15625 28.8125 C 32.269632 28.747694 33.889428 28.482808 34.34375 28.15625 C 34.602978 27.969921 34.714597 27.758337 34.875 27.21875 C 35.030531 26.695551 35.13253 25.85516 35.21875 24.71875 C 35.368661 22.74274 35.142607 21.423992 34.75 20.71875 C 34.340311 19.982824 33.888092 19.697471 32.75 19.59375 C 32.395197 19.561411 32.195108 19.5644 32 19.5625 z M 30.875 38.40625 C 31.488278 38.406254 31.976559 38.587895 32.34375 39 C 32.710933 39.41016 32.874996 39.964847 32.875 40.65625 C 32.874996 41.345705 32.710933 41.900392 32.34375 42.3125 C 31.976559 42.722656 31.488278 42.9375 30.875 42.9375 C 30.259764 42.9375 29.744139 42.722656 29.375 42.3125 C 29.007812 41.902345 28.84375 41.347658 28.84375 40.65625 C 28.84375 39.964847 29.007812 39.41016 29.375 39 C 29.744139 38.587895 30.259764 38.406254 30.875 38.40625 z M 13.75 38.46875 L 15.09375 38.46875 C 15.583982 38.468754 15.937497 38.589848 16.1875 38.8125 C 16.43945 39.033207 16.562497 39.353519 16.5625 39.78125 C 16.562497 40.212893 16.43945 40.529299 16.1875 40.75 C 15.937497 40.970705 15.583982 41.093752 15.09375 41.09375 L 14.34375 41.09375 L 14.34375 42.84375 L 13.75 42.84375 L 13.75 38.46875 z M 16.625 38.46875 L 17.28125 38.46875 L 18.5 40.28125 L 19.6875 38.46875 L 20.3125 38.46875 L 24 38.46875 L 24 38.96875 L 22.4375 38.96875 L 22.4375 42.84375 L 21.84375 42.84375 L 21.84375 38.96875 L 20.3125 38.96875 L 20.3125 38.46875 L 18.78125 40.75 L 18.78125 42.84375 L 18.1875 42.84375 L 18.1875 40.75 L 16.625 38.46875 z M 24.5625 38.46875 L 25.15625 38.46875 L 25.15625 40.25 L 27.3125 40.25 L 27.3125 38.46875 L 27.90625 38.46875 L 27.90625 42.84375 L 27.3125 42.84375 L 27.3125 40.75 L 25.15625 40.75 L 25.15625 42.84375 L 24.5625 42.84375 L 24.5625 38.46875 z M 33.8125 38.46875 L 34.59375 38.46875 L 36.53125 42.125 L 36.53125 38.46875 L 37.125 38.46875 L 37.125 42.84375 L 36.3125 42.84375 L 34.375 39.1875 L 34.375 42.84375 L 33.8125 42.84375 L 33.8125 38.46875 z M 30.875 38.875 C 30.445311 38.875004 30.097655 39.023441 29.84375 39.34375 C 29.591796 39.664066 29.468749 40.103518 29.46875 40.65625 C 29.468749 41.207033 29.591796 41.648439 29.84375 41.96875 C 30.097655 42.289063 30.445311 42.4375 30.875 42.4375 C 31.304685 42.4375 31.624997 42.289063 31.875 41.96875 C 32.126949 41.648439 32.249996 41.207033 32.25 40.65625 C 32.249996 40.103518 32.126949 39.664066 31.875 39.34375 C 31.624997 39.023441 31.304685 38.875004 30.875 38.875 z M 14.34375 38.96875 L 14.34375 40.59375 L 15.09375 40.59375 C 15.369138 40.593752 15.568357 40.51758 15.71875 40.375 C 15.869138 40.232424 15.937497 40.044925 15.9375 39.78125 C 15.937497 39.519535 15.869138 39.298832 15.71875 39.15625 C 15.568357 39.013676 15.369138 38.968754 15.09375 38.96875 L 14.34375 38.96875 z "
     id="path-main" />
</defs>
<acyl-settings>
<linearGradient
     id="linearGradient4321">
    <stop
       style="stop-color:#FFFFFF;stop-opacity:1.0;"
       offset="1.0"
       id="stop1" />
  </linearGradient>
<linearGradient
     inkscape:collect="always"
     xlink:href="#linearGradient4321"
     id="acyl_gradient"
     x1="50.0%"
     y1="0.0%"
     x2="50.0%"
     y2="100.0%" />
<filter>
    </filter>
<use id="1" style="fill:url(#acyl_gradient);filter:url(#filter1111)" xlink:href="#path-main" />
</acyl-settings>
</svg>
