<svg xmlns="http://www.w3.org/2000/svg" width="48" height="48">
<defs>
<defs
     id="defs2564">
  </defs>
  <path
     id="path-main"
     d="m 20.441763,1.9999999 c -8.945377,0 -16.2855128,7.2770943 -16.285513,16.1948701 0,8.917779 7.340137,16.194867 16.285513,16.194869 3.012467,0 5.79232,-0.892076 8.218292,-2.326502 l 11.723152,13.022368 c 0.527577,0.691995 1.410441,1.034612 2.266073,0.876215 0.855633,-0.158399 1.537749,-0.796574 1.782644,-1.631573 0.244893,-0.835 3.9e-5,-1.731056 -0.6345,-2.326502 L 32.285772,29.192878 c 2.710932,-2.893768 4.41129,-6.745566 4.411289,-10.998008 0,-8.9177708 -7.309893,-16.1948703 -16.255298,-16.1948701 z m 0,4.6227893 c 6.461765,0 11.632509,5.1645338 11.632509,11.5720808 10e-7,6.40755 -5.170745,11.57208 -11.632509,11.57208 -6.461728,-2e-6 -11.6627237,-5.164535 -11.6627237,-11.57208 10e-8,-6.40754 5.2009957,-11.5720808 11.6627237,-11.5720808 z m 1.480501,4.7738608 0,2.900574 2.417145,0 0,2.417144 2.900573,0 0,-3.867431 0,-1.450287 -1.450287,0 -3.867431,0 z m -8.157864,0.09064 0,1.480501 0,3.837217 2.900574,0 0,-2.417144 2.417145,0 0,-2.900574 -3.837217,0 -1.480502,0 z m 0,7.946363 0,3.897646 0,1.420073 1.480502,0 3.837217,0 0,-2.87036 -2.417145,0 0,-2.447359 -2.900574,0 z m 10.575009,0.120857 0,2.417145 -2.417145,0 0,2.900574 3.867431,0 1.450287,0 0,-1.480501 0,-3.837218 -2.900573,0 z" />
</defs>
<acyl-settings>
<linearGradient
     id="linearGradient4321">
    <stop
       style="stop-color:#FFFFFF;stop-opacity:1.0;"
       offset="1.0"
       id="stop1" />
  </linearGradient>
<linearGradient
     inkscape:collect="always"
     xlink:href="#linearGradient4321"
     id="acyl_gradient"
     x1="50.0%"
     y1="0.0%"
     x2="50.0%"
     y2="100.0%" />
<filter>
    </filter>
<use id="1" style="fill:url(#acyl_gradient);filter:url(#filter1111)" xlink:href="#path-main" />
</acyl-settings>
</svg>
