/* XPM */
static char *bluefish[] = {
/* columns rows colors chars-per-pixel */
"16 16 202 2",
"   c #365268",
".  c #244572",
"X  c #224577",
"o  c #284771",
"O  c #2A4970",
"+  c #284876",
"@  c #2C4C75",
"#  c #234679",
"$  c #23467A",
"%  c #23477B",
"&  c #24487D",
"*  c #365475",
"=  c #4A655A",
"-  c #4B665B",
";  c #4C665B",
":  c #4E685D",
">  c #4F695E",
",  c #4A6565",
"<  c #4C6568",
"1  c #516B60",
"2  c #526B60",
"3  c #536B61",
"4  c #506C60",
"5  c #526D61",
"6  c #546F63",
"7  c #546F64",
"8  c #576F6E",
"9  c #5A7167",
"0  c #5C726D",
"q  c #5F7679",
"w  c #637A70",
"e  c #647B71",
"r  c #607D70",
"t  c #638375",
"y  c #6C8178",
"u  c #6B857A",
"i  c #6D857B",
"p  c #6E867B",
"a  c #72877D",
"s  c #708A7F",
"d  c #244A80",
"f  c #254B81",
"g  c #254C82",
"h  c #254D83",
"j  c #254D85",
"k  c #264F86",
"l  c #2A5183",
"z  c #2D538A",
"x  c #285490",
"c  c #2A5995",
"v  c #295998",
"b  c #2A5C9D",
"n  c #2B5E9F",
"m  c #2E5F9F",
"M  c #375F96",
"N  c #35629B",
"B  c #31619D",
"V  c #2C62A5",
"C  c #2D63A7",
"Z  c #2D64A8",
"A  c #2E66AC",
"S  c #2E69B0",
"D  c #2F6BB2",
"F  c #2F6EB7",
"G  c #306EB6",
"H  c #306FB9",
"J  c #3271BA",
"K  c #3173BE",
"L  c #3173BF",
"P  c #456B96",
"I  c #486D95",
"U  c #476E9D",
"Y  c #497190",
"T  c #4A719A",
"R  c #5C799B",
"E  c #456EA2",
"W  c #466FA2",
"Q  c #4771A2",
"!  c #4E73A2",
"~  c #4A75AA",
"^  c #4B78AF",
"/  c #5175A2",
"(  c #4179BA",
")  c #487EBA",
"_  c #3174C1",
"`  c #3175C2",
"'  c #457FC0",
"]  c #6A8583",
"[  c #718C80",
"{  c #729887",
"}  c #7E948A",
"|  c #7F958B",
" . c #62879E",
".. c #7FA695",
"X. c #7EA996",
"o. c #5280B6",
"O. c #5483B8",
"+. c #5785B9",
"@. c #5685BB",
"#. c #5785BB",
"$. c #5786BB",
"%. c #7C9EAC",
"&. c #6A91B0",
"*. c #6E94B4",
"=. c #7390B2",
"-. c #7392B8",
";. c #7FA1A9",
":. c #6391C5",
">. c #6490C4",
",. c #6495CB",
"<. c #689ACF",
"1. c #7EA8C5",
"2. c #71A3D6",
"3. c #77A9DC",
"4. c #7BABDC",
"5. c #848484",
"6. c #84A396",
"7. c #82A697",
"8. c #83A697",
"9. c #82A797",
"0. c #8CA399",
"q. c #8CA49A",
"w. c #8FA59D",
"e. c #81AB99",
"r. c #82AC9A",
"t. c #86AF9D",
"y. c #8AAA9C",
"u. c #88AF9E",
"i. c #91A19B",
"p. c #91A89F",
"a. c #87B09E",
"s. c #88B09E",
"d. c #8699AC",
"f. c #8DAFA1",
"g. c #97A7A0",
"h. c #92A9A0",
"j. c #93AAA0",
"k. c #99AAA3",
"l. c #9AABA4",
"z. c #9FA4AB",
"x. c #8AB2A0",
"c. c #8CB3A2",
"v. c #8DB3A2",
"b. c #9CB0A8",
"n. c #9EB2A9",
"m. c #94B8A8",
"M. c #97BBAB",
"N. c #98BAAC",
"B. c #9BBEAF",
"V. c #81A4B3",
"C. c #92AFB6",
"Z. c #94A7BD",
"A. c #97B8B6",
"S. c #99BBBC",
"D. c #9EB8BE",
"F. c #A8AAAB",
"G. c #A9B7B2",
"H. c #A5BDB6",
"J. c #AAB9B2",
"K. c #ADBBB5",
"L. c #A0C0B2",
"P. c #A0C0B3",
"I. c #A2C2B5",
"U. c #A3C3B6",
"Y. c #A6C5B7",
"T. c #A1C2BD",
"R. c #80A5C6",
"E. c #94B8C1",
"W. c #8CB6D0",
"Q. c #A1BEC6",
"!. c #9AC0CC",
"~. c #A7C7C2",
"^. c #AFCDC0",
"/. c #A2C0CC",
"(. c #B1CDC0",
"). c #B2CEC2",
"_. c #B4D0C4",
"`. c #B7D2C7",
"'. c #BED1C9",
"]. c #BAC6D4",
"[. c #C1D7CE",
"{. c #C1D8CE",
"}. c #C3CBD5",
"|. c #C3DAD0",
" X c #C5DAD1",
".X c #C6DBD1",
"XX c #C7DBD7",
"oX c #C8DCD4",
"OX c #CADED5",
"+X c #CCDFDA",
"@X c #D2D2D2",
"#X c #CFE1D9",
"$X c #CFE1DA",
"%X c #D3E4DD",
"&X c #D5E5DE",
"*X c #C4D4E6",
"=X c #DBE9E4",
"-X c #DCE9E4",
";X c #E3EDE9",
":X c #E3EEE9",
">X c #F2F4F7",
",X c None",
/* pixels */
",Xp.h.G.K.K.n.p.p.l.K.K.J.p.p.,X",
"w.'.$X%X:X:X-X%X%X-X:X:X&X$X'.p.",
"w._.^.^.[.XXQ.S.Y.#X#X{.!.W._.q.",
"l._.T.1.) L ( <.$./.oX~.4.%.(.l.",
"g..XR.' L ` >.,.@.E V.E.4.C. Xg.",
"i.{.d.G L ` *X>X].-.c *.2.D.[.i.",
"} (.R D F H }.@X5.Z.x z :.H.(.| ",
"s B.T A S S =.F.z./ k d P N.B.[ ",
"u N.Y V Z Z B ! Q l g # U M.M.u ",
"a U. .m n b v N k k # @ ~ A.U.u ",
"a Y.&.#.) +.@.^ d # . 8 w V.Y.a ",
"y H.] I W W M & X . < 8.6.6.P.y ",
"w s.9.r , * + O   0 y.f.t.t.c.e ",
"5 e.r.e.8.[ 9 5 t f.m.v.X.r.r.7 ",
"5 { X.r.v.v.t.X.X.a.v.v.e.X.{ 4 ",
",X= ; 5 1 1 > - - > 1 1 1 - - ,X"
};
