/* XPM */
static char *browser[] = {
/* columns rows colors chars-per-pixel */
"16 16 121 2",
"   c #0F4373",
".  c #0F4576",
"X  c #13497B",
"o  c #164B7C",
"O  c #5E5877",
"+  c #8B2834",
"@  c #E81B1B",
"#  c #F21919",
"$  c #F11C1C",
"%  c #D92C32",
"&  c #A14862",
"*  c #876E7B",
"=  c #B3686A",
"-  c #C5625F",
";  c #1A4F81",
":  c #1E5386",
">  c #1E5F9C",
",  c #22588A",
"<  c #265C8F",
"1  c #2E6292",
"2  c #296094",
"3  c #2E6599",
"4  c #366397",
"5  c #34689A",
"6  c #326A9E",
"7  c #1A65AB",
"8  c #1B68AF",
"9  c #1D6FBD",
"0  c #1D70BE",
"q  c #376EA3",
"w  c #3674AF",
"e  c #3C73A8",
"r  c #2571B9",
"t  c #2171BD",
"y  c #3F7FB9",
"u  c #476998",
"i  c #567899",
"p  c #4179AE",
"a  c #477FB4",
"s  c #2274C1",
"d  c #2778C4",
"f  c #2A79C3",
"g  c #2C7CC7",
"h  c #4A82B7",
"j  c #4A84BB",
"k  c #4983BC",
"l  c #4B85BC",
"z  c #6687BE",
"x  c #3C84C7",
"c  c #3180CA",
"v  c #3684CD",
"b  c #4085C6",
"n  c #4088CC",
"m  c #458BCC",
"M  c #458BCE",
"N  c #448CCF",
"B  c #528CC9",
"V  c #5592CB",
"C  c #478ED2",
"Z  c #448FD6",
"A  c #4C90D1",
"S  c #4E92D3",
"D  c #4993D9",
"F  c #4D95D9",
"G  c #4E97DC",
"H  c #5597D6",
"J  c #5D9AD4",
"K  c #5398D9",
"L  c #539BDF",
"P  c #599BD9",
"I  c #5A9CDB",
"U  c #5A9DDD",
"Y  c #5B9EDE",
"T  c #6492CA",
"R  c #5FA1DF",
"E  c #70A1CE",
"W  c #75ACDF",
"Q  c #7DADDB",
"!  c #589FE2",
"~  c #63A3E0",
"^  c #63A5E4",
"/  c #77AFE4",
"(  c #AF979F",
")  c #868AAE",
"_  c #98A5B1",
"`  c #B9BBBD",
"'  c #F4A79B",
"]  c #8AA7C2",
"[  c #9AB5CE",
"{  c #A4BED6",
"}  c #8BB8E3",
"|  c #8EBBE5",
" . c #83B8EB",
".. c #B9C9D9",
"X. c #94C2EE",
"o. c #9DC7EE",
"O. c #AACAE8",
"+. c #AECDEB",
"@. c #AFCDEB",
"#. c #B0CFED",
"$. c #B5D2EE",
"%. c #B4D3EF",
"&. c #BBD5EC",
"*. c #CCD3DA",
"=. c #DCDCDC",
"-. c #C1D9F0",
";. c #C3DBF1",
":. c #C9E0F5",
">. c #E5E5E5",
",. c #E6E6E6",
"<. c #E9EBEE",
"1. c #EEF5FB",
"2. c #F0F6FB",
"3. c #F1F6FB",
"4. c #F0F6FC",
"5. c #F2F7FC",
"6. c #F3F7FC",
"7. c #F3F8FC",
"8. c #F4F8FC",
"9. c #F5F9FD",
"0. c None",
/* pixels */
"0.j l l j j l l l l j j l l j 0.",
"h W  . . . . .X.X. . . . . .W h ",
"a ^ ! ! ! ! ! o.o.! ! ! U z ^ a ",
"p L L L L L ! :.;.! ! T & k L p ",
"e G G G / R ~ 8.8.~ ) % u F G e ",
"q D D D U 4.7.%.$.' $ O C D D q ",
"6 Z Z Z I 4.K B - # = V Z Z Z 6 ",
"3 P | ;.8.#.A ( @ + { 8.;.| P 3 ",
"2 H } ;.4.+...=.* 4 +.7.;.} H 2 ",
"< v v v S <.>._ 5 M 4.S v v v < ",
", g c c E >.` [ O.2.1.M c g g , ",
", g g x *.i k 4.7.M n J g g g , ",
"; d f ] 1 r d &.&.d d d f f d ; ",
"o s w > t s s Q Q s s s s s s o ",
"o 7 7 0 0 0 0 x x 0 0 0 0 0 7 X ",
"0..                         . 0."
};
