/* XPM */
static char *ccc_large[] = {
/* columns rows colors chars-per-pixel */
"16 16 71 1",
"  c #3A1F1F",
". c #212121",
"X c #292929",
"o c #3E2222",
"O c #333333",
"+ c #353535",
"@ c #3B3B3B",
"# c #3F3F3F",
"$ c #4E4E4E",
"% c #800707",
"& c #A20909",
"* c #A90B0B",
"= c #AE0D0D",
"- c #B20F0F",
"; c #BF0A0A",
": c #B71111",
"> c #BB1313",
", c #C01515",
"< c #C41717",
"1 c #C91C1C",
"2 c #CD1C1C",
"3 c #D11C1C",
"4 c #D11D1D",
"5 c #ED0D0D",
"6 c #F21010",
"7 c #F41212",
"8 c #F41414",
"9 c #F61515",
"0 c #F61717",
"q c #F71717",
"w c #F41818",
"e c #F51D1D",
"r c #F61C1C",
"t c #F71E1E",
"y c #F91919",
"u c #FB1C1C",
"i c #FB1E1E",
"p c #FC1E1E",
"a c #FC1F1F",
"s c #F92020",
"d c #FE2121",
"f c #FC2222",
"g c #F92525",
"h c #F52828",
"j c #F52E2E",
"k c #F82E2E",
"l c #FC2C2C",
"z c #FE2F2F",
"x c #F73232",
"c c #F83434",
"v c #FA3C3C",
"b c #F24747",
"n c #FA4545",
"m c #FA4F4F",
"M c #F85454",
"N c #FF5858",
"B c #FC6565",
"V c #FBB3B3",
"C c #FEB8B8",
"Z c #FCBABA",
"A c #FCBBBB",
"S c #FCBFBF",
"D c #FEC0C0",
"F c #FDCDCD",
"G c #FDD6D6",
"H c #FEE0E0",
"J c #FEE6E6",
"K c #FFEBEB",
"L c #FFF6F6",
"P c #FFFFFF",
"I c None",
/* pixels */
"I33333333333333I",
"2bNNNNNNNNNNNNb2",
"1zddddddddddddx2",
"<aaaidaazkzdaaa<",
",uuuBKuCPPPCuSa,",
">uunLPugvPMgqPi>",
"-qkJGPwqtPc99Pt:",
"-qFGMPq9wPx99Pt-",
"=wSjhS669Ct66V9=",
"*66666666666666*",
"&55555555555555&",
"%;;;;;;;;;;;;;;%",
"O$$$$$$$$$$$$$$O",
"X##############X",
"o+@@@@@@@@@@@@+o",
"I ............oI"
};
