/* XPM */
static char *gnome_activity_journal[] = {
/* columns rows colors chars-per-pixel */
"16 16 111 2",
"   c #185366",
".  c #195569",
"X  c #1A596C",
"o  c #1C5A6F",
"O  c #1E5E73",
"+  c #206278",
"@  c #23667D",
"#  c #256A82",
"$  c #276F86",
"%  c #29738C",
"&  c #257B97",
"*  c #2C7891",
"=  c #2F7C96",
"-  c #31809B",
";  c #2989A8",
":  c #2C8CAC",
">  c #2E8FAF",
",  c #3485A1",
"<  c #388BA8",
"1  c #388EAB",
"2  c #3991AD",
"3  c #3B91AE",
"4  c #3092B3",
"5  c #3395B6",
"6  c #3495B6",
"7  c #3995B3",
"8  c #3598BA",
"9  c #379CBD",
"0  c #389CBD",
"q  c #419BB9",
"w  c #56A3BD",
"e  c #399FC1",
"r  c #3DA1C2",
"t  c #3CA2C4",
"y  c #3EA3C4",
"u  c #3EA5C8",
"i  c #49A5C3",
"p  c #4EA5C2",
"a  c #43A7C9",
"s  c #40A8CB",
"d  c #43ABCF",
"f  c #4BA9C8",
"g  c #4DAECE",
"h  c #52A7C4",
"j  c #52ADCB",
"k  c #45AED2",
"l  c #52B2D3",
"z  c #51B3D5",
"x  c #59B4D2",
"c  c #64B4CF",
"v  c #67B5CF",
"b  c #68B2CC",
"n  c #78B8CE",
"m  c #65B7D3",
"M  c #64B8D5",
"N  c #68B8D4",
"B  c #6BBAD5",
"V  c #68BBD8",
"C  c #6FBDD8",
"Z  c #79BBD1",
"A  c #7EBCD1",
"S  c #7FBED3",
"D  c #71C1DD",
"F  c #73C3DE",
"G  c #74C3DE",
"H  c #77C4DE",
"J  c #78C3DD",
"K  c #7AC4DD",
"L  c #82C3D9",
"P  c #8BC6D9",
"I  c #88C6DB",
"U  c #91CADC",
"Y  c #95CBDE",
"T  c #A5CEDC",
"R  c #AFD3DF",
"E  c #8CCBE0",
"W  c #9FD0E1",
"Q  c #9ED2E3",
"!  c #A1D5E7",
"~  c #ACD8E6",
"^  c #ACD8E7",
"/  c #B4D7E2",
"(  c #B6DFED",
")  c #BEE1ED",
"_  c #BEE2EE",
"`  c #C1DEE7",
"'  c #C1DFEA",
"]  c #C3E1EB",
"[  c #C3E3EE",
"{  c #C4E2EC",
"}  c #C9E4ED",
"|  c #CAE4ED",
" . c #D0E6EE",
".. c #CBE7F0",
"X. c #D6EAF0",
"o. c #D0EAF4",
"O. c #D9EAF0",
"+. c #E3F0F4",
"@. c #E1F1F7",
"#. c #E6F2F7",
"$. c #EDF7FA",
"%. c #EDF7FB",
"&. c #EEF7FA",
"*. c #F0F8FA",
"=. c #F1F8FB",
"-. c #F3F8FA",
";. c #F6FBFD",
":. c #FBFDFE",
">. c #FEFFFF",
",. c #FFFFFF",
"<. c None",
/* pixels */
"<.2 2 3 2 3 3 3 3 3 2 3 3 2 2 <.",
"1 m G G F G G G G G F G G G m 1 ",
"< z k k k J o.;.%.( F k k k z < ",
", d d k ! >.@.G z V ) J d d k , ",
"= d a C >.$.g a x M s ) U g u - ",
"= u u [ >.Q u a ^ N u N >...u = ",
"* t t =.>.L t j >.I t f >.^ t * ",
"% e Y >.>.Q e e v U e v &.t e % ",
"$ 9 ] >.>.*.i 0 9 I 0 | { 9 9 $ ",
"# 8 h ' >.>.#.n p b | >.S 8 8 # ",
"@ 5 6 S >.>.>.>.>.>.>. .6 5 5 @ ",
"+ 4 4 n >.>.>.>.>.>.X.q 4 4 4 + ",
"O > > / >.>.>.>.>.` 7 > > > > O ",
"o : : T +.=.O.R w > ; > : : : o ",
"X & ; ; ; ; ; ; ; ; ; ; ; ; & X ",
"<..                         . <."
};
