/* XPM */
static char *googleearth[] = {
/* columns rows colors chars-per-pixel */
"16 16 167 2",
"   c #163553",
".  c #1B3553",
"X  c #1B3B57",
"o  c #2C2E57",
"O  c #27325A",
"+  c #28335B",
"@  c #223D5B",
"#  c #213F5A",
"$  c #323463",
"%  c #3B3F64",
"&  c #393A68",
"*  c #403072",
"=  c #423176",
"-  c #463A76",
";  c #473679",
":  c #4A3B78",
">  c #493C7A",
",  c #1E4A70",
"<  c #234461",
"1  c #2D4B68",
"2  c #2A4D6C",
"3  c #394468",
"4  c #304E6B",
"5  c #3F496C",
"6  c #3C4F77",
"7  c #23547E",
"8  c #355674",
"9  c #3F5C79",
"0  c #41456A",
"q  c #40456C",
"w  c #4A4E7A",
"e  c #50417C",
"r  c #51567F",
"t  c #43607D",
"y  c #265985",
"u  c #2B5F8A",
"i  c #2B608C",
"p  c #3C6385",
"a  c #3E6587",
"s  c #3F678A",
"d  c #2B6596",
"f  c #306FA3",
"g  c #3771A1",
"h  c #3577AF",
"j  c #3D7BAF",
"k  c #554780",
"l  c #5B4D83",
"z  c #5C5189",
"x  c #615486",
"c  c #685B8A",
"v  c #635692",
"b  c #4A6088",
"n  c #5E6187",
"m  c #5D6589",
"M  c #43739D",
"N  c #597492",
"B  c #6E628D",
"V  c #756991",
"C  c #7B7094",
"Z  c #73779A",
"A  c #5E48A0",
"S  c #624CA8",
"D  c #644DAA",
"F  c #6754A2",
"G  c #6752A8",
"H  c #6851B2",
"J  c #6D54BA",
"K  c #725AB9",
"L  c #735BBB",
"P  c #4176A3",
"I  c #4C7AA1",
"U  c #777EA0",
"Y  c #7562B0",
"T  c #7862BC",
"R  c #7963BD",
"E  c #7F6ABE",
"W  c #827898",
"Q  c #8470BD",
"!  c #8876BC",
"~  c #8C7ABA",
"^  c #3E83BB",
"/  c #4E86B4",
"(  c #4C87B9",
")  c #568AB7",
"_  c #5B89B0",
"`  c #578DBA",
"'  c #588EBB",
"]  c #6C88A7",
"[  c #7B82A3",
"{  c #7E83A2",
"}  c #708BA8",
"|  c #718DA9",
" . c #738DAA",
".. c #728FAE",
"X. c #7E8FAB",
"o. c #7994AE",
"O. c #6090BA",
"+. c #6E96B9",
"@. c #7396B4",
"#. c #779DBF",
"$. c #468BC1",
"%. c #488CC2",
"&. c #5592C5",
"*. c #699AC3",
"=. c #5FA0D1",
"-. c #66A0CF",
";. c #7FA5C6",
":. c #62A4D4",
">. c #6DAEDC",
",. c #7DAAD1",
"<. c #75B5E1",
"1. c #89809C",
"2. c #8A80AA",
"3. c #838AA8",
"4. c #9189A0",
"5. c #958DA3",
"6. c #8790AE",
"7. c #9790A6",
"8. c #9890A6",
"9. c #9184B0",
"0. c #9584BF",
"q. c #8395B1",
"w. c #829FB9",
"e. c #A29BB7",
"r. c #A69EBA",
"t. c #89A0B9",
"y. c #8EA6BE",
"u. c #9D8DC2",
"i. c #A495C5",
"p. c #A99CC6",
"a. c #AA9DC7",
"s. c #88A8C4",
"d. c #90A8C1",
"f. c #92AAC3",
"g. c #9AB0C8",
"h. c #9DB3CB",
"j. c #9FB5CA",
"k. c #8EB6D7",
"l. c #AEA2C5",
"z. c #B0A4C8",
"x. c #B6ABC8",
"c. c #B6ABC9",
"v. c #A0B7CB",
"b. c #A4BACE",
"n. c #BDB3CE",
"m. c #A7BAD0",
"M. c #AABDD1",
"N. c #C4BDD0",
"B. c #AEC0D5",
"V. c #A5C1D8",
"C. c #B0C2D7",
"Z. c #B5C9DB",
"A. c #9ED4F6",
"S. c #B4CDE2",
"D. c #BED5E7",
"F. c #D1CADC",
"G. c #C6D3E0",
"H. c #CBDAE7",
"J. c #D1E3F0",
"K. c #DAE9F5",
"L. c #E8EFF4",
"P. c #F1F2F4",
"I. c #F7F9FB",
"U. c #F8F9F9",
"Y. c #F9F9F9",
"T. c #FAFBFB",
"R. c None",
/* pixels */
"R.7.8.8.8.8.8.8.8.8.5.7.7.8.7.R.",
"5.N.F.F.F.F.F.F.F.F.F.F.F.F.N.5.",
"4.n.c.c.c.e.q.o.X.3.r.x.x.x.n.4.",
"1.z.z.l.U ;.' ;.s.v.w.2.l.z.z.1.",
"W a.a.Z H.T.L.,.h P w.g.Z a.a.W ",
"C i.2.Z.D.J.T.T.k.) I y. .9.i.C ",
"V u.m *.:.<.A.K.I.V.M s } n u.V ",
"B 0.b j %.:.>.*.S.P.b.p < 5 0.B ",
"c ~ 6 g ( &.$.( ' +.j.y.9 3 ~ c ",
"x ~ 0 i _ ' ( f d y a 8 t r ! x ",
"l Q z o.G.m.@.u 7 , 2 # . v Q l ",
"e E K 0 v.C.m.M.f. .] ..w Y E k ",
"e R R F % N . X 1 4 # & F T R e ",
": L L L G = o O + $ : G K L L : ",
"; S J J J H S S A D H J J J S ; ",
"R.= * * * * * = & = * * * * = R."
};
