/* XPM */
static char *gtk_recordmydesktop[] = {
/* columns rows colors chars-per-pixel */
"16 16 188 2",
"   c #4F5D15",
".  c #515F17",
"X  c #525F17",
"o  c #52611A",
"O  c #55651C",
"+  c #57681E",
"@  c #697A15",
"#  c #6D7E16",
"$  c #6E7F18",
"%  c #586A21",
"&  c #5A6D23",
"*  c #63762C",
"=  c #6F8116",
"-  c #738518",
";  c #72841A",
":  c #73841A",
">  c #76871B",
",  c #71821C",
"<  c #73861C",
"1  c #73871F",
"2  c #75881D",
"3  c #7F921E",
"4  c #738520",
"5  c #748821",
"6  c #758824",
"7  c #748924",
"8  c #758B27",
"9  c #748429",
"0  c #778A28",
"q  c #758C29",
"w  c #768D2C",
"e  c #768E2D",
"r  c #768E2E",
"t  c #798D2C",
"y  c #7B9027",
"u  c #779031",
"i  c #779133",
"p  c #789133",
"a  c #7C9031",
"s  c #7F9335",
"d  c #7A9437",
"f  c #7D9637",
"g  c #7E9636",
"h  c #9AB31F",
"j  c #819624",
"k  c #849725",
"l  c #899E22",
"z  c #869B29",
"x  c #869B2C",
"c  c #899D2A",
"v  c #859B32",
"b  c #819834",
"n  c #849B37",
"m  c #869D34",
"M  c #869C35",
"N  c #899F33",
"B  c #80943A",
"V  c #83973F",
"C  c #859C3A",
"Z  c #859D3A",
"A  c #829B3E",
"S  c #839D3E",
"D  c #879F3D",
"F  c #8EA326",
"G  c #8EA52C",
"H  c #92A92B",
"J  c #95AD2E",
"K  c #9FB927",
"L  c #9CB62A",
"P  c #9AB02C",
"I  c #8FA230",
"U  c #8EA333",
"Y  c #8DA433",
"T  c #8AA035",
"R  c #8DA437",
"E  c #8BA23A",
"W  c #8EA53B",
"Q  c #8DA63A",
"!  c #8FA73B",
"~  c #88A13D",
"^  c #93A531",
"/  c #90A534",
"(  c #92A833",
")  c #90A93A",
"_  c #95AB3B",
"`  c #91A83F",
"'  c #94AA3C",
"]  c #97B031",
"[  c #9CB23A",
"{  c #99B03D",
"}  c #9BB43C",
"|  c #9FB93F",
" . c #A1B63D",
".. c #A1BB3B",
"X. c #A7BB3C",
"o. c #ABC622",
"O. c #ABC625",
"+. c #ACC726",
"@. c #ADC727",
"#. c #A7C02E",
"$. c #AAC42B",
"%. c #ABC62A",
"&. c #ADC629",
"*. c #ABC42C",
"=. c #ABC62F",
"-. c #AEC82E",
";. c #B0C92E",
":. c #B0C92F",
">. c #A6C032",
",. c #A8C233",
"<. c #ABC634",
"1. c #ABC436",
"2. c #ACC736",
"3. c #ADC835",
"4. c #AFC934",
"5. c #ABC639",
"6. c #ADC738",
"7. c #ACC63B",
"8. c #AAC43E",
"9. c #ABC53F",
"0. c #AAC63E",
"q. c #ABC63E",
"w. c #B2CA36",
"e. c #B2CB36",
"r. c #B1C93E",
"t. c #859B44",
"y. c #869F44",
"u. c #879C48",
"i. c #889E4A",
"p. c #89A240",
"a. c #8DA54B",
"s. c #8AA04E",
"d. c #90A949",
"f. c #92A948",
"g. c #96AF49",
"h. c #9CB345",
"j. c #9EB94E",
"k. c #8CA253",
"l. c #8CA254",
"z. c #8DA355",
"x. c #96AD53",
"c. c #9EBA52",
"v. c #A1BB43",
"b. c #A6BC46",
"n. c #A1B94B",
"m. c #A1BB4B",
"M. c #A4BE49",
"N. c #A5BF4E",
"B. c #A3BA50",
"V. c #A5BE53",
"C. c #A1B85B",
"Z. c #A6BF59",
"A. c #9AAD68",
"S. c #9BB06A",
"D. c #A0B36E",
"F. c #A3B871",
"G. c #A6BB73",
"H. c #ABBF77",
"J. c #A8C240",
"K. c #ABC643",
"L. c #ACC640",
"P. c #ADC746",
"I. c #AFC840",
"U. c #ABC348",
"Y. c #ABC648",
"T. c #ADC74B",
"R. c #A8C14D",
"E. c #ABC64D",
"W. c #ACC64F",
"Q. c #ABC652",
"!. c #ABC657",
"~. c #AEC853",
"^. c #AFC956",
"/. c #AAC15B",
"(. c #AAC459",
"). c #ACC459",
"_. c #ABC65C",
"`. c #ADC65C",
"'. c #AFC95F",
"]. c #B0C952",
"[. c #ADC463",
"{. c #B1CB65",
"}. c #B1CA67",
"|. c #B2C67C",
" X c #B3C87A",
".X c #B6CB80",
"XX c #BFD487",
"oX c None",
/* pixels */
"oXk.z.z.k.z.z.z.z.l.z.z.z.z.z.oX",
"s. XXXXXXXXX XG.S.A.A.F.H..X|.k.",
"i.}._._.c.A A a.p.d i d i i x.u.",
"t.!.!.j.d.[././.{.{.c.f u u u * ",
"V Q.N.g.~ D f.p.Z n.Q.`.f e e & ",
"B E.n.n /.^.E.~.`.C M.E.V.e e % ",
"s Y.! B.v.! ` ) K.R.E P.T.b q O ",
"a K.m T.R ].P.h.| K.n K.K.W q O ",
"t 0.N 8.' ..8.U U.0.v 9.0.N 7 o ",
"q 5.} ( L.{ / b.6.( _ 2.6.y 5 . ",
"6 2.2.U G X.6.,.H c I.<.J 1 4   ",
"1 =.=.3. .l k z } r.<.L 2 < < o ",
"$ =.&.$.*.K 6.e.&.K l : < - G 9 ",
"$ +.o.+.O.+.P F j : : k ^ X.=.$ ",
"# h o.o.o.o.o.+.;.e.e.;.+.o.h $ ",
"oX# @ @ @ @ @ @ @ @ @ @ @ @ # oX"
};
