/* XPM */
static char *opera_browser[] = {
/* columns rows colors chars-per-pixel */
"16 16 174 2",
"   c #4C0101",
".  c #4E0101",
"X  c #4C0202",
"o  c #550303",
"O  c #590505",
"+  c #610707",
"@  c #680909",
"#  c #760404",
"$  c #700B0B",
"%  c #770D0D",
"&  c #7F1010",
"*  c #830404",
"=  c #840606",
"-  c #8B0707",
";  c #930A0A",
":  c #940C0C",
">  c #940D0D",
",  c #9B0D0D",
"<  c #811515",
"1  c #8A1212",
"2  c #881414",
"3  c #971414",
"4  c #9D1111",
"5  c #9E1414",
"6  c #9E1616",
"7  c #931818",
"8  c #A31010",
"9  c #A61717",
"0  c #AB1313",
"q  c #A21D1D",
"w  c #AD1919",
"e  c #B31616",
"r  c #B41919",
"t  c #BB1919",
"y  c #8D2424",
"u  c #942424",
"i  c #962525",
"p  c #962B2B",
"a  c #9D2C2C",
"s  c #9D2D2D",
"d  c #9E3636",
"f  c #A12929",
"g  c #A52D2D",
"h  c #A92F2F",
"j  c #AD2C2C",
"k  c #AE2C2C",
"l  c #B02020",
"z  c #BD2222",
"x  c #BD2323",
"c  c #BB2424",
"v  c #BD2525",
"b  c #BD2626",
"n  c #B52B2B",
"m  c #B52F2F",
"M  c #BA2D2D",
"N  c #BE2D2D",
"B  c #BF3131",
"V  c #BF3232",
"C  c #B43B3B",
"Z  c #BE3838",
"A  c #C31C1C",
"S  c #C41F1F",
"D  c #CB1F1F",
"F  c #CB2121",
"G  c #D32222",
"H  c #D32323",
"J  c #D32424",
"K  c #DB2525",
"L  c #DB2727",
"P  c #C43737",
"I  c #C53A3A",
"U  c #C53C3C",
"Y  c #CB3C3C",
"T  c #DE3434",
"R  c #D13A3A",
"E  c #DF3F3F",
"W  c #E43030",
"Q  c #E43131",
"!  c #E63C3C",
"~  c #A74242",
"^  c #AF4040",
"/  c #AD4F4F",
"(  c #B34747",
")  c #BC4343",
"_  c #BB4F4F",
"`  c #BA7777",
"'  c #C34646",
"]  c #C34747",
"[  c #C84343",
"{  c #CD4040",
"}  c #C84545",
"|  c #CE4444",
" . c #D34040",
".. c #D44444",
"X. c #D94141",
"o. c #DA4646",
"O. c #DF4545",
"+. c #D54A4A",
"@. c #D04C4C",
"#. c #DB4848",
"$. c #DC4F4F",
"%. c #E64040",
"&. c #E64242",
"*. c #E74343",
"=. c #E04444",
"-. c #E64545",
";. c #E74646",
":. c #E04B4B",
">. c #E74A4A",
",. c #EC5353",
"<. c #EC5454",
"1. c #EC5656",
"2. c #ED5858",
"3. c #ED5959",
"4. c #ED5B5B",
"5. c #ED5D5D",
"6. c #C37878",
"7. c #ED6060",
"8. c #EE6363",
"9. c #E66E6E",
"0. c #E66F6F",
"q. c #EF6A6A",
"w. c #BF8F8F",
"e. c #C08181",
"r. c #D28D8D",
"t. c #CF9393",
"y. c #D89090",
"u. c #EA8A8A",
"i. c #EA8F8F",
"p. c #CDB2B2",
"a. c #CDB3B3",
"s. c #DBB1B1",
"d. c #DAB3B3",
"f. c #DEB6B6",
"g. c #D8BABA",
"h. c #E6A1A1",
"j. c #E2AAAA",
"k. c #E1B1B1",
"l. c #E4B3B3",
"z. c #E5B5B5",
"x. c #E7BFBF",
"c. c #F4B2B2",
"v. c #F5B9B9",
"b. c #DBD3D3",
"n. c #DED1D1",
"m. c #DED4D4",
"M. c #E2C4C4",
"N. c #E1C9C9",
"B. c #EBCBCB",
"V. c #ECC8C8",
"C. c #EDCBCB",
"Z. c #E1D4D4",
"A. c #E1DBDB",
"S. c #E4DADA",
"D. c #E9DDDD",
"F. c #F8D4D4",
"G. c #F9D7D7",
"H. c #ECE0E0",
"J. c #EDE3E3",
"K. c #EFE4E4",
"L. c #E8E8E8",
"P. c #ECECEC",
"I. c #EEEEEE",
"U. c #EFEFEF",
"Y. c #F5E0E0",
"T. c #F6E8E8",
"R. c #F7E8E8",
"E. c #F7EAEA",
"W. c #F9EDED",
"Q. c #F1F1F1",
"!. c #F3F3F3",
"~. c #F4F4F4",
"^. c #F7F7F7",
"/. c None",
/* pixels */
"/.z v v v v B B N z z z v z z /.",
"c :.1.5.5.1.8.q.5.1.,.,.2.2.O.c ",
"n ;.! Q ! >.v.G.F.c.;.W *.! &.n ",
"j ! X.L 9.W.i.L L u.W.9.Q =.X.j ",
"g X.#.o.E.E.J G J J G.E.$.#.X.g ",
"s ..+.h.^.V.F D F F B.^.h.R  .s ",
"u | @.B.Q.j.A A A F z.Q.x.Y { p ",
"2 I U H.U.y.t t r P k.^.K.} } y ",
"& r M D.P.r.e e e ' k.Q.J.' Z < ",
"% 0 0 s.U.f.w 0 0 l s.U.M.) n % ",
"$ 8 8 6.P.N._ j 8 8 g.L.t.C 9 @ ",
"@ , , 6 m.S.( q , 4 m.n.^ h 9 @ ",
"+ ; ; ; / m.e.3 > ` n.~ f 3 ; + ",
"O - - - 3 d w.a.a.w.u - - - - O ",
"o # * * 1 * * * * * * * * * # o ",
"/.X X X X X X X X X X X X X X /."
};
