/* XPM */
static char *picasa[] = {
/* columns rows colors chars-per-pixel */
"16 16 112 2",
"   c #F92D31",
".  c #FE7D08",
"X  c #F94043",
"o  c #F84145",
"O  c #F84C4F",
"+  c #F7585B",
"@  c #F8676A",
"#  c #F77376",
"$  c #2DAD1E",
"%  c #3AB12C",
"&  c #3EB231",
"*  c #56BA4A",
"=  c #61BD56",
"-  c #62BD58",
";  c #79C570",
":  c #7AC571",
">  c #7CC673",
",  c #FD8518",
"<  c #FC8C27",
"1  c #F99840",
"2  c #FAA252",
"3  c #FAA558",
"4  c #F6A862",
"5  c #F8AC67",
"6  c #1657AD",
"7  c #4174B9",
"8  c #4779BA",
"9  c #9D58BA",
"0  c #A362BE",
"q  c #A86CC1",
"w  c #A96DC2",
"e  c #A96EC2",
"r  c #AF79C6",
"t  c #8B8B8B",
"y  c #909090",
"u  c #939393",
"i  c #979797",
"p  c #9B9B9B",
"a  c #A0A0A0",
"s  c #A3A3A3",
"d  c #A8A8A8",
"f  c #ACACAC",
"g  c #B1B1B1",
"h  c #B4B4B4",
"j  c #B8B8B8",
"k  c #BDBDBD",
"l  c #F3BBB4",
"z  c #F4BCB5",
"x  c #F6BDB6",
"c  c #9ECF98",
"v  c #AED1B1",
"b  c #AFD2B2",
"n  c #F4CCA8",
"m  c #B686CA",
"M  c #B889CB",
"N  c #BA8DCD",
"B  c #BE96CF",
"V  c #BF96D0",
"C  c #84A3CD",
"Z  c #9BB3D4",
"A  c #ABBED7",
"S  c #D3BEDC",
"D  c #C2C2C2",
"F  c #C5C5C5",
"G  c #C9C9C9",
"H  c #CDCDCD",
"J  c #C2D8C7",
"K  c #C9DBC7",
"L  c #D6C1DF",
"P  c #EDC6CF",
"I  c #E6C7D6",
"U  c #F1D7D0",
"Y  c #F5D6D6",
"T  c #CEE0CC",
"R  c #EBE5DF",
"E  c #EDE5DE",
"W  c #EEE6DF",
"Q  c #D2D8E0",
"!  c #E5DBE9",
"~  c #DDE1E6",
"^  c #E3E3E3",
"/  c #E1E4E0",
"(  c #E2E3E4",
")  c #E4E5E4",
"_  c #E5E5E5",
"`  c #E5E5E6",
"'  c #E6E6E6",
"]  c #E7E7E7",
"[  c #E1E4E9",
"{  c #E9E3EB",
"}  c #EFE7E8",
"|  c #E9E9E9",
" . c #EAE8EB",
".. c #EAEAEA",
"X. c #ECECEC",
"o. c #EDEDED",
"O. c #EFEFEF",
"+. c #F1E1E2",
"@. c #F1E9EC",
"#. c #F1EFEC",
"$. c #F3F1EF",
"%. c #EFEEF0",
"&. c #F0F0F0",
"*. c #F1F1F1",
"=. c #F2F1F2",
"-. c #F3F2F3",
";. c #F3F3F3",
":. c #F4F3F1",
">. c #F4F4F4",
",. c #F5F5F5",
"<. c #FAFAFA",
"1. c None",
/* pixels */
"1.G G G G G G G G G G G G G G 1.",
"F *.<.<.<.<.<.<.<.<.<.<.<.<.*.F ",
"D >.>.>.;.@.# o X @ Y :.>.>.>.D ",
"k ;.;.*.N r P o     x 3 :.;.;.k ",
"j *.O.M 9 9 e I O   z . 2 #.*.j ",
"h *.L 9 9 9 q ! +.+ l . . n O.h ",
"g O.V 9 9 r { O.O.} U . . 5 O.g ",
"f o.q 9 m  .o.o.o.o.+.. . < o.f ",
"d o.0 B Z [ X.o.X.X.| , . , o.d ",
"s ..S C 6 ~ ..........< < 5 X.s ",
"a ..A 6 6 J ; ; ; ; ; ; ; T | a ",
"p ` ` 7 6 v $ $ $ $ $ $ > ` | p ",
"i ` ` Q 8 v $ $ $ $ $ = ) | ) i ",
"u ` _ ` ( K - & % * c / ) ) ) u ",
"u H _ ^ ^ ^ ^ ^ ^ ^ ( ( ( ) H u ",
"1.y t t t t t t t t t t t t y 1."
};
