/* XPM */
static char *terminal[] = {
/* columns rows colors chars-per-pixel */
"16 16 100 2",
"   c #000000",
".  c #040405",
"X  c #050506",
"o  c #09070A",
"O  c #0B0A0D",
"+  c #0D0B0E",
"@  c #0E0C0F",
"#  c #0E0C10",
"$  c #0F0E10",
"%  c #0F0E11",
"&  c #110E12",
"*  c #131015",
"=  c #121115",
"-  c #141115",
";  c #141316",
":  c #161417",
">  c #151318",
",  c #17141A",
"<  c #19161B",
"1  c #19161D",
"2  c #1A161D",
"3  c #1B191D",
"4  c #1C1820",
"5  c #1D1920",
"6  c #1F1B23",
"7  c #1F1C21",
"8  c #1F1B24",
"9  c #201E23",
"0  c #211C25",
"q  c #211E24",
"w  c #211D26",
"e  c #221F26",
"r  c #231E27",
"t  c #231F28",
"y  c #242027",
"u  c #242029",
"i  c #262229",
"p  c #25202A",
"a  c #26212A",
"s  c #28222D",
"d  c #29232E",
"f  c #28242C",
"g  c #29252D",
"h  c #2C272F",
"j  c #2B2630",
"k  c #2C2632",
"l  c #2D2733",
"z  c #2C2831",
"x  c #2C2832",
"c  c #2D2832",
"v  c #2F2A33",
"b  c #2F2935",
"n  c #2F2936",
"m  c #362E3D",
"M  c #362F3D",
"N  c #38323D",
"B  c #3B3B3B",
"V  c #393141",
"C  c #393241",
"Z  c #3E3646",
"A  c #433A4C",
"S  c #4C4256",
"D  c #525054",
"F  c #57535C",
"G  c #5B5A5C",
"H  c #625F66",
"J  c #6B676F",
"K  c #747077",
"L  c #747276",
"P  c #7B7A7D",
"I  c #7D7B7F",
"U  c #888888",
"Y  c #919191",
"T  c #9B9B9B",
"R  c #A6A4A9",
"E  c #A7A6A8",
"W  c #AEABB0",
"Q  c #B7B7B7",
"!  c #B9B7BA",
"~  c #BAB8BB",
"^  c #C1C1C1",
"/  c #C4C4C4",
"(  c #C8C8C8",
")  c #C9C8CA",
"_  c #CBCBCB",
"`  c #CECDCF",
"'  c #CFCFCF",
"]  c #D2D2D2",
"[  c #D6D6D6",
"{  c #D8D6D9",
"}  c #D9D9D9",
"|  c #DAD9DB",
" . c #DBDADC",
".. c #DCDBDE",
"X. c #E0E0E1",
"o. c #E2E2E2",
"O. c #E6E6E6",
"+. c #F0F0F0",
"@. c #F7F7F7",
"#. c None",
/* pixels */
"#.#.#.#.#.#.#.#.#.#.#.#.#.#.#.#.",
"#.#.+.@.@.@.@.@.@.@.@.@.@.+.#.#.",
"#.O.P : @ @ & @ = $ $ $ : I O.#.",
"#.o.; 3 7 7 7 7 3 9 7 7 3 : o.#.",
"#.} @ 7 7 7 9 7 7 9 7 7 9 $ } #.",
"#.[ @ 7 E D t q r q 9 9 7 @ [ #.",
"#.] @ q L ' ! H c h f f y @ ] #.",
"#.' % f c N R X.k i 3 > & X ' #.",
"#.) = n F W ) K i q 0 1 & X _ #.",
"#.) ; j ~ J n n n k d q 1 o ) #.",
"#./ # 8 d n m C { ....} 8 O / #.",
"#.^ @ q n m Z A A Z m k t @ ^ #.",
"#.Q ; 0 n V A S S A C n 0 ; Q #.",
"#.Y G < , 7 8 t t 0 7 > < G Y #.",
"#.B U T T T T T T T T T T U B #.",
"#.#.                        #.#."
};
