/* XPM */
static char *xchat[] = {
/* columns rows colors chars-per-pixel */
"16 16 114 2",
"   c #45650E",
".  c #47670E",
"X  c #4B6C10",
"o  c #4F6F13",
"O  c #547515",
"+  c #597B18",
"@  c #5E811B",
"#  c #63871D",
"$  c #699717",
"%  c #68901D",
"&  c #69911D",
"*  c #6B931F",
"=  c #6D971D",
"-  c #6D981C",
";  c #6D981D",
":  c #6E991D",
">  c #6F991F",
",  c #6F9A1F",
"<  c #729E1E",
"1  c #72A01C",
"2  c #75A31F",
"3  c #75A51D",
"4  c #78A71F",
"5  c #75A819",
"6  c #7AAD1D",
"7  c #698E21",
"8  c #6C9321",
"9  c #6C9420",
"0  c #6E9621",
"q  c #6D9522",
"w  c #6E9424",
"e  c #6F9820",
"r  c #6F9920",
"t  c #709822",
"y  c #719923",
"u  c #739D23",
"i  c #749D23",
"p  c #759F23",
"a  c #729927",
"s  c #749B27",
"d  c #749C25",
"f  c #759E25",
"g  c #759C27",
"h  c #769D29",
"j  c #779E2B",
"k  c #789E2F",
"l  c #78A126",
"z  c #7AA624",
"x  c #7DAB25",
"c  c #7AA328",
"v  c #7AA12A",
"b  c #7FB220",
"n  c #7DA333",
"m  c #80A72D",
"M  c #80AC29",
"N  c #83AE2C",
"B  c #80B122",
"V  c #82B423",
"C  c #84B723",
"Z  c #86B726",
"A  c #86B826",
"S  c #89BC27",
"D  c #86AE31",
"F  c #81A43D",
"G  c #8DB736",
"H  c #90BE32",
"J  c #92BB37",
"K  c #94BE38",
"L  c #94BF3A",
"P  c #8EC12A",
"I  c #93C72E",
"U  c #98CC31",
"Y  c #98C935",
"T  c #9ACC35",
"R  c #9DD135",
"E  c #A2D638",
"W  c #A7DB3B",
"Q  c #A9DC3E",
"!  c #ACE03F",
"~  c #83A542",
"^  c #85A744",
"/  c #86A942",
"(  c #86A648",
")  c #87A64C",
"_  c #8CAA53",
"`  c #8EAD53",
"'  c #92AF59",
"]  c #98B266",
"[  c #A5BE74",
"{  c #A5BE76",
"}  c #B1E542",
"|  c #B7E751",
" . c #ACC47F",
".. c #BDE46A",
"X. c #CAEF7A",
"o. c #B2C887",
"O. c #B6CB8D",
"+. c #B9CB97",
"@. c #BCCC9D",
"#. c #BDCD9F",
"$. c #D6E2BF",
"%. c #DAE4C7",
"&. c #DAE2CA",
"*. c #DFE5D6",
"=. c #E1E8D2",
"-. c #E3EBD5",
";. c #EBEDE8",
":. c #EDEEE9",
">. c #F1F3EC",
",. c #F5F5F5",
"<. c #F6F6F6",
"1. c #FAFAFA",
"2. c #FDFDFC",
"3. c None",
/* pixels */
"3.K K Y L L L L L L L L L L K 3.",
"J ..X.X.X.X.X.X.X.X.X.X.X.X...J ",
"G | } } } } } } } } } } } } | G ",
"D ! ! Q ! H N z v N H W ! Q } D ",
"n W Q Y l d F 2.n O.$.l Y W W m ",
"v E T d d j o.-.j %.o.h d T E v ",
"s R M t [ 1.1.1.1.1.1.=.t M R s ",
"w U d t k ^ >.[ [ >.^ F t d U w ",
"8 P l 0 ~ ' <.` +.&.~ a 0 u I 7 ",
"# P x q ,.,.,.,.<.<.<.( * z P # ",
"@ S A e * @.@.q :._ * * e A S @ ",
"+ C C V e *.] ) ;.8 * ; b C C + ",
"O b b b 2 % = - ; < z b b b b O ",
"o 6 6 3 - < 6 6 6 6 5 6 6 6 6 o ",
"X $ 5 5 5 5 5 5 5 5 5 5 5 5 $ X ",
"3..             . .     . . . 3."
};
