/* XPM */
static char *xterm___x__[] = {
/* columns rows colors chars-per-pixel */
"16 16 123 2",
"   c #000000",
".  c #040405",
"X  c #050506",
"o  c #09070A",
"O  c #0B0A0D",
"+  c #0D0B0E",
"@  c #0E0C0F",
"#  c #0E0C10",
"$  c #0F0E10",
"%  c #0F0E11",
"&  c #110E13",
"*  c #131114",
"=  c #131015",
"-  c #141215",
";  c #151316",
":  c #161317",
">  c #161417",
",  c #171419",
"<  c #17141A",
"1  c #18151B",
"2  c #19161D",
"3  c #1A161D",
"4  c #1C1820",
"5  c #1C1920",
"6  c #1F1B23",
"7  c #1F1C21",
"8  c #1F1B24",
"9  c #201D22",
"0  c #211F23",
"q  c #211C25",
"w  c #221E24",
"e  c #211D26",
"r  c #231F28",
"t  c #222024",
"y  c #242026",
"u  c #242029",
"i  c #262229",
"p  c #27222B",
"a  c #28242B",
"s  c #28232C",
"d  c #28222D",
"f  c #2D2A2F",
"g  c #2C2630",
"h  c #2C2631",
"j  c #2D2930",
"k  c #2E2831",
"l  c #2F2A33",
"z  c #2F2C32",
"x  c #2F2B35",
"c  c #312D33",
"v  c #302A34",
"b  c #312B36",
"n  c #342E39",
"m  c #39343B",
"M  c #39373B",
"N  c #3B3B3B",
"B  c #3B383F",
"V  c #3C393E",
"C  c #393141",
"Z  c #393241",
"A  c #3A3540",
"S  c #3E3646",
"D  c #3F3A43",
"F  c #423E45",
"G  c #423A48",
"H  c #433A4C",
"J  c #443B4D",
"K  c #454246",
"L  c #46404B",
"P  c #4A464B",
"I  c #48434D",
"U  c #4C4256",
"Y  c #4F4657",
"T  c #514C55",
"R  c #535155",
"E  c #58565A",
"W  c #58525E",
"Q  c #5B5A5C",
"!  c #5C585F",
"~  c #5C5A5E",
"^  c #5B5562",
"/  c #5E5A64",
"(  c #625E65",
")  c #635F65",
"_  c #635E67",
"`  c #646266",
"'  c #646069",
"]  c #66626C",
"[  c #716F72",
"{  c #777578",
"}  c #79777A",
"|  c #7A777C",
" . c #7A777D",
".. c #7A747F",
"X. c #7A767E",
"o. c #7B777F",
"O. c #7A797C",
"+. c #7C7B7E",
"@. c #7D7A7F",
"#. c #7E7A82",
"$. c #7D7C80",
"%. c #827F85",
"&. c #878787",
"*. c #86828B",
"=. c #87828C",
"-. c #919191",
";. c #9B9B9B",
":. c #B7B7B7",
">. c #C1C1C1",
",. c #C4C4C4",
"<. c #C8C8C8",
"1. c #CBCBCB",
"2. c #CFCFCF",
"3. c #D2D2D2",
"4. c #D3D3D3",
"5. c #D6D6D6",
"6. c #D9D9D9",
"7. c #E2E2E2",
"8. c #E4E4E5",
"9. c #E5E5E5",
"0. c #F0F0F0",
"q. c #F7F7F7",
"w. c None",
/* pixels */
"w.w.w.w.w.w.w.w.w.w.w.w.w.w.w.w.",
"w.w.0.q.q.q.q.q.q.q.q.q.q.0.w.w.",
"w.9.+.> @ @ @ % & $ $ $ > $.9.w.",
"w.7.; t [ } f 9 3 t 9 E t > 7.w.",
"w.6.@ 7 V } ` 9 7 7 K N 7 $ 6.w.",
"w.5.@ 7 7 ~ O.P t k R 7 7 @ 5.w.",
"w.3.@ w i c | +.M ) k i t @ 4.w.",
"w.2.% a k b T %.` A 5 , & X 2.w.",
"w.1.= k n x F ^ | F 8 2 = X 2.w.",
"w.<.> h r h ) A #.| x 8 2 o <.w.",
"w.,.@ 8 s / G C ^ %._ d 8 O ,.w.",
"w.>.+ i J W S J J #.=.U r + >.w.",
"w.:.; i _ C J U U Y *.#.s ; :.w.",
"w.-.E 2 1 5 q r r q 2 , 1 Q -.w.",
"w.N &.;.;.;.;.;.;.;.;.;.;.&.N w.",
"w.w.                        w.w."
};
