#define desk_width 6
#define desk_height 6
static unsigned char desk_bits[] = {
   0x00, 0x00, 0x30, 0x3e, 0x30, 0x00 };
