/* XPM */
static char *locked[] = {
/* columns rows colors chars-per-pixel */
"24 24 33 1 ",
"  c black",
". c #353535",
"X c #434343",
"o c gray56",
"O c #939393",
"+ c gray60",
"@ c #9A9A9A",
"# c gray64",
"$ c #ACACAC",
"% c gray69",
"& c #B4B4B4",
"* c gray72",
"= c #BCBCBC",
"- c #C0C0C0",
"; c gray77",
": c #C8C8C8",
"> c gray80",
", c gray81",
"< c gray82",
"1 c #D2D2D2",
"2 c #D5D5D5",
"3 c #D7D7D7",
"4 c gray85",
"5 c #DDDDDD",
"6 c #E1E1E1",
"7 c gray89",
"8 c gray90",
"9 c #E6E6E6",
"0 c gray91",
"q c gray93",
"w c #EEEEEE",
"e c #F6F6F6",
"r c None",
/* pixels */
"rrrrrrrrrrrrrrrrrrrrrrrr",
"rrrrrrrrrrrrrrrrrrrrrrrr",
"rrrrrrrrrrrrrrrrrrrrrrrr",
"rrrrrrrrrrrrrrrrrrrrrrrr",
"rrrrrrrrr#weeeew#rrrrrrr",
"rrrrrrrrr80888808rrrrrrr",
"rrrrrrrrr86X  X68rrrrrrr",
"rrrrrrrrr55rrrr55rrrrrrr",
"rrrrrrrrr44rrrr44rrrrrrr",
"rrrrrrrrr22rrrr22rrrrrrr",
"rrrrrrr@8<<wwww<<8@rrrrr",
"rrrrrrr2<>>>>>>>><2rrrrr",
"rrrrrrr>::::::::::>rrrrr",
"rrrrrrr:;;;;;;;;;;;rrrrr",
"rrrrrrr==;=;;==;=;;rrrrr",
"rrrrrrr============rrrrr",
"rrrrrrr==&=&=&=&=&=rrrrr",
"rrrrrrr&&&&&&&&&&&&rrrrr",
"rrrrrrrO&$$&&$&$&$Orrrrr",
"rrrrrrr.o$$$$$$$$o.rrrrr",
"rrrrrrrrr        rrrrrrr",
"rrrrrrrrrrrrrrrrrrrrrrrr",
"rrrrrrrrrrrrrrrrrrrrrrrr",
"rrrrrrrrrrrrrrrrrrrrrrrr"
};
