/* XPM */
static char *baobab[] = {
/* columns rows colors chars-per-pixel */
"24 24 48 1",
"  c #4674467146A6",
". c #4D8D4D8D4D8D",
"X c #437040C45AFB",
"o c #56A256A056B8",
"O c #5C105C0D5C15",
"+ c #54A852206A78",
"@ c #643A643C643A",
"# c #750875087508",
"$ c #7AF97AF97AF9",
"% c #47FA39A79DC9",
"& c #6E5F5DFFE5D6",
"* c #6D0D61A1E850",
"= c #79DD6BA0ED78",
"- c #89677A1AD1B1",
"; c #878E7D17F557",
": c #8B498B498B49",
"> c #9E959E959E95",
", c #B3DCB3DCB3DC",
"< c #91F18552CFD8",
"1 c #8F408926F1A4",
"2 c #A4B6A566F8B1",
"3 c #E82EE827E844",
"4 c #E731E568ED62",
"5 c #EACFEACCEAD9",
"6 c #EC5DEC59EC6E",
"7 c #ECFBECC3EDBB",
"8 c #EDA1ED9FEDA9",
"9 c #ED6BECCAEF68",
"0 c #F025F025F025",
"q c #EAF6E791F3C5",
"w c #EBBAE7A8F551",
"e c #EB66E86BF340",
"r c #F12DF12DF12E",
"t c #F196F196F195",
"y c #F28EF28EF28E",
"u c #F444F444F444",
"i c #F4C4F4C3F4C4",
"p c #F65FF65FF65F",
"a c #F6ACF6ACF6AD",
"s c #F7D8F7D8F7D9",
"d c #F912F912F913",
"f c #FA12FA12FA12",
"g c #FB14FB14FB15",
"h c #FC20FC20FC20",
"j c #FD1AFD1AFD1A",
"k c #FE07FE07FE07",
"l c #FEC4FEC4FEC4",
"z c None",
/* pixels */
"zzzzzzzzzzzzzzzzzzzzzzzz",
"zzzzzzzzzzzzzzzzzzzzzzzz",
"zzzzkkkkkkkkkkkkkhkhzzzz",
"zzzzkkkkkkkkkkkkkkhhzzzz",
"zzzkkkkkkkkkkkkkhhhhhzzz",
"zzzkkkkkkkhkkkhkhhhhhzzz",
"zzzkkkkkkkhhhhhhhhhhhzzz",
"zzzkkkkkhhhhshhhshsshzzz",
"zzkkhhshhhhhshshssssszzz",
"zzhhshhhhsshsssusssssszz",
"zzhhhhhsssdssssssussuuzz",
"zzhhhhhhhsdsssussuuuuuzz",
"zzhhhhshshsssssuuuuuuuzz",
"zhhhhhsssssssuuuuuu0000z",
"zhhsssssssuuuuuu0000005z",
"zshssssssuuuuuu00000050z",
"zhssssuuuuuu00u05006766z",
"ssussuuuuu00000605667e03",
"zuu00u000050550555q6wq4z",
"z,:$#@OoOOOoOOooo+%&;=<z",
"z>#Oo.. ...ooo...X%*21-z",
"zzzzzzzzzzzzzzzzzzzzzzzz",
"zzzzzzzzzzzzzzzzzzzzzzzz",
"zzzzzzzzzzzzzzzzzzzzzzzz"
};
