/* XPM */
static char *browser[] = {
/* columns rows colors chars-per-pixel */
"24 24 35 1",
"  c #7EE67EEF7EEA",
". c #91F791CA91DC",
"X c #9C389C739C3F",
"o c #B01EB022B01D",
"O c #B405B402B3F3",
"+ c #BB36BAF1BB1C",
"@ c #CF22CF20CF24",
"# c #D4BBD4BAD4B0",
"$ c #D862D852D856",
"% c #DF24DF2EDF23",
"& c #E271E263E256",
"* c #E64FE660E654",
"= c #E8F6E8EAE8E3",
"- c #EAD9EADAEAE0",
"; c #ECB0ECA0EC9B",
": c #EE09EE01EE04",
"> c #EEA2EEB1EEA8",
", c #EFCBEFD5EFCE",
"< c #F06DF088F08B",
"1 c #F219F219F21C",
"2 c #F2E5F2E7F2E7",
"3 c #F40CF3DFF3DF",
"4 c #F46AF479F467",
"5 c #F4FFF4FDF4FD",
"6 c #F65AF653F658",
"7 c #F715F712F710",
"8 c #F831F82DF82A",
"9 c #F908F8F5F8F4",
"0 c #F9FBF9EAF9E8",
"q c #FB0DFB0CFB0D",
"w c #FBDCFBDCFBDC",
"e c #FC77FC7DFC77",
"r c #FCFAFCFAFCFA",
"t c #FE19FE17FE18",
"y c None",
/* pixels */
"yyyyyyyyyyyyyyyyyyyyyyyy",
"yyyyyyyyyyyrrrryyyyyyyyy",
"yyyyyyywrryyyrrrryyyyyyy",
"yyyyyyyy=wyyrrrr=yryyyyy",
"yyyyywwwwrrrrwwyyyyyyyyy",
"yyyyyywy*wrrrr,yyyyyyyyy",
"yyyyyyyywwrrewyyyyyyyyyy",
"yyyyyyywwwwwwwywyyyyywyy",
"yyyyyywwwwwwwwy,7wyyyyyy",
"yyyyw8www8ww7yyyyyyyyywy",
"yyy37ww78w88wyyyyyyyy7wy",
"yww&*77ww78w7yyyyyyyyw7y",
"yy7w,#.#7w777yyyyyyy77wy",
"yy777yyy#4777777yyyy777y",
"yy777yyyyO,77777yyyy777y",
"yy337yyyyy,33373yyy333yy",
"yy=333yyyy333333yyy333yy",
"yyy=33yyyy333,3<yyy33yyy",
"yyyy*3,yy,,,,3,,,y,,,yyy",
"yyyy+*,y=,,,,=,,,,,=yyyy",
"yyyyyX$=,=,,=,=,;=%yyyyy",
"yyyyyyyO#**===*%@yyyyyyy",
"yyyyyyyyy XoOOXyyyyyyyyy",
"yyyyyyyyyyyyyyyyyyyyyyyy"
};
