/* XPM */
static char *ccc_large[] = {
/* columns rows colors chars-per-pixel */
"24 24 19 1",
"  c #D6DFD6F5D6CE",
". c #E56BE578E571",
"X c #EB37EB3BEB2B",
"o c #ECA5ECA5ECA0",
"O c #EDF9EDF9EDE8",
"+ c #EED9EEDEEEDA",
"@ c #F091F08FF088",
"# c #F2C1F2C3F2C1",
"$ c #F3F9F3F8F3F9",
"% c #F558F557F558",
"& c #F5D7F5D0F5D3",
"* c #F6FDF6F8F6F5",
"= c #F7F6F7F8F7E0",
"- c #F92BF92AF929",
"; c #FA52FA4DFA4F",
": c #FAE7FAE6FAE6",
"> c #FBEBFBEBFBEA",
", c #FD2BFD2CFD2A",
"< c None",
/* pixels */
"<<<<<<<<<<<<<<<<<<<<<<<<",
"<<<<<<<<<<<<<<<<<<<<<<<<",
"<<<<<<<<<<<<<<<<<<<<<<<<",
"<<<<<<<<<<<<<<<<<<<<<<<<",
"<<<<<<<<<<<<<<<<<<<<<<<<",
"<<<<<<<<<<<<<<<<<<<<<<<<",
"<<<<<<<<<<<<<<<<<<<<<<<<",
"<<<<<<<<<,,<<,,,,,,<<<<<",
"<<<<<<<<,,>>>,,,>>>><<<<",
"<<<<<<<>>,>><X#>>=#<>>><",
"<<<<<<>>>>>><<<>><<<>>><",
"<<<<<>>>=>>=<<<>><<<=>=<",
"<<<<=>== ===<<<>><<<==><",
"<<<=>==@<===<<<==<<<===<",
"<<===#<=#===<<<==<<<#==<",
"<<#=#<<.<##=<<<==<<<###<",
"<<++<<<<<++<<<<++<<<<+#<",
"<<<<<<<<<<<<<<<<<<<<<<<<",
"<<<<<<<<<<<<<<<<<<<<<<<<",
"<<<<<<<<<<<<<<<<<<<<<<<<",
"<<<<<<<<<<<<<<<<<<<<<<<<",
"<<<<<<<<<<<<<<<<<<<<<<<<",
"<<<<<<<<<<<<<<<<<<<<<<<<",
"<<<<<<<<<<<<<<<<<<<<<<<<"
};
