/* XPM */
static char *cmake[] = {
/* columns rows colors chars-per-pixel */
"24 24 25 1",
"  c #66F166F366F3",
". c #DFF6DFFADFFA",
"X c #E0EFE0F0E0F0",
"o c #E2F5E2F9E2F4",
"O c #EB3DEB3EEB3B",
"+ c #EC11EC11EC11",
"@ c #EDE2EDDDEDD7",
"# c #EF3FEF41EF3F",
"$ c #F05FF059F01F",
"% c #F0F3F0F4F0F3",
"& c #F238F22AF229",
"* c #F327F32AF327",
"= c #F3C6F3C5F3C3",
"- c #F493F493F48D",
"; c #F583F57FF56B",
": c #F615F614F5EC",
"> c #F737F734F725",
", c #F813F810F80C",
"< c #F91CF919F913",
"1 c #F9DDF9DEF9E3",
"2 c #FB1CFB1CFB1D",
"3 c #FC38FC38FC38",
"4 c #FCFBFCFBFCFB",
"5 c #FDD8FDD8FDD8",
"6 c None",
/* pixels */
"666666666666666666666666",
"666666666666666666666666",
"666666666665566666666666",
"666666666665566666666666",
"666666666655556666666666",
"666666666635556666666666",
"666666666333333666666666",
"666666666333333666666666",
"666666663333333,66666666",
"66666666,3,33,3366666666",
"6666666333,3,3,,,6666666",
"6666666,,,,,,,,336666666",
"666666,,,,,,@,,,,,666666",
"666666,,,,,=6=,,,,666666",
"66666,,,===66==,,,,66666",
"66666====6666======66666",
"6666=@===6666@======6666",
"6666===@@==@6@@==@$=6666",
"666@@=@@=@@@=@@=@=@$@666",
"666@@@@@@@@@@@@@@@@@@666",
"66++++++++++++++++++@@66",
"66..................XX66",
"666 66666666666666666666",
"666666666666666666666666"
};
