/* XPM */
static char *DC__[] = {
/* columns rows colors chars-per-pixel */
"24 24 30 1",
"  c #B42CB46FB42C",
". c #BA68BA68BA57",
"X c #C9E9C9F8C9C1",
"o c #CED0CEF7CED2",
"O c #D3EFD3EDD3D6",
"+ c #D8BED8CCD8C6",
"@ c #DCF8DD0EDD01",
"# c #DF5BDF6CDF4C",
"$ c #E25CE255E23A",
"% c #E608E60BE60D",
"& c #E919E91FE918",
"* c #EC28EC2CEC28",
"= c #ECF5ECE1ECF1",
"- c #EEBAEEB7EEB3",
"; c #EFF4EFF1EFF9",
": c #F08CF086F08F",
"> c #F183F185F188",
", c #F27AF26EF280",
"< c #F341F340F341",
"1 c #F51EF51BF51F",
"2 c #F5A1F5A0F59D",
"3 c #F6F3F6F6F6FA",
"4 c #F7E0F7DEF7DB",
"5 c #F924F923F922",
"6 c #FA19FA17FA1F",
"7 c #FB0EFB10FB0E",
"8 c #FC26FC25FC25",
"9 c #FD09FD09FD09",
"0 c #FDE8FDE9FDE9",
"q c None",
/* pixels */
"qqqqqqqqqqqqqqqqqqqqqqqq",
"qqqqqqqqq999999qqqqqqqqq",
"qqqqqqq9999999999qqqqqqq",
"qqqqqq9899999999999qqqqq",
"qqqq9998&&<899999999qqqq",
"qqqq994qqqq+999988999qqq",
"qqq888qqqqqq=88<=<488qqq",
"qqq88qqqqqqqq4=&&&%<88qq",
"qq488qqqqqqqq&&&&&&&88qq",
"qq888qqqqqqqq&&&&&&&<8qq",
"qq4884qqqqqq=&&&&&&&=58q",
"qq84848qqqqq%%&&&&&&<44q",
"qq484444qqqqq &&&&&&<58q",
"qq44444qqqqqqqo%%%%=44qq",
"qq<4444qqqqqqq$&%&:44<qq",
"qq=<<4<qqqqqqq<41<4<<4qq",
"qqq<44<qqqqqqq<<4<<4<qqq",
"qqq@=<<<qqqqqq<<<<<<=qqq",
"qqqq+<<==qqqq<<<=<<=qqqq",
"qqqqqO=<<=<<=<===:&qqqqq",
"qqqqqq.$==<===<=&@qqqqqq",
"qqqqqqqq O@$%$+Xqqqqqqqq",
"qqqqqqqqqqqqqqqqqqqqqqqq",
"qqqqqqqqqqqqqqqqqqqqqqqq"
};
