/* XPM */
static char *dia_menu[] = {
/* columns rows colors chars-per-pixel */
"24 24 56 1",
"  c #918C918491F3",
". c #939B93B1934F",
"X c #9846984C9858",
"o c #AA1ABF14911B",
"O c #B77AB786B799",
"+ c #C1FBDA8D9FA0",
"@ c #E53CF86CB371",
"# c #C134C132C149",
"$ c #C454C430C425",
"% c #D607D61ED602",
"& c #D676D663D670",
"* c #DCD6DCDADCBB",
"= c #DE6AEC98C8D2",
"- c #ED8DF93AD439",
"; c #E28AE304E204",
": c #E706E715E70E",
"> c #E7C3E7BFE7A5",
", c #E9EBE9F7E9CF",
"< c #EB33EB2DEB32",
"1 c #ECECECFFECEE",
"2 c #EDE3EDE7EDE4",
"3 c #EEF7EEF1EEE9",
"4 c #F03CF041F042",
"5 c #EC88F3CFE269",
"6 c #EF83F679E4EF",
"7 c #F2F6F9BDE71F",
"8 c #F167F689EA6E",
"9 c #F32FF5F6EFEC",
"0 c #F4F3FA0EECBC",
"q c #F681FB27EECD",
"w c #F14BF149F146",
"e c #F1DCF1DEF1E7",
"r c #F24FF389F10F",
"t c #F2F0F2ECF2F6",
"y c #F3E2F3E6F3E7",
"u c #F4F9F4FEF4FB",
"i c #F661F661F662",
"p c #F707F6FFF701",
"a c #F816F816F814",
"s c #F604F94AF1B3",
"d c #F79EFA83F3A2",
"f c #F856F88AF825",
"g c #F893FB63F4A3",
"h c #FA1CFBA3F83C",
"j c #F90CF909F912",
"k c #F9F8F9FDF9F8",
"l c #FAE0FB5DFA67",
"z c #FAF4FAF0FAF6",
"x c #FBD6FBD7FBDA",
"c c #FC2AFD6DFA7D",
"v c #FC53FCC6FBDF",
"b c #FCF8FDADFC14",
"n c #FCF2FCFEFCEB",
"m c #FD87FDD0FD30",
"M c #FDC9FDCBFDC7",
"N c None",
/* pixels */
"NNNNNNNNNNNNNNNNNNNNNNNN",
"NNNN@NNNNNNNNNNNNNNNNNNN",
"NNN-bbnqNNNNNNNNNNNNNNNN",
"NNn7nnnggnnnnnNNNNNNNNNN",
"Nnn0nnngbnnnnnnnnnNNNNNN",
"Njf6bnndsjjjjnnnnnnnNNNN",
"NNN+588=oNNN$NO&3jnnnNNN",
"NNNNrjjNNNNNnNNNNOyxxxNN",
"NNNNjxxNNNNjnNNNNNNrjxNN",
"NNNNaxjNNNNjnjNNNNNNuxxN",
"NNNNujjNNNjjjjNNNNNNrjxN",
"NNNNujjNNNju,jjNNNNNNaaN",
"NNNNuaaNNjjNNujNNNNNNjaN",
"NNNNraaNNuuNN3uuNNNNuuaN",
"NNNNruuNujuuuujuNNNNuayN",
"NNNN3uu3>>>>,>>,4NNyuyNN",
"NNNN3yyNNNNNNNNNNyryy<NN",
"NNNN3rr3NNNNNNNr4ry4>NNN",
"N44r4444r44rr444e2>NNNNN",
"N<,<223<,<>,,,>;&#NNNNNN",
"NNXX*,<$ X .X.NNNNNNNNNN",
"NNNNN;;NNNNNNNNNNNNNNNNN",
"NNNNNNNNNNNNNNNNNNNNNNNN",
"NNNNNNNNNNNNNNNNNNNNNNNN"
};
