/* XPM */
static char *evince[] = {
/* columns rows colors chars-per-pixel */
"24 24 29 1",
"  c #B512B51FB50B",
". c #CDEECDE2CDD3",
"X c #DA6EDA56DA6C",
"o c #DAEDDAD4DAEA",
"O c #DE19DE19DE0B",
"+ c #E07CE076E076",
"@ c #E24FE23FE24B",
"# c #E683E67AE673",
"$ c #E77CE77BE772",
"% c #EA2CEA38EA1F",
"& c #EC97EC92ECA2",
"* c #EE6BEE68EE67",
"= c #EFCAEFCDEFCA",
"- c #F089F089F08A",
"; c #F1F3F1E9F1F3",
": c #F33FF33CF342",
"> c #F4A7F4A3F4A6",
", c #F600F603F60C",
"< c #F684F673F677",
"1 c #F6B7F6AFF6B1",
"2 c #F7FFF7FDF7FB",
"3 c #F91DF925F928",
"4 c #F9EFF9E8F9E4",
"5 c #FAFBFAF7FAF4",
"6 c #FB76FB88FB75",
"7 c #FC28FC2CFC29",
"8 c #FD15FD16FD16",
"9 c #FE25FE24FE23",
"0 c None",
/* pixels */
"000000000000000000000000",
"000000088800000000000000",
"000000088800000000000000",
"000000082780000000000000",
"000000078880000000000000",
"000000028870000000000000",
"000000007770000000000000",
"00000000>770000000000000",
"000000002777000000000000",
"0000000022=7700000000000",
"00000000220=270000000000",
"000000002200=22000000000",
"0000000220000&2200000000",
"00000002200000&>22020000",
"00000002=000---2->---200",
"000000=-=--2-&#oo=2=.=-0",
"000000=--=+. 0000 +=&==0",
"0000===#.0000000000 .o00",
"000=&&&00000000000000000",
"00&oo&#00000000000000000",
"00#+##000000000000000000",
"00.+o0000000000000000000",
"000000000000000000000000",
"000000000000000000000000"
};
