/* XPM */
static char *gbrainy[] = {
/* columns rows colors chars-per-pixel */
"24 24 31 1",
"  c #C1A4C1CDC1C1",
". c #C9BAC9D3C9C3",
"X c #CC54CC88CC77",
"o c #D02BD08DD06C",
"O c #D724D71CD71E",
"+ c #DE5CDE55DE5A",
"@ c #DF3FDF39DF58",
"# c #E0ABE0BAE0B8",
"$ c #E38AE390E396",
"% c #E58DE5A5E5A3",
"& c #E7E0E7DBE7DE",
"* c #EA27EA20EA29",
"= c #EB54EB55EB5E",
"- c #EC49EC4DEC5B",
"; c #ED2DED2EED28",
": c #EFF3EFEFEFF3",
"> c #F1EAF1E6F1EB",
", c #F352F352F353",
"< c #F419F41AF418",
"1 c #F511F519F514",
"2 c #F5D6F5C8F5CB",
"3 c #F6B8F6BBF6B9",
"4 c #F7FCF7FEF7FD",
"5 c #F906F905F905",
"6 c #FA4AFA4DFA4C",
"7 c #FB01FB00FAFC",
"8 c #FBE2FBDCFBE0",
"9 c #FCDFFCDFFCDE",
"0 c #FDFFFDFBFE00",
"q c #FE8CFE84FE8B",
"w c None",
/* pixels */
"wwwwwwwwwwwwwwwwwwwwwwww",
"wwqqqqqqqqqqqqqqqqqqqqww",
"wqqqqq8qqqqqqqqqqqqqqqqw",
"w8qqqqqqq88888qq8qqqqq8w",
"wqqq8q84$ %4$w+,889q9qqw",
"w88q84wwwwww8wwwX,8888qw",
"w8888wwwwwww8wwwww$8q88w",
"w888wwwwwww8wwwwwww$888w",
"w48wwwwwww8wwww8848w488w",
"w88wwwwwwwwww8,44ww4=88w",
"w88wwwwww4444www4wwww48w",
"w48wwwwww:wwwwwww4www44w",
"w444www4,wwwwwwww4www44w",
"w444444,wwwwwwwww4,4444w",
"w,,4444wwwwwwwww,=ww,4,w",
"w,,4,4,4wwwwww,,wwww:,4w",
"w:<,,,4,,,,,==wwwwww,,,w",
"w,:,,,,:,:,,%O:wwww,,,,w",
"w=,:,::::,::,ww=::::,::w",
"w:::::::::::::w$:::::::w",
"w==:=:=::=:==::%=:=:=:=w",
"w+===-================%w",
"ww XXXXXXXXXXXXXXXXXXOww",
"wwwwwwwwwwwwwwwwwwwwwwww"
};
