/* XPM */
static char *geany[] = {
/* columns rows colors chars-per-pixel */
"24 24 28 1",
"  c #92A493369316",
". c #C53EC53DC541",
"X c #D5E2D626D5FF",
"o c #D813D83AD844",
"O c #D9ADD9BCD98A",
"+ c #E166E185E182",
"@ c #E483E491E485",
"# c #E79FE79FE7A8",
"$ c #E903E901E8F7",
"% c #EB64EB7CEB7A",
"& c #ED19ED0EED00",
"* c #EDA0ED99ED8A",
"= c #EE89EE8EEEA3",
"- c #F018F019F014",
"; c #F0E2F0E1F0DE",
": c #F299F299F2AF",
"> c #F3A2F399F396",
", c #F53FF53EF53E",
"< c #F609F602F603",
"1 c #F6ECF6E6F6E6",
"2 c #F83AF83AF839",
"3 c #F8D6F8E1F8D9",
"4 c #F9FAF9F4F9FA",
"5 c #FB42FB40FB3F",
"6 c #FBC9FBCEFBCA",
"7 c #FD0CFD0DFD0A",
"8 c #FDC8FDCAFDC8",
"9 c None",
/* pixels */
"999999999999999999999999",
"999999999999999999999999",
"999999999999999997779999",
"999999999999977555999999",
"99999999999975&999999999",
"999999999995599999999999",
"999999999955999599999999",
"999999999559995299999999",
"99999995599955,999999999",
"9999999,9955:99999999999",
"99999,5,,&%9999999999999",
"99,,,9999999999999999999",
"9,:999999999999999999999",
"9,9999999999999999999999",
"999999999999999999999999",
"9999999999:::999999::999",
"99::999999#&&9999:&XX&99",
"999#:9999:&::::::&999#99",
"9999+:99:&&&&:&&&99&&%99",
"99999O&&&&&&%&&%#9999999",
"999999.#%%%%%%%+99999999",
"9999999 .XXXOoX999999999",
"999999999999999999999999",
"999999999999999999999999"
};
