/* XPM */
static char *gnome_activity_journal[] = {
/* columns rows colors chars-per-pixel */
"24 24 21 1",
"  c #DC08DC2EDC1B",
". c #DEAEDEB4DEAE",
"X c #E0B7E0C8E0CE",
"o c #E5E0E5E8E5FD",
"O c #EAE0EAE0EADF",
"+ c #EBC2EBCFEBB6",
"@ c #ED91ED8CED85",
"# c #EF60EF62EF5F",
"$ c #F20BF20DF211",
"% c #F335F332F330",
"& c #F472F473F476",
"* c #F62DF62AF628",
"= c #F6CDF6D7F6D7",
"- c #F77CF777F780",
"; c #F8C8F8CAF8C4",
": c #FA01FA00F9FF",
"> c #FAC2FAC6FAC1",
", c #FBE9FBE9FBEA",
"< c #FD14FD12FD14",
"1 c #FDFCFDFAFDFC",
"2 c None",
/* pixels */
"222222222222222222222222",
"222222222222222222222222",
"222222222222222222222222",
"222222222222222222222222",
"222222222222222222222222",
"222222222<<<<<<222222222",
"22222222<<<*22*,<2222222",
"2222222<<<222222,2222222",
"222222,,<2222*222,<22222",
"222222,,<222,,222,,,2222",
"222222,,,222,,222,,22222",
"22222,*,,2222%222,*22222",
"22222,*,,2222%222,222222",
"22222*****222222**222222",
"222222@*****22***%222222",
"2222222%%%%%*%*%%2222222",
"2222222%%%@%%#%%22222222",
"222222@@%@@%@@@222222222",
"222222++@@@++o2222222222",
"222222 .XX. 222222222222",
"222222222222222222222222",
"222222222222222222222222",
"222222222222222222222222",
"222222222222222222222222"
};
