/* XPM */
static char *google_earth[] = {
/* columns rows colors chars-per-pixel */
"24 24 35 1",
"  c #9832982C984E",
". c #A32EA315A321",
"X c #B033B03DB043",
"o c #B1DDB1D3B1CB",
"O c #C1D5C1D1C1EF",
"+ c #C64BC648C652",
"@ c #C97DC99DC994",
"# c #CCBACCB7CCB7",
"$ c #D0E7D0E3D0E7",
"% c #D7F7D7FBD7F9",
"& c #DE43DE46DE20",
"* c #DF70DF76DF63",
"= c #E30FE30FE2EB",
"- c #E5B3E5C4E5B5",
"; c #E763E756E755",
": c #E947E947E932",
"> c #EC38EC36EC37",
", c #EDE7EDE3EDEE",
"< c #EF51EF50EF4B",
"1 c #F085F083F088",
"2 c #F2E9F2EBF2EF",
"3 c #F3DAF3D8F3DC",
"4 c #F51AF514F513",
"5 c #F65BF65CF659",
"6 c #F6DEF6E1F6E1",
"7 c #F774F779F771",
"8 c #F7FCF7F9F7FC",
"9 c #F8DBF8DAF8DC",
"0 c #F9E3F9E4F9E6",
"q c #FA82FA81FA78",
"w c #FAF9FAF8FAF6",
"e c #FBF4FBF3FBF5",
"r c #FD1DFD1EFD1B",
"t c #FDF4FDF4FDF4",
"y c None",
/* pixels */
"yyyyyyyyyyyyyyyyyyyyyyyy",
"yyyyyyyyyyyyyyyyyyyyyyyy",
"yyyyyyyyyrrryyyyyyyyyyyy",
"yyyyyyrrrrrrrryyyyyyyyyy",
"yyyyyyy%%1errrrryyyyyyyy",
"yyyyyyyyyy+errrrryyyyyyy",
"yyyyyyyyyyyy1rrrrryyyyyy",
"yyyyeeryyyyyy1rreeyyyyyy",
"yyyeeeeeeyyyyy>eeeeyyyyy",
"yyeeeeeeeeeyyyy;eee8yyyy",
"yy8e8ee8eee8yyyy%8eeeeyy",
"yye8e8e9e88eeeyyy+,ee8yy",
"yye8e88ee88e8e8yyyy&18yy",
"yy888888888888888yyyyyyy",
"yy18888888888888888yyyyy",
"yy>&@;188138818818888yyy",
"yyyyyy.%>188188818818yyy",
"yyyyyyyyyO%>,118111,yyyy",
"yyyyyyyyyyyy o++@Ooyyyyy",
"yyyyyyyy1yyyyyyyyyyyyyyy",
"yyyyyyy;,1,,1,,,>yyyyyyy",
"yyyyyyyyo$===&%#yyyyyyyy",
"yyyyyyyyyyyyyyyyyyyyyyyy",
"yyyyyyyyyyyyyyyyyyyyyyyy"
};
