/* XPM */
static char *graveman[] = {
/* columns rows colors chars-per-pixel */
"24 24 42 1",
"  c #9290928E9263",
". c #ACB5ACB5ACB2",
"X c #AFBEAFABAF7C",
"o c #B9E1B9D4BA19",
"O c #BC7DBC7FBC6A",
"+ c #BF1DBF1CBEEB",
"@ c #C4BFC4BFC469",
"# c #C582C573C560",
"$ c #D56DD567D543",
"% c #D958D956D92E",
"& c #DDF6DDF7DDF9",
"* c #DFA7DF9DDF91",
"= c #E30EE307E2FA",
"- c #E51AE505E500",
"; c #E86BE86AE875",
": c #E9A8E9A3E993",
"> c #EAFDEAFAEB06",
", c #EC34EC29EBE9",
"< c #ED37ED32ED24",
"1 c #EE4CEE44EE10",
"2 c #EE6DEE72EE6A",
"3 c #EF31EF39EEFA",
"4 c #EFC0EFC5EFBD",
"5 c #F088F088F05A",
"6 c #F107F0FFF0FF",
"7 c #F211F20BF1E3",
"8 c #F329F325F2F6",
"9 c #F41DF419F423",
"0 c #F532F535F512",
"q c #F583F585F55D",
"w c #F65DF65FF65D",
"e c #F722F720F71C",
"r c #F773F77AF780",
"t c #F7E9F7E9F7E8",
"y c #F8FCF8FCF8FC",
"u c #FA53FA54FA5D",
"i c #FB0AFB0AFB08",
"p c #FBFEFBFDFC00",
"a c #FC7CFC7BFC7B",
"s c #FCE6FCE6FCE4",
"d c #FE09FE0DFE0C",
"f c None",
/* pixels */
"ffffffffffffffffffffffff",
"fffffffffsssssssffffffff",
"fffffffsssssssssssffffff",
"fffffssssssiiisssssfffff",
"ffffsssse*ff>fO-isssffff",
"fffsssi7ffffsffff7sssfff",
"fffssifffffsffffff7isiff",
"ffiisyffffiifffffffiisff",
"ffiiifffffiiiffffff7iiff",
"ffiiiffffiiiiiifffffiiif",
"fiiiffffi7iiiiifefffeief",
"feeifffiff%4eeiffiffeiif",
"feeeffeeffff>ieffeefeeef",
"ffeeffeeefff47ffeeeeeeef",
"ffeeef4eeeff7ffeee7feeef",
"ff4eeff7e9fe7f5ee7f77eff",
"ff-7e7f77>77eff>97f7e7ff",
"fff>7777-$7777>.47755fff",
"ffff>7774>75744=4444>fff",
"ffff#>44444>4444444>ffff",
"fffffX*>44>4>4>44>*fffff",
"fffffffo%;>>4>-=$fffffff",
"fffffffff XO@oXfffffffff",
"ffffffffffffffffffffffff"
};
