/* XPM */
static char *kommander[] = {
/* columns rows colors chars-per-pixel */
"24 24 33 1",
"  c #6E7C6E7A6E86",
". c #88FD89058908",
"X c #AA77AA6AAA41",
"o c #ADDAADE3ADCA",
"O c #B8A6B8A9B89F",
"+ c #C557C4D0C557",
"@ c #CAF4CB10CB0A",
"# c #CFE9D00CCFDC",
"$ c #DA99DAA8DA8D",
"% c #DE18DE17DE0A",
"& c #DE99DEBFDEA4",
"* c #E278E244E27B",
"= c #E75DE757E75E",
"- c #E9E2E9F2E9F4",
"; c #ECD0ECD3ECD9",
": c #EE16EE1AEE0E",
"> c #EEDDEED6EED7",
", c #EF9EEFA7EFAA",
"< c #F154F159F153",
"1 c #F197F193F198",
"2 c #F312F317F30A",
"3 c #F3BBF3BDF3BE",
"4 c #F503F505F502",
"5 c #F5A1F59CF5A2",
"6 c #F764F766F765",
"7 c #F836F833F832",
"8 c #F8C2F8C2F8C2",
"9 c #F9D0F9D1F9D3",
"0 c #FB0EFB0AFB0C",
"q c #FC15FC16FC14",
"w c #FCF1FCEFFCF0",
"e c #FDF6FDF6FDF5",
"r c None",
/* pixels */
"rrrrrrrrrrrrrrrrrrrrrrrr",
"rrrrrrrrrrrrrrrrrrrrrrrr",
"rrrrrrrrrrrrwrrrrrrrrrrr",
"rrrrrrrrrrrwwwrrrrrrrrrr",
"rrrrrrrrrrwwwwrrrrrrrrrr",
"rrrrrwwwwwwwwwwwwwwrrrrr",
"rrrrr0wwwwwwwwwwww0rrrrr",
"rrrrr40wwwwwwwww0w0rrrrr",
"rrrrr000004$#-00000rrrrr",
"rrrrr40004rrrr&0000rrrrr",
"rrr000000rrrrrr404000rrr",
"rrr404004rrrrrr400400rrr",
"rrr,34440rrrrrr440444rrr",
"rrrro34044rrrrr4434&rrrr",
"rrrrr=33343rr344333rrrrr",
"rrrrrr3333333333333rrrrr",
"rrrrr,333,3,,33<3,3rrrrr",
"rrrrr=,-=,,,;,,==,,rrrrr",
"rrrrrr@O o&,--#. +rrrrrr",
"rrrrrrrrrrX=-*rrrrrrrrrr",
"rrrrrrrrrrr+#rrrrrrrrrrr",
"rrrrrrrrrrrrrrrrrrrrrrrr",
"rrrrrrrrrrrrrrrrrrrrrrrr",
"rrrrrrrrrrrrrrrrrrrrrrrr"
};
