/* XPM */
static char *opera[] = {
/* columns rows colors chars-per-pixel */
"24 24 32 1",
"  c #71F7726C726C",
". c #7ACB7B0A7B0A",
"X c #9B259B439B98",
"o c #BF53BF7DBF8E",
"O c #CB1FCB75CB81",
"+ c #D196D19BD1AD",
"@ c #D391D3FCD404",
"# c #DB72DBD8DBD8",
"$ c #DEB5DEE0DEEB",
"% c #E0BFE0C9E0EC",
"& c #E31AE32FE326",
"* c #EAD9EAE4EAD3",
"= c #EC57EC20EC24",
"- c #ECB5ECA5EC9D",
"; c #EE19EE0BEE08",
": c #EEE1EEE9EEE7",
"> c #F12EF12BF134",
", c #F29FF2A1F29D",
"< c #F420F423F426",
"1 c #F535F53FF539",
"2 c #F5ECF5F1F5F0",
"3 c #F6E9F6E6F6E6",
"4 c #F832F833F830",
"5 c #F8EEF8E9F8EE",
"6 c #FA12FA11FA24",
"7 c #FB03FB09FB0C",
"8 c #FC05FC0BFC0C",
"9 c #FC78FC83FC83",
"0 c #FCFCFCF9FD0A",
"q c #FE04FE02FE05",
"w c #FE95FE96FE96",
"e c None",
/* pixels */
"eeeeeeeeeeeeeeeeeeeeeeee",
"eeeeeeeeeeeeeeeeeeeeeeee",
"eeeeeeeeeeeeeeeeeeeeeeee",
"eeeeeeee00000000eeeeeeee",
"eeeeeee0000119000eeeeeee",
"eeeeee00001ee@0000eeeeee",
"eeeee00000eeee10000eeeee",
"eeeee88000eeee80808eeeee",
"eeee88880eeeeee88888eeee",
"eeee18888eeeeee88888eeee",
"eeee88818eeeeee88885eeee",
"eeee11881eeeeee11818eeee",
"eeee18111eeeeee88818eeee",
"eeee11181eeeeee11111eeee",
"eeee<1111eeeeee11111eeee",
"eeee=11111eeeee<1<1<eeee",
"eeeee:<<><eeeee<<<<eeeee",
"eeeee&:>:<eeee:::::eeeee",
"eeeeee$::-:ee=:::=eeeeee",
"eeeeeee@========&eeeeeee",
"eeeeeeeeXO#&&$@oeeeeeeee",
"eeeeeeeeeee .eeeeeeeeeee",
"eeeeeeeeeeeeeeeeeeeeeeee",
"eeeeeeeeeeeeeeeeeeeeeeee"
};
