/* XPM */
static char *picasa[] = {
/* columns rows colors chars-per-pixel */
"24 24 31 1",
"  c #92A29251924A",
". c #9AAA9A459A49",
"X c #B7A8B7D0B796",
"o c #CA85CA7FCA86",
"O c #D1E6D180D183",
"+ c #D4FBD4E4D4E3",
"@ c #D9F3D9D6D9E8",
"# c #DF78DF1CDF1F",
"$ c #E23EE23FE23E",
"% c #E51CE50AE509",
"& c #E70BE6C6E6C3",
"* c #E8D3E8C7E8C4",
"= c #EB70EB68EB68",
"- c #EBE8EBDCEC0C",
"; c #ED3FED28ED39",
": c #EEFAEEFCEEF8",
"> c #F01EF020F016",
", c #F1B8F1B6F1C2",
"< c #F305F306F335",
"1 c #F37BF378F379",
"2 c #F4F7F4DEF4FA",
"3 c #F64DF640F63E",
"4 c #F6D5F6DBF6DA",
"5 c #F828F827F823",
"6 c #F8A3F89FF8A5",
"7 c #F9D9F9DCF9DB",
"8 c #FB26FB27FB25",
"9 c #FC3DFC3CFC40",
"0 c #FD45FD45FD44",
"q c #FE1DFE1DFE1E",
"w c None",
/* pixels */
"wwwwwwwwwwwwwwwwwwwwwwww",
"wwwwwwwwww0000wwwwwwwwww",
"wwwwwwwww0000000wwwwwwww",
"wwwww000w$000000w0wwwwww",
"wwww00000w@80000w800wwww",
"wwww000000wo8000w800wwww",
"www00008808ww300w8800www",
"ww88888088wwww10w89088ww",
"ww8888881wwwwww3w88888ww",
"ww888883wwwwwwwww88888ww",
"ww88381wwwwwwwwww33833ww",
"ww383wwwwwwwwwwww38888ww",
"ww33wwwwwwwwwwwww33883ww",
"ww1ww33wwwwwwwwww13333ww",
"wwww333wwwwwwwwww13331ww",
"www3311wwwwwwwwwwwXXXwww",
"ww*1311ww1111>>1ww*>wwww",
"www*1>1w>1>>1>11>11>>www",
"wwww&1>w1>>>>>>>>>>>wwww",
"wwwwX&*w*>--*>>*>**wwwww",
"wwwwwwww--*>**>**#wwwwww",
"wwwwwwwwO#&&*&#+wwwwwwww",
"wwwwwwwwww ...wwwwwwwwww",
"wwwwwwwwwwwwwwwwwwwwwwww"
};
