/* XPM */
static char *python[] = {
/* columns rows colors chars-per-pixel */
"24 24 32 1",
"  c #DD5CDD55DD37",
". c #D3A7F7DAFC17",
"X c #D9FAF59EFA25",
"o c #DFFAF9B9FCF5",
"O c #E0E2E0D8E0DA",
"+ c #E2B0E2B2E2D1",
"@ c #E67BE677E677",
"# c #E775E76CE766",
"$ c #E8B4E8B2E8B0",
"% c #E9E2E9F0E9E5",
"& c #EC0FEC21EC23",
"* c #ED68ED63ED40",
"= c #EEC7EEC2EEB9",
"- c #E7EBF7A0FA89",
"; c #F11BF100F104",
": c #F221F215F20D",
"> c #F318F308F305",
", c #F382F370F36D",
"< c #F399F394F39C",
"1 c #F53CF53BF54E",
"2 c #F5AFF5B3F5CA",
"3 c #F70BF71AF71F",
"4 c #F80EF819F81C",
"5 c #F9E0F9E5F9E8",
"6 c #FA97FA79FA6C",
"7 c #FA23FB86FC03",
"8 c #FAE5FAE9FAEC",
"9 c #FC19FC19FC1A",
"0 c #F958FD5CFE41",
"q c #FD0DFD0DFD0E",
"w c #FE3DFE3BFE3A",
"e c None",
/* pixels */
"eeeeeeeeeeeeeeeeeeeeeeee",
"eeeeeeeeeeeeeeeeeeeeeeee",
"eeeeeeeeeeeeeeeeeeeeeeee",
"eeeeeeeeeeeeeeeeeeeeeeee",
"eeeeeeeeeeeeeeeeeeeeeeee",
"eeeeeeeeeeeeeeeeeeeeeeee",
"eeeqqqqqqqq99qqeeeeeeeee",
"eeeqq9qqqqq99ee99qeeeeee",
"ee9999999999490eee99eeee",
"ee994eeee49eeXo.-ee49eee",
"eeeeeeeee94eeeeeeeee;4ee",
"ee4eeeeee444eeeeeeeee4ee",
"e4444eeee;;444eeeeeeee;e",
"e;;;4;eeee*;&**;eeeeee;e",
"e**;*;*&e***eee#&&*&***e",
"e&&*&&&&&&eeeeeeee +#&ee",
"e##&###+eeeeeeeeeeeeeeee",
"e+ +eeeeeeeeeeeeeeeeeeee",
"eeeeeeeeeeeeeeeeeeeeeeee",
"eeeeeeeeeeeeeeeeeeeeeeee",
"eeeeeeeeeeeeeeeeeeeeeeee",
"eeeeeeeeeeeeeeeeeeeeeeee",
"eeeeeeeeeeeeeeeeeeeeeeee",
"eeeeeeeeeeeeeeeeeeeeeeee"
};
