/* XPM */
static char *terminal[] = {
/* columns rows colors chars-per-pixel */
"24 24 25 1",
"  c #BFABBFB5BFAC",
". c #C16BC174C171",
"X c #C284C289C288",
"o c #CE1ECE3ECE33",
"O c #D3BED3D8D3C2",
"+ c #E2E5E299E29B",
"@ c #E556E52BE537",
"# c #E9C6E9C2E9B0",
"$ c #EEAEEEAAEEA9",
"% c #F00AF00AF004",
"& c #F0BCF0AAF089",
"* c #F1C3F1C4F1A8",
"= c #F345F329F307",
"- c #F3EDF3E2F3E4",
"; c #F519F51DF51D",
": c #F601F601F607",
"> c #F739F73EF72F",
", c #F78BF79AF789",
"< c #F8EBF8F3F8E6",
"1 c #FA3CFA3BFA3E",
"2 c #FAD6FAD7FAC0",
"3 c #FBC0FBCAFBCE",
"4 c #FCC9FCCDFCCF",
"5 c #FDD5FDD6FDD8",
"6 c None",
/* pixels */
"666666666666666666666666",
"666666666666666666666666",
"666666666666666666666666",
"666666666666666666666666",
"664444444444444444444466",
"664:XXXXXXXXXXXXXXX O346",
"664366666666666666666446",
"664366666666666666666436",
"663366:34666666666666336",
"6633666o#:36666666666336",
"663:66666-:66666666663:6",
"6633663:-#666666666663<6",
"663:66666666666666666::6",
"66::666666666666666663:6",
"66::66666666666666666::6",
"66::66666666666666666::6",
"66--66666666#++++@666--6",
"66--66666666666666666-&6",
"66-$66666666666666666$&6",
"66#$$$-$-$$-$-$&$-$$$$66",
"666X               XXO66",
"666666666666666666666666",
"666666666666666666666666",
"666666666666666666666666"
};
