/* XPM */
static char *uextras[] = {
/* columns rows colors chars-per-pixel */
"24 24 28 1",
"  c #BC32BC47BC6F",
". c #C4C4C4A1C4BA",
"X c #C96BC954C96D",
"o c #D10AD10ED122",
"O c #DBD6DBADDBD4",
"+ c #DED6DEF4DEED",
"@ c #E2A8E2D8E2A8",
"# c #E60AE5EEE61E",
"$ c #E781E78FE79C",
"% c #EA75EA5FEA87",
"& c #EF15EF14EF16",
"* c #F064F06BF07E",
"= c #F092F096F0AD",
"- c #F195F194F19A",
"; c #F2E8F2E2F2DD",
": c #F433F437F43A",
"> c #F486F486F48D",
", c #F5A4F5A6F5B0",
"< c #F717F719F714",
"1 c #F7E6F7E5F7D6",
"2 c #F8EAF8E7F8FD",
"3 c #F9D5F9D2F9D4",
"4 c #FA82FA80FA79",
"5 c #FB3AFB2DFB37",
"6 c #FC1CFC09FC1C",
"7 c #FD04FD02FD04",
"8 c #FDE8FDE8FDE8",
"9 c None",
/* pixels */
"999999999999999999999999",
"999999999999999999999999",
"999999999999999999999999",
"999988889999999888999999",
"999988889999999888999999",
"999988889999999886999999",
"999968689999999888999999",
"999966699999999666999999",
"999966699968899666999999",
"999966669996889666999999",
"999916618698869616999999",
"999961699666699666999999",
"999911199916669111999999",
"99991111999&169111999999",
"999911119999916111999999",
"9999;1;199999&1111999999",
"99999;1;999999&11;999999",
"99999&;;;99999$&;;999999",
"99999o&;&;;&;;&$&;;99999",
"999999 $&;&;&*&OX&&99999",
"99999999 oOOOo.99$%$9999",
"999999999999999999+@9999",
"999999999999999999999999",
"999999999999999999999999"
};
