/* XPM */
static char *bluefish[] = {
/* columns rows colors chars-per-pixel */
"22 22 173 2",
"   c #000000",
".  c #1E303D",
"X  c #21312B",
"o  c #1F334A",
"O  c #1D3350",
"+  c #1F395F",
"@  c #263646",
"#  c #2A3C47",
"$  c #20334C",
"%  c #213857",
"&  c #203A5F",
"*  c #203F6C",
"=  c #2D404E",
"-  c #344B51",
";  c #3B5155",
":  c #3D5758",
">  c #22406C",
",  c #2E4869",
"<  c #224374",
"1  c #23467A",
"2  c #24497E",
"3  c #37567B",
"4  c #485E62",
"5  c #486562",
"6  c #516E6F",
"7  c #4E7163",
"8  c #537365",
"9  c #44657A",
"0  c #5C7773",
"q  c #5E7C75",
"w  c #54737A",
"e  c #627E79",
"r  c #777777",
"t  c #5D8574",
"y  c #5F8876",
"u  c #618077",
"i  c #658D7C",
"p  c #688E7E",
"a  c #254C83",
"s  c #2D5385",
"d  c #26518A",
"f  c #2A558E",
"g  c #375B87",
"h  c #385F80",
"j  c #30578A",
"k  c #295795",
"l  c #2A5995",
"z  c #2C5C9C",
"x  c #355C91",
"c  c #376199",
"v  c #3F689D",
"b  c #2C5FA0",
"n  c #2C62A5",
"m  c #2D66AB",
"M  c #2E68AE",
"N  c #3468A8",
"B  c #3C6DAB",
"V  c #2F6CB4",
"C  c #326FB6",
"Z  c #306FB8",
"A  c #3172BC",
"S  c #3C77B8",
"D  c #466688",
"F  c #4D6E8B",
"G  c #5F7D81",
"H  c #52738B",
"J  c #446B9D",
"K  c #467097",
"L  c #44709D",
"P  c #597C9A",
"I  c #777E86",
"U  c #426CA0",
"Y  c #4972A3",
"T  c #4070AA",
"R  c #4A75AB",
"E  c #4C78AD",
"W  c #5C7DA7",
"Q  c #597FAC",
"!  c #457DBD",
"~  c #517DB2",
"^  c #3175C2",
"/  c #608186",
"(  c #6B8E81",
")  c #668288",
"_  c #6B8E8A",
"`  c #6C9080",
"'  c #729686",
"]  c #759688",
"[  c #76998A",
"{  c #7B9C8E",
"}  c #6F8298",
"|  c #6D919C",
" . c #7E9E90",
".. c #7CA191",
"X. c #5A83AE",
"o. c #5686BC",
"O. c #5886BC",
"+. c #5788B9",
"@. c #5C89BF",
"#. c #6381A9",
"$. c #658CAD",
"%. c #708AA8",
"&. c #6B93A6",
"*. c #7497A1",
"=. c #6489B7",
"-. c #698CB6",
";. c #6C99BE",
":. c #739BB4",
">. c #779ABA",
",. c #77A0B5",
"<. c #7FA8BA",
"1. c #5C8CC2",
"2. c #588FCB",
"3. c #608DC1",
"4. c #6291C3",
"5. c #6495C9",
"6. c #699ACE",
"7. c #6C9ED2",
"8. c #77A2C9",
"9. c #74A6DA",
"0. c #77A9DB",
"q. c #7CACDD",
"w. c #828F9F",
"e. c #8B939E",
"r. c #9F9F9F",
"t. c #82A495",
"y. c #86A99C",
"u. c #8AAB9D",
"i. c #8CADA0",
"p. c #80A9AD",
"a. c #91AFA2",
"s. c #8DB3A4",
"d. c #8BB5AF",
"f. c #92B3A5",
"g. c #94BAAA",
"h. c #9ABFAF",
"j. c #9DA6B1",
"k. c #98A8B6",
"l. c #8AB5BE",
"z. c #91B7B0",
"x. c #94B6B8",
"c. c #A6A8AA",
"v. c #AEAEAE",
"b. c #B1B1B1",
"n. c #BCBDBD",
"m. c #9DC0B2",
"M. c #A5C1B6",
"N. c #A7C6B9",
"B. c #AAC4BA",
"V. c #ACC8BD",
"C. c #B0CABF",
"Z. c #8EB1C3",
"A. c #94B1D5",
"S. c #AABACE",
"D. c #AFCBC0",
"F. c #B2CCC1",
"G. c #B9CFC5",
"H. c #B0CACA",
"J. c #B7D2C6",
"K. c #B9D1C7",
"L. c #BDD4CB",
"P. c #CDCDCD",
"I. c #C1D7CD",
"U. c #C5D8D0",
"Y. c #D6E5DF",
"T. c #C8D5E6",
"R. c #D3DBE5",
"E. c #D7E5E0",
"W. c #E6E6E6",
"Q. c #E8E8E8",
"!. c #E5EBF4",
"~. c #F3F6FA",
"^. c None",
/* pixels */
"^.^.^.^.^.^.^.^.^.^.^.^.^.^.^.^.^.^.^.^.^.^.",
"^.^.C.J.L.Y.E.E.E.K.J.K.K.Y.E.E.Y.L.J.C.^.^.",
"^.N.h.g.g.N.I.I.I.m.g.g.m.I.I.I.F.g.d.l.N.^.",
"^.V.s.s.g.g.K.H.Z.,.p.g.N.I.L.L.g.l.0.&.V.^.",
"^.F.s.p.;.+.S A Z 1.5.o.:.L.L.M.z.q.0./ V.^.",
"^.U.x.6.2.A ^ A ! 7.7.1.~ $.V.g.<.0.7.i.U.^.",
"^.L.>.1.A A ^ ^ 1.1.3.1.E l L s.7.0.6.F.I.^.",
"^.K.k.3.C A ^ ^ A.!.~.T.=.J l K A.9.4.B.K.^.",
"^.C.I V Z Z A A R.W.W.r c.W k f X.7.X.M.F.^.",
"^.a.P M V V Z Z S.P.P.r.n.W f d a 4.F y.s.^.",
"^.u.D M M M V M -.b.b.b.j.U a a 2 J w ..i.^.",
"^.t.h n n M M M N %.e.w.Q s a a 1 x _ { t.^.",
"^. .9 b n n n n b x U U j 2 a 2 < U | ....^.",
"^.f.) z b b b b z k d a a a a < < R P f.f.^.",
"^.u.:.5.B b k z B 1.1.a a a < * $ 3 R *.u.^.",
"^.t.H o.~ ~ ~ ~ E 1.x a 1 2 * % e 4 @ G t.^.",
"^.{ 6 J L Y Y E R f 2 1 < < % q [ [ ` ( ..^.",
"^.i t = , g x j a 1 < < > o e { [ ` p i i ^.",
"^.t u t 5 - $ & * * & o @ 0  .{ ` i i t t ^.",
"^.7 y y t p u ; # . = ; t ' ' ' ( t t t 7 ^.",
"^.X 8 p ' { { { ..{ ] { [ ..e.{ { ` p 8 X ^.",
"^.^.^.                                ^.^.^."
};
