/* XPM */
static char *ccc_large[] = {
/* columns rows colors chars-per-pixel */
"22 22 144 2",
"   c #000000",
".  c #3F3F3F",
"X  c #4A1313",
"o  c #563333",
"O  c #553535",
"+  c #404040",
"@  c #414141",
"#  c #424242",
"$  c #434343",
"%  c #444444",
"&  c #454545",
"*  c #464646",
"=  c #494949",
"-  c #4B4B4B",
";  c #4D4D4D",
":  c #4E4E4E",
">  c #505050",
",  c #525252",
"<  c #545454",
"1  c #565656",
"2  c #5B5B5B",
"3  c #616161",
"4  c #646464",
"5  c #666666",
"6  c #BE0A0A",
"7  c #B93333",
"8  c #C01313",
"9  c #CC1717",
"0  c #C31D1D",
"q  c #EB0F0F",
"w  c #EC1616",
"e  c #EF1616",
"r  c #F01717",
"t  c #F11919",
"y  c #F21B1B",
"u  c #F11D1D",
"i  c #F31D1D",
"p  c #F51F1F",
"a  c #C22222",
"s  c #C32222",
"d  c #C52626",
"f  c #C52B2B",
"g  c #C62A2A",
"h  c #C72B2B",
"j  c #C62F2F",
"k  c #D32E2E",
"l  c #CA3434",
"z  c #C53939",
"x  c #C73E3E",
"c  c #ED2121",
"v  c #EE2A2A",
"b  c #ED2D2D",
"n  c #EE2D2D",
"m  c #EE2E2E",
"M  c #F12323",
"N  c #F22323",
"B  c #F62121",
"V  c #F62222",
"C  c #F72424",
"Z  c #F82626",
"A  c #FB2626",
"S  c #FA2727",
"D  c #FC2525",
"F  c #FD2626",
"G  c #F32929",
"H  c #F12C2C",
"J  c #F12E2E",
"K  c #F12F2F",
"L  c #F72C2C",
"P  c #F52F2F",
"I  c #FC2929",
"U  c #FD2929",
"Y  c #FD2B2B",
"T  c #FB2D2D",
"R  c #F82E2E",
"E  c #FA2F2F",
"W  c #FD2C2C",
"Q  c #FC2F2F",
"!  c #EE3434",
"~  c #F23030",
"^  c #F23131",
"/  c #F33131",
"(  c #F33232",
")  c #F43333",
"_  c #F63232",
"`  c #F43434",
"'  c #F63434",
"]  c #F63535",
"[  c #F63636",
"{  c #F63737",
"}  c #F73737",
"|  c #F93030",
" . c #FC3232",
".. c #FB3535",
"X. c #F83636",
"o. c #FB3737",
"O. c #FC3434",
"+. c #FD3535",
"@. c #F73838",
"#. c #F73B3B",
"$. c #F73D3D",
"%. c #F93838",
"&. c #F83939",
"*. c #F83A3A",
"=. c #F93A3A",
"-. c #F93B3B",
";. c #FB3A3A",
":. c #FB3B3B",
">. c #FC3838",
",. c #FC3A3A",
"<. c #C84040",
"1. c #F84141",
"2. c #F84646",
"3. c #F94747",
"4. c #F94B4B",
"5. c #FB4C4C",
"6. c #FA4E4E",
"7. c #F45555",
"8. c #FC5252",
"9. c #FD5757",
"0. c #F95C5C",
"q. c #FE6262",
"w. c #FE6363",
"e. c #EC9B9B",
"r. c #F69898",
"t. c #E8B6B6",
"y. c #E9B9B9",
"u. c #E9BABA",
"i. c #EABABA",
"p. c #EDBCBC",
"a. c #FCC4C4",
"s. c #FDC7C7",
"d. c #FDC9C9",
"f. c #FDCECE",
"g. c #F2D3D3",
"h. c #F2D4D4",
"j. c #F3D7D7",
"k. c #FDDADA",
"l. c #FEDBDB",
"z. c #FDDCDC",
"x. c #FEDEDE",
"c. c #FEE0E0",
"v. c #FFFFFF",
"b. c None",
/* pixels */
"b.b.b.b.b.b.b.b.b.b.b.b.b.b.b.b.b.b.b.b.b.b.",
"b.b.0.q.w.w.w.w.w.w.w.w.w.w.w.w.w.w.q.0.b.b.",
"b.7.+.F I W W I W W W W W I W W I I F +.7.b.",
"b.9.F I W  .+.+.+.+.+.| +.+.+.+.+.W I F 9.b.",
"b.8.F R +.>.>.$.:.>.>.$.>.>.:.>.>.X.R Z 8.b.",
"b.5.S R >.>.$.>.:.:.:.>.$.:.:.:.>.>.| F 5.b.",
"b.3.Z | >.>.6.z.f.$.d.v.v.v.v.d.@.d.s.Z 4.b.",
"b.1.C R { 4.c.v.v.>.p.v.v.v.v.p.>.v.v.C 1.b.",
"b.@.V L 3.x.v.v.v.@.l 7 v.v.7 l { v.v.V >.b.",
"b.{ V @.k.v.j.v.v.{ { { v.v.{ { { v.v.p { b.",
"b.) ) k.v.j.<.v.v.) { { v.v.) { { v.v.p L b.",
"b.G a.v.g.x ! v.v.{ ) ) v.v.) ) ) v.v.p G b.",
"b.N e.i.z r.( i.i.( ( ( i.i.( ( ( t.t.t N b.",
"b.u 9 a b k ( j j ( ( ( j j ( ( ( g a t u b.",
"b.e r N J J J J b J ( J J ( J J b b G e e b.",
"b.q w c v b b ( b b b b b b b b b v u e q b.",
"b.6 8 0 g g h h h h h h h h g h g d 7 6 6 b.",
"b.> > 2 3 4 5 5 5 5 5 5 5 5 5 5 5 3 2 < ; b.",
"b.@ % = ; > > < < > 1 > < < > 1 ; ; = % @ b.",
"b.o . @ @ % % % % % % % % % % % % @ @ O o b.",
"b.X O % = - > > > 1 1 1 1 > > > ; = % O X b.",
"b.b.b.                                b.b.b."
};
