/* XPM */
static char *control_center2[] = {
/* columns rows colors chars-per-pixel */
"22 22 154 2 ",
"   c black",
".  c #1A2532",
"X  c #28333D",
"o  c #304A66",
"O  c #3E5063",
"+  c #3F5874",
"@  c #3E5B7B",
"#  c #4D504F",
"$  c #555753",
"%  c #585A54",
"&  c #5B5E58",
"*  c #635D4D",
"=  c #63655F",
"-  c #455667",
";  c #4A5460",
":  c #415F7F",
">  c #59636E",
",  c #4F637A",
"<  c #5C6570",
"1  c #56687E",
"2  c #606A74",
"3  c #737C7F",
"4  c #C07A13",
"5  c #8A7B50",
"6  c #B68027",
"7  c #CD8012",
"8  c #D78F16",
"9  c #D88C15",
"0  c #D79419",
"q  c #E68C0D",
"w  c #FC9D0F",
"e  c #E69316",
"r  c #EA961C",
"t  c #FCA51B",
"y  c #FEAF1C",
"u  c #FFB31F",
"i  c #C08A2F",
"p  c #DB9B23",
"a  c #C8923D",
"s  c #DDA22B",
"d  c #DFA833",
"f  c #E3A22F",
"g  c #F7A728",
"h  c #FDB425",
"j  c #FFBA23",
"k  c #FFB42A",
"l  c #FFBC2B",
"z  c #E3A936",
"x  c #E2AC3C",
"c  c #FABC3F",
"v  c #FFC226",
"b  c #FFC12C",
"n  c #FFC632",
"m  c #FFCF38",
"M  c #B49D64",
"N  c #E4B143",
"B  c #FABB46",
"V  c #E1B251",
"C  c #FDC140",
"Z  c #F9CB4C",
"A  c #446281",
"S  c #4B6684",
"D  c #4E6986",
"F  c #4A6789",
"G  c #4E6C8C",
"H  c #536A85",
"J  c #556E8A",
"K  c #56718E",
"L  c #5A728D",
"P  c #516E90",
"I  c #547293",
"U  c #5B7593",
"Y  c #5D7895",
"T  c #5E7A9A",
"R  c #607184",
"E  c #6B7884",
"W  c #607388",
"Q  c #607791",
"!  c #637B94",
"~  c #697E95",
"^  c #627C9A",
"/  c #687F98",
"(  c #798386",
")  c #788388",
"_  c #7E898B",
"`  c #66809E",
"'  c #6D849E",
"]  c #70869D",
"[  c #72889F",
"{  c #6783A5",
"}  c #6B85A2",
"|  c #6F89A6",
" . c #738AA4",
".. c #798FA7",
"X. c #748FAA",
"o. c #7B90A7",
"O. c #7590AC",
"+. c #7D93AC",
"@. c #7291B3",
"#. c #7B96B2",
"$. c #7C98B6",
"%. c #7695B8",
"&. c #7C9ABB",
"*. c #7A9AC0",
"=. c #878888",
"-. c #869399",
";. c #969696",
":. c #909896",
">. c #959D9B",
",. c #8195AB",
"<. c #8599AF",
"1. c #969DA5",
"2. c #8097B1",
"3. c #839AB4",
"4. c #849EBA",
"5. c #9DA1A5",
"6. c #86A1BE",
"7. c #8AA1BC",
"8. c #A4A5A6",
"9. c #A9A9A9",
"0. c #AEAFB2",
"q. c #B7B7B7",
"w. c #BCBCBC",
"e. c #83A2C4",
"r. c #8AA5C3",
"t. c #8DAAC9",
"y. c #94AAC4",
"u. c #98ADC5",
"i. c #94ADCA",
"p. c #99AFC9",
"a. c #96B1CD",
"s. c #9CB3CD",
"d. c #9AB4D0",
"f. c #A3B7CD",
"g. c #A4B8CF",
"h. c #ACBACB",
"j. c #A4BBD5",
"k. c #A9BCD3",
"l. c #B7C2CE",
"z. c #AAC0D7",
"x. c #ABC1DB",
"c. c #B2C6DC",
"v. c #BBCEE1",
"b. c #C3C7CD",
"n. c #CBCCCC",
"m. c #C1CAD4",
"M. c #CACED4",
"N. c #CFD0D2",
"B. c #D1D2D2",
"V. c #DBDBDB",
"C. c #E2E2E3",
"Z. c #E7E8E8",
"A. c gray92",
"S. c None",
/* pixels */
"S.S.S.S.S.S.S.S.S.S.S.S.S.S.S.S.S.S.S.S.S.S.",
"S.S.j.j.c.c.v.x.j.j.j.j.j.x.v.v.v.v.c.z.S.S.",
"S.k.s.e.e.i.a.a.e.e.*.e.e.t.d.d.j.a.t.t.i.S.",
"S.c.a.i.e.7.b.Z.m.t.e.e.e.a.j.j.d.i.e.*.s.S.",
"S.j.a.s.u.e.E B.A.Z.y.6.e.s.k.f.a.r.&.&.i.S.",
"S.f.r.s.s.u.3.1.A.Z.N.4.t.s.g.i.e.4.&.%.r.S.",
"S.a.4.M.f.s.h.C.Z.C.V.3.y.g.i.4.&.&.%.@.r.S.",
"S.y.3.N.V.l.C.C.C.C.N.,.y.p.4.$.$.#.#.#.y.S.",
"S.7.+.5.V.V.V.V.V.V.q.,.u.3.#.#.$.7.7.7.y.S.",
"S.O.{ L n.V.V.V.V.w.;.0.M -.3.4.7.7.3.#.7.S.",
"S.X.} } < 8.w.w.9.;.q.V B N >.4.7.3.$.#.3.S.",
"S.#.O.+.,.' > 2 ; =.V c w t x :.3.3.#.O.#.S.",
"S.2.+.2.2.+.} } | 5 Z j h y h z =.| | { O.S.",
"S.} T ^ ` ` } +.3.3 s m v j j b s ( T I Y S.",
"S.P I Y ^ } <.3.+.^ = p n b b l l p ) I P S.",
"S.F G Y  .<.3...' ^ } & 0 l l n z B i ^ Y S.",
"S.A L ' <.<. . .U U ' U % 8 k f - 6 e ! Y S.",
"S.I / o.o.' ' Y K U ` L J $ 9 g a r 7 H U S.",
"S.! [ ] ! / ! S S K Q S S S # 4 q 4 * @ : S.",
"S.W ` J K L A @ @ D H @ @ @ @ + O H ! , o S.",
"S.X , Q ! Q H H J / / L K J H H W ! ] 1 . S.",
"S.S.S.                                S.S.S."
};
