/* XPM */
static char *gnome_activity_journal[] = {
/* columns rows colors chars-per-pixel */
"22 22 242 2",
"   c #000000",
".  c #10323F",
"X  c #10333F",
"o  c #267590",
"O  c #2E7991",
"+  c #2C7892",
"@  c #2D7B95",
"#  c #2D7C96",
"$  c #2F819D",
"%  c #2E839F",
"&  c #2C8AA9",
"*  c #2D8AA9",
"=  c #2F8DAB",
"-  c #2E8DAD",
";  c #2F8FAF",
":  c #3289A6",
">  c #3E89A2",
",  c #3B8BA6",
"<  c #308BAA",
"1  c #318CAB",
"2  c #338CAA",
"3  c #328DAB",
"4  c #338DAB",
"5  c #3390AF",
"6  c #3590AD",
"7  c #3A93AF",
"8  c #3F92AE",
"9  c #3493B2",
"0  c #3793B2",
"q  c #3D95B1",
"w  c #3F94B0",
"e  c #3F95B1",
"r  c #3C95B2",
"t  c #3A96B4",
"y  c #3997B6",
"u  c #3B98B7",
"i  c #3C9AB9",
"p  c #3E9BBB",
"a  c #3F9CBA",
"s  c #3E9CBC",
"d  c #3F9DBD",
"f  c #3F9EBE",
"g  c #4C889B",
"h  c #548EA2",
"j  c #4194AF",
"k  c #5297AD",
"l  c #5C9AAF",
"z  c #4495B0",
"x  c #4897B1",
"c  c #4098B5",
"v  c #4399B5",
"b  c #479AB5",
"n  c #469AB6",
"m  c #479BB7",
"M  c #4898B2",
"N  c #4B99B2",
"B  c #4B9AB3",
"V  c #4E9AB3",
"C  c #489BB7",
"Z  c #4A9BB6",
"A  c #4E9BB4",
"S  c #4E9DB7",
"D  c #439BB8",
"F  c #479CB8",
"G  c #449DBA",
"H  c #459EBB",
"J  c #469FBC",
"K  c #4A9EB9",
"L  c #4B9EB9",
"P  c #4B9EBA",
"I  c #4B9FBB",
"U  c #4C9EB9",
"Y  c #4E9FBB",
"T  c #579AB0",
"R  c #519DB5",
"E  c #579CB4",
"W  c #549FB7",
"Q  c #6195A6",
"!  c #6F9EAD",
"~  c #45A0BE",
"^  c #4FA0BB",
"/  c #49A0BD",
"(  c #4BA0BC",
")  c #48A1BF",
"_  c #4CA0BC",
"`  c #50A2BF",
"'  c #60A7BF",
"]  c #6CA7BB",
"[  c #70A1B1",
"{  c #75A2B2",
"}  c #79A5B4",
"|  c #77A7B8",
" . c #42A0C0",
".. c #43A1C1",
"X. c #43A2C2",
"o. c #45A3C4",
"O. c #45A4C5",
"+. c #49A2C0",
"@. c #4AA3C1",
"#. c #4CA6C4",
"$. c #47A8C7",
"%. c #48AACA",
"&. c #4DA8C8",
"*. c #4FABCA",
"=. c #49ABCC",
"-. c #48ACCD",
";. c #48ADCF",
":. c #4EAECF",
">. c #52A7C2",
",. c #52A6C3",
"<. c #53A7C3",
"1. c #54A6C3",
"2. c #50A7C5",
"3. c #54A8C3",
"4. c #53A8C4",
"5. c #54A8C4",
"6. c #55A9C6",
"7. c #55AAC7",
"8. c #55ABC8",
"9. c #56ABC8",
"0. c #56ACC9",
"q. c #57ACCA",
"w. c #57ADCB",
"e. c #50ADCC",
"r. c #50AECE",
"t. c #59AFCB",
"y. c #59AFCC",
"u. c #59AFCD",
"i. c #5AAECC",
"p. c #57B0CE",
"a. c #59B0CD",
"s. c #5AB0CD",
"d. c #58B1CE",
"f. c #5AB0CF",
"g. c #5AB2CF",
"h. c #5DB1CD",
"j. c #4CAED0",
"k. c #4AB0D1",
"l. c #4FB1D1",
"z. c #4DB1D2",
"x. c #4EB1D2",
"c. c #4FB2D2",
"v. c #50B0D2",
"b. c #53B2D2",
"n. c #57B1D0",
"m. c #55B2D1",
"M. c #55B2D3",
"N. c #56B2D3",
"B. c #56B5D4",
"V. c #58B3D2",
"C. c #5DB3D0",
"Z. c #5FB4D1",
"A. c #60B1CD",
"S. c #60B3CF",
"D. c #64B3CE",
"F. c #6FB5CD",
"G. c #7DBACF",
"H. c #64B6D3",
"J. c #61B7D5",
"K. c #66B8D3",
"L. c #69BAD5",
"P. c #6ABBD5",
"I. c #6DBCD6",
"U. c #6EBDD7",
"Y. c #70BBD4",
"T. c #72BFDA",
"R. c #75C1DA",
"E. c #7CC6E0",
"W. c #7DC7E0",
"Q. c #81AEBC",
"!. c #85AFBC",
"~. c #80BBCF",
"^. c #99B7C1",
"/. c #9FBAC3",
"(. c #95BBC8",
"). c #96BECA",
"_. c #93BFCE",
"`. c #80BDD3",
"'. c #83BED3",
"]. c #97C1CF",
"[. c #89C0D2",
"{. c #8EC3D4",
"}. c #86C5D9",
"|. c #8BC8DC",
" X c #A4CFDD",
".X c #A4CFDE",
"XX c #ABCDD9",
"oX c #B7CCD3",
"OX c #B3CCD4",
"+X c #B6CED6",
"@X c #B9CDD3",
"#X c #BBCFD5",
"$X c #BFD1D6",
"%X c #B6D0D9",
"&X c #BBD2D9",
"*X c #BDD2D8",
"=X c #BCD4DB",
"-X c #BFD4DB",
";X c #96CFE3",
":X c #A5D5E6",
">X c #A9D5E3",
",X c #B2D5E1",
"<X c #C2D4DA",
"1X c #CAD8DD",
"2X c #CADADF",
"3X c #CBDADF",
"4X c #C9DEE5",
"5X c #D0DEE3",
"6X c #C5E2EB",
"7X c #C8E0E8",
"8X c #CBE1E8",
"9X c #CCE2E9",
"0X c #D1E6ED",
"qX c #D6E7EC",
"wX c #DAE5E9",
"eX c #D9E5EA",
"rX c #DDE7EA",
"tX c #DCE8EC",
"yX c #DBEAF0",
"uX c #DCECF1",
"iX c #E2EBED",
"pX c #E2EBEF",
"aX c #E5ECEE",
"sX c #E2EDF1",
"dX c #ECF1F3",
"fX c #E9F2F5",
"gX c #E9F2F6",
"hX c #EDF2F4",
"jX c #EFF5F6",
"kX c #F0F4F5",
"lX c #F2F6F8",
"zX c #F5F8F9",
"xX c #F5F9FB",
"cX c #F7F9FA",
"vX c #FBFCFC",
"bX c #FCFDFD",
"nX c #FDFDFD",
"mX c #FDFDFE",
"MX c #FDFEFE",
"NX c #FEFEFF",
"BX c #FFFFFF",
"VX c None",
/* pixels */
"VXVXVXVXVXVXVXVXVXVXVXVXVXVXVXVXVXVXVXVXVXVX",
"VXVXR.E.E.E.W.W.W.W.W.W.W.W.W.W.E.E.E.R.VXVX",
"VXY.B.k.k.x.c.v.v.c.c.c.c.c.c.c.c.j.k.B.Y.VX",
"VXT.;.j.b.b.B.V.;X6XgXxXuX:XJ.M.b.b.j.;.R.VX",
"VXU.=.:.m.V.U.0XbXbX4X^.^.3XgXL.V.m.e.;.U.VX",
"VXL.;.e.m.Z.sXbXcX} Y a.V.Y { eXH.V.e.;.L.VX",
"VXH.%.e.u.,XbXbX!.s.a.h.>Xa.a.Q.uX|.a.%.H.VX",
"VXS.$.*.h.bXbXaX1.s.s.}.].a.a.3.rXbX7X$.S.VX",
"VXu.o.*.`.bXbX=Xt.0.S.bXbXD.t.9.+XbXrXo.u.VX",
"VX8.X.#.XXbXbX-X7.9.4.oX#X1.0.9.%XbX| ..9.VX",
"VX2.X.F.bXbXbXsX7.7.7.S 4X~.7.7.tX-X~ ~ 2.VX",
"VX@.J ].bXbXbXbX{.3.4.>.[ ].1.'.bX(.) d @.VX",
"VX~ p T gXbXbXbXzX'.>.7.` E `.kXbX] ) p ~ VX",
"VXa p H g 4XbXbXbXbX9X.X X8XbXbX<XI / p a VX",
"VXy y H _ <XbXbXbXbXbXbXbXbXbXbXl I H u y VX",
"VX9 y v I +XbXbXbXbXbXbXbXbXcX! I I v y 9 VX",
"VX; 9 v m eXbXbXbXbXbXbXbXkXQ C I C e 0 ; VX",
"VX; 5 q ' bXbXbXbXbXbXbX#Xh C C m m r 5 ; VX",
"VX& = 6 k #XaXvXdX1X/.g , z q q 7 7 6 2 & VX",
"VXo & & < : # + @ $ : 2 4 4 4 4 < < & & o VX",
"VXX + j j j x V V R W W R A V M z j j + X VX",
"VXVXVX                                VXVXVX"
};
