/* XPM */
static char *googleearth[] = {
/* columns rows colors chars-per-pixel */
"22 22 184 2",
"   c #000000",
".  c #100D19",
"X  c #221D34",
"o  c #182337",
"O  c #1B283F",
"+  c #212134",
"@  c #262139",
"#  c #29213F",
"$  c #281F40",
"%  c #172C45",
"&  c #14324D",
"*  c #163450",
"=  c #1A3450",
"-  c #1A3955",
";  c #1E3D58",
":  c #2D2544",
">  c #202B41",
",  c #2F254A",
"<  c #30264B",
"1  c #342B4D",
"2  c #2C374B",
"3  c #303046",
"4  c #363249",
"5  c #362E50",
"6  c #382E54",
"7  c #263751",
"8  c #273B55",
"9  c #2C3A53",
"0  c #3C3355",
"q  c #313E54",
"w  c #3E3950",
"e  c #3E3558",
"r  c #443C5C",
"t  c #473C62",
"y  c #23415D",
"u  c #1D476C",
"i  c #234460",
"p  c #2B4F6E",
"a  c #31516E",
"s  c #3B506B",
"d  c #214F77",
"f  c #2A4C70",
"g  c #2E5272",
"h  c #23527B",
"j  c #33597A",
"k  c #3D5D7C",
"l  c #4D4464",
"z  c #4F456A",
"x  c #584F6D",
"c  c #42506B",
"v  c #594E71",
"b  c #435A75",
"n  c #5B5876",
"m  c #525F7A",
"M  c #62577A",
"N  c #63587A",
"B  c #235580",
"V  c #265B87",
"C  c #2A5986",
"Z  c #305E85",
"A  c #3B6182",
"S  c #296190",
"D  c #2C6799",
"F  c #2F6C9E",
"G  c #366791",
"H  c #376B97",
"J  c #3B6C95",
"K  c #3D6C98",
"L  c #3B719E",
"P  c #306FA3",
"I  c #3B74A3",
"U  c #3274AC",
"Y  c #3878AD",
"T  c #3479B2",
"R  c #387DB7",
"E  c #466481",
"W  c #4E6681",
"Q  c #41678F",
"!  c #5D6E8B",
"~  c #446F95",
"^  c #497294",
"/  c #5B7395",
"(  c #5A7897",
")  c #5E7499",
"_  c #5C7D9C",
"`  c #6C6083",
"'  c #72678A",
"]  c #756C8F",
"[  c #706E91",
"{  c #7A6F91",
"}  c #617393",
"|  c #627F9D",
" . c #7E7296",
".. c #4C7AA1",
"X. c #417DAE",
"o. c #4A7EAA",
"O. c #527DA2",
"+. c #597EA5",
"@. c #457FB1",
"#. c #807495",
"$. c #82769B",
"%. c #87799F",
"&. c #887D9E",
"*. c #8B7EA3",
"=. c #3B80B9",
"-. c #65829F",
";. c #4480B2",
":. c #4C84B4",
">. c #4183BA",
",. c #5084B0",
"<. c #5588B3",
"1. c #5C8BB3",
"2. c #5990BF",
"3. c #6482A0",
"4. c #648CAF",
"5. c #738DAB",
"6. c #7590AD",
"7. c #7893AE",
"8. c #628CB1",
"9. c #6091BB",
"0. c #6E99BF",
"q. c #7993B0",
"w. c #7B9BB8",
"e. c #4C8DC2",
"r. c #4C90C5",
"t. c #5591C3",
"y. c #5A93C1",
"u. c #5598CB",
"i. c #5A9CCF",
"p. c #6498C3",
"a. c #5DA0D1",
"s. c #6FA2CD",
"d. c #65A5D4",
"f. c #66A8D7",
"g. c #70B1DE",
"h. c #76B6E2",
"j. c #79B9E5",
"k. c #8F82A6",
"l. c #9084A6",
"z. c #9184AA",
"x. c #978CAE",
"c. c #809CBC",
"v. c #9F94B3",
"b. c #A399B6",
"n. c #A599B8",
"m. c #83A0BF",
"M. c #89A2BC",
"N. c #ACA1BF",
"B. c #84A5C2",
"V. c #8BA8C2",
"C. c #84ABCC",
"Z. c #94ACC2",
"A. c #94ADC9",
"S. c #9CB2CC",
"D. c #81AED3",
"F. c #9BBDD9",
"G. c #B2A8C5",
"H. c #A1B7CE",
"J. c #A5BACE",
"K. c #A7BBD2",
"L. c #AABED1",
"P. c #80BFEA",
"I. c #AEC0D3",
"U. c #B2C3D6",
"Y. c #B5C6D9",
"T. c #BCCBDB",
"R. c #98C3E3",
"E. c #92CDF3",
"W. c #B2CEE5",
"Q. c #BBD2E5",
"!. c #C3D1DF",
"~. c #C0D5E6",
"^. c #CCD7E4",
"/. c #C6D8E7",
"(. c #C9D8E4",
"). c #D1DEE8",
"_. c #CFE6F6",
"`. c #D0E3F1",
"'. c #EAEEF1",
"]. c #EFF3F6",
"[. c #F1F4F6",
"{. c #F6F9FB",
"}. c #FAFAFA",
"|. c None",
/* pixels */
"|.|.|.|.|.|.|.|.|.|.|.|.|.|.|.|.|.|.|.|.|.|.",
"|.|.N.G.G.G.G.G.G.G.G.G.G.G.G.G.G.G.G.G.|.|.",
"|.b.x.z.z.z.z.z.z.k.k.l.k.z.x.z.z.z.k.x.b.|.",
"|.n.*.*.k.z.k.] ) q.A.M.5.} ] k.z.z.*.*.n.|.",
"|.v.*.*.k.%./ 9.;.:.<.1.M.T.Z.! k.k.&.*.b.|.",
"|.x.$.%. .+.T.{.[.F.T Y F ..J.I.m #.%. .x.|.",
"|.l. . .} ].{.}.}.}.Q.=.;.,.O.L.H.m  .#.l.|.",
"|.*.] n (.Q.W.`.}.}.}.Q.2.,..._ K.6.n ] k.|.",
"|.#.` ! C.s.d.h.E._.}.}./.<.H Z 3.A.c ` $.|.",
"|. .N Q ;.e.i.g.E.j.R.[.}.).8.^ j a y N #.|.",
"|.' x K X.R r.a.a.a.u.D.(.].!.3.g y - x ' |.",
"|.` l C I ;.t.t.r.e.=.y.0.B.Y.I.( y = l N |.",
"|.N l f S I 9.p.;.T U P L G ^ -.5.w.b l M |.",
"|.v l 7 ~ w.8.1.1.;.D S V h k p ; * 8 z v |.",
"|.z l 3 M.!.(.I.w.J V B d u p y 8 * 4 l z |.",
"|.t l r q J.Y.T.T.Y.Z.7.( k E ( 3.9 r l t |.",
"|.e t t w s S.S.3.q.M.A.A.m.5.| s w l r e |.",
"|.6 0 t r 4 2 ( & & & * - & = % 4 r t 0 6 |.",
"|.< 5 0 e r 4 + o % & & % O @ 4 r r 6 1 1 |.",
"|.: , , < 1 1 , : X X X @ : : 1 1 < < , $ |.",
"|.. # 5 0 0 e r r r r r r r r e 0 0 5 # . |.",
"|.|.|.                                |.|.|."
};
