/* XPM */
static char *picasa_fontcfg[] = {
/* columns rows colors chars-per-pixel */
"22 22 222 2",
"   c #000000",
".  c #0D3409",
"X  c #0E3509",
"o  c #0E370A",
"O  c #183312",
"+  c #071F39",
"@  c #2B3E29",
"#  c #4A0E0F",
"$  c #4A0F10",
"%  c #4A1213",
"&  c #4B1617",
"*  c #4B1A1B",
"=  c #521718",
"-  c #4C2A03",
";  c #4C2B03",
":  c #663904",
">  c #741F20",
",  c #422627",
"<  c #562425",
"1  c #224A1C",
"2  c #24501B",
"3  c #1F6F11",
"4  c #354233",
"5  c #364234",
"6  c #4A443E",
"7  c #092549",
"8  c #2C3949",
"9  c #0B3760",
"0  c #0D3A6C",
"q  c #474542",
"w  c #424445",
"e  c #444444",
"r  c #454545",
"t  c #454744",
"y  c #474645",
"u  c #464646",
"i  c #484542",
"p  c #484643",
"a  c #494644",
"s  c #494749",
"d  c #46484A",
"f  c #4B4B4B",
"g  c #515151",
"h  c #525252",
"j  c #535353",
"k  c #565656",
"l  c #575757",
"z  c #595653",
"x  c #585858",
"c  c #5A5A5A",
"v  c #614949",
"b  c #754849",
"n  c #626262",
"m  c #6C6C6D",
"M  c #6D6D6D",
"N  c #797979",
"B  c #7E7E7E",
"V  c #A52426",
"C  c #DA393C",
"Z  c #E03A3D",
"A  c #F9373B",
"S  c #874A05",
"D  c #A95B06",
"F  c #B25F06",
"G  c #CC6906",
"H  c #D57208",
"J  c #EA7307",
"K  c #F67A0A",
"L  c #FC7C08",
"P  c #FE7E08",
"I  c #FE7F08",
"U  c #CD4245",
"Y  c #E05D60",
"T  c #F9666A",
"R  c #E87A7B",
"E  c #238215",
"W  c #27871D",
"Q  c #289B1B",
"!  c #2FAF1D",
"~  c #2DAD1E",
"^  c #2FB01D",
"/  c #34B61B",
"(  c #31B31C",
")  c #32B31C",
"_  c #33B51C",
"`  c #34B51C",
"'  c #36B81B",
"]  c #38BA1A",
"[  c #39BB1A",
"{  c #45972F",
"}  c #46972F",
"|  c #459531",
" . c #459631",
".. c #48B73B",
"X. c #54AA4A",
"o. c #52BA46",
"O. c #75C06B",
"+. c #F68409",
"@. c #FE8108",
"#. c #FE8508",
"$. c #FE8709",
"%. c #F98216",
"&. c #FD8B24",
"*. c #F58F34",
"=. c #8E8377",
"-. c #E58F42",
";. c #FA9D49",
":. c #E4A469",
">. c #E7A469",
",. c #EBA768",
"<. c #124C91",
"1. c #1553A5",
"2. c #145FA3",
"3. c #155EAE",
"4. c #1C59AC",
"5. c #9A57B5",
"6. c #9B58B7",
"7. c #9C58B9",
"8. c #9E5ABB",
"9. c #9F5FBA",
"0. c #A05FBB",
"q. c #A05EBC",
"w. c #A260BD",
"e. c #A362BE",
"r. c #A972BF",
"t. c #A77BBA",
"y. c #A97FBB",
"u. c #A565C0",
"i. c #A567C0",
"p. c #A769C1",
"a. c #A76AC1",
"s. c #A86DC2",
"d. c #AA6FC3",
"f. c #AB70C4",
"g. c #AD72C5",
"h. c #AE75C6",
"j. c #B17AC8",
"k. c #7293BB",
"l. c #858082",
"z. c #8C8C8C",
"x. c #8D9194",
"c. c #919292",
"v. c #9D9D9D",
"b. c #AA81BB",
"n. c #AF8ABF",
"m. c #AD91BA",
"M. c #A3A3A3",
"N. c #A5A5A5",
"B. c #A5A6A7",
"V. c #B3B3B3",
"C. c #B0B5B9",
"Z. c #BDBDBD",
"A. c #BFBFBF",
"S. c #E39597",
"D. c #EEA4A5",
"F. c #92D18B",
"G. c #ABD8A6",
"H. c #C1E3BC",
"J. c #B693C4",
"K. c #B796C4",
"L. c #B893C7",
"P. c #BE94D0",
"I. c #88A7C8",
"U. c #9AADC6",
"Y. c #A0BBD3",
"T. c #A2B9D7",
"R. c #D4B8DF",
"E. c #C3C3C3",
"W. c #C5C5C5",
"Q. c #C6C6C6",
"!. c #C8C8C8",
"~. c #CBCDCB",
"^. c #CDCDCD",
"/. c #CECECE",
"(. c #CCD4DF",
"). c #D4D1D1",
"_. c #D5D5D5",
"`. c #DCDCDC",
"'. c #ECDACA",
"]. c #D9E3D8",
"[. c #F5E4D4",
"{. c #F9E4D2",
"}. c #DCC6E5",
"|. c #DED5E2",
" X c #DCDFE5",
".X c #E2D1E9",
"XX c #E7DBEC",
"oX c #DCE0E5",
"OX c #DCE1E6",
"+X c #E2E2E2",
"@X c #E4E4E4",
"#X c #E5E5E5",
"$X c #E6E6E6",
"%X c #E7E7E7",
"&X c #EAE1EE",
"*X c #E8E8E8",
"=X c #E9E9E9",
"-X c #EAEAEA",
";X c #EBEBEB",
":X c #ECECEC",
">X c #EDEDED",
",X c #EEEEEE",
"<X c #EFEFEF",
"1X c #F8E6E8",
"2X c #F5E8EA",
"3X c #F2F0EE",
"4X c #F3F1EF",
"5X c #EEECF0",
"6X c #F0F0F0",
"7X c #F1F0F1",
"8X c #F1F1F1",
"9X c #F2F1F2",
"0X c #F2F2F2",
"qX c #F3F2F2",
"wX c #F3F3F3",
"eX c #F4F4F4",
"rX c #F5F5F5",
"tX c #F6F6F6",
"yX c #F7F7F7",
"uX c #F8F8F8",
"iX c #FAFAFA",
"pX c None",
/* pixels */
"pXpXpXpXpXpXpXpXpXpXpXpXpXpXpXpXpXpXpXpXpXpX",
"pXpXtXiXiXiXiXiXiXiXiXiXiXiXiXiXiXiXiXtXpXpX",
"pX0XtX0XeXtX0XtXtX0XtXeX^.M.Q.tXtX0X0XtX0XpX",
"pXiX0X0X0XeX0XeXS.Y C C < , N eX0XtX0X0XiXpX",
"pXiX0X0X0X0XK.n.1XT A V # # z :.0X0X0X0XiXpX",
"pXtX0X0X7Xt.6.0.b.2XR = > % a J -.2X0X0XtXpX",
"pXtX0X0XJ.7.e.a.d.y.l.b U & a G L :.0X0XtXpX",
"pXtX>X|.5.q.a.g.j.m.a ).D.* a D @.K '.>XtXpX",
"pX0X>XJ.7.u.f.j.R.m z.<X0Xv a S $.P ,.>X0XpX",
"pX0X>Xr.q.a.h.}.V.h +X0X<XB q : $.P *.>X0XpX",
"pX7X>X9.e.s..X=Xx N.>X>X>Xv.q ; +.@.%.>X>XpX",
"pX>X>Xa.u.XXY.x.n ;X5X<X>XZ.q ; H @.&.>X7XpX",
"pX>X=XP.&XI.2.d A.>X>X>X>X`.a ; F @.;.;X>XpX",
"pX>X=X5Xk.3.9 w f f f f f f q 6 =.{.[.=X=XpX",
"pX=X=X(.4.<.+ C. .} } } {  .2 O 1 X.].=X=XpX",
"pX$X%X=XT.7 0 OX' ] [ ] ] ' 3 X X G.=X$X$XpX",
"pX$X$X%XB.8 1.OX^ / / / / ^ E . @ ~.$X$X$XpX",
"pX+X_.!.g x.U. X~ ^ ^ ^ ^ Q W 4 r v.^.@X@XpX",
"pX$Xm q r r x =XH.F.o...O.4 t t w w j $X$XpX",
"pXE.@X@X@X@X@X@X#X-X6X2X>X%X#X#X$X#X$X@XE.pX",
"pXl W.%X*X=X=X=X=X>X;X>X;X;X=X=X=X=X$XW.k pX",
"pXpXpX                                pXpXpX"
};
