/* XPM */
static char *picasa[] = {
/* columns rows colors chars-per-pixel */
"22 22 190 2",
"   c #000000",
".  c #565656",
"X  c #575757",
"o  c #DF3A3D",
"O  c #F82F33",
"+  c #E03A3D",
"@  c #F93337",
"#  c #F9363A",
"$  c #F9373B",
"%  c #F67A0A",
"&  c #FB7B08",
"*  c #FC7C08",
"=  c #FE7E08",
"-  c #FE7F08",
";  c #F93D41",
":  c #DE5D5F",
">  c #FA4246",
",  c #FA4549",
"<  c #FA4A4E",
"1  c #FA5054",
"2  c #FA565A",
"3  c #E05D60",
"4  c #F9666A",
"5  c #2FAF1D",
"6  c #2DAD1E",
"7  c #2FB01D",
"8  c #34B61B",
"9  c #30B11D",
"0  c #31B31C",
"q  c #32B31C",
"w  c #33B51C",
"e  c #34B51C",
"r  c #36B81B",
"t  c #38BA1A",
"y  c #39BB1A",
"u  c #33AF25",
"i  c #4FAC3E",
"p  c #50AF3B",
"a  c #48B73B",
"s  c #53B337",
"d  c #52B238",
"f  c #51B03A",
"g  c #51B13A",
"h  c #4EA941",
"j  c #54AA4A",
"k  c #52BA46",
"l  c #7AC970",
"z  c #FE8108",
"x  c #FE8308",
"c  c #FE8508",
"v  c #FE8709",
"b  c #FE8809",
"n  c #FE8C09",
"m  c #FE8E09",
"M  c #FE8F09",
"N  c #FE9009",
"B  c #F98216",
"V  c #FD8B24",
"C  c #F58F34",
"Z  c #E58F42",
"A  c #FA9D49",
"S  c #E4A469",
"D  c #E7A469",
"F  c #EBA768",
"G  c #1657AD",
"H  c #155EAE",
"J  c #1C59AC",
"K  c #165CB0",
"L  c #165EB1",
"P  c #1664B5",
"I  c #1668B3",
"U  c #1569B8",
"Y  c #9A57B5",
"T  c #9B58B7",
"R  c #9C58B9",
"E  c #9E5ABB",
"W  c #9F5FBA",
"Q  c #A05FBB",
"!  c #A05EBC",
"~  c #A260BD",
"^  c #A362BE",
"/  c #A972BF",
"(  c #A77BBA",
")  c #A97FBB",
"_  c #A565C0",
"`  c #A567C0",
"'  c #A769C1",
"]  c #A76AC1",
"[  c #A86DC2",
"{  c #AA6FC3",
"}  c #AB70C4",
"|  c #AD72C5",
" . c #AE75C6",
".. c #B17AC8",
"X. c #7293BB",
"o. c #7EA1CF",
"O. c #AA81BB",
"+. c #AF8ABF",
"@. c #DE8183",
"#. c #FA8384",
"$. c #E39597",
"%. c #FA999B",
"&. c #F9ACAD",
"*. c #F9BCBD",
"=. c #90D189",
"-. c #92D18B",
";. c #ADDBA8",
":. c #B1DCAC",
">. c #B4DEAF",
",. c #C1E3BC",
"<. c #B693C4",
"1. c #B796C4",
"2. c #B893C7",
"3. c #BE94D0",
"4. c #88A7C8",
"5. c #A0BBD3",
"6. c #A3BBD9",
"7. c #CCABDB",
"8. c #D5B9E0",
"9. c #ADC2DE",
"0. c #C3C3C3",
"q. c #C5C5C5",
"w. c #CCD4DF",
"e. c #ECDACA",
"r. c #D9E3D8",
"t. c #F9E5CF",
"y. c #EEE6DC",
"u. c #EFE7DD",
"i. c #F5E4D4",
"p. c #F9E5D0",
"a. c #F9E4D2",
"s. c #F0E8DE",
"d. c #F1E9DE",
"f. c #DCC6E5",
"g. c #DED5E2",
"h. c #DCDFE5",
"j. c #E2D1E9",
"k. c #E7DBEC",
"l. c #DCE0E5",
"z. c #DCE1E6",
"x. c #DCE2E7",
"c. c #DCE3E8",
"v. c #DDE3E9",
"b. c #E4E4E4",
"n. c #E5E5E5",
"m. c #E6E6E6",
"M. c #E7E7E7",
"N. c #E6EEE5",
"B. c #E0E6EA",
"V. c #EAE1EE",
"C. c #EBE7ED",
"Z. c #E8E8E8",
"A. c #E9E9E9",
"S. c #E9EBE8",
"D. c #E8EAEB",
"F. c #EAEAEA",
"G. c #EBEBEB",
"H. c #EDEBE8",
"J. c #EBECEA",
"K. c #EBECED",
"L. c #ECECEC",
"P. c #EDEDED",
"I. c #EEEEEE",
"U. c #EFEFEF",
"Y. c #F2EAE0",
"T. c #F3EBE2",
"R. c #F4ECE4",
"E. c #F4ECE5",
"W. c #F0E7EB",
"Q. c #F8E6E8",
"!. c #F5E8EA",
"~. c #F2F0EE",
"^. c #F3F1EF",
"/. c #EEECF0",
"(. c #F0F0F0",
"). c #F1F0F1",
"_. c #F1F1F1",
"`. c #F2F1F2",
"'. c #F2F1F3",
"]. c #F2F2F2",
"[. c #F3F2F2",
"{. c #F3F3F3",
"}. c #F4F1F1",
"|. c #F4F4F4",
" X c #F5F5F5",
".X c #F6F6F6",
"XX c #F7F7F7",
"oX c #F8F8F8",
"OX c #FAFAFA",
"+X c None",
/* pixels */
"+X+X+X+X+X+X+X+X+X+X+X+X+X+X+X+X+X+X+X+X+X+X",
"+X+X.XOXOXOXOXOXOXOXOXOXOXOXOXOXOXOXOX.X+X+X",
"+X]..X].|..X]..X.X|.|.|..X]..X].|.{.]..X{.+X",
"+XOX].].].|.].|.$.: + o : @..X].{.{.{.].OX+X",
"+XOX].].].].1.+.Q.4 # # @ O R.S ~.{.{.].OX+X",
"+X.X].].).( T Q O.!.#., > ; T.& Z ~.].].oX+X",
"+X.X].].<.R ^ ] { ) W.%.1 < T.x * D (.].XX+X",
"+X.XP.g.Y ! ] | ..7.C.].&.2 T.v x % e.U..X+X",
"+X].P.2.R _ { ..8.].].P.|.*.d.M v * F P.].+X",
"+X].P./ ! ]  .f.].P.P.].W.{.s.N v = C P.].+X",
"+XP.G.W ^ { j.].P.P.P.P./.P.s.N v x B P.P.+X",
"+X].P.' _ k.5.B.).P.).P.U.P.u.M v x V K.W.+X",
"+XP.G.3.V.4.I v.P.P.P.P.P.P.y.N v * A D.P.+X",
"+XG.G./.X.H U v.P.P.P.W.K.L.H.t.a.a.a.Z.G.+X",
"+XM.M.w.J L P l.p s s s s p a p i j r.M.G.+X",
"+XM.M.G.6.G L l.8 t y y y e e 5 6 ;.G.M.M.+X",
"+XM.M.M.M.o.G l.9 e 8 8 w 9 5 5 =.Z.M.M.b.+X",
"+Xb.b.M.M.D.9.h.5 5 5 5 5 5 u :.L.M.M.b.b.+X",
"+XM.b.M.M.M.G.M.,.=.k a l >.N.G.M.b.b.M.M.+X",
"+X0.b.b.b.b.b.b.b.G.].P.K.M.b.b.b.b.b.b.0.+X",
"+XX q.M.M.G.M.G.G.G.G.P.G.G.G.G.M.G.M.q.X +X",
"+X+X+X                                +X+X+X"
};
