/* XPM */
static char *xchat[] = {
/* columns rows colors chars-per-pixel */
"22 22 107 2",
"   c #000000",
".  c #2B3D09",
"X  c #527316",
"o  c #55741A",
"O  c #687E3C",
"+  c #5C8217",
"@  c #5F851A",
"#  c #62861E",
"$  c #658E1A",
"%  c #69911C",
"&  c #6E991C",
"*  c #709C1D",
"=  c #74A61B",
"-  c #77A91B",
";  c #79AC1D",
":  c #7DB01F",
">  c #658921",
",  c #688C22",
"<  c #6A9221",
"1  c #6F922B",
"2  c #739C23",
"3  c #74972F",
"4  c #749A2A",
"5  c #799F2A",
"6  c #6B833D",
"7  c #6F8B38",
"8  c #76A222",
"9  c #79A624",
"0  c #7CAD23",
"q  c #7DA62A",
"w  c #7FA92A",
"e  c #7EB023",
"r  c #7EA635",
"t  c #7EA338",
"y  c #74894B",
"u  c #80AD26",
"i  c #80A72F",
"p  c #82AC2D",
"a  c #82B425",
"s  c #85B42B",
"d  c #89B52F",
"f  c #86B828",
"g  c #8ABA2E",
"h  c #83AD33",
"j  c #83AC3B",
"k  c #85B231",
"l  c #8AB433",
"z  c #8DBA32",
"x  c #86B13A",
"c  c #8BB53C",
"v  c #8EB93C",
"b  c #90BF33",
"n  c #91BC3C",
"m  c #90C134",
"M  c #96C638",
"N  c #9CCC3C",
"B  c #A2D33C",
"V  c #A6D83E",
"C  c #AADC3F",
"Z  c #8CAC4D",
"A  c #8DB544",
"S  c #8FBA41",
"D  c #8FB54A",
"F  c #91BA43",
"G  c #93BA4C",
"H  c #90AE55",
"J  c #9AB95C",
"K  c #8A9F63",
"L  c #8C9A6F",
"P  c #8E9D70",
"I  c #A4BC75",
"U  c #98C640",
"Y  c #9DC940",
"T  c #9FCA49",
"R  c #A0CE42",
"E  c #A3D440",
"W  c #ABDD41",
"Q  c #ADDD48",
"!  c #A4CF50",
"~  c #AAD358",
"^  c #AFD85E",
"/  c #ADE043",
"(  c #AFE148",
")  c #B1E345",
"_  c #B0E14A",
"`  c #B9E657",
"'  c #B4DB64",
"]  c #B9DF6B",
"[  c #BDE371",
"{  c #C3E679",
"}  c #C7EA7E",
"|  c #A6B684",
" . c #ABB499",
".. c #ACC180",
"X. c #B4C496",
"o. c #BBD090",
"O. c #C9EA84",
"+. c #D0F08C",
"@. c #D4DEBF",
"#. c #D0D5C7",
"$. c #D4DBC5",
"%. c #DADED3",
"&. c #DFE5D2",
"*. c #EBECEA",
"=. c #F5F5F5",
"-. c #FAFAFA",
";. c None",
/* pixels */
";.;.;.;.;.;.;.;.;.;.;.;.;.;.;.;.;.;.;.;.;.;.",
";.;.O.+.+.+.+.+.+.+.+.+.+.+.+.+.+.+.+.O.;.;.",
";.{ ` ) ) ) ) ) ) ) ) ) _ ) ) ) ) ) ) ` { ;.",
";.} C C W / W ( _ _ _ _ _ _ ) _ / C C W } ;.",
";.{ W C W W Q Y z h i i l n R Q Q W B W { ;.",
";.[ V V W R i 5 p d l b z d p l E W V V [ ;.",
";.] V E Y 1 q s l G -.n o.@.b d w R E B ] ;.",
";.' B N 4 q p s z I %.z $.| b b z p E B ' ;.",
";.^ B h 2 u p I -.-.-.-.-.-.&.g g u n N ^ ;.",
";.~ N 4 2 q q 3 O *.P P *.6 7 g g s p N ~ ;.",
";.! N # 2 2 q A J -.H  .#.G d f s f 8 N ! ;.",
";.! M 1 2 2 2 =.-.=.=.=.=.=.D u f w q M R ;.",
";.U m i % 2 2 o  . .o *.y o = u a 8 h M U ;.",
";.m z F # % * * %.K Z *.2 u ; u 9 2 n g m ;.",
";.g f g c > % & X % % o 2 = * * % v g f z ;.",
";.a a f d F , % & & * * * * % 4 A f f a a ;.",
";.: e a a s 4 @ @ @ @ @ < 3 x v e e : : : ;.",
";.; ; ; 0 9 + + t S S S v k e e e e ; ; ; ;.",
";.- - - 8 4 r x e 0 0 9 ; ; ; - = - - = ; ;.",
";.$ = = = = = = = = = = = = = = = = = = $ ;.",
";.. < h x x A S A G G G D A A x x x k < . ;.",
";.;.;.                                ;.;.;."
};
