/* XPM */
static char *xterm___x__[] = {
/* columns rows colors chars-per-pixel */
"22 22 213 2",
"   c #000000",
".  c #060507",
"X  c #09080A",
"o  c #0B0A0D",
"O  c #0E0C10",
"+  c #0E0D10",
"@  c #100E12",
"#  c #110F14",
"$  c #121014",
"%  c #131114",
"&  c #131115",
"*  c #131016",
"=  c #131116",
"-  c #141317",
";  c #151318",
":  c #17141A",
">  c #17151A",
",  c #18141B",
"<  c #18151C",
"1  c #1A171C",
"2  c #1A171D",
"3  c #1B171E",
"4  c #1B181E",
"5  c #1B181F",
"6  c #1C181F",
"7  c #1C1A1F",
"8  c #1D1B1F",
"9  c #1D1921",
"0  c #1E1B20",
"q  c #1F1B23",
"w  c #1F1D20",
"e  c #1F1C21",
"r  c #1F1D22",
"t  c #1F1D23",
"y  c #1F1B24",
"u  c #201B23",
"i  c #201D23",
"p  c #211E24",
"a  c #221F25",
"s  c #211D26",
"d  c #221D26",
"f  c #221E27",
"g  c #231E27",
"h  c #231F27",
"j  c #231F28",
"k  c #231F29",
"l  c #242027",
"z  c #242127",
"x  c #252129",
"c  c #262229",
"v  c #25202A",
"b  c #26212B",
"n  c #26232A",
"m  c #262429",
"M  c #272429",
"N  c #27242B",
"B  c #26212C",
"V  c #27222C",
"C  c #28232D",
"Z  c #29252D",
"A  c #2A252E",
"S  c #2A242F",
"D  c #2B2530",
"F  c #2B2531",
"G  c #2C2730",
"H  c #2D2932",
"J  c #2E2A33",
"K  c #2E2B33",
"L  c #2F2835",
"P  c #302A35",
"I  c #312B36",
"U  c #312C36",
"Y  c #312C37",
"T  c #322E36",
"R  c #322E37",
"E  c #322C38",
"W  c #332D39",
"Q  c #332C3A",
"!  c #332E3A",
"~  c #352F3B",
"^  c #353238",
"/  c #363339",
"(  c #36303B",
")  c #36313B",
"_  c #35303C",
"`  c #37303F",
"'  c #38343B",
"]  c #39323F",
"[  c #3C393F",
"{  c #393140",
"}  c #3A3240",
"|  c #3A3241",
" . c #3D3546",
".. c #3E3646",
"X. c #3E3746",
"o. c #3E3C41",
"O. c #3F3748",
"+. c #403D43",
"@. c #403B44",
"#. c #403748",
"$. c #433A4C",
"%. c #453C4E",
"&. c #453C4F",
"*. c #463D50",
"=. c #464646",
"-. c #474747",
";. c #48424C",
":. c #48414F",
">. c #48434F",
",. c #4B4551",
"<. c #4B4055",
"1. c #4D4852",
"2. c #4E4953",
"3. c #504E53",
"4. c #504B55",
"5. c #504A56",
"6. c #504B56",
"7. c #504C54",
"8. c #514D54",
"9. c #514959",
"0. c #554F59",
"q. c #565459",
"w. c #58555B",
"e. c #58555C",
"r. c #59565C",
"t. c #59575C",
"y. c #5C595F",
"u. c #605D64",
"i. c #625E67",
"p. c #665F6D",
"a. c #646069",
"s. c #666369",
"d. c #66616A",
"f. c #66626A",
"g. c #67646B",
"h. c #68636C",
"j. c #6B686E",
"k. c #6B6670",
"l. c #6D6972",
"z. c #6F6B72",
"x. c #6F6B74",
"c. c #706E73",
"v. c #706C74",
"b. c #736E77",
"n. c #737176",
"m. c #747079",
"M. c #767379",
"N. c #75717A",
"B. c #767479",
"V. c #78757C",
"C. c #7A767D",
"Z. c #7A777D",
"A. c #7B777F",
"S. c #7E7A82",
"D. c #7E7B82",
"F. c #7F7C83",
"G. c #7F7A85",
"H. c #7F7C84",
"J. c #807C83",
"K. c #817D85",
"L. c #817D86",
"P. c #827E86",
"I. c #837F87",
"U. c #858189",
"Y. c #868189",
"T. c #86828A",
"R. c #86828B",
"E. c #88838C",
"W. c #89848D",
"Q. c #969696",
"!. c #9A9A9A",
"~. c #9F9F9F",
"^. c #A0A0A0",
"/. c #A5A5A5",
"(. c #AAAAAA",
"). c #AFAFAF",
"_. c #B4B4B4",
"`. c #B9B9B9",
"'. c #BBBBBB",
"]. c #BDBDBD",
"[. c #BEBEBE",
"{. c #BFBFBF",
"}. c #C3C3C3",
"|. c #C4C4C4",
" X c #C5C5C5",
".X c #C6C6C6",
"XX c #C7C7C7",
"oX c #C8C8C8",
"OX c #C9C9C9",
"+X c #CACACA",
"@X c #CACACB",
"#X c #CCCCCC",
"$X c #CDCDCD",
"%X c #CECECE",
"&X c #D0D0D0",
"*X c #D1D1D1",
"=X c #D2D2D2",
"-X c #D3D3D3",
";X c #D5D5D5",
":X c #D9D9D9",
">X c #DDDDDD",
",X c #DEDEDE",
"<X c #E0E0E0",
"1X c #E2E2E2",
"2X c #E3E3E3",
"3X c #E4E4E4",
"4X c #E6E6E6",
"5X c #E7E7E7",
"6X c #EAEAEA",
"7X c #EDEDED",
"8X c #EFEFEF",
"9X c #F4F4F4",
"0X c None",
/* pixels */
"0X0X0X0X0X0X0X0X0X0X0X0X0X0X0X0X0X0X0X0X0X0X",
"0X0X8X9X9X9X9X9X9X9X9X9X9X9X9X9X9X9X9X8X0X0X",
"0X6X XQ.Q.Q.Q.Q.Q.Q.Q.Q.Q.Q.Q.Q.Q.Q.Q. X6X0X",
"0X8X!.w % % % % % % % % % % % % % % w !.8X0X",
"0X8X~.$ 8 w.n.n./ 0 0 w w 0 0 / t.8 % ~.8X0X",
"0X6X/.$ 8 M c.B.k.p w w w w x f.N 8 % /.6X0X",
"0X3X(.$ 8 w o.B.B.3.p t w w q.[ u 8 = (.3X0X",
"0X3X_.$ w u u u.C.C.' x x +.y.u u 8 $ ).3X0X",
"0X<X_.$ u z M E C.S.v.H E z.K M p p % _.1X0X",
"0X,X`.- x C H K 2.L.L.0.h.;.M j p 6 O `.,X0X",
"0X:X[.> C K Y E ) x.S.3.e.3 < ; # O . [.:X0X",
"0X;X}.4 H ~ ~ E C e.2.B.g.j 0 9 , = X }.;X0X",
"0X*XOX8 E F j k @.f.2.G.H.2.v t 9 , o OX*X0X",
"0X$X$X3 u p B P b.{ E b.I.S.) B p 9 O $X$X0X",
"0X X-X@ y B F a.6.{ { ,.R.U.l.F x u @ -XXX0X",
"0X}.:X$ p F >.k.{  .#.O.p.W.R.6.S j # :X}.0X",
"0X{.,X= x E N.O. .$.*.*.&.J.W.L.~ k % ,X{.0X",
"0X[.3X% x i.,.{ O.*.<.<.*.9.U.L.f.x % 3X[.0X",
"0X'.1XN ; 8 y j B F L P F B k u 9 , x 2X'.0X",
"0X^.OX1X3X6X3X3X5X5X3X5X3X5X3X5X3X5X1XOX^.0X",
"0X-./. XXXOXOX$X$X*X*X*X*X$X$XOXOX X X/.=.0X",
"0X0X0X                                0X0X0X"
};
