#define corner_left_width 10
#define corner_left_height 12
static unsigned char corner_left_bits[] = {
	0xfe, 0x03, 0xff, 0x03, 0xff, 0x03, 0xff, 0x03, 0xfe, 0x03, 0xfc, 0x03,
	0xf8, 0x03, 0xf0, 0x03, 0xe0, 0x03, 0xc0, 0x03, 0x80, 0x03, 0x00, 0x03 };
