#define layout_full_width 15
#define layout_full_height 9
static unsigned char layout_full_bits[] = {
 0xFF, 0x7F, 0x01, 0x40, 0x01, 0x40, 0x01, 0x40, 0x01, 0x40, 0x01, 0x40,
 0x01, 0x40, 0x01, 0x40, 0xFF, 0x7F };
