<svg xmlns="http://www.w3.org/2000/svg" width="48" height="48">
<defs>
  <path
     d="M 3.59375 4 C 2.702192 4 2 4.7263438 2 5.625 L 2 42.375 C 2 43.273656 2.702192 44 3.59375 44 L 44.40625 44 C 44.517695 44 44.6138 43.9903 44.71875 43.96875 C 45.453406 43.817988 46 43.161319 46 42.375 L 46 17.5 C 46 16.601344 45.297808 15.875 44.40625 15.875 L 10.03125 15.875 C 9.139693 15.875 8.4375 16.601344 8.4375 17.5 C 8.4375 18.398656 9.139693 19.125 10.03125 19.125 L 42.78125 19.125 L 42.78125 40.75 L 5.21875 40.75 L 5.21875 7.25 L 18.09375 7.25 L 18.09375 12.125 C 18.09375 13.023656 18.795942 13.71875 19.6875 13.71875 L 41.1875 13.71875 C 42.079058 13.71875 42.78125 13.023656 42.78125 12.125 C 42.78125 11.226344 42.079058 10.5 41.1875 10.5 L 21.3125 10.5 L 21.3125 5.625 C 21.3125 4.7263438 20.579057 4 19.6875 4 L 3.59375 4 z M 20.75 21.25 C 19.975954 21.28617 19.997888 22.114774 20.03125 22.6875 L 20.03125 31.0625 C 18.426938 29.601843 15.694658 29.759167 14.28125 31.40625 C 12.800841 32.949118 12.883697 35.623525 14.4375 37.09375 C 15.941802 38.686141 18.692385 38.698556 20.21875 37.125 C 21.243009 36.18885 21.577693 34.773899 21.5 33.4375 L 21.5 22.6875 L 30.25 22.6875 L 30.25 31.0625 C 28.645688 29.601843 25.913408 29.759167 24.5 31.40625 C 23.019591 32.949118 23.071197 35.623526 24.625 37.09375 C 26.129302 38.686143 28.911136 38.698557 30.4375 37.125 C 31.461759 36.188851 31.796442 34.773898 31.71875 33.4375 C 31.71285 29.577395 31.70808 25.734519 31.6875 21.875 C 31.60138 21.287749 30.978502 21.20105 30.5 21.25 L 20.75 21.25 z M 17.34375 31.5 C 18.930507 31.44328 20.293722 33.035597 20 34.59375 C 19.811275 36.217819 17.948628 37.295704 16.4375 36.6875 C 14.889026 36.181602 14.180225 34.142708 15.0625 32.78125 C 15.532388 31.989907 16.423949 31.490084 17.34375 31.5 z M 27.5625 31.5 C 29.149258 31.44328 30.512472 33.035597 30.21875 34.59375 C 30.030025 36.217819 28.136127 37.295704 26.625 36.6875 C 25.076525 36.181602 24.398975 34.142708 25.28125 32.78125 C 25.751138 31.989907 26.6427 31.490084 27.5625 31.5 z "
     id="path-main" />
</defs>
<acyl-settings>
<linearGradient
     id="linearGradient4321">
    <stop
       style="stop-color:#FFFFFF;stop-opacity:1.0;"
       offset="1.0"
       id="stop1" />
  </linearGradient>
<linearGradient
     inkscape:collect="always"
     xlink:href="#linearGradient4321"
     id="acyl_gradient"
     x1="50.0%"
     y1="0.0%"
     x2="50.0%"
     y2="100.0%" />
<filter>
    </filter>
<use id="1" style="fill:url(#acyl_gradient);filter:url(#filter1111)" xlink:href="#path-main" />
</acyl-settings>
</svg>
