<svg xmlns="http://www.w3.org/2000/svg" width="48" height="48">
<defs>
  <path
     d="M 3.59375 4 C 2.702192 4 2 4.7263438 2 5.625 L 2 42.375 C 2 43.273656 2.702192 44 3.59375 44 L 44.40625 44 C 44.517695 44 44.6138 43.9903 44.71875 43.96875 C 45.453406 43.817988 46 43.161319 46 42.375 L 46 17.5 C 46 16.601344 45.297808 15.875 44.40625 15.875 L 10.03125 15.875 C 9.139693 15.875 8.4375 16.601344 8.4375 17.5 C 8.4375 18.398656 9.139693 19.125 10.03125 19.125 L 42.78125 19.125 L 42.78125 40.75 L 5.21875 40.75 L 5.21875 7.25 L 18.09375 7.25 L 18.09375 12.125 C 18.09375 13.023656 18.795942 13.71875 19.6875 13.71875 L 41.1875 13.71875 C 42.079058 13.71875 42.78125 13.023656 42.78125 12.125 C 42.78125 11.226344 42.079058 10.5 41.1875 10.5 L 21.3125 10.5 L 21.3125 5.625 C 21.3125 4.7263438 20.579057 4 19.6875 4 L 3.59375 4 z M 23.9375 21.03125 L 21.375 27.3125 C 19.249274 27.533596 17.126873 27.760069 15 27.96875 C 16.621672 29.487413 18.266979 30.971106 19.90625 32.46875 C 19.441481 34.658427 18.981824 36.838287 18.53125 39.03125 C 20.405878 37.872515 22.257312 36.7022 24.125 35.53125 C 25.96033 36.672546 27.786558 37.83295 29.625 38.96875 C 29.166073 36.740496 28.669912 34.503989 28.1875 32.28125 C 29.790246 30.794631 31.399021 29.301226 33 27.8125 C 30.827965 27.620542 28.670744 27.425859 26.5 27.21875 C 25.646577 25.165041 24.7619 23.098074 23.9375 21.03125 z M 23.9375 25.0625 C 24.447817 26.27356 24.944628 27.514193 25.46875 28.71875 C 26.766928 28.827636 28.077751 28.942078 29.375 29.0625 C 28.427975 29.947328 27.472199 30.826837 26.53125 31.71875 C 26.79557 33.04105 27.066787 34.368034 27.34375 35.6875 C 26.262336 35.021785 25.210246 34.346331 24.125 33.6875 C 23.016141 34.41536 21.871324 35.074643 20.75 35.78125 C 21.036641 34.489733 21.277694 33.190188 21.59375 31.90625 C 20.633198 30.979555 19.604736 30.123134 18.625 29.21875 C 19.880831 29.084813 21.152143 28.963087 22.40625 28.8125 C 22.954236 27.581517 23.421181 26.308488 23.9375 25.0625 z "
     id="path-main" />
</defs>
<acyl-settings>
<linearGradient
     id="linearGradient4321">
    <stop
       style="stop-color:#FFFFFF;stop-opacity:1.0;"
       offset="1.0"
       id="stop1" />
  </linearGradient>
<linearGradient
     inkscape:collect="always"
     xlink:href="#linearGradient4321"
     id="acyl_gradient"
     x1="50.0%"
     y1="0.0%"
     x2="50.0%"
     y2="100.0%" />
<filter>
    </filter>
<use id="1" style="fill:url(#acyl_gradient);filter:url(#filter1111)" xlink:href="#path-main" />
</acyl-settings>
</svg>
