<svg xmlns="http://www.w3.org/2000/svg" width="48" height="48">
<defs>
  <path
     d="M 3.59375 4 C 2.702192 4 2 4.7263438 2 5.625 L 2 42.375 C 2 43.273656 2.702192 44 3.59375 44 L 44.40625 44 C 44.517695 44 44.6138 43.9903 44.71875 43.96875 C 45.453406 43.817988 46 43.161319 46 42.375 L 46 17.5 C 46 16.601344 45.297808 15.875 44.40625 15.875 L 10.03125 15.875 C 9.139693 15.875 8.4375 16.601344 8.4375 17.5 C 8.4375 18.398656 9.139693 19.125 10.03125 19.125 L 42.78125 19.125 L 42.78125 40.75 L 5.21875 40.75 L 5.21875 7.25 L 18.09375 7.25 L 18.09375 12.125 C 18.09375 13.023656 18.795942 13.71875 19.6875 13.71875 L 41.1875 13.71875 C 42.079058 13.71875 42.78125 13.023656 42.78125 12.125 C 42.78125 11.226344 42.079058 10.5 41.1875 10.5 L 21.3125 10.5 L 21.3125 5.625 C 21.3125 4.7263438 20.579057 4 19.6875 4 L 3.59375 4 z M 22.3125 22.03125 C 19.61455 22.1153 17.373971 24.690325 17.65625 27.375 C 15.255892 26.875975 12.628793 28.447758 11.96875 30.8125 C 11.190627 33.198223 12.529559 36.045014 14.90625 36.90625 C 15.631111 37.222215 16.406031 37.289592 17.1875 37.25 C 22.366206 37.2405 27.541108 37.25214 32.71875 37.21875 C 34.517188 36.969664 36.123429 35.521578 36.34375 33.6875 C 36.745996 31.322119 34.677152 28.961198 32.28125 29.03125 C 31.188828 29.370811 31.935047 27.644342 31.21875 27.09375 C 30.481839 25.811159 28.790772 25.221408 27.40625 25.71875 C 26.845895 23.465414 24.62542 21.89129 22.3125 22.03125 z M 22.40625 23.78125 C 24.306238 23.623132 26.066197 25.414358 25.8125 27.3125 C 25.545141 28.070036 26.463651 28.824573 27.125 28.34375 C 27.544234 27.891024 27.649203 27.129988 28.5 27.28125 C 29.717934 27.26893 30.407085 28.950344 29.5 29.78125 C 28.810757 30.176758 29.005727 31.351516 29.8125 31.4375 C 30.532178 31.605118 31.080939 31.047574 31.71875 30.84375 C 33.219838 30.403699 34.816831 31.828899 34.59375 33.375 C 34.50543 34.680618 33.224766 35.601663 31.96875 35.5 C 26.840407 35.4974 21.722012 35.5091 16.59375 35.5 C 14.634068 35.47509 13.081405 33.379058 13.625 31.5 C 14.046966 29.599708 16.386268 28.472001 18.125 29.375 C 18.785673 29.598385 19.20088 30.573423 20 30.21875 C 20.659559 29.965277 20.706611 28.990648 20.125 28.625 C 19.066309 27.97858 19.28352 26.408597 19.78125 25.4375 C 20.295536 24.468369 21.309489 23.829635 22.40625 23.78125 z "
     id="path-main" />
</defs>
<acyl-settings>
<linearGradient
     id="linearGradient4321">
    <stop
       style="stop-color:#FFFFFF;stop-opacity:1.0;"
       offset="1.0"
       id="stop1" />
  </linearGradient>
<linearGradient
     inkscape:collect="always"
     xlink:href="#linearGradient4321"
     id="acyl_gradient"
     x1="50.0%"
     y1="0.0%"
     x2="50.0%"
     y2="100.0%" />
<filter>
    </filter>
<use id="1" style="fill:url(#acyl_gradient);filter:url(#filter1111)" xlink:href="#path-main" />
</acyl-settings>
</svg>
