<svg xmlns="http://www.w3.org/2000/svg" width="48" height="48">
<defs>
  <path
     d="M 4.53125 2 C 3.679981 2 3 2.680924 3 3.53125 L 3 38.3125 C 3 39.162826 3.679981 39.875 4.53125 39.875 L 22.46875 39.875 L 22.46875 42.9375 L 4.53125 42.9375 C 3.679981 42.9375 3 43.618425 3 44.46875 C 3 45.319076 3.679981 46 4.53125 46 L 23.84375 46 L 24.15625 46 L 43.46875 46 C 44.320018 46 45 45.319076 45 44.46875 C 45 43.618425 44.320018 42.9375 43.46875 42.9375 L 25.53125 42.9375 L 25.53125 39.875 L 43.46875 39.875 C 43.575158 39.875 43.681042 39.86413 43.78125 39.84375 C 44.482707 39.701096 45 39.056535 45 38.3125 L 45 14.78125 C 45 13.930924 44.320018 13.25 43.46875 13.25 L 10.6875 13.25 C 9.836232 13.25 9.15625 13.930924 9.15625 14.78125 C 9.15625 15.631575 9.836232 16.3125 10.6875 16.3125 L 41.9375 16.3125 L 41.9375 36.78125 L 6.0625 36.78125 L 6.0625 5.0625 L 18.375 5.0625 L 18.375 9.6875 C 18.375 10.537825 19.054981 11.21875 19.90625 11.21875 L 40.375 11.21875 C 41.226269 11.21875 41.9375 10.537825 41.9375 9.6875 C 41.9375 8.837174 41.226269 8.125 40.375 8.125 L 21.4375 8.125 L 21.4375 3.53125 C 21.4375 2.680924 20.757519 2 19.90625 2 L 4.53125 2 z M 19.3125 18.375 C 18.942338 18.37961 18.590646 18.42533 18.28125 18.46875 C 17.339873 18.600867 16.779481 18.838246 16.5 18.96875 C 16.33442 19.008111 16.188689 19.073297 16.0625 19.1875 C 15.989697 19.252219 15.92638 19.32349 15.875 19.40625 C 15.87106 19.41013 15.84765 19.46485 15.84375 19.46875 C 15.759365 19.610969 15.6953 19.709816 15.6875 19.875 C 15.6864 19.90229 15.6864 19.94145 15.6875 19.96875 C 15.6848 20.011621 15.6848 20.05088 15.6875 20.09375 L 15.84375 31.625 L 15.84375 31.71875 C 15.8458 31.754048 15.8692 31.80887 15.875 31.84375 C 15.88149 31.903191 15.88937 31.97389 15.90625 32.03125 C 16.007943 32.334957 16.257969 32.5883 16.5625 32.6875 C 16.867028 32.786703 17.207682 32.748035 17.46875 32.5625 C 17.47269 32.55864 17.4961 32.53515 17.5 32.53125 C 17.877348 32.367078 19.874076 31.597154 22.90625 32.875 C 24.788864 33.668386 26.292752 34.190266 27.65625 34.375 C 28.904214 34.544079 30.073723 34.385988 31.0625 33.8125 C 31.07295 33.80644 31.08334 33.78745 31.09375 33.78125 C 31.21467 33.73643 31.34195 33.68036 31.4375 33.59375 C 31.45758 33.57887 31.44983 33.54757 31.46875 33.53125 C 31.47667 33.52357 31.4924 33.5079 31.5 33.5 C 31.51632 33.48107 31.54762 33.45757 31.5625 33.4375 C 31.57908 33.41476 31.61038 33.3678 31.625 33.34375 C 31.62894 33.33985 31.65235 33.34765 31.65625 33.34375 C 31.66883 33.32081 31.67671 33.3051 31.6875 33.28125 C 31.6915 33.2735 31.6837 33.2578 31.6875 33.25 C 31.71703 33.190055 31.76409 33.15834 31.78125 33.09375 C 31.79019 33.06679 31.77455 33.02763 31.78125 33 C 31.78134 32.9922 31.78134 32.97655 31.78125 32.96875 C 31.79906 32.860243 31.79906 32.733508 31.78125 32.625 L 31.6875 27.34375 C 31.71876 27.201097 31.71876 27.048901 31.6875 26.90625 L 31.65625 21.0625 C 31.657185 20.674358 31.411638 20.325831 31.0625 20.15625 C 30.713363 19.986669 30.304499 20.009304 30 20.25 C 29.421991 20.631821 28.735556 20.814736 27.65625 20.65625 C 26.6794 20.512809 25.388016 20.032093 23.84375 19.40625 C 23.651846 19.328477 23.482056 19.30337 23.28125 19.21875 C 22.269797 18.792494 21.343888 18.537865 20.5 18.4375 C 20.078056 18.38729 19.682661 18.3704 19.3125 18.375 z M 19.34375 20.40625 C 19.624932 20.3987 19.920057 20.39836 20.25 20.4375 C 20.896298 20.514179 21.651009 20.723298 22.46875 21.0625 L 22.5 24.8125 C 20.484158 24.213442 18.906003 24.400928 17.8125 24.65625 L 17.71875 20.65625 C 17.93358 20.588688 18.186402 20.52153 18.5625 20.46875 C 18.793155 20.43638 19.062569 20.41385 19.34375 20.40625 z M 24.5 21.84375 C 25.530852 22.21174 26.502733 22.496915 27.375 22.625 C 28.167917 22.741434 28.918237 22.718169 29.625 22.5625 L 29.6875 26.5 C 29.210757 26.701155 28.674823 26.787096 27.875 26.65625 C 27.028779 26.517814 25.875395 26.065883 24.53125 25.53125 L 24.5 21.84375 z M 19.5625 26.40625 C 20.373979 26.409102 21.376966 26.555831 22.53125 27 L 22.59375 30.65625 C 20.595336 30.058417 18.978473 30.151826 17.875 30.375 L 17.8125 26.65625 C 18.06099 26.570914 18.37456 26.49456 18.8125 26.4375 C 19.035518 26.40844 19.292007 26.40525 19.5625 26.40625 z M 24.5625 27.75 C 25.648403 28.158751 26.664391 28.478075 27.5625 28.625 C 28.31087 28.747431 29.040243 28.764035 29.71875 28.625 L 29.75 32.15625 C 29.259164 32.377386 28.703623 32.514282 27.90625 32.40625 C 27.069415 32.292872 25.967066 31.90094 24.625 31.375 L 24.5625 27.75 z "
     id="path-main" />
</defs>
<acyl-settings>
<linearGradient
     id="linearGradient4321">
    <stop
       style="stop-color:#FFFFFF;stop-opacity:1.0;"
       offset="1.0"
       id="stop1" />
  </linearGradient>
<linearGradient
     inkscape:collect="always"
     xlink:href="#linearGradient4321"
     id="acyl_gradient"
     x1="50.0%"
     y1="0.0%"
     x2="50.0%"
     y2="100.0%" />
<filter>
    </filter>
<use id="1" style="fill:url(#acyl_gradient);filter:url(#filter1111)" xlink:href="#path-main" />
</acyl-settings>
</svg>
