<svg xmlns="http://www.w3.org/2000/svg" width="48" height="48">
<defs>
  <path
     d="M 4.53125 2 C 3.679981 2 3 2.680924 3 3.53125 L 3 38.3125 C 3 39.162826 3.679981 39.875 4.53125 39.875 L 22.46875 39.875 L 22.46875 42.9375 L 4.53125 42.9375 C 3.679981 42.9375 3 43.618425 3 44.46875 C 3 45.319076 3.679981 46 4.53125 46 L 23.84375 46 L 24.15625 46 L 43.46875 46 C 44.320018 46 45 45.319076 45 44.46875 C 45 43.618425 44.320018 42.9375 43.46875 42.9375 L 25.53125 42.9375 L 25.53125 39.875 L 43.46875 39.875 C 43.575158 39.875 43.681042 39.86413 43.78125 39.84375 C 44.482707 39.701096 45 39.056535 45 38.3125 L 45 14.78125 C 45 13.930924 44.320018 13.25 43.46875 13.25 L 10.6875 13.25 C 9.836232 13.25 9.15625 13.930924 9.15625 14.78125 C 9.15625 15.631575 9.836232 16.3125 10.6875 16.3125 L 41.9375 16.3125 L 41.9375 36.78125 L 6.0625 36.78125 L 6.0625 5.0625 L 18.375 5.0625 L 18.375 9.6875 C 18.375 10.537825 19.054981 11.21875 19.90625 11.21875 L 40.375 11.21875 C 41.226269 11.21875 41.9375 10.537825 41.9375 9.6875 C 41.9375 8.837174 41.226269 8.125 40.375 8.125 L 21.4375 8.125 L 21.4375 3.53125 C 21.4375 2.680924 20.757519 2 19.90625 2 L 4.53125 2 z M 17.28125 17.8125 C 16.586037 17.932899 16.485917 18.738431 16.5625 19.3125 C 16.5578 22.493317 16.46752 25.663685 16.5 28.84375 C 16.751514 30.367893 17.939182 31.586504 19.1875 32.40625 C 20.684766 33.347489 22.320743 34.143598 23.65625 35.3125 C 24.245172 35.69293 24.801808 35.147404 25.15625 34.71875 C 27.015182 33.50003 29.162467 32.698536 30.71875 31.0625 C 31.557389 30.204141 31.790435 28.965771 31.6875 27.8125 C 31.61482 24.730819 31.519365 21.640313 31.375 18.5625 C 31.249898 17.89919 30.354606 17.665951 29.875 18.125 C 28.856876 18.867582 27.514013 19.336362 26.28125 18.84375 C 25.509825 18.63108 24.836285 18.151417 24.0625 17.96875 C 23.305465 18.00747 22.874955 18.808171 22.125 18.9375 C 20.613636 19.425897 19.03762 18.729427 17.8125 17.875 C 17.649343 17.80782 17.454145 17.77734 17.28125 17.8125 z M 24 19.84375 C 25.38323 20.485817 26.925674 21.180745 28.46875 20.65625 C 28.985109 20.59959 29.904359 19.79489 29.6875 20.78125 C 29.75592 23.512133 29.89324 26.237369 29.875 28.96875 C 29.669657 29.96584 28.647214 30.493579 27.875 31.03125 C 26.759491 31.733434 25.579682 32.323505 24.46875 33.03125 C 23.934084 33.738859 23.244996 32.520438 22.59375 32.34375 C 21.366385 31.527678 19.931069 30.965528 18.9375 29.84375 C 18.389859 29.289997 18.226903 28.504803 18.3125 27.75 C 18.32529 25.214936 18.35497 22.69136 18.34375 20.15625 C 20.037313 21.273596 22.374274 20.907979 24 19.84375 z "
     id="path-main" />
</defs>
<acyl-settings>
<linearGradient
     id="linearGradient4321">
    <stop
       style="stop-color:#FFFFFF;stop-opacity:1.0;"
       offset="1.0"
       id="stop1" />
  </linearGradient>
<linearGradient
     inkscape:collect="always"
     xlink:href="#linearGradient4321"
     id="acyl_gradient"
     x1="50.0%"
     y1="0.0%"
     x2="50.0%"
     y2="100.0%" />
<filter>
    </filter>
<use id="1" style="fill:url(#acyl_gradient);filter:url(#filter1111)" xlink:href="#path-main" />
</acyl-settings>
</svg>
