<svg xmlns="http://www.w3.org/2000/svg" width="48" height="48">
<defs>
  <path
     d="M 3.59375 4 C 2.702192 4 2 4.7263438 2 5.625 L 2 42.375 C 2 43.273656 2.702192 44 3.59375 44 L 44.40625 44 C 44.517695 44 44.6138 43.9903 44.71875 43.96875 C 45.453406 43.817988 46 43.161319 46 42.375 L 46 17.5 C 46 16.601344 45.297808 15.875 44.40625 15.875 L 10.03125 15.875 C 9.139693 15.875 8.4375 16.601344 8.4375 17.5 C 8.4375 18.398656 9.139693 19.125 10.03125 19.125 L 42.78125 19.125 L 42.78125 40.75 L 5.21875 40.75 L 5.21875 7.25 L 18.09375 7.25 L 18.09375 12.125 C 18.09375 13.023656 18.795942 13.71875 19.6875 13.71875 L 41.1875 13.71875 C 42.079058 13.71875 42.78125 13.023656 42.78125 12.125 C 42.78125 11.226344 42.079058 10.5 41.1875 10.5 L 21.3125 10.5 L 21.3125 5.625 C 21.3125 4.7263438 20.579057 4 19.6875 4 L 3.59375 4 z M 21.71875 21.53125 C 20.415932 21.5116 19.186773 22.435375 18.84375 23.6875 C 17.683858 23.69886 16.530756 23.68145 15.375 23.71875 C 13.805969 23.914358 12.703667 25.462464 12.8125 27 C 12.82381 29.667183 12.77285 32.334229 12.8125 35 C 12.86252 36.608459 14.387106 37.9041 15.96875 37.84375 C 16.608663 37.79482 17.276685 37.979273 17.875 37.71875 C 18.701181 37.164753 17.960629 35.970784 17.09375 36.21875 C 16.2609 36.17873 15.200705 36.411375 14.65625 35.59375 C 14.263455 34.907302 14.495829 34.098503 14.4375 33.34375 C 14.45272 31.076325 14.41393 28.796585 14.46875 26.53125 C 14.51945 25.692858 15.379257 25.189686 16.15625 25.34375 C 17.358451 25.32999 18.586137 25.35557 19.78125 25.3125 C 20.731261 25.098394 20.12229 23.865968 20.90625 23.4375 C 21.495824 22.995287 22.255941 23.24975 22.9375 23.1875 C 24.11297 23.21085 25.298242 23.1328 26.46875 23.21875 C 27.302613 23.36143 27.476903 24.223655 27.59375 24.90625 C 27.809385 25.375542 28.346181 25.378893 28.78125 25.3125 C 29.803043 25.32843 30.824706 25.28325 31.84375 25.34375 C 32.664221 25.476151 33.036955 26.344945 32.9375 27.09375 C 32.92625 29.675821 32.94581 32.263532 32.90625 34.84375 C 32.94206 35.722327 32.070824 36.317242 31.25 36.1875 C 30.663295 36.23272 30.045429 36.089263 29.5 36.34375 C 28.673818 36.897747 29.414371 38.091717 30.28125 37.84375 C 31.346223 37.83975 32.537289 37.943761 33.40625 37.1875 C 34.405534 36.457076 34.635945 35.165378 34.5625 34 C 34.55132 31.503751 34.60197 29.025933 34.5625 26.53125 C 34.5222 24.879686 32.937592 23.547714 31.3125 23.6875 L 29 23.6875 C 28.61654 22.280832 27.150076 21.332261 25.71875 21.53125 C 24.393829 21.52005 23.041817 21.57076 21.71875 21.53125 z M 23.09375 25.34375 C 20.194865 25.577991 17.610894 27.9702 17.21875 30.875 C 16.700483 33.858914 18.582572 37.007147 21.4375 38 C 24.216787 39.075937 27.625864 37.908714 29.1875 35.375 C 30.878112 32.848966 30.429078 29.176175 28.1875 27.125 C 26.990712 25.975245 25.348197 25.335605 23.6875 25.34375 C 23.491963 25.33981 23.287009 25.328134 23.09375 25.34375 z M 23.6875 26.96875 C 26.124546 26.908 28.374133 28.943762 28.5625 31.375 C 28.861871 33.75398 27.131175 36.138422 24.78125 36.625 C 22.454679 37.213911 19.869104 35.838519 19.09375 33.5625 C 18.226104 31.322426 19.300116 28.54791 21.46875 27.5 C 22.157058 27.147735 22.914616 26.967568 23.6875 26.96875 z M 23.6875 28.59375 C 21.700932 28.53169 20.034385 30.595118 20.5 32.53125 C 20.834397 34.420718 23.025443 35.6595 24.8125 34.9375 C 26.630962 34.329477 27.539036 31.973583 26.5625 30.3125 C 26.007373 29.277065 24.865729 28.582543 23.6875 28.59375 z M 23.6875 30.21875 C 24.952819 30.14996 25.778814 31.770957 25.03125 32.78125 C 24.351488 33.903434 22.448689 33.621259 22.125 32.34375 C 21.779903 31.328392 22.60842 30.182125 23.6875 30.21875 z "
     id="path-main" />
</defs>
<acyl-settings>
<linearGradient
     id="linearGradient4321">
    <stop
       style="stop-color:#FFFFFF;stop-opacity:1.0;"
       offset="1.0"
       id="stop1" />
  </linearGradient>
<linearGradient
     inkscape:collect="always"
     xlink:href="#linearGradient4321"
     id="acyl_gradient"
     x1="50.0%"
     y1="0.0%"
     x2="50.0%"
     y2="100.0%" />
<filter>
    </filter>
<use id="1" style="fill:url(#acyl_gradient);filter:url(#filter1111)" xlink:href="#path-main" />
</acyl-settings>
</svg>
