<svg xmlns="http://www.w3.org/2000/svg" width="48" height="48">
<defs>
  <path
     d="M 3.59375 4 C 2.702192 4 2 4.7263438 2 5.625 L 2 42.375 C 2 43.273656 2.702192 44 3.59375 44 L 44.40625 44 C 44.517695 44 44.6138 43.9903 44.71875 43.96875 C 45.453406 43.817988 46 43.161319 46 42.375 L 46 17.5 C 46 16.601344 45.297808 15.875 44.40625 15.875 L 10.03125 15.875 C 9.139693 15.875 8.4375 16.601344 8.4375 17.5 C 8.4375 18.398656 9.139693 19.125 10.03125 19.125 L 42.78125 19.125 L 42.78125 40.75 L 5.21875 40.75 L 5.21875 7.25 L 18.09375 7.25 L 18.09375 12.125 C 18.09375 13.023656 18.795942 13.71875 19.6875 13.71875 L 41.1875 13.71875 C 42.079058 13.71875 42.78125 13.023656 42.78125 12.125 C 42.78125 11.226344 42.079058 10.5 41.1875 10.5 L 21.3125 10.5 L 21.3125 5.625 C 21.3125 4.7263438 20.579057 4 19.6875 4 L 3.59375 4 z M 31.46875 20.59375 C 30.757857 21.463262 29.997172 22.291056 29.28125 23.15625 C 29.35296 23.592343 29.31151 24.000151 29.375 24.4375 L 25.21875 28.5625 C 24.583333 27.916667 24.041667 27.302083 23.40625 26.65625 C 24.127106 25.526801 24.327054 23.774467 23.1875 22.84375 C 22.395135 22.093242 21.632469 21.116581 20.4375 21.09375 C 19.5195 21.00197 18.678109 21.484406 18.0625 22.125 C 18.890292 23.024853 19.774303 23.871731 20.625 24.75 C 20.64959 25.085214 20.656449 25.421662 20.34375 25.625 C 19.905409 25.958482 19.347862 25.541333 19.09375 25.125 C 18.4171 24.455227 17.765345 23.768279 17.09375 23.09375 C 16.071688 23.919209 15.665367 25.451494 16.3125 26.625 C 16.774947 27.393947 17.514066 27.94666 18.125 28.59375 C 19.06555 29.397784 20.500737 29.230358 21.46875 28.5625 C 22.125 29.208333 22.65625 29.697917 23.3125 30.34375 L 22.625 31.03125 C 21.798338 30.547007 20.675515 30.217721 19.875 31 C 18.706555 32.16335 17.490356 33.285166 16.34375 34.46875 C 15.583594 35.515728 16.16959 36.96166 17.03125 37.75 C 17.775084 38.714682 19.357031 39.334409 20.46875 38.5625 C 21.69699 37.378219 22.894827 36.152018 24.09375 34.9375 C 24.581609 34.049573 24.403141 32.977072 23.71875 32.21875 L 24.40625 31.5625 C 26.278719 33.445717 27.98932 35.161878 29.875 37.03125 C 30.51638 37.674416 31.790081 37.951698 32.28125 37 C 32.756212 36.175366 32.26621 35.499176 31.65625 34.96875 L 26.3125 29.625 L 30.4375 25.5625 C 30.87505 25.729036 31.155252 25.710969 31.59375 25.875 C 32.509152 25.08358 33.408508 24.273297 34.3125 23.46875 C 33.351816 22.523515 32.454583 21.512473 31.46875 20.59375 z M 31.53125 21.84375 L 33.09375 23.4375 L 31.40625 24.90625 L 30.34375 24.5 C 30.30851 24.126946 30.150541 23.727608 30.1875 23.375 L 31.53125 21.84375 z M 20.28125 21.9375 C 21.380174 21.936521 22.004142 22.948114 22.75 23.59375 C 23.463942 24.355581 23.108608 25.557635 22.65625 26.375 C 22.285249 26.694152 22.431751 26.970819 22.78125 27.21875 C 24.523635 28.983951 26.233213 30.758762 28 32.5 C 29.146099 33.66638 30.320591 34.806897 31.4375 36 C 32.04299 37.011989 30.492676 36.850184 30.1875 36.15625 C 27.36229 33.273537 24.548746 30.378279 21.65625 27.5625 C 20.823471 28.193328 19.495123 28.680325 18.625 27.875 C 18.104589 27.311841 17.435069 26.867032 17.0625 26.1875 C 16.732528 25.609261 17.038955 23.770123 17.71875 24.9375 C 18.335798 25.402362 18.768362 26.297249 19.46875 26.5625 C 19.850854 26.53726 20.268326 26.61788 20.625 26.53125 C 20.896023 26.223224 21.256888 25.92477 21.46875 25.59375 C 21.44393 25.176947 21.52422 24.734914 21.4375 24.34375 C 20.760788 23.659447 20.081779 22.966727 19.40625 22.28125 C 19.680515 22.132305 19.954212 21.930721 20.28125 21.9375 z M 20.8125 31.46875 C 21.943933 31.46665 23.008311 32.170519 23.25 33.3125 C 23.554306 33.882917 23.486233 34.523487 22.9375 34.875 C 21.939445 35.865765 20.944355 36.862414 19.9375 37.84375 C 19.103356 38.357202 18.041391 37.755707 17.5625 37.03125 C 16.976121 36.494076 16.490648 35.349583 17.25 34.75 L 20.5 31.5625 L 20.625 31.5 L 20.8125 31.46875 z "
     id="path-main" />
</defs>
<acyl-settings>
<linearGradient
     id="linearGradient4321">
    <stop
       style="stop-color:#FFFFFF;stop-opacity:1.0;"
       offset="1.0"
       id="stop1" />
  </linearGradient>
<linearGradient
     inkscape:collect="always"
     xlink:href="#linearGradient4321"
     id="acyl_gradient"
     x1="50.0%"
     y1="0.0%"
     x2="50.0%"
     y2="100.0%" />
<filter>
    </filter>
<use id="1" style="fill:url(#acyl_gradient);filter:url(#filter1111)" xlink:href="#path-main" />
</acyl-settings>
</svg>
