<svg xmlns="http://www.w3.org/2000/svg" width="48" height="48">
<defs>
  <path
     d="M 4.5365857,2 C 3.6853169,2 3,2.684558 3,3.534884 l 0,34.790697 c 0,0.850326 0.6853169,1.534884 1.5365857,1.534884 l 17.9268283,0 0,3.069768 -17.9268283,0 C 3.6853169,42.930233 3,43.614791 3,44.465116 3,45.315442 3.6853169,46 4.5365857,46 l 19.3033533,0 0.320122,0 19.303354,0 C 44.314683,46 45,45.315442 45,44.465116 45,43.614791 44.314683,42.930233 43.463415,42.930233 l -17.926829,0 0,-3.069768 17.926829,0 c 0.106408,0 0.219914,-0.0116 0.320122,-0.03198 C 44.484994,39.685831 45,39.069613 45,38.325578 l 0,-23.534883 c 0,-0.850326 -0.685317,-1.534884 -1.536585,-1.534884 l -32.780488,0 c -0.851268,0 -1.536585,0.684558 -1.536585,1.534884 0,0.850325 0.685317,1.534883 1.536585,1.534883 l 31.243903,0 0,20.465117 -35.8536597,0 0,-31.720931 12.2926837,0 0,4.604652 c 0,0.850325 0.685316,1.534883 1.536585,1.534883 l 20.487805,0 c 0.851269,0 1.536586,-0.684558 1.536586,-1.534883 0,-0.850326 -0.685317,-1.534884 -1.536586,-1.534884 l -18.951219,0 0,-4.604651 c 0,-0.850326 -0.685317,-1.534884 -1.536586,-1.534884 l -15.3658533,0 z"
     id="path-main" />
</defs>
<acyl-settings>
<linearGradient
     id="linearGradient4321">
    <stop
       style="stop-color:#FFFFFF;stop-opacity:1.0;"
       offset="1.0"
       id="stop1" />
  </linearGradient>
<linearGradient
     inkscape:collect="always"
     xlink:href="#linearGradient4321"
     id="acyl_gradient"
     x1="50.0%"
     y1="0.0%"
     x2="50.0%"
     y2="100.0%" />
<filter>
    </filter>
<use id="1" style="fill:url(#acyl_gradient);filter:url(#filter1111)" xlink:href="#path-main" />
</acyl-settings>
</svg>
