<?xml version="1.0" encoding="UTF-8" standalone="no"?>
<!-- Created with Inkscape (http://www.inkscape.org/) -->

<svg
   xmlns:dc="http://purl.org/dc/elements/1.1/"
   xmlns:cc="http://creativecommons.org/ns#"
   xmlns:rdf="http://www.w3.org/1999/02/22-rdf-syntax-ns#"
   xmlns:svg="http://www.w3.org/2000/svg"
   xmlns="http://www.w3.org/2000/svg"
   xmlns:xlink="http://www.w3.org/1999/xlink"
   xmlns:sodipodi="http://sodipodi.sourceforge.net/DTD/sodipodi-0.dtd"
   xmlns:inkscape="http://www.inkscape.org/namespaces/inkscape"
   version="1.0"
   width="22"
   height="22"
   id="svg3231"
   sodipodi:version="0.32"
   inkscape:version="0.48.0 r9654"
   sodipodi:docname="ubuntuone-client-updating.svg"
   inkscape:output_extension="org.inkscape.output.svg.inkscape">
  <metadata
     id="metadata12">
    <rdf:RDF>
      <cc:Work
         rdf:about="">
        <dc:format>image/svg+xml</dc:format>
        <dc:type
           rdf:resource="http://purl.org/dc/dcmitype/StillImage" />
      </cc:Work>
    </rdf:RDF>
  </metadata>
  <sodipodi:namedview
     inkscape:window-height="706"
     inkscape:window-width="685"
     inkscape:pageshadow="2"
     inkscape:pageopacity="0.0"
     guidetolerance="10.0"
     gridtolerance="10.0"
     objecttolerance="10.0"
     borderopacity="1.0"
     bordercolor="#666666"
     pagecolor="#ffffff"
     id="base"
     showgrid="false"
     inkscape:zoom="10.375"
     inkscape:cx="21.99382"
     inkscape:cy="14.024096"
     inkscape:window-x="399"
     inkscape:window-y="51"
     inkscape:current-layer="svg3231"
     inkscape:window-maximized="0" />
  <defs
     id="defs3233">
    <linearGradient
       id="linearGradient3587-6-5-3">
      <stop
         id="stop3589-9-2-2"
         style="stop-color:#000000;stop-opacity:1"
         offset="0" />
      <stop
         id="stop3591-7-4-73"
         style="stop-color:#363636;stop-opacity:1"
         offset="1" />
    </linearGradient>
    <linearGradient
       inkscape:collect="always"
       xlink:href="#linearGradient3587-6-5-3"
       id="linearGradient2388"
       gradientUnits="userSpaceOnUse"
       gradientTransform="matrix(0.4100229,0,0,0.5447147,-32.845583,-0.598916)"
       x1="99.624245"
       y1="8.4432774"
       x2="99.624245"
       y2="34.187016" />
  </defs>
  <path
     style="opacity:0.6;fill:#ffffff;fill-opacity:1;fill-rule:nonzero;stroke:none;stroke-width:1;marker:none;visibility:visible;display:inline;overflow:visible;enable-background:accumulate"
     id="path3227"
     d="m 12.503923,4.9878146 c -1.635944,-0.019725 -3.1176261,1.0788679 -3.8437501,2.5 -0.842583,-0.5307151 -1.9304127,-0.6586587 -2.84375,-0.21875 -1.2927933,0.5300874 -2.1051758,2.0434292 -1.71875,3.4062504 -1.9031723,1.147329 -2.652783,3.771312 -1.65625,5.75 0.7664987,1.660228 2.6257985,2.700174 4.4375,2.5625 2.993381,-0.0085 5.9759001,-0.0011 8.9687501,-0.03125 2.193627,-0.117406 4.094928,-2.055612 4.15625,-4.25 0.133874,-1.947804 -1.176222,-3.86069 -3.03125,-4.46875 0.225565,-2.3578958 -1.4848,-4.8920222 -3.90625,-5.2187504 -0.18966,-0.026806 -0.370955,-0.031261 -0.5625,-0.03125 z m -1.5,4 c 1.482632,0 2.412772,0.5582912 3,1.2500004 l 0,-1.2500004 1,0 0,2.0000004 0,1 -1,0 -2,0 0,-1 1.3125,0 c -0.435352,-0.556717 -1.142452,-1.0000002 -2.3125,-1.0000002 -3.0000001,0 -3.0000001,3.0000002 -3.0000001,3.0000002 l -1,0 c 0,0 0,-4.0000008 4.0000001,-4.0000004 z m 3,4.0000004 1,0 c 0,0 0,4 -4,4 -1.4826321,0 -2.4127718,-0.558291 -3.0000001,-1.25 l 0,1.25 -1,0 0,-2 0,-1 1,0 2.0000001,0 0,1 -1.3125001,0 c 0.435352,0.556717 1.142452,1 2.3125001,1 3,0 3,-3 3,-3 z"
     inkscape:connector-curvature="0" />
  <path
     style="opacity:0.7;fill:url(#linearGradient2388);fill-opacity:1;fill-rule:nonzero;stroke:none;stroke-width:1;marker:none;visibility:visible;display:inline;overflow:visible;enable-background:accumulate"
     id="rect3193"
     d="m 12.503923,3.9999998 c -1.635944,-0.019725 -3.1176261,1.0788679 -3.8437501,2.5 -0.842583,-0.5307151 -1.9304127,-0.6586587 -2.84375,-0.21875 -1.2927933,0.5300874 -2.1051758,2.0434287 -1.71875,3.40625 -1.9031723,1.1473292 -2.652783,3.7713122 -1.65625,5.7500002 0.7664987,1.660228 2.6257985,2.700174 4.4375,2.5625 2.993381,-0.0085 5.9759001,-0.0011 8.9687501,-0.03125 2.193627,-0.117406 4.094928,-2.055612 4.15625,-4.25 0.133874,-1.947804 -1.176222,-3.8606902 -3.03125,-4.4687502 0.225565,-2.3578954 -1.4848,-4.8920218 -3.90625,-5.21875 -0.18966,-0.026806 -0.370955,-0.031261 -0.5625,-0.03125 z m -1.5,4 c 1.482632,0 2.412772,0.5582915 3,1.25 l 0,-1.25 1,0 0,2 0,1.0000002 -1,0 -2,0 0,-1.0000002 1.3125,0 c -0.435352,-0.556717 -1.142452,-1 -2.3125,-1 C 8.0039229,8.9999998 8.0039229,12 8.0039229,12 l -1,0 c 0,0 0,-4.0000006 4.0000001,-4.0000002 z m 3,4.0000002 1,0 c 0,0 0,4 -4,4 -1.4826321,0 -2.4127718,-0.558291 -3.0000001,-1.25 l 0,1.25 -1,0 0,-2 0,-1 1,0 2.0000001,0 0,1 -1.3125001,0 c 0.435352,0.556717 1.142452,1 2.3125001,1 3,0 3,-3 3,-3 z"
     inkscape:connector-curvature="0" />
</svg>
