<svg xmlns="http://www.w3.org/2000/svg" width="48" height="48">
<defs>
<defs
     id="defs1874">
  </defs>
  <path
     d="M 24,2 C 11.849736,2 2,11.850322 2,24 2,36.14968 11.849734,46 24,46 36.150264,46 46.000001,36.149681 46,24 46,11.850321 36.150265,2 24,2 z m 0.229167,3.7532808 c 9.964836,0 18.046875,8.1828422 18.046875,18.2467192 1e-6,10.063878 -8.082039,18.246719 -18.046875,18.246719 C 14.26433,42.246719 6.1536458,34.063878 6.1536458,24 6.1536457,13.936123 14.264331,5.7532808 24.229167,5.7532808 z m 0,2.0498688 C 15.365427,7.8031496 8.1875,15.040463 8.1875,24 c 0,8.959538 7.177927,16.19685 16.041667,16.19685 8.86374,0 16.013021,-7.237312 16.01302,-16.19685 0,-8.959537 -7.149281,-16.1968504 -16.01302,-16.1968504 z m -5.64323,7.6220474 c 1.32486,0 2.572943,0.333919 3.494792,0.808399 0.460925,0.23724 0.863087,0.54516 1.174479,0.923884 0.311393,0.378726 0.572916,0.830521 0.572917,1.44357 0,0.613048 -0.261524,1.2092 -0.572917,1.587926 -0.311392,0.378726 -0.713553,0.715517 -1.174479,0.952756 -0.92185,0.474482 -2.169933,0.664043 -3.494792,0.664042 -1.324859,0 -2.487003,-0.18956 -3.408854,-0.664042 -0.460924,-0.23724 -0.83444,-0.574031 -1.145833,-0.952756 -0.311393,-0.378725 -0.601563,-0.974878 -0.601563,-1.587926 0,-0.613049 0.29017,-1.064844 0.601563,-1.44357 0.311393,-0.378725 0.684909,-0.686644 1.145833,-0.923884 0.921851,-0.474481 2.083994,-0.808399 3.408854,-0.808399 z m 10.971355,0.288714 c 1.323787,0 2.603237,0.201739 3.523437,0.692913 0.460101,0.245587 0.835856,0.561792 1.145833,0.952756 0.309976,0.390965 0.48698,0.870881 0.48698,1.501312 0,0.630432 -0.177005,1.254706 -0.48698,1.64567 -0.309975,0.390965 -0.685731,0.591683 -1.145833,0.83727 -0.920201,0.491175 -2.19965,0.837269 -3.523437,0.83727 -1.323788,-10e-7 -2.460006,-0.346095 -3.380209,-0.83727 -0.4601,-0.245586 -0.864504,-0.446305 -1.174479,-0.83727 -0.309976,-0.390964 -0.572917,-1.015238 -0.572917,-1.64567 0,-0.630431 0.262941,-1.110347 0.572917,-1.501312 0.309976,-0.390964 0.71438,-0.707168 1.174479,-0.952756 0.920202,-0.491174 2.056421,-0.692913 3.380209,-0.692913 z m 1.890625,9.816273 c 0.4379,-0.03963 0.848164,0.220286 1.002604,0.63517 0.701337,1.80333 0.17113,3.642215 -0.515625,5.081365 -0.005,0.01041 -0.02366,0.01851 -0.02865,0.02887 -0.0028,0.0073 0.0029,0.02161 0,0.02887 -0.704489,1.782618 -2.380424,3.218634 -4.440104,3.233596 -0.0016,1.2e-5 0.0016,0.02886 0,0.02887 -0.02817,0.0018 -0.05771,-0.0016 -0.08594,0 -1.727673,0.09604 -3.571091,-0.400452 -4.927083,-1.674541 -0.395516,-0.374712 -0.429077,-0.987196 -0.05729,-1.385826 0.371786,-0.398631 1.00813,-0.432456 1.403646,-0.05774 0.896628,0.84247 2.252257,1.241572 3.552083,1.154856 0.01909,-5.65e-4 0.0382,-5.65e-4 0.05729,0 1.133155,0.0157 2.286256,-0.938512 2.721354,-2.078741 0.0089,-0.01956 0.01847,-0.03881 0.02865,-0.05774 0.582233,-1.205069 0.891711,-2.539375 0.486979,-3.580053 -0.118108,-0.287357 -0.100655,-0.627799 0.05729,-0.895013 0.157946,-0.267212 0.437836,-0.429809 0.744792,-0.461942 z"
     id="path-main"
      />
</defs>
<acyl-settings>
<linearGradient
     id="linearGradient4321">
    <stop
       style="stop-color:#FFFFFF;stop-opacity:1.0;"
       offset="1.0"
       id="stop1" />
  </linearGradient>
<linearGradient
     inkscape:collect="always"
     xlink:href="#linearGradient4321"
     id="acyl_gradient"
     x1="50.0%"
     y1="0.0%"
     x2="50.0%"
     y2="100.0%" />
<filter>
    </filter>
<use id="1" style="fill:url(#acyl_gradient);filter:url(#filter1111)" xlink:href="#path-main" />
</acyl-settings>
</svg>
