<svg xmlns="http://www.w3.org/2000/svg" width="48" height="48">
<defs>
<defs
     id="defs2162">
  </defs>
  <path
     id="path-main"
   d="M 24 2 C 11.856 2 2 11.856 2 24 C 2 36.144 11.855999 46.000001 24 46 C 36.144 46 45.999998 36.144001 46 24 C 46 11.856 36.144 2 24 2 z M 26.28125 4.9375 C 27.435477 4.9375 28.34375 5.9679919 28.34375 7.25 C 28.34375 7.246072 28.261158 7.4162109 28.125 7.90625 L 27.96875 8.5625 L 28.46875 8.875 C 28.954441 9.184785 29.418959 9.5698844 29.84375 10 L 30.28125 10.5 L 30.8125 10.0625 C 31.285613 9.6590203 31.775906 9.40625 32.3125 9.40625 C 33.613672 9.40625 34.664306 10.503071 34.78125 11.90625 C 34.7882 11.989945 34.8125 12.10175 34.8125 12.1875 C 34.8125 12.166735 34.7743 12.22267 34.71875 12.5625 L 34.59375 13.25 L 35.15625 13.5 C 36.024445 13.897233 36.721046 14.519942 37.21875 15.375 L 37.5 15.8125 L 37.96875 15.75 C 38.230881 15.70823 38.35844 15.65625 38.375 15.65625 C 38.53824 15.65625 38.690103 15.68924 38.84375 15.71875 C 38.85186 15.72035 38.8669 15.71705 38.875 15.71875 C 39.019536 15.748093 39.146653 15.79033 39.28125 15.84375 C 39.29917 15.8508 39.32602 15.8676 39.34375 15.875 C 39.466732 15.927213 39.574186 15.9604 39.6875 16.03125 C 39.71397 16.04753 39.75533 16.07653 39.78125 16.09375 C 39.881722 16.161804 39.97095 16.23072 40.0625 16.3125 C 40.096051 16.34179 40.12392 16.37527 40.15625 16.40625 C 40.236442 16.484796 40.303 16.56765 40.375 16.65625 C 40.408171 16.696422 40.43738 16.73912 40.46875 16.78125 C 40.533724 16.869551 40.59942 16.96624 40.65625 17.0625 C 40.689461 17.117859 40.71967 17.16092 40.75 17.21875 C 40.796158 17.308028 40.86711 17.40536 40.90625 17.5 C 40.91773 17.52767 40.8954 17.56565 40.90625 17.59375 C 40.956499 17.723989 40.99482 17.861394 41.03125 18 C 41.05359 18.085158 41.10827 18.16205 41.125 18.25 L 41.21875 18.78125 L 41.71875 18.90625 C 42.374968 19.028368 42.874999 19.542124 42.875 20.21875 C 42.875001 20.99957 42.264772 21.625 41.5625 21.625 C 41.309219 21.625 41.074908 21.550293 40.84375 21.375 L 40.40625 21.0625 L 39.96875 21.40625 C 39.691128 21.630975 39.435529 21.788749 39.15625 21.90625 C 38.895552 22.014844 38.662796 22.09375 38.375 22.09375 C 38.051054 22.09375 37.698944 21.868517 37.1875 21.59375 L 36.75 21.375 L 36.34375 21.71875 C 35.87143 22.161563 35.346099 22.494916 34.78125 22.71875 C 35.387292 21.6303 35.891476 20.889942 35.84375 20.9375 A 4.2004198 4.2004198 0 0 0 32.8125 13.71875 A 4.2004198 4.2004198 0 0 0 29.90625 14.96875 C 28.139921 16.728864 27.337015 18.619725 26.28125 20.9375 C 25.728036 22.151999 25.188511 23.448639 24.65625 24.78125 C 24.265315 24.78125 23.904774 24.72769 23.53125 24.65625 C 23.203083 24.593486 22.876051 24.517571 22.5625 24.40625 C 22.520061 24.39126 22.44841 24.35957 22.40625 24.34375 C 21.706304 24.078392 21.052647 23.706569 20.4375 23.25 C 20.42166 23.23824 20.39077 23.2306 20.375 23.21875 L 19.9375 22.875 L 19.46875 23.25 C 19.08068 23.592294 18.659413 23.872525 18.21875 24.0625 C 17.836698 24.225201 17.425804 24.3125 17 24.3125 C 15.526035 24.3125 14.318755 23.415851 13.59375 22.09375 L 13.21875 21.46875 L 12.625 21.78125 C 12.59889 21.79361 12.55715 21.76968 12.53125 21.78125 C 12.143846 21.95682 11.777538 22.09375 11.375 22.09375 C 10.377554 22.09375 9.54793 21.475268 8.90625 20.59375 L 8.53125 20.0625 L 7.96875 20.40625 C 7.612706 20.632857 7.275233 20.749999 6.9375 20.75 C 5.791757 20.75 4.875 19.688255 4.875 18.40625 C 4.875 17.124242 5.783271 16.124999 6.9375 16.125 C 7.291972 16.125 7.634824 16.227023 7.96875 16.4375 L 8.53125 16.78125 L 8.90625 16.21875 C 9.513728 15.384215 10.290563 14.80917 11.21875 14.75 C 11.270979 14.7467 11.32183 14.75 11.375 14.75 C 11.455193 14.75 11.647969 14.891898 12.125 15.03125 L 12.90625 15.28125 L 13.03125 14.34375 C 13.063736 14.118829 13.1182 13.933514 13.1875 13.71875 L 13.40625 13.09375 L 12.90625 12.71875 C 12.745071 12.595641 12.61569 12.445043 12.5 12.3125 C 12.239313 12.013836 12.09375 11.688312 12.09375 11.28125 C 12.09375 10.815546 12.245444 10.390762 12.5 10.0625 C 12.52704 10.027636 12.56449 10.00134 12.59375 9.96875 C 12.631928 9.9263336 12.67709 9.881979 12.71875 9.84375 C 12.751641 9.81341 12.77756 9.777554 12.8125 9.75 C 12.984611 9.6146935 13.195264 9.524919 13.40625 9.46875 C 13.532149 9.435229 13.646314 9.40625 13.78125 9.40625 C 14.458652 9.40625 14.910332 9.8912825 15.1875 10.6875 L 15.40625 11.3125 L 15.96875 11.25 C 16.101059 11.23412 16.19114 11.2294 16.21875 11.21875 C 16.298374 11.21875 16.35473 11.22514 16.4375 11.25 C 16.44601 11.2521 16.46015 11.2477 16.46875 11.25 C 16.545675 11.274403 16.62654 11.30467 16.71875 11.34375 C 16.922303 11.425945 17.151386 11.523415 17.4375 11.65625 L 18 11.90625 L 18.34375 11.34375 C 19.536312 9.4394918 21.396712 8.1605956 23.5625 7.8125 L 24.15625 7.6875 L 24.25 7.0625 C 24.353683 5.8842822 25.199424 4.9375 26.28125 4.9375 z M 32.625 15.6875 A 2.250225 2.250225 0 0 1 34.46875 19.53125 C 34.112598 19.886149 33.064253 21.563011 32.125 23.625 C 31.185747 25.686989 30.215833 28.203935 29.3125 30.65625 C 28.409167 33.108565 27.590103 35.50196 26.9375 37.34375 C 26.611199 38.264645 26.331533 39.043267 26.09375 39.65625 C 25.974859 39.962742 25.861102 40.225197 25.75 40.46875 C 25.638898 40.712303 25.681992 40.836696 25.15625 41.40625 A 2.250225 2.250225 0 0 1 21.5625 41 C 21.5625 41 17.990133 34.937502 14.625 32.03125 A 2.250225 2.250225 0 1 1 17.5625 28.625 C 19.704211 30.47466 21.585428 32.914957 23 34.9375 C 23.599815 33.234994 24.294251 31.264183 25.09375 29.09375 C 26.016708 26.588159 27.01071 23.990445 28.03125 21.75 C 29.05179 19.509555 29.941253 17.679031 31.28125 16.34375 A 2.250225 2.250225 0 0 1 32.625 15.6875 z "
 />
</defs>
<acyl-settings>
<linearGradient
     id="linearGradient4321">
    <stop
       style="stop-color:#FFFFFF;stop-opacity:1.0;"
       offset="1.0"
       id="stop1" />
  </linearGradient>
<linearGradient
     inkscape:collect="always"
     xlink:href="#linearGradient4321"
     id="acyl_gradient"
     x1="50.0%"
     y1="0.0%"
     x2="50.0%"
     y2="100.0%" />
<filter>
    </filter>
<use id="1" style="fill:url(#acyl_gradient);filter:url(#filter1111)" xlink:href="#path-main" />
</acyl-settings>
</svg>
