<svg xmlns="http://www.w3.org/2000/svg" width="48" height="48">
<defs>
<defs
     id="defs1874">
  </defs>
  <path
     d="M 24,2 C 11.849736,2 2,11.866712 2,24.014388 2,36.162065 11.849736,46 24,46 36.150264,46 46,36.162065 46,24.014388 46,11.866712 36.150264,2 24,2 z m -6.617187,5.5539568 c 0.231267,-0.021744 0.457742,0.07576 0.601562,0.2589928 L 32.192708,26.086331 c 0.168408,0.120385 0.273682,0.310743 0.286459,0.517986 l 0.171875,3.942446 c 0.01104,0.224527 -0.08087,0.437924 -0.257813,0.575539 -0.176944,0.137619 -0.416596,0.182091 -0.630208,0.115108 L 28.067708,30.028777 C 27.956479,29.987664 27.857774,29.918255 27.78125,29.827338 L 27.638021,29.683453 13.429688,11.438849 c -0.116237,-0.144111 -0.164804,-0.333775 -0.14323,-0.517986 0.02157,-0.18421 0.111457,-0.347356 0.257813,-0.460431 L 17.010417,7.6978417 C 17.11758,7.6138108 17.247215,7.5637231 17.382813,7.5539568 z M 13.572917,34.086331 c 7.151838,0 14.303835,0 21.455729,0 0.330583,-0.0047 0.635427,0.173585 0.802083,0.460432 0.166656,0.286846 0.166656,0.634016 0,0.920863 -0.166656,0.286847 -0.4715,0.465128 -0.802083,0.460432 l -21.369792,0 c -0.506261,0.02384 -0.950228,-0.354731 -0.973958,-0.86331 -0.02373,-0.508579 0.381759,-0.954578 0.888021,-0.978417 z"
     id="path-main"
      />
</defs>
<acyl-settings>
<linearGradient
     id="linearGradient4321">
    <stop
       style="stop-color:#FFFFFF;stop-opacity:1.0;"
       offset="1.0"
       id="stop1" />
  </linearGradient>
<linearGradient
     inkscape:collect="always"
     xlink:href="#linearGradient4321"
     id="acyl_gradient"
     x1="50.0%"
     y1="0.0%"
     x2="50.0%"
     y2="100.0%" />
<filter>
    </filter>
<use id="1" style="fill:url(#acyl_gradient);filter:url(#filter1111)" xlink:href="#path-main" />
</acyl-settings>
</svg>
