<svg xmlns="http://www.w3.org/2000/svg" width="48" height="48">
<defs>
<defs
     id="defs1874">
  </defs>
  <path
     d="M 24,2 C 11.845813,2 2,11.848315 2,24 2,36.151685 11.845813,46 24,46 36.154187,46 46,36.151685 46,24 46,11.848315 36.154187,2 24,2 z m 14.073107,11.578947 c 0.307529,0.0016 0.682809,0.07879 0.976501,0.347369 0.293692,0.268576 0.42426,0.676791 0.402089,1.013158 -0.01698,0.492975 -0.171882,0.600712 -0.258486,0.752631 -0.0866,0.15192 -0.146318,0.296069 -0.143603,0.289474 l -0.02872,0.05789 -0.05744,0.05789 c 0,0 -13.383812,22.694737 -13.383812,22.694737 -0.170652,0.297624 -0.390102,0.463939 -0.631853,0.607895 -0.241752,0.143956 -0.525638,0.260527 -0.89034,0.260526 -0.55499,1e-6 -1.186185,-0.366014 -1.493472,-0.868421 L 8.8355111,16.328947 c -0.203758,-0.333144 -0.3771976,-0.859564 -0.2872062,-1.389473 0.043424,-0.2557 0.155467,-0.61744 0.45953,-0.897369 0.304063,-0.279929 0.7262133,-0.376316 1.0913841,-0.376316 9.326928,-0.0017 18.638502,-0.06594 27.973888,-0.08684 z m -0.861619,1.852632 c -8.909247,0.02201 -17.797706,0.08372 -26.710182,0.08684 L 24.057441,37.692105 C 24.224524,37.409391 36.879473,15.993372 37.211488,15.431579 z"
     id="path-main"
      />
</defs>
<acyl-settings>
<linearGradient
     id="linearGradient4321">
    <stop
       style="stop-color:#FFFFFF;stop-opacity:1.0;"
       offset="1.0"
       id="stop1" />
  </linearGradient>
<linearGradient
     inkscape:collect="always"
     xlink:href="#linearGradient4321"
     id="acyl_gradient"
     x1="50.0%"
     y1="0.0%"
     x2="50.0%"
     y2="100.0%" />
<filter>
    </filter>
<use id="1" style="fill:url(#acyl_gradient);filter:url(#filter1111)" xlink:href="#path-main" />
</acyl-settings>
</svg>
