<svg xmlns="http://www.w3.org/2000/svg" width="48" height="48">
<defs>
<defs
     id="defs4">
  </defs>
  <path
     id="path-main"
     d="m 20.333401,2.0000005 -0.785426,0.3366111 -5.932771,0 c -1.20204,0 -2.173947,0.971909 -2.173947,2.1739469 l 0,1.2342409 -8.1067186,3.4081877 C 2.2263854,9.6187093 1.7047031,10.892006 2.1704249,12.000156 l 9.2708321,22.04803 0,5.890695 c 0,1.202038 0.971907,2.173946 2.173947,2.173946 l 1.206189,0 1.079961,2.552635 c 0.465722,1.108151 1.739016,1.629835 2.847169,1.164113 l 8.836043,-3.716748 12.833299,0 c 1.202039,0 2.159922,-0.971907 2.159922,-2.173946 l 0,-4.137512 0.883604,-0.364662 c 1.108155,-0.465721 1.61581,-1.724993 1.150088,-2.833144 L 42.591812,27.792829 42.619863,12.855709 32.058689,2.3225861 21.146878,2.3366116 20.333401,2.0000005 z M 34.008228,9.784133 c 0.146918,-0.02372 0.287887,-0.00444 0.378688,0.056102 0.181596,0.1210714 0.290761,0.505142 0.15428,0.785426 -1.729998,3.552756 -4.114027,7.572388 -7.489598,11.795415 l 0.210382,0.140255 -4.965014,7.461546 -0.378688,-0.238432 c 0.09752,0.487624 -0.186395,0.966604 -0.645171,1.122037 l 0.01403,0.01403 c -0.671997,0.918837 -0.203442,1.420193 -0.546993,1.935514 -0.604047,0.90606 -3.144482,1.289706 -4.039333,2.342253 1.26171,-2.249104 1.706435,-3.788801 3.253907,-5.175397 l 0.02805,0.02805 c -0.03288,-0.483199 0.297863,-0.940376 0.785426,-1.037884 l -0.350636,-0.238433 4.965014,-7.447521 0.210382,0.140254 c 2.589832,-4.751742 5.396682,-8.514538 8.022565,-11.4728289 0.103547,-0.1166515 0.245793,-0.1866626 0.392713,-0.210382 z m 1.935514,26.073338 c 0.550497,3e-6 0.988792,0.177074 1.318394,0.546993 0.329595,0.368171 0.490887,0.866074 0.490891,1.486699 -4e-6,0.618875 -0.161296,1.116778 -0.490891,1.486699 -0.329602,0.368168 -0.767897,0.546993 -1.318394,0.546993 -0.552254,0 -1.001068,-0.178825 -1.332419,-0.546993 -0.329599,-0.368168 -0.490891,-0.866071 -0.490891,-1.486699 0,-0.620625 0.161292,-1.118528 0.490891,-1.486699 0.331351,-0.369919 0.780165,-0.54699 1.332419,-0.546993 z m 4.333869,0 c 0.234924,3e-6 0.452318,0.02104 0.659197,0.08415 0.208625,0.06137 0.406734,0.156037 0.589069,0.28051 l 0,0.561018 C 41.347049,36.6166 41.154199,36.50089 40.950833,36.418487 c -0.201619,-0.0824 -0.41726,-0.126226 -0.645171,-0.126229 -0.448817,3e-6 -0.785428,0.131492 -1.023859,0.406738 -0.238434,0.2735 -0.364663,0.673225 -0.364662,1.192165 -10e-7,0.51719 0.126228,0.916916 0.364662,1.192164 0.238431,0.273497 0.575042,0.406739 1.023859,0.406739 0.227911,0 0.443552,-0.04383 0.645171,-0.126229 0.203366,-0.0824 0.396216,-0.198109 0.575044,-0.364663 l 0,0.546994 c -0.185841,0.126229 -0.380444,0.217394 -0.589069,0.280509 -0.206879,0.06311 -0.42778,0.09818 -0.659197,0.09818 -0.594331,0 -1.060677,-0.184084 -1.402547,-0.546993 -0.341871,-0.364661 -0.518942,-0.857305 -0.518942,-1.486699 0,-0.631143 0.177071,-1.123788 0.518942,-1.486699 0.34187,-0.364659 0.808216,-0.54699 1.402547,-0.546993 z m -10.070283,0.07013 1.093986,0 c 0.760879,3e-6 1.313131,0.159543 1.66903,0.476866 0.355893,0.315576 0.532964,0.799454 0.532968,1.472673 -4e-6,0.67673 -0.175322,1.183399 -0.532968,1.500725 -0.357652,0.317326 -0.911658,0.476866 -1.66903,0.476866 l -1.093986,0 0,-3.92713 z m 5.736414,0.350636 c -0.385702,4e-6 -0.697768,0.147271 -0.92568,0.43479 -0.226162,0.287525 -0.336612,0.681991 -0.336611,1.178139 -1e-6,0.494399 0.110449,0.890618 0.336611,1.178139 0.227912,0.287523 0.539978,0.420764 0.92568,0.420764 0.385698,0 0.687245,-0.133241 0.911656,-0.420764 0.226157,-0.287521 0.336608,-0.68374 0.336611,-1.178139 -3e-6,-0.496148 -0.110454,-0.890614 -0.336611,-1.178139 -0.224411,-0.287519 -0.525958,-0.434786 -0.911656,-0.43479 z m -5.203447,0.08415 0,3.057551 0.631146,0 c 0.541731,10e-7 0.941457,-0.133241 1.192165,-0.378687 0.252455,-0.245445 0.378683,-0.634651 0.378687,-1.164114 -4e-6,-0.525952 -0.126232,-0.906392 -0.378687,-1.150088 -0.250708,-0.245442 -0.650434,-0.364658 -1.192165,-0.364662 l -0.631146,0 z" />
</defs>
<acyl-settings>
<linearGradient
     id="linearGradient4321">
    <stop
       style="stop-color:#FFFFFF;stop-opacity:1.0;"
       offset="1.0"
       id="stop1" />
  </linearGradient>
<linearGradient
     inkscape:collect="always"
     xlink:href="#linearGradient4321"
     id="acyl_gradient"
     x1="50.0%"
     y1="0.0%"
     x2="50.0%"
     y2="100.0%" />
<filter>
    </filter>
<use id="1" style="fill:url(#acyl_gradient);filter:url(#filter1111)" xlink:href="#path-main" />
</acyl-settings>
</svg>
