<svg xmlns="http://www.w3.org/2000/svg" width="48" height="48">
<defs>
<defs
     id="defs1874">
  </defs>
  <path
     id="path-main"
     d="M 24,2 C 11.849734,2 2,11.832014 2,23.985593 2,36.139172 11.849734,46.000001 24,46 36.150267,46.000001 46.000001,36.139172 46,23.985593 46,11.832014 36.150267,2 24,2 z M 9.1614584,13.72757 c 0.067397,-0.0076 0.1331198,-0.0076 0.2005212,0 l 29.2760414,0 c 0.332343,-0.0084 0.662167,0.171728 0.830731,0.461035 0.168564,0.289306 0.168751,0.661688 0,0.950884 L 24.802084,40.75573 C 24.644394,41.060935 24.340955,41.274395 24,41.274394 c -0.340956,10e-7 -0.644402,-0.21346 -0.802087,-0.518664 L 8.53125,15.139489 c -0.1580282,-0.25881 -0.1788446,-0.586271 -0.057288,-0.86444 0.1215533,-0.278168 0.3916286,-0.490842 0.6875,-0.547479 z m 10.2552076,3.457761 c -0.418165,0.08364 -0.767723,0.395376 -0.888019,0.80681 -0.120296,0.411435 0.0085,0.854538 0.315106,1.152587 l 3.781247,3.803537 -3.78125,3.803536 c -0.359051,0.270484 -0.525074,0.740492 -0.429693,1.181401 0.09537,0.440911 0.421047,0.768495 0.859375,0.86444 0.438328,0.09595 0.905575,-0.07104 1.174479,-0.43222 l 3.78125,-3.803536 3.78125,3.803536 c 0.268895,0.361172 0.736153,0.528166 1.17448,0.43222 0.438328,-0.09594 0.763994,-0.42353 0.859375,-0.86444 0.09537,-0.440908 -0.07062,-0.910917 -0.429693,-1.181401 l -3.781239,-3.803536 3.78125,-3.803537 c 0.344927,-0.347314 0.442255,-0.883807 0.229163,-1.325475 -0.213081,-0.441667 -0.689799,-0.691585 -1.174479,-0.633922 -0.251702,0.03844 -0.483516,0.160099 -0.658856,0.345776 l -3.78125,3.803536 -3.78125,-3.803536 C 20.18384,17.248748 19.79635,17.118823 19.416666,17.185331 z" />
</defs>
<acyl-settings>
<linearGradient
     id="linearGradient4321">
    <stop
       style="stop-color:#FFFFFF;stop-opacity:1.0;"
       offset="1.0"
       id="stop1" />
  </linearGradient>
<linearGradient
     inkscape:collect="always"
     xlink:href="#linearGradient4321"
     id="acyl_gradient"
     x1="50.0%"
     y1="0.0%"
     x2="50.0%"
     y2="100.0%" />
<filter>
    </filter>
<use id="1" style="fill:url(#acyl_gradient);filter:url(#filter1111)" xlink:href="#path-main" />
</acyl-settings>
</svg>
