<svg xmlns="http://www.w3.org/2000/svg" width="48" height="48">
<defs>
<defs
     id="defs1874">
  </defs>
  <path
     d="M 24,2 C 11.849736,2 2,11.852914 2,24 2,36.147085 11.849734,46 24,46 36.150264,46 46,36.147084 46,24 46,11.852915 36.150266,2 24,2 z m 15.210937,11.85059 c 0.332972,0.0017 0.504229,0.170905 0.48698,0.432503 -0.0067,0.193196 -0.269373,0.528418 -0.372396,0.778506 0,0 -14.523437,24.566188 -14.523438,24.566186 -0.117177,0.204286 -0.4537,0.432504 -0.773437,0.432503 -0.319997,0 -0.574688,-0.1365 -0.773438,-0.461336 L 8.3880208,15.292267 C 8.2445212,15.057729 8.1616116,14.805939 8.2161458,14.484928 8.2706802,14.163917 8.4249255,13.93709 8.9036458,13.93709 19.004751,13.93529 29.107175,13.8732 39.210937,13.85059 z M 23.65625,15.292267 c -0.55492,0.09314 -0.994043,0.560189 -1.059896,1.124509 l -0.486979,4.584535 -3.838542,-0.836173 -0.200521,-0.115335 -0.286458,-0.02883 c -0.617673,-0.09573 -1.217459,0.291279 -1.403646,0.89384 -0.186186,0.602563 0.09694,1.252 0.658855,1.528178 l 4.067708,1.758847 -2.091146,3.777195 -0.114583,0.201835 c -0.414479,0.569758 -0.306231,1.369001 0.257812,1.78768 0.564043,0.418678 1.361563,0.281423 1.776042,-0.288335 l 2.950521,-3.344692 2.807291,3.142857 0.200521,0.230668 c 0.419353,0.571922 1.209856,0.683104 1.776042,0.259502 0.566186,-0.423601 0.677165,-1.244592 0.257812,-1.816514 l -0.171875,-0.201834 -2.091146,-3.777196 3.809896,-1.701179 0.315104,-0.0865 c 0.650133,-0.234666 0.995714,-0.954427 0.773438,-1.61468 -0.222277,-0.660252 -0.947192,-1.021677 -1.604167,-0.807339 l -0.200521,0.0865 -4.153645,0.893841 -0.48698,-4.267366 0,-0.201835 c -0.02106,-0.36355 -0.175591,-0.696734 -0.458333,-0.922674 -0.282743,-0.22594 -0.647518,-0.322478 -1.002604,-0.259502 z"
     id="path-main"
      />
</defs>
<acyl-settings>
<linearGradient
     id="linearGradient4321">
    <stop
       style="stop-color:#FFFFFF;stop-opacity:1.0;"
       offset="1.0"
       id="stop1" />
  </linearGradient>
<linearGradient
     inkscape:collect="always"
     xlink:href="#linearGradient4321"
     id="acyl_gradient"
     x1="50.0%"
     y1="0.0%"
     x2="50.0%"
     y2="100.0%" />
<filter>
    </filter>
<use id="1" style="fill:url(#acyl_gradient);filter:url(#filter1111)" xlink:href="#path-main" />
</acyl-settings>
</svg>
