<svg xmlns="http://www.w3.org/2000/svg" width="48" height="48">
<defs>
<defs
     id="defs3">
  </defs>
  <path
     id="path-main"
     d="M 29.735877,2.5934108 C 28.689865,2.3131328 27.635438,2.124371 26.590517,2.0000004 L 24.64025,7.6497316 C 22.74633,7.5726867 20.906438,7.813457 19.150262,8.360822 L 15.800637,3.4107705 c -2.452618,0.7767948 -3.632723,1.4581291 -5.531753,3.1937597 l 2.612059,5.3758858 c -1.352121,1.24721 -2.480577,2.720218 -3.3608158,4.398925 L 3.6521829,15.243456 C 3.2374279,16.210569 2.8736907,17.218109 2.5934113,18.264124 2.3131298,19.310141 2.12437,20.364567 2,21.409486 l 5.6497316,1.950264 c -0.077044,1.893925 0.1637236,3.733814 0.7110904,5.48999 l -4.9500516,3.349626 c 0.7767936,2.452613 1.4581292,3.632721 3.1937586,5.531751 l 5.375887,-2.612058 c 1.24721,1.35212 2.720216,2.480576 4.398926,3.360816 l -1.135885,5.867942 c 0.967112,0.414754 1.974654,0.778495 3.020667,1.058772 1.046012,0.280278 2.100443,0.469041 3.145361,0.593411 l 1.950266,-5.649731 c 1.893924,0.07705 3.733812,-0.163725 5.489988,-0.711092 l 3.349625,4.950052 c 2.452621,-0.776794 3.632723,-1.458129 5.531755,-3.193759 l -2.61206,-5.375887 c 1.35212,-1.247209 2.480578,-2.720215 3.360816,-4.398924 l 5.867943,1.135884 c 0.414753,-0.967112 0.77849,-1.974651 1.058772,-3.020668 C 45.686868,28.689862 45.875631,27.635433 46,26.590516 l -5.649731,-1.950267 c 0.07705,-1.893923 -0.163723,-3.733813 -0.71109,-5.489988 l 4.950051,-3.349626 c -0.656504,-2.385839 -1.458127,-3.632722 -3.193758,-5.531752 l -5.375887,2.612058 C 34.772375,11.528821 33.299369,10.400364 31.62066,9.520126 L 32.756544,3.6521817 C 31.789433,3.2374301 30.781893,2.8736897 29.735877,2.5934108 z M 25.24693,19.346393 c 2.568793,0.688307 4.094982,3.331741 3.406678,5.900536 -0.688305,2.568797 -3.33174,4.094983 -5.900537,3.406678 -2.568794,-0.688306 -4.094983,-3.33174 -3.406676,-5.900536 0.688305,-2.568796 3.331741,-4.094983 5.900535,-3.406678 z" />
</defs>
<acyl-settings>
<linearGradient
     id="linearGradient4321">
    <stop
       style="stop-color:#FFFFFF;stop-opacity:1.0;"
       offset="1.0"
       id="stop1" />
  </linearGradient>
<linearGradient
     inkscape:collect="always"
     xlink:href="#linearGradient4321"
     id="acyl_gradient"
     x1="50.0%"
     y1="0.0%"
     x2="50.0%"
     y2="100.0%" />
<filter>
    </filter>
<use id="1" style="fill:url(#acyl_gradient);filter:url(#filter1111)" xlink:href="#path-main" />
</acyl-settings>
</svg>
