<svg xmlns="http://www.w3.org/2000/svg" width="48" height="48">
<defs>
  <path
     d="M 24 2 C 11.86087 2 1.9999999 11.834073 2 23.96875 C 2 36.103426 11.859951 46 24 46 C 36.14005 46 46 36.103426 46 23.96875 C 46 11.834073 36.139131 2 24 2 z M 24.34375 9 C 25.794493 9.033908 27.30631 9.2859449 28.75 9.78125 C 31.233444 10.633281 33.358038 12.112446 35 13.96875 L 37.28125 12.40625 L 38 22.96875 L 28.625 18.3125 L 30.875 16.8125 C 29.859673 15.80676 28.601765 14.964682 27.15625 14.46875 C 21.958897 12.685623 16.380908 15.503329 14.625 20.78125 L 10 19.1875 C 12.113563 12.834531 18.057195 8.8530329 24.34375 9 z M 10.15625 25.28125 L 19.71875 29.46875 L 17.28125 31.28125 C 18.275569 32.23497 19.451471 33.02233 20.84375 33.5 C 26.041103 35.283128 31.619092 32.465421 33.375 27.1875 L 38 28.8125 C 35.398691 36.63154 26.949681 40.860384 19.25 38.21875 C 16.898294 37.411919 14.915132 35.999355 13.3125 34.28125 L 11.375 35.84375 L 10.75 30.65625 L 10.15625 25.28125 z "
     id="path-main" />
</defs>
<acyl-settings>
<linearGradient
     id="linearGradient4321">
    <stop
       style="stop-color:#FFFFFF;stop-opacity:1.0;"
       offset="1.0"
       id="stop1" />
  </linearGradient>
<linearGradient
     inkscape:collect="always"
     xlink:href="#linearGradient4321"
     id="acyl_gradient"
     x1="50.0%"
     y1="0.0%"
     x2="50.0%"
     y2="100.0%" />
<filter>
    </filter>
<use id="1" style="fill:url(#acyl_gradient);filter:url(#filter1111)" xlink:href="#path-main" />
</acyl-settings>
</svg>
