<svg xmlns="http://www.w3.org/2000/svg" width="48" height="48">
<defs>
<defs
     id="defs1874">
  </defs>
  <path
     d="M 24,2 C 11.849736,2 2,11.866709 2,24.014388 2,36.16207 11.849734,46 24,46 36.150264,46 46,36.162071 46,24.014388 46,11.866708 36.150264,2 24,2 z m 2.606771,3.5107914 c 0.248152,-9.61e-5 0.486104,0.1088052 0.658854,0.2877698 0.17275,0.1789645 0.265542,0.4127026 0.257812,0.6618705 l 0,2.4172663 c 0.211164,-0.0095 0.41886,-0.0252 0.630209,-0.02878 1.844206,-0.03122 3.682686,0.184363 5.5,0.748201 0.05878,0.01439 0.116262,0.03364 0.171875,0.05755 0.210737,0.101447 0.368706,0.18769 0.544271,0.316547 0.08778,0.06443 0.174851,0.119329 0.286458,0.258993 0.111607,0.139664 0.268079,0.386056 0.257812,0.776978 -0.01027,0.390923 -0.264009,0.776008 -0.458333,0.920864 -0.194324,0.144855 -0.320948,0.172357 -0.429687,0.201438 -0.217479,0.05816 -0.375743,0.0538 -0.515625,0.05755 -0.279766,0.0076 -0.540166,-0.01004 -0.773438,-0.02878 -0.233271,-0.01874 -0.49603,-0.02945 -0.429687,-0.02878 -0.05796,-0.005 -0.115435,-0.01461 -0.171875,-0.02878 -1.515598,-0.273961 -3.068136,-0.428233 -4.61198,-0.460431 l 0,12.920863 c 1.612496,0.540237 3.235952,1.158265 4.8125,1.985612 0.06203,0.04195 0.11962,0.09016 0.171875,0.143884 1.122511,0.94735 1.647252,2.327347 1.690105,3.654677 0.04285,1.327329 -0.334158,2.602025 -1.059896,3.683453 -1.314249,2.131905 -3.46141,3.298323 -5.614584,3.913669 l 0,4.258993 c 0.0047,0.332096 -0.172794,0.638336 -0.458333,0.805755 -0.285539,0.167419 -0.631127,0.167419 -0.916667,0 -0.285539,-0.167419 -0.463008,-0.473659 -0.458333,-0.805755 l 0,-3.856115 c -1.083623,0.125333 -2.15277,0.117583 -3.208333,0 l 0,3.971223 c 0.0047,0.332096 -0.172795,0.638336 -0.458334,0.805755 -0.285538,0.167419 -0.631126,0.167419 -0.916666,0 -0.28554,-0.167419 -0.463009,-0.473659 -0.458334,-0.805755 l 0,-4.28777 c -0.288566,-0.06119 -0.574297,-0.100828 -0.859375,-0.172662 -0.123555,-0.02322 -0.249178,-0.03183 -0.372395,-0.05755 -2.115578,-0.441816 -4.189257,-1.117996 -6.015625,-2.388489 -0.01086,-0.0054 -0.01779,-0.02338 -0.02865,-0.02878 -0.05362,-0.03751 -0.118671,-0.04802 -0.171875,-0.08633 -0.46736,-0.336847 -0.587921,-0.975505 -0.286458,-1.467626 0.301463,-0.492119 0.922344,-0.670203 1.432291,-0.402878 2.049107,1.018438 4.163773,1.859997 6.302083,2.359713 l 0,-10.215828 c -2.699796,-1.032639 -5.577007,-2.596873 -7.046874,-5.61151 -0.0097,-0.01996 -0.01904,-0.03747 -0.02865,-0.05755 -1.1962,-2.207023 -0.589228,-4.91378 1.117187,-6.561152 1.722821,-1.677254 3.859641,-2.615713 5.958341,-3.251798 l 0,-3.5395684 c -0.0036,-0.4668048 0.341041,-0.8624842 0.802084,-0.9208633 0.262263,-0.033171 0.51858,0.053798 0.716146,0.2302158 0.197565,0.1764175 0.317148,0.4251119 0.315104,0.6906475 l 0,3.0503594 c 0.07549,-0.0185 0.154122,-0.03947 0.229166,-0.05755 0.969739,-0.220169 1.971383,-0.397398 2.979167,-0.517985 l 0,-2.5611513 c -0.0077,-0.2491679 0.08506,-0.482906 0.257813,-0.6618705 0.17275,-0.1789646 0.410701,-0.2878659 0.658854,-0.2877698 z m -0.916667,6.1582736 c -1.086395,0.06461 -2.167568,0.183496 -3.208333,0.431654 l 0,10.791367 c 1.04703,0.377377 2.11734,0.718547 3.208333,1.064749 l 0,-12.28777 z m -5.041667,1.007194 c -1.057351,0.397786 -2.064073,0.9146 -3.007812,1.582734 -0.03704,0.02141 -0.0753,0.04063 -0.114583,0.05755 -1.449161,0.817554 -2.095513,3.096105 -1.346354,4.690647 0.0101,0.0189 0.01966,0.0381 0.02864,0.05755 0.468044,1.156983 1.570548,1.977058 2.778646,2.330935 0.06953,0.02201 0.136705,0.05092 0.200521,0.08633 0.474731,0.255192 0.964337,0.473314 1.460937,0.690648 l 0,-9.496403 z m 1.833334,13.553957 0,9.870503 c 0.172608,0.02013 0.34076,0.05328 0.515625,0.05755 0.894525,-0.01514 1.798999,-0.124512 2.692708,-0.316546 l 0,-8.633094 C 24.649337,26.920284 23.572371,26.61842 22.481771,26.230216 z m 5.041666,1.52518 0,7.568345 c 0.0087,-0.0029 0.01997,0.0029 0.02865,0 0.009,-0.003 0.01963,0.003 0.02865,0 1.846072,-0.744293 3.631354,-2.118801 3.838542,-4 0.09185,-0.806116 -0.244757,-1.567137 -0.830729,-1.956835 -0.02953,-0.01782 -0.05821,-0.03703 -0.08594,-0.05755 -0.86377,-0.705559 -1.879211,-1.178511 -2.979167,-1.553957 z"
     id="path-main"
      />
</defs>
<acyl-settings>
<linearGradient
     id="linearGradient4321">
    <stop
       style="stop-color:#FFFFFF;stop-opacity:1.0;"
       offset="1.0"
       id="stop1" />
  </linearGradient>
<linearGradient
     inkscape:collect="always"
     xlink:href="#linearGradient4321"
     id="acyl_gradient"
     x1="50.0%"
     y1="0.0%"
     x2="50.0%"
     y2="100.0%" />
<filter>
    </filter>
<use id="1" style="fill:url(#acyl_gradient);filter:url(#filter1111)" xlink:href="#path-main" />
</acyl-settings>
</svg>
