<svg xmlns="http://www.w3.org/2000/svg" width="48" height="48">
<defs>
      <path
         d="M 24,2 C 11.860333,2.0000001 2,11.860332 2,24 C 2.0000001,36.139668 11.860332,46 24,46 C 36.139669,46.000001 46,36.139668 46,24 C 46,11.860332 36.139668,2 24,2 z M 24,2.8125 C 24.522711,2.8125 25.049288,2.8378207 25.5625,2.875 L 25.03125,3.3125 C 24.658124,3.6241639 24.374804,3.9148249 24.375,3.96875 C 24.375464,4.0961074 24.045499,7.5125799 24.03125,7.53125 C 24.025285,7.5390677 23.200884,7.5041638 22.21875,7.4375 C 21.236614,7.3708377 20.343206,7.3130516 20.21875,7.3125 L 20,7.3125 L 19.1875,9.75 L 18.375,12.15625 L 18.6875,13.46875 C 19.004762,14.738157 19.035573,14.794486 19.1875,14.8125 C 19.319754,14.828182 19.399415,14.772811 19.75,14.34375 C 19.980283,14.061919 20.197415,13.806004 20.21875,13.78125 C 20.240083,13.756497 20.73703,13.917876 21.3125,14.15625 C 21.887968,14.394625 22.39737,14.572474 22.46875,14.5625 C 22.59119,14.545392 22.577011,14.45761 22.0625,13.0625 L 21.53125,11.59375 L 21.53125,10.375 C 21.53125,9.7005507 21.535051,9.1449363 21.5625,9.15625 C 21.589949,9.1675636 22.096861,9.7053453 22.6875,10.34375 L 23.78125,11.5 L 24.15625,13.21875 C 24.371252,14.155608 24.546013,14.961533 24.53125,15 C 24.509412,15.056907 22.059508,16.000001 21.9375,16 C 21.917794,16 21.651367,15.857206 21.34375,15.6875 C 20.462439,15.201299 20.384779,15.272395 20.71875,16.1875 L 20.90625,16.71875 L 20.28125,18.3125 L 19.65625,19.9375 L 18.65625,20.71875 C 17.78965,21.395807 17.624999,21.543622 17.625,21.6875 C 17.625,21.847015 17.674006,21.842068 18.34375,22.0625 L 19.03125,22.3125 L 19.125,22.71875 C 19.299101,23.498691 19.493107,24.511713 19.46875,24.53125 C 19.455355,24.541996 18.79762,24.655133 18,24.78125 C 16.309453,25.048552 16.343367,25.052572 16.34375,25.1875 C 16.344145,25.328035 17.178276,29.084529 17.21875,29.125 C 17.255208,29.16146 20.929216,28.469308 21.03125,28.40625 C 21.067776,28.383675 21.295433,27.331443 21.53125,26.0625 L 21.96875,23.75 L 22.90625,22.8125 L 23.84375,21.84375 L 25.65625,22.3125 C 27.096109,22.672089 27.438996,22.763157 27.4375,22.84375 C 27.436472,22.899033 27.391319,23.365881 27.34375,23.875 C 27.296181,24.384119 27.289359,24.822428 27.3125,24.84375 C 27.389512,24.914711 28.79991,25.23134 28.84375,25.1875 C 28.876547,25.154704 29.340125,22.715952 29.34375,22.5625 C 29.344152,22.545529 28.702667,22.159987 27.90625,21.71875 C 27.109834,21.277514 26.46991,20.886176 26.46875,20.84375 C 26.466143,20.748556 26.565684,20.753275 27.65625,20.84375 L 28.53125,20.90625 L 29.6875,21.78125 L 30.84375,22.65625 L 31.5625,22.65625 C 32.178624,22.65625 32.312499,22.668815 32.3125,22.59375 C 32.3125,22.543748 32.256522,21.905696 32.1875,21.1875 C 32.11848,20.469304 32.07646,19.861038 32.09375,19.84375 C 32.111039,19.82646 32.175501,19.841675 32.21875,19.875 C 32.261998,19.908322 32.702559,20.27475 33.21875,20.6875 C 33.73494,21.100251 34.217384,21.437499 34.28125,21.4375 C 34.363985,21.4375 34.667746,21.061145 35.3125,20.09375 C 35.810167,19.347042 36.221712,18.71875 36.25,18.71875 C 36.289756,18.71875 37.473215,20.365445 37.6875,20.71875 C 37.739029,20.803708 37.59311,23.164166 37.53125,23.21875 C 37.507699,23.239534 36.414768,23.658041 35.125,24.125 C 33.835233,24.591957 32.787702,24.963545 32.78125,24.96875 C 32.774796,24.973955 32.696946,25.527239 32.625,26.1875 C 32.553055,26.847761 32.481817,27.393184 32.46875,27.40625 C 32.455685,27.419315 31.522392,27.571256 30.375,27.71875 C 28.714992,27.932144 28.267855,27.968187 28.21875,27.90625 C 28.184809,27.863439 27.853742,27.433599 27.46875,26.96875 C 26.911152,26.295486 26.71651,26.125001 26.59375,26.125 C 26.4946,26.125 25.586098,26.70603 24.03125,27.75 C 21.749386,29.282108 21.540408,29.396545 20.375,29.9375 C 19.696175,30.252593 19.10149,30.553921 19.0625,30.59375 C 19.011013,30.646343 16.585694,36.500198 16.25,37.375 C 16.224586,37.441226 16.586398,38.149171 17.28125,39.375 L 18.34375,41.25 L 19.3125,41.59375 C 19.857939,41.781988 21.109454,42.194865 22.09375,42.53125 C 23.078046,42.867634 23.898083,43.153011 23.90625,43.15625 C 23.914413,43.159495 25.225425,42.700959 26.8125,42.125 C 29.571949,41.123578 29.755657,41.049821 31.25,40.71875 C 32.109459,40.528335 32.863003,40.389653 32.90625,40.40625 C 32.949499,40.422847 33.451654,40.805695 34.03125,41.25 C 34.542436,41.641865 34.97254,41.927792 35.125,42 C 31.889185,44.001822 28.085381,45.1875 24,45.1875 C 12.293184,45.187501 2.8125,35.706818 2.8125,24 C 2.8125,12.293183 12.293183,2.8125 24,2.8125 z M 13.59375,7.09375 C 13.464972,7.097241 12.874516,7.404531 11.90625,7.90625 L 10.40625,8.6875 L 9.09375,10.75 L 7.8125,12.8125 L 7.59375,14.03125 C 7.4790238,14.710076 7.3754383,15.301322 7.375,15.34375 C 7.3745445,15.387908 7.4600648,15.4375 7.5625,15.4375 C 7.7290973,15.4375 7.7651877,15.379136 8.1875,14.59375 L 8.65625,13.75 L 10.15625,13.0625 L 11.65625,12.375 L 12.75,9.75 C 13.337403,8.3134881 13.8125,7.1377064 13.8125,7.125 C 13.8125,7.112293 13.704059,7.0907594 13.59375,7.09375 z M 36.53125,11.40625 C 36.593855,11.381379 37.195546,11.781295 38.28125,12.53125 C 39.195839,13.163006 39.981047,13.701353 40.03125,13.75 C 40.111259,13.82753 40.041318,13.927432 39.5,14.46875 L 38.875,15.09375 L 37.78125,14.28125 C 36.839654,13.597539 35.099098,12.125453 35.09375,12 C 35.092839,11.978607 35.385131,11.824421 35.75,11.6875 C 36.114869,11.550579 36.478512,11.427203 36.53125,11.40625 z M 12.96875,12.6875 C 12.862207,12.6875 11.316102,13.347398 11.21875,13.4375 C 11.188458,13.465535 11.038705,14.632454 11.0625,14.65625 C 11.073327,14.667076 11.324104,14.667906 11.59375,14.625 C 11.998952,14.560521 12.187167,14.47538 12.6875,14.1875 C 13.02045,13.995928 13.316687,13.807322 13.34375,13.78125 C 13.370814,13.755177 13.323657,13.512429 13.25,13.21875 C 13.131907,12.7479 13.089921,12.6875 12.96875,12.6875 z M 35.375,14.65625 L 35.5625,14.65625 L 35.4375,15.4375 C 35.363515,15.864303 35.279705,16.223556 35.25,16.25 C 35.220293,16.276443 34.844796,16.41681 34.4375,16.5625 C 34.030205,16.708188 33.679024,16.854507 33.65625,16.875 C 33.633478,16.895495 33.570201,17.20662 33.5,17.59375 C 33.429798,17.980883 33.359877,18.327622 33.34375,18.34375 C 33.327619,18.359882 32.936649,18.435339 32.46875,18.53125 C 32.000853,18.627159 31.573677,18.717287 31.53125,18.71875 C 31.488472,18.720224 31.470859,18.656613 31.46875,18.5625 C 31.466657,18.46916 31.375924,17.678001 31.28125,16.8125 C 31.186579,15.946998 31.113893,15.232084 31.125,15.21875 C 31.136106,15.205414 31.46955,15.38256 31.875,15.625 C 32.28045,15.867438 32.699969,16.062499 32.78125,16.0625 C 32.919033,16.0625 32.928302,16.015341 33.03125,15.46875 C 33.09198,15.146308 33.151356,14.90646 33.15625,14.90625 C 33.16114,14.906041 33.627469,14.848714 34.1875,14.78125 C 34.747531,14.713785 35.27131,14.656458 35.375,14.65625 z M 43.1875,14.9375 C 43.531617,15.664107 43.801444,16.418326 44.0625,17.1875 C 44.02475,17.166819 43.994592,17.149472 43.9375,17.125 C 43.454177,16.917821 43.474357,16.87895 43.25,17.84375 C 43.139506,18.318927 43.022913,18.718336 43,18.71875 C 42.885612,18.720809 40.895554,17.755497 40.9375,17.71875 C 40.964325,17.695254 41.354293,17.536089 41.8125,17.34375 L 42.65625,17 L 42.9375,15.90625 L 43.1875,14.9375 z M 16.34375,15.75 C 16.11258,15.75 15.339043,16.406445 15.34375,16.59375 C 15.345544,16.665125 15.407701,16.966219 15.46875,17.28125 L 15.59375,17.875 L 15.125,19.15625 C 14.875691,19.859454 14.68771,20.471851 14.6875,20.53125 C 14.687045,20.660151 14.79407,20.670307 15.3125,20.5625 L 15.6875,20.46875 L 16,19.25 C 16.180377,18.52696 16.331698,18.03125 16.375,18.03125 C 16.420708,18.03125 16.510183,18.485582 16.65625,19.25 C 16.784338,19.920339 16.920769,20.534352 16.9375,20.59375 C 16.957358,20.66426 17.010041,20.687499 17.125,20.6875 C 17.276891,20.6875 17.428696,20.554993 18.125,19.71875 C 18.568934,19.185596 18.938426,18.708584 18.9375,18.65625 C 18.936578,18.603916 18.582429,18.31975 18.15625,18.03125 L 17.375,17.53125 L 16.9375,16.625 C 16.540248,15.80276 16.506042,15.75 16.34375,15.75 z M 39.3125,23.09375 C 39.348812,23.09375 40.159306,23.435641 41.09375,23.84375 L 42.78125,24.59375 L 43.3125,25.4375 C 43.604716,25.903382 43.851245,26.301323 43.875,26.34375 C 43.900192,26.388761 43.890883,26.440711 43.84375,26.4375 C 43.778397,26.43305 38.930582,24.0546 38.875,24 C 38.83524,23.96094 39.253628,23.09375 39.3125,23.09375 z"
         id="path-main"
          />
</defs>
<acyl-settings>
<linearGradient
     id="linearGradient4321">
    <stop
       style="stop-color:#FFFFFF;stop-opacity:1.0;"
       offset="1.0"
       id="stop1" />
  </linearGradient>
<linearGradient
     inkscape:collect="always"
     xlink:href="#linearGradient4321"
     id="acyl_gradient"
     x1="50.0%"
     y1="0.0%"
     x2="50.0%"
     y2="100.0%" />
<filter>
    </filter>
<use id="1" style="fill:url(#acyl_gradient);filter:url(#filter1111)" xlink:href="#path-main" />
</acyl-settings>
</svg>
