#define battery4_width 14
#define battery4_height 9
static unsigned char battery4_bits[] = {
   0xff, 0x0f, 0x01, 0x08, 0x0d, 0x38, 0x0d, 0x28, 0x0d, 0x28, 0x0d, 0x28,
   0x0d, 0x38, 0x01, 0x08, 0xff, 0x0f };
