#define cpu_width 14
#define cpu_height 9
static unsigned char cpu_bits[] = {
   0x1f, 0x01, 0xfe, 0x01, 0xfe, 0x01, 0xc6, 0x01, 0xc6, 0x01, 0xc7, 0x00,
   0xff, 0x00, 0xff, 0x00, 0xe1, 0x01 };
