#define lan_width 14
#define lan_height 9
static unsigned char lan_bits[] = {
   0xe0, 0x03, 0x20, 0x02, 0xe0, 0x03, 0x80, 0x00, 0xfe, 0x3f, 0x08, 0x08,
   0x3e, 0x3e, 0x22, 0x22, 0x3e, 0x3e };
