#define media_width 15
#define media_height 9
static unsigned char media_bits[] = {
 0x00, 0x00, 0xFC, 0x1F, 0x44, 0x10, 0xC4, 0x10, 0xC4, 0x11, 0xC4, 0x10,
 0x44, 0x10, 0xFC, 0x1F, 0x00, 0x00 };
