#define music_width 14
#define music_height 9
static unsigned char music_bits[] = {
   0xfc, 0x07, 0x04, 0x04, 0x04, 0x04, 0x04, 0x04, 0x04, 0x06, 0x04, 0x07,
   0x06, 0x03, 0x07, 0x00, 0x03, 0x00 };
