#define next_width 9
#define next_height 9
static unsigned char next_bits[] = {
   0x10, 0x00, 0x31, 0x00, 0x73, 0x00, 0xf7, 0x00, 0xff, 0x01, 0xf7, 0x00,
   0x73, 0x00, 0x31, 0x00, 0x10, 0x00 };
