#define pause_width 9
#define pause_height 9
static unsigned char pause_bits[] = {
   0xb8, 0x01, 0xb8, 0x01, 0xb8, 0x01, 0xb8, 0x01, 0xb8, 0x01, 0xb8, 0x01,
   0xb8, 0x01, 0xb8, 0x01, 0xb8, 0x01 };
