#define play_width 9
#define play_height 9
static unsigned char play_bits[] = {
   0x10, 0x00, 0x30, 0x00, 0x70, 0x00, 0xf0, 0x00, 0xf0, 0x01, 0xf0, 0x00,
   0x70, 0x00, 0x30, 0x00, 0x10, 0x00 };
