#define term_width 15
#define term_height 9
static unsigned char term_bits[] = {
 0x00, 0x00, 0xFC, 0x1F, 0x04, 0x10, 0x14, 0x10, 0x24, 0x10, 0x14, 0x10,
 0x04, 0x10, 0xFC, 0x1F, 0x00, 0x00 };
