#define time_width 14
#define time_height 9
static unsigned char time_bits[] = {
   0xc0, 0x0f, 0x20, 0x10, 0x10, 0x21, 0x10, 0x21, 0x10, 0x21, 0x10, 0x27,
   0x10, 0x20, 0x20, 0x10, 0xc0, 0x0f };
