#define volume25_width 14
#define volume25_height 9
static unsigned char volume25_bits[] = {
   0x10, 0x20, 0x18, 0x00, 0x1c, 0x00, 0x5f, 0x00, 0x5f, 0x00, 0x5f, 0x00,
   0x1c, 0x00, 0x18, 0x00, 0x10, 0x20 };
