#define www_width 15
#define www_height 9
static unsigned char www_bits[] = {
 0x00, 0x00, 0x24, 0x12, 0x48, 0x09, 0x48, 0x09, 0x90, 0x04, 0x90, 0x04,
 0x60, 0x03, 0x20, 0x02, 0x00, 0x00 };
