/* XPM */
static char *top[] = {
/* columns rows colors chars-per-pixel */
"32 32 59 1",
"  c #000000",
". c #020202",
"X c #030303",
"o c #050505",
"O c #0A0A0A",
"+ c #0B0B0B",
"@ c #0F0F0F",
"# c #101010",
"$ c #131313",
"% c #151515",
"& c #181818",
"* c #1A1A1A",
"= c #1B1B1B",
"- c #1D1D1D",
"; c #202020",
": c #212121",
"> c #242424",
", c #262626",
"< c #2D2D2D",
"1 c #2F2F2F",
"2 c #303030",
"3 c #444444",
"4 c #454545",
"5 c #464646",
"6 c #474747",
"7 c #4A4A4A",
"8 c #4D4D4D",
"9 c #4E4E4E",
"0 c #515151",
"q c #535353",
"w c #5B5B5B",
"e c #6C6C6C",
"r c #6F6F6F",
"t c #717171",
"y c #737373",
"u c #838383",
"i c #858585",
"p c #999999",
"a c #AEAEAE",
"s c #AFAFAF",
"d c #B3B3B3",
"f c #B4B4B4",
"g c #B7B7B7",
"h c #BCBCBC",
"j c #C0C0C0",
"k c #C3C3C3",
"l c #C4C4C4",
"z c #C7C7C7",
"x c #C9C9C9",
"c c #CBCBCB",
"v c #CDCDCD",
"b c #D2D2D2",
"n c #D6D6D6",
"m c #D7D7D7",
"M c #DBDBDB",
"N c #DFDFDF",
"B c #E3E3E3",
"V c #F0F0F0",
"C c None",
/* pixels */
"CCCCCCCCCCCCCCCCCCCCCCCCCCCCCCCC",
"CCCCCCCCCCCCCCCCCCCCCCCCCCCCCCCC",
"CCCC........................CCCC",
"CC............................CC",
"CC............................CC",
"CC............................CC",
"CC............................CC",
"CC........kkkkkkkkkkkk........CC",
"CC........VVVVVVVVVVVV........CC",
"CC........wwwwwuuwwwww........CC",
"CC.............kk.............CC",
"CC............iBBu............CC",
"CC...........<nNNn<...........CC",
"CC...........aMMMMa...........CC",
"CC..........ennnnnne..........CC",
"CC.........&zbbbbbbz&.........CC",
"CC.........pvvvvvvvvp.........CC",
"CC........0xxxxxxxxxv0........CC",
"CC.......OgkkzzkzzzkkdO.......CC",
"CC.......:44ehhkhhke44:.......CC",
"CC..........7hhhhhh0..........CC",
"CC..........4gggggg8..........CC",
"CC..........4dddddd8..........CC",
"CC..........3aaaaaa7..........CC",
"CC..........<yyyyyy<..........CC",
"CC............................CC",
"CC...........................oCC",
"CCo...........................CC",
"CCo...........................CC",
"CC.OO@##%%&--::>>::--&%%#@@OO.CC",
"CCCC........................CCCC",
"CCCCCCCCCCCCCCCCCCCCCCCCCCCCCCCC"
};
