/* XPM */
static char *bluefish[] = {
/* columns rows colors chars-per-pixel */
"32 32 183 2",
"   c #000000",
".  c #554827",
"X  c #3C595F",
"o  c #25426D",
"O  c #29466A",
"+  c #2D486B",
"@  c #324D64",
"#  c #3B5668",
"$  c #224374",
"%  c #2A4B75",
"&  c #234679",
"*  c #24497D",
"=  c #31527B",
"-  c #6F7E5D",
";  c #405C63",
":  c #4B6965",
">  c #4E6669",
",  c #4A6B6E",
"<  c #506E6A",
"1  c #4D6A7F",
"2  c #547374",
"3  c #597A71",
"4  c #5D7878",
"5  c #666666",
"6  c #647E7A",
"7  c #70805D",
"8  c #56806E",
"9  c #5C8473",
"0  c #5E8876",
"q  c #608977",
"w  c #65847C",
"e  c #68847E",
"r  c #648C7B",
"t  c #698E7F",
"y  c #68907F",
"u  c #AFAD76",
"i  c #254C82",
"p  c #255086",
"a  c #2C5287",
"s  c #27538C",
"d  c #29538D",
"f  c #315688",
"g  c #335B8E",
"h  c #285793",
"j  c #295896",
"k  c #2B5C9B",
"l  c #335E94",
"z  c #3B6088",
"x  c #366096",
"c  c #32619E",
"v  c #3D659C",
"b  c #2C5FA0",
"n  c #2D62A5",
"m  c #2E66AC",
"M  c #2E68AF",
"N  c #3568A7",
"B  c #396AA7",
"V  c #3D6EAA",
"C  c #2F6CB4",
"Z  c #306DB5",
"A  c #3071BC",
"S  c #3B76BA",
"D  c #426483",
"F  c #4A6A89",
"G  c #5B7F8B",
"H  c #486F9F",
"J  c #4E7190",
"K  c #4F779F",
"L  c #537795",
"P  c #537998",
"I  c #416BA2",
"U  c #4570A5",
"Y  c #4A72A4",
"T  c #4273AB",
"R  c #4B75A9",
"E  c #4D78AC",
"W  c #557DA9",
"Q  c #4F7DB4",
"!  c #437CBC",
"~  c #527EB3",
"^  c #3175C1",
"/  c #688587",
"(  c #698D81",
")  c #6D9383",
"_  c #6F918D",
"`  c #729586",
"'  c #75958A",
"]  c #749B8B",
"[  c #799D8E",
"{  c #658D9E",
"}  c #6D9299",
"|  c #7C9E91",
" . c #739798",
".. c #7A939A",
"X. c #769A9C",
"o. c #7A989F",
"O. c #78A08F",
"+. c #7CA292",
"@. c #5C83AB",
"#. c #5381B7",
"$. c #5A87B7",
"%. c #5584BA",
"&. c #5A86BA",
"*. c #5B89BC",
"=. c #6188A3",
"-. c #6C8EA0",
";. c #798DA7",
":. c #6991AF",
">. c #7391A2",
",. c #759AA2",
"<. c #779EA9",
"1. c #7D9EAE",
"2. c #668FB7",
"3. c #728FB2",
"4. c #6290BE",
"5. c #7C97B7",
"6. c #5587C1",
"7. c #5D8DC2",
"8. c #5F91C7",
"9. c #6692C2",
"0. c #6996C1",
"q. c #6798CE",
"w. c #6899CF",
"e. c #729ECB",
"r. c #6A9DD3",
"t. c #71A0D2",
"y. c #79A8D4",
"u. c #72A6DB",
"i. c #75A8DC",
"p. c #7BABDD",
"a. c #819396",
"s. c #86929F",
"d. c #8F959D",
"f. c #8E9B9B",
"g. c #949494",
"h. c #82A495",
"j. c #84A598",
"k. c #86AA9C",
"l. c #8BAB9D",
"z. c #8198B6",
"x. c #8DAEA1",
"c. c #8CB4A4",
"v. c #8FB8A7",
"b. c #91B5A6",
"n. c #95B7A8",
"m. c #91B9A9",
"M. c #9ABBAD",
"N. c #97B2B3",
"B. c #9CBCB0",
"V. c #ACACAC",
"C. c #A1A8B0",
"Z. c #A0BEB0",
"A. c #B1B1B1",
"S. c #BABABA",
"D. c #9EC1B2",
"F. c #B4C5A4",
"G. c #A5C2B6",
"H. c #A8C2B7",
"J. c #A6C6B8",
"K. c #ABC5BA",
"L. c #ADC9BD",
"P. c #BECEB0",
"I. c #B0C9BF",
"U. c #84A1C4",
"Y. c #80AFDF",
"T. c #AFBBCB",
"R. c #B4CDC2",
"E. c #B9CFC6",
"W. c #B7C2CE",
"Q. c #B5D0C4",
"!. c #B9D1C7",
"~. c #BDD4CA",
"^. c #CBCBCB",
"/. c #C0D7CE",
"(. c #C0D8CE",
"). c #CCDFD7",
"_. c #CFE1D9",
"`. c #D5E5DE",
"'. c #C9D9EA",
"]. c #E3E4E5",
"[. c #E9EDF2",
"{. c #FDFDFD",
"}. c None",
/* pixels */
"}.}.}.}.}.}.}.}.}.}.}.}.}.}.}.}.}.}.}.}.}.}.}.}.}.}.}.}.}.}.}.}.",
"}.}.}.}.}.}.}.}.}.}.}.}.}.}.}.}.}.}.}.}.}.}.}.}.}.}.}.}.}.}.}.}.",
"}.}.u P.Q.Q.Q.).`.`.`.`.`.~.!.Q.Q.Q.~.`.`.`.`.`.`.Q.Q.Q.P.u }.}.",
"}.}.F.v.v.v.v.M.~.(.(.(.(.J.m.m.m.m.J.~.(.(.(.~.D.v.v.v.v.F.}.}.",
"}.}.D.c.c.v.v.v.G.~.~.~./.L.b.m.m.m.K.~.~.(.~.K.v.v.c.c.c.D.}.}.",
"}.}.M.c.c.c.c.c.m.Q.~.~.~.!.m.m.m.v.R.~.~.~.Q.m.c.c.c.c.c.B.}.}.",
"}.}.M.c.c.c.c.v.b.M.~.~.~.~.m.m.v.m.~.~.~.~.D.c.c.+.c.c.c.M.}.}.",
"}.}.R.c.c.c.c.c.b.c.K.!.E.R.M.c.v.M.!.~.~.K.c.<.t._ c.l.c.R.}.}.",
"}.}.!.R.Z.x.c.c.k.X.X.1.@.T T W { M.Q.Q.R.b.,.p.0.O.c.M.L.!.}.}.",
"}.}.R.L.I.L.n. .4.8.S A A S q.q.7.U N.R.M.h.y.u.@.x.K.L.L.R.}.}.",
"}.}.R.K.L.I.B.2.w.S A ^ A 6.r.r.7.~ k o.l.} Y.u.} L.L.L.K.R.}.}.",
"}.}.I.K.K.H...*.! A ^ ^ ^ &.9.e.%.E j k / :.Y.u.>.J.L.K.H.I.}.}.",
"}.}.K.G.J.G.a.T.Z A ^ ^ ^ '.{.{.[.U.W j h 0.p.r.>.H.K.K.G.L.}.}.",
"}.}.k.l.b.M.f.= C Z A A A ].].].5 g.z.j d x t.q...G.M.m.x.l.}.}.",
"}.}.+.O.+.+.w E M C C A C T.^.^.V.S.3.d s i R *.' j.+.+.+.+.}.}.",
"}.}.+.+.[ +.w N M M M M M 5.A.A.V.C.Y i a * a P [ +.+.O.O.+.}.}.",
"}.}.O.] ] O.( b n m m m M B ;.d.s.=.l i i * & L O.O.O.[ ] O.}.}.",
"}.}.O.` ] O.) l n n n n n b x U I l * i * & f Y O.O.[ ' ] ] }.}.",
"}.}.[ h.k.c.x.z k b b b b k j i i i i i * $ v R j.n.l.l.[ ] }.}.",
"}.}.x.x.x.x.h.0.T k k j j n T %.a i i & $ + F R L l.x.x.x.c.}.}.",
"}.}.l.k.l.l.' $.6.%.~ ~ %.%.7.I i & & $ o 2 ( 2 1 ( l.l.l.l.}.}.",
"}.}.j.j.k.l.a.J Y Y Y Y E ~ v i & & $ o , ( ) ) ' h.k.k.j.j.}.}.",
"}.}.h.j.h.+.` 3 D Y I I v a & $ & o O 4 ` ) ) ) y ' h.j.h.h.}.}.",
"}.}.h.O.` y y y 4 < ; % * & $ o o + 6 | h.( ) ) y y y ] O.a.}.}.",
"}.}.` r r r r y y r ` e > # @ X : q [ h.+.' t t y t r q r ] }.}.",
"}.}.0 0 0 0 q r r y O.[ ] ' q q q t [ O.[ [ t r r q q 0 0 0 }.}.",
"}.}.9 9 9 0 0 0 q ' ' ' ] ` q q q q ' ' ' ] ` q q 0 0 0 9 0 }.}.",
"}.}.9 9 9 9 9 9 r ` ) ` ` r 9 q q q r ` ) ` ) r 9 9 8 9 9 9 }.}.",
"}.}.- 8 8 8 8 9 r t t t t q 8 9 3 8 q t t t t t 9 8 8 3 8 - }.}.",
"}.}.. 7 9 9 9 t ` ` ' ` ' t t y y t t ' ` ` ` ) y 9 9 9 7 . }.}.",
"}.}.}.}.                                                }.}.}.}.",
"}.}.}.}.}.}.}.}.}.}.}.}.}.}.}.}.}.}.}.}.}.}.}.}.}.}.}.}.}.}.}.}."
};
