/* XPM */
static char *browser[] = {
/* columns rows colors chars-per-pixel */
"32 32 150 2",
"   c #000000",
".  c #782734",
"X  c #0A2641",
"o  c #623A50",
"O  c #66546E",
"+  c #70667A",
"@  c #BD1818",
"#  c #B92122",
"$  c #A52F33",
"%  c #C01616",
"&  c #DB1E1E",
"*  c #EF1A1B",
"=  c #F21919",
"-  c #D2252B",
";  c #EC4D3E",
":  c #F34433",
">  c #F84432",
",  c #823D4C",
"<  c #9B3C51",
"1  c #8E6E76",
"2  c #866C7D",
"3  c #B56862",
"4  c #A36270",
"5  c #D15650",
"6  c #1D5A93",
"7  c #1A5F9F",
"8  c #2B5D8C",
"9  c #2D6297",
"0  c #336899",
"q  c #1B5FA0",
"w  c #1C65A8",
"e  c #1A6EBC",
"r  c #1E71BE",
"t  c #2866A1",
"y  c #3E75AB",
"u  c #256FB4",
"i  c #2370B6",
"p  c #2373BE",
"a  c #2877BF",
"s  c #3877B2",
"d  c #3978B1",
"f  c #3F7EBF",
"g  c #4B658D",
"h  c #5D7B96",
"j  c #6F6D91",
"k  c #667F96",
"l  c #4C7DAD",
"z  c #6778A2",
"x  c #2375C1",
"c  c #2877C3",
"v  c #2678C3",
"b  c #2A7AC4",
"n  c #2E7EC8",
"m  c #337DC2",
"M  c #698197",
"N  c #4D85B7",
"B  c #4C86BC",
"V  c #658FB7",
"C  c #6C8BB8",
"Z  c #7D9EBD",
"A  c #3380C6",
"S  c #3A82C5",
"D  c #3483CC",
"F  c #3B86CC",
"G  c #3E89CE",
"H  c #3C87D0",
"J  c #3E8AD1",
"K  c #448BCD",
"L  c #488ECD",
"P  c #5E92C6",
"I  c #5B95CF",
"U  c #448DD3",
"Y  c #4690D7",
"T  c #4C92D4",
"R  c #4C95DA",
"E  c #5295D3",
"W  c #5699D6",
"Q  c #5A9AD5",
"!  c #5297D8",
"~  c #5399DC",
"^  c #5B9DDB",
"/  c #659ED4",
"(  c #619ED8",
")  c #5FA0DD",
"_  c #6EA1CE",
"`  c #6CA0D2",
"'  c #63A3DE",
"]  c #69A5DF",
"[  c #70A2D4",
"{  c #77ABDC",
"}  c #7DADDC",
"|  c #569DE1",
" . c #5A9FE1",
".. c #5DA1E2",
"X. c #65A5E1",
"o. c #69A7E2",
"O. c #6CA9E4",
"+. c #73AEE5",
"@. c #7CB2E4",
"#. c #7FB5E9",
"$. c #AA8B8F",
"%. c #8C8FA6",
"&. c #8292A1",
"*. c #8D93A4",
"=. c #8D9AA6",
"-. c #8F9EAC",
";. c #879FB5",
":. c #ACB1B5",
">. c #81A2C1",
",. c #9AB0C4",
"<. c #85B3DE",
"1. c #ACBACD",
"2. c #82B3E2",
"3. c #8EBAE6",
"4. c #80B6E9",
"5. c #86B9EB",
"6. c #89BAEA",
"7. c #93BDE5",
"8. c #98BFE4",
"9. c #95BFE8",
"0. c #B3C6D9",
"q. c #99C0E5",
"w. c #95C0E8",
"e. c #9EC7ED",
"r. c #A5C7E6",
"t. c #A2C7EA",
"y. c #A5CAEC",
"u. c #ACCEED",
"i. c #B1CFEB",
"p. c #B7D3EE",
"a. c #B8D5EF",
"s. c #ABCFF0",
"d. c #B6D4F1",
"f. c #BED8F1",
"g. c #C1C1C2",
"h. c #C6C7C8",
"j. c #CCCCCC",
"k. c #C3CAD2",
"l. c #C9CFD4",
"z. c #DFDFE0",
"x. c #C1DBF2",
"c. c #E5E6E6",
"v. c #E7E8E8",
"b. c #EAEBEC",
"n. c #E3EDF7",
"m. c #E6EFF8",
"M. c #E6F0F9",
"N. c #EAF2FA",
"B. c #FEFEFF",
"V. c None",
/* pixels */
"V.V.V.V.V.V.V.V.V.V.V.V.V.V.V.V.V.V.V.V.V.V.V.V.V.V.V.V.V.V.V.V.",
"V.V.V.V.V.V.V.V.V.V.V.V.V.V.V.V.V.V.V.V.V.V.V.V.V.V.V.V.V.V.V.V.",
"V.V.V.} #.#.4.4.#.#.#.#.5.5.5.5.5.5.#.#.4.#.#.#.#.4.4.4.} V.V.V.",
"V.V.[ ..X.......o...| | X.O.+.O.O...| ..| | | | | | | | ..] V.V.",
"V.V.O...X.....| X.o...| | O.+.O.O.| | | R | | | X. .| | | o.V.V.",
"V.V.+.......X.X. . .o.| | O.O.+...| | | R | | o.O.o. . ...+.V.V.",
"V.V.O.o.o.X.O...|  .o.| ~ O.o.6.5...| | | |  .o.X.X...X.X.+.V.V.",
"V.V.O.X.o.O.X.R R | | R ~  . .d.d.R R R R R O.! z ( X.X.X.O.V.V.",
"V.V.O.X.X.o.X.R R O.X.~ R R R M.N.R R Y Y ~ C < l o.o.X.X.O.V.V.",
"V.V.O.X.X.o.o.] ~ o.O.X.Y Y X.B.B.X.Y ~ W j - g ( o.o.X.' O.V.V.",
"V.V.O.X.] X.o.o.O.O.6.+.R T 9.B.B.9.Y K 4 = O / O.o.X.o.] O.V.V.",
"V.V.] ' ] ] o.O.O.O.+.N.y.p.B.B.B.B.1.5 = , P o.O.X.^ X.^ ] V.V.",
"V.V.' ' ' o.o.o.O.o.Y t.B.N.4.~ E %.; = $ y ~ ' X.~ ^ ^ W ] V.V.",
"V.V.! ' ' X.X.] o.! J p.M.T J D 2 : = # *.E U U U ^ X.] ^ X.V.V.",
"V.V.U R ' ' X.' ] W 3.B.@.G l 3 > = @ + b.s.@.~ ~ ^ X.' ' ' V.V.",
"V.V.U F T +.2.u.M.B.B.B.T m 1.$.& @ o _ B.B.B.N.f.9.' ( ~ T V.V.",
"V.V.J D H W 6.a.m.B.B.B.L Z b.l.1 . N @.B.B.B.N.x.w.) ) ) Y V.V.",
"V.V.D D D D F Y U W 7.B.>.c.c.h.*.9 E e.B.s.@.X.' ' ) E D F V.V.",
"V.V.D D D D D D D ] ] 0.z.c.h.k t b K N.f.W ] ' ' ) ) E D D V.V.",
"V.V.D n n n n n F ' I l.c.g.M y K { m.B.w.A W ' ) ) Q D A D V.V.",
"V.V.A n n n n n D Q ,.c.:.-.v.B.B.B.i.8.N.G U ^ ^ ^ U n n A V.V.",
"V.V.b b b b b b b V c.&.l Q y.B.B.<.b b F E U Q Q W U D b b V.V.",
"V.V.b b v v v v s k.h N W ( ( B.B.K b v b v D W W W n H b b V.V.",
"V.V.v v v v v u ;.8 B Q W U v n.n.v v v v v v E E F v v v v V.V.",
"V.V.v x x v p 0 6 u E E L v x r.r.x x x x x p D F v v x x v V.V.",
"V.V.x x r r e w e v L K x x x / / x r x r x x x p p r x r x V.V.",
"V.V.x r r r e x r b K p e r r b b r r r r r r r e r r r r x V.V.",
"V.V.r e r e e e e v m e e e r e e e r e e e e e e e e r e r V.V.",
"V.V.7 e e e e e e e a e e e e e e e e e e e e e e e e e e 7 V.V.",
"V.V.X q p p p p a b m m m m S S S S m m m m a a p p p p q X V.V.",
"V.V.V.V.                                                V.V.V.V.",
"V.V.V.V.V.V.V.V.V.V.V.V.V.V.V.V.V.V.V.V.V.V.V.V.V.V.V.V.V.V.V.V."
};
