/* XPM */
static char *ccc_large[] = {
/* columns rows colors chars-per-pixel */
"32 32 240 2",
"   c #000000",
".  c #383838",
"X  c #393939",
"o  c #3A3A3A",
"O  c #3B3B3B",
"+  c #3C3C3C",
"@  c #3D3D3D",
"#  c #3E3E3E",
"$  c #3F3F3F",
"%  c #471212",
"&  c #573030",
"*  c #573232",
"=  c #404040",
"-  c #414141",
";  c #424242",
":  c #434343",
">  c #444444",
",  c #454545",
"<  c #464646",
"1  c #474747",
"2  c #484848",
"3  c #494949",
"4  c #4A4A4A",
"5  c #4B4B4B",
"6  c #4C4C4C",
"7  c #4D4D4D",
"8  c #4E4E4E",
"9  c #4F4F4F",
"0  c #515151",
"q  c #535353",
"w  c #545454",
"e  c #555555",
"r  c #DC0909",
"t  c #DC0A0A",
"y  c #DD0C0C",
"u  c #DD0F0F",
"i  c #DE1212",
"p  c #DE1414",
"a  c #DE1515",
"s  c #ED0A0A",
"d  c #EE0B0B",
"f  c #ED0C0C",
"g  c #EE0D0D",
"h  c #ED0F0F",
"j  c #EF0F0F",
"k  c #EF1010",
"l  c #EE1111",
"z  c #EE1212",
"x  c #EF1313",
"c  c #EF1414",
"v  c #EE1515",
"b  c #EF1515",
"n  c #EF1616",
"m  c #EE1717",
"M  c #EF1818",
"N  c #EF1919",
"B  c #F01111",
"V  c #F01212",
"C  c #F11212",
"Z  c #F21313",
"A  c #F01414",
"S  c #F11515",
"D  c #F31414",
"F  c #F01616",
"G  c #F11717",
"H  c #F31616",
"J  c #F41717",
"K  c #F01919",
"L  c #F21818",
"P  c #F31919",
"I  c #F01A1A",
"U  c #F11A1A",
"Y  c #F01B1B",
"T  c #F31A1A",
"R  c #F51919",
"E  c #F41A1A",
"W  c #F61A1A",
"Q  c #F71B1B",
"!  c #F11C1C",
"~  c #F11D1D",
"^  c #F01E1E",
"/  c #F21E1E",
"(  c #F21F1F",
")  c #F51C1C",
"_  c #F61D1D",
"`  c #F41E1E",
"'  c #F51F1F",
"]  c #F71E1E",
"[  c #F81D1D",
"{  c #F91D1D",
"}  c #F91E1E",
"|  c #FA1E1E",
" . c #FB1F1F",
".. c #FC1F1F",
"X. c #EB2323",
"o. c #EC2626",
"O. c #ED2727",
"+. c #F02020",
"@. c #F32020",
"#. c #F52020",
"$. c #F42121",
"%. c #F62020",
"&. c #F42222",
"*. c #F62222",
"=. c #F62323",
"-. c #F72323",
";. c #F42424",
":. c #F62424",
">. c #F52626",
",. c #F62626",
"<. c #F72626",
"1. c #F62727",
"2. c #F72727",
"3. c #F82020",
"4. c #F92121",
"5. c #FA2121",
"6. c #FB2121",
"7. c #FD2020",
"8. c #FC2121",
"9. c #FD2121",
"0. c #FE2020",
"q. c #FE2121",
"w. c #FD2222",
"e. c #FC2323",
"r. c #FD2323",
"t. c #FE2222",
"y. c #FE2323",
"u. c #F82525",
"i. c #FA2525",
"p. c #FB2525",
"a. c #F82626",
"s. c #F92626",
"d. c #FD2525",
"f. c #FE2424",
"g. c #FC2626",
"h. c #FD2626",
"j. c #FD2727",
"k. c #F72828",
"l. c #F82828",
"z. c #F92929",
"x. c #FA2929",
"c. c #FB2929",
"v. c #F82A2A",
"b. c #F92B2B",
"n. c #FB2B2B",
"m. c #FD2828",
"M. c #FC2929",
"N. c #FC2A2A",
"B. c #FC2B2B",
"V. c #F92C2C",
"C. c #F92D2D",
"Z. c #FA2C2C",
"A. c #FA2D2D",
"S. c #FB2D2D",
"D. c #FA2E2E",
"F. c #FB2E2E",
"G. c #FA2F2F",
"H. c #FB2F2F",
"J. c #FC2C2C",
"K. c #FA3030",
"L. c #FA3131",
"P. c #FA3232",
"I. c #F93737",
"U. c #FB3636",
"Y. c #F53C3C",
"T. c #FC3838",
"R. c #FD3B3B",
"E. c #E84848",
"W. c #EE4A4A",
"Q. c #E84C4C",
"!. c #F54040",
"~. c #F54141",
"^. c #F64545",
"/. c #FA4141",
"(. c #F74848",
"). c #F84A4A",
"_. c #F84C4C",
"`. c #F94E4E",
"'. c #FA4E4E",
"]. c #FA4F4F",
"[. c #EB5050",
"{. c #EB5656",
"}. c #EB5757",
"|. c #EF5D5D",
" X c #F25A5A",
".X c #FF5A5A",
"XX c #FF5B5B",
"oX c #E86262",
"OX c #E86363",
"+X c #ED6767",
"@X c #ED6868",
"#X c #EE6969",
"$X c #EF6A6A",
"%X c #ED6D6D",
"&X c #ED6E6E",
"*X c #ED6F6F",
"=X c #F26767",
"-X c #F06A6A",
";X c #F06B6B",
":X c #F36E6E",
">X c #EE7070",
",X c #EE7171",
"<X c #EF7171",
"1X c #EF7272",
"2X c #EB7575",
"3X c #EB7676",
"4X c #F07171",
"5X c #F07272",
"6X c #F07373",
"7X c #F07474",
"8X c #F27474",
"9X c #F37A7A",
"0X c #F37C7C",
"qX c #E38080",
"wX c #E48282",
"eX c #E48383",
"rX c #E58383",
"tX c #E89999",
"yX c #F19F9F",
"uX c #F79E9E",
"iX c #F79F9F",
"pX c #EFA0A0",
"aX c #EDB0B0",
"sX c #EDB1B1",
"dX c #EFBABA",
"fX c #EFBBBB",
"gX c #EFBCBC",
"hX c #F2C5C5",
"jX c #F3CFCF",
"kX c #FADCDC",
"lX c #FBE1E1",
"zX c #FAE2E2",
"xX c #FAE8E8",
"cX c #FBE8E8",
"vX c #FBEAEA",
"bX c #FAEBEB",
"nX c #FBEBEB",
"mX c #FEFAFA",
"MX c #FFFFFF",
"NX c None",
/* pixels */
"NXNXNXNXNXNXNXNXNXNXNXNXNXNXNXNXNXNXNXNXNXNXNXNXNXNXNXNXNXNXNXNX",
"NXNXNXNXNXNXNXNXNXNXNXNXNXNXNXNXNXNXNXNXNXNXNXNXNXNXNXNXNXNXNXNX",
"NXNXNX|.XXXXXXXXXXXXXXXXXXXXXXXXXXXXXXXXXXXXXXXXXXXXXXXX|.NXNXNX",
"NXNXE.0.0.0.f.0.f.f.f.f.f.f.f.f.f.f.f.f.f.f.f.f.f.0.0.0.0.E.NXNX",
"NXNXR.0.0.0.f.p.m.m.m.m.m.m.m.f.m.m.m.m.m.m.f.f.f.f.0.0.0.T.NXNX",
"NXNXT.| e.e.f.c.m.m.m.A.H.m.H.H.m.H.m.H.m.H.H.m.c.p.p.| e.U.NXNX",
"NXNXU.| e.p.c.A.H.H.H.H.H.H.H.H.K.K.H.H.K.K.H.H.A.c.p.e.| U.NXNX",
"NXNXK._ e.p.c.A.A.K.A.H.K.K.K.K.K.K.K.K.H.A.H.A.A.c.p.e.| U.NXNX",
"NXNXK.| e.2.c.A.A.K.K.K.].kXlX/.uXmXMXMXMXMXmXuXU.0X9Xc.| K.NXNX",
"NXNXK.| #.p.k.A.A.A.A.`.vXMXMX7XvXMXMXMXMXMXMXvX:X!.Y.=X| A.NXNX",
"NXNXA._ #.p.k.c.A.A.`.bXMXMXMX7XoXsXjXMXMXjXsXOX>XlXlX*X_ C.NXNX",
"NXNXc.W | #.2.2.k._.vXMXMXMXMX6Xc.k.>XMXMX>Xk.k.>XMXMX$XW c.NXNX",
"NXNX2.W _ #.2.2.(.bXMXMXvXMXMX>Xk.k.>XMXMX>Xk.k.>XMXMX$XW k.NXNX",
"NXNX#.W _ #.2.(.bXMXMXgX2XMXMX>Xk.k.>XMXMX>Xk.2.*XMXMX$XW #.NXNX",
"NXNX#.J W #.^.vXMXMXhX X>XMXMX>X>.>.>XMXMX>X>.2.>XMXMX$XT #.NXNX",
"NXNX_ G T ~.vXMXMXfXpXMXyXMXMX*X;.>.*XMXMX*X>.#.*XMXMX+XG _ NXNX",
"NXNXW C #.cXMXMXdXO.Q.tX2XMXMX*X;.#.*XMXMX*X;.#.*XMXMX+XG W NXNX",
"NXNXT C W.MXMXfXO.^ ;.#.}.MXMX}.^ ^ }.MXMX}.^ ^ }.MXMXQ.C J NXNX",
"NXNXG C m 3XrXX.^ _ ^ ^ ;.qXeXX.^ ;.;.qXrX;.^ ^ ^ qXqXm C G NXNX",
"NXNXm k m N ^ N ^ ^ ^ T ^ ^ N ;.^ ^ ^ N ^ _ ^ ^ T T G m k C NXNX",
"NXNXj k k N N T T T N N T N N N T N T N N N N N N T m m j j NXNX",
"NXNXs j k m m m m N N N N N N N N N N N N N N N m m k k j s NXNX",
"NXNXs s h k m m m m N N m m m N m m m m N N N m m m k h j s NXNX",
"NXNXr r y y i a a a a a a a a a a a a a a a a a i i i r r r NXNX",
"NXNX8 8 8 q q q q e e e e e e e e e e e e e e q w q q 8 8 8 NXNX",
"NXNX> ; > < 2 3 3 3 3 3 8 3 3 3 8 3 3 3 3 3 3 3 3 2 < ; ; > NXNX",
"NXNX; = = ; ; > < < < < < < < < < < < < 3 < < < > ; ; ; # ; NXNX",
"NXNX# O + # # # # # ; # # ; # ; ; # # ; # ; # # # # # O O # NXNX",
"NXNX& O . O . O O O O O O O O O O O O O O O O O O . O . O & NXNX",
"NXNX% & # # = ; < < < < 3 8 3 q 8 8 3 3 3 < < ; ; ; # # & % NXNX",
"NXNXNXNX                                                NXNXNXNX",
"NXNXNXNXNXNXNXNXNXNXNXNXNXNXNXNXNXNXNXNXNXNXNXNXNXNXNXNXNXNXNXNX"
};
