/* XPM */
static char *control_center2[] = {
/* columns rows colors chars-per-pixel */
"32 32 152 2 ",
"   c black",
".  c #18222E",
"X  c #1E2A38",
"o  c #2D4763",
"O  c #3D526D",
"+  c #355475",
"@  c #3C5774",
"#  c #375678",
"$  c #3C5A7B",
"%  c #535B60",
"&  c #515D6A",
"*  c #405876",
"=  c #425E7B",
"-  c #44607F",
";  c #49637E",
":  c #54667B",
">  c #57697D",
",  c #966F2E",
"<  c #866634",
"1  c #947331",
"2  c #967834",
"3  c #A77929",
"4  c #AD7F31",
"5  c #C37E1A",
"6  c #85754B",
"7  c #8F7C54",
"8  c #A5823F",
"9  c #CE8A1E",
"0  c #D68512",
"q  c #E58D0D",
"w  c #FB9D0D",
"e  c #F79A15",
"r  c #F29D1C",
"t  c #FCA816",
"y  c #F1A51E",
"u  c #FEAC1C",
"i  c #FFB41F",
"p  c #D78F23",
"a  c #D49428",
"s  c #DDA131",
"d  c #F0A123",
"f  c #F3AB28",
"g  c #FEB522",
"h  c #FFB922",
"j  c #F2B12B",
"k  c #FFBD2A",
"l  c #F2B936",
"z  c #F3B33A",
"x  c #F4BE3E",
"c  c #FFBC3A",
"v  c #FFC124",
"b  c #FFC22A",
"n  c #FFCB2F",
"m  c #9E8144",
"M  c #9B8755",
"N  c #A08344",
"B  c #A68949",
"V  c #B8974D",
"C  c #DEAF50",
"Z  c #F5BE45",
"A  c #F9BD45",
"S  c #F6BF4F",
"D  c #E2B152",
"F  c #F3C140",
"G  c #FFC540",
"H  c #FCC94D",
"J  c #405F80",
"K  c #446284",
"L  c #486484",
"P  c #4D6987",
"I  c #476588",
"U  c #486789",
"Y  c #4C6A8C",
"T  c #526B85",
"R  c #516D8C",
"E  c #4E6D91",
"W  c #516F91",
"Q  c #547294",
"!  c #597595",
"~  c #557599",
"^  c #597699",
"/  c #5C7A9C",
"(  c #667283",
")  c #62778F",
"_  c #65798F",
"`  c #6C7D8D",
"'  c #647990",
"]  c #607C9E",
"[  c #5E7EA1",
"{  c #617FA2",
"}  c #6B849C",
"|  c #75889B",
" . c #6382A5",
".. c #6985A6",
"X. c #6684A9",
"o. c #6986AA",
"O. c #6C8AAD",
"+. c #718DAE",
"@. c #7790AA",
"#. c #6D8DB1",
"$. c #718FB2",
"%. c #6F90B4",
"&. c #7392B4",
"*. c #7996B7",
"=. c #7595B9",
"-. c #7997BA",
";. c #7798BE",
":. c #7C9ABD",
">. c #7E9EC2",
",. c #7FA1C5",
"<. c #8D8D8D",
"1. c #85909C",
"2. c #92969A",
"3. c gray60",
"4. c #99A2AD",
"5. c #8BA2BE",
"6. c #97A5B5",
"7. c #9BA8B6",
"8. c #9AA7B9",
"9. c #A2A2A2",
"0. c #AFAFAF",
"q. c #AAB3BF",
"w. c #B4B5B5",
"e. c #B2B6BA",
"r. c #BCBCBC",
"t. c #819FC2",
"y. c #82A1C6",
"u. c #8EA7C6",
"i. c #84A4CA",
"p. c #89A6CB",
"a. c #8AA8CD",
"s. c #9CB4CF",
"d. c #8AAAD1",
"f. c #92B0D5",
"g. c #9DB5D0",
"h. c #9FB8D6",
"j. c #B7BEC5",
"k. c #BFBFC0",
"l. c #A1B9D5",
"z. c #A2BCDC",
"x. c #C1C1C1",
"c. c #C5C9CD",
"v. c #CACCCF",
"b. c #CBCED1",
"n. c #D5D5D5",
"m. c #D7D9DD",
"M. c gainsboro",
"N. c #DCDFE3",
"B. c #E3E3E3",
"V. c #ECECEC",
"C. c gray94",
"Z. c None",
/* pixels */
"Z.Z.Z.Z.Z.Z.Z.Z.Z.Z.Z.Z.Z.Z.Z.Z.Z.Z.Z.Z.Z.Z.Z.Z.Z.Z.Z.Z.Z.Z.Z.Z.",
"Z.Z.Z.Z.Z.Z.Z.Z.Z.Z.Z.Z.Z.Z.Z.Z.Z.Z.Z.Z.Z.Z.Z.Z.Z.Z.Z.Z.Z.Z.Z.Z.",
"Z.Z.Z.s.h.h.z.z.z.z.z.l.z.l.l.l.l.l.l.l.z.z.z.z.z.z.z.z.g.Z.Z.Z.",
"Z.Z.u.i.i.>.>.i.i.i.a.i.,.>.,.>.>.y.>.i.i.d.d.d.d.i.i.i.,.u.Z.Z.",
"Z.Z.f.,.,.>.>.>.i.i.a.i.t.>.:.:.>.>.:.y.a.d.d.d.i.i.,.>.>.p.Z.Z.",
"Z.Z.f.i.>.i.>.>.y.y.p.p.t.t.t.t.>.>.y.i.a.a.a.i.i.,.>.;.=.y.Z.Z.",
"Z.Z.i.i.i.t.i.>.t.y.y.:.:.:.t.t.:.:.5.i.a.a.a.i.y.;.-.-.=.y.Z.Z.",
"Z.Z.i.>.>.i.i.t.:.+.4.M.N.7.+.-.:.t.>.y.a.a.i.y.:.;.=.=.&.:.Z.Z.",
"Z.Z.i.>.;.,.i.i.y.*.) e.C.C.M.@.*.*.y.i.p.y.,.:.-.-.&.&.%.-.Z.Z.",
"Z.Z.>.=.;.:.:.:.y.t.@.) c.V.V.j.@.*.y.y.y.>.-.=.=.=.%.%.%.=.Z.Z.",
"Z.Z.>.%.=.-.#.q.*.t.-.6.B.B.V.M.} -.y.i.:.*.&.&.&.&.O.O.#.-.Z.Z.",
"Z.Z.=.%.&.=...b.c.&.8.B.B.B.B.n.| -.,.:.&.@.@.#.+.+.&.&.%.:.Z.Z.",
"Z.Z.=.#.%.=.} v.B.b.B.M.N.M.M.x._ -.;.&.O.O.+.@.&.=.=.%.=.=.Z.Z.",
"Z.Z.o. .X.#...1.M.M.M.M.M.M.n.9.} @.O.O.O.O.&.=.=.=.%.#.#.%.Z.Z.",
"Z.Z.X.[  . . .T w.M.M.n.n.n.0.<.k.V M ..&.&.&.$.$.#.#.#.o.#.Z.Z.",
"Z.Z. .[ [  . ./ > 2.w.r.w.9.3.r.C Z H B O.+.O.&.O.O.#.o.X.O.Z.Z.",
"Z.Z.O.{ X.X.O.O.o.) > > > & 4.D Z w w Z B o.O.O.O.O.o.{ X.O.Z.Z.",
"Z.Z.X.X.O.o.O.O.#.o.} / ! ! N H g i u t Z N ] { ..{ o.o.{ { Z.Z.",
"Z.Z.X.{ { { { ] ^ ^ / ] ....6 F n v g h g x m ~ ] ! ^ ^ / [ Z.Z.",
"Z.Z./ ~ Q ^ ! ! ! ! ] ..O. .T 2 l n b b b b j 4 Q ! W W E Q Z.Z.",
"Z.Z.E E W W W Q ^ ] o.o.{ / Q T 1 j b b k n H f 7 ^ Q E E E Z.Z.",
"Z.Z.U U Y Y W ^ { o.X.] / Q W ^ ; , y h A s 3 z 9 Q / Q Y I Z.Z.",
"Z.Z.I I U Y ^ [ o.{ ^ / Q P R ^ Y - , y c 4 ; a q T ~ ~ ~ E Z.Z.",
"Z.Z.J K E Q / { { ^ ^ ! Y P W W P U = , r d p e 5 L Q Q Q W Z.Z.",
"Z.Z.K E E ~ [ [ ~ ~ ~ P L U E W L L I * < 0 q 5 % J K E E E Z.Z.",
"Z.Z.U E [ [ ~ E W W P K K J Y P K J K K $ * O P W Y J $ J E Z.Z.",
"Z.Z.E ~ ~ ~ I E Y E K = $ $ Y L = J = $ = J Y Y ^ Y K $ # J Z.Z.",
"Z.Z.~ ~ E I I I I K @ # $ $ U K # # # @ $ # K U U ~ U J + # Z.Z.",
"Z.Z.I E I K K K K + + + + + I $ + + + + + + # K K U E K $ o Z.Z.",
"Z.Z.X $ I I I I L = = - - P Q P L ; L - = J = L Y Y E Q # . Z.Z.",
"Z.Z.Z.Z.                                                Z.Z.Z.Z.",
"Z.Z.Z.Z.Z.Z.Z.Z.Z.Z.Z.Z.Z.Z.Z.Z.Z.Z.Z.Z.Z.Z.Z.Z.Z.Z.Z.Z.Z.Z.Z.Z."
};
