/* XPM */
static char *DC__[] = {
/* columns rows colors chars-per-pixel */
"32 32 136 2",
"   c #000000",
".  c #1C1C1B",
"X  c #33361E",
"o  c #232323",
"O  c #2B2C20",
"+  c #2F2F2F",
"@  c #363636",
"#  c #3B3B3A",
"$  c #3F4316",
"%  c #575F1E",
"&  c #6D7425",
"*  c #6F7828",
"=  c #727A2E",
"-  c #6E7532",
";  c #6C723A",
":  c #737935",
">  c #707539",
",  c #767D3A",
"<  c #434343",
"1  c #4A4A4A",
"2  c #535353",
"3  c #5D5D5D",
"4  c #777E42",
"5  c #7B7F4A",
"6  c #626262",
"7  c #6A6A6A",
"8  c #737373",
"9  c #7A7A7A",
"0  c #7C8618",
"q  c #7C8622",
"w  c #7C8135",
"e  c #7D8538",
"r  c #859310",
"t  c #85901F",
"y  c #929E1A",
"u  c #96A40D",
"i  c #9DAA15",
"p  c #A1AE17",
"a  c #A4B11A",
"s  c #A9B41F",
"d  c #868F29",
"f  c #8D952C",
"g  c #828935",
"h  c #8D933C",
"j  c #9EAB2D",
"k  c #9CA333",
"l  c #ADB720",
"z  c #ADB822",
"x  c #AFB92C",
"c  c #B2BB25",
"v  c #B5BE2A",
"b  c #A5AB3F",
"n  c #ABB637",
"m  c #B5BF3A",
"M  c #B7C029",
"N  c #BBC42D",
"B  c #BCC430",
"V  c #C2CA34",
"C  c #C8CE37",
"Z  c #C2C93A",
"A  c #C8CF39",
"S  c #CCD23B",
"D  c #D0D53E",
"F  c #80835A",
"G  c #83885A",
"H  c #A0A646",
"J  c #B8BC47",
"K  c #B2B650",
"L  c #848765",
"P  c #898D62",
"I  c #848769",
"U  c #8D9265",
"Y  c #929577",
"T  c #959878",
"R  c #9BA263",
"E  c #ABB268",
"W  c #B1B968",
"Q  c #BBC345",
"!  c #BFC84F",
"~  c #B6C05C",
"^  c #BAC359",
"/  c #BBC278",
"(  c #C6CC44",
")  c #C8CE40",
"_  c #D2D740",
"`  c #D5D942",
"'  c #D9DC45",
"]  c #DBDF48",
"[  c #C2CA55",
"{  c #C8CE50",
"}  c #C5CC5B",
"|  c #C8CD5F",
" . c #D8DB51",
".. c #D4D959",
"X. c #DADE5D",
"o. c #DFE24B",
"O. c #DEE15A",
"+. c #E3E54E",
"@. c #E2E453",
"#. c #C8CF61",
"$. c #C9D061",
"%. c #C6CE75",
"&. c #CCD37D",
"*. c #8C8C8C",
"=. c #979797",
"-. c #9A9A91",
";. c #989898",
":. c #9FA08F",
">. c #A9AD86",
",. c #A3A788",
"<. c #A1A39A",
"1. c #B1B498",
"2. c #A6A6A6",
"3. c #AEAFA7",
"4. c #AEAEAE",
"5. c #B1B1B1",
"6. c #BBBBBB",
"7. c #CAD18B",
"8. c #D5DB9C",
"9. c #D5DBA0",
"0. c #C8CAB8",
"q. c #DEE2B4",
"w. c #E0E4B9",
"e. c #C3C3C3",
"r. c #CDCDCD",
"t. c #D3D3D3",
"y. c #DCDDD5",
"u. c #DBDBDB",
"i. c #E3E7C1",
"p. c #E7EAC9",
"a. c #EDEFD7",
"s. c #E3E3E3",
"d. c #ECECEC",
"f. c #F4F4F4",
"g. c #FAFAFA",
"h. c None",
/* pixels */
"h.h.h.h.h.h.h.h.h.h.h.h.h.h.h.h.h.h.h.h.h.h.h.h.h.h.h.h.h.h.h.h.",
"h.h.h.h.h.h.h.h.h.h.h.h.h.h.h.h.h.h.h.h.h.h.h.h.h.h.h.h.h.h.h.h.",
"h.h.r.g.g.g.g.g.g.g.g.g.g.g.g.g.g.g.g.g.g.g.g.g.g.g.g.g.f.t.h.h.",
"h.h.d.g.g.g.g.g.g.g.g.g.g.g.g.g.g.g.g.g.g.g.g.g.g.g.g.g.g.f.h.h.",
"h.h.g.g.g.g.g.f.g.g.g.f.g.g.g.g.g.g.g.g.f.g.g.f.f.g.f.f.g.g.h.h.",
"h.h.g.f.g.f.g.f.d.y.>.>.y.d.f.f.f.g.f.g.g.f.g.f.f.f.g.f.f.g.h.h.",
"h.h.g.f.f.f.f.0.R 7.p.p.7.R 0.f.f.f.f.f.f.f.f.f.f.g.f.f.f.g.h.h.",
"h.h.f.d.f.f.1.W i.i.i.i.i.i.W 1.f.f.f.f.f.d.f.f.f.f.f.f.f.f.h.h.",
"h.h.f.d.f.u.q 7.8.8.8.8.8.8.7.0 u.d.6.6 6 6 6 6.d.f.d.f.d.f.h.h.",
"h.h.f.f.d.U u ^ &.&.&.&.&.&.^ u P 7 *.6.r.e.6.*.7 s.f.d.f.f.h.h.",
"h.h.d.d.d.: i s Q } $.$.[ Q a u X 9 2.2.2.2.2.2.9 3 d.d.d.f.h.h.",
"h.h.d.d.s.= a c N N Z V V M c & . 9 *.*.*.*.*.*.9 o 4.d.d.d.h.h.",
"h.h.d.d.u.4 z M V C S S S B v % . 1 8 8 8 9 8 8 1 . 2 d.d.d.h.h.",
"h.h.d.s.s.T v N C D ' ' D C M X o @ < 2 6 6 2 < + o # u.s.d.h.h.",
"h.h.d.d.d.r.: ) S ` +.@.' S Q O + # < 1 2 1 1 < @ + # u.s.d.h.h.",
"h.h.s.s.s.s.3.g ..O.O.] J f & # @ < 1 2 3 3 2 1 < @ 2 s.s.s.h.h.",
"h.h.s.s.s.s.u.6.5 h h W 9.a.w./ ; < 2 6 6 7 3 2 1 < ;.s.s.s.h.h.",
"h.h.s.s.s.s.s.s.r.> 8.w.i.i.w.i.q.e 2 6 8 8 6 3 2 2 r.s.s.s.h.h.",
"h.h.s.u.u.s.s.u.,.j 8.8.8.8.8.8.9.K % 8 9 9 8 3 2 e.s.s.u.s.h.h.",
"h.h.u.s.u.u.s.t.& i %.&.&.7.&.&.&.n r 1 1 1 2 *.e.u.u.u.s.u.h.h.",
"h.h.u.u.u.u.u.r.t p v ! } #.#.[ B j i Y 0.e.r.t.u.u.u.u.u.u.h.h.",
"h.h.u.u.u.u.u.6.y s c v V V V N M s a G t.u.u.u.u.u.u.u.u.u.h.h.",
"h.h.u.t.t.u.u.e.d c N V C D A C N M s :.u.u.t.u.u.u.t.u.t.u.h.h.",
"h.h.u.t.u.t.u.r.- v V S ' ' ' D V N f 6.t.u.u.t.t.u.u.t.u.t.h.h.",
"h.h.t.t.t.t.u.t.<.k A D ] +.+.D A ( 5 r.t.t.u.t.t.u.t.u.t.t.h.h.",
"h.h.r.t.t.t.t.t.r.L H ..@.@.@.X.[ ; 6.t.t.t.t.t.t.t.t.t.t.r.h.h.",
"h.h.t.t.t.t.r.t.r.e.-.: H #.K , I 6.t.t.t.t.t.t.r.t.t.r.t.t.h.h.",
"h.h.r.r.r.r.r.r.r.r.r.6.2.;.2.5.e.r.r.r.t.r.r.r.r.r.r.r.r.r.h.h.",
"h.h.4.r.r.r.r.r.r.r.r.r.r.r.r.r.r.r.r.r.r.r.r.r.r.r.r.r.r.4.h.h.",
"h.h.< 4.r.r.r.r.r.t.t.t.t.t.t.t.t.t.t.t.t.t.t.r.r.t.r.r.4.< h.h.",
"h.h.h.h.                                                h.h.h.h.",
"h.h.h.h.h.h.h.h.h.h.h.h.h.h.h.h.h.h.h.h.h.h.h.h.h.h.h.h.h.h.h.h."
};
