/* XPM */
static char *gcolor_[] = {
/* columns rows colors chars-per-pixel */
"32 32 213 2",
"   c #000000",
".  c #151517",
"X  c #373438",
"o  c #4C3E3F",
"O  c #543F3C",
"+  c #7C3127",
"@  c #6E3D3B",
"#  c #753735",
"$  c #713A38",
"%  c #375721",
"&  c #3B512C",
"*  c #3E5D29",
"=  c #3F6A22",
"-  c #57492E",
";  c #42463F",
":  c #444C3E",
">  c #4F4C3B",
",  c #57433B",
"<  c #5D453F",
"1  c #5B4A3E",
"2  c #445737",
"3  c #45533D",
"4  c #49523B",
"5  c #4C593E",
"6  c #54523E",
"7  c #68473F",
"8  c #437027",
"9  c #3F3D41",
"0  c #423E42",
"q  c #483F40",
"w  c #444244",
"e  c #4C4245",
"r  c #464B43",
"t  c #494D46",
"y  c #4E464B",
"u  c #4B4D4A",
"i  c #534444",
"p  c #5A4643",
"a  c #5B4C43",
"s  c #544749",
"d  c #54494C",
"f  c #5B4A4A",
"g  c #4B5444",
"h  c #4E5B43",
"j  c #4D534A",
"k  c #555243",
"l  c #5A5741",
"z  c #515E44",
"x  c #5D5943",
"c  c #51574C",
"v  c #525C4C",
"b  c #4E4950",
"n  c #524D53",
"m  c #594E51",
"M  c #545255",
"N  c #5C5155",
"B  c #545951",
"V  c #595D55",
"C  c #565159",
"Z  c #5A545C",
"A  c #5C585F",
"S  c #634A44",
"D  c #6A4C45",
"F  c #644D4B",
"G  c #6A4F4A",
"H  c #655043",
"J  c #6B514E",
"K  c #644D52",
"L  c #645254",
"P  c #675159",
"I  c #6B555C",
"U  c #6F595F",
"Y  c #4F6043",
"T  c #526445",
"R  c #556847",
"E  c #55644B",
"W  c #566A4A",
"Q  c #596A4C",
"!  c #596451",
"~  c #5B6950",
"^  c #5E635A",
"/  c #61665F",
"(  c #5C5760",
")  c #5E5962",
"_  c #625D65",
"`  c #725A61",
"'  c #5A6E7E",
"]  c #646067",
"[  c #636960",
"{  c #666169",
"}  c #6A646D",
"|  c #6C6770",
" . c #636A75",
".. c #6D6973",
"X. c #726C76",
"o. c #756E79",
"O. c #76717A",
"+. c #79737D",
"@. c #B73616",
"#. c #BA3317",
"$. c #B23A17",
"%. c #B63D19",
"&. c #BB3C1B",
"*. c #843224",
"=. c #8B3223",
"-. c #993E20",
";. c #D02D1F",
":. c #C3381F",
">. c #CD3622",
",. c #CB3B24",
"<. c #CE3E29",
"1. c #D03422",
"2. c #AF421F",
"3. c #B5441D",
"4. c #A54221",
"5. c #B84425",
"6. c #B44C21",
"7. c #C74527",
"8. c #CB4026",
"9. c #CC442C",
"0. c #C54A2E",
"q. c #CB4534",
"w. c #CF4B3D",
"e. c #D6423B",
"r. c #D24D3A",
"t. c #8D7942",
"y. c #8F7948",
"u. c #947B4E",
"i. c #D54F47",
"p. c #DA494A",
"a. c #D6564D",
"s. c #D45B4D",
"d. c #D85650",
"f. c #D75D50",
"g. c #DC5959",
"h. c #D66C63",
"j. c #D96C63",
"k. c #D16E6F",
"l. c #DA6E6D",
"z. c #D8706E",
"x. c #CE7A7C",
"c. c #D97C77",
"v. c #DD7D78",
"b. c #548C2F",
"n. c #559132",
"m. c #53A42D",
"M. c #58A02F",
"N. c #4BAF36",
"B. c #5BA333",
"V. c #53AC35",
"C. c #5BA934",
"Z. c #57A638",
"A. c #59A338",
"S. c #54A938",
"D. c #5FAE38",
"F. c #54B633",
"G. c #59B336",
"H. c #52B934",
"J. c #5EB238",
"K. c #59BB3B",
"L. c #60A537",
"P. c #60A936",
"I. c #5DBE41",
"U. c #5DB24D",
"Y. c #60C046",
"T. c #62C24B",
"R. c #66C551",
"E. c #6ECA5D",
"W. c #75CC65",
"Q. c #988053",
"!. c #9C835A",
"~. c #A0865F",
"^. c #B19774",
"/. c #B89D7D",
"(. c #81CE71",
"). c #29729A",
"_. c #2C7AA6",
"`. c #5E7482",
"'. c #437E9F",
"]. c #507992",
"[. c #5B7C92",
"{. c #7D7681",
"}. c #837D87",
"|. c #3682AC",
" X c #3B82AC",
".X c #3A85B0",
"XX c #4A8AAE",
"oX c #5D89A3",
"OX c #728DA7",
"+X c #6195B3",
"@X c #4D96C0",
"#X c #68A0C2",
"$X c #63A6CB",
"%X c #6DABCE",
"&X c #78B1C7",
"*X c #6EADD1",
"=X c #7BB3D3",
"-X c #8A848F",
";X c #AE8D96",
":X c #BEA384",
">X c #869CB1",
",X c #AD9BA7",
"<X c #DA8080",
"1X c #DE8887",
"2X c #DE908E",
"3X c #C4949A",
"4X c #C6AD92",
"5X c #92CF8D",
"6X c #9CCCA5",
"7X c #9ECAB4",
"8X c #CEC8BC",
"9X c #95C3C5",
"0X c None",
/* pixels */
"0X0X0X0X0X0X0X0X0X0X0X0X0X0X0X0X0X0X0X0X0X0X0X0X0X0X0X0X0X0X0X0X",
"0X0X0X0X0X0X0X0X0X0X0X0X0X0X0X0X0X0X0X0X0X0X0X0X0X0X0X0X0X0X0X0X",
"0X0X0X}.-X-X-X-X-X-X-X-X-X-X-X-X-X-X-X-X-X-X-X-X-X-X-X-X}.0X0X0X",
"0X0X+.o.O.o.o.+.o.{.{.O.{.{.o.{.o.{.O.{.{.O.{.O.+.O.o.O.o.+.0X0X",
"0X0X{.o.o.o.O.O.+.O.{.O.o.o.{.{.{.O.+.+.O.+.+.O.+.O.o.o.o.{.0X0X",
"0X0X{.X.o.o.O.+.O.+.+.{.{.{.{.}.{.{.+.{.+.{.+.+.+.o.o.X.o.{.0X0X",
"0X0X+.X.X.o.O.{.+.{.{.{.{.{.{.[.{.{.{.+.{.{.+.+.O.o.o.X.X.O.0X0X",
"0X0Xo...X.o.o.o.+.+.O.O.{.O.u.+.O.+.+.+.O.+.+.+.+.+.o.X...O.0X0X",
"0X0XX...X.X.o.O.+.O.+.+.O.O.O.+.+.+.+.+.+.+.O.O.O.o.X.X...X.0X0X",
"0X0XX.} ..X.X.o.O.O.O.O.O.O...' '  .X.O.O.O.O.O.o.o.X.| } X.0X0X",
"0X0X..} | ..X.X.o.o...' ]. X X X%X*X#X+XoXoX`.X.X.X.....| | 0X0X",
"0X0X| { } ....X.} ;X>XXX).).)._.$X%X%X*X7X6XU.[ X.| | | { } 0X0X",
"0X0X} { { } | X.` i.k.x.3X,XOX XXX=X7X5XW.E.N./ X.| } } { } 0X0X",
"0X0X{ _ { } } | U g.2X2X1Xz.z.<X8X(.T.T.R.R.N.^ | } } { _ { 0X0X",
"0X0X_ _ _ { } } U a.v.c.v.v.v.e.4XK.I.Y.Y.T.V.^ } } { _ _ _ 0X0X",
"0X0X_ ) _ { { { I i.h.j.j.j.a.;.:XH.H.K.K.I.V.^ } { _ _ ) _ 0X0X",
"0X0X( ( ) _ ] ] P r.f.f.f.a.,.1./.H.F.F.H.K.S.V _ _ _ ) ( ) 0X0X",
"0X0XZ ( ( ) _ ] P 0.r.r.r.<.,.;.^.H.G.G.G.G.Z.B ) _ ) A Z Z 0X0X",
"0X0XZ Z Z ( ) ) L 9.9.8.8.:.#.#.~.m.V.G.J.J.A.j C Z C C C Z 0X0X",
"0X0XC M Z Z ( I K 0.7.:.@.@.@.#.!.m.m.M.C.P.B.: j b M C C C 0X0X",
"0X0Xn C C Z Z A K 5.%.$.$.$.%.3.Q.M.M.B.P.n.8 : c ^ V Z M n 0X0X",
"0X0Xb n C N N L L # *.5.3.2.3.3.u.B.L.L.8 & 5 Q Q ! B B M u 0X0X",
"0X0Xb n n m L L J J G $ *.2.6.3.y.M.b.% 2 W Q Q W E E c c b 0X0X",
"0X0Xy d d f F K G G G G J 7 + -.t.8 & T W W W W E v v c j j 0X0X",
"0X0Xy y d d f F K D G G G D G 7 - Y W W R E E E v v j j t u 0X0X",
"0X0Xy e e s f f p F S S D D D H x T T Y Y T z h h c j u r u 0X0X",
"0X0Xe y q s i i S p S S S S D S 6 T Y Y h h g g g t t r w w 0X0X",
"0X0X0 0 0 e q q p q q S q @ < < 6 5 2 h h g g t r r w w w w 0X0X",
"0X0XX 9 0 0 0 q ; O q q O , , , > 4 4 3 : : : ; ; 9 w 9 9 X 0X0X",
"0X0X. 9 0 0 q q e e q p p p p a k z 5 g g g r r w w w 0 X . 0X0X",
"0X0X0X0X                                                0X0X0X0X",
"0X0X0X0X0X0X0X0X0X0X0X0X0X0X0X0X0X0X0X0X0X0X0X0X0X0X0X0X0X0X0X0X"
};
