/* XPM */
static char *gnome_activity_journal[] = {
/* columns rows colors chars-per-pixel */
"32 32 144 2",
"   c #000000",
".  c #102F3B",
"X  c #216276",
"o  c #22667A",
"O  c #226A81",
"+  c #286F84",
"@  c #26728B",
"#  c #28748E",
"$  c #277A95",
"%  c #297B95",
"&  c #347992",
"*  c #3F7B91",
"=  c #327E98",
"-  c #497785",
";  c #417789",
":  c #4A7B8B",
">  c #427D92",
",  c #4C7F91",
"<  c #2D829F",
"1  c #34869F",
"2  c #3C869E",
"3  c #2A86A6",
"4  c #2B89A7",
"5  c #2D8CAB",
"6  c #3386A1",
"7  c #3188A5",
"8  c #3C8AA4",
"9  c #338DAB",
"0  c #398EAA",
"q  c #3390AF",
"w  c #3C91AD",
"e  c #3493B2",
"r  c #3B95B4",
"t  c #3798B7",
"y  c #3B98B7",
"u  c #3799B9",
"i  c #3C9CBC",
"p  c #5C828F",
"a  c #458295",
"s  c #40839A",
"d  c #49879C",
"f  c #588492",
"g  c #5F8896",
"h  c #518698",
"j  c #57899C",
"k  c #588998",
"l  c #608A97",
"z  c #628E9C",
"x  c #68919F",
"c  c #438EA7",
"v  c #4F8DA1",
"b  c #548EA1",
"n  c #4292AD",
"m  c #4B91A8",
"M  c #5E95A9",
"N  c #4296B2",
"B  c #4498B3",
"V  c #4E99B2",
"C  c #439EBC",
"Z  c #499FBE",
"A  c #6694A3",
"S  c #6C96A4",
"D  c #679EAF",
"F  c #6E99A9",
"G  c #7799A3",
"H  c #7A9DA9",
"J  c #649EB1",
"K  c #45A0BF",
"L  c #4DA1BE",
"P  c #5FA0B7",
"I  c #54A1BB",
"U  c #5FA0B8",
"Y  c #75A0AF",
"T  c #72A1B1",
"R  c #3E9FC0",
"E  c #3EA1C3",
"W  c #44A3C3",
"Q  c #49A5C4",
"!  c #4CA8C7",
"~  c #42A6C9",
"^  c #4BA7C8",
"/  c #44AACC",
"(  c #4CABCC",
")  c #55A9C4",
"_  c #51AECC",
"`  c #56B1CF",
"'  c #45AED1",
"]  c #4BAFD1",
"[  c #48B0D2",
"{  c #5BB4D3",
"}  c #67ABC4",
"|  c #69ACC2",
" . c #6DB2CA",
".. c #61B9D7",
"X. c #879FA6",
"o. c #81A1AC",
"O. c #8CA6AF",
"+. c #80A7B5",
"@. c #86AEBA",
"#. c #8CAEBA",
"$. c #93ACB4",
"%. c #8BB0BD",
"&. c #A7B6BB",
"*. c #A3B8BF",
"=. c #85B5C5",
"-. c #9EB7C0",
";. c #95BAC6",
":. c #92BCCB",
">. c #A6BBC2",
",. c #AABDC5",
"<. c #A6BFC9",
"1. c #B1BEC3",
"2. c #81C1D6",
"3. c #96C2D2",
"4. c #AFC0C6",
"5. c #A6C1CA",
"6. c #B8C6CA",
"7. c #B7CED5",
"8. c #BBCED4",
"9. c #B9D0D6",
"0. c #BCD4DC",
"q. c #81C8E1",
"w. c #C6CFD2",
"e. c #C8D0D2",
"r. c #C3D6DD",
"t. c #CED7DA",
"y. c #C6D9DF",
"u. c #CEDADE",
"i. c #D5DBDD",
"p. c #D9DEDF",
"a. c #CADAE0",
"s. c #D2DEE1",
"d. c #DADFE0",
"f. c #D6E3E7",
"g. c #D9E1E3",
"h. c #DDE6E9",
"j. c #E3E5E6",
"k. c #E3E7E8",
"l. c #EDEEEE",
"z. c #EDEFF0",
"x. c #EFF2F3",
"c. c #F3F3F3",
"v. c #F9F9F9",
"b. c None",
/* pixels */
"b.b.b.b.b.b.b.b.b.b.b.b.b.b.b.b.b.b.b.b.b.b.b.b.b.b.b.b.b.b.b.b.",
"b.b.b.b.b.b.b.b.b.b.b.b.b.b.b.b.b.b.b.b.b.b.b.b.b.b.b.b.b.b.b.b.",
"b.b.b.2.q.q.q.q.q.q.q.q.q.q.q.q.q.q.q.q.q.q.q.q.q.q.q.q.2.b.b.b.",
"b.b. .' ' ' ' ' ' [ [ ] [ [ [ [ [ [ [ [ [ [ [ ] ' [ ' ' '  .b.b.",
"b.b.{ ' ' ' ' ' [ [ [ ] [ [ ( ^ ^ / ' ] ] ] ] ] ] ' ' ' ' { b.b.",
"b.b.{ / / ' ] ] [ ( ` ^ 3.0.f.c.c.h.a. .( ] ] ] ] ' / ' ' { b.b.",
"b.b.{ / / ] ( ] ] _ | s.v.v.v.v.v.v.v.v.a.) ] ] ] ( ( / / { b.b.",
"b.b.{ ~ / ( ( ( ( :.x.v.v.v.*.z > * g $.x.h.} _ ] ( / / / { b.b.",
"b.b.` / ~ ( ( ( | x.v.v.l.x c Q ( ^ Q n k g.g.L _ ( ( ~ ~ ` b.b.",
"b.b.` E Q / ( K g.v.c.v.S B ( ( ! =.J _ K j c.7.Z ^ / ~ ~ _ b.b.",
"b.b.] ~ ~ Q Q ;.c.v.v.,.n _ ! _ m ,.Y ! ( B #.v.c.u.N Q ~ _ b.b.",
"b.b.( E ~ Q C 8.v.c.v.F Q ! ! I r.u.M Q ) Q j v.v.v.5.i E ( b.b.",
"b.b.^ E E Q n l.c.c.v.d ^ ^ K %.c.c.<.K ^ Q 8 l.c.v.>.y E ^ b.b.",
"b.b.Q E E E D c.c.c.c.c Q Q K A c.v.o.C Q Q n d.c.x.h i i ^ b.b.",
"b.b.W i R r 9.c.c.c.c.D W Q K c l G @.C Q Q c c.x.f w i i W b.b.",
"b.b.W i i @.c.c.c.c.c.#.K K K K 8 d.i.n W Z T c.t.8 W i i W b.b.",
"b.b.R u r -.c.c.c.c.c.k.V C W K N , j.8 C N i.c.*.w i i i R b.b.",
"b.b.i u e X.z.z.c.l.c.l.8.r C W C 0 l v N <.x.c.H y y i u R b.b.",
"b.b.i e r & $.i.l.c.c.c.c.i.U B y y 2 d r.c.z.l.a y y i t i b.b.",
"b.b.t t i e 1 k l.l.l.l.c.z.l.p.9.7.u.l.z.z.z.O.8 i i t t u b.b.",
"b.b.t e t r y d z.l.l.l.l.l.l.l.z.z.l.l.c.l.d.& y y t t e e b.b.",
"b.b.e e e r y s l.c.l.c.l.l.l.l.c.z.l.l.l.l.g 8 y y e e e e b.b.",
"b.b.q e e e r 2 l.l.l.l.l.l.l.l.l.l.l.l.j., 2 r r r e e e q b.b.",
"b.b.5 5 e e q H l.l.l.l.l.l.l.l.l.l.l.p.: 2 r r r e e e 5 q b.b.",
"b.b.5 e 5 e 3 6.l.l.l.l.l.l.l.l.l.l.w.; 6 r e e q q q 5 5 e b.b.",
"b.b.5 5 5 5 = k.l.l.k.l.l.l.l.l.6.p + 6 9 q q 9 q q q 5 5 5 b.b.",
"b.b.5 5 5 5 $ f 1.e.p.j.w.&.X.- + < 9 9 9 9 9 9 9 5 5 5 5 5 b.b.",
"b.b.5 3 3 4 3 % @ O o X o @ % < 5 4 5 5 5 5 5 5 3 4 4 3 3 5 b.b.",
"b.b.# 3 3 3 3 3 3 3 3 3 3 5 3 3 3 3 5 3 3 3 3 3 3 3 3 3 3 @ b.b.",
"b.b.. # 3 7 9 9 0 0 w w w n n N n n n w w w w 9 9 9 9 5 @ . b.b.",
"b.b.b.b.                                                b.b.b.b.",
"b.b.b.b.b.b.b.b.b.b.b.b.b.b.b.b.b.b.b.b.b.b.b.b.b.b.b.b.b.b.b.b."
};
