/* XPM */
static char *googleearth[] = {
/* columns rows colors chars-per-pixel */
"32 32 233 2",
"   c #000000",
".  c #0E0B18",
"X  c #251E3C",
"o  c #26293D",
"O  c #2A2A3F",
"+  c #281F44",
"@  c #1E2E45",
"#  c #1D2F48",
"$  c #14324D",
"%  c #193651",
"&  c #1A3854",
"*  c #1B3D5B",
"=  c #2B2246",
"-  c #2C2E45",
";  c #2E2549",
":  c #332F47",
">  c #32294D",
",  c #2F3149",
"<  c #2A394D",
"1  c #3A344D",
"2  c #362D51",
"3  c #233A54",
"4  c #2E3E56",
"5  c #223F5B",
"6  c #3B3254",
"7  c #353B57",
"8  c #393A56",
"9  c #3F3559",
"0  c #3D3F5D",
"q  c #403955",
"w  c #41375B",
"e  c #443B5D",
"r  c #493F5F",
"t  c #463B61",
"y  c #493E63",
"u  c #23405C",
"i  c #2C455D",
"p  c #1B4366",
"a  c #1C4568",
"s  c #1F4C73",
"d  c #254562",
"f  c #2A4965",
"g  c #334D67",
"h  c #2D506E",
"j  c #30506C",
"k  c #38536C",
"l  c #244D74",
"z  c #2F5271",
"x  c #23537C",
"c  c #305373",
"v  c #3E5671",
"b  c #335B7D",
"n  c #3C5E7C",
"m  c #47415D",
"M  c #48415E",
"N  c #4C4265",
"B  c #4E4368",
"V  c #51466B",
"C  c #544C6E",
"Z  c #564C70",
"A  c #584D72",
"S  c #4E5273",
"D  c #435E76",
"F  c #4A5B76",
"G  c #415D7A",
"H  c #5C5175",
"J  c #61557B",
"K  c #64587D",
"L  c #47617C",
"P  c #48637F",
"I  c #53637B",
"U  c #245681",
"Y  c #265A87",
"T  c #2E5B84",
"R  c #275C89",
"E  c #285C89",
"W  c #29608F",
"Q  c #3E6384",
"!  c #2B6494",
"~  c #2D699C",
"^  c #306B9C",
"/  c #3A6F9C",
"(  c #39709F",
")  c #2F6EA3",
"_  c #3172A6",
"`  c #3F75A2",
"'  c #3474AB",
"]  c #3E7AAC",
"[  c #357AB3",
"{  c #387EB5",
"}  c #675980",
"|  c #6A5E84",
" . c #4C6480",
".. c #4D6883",
"X. c #406788",
"o. c #456B8D",
"O. c #536D84",
"+. c #56708C",
"@. c #58738D",
"#. c #49759A",
"$. c #537492",
"%. c #50759A",
"&. c #527A9C",
"*. c #636282",
"=. c #6C6086",
"-. c #6F6389",
";. c #65698A",
":. c #68688D",
">. c #71658B",
",. c #74688D",
"<. c #786C8F",
"1. c #776A91",
"2. c #7A6D94",
"3. c #637B95",
"4. c #617B99",
"5. c #7D7295",
"6. c #7E7298",
"7. c #4475A0",
"8. c #467CAC",
"9. c #527EA2",
"0. c #82759C",
"q. c #85799E",
"w. c #897A9F",
"e. c #877AA0",
"r. c #8B7DA4",
"t. c #3D81B8",
"y. c #6A819C",
"u. c #74839B",
"i. c #5F83A2",
"p. c #5384AD",
"a. c #4281B4",
"s. c #4085BD",
"d. c #4F8DBD",
"f. c #548AB7",
"g. c #5B8BB5",
"h. c #568EBC",
"j. c #5D8EBB",
"k. c #6B85A2",
"l. c #638BAD",
"z. c #738CA6",
"x. c #788EA4",
"c. c #7F91A8",
"v. c #6C92B2",
"b. c #6393BD",
"n. c #6993B8",
"m. c #7295B6",
"M. c #7E97B2",
"N. c #7C98B0",
"B. c #7B9EBC",
"V. c #4C8EC3",
"C. c #4F92C7",
"Z. c #5F95C2",
"A. c #5D98C6",
"S. c #5B9ACB",
"D. c #5B9ED0",
"F. c #6598C3",
"G. c #719FC5",
"H. c #7FA3C1",
"J. c #71A5CB",
"K. c #7CA7CA",
"L. c #63A3D3",
"P. c #69A9D7",
"I. c #7BB3DE",
"U. c #7FB7E0",
"Y. c #8E81A6",
"T. c #8F80A9",
"R. c #9182AA",
"E. c #988DAB",
"W. c #9A8DB0",
"Q. c #899FB8",
"!. c #A89EB9",
"~. c #8FA3B5",
"^. c #84A1BA",
"/. c #8BA3BB",
"(. c #9BADBE",
"). c #87A8C3",
"_. c #8DA8C0",
"`. c #86AACA",
"'. c #8DADCA",
"]. c #95ABC3",
"[. c #9CAFC1",
"{. c #96AFCC",
"}. c #9AAFC9",
"|. c #8DB0CE",
" X c #97B1C7",
".X c #9DB4C6",
"XX c #94B2CB",
"oX c #85AFD1",
"OX c #8DB3D3",
"+X c #86B7DA",
"@X c #8FB7D8",
"#X c #91B4D2",
"$X c #9CB6D0",
"%X c #9CBCD3",
"&X c #92BADA",
"*X c #AFA3C2",
"=X c #B0A4C2",
"-X c #A2B4C4",
";X c #A8B7C5",
":X c #A2B8CE",
">X c #A4B9D1",
",X c #AABED3",
"<X c #87BFE6",
"1X c #AEC2D6",
"2X c #A3C2DB",
"3X c #B1C3D5",
"4X c #BAC7D7",
"5X c #B4C5D9",
"6X c #BBCBDB",
"7X c #8BC1E7",
"8X c #98C3E0",
"9X c #94C5E8",
"0X c #9CCFF0",
"qX c #9CD0F1",
"wX c #C0CCD7",
"eX c #C0CEDE",
"rX c #C5D2DE",
"tX c #C8D2DF",
"yX c #C3D2E1",
"uX c #C9D5E2",
"iX c #CDDDEB",
"pX c #D4DDE7",
"aX c #D6DFE9",
"sX c #D4E0EB",
"dX c #DBE3E9",
"fX c #E6EAEF",
"gX c #E5ECF2",
"hX c #E9EFF3",
"jX c #ECF0F3",
"kX c #F4F6F7",
"lX c #F7F8F8",
"zX c #FAFAFA",
"xX c None",
/* pixels */
"xXxXxXxXxXxXxXxXxXxXxXxXxXxXxXxXxXxXxXxXxXxXxXxXxXxXxXxXxXxXxXxX",
"xXxXxXxXxXxXxXxXxXxXxXxXxXxXxXxXxXxXxXxXxXxXxXxXxXxXxXxXxXxXxXxX",
"xXxXxX!.=X=X*X*X=X=X=X=X=X=X=X=X=X=X=X=X*X=X*X*X*X*X*X*X!.xXxXxX",
"xXxXE.T.T.r.R.R.R.R.R.R.R.R.R.R.R.R.R.R.R.T.Y.Y.R.R.T.T.T.E.xXxX",
"xXxXW.r.r.r.r.r.Y.Y.T.R.R.T.T.T.R.R.Y.Y.Y.T.Y.Y.R.r.r.r.Y.W.xXxX",
"xXxXR.e.r.r.r.r.Y.Y.Y.Y.Y.r.6.:.:.0.Y.Y.Y.Y.Y.Y.r.r.r.e.e.R.xXxX",
"xXxXT.e.e.e.r.r.Y.q.e.;.k.-XyXdXdXrX1XY.*.Y.Y.Y.r.r.e.q.q.Y.xXxX",
"xXxXr.6.6.e.e.r.Y.5.4.$X%X X:X.X[.;X4XuX6Xu.<.Y.e.e.q.0.6.Y.xXxX",
"xXxXr.6.6.0.0.0.*.l.aXlXkXiX2XOX|.|.^.(.rX6Xx.K e.0.0.5.5.e.xXxX",
"xXxX0.1.2.6.0.>.m.hXlXzXzXzXgX&XoX`.)./.~.6X3X3.,.6.5.2.1.0.xXxX",
"xXxX6.,.1.2.2.4.jXlXzXzXzXzXzXjX@XK.|.XX).(.3X>XI <.5.1.,.6.xXxX",
"xXxX2.>.,.,.S aXrX3X1X6XjXzXzXzXgXOX|.H.^.N..X>XM.C ,.>.,.2.xXxX",
"xXxX,.| >.=.4.-XF.&X+X9X8XyXzXzXzXgX`.n.l.i.4.].XXF =.-.| ,.xXxX",
"xXxX>.} | K %.f.Z.A.I.7XqXqX%XfXzXlXjX%Xv.i.Q n @.i K =.| -.xXxX",
"xXxX| } } H 7._ { C.D.I.7X7XU.J.6XkXlXfXXX&.b z u & Z } } | xXxX",
"xXxX} J J i 7.8.' t.C.D.L.P.L.S.G. XfXfXdX_.Q f u $ e J J } xXxX",
"xXxXJ H H 7 W / 8.a.d.V.C.C.V.s.g.J.l.~.uX6X].L $ $ 8 H H J xXxX",
"xXxXH A H e R ! ~ g.F.F.t.t.[ [ _ p.#.#.$.z.].>X/.O.M H A H xXxX",
"xXxXC C Z B l R ! p.g.b.j.] _ ) ~ ! R T X.n f g .. .N C C Z xXxX",
"xXxXV V V B & k.3X,XB.p.g.g./ ! W Y U s Q z u % $ # B V V V xXxX",
"xXxXN N B B - ^.rXuXpXyX X9.E Y U x s a z d 5 % $ , B B N N xXxX",
"xXxXt t y N e 4 :X4X6XeXeXuX.XM.o.l p * d d D y.7 t y y t t xXxX",
"xXxXw t t t N 1 n >X,X3X1X1X1X1X1X1X:X].}.$X}.v 1 y y t t w xXxX",
"xXxX9 9 w e e e =  .]./.u h  .@.4.z.k.@.L k 3 - e e w w 9 9 xXxX",
"xXxX6 6 6 9 t t e 1 < y.& $ $ $ $ $ $ $ $ @ 1 m N e 9 6 6 6 xXxX",
"xXxX2 2 2 6 9 t y N m o @ $ $ $ $ $ # @ , q N N t 9 6 2 2 2 xXxX",
"xXxX2 > > > 2 9 9 e e e q 1 : o o , 1 8 m e e 9 6 2 2 > > 2 xXxX",
"xXxX; = ; ; ; ; > > 1 6 6 6 6 1 1 6 6 6 6 2 > > ; ; ; ; = ; xXxX",
"xXxXX + + + + = = = = = = = = = = = = = = = = = = = = = + + xXxX",
"xXxX. X = ; > 2 > 2 6 6 6 q 8 w 9 8 9 9 6 6 > > > ; ; = X . xXxX",
"xXxXxXxX                                                xXxXxXxX",
"xXxXxXxXxXxXxXxXxXxXxXxXxXxXxXxXxXxXxXxXxXxXxXxXxXxXxXxXxXxXxXxX"
};
