/* XPM */
static char *google[] = {
/* columns rows colors chars-per-pixel */
"32 32 211 2",
"   c #000000",
".  c #012E14",
"X  c #133823",
"o  c #057231",
"O  c #087333",
"+  c #057F35",
"@  c #107236",
"#  c #157B3E",
"$  c #7B5C2B",
"%  c #466D35",
"&  c #667639",
"*  c #7F714C",
"=  c #BF3030",
"-  c #D93C37",
";  c #D93E3A",
":  c #E12424",
">  c #E12C2B",
",  c #E23434",
"<  c #E33C3C",
"1  c #945736",
"2  c #BA402C",
"3  c #CA473B",
"4  c #C34A3A",
"5  c #B44C48",
"6  c #BC544C",
"7  c #B15F5A",
"8  c #AE6056",
"9  c #C84341",
"0  c #DC4242",
"q  c #E44242",
"w  c #E64E4E",
"e  c #C26957",
"r  c #C77766",
"t  c #E46868",
"y  c #E96A6A",
"u  c #028737",
"i  c #028937",
"p  c #038738",
"a  c #058B39",
"s  c #0B8B3D",
"d  c #1C843E",
"f  c #128D3C",
"g  c #039137",
"h  c #069439",
"j  c #0B933D",
"k  c #069C39",
"l  c #0B9C3D",
"z  c #0BA13C",
"x  c #4C803A",
"c  c #0E8C40",
"v  c #138E44",
"b  c #178E48",
"n  c #0E9340",
"m  c #0F9840",
"M  c #119642",
"N  c #139C43",
"B  c #299D42",
"V  c #24954A",
"C  c #378751",
"Z  c #2C9852",
"A  c #359958",
"S  c #3B995C",
"D  c #15A344",
"F  c #18A647",
"G  c #16A845",
"H  c #19A947",
"J  c #1CAA48",
"K  c #488F44",
"L  c #47835F",
"P  c #539B6D",
"I  c #629874",
"U  c #6C9C7F",
"Y  c #A1991C",
"T  c #A89A1B",
"R  c #ADA61A",
"E  c #B4A815",
"W  c #BEB316",
"Q  c #949633",
"!  c #D7A90C",
"~  c #D6B70F",
"^  c #D3AB10",
"/  c #D6A71D",
"(  c #C4B616",
")  c #CBB915",
"_  c #D2BF17",
"`  c #E2AD0D",
"'  c #E8B50E",
"]  c #E1BA0E",
"[  c #E8B90F",
"{  c #E5BD12",
"}  c #E8BD11",
"|  c #E9B51B",
" . c #E2B322",
".. c #EAB820",
"X. c #DCC515",
"o. c #E4C415",
"O. c #E9C314",
"+. c #E9C916",
"@. c #E9CD18",
"#. c #E5D219",
"$. c #E9D319",
"%. c #8F994F",
"&. c #8F9B58",
"*. c #939B51",
"=. c #9CA153",
"-. c #A4A24F",
";. c #9D8A7D",
":. c #99A56B",
">. c #9EAC7B",
",. c #A5AE77",
"<. c #0F559E",
"1. c #12599B",
"2. c #2D6E9C",
"3. c #336C91",
"4. c #37769D",
"5. c #3C749C",
"6. c #0655A7",
"7. c #0E58A4",
"8. c #0F5CAD",
"9. c #115CA8",
"0. c #075EB5",
"q. c #0B5FB4",
"w. c #035FBD",
"e. c #1C69A5",
"r. c #0C63BC",
"t. c #2F6BA0",
"y. c #2B77AF",
"u. c #3376A3",
"i. c #2274B8",
"p. c #317DB4",
"a. c #43758B",
"s. c #0562C4",
"d. c #0A65C5",
"f. c #0F68C7",
"g. c #0464CA",
"h. c #0967C9",
"j. c #0C69CB",
"k. c #136AC6",
"l. c #116CCA",
"z. c #1671CF",
"x. c #0568D1",
"c. c #0F6ED3",
"v. c #046DDA",
"b. c #096ED8",
"n. c #0F70D6",
"m. c #0D71DC",
"M. c #1572D4",
"N. c #1676DB",
"B. c #1778DE",
"V. c #0571E3",
"C. c #0C75E4",
"Z. c #1177E2",
"A. c #1578E1",
"S. c #4F819B",
"D. c #65909D",
"F. c #4E8CA5",
"G. c #488CAE",
"H. c #629FB0",
"J. c #74A4AA",
"K. c #77AAB0",
"L. c #B19485",
"P. c #81A991",
"I. c #8DB09A",
"U. c #A0B08E",
"Y. c #A4B592",
"T. c #ACB09D",
"R. c #ABBA9A",
"E. c #83ADAC",
"W. c #8BAEAC",
"Q. c #91ADAB",
"!. c #98B7A5",
"~. c #97B8A3",
"^. c #98B9A5",
"/. c #93B4AF",
"(. c #8CB4B2",
"). c #92B4B1",
"_. c #9EBCB7",
"`. c #9ABDB8",
"'. c #ACBCA2",
"]. c #A3B9AC",
"[. c #A0BBB7",
"{. c #A5BDB8",
"}. c #B3C1AD",
"|. c #ADC0B0",
" X c #A4C1BB",
".X c #BDCABA",
"XX c #ADD3B8",
"oX c #B3D7BD",
"OX c #B3C6C0",
"+X c #B5CAC3",
"@X c #BCD2CA",
"#X c #C4D0C3",
"$X c #C9D5CB",
"%X c #CBD8CE",
"&X c #C8D7D1",
"*X c #CBD8D2",
"=X c #D3DED7",
"-X c #D1DFD8",
";X c #D3E0D7",
":X c #DBE4DF",
">X c #DDE6E1",
",X c #E3E6E4",
"<X c #E2EAE5",
"1X c #E6ECE8",
"2X c #EAEEEC",
"3X c #EBF0EC",
"4X c #EFF1F0",
"5X c #F4F4F4",
"6X c #F5F8F6",
"7X c #FBFBFB",
"8X c None",
/* pixels */
"8X8X8X8X8X8X8X8X8X8X8X8X8X8X8X8X8X8X8X8X8X8X8X8X8X8X8X8X8X8X8X8X",
"8X8X8X8X8X8X8X8X8X8X8X8X8X8X8X8X8X8X8X8X8X8X8X8X8X8X8X8X8X8X8X8X",
"8X8X8XoX7X7X1XD.5.t.S._.7X7X7X7XL.t y y y y y y y y y y ;.1 8X8X",
"8X8XXX7X7X6Xe.v.V.V.v.w.).7X7X7X2X6 w q q q q q q q q q q e 8X8X",
"8X8X7X7X7X Xx.C.C.C.C.C.q.<X7X7X7XT.0 q q q q q q q < < q w 8X8X",
"8X8X7X7X7X).v.C.C.C.C.Z.c.(.7X7X7X3X9 q q q q q q < < < , w 8X8X",
"8X8X7X7X7XE.m.Z.Z.A.A.A.A.u.7X7X7X7X7 q q q q q < < < , , q 8X8X",
"8X8X7X7X7XE.n.Z.A.A.A.B.A.k.*X7X7X7X7 q q q q q q < , , , q 8X8X",
"8X8X7X7X7X@Xc.N.A.A.N.A.B.M./.7X6X6X5 < < < < < < , , > > < 8X8X",
"8X8X7X7X7X6Xi.N.N.N.B.B.N.M.Q.7X7X:X- < < ; 3 4 < , , : > , 8X8X",
"8X8X7X7X7X6XJ.M.N.N.N.N.N.z._.7X7X;.1 K J J G H J B & 4 : > 8X8X",
"8X8XW.7X7X7X5XG.M.M.N.M.M.k.:X7X{.% F H H H J J H G z z $ > 8X8X",
"8X8X9.&X7X6X6X2Xp.M.M.M.l._.7X=Xd N J J F F J F G G D z z x 8X8X",
"8X8Xj.1.{.7X6X7X2X).H.K.=X6X5XC l J F F F F F F G D z z z z 8X8X",
"8X8Xj.g.6.a.Q.&X:X1X6X7X7X6XI N F F D F D F D G G D D z k D 8X8X",
"8X8Xj.g.h.d.8.7.<.3.6X6X6X*Xf N N D F N D D D D N D z z k z 8X8X",
"8X8Xh.g.h.j.l.l.l.5.7X5X6X2XV N D F D D D D D D N D N z k k 8X8X",
"8X8Xg.s.g.f.f.l.k.2.5X7X6X6X=XZ N N N N N D N D N N N k k k 8X8X",
"8X8Xg.s.s.d.f.f.f.9.OX5X6X5X6X>XA D N D N N N D N N m m k l 8X8X",
"8X8Xw.w.d.r.r.y.F.J.+X5X5X7X6X6X<XL N N N N N N N N m k h k 8X8X",
"8X8Xw.q.F. X4X5X4X*X.X'.$X5X5X5X6X1XS N N N N N m m m l h g 8X8X",
"8X8XE.>X6X2XU.%.Y E ( ) R Y.5X5X5X6X$Xf M N M M N m j j h h 8X8X",
"8X8X5X5X#XQ ) X.#.#.#.$.#.( &.<X5X5X5XP M M M M m m j h h h 8X8X",
"8X8X5X2XT X.@.@.$.$.$.$.$.$._ *.4X5X4X~.s M M M m n j a h a 8X8X",
"8X8X5X'.~ O.+.+.@.@.@.@.@.@.@.) '.4X3XU.s n m n n n j a h a 8X8X",
"8X8X5X:.{ O.O.O.O.+.O.+.+.+.+.o.:.5X4XP.s n c n j s a a a a 8X8X",
"8X8X5XY.] [ { O.} O.O.O.O.O.O.O.=.5X4XD.s s s s s a a a a a 8X8X",
"8X8X5X#X! [ [ [ [ } } } | O.O.} ,.4X=X@ a s s a a a a a i a 8X8X",
"8X8X^.4X-.` ' ' ' ' ' } [ [ [ ^ .X5XL u a u p u p u u u u O 8X8X",
"8X8XX !.<X,./ | | | | | .... .R.3X].# b b b v v c c s s O . 8X8X",
"8X8X8X8X                                                8X8X8X8X",
"8X8X8X8X8X8X8X8X8X8X8X8X8X8X8X8X8X8X8X8X8X8X8X8X8X8X8X8X8X8X8X8X"
};
