/* XPM */
static char *gtk_recordmydesktop[] = {
/* columns rows colors chars-per-pixel */
"32 32 138 2",
"   c #000000",
".  c #3B450E",
"X  c #677716",
"o  c #6D7F1C",
"O  c #718217",
"+  c #73851E",
"@  c #778A1A",
"#  c #798C1B",
"$  c #7F921A",
"%  c #6E8123",
"&  c #748624",
"*  c #768A24",
"=  c #7A8D21",
"-  c #718529",
";  c #768A2A",
":  c #798E2C",
">  c #7E9322",
",  c #7C922E",
"<  c #6E8337",
"1  c #6C823B",
"2  c #748730",
"3  c #778B33",
"4  c #788E33",
"5  c #758C3C",
"6  c #798D3D",
"7  c #7C9434",
"8  c #7B913B",
"9  c #7F983C",
"0  c #7F9544",
"q  c #81951C",
"w  c #849A1C",
"e  c #889E1F",
"r  c #869C25",
"t  c #899F22",
"y  c #81942C",
"u  c #869B29",
"i  c #8A9F29",
"p  c #819634",
"a  c #859B33",
"s  c #8A9E36",
"d  c #839B3B",
"f  c #8C9E3E",
"g  c #8AA125",
"h  c #8DA42A",
"j  c #8EA82E",
"k  c #92A724",
"l  c #93A825",
"z  c #96AC2C",
"x  c #8DA434",
"c  c #8FA930",
"v  c #87A23D",
"b  c #8CA33B",
"n  c #8EA93F",
"m  c #91AC34",
"M  c #91A43B",
"N  c #93AD3A",
"B  c #99AF3E",
"V  c #95B13D",
"C  c #9CB43E",
"Z  c #A3BB3C",
"A  c #ABC626",
"S  c #ACC72B",
"D  c #AEC82D",
"F  c #ACC734",
"G  c #AEC833",
"H  c #ACC63B",
"J  c #AFC83B",
"K  c #B1CA33",
"L  c #B3CB3D",
"P  c #819744",
"I  c #859B43",
"U  c #899F44",
"Y  c #86994C",
"T  c #8B9F4C",
"R  c #8BA144",
"E  c #8DA941",
"W  c #8FA44A",
"Q  c #93A643",
"!  c #93AB43",
"~  c #9BAC46",
"^  c #93A64D",
"/  c #96AC4E",
"(  c #99AE4C",
")  c #96B443",
"_  c #99B544",
"`  c #99B847",
"'  c #9CB34C",
"]  c #99B848",
"[  c #8CA450",
"{  c #93A752",
"}  c #95AA56",
"|  c #98AE56",
" . c #96AA5A",
".. c #9DB256",
"X. c #9FBA50",
"o. c #9EB45D",
"O. c #A0B944",
"+. c #A8BD42",
"@. c #A4BB4C",
"#. c #A9BD4C",
"$. c #A0B651",
"%. c #AABF56",
"&. c #A6BD5B",
"*. c #9FB566",
"=. c #A0B564",
"-. c #A3BD61",
";. c #A9BF63",
":. c #A2B868",
">. c #ABBF70",
",. c #ACC543",
"<. c #AEC843",
"1. c #ADC64B",
"2. c #AFC84B",
"3. c #B0CA44",
"4. c #B1C74C",
"5. c #B1CA4C",
"6. c #ACC653",
"7. c #AFC950",
"8. c #ADC55B",
"9. c #AEC85D",
"0. c #B1CA54",
"q. c #B2CB5C",
"w. c #ACC665",
"e. c #AEC864",
"r. c #ADC66A",
"t. c #AEC868",
"y. c #B3CB62",
"u. c #B1C56C",
"i. c #B3CB6A",
"p. c #B8CE6D",
"a. c #ADC07B",
"s. c #B5CC74",
"d. c #BACF78",
"f. c #BCD074",
"g. c #BACD8C",
"h. c #BFD28E",
"j. c #C1D58F",
"k. c None",
/* pixels */
"k.k.k.k.k.k.k.k.k.k.k.k.k.k.k.k.k.k.k.k.k.k.k.k.k.k.k.k.k.k.k.k.",
"k.k.k.k.k.k.k.k.k.k.k.k.k.k.k.k.k.k.k.k.k.k.k.k.k.k.k.k.k.k.k.k.",
"k.k.k.g.h.h.j.j.h.h.h.h.j.h.j.h.h.g.h.h.h.h.h.h.j.h.h.h.h.k.k.k.",
"k.k.a.w.e.r.w.w.t.t.t.t.t.} 0 1 1 5 8 8 0 8 0 } w.t.e.e.w.a.k.k.",
"k.k.s.e.e.e.e.e.t.t.t.} 6 9 R ) ` ` ] ] ] ] ) 9 6 0 *.w.w.s.k.k.",
"k.k.s.w.w.w.e.t.t.o.0 v ! E E ! ) ` ] ] ] ] ] ] ` E 7 I 8.s.k.k.",
"k.k.s.9.w.e.e.t.0 8 R [  .*.>.:.o.} 9 E ) ) ` ) ` ` ` v 8 r.k.k.",
"k.k.t.9.9.e.e.5 4 } s.s.i.i.i.i.t.s.d.*.v ) ) ) ` ) _ _ E Y k.k.",
"k.k.i.9.9.y.5 P >.&.Y P p P T o.y.i.i.i.i.{ b ) V V ` V ` X.k.k.",
"k.k.y.8.9.( 6 ;.p 6 9 p U p p 6 8 &.y.i.i.i.| b V V V V V ] k.k.",
"k.k.y.6.6.6 } 4 7  .u.f.p.f.u.o.7 4 / y.y.y.i.U V V V V V ' k.k.",
"k.k.q.6.' | 7 I u.y.q.y.y.y.q.y.u.R 4 &.q.y.y.w.d V V m V ] k.k.",
"k.k.q.7.W 9 7 8.q.8.U p 6 R 9.q.q.e.9 7 q.q.q.q./ x N N N _ k.k.",
"k.k.7.6.R , ' 9.%.; : ^ ^ : 3 8.q.q...: X.q.q.q.' x m m m _ k.k.",
"k.k.0.1.b : 6.q.p p i.q.q.u.: s q.0.8., ! 0.0.q.8., m m m V k.k.",
"k.k.7.2.b , 6.0.; ( 0.0.0.0.Q 4 0.0.0.p b 0.0.0.0.a c m m N k.k.",
"k.k.2.,.b : 2.0., b 0.0.0.0.a p 0.0.0., b 0.0.0.0., c c j N k.k.",
"k.k.2.,.V ; O.5.Q & ' 4.5.! & ~ 5.5.#.* ~ 5.5.5.1.> j j j m k.k.",
"k.k.<.,.,.* a 2.7.f o 2 - % Q 0.5.5.a * 1.0.4.4.) y h h j j k.k.",
"k.k.<.<.<.b & B 5.0.%.( ( 6.5.3.5.V & b 5.3.3.4.a u h h h j k.k.",
"k.k.H H <.4.y & x 3.3.5.4.4.3.4.N & y 4.3.3.3.O.* h h g h h k.k.",
"k.k.H H H J #.y + * x C +.C i ; & y #.3.3.3.J + r g g g g g k.k.",
"k.k.F H J J 3.5.~ = + o o o o = Q 5.3.3.<.<.y y g g g g g > k.k.",
"k.k.F F F J J J Z 0.#.~ ~ ~ #.0.L J J <.Z * # e t t t g # M k.k.",
"k.k.F F F F H H Z y Z L L J L K L L F u o q e e e e w + B F k.k.",
"k.k.S F S F G G G ,.f o & u z i = o o @ w w e e q @ a +.D F k.k.",
"k.k.S S S D D G K F K 4.Q o X @ # q w w q q # = x +.G S S S k.k.",
"k.k.D S S S S S S S D D D L #.~ Q M s s M m Z L S S S S S S k.k.",
"k.k.l A A S A S D A D A D D D D A D D A S S A S A A A A A l k.k.",
"k.k.. l S D D G K K K L K L L L L L L L L K K K K K D D l . k.k.",
"k.k.k.k.                                                k.k.k.k.",
"k.k.k.k.k.k.k.k.k.k.k.k.k.k.k.k.k.k.k.k.k.k.k.k.k.k.k.k.k.k.k.k."
};
