/* XPM */
static char *opera[] = {
/* columns rows colors chars-per-pixel */
"32 32 146 2",
"   c #000000",
".  c #2C0303",
"X  c #6B0606",
"o  c #6B0A0A",
"O  c #7F0303",
"+  c #740F0F",
"@  c #7F0B0B",
"#  c #6E1D1D",
"$  c #701212",
"%  c #7E1010",
"&  c #7D1D1D",
"*  c #732D2D",
"=  c #6E3030",
"-  c #820606",
";  c #850C0C",
":  c #8C0C0C",
">  c #930D0D",
",  c #9A0E0E",
"<  c #831313",
"1  c #8C1313",
"2  c #871919",
"3  c #8A1C1C",
"4  c #931414",
"5  c #9D1313",
"6  c #951B1B",
"7  c #9B1B1B",
"8  c #A41515",
"9  c #A31B1B",
"0  c #AB1B1B",
"q  c #B21E1E",
"w  c #812525",
"e  c #8C2222",
"r  c #842B2B",
"t  c #9E2121",
"y  c #942C2C",
"u  c #9F2B2B",
"i  c #833030",
"p  c #843E3E",
"a  c #923434",
"s  c #9B3434",
"d  c #9D3838",
"f  c #A42424",
"g  c #AC2525",
"h  c #A42929",
"j  c #AE2B2B",
"k  c #B62424",
"l  c #BA2525",
"z  c #B42D2D",
"x  c #BF2D2D",
"c  c #A73535",
"v  c #AD3232",
"b  c #A33C3C",
"n  c #AB3A3A",
"m  c #B33131",
"M  c #BC3333",
"N  c #B53A3A",
"B  c #BA3F3F",
"V  c #DC2727",
"C  c #DD2C2C",
"Z  c #C33535",
"A  c #CA3434",
"S  c #C33939",
"D  c #CC3A3A",
"F  c #DD3333",
"G  c #D33D3D",
"H  c #DB3B3B",
"J  c #E12C2C",
"K  c #E23434",
"L  c #E43B3B",
"P  c #964343",
"I  c #9E4343",
"U  c #9C4848",
"Y  c #A14949",
"T  c #AF4E4E",
"R  c #B14040",
"E  c #BC4141",
"W  c #B34B4B",
"Q  c #BB4C4C",
"!  c #A55050",
"~  c #B25555",
"^  c #B85656",
"/  c #B95858",
"(  c #876262",
")  c #9D6767",
"_  c #976C6C",
"`  c #A36666",
"'  c #AB6060",
"]  c #A96D6D",
"[  c #A07474",
"{  c #AC7878",
"}  c #C44444",
"|  c #CD4444",
" . c #C24B4B",
".. c #CB4B4B",
"X. c #D44545",
"o. c #DB4444",
"O. c #D54D4D",
"+. c #DC4A4A",
"@. c #CC5151",
"#. c #CB5858",
"$. c #D35353",
"%. c #DC5454",
"&. c #D75858",
"*. c #DC5A5A",
"=. c #E24444",
"-. c #E24B4B",
";. c #E15454",
":. c #EB5F5F",
">. c #C66161",
",. c #CC6B6B",
"<. c #DE6262",
"1. c #D47575",
"2. c #EB6161",
"3. c #ED6868",
"4. c #A48585",
"5. c #AB8E8E",
"6. c #B58D8D",
"7. c #BD8C8C",
"8. c #AA9696",
"9. c #AC9999",
"0. c #B39393",
"q. c #B89393",
"w. c #B19E9E",
"e. c #BA9D9D",
"r. c #B3A3A3",
"t. c #BDA3A3",
"y. c #BFBABA",
"u. c #C89C9C",
"i. c #C1A3A3",
"p. c #C5AFAF",
"a. c #D9A3A3",
"s. c #C4B3B3",
"d. c #CBB7B7",
"f. c #C4BBBB",
"g. c #C9B8B8",
"h. c #CCC7C7",
"j. c #CBCBCB",
"k. c #DFC4C4",
"l. c #D4D3D3",
"z. c #DBD5D5",
"x. c #DCDCDC",
"c. c #E4DBDB",
"v. c #E4E3E3",
"b. c #ECECEC",
"n. c #F3F3F3",
"m. c None",
/* pixels */
"m.m.m.m.m.m.m.m.m.m.m.m.m.m.m.m.m.m.m.m.m.m.m.m.m.m.m.m.m.m.m.m.",
"m.m.m.m.m.m.m.m.m.m.m.m.m.m.m.m.m.m.m.m.m.m.m.m.m.m.m.m.m.m.m.m.",
"m.m.m.*.:.2.2.2.2.2.2.2.3.3.3.3.3.3.2.2.2.2.2.2.2.2.:.:.<.m.m.m.",
"m.m.$.J J J J J K K J J K L L L K K J J J J J J J J J V J O.m.m.",
"m.m.=.V K C K C L L L F K =.=.=.=.K F F K F C F F F V V V =.m.m.",
"m.m.=.F C F H =.H H -.H L -.-.+.H F H H H F H =.=.L F C C o.m.m.",
"m.m.o.F H H =.o.H o.-.o.G 1.a.k.k.a.,.G H H +.-.+.=.H H F =.m.m.",
"m.m.+.F H o.+.H G o.o.} k.n.v.t.t.c.n.k. .o.;.+.;.+.o.H H o.m.m.",
"m.m.o.H H +.+.G G %.,.c.n.e.y v m a e.n.c.>.%.X.+.+.+.H H o.m.m.",
"m.m.o.G o.+.%.%.X.#.c.b.x.d D G G D d z.b.c. .O.;.%.+.o.G X.m.m.",
"m.m.X.G +.+.*.;.%.u.b.b.q.M D D D D M 6.b.b.u.*.;.%.+.o.H X.m.m.",
"m.m.X.X.X.+.%.*.>.v.b.b.] M D D D D S ` b.b.c.>.*.%.X.X.G X.m.m.",
"m.m.D G X.%.%.&.7.b.b.b.P M Z S Z Z M ! v.b.v.7.&.| | | A X.m.m.",
"m.m.A D X.O.&.$.i.v.v.v.d M Z Z Z Z x Y v.v.v.e.M X.O.X.A X.m.m.",
"m.m.l A X.O.&.Q g.v.c.v.s M M M M M M T v.v.v.d.B | O.X.D | m.m.",
"m.m.k q Z O.Z u l.x.x.x.y M M x M M | / x.x.x.l.Q $.X.X.S x m.m.",
"m.m.q q q Z | b y.j.h.j.y z z m z z &.^ j.j.j.y.T $.} | S k m.m.",
"m.m.0 0 0 g z n r.j.j.j.y z z z z z @.~ j.j.j.r.Q $...S q 0 m.m.",
"m.m.0 8 0 g g f 4.l.l.l.I g j j g z j Y l.l.l.5. .....Z 8 0 m.m.",
"m.m.8 8 9 9 g f _ l.l.l.' E j j j g h P l.l.l.[  . .} 0 8 8 m.m.",
"m.m.5 8 9 9 f f r h.z.z.{ @.#.z h h f ) z.z.h.P  .} M 8 5 5 m.m.",
"m.m., , 8 7 7 f e _ x.x.q. ...h f f t 5.x.x._ R } E m 9 5 , m.m.",
"m.m.> 4 5 5 7 t t & h.x.l.~ N f 9 t a z.x.f.w E B N 9 h , > m.m.",
"m.m.> > 4 4 6 7 7 3 p y.v.p.e 7 6 e p.v.y.= 6 B N h 4 4 > > m.m.",
"m.m.: : > > 4 4 7 6 c r w.v.v.d.d.v.v.9.# 1 6 h h 4 4 > : : m.m.",
"m.m.: : : > 4 4 3 6 v u $ = ( 8.8.( = $ 2 6 6 4 4 4 1 : : : m.m.",
"m.m.: - ; : : 1 1 4 h 1 1 < % $ + % < 1 1 1 1 1 1 : : ; - : m.m.",
"m.m.- - - - - - ; 1 4 ; ; ; ; ; : ; ; ; ; ; ; ; - - - - - - m.m.",
"m.m.X O O O O O O - ; @ O @ - - @ O - - - @ O O O O O O - X m.m.",
"m.m.. o @ ; % < < 2 2 3 3 e e e e e e 3 3 2 2 < < % ; @ X . m.m.",
"m.m.m.m.                                                m.m.m.m.",
"m.m.m.m.m.m.m.m.m.m.m.m.m.m.m.m.m.m.m.m.m.m.m.m.m.m.m.m.m.m.m.m."
};
