/* XPM */
static char *picasa_fontcfg[] = {
/* columns rows colors chars-per-pixel */
"32 32 205 2",
"   c #000000",
".  c #363636",
"X  c #414141",
"o  c #484848",
"O  c #505050",
"+  c #616161",
"@  c #6E6E6E",
"#  c #777777",
"$  c #CA3336",
"%  c #D03B3D",
"&  c #F33437",
"*  c #F43639",
"=  c #F93538",
"-  c #DE7517",
";  c #D7751B",
":  c #E67209",
">  c #E9750C",
",  c #FC7D08",
"<  c #E57610",
"1  c #E97A16",
"2  c #EA7D1A",
"3  c #F93D40",
"4  c #BF5455",
"5  c #C24142",
"6  c #CF595A",
"7  c #F74043",
"8  c #F94144",
"9  c #F54548",
"0  c #FA4D4F",
"q  c #E55154",
"w  c #F65256",
"e  c #FA5154",
"r  c #FA5B5D",
"t  c #CF7779",
"y  c #E86567",
"u  c #F56063",
"i  c #FA6062",
"p  c #F46C6E",
"a  c #FB696C",
"s  c #F66E71",
"d  c #EB7678",
"f  c #E87C7D",
"g  c #F27476",
"h  c #349F27",
"j  c #359C2A",
"k  c #3B9E30",
"l  c #37A527",
"z  c #38A626",
"x  c #3BAC25",
"c  c #35A328",
"v  c #3FB223",
"b  c #42B51F",
"n  c #45BA1F",
"m  c #48BC1D",
"M  c #449F3A",
"N  c #41B321",
"B  c #43B820",
"V  c #4AA23F",
"C  c #51A446",
"Z  c #54A54A",
"A  c #79B771",
"S  c #FD8309",
"D  c #FD8B09",
"F  c #F59309",
"G  c #FC9309",
"H  c #F9980A",
"J  c #E68933",
"K  c #E88E39",
"L  c #8CB77D",
"P  c #DC9A5F",
"I  c #E49752",
"U  c #E89C58",
"Y  c #DEAB7C",
"T  c #1B5198",
"R  c #1D5B9E",
"E  c #1D57A2",
"W  c #1D59A6",
"Q  c #1D5CA9",
"!  c #2157A0",
"~  c #275BA1",
"^  c #1D60AC",
"/  c #1B68AE",
"(  c #1B6BB2",
")  c #1A74B6",
"_  c #1977B8",
"`  c #2168A3",
"'  c #2570A7",
"]  c #4B74AB",
"[  c #8C629E",
"{  c #8D5EA1",
"}  c #9064A3",
"|  c #9069A1",
" . c #9663AC",
".. c #9865AE",
"X. c #9669A8",
"o. c #9974A9",
"O. c #9D6CB2",
"+. c #A172B6",
"@. c #A37BB4",
"#. c #A476B8",
"$. c #A67AB9",
"%. c #A97EBB",
"&. c #7B91AF",
"*. c #858585",
"=. c #8F8F8F",
"-. c #959595",
";. c #9A9A9A",
":. c #8EB583",
">. c #88BE82",
",. c #91B38C",
"<. c #95B592",
"1. c #829CBE",
"2. c #A484B3",
"3. c #A887B5",
"4. c #A68BB3",
"5. c #AC84BD",
"6. c #AC8CBA",
"7. c #AF92BB",
"8. c #B292BF",
"9. c #8FA2BA",
"0. c #A6A6A6",
"q. c #ACACAC",
"w. c #B4A1BD",
"e. c #BDBDBD",
"r. c #CD898A",
"t. c #D3999A",
"y. c #E89091",
"u. c #DAAA80",
"i. c #E7BF87",
"p. c #E8BF86",
"a. c #E9BF97",
"s. c #DEBFA2",
"d. c #E6A6A7",
"f. c #E9A2A3",
"g. c #E8ABAC",
"h. c #E9B3B4",
"j. c #EBBEBF",
"k. c #92C08D",
"l. c #97C593",
"z. c #9EC797",
"x. c #9DC995",
"c. c #9FC59A",
"v. c #A1C89D",
"b. c #A7CCA3",
"n. c #AECDAA",
"m. c #BDD5BB",
"M. c #E8C086",
"N. c #E8C08B",
"B. c #E9C094",
"V. c #EAC099",
"C. c #E1C2A7",
"Z. c #EACFAE",
"A. c #EACDB2",
"S. c #B28BC2",
"D. c #B793C6",
"F. c #B896C6",
"G. c #BA9AC7",
"H. c #97ADC6",
"J. c #98ACC6",
"K. c #93ADC8",
"L. c #8CB2CD",
"P. c #92B0CC",
"I. c #BAA5C3",
"U. c #BFAFC5",
"Y. c #A2B4C5",
"T. c #C8B6CF",
"R. c #C6BBCC",
"E. c #C8BCCE",
"W. c #CDBDD3",
"Q. c #ABC3D1",
"!. c #B2C2D2",
"~. c #C2C2C2",
"^. c #CCCCCC",
"/. c #C6D5C1",
"(. c #C8DBC6",
"). c #C5CFDA",
"_. c #D0C6D4",
"`. c #D4C8D9",
"'. c #D9CEDE",
"]. c #C6D2DA",
"[. c #CDD4DE",
"{. c #D2D2D2",
"}. c #D8D0DC",
"|. c #DBDBDB",
" X c #EBCACB",
".X c #E6D3C1",
"XX c #EBD8C6",
"oX c #E9DBCD",
"OX c #EADBDB",
"+X c #F2DFDF",
"@X c #DCE2DB",
"#X c #EAE1D9",
"$X c #DED5E0",
"%X c #DED8E0",
"&X c #E2DEE4",
"*X c #DDE0E4",
"=X c #E4E4E4",
"-X c #E6E3E8",
";X c #ECEBEC",
":X c #F3E5E6",
">X c #F1EDED",
",X c #F0EFF0",
"<X c #F3F3F3",
"1X c #F9F9F9",
"2X c None",
/* pixels */
"2X2X2X2X2X2X2X2X2X2X2X2X2X2X2X2X2X2X2X2X2X2X2X2X2X2X2X2X2X2X2X2X",
"2X2X2X2X2X2X2X2X2X2X2X2X2X2X2X2X2X2X2X2X2X2X2X2X2X2X2X2X2X2X2X2X",
"2X2X2X;X1X1X1X1X1X1X1X1X1X1X1X1X1X1X1X1X1X1X1X1X1X1X1X1X<X2X2X2X",
"2X2X=X<X1X<X<X<X<X<X<X<X1X<X<X<X<X<X<X1X<X<X<X<X<X1X<X<X<X=X2X2X",
"2X2X<X<X<X<X<X<X<X<X<XOXr.6 5 $ % 6 t t.OX<X<X<X<X<X<X<X<X<X2X2X",
"2X2X<X<X<X<X<X<X<X%X&X Xq & = = = = = & d..X#X<X<X<X<X<X<X<X2X2X",
"2X2X<X<X<X<X<X<XR.[ [ }.OXy 7 8 9 8 3 * g.V.; s.<X<X<X<X<X<X2X2X",
"2X2X<X<X<X<X<Xw.[  ...| _.:Xf e e e 0 9 g.a., : u.<X<X<X<X<X2X2X",
"2X2X<X<X;X<XE.{ ..O.+.#.o.R.>Xy.u i r w d.B., , > C.,X,X,X<X2X2X",
"2X2X<X<X<X%X[ ..O.+.$.5.5.2.U.,Xf.p a u g.B.S S , - oX<X,X<X2X2X",
"2X2X<X;X<X4. ...+.#.5.S.D.D.I.;X,Xh.g p g.B.D S , , P <X;X<X2X2X",
"2X2X<X;X&X[ ..O.#.S.S.F.G.R.,X,X,X,Xj.d h.N.D D S , < #X;X<X2X2X",
"2X2X;X;XI. . .#.%.S.D.F.W.,X;X,X# -.,X Xh.N.G D S , , Y ;X,X2X2X",
"2X2X<X;X2. .O.#.5.S.D.`.,X;X,X~.+ @ ,X;X>XN.F G D S , I ,X,X2X2X",
"2X2X;X;Xo...O.$.S.5.'.;X,X;X;X*.~.o ;X;X>XM.H G D S , J ;X;X2X2X",
"2X2X;X;X} ..+.$.3.$X;X;X;X;X0.^.;X. @X;X;Xp.H G D S , 1 ;X;X2X2X",
"2X2X;X;XX...O.3.%X].Q.;X;X#X+ ;.;.X e.;X;Xp.F G D S , 2 ;X;X2X2X",
"2X2X;X;X@...3.&X!.' L.;X;X=.^.|.|.@ -.;X;Xp.H G D S , K ;X;X2X2X",
"2X2X;X;X7.7.-XY.` _ L.;Xq.@ =X;X|.@ + {.;Xp.F D S , , U =X;X2X2X",
"2X2X=X;X'.;X9.R ( _ L.;X^.^.-X;X=X^.^.=X;XoXZ.A.Z.A.A.XX;X;X2X2X",
"2X2X;X=X;X&.T Q ( ( P./.L L L L L L L :.:.:.:.,.,.<.<.;X=X;X2X2X",
"2X2X;X=X;X1.E W ^ ( P.x.N m n n m m m b b x x z h j >.;X;X=X2X2X",
"2X2X=X=X-X=X] E Q ^ K.x.N b n B m n B v v x x c c Z @X-X;X=X2X2X",
"2X2X;X=X=X=X).! Q W H.z.x v v B v v v x x z c c j m.;X=X=X=X2X2X",
"2X2X=X=X=X=X=X!.~ E H.z.l x x x x x x x l c c k m.=X=X=X=X=X2X2X",
"2X2X=X=X=X=X=X-X[.] H.c.h c z z x c c c c c V (.-X=X=X=X=X=X2X2X",
"2X2X=X=X=X=X=X;X=X*X).z.h h c c c c c c M z.@X=X=X=X=X=X=X=X2X2X",
"2X2X=X=X#X=X=X=X=X=X=X|.m.b.>.C C A l.n.@X=X=X=X=X=X=X=X=X=X2X2X",
"2X2Xe.=X*X=X*X#X=X=X=X=X=X*X=X;X;X=X*X#X=X*X=X=X=X=X*X-X=XY.2X2X",
"2X2XO ~.*X=X=X=X=X=X=X=X;X=X;X;X=X;X=X-X=X;X=X=X=X=X=X-Xs.O 2X2X",
"2X2X2X2X                                                2X2X2X2X",
"2X2X2X2X2X2X2X2X2X2X2X2X2X2X2X2X2X2X2X2X2X2X2X2X2X2X2X2X2X2X2X2X"
};
