/* XPM */
static char *picasa[] = {
/* columns rows colors chars-per-pixel */
"32 32 190 2",
"   c #000000",
".  c #505050",
"X  c #CA3336",
"o  c #D03B3D",
"O  c #F33437",
"+  c #F43639",
"@  c #F93538",
"#  c #DE7517",
"$  c #D7751B",
"%  c #E67209",
"&  c #E9750C",
"*  c #FC7D08",
"=  c #E57610",
"-  c #E97A16",
";  c #EA7D1A",
":  c #F93D40",
">  c #BF5455",
",  c #C24142",
"<  c #CF595A",
"1  c #F74043",
"2  c #F94144",
"3  c #F54548",
"4  c #FA4D4F",
"5  c #E55154",
"6  c #F65256",
"7  c #FA5154",
"8  c #FA5B5D",
"9  c #CF7779",
"0  c #E86567",
"q  c #F56063",
"w  c #FA6062",
"e  c #F46C6E",
"r  c #FB696C",
"t  c #F66E71",
"y  c #EB7678",
"u  c #E87C7D",
"i  c #F27476",
"p  c #349F27",
"a  c #359C2A",
"s  c #3B9E30",
"d  c #37A527",
"f  c #38A626",
"g  c #3BAC25",
"h  c #35A328",
"j  c #3FB223",
"k  c #42B51E",
"l  c #45BA1F",
"z  c #48BC1D",
"x  c #449F3A",
"c  c #41B321",
"v  c #43B820",
"b  c #4AA23F",
"n  c #51A446",
"m  c #54A54A",
"M  c #79B771",
"N  c #FD8309",
"B  c #FD8B09",
"V  c #F59309",
"C  c #FC9309",
"Z  c #F9980A",
"A  c #E68933",
"S  c #E88E39",
"D  c #8CB77D",
"F  c #DC9A5F",
"G  c #E49752",
"H  c #E89C58",
"J  c #DEAB7C",
"K  c #1B5198",
"L  c #1D5B9E",
"P  c #1D57A2",
"I  c #1D59A6",
"U  c #1D5CA9",
"Y  c #2157A0",
"T  c #275BA1",
"R  c #1D60AC",
"E  c #1B68AE",
"W  c #1B6BB2",
"Q  c #1A74B6",
"!  c #1977B8",
"~  c #2168A3",
"^  c #2570A7",
"/  c #4B74AB",
"(  c #8C629E",
")  c #8D5EA1",
"_  c #9064A3",
"`  c #9069A1",
"'  c #9663AC",
"]  c #9865AE",
"[  c #9669A8",
"{  c #9974A9",
"}  c #9D6CB2",
"|  c #A172B6",
" . c #A37BB4",
".. c #A476B8",
"X. c #A67AB9",
"o. c #A97EBB",
"O. c #7B91AF",
"+. c #8EB583",
"@. c #88BE82",
"#. c #91B38C",
"$. c #95B592",
"%. c #829CBE",
"&. c #A484B3",
"*. c #A887B5",
"=. c #A68BB3",
"-. c #AC84BD",
";. c #AC8CBA",
":. c #AF92BB",
">. c #B292BF",
",. c #8FA2BA",
"<. c #B4A1BD",
"1. c #BFBFBF",
"2. c #CD898A",
"3. c #D3999A",
"4. c #E89091",
"5. c #DAAA80",
"6. c #E7BF87",
"7. c #E8BF86",
"8. c #E9BF97",
"9. c #DEBFA2",
"0. c #E6A6A7",
"q. c #E9A2A3",
"w. c #E8ABAC",
"e. c #E9B3B4",
"r. c #EBBEBF",
"t. c #92C08D",
"y. c #97C593",
"u. c #9EC797",
"i. c #9DC995",
"p. c #9FC59A",
"a. c #A1C89D",
"s. c #A7CCA3",
"d. c #AECDAA",
"f. c #BDD5BB",
"g. c #E8C086",
"h. c #E8C08B",
"j. c #E9C094",
"k. c #EAC099",
"l. c #E1C2A7",
"z. c #EACFAE",
"x. c #EACDB2",
"c. c #B28BC2",
"v. c #B793C6",
"b. c #B896C6",
"n. c #BA9AC7",
"m. c #97ADC6",
"M. c #98ACC6",
"N. c #93ADC8",
"B. c #8CB2CD",
"V. c #92B0CC",
"C. c #BAA5C3",
"Z. c #BFAFC5",
"A. c #A2B4C5",
"S. c #C8B6CF",
"D. c #C6BBCC",
"F. c #C8BCCE",
"G. c #CDBDD3",
"H. c #ABC3D1",
"J. c #B2C2D2",
"K. c #C0C0C0",
"L. c #C6D5C1",
"P. c #C8DBC6",
"I. c #C5CFDA",
"U. c #D0C6D4",
"Y. c #D4C8D9",
"T. c #D9CEDE",
"R. c #C6D2DA",
"E. c #CDD4DE",
"W. c #D8D0DC",
"Q. c #EBCACB",
"!. c #E6D3C1",
"~. c #EBD8C6",
"^. c #E9DBCD",
"/. c #EADBDB",
"(. c #F2DFDF",
"). c #DCE2DB",
"_. c #EAE1D9",
"`. c #DED5E0",
"'. c #DED8E0",
"]. c #E2DEE4",
"[. c #DDE0E4",
"{. c #E4E4E4",
"}. c #E6E3E8",
"|. c #ECECEC",
" X c #F3E5E6",
".X c #F1EDED",
"XX c #F0EFF0",
"oX c #F3F3F3",
"OX c #F9F9F9",
"+X c None",
/* pixels */
"+X+X+X+X+X+X+X+X+X+X+X+X+X+X+X+X+X+X+X+X+X+X+X+X+X+X+X+X+X+X+X+X",
"+X+X+X+X+X+X+X+X+X+X+X+X+X+X+X+X+X+X+X+X+X+X+X+X+X+X+X+X+X+X+X+X",
"+X+X+X|.OXOXOXOXOXOXOXOXOXOXOXOXOXOXOXOXOXOXOXOXOXOXOXOX|.+X+X+X",
"+X+X{.oXOXoXoXoXOXoXoXoXoXoXoXoXoXoXoXOXOXoXoXoXoXoXoXOXoX{.+X+X",
"+X+XoXoXoXoXoXoXoXoXoX/.2.< , X o < 9 3./.oXoXoXoXoXoXoXoXOX+X+X",
"+X+XoXoXoXoXoXoXoXW.{.Q.5 + @ @ @ @ @ O 0.!._.oXoXoXoXoXoXoX+X+X",
"+X+XoXoXoXoXoXoXD.( ( W./.0 1 2 2 2 2 + 0.k.$ 9.oXoXoXoXoXoX+X+X",
"+X+XoXoXoXoXoX<.) } [ ( U. Xu 7 7 7 4 3 w.k.* % 5.oXoXoXoXoX+X+X",
"+X+XoXoXoXoXF.) ] } | ..{ S..X4.q w 8 6 w.j.* * & l.XXoXXXoX+X+X",
"+X+XoXoXoXW.( ] } | X.-.;.&.Z.XXq.e e q w.j.N N * # ^.oXXXoX+X+X",
"+X+XXX|.oX=.' ] | X.-.c.v.v.C.|..Xe.i t w.h.B N * * F XX|.oX+X+X",
"+X+XoXXX].( ] } ..-.c.b.n.S.XXXX|.XXr.y e.h.B B N * = _.|.oX+X+X",
"+X+X|.|.C.' ' ..o.c.v.b.G.oXXX|.|.|.oXQ.e.h.C B N * * J |.XX+X+X",
"+X+XoX|.&.' } ..-.c.c.Y.XX|.XXXXoX|..X|.XXh.C C B N * G |.oX+X+X",
"+X+X|.|.{ ] } X.c.;.T.XX|.|.XX|.|.oX|.|.|.g.C C B N * A |.|.+X+X",
"+X+X|.|._ ] | X.*.`.|.|.|.|.|.|.|.|.|.|.|.g.Z C B N * - |.|.+X+X",
"+X+X|.|.[ ] } *.].R.H.|.|.|.|.|.|.|.|.|.|.7.V C B N * ; |.|.+X+X",
"+X+X|.|. .' *.}.J.~ B.|.|.|.|.|.|.|.|.|.|.7.V C B N * S |.|.+X+X",
"+X+X|.{.:.:.{.A.~ ! B.|.|.|.|.|.|.|.|.|.|.7.V B N * * H {.|.+X+X",
"+X+X|.|.T.|.,.P W Q B.|.|.{.|.|.{.|.|.|.|.^.z.x.z.x.x.~.|.|.+X+X",
"+X+X|.{.|.O.K U E Q N.L.+.D D D D D D +.+.+.+.#.#.#.#.|.{.|.+X+X",
"+X+X|.{.{.%.P I R E V.i.k z z z z z z l c g g f p h t.{.|.{.+X+X",
"+X+X{.{.|.{./ I U R N.i.c c v v l v v c j g g h h m {.|.|.{.+X+X",
"+X+X|.{.}.{.I.L I P m.u.g j c c j j j g g f h h a f.}.{.{.{.+X+X",
"+X+X}.{.{.{.{.J.T P m.u.f g g g g g g f h h h s f.{.{.{.{.{.+X+X",
"+X+X{.{.{.{.{.{.E./ m.u.p h f f f f f h h h x P.{.{.{.{.{.{.+X+X",
"+X+X{.{.{.{.{.{.{.[.R.i.p h h h h h f h b u.).|.{.{.{.{.{.{.+X+X",
"+X+X{.{.{.{.{.{.{.{.{.W.f.s.@.n b M y.d.[.[.{.[.{.{.{.{.{.{.+X+X",
"+X+Xf.{.{.W.{.{.{.{.{.{.{.{.{.|.|.{.[.{.{.).{._.{.W.{.{.{.1.+X+X",
"+X+X. K.{.{.{.{.{.{.}.{.{.{.{.|.|.{.|.|.|.{.}.}.|.{.{.{.1.. +X+X",
"+X+X+X+X                                                +X+X+X+X",
"+X+X+X+X+X+X+X+X+X+X+X+X+X+X+X+X+X+X+X+X+X+X+X+X+X+X+X+X+X+X+X+X"
};
