/* XPM */
static char *xchat[] = {
/* columns rows colors chars-per-pixel */
"32 32 133 2",
"   c #000000",
".  c #28390A",
"X  c #597E17",
"o  c #5B8015",
"O  c #5E831A",
"+  c #628B17",
"@  c #62861D",
"#  c #628B1A",
"$  c #66901A",
"%  c #6A941D",
"&  c #6F991F",
"*  c #719C1F",
"=  c #71A417",
"-  c #73A619",
";  c #77A91B",
":  c #7AAD1D",
">  c #7DB11F",
",  c #648427",
"<  c #668923",
"1  c #688D24",
"2  c #6C8E2F",
"3  c #6C9422",
"4  c #6F9820",
"5  c #729726",
"6  c #739D23",
"7  c #789F27",
"8  c #70962A",
"9  c #749B2A",
"0  c #789E2C",
"q  c #739730",
"w  c #769B33",
"e  c #7D9F3C",
"r  c #76A422",
"t  c #79A425",
"y  c #7BAC23",
"u  c #7CA42C",
"i  c #7DAA2B",
"p  c #7EB122",
"a  c #7CA234",
"s  c #7FAB31",
"d  c #7D984B",
"f  c #80AE26",
"g  c #81A72E",
"h  c #82AD2C",
"j  c #82B424",
"k  c #86B826",
"l  c #84B32B",
"z  c #89B62D",
"x  c #87B82A",
"c  c #8ABB2C",
"v  c #81A731",
"b  c #82AB31",
"n  c #84AB3A",
"m  c #87B033",
"M  c #89B432",
"N  c #8DBB32",
"B  c #86B138",
"V  c #8AB33C",
"C  c #8FBB3C",
"Z  c #90BD32",
"A  c #90B93B",
"S  c #8EC02E",
"D  c #91C42F",
"F  c #93C533",
"G  c #97CA35",
"H  c #9ACD36",
"J  c #93C13A",
"K  c #9ACA3C",
"L  c #9FD137",
"P  c #9ED03C",
"I  c #A2D53B",
"U  c #A6D93C",
"Y  c #AADE3E",
"T  c #819B4F",
"R  c #81975B",
"E  c #80A141",
"W  c #8BA94E",
"Q  c #8DA854",
"!  c #95A379",
"~  c #A0BA6C",
"^  c #A7BF76",
"/  c #9FCC41",
"(  c #A4D444",
")  c #A7D942",
"_  c #ABDD42",
"`  c #A7D649",
"'  c #ABDA4A",
"]  c #A3C45E",
"[  c #B1DF53",
"{  c #AEE142",
"}  c #B0E443",
"|  c #B0E14A",
" . c #B4E156",
".. c #B7E359",
"X. c #BBE75E",
"o. c #A4C263",
"O. c #A6C46A",
"+. c #B5D96A",
"@. c #A7C172",
"#. c #A9C473",
"$. c #ACC37D",
"%. c #CBEF7F",
"&. c #9EAB84",
"*. c #A0AD87",
"=. c #A2B084",
"-. c #A5B18B",
";. c #AAB593",
":. c #AEB79E",
">. c #AFB89E",
",. c #B2BD9E",
"<. c #AEC285",
"1. c #B8C0A7",
"2. c #BECAA5",
"3. c #BCC3AE",
"4. c #C4E381",
"5. c #CBEF80",
"6. c #C2CDAB",
"7. c #C8DBA4",
"8. c #CED4C3",
"9. c #D0D7C3",
"0. c #D2D6C9",
"q. c #D6DACC",
"w. c #D7DBD1",
"e. c #DBDED4",
"r. c #DCE0D3",
"t. c #DEE0DB",
"y. c #E1E4DB",
"u. c #E5E6E2",
"i. c #E7E9E3",
"p. c #EBECE7",
"a. c #ECECEC",
"s. c #F2F2F2",
"d. c None",
/* pixels */
"d.d.d.d.d.d.d.d.d.d.d.d.d.d.d.d.d.d.d.d.d.d.d.d.d.d.d.d.d.d.d.d.",
"d.d.d.d.d.d.d.d.d.d.d.d.d.d.d.d.d.d.d.d.d.d.d.d.d.d.d.d.d.d.d.d.",
"d.d.d.4.%.%.%.%.%.%.%.%.%.5.5.5.5.5.5.%.%.%.%.%.%.%.%.%.4.d.d.d.",
"d.d.+.} { } } } } } } } } } } } } } } } } } } } } } } } } +.d.d.",
"d.d.X.{ { { { { } } } } } | | | } | | } _ } } } { } { { { X.d.d.",
"d.d. .Y Y Y Y { _ _ _ | | | ' / / ' | | _ | _ Y Y Y Y Y {  .d.d.",
"d.d. .Y Y Y Y Y _ _ ' A g g u h m g g m A ' | Y Y Y Y U Y  .d.d.",
"d.d.[ U U U Y Y ' A 0 h M z N N Z Z Z Z N g A | _ Y U U U  .d.d.",
"d.d.' U U U ) ( 0 u m M M z o.7.o.Z O.7.] Z z g ( ) U I I [ d.d.",
"d.d.' I I I ( 0 i h h z z m 6.s.Q c 6.s.W Z Z Z h ( U I I ` d.d.",
"d.d.` L I ( u 7 h h h z h h r.p.u h y.i.g c c Z z b ) I I ` d.d.",
"d.d.( L I A 5 h i h h ~ O.$.s.0.#.$.s.9.#.O.c c N h J I L ( d.d.",
"d.d.( H P s 6 u u i 7 p.s.s.s.s.s.s.s.s.s.y.j z c l M P H ( d.d.",
"d.d./ G K 5 7 u i t 7 -.;.w.s.,.;.e.s.,.;.*.h z z z i K G / d.d.",
"d.d./ G K 1 t t t t t 7 6 r.y.5 7 t.y.7 t i l l l x 5 K G K d.d.",
"d.d.K F K 3 6 t t t ~ ^ =.s.9.#.<.a.9.#.#.h f j l l u K F K d.d.",
"d.d.G S J 8 4 r r 4 t.a.a.a.a.s.a.a.a.a.i.t h j h y s F F F d.d.",
"d.d.D S F a 3 4 4 4 ! &.0.a.;.*.0.a.;.*.! r y f f r m F S D d.d.",
"d.d.S S S J < 4 6 4 3 3 0.u.3 3 w.e.3 6 r t y y i 9 J S S S d.d.",
"d.d.c k c S B < 4 4 4 e u.3.4 e p.1.6 r ; t t r % A c c k c d.d.",
"d.d.k k k c S s < 3 & d :.d 9 d :.R * r r - r 3 B S k k k k d.d.",
"d.d.k j k k l N V < $ $ $ $ 4 4 % % 6 - 6 % 8 V c x k j j j d.d.",
"d.d.> j p k p l N V O & 3 $ $ 4 % % $ O 1 n C x j j j j > j d.d.",
"d.d.> > p p p p l 4 O $ O a w w w a n V M l p p p p > > > p d.d.",
"d.d.: : > : p p r o o < s x p p s p p p p p > > p : > : : > d.d.",
"d.d.: : ; : : 4 , 2 a m s p p y > p p : : ; ; : ; : : ; ; : d.d.",
"d.d.; ; ; ; ; y i y y y y : : : : ; ; ; ; ; ; ; ; ; ; ; ; : d.d.",
"d.d.; - = - - ; - ; - - - - = = - - - - - - - - - - - - = ; d.d.",
"d.d.+ - = - = - - = = = = = = = = = = = = = = = = = - - = + d.d.",
"d.d.. + - r r r y y i i s i s m s s s i i i r i r r r - + . d.d.",
"d.d.d.d.                                                d.d.d.d.",
"d.d.d.d.d.d.d.d.d.d.d.d.d.d.d.d.d.d.d.d.d.d.d.d.d.d.d.d.d.d.d.d."
};
