/* XPM */
static char *xterm_color___x__[] = {
/* columns rows colors chars-per-pixel */
"32 32 67 1",
"  c #000000",
". c #141315",
"X c #171618",
"o c #18171A",
"O c #1C1A1D",
"+ c #1E1B20",
"@ c #211F23",
"# c #231F28",
"$ c #242326",
"% c #262529",
"& c #29262D",
"* c #2B292E",
"= c #2C2731",
"- c #2E2A32",
"; c #312D35",
": c #342E3A",
"> c #323036",
", c #36323A",
"< c #39353D",
"1 c #3C3B3D",
"2 c #3C3542",
"3 c #3E3A43",
"4 c #413C45",
"5 c #433C4B",
"6 c #434344",
"7 c #464349",
"8 c #48454C",
"9 c #4B494D",
"0 c #474050",
"q c #4C4751",
"w c #4E4B51",
"e c #504C54",
"r c #535154",
"t c #57535A",
"y c #59555D",
"u c #5C585F",
"i c #5B5660",
"p c #5E5962",
"a c #615C65",
"s c #68676A",
"d c #828283",
"f c #888788",
"g c #8A8A8C",
"h c #8F8D90",
"j c #908F92",
"k c #929293",
"l c #979798",
"z c #9C9C9C",
"x c #9F9FA1",
"c c #A3A3A4",
"v c #ACABAC",
"b c #AFAFB0",
"n c #B6B5B6",
"m c #B7B7B8",
"M c #B8B7B8",
"N c #BABABA",
"B c #BFBFC0",
"V c #C0BFC0",
"C c #C3C3C3",
"Z c #CBCBCB",
"A c #D4D4D4",
"S c #D7D7D8",
"D c #DBDBDB",
"F c #E3E3E3",
"G c #EDEDED",
"H c #FEFDFE",
"J c None",
/* pixels */
"JJJJJJJJJJJJJJJJJJJJJJJJJJJJJJJJ",
"JJJJJJJJJJJJJJJJJJJJJJJJJJJJJJJJ",
"JJJFGGGGGGGGGGGGGGGGGGGGGGGGFJJJ",
"JJSFFFFFFFFFGFFFFFFGFFFFFFFFFDJJ",
"JJGFMdddddddddddddddddddddfmFFJJ",
"JJFDg.XXOOOOO@OOOOOOOOOO...fFFJJ",
"JJFDdXO+1666*$$$$%%$%$*1$OXfFFJJ",
"JJFDgX$$*r9r6%%%%%%%$$66$@XfDFJJ",
"JJDDgO@$Zdrrr>%%%%%%$19%%@ogDFJJ",
"JJDDjO$$zGGxrr*%%%%%*r>%%@okDDJJ",
"JJDDkO$$$9DHrr7****%96%%$$okDDJJ",
"JJSSkO$%SHvsttt<>**69**%$$olSDJJ",
"JJSAkO$%f1*>hhkg>>1r,***%$OlSAJJ",
"JJAAzO%***>>HHHH6>r9;;**%$OzAAJJ",
"JJAAz+%->>>>>9rrr6r*%$@@OO.lAAJJ",
"JJAZc$*->>>>,<tt1r>%%$$$OO.xZAJJ",
"JJZZc@;;>,,;;-e49t1*&&%$@+XxZAJJ",
"JJZZc#;:;--=-7e5uyy>==%%$+ocZZJJ",
"JJZZv&;&&--;2y2,puuw--&&$@ocZZJJ",
"JJZCv@#%--;,t8::wpuu4--&&@ovCZJJ",
"JJCCv+#=-;;qt2222uapi:===$ovCCJJ",
"JJCCb+#--:2p522227aape:=&%ovCCJJ",
"JJCCb@%=::yq225533iapp3==$OnCCJJ",
"JJCCn@%=;qt22555533aapi:=%OnVCJJ",
"JJVVM+&=2i323555555qaap7=#+nBVJJ",
"JJVNMO&=75,225555522eeq9=%+NNNJJ",
"JJNNC.+#%=-;:223222:-=&$#+.CNNJJ",
"JJNMCCVVVVCCVCVVCVCCCVVBVVVCMNJJ",
"JJzMMMMMmmMmmmmNNNMNmMMmMMMMMzJJ",
"JJ6xNNNVBCCCCCZZZCCVCCCBBBNMx6JJ",
"JJJJ                        JJJJ",
"JJJJJJJJJJJJJJJJJJJJJJJJJJJJJJJJ"
};
