/* XPM */
static char *browser[] = {
/* columns rows colors chars-per-pixel */
"128 128 56 1",
"  c #030703070307",
". c #211C211C211C",
"X c #389138913891",
"o c #548554855485",
"O c #66E166E166E1",
"+ c #7CC27CC27CC2",
"@ c #839581558155",
"# c #8A2A8A2A8A2A",
"$ c #9E569E569E56",
"% c #A766A766A766",
"& c #B60BB60BB60B",
"* c #C3EFC3EFC3EF",
"= c #CB29CB29CB29",
"- c #CF8DCF8DD1A0",
"; c #D39FD39FD39F",
": c #DBB2DBB2DBB2",
"> c #DF98DE15DE15",
", c #DE15DE15DED9",
"< c #E1C0E1C0E1C0",
"1 c #E31DE46CE46C",
"2 c #E6E1E6E1E6E1",
"3 c #E8EFE8CCE898",
"4 c #EB37EB37EB37",
"5 c #ECFCECCFECC5",
"6 c #EEDDEEDDEEDD",
"7 c #F013F076F013",
"8 c #F013F013F076",
"9 c #F013F076F076",
"0 c #F1EDF1EDF1ED",
"q c #F2F2F345F345",
"w c #F396F2F2F2F2",
"e c #F433F433F433",
"r c #F59EF558F558",
"t c #F59EF59EF558",
"y c #F558F558F59E",
"u c #F59EF558F59E",
"i c #F558F59EF59E",
"p c #F6A4F6A4F6A4",
"a c #F794F75AF75A",
"s c #F75AF794F75A",
"d c #F794F794F75A",
"f c #F75AF75AF794",
"g c #F794F75AF794",
"h c #F75AF794F794",
"j c #F86FF86FF86F",
"k c #F93DF919F92B",
"l c #F9EEF9C1F9C1",
"z c #FA6CFA94FA6C",
"x c #FA94FA94FA6C",
"c c #FA6CFA94FA94",
"v c #FB08FB08FB08",
"b c #FC03FBFFFC01",
"n c #FD10FD0FFD0F",
"m c #FD5BFD88FD5B",
"M c #FE05FE04FE04",
"N c None",
/* pixels */
"NNNNNNNNNNNNNNNNNNNNNNNNNNNNNNNNNNNNNNNNNNNNNNNNNNNNNNNNNNNNNNNNNNNNNNNNNNNNNNNNNNNNNNNNNNNNNNNNNNNNNNNNNNNNNNNNNNNNNNNNNNNNNNNN",
"NNNNNNNNNNNNNNNNNNNNNNNNNNNNNNNNNNNNNNNNNNNNNNNNNNNNNNNNNNNNNNNNNNNNNNNNNNNNNNNNNNNNNNNNNNNNNNNNNNNNNNNNNNNNNNNNNNNNNNNNNNNNNNNN",
"NNNNNNNNNNNNNNNNNNNNNNNNNNNNNNNNNNNNNNNNNNNNNNNNNNNNNNNNNNNNNNNNNNNNNNNNNNNNNNNNNNNNNNNNNNNNNNNNNNNNNNNNNNNNNNNNNNNNNNNNNNNNNNNN",
"NNNNNNNNNNNNNNNNNNNNNNNNNNNNNNNNNNNNNNNNNNNNNNNNNNNNNNNNNNNNNNNNNNNNNNNNNNNNNNNNNNNNNNNNNNNNNNNNNNNNNNNNNNNNNNNNNNNNNNNNNNNNNNNN",
"NNNNNNNNNNNNNNNNNNNNNNNNNNNNNNNNNNNNNNNNNNNNNNNNNNNNNNNNNNNNNNNNNNNNNNNNNNNNNNNNNNNNNNNNNNNNNNNNNNNNNNNNNNNNNNNNNNNNNNNNNNNNNNNN",
"NNNNNNNNNNNNNNNNNNNNNNNNNNNNNNNNNNNNNNNNNNNNNNNNNNNNNNNNNNNNNNNNNNNNNNNNNNNNNNNNNNNNNNNNNNNNNNNNNNNNNNNNNNNNNNNNNNNNNNNNNNNNNNNN",
"NNNNNNNNNNNNNNNNNNNNNNNNNNNNNNNNNNNNNNNNNNNNNNNNNNNNNNNNNmmmmmmmmmmmmmmmmNNNNNNNNNNNNNNNNNNNNNNNNNNNNNNNNNNNNNNNNNNNNNNNNNNNNNNN",
"NNNNNNNNNNNNNNNNNNNNNNNNNNNNNNNNNNNNNNNNNNNNNNNNNNNNmmmmmmmmmmmmmmmmmmmmmmmmmmNNNNNNNNNNNNNNNNNNNNNNNNNNNNNNNNNNNNNNNNNNNNNNNNNN",
"NNNNNNNNNNNNNNNNNNNNNNNNNNNNNNNNNNNNNNNNNNNNNNNNmmmmmmmmmmmmmmmmmmmmmmmmmmmmmmmmmmNNNNNNNNNNNNNNNNNNNNNNNNNNNNNNNNNNNNNNNNNNNNNN",
"NNNNNNNNNNNNNNNNNNNNNNNNNNNNNNNNNNNNNNNNNNNNNmmmmmmmmmmmmmlNNNNNbmmmmmmmmmmmmmmmmmmmmNNNNNNNNNNNNNNNNNNNNNNNNNNNNNNNNNNNNNNNNNNN",
"NNNNNNNNNNNNNNNNNNNNNNNNNNNNNNNNNNNNNNNNNNNmmmmmmmmlNNNNNNNNNNNNNNNNbmmmmmmmmmmmmmmmmmmNNNNNNNNNNNNNNNNNNNNNNNNNNNNNNNNNNNNNNNNN",
"NNNNNNNNNNNNNNNNNNNNNNNNNNNNNNNNNNNNNNNNmmmmmmmmmNNNNNNNNNNNNNNNNNNNNNmmmmmmmmmmmmmmmmmmmmNNNNNNNNNNNNNNNNNNNNNNNNNNNNNNNNNNNNNN",
"NNNNNNNNNNNNNNNNNNNNNNNNNNNNNNNNNNNNNNmmmmmmmmmmmpNNNNNNNNNNNNNNNNNN :mmmmmmmmmmmmmmmmmmmmmmNNNNNNNNNNNNNNNNNNNNNNNNNNNNNNNNNNNN",
"NNNNNNNNNNNNNNNNNNNNNNNNNNNNNNNNNNNNNmmmmmmmmmmmmmpNNNNNNNNNNNNNNNNNNnmmmmmmmmmmmmmmmmmmmmmmmNNNNNNNNNNNNNNNNNNNNNNNNNNNNNNNNNNN",
"NNNNNNNNNNNNNNNNNNNNNNNNNNNNNNNNNNNmmmmmmmmmmmmmmmmpNNNNNNNNNNNNNNNN<mmmmmmmmmmmmmmmmmmmmmmmmmmNNNNNNNNNNNNNNNNNNNNNNNNNNNNNNNNN",
"NNNNNNNNNNNNNNNNNNNNNNNNNNNNNNNNNmmmmmmp<N*emmmmmmmmbNNNNNNNNNNNNNNNmmmmmmmmmmmmmmmmmmmmmmmmmmmmmNNNNNNNNNNNNNNNNNNNNNNNNNNNNNNN",
"NNNNNNNNNNNNNNNNNNNNNNNNNNNNNNNNmmmmmpNNNN  +emmmmmmmbNNNNNNNNNNNNNNmmmmmmmmmmmmmmmmmmmmmmmmmmmmmmNNNNNNNNNNNNNNNNNNNNNNNNNNNNNN",
"NNNNNNNNNNNNNNNNNNNNNNNNNNNNNNNmmmmmNNNNNNN  X3nmmmmmmNNNNNNNNNNNNNbmmmmmmmmmmmmmmmmmmbpeeepmmmmmmmNNNNNNNNNNNNNNNNNNNNNNNNNNNNN",
"NNNNNNNNNNNNNNNNNNNNNNNNNNNNNmmmmmeNNNNNNNNN   *mmmmmmNNNNNNNNNNNNbmmmmmmmmmmmmmmmmmm1X.  NNNN6nmmmmmNNNNNNNNNNNNNNNNNNNNNNNNNNN",
"NNNNNNNNNNNNNNNNNNNNNNNNNNNNmmmmbNNNNNNNNbmk=N .emmmmmNNNNNNNNNNmmmmmmmmmmmmmmmmmmmm2.    NNNNNNNmmmmmNNNNNNNNNNNNNNNNNNNNNNNNNN",
"NNNNNNNNNNNNNNNNNNNNNNNNNNNmmmmeNNNNNNNemmmmm2N ObbmmNNNNNNNNMMbmmmme#2mmmmmmmmmmmm2. NNNNNNNNNNNmbNbmmNNNNNNNNNNNNNNNNNNNNNNNNN",
"NNNNNNNNNNNNNNNNNNNNNNNNNNmmmmNNNNNNNNbmmmNNbmp<pbmmmNNNNNNmMMMMmmm3. $mmmmmmmmmmbbNNNNNebNNNNNNNNNNNbmmNNNNNNNNNNNNNNNNNNNNNNNN",
"NNNNNNNNNNNNNNNNNNNNNNNNNmmmkNNNNNNbbmmmmmnNNbmmmmmmmbNNNNmmbMMMmmn<o.#bmmmmmmmmmp$NNNNpmmNNNNNNNNNNNNmmmNNNNNNNNNNNNNNNNNNNNNNN",
"NNNNNNNNNNNNNNNNNNNNNNNNmmmeNNNNbbmmmmmmmbnnbbmmmmmmmmNNNmmmMMbMmmnbbbbmmmmmmmmm2NNNNNNbmmNNNNNNNNNNNNNlmmNNNNNNNNNNNNNNNNNNNNNN",
"NNNNNNNNNNNNNNNNNNNNNNNmmmpNNN6mmmnmnmn5NNbmmmnmmnmnmmNNbMMMbMMMmmmmmnmmnmmmmnmn<NNNNNNmmmmNNNNNNNNNNNNNmmmNNNNNNNNNNNNNNNNNNNNN",
"NNNNNNNNNNNNNNNNNNNNNNmmnpNNNNmmnmmmnn:NNNkmnnmnmnmmnmmmbMbMbMbMmmmmmnnmmnnnbnnmbNNNNNNmmmmbNNNNNNNNNNNNNbmnNNNNNNNNNNNNNNNNNNNN",
"NNNNNNNNNNNNNNNNNNNNNmbmeNNNNennmnnnnpNNNNN=ennnmnnmmmnnMMbMMMbMmmmmnnnnnnmb:bmmmNNNNNNnmjNNNNNNNNNNNNNNNNmlmNNNNNNNNNNNNNNNNNNN",
"NNNNNNNNNNNNNNNNNNNNbmbbNNNNNNbnnnmmn;NNNNNN.*kmnnnnnnnnbMbMbMMbmmmmnnnnnnnkX=nmmbmmmbbnbNNNNNNNNNNNNNNNNNbbmmNNNNNNNNNNNNNNNNNN",
"NNNNNNNNNNNNNNNNNNNbnnbNNNNNNNN;ebbmbNNNNNNN  +bnnnnnnnnbMbMMbMbmnnnnnnnnnmpX 3mnnNpmmmm2NNNNNNNNNNNNNNNNNNbmmNNNNNNNNNNNNNNNNNN",
"NNNNNNNNNNNNNNNNNNNmmbNNNNNNNNNNNbbm2NNNNNNNN  1nnnnnnnnMbMbbMbMnnnnnnnnn2NN. $bmpNNNpb3NNNNNNNNNNNNNNNNNNNNnmmNNNNNNNNNNNNNNNNN",
"NNNNNNNNNNNNNNNNNNbmbeNNNNNNNNNN.ebbNNNNNNNNNN -nnnnnnnnbMMbMbMbnnnnnnnnn;:0NNNNNNNNNNNNNNNNNNNNNNNNNNNNNNNNNnmmNNNNNNNNNNNNNNNN",
"NNNNNNNNNNNNNNNNNbnmbNNNNNNNNNNNN=pNNNNNNNNNNNN3nnnnnnnnbMbbMMbbnnnnnnnnnknkNNNNNNNNNNNNNNNNNNNNNNNNNNNNNNNNNpmmmNNNNNNNNNNNNNNN",
"NNNNNNNNNNNNNNNNNbmbNNNNNNNNNNNNNNNNNNNNNNNNp2N+7bMMbbbbMbMbMbbMbmnnmbnbmnbb<<NNNNNNNNNNNNNNNNNNNNNNNNNNNNNNNNbmmNNNNNNNNNNNNNNN",
"NNNNNNNNNNNNNNNNbmbeNNNNNNNNNNNNNNNNNNNNNNNmbmeN&bbbMbMbbbMbbbbMmbbnbmbmbbbmnbNNNNNNNNNNNNNNNNNNNNNNNNNNNNNNNNNmbbNNNNNNNNNNNNNN",
"NNNNNNNNNNNNNNNNmbbNNNNNNNNNNNNNNNNNNNNNNNNmbmbN*bbMbbbMbMbbbMMbbnnbnbbnbnmkNNNNNNNNNNNNNNNNNNNNNNNNNNNNNNNNNNNpbMbNNNNNNNNNNNNN",
"NNNNNNNNNNNNNNNbbbNNNNNNNNNNNNNNNNNNNNNNNNNbmbb6qbMbbMbbMbbbbbbMbbbmbbmbmbbNNNNNNNNNNNNNNNNNNNNNNNNNNNNNNNNNNNNNbmbNNNNNNNNNNNNN",
"NNNNNNNNNNNNNNbbbpNNNNNNNNNNNNNNNNNNNNNNNNbmbbbbbMbbbbbbbbbbbMbbnnbbmbbmbbbjNNNNNNNNNNNNNNNNNNNNNNNNNNNNNNNNNNNNpbbbNNNNNNNNNNNN",
"NNNNNNNNNNNNNNbbmNNNNNNNNNNNNNNNNNNNNNNNNbbbbbmbbbbbbbbbbbMbbbbbbbbbbbbbbbbNNNNNNNNNNNNNNNNNNNNNNNNNNNNNNNNNNNNNNbbbNNNNNNNNNNNN",
"NNNNNNNNNNNNNpbbpNNNNNNNNNNNNNNNNNNNNNbbbbbbbbbbbbMbbbbbbbbbbbbbbbbnbbbbbeNNNNNNNNbNNNNbbNNNNNNNNNNNNNNNNNNNNNNNNpbbbNNNNNNNNNNN",
"NNNNNNNNNNNNNbbbNNNNNNNNNNNNNNNNNNNNNbbbbbbbbbbbbbbbbbbbbbbbbbbbbbbbbbbbpNNNNNNNbbbbbNNbbNNNNNNNNNNNNNNNNNNNNNNNNNbbbNNNNNNNNNNN",
"NNNNNNNNNNNNNbbeNNNNNNNNNNNNNNNNNNNNjbbbbbbbbbbbbbbbbbbbbbkbbbkbbbbbbbbb3NNNNNNbbbbbbNNNbbNNNNNNNNNNNNNNNNNNNNNNNNpbbbNNNNNNNNNN",
"NNNNNNNNNNNNbbbNNNNNNNNNNNNNNNNNNNbbbbbbbbbbbbbbbbkbbbbbbbbbbbbbbbbbbbbkNNNNNNbbbbbbjbNNbpNNbNNNNNNNNNNNNNNNNNNNNN3bbbNNNNNNNNNN",
"NNNNNNNNNNNNbbbNNNNNNNNNNNNNNNNNNbbbbbbbbbbbbbbpbbbkbbbbbbbbbbbbbbbbbbbbNNNNNbbbbbbbbbbbbbNpbbNNNNNNNNNNNNNNNNNNNNNbbbNNNNNNNNNN",
"NNNNNNNNNNNbbbeNNNNNNNNNNNNNNNNNNbbbbbbbbbbbbbbbbbbbbkbbbbbbbbbbbbbbbbbbppNNbmbbbbbbbbbbbbbbbbbbNNNNNNNNNNNNNNNNNNNpbbbNNNNNNNNN",
"NNNNNNNNNNNbbbNNNNNNNNNNNNNNNNNNbbbbbbbjbbbbbbpbbkbbbbbbkbbkbbkbbbbbjbbbbbbbpNNNNN;ppbbbbbbbpbbbbbNNNNNNNNNNNNNNNNN3kbbNNNNNNNNN",
"NNNNNNNNNNNbbpNNNNNNNNNNNNNNNNNpbbbbbbbbbbbbbbbbbbbbbkbbbbbbbkbbjbbjbbbjbbpNNNNNN  N;bbbbkkbbbbbbbbNNNNNNNNNNNNNNNNNbbkNNNNNNNNN",
"NNNNNNNNNNpbbeNNNNNNNNNNNNNNNNbppbpbpbjbpbbpbbbbkbbbbkkbbbbkbbbxbbbbbbbbbpNNNNNNNNN  %6bbbbeepbbbbNNNNNNNNNNNNNNNNNNpbbbNNNNNNNN",
"NNNNNNNNNNpbbNNNNNNNNNNNNNNNNpbbbbbbbbbbbbbbbpbbbbkbkbbbkkbbbbkbjbbbjbjbpNNNNNNNNNNNN O6bp;NNNNNNNNNNNNNNNNNNNNNNNNN5bbbNNNNNNNN",
"NNNNNNNNNNbbpNNNNNNNNNNNNNNNNbbbbbbbpbbpkbbbbbbbbkbbjbkbbxbxbkbxbbbkbbbeNNNNNNNNNNNNNN N&&NNNNNNNNNNNNNNNNNNNNNNNNNNNbbbNNNNNNNN",
"NNNNNNNNNebbpNNNNNNNNNbbbNNNNbbppbbbbbbbbkkkbkkbbkbjbkkbxxkbxbbkbkbbpbpNNNNNNNNNNNNNNNNNNNNNNNNNNNNNNNNNNNNNNNNNNNNNNbbbpNNNNNNN",
"NNNNNNNNNpbjpNNNNNNNNNbbkbbNebpbbbppbpbpbbbkkbbbbkbbbjbbxbkMbxxbbjpbbb;NNNNNNNNNNNNNNNNNNNNNNNNNNNNNNNNNNNNNNbpNNNNNNppbbNNNNNNN",
"NNNNNNNNNjjbNNNNNNNNbbpbbjbkbbbbbbbbbbbbkbkbbkkkkbkbbbbjkbkkkxbkbjbbb6NNNNNNNNNNNNNNNNNNNNNNNNNNNNNNbNNNNNNNNbbbbNNNN6bbbNNNNNNN",
"NNNNNNNNNbbbNNNNNNjbbbbpbjljllllbjbkkbkbbkbkllllkbjbjbbjkMkkxxkMjbbjpNNNNNNNNNNNNNNNNNNNNNNNNNNNNNNNbpNNNNNNNNbbbppNN:jbbNNNNNNN",
"NNNNNNNNNjpbNNNNNjbbpbjbjbbbMllljbjbbkbkjbkbmlllbbkbbjbkkkkMkxkxbjbb2NNNNNNNNNNNNNNNNNNNNNNNNNNNNNNNbbNNNNNNNNNNNppbppbjbNNNNNNN",
"NNNNNNNN3bbbNNNNNbbjjbbbMbllllllbkbjkbjbbjMllllljbbjjbjbkMMlxkxljpbpNNNNNNNNNNNNNNNNNNNNNNNNNNNNNNNNpbbNNNNNNNNNNNbbbbkbppNNNNNN",
"NNNNNNNNebpbNNNNNbjjbjbplllllllljbjbkkbpbkblllllkjjjbjbjkkkxlxkxbbjeNNNNNNNNNNNNNNNNNNNNNNNNNNNNNNNNNpbNNNNNNNNNNNbpbjbjjbNNNNNN",
"NNNNNNNNpbpbNNNNNbbpbjbbpbpblllljkbjjbjjkjllllllkkkbkbkkbkkbxkxkbpb<NNNNNNNNNNNNNNNNNNNNNNNNNNNNNNNNNbbpNNNNNNNNNNjbbkjjbpNNNNNN",
"NNNNNNNNjbbjNNNNNpbj6:*pbjbjllllbjbjjbjbbjllllllbjkkkkkkkkkkkxkxbbkNNNNNNNNNNNNNNNNNNNNNNNNNNNNNNNNNNpjbNNNNNNNNNNjjjjbbbpNNNNNN",
"NNNNNNNNpppkeNNNNN%#. $bbjjjkkkjpbjbbjbjllllllllkkkkbkkblkkkkkkkpbpNNNNNNNNNNNNNNNNNNNNNNNNNNNNNNNNNNNbppNNNNNNNN2jbjbjjbjNNNNNN",
"NNNNNNNNpbjbjNNNNNN   &bjjbjkjbbbpbpjjjbjllkkjblkkbkkkjklkllxkkkbpeNNNNNNNNNNNNNNNNNNNNNNNNNNNNNNNNNNNpjbNNNNNNNNjjbjjbjjpNNNNNN",
"NNNNNNNNpbkbppNNNNNN  ;bjjjjjbkjkkjjkbjjlkljklljkbkkkkkklkkkkkkkpb7NNNNNNNNNNNNNNNNNNNNNNNNNNNNNNNNNNN3bjpNNNNNNjjbpbjpbpjNNNNNN",
"NNNNNNNNpjpbjbp6NNNNNN&3ebbjjjkjbjbpbpjbljljljljkkkkkkkkkkkkkkkkbppNNNNNNNNNNNNNNNNNNNNNNNNNNNNNNNNNNNNpbpNNNNNjbjjkpbbpbbNNNNNN",
"NNNNNNNNpbpbpbpbp6NNNNN &jjjjbjjppbbpbpjjjlljjllkpkkkkkkkkkkkkkkpbpNNNNNNNNNNNNNNNNNNNNNNNNNNNNNNNNNNNNNbbNNNpjjjjbpbppjpbNNNNNN",
"NNNNNNNNppkpbpjjbbpp6NN Oejjjjjj:>ppjjkjjljjjljjpbkkkkjjkkkkkkkkbpbNNNNNNNNNNNNNNNNNNNNNNNNNNNNNNNNNNNNN3pNNpjbjjpbjpbjbjpNNNNNN",
"NNNNNNNNppjppppbpbbpbp*N.2pbpbe& .$6ppbpbpkppppbpbjjpbjjpbjkjkjjpppbNNNNNNNNNNNNNNNNNNNNNNNNNNNNNNNNNNNNNNNN66pppbkpbpbbpkNNNNNN",
"NNNNNNNNpbpbbbppbpppppp&N$ppp<#    X%===ebpbbbppjjjjjjjjjjjjjjjjpbppNNNNNNNNNNNNNNNNNNNNNNNNNNNNNNNNNNNNNNNNNNebkpjjppppkpNNNNNN",
"NNNNNNNNppppppbppppbpbpp<X@&+           *pppppbpjjjjjjjjjjjjjjjjbpbppNNNNNNNNNNNNNNNNNNNNNNNNNNNNNNNNNNNNNNNNNppjjjjpbpbkjNNNNNN",
"NNNNNNNNejbppbpppbpbppbpb3%.NNNNNNNN    .<bppbppjjjjjjjjjjjjjjjjppbpkjNNNNNNNNNNNNNNNNNNNNNNNNNNNNNNNNNNNNNNNebpjjjjpbppjpNNNNNN",
"NNNNNNNNeppppbpbpppbbpppjbe;NNNNNNNNNNN  OeppbpbjjjppjjjjjjjjjjjpbpjpbpNNNNNNNNNNNNNNNNNNNNNNNNNNNNNNNNNNNNNNjjkjjpbppppbpNNNNNN",
"NNNNNNNN6bbjpbppbppppjpbpppeNNNNNNNNNNNNN %eppppjppkjjpjpjjppjpjpppbpppjNNNNNNNNNNNNNNNNNNNNNNNNNNNNNNNNNNNNeppppjpbppbjpeNNNNNN",
"NNNNNNNN>jppppbpbppppppbpkpkNNNNNNNNNNNNNN $eppppjjppjjpjppjpjpjpjpjppjpjpppppkppjjNNNNNNNNNNNNNNNNNNNNNNNNNpppjpppppppppeNNNNNN",
"NNNNNNNN-pppppppppjppppkppppNNNNNNNNNNNNNNN %eppjppjjppjppjpjpjpppjppppjpjjjpjpjpjppNNNNNNNNNNNNNNNNNNNNNNN6jpjppbppbppjp3NNNNNN",
"NNNNNNNNNppjppkppppjppppppppNNNNNNNNNNNNNNN  $eppppkppjpjpjppjpjjppjpjjpjpjpjppjppjjNNNNNNNNNNNNNNNNNNNNNNNpjjppppppjppppNNNNNNN",
"NNNNNNNNNepppppppppppjkpppp5NNNNNNNNNNNNNNNN  O:pjpppppjppppppjpppjppppppjpjpppjppppNNNNNNNNNNNNNNNNNNNNNN6ppppjjpkjpppppNNNNNNN",
"NNNNNNNNNepppkppppjppppppppNNNNNNNNNNNNNNNNNN  .:ppppppppppppjppppjppppppppppppppppppNNNNNNNNNNNNNNNNNNNNNppjppppppppppppNNNNNNN",
"NNNNNNNNN<ppppppppppppppppeNNNNNNNNNNNNNNNNNNNN .#2epppppppjpppppppppppppppppppppppppNNNNNNNNNNNNNNNNNNNNNppppppppppppppeNNNNNNN",
"NNNNNNNNN=ppppppeppppppppe<NNNNNNNNNNNNNNNNNNNNN  .$3ppppppppppppppppppppppppppppppppNNNNNNNNNNNNNNNNNNNNqpppppppppppppp3NNNNNNN",
"NNNNNNNNNNppppepppppppppppNNNNNNNNNNNNNNNNNNNNNNN   X*epeppepppepppppppeppeppppppepppeNNNNNNNNNNNNNNNNNNNppppeppppppepppNNNNNNNN",
"NNNNNNNNNN6pepppeppepeppppNNNNNNNNNNNNNNNNNNNNNNNNN   %eeppeepppppeppeppqpppppippppippNNNNNNNNNNNNNNNNNN2pppppqpepppppppNNNNNNNN",
"NNNNNNNNNN:eppepepppeppeepNNNNNNNNNNNNNNNNNNNNNNNNNN   >ppeppepppppepeepepppqppqepeppeNNNNNNNNNNNNNNNNNN1pppeppqppeppep6NNNNNNNN",
"NNNNNNNNNN%qppepppeepeppee6NNNNNNNNNNNNNNNNNNNNNNNNNNN =eepppepeeeepepeppepepepepeppppNNNNNNNNNNNNNNNNNN6pppppepeppeppeNNNNNNNNN",
"NNNNNNNNNNN6peeeepeppepepeeNNNNNNNNNNNNNNNNNNNNNNNNNNNN;eppeepeppepepeeeepepepepepepeeNNNNNNNNNNNNNNNNNNeeeeeeepeppeepeNNNNNNNNN",
"NNNNNNNNNNN:epepeeeeepepepeNNNNNNNNNNNNNNNNNNNNNNNNNNNN5eeeppeeeepepeppepeeeeepepepeeeNNNNNNNNNNNNNNNNNN7epeeppeepeepe3NNNNNNNNN",
"NNNNNNNNNNN$eeeeeeeeeeeeeeeeNNNNNNNNNNNNNNNNNNNNNNNNNN;eeeeeeeeeeeeeeeeeeeeeepeeeeeepeNNNNNNNNNNNNNNNNNNeeeeeeeeeeeeepNNNNNNNNNN",
"NNNNNNNNNNNN2eeeeeeeeeeeeeeeNNNNNNNNNNNNNNNNNNNNNNNNNN6eeeeeeeeeeeeeeeeeeeeeeeeeeeeeeeNNNNNNNNNNNNNNNNNN7eeeeeeeeeeee6NNNNNNNNNN",
"NNNNNNNNNNNN*eeeeeeeeeeeeeeeeNNNNNNNNNNNNNNNNNNNNNNNNNeeeeeeeeeeeeeeeeeeeeeeeeeeeeeeeeNNNNNNNNNNNNNNNNNN0eeeeeeeeeeee:NNNNNNNNNN",
"NNNNNNNNNNNNN6eeeeeeeeeeeeeeeeNNNNNNNNNNNNNNNNNNNNNNNNeeeeeeeeeeeeeeeeeeeeeeeeeeeeeeeeNNNNNNNNNNNNNNNNNN6eeee6eeeeeeeNNNNNNNNNNN",
"NNNNNNNNNNNNN=9eeeee6ee0eeeeeeeNNNNNNNNNNNNNNNNNNNNNNN0eeeeeee0eeeeeeeee0ee0eeeeeeeeeeNNNNNNNNNNNNNNNNN:eeeeeeeeeeee<NNNNNNNNNNN",
"NNNNNNNNNNNNNO3peeee6eeeeee6eee9NNNNNNNNNNNNNNNNNNNNNN0ee00eeee7eeeee0eeeee0ee0e6eeeeeNNNNNNNNNNNNNNNNNeeeeeeeee6eeeNNNNNNNNNNNN",
"NNNNNNNNNNNNNN*eee0eeeee8eee9eeeeNNNNNNNNNNNNNNNNNNNNN7eeee0e7ee7ee7e0e00e0e0ee0eee6e6NNNNNNNNNNNNNNNNeeeee6eeeeeee1NNNNNNNNNNNN",
"NNNNNNNNNNNNNNN2e67e0eeeeeeeeee9eeNNNNNNNNNNNNNNNNNNN=ee7eee7eeeeeee0ee0e07ee0e09eeeeeNNNNNNNNNNNNNNN6e6e66e6eeeee6NNNNNNNNNNNNN",
"NNNNNNNNNNNNNN %00eee6e6e6e7e9eee6NNNNNNNNNNNNNNNNNNN2ee07e7e79ee7e6e0000e000e7e9ee6eeNNNNNNNNNNNNNNeeeeeeeee6e6e6-NNNNNNNNNNNNN",
"NNNNNNNNNNNNNNN.:ee0e0007ee6e6e666NNNNNNNNNNNNNNNNNN:000e0e7ee6e70e70e0e00e00ee0ee6e9e3NNNNNNNNNNNN669eee6ee6ee662NNNNNNNNNNNNNN",
"NNNNNNNNNNNNNNNNO3007000e76ee68eeeeNNNNNNNNNNNNNNNN200e000009ee70000000000000700e6ee6e6NNNNNNNNNNNN6eee66ee6ee6eeNNNNNNNNNNNNNNN",
"NNNNNNNNNNNNNNNN *00000000e78ee6eeeNNNNNNNNNNNNNNN7000000000e99e000000000000000066e6e7eNNNNNNNNNNNN36e6e6ee6e6e6;NNNNNNNNNNNNNNN",
"NNNNNNNNNNNNNNNNN.:00000007e6e6e66eNNNNNNNNNNNNNN000000000009e690000000000000000ee6e6e76NNNNNNNNNNN3e7e6e6ee6ee2NNNNNNNNNNNNNNNN",
"NNNNNNNNNNNNNNNNN O1e8ee96ee686ee86NNNNNNNNNNNNNeee696e999ee899e9e9e96e79ee9e9e9ee9e9ee6NNNNNNNNNNN6e96ee6ee796NNNNNNNNNNNNNNNNN",
"NNNNNNNNNNNNNNNNNN $66666e666e666e6NNNNNNNNNNNNN666e6e888869e97769677e67896869966968666eNNNNNNNNNN696e666e6676=NNNNNNNNNNNNNNNNN",
"NNNNNNNNNNNNNNNNNNN *6969e8e999e88eNNNNNNNNNNNNN6998888e9998688899877e77889899e7669879886NNNNNNNN<99779ee66e6-NNNNNNNNNNNNNNNNNN",
"NNNNNNNNNNNNNNNNNNN  =6e66669666866NNNNNNNNNNNN<67778766888889979989667788777799887777796NNNNNNN1e9799666696<NNNNNNNNNNNNNNNNNNN",
"NNNNNNNNNNNNNNNNNNNN o<699967867896NNNNNNNNNNNN66888787786889699886877676967999687786e666NNNNNN668889786e66<NNNNNNNNNNNNNNNNNNNN",
"NNNNNNNNNNNNNNNNNNNNN o>66669668666NNNNNNNNNNN<766876676888699858868687699765969898686666NNNN6667767966866<NNNNNNNNNNNNNNNNNNNNN",
"NNNNNNNNNNNNNNNNNNNNNN o>6668668666NNNNNNNNNN166867666689669665886666886966999596866e6663N396699666686678:NNNNNNNNNNNNNNNNNNNNNN",
"NNNNNNNNNNNNNNNNNNNNNNN o>666666666NNNNNNNNN266666666666666666856666666666669595666666669668695566666666<NNNNNNNNNNNNNNNNNNNNNNN",
"NNNNNNNNNNNNNNNNNNNNNNNN o:66666584NNNNNNNNN55586666666666668588666666658589599866666666588585656666663>NNNNNNNNNNNNNNNNNNNNNNNN",
"NNNNNNNNNNNNNNNNNNNNNNNNN o:36668555NNNNNNN59585666356563666853866655666954538395666366685558995663666:NNNNNNNNNNNNNNNNNNNNNNNNN",
"NNNNNNNNNNNNNNNNNNNNNNNNNN .&56385845NNNNN255585556666366e5685556666655585859555666656565548358965663>NNNNNNNNNNNNNNNNNNNNNNNNNN",
"NNNNNNNNNNNNNNNNNNNNNNNNNNN  &1648386535NN5385555636737633733848365556553845555736365555855585355663&NNNNNNNNNNNNNNNNNNNNNNNNNNN",
"NNNNNNNNNNNNNNNNNNNNNNNNNNNN  O:455558558583553555655575635555845555555585555555556355658555555855<$NNNNNNNNNNNNNNNNNNNNNNNNNNNN",
"NNNNNNNNNNNNNNNNNNNNNNNNNNNNN  o=5553383356558845535553556555353555555553555583535683635355435533;oNNNNNNNNNNNNNNNNNNNNNNNNNNNNN",
"NNNNNNNNNNNNNNNNNNNNNNNNNNNNNN   $:4555853535353353655363366553855535535843835658363306565556351&NNNNNNNNNNNNNNNNNNNNNNNNNNNNNNN",
"NNNNNNNNNNNNNNNNNNNNNNNNNNNNNNNN  X*1553555555355636356356355554555535533553555355535353535355*oNNNNNNNNNNNNNNNNNNNNNNNNNNNNNNNN",
"NNNNNNNNNNNNNNNNNNNNNNNNNNNNNNNNNN  O;553553535544353544444535533553553355355535353355535444;+ NNNNNNNNNNNNNNNNNNNNNNNNNNNNNNNNN",
"NNNNNNNNNNNNNNNNNNNNNNNNNNNNNNNNNNN  .+;33553553445353444443353553353535535533353555535333;#. NNNNNNNNNNNNNNNNNNNNNNNNNNNNNNNNNN",
"NNNNNNNNNNNNNNNNNNNNNNNNNNNNNNNNNNNNN  .+=1535553453434424535335553553333333533535263353;#. NNNNNNNNNNNNNNNNNNNNNNNNNNNNNNNNNNNN",
"NNNNNNNNNNNNNNNNNNNNNNNNNNNNNNNNNNNNNN    O&<2234335333434333535225235355353335335332<*+. NNNNNNNNNNNNNNNNNNNNNNNNNNNNNNNNNNNNNN",
"NNNNNNNNNNNNNNNNNNNNNNNNNNNNNNNNNNNNNNNN    X#*<23344422324333535235253324333333332=#X  NNNNNNNNNNNNNNNNNNNNNNNNNNNNNNNNNNNNNNNN",
"NNNNNNNNNNNNNNNNNNNNNNNNNNNNNNNNNNNNNNNNNN     X#*<1223434432523523232254254331<*#o.  NNNNNNNNNNNNNNNNNNNNNNNNNNNNNNNNNNNNNNNNNN",
"NNNNNNNNNNNNNNNNNNNNNNNNNNNNNNNNNNNNNNNNNNNNN     .o#*:11122323323252252<1<;*%oX   NNNNNNNNNNNNNNNNNNNNNNNNNNNNNNNNNNNNNNNNNNNNN",
"NNNNNNNNNNNNNNNNNNNNNNNNNNNNNNNNNNNNNNNNNNNNNNNN      ..oO%&**********&$OOX.     NNNNNNNNNNNNNNNNNNNNNNNNNNNNNNNNNNNNNNNNNNNNNNN",
"NNNNNNNNNNNNNNNNNNNNNNNNNNNNNNNNNNNNNNNNNNNNNNNNNNN                          NNNNNNNNNNNNNNNNNNNNNNNNNNNNNNNNNNNNNNNNNNNNNNNNNNN",
"NNNNNNNNNNNNNNNNNNNNNNNNNNNNNNNNNNNNNNNNNNNNNNNNNNNNNNNNN              NNNNNNNNNNNNNNNNNNNNNNNNNNNNNNNNNNNNNNNNNNNNNNNNNNNNNNNNN",
"NNNNNNNNNNNNNNNNNNNNNNNNNNNNNNNNNNNNNNNNNNNNNNNNNNNNNNNNNNNNNNNNNNNNNNNNNNNNNNNNNNNNNNNNNNNNNNNNNNNNNNNNNNNNNNNNNNNNNNNNNNNNNNNN",
"NNNNNNNNNNNNNNNNNNNNNNNNNNNNNNNNNNNNNNNNNNNNNNNNNNNNNNNNNNNNNNNNNNNNNNNNNNNNNNNNNNNNNNNNNNNNNNNNNNNNNNNNNNNNNNNNNNNNNNNNNNNNNNNN",
"NNNNNNNNNNNNNNNNNNNNNNNNNNNNNNNNNNNNNNNNNNNNNNNNNNNNNNNNNNNNNNNNNNNNNNNNNNNNNNNNNNNNNNNNNNNNNNNNNNNNNNNNNNNNNNNNNNNNNNNNNNNNNNNN",
"NNNNNNNNNNNNNNNNNNNNNNNNNNNNNNNNNNNNNNNNNNNNNNNNNNNNNNNNNNNNNNNNNNNNNNNNNNNNNNNNNNNNNNNNNNNNNNNNNNNNNNNNNNNNNNNNNNNNNNNNNNNNNNNN",
"NNNNNNNNNNNNNNNNNNNNNNNNNNNNNNNNNNNNNNNNNNNNNNNNNNNNNNNNNNNNNNNNNNNNNNNNNNNNNNNNNNNNNNNNNNNNNNNNNNNNNNNNNNNNNNNNNNNNNNNNNNNNNNNN",
"NNNNNNNNNNNNNNNNNNNNNNNNNNNNNNNNNNNNNNNNNNNNNNNNNNNNNNNNNNNNNNNNNNNNNNNNNNNNNNNNNNNNNNNNNNNNNNNNNNNNNNNNNNNNNNNNNNNNNNNNNNNNNNNN"
};
