/* XPM */
static char *ccc_large[] = {
/* columns rows colors chars-per-pixel */
"128 128 49 1",
"  c #000100010001",
". c #211C211C211C",
"X c #35AE35AE35AE",
"o c #498F498F498F",
"O c #645364536453",
"+ c #7A6E7A6E7A6E",
"@ c #8C4E8C4E8C4E",
"# c #989298929892",
"$ c #AAD6A921A921",
"% c #B78AB78AB78A",
"& c #BEAABEAABEAA",
"* c #CC4ACC4ACC4A",
"= c #D099CE7CCE7C",
"- c #D497D497D497",
"; c #DBB2DBB2DBB2",
": c #DD4EDED9DD4E",
"> c #E1C0E1C0E1C0",
", c #E46CE3C6E46C",
"< c #E6E1E6E1E6E1",
"1 c #EAB6EAB6EAB6",
"2 c #EEDDEEDDEEDD",
"3 c #F246F246F246",
"4 c #F313F324F2F6",
"5 c #F47FF47FF47F",
"6 c #F59EF558F558",
"7 c #F59EF59EF558",
"8 c #F558F558F59E",
"9 c #F558F59EF59E",
"0 c #F6A4F6A4F6A4",
"q c #F794F75AF75A",
"w c #F75AF794F75A",
"e c #F794F794F75A",
"r c #F794F75AF794",
"t c #F75AF794F794",
"y c #F86FF86FF83A",
"u c #F937F922F91C",
"i c #F9C1F9C1F9C1",
"p c #FA94FA6CFA6C",
"a c #FA6CFA94FA6C",
"s c #FA94FA94FA6C",
"d c #FA6CFA6CFA94",
"f c #FA94FA6CFA94",
"g c #FA6CFA94FA94",
"h c #FB08FB08FB08",
"j c #FC0AFC0EFC0A",
"k c #FCEEFCEEFCEC",
"l c #FD88FD5BFD5B",
"z c #FD88FD88FD88",
"x c None",
/* pixels */
"xxxxxxxxxxxxxxxxxxxxxxxxxxxxxxxxxxxxxxxxxxxxxxxxxxxxxxxxxxxxxxxxxxxxxxxxxxxxxxxxxxxxxxxxxxxxxxxxxxxxxxxxxxxxxxxxxxxxxxxxxxxxxxxx",
"xxxxxxxxxxxxxxxxxxxxxxxxxxxxxxxxxxxxxxxxxxxxxxxxxxxxxxxxxxxxxxxxxxxxxxxxxxxxxxxxxxxxxxxxxxxxxxxxxxxxxxxxxxxxxxxxxxxxxxxxxxxxxxxx",
"xxxxxxxxxxxxxxxxxxxxxxxxxxxxxxxxxxxxxxxxxxxxxxxxxxxxxxxxxxxxxxxxxxxxxxxxxxxxxxxxxxxxxxxxxxxxxxxxxxxxxxxxxxxxxxxxxxxxxxxxxxxxxxxx",
"xxxxxxxxxxxxxxxxxxxxxxxxxxxxxxxxxxxxxxxxxxxxxxxxxxxxxxxxxxxxxxxxxxxxxxxxxxxxxxxxxxxxxxxxxxxxxxxxxxxxxxxxxxxxxxxxxxxxxxxxxxxxxxxx",
"xxxxxxxxxxxxxxxxxxxxxxxxxxxxxxxxxxxxxxxxxxxxxxxxxxxxxxxxxxxxxxxxxxxxxxxxxxxxxxxxxxxxxxxxxxxxxxxxxxxxxxxxxxxxxxxxxxxxxxxxxxxxxxxx",
"xxxxxxxxxxxxxxxxxxxxxxxxxxxxxxxxxxxxxxxxxxxxxxxxxxxxxxxxxxxxxxxxxxxxxxxxxxxxxxxxxxxxxxxxxxxxxxxxxxxxxxxxxxxxxxxxxxxxxxxxxxxxxxxx",
"xxxxxxxxxxxxxxxxxxxxxxxxxxxxxxxxxxxxxxxxxxxxxxxxxxxxxxxxxxxxxxxxxxxxxxxxxxxxxxxxxxxxxxxxxxxxxxxxxxxxxxxxxxxxxxxxxxxxxxxxxxxxxxxx",
"xxxxxxxxxxxxxxxxxxxxxxxxxxxxxxxxxxxxxxxxxxxxxxxxxxxxxxxxxxxxxxxxxxxxxxxxxxxxxxxxxxxxxxxxxxxxxxxxxxxxxxxxxxxxxxxxxxxxxxxxxxxxxxxx",
"xxxxxxxxxxxxxxxxxxxxxxxxxxxxxxxxxxxxxxxxxxxxxxxxxxxxxxxxxxxxxxxxxxxxxxxxxxxxxxxxxxxxxxxxxxxxxxxxxxxxxxxxxxxxxxxxxxxxxxxxxxxxxxxx",
"xxxxxxxxxxxxxxxxxxxxxxxxxxxxxxxxxxxxxxxxxxxxxxxxxxxxxxxxxxxxxxxxxxxxxxxxxxxxxxxxxxxxxxxxxxxxxxxxxxxxxxxxxxxxxxxxxxxxxxxxxxxxxxxx",
"xxxxxxxxxxxxxxxxxxxxxxxxxxxxxxxxxxxxxxxxxxxxxxxxxxxxxxxxxxxxxxxxxxxxxxxxxxxxxxxxxxxxxxxxxxxxxxxxxxxxxxxxxxxxxxxxxxxxxxxxxxxxxxxx",
"xxxxxxxxxxxxxxxxxxxxxxxxxxxxxxxxxxxxxxxxxxxxxxxxxxxxxxxxxxxxxxxxxxxxxxxxxxxxxxxxxxxxxxxxxxxxxxxxxxxxxxxxxxxxxxxxxxxxxxxxxxxxxxxx",
"xxxxxxxxxxxxxxxxxxxxxxxxxxxxxxxxxxxxxxxxxxxxxxxxxxxxxxxxxxxxxxxxxxxxxxxxxxxxxxxxxxxxxxxxxxxxxxxxxxxxxxxxxxxxxxxxxxxxxxxxxxxxxxxx",
"xxxxxxxxxxxxxxxxxxxxxxxxxxxxxxxxxxxxxxxxxxxxxxxxxxxxxxxxxxxxxxxxxxxxxxxxxxxxxxxxxxxxxxxxxxxxxxxxxxxxxxxxxxxxxxxxxxxxxxxxxxxxxxxx",
"xxxxxxxxxxxxxxxxxxxxxxxxxxxxxxxxxxxxxxxxxxxxxxxxxxxxxxxxxxxxxxxxxxxxxxxxxxxxxxxxxxxxxxxxxxxxxxxxxxxxxxxxxxxxxxxxxxxxxxxxxxxxxxxx",
"xxxxxxxxxxxxxxxxxxxxxxxxxxxxxxxxxxxxxxxxxxxxxxxxxxxxxxxxxxxxxxxxxxxxxxxxxxxxxxxxxxxxxxxxxxxxxxxxxxxxxxxxxxxxxxxxxxxxxxxxxxxxxxxx",
"xxxxxxxxxxxxxxxxxxxxxxxxxxxxxxxxxxxxxxxxxxxxxxxxxxxxxxxxxxxxxxxxxxxxxxxxxxxxxxxxxxxxxxxxxxxxxxxxxxxxxxxxxxxxxxxxxxxxxxxxxxxxxxxx",
"xxxxxxxxxxxxxxxxxxxxxxxxxxxxxxxxxxxxxxxxxxxxxxxxxxxxxxxxxxxxxxxxxxxxxxxxxxxxxxxxxxxxxxxxxxxxxxxxxxxxxxxxxxxxxxxxxxxxxxxxxxxxxxxx",
"xxxxxxxxxxxxxxxxxxxxxxxxxxxxxxxxxxxxxxxxxxxxxxxxxxxxxxxxxxxxxxxxxxxxxxxxxxxxxxxxxxxxxxxxxxxxxxxxxxxxxxxxxxxxxxxxxxxxxxxxxxxxxxxx",
"xxxxxxxxxxxxxxxxxxxxxxxxxxxxxxxxxxxxxxxxxxxxxxxxxxxxxxxxxxxxxxxxxxxxxxxxxxxxxxxxxxxxxxxxxxxxxxxxxxxxxxxxxxxxxxxxxxxxxxxxxxxxxxxx",
"xxxxxxxxxxxxxxxxxxxxxxxxxxxxxxxxxxxxxxxxxxxxxxxxxxxxxxxxxxxxxxxxxxxxxxxxxxxxxxxxxxxxxxxxxxxxxxxxxxxxxxxxxxxxxxxxxxxxxxxxxxxxxxxx",
"xxxxxxxxxxxxxxxxxxxxxxxxxxxxxxxxxxxxxxxxxxxxxxxxxxxxxxxxxxxxxxxxxxxxxxxxxxxxxxxxxxxxxxxxxxxxxxxxxxxxxxxxxxxxxxxxxxxxxxxxxxxxxxxx",
"xxxxxxxxxxxxxxxxxxxxxxxxxxxxxxxxxxxxxxxxxxxxxxxxxxxxxxxxxxxxxxxxxxxxxxxxxxxxxxxxxxxxxxxxxxxxxxxxxxxxxxxxxxxxxxxxxxxxxxxxxxxxxxxx",
"xxxxxxxxxxxxxxxxxxxxxxxxxxxxxxxxxxxxxxxxxxxxxxxxxxxxxxxxxxxxxxxxxxxxxxxxxxxxxxxxxxxxxxxxxxxxxxxxxxxxxxxxxxxxxxxxxxxxxxxxxxxxxxxx",
"xxxxxxxxxxxxxxxxxxxxxxxxxxxxxxxxxxxxxxxxxxxxxxxxxxxxxxxxxxxxxxxxxxxxxxxxxxxxxxxxxxxxxxxxxxxxxxxxxxxxxxxxxxxxxxxxxxxxxxxxxxxxxxxx",
"xxxxxxxxxxxxxxxxxxxxxxxxxxxxxxxxxxxxxxxxxxxxxxxxxxxxxxxxxxxxxxxxxxxxxxxxxxxxxxxxxxxxxxxxxxxxxxxxxxxxxxxxxxxxxxxxxxxxxxxxxxxxxxxx",
"xxxxxxxxxxxxxxxxxxxxxxxxxxxxxxxxxxxxxxxxxxxxxxxxxxxxxxxxxxxxxxxxxxxxxxxxxxxxxxxxxxxxxxxxxxxxxxxxxxxxxxxxxxxxxxxxxxxxxxxxxxxxxxxx",
"xxxxxxxxxxxxxxxxxxxxxxxxxxxxxxxxxxxxxxxxxxxxxxxxxxxxxxxxxxxxxxxxxxxxxxxxxxxxxxxxxxxxxxxxxxxxxxxxxxxxxxxxxxxxxxxxxxxxxxxxxxxxxxxx",
"xxxxxxxxxxxxxxxxxxxxxxxxxxxxxxxxxxxxxxxxxxxxxxxxxxxxxxxxxxxxxxxxxxxxxxxxxxxxxxxxxxxxxxxxxxxxxxxxxxxxxxxxxxxxxxxxxxxxxxxxxxxxxxxx",
"xxxxxxxxxxxxxxxxxxxxxxxxxxxxxxxxxxxxxxxxxxxxxxxxxxxxxxxxxxxxxxxxxxxxxxxxxxxxxxxxxxxxxxxxxxxxxxxxxxxxxxxxxxxxxxxxxxxxxxxxxxxxxxxx",
"xxxxxxxxxxxxxxxxxxxxxxxxxxxxxxxxxxxxxxxxxxxxxxxxxxxxxxxxxxxxxxxxxxxxxxxxxxxxxxxxxxxxxxxxxxxxxxxxxxxxxxxxxxxxxxxxxxxxxxxxxxxxxxxx",
"xxxxxxxxxxxxxxxxxxxxxxxxxxxxxxxxxxxxxxxxxxxxxxxxxxxxxxxxxxxxxxxxxxxxxxxxxxxxxxxxxxxxxxxxxxxxxxxxxxxxxxxxxxxxxxxxxxxxxxxxxxxxxxxx",
"xxxxxxxxxxxxxxxxxxxxxxxxxxxxxxxxxxxxxxxxxxxxxxxxxxxxxxxxxxxxxxxxxxxxxxxxxxxxxxxxxxxxxxxxxxxxxxxxxxxxxxxxxxxxxxxxxxxxxxxxxxxxxxxx",
"xxxxxxxxxxxxxxxxxxxxxxxxxxxxxxxxxxxxxxxxxxxxxxxxxxxxxxxxxxxxxxxxxxxxxxxxxxxxxxxxxxxxxxxxxxxxxxxxxxxxxxxxxxxxxxxxxxxxxxxxxxxxxxxx",
"xxxxxxxxxxxxxxxxxxxxxxxxxxxxxxxxxxxxxxxxxxxxxxxxxxxxxxxxxxxxxxxxxxxxxxxxxxxxxxxxxxxxxxxxxxxxxxxxxxxxxxxxxxxxxxxxxxxxxxxxxxxxxxxx",
"xxxxxxxxxxxxxxxxxxxxxxxxxxxxxxxxxxxxxxxxxxxxxxxxxxxxxxxxxxxxxxxxxxxxxxxxxxxxxxxxxxxxxxxxxxxxxxxxxxxxxxxxxxxxxxxxxxxxxxxxxxxxxxxx",
"xxxxxxxxxxxxxxxxxxxxxxxxxxxxxxxxxxxxxxxxxxxxxxxxxxxxxxxxxxxxxxxxxxxxxxxxxxxxxxxxxxxxxxxxxxxxxxxxxxxxxxxxxxxxxxxxxxxxxxxxxxxxxxxx",
"xxxxxxxxxxxxxxxxxxxxxxxxxxxxxxxxxxxxxxxxxxxxxxxxxxxxxxxxxxxxxxxxxxxxxxxxxxxxxxxxxxxxxxxxxxxxxxxxxxxxxxxxxxxxxxxxxxxxxxxxxxxxxxxx",
"xxxxxxxxxxxxxxxxxxxxxxxxxxxxxxxxxxxxxxxxxxxxxxxxxxxxkkkkkkxxxxxxxxxxxkkkkkkkkkkkkkkkkkkkkkkkkkkkkkkkkkxxxxxxxxxxxkkkkkkxxxxxxxxx",
"xxxxxxxxxxxxxxxxxxxxxxxxxxxxxxxxxxxxxxxxxxxxxxxxxxxkkkkkkkkkxxxxxxxxkkkkkkkkkkkkkkkkkkkkkkkkkkkkkkkkkkkkxxxxxxxxkkkkkkkkxxxxxxxx",
"xxxxxxxxxxxxxxxxxxxxxxxxxxxxxxxxxxxxxxxxxxxxxxxxxxkkkkkkkkkkkxxxxxxkkkkkkkkkkkkkkkkkkkkkkkkkkkkkkkkkkkkkxxxxxxxkkixxxxikkxxxxxxx",
"xxxxxxxxxxxxxxxxxxxxxxxxxxxxxxxxxxxxxxxxxxxxxxxxxkkkkkkkkkkkkxxxxxkkkkkkkkkkkkkkkkkkkkkkkkkkkkkkkkkkkkkkkxxxxxkkixxxxxxxkkxxxxxx",
"xxxxxxxxxxxxxxxxxxxxxxxxxxxxxxxxxxxxxxxxxxxxxxxxkkkkkkkkkkkkkkxxxxkkkkkkkkkkkkkkkkkkkkkkkkkkkkkkkkkkkkkkkkxxxxkkxxxxxxxxkkxxxxxx",
"xxxxxxxxxxxxxxxxxxxxxxxxxxxxxxxxxxxxxxxxxxxxxxxkkkkkkkkkkkkkkkxxxkkkkkkkkkkkkkkkkkkkkkkkkkkkkkkkkkkkkkkkkkxxxkk8xxxxxxxxikkxxxxx",
"xxxxxxxxxxxxxxxxxxxxxxxxxxxxxxxxxxxxxxxxxxxxxxkkkkkkkkkkkkkkkkxxxikkkkkkkkkkkkkkkkkkkkkkkkkkkkkkkkkkkkkkkkxxxikxxxxxxxxxxkixxxxx",
"xxxxxxxxxxxxxxxxxxxxxxxxxxxxxxxxxxxxxxxxxxxxxkkkkkkkkkkkkkkkkkxxxikkkkkkkkkkkkkkkkkkkkkkkkkkkkkkkkkkkkkkkkxxxik8xxxxxxxx8kixxxxx",
"xxxxxxxxxxxxxxxxxxxxxxxxxxxxxxxxxxxxxxxxxxxxkkkkkkkkkkkkkkkkkixxx,kkkkkkkkkkkkkkkkkkkkkkkkkkkkkkkkkkkkkkkixxxikixxxxxxxxikixxxxx",
"xxxxxxxxxxxxxxxxxxxxxxxxxxxxxxxxxxxxxxxxxxxkkkkkkkkkkkkkkkkkkkxxxxkkkkkkkkkkkkkkkkkkkkkkkkjkjkjkkkkkkkkkkxxxxikkixxxxxx8kkixxxxx",
"xxxxxxxxxxxxxxxxxxxxxxxxxxxxxxxxxxxxxxxxxxkkikkkkkkjkkkkkjkkkixxxx,iikkkkkkkkkkkkkkkkkjkkkkkkjjkkkkkkkki8xxxxijjiixxxx8kkiixxxxx",
"xxxxxxxxxxxxxxxxxxxxxxxxxxxxxxxxxxxxxxxxxkkkkkkkkkkkkikkkkkikjxxxxx1iikikkjjikkkkkkikkkkikkkjjkjkkijikk3xxxxxijkkkkkkikkkkixxxxx",
"xxxxxxxxxxxxxxxxxxxxxxxxxxxxxxxxxxxxxxxxikikkkkiikkkkiikkkjjkixxxxx.*3iiikkkikikkikkjjkkkkjjkkjkjjkjii:xxxxxxujjkijjjkkjkkyxxxxx",
"xxxxxxxxxxxxxxxxxxxxxxxxxxxxxxxxxxxxxxxkkkkjkikkkkikkkkkikjkkixxxxxx .@%&&&&&-8kkkikjjikkijji,%&&&&&#oxxxxxxxyjkkkjjkkijjj8xxxxx",
"xxxxxxxxxxxxxxxxxxxxxxxxxxxxxxxxxxxxxxikkkkkkkkkjkkkkkkkkjjkkixxxxxxx         *kkikkikkkjjki<.      xxxxxxxxxyjkkiikikkkjkuxxxxx",
"xxxxxxxxxxxxxxxxxxxxxxxxxxxxxxxxxxxxxkkkkiikkikkikikikkikkikkjxxxxxxxxxx      *ikiikkkikkiki-    xxxxxxxxxxxxyjiikjkikijik8xxxxx",
"xxxxxxxxxxxxxxxxxxxxxxxxxxxxxxxxxxxxikikkkkkiikikjkiikikjiikkixxxxxxxxxxxxxxx %ikjjkjijijjjk:xxxxxxxxxxxxxxxx8ikkjikkkikki8xxxxx",
"xxxxxxxxxxxxxxxxxxxxxxxxxxxxxxxxxxxikikiikiikkikkikkijikkikkiixxxxxxxxxxxxxxxx*ikiikikkijiji>xxxxxxxxxxxxxxxxyjkijkiikikki8xxxxx",
"xxxxxxxxxxxxxxxxxxxxxxxxxxxxxxxxxxkkkikkikiikiiiikkikikjikikiixxxxxxxxxxxxxxxx*ijjikikikkiki<xxxxxxxxxxxxxxxx8jiijijijjiik8xxxxx",
"xxxxxxxxxxxxxxxxxxxxxxxxxxxxxxxxxiiiikikikkkikkkjikiikijjijikixxxxxxxxxxxxxxxxxiijjijikiijijxxxxxxxxxxxxxxxxx8ijjijjjijjjiyxxxxx",
"xxxxxxxxxxxxxxxxxxxxxxxxxxxxxxxxikkikiikikiiikikjiikjijiijikiixxxxxxxxxxxxxxxxxikiikiijkjijixxxxxxxxxxxxxxxxxuiijijiijjiii8xxxxx",
"xxxxxxxxxxxxxxxxxxxxxxxxxxxxxxxikiikiikiiikiikiiikiiijijiijiiixxxxxxxxxxxxxxxxxkikiiikiikiiixxxxxxxxxxxxxxxxx8ijjiijiiijij8xxxxx",
"xxxxxxxxxxxxxxxxxxxxxxxxxxxxxxikiiikiikikikijiikjikijikijjjijixxxxxxxxxxxxxxxxxiijiiiiijikiixxxxxxxxxxxxxxxxxuiiijiiiijiii5xxxxx",
"xxxxxxxxxxxxxxxxxxxxxxxxxxxxxiiikikiiiiiiiiikiiiiiiiiiiiiiijiixxxxxxxxxxxxxxxxxiiiikjjiiiijixxxxxxxxxxxxxxxxx8ijiiiijiiiii5xxxxx",
"xxxxxxxxxxxxxxxxxxxxxxxxxxxxiiikiikikiiikiiiiii8iiijjiiiiiiiiixxxxxxxxxxxxxxxxxiijjiiiiiiiiixxxxxxxxxxxxxxxxx8iiiijiiiijii8xxxxx",
"xxxxxxxxxxxxxxxxxxxxxxxxxxxiiiiiiiiiiiikiiikii:X<jiiiiijijiiiuxxxxxxxxxxxxxxxxxiiiiiiiikiiiixxxxxxxxxxxxxxxxx5iiiiiiiiiiii8xxxxx",
"xxxxxxxxxxxxxxxxxxxxxxxxxxiiiiiiiiiiiiiiiiiii;. ;iiiiiiiiiiiiexxxxxxxxxxxxxxxxxiiiiiiiiiuiiuxxxxxxxxxxxxxxxxx8iiiiiiiiiiii8xxxxx",
"xxxxxxxxxxxxxxxxxxxxxxxxxiiiiiiiiiiiiiiiiiii>.  ;iiiiiiiiiiiiuxxxxxxxxxxxxxxxxxiiuiiuuiiiiuixxxxxxxxxxxxxxxxx4eiiiiuieiuei4xxxxx",
"xxxxxxxxxxxxxxxxxxxxxxxxiiiuiiuuiiiuiiiiiiu;    ;iiuiiiiiiiiiexxxxxxxxxxxxxxxxxiuiuuuiuuiuuuxxxxxxxxxxxxxxxxx3eiuieiuiiiii4xxxxx",
"xxxxxxxxxxxxxxxxxxxxxxxuiuuiuiuiuiiuuuiiie;xxxxx>eiiieeiieuiiexxxxxxxxxxxxxxxxxiuuuuuuuiuuuuxxxxxxxxxxxxxxxxx8iiieiuiueiue4xxxxx",
"xxxxxxxxxxxxxxxxxxxxxxiieieiuuuuuiiuiuii8;xxxxxx>uuuieiuuieiiexxxxxxxxxxxxxxxxxiuuuuuieiuuuuxxxxxxxxxxxxxxxxx3eieuiueiieiu3xxxxx",
"xxxxxxxxxxxxxxxxxxxxxieiiuiuuueieiieeiee-xxxxxxx,ueuieuueueuuexxxxxxxxxxxxxxxxxueuuuueuuueeuxxxxxxxxxxxxxxxxx3uuueeueuueee3xxxxx",
"xxxxxxxxxxxxxxxxxxxxieeiieeuuuuueueueuu-xxxxxxxx,uuuuuiueuuiuexxxxxxxxxxxxxxxxx8eueueuueueuexxxxxxxxxxxxxxxxx3ueeueeueeuei3xxxxx",
"xxxxxxxxxxxxxxxxxxxeeeiueeieeueeuuueu5=xxxxxxxxx,eueeueeueue8uxxxxxxxxxxxxxxxxxiueueueeueueuxxxxxxxxxxxxxxxxx3eeueeueuueee3xxxxx",
"xxxxxxxxxxxxxxxxxxueuueeeueeueuueuei3$xxxxxxxxxx,eeeueueeueueexxxxxxxxxxxxxxxxx8eeeeeueeuu8uxxxxxxxxxxxxxxxxx3eeu8eeeeeeee3xxxxx",
"xxxxxxxxxxxxxxxxxeeu8uuuueeuueeeeee3$xxx13xxxxxx,eeeeeeeeeeeu8xxxxxxxxxxxxxxxxxieeeueeeee8uuxxxxxxxxxxxxxxxxx3ee8ueueeeeee2xxxxx",
"xxxxxxxxxxxxxxxxeu8eue8eeeeeeeuuee3$xx<8ueu8xxxx,eeeeuue8ueu88xxxxxxxxxxxxxxxxx8ee8ueeeee888xxxxxxxxxxxxxxxxx4eeu8e8u8eeee2xxxxx",
"xxxxxxxxxxxxxxxeeeue8eeeeeeeee8ee3$xx<8i8eeuexxx>eeee8eeu8e8u5xxxxxxxxxxxxxxxxxiu5uu8eeeuuyuxxxxxxxxxxxxxxxxx28eeuee8ueeee2xxxxx",
"xxxxxxxxxxxxxx8ieeu8ueeeue8eeeee3$xxx88uue8888xx>e8eeu8u8ueuu8xxxxxxxxxxxxxxxxx8u5u888e8888uxxxxxxxxxxxxxxxxx3e88e8e8ee8ee2xxxxx",
"xxxxxxxxxxxxxe888e8u8e888uee8e82$xxxx8u88u8u88xx>8e888e88u8888xxxxxxxxxxxxxxxxxye55euu8u8u88xxxxxxxxxxxxxxxxx28e8ee8e88e882xxxxx",
"xxxxxxxxxxxx8ieee8e8eeeee8e8e83#xxxxx88888e8u8xx:8eee88e88u888xxxxxxxxxxxxxxxxx85u5u5u8885u5xxxxxxxxxxxxxxxxx2ee88888e8ee82xxxxx",
"xxxxxxxxxxx8e88e8e8e88e88e8883#xxxxxx8e85u8885xx:88e8e88u88885xxxxxxxxxxxxxxxxx85u8555u58u85xxxxxxxxxxxxxxxxx2888e8e8e88882xxxxx",
"xxxxxxxxxxe88e885u8e58u5e5e52#xxxxxxx<8858858,xx;8e88eu58u5855xxxxxxxxxxxxxxxxx8888885u58888xxxxxxxxxxxxxxxxx18888848888851xxxxx",
"xxxxxxxxx88888888e8888855852#xxxxxxxxx3588u8<xxx;8588858588555xxxxxxxxxxxxxxxxx5888888585888xxxxxxxxxxxxxxxxx285989e8558582xxxxx",
"xxxxxxxx3888888885585e5e583@xxxxxxxxxxO-111*xxxx;85858585e5555xxxxxxxxxxxxxxxxx5885858585555xxxxxxxxxxxxxxxxx255e4485858552xxxxx",
"xxxxxxxx355858588855855551@xxxxxxxxxxxx ...xxxxx;5555558555858xxxxxxxxxxxxxxxxx8555555555555xxxxxxxxxxxxxxxxx15548845555551xxxxx",
"xxxxxxxx55555558555555581xxxxxxxxxxxxxxxxxxxxxxx;5555555555553xxxxxxxxxxxxxxxxx8555555558855xxxxxxxxxxxxxxxxx18888555455841xxxxx",
"xxxxxxxx3555555555555551xxxxxxxxxxxxxxxxxxxxxxxx-5553555555533xxxxxxxxxxxxxxxxx3555355553835xxxxxxxxxxxxxxxxx18334454544381xxxxx",
"xxxxxxxx255335555445551xxxxxxxxxxxxxxxxxxxxxxxxx*4558353545552xxxxxxxxxxxxxxxxx2355555358383xxxxxxxxxxxxxxxxx>3348344444331xxxxx",
"xxxxxxxx;3545545535531xxxxxxxxxxxxxxxxxxxxxxxxxxx234445335333<xxxxxxxxxxxxxxxxx<333533333332xxxxxxxxxxxxxxxxx$333444444453xxxxxx",
"xxxxxxxxx23433535335<xxxxxxxxxxxxxxxxxxxxxxxxxxxx-83535333332xxxxxxxxxxxxxxxxxx#23333333333xxxxxxxxxxxxxxxxxxx>33333333331xxxxxx",
"xxxxxxxxx%333533333;xxxxxxxxxxxxxxxxxxxxxxxxxxxxxx;333333332xxxxxxxxxxxxxxxxxxxx&233333333<xxxxxxxxxxxxxxxxxxx+1333333331xxxxxxx",
"xxxxxxxxx #<333342-Xxxxxxxxxxxxxxxxxxxxxxxxxxxxxxxo-2333331%xxxxxxxxxxxxxxxxxxxx $<333231-xxxxxxxxxxxxxxxxxxxxxO;223322<xxxxxxxx",
"xxxxxxxxxx X@&&&%+xxxxxxxxxxxxxxxxxxxxxxxxxxxxxxxx  +%%&%$xxxxxxxxxxxxxxxxxxxxxxx o$%&&%Oxxxxxxxxxxxxxxxxxxxxxx  +%&&&#xxxxxxxxx",
"xxxxxxxxxxx      xxxxxxxxxxxxxxxxxxxxxxxxxxxxxxxxxx      xxxxxxxxxxxxxxxxxxxxxxxxx      xxxxxxxxxxxxxxxxxxxxxxxx      xxxxxxxxxx",
"xxxxxxxxxxxxxxxxxxxxxxxxxxxxxxxxxxxxxxxxxxxxxxxxxxxxxxxxxxxxxxxxxxxxxxxxxxxxxxxxxxxxxxxxxxxxxxxxxxxxxxxxxxxxxxxxxxxxxxxxxxxxxxxx",
"xxxxxxxxxxxxxxxxxxxxxxxxxxxxxxxxxxxxxxxxxxxxxxxxxxxxxxxxxxxxxxxxxxxxxxxxxxxxxxxxxxxxxxxxxxxxxxxxxxxxxxxxxxxxxxxxxxxxxxxxxxxxxxxx",
"xxxxxxxxxxxxxxxxxxxxxxxxxxxxxxxxxxxxxxxxxxxxxxxxxxxxxxxxxxxxxxxxxxxxxxxxxxxxxxxxxxxxxxxxxxxxxxxxxxxxxxxxxxxxxxxxxxxxxxxxxxxxxxxx",
"xxxxxxxxxxxxxxxxxxxxxxxxxxxxxxxxxxxxxxxxxxxxxxxxxxxxxxxxxxxxxxxxxxxxxxxxxxxxxxxxxxxxxxxxxxxxxxxxxxxxxxxxxxxxxxxxxxxxxxxxxxxxxxxx",
"xxxxxxxxxxxxxxxxxxxxxxxxxxxxxxxxxxxxxxxxxxxxxxxxxxxxxxxxxxxxxxxxxxxxxxxxxxxxxxxxxxxxxxxxxxxxxxxxxxxxxxxxxxxxxxxxxxxxxxxxxxxxxxxx",
"xxxxxxxxxxxxxxxxxxxxxxxxxxxxxxxxxxxxxxxxxxxxxxxxxxxxxxxxxxxxxxxxxxxxxxxxxxxxxxxxxxxxxxxxxxxxxxxxxxxxxxxxxxxxxxxxxxxxxxxxxxxxxxxx",
"xxxxxxxxxxxxxxxxxxxxxxxxxxxxxxxxxxxxxxxxxxxxxxxxxxxxxxxxxxxxxxxxxxxxxxxxxxxxxxxxxxxxxxxxxxxxxxxxxxxxxxxxxxxxxxxxxxxxxxxxxxxxxxxx",
"xxxxxxxxxxxxxxxxxxxxxxxxxxxxxxxxxxxxxxxxxxxxxxxxxxxxxxxxxxxxxxxxxxxxxxxxxxxxxxxxxxxxxxxxxxxxxxxxxxxxxxxxxxxxxxxxxxxxxxxxxxxxxxxx",
"xxxxxxxxxxxxxxxxxxxxxxxxxxxxxxxxxxxxxxxxxxxxxxxxxxxxxxxxxxxxxxxxxxxxxxxxxxxxxxxxxxxxxxxxxxxxxxxxxxxxxxxxxxxxxxxxxxxxxxxxxxxxxxxx",
"xxxxxxxxxxxxxxxxxxxxxxxxxxxxxxxxxxxxxxxxxxxxxxxxxxxxxxxxxxxxxxxxxxxxxxxxxxxxxxxxxxxxxxxxxxxxxxxxxxxxxxxxxxxxxxxxxxxxxxxxxxxxxxxx",
"xxxxxxxxxxxxxxxxxxxxxxxxxxxxxxxxxxxxxxxxxxxxxxxxxxxxxxxxxxxxxxxxxxxxxxxxxxxxxxxxxxxxxxxxxxxxxxxxxxxxxxxxxxxxxxxxxxxxxxxxxxxxxxxx",
"xxxxxxxxxxxxxxxxxxxxxxxxxxxxxxxxxxxxxxxxxxxxxxxxxxxxxxxxxxxxxxxxxxxxxxxxxxxxxxxxxxxxxxxxxxxxxxxxxxxxxxxxxxxxxxxxxxxxxxxxxxxxxxxx",
"xxxxxxxxxxxxxxxxxxxxxxxxxxxxxxxxxxxxxxxxxxxxxxxxxxxxxxxxxxxxxxxxxxxxxxxxxxxxxxxxxxxxxxxxxxxxxxxxxxxxxxxxxxxxxxxxxxxxxxxxxxxxxxxx",
"xxxxxxxxxxxxxxxxxxxxxxxxxxxxxxxxxxxxxxxxxxxxxxxxxxxxxxxxxxxxxxxxxxxxxxxxxxxxxxxxxxxxxxxxxxxxxxxxxxxxxxxxxxxxxxxxxxxxxxxxxxxxxxxx",
"xxxxxxxxxxxxxxxxxxxxxxxxxxxxxxxxxxxxxxxxxxxxxxxxxxxxxxxxxxxxxxxxxxxxxxxxxxxxxxxxxxxxxxxxxxxxxxxxxxxxxxxxxxxxxxxxxxxxxxxxxxxxxxxx",
"xxxxxxxxxxxxxxxxxxxxxxxxxxxxxxxxxxxxxxxxxxxxxxxxxxxxxxxxxxxxxxxxxxxxxxxxxxxxxxxxxxxxxxxxxxxxxxxxxxxxxxxxxxxxxxxxxxxxxxxxxxxxxxxx",
"xxxxxxxxxxxxxxxxxxxxxxxxxxxxxxxxxxxxxxxxxxxxxxxxxxxxxxxxxxxxxxxxxxxxxxxxxxxxxxxxxxxxxxxxxxxxxxxxxxxxxxxxxxxxxxxxxxxxxxxxxxxxxxxx",
"xxxxxxxxxxxxxxxxxxxxxxxxxxxxxxxxxxxxxxxxxxxxxxxxxxxxxxxxxxxxxxxxxxxxxxxxxxxxxxxxxxxxxxxxxxxxxxxxxxxxxxxxxxxxxxxxxxxxxxxxxxxxxxxx",
"xxxxxxxxxxxxxxxxxxxxxxxxxxxxxxxxxxxxxxxxxxxxxxxxxxxxxxxxxxxxxxxxxxxxxxxxxxxxxxxxxxxxxxxxxxxxxxxxxxxxxxxxxxxxxxxxxxxxxxxxxxxxxxxx",
"xxxxxxxxxxxxxxxxxxxxxxxxxxxxxxxxxxxxxxxxxxxxxxxxxxxxxxxxxxxxxxxxxxxxxxxxxxxxxxxxxxxxxxxxxxxxxxxxxxxxxxxxxxxxxxxxxxxxxxxxxxxxxxxx",
"xxxxxxxxxxxxxxxxxxxxxxxxxxxxxxxxxxxxxxxxxxxxxxxxxxxxxxxxxxxxxxxxxxxxxxxxxxxxxxxxxxxxxxxxxxxxxxxxxxxxxxxxxxxxxxxxxxxxxxxxxxxxxxxx",
"xxxxxxxxxxxxxxxxxxxxxxxxxxxxxxxxxxxxxxxxxxxxxxxxxxxxxxxxxxxxxxxxxxxxxxxxxxxxxxxxxxxxxxxxxxxxxxxxxxxxxxxxxxxxxxxxxxxxxxxxxxxxxxxx",
"xxxxxxxxxxxxxxxxxxxxxxxxxxxxxxxxxxxxxxxxxxxxxxxxxxxxxxxxxxxxxxxxxxxxxxxxxxxxxxxxxxxxxxxxxxxxxxxxxxxxxxxxxxxxxxxxxxxxxxxxxxxxxxxx",
"xxxxxxxxxxxxxxxxxxxxxxxxxxxxxxxxxxxxxxxxxxxxxxxxxxxxxxxxxxxxxxxxxxxxxxxxxxxxxxxxxxxxxxxxxxxxxxxxxxxxxxxxxxxxxxxxxxxxxxxxxxxxxxxx",
"xxxxxxxxxxxxxxxxxxxxxxxxxxxxxxxxxxxxxxxxxxxxxxxxxxxxxxxxxxxxxxxxxxxxxxxxxxxxxxxxxxxxxxxxxxxxxxxxxxxxxxxxxxxxxxxxxxxxxxxxxxxxxxxx",
"xxxxxxxxxxxxxxxxxxxxxxxxxxxxxxxxxxxxxxxxxxxxxxxxxxxxxxxxxxxxxxxxxxxxxxxxxxxxxxxxxxxxxxxxxxxxxxxxxxxxxxxxxxxxxxxxxxxxxxxxxxxxxxxx",
"xxxxxxxxxxxxxxxxxxxxxxxxxxxxxxxxxxxxxxxxxxxxxxxxxxxxxxxxxxxxxxxxxxxxxxxxxxxxxxxxxxxxxxxxxxxxxxxxxxxxxxxxxxxxxxxxxxxxxxxxxxxxxxxx",
"xxxxxxxxxxxxxxxxxxxxxxxxxxxxxxxxxxxxxxxxxxxxxxxxxxxxxxxxxxxxxxxxxxxxxxxxxxxxxxxxxxxxxxxxxxxxxxxxxxxxxxxxxxxxxxxxxxxxxxxxxxxxxxxx",
"xxxxxxxxxxxxxxxxxxxxxxxxxxxxxxxxxxxxxxxxxxxxxxxxxxxxxxxxxxxxxxxxxxxxxxxxxxxxxxxxxxxxxxxxxxxxxxxxxxxxxxxxxxxxxxxxxxxxxxxxxxxxxxxx",
"xxxxxxxxxxxxxxxxxxxxxxxxxxxxxxxxxxxxxxxxxxxxxxxxxxxxxxxxxxxxxxxxxxxxxxxxxxxxxxxxxxxxxxxxxxxxxxxxxxxxxxxxxxxxxxxxxxxxxxxxxxxxxxxx",
"xxxxxxxxxxxxxxxxxxxxxxxxxxxxxxxxxxxxxxxxxxxxxxxxxxxxxxxxxxxxxxxxxxxxxxxxxxxxxxxxxxxxxxxxxxxxxxxxxxxxxxxxxxxxxxxxxxxxxxxxxxxxxxxx",
"xxxxxxxxxxxxxxxxxxxxxxxxxxxxxxxxxxxxxxxxxxxxxxxxxxxxxxxxxxxxxxxxxxxxxxxxxxxxxxxxxxxxxxxxxxxxxxxxxxxxxxxxxxxxxxxxxxxxxxxxxxxxxxxx",
"xxxxxxxxxxxxxxxxxxxxxxxxxxxxxxxxxxxxxxxxxxxxxxxxxxxxxxxxxxxxxxxxxxxxxxxxxxxxxxxxxxxxxxxxxxxxxxxxxxxxxxxxxxxxxxxxxxxxxxxxxxxxxxxx",
"xxxxxxxxxxxxxxxxxxxxxxxxxxxxxxxxxxxxxxxxxxxxxxxxxxxxxxxxxxxxxxxxxxxxxxxxxxxxxxxxxxxxxxxxxxxxxxxxxxxxxxxxxxxxxxxxxxxxxxxxxxxxxxxx",
"xxxxxxxxxxxxxxxxxxxxxxxxxxxxxxxxxxxxxxxxxxxxxxxxxxxxxxxxxxxxxxxxxxxxxxxxxxxxxxxxxxxxxxxxxxxxxxxxxxxxxxxxxxxxxxxxxxxxxxxxxxxxxxxx"
};
