/* XPM */
static char *cmake[] = {
/* columns rows colors chars-per-pixel */
"128 128 43 1",
"  c #000100010001",
". c #1E211E211E21",
"X c #8C4E8C4E8C4E",
"o c #A20BA20BA20B",
"O c #A921A921A921",
"+ c #B60BB60BB60B",
"@ c #C2A7C2A7C2A7",
"# c #CD66CD66CD66",
"$ c #D58AD58AD58A",
"% c #DBB2DBB2DBB2",
"& c #E1C0E1C0E1C0",
"* c #E809E809E809",
"= c #E809E924E924",
"- c #E8FBE8CAE8C1",
"; c #EAB6EAB6EAB6",
": c #ECDDECE7ECE5",
"> c #EE71EE71EE71",
", c #F076F013F013",
"< c #F013F076F013",
"1 c #F076F076F013",
"2 c #F076F013F076",
"3 c #F013F076F076",
"4 c #F193F193F193",
"5 c #F315F326F316",
"6 c #F433F433F433",
"7 c #F59EF558F558",
"8 c #F59EF59EF558",
"9 c #F558F558F59E",
"0 c #F59EF558F59E",
"q c #F6A4F6A4F665",
"w c #F794F75AF75A",
"e c #F75AF794F75A",
"r c #F794F794F75A",
"t c #F75AF75AF794",
"y c #F86FF86FF86F",
"u c #F920F91EF90A",
"i c #F9C1F9C1F9C1",
"p c #FA6CFA6CFA94",
"a c #FB08FB08FB08",
"s c #FC17FC17FC17",
"d c #FD05FD04FD04",
"f c #FDE6FDE6FDE6",
"g c None",
/* pixels */
"gggggggggggggggggggggggggggggggggggggggggggggggggggggggggggggggggggggggggggggggggggggggggggggggggggggggggggggggggggggggggggggggg",
"gggggggggggggggggggggggggggggggggggggggggggggggggggggggggggggggggggggggggggggggggggggggggggggggggggggggggggggggggggggggggggggggg",
"gggggggggggggggggggggggggggggggggggggggggggggggggggggggggggggggggggggggggggggggggggggggggggggggggggggggggggggggggggggggggggggggg",
"gggggggggggggggggggggggggggggggggggggggggggggggggggggggggggggggggggggggggggggggggggggggggggggggggggggggggggggggggggggggggggggggg",
"gggggggggggggggggggggggggggggggggggggggggggggggggggggggggggggggggggggggggggggggggggggggggggggggggggggggggggggggggggggggggggggggg",
"gggggggggggggggggggggggggggggggggggggggggggggggggggggggggggggggggggggggggggggggggggggggggggggggggggggggggggggggggggggggggggggggg",
"gggggggggggggggggggggggggggggggggggggggggggggggggggggggggggggggggggggggggggggggggggggggggggggggggggggggggggggggggggggggggggggggg",
"ggggggggggggggggggggggggggggggggggggggggggggggggggggggggggggggggdggggggggggggggggggggggggggggggggggggggggggggggggggggggggggggggg",
"gggggggggggggggggggggggggggggggggggggggggggggggggggggggggggggggdddgggggggggggggggggggggggggggggggggggggggggggggggggggggggggggggg",
"gggggggggggggggggggggggggggggggggggggggggggggggggggggggggggggggdddgggggggggggggggggggggggggggggggggggggggggggggggggggggggggggggg",
"ggggggggggggggggggggggggggggggggggggggggggggggggggggggggggggggdddddggggggggggggggggggggggggggggggggggggggggggggggggggggggggggggg",
"ggggggggggggggggggggggggggggggggggggggggggggggggggggggggggggggdddddggggggggggggggggggggggggggggggggggggggggggggggggggggggggggggg",
"gggggggggggggggggggggggggggggggggggggggggggggggggggggggggggggdddddddgggggggggggggggggggggggggggggggggggggggggggggggggggggggggggg",
"gggggggggggggggggggggggggggggggggggggggggggggggggggggggggggggdddddddgggggggggggggggggggggggggggggggggggggggggggggggggggggggggggg",
"ggggggggggggggggggggggggggggggggggggggggggggggggggggggggggggdddddddddggggggggggggggggggggggggggggggggggggggggggggggggggggggggggg",
"ggggggggggggggggggggggggggggggggggggggggggggggggggggggggggggdddddddddggggggggggggggggggggggggggggggggggggggggggggggggggggggggggg",
"gggggggggggggggggggggggggggggggggggggggggggggggggggggggggggdddddddddddgggggggggggggggggggggggggggggggggggggggggggggggggggggggggg",
"gggggggggggggggggggggggggggggggggggggggggggggggggggggggggggdddddddddddgggggggggggggggggggggggggggggggggggggggggggggggggggggggggg",
"ggggggggggggggggggggggggggggggggggggggggggggggggggggggggggdddddddddddddggggggggggggggggggggggggggggggggggggggggggggggggggggggggg",
"ggggggggggggggggggggggggggggggggggggggggggggggggggggggggggdddddddddddddggggggggggggggggggggggggggggggggggggggggggggggggggggggggg",
"gggggggggggggggggggggggggggggggggggggggggggggggggggggggggdddddddddddddddgggggggggggggggggggggggggggggggggggggggggggggggggggggggg",
"gggggggggggggggggggggggggggggggggggggggggggggggggggggggggdddddddddddddddgggggggggggggggggggggggggggggggggggggggggggggggggggggggg",
"ggggggggggggggggggggggggggggggggggggggggggggggggggggggggdddddddddddddddddggggggggggggggggggggggggggggggggggggggggggggggggggggggg",
"ggggggggggggggggggggggggggggggggggggggggggggggggggggggggdddddddddddddddddggggggggggggggggggggggggggggggggggggggggggggggggggggggg",
"gggggggggggggggggggggggggggggggggggggggggggggggggggggggdddddddddddddddddddgggggggggggggggggggggggggggggggggggggggggggggggggggggg",
"gggggggggggggggggggggggggggggggggggggggggggggggggggggggdddddddddddddddddddgggggggggggggggggggggggggggggggggggggggggggggggggggggg",
"ggggggggggggggggggggggggggggggggggggggggggggggggggggggdddddddddddddddddddddggggggggggggggggggggggggggggggggggggggggggggggggggggg",
"ggggggggggggggggggggggggggggggggggggggggggggggggggggggdddddddddddddddddddddggggggggggggggggggggggggggggggggggggggggggggggggggggg",
"gggggggggggggggggggggggggggggggggggggggggggggggggggggddddddsdsddddddddddddddgggggggggggggggggggggggggggggggggggggggggggggggggggg",
"gggggggggggggggggggggggggggggggggggggggggggggggggggggdddddddddddddddddddddddgggggggggggggggggggggggggggggggggggggggggggggggggggg",
"ggggggggggggggggggggggggggggggggggggggggggggggggggggiddddddddddddddddddddddddggggggggggggggggggggggggggggggggggggggggggggggggggg",
"ggggggggggggggggggggggggggggggggggggggggggggggggggggddddsddddddddddddddddddddggggggggggggggggggggggggggggggggggggggggggggggggggg",
"gggggggggggggggggggggggggggggggggggggggggggggggggggsdsdsdddsddssdsssdddsdsddddgggggggggggggggggggggggggggggggggggggggggggggggggg",
"gggggggggggggggggggggggggggggggggggggggggggggggggggdsddsdssdsdddddddssddddsdssgggggggggggggggggggggggggggggggggggggggggggggggggg",
"ggggggggggggggggggggggggggggggggggggggggggggggggggisddsdssdssdsdssdsdssdssdsdsdggggggggggggggggggggggggggggggggggggggggggggggggg",
"ggggggggggggggggggggggggggggggggggggggggggggggggggddssdsssdssdsssdssdssdsdssdssggggggggggggggggggggggggggggggggggggggggggggggggg",
"gggggggggggggggggggggggggggggggggggggggggggggggggidssdsssdssdssdsdssssdssdsssdssgggggggggggggggggggggggggggggggggggggggggggggggg",
"gggggggggggggggggggggggggggggggggggggggggggggggggsssssssssssssssssssssssssssssssgggggggggggggggggggggggggggggggggggggggggggggggg",
"ggggggggggggggggggggggggggggggggggggggggggggggggisssssssssssssssssssssdssssssssssggggggggggggggggggggggggggggggggggggggggggggggg",
"ggggggggggggggggggggggggggggggggggggggggggggggggsssssssdsssssssssssssssssssssssssggggggggggggggggggggggggggggggggggggggggggggggg",
"gggggggggggggggggggggggggggggggggggggggggggggggisssdsssissssisdisssssdsssssssidsssgggggggggggggggggggggggggggggggggggggggggggggg",
"gggggggggggggggggggggggggggggggggggggggggggggggisssidississsdssssssssididisssdisssgggggggggggggggggggggggggggggggggggggggggggggg",
"ggggggggggggggggggggggggggggggggggggggggggggggididissssddiidssdsidsssssidsssidsdssiggggggggggggggggggggggggggggggggggggggggggggg",
"ggggggggggggggggggggggggggggggggggggggggggggggiididsisisssdidiisdisiisssidisdisiisdggggggggggggggggggggggggggggggggggggggggggggg",
"gggggggggggggggggggggggggggggggggggggggggggggiidssidsdisidssissssssissiddisiissdisdigggggggggggggggggggggggggggggggggggggggggggg",
"gggggggggggggggggggggggggggggggggggggggggggggdiiissiiisssisissisiississiisssssiissisgggggggggggggggggggggggggggggggggggggggggggg",
"ggggggggggggggggggggggggggggggggggggggggggggiddiissisisiisississsiissisisisisiissssiiggggggggggggggggggggggggggggggggggggggggggg",
"ggggggggggggggggggggggggggggggggggggggggggggiiidssisisissisiisiiissississississisiissggggggggggggggggggggggggggggggggggggggggggg",
"gggggggggggggggggggggggggggggggggggggggggggiiiiidisisssiidiidiisssisssussusisssiisisiigggggggggggggggggggggggggggggggggggggggggg",
"gggggggggggggggggggggggggggggggggggggggggggddidiidsiiisiidsidisisisiussuususpiissssiisgggggggggggggggggggggggggggggggggggggggggg",
"ggggggggggggggggggggggggggggggggggggggggggiiiiiiiiiiisissidiiissssiisisisusssuusiiisssiggggggggggggggggggggggggggggggggggggggggg",
"ggggggggggggggggggggggggggggggggggggggggggiiisidisssisiiiiiiisiiiiisusususiiisiisisiiisggggggggggggggggggggggggggggggggggggggggg",
"gggggggggggggggggggggggggggggggggggggggggiiiiiiiisisiiissiidisiiiisiissiusppisuisiiiisiigggggggggggggggggggggggggggggggggggggggg",
"gggggggggggggggggggggggggggggggggggggggggiiiiiiiiiiiisiiiiiiiiiiiiiiiiyisippsupiiisiiiiigggggggggggggggggggggggggggggggggggggggg",
"ggggggggggggggggggggggggggggggggggggggggiiidiiiiisiiiiiiiiidiiiiiiisiiisuipiipipisiiisiiiggggggggggggggggggggggggggggggggggggggg",
"ggggggggggggggggggggggggggggggggggggggggiiiiiiiiyuiisiiiiiiiiiiisiiiisiiiipippiiisiiiiiiiggggggggggggggggggggggggggggggggggggggg",
"gggggggggggggggggggggggggggggggggggggggyiiiiiiiiiiiiiiiiiiiiiiiiiiiiiiiiiiiiiiiiiiiiiiiiiigggggggggggggggggggggggggggggggggggggg",
"gggggggggggggggggggggggggggggggggggggggiiiiiiiiiiiiiiiiiiiiiiiiiiiiiiiiuiiiiiiiiiiiiiiiiiigggggggggggggggggggggggggggggggggggggg",
"ggggggggggggggggggggggggggggggggggggggwiiiiiiiiiiiiiiiiyyiiyiiyiiiuiuiuuiiiiuiiiiiiiiiiiiiiggggggggggggggggggggggggggggggggggggg",
"ggggggggggggggggggggggggggggggggggggggwiiiiyiiwiyiiyiyiyiiiiiiiiuuiuiuuuuuuuiiuuiiwiyiyiiiiggggggggggggggggggggggggggggggggggggg",
"gggggggggggggggggggggggggggggggggggggiiiwiiiiwiiiyiyiyyiyiyyiyiyuuuuuuuuuuuuuuuuiuiiiiyiiiiwgggggggggggggggggggggggggggggggggggg",
"gggggggggggggggggggggggggggggggggggggiyiiyyiiyyiyiyyyiiiiiuyyiyiuuuuuuuuuuuuuuuiwiwiiyiiiiiigggggggggggggggggggggggggggggggggggg",
"ggggggggggggggggggggggggggggggggggggwwiiyiywyyiyiiyyiiyyyiyiiiywuuuuuuuuuuuuuuuuiiiiwyiyiyiwiggggggggggggggggggggggggggggggggggg",
"ggggggggggggggggggggggggggggggggggggwiywyyyiyiyyyyiuyiyiiwyiyiyiuuuuuuuuuuuuuuuuiywiwiyyyiyyiggggggggggggggggggggggggggggggggggg",
"gggggggggggggggggggggggggggggggggggqyyyyyyyyyyyyyyyyyyyyiyyyyyyyuuu9uwuuuuwuuuwuyyyyyyyyyyyyyygggggggggggggggggggggggggggggggggg",
"gggggggggggggggggggggggggggggggggggyyyyyyyyyyyyyyyyyyyyyyyyyyyyyuuuuuwuwuwuuwuuuyyyyyyyyyyyyyygggggggggggggggggggggggggggggggggg",
"gggggggggggggggggggggggggggggggggg6yyyyyyyyyyyyyyyyyyyyyyyyyyyyy9uu9&&wwwwuuuuquyyyyyyyyyyyyyyyggggggggggggggggggggggggggggggggg",
"ggggggggggggggggggggggggggggggggggqyyyyqyqyyyyyyyyyyyy9yyywyyyyyuuu$.Owuuu9uu9uuy8yyyyyyyyyywyyggggggggggggggggggggggggggggggggg",
"gggggggggggggggggggggggggggggggggywwyyyyqyyyqyqqyyyywyyywywywwww9u#. owwquuq9u9uyyyyyyyqyyyqyyyygggggggggggggggggggggggggggggggg",
"gggggggggggggggggggggggggggggggggyyw6yyqyqyqyqyyy9yew9wwwwwwwwwy2+   Xwuuqqqquuq6yyqqyqy9yyyqyqygggggggggggggggggggggggggggggggg",
"gggggggggggggggggggggggggggggggg6wwwyy6y6yqyyyqyy9wwwwwwwwwwwwi:X gg guwququ9u9uwwyyyqyqyyyyyyyywggggggggggggggggggggggggggggggg",
"ggggggggggggggggggggggggggggggggwwwwy6yyyy6yy6yywyy9www9wwuwwy:ggggggg6wqqqququ9wwwy6yqyy6y66y6ywggggggggggggggggggggggggggggggg",
"ggggggggggggggggggggggggggggggg5wwyy6yy6qy6qy6y6999yy6yywwwww&gggggggg:wuqqququqqyyyyqyqy6wywwwwwwgggggggggggggggggggggggggggggg",
"gggggggggggggggggggggggggggggggww96yy6yyqyyqqyqqyyy96yy6www5$.gggggggg2wqqqqqqqq6yy6qq6ywwwwwwwwwwgggggggggggggggggggggggggggggg",
"gggggggggggggggggggggggggggggg5w9ww6qq6qqqqqqqqq99yyqq6ywww$gggggggggg:wqqqqqqqqqqqqqqqq6yw6w6w6wwwggggggggggggggggggggggggggggg",
"ggggggggggggggggggggggggggggggwww96yqqqqqqqqqqqq9y99qqqqi:Oggggggggggg:wqqqqqqqqqqqqqqqqy6w6wwwwwwwggggggggggggggggggggggggggggg",
"ggggggggggggggggggggggggggggg55w6y6qqq6yq6yqqyy66y6yqq6q:Xgggggggggggg;w996uqq9qy6yq6q6ywy66ww665w66gggggggggggggggggggggggggggg",
"gggggggggggggggggggggggggggggw6wq6yq6qq66y6q666qy6qy6q6<gggggggggggggg$w9w999969q66qqqq6666y5w6ww6w6gggggggggggggggggggggggggggg",
"gggggggggggggggggggggggggggg5w5w6qq6q66qq66y6yy666666w%ggggggggggggggg@699999qq96yqyq66yyqy6w6www6wwwggggggggggggggggggggggggggg",
"ggggggggggggggggggggggggggggw5w56q6q6qq6y6666666y6y66$.gggggggggggggggg9w9999999q6666qq666q65w5w5w66wggggggggggggggggggggggggggg",
"ggggggggggggggggggggggggggg6w66w6666y66y666y66y6w5w5#gggggggggggggggggg6w5ww5w5w5ww5ww6ww5ww5w5w5w5wwwgggggggggggggggggggggggggg",
"ggggggggggggggggggggggggggg6666wy6666666666q66665w:Oggggggggggggggggggg65w56w5w5655w55655w55656ww595555ggggggggggggggggggggggggg",
"gggggggggggggggggggggggggg556666666y6666666666665:Xgggggggggggggggggggg666665w5w6w56w56w66666w6655ww595ggggggggggggggggggggggggg",
"ggggggggggggggggggggggggggw566666666666666666666;gggggggggggggggggggggg:66665656669559556666666695659555gggggggggggggggggggggggg",
"ggggggggggggggggggggggggg5w55666666666666666666$ggggggggggggggggggggggg:666665w55w66966666666666566655w5gggggggggggggggggggggggg",
"gggggggggggggggggggggggggw55566566366666665666$gggggggggggggggggggggggg:65656555555656556566656666665w55gggggggggggggggggggggggg",
"gggggggggggggggggggggggg55555555666666666<66<:ggggggggggggggggggggggggg;555555:w5555656665565655656655555ggggggggggggggggggggggg",
"gggggggggggggggggggggggg:w5555651666<6<656<656<$ggggggggggggggggggggggg;556555w55555555555655555556552w555gggggggggggggggggggggg",
"ggggggggggggggggggggggg555555555555555556<551555::ggggggggggggggggggggg$ww35w55555555555555555555555555552gggggggggggggggggggggg",
"ggggggggggggggggggggggg:5525525655552556655555155555ggggggggggggggggggg@5:55:525555555255555555555555555555ggggggggggggggggggggg",
"gggggggggggggggggggggg55255552:5256555:5<5555<55252555:gggggggggggggggg+5:55w5655525w5555552,55555565w2555wggggggggggggggggggggg",
"gggggggggggggggggggggg52525:5555:5:552555<5<5553555255555ggggggggggggggg55w::55:5552:55::525555:<5:5::55525:gggggggggggggggggggg",
"ggggggggggggggggggggg:555,5:25255:555:525:5:555:,5:5:5:5555:gggggggggggg5:555225:55,5:2555555:555:5:5:555:5:gggggggggggggggggggg",
"ggggggggggggggggggggg5:5,555525:55:5,5555555:55555555555:5555,gggggggggg55:5:55255555552:5:5555:555555:55555:ggggggggggggggggggg",
"gggggggggggggggggggg:55::25:55:2:5555:5:525,:55:555:5::525:5555::ggggggg;::55555:5::552552555:555:5255555::55ggggggggggggggggggg",
"gggggggggggggggggggg25:555555:5555:555:55:5:5255::525555:55::52555:ggggg;5555::555552:5255:525255555:5:552555:gggggggggggggggggg",
"ggggggggggggggggggg::55:555:5:5555:5:55:5:5555:55:,5:5,::5225:5,5:55:*gg*2555:55:5555:5555:555:5:55:552:25:52:gggggggggggggggggg",
"ggggggggggggggggggg:5::5:::5:5:::55:5::5:5::5::::55:5::55::5:5:5:5:5:5:::5:::5:555:::5:5::55:5:55:5:5::5555:55:ggggggggggggggggg",
"gggggggggggggggggg5::5,:5,55:55::5:5::55:55::5:55::5:55::55::5::5:5:5::5:5:55:5::5:55:5:5:5::5:5:5:55::55::5:5:ggggggggggggggggg",
"gggggggggggggggggg:::5:::::::2::5::::2::::5::5,::55:2:5:5::55:,55:::5,5:::5::5:5::5::5:55::5::5::25::52::5:::2:ggggggggggggggggg",
"ggggggggggggggggg5:,:::5:,::,5:52:,5:::,,2:::55:5:::::5::,:::,:::2:5::::55:5:::::5:::2:::2:,:::5:5:5::5::5:5::2:gggggggggggggggg",
"ggggggggggggggggg:2:25:::5:5:::::2::,5::,:5:::::::5::,:,:5:5,:,,::2:5:5:::::5:5::2:22:,:::5:5:2:::2:2:5:5:::5,:2gggggggggggggggg",
"gggggggggggggggg;5:::5:5:5:::::52:5::::2::2:,2:2:::5:5,:::,:::,:5::,,:5::5:5,::,:52::2:::::::::5:5,::::::5::::::2ggggggggggggggg",
"gggggggggggggggg::::::::::;:5,:::::::5:2:2:,::2::5:::::,:,:2:2:,;:,::::::::::,:::::2::5:5,:,5:::::::5:5:::5:5::5:ggggggggggggggg",
"ggggggggggggggg;2::::2::::::22;:::2:,;::;,::::1::::::2;,;:::,:::::::::::,::::5,::5:;:::::::::::;::,;:2::5::5:,:::;gggggggggggggg",
"ggggggggggggggg:;:::::::5:::;:2:::;:::::::::::;::::::::::,::::::::::5;5:::,;:;:::::55:::1:5;:::55:::;2:::;:;::::5:gggggggggggggg",
"gggggggggggggg-:::::;:::;:;;:;;;:::;:;::::::::::;2::::::::::::;:::5:::;:::::::::;:::::::::::5:::::::;:::2::;::;:;::ggggggggggggg",
"gggggggggggggg;;:;;:;:::;:::::::::;::::::;::::;:;:;:::;::::::::::;;::;:;::;::;::;::;:::;;:::;;;;:::::::;;;:::::::;;ggggggggggggg",
"ggggggggggggg;;;;;;;:;;;;;:;;::;;:;:;;::::;:;;::::;:;;:::;;;::;::;:;;:;:::;:;;;::;;;::;;:;;;;;;;;;:;::;:;:;::;::;::;gggggggggggg",
"ggggggggggggg;;;;;;;;;;;;;;;;;;;;::;::;;;;;:;;;;;;:::;;;;;:;;;:::;::;:;;;:;:::;;::::;;::;:;:::;;;;;;;;::;:;::;;:;;:;;ggggggggggg",
"gggggggggggg;;;;;;::;;;;::;;:;;;;;;;;;;;;;;;;;;;;;;;:;;;;;:;;;;;;;;;;;;;;;;;;;;;;;;;;;;;;;;;;;;;;;:;;;:;;;;;:;;;;;:;;ggggggggggg",
"gggggggggggg;;;;;;;;;;;;;;;;;;;;;;;;;;;;;;;;;;;;;;;;;;;;;;;;;;;;;;;;;;;;;;;;;;;;;;;;;;;;;;;;;;;;;;:;;;;;;;;;;;;;:;;;;;gggggggggg",
"ggggggggggg*;;*;;;;;*;;;;*;;;;;;;;;;*;;*;;;*;;;;;;-;*;;;*;;;*;;;;;;;;;*;;;;;;;;*;;*;-;;;;;;-;;;;;;;;;;;;;;;;;;;;;;;;;;gggggggggg",
"ggggggggggg***;;;;*;;;*;*;*;**;**;*;*;;**;*;*;*;**;;;;*;;;**;;*;;;;-;;;*;*;;*;;;;;;;*;;;*;;;;;*;*;;;*;;;*;;;;*;;;;;;;*gggggggggg",
"gggggggggg***;;**;*;;**;**;;*;**;**;*;*;*;*;;****;;****;*-;;***;;;*;*;;**;**;;*;*;;;;;;;;**;*;;*;*;*;*;*;*;**;;*;*;;;;;ggggggggg",
"gggggggggg***************;*************;;*****;;-****;;**;-*;*;**;**;**;*;*;*;**;********;**;;*;;*;*;=*;;**;***;*;****;ggggggggg",
"ggggggggg%*********************************************************************************;***=***;;*;**;**;*;;*;;;**;*gggggggg",
"gggggggggggOOOOOOOOOOOOOOOOOOOOOOOOOOOOOOOOOOOOOOOOOOOOOOOOOOOOOOOOOOOOOOOOOOOOOOOOOOOOOOOOOOOOOOOOOOOOOOOOOOOOOOOO++@gggggggggg",
"gggggggggggg                                                                                                        gggggggggggg",
"ggggggggggggg                                                                                                     gggggggggggggg",
"gggggggggggggggggggggggggggggggggggggggggggggggggggggggggggggggggggggggggggggggggggggggggggggggggggggggggggggggggggggggggggggggg",
"gggggggggggggggggggggggggggggggggggggggggggggggggggggggggggggggggggggggggggggggggggggggggggggggggggggggggggggggggggggggggggggggg",
"gggggggggggggggggggggggggggggggggggggggggggggggggggggggggggggggggggggggggggggggggggggggggggggggggggggggggggggggggggggggggggggggg",
"gggggggggggggggggggggggggggggggggggggggggggggggggggggggggggggggggggggggggggggggggggggggggggggggggggggggggggggggggggggggggggggggg",
"gggggggggggggggggggggggggggggggggggggggggggggggggggggggggggggggggggggggggggggggggggggggggggggggggggggggggggggggggggggggggggggggg",
"gggggggggggggggggggggggggggggggggggggggggggggggggggggggggggggggggggggggggggggggggggggggggggggggggggggggggggggggggggggggggggggggg",
"gggggggggggggggggggggggggggggggggggggggggggggggggggggggggggggggggggggggggggggggggggggggggggggggggggggggggggggggggggggggggggggggg",
"gggggggggggggggggggggggggggggggggggggggggggggggggggggggggggggggggggggggggggggggggggggggggggggggggggggggggggggggggggggggggggggggg"
};
