/* XPM */
static char *control_center_[] = {
/* columns rows colors chars-per-pixel */
"128 128 62 1",
"  c #000100010001",
". c #2CEF2CEF2CEF",
"X c #35AE35AE35AE",
"o c #51CF51CF51CF",
"O c #6E666E666E66",
"+ c #70DB6BEB70DB",
"@ c #781378137813",
"# c #815585CE8155",
"$ c #8A2A8A2A8A2A",
"% c #9C719C719C71",
"& c #AAD6AAD6AAD6",
"* c #B78AB78AB78A",
"= c #C2A7C2A7C2A7",
"- c #CC4ACC4ACC4A",
"; c #D1A0CF8DCF8D",
": c #CF8DD1A0CF8D",
"> c #D099CF8DD099",
", c #CF8DD1A0D1A0",
"< c #D39FD39FD39F",
"1 c #D849D679D849",
"2 c #DA06DA06DA06",
"3 c #E31DE31DE31D",
"4 c #E46CE46CE3C6",
"5 c #E5ADE5ADE5AD",
"6 c #E924E898E924",
"7 c #EB37EB37EB37",
"8 c #EC30ED1EEC30",
"9 c #ECA8ED1EED1E",
"0 c #EF47EF47EF47",
"q c #F076F013F013",
"w c #F013F076F013",
"e c #F076F076F013",
"r c #F013F013F076",
"t c #F076F013F076",
"y c #F013F076F076",
"u c #F1EDF1EDF1ED",
"i c #F314F317F31A",
"p c #F433F433F433",
"a c #F59EF558F558",
"s c #F59EF59EF558",
"d c #F558F558F59E",
"f c #F59EF558F59E",
"g c #F558F59EF59E",
"h c #F665F665F665",
"j c #F794F75AF75A",
"k c #F75AF794F75A",
"l c #F794F794F75A",
"z c #F75AF75AF794",
"x c #F75AF794F794",
"c c #F86FF86FF86F",
"v c #F916F928F91E",
"b c #F9C1F9C1F9C1",
"n c #FA94FA6CFA6C",
"m c #FA6CFA94FA6C",
"M c #FA94FA94FA6C",
"N c #FA6CFA6CFA94",
"B c #FA94FA6CFA94",
"V c #FB08FB08FB08",
"C c #FC0DFC0DFC02",
"Z c #FCE5FCE7FCEE",
"A c #FD9FFD9FFD9F",
"S c None",
/* pixels */
"SSSSSSSSSSSSSSSSSSSSSSSSSSSSSSSSSSSSSSSSSSSSSSSSSSSSSSSSSSSSSSSSSSSSSSSSSSSSSSSSSSSSSSSSSSSSSSSSSSSSSSSSSSSSSSSSSSSSSSSSSSSSSSSS",
"SSSSSSSSSSSSSSSSSSSSSSSSSSSSSSSSSSSSSSSSSSSSSSSSSSSSSSSSSSSSSSSSSSSSSSSSSSSSSSSSSSSSSSSSSSSSSSSSSSSSSSSSSSSSSSSSSSSSSSSSSSSSSSSS",
"SSSSSSSSSSSSSSSSSSSSSSSSSSSSSSSSSSSSSSSSSSSSSSSSSSSSSSSSSSSSSSSSSSSSSSSSSSSSSSSSSSSSSSSSSSSSSSSSSSSSSSSSSSSSSSSSSSSSSSSSSSSSSSSS",
"SSSSSSSSSSSSSSSSSSSSSSSSSSSSSSSSSSSSSSSSSSSSSSSSSSSSSSSSSSSSSSSSSSSSSSSSSSSSSSSSSSSSSSSSSSSSSSSSSSSSSSSSSSSSSSSSSSSSSSSSSSSSSSSS",
"SSSSSSSSSSSSSSSSSSSSSSSSSSSSSSSSSSSSSSSSSSSSSSSSSSSSSSSSSSSSSSSSSSSSSSSSSSSSSSSSSSSSSSSSSSSSSSSSSSSSSSSSSSSSSSSSSSSSSSSSSSSSSSSS",
"SSSSSSSSSSSSSSSSSSSSSSSSSSSSSSSSSSSSSSSSSSSSSSSSSSSSSSSSSSSSSSSSSSSSSSSSSSSSSSSSSSSSSSSSSSSSSSSSSSSSSSSSSSSSSSSSSSSSSSSSSSSSSSSS",
"SSSSSSSSSSSSSSSSSSSSSSSSSSSSSSSSSSSSSSSSSSSSSSSSSSSSSSSSSSSSSSSSSSSSSSSSSSSSSSSSSSSSSSSSSSSSSSSSSSSSSSSSSSSSSSSSSSSSSSSSSSSSSSSS",
"SSSSSSSSSSSSSSSSSSSSSSSSSSSSSSSSSSSSSSSSSSSSSSSSSSSSSSSSSSSSSSSSSSSSSSSSSSSSSSSSSSSSSSSSSSSSSSSSSSSSSSSSSSSSSSSSSSSSSSSSSSSSSSSS",
"SSSSSSSSSSSSSSSSSSSSSSSSSSSSSSSSSSSSSSSSSSSSSSSSSSSSSSSSSSSSSSSSSSSSSSSSSSSSSSSSSSSSSSSSSSSSSSSSSSSSSSSSSSSSSSSSSSSSSSSSSSSSSSSS",
"SSSSSSSSSSSSSSSSSSSSSSSSSSSSSSSSSSSSSSSSSSSSSSSSSSSSSSSSSSSSSSSSSSSSSSSSSSSSSSSSSSSSSSSSSSSSSSSSSSSSSSSSSSSSSSSSSSSSSSSSSSSSSSSS",
"SSSSSSSSSSSSSSSSSSSSSSSSSSSSSSSSSSSSSSSSSSSSSSSSSSSSSSSSSSSSSSSSSSSSSSSSSSSSSSSSSSSSSSSSSSSSSSSSSSSSSSSSSSSSSSSSSSSSSSSSSSSSSSSS",
"SSSSSSSSSSSSSSSSSSSSSSSSSSSSSSSSSSSSSSSSSSSSSSSSSSSSSSSSSSSSSSSSSSSSSSSSSSSSSSSSSSSSSSSSSSSSSSSSSSSSSSSSSSSSSSSSSSSSSSSSSSSSSSSS",
"SSSSSSSSSSSSSSSSSSSSSSSSSSSSSSSSSSSSSSSSSSSSSSSSSSSSSSSSSSSSSSSSSSSSSSSSSSSSSSSSSSSSSSSSSSSSSSSSSSSSSSSSSSSSSSSSSSSSSSSSSSSSSSSS",
"SSSSSSSSSSSSSSSSSSSSSSSSSSSSSSSSSSSSSSSSSSSSSSSSSSSSSSSSSSSSSSSSSSSSSSSSSSSSSSSSSSSSSSSSSSSSSSSSSSSSSSSSSSSSSSSSSSSSSSSSSSSSSSSS",
"SSSSSSSSSSSSSSSSSSSSSSSSSSSSSSSSSSSSSSSSSSSSSSSSSSSSSSSSSSSSSSSSSSSSSSSSSSSSSSSSSSSSSSSSSSSSSSSSSSSSSSSSSSSSSSSSSSSSSSSSSSSSSSSS",
"SSSSSSSSSSSSSSSSSSSSSSSSSSSSSSSSSSSSSSSSSSSSSSSSSSSSSSSSSSSSSSSSSSSSSSSSSSSSSSSSSSSSSSSSSSSSSSSSSSSSSSSSSSSSSSSSSSSSSSSSSSSSSSSS",
"SSSSSSSSSSSSSSSSSSSSSSSSSSSSSSSSSSSSSSSSSSSSSSSSSSSSSSSSSSSSSSSSSSSSSSSSSSSSSSSSSSSSSSSSSSSSSSSSSSSSSSSSSSSSSSSSSSSSSSSSSSSSSSSS",
"SSSSSSSSSSSSSSSSSSSSSSSSSSSSSSSSSSSSSSSSSSSSSSSSSSSSSSSSSSSSSSSSSSSSSSSSSSSSSSSSSSSSSSSSSSSSSSSSSSSSSSSSSSSSSSSSSSSSSSSSSSSSSSSS",
"SSSSSSSSSSSSSSSSSSSSSSSSSSSSSSSSSSSSSSSSSSSSSSSSSSSSSSSSSSSSSSSSSSSSSSSSSSSSSSSSSSSSSSSSSSSSSSSSSSSSSSSSSSSSSSSSSSSSSSSSSSSSSSSS",
"SSSSSSSSSSSSSSSSSSSSSSSSSSSSSSSSSSSSSSSSSSSSSSSSSSSSSSSSSSSSSSSSSSSSSSSSSSSSSSSSSSSSSSSSSSSSSSSSSSSSSSSSSSSSSSSSSSSSSSSSSSSSSSSS",
"SSSSSSSSSSSSSSSSSSSSSSSSSSSSSSSSSSSSSSSSSSSSSSSSSSSSSSSSSSSSSSSSSSSSSSSSSSSSSSSSSSSSSSSSSSSSSSSSSSSSSSSSSSSSSSSSSSSSSSSSSSSSSSSS",
"SSSSSSSSSSSSSSSSSSSSSSSSSSSSSSSSSSSSSSSSSSSSSSSSSSSSSSSSSSSSSSSSSSSSSSSSSSSSSSSSSSSSSSSSSSSSSSSSSSSSSSSSSSSSSSSSSSSSSSSSSSSSSSSS",
"SSSSSSSSSSSSSSSSSSSSSSZZZZZZZZZZZZZZSSSSSSSSSSSSSSSSSSSSSSZZZZZZZZZZZZZSSSSSSSSSSSSSSSSSSSSSSZZZZZZZZZZZZZZSSSSSSSSSSSSSSSSSSSSS",
"SSSSSSSSSSSSSSSSSSSSSSZZZZZZZZZZZZZZZSSSSSSSSSSSSSSSSSSSSZZZZZZZZZZZZZZZSSSSSSSSSSSSSSSSSSSSZZZZZZZZZZZZZZZSSSSSSSSSSSSSSSSSSSSS",
"SSSSSSSSSSSSSSSSSSSSSZZZZZZZZZZZZZZZZSSSSSSSSSSSSSSSSSSSSZZZZZZZZZZZZZZZZSSSSSSSSSSSSSSSSSSSZZZZZZZZZZZZZZZZSSSSSSSSSSSSSSSSSSSS",
"SSSSSSSSSSSSSSSSSSSSSZZZZZZZZZZZZZZZZSSSSSSSSSSSSSSSSSSSSZZZZZZZZZZZZZZZZSSSSSSSSSSSSSSSSSSSZZZZZZZZZZZZZZZZSSSSSSSSSSSSSSSSSSSS",
"SSSSSSSSSSSSSSSSSSSSSZZZZZZZZZZZZZZZZSSSSSSSSSSSSSSSSSSSSZZZZZZZZZZZZZZZZSSSSSSSSSSSSSSSSSSSZZZZZZZZZZZZZZZZSSSSSSSSSSSSSSSSSSSS",
"SSSSSSSSSSSSSSSSSSSSSZZZZZZZZZZZZZZZZSSSSSSSSSSSSSSSSSSSiZZZZZZZZZZZZZZZZSSSSSSSSSSSSSSSSSSSZZZZZZZZZZZZZZZZSSSSSSSSSSSSSSSSSSSS",
"SSSSSSSSSSSSSSSSSSSSSZZZZZZZZZZZZZZZZSSSSSSSSSSSSSSSSSSS8ZZZZZZZZZZZZZZZZSSSSSSSSSSSSSSSSSSSZZZZZZZZZZZZZZZZSSSSSSSSSSSSSSSSSSSS",
"SSSSSSSSSSSSSSSSSSSSSZZZZZZZZZZZZZZZZSSSSSSSSSSSSSSSSSSS0ZZZZZZZZZZZZZZZZSSSSSSSSSSSSSSSSSSSZZZZZZZZZZZZZZZZSSSSSSSSSSSSSSSSSSSS",
"SSSSSSSSSSSSSSSSSSSSSZZZZZZZZZZZZZZZZSSSSSSSSSSSSSSSSSSS6ZZZZZZZZZZZZZZZVSSSSSSSSSSSSSSSSSSSZZZZZZZZZZZZZZZZSSSSSSSSSSSSSSSSSSSS",
"SSSSSSSSSSSSSSSSSSSSSZZZZZZZZZZZZZZZZSSSSSSSSSSSSSSSSSSS6ZZZZZZZZZZZZZZZVSSSSSSSSSSSSSSSSSSSZZZZZZZZZZZZZZZZSSSSSSSSSSSSSSSSSSSS",
"SSSSSSSSSSSSSSSSSSSSSVZZZZZZZZZZZZZZZSSSSSSSSSSSSSSSSSSS5ZZZZZZZZZZZZZZZVSSSSSSSSSSSSSSSSSSSCZZZZZZZZZZZZZZCSSSSSSSSSSSSSSSSSSSS",
"SSSSSSSSSSSSSSSSSSSSSVZZZZZZZZZZZZZZZSSSSSSSSSSSSSSSSSSS9ZZZZZZZZZZZZZZZVSSSSSSSSSSSSSSSSSSSCZZZZZZZZZZZZZZVSSSSSSSSSSSSSSSSSSSS",
"SSSSSSSSSSSSSSSSSSSSSVVZZZZZZZZZZZZZZSSSSSSSSSSSSZZZZCCVVZZZZZZZZZZZZZZZCCZCZZZCSSSSSSSSSSSSCZZZZZZZZZZZZZZZSSSSSSSSSSSSSSSSSSSS",
"SSSSSSSSSSSSSSSSSSSSSVZZZZZZZZVZZZZZZSSSSSSSSSSVCZZZZCZZZZZCZZCZZCZCZZZZCZZZZZCZZZSSSSSSSSSSCZZZZZZZZZZZZZZVSSSSSSSSSSSSSSSSSSSS",
"SSSSSSSSSSSSSSSSSSSSSVZZZZZZZCZZZZZZVSSSSSSSSSSZCZZZZCCZZCZCZZZZZZZCZCZZZZCZZCZZZZSSSSSSSSSSZZZZZZZZZZZZZCZVSSSSSSSSSSSSSSSSSSSS",
"SSSSSSSSSSSSSSSSSSSSSVZZZZZVCZZZVZZZZSSSSSSSSSVZZZCCCZZZZZCZCZZCCZZZCZCZZCCZZZZCZVZSSSSSSSSSVZCZZVZZZZZZZCCVSSSSSSSSSSSSSSSSSSSS",
"SSSSSSSSSSSSSSSSSSSSSVVZVCVZZZZCZZZZVSSSSSSSSSVVCCCZZCZZCCCZCZZZCZCZCZCZCZCCZVZZVZVSSSSSSSSSCCZCZVZVCZZZZZZVSSSSSSSSSSSSSSSSSSSS",
"SSSSSSSSSSSSSSSSSSSSSVZZZZZZCCCCVZVZZSSSSSSSSSVZCZCZCCVZCZCCCCCCCCCCCZCCZCZCZZVCZZVSSSSSSSSSCCCCCZZCCZZVZVZVSSSSSSSSSSSSSSSSSSSS",
"SSSSSSSSSSSSSSSSSSSSSVZVCZCCZCCZVZVZZSSSSSSSSScVCCCZCCVVi5<,:,,,<<<><<4pVVVVZZZCZVVSSSSSSSSSCCZCZCZVCCZCCCZVSSSSSSSSSSSSSSSSSSSS",
"SSSSSSSSSSSSSSSSSSSSSVZZCCZCCCCCZCZCVSSSSSSSSScZZCZVCZc=                =cVZZVVZVZVSSSSSSSSSCCCCVZVZCZCCCCCVSSSSSSSSSSSSSSSSSSSS",
"SSSSSSSSSSSSSSSSSSSSScVVCCCCCCCCCCVZVSSSSSSSSSiVCCCCCV<                  <ZVZZVCZZVSSSSSSSSSVCCCZCCZCVCCCVCVSSSSSSSSSSSSSSSSSSSS",
"SSSSSSSSSSSSSSSSSSSSSVVZCCCCCCCCZVZZVSSSSSSSSScVZCVZCcXSSSSSSSSSSSSSSSS  XcZVCVZZVcSSSSSSSSSVCCCVZCVZCVCCZVVSSSSSSSSSSSSSSSSSSSS",
"SSSSSSSSSSSSSSSSSSSSSVVCCCVCCCVCVVZVVSSSSSSSSSiZVZVCViSSSSSSSSSSSSSSSSSS  iVZVZZVZcSSSSSSSSSVZVVVCCCCVCZCCVVSSSSSSSSSSSSSSSSSSSS",
"SSSSSSSSSSSSSSSSSSSSScCCVCVCVCCCZVZVVSSSSSSSSSiVVZCVVcSSSSSSSSSSSSSSSSSSS iVCVVVVVcSSSSSSSSSVVCVVCVCVCVCCVVVSSSSSSSSSSSSSSSSSSSS",
"SSSSSSSSSSSSSSSSSSSSSVCVCVCCVCVCVZVCVSSSSSSSSScVVVVVVVSSSSSSSSSSSSSSSSSSS%VVVVVVVZcSSSSSSSSSVVVVCCCCCZVVCCCVSSSSSSSSSSSSSSSSSSSS",
"SSSSSSSSSSSSSSSSSSSSScVCVCCVVCCVVVVVVSSSSSSSSSiVZVVVVVcSSSSSSSSSSSSSSSSSSiVZVVZVVVcSSSSSSSSSVVVVCVVVVVVCVVVVSSSSSSSSSSSSSSSSSSSS",
"SSSSSSSSSSSSSSSSSSSSScVVVVVVVVVVVVCCVSSSSSSSSSiVVVVVVVVVSSSSSSSSSSSSSSSScVVVVVVVVVcSSSSSSSSSVVVVVVVVVVVVVVVVSSSSSSSSSSSSSSSSSSSS",
"SSSSSSSSSSSSSSSSSSSSScVVVVVVVVVVVVVCVSSSSSSSSSiVVVVCVCVVVVVVVVVVVVVVVVVVVVVVVVVVVVcSSSSSSSSSVVVVVVVVVVVVVVVcSSSSSSSSSSSSSSSSSSSS",
"SSSSSSSSSSSSSSSSSSSSScVVVVVVVVVVVVVVVSSSSSSSSSiVVVVVVVVVVVVVVVVVVVVVVVVVVVVVVVVVVVcSSSSSSSSSVVVVVVVVVVVVVVVVSSSSSSSSSSSSSSSSSSSS",
"SSSSSSSSSSSSSSSSSSSSSVVVVVVVVVVVVVVVVSSSSSSSSSiVVVVVVVVVVVVVVVVVVVVVVVVVVVVVVVVVVVcSSSSSSSSSVVVVVVVVVVVVVVVVSSSSSSSSSSSSSSSSSSSS",
"SSSSSSSSSSSSSSSSSSSSScVVVVVVVVVVVVVcVSSSSSSSSS0VVVVVVVVVVVVVVVVcVVVVVccVVVVVVVVVVVcSSSSSSSSSVVVcVVVVVVVVVVVcSSSSSSSSSSSSSSSSSSSS",
"SSSSSSSSSSSSSSSSSSSSScVVVcVVVVcVVVVVVSSSSSSSSS-VVcVVVVVVVVVVVVVVVVVVVVVVcVVVVVVVVVSSSSSSSSSSVVVVVVVVVVVcVVVVSSSSSSSSSSSSSSSSSSSS",
"SSSSSSSSSSSSSSSSSSSSScVVVVVVVVVVVcVVVSSSSSSSSSS5VVVVVVVVVccVVVVVVVVVVcVVVVVVVVVVV0SSSSSSSSSScVVVVVVVVcVVVcVcSSSSSSSSSSSSSSSSSSSS",
"SSSSSSSSSSSSSSSSSSSSSccVVVcVVcVVVVVVVSSSSSSSSSS -0pcpicpcVVVVcVVVVVcVVVVcpicpici2SSSSSSSSSSSVVcVcVVVVVcVVVVcSSSSSSSSSSSSSSSSSSSS",
"SSSSSSSSSSSSSSSSSSSSScVVVVVcVVcVVVVcVSSSSSSSSSSS XXXXXXX1VVVVcVccVVcVVcV8.XXXXXXSSSSSSSSSSSSccVcVcVVcVcVVVccSSSSSSSSSSSSSSSSSSSS",
"SSSSSSSSSSSSSSSSSSSSScVccVVVVcVcVcVVVSSSSSSSSSSSS       -VVccVVVVVcVVcVV8     SSSSSSSSSSSSSScVVVVVcVVVVccVVcSSSSSSSSSSSSSSSSSSSS",
"SSSSSSSSSSSSSSSSSSSSScVVVVcVVVVcVVcVVSSSSSSSSSSSSSSSS   -cVcVccVVcVVcccV0 SSSSSSSSSSSSSSSSSSVVVccVcVVVcVcVccSSSSSSSSSSSSSSSSSSSS",
"SSSSSSSSSSSSSSSSSSSSScccccVccVcVccVcVSSSSSSSSSSSSSSSSSS -VcVVVcVcVcVcVVc0SSSSSSSSSSSSSSSSSSScccVVcVcccVcVcVcSSSSSSSSSSSSSSSSSSSS",
"SSSSSSSSSSSSSSSSSSSSSccVVccVcVVcVccVcSSSSSSSSSSSSSSSSSSS<VVcVcVcVcVccVcViSSSSSSSSSSSSSSSSSSScVVcVcVcVcVccVccSSSSSSSSSSSSSSSSSSSS",
"SSSSSSSSSSSSSSSSSSS53cVccVVccccVVcVVciSSSSSSSSSSSSSSSSSS<ccVVccVcVVcVcVciSSSSSSSSSSSSSSSSSSScccVcVcVcVVcVcVcSSSSSSSSSSSSSSSSSSSS",
"SSSSSSSSSSSSVVccVccccccVccVVVcccccVcVcccVcccVcSSSSSSSSSS1VcccVcccVcVVccVcSSSSSSSSSSSSSSSSSSScccccVVccccVVcccSSSSSSSSSSSSSSSSSSSS",
"SSSSSSSSSSSSVVcVcVVccVVcVccccVcVcVcccVVccVVccVSSSSSSSSSS1ccVcccVVcccccVViSSSSSSSSSSSSSSSSSSScVcVccccVVcccVcVSSSSSSSSSSSSSSSSSSSS",
"SSSSSSSSSSScVcVccVcccVVccVcVVcVccccccVccVcccVccSSSSSSSSS1ccVccVccccVcccViSSSSSSSSSSSSSSSSSSScccccccccccVccccSSSSSSSSSSSSSSSSSSSS",
"SSSSSSSSSSSccccccccccccccccccccVcVccVccVcVccccVSSSSSSSSS2VccVccccccccccciSSSSSSSSSSSSSSSSSSSccccccVcccccccccSSSSSSSSSSSSSSSSSSSS",
"SSSSSSSSSSSccccccccVcccVccccccccccccccccccVccccSSSSSSSSS1ccccccccVcccccccSSSSSSSSSSSSSSSSSSSccccccVccVccccccSSSSSSSSSSSSSSSSSSSS",
"SSSSSSSSSSSccccccccccciiiiiiiiiiiiiccccccccccccSSSSSSSSS1ccccccccccccccciSSSSSSSSSSSSSSSSSSSccccccccccccccccSSSSSSSSSSSSSSSSSSSS",
"SSSSSSSSSSScccccccci<@X............$<icccccccccSSSSSSSSS1ccccccccccccccciSSSSSSSSSSSSSSSSSSScccccccccccccccpSSSSSSSSSSSSSSSSSSSS",
"SSSSSSSSSSScccccccp%                 %iVcccccccSSSSSSSSS1ccccccccccccccccSSSSSSSSSSSSSSSSSSSccccccccccccccccSSSSSSSSSSSSSSSSSSSS",
"SSSSSSSSSSSccpcccc5  SSSSSSSSSSSSS    3ccccccccSSSSSSSSS<ccccicccccciccciSSSSSSSSSSSSSSSSSSSccpcccccccccccccSSSSSSSSSSSSSSSSSSSS",
"SSSSSSSSSSSccccccc&SSSSSSSSSSSSSSSSS  %icccccccSSSSSSSSS1ccccccccccccccciSSSSSSSSSSSSSSSSSSScccccccpccccicccSSSSSSSSSSSSSSSSSSSS",
"SSSSSSSSSSSccccpcc%SSSSSSSSSSSSSSSSSSS$cpccciccSSSSSSSSS<cpcccpcpcpcpccpcSSSSSSSSSSSScciii08pcpciccpcpcciccpipcpiccSSSSSSSSSSSSS",
"SSSSSSSSSSScccccpc2SSSSSSSSSSSSSSSSSSS=ccccccccSSSSSSSSS<ccccpcccccccccciSSSSSSSSSScccpccccccccccccccccccccciccccccpcSSSSSSSSSSS",
"SSSSSSSSSSScppccccrSSSSSSSSSSSSSSSSSSS0cpcpccciSSSSSSSSS<cpccccccccccccciSSSSSSSSSicccccccccpcccpcpcpccccciccciccccccSSSSSSSSSSS",
"SSSSSSSSSSScccpcpcc0SSSSSSSSSSSSSSSSS5iccccppccSSSSSSSSS,cccicpccpiccppciSSSSSSSSScicipccpiccciccccpciccccpccpcccicpccSSSSSSSSSS",
"SSSSSSSSSSSpiccppcciciSSSSSSSSSSSSS0iccipciccicSSSSSSSSS<cpcccpcpccicicciSSSSSSSSSccccpcpcccpcccpcciccciicccicpccpcpicSSSSSSSSSS",
"SSSSSSSSSSScccpcccicciccciccccccccccccpccccccccSSSSSSSSS<ccpppcpcppcciciiSSSSSSSS5ccppcpcpcicciccpccciccciiciccppcpcccSSSSSSSSSS",
"SSSSSSSSSSSccicipcicicciicicciciciiciccpcpciiciSSSSSSSSS<pcpcppccpcpcccpiSSSSSSSS2cpcpiccppt844433443344360cccpcpccpciSSSSSSSSSS",
"SSSSSSSSSSSiiccicpccpcicccicpcciicciccpciciccicSSSSSSSSS-ciciccpicpciciciSSSSSSSS1pcicccic3@X             .=6ccpciccciSSSSSSSSSS",
"SSSSSSSSSSSicicpicicicciccicpciciiciiciiciipcciSSSSSSSSS<ciccppccpcpcpiciSSSSSSSS1pcicicp5                  &iicipciciSSSSSSSSSS",
"SSSSSSSSSSS1iciccpciciciipciiccpccicicccicccip5SSSSSSSSS;cpiicicicpiiccpiSSSSSSSS<cpcicii* SSSSSSSSSSSSSS    3cipccicpSSSSSSSSSS",
"SSSSSSSSSSSS1ipciccciicpccicicicpcciicccpciii4SSSSSSSSSS;piccppiccicicipiSSSSSSSS<icicii0XSSSSSSSSSSSSSSSSS  -icicpiiiSSSSSSSSSS",
"SSSSSSSSSSSS @******=iiciipipicciicir<****==$SSSSSSSSSSS-icpiciciiiciicpwSSSSSSSS-ciiiciiSSSSSSSSSSSSSSSSSSS -cicipcciSSSSSSSSSS",
"SSSSSSSSSSSSS       .0ipipicipiiicici@     SSSSSSSSSSSSS-cciicciiiicccic0SSSSSSSS;cicpcip-SSSSSSSSSSSSSSSSSSS4pciciciiSSSSSSSSSS",
"SSSSSSSSSSSSSSS     .0cipiiccpcpiiici@   SSSSSSSSSSSSSSS-iiciiicccppiiii0SSSSSSSS-iiiicip0SSSSSSSSSSSSSSSSSS=pppiiicpiSSSSSSSSSS",
"SSSSSSSSSSSSSSSSSSS .0icpcipipppciiii#SSSSSSSSSSSSSSSSSS-ippipppiippppip0SSSSSSSS-iciiiipp0SSSSSSSSSSSSSSSS20piiippppiSSSSSSSSSS",
"SSSSSSSSSSSSSSSSSSSS.6iippiiipppiicii%SSSSSSSSSSSSSSSSSS;ipppppppppppppp0SSSSSSSS-iciicippppiiiiipiiiiiiiiiipppiiipppiSSSSSSSSSS",
"SSSSSSSSSSSSSSSSSSSSS0cippippppiicppiSSSSSSSSSSSSSSSSSSS-pppppppppipppip0SSSSSSSS-icppppippiiippppppppipiciiiicipiiiiiSSSSSSSSSS",
"SSSSSSSSSSSSSSSSSSSSS0iipipppipiiiipiSSSSSSSSSSSSSSSSSSS-piiiiiipppiippi0SSSSSSSS-iiiiippiipiiipipipippiiiiiipiiiiiciiSSSSSSSSSS",
"SSSSSSSSSSSSSSSSSSSSS0iiippiipiiiiipiSSSSSSSSSSSSSSSSSSS-iippiiiiiipiiii0SSSSSSSS-iiiiiiipiiiiiiiiiiiiiiiiiiiipiiiiiiiSSSSSSSSSS",
"SSSSSSSSSSSSSSSSSSSSS0iiiiiiiiiiiiiiiSSSSSSSSSSSSSSSSSSS-iiipiiiiiiipiii8SSSSSSSS$0iiiiiiiiiiiiiiiiipiiiiiiiiiiiiiiii5SSSSSSSSSS",
"SSSSSSSSSSSSSSSSSSSSS0iiiiiiiiiiiiiiiSSSSSSSSSSSSSSSSSSS=iiiiiriiiiieiii0SSSSSSSSS1iiiiiiiiiiiiiiiiiiiiiiiiiiiiiiiii0SSSSSSSSSSS",
"SSSSSSSSSSSSSSSSSSSSS6iiiiiiiiiiiiiiiSSSSSSSSSSSSSSSSSSS-iiiiiiiiiiiii0i8SSSSSSSSSS-60iyeee0iiiiiiiiiiii0iii0q0000i4SSSSSSSSSSSS",
"SSSSSSSSSSSSSSSSSSSSS0iieieii00i0iriiSSSSSSSSSSSSSSSSSSS=iiiii0iiiiiiiei8SSSSSSSSSS o@@@O@@*0iiieiiqiiiqiii0$@@@@@@SSSSSSSSSSSSS",
"SSSSSSSSSSSSSSSSSSSSS80iiieiiiiiiiitiSSSSSSSSSSSSSSSSSSS-ii00iiiieieqiii8SSSSSSSSSSS       O0iyiqiii0ieii0i6.     SSSSSSSSSSSSSS",
"SSSSSSSSSSSSSSSSSSSSS0iiei0ii0iiiiqi0SSSSSSSSSSSSSSSSSSS-0iiqiieiiiiiiii8SSSSSSSSSSSSSS    @0iiiiiieiiei0ii6.  SSSSSSSSSSSSSSSSS",
"SSSSSSSSSSSSSSSSSSSSS6iwi0i00ii00ii0iSSSSSSSSSSSSSSSSSSS=ii00tqi0y0i000i6SSSSSSSSSSSSSSSSS @0r00000ii0i00i06SSSSSSSSSSSSSSSSSSSS",
"SSSSSSSSSSSSSSSSSSSSS8i00iyiri0ii00i0SSSSSSSSSSSSSSSSSSS=i0tiei0i0q00i008SSSSSSSSSSSSSSSSSS@000ieei0i00e0ii6SSSSSSSSSSSSSSSSSSSS",
"SSSSSSSSSSSSSSSSSSSSS60ii00i00i000ii0SSSSSSSSSSSSSSSSSSS=0ii0i0i0yi0i0i06SSSSSSSSSSSSSSSSSS@0iiii00i0ie0iiy6SSSSSSSSSSSSSSSSSSSS",
"SSSSSSSSSSSSSSSSSSSSS6i00i0000i0ii00iSSSSSSSSSSSSSSSSSSS=i000ii0ii0wi0ii0SSSSSSSSSSSSSSSSSS$000rii000000eei8SSSSSSSSSSSSSSSSSSSS",
"SSSSSSSSSSSSSSSSSSSSS80ii00i0iy000000SSSSSSSSSSSSSSSSSSS=00i000000000i005SSSSSSSSSSSSSSSSSS$0i00000i0i0itr00SSSSSSSSSSSSSSSSSSSS",
"SSSSSSSSSSSSSSSSSSSSS5iw0000i0000i000SSSSSSSSSSSSSSSSSSS=0i00000000000006SSSSSSSSSSSSSSSSSS$6w000000000i0008SSSSSSSSSSSSSSSSSSSS",
"SSSSSSSSSSSSSSSSSSSSS6000000000000000SSSSSSSSSSSSSSSSSSS=00000000000000w6SSSSSSSSSSSSSSSSSSS0000000000000000SSSSSSSSSSSSSSSSSSSS",
"SSSSSSSSSSSSSSSSSSSSS3000000000000008SSSSSSSSSSSSSSSSSSS*000w000000000004SSSSSSSSSSSSSSSSSSS0000000000600004SSSSSSSSSSSSSSSSSSSS",
"SSSSSSSSSSSSSSSSSSSSS*0w0000000000002SSSSSSSSSSSSSSSSSSSS300600000800906SSSSSSSSSSSSSSSSSSSS-000000000w00001SSSSSSSSSSSSSSSSSSSS",
"SSSSSSSSSSSSSSSSSSSSSS-6000600900081SSSSSSSSSSSSSSSSSSSSS$2000000000003SSSSSSSSSSSSSSSSSSSSSS-8008600000y61SSSSSSSSSSSSSSSSSSSSS",
"SSSSSSSSSSSSSSSSSSSSSS +&&&&&&&&&&%SSSSSSSSSSSSSSSSSSSSSSS.%&&&&&&&&&&SSSSSSSSSSSSSSSSSSSSSSS #&&&&&&&&&&#SSSSSSSSSSSSSSSSSSSSSS",
"SSSSSSSSSSSSSSSSSSSSSSS          SSSSSSSSSSSSSSSSSSSSSSSSS           SSSSSSSSSSSSSSSSSSSSSSSSS          SSSSSSSSSSSSSSSSSSSSSSSS",
"SSSSSSSSSSSSSSSSSSSSSSSSS      SSSSSSSSSSSSSSSSSSSSSSSSSSSSS       SSSSSSSSSSSSSSSSSSSSSSSSSSSSS      SSSSSSSSSSSSSSSSSSSSSSSSSS",
"SSSSSSSSSSSSSSSSSSSSSSSSSSSSSSSSSSSSSSSSSSSSSSSSSSSSSSSSSSSSSSSSSSSSSSSSSSSSSSSSSSSSSSSSSSSSSSSSSSSSSSSSSSSSSSSSSSSSSSSSSSSSSSSS",
"SSSSSSSSSSSSSSSSSSSSSSSSSSSSSSSSSSSSSSSSSSSSSSSSSSSSSSSSSSSSSSSSSSSSSSSSSSSSSSSSSSSSSSSSSSSSSSSSSSSSSSSSSSSSSSSSSSSSSSSSSSSSSSSS",
"SSSSSSSSSSSSSSSSSSSSSSSSSSSSSSSSSSSSSSSSSSSSSSSSSSSSSSSSSSSSSSSSSSSSSSSSSSSSSSSSSSSSSSSSSSSSSSSSSSSSSSSSSSSSSSSSSSSSSSSSSSSSSSSS",
"SSSSSSSSSSSSSSSSSSSSSSSSSSSSSSSSSSSSSSSSSSSSSSSSSSSSSSSSSSSSSSSSSSSSSSSSSSSSSSSSSSSSSSSSSSSSSSSSSSSSSSSSSSSSSSSSSSSSSSSSSSSSSSSS",
"SSSSSSSSSSSSSSSSSSSSSSSSSSSSSSSSSSSSSSSSSSSSSSSSSSSSSSSSSSSSSSSSSSSSSSSSSSSSSSSSSSSSSSSSSSSSSSSSSSSSSSSSSSSSSSSSSSSSSSSSSSSSSSSS",
"SSSSSSSSSSSSSSSSSSSSSSSSSSSSSSSSSSSSSSSSSSSSSSSSSSSSSSSSSSSSSSSSSSSSSSSSSSSSSSSSSSSSSSSSSSSSSSSSSSSSSSSSSSSSSSSSSSSSSSSSSSSSSSSS",
"SSSSSSSSSSSSSSSSSSSSSSSSSSSSSSSSSSSSSSSSSSSSSSSSSSSSSSSSSSSSSSSSSSSSSSSSSSSSSSSSSSSSSSSSSSSSSSSSSSSSSSSSSSSSSSSSSSSSSSSSSSSSSSSS",
"SSSSSSSSSSSSSSSSSSSSSSSSSSSSSSSSSSSSSSSSSSSSSSSSSSSSSSSSSSSSSSSSSSSSSSSSSSSSSSSSSSSSSSSSSSSSSSSSSSSSSSSSSSSSSSSSSSSSSSSSSSSSSSSS",
"SSSSSSSSSSSSSSSSSSSSSSSSSSSSSSSSSSSSSSSSSSSSSSSSSSSSSSSSSSSSSSSSSSSSSSSSSSSSSSSSSSSSSSSSSSSSSSSSSSSSSSSSSSSSSSSSSSSSSSSSSSSSSSSS",
"SSSSSSSSSSSSSSSSSSSSSSSSSSSSSSSSSSSSSSSSSSSSSSSSSSSSSSSSSSSSSSSSSSSSSSSSSSSSSSSSSSSSSSSSSSSSSSSSSSSSSSSSSSSSSSSSSSSSSSSSSSSSSSSS",
"SSSSSSSSSSSSSSSSSSSSSSSSSSSSSSSSSSSSSSSSSSSSSSSSSSSSSSSSSSSSSSSSSSSSSSSSSSSSSSSSSSSSSSSSSSSSSSSSSSSSSSSSSSSSSSSSSSSSSSSSSSSSSSSS",
"SSSSSSSSSSSSSSSSSSSSSSSSSSSSSSSSSSSSSSSSSSSSSSSSSSSSSSSSSSSSSSSSSSSSSSSSSSSSSSSSSSSSSSSSSSSSSSSSSSSSSSSSSSSSSSSSSSSSSSSSSSSSSSSS",
"SSSSSSSSSSSSSSSSSSSSSSSSSSSSSSSSSSSSSSSSSSSSSSSSSSSSSSSSSSSSSSSSSSSSSSSSSSSSSSSSSSSSSSSSSSSSSSSSSSSSSSSSSSSSSSSSSSSSSSSSSSSSSSSS",
"SSSSSSSSSSSSSSSSSSSSSSSSSSSSSSSSSSSSSSSSSSSSSSSSSSSSSSSSSSSSSSSSSSSSSSSSSSSSSSSSSSSSSSSSSSSSSSSSSSSSSSSSSSSSSSSSSSSSSSSSSSSSSSSS",
"SSSSSSSSSSSSSSSSSSSSSSSSSSSSSSSSSSSSSSSSSSSSSSSSSSSSSSSSSSSSSSSSSSSSSSSSSSSSSSSSSSSSSSSSSSSSSSSSSSSSSSSSSSSSSSSSSSSSSSSSSSSSSSSS",
"SSSSSSSSSSSSSSSSSSSSSSSSSSSSSSSSSSSSSSSSSSSSSSSSSSSSSSSSSSSSSSSSSSSSSSSSSSSSSSSSSSSSSSSSSSSSSSSSSSSSSSSSSSSSSSSSSSSSSSSSSSSSSSSS",
"SSSSSSSSSSSSSSSSSSSSSSSSSSSSSSSSSSSSSSSSSSSSSSSSSSSSSSSSSSSSSSSSSSSSSSSSSSSSSSSSSSSSSSSSSSSSSSSSSSSSSSSSSSSSSSSSSSSSSSSSSSSSSSSS",
"SSSSSSSSSSSSSSSSSSSSSSSSSSSSSSSSSSSSSSSSSSSSSSSSSSSSSSSSSSSSSSSSSSSSSSSSSSSSSSSSSSSSSSSSSSSSSSSSSSSSSSSSSSSSSSSSSSSSSSSSSSSSSSSS"
};
