/* XPM */
static char *gcolor_[] = {
/* columns rows colors chars-per-pixel */
"128 128 56 1",
"  c #000100010001",
". c #270B270B270B",
"X c #389138913891",
"o c #4F144F144F14",
"O c #61BF64536453",
"+ c #781378137813",
"@ c #815585CE8155",
"# c #8C4E8C4E8C4E",
"$ c #9A859A859A85",
"% c #A5A4A20BA20B",
"& c #AAD6AAD6AAD6",
"* c #B60BB60BB60B",
"= c #C3EFC3EFC3EF",
"- c #CB29CB29CB29",
"; c #D497D39FD39F",
": c #D849D849D763",
"> c #DBB2DBB2DBB2",
", c #DE15DE15DED9",
"< c #E10CE10CE10C",
"1 c #E6E1E6E1E6E1",
"2 c #E924E924E809",
"3 c #E898E898E924",
"4 c #E898E9ADE898",
"5 c #EB37EB37EB37",
"6 c #EC30ED1EEC30",
"7 c #ECEDECE5ECFE",
"8 c #EEDDEEDDEEDD",
"9 c #F076F013F013",
"0 c #F013F076F013",
"q c #F0D7F0D7F013",
"w c #F013F013F076",
"e c #F013F076F076",
"r c #F193F193F193",
"t c #F325F303F334",
"y c #F433F433F433",
"u c #F558F59EF558",
"i c #F59EF59EF558",
"p c #F558F558F59E",
"a c #F59EF558F59E",
"s c #F558F59EF59E",
"d c #F6A4F6A4F6A4",
"f c #F794F75AF75A",
"g c #F75AF75AF794",
"h c #F83AF83AF83A",
"j c #F90CF924F923",
"k c #F9EEF9EEF9EE",
"l c #FA94FA6CFA6C",
"z c #FA6CFA94FA6C",
"x c #FA6CFA6CFA94",
"c c #FA94FA6CFA94",
"v c #FA6CFA94FA94",
"b c #FB2CFB2CFB2C",
"n c #FBFFFC04FC01",
"m c #FCF0FCF3FCF1",
"M c #FE04FE04FE00",
"N c None",
/* pixels */
"NNNNNNNNNNNNNNNNNNNNNNNNNNNNNNNNNNNNNNNNNNNNNNNNNNNNNNNNNNNNNNNNNNNNNNNNNNNNNNNNNNNNNNNNNNNNNNNNNNNNNNNNNNNNNNNNNNNNNNNNNNNNNNNN",
"NNNNNNNNNNNNNNNNNNNNNNNNNNNNNNNNNNNNNNNNNNNNNNNNNNNNNNNNNNNNNNNNNNNNNNNNNNNNNNNNNNNNNNNNNNNNNNNNNNNNNNNNNNNNNNNNNNNNNNNNNNNNNNNN",
"NNNNNNNNNNNNNNNNNNNNNNNNNNNNNNNNNNNNNNNNNNNNNNNNNNNNNNNNNNNNNNNNNNNNNNNNNNNNNNNNNNNNNNNNNNNNNNNNNNNNNNNNNNNNNNNNNNNNNNNNNNNNNNNN",
"NNNNNNNNNNNNNNNNNNNNNNNNNNNNNNNNNNNNNNNNNNNNNNNNNNNNNNNNNNNNNNNNNNNNNNNNNNNNNNNNNNNNNNNNNNNNNNNNNNNNNNNNNNNNNNNNNNNNNNNNNNNNNNNN",
"NNNNNNNNNNNNNNNNNNNNNNNNNNNNNNNNNNNNNNNNNNNNNNNNNNNNNNNNNNNNNNNNNNNNNNNNNNNNNNNNNNNNNNNNNNNNNNNNNNNNNNNNNNNNNNNNNNNNNNNNNNNNNNNN",
"NNNNNNNNNNNNNNNNNNNNNNNNNNNNNNNNNNNNNNNNNNNNNNNNNNNNNNNNNNNNNNNmmmNNNNNNNNNNNNNNNNNNNNNNNNNNNNNNNNNNNNNNNNNNNNNNNNNNNNNNNNNNNNNN",
"NNNNNNNNNNNNNNNNNNNNNNNNNNNNNNNNNNNNNNNNNNNNNNNNNNNNNNNNNNNNNmmmmmmmNNNNNNNNNNNNNNNNNNNNNNNNNNNNNNNNNNNNNNNNNNNNNNNNNNNNNNNNNNNN",
"NNNNNNNNNNNNNNNNNNNNNNNNNNNNNNNNNNNNNNNNNNNNNNNNNNNNNNNNNNmmmmmmmmmmmmmNNNNNNNNNNNNNNNNNNNNNNNNNNNNNNNNNNNNNNNNNNNNNNNNNNNNNNNNN",
"NNNNNNNNNNNNNNNNNNNNNNNNNNNNNNNNNNNNNNNNNNNNNNNNNNNNNNNNmmmmmmmmmmmmmmmmmNNNNNNNNNNNNNNNNNNNNNNNNNNNNNNNNNNNNNNNNNNNNNNNNNNNNNNN",
"NNNNNNNNNNNNNNNNNNNNNNNNNNNNNNNNNNNNNNNNNNNNNNNNNNNNNNmmmmmmmmmmmmmmmmmmmmmNNNNNNNNNNNNNNNNNNNNNNNNNNNNNNNNNNNNNNNNNNNNNNNNNNNNN",
"NNNNNNNNNNNNNNNNNNNNNNNNNNNNNNNNNNNNNNNNNNNNNNNNNNNmmmmmmmmmmmmmmmmmmmmmmmmmmmNNNNNNNNNNNNNNNNNNNNNNNNNNNNNNNNNNNNNNNNNNNNNNNNNN",
"NNNNNNNNNNNNNNNNNNNNNNNNNNNNNNNNNNNNNNNNNNNNNNNNNmmmmmmmmmmmmmmmmmmmmmmmmmmmmmmmNNNNNNNNNNNNNNNNNNNNNNNNNNNNNNNNNNNNNNNNNNNNNNNN",
"NNNNNNNNNNNNNNNNNNNNNNNNNNNNNNNNNNNNNNNNNNNNNNNmmmmmmmmmmmmmmmmmmmmmmmmmmmmmmmmmmmNNNNNNNNNNNNNNNNNNNNNNNNNNNNNNNNNNNNNNNNNNNNNN",
"NNNNNNNNNNNNNNNNNNNNNNNNNNNNNNNNNNNNNNNNNNNNmmmmmmmmmmmmmmmmmmb-O:rmmmmmmmmmmmmmmmmmmNNNNNNNNNNNNNNNNNNNNNNNNNNNNNNNNNNNNNNNNNNN",
"NNNNNNNNNNNNNNNNNNNNNNNNNNNNNNNNNNNNNNNNNNmmmmmmmmmmmmmmmmmm5%X    $8bmmmmmmmmmmmmmmmmmNNNNNNNNNNNNNNNNNNNNNNNNNNNNNNNNNNNNNNNNN",
"NNNNNNNNNNNNNNNNNNNNNNNNNNNNNNNNNNNNNNNNmmmmmmmmmmmmmmmmmb5$         +-bmmmmmmmmmmmmmmmmmNNNNNNNNNNNNNNNNNNNNNNNNNNNNNNNNNNNNNNN",
"NNNNNNNNNNNNNNNNNNNNNNNNNNNNNNNNNNNNNmmmmmmmmmmmmmmmmmbg-X  NNNNNNN    X-gmmmmmmmmmmmmmmmmmNNNNNNNNNNNNNNNNNNNNNNNNNNNNNNNNNNNNN",
"NNNNNNNNNNNNNNNNNNNNNNNNNNNNNNNNNNNmmmmmmmmmmmmmmmmmn5$X NNNNNNNNNNNNN   X$5mmmmmmmmmmmmmmmmmmNNNNNNNNNNNNNNNNNNNNNNNNNNNNNNNNNN",
"NNNNNNNNNNNNNNNNNNNNNNNNNNNNNNNNNmmmmmmmmmmmmmmmmmh1$  NNNNNNNNNNNNNNNNN    $<gmmmmmmmmmmmmmmmmmNNNNNNNNNNNNNNNNNNNNNNNNNNNNNNNN",
"NNNNNNNNNNNNNNNNNNNNNNNNNNNNNNmmmmmmmmmmmmmmmmmmb-X  NNNNNNNNNNNNNNNNNNNNN    X-bmmmmmmmmmmmmmmmmmNNNNNNNNNNNNNNNNNNNNNNNNNNNNNN",
"NNNNNNNNNNNNNNNNNNNNNNNNNNNNmmmmmmmmmmmmmmmmmb5$X NNNNNNNNNNNNNNNNNNNNNNNNNNN   X-8bmmmmmmmmmmmmmmmmmNNNNNNNNNNNNNNNNNNNNNNNNNNN",
"NNNNNNNNNNNNNNNNNNNNNNNNNNmmmmmmmmmmmmmmmmbb1$  NNNNNNNNNNNNNNNNNNNNNNNNNNNNNNN    $8bmmmmmmmmmmmmmmmmmNNNNNNNNNNNNNNNNNNNNNNNNN",
"NNNNNNNNNNNNNNNNNNNNNNNmmmmmmmmmmmmmmmmmmg-o  NNNNNNNNNNNNNNNNNNNNNNNNNNNNNNNNNNN    O-gmmmmmmmmmmmmmmmmmNNNNNNNNNNNNNNNNNNNNNNN",
"NNNNNNNNNNNNNNNNNNNNNmmmmmmmmmmmmmmmmmb8%o NNNNNNNNNNNNNNNNNNNNNNNNNNNNNNNNNNNNNNNNN   o-gmmmmmmmmmmmmmmmmmmNNNNNNNNNNNNNNNNNNNN",
"NNNNNNNNNNNNNNNNNNNmmmmmmmmmmmmmmmmmg1$  NNNNNNNNNNNNNNNNNNNNNNNNNNNNNNNNNNNNNNNNNNNNN   X$5bmmmmmmmmmmmmmmmmmNNNNNNNNNNNNNNNNNN",
"NNNNNNNNNNNNNNNNmmmmmmmmmmmmmmmmmmg-o  NNNNNNNNNNNNNNNNNNNNNNNNNNNNNNNNNNNNNNNNNNNNNNNNN    #,gbmmmmmmmmmmmmmmmmNNNNNNNNNNNNNNNN",
"NNNNNNNNNNNNNNmmmmmmmmmmmmmmmmmm8*o NNNNNNNNNNNNNNNNNNNNNNNNNNNNNNNNNNNNNNNNNNNNNNNNNNNNNN    o-gmmmmmmmmmmmmmmmmmNNNNNNNNNNNNNN",
"NNNNNNNNNNNNNmmmmmmmmmmmmmmmmg5#  NNNNNNNNNNNNNNNNNNNNNNNNNNNNNNNNNNNNNNNNNNNNNNNNNNNNNNNNNNN   o=6bmmmmmmmmmmmmmmmmNNNNNNNNNNNN",
"NNNNNNNNNNNNNmmmmmmmmmmmmbbg-o  NNNNNNNNNNNNNNNNNNNNNNNNNNNNNNNNNNNNNNNNNNNNNNNNNNNNNNNNNNNNNNN    #8bbmmmmmmmmmmmmmmNNNNNNNNNNN",
"NNNNNNNNNNNNbmmmmmmmmmmmb5*o NNNNNNNNNNNNNNNNNNNNNNNNNNNNNNNNNNNNNNNNNNNNNNNNNNNNNNNNNNNNNNNNNNNN    o-ymmmmmmmmmmmmmNNNNNNNNNNN",
"NNNNNNNNNNNNgmmmmmmmmbmm8. NNNNNNNNNNNNNNNNNNNNNNNNNNNNNNNNNNNNNNNNNNNNNNNNNNNNNNNNNNNNNNNNNNNNNNNNN   o-gmmmmmmmmmmmNNNNNNNNNNN",
"NNNNNNNNNNNNrmmmmmmmmmmmbr$NNNNNNNNNNNNNNNNNNNNNNNNNNNNNNNNNNNNNNNNNNNNNNNNNNNNNNNNNNNNNNNNNNNNNNNNNNN .,bmmmmmmmmmmmNNNNNNNNNNN",
"NNNNNNNNNNNNrmmnmmmnmmmmmmb5NNNNNNNNNNNNNNNNNNNNNNNNNNNNNNNNNNNNNNNNNNNNNNNNNNNNNNNNNNNNNNNNNNNNNNNNNN$qbmnmnmmnmmmmnNNNNNNNNNNN",
"NNNNNNNNNNNN8mmmmmmmnmnmmnmbbNNNNNNNNNNNNNNNNNNNNNNNNNNNNNNNNNNNNNNNNNNNNNNNNNNNNNNNNNNNNNNNNNNNNNNNN8bmmmmmmmmmmnmnnNNNNNNNNNNN",
"NNNNNNNNNNNN5mnmmbmbmmmmnnnmmnNNNNNNNNNNNNNNNNNNNNNNNNNNNNNNNNNNNNNNNNNNNNNNNNNNNNNNNNNNNNNNNNNNNNNNbmbmnmmnnmnmnmmnmNNNNNNNNNNN",
"NNNNNNNNNNNN5bbmnmnbbmbmmmmbbmmbNNNNNNNNNNNNNNNNNNNNNNNNNNNNNNNNNNNNNNNNNNNNNNNNNNNNNNNNNNNNNNNNNNbbbmbnmnnmmnnnmnmnbNNNNNNNNNNN",
"NNNNNNNNNNNN5bmbmnnggbmnbmbmnmmmmbNNNNNNNNNNNNNNNNNNNNNNNNNNNNNNNNNNNNNNNNNNNNNNNNNNNNNNNNNNNNNNNbmbbmbmnmnnbbbmnnmnbNNNNNNNNNNN",
"NNNNNNNNNNNN5bbmbmn<+1bmmnmbnnbmmbmNNNNNNNNNNNNNNNNNNNNNNNNNNNNNNNNNNNNNNNNNNNNNNNNNNNNNNNNNNNNbmmbmbmmbmnnnggnmnnnnbNNNNNNNNNNN",
"NNNNNNNNNNNN5bmnnnm< .-rbbbmnbmbbmnbbNNNNNNNNNNNNNNNNNNNNNNNNNNNNNNNNNNNNNNNNNNNNNNNNNNNNNNNNNbbbmmbmbnnmbh<+,mbnnnnbNNNNNNNNNNN",
"NNNNNNNNNNNN3mnnnnb<   X<bbnnmbmmbmbmbNNNNNNNNNNNNNNNNNNNNNNNNNNNNNNNNNNNNNNNNNNNNNNNNNNNNNNbnmmmbbmbmbmbr&  <bmnnnnrNNNNNNNNNNN",
"NNNNNNNNNNNN5bmbnnn1N    *rbbmnbnmnnnnnbNNNNNNNNNNNNNNNNNNNNNNNNNNNNNNNNNNNNNNNNNNNNNNNNNNbbnnmbbbmbbbbb,X   <bbmbbmrNNNNNNNNNNN",
"NNNNNNNNNNNN1bmnbnb8NNNN  .:gnbbbnbnbmnnbbNNNNNNNNNNNNNNNNNNNNNNNNNNNNNNNNNNNNNNNNNNNNNNNbbnbmbnbmmbbb5+ NNN <mbbbmbrNNNNNNNNNNN",
"NNNNNNNNNNNN1mbbbnbgNNNNN   #1bbnbnbnbnbmbbNNNNNNNNNNNNNNNNNNNNNNNNNNNNNNNNNNNNNNNNNNNNbbbbmbnbnmnbbg-.NNNNNN1bmbbmbgNNNNNNNNNNN",
"NNNNNNNNNNNN;bbbnbbbNNNNNNN  .=gbnnbbnbnbbmbbNNNNNNNNNNNNNNNNNNNNNNNNNNNNNNNNNNNNNNNNNbbmbbnbnnbbbg<# NNNNNNN5bbbnmbrNNNNNNNNNNN",
"NNNNNNNNNNNNNbbbbbbbNNNNNNNNN  @>gnbbbbbbnbbbbNNNNNNNNNNNNNNNNNNNNNNNNNNNNNNNNNNNNNNbbbbbnbbbbbbbr* NNNNNNNNNgbbbnbbgNNNNNNNNNNN",
"NNNNNNNNNNNNNgbbbbbbNNNNNNNNNN   *rbbbbnbbnnbbbbNNNNNNNNNNNNNNNNNNNNNNNNNNNNNNNNNNbbbbbbbbbnbbbg>XNNNNNNNNNNNbbbbnbbNNNNNNNNNNNN",
"NNNNNNNNNNNNNgbbbbbbNNNNNNNNNNNN  X>gbbbbbnbbbbbbNNNNNNNNNNNNNNNNNNNNNNNNNNNNNNNNbbbbbbnbbmbbb5+ NNNNNNNNNNNNhbbbbbbNNNNNNNNNNNN",
"NNNNNNNNNNNNNbbbbbbbNNNNNNNNNNNNN   +5bbbbbbbbbbbbbNNNNNNNNNNNNNNNNNNNNNNNNNNNNbbbbbbbbbbbbbr=.NNNNNNNNNNNNNNbbbbbbbNNNNNNNNNNNN",
"NNNNNNNNNNNNNgbbbbbgNNNNNNNNNNNNNNN  .=gbbbbbbbbbbbhbNNNNNNNNNNNNNNNNNNNNNNNNNbbbbbbbbbbbbg>+NNNNNNNNNNNNNNNNghbbbbbNNNNNNNNNNNN",
"NNNNNNNNNNNNNbbbbbbbNNNNNNNNNNNNNNNNN  +>gbbbbhbbbbbbbNNNNNNNNNNNNNNNNNNNNNNbbbbbbbbhbbbb8* NNNNNNNNNNNNNNNNNgbbbbbgNNNNNNNNNNNN",
"NNNNNNNNNNNNNhbbbbbbNNNNNNNNNNNNNNNNNN   *8bbbbbbbbbbbbbNNNNNNNNNNNNNNNNNNbbbbbbbbbbbbby;XNNNNNNNNNNNNNNNNNNNhbbbbbgNNNNNNNNNNNN",
"NNNNNNNNNNNNNgbbbhbgNNNNNNNNNNNNNNNNNNNN  o>ghbbbhbbgbbbbNNNNNNNNNNNNNNNNbbbbhbbhbbbbg5+ NNNNNNNNNNNNNNNNNNN;bbbhbbbNNNNNNNNNNNN",
"NNNNNNNNNNNNNggbbbbbNNNNNNNNNNNNNNNNNNNNN   $6bbbbbhbbhbhbbNNNNNNNNNNNNbbbbbbbbbbbbg8*.NNNNNNNNNNNNNNNNNNNNN3bbbbbbgNNNNNNNNNNNN",
"NNNNNNNNNNNNNgbbbbhhNNNNNNNNNNNNNNNNNNNNNNN  .=rhbhbbbhbbbbgbNNNNNNNNNgbgbhbgbbhbbg>oNNNNNNNNNNNNNNNNNNNNNNN5ghbbhbrNNNNNNNNNNNN",
"NNNNNNNNNNNNNgbbhbbgNNNNNNNNNNNNNNNNNNNNNNNN   +5gbbbbbbbbgbbbNNNNNNbgbbbbbgbbbgg8* NNNNNNNNNNNNNNNNNNNNNNNN5bbbbbh8NNNNNNNNNNNN",
"NNNNNNNNNNNNNggbbhbbNNNNNNNNNNNNNNNNNNNNNNNNNN  .&8gbhbhgbbbbgbhNNgbbbbhgbbbhbbr=.NNNNNNNNNNNNNNNNNNNNNNNNNN1bghhbb9NNNNNNNNNNNN",
"NNNNNNNNNNNNNgbbbbhgNNNNNNNNNNNNNNNNNNNNNNNNNNNN  o>gbbbbbhbhbhbhhbbhbbhbhbbgg5+ NNNNNNNNNNNNNNNNNNNNNNNNNNN1bgbbbbqNNNNNNNNNNNN",
"NNNNNNNNNNNNNgbhgbbgNNNNNNNNNNNNNNNNNNNNNNNNNNNNN   &5gggbbhbbbhbbghbgbbbbbg5&.NNNNNNNNNNNNNNNNNNNNNNNNNNNNN1bbbhgbrNNNNNNNNNNNN",
"NNNNNNNNNNNNNgbbbgbhNNNNNNNNNNNNNNNNNNNNNNNNNNNNNNN  X=rbhgbbhbhhbbbbgbhhbg>oNNNNNNNNNNNNNNNNNNNNNNNNNNNNNNN8gbhhbbrNNNNNNNNNNNN",
"NNNNNNNNNNNNNrgghbhbgNNNNNNNNNNNNNNNNNNNNNNNNNNNNNNN   +1gbggbgbgbhhbhbbg5& NNNNNNNNNNNNNNNNNNNNNNNNNNNNNNNNgbbgbggNNNNNNNNNNNNN",
"NNNNNNNNNNNNN1gbhbhbrNNNNNNNNNNNNNNNNNNNNNNNNNNNNNNNNN  .&5gbbghhbgbbggr-.NNNNNNNNNNNNNNNNNNNNNNNNNNNNNNNNNNgbghgbgNNNNNNNNNNNNN",
"NNNNNNNNNNNNN<bgjhbhrNNNNNNNNNNNNNNNNNNNNNNNNNNNNNNNNNNN  o>ggbbbgbhbg1+ NNNNNNNNNNNNNNNNNNNNNNNNNNNNNNNNNNNghbbbggNNNNNNNNNNNNN",
"NNNNNNNNNNNNN<gbjhhhrNNNNNNNNNNNNNNNNNNNNNNNNNNNNNNNNNNNN   &5gghhghr&.NNNNNNNNNNNNNNNNNNNNNNNNNNNNNNNNNNNNNyhghgbgNNNNNNNNNNNNN",
"NNNNNNNNNNNNN<bghbhbrNNNNNNNNNNNNNNNNNNNNNNNNNNNNNNNNNNNNNN  &gbhhbh8 NNNNNNNNNNNNNNNNNNNNNNNNNNNNNNNNNNNNNNggbgbggNNNNNNNNNNNNN",
"NNNNNNNNNNNNN<hhgbbhrNNNNNNNNNNNNNNNNNNNNNNNNNNNNNNNNNNNNNNN &gghhhh8NNNNNNNNNNNNNNNNNNNNNNNNNNNNNNNNNNNNNNNhhhhhhhNNNNNNNNNNNNN",
"NNNNNNNNNNNNN<hhhggg8NNNNNNNNNNNNNNNNNNNNNNNNNNNNNNNNNNNNNNNN&gbbghhrNNNNNNNNNNNNNNNNNNNNNNNNNNNNNNNNNNNNNNNghhhhhgNNNNNNNNNNNNN",
"NNNNNNNNNNNNN<hhghgg8NNNNNNNNNNNNNNNNNNNNNNNNNNNNNNNNNNNNNNNN&gghhhhrNNNNNNNNNNNNNNNNNNNNNNNNNNNNNNNNNNNNNN<hhhhhhyNNNNNNNNNNNNN",
"NNNNNNNNNNNNN<hhhhbg8NNNNNNNNNNNNNNNNNNNNNNNNNNNNNNNNNNNNNNNN*ghhhhhrNNNNNNNNNNNNNNNNNNNNNNNNNNNNNNNNNNNNNN<hhhhhg8NNNNNNNNNNNNN",
"NNNNNNNNNNNNN<hhghhg8NNNNNNNNNNNNNNNNNNNNNNNNNNNNNNNNNNNNNNNN*ggghhhrNNNNNNNNNNNNNNNNNNNNNNNNNNNNNNNNNNNNNN<hghhhg5NNNNNNNNNNNNN",
"NNNNNNNNNNNNN<hhhggh8NNNNNNNNNNNNNNNNNNNNNNNNNNNNNNNNNNNNNNNN*ggggggyNNNNNNNNNNNNNNNNNNNNNNNNNNNNNNNNNNNNNN<hhgghg8NNNNNNNNNNNNN",
"NNNNNNNNNNNNN<ggghhg8NNNNNNNNNNNNNNNNNNNNNNNNNNNNNNNNNNNNNNNN=yggghgyNNNNNNNNNNNNNNNNNNNNNNNNNNNNNNNNNNNNNN<gghhgg6NNNNNNNNNNNNN",
"NNNNNNNNNNNNN,hggggg8NNNNNNNNNNNNNNNNNNNNNNNNNNNNNNNNNNNNNNNN*ggggggyNNNNNNNNNNNNNNNNNNNNNNNNNNNNNNNNNNNNNN,hyyggh8NNNNNNNNNNNNN",
"NNNNNNNNNNNNN>yhhghh6NNNNNNNNNNNNNNNNNNNNNNNNNNNNNNNNNNNNNNNN=ggygggyNNNNNNNNNNNNNNNNNNNNNNNNNNNNNNNNNNNNNN1gggggg8NNNNNNNNNNNNN",
"NNNNNNNNNNNNN<ggygyh6NNNNNNNNNNNNNNNNNNNNNNNNNNNNNNNNNNNNNNNN*ygggggyNNNNNNNNNNNNNNNNNNNNNNNNNNNNNNNNNNNNNNrgyggggNNNNNNNNNNNNNN",
"NNNNNNNNNNNNN>ggghhgyNNNNNNNNNNNNNNNNNNNNNNNNNNNNNNNNNNNNNNNN*gghyggrNNNNNNNNNNNNNNNNNNNNNNNNNNNNNNNNNNNNNNrgggygrNNNNNNNNNNNNNN",
"NNNNNNNNNNNNN>gggyyhgNNNNNNNNNNNNNNNNNNNNNNNNNNNNNNNNNNNNNNNN*ggghggrNNNNNNNNNNNNNNNNNNNNNNNNNNNNNNNNNNNNNNryggggyNNNNNNNNNNNNNN",
"NNNNNNNNNNNNN$qgggygyNNNNNNNNNNNNNNNNNNNNNNNNNNNNNNNNNNNNNNNN*rgyyhyrNNNNNNNNNNNNNNNNNNNNNNNNNNNNNNNNNNNNNNgggyggyNNNNNNNNNNNNNN",
"NNNNNNNNNNNNNNqgygygyNNNNNNNNNNNNNNNNNNNNNNNNNNNNNNNNNNNNNNNN*gghgyhrNNNNNNNNNNNNNNNNNNNNNNNNNNNNNNNNNNNNNNyrggggrNNNNNNNNNNNNNN",
"NNNNNNNNNNNNNNrhgygyyNNNNNNNNNNNNNNNNNNNNNNNNNNNNNNNNNNNNNNNN*gggghyrNNNNNNNNNNNNNNNNNNNNNNNNNNNNNNNNNNNNNNrgrgggyNNNNNNNNNNNNNN",
"NNNNNNNNNNNNNNqygyggyNNNNNNNNNNNNNNNNNNNNNNNNNNNNNNNNNNNNNNNN*yryyhyrNNNNNNNNNNNNNNNNNNNNNNNNNNNNNNNNNNNNNNrygyggyNNNNNNNNNNNNNN",
"NNNNNNNNNNNNNNrggygygrNNNNNNNNNNNNNNNNNNNNNNNNNNNNNNNNNNNNNNN*ggyyyyqNNNNNNNNNNNNNNNNNNNNNNNNNNNNNNNNNNNNN,ryggyyqNNNNNNNNNNNNNN",
"NNNNNNNNNNNNNNryygyggyrNNNNNNNNNNNNNNNNNNNNNNNNNNNNNNNNNNNNNN*rggygyrNNNNNNNNNNNNNNNNNNNNNNNNNNNNNNNNNNNN2ygggrgg1NNNNNNNNNNNNNN",
"NNNNNNNNNNNNNNrygrgyygygrNNNNNNNNNNNNNNNNNNNNNNNNNNNNNNNNNNNN*gryyygrNNNNNNNNNNNNNNNNNNNNNNNNNNNNNNNNNNNrrgrrggry5NNNNNNNNNNNNNN",
"NNNNNNNNNNNNNN1yyyyyyyyyggNNNNNNNNNNNNNNNNNNNNNNNNNNNNNNNNNNN*rgygyyqNNNNNNNNNNNNNNNNNNNNNNNNNNNNNNNNNNyrggrgryyy1NNNNNNNNNNNNNN",
"NNNNNNNNNNNNNNo<yyyyyyyyrgyrNNNNNNNNNNNNNNNNNNNNNNNNNNNNNNNNN*gryyyyqNNNNNNNNNNNNNNNNNNNNNNNNNNNNNNNNryygryyyyyyrNNNNNNNNNNNNNNN",
"NNNNNNNNNNNNNNNo;9yyyyyyyryygNNNNNNNNNNNNNNNNNNNNNNNNNNNNNNNN*rryyyy8NNNNNNNNNNNNNNNNNNNNNNNNNNNNNNNryyyrgyyyyyr:NNNNNNNNNNNNNNN",
"NNNNNNNNNNNNNNNN $<ryyyyyyyyrrNNNNNNNNNNNNNNNNNNNNNNNNNNNNNNN*rgyyyy8NNNNNNNNNNNNNNNNNNNNNNNNNNNNNNryygrryyyyy1*NNNNNNNNNNNNNNNN",
"NNNNNNNNNNNNNNNN  o>ryyyyyyyrggqNNNNNNNNNNNNNNNNNNNNNNNNNNNNN*rryyyy8NNNNNNNNNNNNNNNNNNNNNNNNNNNNrrgryrrgyyy9,ONNNNNNNNNNNNNNNNN",
"NNNNNNNNNNNNNNNNN  .*8yryyyyrgrrrNNNNNNNNNNNNNNNNNNNNNNNNNNNN*rgyryg8NNNNNNNNNNNNNNNNNNNNNNNNNNNrrrrggrrrgr8*XNNNNNNNNNNNNNNNNNN",
"NNNNNNNNNNNNNNNNNNN  $<rryryrrygrrgNNNNNNNNNNNNNNNNNNNNNNNNNN&ryryrq8NNNNNNNNNNNNNNNNNNNNNNNNNNrgrqgrrrgyr<$NNNNNNNNNNNNNNNNNNNN",
"NNNNNNNNNNNNNNNNNNNN  o-8ryryrryrgrrNNNNNNNNNNNNNNNNNNNNNNNNN&rrryrg8NNNNNNNNNNNNNNNNNNNNNNNNNrrrrgrgrrrr>oNNNNNNNNNNNNNNNNNNNNN",
"NNNNNNNNNNNNNNNNNNNNN   *1ryrrryrrrrrNNNNNNNNNNNNNNNNNNNNNNNN*rrrrrr8NNNNNNNNNNNNNNNNNNNNNNNrryrrrrrrrr8*.NNNNNNNNNNNNNNNNNNNNNN",
"NNNNNNNNNNNNNNNNNNNNNNN  O>rrrrrrrryrrrNNNNNNNNNNNNNNNNNNNNNN&rrrrrg8NNNNNNNNNNNNNNNNNNNNNNwrrrrrrrrrr<$NNNNNNNNNNNNNNNNNNNNNNNN",
"NNNNNNNNNNNNNNNNNNNNNNNN  o-8rrrrrrrrrrrNNNNNNNNNNNNNNNNNNNNN&rrrrrr8NNNNNNNNNNNNNNNNNNNNNrrrrrrrrrr8>ONNNNNNNNNNNNNNNNNNNNNNNNN",
"NNNNNNNNNNNNNNNNNNNNNNNNNN  $>rrrrrrrrrrrNNNNNNNNNNNNNNNNNNNN&errrrr5NNNNNNNNNNNNNNNNNNN8rrrrrrrrrr8*.NNNNNNNNNNNNNNNNNNNNNNNNNN",
"NNNNNNNNNNNNNNNNNNNNNNNNNNN  o>rrrrrrrrrrrwNNNNNNNNNNNNNNNNNN&errrrr6NNNNNNNNNNNNNNNNNNrrrrrrrrrrr>$NNNNNNNNNNNNNNNNNNNNNNNNNNNN",
"NNNNNNNNNNNNNNNNNNNNNNNNNNNN  o=5rrrrrrrrrr8NNNNNNNNNNNNNNNNN&qrrrrr5NNNNNNNNNNNNNNNN88rrrrr8rrrr>ONNNNNNNNNNNNNNNNNNNNNNNNNNNNN",
"NNNNNNNNNNNNNNNNNNNNNNNNNNNNNN  &1r8r8r88r8r8rNNNNNNNNNNNNNNN&8er8r85NNNNNNNNNNNNNNN88rr8r8rrr06=oNNNNNNNNNNNNNNNNNNNNNNNNNNNNNN",
"NNNNNNNNNNNNNNNNNNNNNNNNNNNNNNN  o:88r8rr8r8w88NNNNNNNNNNNNNN&8r8rwr5NNNNNNNNNNNNNN8r88rr8r88r1*NNNNNNNNNNNNNNNNNNNNNNNNNNNNNNNN",
"NNNNNNNNNNNNNNNNNNNNNNNNNNNNNNNN   *5r8r8r8rr8rwNNNNNNNNNNNNN&8e88r85NNNNNNNNNNNN88r8rr88r8r8>ONNNNNNNNNNNNNNNNNNNNNNNNNNNNNNNNN",
"NNNNNNNNNNNNNNNNNNNNNNNNNNNNNNNNNN  #>8r088r88q888NNNNNNNNNNN&88r8r83NNNNNNNNNNN888r8r8rwr85=XNNNNNNNNNNNNNNNNNNNNNNNNNNNNNNNNNN",
"NNNNNNNNNNNNNNNNNNNNNNNNNNNNNNNNNNN  o-580e88w8q8q8NNNNNNNNNN&8888885NNNNNNNNNN88888888888<*NNNNNNNNNNNNNNNNNNNNNNNNNNNNNNNNNNNN",
"NNNNNNNNNNNNNNNNNNNNNNNNNNNNNNNNNNNN   *18888r888q88NNNNNNNNN&88888r5NNNNNNNN588888888888>ONNNNNNNNNNNNNNNNNNNNNNNNNNNNNNNNNNNNN",
"NNNNNNNNNNNNNNNNNNNNNNNNNNNNNNNNNNNNNN  o>888888888888NNNNNNN$8888885NNNNNNN588880888885=oNNNNNNNNNNNNNNNNNNNNNNNNNNNNNNNNNNNNNN",
"NNNNNNNNNNNNNNNNNNNNNNNNNNNNNNNNNNNNNNN  X*588888888888NNNNNN&5888881NNNNNN58888888888<* NNNNNNNNNNNNNNNNNNNNNNNNNNNNNNNNNNNNNNN",
"NNNNNNNNNNNNNNNNNNNNNNNNNNNNNNNNNNNNNNNNN  #>558888878785NNNN&8888881NNNN588886888785>ONNNNNNNNNNNNNNNNNNNNNNNNNNNNNNNNNNNNNNNNN",
"NNNNNNNNNNNNNNNNNNNNNNNNNNNNNNNNNNNNNNNNNN  X*588885787855NNN&8588885NNN58588858885<*XNNNNNNNNNNNNNNNNNNNNNNNNNNNNNNNNNNNNNNNNNN",
"NNNNNNNNNNNNNNNNNNNNNNNNNNNNNNNNNNNNNNNNNNN   &<58588587885>N$5858561N<58587578885>ONNNNNNNNNNNNNNNNNNNNNNNNNNNNNNNNNNNNNNNNNNNN",
"NNNNNNNNNNNNNNNNNNNNNNNNNNNNNNNNNNNNNNNNNNNNN  O:58585585855>-5868585,88676768855*XNNNNNNNNNNNNNNNNNNNNNNNNNNNNNNNNNNNNNNNNNNNNN",
"NNNNNNNNNNNNNNNNNNNNNNNNNNNNNNNNNNNNNNNNNNNNNN  .*15588575855557558555858558565<& NNNNNNNNNNNNNNNNNNNNNNNNNNNNNNNNNNNNNNNNNNNNNN",
"NNNNNNNNNNNNNNNNNNNNNNNNNNNNNNNNNNNNNNNNNNNNNNNN  +>55585558585775588555855875>ONNNNNNNNNNNNNNNNNNNNNNNNNNNNNNNNNNNNNNNNNNNNNNNN",
"NNNNNNNNNNNNNNNNNNNNNNNNNNNNNNNNNNNNNNNNNNNNNNNNN  O-155585555555555555555551*XNNNNNNNNNNNNNNNNNNNNNNNNNNNNNNNNNNNNNNNNNNNNNNNNN",
"NNNNNNNNNNNNNNNNNNNNNNNNNNNNNNNNNNNNNNNNNNNNNNNNNN   &<55555555555555555555>& NNNNNNNNNNNNNNNNNNNNNNNNNNNNNNNNNNNNNNNNNNNNNNNNNN",
"NNNNNNNNNNNNNNNNNNNNNNNNNNNNNNNNNNNNNNNNNNNNNNNNNNNN  O:155555555555155551>ONNNNNNNNNNNNNNNNNNNNNNNNNNNNNNNNNNNNNNNNNNNNNNNNNNNN",
"NNNNNNNNNNNNNNNNNNNNNNNNNNNNNNNNNNNNNNNNNNNNNNNNNNNNN  X*1535551535555551*XNNNNNNNNNNNNNNNNNNNNNNNNNNNNNNNNNNNNNNNNNNNNNNNNNNNNN",
"NNNNNNNNNNNNNNNNNNNNNNNNNNNNNNNNNNNNNNNNNNNNNNNNNNNNNN   $:531555515552>% NNNNNNNNNNNNNNNNNNNNNNNNNNNNNNNNNNNNNNNNNNNNNNNNNNNNNN",
"NNNNNNNNNNNNNNNNNNNNNNNNNNNNNNNNNNNNNNNNNNNNNNNNNNNNNNNN  O-1521335351:ONNNNNNNNNNNNNNNNNNNNNNNNNNNNNNNNNNNNNNNNNNNNNNNNNNNNNNNN",
"NNNNNNNNNNNNNNNNNNNNNNNNNNNNNNNNNNNNNNNNNNNNNNNNNNNNNNNNN  .&<5533221*XNNNNNNNNNNNNNNNNNNNNNNNNNNNNNNNNNNNNNNNNNNNNNNNNNNNNNNNNN",
"NNNNNNNNNNNNNNNNNNNNNNNNNNNNNNNNNNNNNNNNNNNNNNNNNNNNNNNNNNN  +:1313>$ NNNNNNNNNNNNNNNNNNNNNNNNNNNNNNNNNNNNNNNNNNNNNNNNNNNNNNNNNN",
"NNNNNNNNNNNNNNNNNNNNNNNNNNNNNNNNNNNNNNNNNNNNNNNNNNNNNNNNNNNN  O&&*&ONNNNNNNNNNNNNNNNNNNNNNNNNNNNNNNNNNNNNNNNNNNNNNNNNNNNNNNNNNNN",
"NNNNNNNNNNNNNNNNNNNNNNNNNNNNNNNNNNNNNNNNNNNNNNNNNNNNNNNNNNNNNN     NNNNNNNNNNNNNNNNNNNNNNNNNNNNNNNNNNNNNNNNNNNNNNNNNNNNNNNNNNNNN",
"NNNNNNNNNNNNNNNNNNNNNNNNNNNNNNNNNNNNNNNNNNNNNNNNNNNNNNNNNNNNNNNNNNNNNNNNNNNNNNNNNNNNNNNNNNNNNNNNNNNNNNNNNNNNNNNNNNNNNNNNNNNNNNNN",
"NNNNNNNNNNNNNNNNNNNNNNNNNNNNNNNNNNNNNNNNNNNNNNNNNNNNNNNNNNNNNNNNNNNNNNNNNNNNNNNNNNNNNNNNNNNNNNNNNNNNNNNNNNNNNNNNNNNNNNNNNNNNNNNN",
"NNNNNNNNNNNNNNNNNNNNNNNNNNNNNNNNNNNNNNNNNNNNNNNNNNNNNNNNNNNNNNNNNNNNNNNNNNNNNNNNNNNNNNNNNNNNNNNNNNNNNNNNNNNNNNNNNNNNNNNNNNNNNNNN",
"NNNNNNNNNNNNNNNNNNNNNNNNNNNNNNNNNNNNNNNNNNNNNNNNNNNNNNNNNNNNNNNNNNNNNNNNNNNNNNNNNNNNNNNNNNNNNNNNNNNNNNNNNNNNNNNNNNNNNNNNNNNNNNNN",
"NNNNNNNNNNNNNNNNNNNNNNNNNNNNNNNNNNNNNNNNNNNNNNNNNNNNNNNNNNNNNNNNNNNNNNNNNNNNNNNNNNNNNNNNNNNNNNNNNNNNNNNNNNNNNNNNNNNNNNNNNNNNNNNN",
"NNNNNNNNNNNNNNNNNNNNNNNNNNNNNNNNNNNNNNNNNNNNNNNNNNNNNNNNNNNNNNNNNNNNNNNNNNNNNNNNNNNNNNNNNNNNNNNNNNNNNNNNNNNNNNNNNNNNNNNNNNNNNNNN",
"NNNNNNNNNNNNNNNNNNNNNNNNNNNNNNNNNNNNNNNNNNNNNNNNNNNNNNNNNNNNNNNNNNNNNNNNNNNNNNNNNNNNNNNNNNNNNNNNNNNNNNNNNNNNNNNNNNNNNNNNNNNNNNNN"
};
