/* XPM */
static char *google_earth[] = {
/* columns rows colors chars-per-pixel */
"128 128 56 1",
"  c #000100010001",
". c #241524152415",
"X c #35AE35AE35AE",
"o c #4C544C544C54",
"O c #696969696969",
"+ c #7A6E7A6E7A6E",
"@ c #8E6B8E6B8E6B",
"# c #9C719C719C71",
"$ c #AAD6AC84AAD6",
"% c #B165AFCBAFCB",
"& c #B60BB60BB60B",
"* c #BBE3BBE3BD4A",
"= c #C159C159C159",
"- c #CB29CB29CB29",
"; c #D497D39FD39F",
": c #D849D80FD763",
"> c #DADEDA06DADE",
", c #E1C0E1C0E1C0",
"< c #E6E1E6E1E6E1",
"1 c #EBB5EBB5EBB5",
"2 c #ECEDECEDECD9",
"3 c #EEDDEEDDEEDD",
"4 c #F076F013F013",
"5 c #F013F076F013",
"6 c #F013F013F076",
"7 c #F013F076F076",
"8 c #F1EDF1EDF1ED",
"9 c #F314F333F334",
"0 c #F47FF47FF47F",
"q c #F59EF558F558",
"w c #F558F59EF558",
"e c #F59EF59EF558",
"r c #F558F558F59E",
"t c #F59EF558F59E",
"y c #F558F59EF59E",
"u c #F6A4F6A4F6A4",
"i c #F794F75AF75A",
"p c #F75AF794F75A",
"a c #F794F794F75A",
"s c #F75AF75AF794",
"d c #F794F75AF794",
"f c #F75AF794F794",
"g c #F86FF86FF86F",
"h c #F91AF925F921",
"j c #F9EEF9EEF9EE",
"k c #FA94FA6CFA6C",
"l c #FA6CFA94FA6C",
"z c #FA94FA94FA6C",
"x c #FA6CFA6CFA94",
"c c #FA94FA6CFA94",
"v c #FA6CFA94FA94",
"b c #FB08FB08FB08",
"n c #FBF2FBF1FBF1",
"m c #FCF3FCF4FCF4",
"M c #FDF3FDF3FDF3",
"N c None",
/* pixels */
"NNNNNNNNNNNNNNNNNNNNNNNNNNNNNNNNNNNNNNNNNNNNNNNNNNNNNNNNNNNNNNNNNNNNNNNNNNNNNNNNNNNNNNNNNNNNNNNNNNNNNNNNNNNNNNNNNNNNNNNNNNNNNNNN",
"NNNNNNNNNNNNNNNNNNNNNNNNNNNNNNNNNNNNNNNNNNNNNNNNNNNNNNNNNNNNNNNNNNNNNNNNNNNNNNNNNNNNNNNNNNNNNNNNNNNNNNNNNNNNNNNNNNNNNNNNNNNNNNNN",
"NNNNNNNNNNNNNNNNNNNNNNNNNNNNNNNNNNNNNNNNNNNNNNNNNNNNNNNNNNNNNNNNNNNNNNNNNNNNNNNNNNNNNNNNNNNNNNNNNNNNNNNNNNNNNNNNNNNNNNNNNNNNNNNN",
"NNNNNNNNNNNNNNNNNNNNNNNNNNNNNNNNNNNNNNNNNNNNNNNNNNNNNNNNNNNNNNNNNNNNNNNNNNNNNNNNNNNNNNNNNNNNNNNNNNNNNNNNNNNNNNNNNNNNNNNNNNNNNNNN",
"NNNNNNNNNNNNNNNNNNNNNNNNNNNNNNNNNNNNNNNNNNNNNNNNNNNNNNNNNNNNNNNNNNNNNNNNNNNNNNNNNNNNNNNNNNNNNNNNNNNNNNNNNNNNNNNNNNNNNNNNNNNNNNNN",
"NNNNNNNNNNNNNNNNNNNNNNNNNNNNNNNNNNNNNNNNNNNNNNNNNNNNNNNNNNNNNNNNNNNNNNNNNNNNNNNNNNNNNNNNNNNNNNNNNNNNNNNNNNNNNNNNNNNNNNNNNNNNNNNN",
"NNNNNNNNNNNNNNNNNNNNNNNNNNNNNNNNNNNNNNNNNNNNNNNNNNNNNNNNNNNNNNNNNNNNNNNNNNNNNNNNNNNNNNNNNNNNNNNNNNNNNNNNNNNNNNNNNNNNNNNNNNNNNNNN",
"NNNNNNNNNNNNNNNNNNNNNNNNNNNNNNNNNNNNNNNNNNNNNNNNNNNNNNNNNNNNNNNNNNNNNNNNNNNNNNNNNNNNNNNNNNNNNNNNNNNNNNNNNNNNNNNNNNNNNNNNNNNNNNNN",
"NNNNNNNNNNNNNNNNNNNNNNNNNNNNNNNNNNNNNNNNNNNNNNNNNNNNNNNNNNNNNNNNNNNNNNNNNNNNNNNNNNNNNNNNNNNNNNNNNNNNNNNNNNNNNNNNNNNNNNNNNNNNNNNN",
"NNNNNNNNNNNNNNNNNNNNNNNNNNNNNNNNNNNNNNNNNNNNNNNNNNNNNNNNNNNNNNNNNNNNNNNNNNNNNNNNNNNNNNNNNNNNNNNNNNNNNNNNNNNNNNNNNNNNNNNNNNNNNNNN",
"NNNNNNNNNNNNNNNNNNNNNNNNNNNNNNNNNNNNNNNNNNNNNNNNNNNNNNNNNNNNNNNNNNNNNNNNNNNNNNNNNNNNNNNNNNNNNNNNNNNNNNNNNNNNNNNNNNNNNNNNNNNNNNNN",
"NNNNNNNNNNNNNNNNNNNNNNNNNNNNNNNNNNNNNNNNNNNNNNNNNNNNNNNNNNNNNNNNNNNNNNNNNNNNNNNNNNNNNNNNNNNNNNNNNNNNNNNNNNNNNNNNNNNNNNNNNNNNNNNN",
"NNNNNNNNNNNNNNNNNNNNNNNNNNNNNNNNNNNNNNNNNNNNNNNNNNNNNNNNNNNNNNNNNNNNNNNNNNNNNNNNNNNNNNNNNNNNNNNNNNNNNNNNNNNNNNNNNNNNNNNNNNNNNNNN",
"NNNNNNNNNNNNNNNNNNNNNNNNNNNNNNNNNNNNNNNNNNNNNMMMMMMMMMMMMMMMMMMNNNNNNNNNNNNNNNNNNNNNNNNNNNNNNNNNNNNNNNNNNNNNNNNNNNNNNNNNNNNNNNNN",
"NNNNNNNNNNNNNNNNNNNNNNNNNNNNNNNNNNNNNNNNNNMMMMMMMMMMMMMMMMMMMMMMMMMMNNNNNNNNNNNNNNNNNNNNNNNNNNNNNNNNNNNNNNNNNNNNNNNNNNNNNNNNNNNN",
"NNNNNNNNNNNNNNNNNNNNNNNNNNNNNNNNNNNNNNNNMMMMMMMMMMMMMMMMMMMMMMMMMMMMMMMNNNNNNNNNNNNNNNNNNNNNNNNNNNNNNNNNNNNNNNNNNNNNNNNNNNNNNNNN",
"NNNNNNNNNNNNNNNNNNNNNNNNNNNNNNNNNNNNNNhMMMMMMMMMMMMMMMMMMMMMMMMMMMMMMMMMMNNNNNNNNNNNNNNNNNNNNNNNNNNNNNNNNNNNNNNNNNNNNNNNNNNNNNNN",
"NNNNNNNNNNNNNNNNNNNNNNNNNNNNNNNNNNNNMMMMMMMMMMMMMMMMMMMMMMMMMMMMMMMMMMMMMMMNNNNNNNNNNNNNNNNNNNNNNNNNNNNNNNNNNNNNNNNNNNNNNNNNNNNN",
"NNNNNNNNNNNNNNNNNNNNNNNNNNNNNNNNNNNMMMMMMMMMMMMMMMMMMMMMMMMMMMMMMMMMMMMMMMMMMNNNNNNNNNNNNNNNNNNNNNNNNNNNNNNNNNNNNNNNNNNNNNNNNNNN",
"NNNNNNNNNNNNNNNNNNNNNNNNNNNNNNNNNnMMMMMMMMMMMMMMMMMMMMMMMMMMMMMMMMMMMMMMMMMMMMMNNNNNNNNNNNNNNNNNNNNNNNNNNNNNNNNNNNNNNNNNNNNNNNNN",
"NNNNNNNNNNNNNNNNNNNNNNNNNNNNNNNNMMMMMMMMMMMMMMMMMMMMMMMMMMMMMMMMMMMMMMMMMMMMMMMMNNNNNNNNNNNNNNNNNNNNNNNNNNNNNNNNNNNNNNNNNNNNNNNN",
"NNNNNNNNNNNNNNNNNNNNNNNNNNNNNNNMMMMMMMMMMMMMMMMMMMMMMMMMMMMMMMMnMMMMMMMMMMmMMMMMMMNNNNNNNNNNNNNNNNNNNNNNNNNNNNNNNNNNNNNNNNNNNNNN",
"NNNNNNNNNNNNNNNNNNNNNNNNNNNNNhMMMhhg92222229hnMMMMMMMMMMMMMMMMMMMMMMMMMMmMMMMMMMMMhNNNNNNNNNNNNNNNNNNNNNNNNNNNNNNNNNNNNNNNNNNNNN",
"NNNNNNNNNNNNNNNNNNNNNNNNNNNNNhgNNNNNN      .OO-<gMMMMMMMMMMMMMnMMMMMMMMMMMMMMMMMMMMMNNNNNNNNNNNNNNNNNNNNNNNNNNNNNNNNNNNNNNNNNNNN",
"NNNNNNNNNNNNNNNNNNNNNNNNNNNNNNNNNNNNNNN         o&2hMMMMnMMMnMMMMMMmMMMMMMMMMMMMMMMMMNNNNNNNNNNNNNNNNNNNNNNNNNNNNNNNNNNNNNNNNNNN",
"NNNNNNNNNNNNNNNNNNNNNNNNNNNNNNNNNNNNNNNNNNNNN      #2nMMMMMMMMMMMMMMMMMMMhMMMMhMMMMMMMNNNNNNNNNNNNNNNNNNNNNNNNNNNNNNNNNNNNNNNNNN",
"NNNNNNNNNNNNNNNNNNNNNNNNNNNNNNNNNNNNNNNNNNNNNNNNN    #2hMMMnMMMMMmnMMMMmhMMMnMnMMMhMMMMNNNNNNNNNNNNNNNNNNNNNNNNNNNNNNNNNNNNNNNNN",
"NNNNNNNNNNNNNNNNNNNNNNNNNNNNNNNNNNNNNNNNNNNNNNNNNNN    #0nMMhMMMnMmMhMmMMmMMMMMMMMMMhMMMNNNNNNNNNNNNNNNNNNNNNNNNNNNNNNNNNNNNNNNN",
"NNNNNNNNNNNNNNNNNNNNNNNNNNNNNNNNNNNNNNNNNNNNNNNNNNNNN   o,hMmMMmMMMMMhMMMMMMMMMMhMMMMMMMMNNNNNNNNNNNNNNNNNNNNNNNNNNNNNNNNNNNNNNN",
"NNNNNNNNNNNNNNNNNNNNNNNNNNNNNNNNNNNNNNNNNNNNNNNNNNNNNNN   #gmMnMMmnMMMMMMMhMMMMMMMhMmMMMMMNNNNNNNNNNNNNNNNNNNNNNNNNNNNNNNNNNNNNN",
"NNNNNNNNNNNNNNNNNNNNNNNNNNNNNNNNNNNNNNNNNNNNNNNNNNNNNNNNN  @1nMMhMMmMnMMMMMmhMMMMMMMMMMhhMMNNNNNNNNNNNNNNNNNNNNNNNNNNNNNNNNNNNNN",
"NNNNNNNNNNNNNNNNNNNNNNNNNNNNNNNNNNNNNNNNNNNNNNNNNNNNNNNNNN   ,hnMMmMMMhMhMMMMMMhMhMMhMMMMMMhNNNNNNNNNNNNNNNNNNNNNNNNNNNNNNNNNNNN",
"NNNNNNNNNNNNNNNNNNNNNNNNNNNNNNNNNNNNNNNNNNNNNNNNNNNNNNNNNNNN  &gmmmmmmmmmmmmmmmmnMnMmMMnmmnMnNNNNNNNNNNNNNNNNNNNNNNNNNNNNNNNNNNN",
"NNNNNNNNNNNNNNNNNNNNNNNNNNNNNNNNNNNNNNNNNNNNNNNNNNNNNNNNNNNNN  #0mMmmmmMmmMmmMmmMMnmmnmMmMnmMNNNNNNNNNNNNNNNNNNNNNNNNNNNNNNNNNNN",
"NNNNNNNNNNNNNNNNNNNNNNNNNNNNNNNNNNNNNNNNNNNNNNNNNNNNNNNNNNNNNN  @9mmmmmmmmmmmmmnnMMmnMnmnMMmmnNNNNNNNNNNNNNNNNNNNNNNNNNNNNNNNNNN",
"NNNNNNNNNNNNNNNNNNNNNNNNNNNNNNNNNNNNNNNNNNNNNNNNNNNNNNNNNNNNNNN  +9mnmnMnmnmmmmmnnnnMnMnMnnnMmmNNNNNNNNNNNNNNNNNNNNNNNNNNNNNNNNN",
"NNNNNNNNNNNNNNNNNNNNNNNNNNNNNNNNNNNNNNNNNNNNNNNNNNNNNNNNNNNNNNNNN @9nMmnmmmmnmmmmnnMnnMMnmnMmmnhNNNNNNNNNNNNNNNNNNNNNNNNNNNNNNNN",
"NNNNNNNNNNNNNNNNNNNNNNNNNNNNNMmmNNNNNNNNNNNNNNNNNNNNNNNNNNNNNNNNNN X>hmmmnmnmmnmnMnnMnnnnmnnnmmnNNNNNNNNNNNNNNNNNNNNNNNNNNNNNNNN",
"NNNNNNNNNNNNNNNNNNNNNNNNNhnmnMmMMmhhNNNNNNNNNNNNNNNNNNNNNNNNNNNNNNN .>nmmmnmmnnmnmMnMnnmMMMhnmnmMNNNNNNNNNNNNNNNNNNNNNNNNNNNNNNN",
"NNNNNNNNNNNNNNNNNNNNNNNnMnMnMhMhhMMMMMhNNNNNNNNNNNNNNNNNNNNNNNNNNNNN  >hnnnmmnmnMnmnMhMnnhMMnmmnMhNNNNNNNNNNNNNNNNNNNNNNNNNNNNNN",
"NNNNNNNNNNNNNNNNNNNNNnnmmmmnmmmnMhMhhMmnMNNNNNNNNNNNNNNNNNNNNNNNNNNNN  >nMmmnmmmnnmnnMnnnmnmnmmnhmNNNNNNNNNNNNNNNNNNNNNNNNNNNNNN",
"NNNNNNNNNNNNNNNNNNNnnnmnnnnmnnnmMMmmMMhmhMnNNNNNNNNNNNNNNNNNNNNNNNNNNN .>hnnnnnnnnmnnnnnnmnnnnmnMnhNNNNNNNNNNNNNNNNNNNNNNNNNNNNN",
"NNNNNNNNNNNNNNNNNNnnnmmnnnnmnnnnhMMmmnmnMMhhhNNNNNNNNNNNNNNNNNNNNNNNNNN  >hMnnmnnnnnnnnnnnnmnnnMhMMhNNNNNNNNNNNNNNNNNNNNNNNNNNNN",
"NNNNNNNNNNNNNNNNNjnnnnnnnnnnnnnnnnhmnnnnhMMmMMhNNNNNNNNNNNNNNNNNNNNNNNNN  >hnnnnnnnnnnnmnnnnnnmhMMhMhNNNNNNNNNNNNNNNNNNNNNNNNNNN",
"NNNNNNNNNNNNNNNNjnnnnnnnnnnnnnnnnnnnmnhnnnnMnMhnNNNNNNNNNNNNNNNNNNNNNNNNN  >hnnnnmnnnnnnnnnMnmMhhMMnhNNNNNNNNNNNNNNNNNNNNNNNNNNN",
"NNNNNNNNNNNNNNNMnnnnnnnnnnnnnnnnnnnnnMMnhMhhhMhMnnNNNNNNNNNNNNNNNNNNNNNNNN  >hnnnmhnnnnnnnnhhMhnMhhMMhNNNNNNNNNNNNNNNNNNNNNNNNNN",
"NNNNNNNNNNNNNhhMnnnnnnnnnnnnnnnnnMnhnhnnMnhMhMnMhnhNNNNNNNNNNNNNNNNNNNNNNNN  :hnnnnnnnnnMnmMmnMnhMmhMMhNNNNNNNNNNNNNNNNNNNNNNNNN",
"NNNNNNNNNNNNNhMhnnnnnhnnnnnnnhnnhhnMnMhnMhMnMhmhnnMnnNNNNNNNNNNNNNNNNNNNNNNN  %9mhnmhmhnhmhhMhhMMhhMhnhhNNNNNNNNNNNNNNNNNNNNNNNN",
"NNNNNNNNNNNNhhnhMhmhmnhMnhnnnhnnMhMhMMhnnhmnnnnhmhmnnnNNNNNNNNNNNNNNNNNNNNNNN  +9hhMhMhMhhMhhMhhhMmhhnnhgNNNNNNNNNNNNNNNNNNNNNNN",
"NNNNNNNNNNNNhnnnnMmhhMnhjnnnnnnnMnhnhnhnnnhmmhnnnmhnhnnhNNNNNNNNNNNNNNNNNNNNNN  +2MhMhmmhMmmmnnmmhnMmMhMhgNNNNNNNNNNNNNNNNNNNNNN",
"NNNNNNNNNNNNnMhhhhMmMhnnnnnnnnnnhMhnhMMhnnnhnnhnhnnnMhnhhNNNNNNNNNNNNNNNNNNNNNN  +9hhMhhhmhhMhmhhMnhhnhnnhjNNNNNNNnhNNNNNNNNNNNN",
"NNNNNNNNNNN2nhnMnnhnnnnhnnhnnhnhnhnnnhnnhnnnhnnnnnhnhnnnnnhNNNNNNNNNNNNNNNNNNNNNN O,hhmnhmhMhmhnnhhMhnnnhMmhNNNNNhhmNNNNNNNNNNNN",
"NNNNNNNNNNNgnhhnnhhnhhnnnnhhhnnnhnnnnnhmnhnnnnnhnnnhnnhnhnnhNNNNNNNNNNNNNNNNNNNNNN .;jnhMhhMhnhnnnhnhnnhnhnhnhhhnnnhNNNNNNNNNNNN",
"NNNNNNNNNNNhnnnnnnnnnnnhhnnnnnhhmnhhhnmhnhnhhhnnhhnnnhhnnnhnnhNNNNNNNNNNNNNNNNNNNNN  ;gnhnnhMhmhhnhnnnhnhMnnhnhnnhnhhNNNNNNNNNNN",
"NNNNNNNNNNNhhnnhhnnhhnnhhnjnnhnnhnnnnnhmnnnnnnhnnhnnnhnnnhhnnhgNNNNNNNNNNNNNNNNNNNNN  $2nnnMhnhnnhnhnhhhnhhnhnhmnmhmhNNNNNNNNNNN",
"NNNNNNNNNN,hmhnhhnnhnnhnnnhnhnhnmhhnhhnhhnhhnhnnnnhnhnnhnhnnhnjnNNNNNNNNNNNNNNNNNNNNN  +2hhhhnhnhnhnnhnMhmhhnnhhhhnhhNNNNNNNNNNN",
"NNNNNNNNNN,hhnhmnnhhhnnhnnhhhnnnhnhnnhnhnhnhnhnhhhnhhnnnnnhnhnhnhhNNNNNNNNNNNNNNNNNNNN  o,hhnhnhnnnhnhnhhmhhnhhmhmMhhNNNNNNNNNNN",
"NNNNNNNNNN,hnnnhhnnnnhhnhnnnnhhhnhnhnhhnhnhnhnhnhnhnnhhhhhhnjjnhnnhNNNNNNNNNNNNNNNNNNNNN .;hhnhnhhhnhnhnhnhmhnhnhhhhhNNNNNNNNNNN",
"NNNNNNNNNN9hhhhnhnhhhnnhnhhhhnnnnhhnmhhnhmnhnhnhhnnhhnnnnhhnhnhhhnhhhNNNNNNNNNNNNNNNNNNNN  =9hhhnnhhnhnhmhnhhhnhnhhmhNNNNNNNNNNN",
"NNNNNNNNNNhhnhnhnhhnnhhnhnhnnhhhhnhhhhnhhhnhhnhnhhnhnhhhhnhhjnnjhhMhhhNNNNNNNNNNNNNNNNNNNN  O2ghhhnhhhnhhhhnnhhnnhnhhNNNNNNNNNNN",
"NNNNNNNNNNgghhMhhhnhhnnhhhhnhnnhhnnhhnhnhnhnhhhhnhhhnhhhhnjjhhjjnnhhhnhhNNNNNNNNNNNNNNNNNNN  X-gnhnhhhnhhhhhhnhnhnhhh2NNNNNNNNNN",
"NNNNNNNNNNghhhhhhnhnnhhhhnhnhhhhhhhnhhhnhhhnnhhnhnnhnhnhjjjjhnjjhhhnhhhngNNNNNNNNNNNNNNNNNNNN  &4hhhnhnhnhnhhhhhhhmhhgNNNNNNNNNN",
"NNNNNNNNNNghhnhhhhnhhnhnhhhhnhnnhhnhhhnhnhmhhhhhhhhhhhhhjjjjhjjjhnhhhnnhhhgNNNNNNNNNNNNNNNNNNN  o>ghnhhhnhhnnhhhhhhhhhNNNNNNNNNN",
"NNNNNNNNNNgghhhnnhhhhhhhnhnhhhhhnhhhnhhhhhhhnhnhhnnhhnhnjjjjnjjjhhhnhhhhhhhgNNNNNNNNNNNNNNNNNNN   &2jhhnhhhhhhmhhhnhhhNNNNNNNNNN",
"NNNNNNNNNN9ghhhhhhhhjjjjhnhhnhhhnhhnhnhhnhhhhhhhgngnhhhhjnhhhhhhhhnhhhhhhhhhhgNNNNNNNNNNNNNNNNNNN  O>ghghhhhhhhhhhhhhgNNNNNNNNNN",
"NNNNNNNNNNqjhhhhhhhhgjgghhhhhhhhghghhhhhhhhhnhhhhhhhhhjghhhhhhhhhhhhgjjhhhhhhhhNNNNNNNNNNNNNNNNNNN   %2ghhhhhhhhhhhnh0NNNNNNNNNN",
"NNNNNNNNNNgjhhhhhhjgjgjjhhhhhhhghhhhhhhhhhhhhhhhghhhjhjjghjhhhhjhhhhjgghhhhhhhhhgNNNNNNNNNNNNNNNNNNN  X-9ghhhhhhhhhhg2NNNNNNNNNN",
"NNNNNNNNNN9mhhhhhhgjgjgjhhhhhhhhhhhhhhhhhhhhhhghhjghgjgjjjhgnhghhhhhjjhjhjghhhhhhggNNNNNNNNNNNNNNNNNN   @>9hhhhhhhhhh,NNNNNNNNNN",
"NNNNNNNNNN9hhggghhhhgghjhhhhggghhhghhghghhghgggggjgghjgggjgggggghhggghhgjggghhhghghgNNNNNNNNNNNNNNNNNNN   +>9ggghhhgg<NNNNNNNNNN",
"NNNNNNNNNN,ggghghhhhgjjghhhhggggghhghghhhhghgggggjjgggjggggggggghhjggggggjgggggghgggggNNNNNNNNNNNNNNNNNNN   +;9gghgggNNNNNNNNNNN",
"NNNNNNNNNN-ggggggjhjgggjggjhgggghghgghhghgghgggggggghggggggjgggghjgggggjgggjjhhggggghgg0NNNNNNNNNNNNNNNNNNN   o$29gggNNNNNNNNNNN",
"NNNNNNNNNN;ggggggggjgggggggjgggggggggghgggggggggggggggggggggggggjgggggggggggggggggggggggggNNNNNNNNNNNNNNNNNNN   .@;19NNNNNNNNNNN",
"NNNNNNNNNN&ggggggggggggggqgggggggggggggggggggggggggggggggggggggggggggggggggggggggggggqggggg9NNNNNNNNNNNNNNNNNNN   NNNNNNNNNNNNNN",
"NNNNNNNNNNN9ggggggggggggggggggggggggggggqggggggggggggqggqggggggggggggqggggggggqgggggggggggggg9NNNNNNNNNNNNNNNNNNNNNNNNNNNNNNNNNN",
"NNNNNNNNNNN2gggggggggggggggqgggggggggg0gggggggggggggggggggggqggggqgqgg0ggggqggggggqgggg0ggggggg9NNNNNNNNNNNNNNNNNNNNNNNNNNNNNNNN",
"NNNNNNNNNNN>ggggggqgqggqgggggqgggggg0ggggg0gg0ggggqggggqgg0ggggqggggqggggqggqgqgqggggqgggqgggggggggNNNNNNNNNNNNNNNNNNNNNNNNNNNNN",
"NNNNNNNNNNN-g0g0gggggggggggggggg0g0ggqgggggggq0gg0g0qqggggggggggqgqggggggggggqggggggg00gggg09ggggg9g9NNNNNNNNNNNNNNNNNNNNNNNNNNN",
"NNNNNNNNNNN@6ggg0g0ggqgq0g0gg0g0gggggggq0g0ggggggggggggq0gg00g0ggg0g0gg0qqg0gggq9gg0gggg0g0gggg99gggggg9NNNNNNNNNNNNNNNNNNNNNNNN",
"NNNNNNNNNNNN2gggggg0gqgggg0g0gggggg0ggggggggg00gg0gggggq0gg0ggg0gggggggggggg9gg0gg9g0ggggggggggggggggggggg99NNNNNNNNNNNNNNNNNNNN",
"NNNNNNNNNNNN;g0gg0g0gggq0ggg0gg9g0gg00g00g00gggg0gqg0gqggg0gg0g0000g0g00g00gggqg0gggg00g9g9g0g00g0g90g9ggg0ggg9gNNNNNNNNNNNNNNNN",
"NNNNNNNNNNNN#0gg0gggg0gggqgq9ggg0gg0gqg0ggg0g0gggqgg9gqggg9g0g0ggg0g0gg0qg0g0g0gqgg0ggg9gqggqgqg0gg0g0g00gg0ggg0g99NNNNNNNNNNNNN",
"NNNNNNNNNNNNX2gggg9211229g0ggg0gg00gqqqgg0g00gg09gqggqg09ggqg0g0g0g0g00gg9gqg0g0g0qgg9ggqgqqg0gqg0gg0g0ggg0g99gggg9NNNNNNNNNNNNN",
"NNNNNNNNNNNNN;9gg1-X...X#;19gggg9gg0qggq0gqg0g0g9g0g99gg0g0ggg0g0g0g0gg0qgqgqg0g0ggg0g9qgqqq9gqg00g9g9g009g09gg9ggNNNNNNNNNNNNNN",
"NNNNNNNNNNNNN+20,o       ..&,29ggg0ggqqgg9g900g0gg0ggg9gg9gq00ggg0g0g0g0gg9qg09gg9990g9g9qggg9qq0gg00g0ggg9g9gg999NNNNNNNNNNNNNN",
"NNNNNNNNNNNNNN<9# NNNNN     .O-<90g0ggg9g9g9gg9gqg99g9g99gg00g00q9g000g9gq9gg9g9g9g909ggqg9qqq0gg9g090g990g9g99g91NNNNNNNNNNNNNN",
"NNNNNNNNNNNNNN%-NNNNNNNNNNN    .%,2gg90g9g0g9gg9q9qg9g9g099gg9g9qg9g0g9g9gg99g9g9g9gg0g99gg9q9gq9gg9gg9gg99g9gg99NNNNNNNNNNNNNNN",
"NNNNNNNNNNNNNNNNNNNNNNNNNNNNN    .O;10gq9gg99g9qggg9gqqqg90999gg9gqq09g99q9gq9qq9gg99g99g90q0gqqg090009g9g09g9gq<NNNNNNNNNNNNNNN",
"NNNNNNNNNNNNNNNNNNNNNNNNNNNNNNNN    X$,4099g99g90q9g99qq9g9g0g99q99g0g09g0q09gqq9999g9g909gq090q99g09g00009gg992NNNNNNNNNNNNNNNN",
"NNNNNNNNNNNNNNNNNNNNNNNNNNNNNNNNNN    .+;2900g90g9qg9g909g9gq99g0qq0q0qq0g9g0q00q9g990q0qq9g00q00000000000g000g,NNNNNNNNNNNNNNNN",
"NNNNNNNNNNNNNNNNNNNNNNNNNNNNNNNNNNNNN   .O&,9900099099g090909g99000000000099000qqq009g000099q000000000000999002NNNNNNNNNNNNNNNNN",
"NNNNNNNNNNNNNNNNNNNNNNNNNNNNNNNNNNNNNNN    .#-19g99g0000q000q999000000000000000q0000000000q0000000000000g99g09>NNNNNNNNNNNNNNNNN",
"NNNNNNNNNNNNNNNNNNNNNNNNNNNNNNNNNNNNNNNNNN    o$;199900000000qg900000000009000090900900q000090000000900099990<NNNNNNNNNNNNNNNNNN",
"NNNNNNNNNNNNNNNNNNNNNNNNNNNNNNNNNNNNNNNNNNNN    .o%>199g99009g99000909090009009q900909999009000990900009g9999*NNNNNNNNNNNNNNNNNN",
"NNNNNNNNNNNNNNNNNNNNNNNNNNNNNNNNNNNNNNNNNNNNNNN    .O%><999999990900900909909999090999q990909909990099909999>NNNNNNNNNNNNNNNNNNN",
"NNNNNNNNNNNNNNNNNNNNNNNNNNNNNNNNNNNNNNNNNNNNNNNNNN    .X#;<29999990909909990099099099999909999909999999992<;NNNNNNNNNNNNNNNNNNNN",
"NNNNNNNNNNNNNNNNNNNNNNNNNNNNNNNNNNNNNNNNNNNNNNNNNNNNN     .+$><996999999999999999099999q999999990999942,=+.NNNNNNNNNNNNNNNNNNNNN",
"NNNNNNNNNNNNNNNNNNNNNNNNNNNNNNNNNNNNNNNNNNNNNNNNNNNNNNNN      .+@->,4299990099999990499999999999942,;#O. NNNNNNNNNNNNNNNNNNNNNNN",
"NNNNNNNNNNNNNNNNNNNNNNNNNNNNNNNNNNNNNNNNNNNNNNNNNNNNNNNNNNNN      ..++->>,22429699909999992622>;*++    NNNNNNNNNNNNNNNNNNNNNNNNN",
"NNNNNNNNNNNNNNNNNNNNNNNNNNNNNNNNNNNNNNNNNNNNNNNNNNNNNNNNNNNNNNNN      .  .O++O@@#->;>;>=#@+++O .    NNNNNNNNNNNNNNNNNNNNNNNNNNNN",
"NNNNNNNNNNNNNNNNNNNNNNNNNNNNNNNNNNNNNNNNNNNNNNNNNNNNNNNNNNNNNNNNNNNNN                           NNNNNNNNNNNNNNNNNNNNNNNNNNNNNNNN",
"NNNNNNNNNNNNNNNNNNNNNNNNNNNNNNNNNNNNNNNNNNNNNNNNNNNNNNNNNNNNNNNNNNNNNNNNNNNNNN           NNNNNNNNNNNNNNNNNNNNNNNNNNNNNNNNNNNNNNN",
"NNNNNNNNNNNNNNNNNNNNNNNNNNNNNNNNNNNNNNNNNNNNNNNNNNNNNNNNNNNNNNNNNNNNNNNNNNNNNNNNNNNNNNNNNNNNNNNNNNNNNNNNNNNNNNNNNNNNNNNNNNNNNNNN",
"NNNNNNNNNNNNNNNNNNNNNNNNNNNNNNNNNNNNNNNNNNNNNNNNNNNNNNNNNNNNNNNNNNNNNNNNNNNNNNNNNNNNNNNNNNNNNNNNNNNNNNNNNNNNNNNNNNNNNNNNNNNNNNNN",
"NNNNNNNNNNNNNNNNNNNNNNNNNNNNNNNNNNNNNNNNN29292922NNNNNNNNNNNNNNNNNNNNNNNNNNNNNNNNNNNNNNNNNNNNNNNNNNNNNNNNNNNNNNNNNNNNNNNNNNNNNNN",
"NNNNNNNNNNNNNNNNNNNNNNNNNNNNNNNNNNNNNNNN629294949222NNNNNNNNNNNNNNNNNNNNNNNNNNNNNNNNNNNNNNNNNNNNN2NNNNNNNNNNNNNNNNNNNNNNNNNNNNNN",
"NNNNNNNNNNNNNNNNNNNNNNNNNNNNNNNNNNNNNNNN2929292999299229NNNNNNNNNNNNNNNNNNNNNNNNNNNNNNNNNNNN22622NNNNNNNNNNNNNNNNNNNNNNNNNNNNNNN",
"NNNNNNNNNNNNNNNNNNNNNNNNNNNNNNNNNNNNNNN<9929929224929269922222NNNNNNNNNNNNNNNNNNNNNNNNN222222942NNNNNNNNNNNNNNNNNNNNNNNNNNNNNNNN",
"NNNNNNNNNNNNNNNNNNNNNNNNNNNNNNNNNNNNNNN<6296292992997292292992422422222222222222122262922499421NNNNNNNNNNNNNNNNNNNNNNNNNNNNNNNNN",
"NNNNNNNNNNNNNNNNNNNNNNNNNNNNNNNNNNNNNNN,92499242249262922992929469242922662222627992222992622;NNNNNNNNNNNNNNNNNNNNNNNNNNNNNNNNNN",
"NNNNNNNNNNNNNNNNNNNNNNNNNNNNNNNNNNNNNNN&226229292629926225222924226292924269992922242922222>NNNNNNNNNNNNNNNNNNNNNNNNNNNNNNNNNNNN",
"NNNNNNNNNNNNNNNNNNNNNNNNNNNNNNNNNNNNNNNN2624242262942926229922222929422492292222292292922,&NNNNNNNNNNNNNNNNNNNNNNNNNNNNNNNNNNNNN",
"NNNNNNNNNNNNNNNNNNNNNNNNNNNNNNNNNNNNNNNN;2262299242242249222299222426292242229922292222,$NNNNNNNNNNNNNNNNNNNNNNNNNNNNNNNNNNNNNNN",
"NNNNNNNNNNNNNNNNNNNNNNNNNNNNNNNNNNNNNNNNX#>122229229924229229222629222222292229222421>$NNNNNNNNNNNNNNNNNNNNNNNNNNNNNNNNNNNNNNNNN",
"NNNNNNNNNNNNNNNNNNNNNNNNNNNNNNNNNNNNNNNNN .@-,222222222222292222222222294222222222,-OXNNNNNNNNNNNNNNNNNNNNNNNNNNNNNNNNNNNNNNNNNN",
"NNNNNNNNNNNNNNNNNNNNNNNNNNNNNNNNNNNNNNNNNN   X#-,122222222222222222222222222222,-#X NNNNNNNNNNNNNNNNNNNNNNNNNNNNNNNNNNNNNNNNNNNN",
"NNNNNNNNNNNNNNNNNNNNNNNNNNNNNNNNNNNNNNNNNNN    .X@&>,<22222222229222222222<,;%@X  NNNNNNNNNNNNNNNNNNNNNNNNNNNNNNNNNNNNNNNNNNNNNN",
"NNNNNNNNNNNNNNNNNNNNNNNNNNNNNNNNNNNNNNNNNNNNNN     .X+$$;,,,,,<11<,,,,,-$$OX.   NNNNNNNNNNNNNNNNNNNNNNNNNNNNNNNNNNNNNNNNNNNNNNNN",
"NNNNNNNNNNNNNNNNNNNNNNNNNNNNNNNNNNNNNNNNNNNNNNNNN       .XXX.o+#@OXXXX..     NNNNNNNNNNNNNNNNNNNNNNNNNNNNNNNNNNNNNNNNNNNNNNNNNNN",
"NNNNNNNNNNNNNNNNNNNNNNNNNNNNNNNNNNNNNNNNNNNNNNNNNNNNNN                  NNNNNNNNNNNNNNNNNNNNNNNNNNNNNNNNNNNNNNNNNNNNNNNNNNNNNNNN",
"NNNNNNNNNNNNNNNNNNNNNNNNNNNNNNNNNNNNNNNNNNNNNNNNNNNNNNNNNNNNNNNNNNNNNNNNNNNNNNNNNNNNNNNNNNNNNNNNNNNNNNNNNNNNNNNNNNNNNNNNNNNNNNNN",
"NNNNNNNNNNNNNNNNNNNNNNNNNNNNNNNNNNNNNNNNNNNNNNNNNNNNNNNNNNNNNNNNNNNNNNNNNNNNNNNNNNNNNNNNNNNNNNNNNNNNNNNNNNNNNNNNNNNNNNNNNNNNNNNN",
"NNNNNNNNNNNNNNNNNNNNNNNNNNNNNNNNNNNNNNNNNNNNNNNNNNNNNNNNNNNNNNNNNNNNNNNNNNNNNNNNNNNNNNNNNNNNNNNNNNNNNNNNNNNNNNNNNNNNNNNNNNNNNNNN",
"NNNNNNNNNNNNNNNNNNNNNNNNNNNNNNNNNNNNNNNNNNNNNNNNNNNNNNNNNNNNNNNNNNNNNNNNNNNNNNNNNNNNNNNNNNNNNNNNNNNNNNNNNNNNNNNNNNNNNNNNNNNNNNNN",
"NNNNNNNNNNNNNNNNNNNNNNNNNNNNNNNNNNNNNNNNNNNNNNNNNNNNNNNNNNNNNNNNNNNNNNNNNNNNNNNNNNNNNNNNNNNNNNNNNNNNNNNNNNNNNNNNNNNNNNNNNNNNNNNN",
"NNNNNNNNNNNNNNNNNNNNNNNNNNNNNNNNNNNNNNNNNNNNNNNNNNNNNNNNNNNNNNNNNNNNNNNNNNNNNNNNNNNNNNNNNNNNNNNNNNNNNNNNNNNNNNNNNNNNNNNNNNNNNNNN",
"NNNNNNNNNNNNNNNNNNNNNNNNNNNNNNNNNNNNNNNNNNNNNNNNNNNNNNNNNNNNNNNNNNNNNNNNNNNNNNNNNNNNNNNNNNNNNNNNNNNNNNNNNNNNNNNNNNNNNNNNNNNNNNNN",
"NNNNNNNNNNNNNNNNNNNNNNNNNNNNNNNNNNNNNNNNNNNNNNNNNNNNNNNNNNNNNNNNNNNNNNNNNNNNNNNNNNNNNNNNNNNNNNNNNNNNNNNNNNNNNNNNNNNNNNNNNNNNNNNN",
"NNNNNNNNNNNNNNNNNNNNNNNNNNNNNNNNNNNNNNNNNNNNNNNNNNNNNNNNNNNNNNNNNNNNNNNNNNNNNNNNNNNNNNNNNNNNNNNNNNNNNNNNNNNNNNNNNNNNNNNNNNNNNNNN"
};
