/* XPM */
static char *kommander[] = {
/* columns rows colors chars-per-pixel */
"128 128 56 1",
"  c #000100010001",
". c #241524152415",
"X c #3B713B713B71",
"o c #51CF51CF51CF",
"O c #61BF61BF61BF",
"+ c #7A6E7A6E7A6E",
"@ c #8C4E8C4E8C4E",
"# c #9A859A859A85",
"$ c #AAD6AAD6AAD6",
"% c #B78AB78AB60B",
"& c #C2A7C2A7C2A7",
"* c #CC4ACC4ACC4A",
"= c #CF8DCF8DD1A0",
"- c #CE7CD099D099",
"; c #D39FD39FD39F",
": c #DBB2DBB2DBB2",
"> c #E10CE10CE10C",
", c #E649E649E649",
"< c #E924E898E924",
"1 c #EAB6EAB6EAB6",
"2 c #ECC8ECD0ECDE",
"3 c #EEDDEEDDEEDD",
"4 c #F076F013F013",
"5 c #F013F076F013",
"6 c #F076F076F013",
"7 c #F013F013F076",
"8 c #F076F013F076",
"9 c #F013F076F076",
"0 c #F1EDF1EDF1ED",
"q c #F319F321F315",
"w c #F433F433F433",
"e c #F59EF558F558",
"r c #F59EF59EF558",
"t c #F558F558F59E",
"y c #F558F59EF59E",
"u c #F6A4F6A4F6A4",
"i c #F794F75AF75A",
"p c #F75AF794F75A",
"a c #F794F794F75A",
"s c #F75AF75AF794",
"d c #F794F75AF794",
"f c #F75AF794F794",
"g c #F86FF86FF86F",
"h c #F915F919F91C",
"j c #F9C1F9C1F9C1",
"k c #FA94FA6CFA6C",
"l c #FA6CFA94FA6C",
"z c #FA94FA94FA6C",
"x c #FA6CFA6CFA94",
"c c #FA94FA6CFA94",
"v c #FA6CFA94FA94",
"b c #FB2CFB2CFB2C",
"n c #FC10FC12FC12",
"m c #FCFCFCFAFCFB",
"M c #FDE4FDE5FDE3",
"N c None",
/* pixels */
"NNNNNNNNNNNNNNNNNNNNNNNNNNNNNNNNNNNNNNNNNNNNNNNNNNNNNNNNNNNNNNNNNNNNNNNNNNNNNNNNNNNNNNNNNNNNNNNNNNNNNNNNNNNNNNNNNNNNNNNNNNNNNNNN",
"NNNNNNNNNNNNNNNNNNNNNNNNNNNNNNNNNNNNNNNNNNNNNNNNNNNNNNNNNNNNNNNNNNNNNNNNNNNNNNNNNNNNNNNNNNNNNNNNNNNNNNNNNNNNNNNNNNNNNNNNNNNNNNNN",
"NNNNNNNNNNNNNNNNNNNNNNNNNNNNNNNNNNNNNNNNNNNNNNNNNNNNNNNNNNNNNNNNNNNNNNNNNNNNNNNNNNNNNNNNNNNNNNNNNNNNNNNNNNNNNNNNNNNNNNNNNNNNNNNN",
"NNNNNNNNNNNNNNNNNNNNNNNNNNNNNNNNNNNNNNNNNNNNNNNNNNNNNNNNNNNNNNNNNNNNNNNNNNNNNNNNNNNNNNNNNNNNNNNNNNNNNNNNNNNNNNNNNNNNNNNNNNNNNNNN",
"NNNNNNNNNNNNNNNNNNNNNNNNNNNNNNNNNNNNNNNNNNNNNNNNNNNNNNNNNNNNNNNNNNNNNNNNNNNNNNNNNNNNNNNNNNNNNNNNNNNNNNNNNNNNNNNNNNNNNNNNNNNNNNNN",
"NNNNNNNNNNNNNNNNNNNNNNNNNNNNNNNNNNNNNNNNNNNNNNNNNNNNNNNNNNNNNNNNNNNNNNNNNNNNNNNNNNNNNNNNNNNNNNNNNNNNNNNNNNNNNNNNNNNNNNNNNNNNNNNN",
"NNNNNNNNNNNNNNNNNNNNNNNNNNNNNNNNNNNNNNNNNNNNNNNNNNNNNNNNNNNNNNNNNNNNNNNNNNNNNNNNNNNNNNNNNNNNNNNNNNNNNNNNNNNNNNNNNNNNNNNNNNNNNNNN",
"NNNNNNNNNNNNNNNNNNNNNNNNNNNNNNNNNNNNNNNNNNNNNNNNNNNNNNNNNNNNNNNNNNNNNNNNNNNNNNNNNNNNNNNNNNNNNNNNNNNNNNNNNNNNNNNNNNNNNNNNNNNNNNNN",
"NNNNNNNNNNNNNNNNNNNNNNNNNNNNNNNNNNNNNNNNNNNNNNNNNNNNNNNNNNNNNNNNNNNNNNNNNNNNNNNNNNNNNNNNNNNNNNNNNNNNNNNNNNNNNNNNNNNNNNNNNNNNNNNN",
"NNNNNNNNNNNNNNNNNNNNNNNNNNNNNNNNNNNNNNNNNNNNNNNNNNNNNNNNNNNNNNNNNNNNNNNNNNNNNNNNNNNNNNNNNNNNNNNNNNNNNNNNNNNNNNNNNNNNNNNNNNNNNNNN",
"NNNNNNNNNNNNNNNNNNNNNNNNNNNNNNNNNNNNNNNNNNNNNNNNNNNNNNNNNNNNNNNNNNNNNNNNNNNNNNNNNNNNNNNNNNNNNNNNNNNNNNNNNNNNNNNNNNNNNNNNNNNNNNNN",
"NNNNNNNNNNNNNNNNNNNNNNNNNNNNNNNNNNNNNNNNNNNNNNNNNNNNNNNNNNNNNNNNNNNNNNNNNNNNNNNNNNNNNNNNNNNNNNNNNNNNNNNNNNNNNNNNNNNNNNNNNNNNNNNN",
"NNNNNNNNNNNNNNNNNNNNNNNNNNNNNNNNNNNNNNNNNNNNNNNNNNNNNNNNNNNNNNNNNNNNNNNNNNNNNNNNNNNNNNNNNNNNNNNNNNNNNNNNNNNNNNNNNNNNNNNNNNNNNNNN",
"NNNNNNNNNNNNNNNNNNNNNNNNNNNNNNNNNNNNNNNNNNNNNNNNNNNNNNNNNNNNmmmmmmmmmNNNNNNNNNNNNNNNNNNNNNNNNNNNNNNNNNNNNNNNNNNNNNNNNNNNNNNNNNNN",
"NNNNNNNNNNNNNNNNNNNNNNNNNNNNNNNNNNNNNNNNNNNNNNNNNNNNNNNNNNmmmmmmmmmmmmNNNNNNNNNNNNNNNNNNNNNNNNNNNNNNNNNNNNNNNNNNNNNNNNNNNNNNNNNN",
"NNNNNNNNNNNNNNNNNNNNNNNNNNNNNNNNNNNNNNNNNNNNNNNNNNNNNNNNNNmmmmmmmmmmmmmNNNNNNNNNNNNNNNNNNNNNNNNNNNNNNNNNNNNNNNNNNNNNNNNNNNNNNNNN",
"NNNNNNNNNNNNNNNNNNNNNNNNNNNNNNNNNNNNNNNNNNNNNNNNNNNNNNNNNNmmmmmmmmmmmmmmNNNNNNNNNNNNNNNNNNNNNNNNNNNNNNNNNNNNNNNNNNNNNNNNNNNNNNNN",
"NNNNNNNNNNNNNNNNNNNNNNNNNNNNNNNNNNNNNNNNNNNNNNNNNNNNNNNNNmmmmmmmmmmmmmmmNNNNNNNNNNNNNNNNNNNNNNNNNNNNNNNNNNNNNNNNNNNNNNNNNNNNNNNN",
"NNNNNNNNNNNNNNNNNNNNNNNNNNNNNNNNNNNNNNNNNNNNNNNNNNNNNNNNNmmmmmmmmmmmmmmmNNNNNNNNNNNNNNNNNNNNNNNNNNNNNNNNNNNNNNNNNNNNNNNNNNNNNNNN",
"NNNNNNNNNNNNNNNNNNNNNNNNNNNNNNNNNNNNNNNNNNNNNNNNNNNNNNNNnmmmmmmmmmmmmmmmNNNNNNNNNNNNNNNNNNNNNNNNNNNNNNNNNNNNNNNNNNNNNNNNNNNNNNNN",
"NNNNNNNNNNNNNNNNNNNNNNNNNNNNNNNNNNNNNNNNNNNNNNNNNNNNNNNNnmmmmmmmmmmmmmmmmNNNNNNNNNNNNNNNNNNNNNNNNNNNNNNNNNNNNNNNNNNNNNNNNNNNNNNN",
"NNNNNNNNNNNNNNNNNNNNNNNNNNNNNNNNNNNNNNNNNNNNNNNNNNNNNNNNmmmmmmmmmmmmmmmmmNNNNNNNNNNNNNNNNNNNNNNNNNNNNNNNNNNNNNNNNNNNNNNNNNNNNNNN",
"NNNNNNNNNNNNNNNNNNNNNNNNNNNNNNNNNNNNNNNNNNNNNNNNNNNNNNNmmmmmmmmmmmmmmmmmmmNNNNNNNNNNNNNNNNNNNNNNNNNNNNNNNNNNNNNNNNNNNNNNNNNNNNNN",
"NNNNNNNNNNNNNNNNNNNNNNNNNNNNNNNNNNNNNNNNNNNNNNNNNNNNNNmmmmmmmmmmmmmmmmmmmmmNNNNNNNNNNNNNNNNNNmNNNNNNNNNNNNNNNNNNNNNNNNNNNNNNNNNN",
"NNNNNNNNNNNNNNNNNNNNNNNNNNNNNNNNNNNNNNNNNNNNNNNNNNNNmmmmmmmmmmmmmmmmmmmmmmmmmmNNNNNNNNNNNNNmmmmmNNNNNNNNNNNNNNNNNNNNNNNNNNNNNNNN",
"NNNNNNNNNNNNNNNNNNNNNNNNNNNNNNNNmmmmmmmNNNNNNNNNNNmmmmmmmmmmmmmmmmmmmmmmmmmmmmmmNNNNNNNNNmmmmmmmmmNNNNNNNNNNNNNNNNNNNNNNNNNNNNNN",
"NNNNNNNNNNNNNNNNNNNNNNNNNNNNNNNmmmmmmmmmNNNNNNNmmmmmmmmmmmmmmmmmmmmmmmmmmmmmmmmmmmmNNNNmmmmmmmmmmmmNNNNNNNNNNNNNNNNNNNNNNNNNNNNN",
"NNNNNNNNNNNNNNNNNNNNNNNNNNNNNNnmmmmmmmmmmmNNmmmmmmmmmmmmmmmmmmmmmmmmmmmmmmmmmmmmmmmmmmmmmmmmmmmmmmmNNNNNNNNNNNNNNNNNNNNNNNNNNNNN",
"NNNNNNNNNNNNNNNNNNNNNNNNNNNNNnmmmmmmmmmmmmmmmmmmmmmmmmmmmmmmmmmmmmmmmmmmmmmmmmmmmmmmmmmmmmmmmmmmmmmmmNNNNNNNNNNNNNNNNNNNNNNNNNNN",
"NNNNNNNNNNNNNNNNNNNNNNNNNNNNnmmmmmmmmmmmmmmmmmmmmmmmmmmmmmmmmmmmmmmmmmmmmmmmmmmmmmmmmmmmmmmmmmmmmmmmmNNNNNNNNNNNNNNNNNNNNNNNNNNN",
"NNNNNNNNNNNNNNNNNNNNNNNNNNNnmmmmmmmmmmmmmmmmmmmmmmmmmmmmmmmmmmmmmmmmmmmmmmmmmmmmmmmmmmmmmmmmmmmmmmmmmmNNNNNNNNNNNNNNNNNNNNNNNNNN",
"NNNNNNNNNNNNNNNNNNNNNNNNNNNmmmmmmmmmmmmmmmmmmmmmmmmmmmmmmmmmmmmmmmmmmmmmmmmmmmmmmmmmmmmmmmmmmmmmmmmmmmNNNNNNNNNNNNNNNNNNNNNNNNNN",
"NNNNNNNNNNNNNNNNNNNNNNNNNNNmmmmmmmmmmmmmmmmmmmmmmmmmmmmmmmmmmmmmmmmmmmmmmmmmmmmmmmmmmmmmmmmmmmmmmmmmmmNNNNNNNNNNNNNNNNNNNNNNNNNN",
"NNNNNNNNNNNNNNNNNNNNNNNNNNNnnmmmmmmmnmmmmmmmmmmmmmmmmnmmmmmmmnmmmmmmmmmmmmmmmmnmmmnmmmmmmmmmmmmnmmmmmmNNNNNNNNNNNNNNNNNNNNNNNNNN",
"NNNNNNNNNNNNNNNNNNNNNNNNNNNannnmmnnmmmmnmmmmmmmnmmmnmnmnmmmnmmmnnmmmmnmmmmnmmmmmmmmmmmmnnmmmmmnmmmmmmnNNNNNNNNNNNNNNNNNNNNNNNNNN",
"NNNNNNNNNNNNNNNNNNNNNNNNNNNNammnnmmmmnmmmnmnmmnmnmmmmmmmmnmmmmnmmmnmnmmnmnmmnmmnmnmnmnmnmmnmmnnnmmmmnNNNNNNNNNNNNNNNNNNNNNNNNNNN",
"NNNNNNNNNNNNNNNNNNNNNNNNNNNN*nnmmnmnmnnmnmmmnmmmmnmnnnnnnnmnmnnmmnmmmmnmmmnmnnnnmmmnnnmmnmnmnnnnnnnn,NNNNNNNNNNNNNNNNNNNNNNNNNNN",
"NNNNNNNNNNNNNNNNNNNNNNNNNNNNX0mmmmnmmnmnmnnnnnnnmnnmnnnnnmnmnmmnnnnnnnnnnnmnnnnnnnnnmmnnnmnnnnnnnnn3NNNNNNNNNNNNNNNNNNNNNNNNNNNN",
"NNNNNNNNNNNNNNNNNNNNNNNNNNNNN;nnnnmnnmnmnnmnnmnnnmnnnnnnnmnmnmnmmnnmmmmnnmnnnnnnnmnmmnnnmnnnnnnnnnnNNNNNNNNNNNNNNNNNNNNNNNNNNNNN",
"NNNNNNNNNNNNNNNNNNNNNNNNNNNNNOgnnnnnnnnnnnnnnnmnnnnnnnnnnnnnnnnnnnnnnnnnnnnnnnnnnnnnnnnnnmnnnnnnnmaNNNNNNNNNNNNNNNNNNNNNNNNNNNNN",
"NNNNNNNNNNNNNNNNNNNNNNNNNNNNN.annnnnnnnnnmnnnnnnnnnnnnnnnnnnnnnnnnnnnnnnnnnnnnnnnnnnnnnnnnnnnnnnnnwNNNNNNNNNNNNNNNNNNNNNNNNNNNNN",
"NNNNNNNNNNNNNNNNNNNNNNNNNNNNNN0nnnnnnnnnnnnnnnnnnnnnnnnnnnnnnnnnnnnnnnnnnnnnnnnnnnnnnnnnnnnnnnnnnnnNNNNNNNNNNNNNNNNNNNNNNNNNNNNN",
"NNNNNNNNNNNNNNNNNNNNNNNNNNNNNN0nnnnnnnnnnnnnnnnnnnnnnnnnnnnnnnnnnnnnnnnnnnnnnnhnnnnnnnnnnnnnhnnnnnn0NNNNNNNNNNNNNNNNNNNNNNNNNNNN",
"NNNNNNNNNNNNNNNNNNNNNNNNNNNNNNannnnhnnnnnnnnnnnnnngnnnnnannnnnnnnnnnnnnnnnhnnnnnnnnnnnnnnnnhnnnnnnnnNNNNNNNNNNNNNNNNNNNNNNNNNNNN",
"NNNNNNNNNNNNNNNNNNNNNNNNNNNNN3nnhnnnnnnnnnnnnnnnnnnnnnnnnnnnaa,%%%:e0gnnnnnnnnnnnnnnhnnhnnhnnhnhnannNNNNNNNNNNNNNNNNNNNNNNNNNNNN",
"NNNNNNNNNNNNNNNNNNNNNNNNNNNNNannnnnhnnnhnhnnnhhnannnnnanna3&...    ..+-3nnhnnhnnnnhnnnnnnnnnnnnnnnnnaNNNNNNNNNNNNNNNNNNNNNNNNNNN",
"NNNNNNNNNNNNNNNNNNNNNNNNNNNN<nnnhnnnnhnnnghnnnnnnnnnnnnn3+X            X&0hnhnnhhnnhnnnhnhnnnhnnnnnanNNNNNNNNNNNNNNNNNNNNNNNNNNN",
"NNNNNNNNNNNNNNNNNNNNNNNNNNNNahnnnnnhnhnhnnnnhnhnnnanna0&.   NNNNNNNN     o*ghnnhnnnnhhnnnnhhnnnhnannnNNNNNNNNNNNNNNNNNNNNNNNNNNN",
"NNNNNNNNNNNNNNNNNNNNNNNNNNNNnnnanhnnngnnhnnnnggnnnngn>.  NNNNNNNNNNNNNN    ;nnnnhnnhnnnhnnhnhnnnnannnnNNNNNNNNNNNNNNNNNNNNNNNNNN",
"NNNNNNNNNNNNNNNNNNNNNNNNNNN0nnnnnnhngngnnhnggnnnngnh> NNNNNNNNNNNNNNNNNNN   #0nannhnngnhhnnhnnannnnannNNNNNNNNNNNNNNNNNNNNNNNNNN",
"NNNNNNNNNNNNNNNNNNNNNNNNNNNaganngnhnnhnnnnnhnnngnnh<.NNNNNNNNNNNNNNNNNNNNNN  :annhnhhnhnhnhnnhnnannnanaNNNNNNNNNNNNNNNNNNNNNNNNN",
"NNNNNNNNNNNNNNNNNNNNNNNNNN7gnnnangnhhnhghngnnggnghg@NNNNNNNNNNNNNNNNNNNNNNNN  *ahngnnhngnhnhhngganannanNNNNNNNNNNNNNNNNNNNNNNNNN",
"NNNNNNNNNNNNNNNNNNNNNNNNN0nnhnnhgngnnngnnhnhnhgnng*NNNNNNNNNNNNNNNNNNNNNNNNNN  >hnnnnnnghnnghngnnnannnagnNNNNNNNNNNNNNNNNNNNNNNN",
"NNNNNNNNNNNNNNNNNNNNNNNNahngnhgnhnhghhnghngnggngn3NNNNNNNNNNNNNNNNNNNNNNNNNNNN #ahahaggnhagnngngannagngnannNNNNNNNNNNNNNNNNNNNNN",
"NNNNNNNNNNNNNNNNNNNNNannnggnghnghngnnhghhhhnhnhng&NNNNNNNNNNNNNNNNNNNNNNNNNNNNN ,gnghnggnnggggnngnghnahnangngnnNNNNNNNNNNNNNNNNN",
"NNNNNNNNNNNNNNNNNNannanagnhhgnhghgnhggnhgnhhhggnaNNNNNNNNNNNNNNNNNNNNNNNNNNNNNN @aggngnhghhngngghggnangananagnggNNNNNNNNNNNNNNNN",
"NNNNNNNNNNNNNNNNNanaghnngngnnghnnhnghhnhnhnghhnh1NNNNNNNNNNNNNNNNNNNNNNNNNNNNNNNo3nnannggggnnhgnngggnngggngnggngnNNNNNNNNNNNNNNN",
"NNNNNNNNNNNNNNNNNnannggggggghghgghnhhhhgghnggngg*NNNNNNNNNNNNNNNNNNNNNNNNNNNNNNNN;nagahagnggggghngngagnggngggnggnNNNNNNNNNNNNNNN",
"NNNNNNNNNNNNNNNN0ngggghgangnnghhhhggnghghhgghgnwNNNNNNNNNNNNNNNNNNNNNNNNNNNNNNNNN*anagnnnangggnganaaggggnaanananaNNNNNNNNNNNNNNN",
"NNNNNNNNNNNNNNNN3angnggngggaghgnhhggghggghgggggwNNNNNNNNNNNNNNNNNNNNNNNNNNNNNNNNN$aanaaaggghhgggggangnggggggggggaNNNNNNNNNNNNNNN",
"NNNNNNNNNNNNNNNN2ghghghggggghghghghghhnghgnggggwNNNNNNNNNNNNNNNNNNNNNNNNNNNNNNNNNN0nanghgnaghggaghgggnaaaanganannNNNNNNNNNNNNNNN",
"NNNNNNNNNNNNNNNN1ghgghgghgghghghggghggggghghgggeNNNNNNNNNNNNNNNNNNNNNNNNNNNNNNNNNNwhggggggggghgngghggghgngaaagagaNNNNNNNNNNNNNNN",
"NNNNNNNNNNNNNNNN,gggghggggggggghhggghggggggggggwNNNNNNNNNNNNNNNNNNNNNNNNNNNNNNNNNN0gggggggggggggggggggggggggggagaNNNNNNNNNNNNNNN",
"NNNNNNNNNNNNNNNN>ggggggggggggggggggggggggggggggwNNNNNNNNNNNNNNNNNNNNNNNNNNNNNNNNN%gggggggggggggggggggggaagggggaanNNNNNNNNNNNNNNN",
"NNNNNNNNNNNNNNNN>ggggggagggttggaggggggtggggggggwNNNNNNNNNNNNNNNNNNNNNNNNNNNNNNNNN:agggggggaggaggggggggtgaggggtgggNNNNNNNNNNNNNNN",
"NNNNNNNNNNNNNNNN>gtgaaaggggaggaatggtgggagtgggggwNNNNNNNNNNNNNNNNNNNNNNNNNNNNNNNNN:aaaagaaagagaaagttgggggaaaaggtagNNNNNNNNNNNNNNN",
"NNNNNNNNNNNNNNNN*gtggaaaaaggggaagggggtgagggwgtggNNNNNNNNNNNNNNNNNNNNNNNNNNNNNNNNN0aaagaaaaaagggagagaaatgaaaaagagwNNNNNNNNNNNNNNN",
"NNNNNNNNNNNNNNNNN<gaaaaaaataaaaagagwggaggwaaggataNNNNNNNNNNNNNNNNNNNNNNNNNNNNNNNNwaaaaaaaaaatgtaaatgeaagaaaaaatg1NNNNNNNNNNNNNNN",
"NNNNNNNNNNNNNNNNN+100gaaaatgawaatgtggtgtgggwgawgaNNNNNNNNNNNNNNNNNNNNNNNNNNNNNNN2aaaaaaaaatgtggaaggtggtgataaa00,NNNNNNNNNNNNNNNN",
"NNNNNNNNNNNNNNNNNNXXO&,0tggwaaaagwtataaawgtggwgaa0NNNNNNNNNNNNNNNNNNNNNNNNNNNNNN0aaattatgwgtaatatatggwgtaa1=&ONNNNNNNNNNNNNNNNNN",
"NNNNNNNNNNNNNNNNNNN   .o&7atwaaataattatatgatgaagaaNNNNNNNNNNNNNNNNNNNNNNNNNNNNN3ataaaatatgwgtatttataattw3&o  NNNNNNNNNNNNNNNNNNN",
"NNNNNNNNNNNNNNNNNNNN     #2aaaeaataagtatgwaawgwwaaaNNNNNNNNNNNNNNNNNNNNNNNNNNNNwtattatatatgtataataatagw*o   NNNNNNNNNNNNNNNNNNNN",
"NNNNNNNNNNNNNNNNNNNNNN    #3aaawtggwawwgawaaawwg0aa0NNNNNNNNNNNNNNNNNNNNNNNNNN0aataa0atatataawaawgwawa,o NNNNNNNNNNNNNNNNNNNNNNN",
"NNNNNNNNNNNNNNNNNNNNNNNN   ;a0aaawgwwggwgwwwwggwa0aawNNNNNNNNNNNNNNNNNNNNNNNN30aa0waatatatta0attgwtwaw&NNNNNNNNNNNNNNNNNNNNNNNNN",
"NNNNNNNNNNNNNNNNNNNNNNNNNN #0awwwgwggewawawaaawgawawa0NNNNNNNNNNNNNNNNNNNNNN7aawtaaw0aaa0aa0awtttttaa<oNNNNNNNNNNNNNNNNNNNNNNNNN",
"NNNNNNNNNNNNNNNNNNNNNNNNNNN.>a0awwwwwwwwawwawwww0a0a0awNNNNNNNNNNNNNNNNNNNNw0a0aat0aa00at0ta0attatwwa*NNNNNNNNNNNNNNNNNNNNNNNNNN",
"NNNNNNNNNNNNNNNNNNNNNNNNNNN &a0awgwwwewwawawwea0wa0aaa00NNNNNNNNNNNNNNNNN00ata0atwtwttttta0at0atwwwww#NNNNNNNNNNNNNNNNNNNNNNNNNN",
"NNNNNNNNNNNNNNNNNNNNNNNNNNNNO30awwwgwwwwww0wewwawwww0awaaw0NNNNNNNNNNNN0wawwa0wwtwwtwt0wt0wwaw0twwww>NNNNNNNNNNNNNNNNNNNNNNNNNNN",
"NNNNNNNNNNNNNNNNNNNNNNNNNNNNN;a0wwwwwwwwwwwwwwwwwwwwwwwwww0a0wNNNNNN0wwwwwwwwwwwwwwwwwwwwwwwwwwwwwww$NNNNNNNNNNNNNNNNNNNNNNNNNNN",
"NNNNNNNNNNNNNNNNNNNNNNNNNNNNN$0awwwwwwwwwwwwwwwwwwwwwwwwwww00aa0ww0awwwwwwwwwwwwwwwwwwwwwwwwwwwwwww2NNNNNNNNNNNNNNNNNNNNNNNNNNNN",
"NNNNNNNNNNNNNNNNNNNNNNNNNNNNN.:0wwwwww0w0wwwwwwwwa0ew0a0waw00tw00aw0awwwwa0ee0wa00w0aw0awa0a0a0wa00;NNNNNNNNNNNNNNNNNNNNNNNNNNNN",
"NNNNNNNNNNNNNNNNNNNNNNNNNNNNNN$ww8wwwwww0w0ww00w000w0ew000w0w00aw0ww00w00w00e00w0a0w0000000000w000wNNNNNNNNNNNNNNNNNNNNNNNNNNNNN",
"NNNNNNNNNNNNNNNNNNNNNNNNNNNNNN@08w8ww00wwwwww0w00t0twwww0w0w0w0w0w000w0ww00w00a00ww0w00w0w0000ww000NNNNNNNNNNNNNNNNNNNNNNNNNNNNN",
"NNNNNNNNNNNNNNNNNNNNNNNNNNNNNN#0w0ww00w0w0000w0w0t000000w0w0w0w00w0ww0w000w0w000000w0w0ww0ww0ww00w0,NNNNNNNNNNNNNNNNNNNNNNNNNNNN",
"NNNNNNNNNNNNNNNNNNNNNNNNNNNNNN&0www7w90w000ww00w00t000000w0w00000w0w0000000ww000000000w00000w000w0w3NNNNNNNNNNNNNNNNNNNNNNNNNNNN",
"NNNNNNNNNNNNNNNNNNNNNNNNNNNNNN,0w7w0w000w0009w0000000w000000w0000000t000000000000000000000w0000000001NNNNNNNNNNNNNNNNNNNNNNNNNNN",
"NNNNNNNNNNNNNNNNNNNNNNNNNNNNN:00770000000000000000000000000000000000000000000000000000000000000000003NNNNNNNNNNNNNNNNNNNNNNNNNNN",
"NNNNNNNNNNNNNNNNNNNNNNNNNNNNN3009w00000000700000000000000000000000000900004000000000000003000040030003NNNNNNNNNNNNNNNNNNNNNNNNNN",
"NNNNNNNNNNNNNNNNNNNNNNNNNNNN,0000030009070080007050030000304050500900003004000600040000403000000030053NNNNNNNNNNNNNNNNNNNNNNNNNN",
"NNNNNNNNNNNNNNNNNNNNNNNNNNNN330337003990778777990330043030303030990330303003306660443030300330383030303NNNNNNNNNNNNNNNNNNNNNNNNN",
"NNNNNNNNNNNNNNNNNNNNNNNNNNN,060003359503888030035055330366540303303003300336030330330330303503033033033NNNNNNNNNNNNNNNNNNNNNNNNN",
"NNNNNNNNNNNNNNNNNNNNNNNNNNN>033003030330883833033035303436530356037333033463333383883633935333330303333NNNNNNNNNNNNNNNNNNNNNNNNN",
"NNNNNNNNNNNNNNNNNNNNNNNNNNNN33333535733337333733333553330533333333333333333333333433333333333333333333NNNNNNNNNNNNNNNNNNNNNNNNNN",
"NNNNNNNNNNNNNNNNNNNNNNNNNNNN:333333333373333733333333333333333333333333333333333333333333333333333333>NNNNNNNNNNNNNNNNNNNNNNNNNN",
"NNNNNNNNNNNNNNNNNNNNNNNNNNNNN;3333332333333333333333333333333333333333333333333333333333333333333333:NNNNNNNNNNNNNNNNNNNNNNNNNNN",
"NNNNNNNNNNNNNNNNNNNNNNNNNNNNN.*2333333323323:>33323233232333323233333331333333333331::;:33313333333*NNNNNNNNNNNNNNNNNNNNNNNNNNNN",
"NNNNNNNNNNNNNNNNNNNNNNNNNNNNN  &323322231>&+ X@*3303333132332333333323322323313331&+    +&33131322-NNNNNNNNNNNNNNNNNNNNNNNNNNNNN",
"NNNNNNNNNNNNNNNNNNNNNNNNNNNNNN .-223233>#       @*:3132322222222113122122222331:%+.      .%:31332;NNNNNNNNNNNNNNNNNNNNNNNNNNNNNN",
"NNNNNNNNNNNNNNNNNNNNNNNNNNNNNNN X=132>%X         .X%:,2222222222321323222222,*$X           X$;,;$.NNNNNNNNNNNNNNNNNNNNNNNNNNNNNN",
"NNNNNNNNNNNNNNNNNNNNNNNNNNNNNNNN .@&&@  NNNNNNN     X+*1212221212131212121,*+   NNNNNNNNN     o NNNNNNNNNNNNNNNNNNNNNNNNNNNNNNNN",
"NNNNNNNNNNNNNNNNNNNNNNNNNNNNNNNNN     NNNNNNNNNNNN     %113211121212212211%   NNNNNNNNNNNNNN  NNNNNNNNNNNNNNNNNNNNNNNNNNNNNNNNNN",
"NNNNNNNNNNNNNNNNNNNNNNNNNNNNNNNNNNNNNNNNNNNNNNNNNNNN    %1111111111111111:X NNNNNNNNNNNNNNNNNNNNNNNNNNNNNNNNNNNNNNNNNNNNNNNNNNNN",
"NNNNNNNNNNNNNNNNNNNNNNNNNNNNNNNNNNNNNNNNNNNNNNNNNNNNNN  X:111111111111111&NNNNNNNNNNNNNNNNNNNNNNNNNNNNNNNNNNNNNNNNNNNNNNNNNNNNNN",
"NNNNNNNNNNNNNNNNNNNNNNNNNNNNNNNNNNNNNNNNNNNNNNNNNNNNNNN  %1111111111<111,+NNNNNNNNNNNNNNNNNNNNNNNNNNNNNNNNNNNNNNNNNNNNNNNNNNNNNN",
"NNNNNNNNNNNNNNNNNNNNNNNNNNNNNNNNNNNNNNNNNNNNNNNNNNNNNNNN %11<1<1111<<1<1>NNNNNNNNNNNNNNNNNNNNNNNNNNNNNNNNNNNNNNNNNNNNNNNNNNNNNNN",
"NNNNNNNNNNNNNNNNNNNNNNNNNNNNNNNNNNNNNNNNNNNNNNNNNNNNNNNNN$,1<<<<1,<<<<<<&NNNNNNNNNNNNNNNNNNNNNNNNNNNNNNNNNNNNNNNNNNNNNNNNNNNNNNN",
"NNNNNNNNNNNNNNNNNNNNNNNNNNNNNNNNNNNNNNNNNNNNNNNNNNNNNNNNNo:1<<<<<<<<<<<<%NNNNNNNNNNNNNNNNNNNNNNNNNNNNNNNNNNNNNNNNNNNNNNNNNNNNNNN",
"NNNNNNNNNNNNNNNNNNNNNNNNNNNNNNNNNNNNNNNNNNNNNNNNNNNNNNNNNN&1<<<<<<<<<<1,NNNNNNNNNNNNNNNNNNNNNNNNNNNNNNNNNNNNNNNNNNNNNNNNNNNNNNNN",
"NNNNNNNNNNNNNNNNNNNNNNNNNNNNNNNNNNNNNNNNNNNNNNNNNNNNNNNNNNX*1,11111,<<<;NNNNNNNNNNNNNNNNNNNNNNNNNNNNNNNNNNNNNNNNNNNNNNNNNNNNNNNN",
"NNNNNNNNNNNNNNNNNNNNNNNNNNNNNNNNNNNNNNNNNNNNNNNNNNNNNNNNNNNX*>>>>>:>>>=NNNNNNNNNNNNNNNNNNNNNNNNNNNNNNNNNNNNNNNNNNNNNNNNNNNNNNNNN",
"NNNNNNNNNNNNNNNNNNNNNNNNNNNNNNNNNNNNNNNNNNNNNNNNNNNNNNNNNNN .X....XXXNNNNNNNNNNNNNNNNNNNNNNNNNNNNNNNNNNNNNNNNNNNNNNNNNNNNNNNNNNN",
"NNNNNNNNNNNNNNNNNNNNNNNNNNNNNNNNNNNNNNNNNNNNNNNNNNNNNNNNNNNNN       NNNNNNNNNNNNNNNNNNNNNNNNNNNNNNNNNNNNNNNNNNNNNNNNNNNNNNNNNNNN",
"NNNNNNNNNNNNNNNNNNNNNNNNNNNNNNNNNNNNNNNNNNNNNNNNNNNNNNNNNNNNNNNNNNNNNNNNNNNNNNNNNNNNNNNNNNNNNNNNNNNNNNNNNNNNNNNNNNNNNNNNNNNNNNNN",
"NNNNNNNNNNNNNNNNNNNNNNNNNNNNNNNNNNNNNNNNNNNNNNNNNNNNNNNNNNNNNNNNNNNNNNNNNNNNNNNNNNNNNNNNNNNNNNNNNNNNNNNNNNNNNNNNNNNNNNNNNNNNNNNN",
"NNNNNNNNNNNNNNNNNNNNNNNNNNNNNNNNNNNNNNNNNNNNNNNNNNNNNNNNNNNNNNNNNNNNNNNNNNNNNNNNNNNNNNNNNNNNNNNNNNNNNNNNNNNNNNNNNNNNNNNNNNNNNNNN",
"NNNNNNNNNNNNNNNNNNNNNNNNNNNNNNNNNNNNNNNNNNNNNNNNNNNNNNNNNNNNNNNNNNNNNNNNNNNNNNNNNNNNNNNNNNNNNNNNNNNNNNNNNNNNNNNNNNNNNNNNNNNNNNNN",
"NNNNNNNNNNNNNNNNNNNNNNNNNNNNNNNNNNNNNNNNNNNNNNNNNNNNNNNNNNNNNNNNNNNNNNNNNNNNNNNNNNNNNNNNNNNNNNNNNNNNNNNNNNNNNNNNNNNNNNNNNNNNNNNN",
"NNNNNNNNNNNNNNNNNNNNNNNNNNNNNNNNNNNNNNNNNNNNNNNNNNNNNNNNNNNNNNNNNNNNNNNNNNNNNNNNNNNNNNNNNNNNNNNNNNNNNNNNNNNNNNNNNNNNNNNNNNNNNNNN",
"NNNNNNNNNNNNNNNNNNNNNNNNNNNNNNNNNNNNNNNNNNNNNNNNNNNNNNNNNNNNNNNNNNNNNNNNNNNNNNNNNNNNNNNNNNNNNNNNNNNNNNNNNNNNNNNNNNNNNNNNNNNNNNNN",
"NNNNNNNNNNNNNNNNNNNNNNNNNNNNNNNNNNNNNNNNNNNNNNNNNNNNNNNNNNNNNNNNNNNNNNNNNNNNNNNNNNNNNNNNNNNNNNNNNNNNNNNNNNNNNNNNNNNNNNNNNNNNNNNN",
"NNNNNNNNNNNNNNNNNNNNNNNNNNNNNNNNNNNNNNNNNNNNNNNNNNNNNNNNNNNNNNNNNNNNNNNNNNNNNNNNNNNNNNNNNNNNNNNNNNNNNNNNNNNNNNNNNNNNNNNNNNNNNNNN",
"NNNNNNNNNNNNNNNNNNNNNNNNNNNNNNNNNNNNNNNNNNNNNNNNNNNNNNNNNNNNNNNNNNNNNNNNNNNNNNNNNNNNNNNNNNNNNNNNNNNNNNNNNNNNNNNNNNNNNNNNNNNNNNNN",
"NNNNNNNNNNNNNNNNNNNNNNNNNNNNNNNNNNNNNNNNNNNNNNNNNNNNNNNNNNNNNNNNNNNNNNNNNNNNNNNNNNNNNNNNNNNNNNNNNNNNNNNNNNNNNNNNNNNNNNNNNNNNNNNN",
"NNNNNNNNNNNNNNNNNNNNNNNNNNNNNNNNNNNNNNNNNNNNNNNNNNNNNNNNNNNNNNNNNNNNNNNNNNNNNNNNNNNNNNNNNNNNNNNNNNNNNNNNNNNNNNNNNNNNNNNNNNNNNNNN",
"NNNNNNNNNNNNNNNNNNNNNNNNNNNNNNNNNNNNNNNNNNNNNNNNNNNNNNNNNNNNNNNNNNNNNNNNNNNNNNNNNNNNNNNNNNNNNNNNNNNNNNNNNNNNNNNNNNNNNNNNNNNNNNNN",
"NNNNNNNNNNNNNNNNNNNNNNNNNNNNNNNNNNNNNNNNNNNNNNNNNNNNNNNNNNNNNNNNNNNNNNNNNNNNNNNNNNNNNNNNNNNNNNNNNNNNNNNNNNNNNNNNNNNNNNNNNNNNNNNN",
"NNNNNNNNNNNNNNNNNNNNNNNNNNNNNNNNNNNNNNNNNNNNNNNNNNNNNNNNNNNNNNNNNNNNNNNNNNNNNNNNNNNNNNNNNNNNNNNNNNNNNNNNNNNNNNNNNNNNNNNNNNNNNNNN",
"NNNNNNNNNNNNNNNNNNNNNNNNNNNNNNNNNNNNNNNNNNNNNNNNNNNNNNNNNNNNNNNNNNNNNNNNNNNNNNNNNNNNNNNNNNNNNNNNNNNNNNNNNNNNNNNNNNNNNNNNNNNNNNNN"
};
