/* XPM */
static char *kxsldbg[] = {
/* columns rows colors chars-per-pixel */
"128 128 65 1",
"  c #000100010001",
". c #211C211C211C",
"X c #3B713B713B71",
"o c #51CF51CF51CF",
"O c #61BF64536453",
"+ c #781378137813",
"@ c #8A2A8A2A8A2A",
"# c #9A859A859A85",
"$ c #A20BA5A4A20B",
"% c #AAD6AAD6AAD6",
"& c #B165B165AFCB",
"* c #B60BB60BB60B",
"= c #BBE3BD4ABD4A",
"- c #C2A7C2A7C2A7",
"; c #C7A5C532C532",
": c #CC4ACC4ACC4A",
"> c #D099CF8DD099",
", c #D39FD39FD39F",
"< c #D763D849D849",
"1 c #DBB2DBB2DBB2",
"2 c #E10CE10CE10C",
"3 c #E3C6E46CE3C6",
"4 c #E3C6E46CE46C",
"5 c #E649E649E649",
"6 c #E809E924E924",
"7 c #EAB6EAB6EAB6",
"8 c #ED07ECBEED0A",
"9 c #EEDDEEDDEEDD",
"0 c #F076F013F013",
"q c #F013F076F013",
"w c #F076F076F013",
"e c #F013F013F076",
"r c #F076F013F076",
"t c #F013F076F076",
"y c #F193F193F193",
"u c #F324F321F314",
"i c #F433F433F433",
"p c #F59EF558F558",
"a c #F558F59EF558",
"s c #F59EF59EF558",
"d c #F558F558F59E",
"f c #F59EF558F59E",
"g c #F558F59EF59E",
"h c #F6A4F6A4F6A4",
"j c #F794F75AF75A",
"k c #F75AF794F75A",
"l c #F794F794F75A",
"z c #F75AF75AF794",
"x c #F794F75AF794",
"c c #F75AF794F794",
"v c #F86FF83AF86F",
"b c #F916F91DF911",
"n c #F9C1F9C1F9C1",
"m c #FA94FA6CFA6C",
"M c #FA6CFA94FA6C",
"N c #FA94FA94FA6C",
"B c #FA6CFA6CFA94",
"V c #FA94FA6CFA94",
"C c #FA6CFA94FA94",
"Z c #FB08FB08FB08",
"A c #FC13FC0FFC13",
"S c #FCF6FCFAFCF6",
"D c #FDDFFDDBFDDF",
"F c #FEA7FEADFEAD",
"G c None",
/* pixels */
"GGGGGGGGGGGGGGGGGGGGGGGGGGGGGGGGGGGGGGGGGGGGGGGGGGGGGGGGGGGGGGGGGGGGGGGGGGGGGGGGGGGGGGGGGGGGGGGGGGGGGGGGGGGGGGGGGGGGGGGGGGGGGGGG",
"GGGGGGGGGGGGGGGGGGGGGGGGGGGGGGGGGGGGGGGGGGGGGGGGGGGGGGGGGGGGGGGGGGGGGGGGGGGGGGGGGGGGGGGGGGGGGGGGGGGGGGGGGGGGGGGGGGGGGGGGGGGGGGGG",
"GGGGGGGGGGGGGGGGGGGGGGGGGGGGGGGGGGGGGGGGGGGGGGGGGGGGGGGGGGGGGGGGGGGGGGGGGGGGGGGGGGGGGGGGGGGGGGGGGGGGGGGGGGGGGGGGGGGGGGGGGGGGGGGG",
"GGGGGGGGGGGGGGGGGGGGGGGGGGGGGGGGGGGGGGGGGGGGGGGGGGGGGGGGGGGGGGGGGGGGGGGGGGGGGGGGGGGGGGGGGGGGGGGGGGGGGGGGGGGGGGGGGGGGGGGGGGGGGGGG",
"GGGGGGGGGGGGGGGGGGGGGGGGGGGGGGGGGGGGGGGGGGGGGGGGGGGGGGGGGGGGGGGGGGGGGGGGGGGGGGGGGGGGGGGGGGGGGGGGGGGGGGGGGGGGGGGGGGGGGGGGGGGGGGGG",
"GGGGGGGGGGGGGGGGGGGGGGGGGGGGGGGGGGGGGGGGGGGGGGGGGGGGGGGGGGGGGGGGGGGGGGGGGGGGGGGGGGGGGGGGGGGGGGGGGGGGGGGGGGGGGGGGGGGGGGGGGGGGGGGG",
"GGGGGGGGGGGGGGGGGGGGGGGGGGGGGGGGGGGGGGGGGGGGGGGGGGGGGGGGGGGGGGGGGGGGGGGGGGGGGGGGGGGGGGGGGGGGGGGGGGGGGGGGGGGGGGGGGGGGGGGGGGGGGGGG",
"GGGGGGGGGGGGGGGGGGGGGGGGGGGGGGGGGGGGGGGGGGGGGGGGGGGGGGGGGGGGGGGGGGGGGGGGGGGGGGGGGGGGGGGGGGGGGGGGGGGGGGGGGGGGGGGGGGGGGGGGGGGGGGGG",
"GGGGGGGGGGGGGGGGGGGGGGGGGGGGGGGGGGGGGGGGGGGGGGGGGGGGGGGGGGGGGGGGGGGGGGGGGGGGGGGGGGGGGGGGGGGGGGGGGGGGGGGGGGGGGGGGGGGGGGGGGGGGGGGG",
"GGGGGGGGGGGGGGGGGGGGGGGGGGGGGGGGGGGGGGGGGGGGGGGGGGGGGGGGGGGGGGGGGGGGGGGGGGGGGGGGGGGGGGGGGGGGGGGGGGGGGGGGGGGGGGGGGGGGGGGGGGGGGGGG",
"GGGGGGGGGGGGGGGGGGGGGGGGGGGGGGGGGGGGGGGGGGGGGGGGGGGGGGGGGGGGGGGGGGGGGGGGGGGGGGGGGGGGGGGGGGGGGGGGGGGGGGGGGGGGGGGGGGGGGGGGGGGGGGGG",
"GGGGGGGGGGGGGGGGGGGGGGGGGGGGGGGGGGGGGGGGGGGGGGGGGGGGGGGGGGGGGGGGGGGGGGGGGGGGGGGGGGGGGGGGGGGGGGGGGGGGGGGGGGGGGGGGGGGGGGGGGGGGGGGG",
"GGGGGGGGGGGGGGGGGGGGGGGGGGGGGGGGGGGGGGGGGGGGGGGGGGGGGGGGGGGGGGGGGGGGGGGGGGGGGGGGGGGGGGGGGGGGGGGGGGGGGGGGGGGGGGGGGGGGGGGGGGGGGGGG",
"GGGGGGGGGGGGGGGGGGGGGGGGGGGGGGGGGGGGGGGGGGGGGGGGGGGGGGGGGGGGGGGGGGGGGGGGGGGGGGGGGGGGGGGGGGGGGGGGGGGGGGGGGGGGGGGGGGGGGGGGGGGGGGGG",
"GGGGGGGGGGGGGGGGGGGGGGGGGGGGGGGGGGGGGGGGGGGGGGGGGGGGGGGGGGGGGGGGGGGGGGGGGGGGGGGGGGGGGGGGGGGGGGGGGGGGGGGGGGGGGGGGGGGGGGGGGGGGGGGG",
"GGGGGGGGGGGGGGGGGGGGGGGGGGGGGGGGGGGGGGGGGGGGGGGGGGGGGGGGGGGGGGGGGGGGGGGGGGGGGGGGGGGGGGGGGGGGGGGGGGGGGGGGGGGGGGGGGGGGGGGGGGGGGGGG",
"GGGGGGGGGGGGGGGGGGGGGGGGGGGGGGGGGGGGGGGGGGGGGDDDDDDDDDGGGGGGGGGGGGGGGGGGGGGGGGGGGGGGGGGGGGGGGGGGGGGGGGGGGGGGGGGGGGGGGGGGGGGGGGGG",
"GGGGGGGGGGGGGGGGGGGGGGGGGGGGGGGGGGGGGGGGGGGGGDDDDDDDDDDGGGGGGGGGGGGGGGGGGGGGGGGGGGGGGGGGGGGGGGGGGGGGGGGGGGGGGGGGGGGGGGGGGGGGGGGG",
"GGGGGGGGGGGGGGGGGGGGGGGGGGGGGGGGGGGGGGGGGGGGGDDDDDDDDDDGGGGGGGGGGGGGGGGGGGGGGGGGGGGGGGGGGGGGGGGGGGGGGGGGGGGGGGGGGGGGGGGGGGGGGGGG",
"GGGGGGGGGGGGGGGGGGGGGGGGGGGGGGGGGGGGGGGGGGGGDDDDDDDDDDDDGGGGGGGGGGGGGGGGGGGGGGGGGGGGGGGGGGGGGGGGGGGGGGGGGGGGGGGGGGGGGGGGGGGGGGGG",
"GGGGGGGGGGGGGGGGGGGGGGGGGGGGGGGGGGGGGGGGGGGGDDDDDDDDDDDDGGGGGGGGGGGGGGGGGGGGGGGGGGGGGGGGGGGGGGGGGGGGGGGGGGGGGGGGGGGGGGGGGGGGGGGG",
"GGGGGGGGGGGGGGGGGGGGGGGGGGGGGGGGGGGGGGGGGGGDDDDDDDDDDDDDGGGGGGGGGGGGGGGGGGGGGGGGGGGGGGGGGGGGGGGGGGGGGGGGGGGGGGGGGGGGGGGGGGGGGGGG",
"GGGGGGGGGGGGGGGGGGGGGGGGGGGGGGGGGGGGGGGGGGGDDDDDDDDDDDDDGGGGGGGGGGGGGGGGGGGGGGGGGGGGGGGGGGGGGGGGGGGGGGGGGGGGGGGGGGGGGGGGGGGGGGGG",
"GGGGGGGGGGGGGGGGGGGGGGGGGGGGGGGGGGGGGGGGGDDDDDDDDDDDDDDDDDGGGGGGGGGGGDDGGGGGGGGGGGGGGGGGGGGGGGGGGGGGGGGGGGGGGGGGGGGGGGGGGGGGGGGG",
"GGGGGGGGGGGGGGGGGGGGGGGGGGDDDDDDGGGGGGDADDDDDDDDDDDDDDDDDDDDDDGGGGGDDDDDDGGGGGGGGGGGGGGGGGGGGGGGGGGGGGGGGGGGGGGGGGGGGGGGGGGGGGGG",
"GGGGGGGGGGGGGGGGGGGGGGGGGDDDDDDDDGGGDDDDDDDDDDDDDDDDDDDDSDDDDDDGGDDDDDDSDDGGGGGGGGGGGGGGGGGGGGGGGGGGGGGGGGGGGGGGGGGGGGGGGGGGGGGG",
"GGGGGGGGGGGGGGGGGGGGGGGGDDDDDDDDDDDDDDDDDDDDDDDSDDDDDDDDDDDDDDDDDDDDDDDDDDDGGGGGGGGGGGGGGGGGGGGGGGGGGGGGGGGGGGGGGGGGGGGGGGGGGGGG",
"GGGGGGGGGGGGGGGGGGGGGGGDDDDDSDDDSDDDDDDDDDADDSDDDDDDDDDDDSSDSSSDDDDDDDADDDDDGGGGGGGGGGGGGGGGGGGGGGGGGGGGGGGGGGGGGGGGGGGGGGGGGGGG",
"GGGGGGGGGGGGGGGGGGGGGGGDDDDDADADADDDSDDDADDDDDDDADDDDDDDDSDDSDADDDDADDDSADDDAGGGGGGGGGGGGGGGGGGGGGGGGGGGGGGGGGGGGGGGGGGGGGGGGGGG",
"GGGGGGGGGGGGGGGGGGGGGGGDASDDDDDDDDDADDADDASSADADDDAASADASSSSSDSSDDDADAADDASSDGGGGGGGGGGGGGGGGGGGGGGGGGGGGGGGGGGGGGGGGGGGGGGGGGGG",
"GGGGGGGGGGGGGGGGGGGGGGGDSDDAADADSSADSSDADDSDADSDSDADDADASSSSSDSDADADDADSASDSAGGGGGGGGGGGGGGGGGGGGGGGGGGGGGGGGGGGGGGGGGGGGGGGGGGG",
"GGGGGGGGGGGGGGGGGGGGGGGhDAADDADADADADSADAADADADADADDADADDSSSSSASDADSADADDSADGGGGGGGGGGGGGGGGGGGGGGGGGGGGGGGGGGGGGGGGGGGGGGGGGGGG",
"GGGGGGGGGGGGGGGGGGGGGGG7DDDDDAADDDASADAASDASDDADDDADASDADSADASADDAADADASDSDGGGGGGGGGGGGGGGGGGGGGGGGGGGGGGGGGGGGGGGGGGGGGGGGGGGGG",
"GGGGGGGGGGGGGGGGGGGGGGGGhDAADASAAAAAAAADAADAAAAAAAAAADSAAASAAAASASASSASAAAAGGGGGGGGGGGGGGGGGGGGGGGGGGGGGGGGGGGGGGGGGGGGGGGGGGGGG",
"GGGGGGGGGGGGGGGGGGGGGGGG:AAAAAAAADDAAAAAADASSAADADADAASSSSAAAAAASASAAAAAAD*GGGGGGGGGGGGGGGGGGGGGGGGGGGGGGGGGGGGGGGGGGGGGGGGGGGGG",
"GGGGGGGGGGGGGGGGGGGGGGGGGDAAAAAAAAAAAAAAAAAAAAAAAAAAAAAAAAAAAAAAAAAAAAAAAAGGGGGGGGGGGGGGGGGGGGGGGGGGGGGGGGGGGGGGGGGGGGGGGGGGGGGG",
"GGGGGGGGGGGGGGGGGGGGGGGGGDAAAAAAAAAAAAAAAAAAAAAAAAAAAAAAAAAAAAAAAAAAAAAAAAGGGGGGGGGGGGGGGGGGGGGGGGGGGGGGGGGGGGGGGGGGGGGGGGGGGGGG",
"GGGGGGGGGGGGGGGGGGGGGGGG&AAAAAAAAAAAAAAAAAAAAAASDAAAAAAAAAAAAAAAAAAAAAAAAADGGGGGGGGGGGGGGGGGGGGGGGGGGGGGGGGGGGGGGGGGGGGGGGGGGGGG",
"GGGGGGGGGGGGGGGGGGGGGGGGvAAAAAAAAAAAAAAAAAAAADA*;;;;&AAAAAAAAAAAAAAAAhAAhAAAGGGGGGGGGGGGGGGGGGGGGGGGGGGGGGGGGGGGGGGGGGGGGGGGGGGG",
"GGGGGGGGGGGGGGGGGGGGGGG9AAAAAAAAAAAAAAAAAAAAh .      .ODAAAAvAAAvAAAAAAAAAAAGGGGGGGGGGGGGGGGGGGGGGGGGGGGGGGGGGGGGGGGGGGGGGGGGGGG",
"GGGGGGGGGGGGGGGGGGGGGGGuAAvAAAvAAAAAAAAAAAA   GGGGGG    7AAAAAAAAAAAvAvAAAAAGGGGGGGGGGGGGGGGGGGGGGGGGGGGGGGGGGGGGGGGGGGGGGGGGGGG",
"GGGGGGGGGGGGGGGGGGGGGGGAvAAAAAAAAAvAAvAvAh.GGGGGGGGGGGG  %9AAhAAvAAvAAvAvAvAAGGGGGGGGGGGGGGGGGGGGGGGGGGGGGGGGGGGGGGGGGGGGGGGGGGG",
"GGGGGGGGGGGGGGGGGGGGGGGAAAAAvAvAvAvAAvAAh.GGGGGGGGGGGGGG   8AhAvAAAAAAAAvAAvAGGGGGGGGGGGGGGGGGGGGGGGGGGGGGGGGGGGGGGGGGGGGGGGGGGG",
"GGGGGGGGGGGGGGGGGGGGGGAAAvvAvAAvAvAAvAAAGGGGGGGGGGGGGGGGGG 3AAAhvAhAvvAvAAvAAvGGGGGGGGGGGGGGGGGGGGGGGGGGGGGGGGGGGGGGGGGGGGGGGGGG",
"GGGGGGGGGGGGGGGGGGGGGvvAvvAvAvAAAbAvAAAGGGGGGGGGGGGGGGGGGGGGhAAAvAvAAAvAAAvAhAAAGGGGGGGGGGGGGGGGGGGGGGGGGGGGGGGGGGGGGGGGGGGGGGGG",
"GGGGGGGGGGGGGGGGGAAAAAAvAAvAAhvAvAAAhA7GGGGGGGGGGGGGGGGGGGGG*AhAvAvAvAAvhAAhAAhvAAAGGGGGGGGGGGGGGGGGGGGGGGGGGGGGGGGGGGGGGGGGGGGG",
"GGGGGGGGGGGGGGGGAvvAAvvAAvAAAAAvvAhAhA,GGGGGGGGGGGGGGGGGGGGGGAhAAvAvAvvvAvhAhAhAvAhAGGGGGGGGGGGGGGGGGGGGGGGGGGGGGGGGGGGGGGGGGGGG",
"GGGGGGGGGGGGGGGAvvAvAvAvvAvvhAvAbvAhAA,GGGGGGGGGGGGGGGGGGGGGG AAAvvvvAvvhAbbAhAhAhAAGGGGGGGGGGGGGGGGGGGGGGGGGGGGGGGGGGGGGGGGGGGG",
"GGGGGGGGGGGGGGGAAhAhAhAvAhAhAhAhAvAvAuGGGGGGGGGGGGGGGGGGGGGGGXvhvvnvnnvvnnvnvnnvvvAbhGGGGGGGGGGGGGGGGGGGGGGGGGGGGGGGGGGGGGGGGGGG",
"GGGGGGGGGGGGGGGhAhhAhAAhvAhAhAhAAhhAhuGGGGGGGGGGGGGGGGGGGGGGGGAAvvnnvnvnnvnnnvvnAhhbuGGGGGGGGGGGGGGGGGGGGGGGGGGGGGGGGGGGGGGGGGGG",
"GGGGGGGGGGGGGGGAhhAAhAhvhvhAhAhvhvhhvhGGGGGGGGGGGGGGGGGGGGGGGGAhvnvvvnvvvvvvvnvvAhvvuGGGGGGGGGGGGGGGGGGGGGGGGGGGGGGGGGGGGGGGGGGG",
"GGGGGGGGGGGGGGGAvAhhvhAvAvvvAhhAhAvAhuGGGGGGGGGGGGGGGGGGGGGGGGAhvvvvnvvvvvvvvvvvvvvhuGGGGGGGGGGGGGGGGGGGGGGGGGGGGGGGGGGGGGGGGGGG",
"GGGGGGGGGGGGGGGhvvvvvvvvvvvvhAvvvvhAAhGGGGGGGGGGGGGGGGGGGGGGGGAhvvvavvavvvavvvvvvhvA9GGGGGGGGGGGGGGGGGGGGGGGGGGGGGGGGGGGGGGGGGGG",
"GGGGGGGGGGGGGGGAvvvvvvvvvhvvhhvvhvvhhhGGGGGGGGGGGGGGGGGGGGGGGhhhvvvavvvvvvvvavavvhhv9GGGGGGGGGGGGGGGGGGGGGGGGGGGGGGGGGGGGGGGGGGG",
"GGGGGGGGGGGGGGGOAhvvhvhhAhvhhAhhhAvvhvGGGGGGGGGGGGGGGGGGGGGGGhvvvvvvvvavavvaavvvhhhh9GGGGGGGGGGGGGGGGGGGGGGGGGGGGGGGGGGGGGGGGGGG",
"GGGGGGGGGGGGGGGo73vvvvhvhvhhhhvvhhvhvhvGGGGGGGGGGGGGGGGGGGGGGhhhvaavavvaavavvvavA975GGGGGGGGGGGGGGGGGGGGGGGGGGGGGGGGGGGGGGGGGGGG",
"GGGGGGGGGGGGGGGGG %#9AhhhvhhhvhhhhhhhhhiGGGGGGGGGGGGGGGGGGGGhhhhhhhhhhhhavvaavv#&XGGGGGGGGGGGGGGGGGGGGGGGGGGGGGGGGGGGGGGGGGGGGGG",
"GGGGGGGGGGGGGGGGG   . hhhhhhhhhhhhhhhhhhGGGGGGGGGGGGGGGGGGG9hhhhhhhhhhhhvaavv:.  GGGGGGGGGGGGGGGGGGGGGGGGGGGGGGGGGGGGGGGGGGGGGGG",
"GGGGGGGGGGGGGGGGGGGG  .hhhhhhhhhhhhhhhhhhGGGGGGGGGGGGGGGGGGhhhhihhhihihhaava7GGGGGGGGGGGGGGGGGGGGGGGGGGGGGGGGGGGGGGGGGGGGGGGGGGG",
"GGGGGGGGGGGGGGGGGGGGG .7hhhhhihhhhhhhihhhhGGGGGGGGGGGGGGG9hhihuhhihhhuihaaiaiGGGGGGGGGGGGGGGGGGGGGGGGGGGGGGGGGGGGGGGGGGGGGGGGGGG",
"GGGGGGGGGGGGGGGGGGGGGGG:hiihhuhiuihihihiihhiGGGGGGGGGGGGihhhuhhhuhiiihihihhiGGGGGGGGGGGGGGGGGGGGGGGGGGGGGGGGGGGGGGGGGGGGGGGGGGGG",
"GGGGGGGGGGGGGGGGGGGGGGG:hihhhuihuhihuhihiiuhhGGGGGGGGGuhiiiiiuiiiihiiiiiiiiiGGGGGGGGGGGGGGGGGGGGGGGGGGGGGGGGGGGGGGGGGGGGGGGGGGGG",
"GGGGGGGGGGGGGGGGGGGGGGGG9uhiiiiihiiiihuihiiiuiiiGGGuuuhiiiiiiiiiiiiiiiiiiiiGGGGGGGGGGGGGGGGGGGGGGGGGGGGGGGGGGGGGGGGGGGGGGGGGGGGG",
"GGGGGGGGGGGGGGGGGGGGGGGG@uuuiiiiuiiiiiiiuiiiiiiiiiiihuuuiiiiiiiiiiiiuiiiiivGGGGGGGGGGGGGGGGGGGGGGGGGGGGGGGGGGGGGGGGGGGGGGGGGGGGG",
"GGGGGGGGGGGGGGGGGGGGGGGGGuhuiuuuiiuuuiiiuuuhuhuuuuuuuuuiuuuuuuuuuuuuuuuuuu*GGGGGGGGGGGGGGGGGGGGGGGGGGGGGGGGGGGGGGGGGGGGGGGGGGGGG",
"GGGGGGGGGGGGGGGGGGGGGGGGGuuuuuuuuuuuuuuuuruuuuuuuuuuuuuuuuuuuuuuuuuuuuuuuu,GGGGGGGGGGGGGGGGGGGGGGGGGGGGGGGGGGGGGGGGGGGGGGGGGGGGG",
"GGGGGGGGGGGGGGGGGGGGGGGGGuuuuuuuuuuuuuu9uuuuu9utu9uuuuu9euuuu9euuuwuuu9uu9uGGGGGGGGGGGGGGGGGGGGGGGGGGGGGGGGGGGGGGGGGGGGGGGGGGGGG",
"GGGGGGGGGGGGGGGGGGGGGGGG3uwuwuu9utuu9uu9uu9uuu9utuueueu9uuu9uuu9uu9u9uuueuu9GGGGGGGGGGGGGGGGGGGGGGGGGGGGGGGGGGGGGGGGGGGGGGGGGGGG",
"GGGGGGGGGGGGGGGGGGGGGGGG7eueu9uutueueueu9u9uuu9uueu99u9u9utuuu9u9u9euue9euuuGGGGGGGGGGGGGGGGGGGGGGGGGGGGGGGGGGGGGGGGGGGGGGGGGGGG",
"GGGGGGGGGGGGGGGGGGGGGGG3uu9uruu9ueueueueuq9u9u9ueuuuuewuu9t9099u9euu99u9999uuGGGGGGGGGGGGGGGGGGGGGGGGGGGGGGGGGGGGGGGGGGGGGGGGGGG",
"GGGGGGGGGGGGGGGGGGGGGGG89uu9u9u99u99u9ut9u9tu9ur9999u99e9u9u9u9qu99r9u9u9999uGGGGGGGGGGGGGGGGGGGGGGGGGGGGGGGGGGGGGGGGGGGGGGGGGGG",
"GGGGGGGGGGGGGGGGGGGGGGGu9eee999u9t9999999u9999999u999u999999u99e999r99999t999GGGGGGGGGGGGGGGGGGGGGGGGGGGGGGGGGGGGGGGGGGGGGGGGGGG",
"GGGGGGGGGGGGGGGGGGGGGGG99099u9999t999u999999999999r99999999999999999999999996GGGGGGGGGGGGGGGGGGGGGGGGGGGGGGGGGGGGGGGGGGGGGGGGGGG",
"GGGGGGGGGGGGGGGGGGGGGGG@9999999999999999999999999999999999999999999999999999GGGGGGGGGGGGGGGGGGGGGGGGGGGGGGGGGGGGGGGGGGGGGGGGGGGG",
"GGGGGGGGGGGGGGGGGGGGGGGGo999999999u9u79998899989998899998998899e9999898899u#GGGGGGGGGGGGGGGGDDDDDDGGGGGGGGGGGGGGGGGGGGGGGGGGGGGG",
"GGGGGGGGGGGGGGGGGGGGGGGG  99798993  .u879798988997899797888788<    3889774GGGGGGGGGGGGGGGGGDDDDDDDGGGGGGGGGGGGGGGGGGGGGGGGGGGGGG",
"GGGGGGGGGGGGGGGGGGGGGGGGG o77974      #3397899798889797997735       31591oGGGGGGGGGGGGGGGGGDDDDDDDDGGGGGGGGGGGGGGGGGGGGGGGGGGGGG",
"GGGGGGGGGGGGGGGGGGGGGGGGGG +=*@ GGGGG    *797777777777779*#  GGGGGG   @-GGGGGGGGGGGGGGGGGGGDDDDDDDDGGGGGGGGGGGGGGGGGGGGGGGGGGGGG",
"GGGGGGGGGGGGGGGGGGGGGGGGGGGG  GGGGGGGGG   Xo977777777777%  GGGGGGGGGGGGGGGGGGGGGGGGGGGGGGGDDDDDDDDDGGGGGGGGGGGGGGGGGGGGGGGGGGGGG",
"GGGGGGGGGGGGGGGGGGGGGGGGGGGGGGGGGGGGGGGGG   777777777777#GGGGGGGGGGGGGGGGGGGGGGGGGGGGGGGGDDDDDDDDDDDDGGGGGGGDDGGGGGGGGGGGGGGGGGG",
"GGGGGGGGGGGGGGGGGGGGGGGGGGGGGGGGGGGGGGGGGGG +77777757571GGGGGGGGGGGGGGGGGGGGGGADDDDGGGDDDDDDSDDDDDDDDDDDGGADDDDAGGGGGGGGGGGGGGGG",
"GGGGGGGGGGGGGGGGGGGGGGGGGGGGGGGGGGGGGGGGGGGG@7575757676<GGGGGGGGGGGGGGGGGGGGGDDDDDDSDDDDDDDDDDDDSDDDDDDDDDDDDDDDDGGGGGGGGGGGGGGG",
"GGGGGGGGGGGGGGGGGGGGGGGGGGGGGGGGGGGGGGGGGGGG#77675576661GGGGGGGGGGGGGGGGGGGGADDDDDDDDDADDDADADDDSDDDADDADDDDSADDDDGGGGGGGGGGGGGG",
"GGGGGGGGGGGGGGGGGGGGGGGGGGGGGGGGGGGGGGGGGGGGG>767577676,GGGGGGGGGGGGGGGGGGGGDDADADADAADDADDDDADASSDADADADAADSDADDDGGGGGGGGGGGGGG",
"GGGGGGGGGGGGGGGGGGGGGGGGGGGGGGGGGGGGGGGGGGGGG#*777979:;GGGGGGGGGGGGGGGGGGGGGAADDDADADADADDADDDADSADADADDADADDADDDAGGGGGGGGGGGGGG",
"GGGGGGGGGGGGGGGGGGGGGGGGGGGGGGGGGGGGGGGGGGGGGG OooOoOGGGGGGGGGGGGGGGGGGGGGGG9DAAADADSDADAADAAAAASDDAADASDADAAAAAAGGGGGGGGGGGGGGG",
"GGGGGGGGGGGGGGGGGGGGGGGGGGGGGGGGGGGGGGGGGGGGGGG     GGGGGGGGGGGGGGGGGGGGGGGGGAAASASSDAADDADADAADDAAADASAADAAAAAA9GGGGGGGGGGGGGGG",
"GGGGGGGGGGGGGGGGGGGGGGGGGGGGGGGGGGGGGGGGGGGGGGGGGGGGGGGGGGGGGGGGGGGGGGGGGGGGG7DAASAAAAAAAAAAAADAAASAAAAAAAAAAAAAGGGGGGGGGGGGGGGG",
"GGGGGGGGGGGGGGGGGGGGGGGGGGGGGGGGGGGGGGGGGGGGGGGGGGGGGGGGGGGGGGGGGGGGGGGGGGGGG:AAAAAAAAAAAAAAAAAAAAAAAAAAAAAAAAAA7GGGGGGGGGGGGGGG",
"GGGGGGGGGGGGGGGGGGGGGGGGGGGGGGGGGGGGGGGGGGGGGGGGGGGGGGGGGGGGGGGGGGGGGGGGGGGGG9AAAAAAAAbAAAAAAhAhvAAAAAAAAAAAAvAAhGGGGGGGGGGGGGGG",
"GGGGGGGGGGGGGGGGGGGGGGGGGGGGGGGGGGGGGGGGGGGGGGGGGGGGGGGGGGGGGGGGGGGGGGGGGGGGGAAAAAAAAAAAAAAu3#+++:iAAAAAAAAAAvAvAGGGGGGGGGGGGGGG",
"GGGGGGGGGGGGGGGGGGGGGGGGGGGGGGGGGGGGGGGGGGGGGGGGGGGGGGGGGGGGGGGGGGGGGGGGGGGGhAhAbAAAAAvAAh,XGGGGG o,hAAvAhAAAAAAAAGGGGGGGGGGGGGG",
"GGGGGGGGGGGGGGGGGGGGGGGGGGGGGGGGGGGGGGGGGGGGGGGGGGGGGGGGGGGGGGGGGGGGGGGGGGGGAAAAAAAAbAAAb2GGGGGGGGG +3AAhAAAAhhAAAGGGGGGGGGGGGGG",
"GGGGGGGGGGGGGGGGGGGGGGGGGGGGGGGGGGGGGGGGGGGGGGGGGGGGGGGGGGGGGGGGGGGGGGGGGGGuhAAhAhAhAvAh1GGGGGGGGGGGG$vvAAAhAAAAhAAGGGGGGGGGGGGG",
"GGGGGGGGGGGGGGGGGGGGGGGGGGGGGGGGGGGGGGGGGGGGGGGGGGGGGGGGGGGGGGGGGGGGGGGGGGhhAAAAAAAAAbA5GGGGGGGGGGGGGG5AhAAhAhhAhAhAAhGGGGGGGGGG",
"GGGGGGGGGGGGGGGGGGGGGGGGGGGGGGGGGGGGGGGGGGGGGGGGGGGGGGGGGGGGGGGGGGGGGGGAAAAAAhhAvbhAhAhGGGGGGGGGGGGGGG&hAhAAhAAhAAhAhAAGGGGGGGGG",
"GGGGGGGGGGGGGGGGGGGGGGGGGGGGGGGGGGGGGGGGGGGGGGGGGGGGGGGGGGGGGGGGGGGGGGGvAhAvvAAhvAAhhAiGGGGGGGGGGGGGGGG7AvhAvAvAhAAhAhvGGGGGGGGG",
"GGGGGGGGGGGGGGGGGGGGGGGGGGGGGGGGGGGGGGGGGGGGGGGGGGGGGGGGGGGGGGGGGGGGGGGAhAhAAvhAvvhAAA7GGGGGGGGGGGGGGGG7hAAhhhAvhvvhhAvGGGGGGGGG",
"GGGGGGGGGGGGGGGGGGGGGGGGGGGGGGGGGGGGGGGGGGGGGGGGGGGGGGGGGGGGGGGGGGGGGG3hhAAhhhAhvvAhhh9GGGGGGGGGGGGGGGG7vvhAvvvvvvvvAhAGGGGGGGGG",
"GGGGGGGGGGGGGGGGGGGGGGGGGGGGGGGGGGGGGGGGGGGGGGGGGGGGGGGGGGGGGGGGGGGGGG3AvhvvvvvhvvvvvvuGGGGGGGGGGGGGGGG7vvvhvvvvvhvvhhhGGGGGGGGG",
"GGGGGGGGGGGGGGGGGGGGGGGGGGGGGGGGGGGGGGGGGGGGGGGGGGGGGGGGGGGGGGGGGGGGGG1hhhvvAhhAvAhvvhvGGGGGGGGGGGGGGGGuhvhvAhhhvvhvhvhGGGGGGGGG",
"GGGGGGGGGGGGGGGGGGGGGGGGGGGGGGGGGGGGGGGGGGGGGGGGGGGGGGGGGGGGGGGGGGGGGGG8hhhvhvhhhhhhhvhGGGGGGGGGGGGGGGGhhhvhhhvhvhvhhiuGGGGGGGGG",
"GGGGGGGGGGGGGGGGGGGGGGGGGGGGGGGGGGGGGGGGGGGGGGGGGGGGGGGGGGGGGGGGGGGGGGG+%3uhhhhhhhvhhhhuGGGGGGGGGGGGGG7hhhhhhhhhhhi93*GGGGGGGGGG",
"GGGGGGGGGGGGGGGGGGGGGGGGGGGGGGGGGGGGGGGGGGGGGGGGGGGGGGGGGGGGGGGGGGGGGGGGG o:uhhhhhhhhhhhGGGGGGGGGGGGG9hhihhhihhhhu:XGGGGGGGGGGGG",
"GGGGGGGGGGGGGGGGGGGGGGGGGGGGGGGGGGGGGGGGGGGGGGGGGGGGGGGGGGGGGGGGGGGGGGGGGGGo4hhhhihhihhuhGGGGGGGGGGGuuhhhhhihhihh9GGGGGGGGGGGGGG",
"GGGGGGGGGGGGGGGGGGGGGGGGGGGGGGGGGGGGGGGGGGGGGGGGGGGGGGGGGGGGGGGGGGGGGGGGGGGG:ihuhhhhuhihhiiGGGGGGGGuhuuhuuiuiiuiu3GGGGGGGGGGGGGG",
"GGGGGGGGGGGGGGGGGGGGGGGGGGGGGGGGGGGGGGGGGGGGGGGGGGGGGGGGGGGGGGGGGGGGGGGGGGGG@uuuuiiiiiiiiiiuiGGGGuuuhuhuiiiiiiuuqGGGGGGGGGGGGGGG",
"GGGGGGGGGGGGGGGGGGGGGGGGGGGGGGGGGGGGGGGGGGGGGGGGGGGGGGGGGGGGGGGGGGGGGGGGGGGGG1uhuiiiiiiiiuiuiuuhhuuhuuuuiiiiuuhu7GGGGGGGGGGGGGGG",
"GGGGGGGGGGGGGGGGGGGGGGGGGGGGGGGGGGGGGGGGGGGGGGGGGGGGGGGGGGGGGGGGGGGGGGGGGGGGG%uuuuuuiuuuuuuuuuuuuuuuueuuuuuuququ,GGGGGGGGGGGGGGG",
"GGGGGGGGGGGGGGGGGGGGGGGGGGGGGGGGGGGGGGGGGGGGGGGGGGGGGGGGGGGGGGGGGGGGGGGGGGGGG*uuuuruuueuu9uuuuu99uuu9uruwuu9uuut4GGGGGGGGGGGGGGG",
"GGGGGGGGGGGGGGGGGGGGGGGGGGGGGGGGGGGGGGGGGGGGGGGGGGGGGGGGGGGGGGGGGGGGGGGGGGGGG3ueu9u9u9ueuu9u9uuuuur9uuuuuu9u9uuuuGGGGGGGGGGGGGGG",
"GGGGGGGGGGGGGGGGGGGGGGGGGGGGGGGGGGGGGGGGGGGGGGGGGGGGGGGGGGGGGGGGGGGGGGGGGGGGG9eueuu9uueu9uer9u09u99uu9999u9uu99999GGGGGGGGGGGGGG",
"GGGGGGGGGGGGGGGGGGGGGGGGGGGGGGGGGGGGGGGGGGGGGGGGGGGGGGGGGGGGGGGGGGGGGGGGGGGG59u9u9u9999u9u99u99u9u9eeeeru9999u9999GGGGGGGGGGGGGG",
"GGGGGGGGGGGGGGGGGGGGGGGGGGGGGGGGGGGGGGGGGGGGGGGGGGGGGGGGGGGGGGGGGGGGGGGGGGGG7u999999999999999999999e99999999999997GGGGGGGGGGGGGG",
"GGGGGGGGGGGGGGGGGGGGGGGGGGGGGGGGGGGGGGGGGGGGGGGGGGGGGGGGGGGGGGGGGGGGGGGGGGGG;7999999997999999999999898889799799991GGGGGGGGGGGGGG",
"GGGGGGGGGGGGGGGGGGGGGGGGGGGGGGGGGGGGGGGGGGGGGGGGGGGGGGGGGGGGGGGGGGGGGGGGGGGGG-9789871398888897979788888911177977:GGGGGGGGGGGGGGG",
"GGGGGGGGGGGGGGGGGGGGGGGGGGGGGGGGGGGGGGGGGGGGGGGGGGGGGGGGGGGGGGGGGGGGGGGGGGGGGG-695:@  #,58797779977973,$   -165-GGGGGGGGGGGGGGGG",
"GGGGGGGGGGGGGGGGGGGGGGGGGGGGGGGGGGGGGGGGGGGGGGGGGGGGGGGGGGGGGGGGGGGGGGGGGGGGGGG@&@.GGG .o:3777777775:X.GGGG .@@GGGGGGGGGGGGGGGGG",
"GGGGGGGGGGGGGGGGGGGGGGGGGGGGGGGGGGGGGGGGGGGGGGGGGGGGGGGGGGGGGGGGGGGGGGGGGGGGGGGGGGGGGGGGG @37777777:GGGGGGGGGGGGGGGGGGGGGGGGGGGG",
"GGGGGGGGGGGGGGGGGGGGGGGGGGGGGGGGGGGGGGGGGGGGGGGGGGGGGGGGGGGGGGGGGGGGGGGGGGGGGGGGGGGGGGGGGG ,7757675%GGGGGGGGGGGGGGGGGGGGGGGGGGGG",
"GGGGGGGGGGGGGGGGGGGGGGGGGGGGGGGGGGGGGGGGGGGGGGGGGGGGGGGGGGGGGGGGGGGGGGGGGGGGGGGGGGGGGGGGGGG>6667665GGGGGGGGGGGGGGGGGGGGGGGGGGGGG",
"GGGGGGGGGGGGGGGGGGGGGGGGGGGGGGGGGGGGGGGGGGGGGGGGGGGGGGGGGGGGGGGGGGGGGGGGGGGGGGGGGGGGGGGGGGG#5667663GGGGGGGGGGGGGGGGGGGGGGGGGGGGG",
"GGGGGGGGGGGGGGGGGGGGGGGGGGGGGGGGGGGGGGGGGGGGGGGGGGGGGGGGGGGGGGGGGGGGGGGGGGGGGGGGGGGGGGGGGGGG%,113:GGGGGGGGGGGGGGGGGGGGGGGGGGGGGG",
"GGGGGGGGGGGGGGGGGGGGGGGGGGGGGGGGGGGGGGGGGGGGGGGGGGGGGGGGGGGGGGGGGGGGGGGGGGGGGGGGGGGGGGGGGGGGG....GGGGGGGGGGGGGGGGGGGGGGGGGGGGGGG",
"GGGGGGGGGGGGGGGGGGGGGGGGGGGGGGGGGGGGGGGGGGGGGGGGGGGGGGGGGGGGGGGGGGGGGGGGGGGGGGGGGGGGGGGGGGGGGGGGGGGGGGGGGGGGGGGGGGGGGGGGGGGGGGGG",
"GGGGGGGGGGGGGGGGGGGGGGGGGGGGGGGGGGGGGGGGGGGGGGGGGGGGGGGGGGGGGGGGGGGGGGGGGGGGGGGGGGGGGGGGGGGGGGGGGGGGGGGGGGGGGGGGGGGGGGGGGGGGGGGG",
"GGGGGGGGGGGGGGGGGGGGGGGGGGGGGGGGGGGGGGGGGGGGGGGGGGGGGGGGGGGGGGGGGGGGGGGGGGGGGGGGGGGGGGGGGGGGGGGGGGGGGGGGGGGGGGGGGGGGGGGGGGGGGGGG",
"GGGGGGGGGGGGGGGGGGGGGGGGGGGGGGGGGGGGGGGGGGGGGGGGGGGGGGGGGGGGGGGGGGGGGGGGGGGGGGGGGGGGGGGGGGGGGGGGGGGGGGGGGGGGGGGGGGGGGGGGGGGGGGGG"
};
