/* XPM */
static char *picasa[] = {
/* columns rows colors chars-per-pixel */
"128 128 53 1",
"  c #030703070307",
". c #270B270B270B",
"X c #389138913B71",
"o c #51CF51CF51CF",
"O c #573557355C86",
"+ c #66E166E166E1",
"@ c #70DB6BEB6BEB",
"# c #781378137A6E",
"$ c #839583957F0F",
"% c #8A2A8A2A8A2A",
"& c #989298929892",
"* c #AAD6AAD6AAD6",
"= c #B165AFCBB165",
"- c #B60BB60BB60B",
"; c #C2A7C2A7C2A7",
": c #CD66CD66CD66",
"> c #D1A0CF8DCF8D",
", c #CF8DD099CF8D",
"< c #D2A2D2A2D2A2",
"1 c #D849D849D763",
"2 c #DBB2DBB2DBB2",
"3 c #DED9DED9DE15",
"4 c #DF98DE15DF98",
"5 c #E10CE054E054",
"6 c #E6E1E6E1E6E1",
"7 c #E924E809E809",
"8 c #EAB6EAB6EAB6",
"9 c #ED1EEC30EC30",
"0 c #ECA8ED1EED1E",
"q c #EEDDEEDDEEDD",
"w c #F076EFAEEFAE",
"e c #F076F076F013",
"r c #F013F013F0D7",
"t c #F076F013F076",
"y c #F193F193F193",
"u c #F2F2F2F2F345",
"i c #F47FF47FF47F",
"p c #F59EF558F59E",
"a c #F6A4F6A4F6A4",
"s c #F794F75AF75A",
"d c #F75AF794F75A",
"f c #F75AF75AF794",
"g c #F86FF86FF86F",
"h c #F91EF920F918",
"j c #F9EEF9EEF9EE",
"k c #FA6CFA94FA6C",
"l c #FA94FA94FA6C",
"z c #FA6CFA6CFA94",
"x c #FB2CFB2CFB2C",
"c c #FC0DFC0EFC0D",
"v c #FCE5FCE3FCE6",
"b c #FDFEFDFEFDFE",
"n c None",
/* pixels */
"nnnnnnnnnnnnnnnnnnnnnnnnnnnnnnnnnnnnnnnnnnnnnnnnnnnnnnnnnnnnnnnnnnnnnnnnnnnnnnnnnnnnnnnnnnnnnnnnnnnnnnnnnnnnnnnnnnnnnnnnnnnnnnnn",
"nnnnnnnnnnnnnnnnnnnnnnnnnnnnnnnnnnnnnnnnnnnnnnnnnnnnnnnnnnnnnnnnnnnnnnnnnnnnnnnnnnnnnnnnnnnnnnnnnnnnnnnnnnnnnnnnnnnnnnnnnnnnnnnn",
"nnnnnnnnnnnnnnnnnnnnnnnnnnnnnnnnnnnnnnnnnnnnnnnnnnnnnnnnnnnnnnnnnnnnnnnnnnnnnnnnnnnnnnnnnnnnnnnnnnnnnnnnnnnnnnnnnnnnnnnnnnnnnnnn",
"nnnnnnnnnnnnnnnnnnnnnnnnnnnnnnnnnnnnnnnnnnnnnnnnnnnnnnnnnnnnnnnnnnnnnnnnnnnnnnnnnnnnnnnnnnnnnnnnnnnnnnnnnnnnnnnnnnnnnnnnnnnnnnnn",
"nnnnnnnnnnnnnnnnnnnnnnnnnnnnnnnnnnnnnnnnnnnnnnnnnnnnnnnnnnnnnnnnnnnnnnnnnnnnnnnnnnnnnnnnnnnnnnnnnnnnnnnnnnnnnnnnnnnnnnnnnnnnnnnn",
"nnnnnnnnnnnnnnnnnnnnnnnnnnnnnnnnnnnnnnnnnnnnnnnnnnnnnnnnnnnnnnnnnnnnnnnnnnnnnnnnnnnnnnnnnnnnnnnnnnnnnnnnnnnnnnnnnnnnnnnnnnnnnnnn",
"nnnnnnnnnnnnnnnnnnnnnnnnnnnnnnnnnnnnnnnnnnnnnnnnnnnnnnnnnnnnnnnnnnnnnnnnnnnnnnnnnnnnnnnnnnnnnnnnnnnnnnnnnnnnnnnnnnnnnnnnnnnnnnnn",
"nnnnnnnnnnnnnnnnnnnnnnnnnnnnnnnnnnnnnnnnnnnnnnnnnnnnnnnnbbbbbbbbbbbbbbbnnnnnnnnnnnnnnnnnnnnnnnnnnnnnnnnnnnnnnnnnnnnnnnnnnnnnnnnn",
"nnnnnnnnnnnnnnnnnnnnnnnnnnnnnnnnnnnnnnnnnnnnnnnnnnbbbbbbbbbbbbbbbbbbbbbbbbbbbnnnnnnnnnnnnnnnnnnnnnnnnnnnnnnnnnnnnnnnnnnnnnnnnnnn",
"nnnnnnnnnnnnnnnnnnnnnnnnnnnnnnnnnnnnnnnnnnnnnnbbbbbbbbbbbbbbbbbbbbbbbbbbbbbbbbbbbnnnnnnnnnnnnnnnnnnnnnnnnnnnnnnnnnnnnnnnnnnnnnnn",
"nnnnnnnnnnnnnnnnnnnnnnnnnnnnnnnnnnnnnnnnnnnnbbbbbbbbbbbbbbbbbbbbbbbbbbbbbbbbbbbbbbbbnnnnnnnnnnnnnnnnnnnnnnnnnnnnnnnnnnnnnnnnnnnn",
"nnnnnnnnnnnnnnnnnnnnnnnnnnnnnnnnnnnnnnnnnnnnbbbbbbbbbbbbbbbbbbbbbbbbbbbbbbbbbbbbbbbbbbnnnnnnnnnnnnnnnnnnnnnnnnnnnnnnnnnnnnnnnnnn",
"nnnnnnnnnnnnnnnnnnnnnnnnnnnnnnnnnnnnnnnnnnnnncbbbbbbbbbbbbbbbbbbbbbbbbbbbbbbbbbbbbbbbbnnnnnnnnnnnnnnnnnnnnnnnnnnnnnnnnnnnnnnnnnn",
"nnnnnnnnnnnnnnnnnnnnnnnnnnnnnnnnnnnnnnnnnnnnnn6cbbbbbbbbbbbbbbbbbbbbbbbbbbbbbbbbbbbbbbnnnnnnnnnnnnnnnnnnnnnnnnnnnnnnnnnnnnnnnnnn",
"nnnnnnnnnnnnnnnnnnnnnnnnnnnnnnnnnnnbbbnnnnnnnnn2bbbbbbbbbbbbbbbbbbbbbbbbbbbbbbbbbbbbbbnnnnnnnnnnnnnnnnnnnnnnnnnnnnnnnnnnnnnnnnnn",
"nnnnnnnnnnnnnnnnnnnnnnnnnnnnnnnnnnbbbbbbnnnnnnnn3cbbbbbbbbbbbbbbbbbbbbbbbbbbbbbbbbbbbbnnnnnnnbnnnnnnnnnnnnnnnnnnnnnnnnnnnnnnnnnn",
"nnnnnnnnnnnnnnnnnnnnnnnnnnnnnnnnbbbbbbbbbnnnnnnn :ccbbbbbbbbbbbbbbbbbbbbbbvbbbbbbbvbbbnnnnnnnbbnnnnnnnnnnnnnnnnnnnnnnnnnnnnnnnnn",
"nnnnnnnnnnnnnnnnnnnnnnnnnnnnnnnbbbbvbbbvbvnnnnnnn <cbbbbbbbbbbbbbbbbbbbbbbbbbbvbbbbbbvnnnnnnnbbbbnnnnnnnnnnnnnnnnnnnnnnnnnnnnnnn",
"nnnnnnnnnnnnnnnnnnnnnnnnnnnnnbbbbbbbbbbbbbbnnnnnn  ;abbbbbbbbbbbbbbbbbbbbbvbbbbbbbbbbcnnnnnnnbcbbbnnnnnnnnnnnnnnnnnnnnnnnnnnnnnn",
"nnnnnnnnnnnnnnnnnnnnnnnnnnnncbbbbbvbbbbbbbbcnnnnnn  oybbbbbvbbvbbbbbbbbbbbbbbbbbbbbbbbnnnnnncbbbbbbnnnnnnnnnnnnnnnnnnnnnnnnnnnnn",
"nnnnnnnnnnnnnnnnnnnnnnnnnnncbbbbbvbvbbbvbbcbcnnnnnnn oybvbvbvbbbbvbvbbbbvbbbvbvbbvbvbcnnnnnnabvbbbcbbnnnnnnnnnnnnnnnnnnnnnnnnnnn",
"nnnnnnnnnnnnnnnnnnnnnnnnnnbbbbcbbvbbbvbbbbbbbbnnnnnnn oybbbbbbbvbbbbbbbbbbbvbbbbbbbbbcnnnnnnybbbbbbbbcnnnnnnnnnnnnnnnnnnnnnnnnnn",
"nnnnnnnnnnnnnnnnnnnnnnnnnbbbbbbbbbvvvbvbbbbbbbcnnnnnnn oybvbbvbbvbbbvvbbbvvbbvvbbcvbbcnnnnnnybbbbbbbcbbnnnnnnnnnnnnnnnnnnnnnnnnn",
"nnnnnnnnnnnnnnnnnnnnnnnncbbbcbcbvbbbbvbbbcvbbvbcnnnnnnn oyvvbbcbcbvbbbbbbvbbbvvbbbbbbbnnnnnnqcbccbbcbbbbnnnnnnnnnnnnnnnnnnnnnnnn",
"nnnnnnnnnnnnnnnnnnnnnnncbbbbbcbvbcbvbvbvcbcbcbcbbnnnnnnn X5cbbbvbvbcbvbcbbvbbvbbccbbbcnnnnnnqbbbcbbvbbcbcnnnnnnnnnnnnnnnnnnnnnnn",
"nnnnnnnnnnnnnnnnnnnnnncbcbcbcbcbbvvbbvvbbbbbbbbcbbnnnnnnn  >ccvbvbvbvbvbbvvvvbvvbbbcbcnnnnnn0bcbbbbccbvbvbnnnnnnnnnnnnnnnnnnnnnn",
"nnnnnnnnnnnnnnnnnnnnnbbcbbcbbcbbbvbvvbvvvbbcvvbbcbccnnnnnn  :cbvvbbvbvbvbvvbbvvbvbcbbcnnnnnnqvbvcbcbcbvvbcnnnnnnnnnnnnnnnnnnnnnn",
"nnnnnnnnnnnnnnnnnnnnccbvcbcbbbbcbvcbvvvbbcbcbvcbcbbccnnnnnn  :ccvvvvcbcbvvvvvvvvvcbvbcnnnnnn0bcbvbvbbvbvbcbnnnnnnnnnnnnnnnnnnnnn",
"nnnnnnnnnnnnnnnnnnncvbcbcbcbccbccbvvvvvbcvbvcvbbcbcbbcnnnnnn  :cbvvvvbbvvvbvvbbvvbcvbcnnnnnnqcbcvbvvvbcvvbcbnnnnnnnnnnnnnnnnnnnn",
"nnnnnnnnnnnnnnnnnnncvvbcbcbccbcbbvvvvvvvbcvvbvcvvbcbcbcnnnnnn  :gvvvvvvvvvvvvvvvbcbvccnnnnnn0vvvvvvvvvvvvcbcbnnnnnnnnnnnnnnnnnnn",
"nnnnnnnnnnnnnnnnnncbvvvvcbcbcbbcvvvvvvvvvvvvbcbcbcbcbcccnnnnnn  &qvbvvbvvvvvvvvvcvvvbcnnnnnn0cbbvvbvvvvbvbcbbnnnnnnnnnnnnnnnnnnn",
"nnnnnnnnnnnnnnnnncvccbvcbcbcvvcbvvvvcbvvvvvvvvcbcvcvcbvccnnnnnn  +ycvcvcvvvvvvvvbcbcccnnnnnn0vcccvcvvvcvcbvcbbnnnnnnnnnnnnnnnnnn",
"nnnnnnnnnnnnnnnnnvccbccbcvbcvbcvcbccvvvccbcvvbcccbccbccbccnnnnnnn +ycbbccbbcbccccbccccnnnnnn0vvcbcbcccbcvcbvbccnnnnnnnnnnnnnnnnn",
"nnnnnnnnnnnnnnnnccbcvcvvcvvcvccvvvvvcvcbccvvvcvvvccbcccbcvcnnnnnnn +yccvcccvccbbccbbccnnnnnn9vvvvccvbcbccbccccbnnnnnnnnnnnnnnnnn",
"nnnnnnnnnnnnnnncbccbvcccbccvvcvccvcvcvcvvvvvcvcvbccbbcbcccnnnnnnnnn Oqccvvvccvvccvccvcnnnnnn9ccccccccbccvcvcbvvcnnnnnnnnnnnnnnnn",
"nnnnnnnnnnnnnnnccccccbvcccbcvcvcvccvcbcvvccccvcvccccccccannnnnnnnnnn O9cvcvcvcvcvcccccnnnnnn8cbcbcbccccvcvcvcccccnnnnnnnnnnnnnnn",
"nnnnnnnnnnnnnnccvvcvcccccccvccbccccvcvcccccvccvccccccccynnnnnnnnnnnnn .:ccccccbccbccccnnnnnn8ccccccbcccccvcccccccnnnnnnnnnnnnnnn",
"nnnnnnnnnnnnnnccccccccccccvcccccbcvcccvccvcccvvccccccc2nnnnnnnnnnnnnnn  :cccccccccccccnnnnnn8ccccccccbcccccvccccccnnnnnnnnnnnnnn",
"nnnnnnnnnnnnnaccccccccccccvcvccccccccvccvcccccccccccc1nnnnnnnnnnnnnnnnn  :ccccccccccccnnnnnn8ccccvccccccccccccccccnnnnnnnnnnnnnn",
"nnnnnnnnnnnnncccvcccccccccccccvcccccccccccccvccvcccc<nnnnnnnnnnnnnnnnnnn  :gcccccvccccnnnnnn8ccccccvcccvcccccccccccnnnnnnnnnnnnn",
"nnnnnnnnnnnnaccccccccccccccccccccccccccccccccccccbg1nnnnnnnnnnnnnnnnnnnnn  :ccccccccccnnnnnn8ccccccccccccccccccccccnnnnnnnnnnnnn",
"nnnnnnnnnnnnccccccgccccccccccccccccccccccccccccccy-nnnnnnnnnnnnnnnnnnnnnnn  ;ycccccccannnnnn6cccccccccgcccccccccccccnnnnnnnnnnnn",
"nnnnnnnnnnnycccccccccccccccggccccccgccccccccccgcr@nnnnnnnnnnnnnnnnnnnnnnnnn  @qcccccccnnnnnn8cccccccccccccccccgcccccnnnnnnnnnnnn",
"nnnnnnnnnnncccccccccccgcccccccccccccccaccccccccq@nnnnnnnnnnnnnnnnnnnnnnnnnnn  @qccccccnnnnnn6ccccccccccgccgcccccccccnnnnnnnnnnnn",
"nnnnnnnnnnnccacccccgccccgcccccacgccccccccacccct@nnnnnnnnnnnnnnnnnnnnnnnnnnnnnn @9cccccnnnnnn6ccccgcccgcccccccgcccccccnnnnnnnnnnn",
"nnnnnnnnnnacccccgcccgccgcccgccccccacccccccccaq@nnnnnnnnnnnnnnnnnnnnnnnnnnnnnnnn @qcccannnnnn6ccgccccccccgccgccccaccccnnnnnnnnnnn",
"nnnnnnnnnnacccccccccccccccccgcgcaccccacccccc<Xnnnnnnnnnnnnnnnnnnnnnnnnnnnnnnnnnn @qcccnnnnnn6ccccccccccccgcccccccccccnnnnnnnnnnn",
"nnnnnnnnnnacccacccgcgcccgcgccccccccccccacca1nnnnnnnnnnnnnnnnnnnnnnnnnnnnnnnnnnnnnn+6acnnnnnn6ccgcgcggcgccccccgcgcccaccnnnnnnnnnn",
"nnnnnnnnnqccacccccccccccgcccccccccccaccccc<nnnnnnnnnnnnnnnnnnnnnnnnnnnnnnnnnnnnnnnnn6annnnnn6accccccccccccacccccccccccnnnnnnnnnn",
"nnnnnnnnnaccccacgcgcacacccaccggccccccccaa1nnnnnnnnnnnnnnnnnnnnnnnnnnnnnnnnnnnnnnnnnnnnnnnnnn6cccgcacgcggaccccacaacaccannnnnnnnnn",
"nnnnnnnnnaacgccccccccccccgcgccccaacacacy;nnnnnnnnnnnnnnnnnnnnnnnnnnnnnnnnnnnnnnnnnnnnnnnnnnn6cccccaccccccccccacccaccccnnnnnnnnnn",
"nnnnnnnnnccccagccaacaccaccgcacacccccccq#nnnnnnnnnnnnnnnnnnnnnnnnnnnnnnnnnnnnnnnnnnnnnnnnnnnn6caccgcccaaccaaccccccccaccannnnnnnnn",
"nnnnnnnnncagaccccccaccgccaccacccccgcgq#nnnnnnnnnnnnnnnnnnnnnnnnnnnnnnnnnnnnnnnnnnnnnnnnnnnnn6ccggcccgccccccaccaccacaccannnnnnnnn",
"nnnnnnnnqcccccacaaccaccacgacccagagccq#nnnnnnnnnnnnnnnnnnnnnnnnnnnnnnnnnnnnnnnnnnnnnnnnnnnnnn6ccacacaccacacccgccaccaccgcnnnnnnnnn",
"nnnnnnnnyccggccaccgcaccgccccgcgcccc8#nnnnnnnnnnnnnnnnnnnnnnnnnnnnnnnnnnnnnnnnnnnnnnnnnnnnnnn6accgcaccagccaacaccaaaccccannnnnnnnn",
"nnnnnnnnycacacgccacgccacacagcgcaca2onnnnnnnnnnnnnnnnnnnnnnnnnnnnnnnnnnnnnnnnnnnnnnnnnnnnnnnn6cacccaccacacccaccaccccaacgnnnnnnnnn",
"nnnnnnnnaaccacaagcgccacaccgcccaca1nnnnnnnnnnnnnnnnnnnnnnnnnnnnnnnnnnnnnnnnnnnnnnnnnnnnnnnnnn3cacacacaacgccaccaacacgccacnnnnnnnnn",
"nnnnnnnncccacccccacggcgccacaacca<nnnnnnnnnnnnnnnnnnnnnnnnnnnnnnnnnnnnnnnnnnnnnnnnnnnnnnnnnnn6gcccgccccacaccaaccacacgccgannnnnnnn",
"nnnnnnnnacacagaccaaccaggccaccaa1nnnnnnnnnnnnnnnnnnnnnnnnnnnnnnnnnnnnnnnnnnnnnnnnnnnnnnnnnnnn5cgaacgaggcacgaacaccgcacaccynnnnnnnn",
"nnnnnnnnacgaccacacgggcgcaacacy:nnnnnnnnnnnnnnnnnnnnnnnnnnnnnnnnnnnnnnnnnnnnnnnnnnnnnnnnnnnnn5gcgcagcccacaccccaaccacacacynnnnnnnn",
"nnnnnnnnaagacgaggcacaccaacagq%nnnnnnnnnnnnnnnnnnnnnnnnnnnnnnnnnnnnnnnnnnnnnnnnnnnnnnnnnnnnnn5cggacacacagcgcccacaacacaccynnnnnnnn",
"nnnnnnnnaccacacacacacaaccac0$nnnnnnnnnnnnnnnnnnnnnnnnnnnnnnnnnnnnnnnnnnnnnnnnnnnnnnnnnnnnnnn3cacgacacacaacaaacacacaaacaynnnnnnnn",
"nnnnnnnnagccacacaaccaacgag0$nnnnnnnnnnnnnnnnnnnnnnnnnnnnnnnnnnnnnnnnnnnnnnnnnnnnnnnnnnnnnnnn6gcgacgcacgaaacaaccaacacaccynnnnnnnn",
"nnnnnnnnagaacaagacaaacagaq%nnnnnnnnnnnnnnnnnnnnnnnnnnnnnnnnnnnnnnnnnnnnnnnnnnnnnnnnnnnnnnnnn5aaacaacagaccaacaaacaacaacaynnnnnnnn",
"nnnnnnnnaagacaggaaacacaa3@nnnnnnnngnnnnnnnnnnnnnnnnnnnnnnnnnnnnnnnnnnnnnnnnnnnnnnnnnnnnnnnnn5accaggggggcgggggcggggggggaynnnnnnnn",
"nnnnnnnnacacaacgccaacag<nnnnnnnnnagnnnnnnnnnnnnnnnnnnnnnnnnnnnnnnnnnnnnnnnnnnnnnnnnnnnnnnnnn5aaaggggggaagggggagggggggggynnnnnnnn",
"nnnnnnnnacgaacagaacaaa<nnnnnnnnngggnnnnnnnnnnnnnnnnnnnnnnnnnnnnnnnnnnnnnnnnnnnnnnnnnnnnnnnnn3aggggggcacacagaggggggggaggynnnnnnnn",
"nnnnnnnnaaggaacaacaaa<nnnnnnnnigaggnnnnnnnnnnnnnnnnnnnnnnnnnnnnnnnnnnnnnnnnnnnnnnnnnnnnnnnnn6agagggaaacaagaaggagggggcagwnnnnnnnn",
"nnnnnnnnyaacacaaacay,nnnnnnnnigggcannnnnnnnnnnnnnnnnnnnnnnnnnnnnnnnnnnnnnnnnnnnnnnnnnnnnnnnn5gcaaaacaaacagacgigaaggggagqnnnnnnnn",
"nnnnnnnnycaaagaaaa8%nnnnnnnnyagagaannnnnnnnnnnnnnnnnnnnnnnnnnnnnnnnnnnnnnnnnnnnnnnnnnnnnnnnn5aaggaaaagaaaggaggagagaggggnnnnnnnnn",
"nnnnnnnn8aaagaaga9%nnnnnnnnyagagaaannnnnnnnnnnnnnnnnnnnnnnnnnnnnnnnnnnnnnnnnnnnnnnnnnnnnnnnn3gaacagaagaagaaagigaaagaaginnnnnnnnn",
"nnnnnnnn6agaaaga8%nnnnnnnnaggaaagaannnnnnnnnnnnnnnnnnnnnnnnnnnnnnnnnnnnnnnnnnnnnnnnnnnnnnnnn3agaaaaaaagaaaggggffgaaaaaannnnnnnnn",
"nnnnnnnn6iaaaaa8$nnnnnnnngggigagaaannnnnnnnnnnnnnnnnnnnnnnnnnnnnnnnnnnnnnnnnnnnnnnnnnnnnnnnn3aaaaaaaggigggaiafaaaaaaaainnnnnnnnn",
"nnnnnnnn*yaaay5#nnnnnnnnifigaaaaaaannnnnnnnnnnnnnnnnnnnnnnnnnnnnnnnnnnnnnnnnnnnnnnnnnnnnnnnn2aaaaaaaiggiigigaaaaaaaaaaqnnnnnnnnn",
"nnnnnnnn%aaaa<nnnnnnnnnafifgaaaaaaannnnnnnnnnnnnnnnnnnnnnnnnnnnnnnnnnnnnnnnnnnnnnnnnnnnnnnnn2aaaaaaagiggaagaaaaaaaaaaaqnnnnnnnnn",
"nnnnnnnnn9aa<nnnnnnnnnyagiiiaaaaaaynnnnnnnnnnnnnnnnnnnnnnnnnnnnnnnnnnnnnnnnnnnnnnnnnnnnnnnnn2aaaaaaaigiiaaaaaaaaaaaaaannnnnnnnnn",
"nnnnnnnnn6y<nnnnnnnnyiaafiffffifaaannnnnnnnnnnnnnnnnnnnnnnnnnnnnnnnnnnnnnnnnnnnnnnnnnnnnnnnn2aiaaaiaaigiaifigiifaaaaaynnnnnnnnnn",
"nnnnnnnnn;:nnnnnnnnyaaiaigifiigpaaynnnnnnnnnnnnnnnnnnnnnnnnnnnnnnnnnnnnnnnnnnnnnnnnnnnnnnnnn2aaaaaaaiaiaiififiaaaaiiaqnnnnnnnnnn",
"nnnnnnnnnnnnnnnnnnqaaaaiiiiiiippaaynnnnnnnnnnnnnnnnnnnnnnnnnnnnnnnnnnnnnnnnnnnnnnnnnnnnnnnnn1iaiaaiiagiggifiififiaaia6nnnnnnnnnn",
"nnnnnnnnnnnnnnnnnqiiaayaiiffifppaiynnnnnnnnnnnnnnnnnnnnnnnnnnnnnnnnnnnnnnnnnnnnnnnnnnnnnnnnn2aiiiiaiiiiiiiififiiaiiaynnnnnnnnnnn",
"nnnnnnnnnnnnnnnnriiiaiiiiiiiiiipiiynnnnnnnnnnnnnnnnnnnnnnnnnnnnnnnnnnnnnnnnnnnnnnnnnnnnnnnnn3aaaaiaiiiaaaiiaiiiyiiiiynnnnnnnnnnn",
"nnnnnnnnnnnnnnnyiiiiiiiaiaiiiiiiiiynnnnnnnnnnnnnnnnnnnnnnnnnnnnnnnnnnnnnnnnnnnnnnnnnnnnnnnnn-355333533353335533635571nnnnnnnnnnn",
"nnnnnnnnnnnnnniiiiiiiiiiiiiiiiiiiiinnnnnnnnnnnnnnnnnnnnnnnnnnnnnnnnnnnnnnnnnnnnnnnnnnnnnnnnnnn                    nnnnnnnnnnnnnn",
"nnnnnnnnnnnnniiiiiiiiiiiiiiiiiiiiaynnnnnnnnnnnnnnnnnnnnnnnnnnnnnnnnnnnnnnnnnnnnnnnnnnnnnnnnnnnn                  nnnnnnnnnnnnnnn",
"nnnnnnnnnnnnqiiiiiyiiiiiiiiiiiiiiiynnnnnnnnnnnnnnnnnnnnnnnnnnnnnnnnnnnnnnnnnnnnnnnnnnnnnnnnnnnnnnnnnnnnnnnnnnnnnnnnnnnnnnnnnnnnn",
"nnnnnnnnnnnn8yayiiiiiiiiiiiitiiiayynnnnnnnnnnnnnnnnnnnnnnnnnnnnnnnnnnnnnnnnnnnnnnnnnnnnnnnnnnnnnnnnnnnnnnnnnnnnnnnnnnnnnnnnnnnnn",
"nnnnnnnnnnnnnqyaiiiiririiiiiiiiiyyynnnnnnnnnnnnnnnnnnnnnnnnnnnnnnnnnnnnnnnnnnnnnnnnnnnnnnnnnnnnnnnnnnnnnnnnnnnnnnnnnnnnnnnnnnnnn",
"nnnnnnnnnnnnn2iyyiyririiititirtiyiynnnnnnnnnnnnnnnnnnnnnnnnnnnnnnnnnnnnnnnnnnnnnnnnnnnnnnnnnnnnnnnnnnnnnnnnnnnnnnnnnnnnnnnnnnnnn",
"nnnnnnnnnnnnn#9yyyyiyiiyiyiyiiyyiyynnnnnnnyiyyyyiyyyyyryyyiyyyyyyyyyyyyyyyyyyyyyyyyyyyyyyyyyreeyyqrqwyqyyqyyqeqeynnnnnnnnnnnnnnn",
"nnnnnnnnnnnnnn<yayiyyyyiiriiyyyayyennnnnnyyyyiyiyririyriyyiyyyayyyyiiyyyyiiyyyyyiyiiyyiyyiiyiiyyyyyiyyyyiyyyyyiyynnnnnnnnnnnnnnn",
"nnnnnnnnnnnnnn+8yyyyiyyiryiyyyyyyyennnnnnyyiriyiyiyyyiyiiyyiyyyyyyyiayyyyiyyayyyyyyyyayyyiyyyyyyiyiyyiyyyyyyyyaynnnnnnnnnnnnnnnn",
"nnnnnnnnnnnnnnn;yyyyyyyyyyyyyyyyyyennnnnnyyyyyyryiyyyyeyyyyyyyyyyiyyyyyyyyyyyyyyyyiyyyyyyyyyyyyyyyyyyyyyyyyyyyyqnnnnnnnnnnnnnnnn",
"nnnnnnnnnnnnnnnX3yyyyyyyyyyyyyyyyyqnnnnnnqyyyyyyyyyyyyyyeyyyyyyyyyyyyyyyyiyyyyyyyyyyyyyyyyyyyyyyyyyyyyyyyyyyyyynnnnnnnnnnnnnnnnn",
"nnnnnnnnnnnnnnnn*9yyyyyyyyyyyyyeyyynnnnnnqyyyyyyyyyyyyyyyyyyyyyyyyyyyyyyyryyyyyyyyyyyyyyyyyyyyyyyyyeyyyyyyyyye6nnnnnnnnnnnnnnnnn",
"nnnnnnnnnnnnnnnn :eeeyyyyyyryyyyyy0nnnnnn9yyyyryyeyyyyyeyyeyyryryryyryqyryqyyyyeyyryyyeyyyyyyyeyyeyyyyyyyryye6nnnnnnnnnnnnnnnnnn",
"nnnnnnnnnnnnnnnnno3yeeyyqqyreeyyqyqnnnnnn8qyqyqryeeyeeyeeeyeeywyyyryryyqryyyeeeyyrqyyeeyrrqyeyyeeyeytwyyyyqeq-nnnnnnnnnnnnnnnnnn",
"nnnnnnnnnnnnnnnnn #8rrqyrqryqryqyeqnnnnnn8yqyqyyqyyryyeyyqyyyqyyqyqyyewyeryrttttreerqyqyyyyyqyyqeerrereryqyy<nnnnnnnnnnnnnnnnnnn",
"nnnnnnnnnnnnnnnnnn -9qyqqyeeeeeeqy8nnnnnn8qyqyqeyqqyqqqqqyqqqtqyyqyqqyqyeeqywtttqyqyrqyeqqqqyrqyeeeeeeeeerq2nnnnnnnnnnnnnnnnnnnn",
"nnnnnnnnnnnnnnnnnnn -9qqererqyqqrqqnnnnnn7qyyqqqqqyqqerqrqqqyyqqqqqyqqqqqqwqqttqeqeqqeqeqqyqqqyqqrereqqeqe5nnnnnnnnnnnnnnnnnnnnn",
"nnnnnnnnnnnnnnnnnnnnX2qqqqqqqqqeqq8nnnnnn8qqqqeqqqqqqqeqqyqqqqqqqqqqyqqqqeqrqqqweqqeqqqqqeqeqqqqqqqqqeqqq8*nnnnnnnnnnnnnnnnnnnnn",
"nnnnnnnnnnnnnnnnnnnn o1qqqqqqqqqqqqnnnnnn7qqqqqqqqqqqqqqqqrqqqqqqqqqqqqqqqrqqqqqqqqqqqqqqqqqqqqqqqqqqqqq7-nnnnnnnnnnnnnnnnnnnnnn",
"nnnnnnnnnnnnnnnnnnnnn o1qqqqqqqqqq8nnnnnn7qqqqqqqqqqqqqqq9qqqqqqqqqrqqqqqqqqqqqqqqqqqqqqqqqqqqqqqqqqqqq7-nnnnnnnnnnnnnnnnnnnnnnn",
"nnnnnnnnnnnnnnnnnnnnnn o100qqqqqqq9nnnnnn7qqqqqqq0qqqqqqqqqqqqqqqqqqqqqqqqqqqqqq0qqqqqqq8qqqqqqqqqqqqq7=nnnnnnnnnnnnnnnnnnnnnnnn",
"nnnnnnnnnnnnnnnnnnnnnnn o1qq0qqq8q8nnnnnn6qqq8qq0qqq0q0qq0q0q00q0q0q0q0qqq8q0q0qqqq0q0qqqqqqqq8q0q0qq7=nnnnnnnnnnnnnnnnnnnnnnnnn",
"nnnnnnnnnnnnnnnnnnnnnnnn o1q800qq08nnnnnn600000000q0000q000q00q00q8q0q0q000000000q0000q0000q008q0q006=nnnnnnnnnnnnnnnnnnnnnnnnnn",
"nnnnnnnnnnnnnnnnnnnnnnnnn o:6q008q8nnnnnn60q00009q0900000q09000000q800980000000000000000q8008qq80003*nnnnnnnnnnnnnnnnnnnnnnnnnnn",
"nnnnnnnnnnnnnnnnnnnnnnnnnn  *600q88nnnnnn6q80000099000909099000088qq8qq808000009909000098qq8qq8q0q<onnnnnnnnnnnnnnnnnnnnnnnnnnnn",
"nnnnnnnnnnnnnnnnnnnnnnnnnnn  *388q7nnnnnn699980899998080999980809q8999990008999999999999q88q89986;onnnnnnnnnnnnnnnnnnnnnnnnnnnnn",
"nnnnnnnnnnnnnnnnnnnnnnnnnnnn  o18q6nnnnnn6988q8q888080088008088880q88q80808008009989989889889895* nnnnnnnnnnnnnnnnnnnnnnnnnnnnnn",
"nnnnnnnnnnnnnnnnnnnnnnnnnnnnnn .-66nnnnnn59888888908888888880808888888888808888888888988898987,@nnnnnnnnnnnnnnnnnnnnnnnnnnnnnnnn",
"nnnnnnnnnnnnnnnnnnnnnnnnnnnnnnnnnn:nnnnnn6888888888888888888888888888888888888888888988888882&.nnnnnnnnnnnnnnnnnnnnnnnnnnnnnnnnn",
"nnnnnnnnnnnnnnnnnnnnnnnnnnnnnnnnnnnnnnnnn58788888887888888888887888688887888887888888888885;Onnnnnnnnnnnnnnnnnnnnnnnnnnnnnnnnnnn",
"nnnnnnnnnnnnnnnnnnnnnnnnnnnnnnnnnnnnnnnnn5q8788888886868866878888887886788886788888888885;@ nnnnnnnnnnnnnnnnnnnnnnnnnnnnnnnnnnnn",
"nnnnnnnnnnnnnnnnnnnnnnnnnnnnnnnnnnnnnnnnn5688787686888888888887886788788868888866868865;+ nnnnnnnnnnnnnnnnnnnnnnnnnnnnnnnnnnnnnn",
"nnnnnnnnnnnnnnnnnnnnnnnnnnnnnnnnnnnnnnnnn=<578778686686868686886778778876686686878862;+ nnnnnnnnnnnnnnnnnnnnnnnnnnnnnnnnnnnnnnnn",
"nnnnnnnnnnnnnnnnnnnnnnnnnnnnnnnnnnnnnnnnnn.+-2666868868786878678778787788868868665:&. nnnnnnnnnnnnnnnnnnnnnnnnnnnnnnnnnnnnnnnnnn",
"nnnnnnnnnnnnnnnnnnnnnnnnnnnnnnnnnnnnnnnnnnn  .%*<666787866867777877878777877662;%o  nnnnnnnnnnnnnnnnnnnnnnnnnnnnnnnnnnnnnnnnnnnn",
"nnnnnnnnnnnnnnnnnnnnnnnnnnnnnnnnnnnnnnnnnnnn     +%;1156688886788778876662<,*$.   nnnnnnnnnnnnnnnnnnnnnnnnnnnnnnnnnnnnnnnnnnnnnn",
"nnnnnnnnnnnnnnnnnnnnnnnnnnnnnnnnnnnnnnnnnnnnnn        @#&::,1<:<,<<<,<-##X .   nnnnnnnnnnnnnnnnnnnnnnnnnnnnnnnnnnnnnnnnnnnnnnnnn",
"nnnnnnnnnnnnnnnnnnnnnnnnnnnnnnnnnnnnnnnnnnnnnnnnnn                         nnnnnnnnnnnnnnnnnnnnnnnnnnnnnnnnnnnnnnnnnnnnnnnnnnnnn",
"nnnnnnnnnnnnnnnnnnnnnnnnnnnnnnnnnnnnnnnnnnnnnnnnnnnnnnnn              nnnnnnnnnnnnnnnnnnnnnnnnnnnnnnnnnnnnnnnnnnnnnnnnnnnnnnnnnn",
"nnnnnnnnnnnnnnnnnnnnnnnnnnnnnnnnnnnnnnnnnnnnnnnnnnnnnnnnnnnnnnnnnnnnnnnnnnnnnnnnnnnnnnnnnnnnnnnnnnnnnnnnnnnnnnnnnnnnnnnnnnnnnnnn",
"nnnnnnnnnnnnnnnnnnnnnnnnnnnnnnnnnnnnnnnnnnnnnnnnnnnnnnnnnnnnnnnnnnnnnnnnnnnnnnnnnnnnnnnnnnnnnnnnnnnnnnnnnnnnnnnnnnnnnnnnnnnnnnnn",
"nnnnnnnnnnnnnnnnnnnnnnnnnnnnnnnnnnnnnnnnnnnnnnnnnnnnnnnnnnnnnnnnnnnnnnnnnnnnnnnnnnnnnnnnnnnnnnnnnnnnnnnnnnnnnnnnnnnnnnnnnnnnnnnn",
"nnnnnnnnnnnnnnnnnnnnnnnnnnnnnnnnnnnnnnnnnnnnnnnnnnnnnnnnnnnnnnnnnnnnnnnnnnnnnnnnnnnnnnnnnnnnnnnnnnnnnnnnnnnnnnnnnnnnnnnnnnnnnnnn",
"nnnnnnnnnnnnnnnnnnnnnnnnnnnnnnnnnnnnnnnnnnnnnnnnnnnnnnnnnnnnnnnnnnnnnnnnnnnnnnnnnnnnnnnnnnnnnnnnnnnnnnnnnnnnnnnnnnnnnnnnnnnnnnnn",
"nnnnnnnnnnnnnnnnnnnnnnnnnnnnnnnnnnnnnnnnnnnnnnnnnnnnnnnnnnnnnnnnnnnnnnnnnnnnnnnnnnnnnnnnnnnnnnnnnnnnnnnnnnnnnnnnnnnnnnnnnnnnnnnn",
"nnnnnnnnnnnnnnnnnnnnnnnnnnnnnnnnnnnnnnnnnnnnnnnnnnnnnnnnnnnnnnnnnnnnnnnnnnnnnnnnnnnnnnnnnnnnnnnnnnnnnnnnnnnnnnnnnnnnnnnnnnnnnnnn"
};
