/* XPM */
static char *terminal[] = {
/* columns rows colors chars-per-pixel */
"128 128 49 1",
"  c #000100010001",
". c #29FF29FF29FF",
"X c #35AE35AE35AE",
"o c #573557355735",
"O c #61BF61BF61BF",
"+ c #7A6E7A6E7A6E",
"@ c #87FF87FF87FF",
"# c #9C719C719C71",
"$ c #AC84AC84AC84",
"% c #B60BB60BB60B",
"& c #C004C004C004",
"* c #CD66CD66CD66",
"= c #D1A0D1A0D1A0",
"- c #DA06DA06DA06",
"; c #E10CE1C0E10C",
": c #E6E1E6E1E6E1",
"> c #E809E924E809",
", c #E924E898E924",
"< c #EBB5EBB5EBB5",
"1 c #ECCAECFCECD8",
"2 c #EEDDEEDDEEDD",
"3 c #F076F013F013",
"4 c #F013F076F013",
"5 c #F076F076F013",
"6 c #F013F013F076",
"7 c #F076F013F076",
"8 c #EFAEF076F076",
"9 c #F193F193F193",
"0 c #F345F345F2F2",
"q c #F4C9F47FF47F",
"w c #F59EF558F558",
"e c #F558F558F59E",
"r c #F59EF558F59E",
"t c #F6A4F6A4F6A4",
"y c #F794F794F75A",
"u c #F75AF794F794",
"i c #F86FF86FF86F",
"p c #F907F937F907",
"a c #F9EEF9EEF9EE",
"s c #FA94FA6CFA6C",
"d c #FA6CFA94FA6C",
"f c #FA94FA94FA6C",
"g c #FA94FA6CFA94",
"h c #FA6CFA94FA94",
"j c #FB2CFB2CFB08",
"k c #FBF2FBEEFBEF",
"l c #FCD5FCD5FCE2",
"z c #FE06FE05FE06",
"x c None",
/* pixels */
"xxxxxxxxxxxxxxxxxxxxxxxxxxxxxxxxxxxxxxxxxxxxxxxxxxxxxxxxxxxxxxxxxxxxxxxxxxxxxxxxxxxxxxxxxxxxxxxxxxxxxxxxxxxxxxxxxxxxxxxxxxxxxxxx",
"xxxxxxxxxxxxxxxxxxxxxxxxxxxxxxxxxxxxxxxxxxxxxxxxxxxxxxxxxxxxxxxxxxxxxxxxxxxxxxxxxxxxxxxxxxxxxxxxxxxxxxxxxxxxxxxxxxxxxxxxxxxxxxxx",
"xxxxxxxxxxxxxxxxxxxxxxxxxxxxxxxxxxxxxxxxxxxxxxxxxxxxxxxxxxxxxxxxxxxxxxxxxxxxxxxxxxxxxxxxxxxxxxxxxxxxxxxxxxxxxxxxxxxxxxxxxxxxxxxx",
"xxxxxxxxxxxxxxxxxxxxxxxxxxxxxxxxxxxxxxxxxxxxxxxxxxxxxxxxxxxxxxxxxxxxxxxxxxxxxxxxxxxxxxxxxxxxxxxxxxxxxxxxxxxxxxxxxxxxxxxxxxxxxxxx",
"xxxxxxxxxxxxxxxxxxxxxxxxxxxxxxxxxxxxxxxxxxxxxxxxxxxxxxxxxxxxxxxxxxxxxxxxxxxxxxxxxxxxxxxxxxxxxxxxxxxxxxxxxxxxxxxxxxxxxxxxxxxxxxxx",
"xxxxxxxxxxxxxxxxxxxxxxxxxxxxxxxxxxxxxxxxxxxxxxxxxxxxxxxxxxxxxxxxxxxxxxxxxxxxxxxxxxxxxxxxxxxxxxxxxxxxxxxxxxxxxxxxxxxxxxxxxxxxxxxx",
"xxxxxxxxxxxxxxxxxxxxxxxxxxxxxxxxxxxxxxxxxxxxxxxxxxxxxxxxxxxxxxxxxxxxxxxxxxxxxxxxxxxxxxxxxxxxxxxxxxxxxxxxxxxxxxxxxxxxxxxxxxxxxxxx",
"xxxxxxxxxxxxxxxxxxxxxxxxxxxxxxxxxxxxxxxxxxxxxxxxxxxxxxxxxxxxxxxxxxxxxxxxxxxxxxxxxxxxxxxxxxxxxxxxxxxxxxxxxxxxxxxxxxxxxxxxxxxxxxxx",
"xxxxxxxxxxxxxxxxxxxxxxxxxxxxxxxxxxxxxxxxxxxxxxxxxxxxxxxxxxxxxxxxxxxxxxxxxxxxxxxxxxxxxxxxxxxxxxxxxxxxxxxxxxxxxxxxxxxxxxxxxxxxxxxx",
"xxxxxxxxxxxxxxxxxxxxxxxxxxxxxxxxxxxxxxxxxxxxxxxxxxxxxxxxxxxxxxxxxxxxxxxxxxxxxxxxxxxxxxxxxxxxxxxxxxxxxxxxxxxxxxxxxxxxxxxxxxxxxxxx",
"xxxxxxxxxxxxxxxxxxxxxxxxxxxxxxxxxxxxxxxxxxxxxxxxxxxxxxxxxxxxxxxxxxxxxxxxxxxxxxxxxxxxxxxxxxxxxxxxxxxxxxxxxxxxxxxxxxxxxxxxxxxxxxxx",
"xxxxxxxxxxxxxxxxxxxxxxxxxxxxxxxxxxxxxxxxxxxxxxxxxxxxxxxxxxxxxxxxxxxxxxxxxxxxxxxxxxxxxxxxxxxxxxxxxxxxxxxxxxxxxxxxxxxxxxxxxxxxxxxx",
"xxxxxxxxxxxxxxxxxxxxxxxxxxxxxxxxxxxxxxxxxxxxxxxxxxxxxxxxxxxxxxxxxxxxxxxxxxxxxxxxxxxxxxxxxxxxxxxxxxxxxxxxxxxxxxxxxxxxxxxxxxxxxxxx",
"xxxxxxxxxxxxxxxxxxxxxxxxxxxxxxxxxxxxxxxxxxxxxxxxxxxxxxxxxxxxxxxxxxxxxxxxxxxxxxxxxxxxxxxxxxxxxxxxxxxxxxxxxxxxxxxxxxxxxxxxxxxxxxxx",
"xxxxxxxxxxxxxxxxxxxxxxxxxxxxxxxxxxxxxxxxxxxxxxxxxxxxxxxxxxxxxxxxxxxxxxxxxxxxxxxxxxxxxxxxxxxxxxxxxxxxxxxxxxxxxxxxxxxxxxxxxxxxxxxx",
"xxxxxxxxxxxxxxxxxxxxxxxxxxxxxxxxxxxxxxxxxxxxxxxxxxxxxxxxxxxxxxxxxxxxxxxxxxxxxxxxxxxxxxxxxxxxxxxxxxxxxxxxxxxxxxxxxxxxxxxxxxxxxxxx",
"xxxxxxxxxxxxxxxxxxxxxxxxxxxxxxxxxxxxxxxxxxxxxxxxxxxxxxxxxxxxxxxxxxxxxxxxxxxxxxxxxxxxxxxxxxxxxxxxxxxxxxxxxxxxxxxxxxxxxxxxxxxxxxxx",
"xxxxxxxxxxxxxxxxxxxxxxxxxxxxxxxxxxxxxxxxxxxxxxxxxxxxxxxxxxxxxxxxxxxxxxxxxxxxxxxxxxxxxxxxxxxxxxxxxxxxxxxxxxxxxxxxxxxxxxxxxxxxxxxx",
"xxxxxxxxxxxxxxxxxxxxxxxxxxxxxxxxxxxxxxxxxxxxxxxxxxxxxxxxxxxxxxxxxxxxxxxxxxxxxxxxxxxxxxxxxxxxxxxxxxxxxxxxxxxxxxxxxxxxxxxxxxxxxxxx",
"xxxxxxxxxxxxxxxxzzzzzzzzzzzzzzzzzzzzzzzzzzzzzzzzzzzzzzzzzzzzzzzzzzzzzzzzzzzzzzzzzzzzzzzzzzzzzzzzzzzzzzzzzzzzzzzzzzzxxxxxxxxxxxxx",
"xxxxxxxxxxxxxxzzzzzzzzzzzzzzzzzzzzzzzzzzzzzzzzzzzzzzzzzzzzzzzzzzzzzzzzzzzzzzzzzzzzzzzzzzzzzzzzzzzzzzzzzzzzzzzzzzzzzzzxxxxxxxxxxx",
"xxxxxxxxxxxxxzzzzzzzzzzzzzzzzzzzzzzzzzzzzzzzzzzzzzzzzzzzzzzzzzzzzzzzzzzzzzzzzzzzzzzzzzzzzzzzzzzzzzzzzzzzzzzzzzzzzzzzzzxxxxxxxxxx",
"xxxxxxxxxxxxzzzzzzzzzzzzzzzzzzzzzzzzzzzzzzzzzzzzzzzzzzzzzzzzzzzzzzzzzzzzzzzzzzzzzzzzzzzzzzzzzzzzzzzzzzzzzzzzzzzzzzzzzzzxxxxxxxxx",
"xxxxxxxxxxxzzzzzzzzzzzzzzzzzzzzzzzzzzzzzzzzzzzzzzzzzzzzzzzzzzzzzzzzzzzzzzzzzzzzzzzzzzzzzzzzzzzzzzzzzzzzzzzzzzzzzzzzzzzzxxxxxxxxx",
"xxxxxxxxxxxzzzzzzzzzzzzzzzzzzzzzzzzzzzzzzzzzzzzzzzzzzzzzzzzzzzzzzzzzzzzzzzzkzzzzzzzzzzzzzzzzzzzzzzzzzzzzzzzlzzzzzzzzzzzzxxxxxxxx",
"xxxxxxxxxxzzzzzzzzzzzzzzzzzzzzzzzzzzzzzzzzzzzzzzzzzzzzzzzzzzzzzzzzzzzzzzzzzzzzzzzzzzzzzkzzzzzzkzzzzzzzzkzzzzzzzzllzzzkzzxxxxxxxx",
"xxxxxxxxxxkzzzzzzzzzzzzzzzzzzzzzzzzzzzzzzzzzzzzzzzzzzzzzzzzzzkzzzzzzzkzzzzzzzzzzzzzzzkzzzzzkzzzzzzzzzzzzzkzzzzzzzzzzzzzlzxxxxxxx",
"xxxxxxxxxxzzzzzzzzkt0222t022222222222222222222222222222222222212222222221212<<22<22222<2<1222<<221<2<<2<22<2<<0tzklzzlzlkxxxxxxx",
"xxxxxxxxxxzzzzzzzz0X                                                                                           #kzzlzlzzzxxxxxxx",
"xxxxxxxxxxlzzzkzzz2                                                                                            Xpllzlzlzkxxxxxxx",
"xxxxxxxxxxklkzzzzz,xxxxxxxxxxxxxxxxxxxxxxxxxxxxxxxxxxxxxxxxxxxxxxxxxxxxxxxxxxxxxxxxxxxxxxxxxxxxxxxxxxxxxxxxxxx .izlzzlzlkxxxxxxx",
"xxxxxxxxxxlzzlzzkz2xxxxxxxxxxxxxxxxxxxxxxxxxxxxxxxxxxxxxxxxxxxxxxxxxxxxxxxxxxxxxxxxxxxxxxxxxxxxxxxxxxxxxxxxxxxx.izllkzlzkxxxxxxx",
"xxxxxxxxxxlzkzkzzl0xxxxxxxxxxxxxxxxxxxxxxxxxxxxxxxxxxxxxxxxxxxxxxxxxxxxxxxxxxxxxxxxxxxxxxxxxxxxxxxxxxxxxxxxxxxxxkkzllllzkxxxxxxx",
"xxxxxxxxxxkzzzkzlzqxxxxxxxxxxxxxxxxxxxxxxxxxxxxxxxxxxxxxxxxxxxxxxxxxxxxxxxxxxxxxxxxxxxxxxxxxxxxxxxxxxxxxxxxxxxxxtzlllzzlkxxxxxxx",
"xxxxxxxxxxzkzllzllixxxxxxxxxxxxxxxxxxxxxxxxxxxxxxxxxxxxxxxxxxxxxxxxxxxxxxxxxxxxxxxxxxxxxxxxxxxxxxxxxxxxxxxxxxxxxklzkllllkxxxxxxx",
"xxxxxxxxxxkzlzllzztxxxxxxxxxxxxxxxxxxxxxxxxxxxxxxxxxxxxxxxxxxxxxxxxxxxxxxxxxxxxxxxxxxxxxxxxxxxxxxxxxxxxxxxxxxxxxizkzllllkxxxxxxx",
"xxxxxxxxxxklllllzktxxxxxxxxxxxxxxxxxxxxxxxxxxxxxxxxxxxxxxxxxxxxxxxxxxxxxxxxxxxxxxxxxxxxxxxxxxxxxxxxxxxxxxxxxxxxxtlzkllllkxxxxxxx",
"xxxxxxxxxxlllllzkztxxxxxxxxxxxxxxxxxxxxxxxxxxxxxxxxxxxxxxxxxxxxxxxxxxxxxxxxxxxxxxxxxxxxxxxxxxxxxxxxxxxxxxxxxxxxxklkzkllkkxxxxxxx",
"xxxxxxxxxxklllllzktxxxxxxxxxxxxxxxxxxxxxxxxxxxxxxxxxxxxxxxxxxxxxxxxxxxxxxxxxxxxxxxxxxxxxxxxxxxxxxxxxxxxxxxxxxxxxtklkllklkxxxxxxx",
"xxxxxxxxxxklzlllzztxxxxxxxxxxxxxxxxxxxxxxxxxxxxxxxxxxxxxxxxxxxxxxxxxxxxxxxxxxxxxxxxxxxxxxxxxxxxxxxxxxxxxxxxxxxxxplllllllkxxxxxxx",
"xxxxxxxxxxkzkkkzkltxxxxxxxxxxxxxxxxxxxxxxxxxxxxxxxxxxxxxxxxxxxxxxxxxxxxxxxxxxxxxxxxxxxxxxxxxxxxxxxxxxxxxxxxxxxxxtzkkkkkkkxxxxxxx",
"xxxxxxxxxxkkkzzkkztxxxxxxxxxxxxxlllxxxxxxxxxxxxxxxxxxxxxxxxxxxxxxxxxxxxxxxxxxxxxxxxxxxxxxxxxxxxxxxxxxxxxxxxxxxxxkkkzkkkkkxxxxxxx",
"xxxxxxxxxxklzkkkkktxxxxxxxxxxxxxklkzzkxxxxxxxxxxxxxxxxxxxxxxxxxxxxxxxxxxxxxxxxxxxxxxxxxxxxxxxxxxxxxxxxxxxxxxxxxxtkkkkkkkkxxxxxxx",
"xxxxxxxxxxkkkllkkztxxxxxxxxxxxxxkkklkkzkzxxxxxxxxxxxxxxxxxxxxxxxxxxxxxxxxxxxxxxxxxxxxxxxxxxxxxxxxxxxxxxxxxxxxxxxtkkkkkkktxxxxxxx",
"xxxxxxxxxxkkkklkkktxxxxxxxxxxxxxkkkkzkkkkkzxxxxxxxxxxxxxxxxxxxxxxxxxxxxxxxxxxxxxxxxxxxxxxxxxxxxxxxxxxxxxxxxxxxxxkkkkkkkkkxxxxxxx",
"xxxxxxxxxxkkkklkkktxxxxxxxxxxxxxkkkkkkkkkkkkkkxxxxxxxxxxxxxxxxxxxxxxxxxxxxxxxxxxxxxxxxxxxxxxxxxxxxxxxxxxxxxxxxxxtkkkkkkkkxxxxxxx",
"xxxxxxxxxxkkkkkkkktxxxxxxxxxxxxx<tkklkkkkkkkkkkkkxxxxxxxxxxxxxxxxxxxxxxxxxxxxxxxxxxxxxxxxxxxxxxxxxxxxxxxxxxxxxxxtkkkkkkktxxxxxxx",
"xxxxxxxxxxkkkkklkktxxxxxxxxxxxxxxx%<tkkkkkkkkkkkkkkkxxxxxxxxxxxxxxxxxxxxxxxxxxxxxxxxxxxxxxxxxxxxxxxxxxxxxxxxxxxxtkkkkkkkkxxxxxxx",
"xxxxxxxxxxkkkkkkkkqxxxxxxxxxxxxxxxx o&<tkkkkkkkkkkkkkkxxxxxxxxxxxxxxxxxxxxxxxxxxxxxxxxxxxxxxxxxxxxxxxxxxxxxxxxxxtkkkkkikixxxxxxx",
"xxxxxxxxxxkkkkkkkitxxxxxxxxxxxxxxxxx   o&<tkkkkkkkkkkikkkxxxxxxxxxxxxxxxxxxxxxxxxxxxxxxxxxxxxxxxxxxxxxxxxxxxxxxxtkkkkkkkixxxxxxx",
"xxxxxxxxxxkikkkkkkqxxxxxxxxxxxxxxxxxxx    O*2tkkkkkkkkkkikkixxxxxxxxxxxxxxxxxxxxxxxxxxxxxxxxxxxxxxxxxxxxxxxxxxxxtkkkkkkikxxxxxxx",
"xxxxxxxxxxtkkkkkkk0xxxxxxxxxxxxxxxxxxxxxx    +=2tkkkkkkkkkkkkkxxxxxxxxxxxxxxxxxxxxxxxxxxxxxxxxxxxxxxxxxxxxxxxxxxtkikikkktxxxxxxx",
"xxxxxxxxxxkkkkkkkkqxxxxxxxxxxxxxxxxxxxxxxxxx    +=2iikkkkkikkkxxxxxxxxxxxxxxxxxxxxxxxxxxxxxxxxxxxxxxxxxxxxxxxxxxtkikkkkkixxxxxxx",
"xxxxxxxxxxkkkkikkkqxxxxxxxxxxxxxxxxxxxxxxxxxxxx    @-0ikkkkkkkxxxxxxxxxxxxxxxxxxxxxxxxxxxxxxxxxxxxxxxxxxxxxxxxxxqkkkkiikixxxxxxx",
"xxxxxxxxxxikikikkk0xxxxxxxxxxxxxxxxxxxxxxxxxxxxxx X%:qkkkikkktxxxxxxxxxxxxxxxxxxxxxxxxxxxxxxxxxxxxxxxxxxxxxxxxxxtkikiikkixxxxxxx",
"xxxxxxxxxxkikkkkkitxxxxxxxxxxxxxxxxxxxxxxxxxxxxx&:0ikkikkikkktxxxxxxxxxxxxxxxxxxxxxxxxxxxxxxxxxxxxxxxxxxxxxxxxxxqkkpkkikixxxxxxx",
"xxxxxxxxxxkkkikkkk0xxxxxxxxxxxxxxxxxxxxxxxxxxx0tkikkktkikkkik0xxxxxxxxxxxxxxxxxxxxxxxxxxxxxxxxxxxxxxxxxxxxxxxxxxqkkkpkkptxxxxxxx",
"xxxxxxxxxxtkkikiikqxxxxxxxxxxxxxxxxxxxxxxxxxtkkkkkkikkkkkt0:xxxxxxxxxxxxxxxxxxxxxxxxxxxxxxxxxxxxxxxxxxxxxxxxxxxxtktkkktktxxxxxxx",
"xxxxxxxxxxikkkkikk0xxxxxxxxxxxxxxxxxxxxxxkkkkikktkikktkt;%.xxxxxxxxxxxxxxxxxxxxxxxxxxxxxxxxxxxxxxxxxxxxxxxxxxxxx0kkttkkppxxxxxxx",
"xxxxxxxxxxtkpkiktk0xxxxxxxxxxxxxxxxxxxktkktkkkttkktkt:&o  xxxxxxxxxxxxxxxxxxxxxxxxxxxxxxxxxxxxxxxxxxxxxxxxxxxxxx0ipktktktxxxxxxx",
"xxxxxxxxxxkkkiikkk0xxxxxxxxxxxxxxxxkktpktktkkkkkit0=+   xxxxxxxxxxxxxxxxxxxxxxxxxxxxxxxxxxxxxxxxxxxxxxxxxxxxxxxxtktkkpkitxxxxxxx",
"xxxxxxxxxxttkikkkt0xxxxxxxxxxxxxkktktkkktkkiktt0-@  xxxxxxxxxxxxxxxxxxxxxxxxxxxxxxxxxxxxxxxxxxxxxxxxxxxxxxxxxxxx0kkitktkpxxxxxxx",
"xxxxxxxxxxkkikkikp0xxxxxxxxxxxxxiktkkkktkktk0:$X xxxxxxxxxxxxxxxxxxxxxxxxxxxxxxxxxxxxxxxxxxxxxxxxxxxxxxxxxxxxxxx0kikktkitxxxxxxx",
"xxxxxxxxxxtkkttktk8xxxxxxxxxxxxxtkktkttkk0:%X xxxxxxxxxxxxxxxxxxxxxxxxxxxxxxxxxxxxxxxxxxxxxxxxxxxxxxxxxxxxxxxxxx0tktiktktxxxxxxx",
"xxxxxxxxxxtppkikkk0xxxxxxxxxxxxxttkkkkt2*+  xxxxxxxxxxxxxxxxxxxxxxxxxxxxxxxxxxxxxxxxxxxxxxxxxxxxxxxxxxxxxxxxxxxxtktkppkptxxxxxxx",
"xxxxxxxxxxtkpipitt0xxxxxxxxxxxxxtktt2=+  xxxxxxxxxxxxxxxxxxxxxxxxxxxxxxxxxxxxxxxxxxxxxxxxxxxxxxxxxxxxxxxxxxxxxxx0tktpptptxxxxxxx",
"xxxxxxxxxxtppppkpk0xxxxxxxxxxxxxt0;#. xxxxxxxxxxxxxxxxxxxxxxxxxxxxxxxxxxxxxxxxxxxxxxxxxxxxxxxxxxxxxxxxxxxxxxxxxxtttkpiiptxxxxxxx",
"xxxxxxxxxxtkppppkt0xxxxxxxxxxxxxxxxxxxxxxxxxxxxxxxxxxxxxxxxxxxxxxxxxxxxxxxxxxxxxxxxxxxxxxxxxxxxxxxxxxxxxxxxxxxxx0kttipiitxxxxxxx",
"xxxxxxxxxxikpppptt0xxxxxxxxxxxxxxxxxxxxxxxxxxxxxxxxxxxxxxxxxxxxxxxxxxxxxxxxxxxxxxxxxxxxxxxxxxxxxxxxxxxxxxxxxxxxx0ttkttiitxxxxxxx",
"xxxxxxxxxxttptiptk2xxxxxxxxxxxxxxxxxxxxxxxxxxxxxxxxxxxxxxxxxxxxxxxxxxxxxxxxxxxxxxxxxxxxxxxxxxxxxxxxxxxxxxxxxxxxx0ttktkiitxxxxxxx",
"xxxxxxxxxxtktktktt0xxxxxxxxxxxxxxxxxxxxxxxxxxxxxxxxxxxxxxxxxxxxxxxxxxxxxxxxxxxxxxxxxxxxxxxxxxxxxxxxxxxxxxxxxxxxx0tttttttqxxxxxxx",
"xxxxxxxxxxttktptkk2xxxxxxxxxxxxxxxxxxxxxxxxxxxxxxxxxxxxxxxxxxxxxxxxxxxxxxxxxxxxxxxxxxxxxxxxxxxxxxxxxxxxxxxxxxxxx0tkttktkqxxxxxxx",
"xxxxxxxxxxktktktti2xxxxxxxxxxxxxxxxxxxxxxxxxxxxxxxxxxxxxxxxxxxxxxxxxxxxxxxxxxxxxxxxxxxxxxxxxxxxxxxxxxxxxxxxxxxxx0tittttpqxxxxxxx",
"xxxxxxxxxxttkttpkt2xxxxxxxxxxxxxxxxxxxxxxxxxxxxxxxxxxxxxxxxxxxxxxxxxxxxxxxxxxxxxxxxxxxxxxxxxxxxxxxxxxxxxxxxxxxxx0itiipttqxxxxxxx",
"xxxxxxxxxxtttptttk2xxxxxxxxxxxxxxxxxxxxxxxxxxxxxxxxxxxxxxxxxxxxxxxxxxxxxxxxxxxxxxxxxxxxxxxxxxxxxxxxxxxxxxxxxxxxx4tititptqxxxxxxx",
"xxxxxxxxxxtttttktt2xxxxxxxxxxxxxxxxxxxxxxxxxxxxxxxxxxxxxxxxxxxxxxxxxxxxxxxxxxxxxxxxxxxxxxxxxxxxxxxxxxxxxxxxxxxxx0ttttitt0xxxxxxx",
"xxxxxxxxxxtttttttt2xxxxxxxxxxxxxxxxxxxxxxxxxxxxxxxxxxxxxxxxxxxxxxxxxxxxxxxxxxxxxxxxxxxxxxxxxxxxxxxxxxxxxxxxxxxxx2tpttttttxxxxxxx",
"xxxxxxxxxxttitpptt2xxxxxxxxxxxxxxxxxxxxxxxxxxxxxxxxxxxxxxxxxxxxxxxxxxxxxxxxxxxxxxxxxxxxxxxxxxxxxxxxxxxxxxxxxxxxx2ttttttt0xxxxxxx",
"xxxxxxxxxxttttitpt2xxxxxxxxxxxxxxxxxxxxxxxxxxxxxxxxxxxxxxxxxxxxxxxxxxxxxxxxxxxxxxxxxxxxxxxxxxxxxxxxxxxxxxxxxxxxx2ttttqtt0xxxxxxx",
"xxxxxxxxxxttittttt2xxxxxxxxxxxxxxxxxxxxxxxxxxxxxxxxxxxxxxxxxxxxxxxxxxxxxxxxxxxxxxxxxxxxxxxxxxxxxxxxxxxxxxxxxxxxx2ttttttt0xxxxxxx",
"xxxxxxxxxxqttttttt<xxxxxxxxxxxxxxxxxxxxxxxxxxxxxxxxxxxxxxxxxxxxxxxxxxxxxxxxxxxxxxxxxxxxxxxxxxxxxxxxxxxxxxxxxxxxx2tttttqq0xxxxxxx",
"xxxxxxxxxxqttttttt<xxxxxxxxxxxxxxxxxxxxxxxxxxxxxxxxxxxxxxxxxxxxxxxxxxxxxxxxxxxxxxxxxxxxxxxxxxxxxxxxxxxxxxxxxxxxx2ttqqttt0xxxxxxx",
"xxxxxxxxxxtttttttt<xxxxxxxxxxxxxxxxxxxxxxxxxxxxxxxxxxxxxxxxxxxxxxxxxxxxxxxxxxxxxxxxxxxxxxxxxxxxxxxxxxxxxxxxxxxxx2tq0tqqq6xxxxxxx",
"xxxxxxxxxx0ttttttt<xxxxxxxxxxxxxxxxxxxxxxxxxxxxxxxxxxxxxxxxxxxxxxxttq0ttqqtqttqtttqtq0ttqttqttt0tttxxxxxxxxxxxxx2qqtqqtt0xxxxxxx",
"xxxxxxxxxx0tttqttq<xxxxxxxxxxxxxxxxxxxxxxxxxxxxxxxxxxxxxxxxxxxxxxqtqttqqtqtttqtqqtqtttqq0tqttqqqqqtxxxxxxxxxxxxx2qqqqqqq0xxxxxxx",
"xxxxxxxxxx0t0ttqqt<xxxxxxxxxxxxxxxxxxxxxxxxxxxxxxxxxxxxxxxxxxxxxxqqqqqtqqqqqqqqqqq0tqqqqtqqq0qqqqqqxxxxxxxxxxxxx2qqqqqqq0xxxxxxx",
"xxxxxxxxxx00qtqqqq<xxxxxxxxxxxxxxxxxxxxxxxxxxxxxxxxxxxxxxxxxxxxxx0qqqqqqqqqqqqqqqqqqqqqqqqqqqqqqqqqxxxxxxxxxxxxx<qqqqqqq2xxxxxxx",
"xxxxxxxxxx0tqq0t0t<xxxxxxxxxxxxxxxxxxxxxxxxxxxxxxxxxxxxxxxxxxxxxx6qqqqqqqqqqqqq0qqqqqqqqqqqqqqq0qqq2xxxxxxxxxxxx<qqqqqq02xxxxxxx",
"xxxxxxxxxx000qqqqq:xxxxxxxxxxxxxxxxxxxxxxxxxxxxxxxxxxxxxxxxxxxxxx:000022026202060620020226608880200xxxxxxxxxxxxx<000q0000xxxxxxx",
"xxxxxxxxxx0qqqqqqq,xxxxxxxxxxxxxxxxxxxxxxxxxxxxxxxxxxxxxxxxxxxxxxxOooooooooooooooooooooooooooooOOxxxxxxxxxxxxxxx<q0t00002xxxxxxx",
"xxxxxxxxxx0qqqqq0q<xxxxxxxxxxxxxxxxxxxxxxxxxxxxxxxxxxxxxxxxxxxxxxxxx                           xxxxxxxxxxxxxxxxx<00000002xxxxxxx",
"xxxxxxxxxx0000q00t:xxxxxxxxxxxxxxxxxxxxxxxxxxxxxxxxxxxxxxxxxxxxxxxxxxxxxxxxxxxxxxxxxxxxxxxxxxxxxxxxxxxxxxxxxxxxx,00000002xxxxxxx",
"xxxxxxxxxx2t000000<xxxxxxxxxxxxxxxxxxxxxxxxxxxxxxxxxxxxxxxxxxxxxxxxxxxxxxxxxxxxxxxxxxxxxxxxxxxxxxxxxxxxxxxxxxxxx<00000002xxxxxxx",
"xxxxxxxxxx60q0q000:xxxxxxxxxxxxxxxxxxxxxxxxxxxxxxxxxxxxxxxxxxxxxxxxxxxxxxxxxxxxxxxxxxxxxxxxxxxxxxxxxxxxxxxxxxxxx,0t606602xxxxxxx",
"xxxxxxxxxx60000000:xxxxxxxxxxxxxxxxxxxxxxxxxxxxxxxxxxxxxxxxxxxxxxxxxxxxxxxxxxxxxxxxxxxxxxxxxxxxxxxxxxxxxxxxxxxxx:0200020<xxxxxxx",
"xxxxxxxxxx60000000:xxxxxxxxxxxxxxxxxxxxxxxxxxxxxxxxxxxxxxxxxxxxxxxxxxxxxxxxxxxxxxxxxxxxxxxxxxxxxxxxxxxxxxxxxxxxx<00660002xxxxxxx",
"xxxxxxxxxx20000000:xxxxxxxxxxxxxxxxxxxxxxxxxxxxxxxxxxxxxxxxxxxxxxxxxxxxxxxxxxxxxxxxxxxxxxxxxxxxxxxxxxxxxxxxxxxxx10026020<xxxxxxx",
"xxxxxxxxxx00020620:xxxxxxxxxxxxxxxxxxxxxxxxxxxxxxxxxxxxxxxxxxxxxxxxxxxxxxxxxxxxxxxxxxxxxxxxxxxxxxxxxxxxxxxxxxxxx:0600606<xxxxxxx",
"xxxxxxxxxx20060020:xxxxxxxxxxxxxxxxxxxxxxxxxxxxxxxxxxxxxxxxxxxxxxxxxxxxxxxxxxxxxxxxxxxxxxxxxxxxxxxxxxxxxxxxxxxxx:6206060<xxxxxxx",
"xxxxxxxxxx22606000<xxxxxxxxxxxxxxxxxxxxxxxxxxxxxxxxxxxxxxxxxxxxxxxxxxxxxxxxxxxxxxxxxxxxxxxxxxxxxxxxxxxxxxxxxxxxx<0262026<xxxxxxx",
"xxxxxxxxxx200002602<xxxxxxxxxxxxxxxxxxxxxxxxxxxxxxxxxxxxxxxxxxxxxxxxxxxxxxxxxxxxxxxxxxxxxxxxxxxxxxxxxxxxxxxxxxx;20220202<xxxxxxx",
"xxxxxxxxxx20626006020206060202206220220202282026202020022002202002352622260252200202622202024222220226622222222222202222<xxxxxxx",
"xxxxxxxxxx:0200220606262206026022020000220222022026202200222026222200220202225222022022220220222220220278022222222222222;xxxxxxx",
"xxxxxxxxxx*2226722222020222200220222222422202220622222222222022220222222222222222222222222222222822222222222232222222222xxxxxxxx",
"xxxxxxxxxx@<22262202262222222022222202222222222222222222222222222222222222222222222222222222222222222222222222222222222;xxxxxxxx",
"xxxxxxxxxxx&22622222222222222222222222222222222222222222222222222222222222222222222222122222212122222222<222222<212122:xxxxxxxxx",
"xxxxxxxxxxx *2262222222222222222222222222222222222222222<22222222222122222222222222<22212<222<22222222<212<22222<2<22:&xxxxxxxxx",
"xxxxxxxxxxxx.&>62222222222222222212222222222222222222222222222<2222<22222<22222<222<22<222<2<212<<2<2<22212<<2<22<22;$xxxxxxxxxx",
"xxxxxxxxxxxx  @=<<2<222<22<22<2<22<2<2<222<12<22<22<<22<<12<<22<11<2<<<1<2<<<2<2<<2<<<<<<2<<1<<2<<<<<2<<<<<<<<<<<<;&Oxxxxxxxxxxx",
"xxxxxxxxxxxxx   o@###############################################################################################+Xxxxxxxxxxxxxx",
"xxxxxxxxxxxxxxx                                                                                                   xxxxxxxxxxxxxx",
"xxxxxxxxxxxxxxxxxxxx                                                                                         xxxxxxxxxxxxxxxxxxx",
"xxxxxxxxxxxxxxxxxxxxxxxxxxxxxxxxxxxxxxxxxxxxxxxxxxxxxxxxxxxxxxxxxxxxxxxxxxxxxxxxxxxxxxxxxxxxxxxxxxxxxxxxxxxxxxxxxxxxxxxxxxxxxxxx",
"xxxxxxxxxxxxxxxxxxxxxxxxxxxxxxxxxxxxxxxxxxxxxxxxxxxxxxxxxxxxxxxxxxxxxxxxxxxxxxxxxxxxxxxxxxxxxxxxxxxxxxxxxxxxxxxxxxxxxxxxxxxxxxxx",
"xxxxxxxxxxxxxxxxxxxxxxxxxxxxxxxxxxxxxxxxxxxxxxxxxxxxxxxxxxxxxxxxxxxxxxxxxxxxxxxxxxxxxxxxxxxxxxxxxxxxxxxxxxxxxxxxxxxxxxxxxxxxxxxx",
"xxxxxxxxxxxxxxxxxxxxxxxxxxxxxxxxxxxxxxxxxxxxxxxxxxxxxxxxxxxxxxxxxxxxxxxxxxxxxxxxxxxxxxxxxxxxxxxxxxxxxxxxxxxxxxxxxxxxxxxxxxxxxxxx",
"xxxxxxxxxxxxxxxxxxxxxxxxxxxxxxxxxxxxxxxxxxxxxxxxxxxxxxxxxxxxxxxxxxxxxxxxxxxxxxxxxxxxxxxxxxxxxxxxxxxxxxxxxxxxxxxxxxxxxxxxxxxxxxxx",
"xxxxxxxxxxxxxxxxxxxxxxxxxxxxxxxxxxxxxxxxxxxxxxxxxxxxxxxxxxxxxxxxxxxxxxxxxxxxxxxxxxxxxxxxxxxxxxxxxxxxxxxxxxxxxxxxxxxxxxxxxxxxxxxx",
"xxxxxxxxxxxxxxxxxxxxxxxxxxxxxxxxxxxxxxxxxxxxxxxxxxxxxxxxxxxxxxxxxxxxxxxxxxxxxxxxxxxxxxxxxxxxxxxxxxxxxxxxxxxxxxxxxxxxxxxxxxxxxxxx",
"xxxxxxxxxxxxxxxxxxxxxxxxxxxxxxxxxxxxxxxxxxxxxxxxxxxxxxxxxxxxxxxxxxxxxxxxxxxxxxxxxxxxxxxxxxxxxxxxxxxxxxxxxxxxxxxxxxxxxxxxxxxxxxxx",
"xxxxxxxxxxxxxxxxxxxxxxxxxxxxxxxxxxxxxxxxxxxxxxxxxxxxxxxxxxxxxxxxxxxxxxxxxxxxxxxxxxxxxxxxxxxxxxxxxxxxxxxxxxxxxxxxxxxxxxxxxxxxxxxx",
"xxxxxxxxxxxxxxxxxxxxxxxxxxxxxxxxxxxxxxxxxxxxxxxxxxxxxxxxxxxxxxxxxxxxxxxxxxxxxxxxxxxxxxxxxxxxxxxxxxxxxxxxxxxxxxxxxxxxxxxxxxxxxxxx",
"xxxxxxxxxxxxxxxxxxxxxxxxxxxxxxxxxxxxxxxxxxxxxxxxxxxxxxxxxxxxxxxxxxxxxxxxxxxxxxxxxxxxxxxxxxxxxxxxxxxxxxxxxxxxxxxxxxxxxxxxxxxxxxxx",
"xxxxxxxxxxxxxxxxxxxxxxxxxxxxxxxxxxxxxxxxxxxxxxxxxxxxxxxxxxxxxxxxxxxxxxxxxxxxxxxxxxxxxxxxxxxxxxxxxxxxxxxxxxxxxxxxxxxxxxxxxxxxxxxx",
"xxxxxxxxxxxxxxxxxxxxxxxxxxxxxxxxxxxxxxxxxxxxxxxxxxxxxxxxxxxxxxxxxxxxxxxxxxxxxxxxxxxxxxxxxxxxxxxxxxxxxxxxxxxxxxxxxxxxxxxxxxxxxxxx",
"xxxxxxxxxxxxxxxxxxxxxxxxxxxxxxxxxxxxxxxxxxxxxxxxxxxxxxxxxxxxxxxxxxxxxxxxxxxxxxxxxxxxxxxxxxxxxxxxxxxxxxxxxxxxxxxxxxxxxxxxxxxxxxxx",
"xxxxxxxxxxxxxxxxxxxxxxxxxxxxxxxxxxxxxxxxxxxxxxxxxxxxxxxxxxxxxxxxxxxxxxxxxxxxxxxxxxxxxxxxxxxxxxxxxxxxxxxxxxxxxxxxxxxxxxxxxxxxxxxx",
"xxxxxxxxxxxxxxxxxxxxxxxxxxxxxxxxxxxxxxxxxxxxxxxxxxxxxxxxxxxxxxxxxxxxxxxxxxxxxxxxxxxxxxxxxxxxxxxxxxxxxxxxxxxxxxxxxxxxxxxxxxxxxxxx"
};
