/* XPM */
static char *uextras[] = {
/* columns rows colors chars-per-pixel */
"128 128 52 1",
"  c #000100010001",
". c #2CEF2CEF2CEF",
"X c #3B713B713B71",
"o c #548554855485",
"O c #6BEB6BEB6BEB",
"+ c #734A734A734A",
"@ c #8A2A8A2A8A2A",
"# c #9C719C719C71",
"$ c #A921A921A921",
"% c #B60BB60BB60B",
"& c #BBE3BEAABBE3",
"* c #C2A7C2A7C2A7",
"= c #CB29CB29CB29",
"- c #D099CF8DCF8D",
"; c #D39FD39FD39F",
": c #D849D679D849",
"> c #D763D763D849",
", c #DC82DBB2DBB2",
"< c #E10CE1C0E10C",
"1 c #E46CE46CE3C6",
"2 c #E6E1E6E1E6E1",
"3 c #E809E924E809",
"4 c #EB37EB37EB37",
"5 c #ECFBECCBED1E",
"6 c #EEDDEEDDEEDD",
"7 c #F013F013F076",
"8 c #F076F013F076",
"9 c #F013F076F076",
"0 c #F193F193F193",
"q c #F324F326F311",
"w c #F47FF47FF47F",
"e c #F59EF558F558",
"r c #F558F59EF558",
"t c #F59EF59EF558",
"y c #F558F558F59E",
"u c #F59EF558F59E",
"i c #F558F59EF59E",
"p c #F6A4F6A4F6A4",
"a c #F794F794F75A",
"s c #F83AF83AF83A",
"d c #F910F911F932",
"f c #F9EEF9EEF9EE",
"g c #FA94FA6CFA6C",
"h c #FA6CFA94FA6C",
"j c #FA94FA94FA6C",
"k c #FA94FA6CFA94",
"l c #FB2CFB2CFB2C",
"z c #FBB7FB73FB73",
"x c #FC1BFC03FC1D",
"c c #FD06FD05FD05",
"v c #FE02FE03FE03",
"b c None",
/* pixels */
"bbbbbbbbbbbbbbbbbbbbbbbbbbbbbbbbbbbbbbbbbbbbbbbbbbbbbbbbbbbbbbbbbbbbbbbbbbbbbbbbbbbbbbbbbbbbbbbbbbbbbbbbbbbbbbbbbbbbbbbbbbbbbbbb",
"bbbbbbbbbbbbbbbbbbbbbbbbbbbbbbbbbbbbbbbbbbbbbbbbbbbbbbbbbbbbbbbbbbbbbbbbbbbbbbbbbbbbbbbbbbbbbbbbbbbbbbbbbbbbbbbbbbbbbbbbbbbbbbbb",
"bbbbbbbbbbbbbbbbbbbbbbbbbbbbbbbbbbbbbbbbbbbbbbbbbbbbbbbbbbbbbbbbbbbbbbbbbbbbbbbbbbbbbbbbbbbbbbbbbbbbbbbbbbbbbbbbbbbbbbbbbbbbbbbb",
"bbbbbbbbbbbbbbbbbbbbbbbbbbbbbbbbbbbbbbbbbbbbbbbbbbbbbbbbbbbbbbbbbbbbbbbbbbbbbbbbbbbbbbbbbbbbbbbbbbbbbbbbbbbbbbbbbbbbbbbbbbbbbbbb",
"bbbbbbbbbbbbbbbbbbbbbbbbbbbbbbbbbbbbbbbbbbbbbbbbbbbbbbbbbbbbbbbbbbbbbbbbbbbbbbbbbbbbbbbbbbbbbbbbbbbbbbbbbbbbbbbbbbbbbbbbbbbbbbbb",
"bbbbbbbbbbbbbbbbbbbbbbbbbbbbbbbbbbbbbbbbbbbbbbbbbbbbbbbbbbbbbbbbbbbbbbbbbbbbbbbbbbbbbbbbbbbbbbbbbbbbbbbbbbbbbbbbbbbbbbbbbbbbbbbb",
"bbbbbbbbbbbbbbbbbbbbbbbbbbbbbbbbbbbbbbbbbbbbbbbbbbbbbbbbbbbbbbbbbbbbbbbbbbbbbbbbbbbbbbbbbbbbbbbbbbbbbbbbbbbbbbbbbbbbbbbbbbbbbbbb",
"bbbbbbbbbbbbbbbbbbbbbbbbbbbbbbbbbbbbbbbbbbbbbbbbbbbbbbbbbbbbbbbbbbbbbbbbbbbbbbbbbbbbbbbbbbbbbbbbbbbbbbbbbbbbbbbbbbbbbbbbbbbbbbbb",
"bbbbbbbbbbbbbbbbbbbbbbbbbbbbbbbbbbbbbbbbbbbbbbbbbbbbbbbbbbbbbbbbbbbbbbbbbbbbbbbbbbbbbbbbbbbbbbbbbbbbbbbbbbbbbbbbbbbbbbbbbbbbbbbb",
"bbbbbbbbbbbbbbbbbbbbbbbbbbbbbbbbbbbbbbbbbbbbbbbbbbbbbbbbbbbbbbbbbbbbbbbbbbbbbbbbbbbbbbbbbbbbbbbbbbbbbbbbbbbbbbbbbbbbbbbbbbbbbbbb",
"bbbbbbbbbbbbbbbbbbbbbbbbbbbbbbbbbbbbbbbbbbbbbbbbbbbbbbbbbbbbbbbbbbbbbbbbbbbbbbbbbbbbbbbbbbbbbbbbbbbbbbbbbbbbbbbbbbbbbbbbbbbbbbbb",
"bbbbbbbbbbbbbbbbbbbbbbbbbbbbbbbbbbbbbbbbbbbbbbbbbbbbbbbbbbbbbbbbbbbbbbbbbbbbbbbbbbbbbbbbbbbbbbbbbbbbbbbbbbbbbbbbbbbbbbbbbbbbbbbb",
"bbbbbbbbbbbbbbbbbbbbbbbbbbbbbbbbbbbbbbbbbbbbbbbbbbbbbbbbbbbbbbbbbbbbbbbbbbbbbbbbbbbbbbbbbbbbbbbbbbbbbbbbbbbbbbbbbbbbbbbbbbbbbbbb",
"bbbbbbbbbbbbbbbbbbbbbbbbbbbbbbbbbbbbbbbbbbbbbbbbbbbbbbbbbbbbbbbbbbbbbbbbbbbbbbbbbbbbbbbbbbbbbbbbbbbbbbbbbbbbbbbbbbbbbbbbbbbbbbbb",
"bbbbbbbbbbbbbbbbbbbbbbbbvvvvvvvvvvvvvvvvbbbbbbbbbbbbbbbbbbbbbbbbbbbbbbbbbbbbbbbbbvvvvvvvvvvvvvvvvbbbbbbbbbbbbbbbbbbbbbbbbbbbbbbb",
"bbbbbbbbbbbbbbbbbbbbbbbbvvvvvvvvvvvvvvvvbbbbbbbbbbbbbbbbbbbbbbbbbbbbbbbbbbbbbbbbbvvvvvvvvvvvvvvvvbbbbbbbbbbbbbbbbbbbbbbbbbbbbbbb",
"bbbbbbbbbbbbbbbbbbbbbbbbvvvvvvvvvvvvvvvvbbbbbbbbbbbbbbbbbbbbbbbbbbbbbbbbbbbbbbbbbvvvvvvvvvvvvvvvvbbbbbbbbbbbbbbbbbbbbbbbbbbbbbbb",
"bbbbbbbbbbbbbbbbbbbbbbbbvvvvvvvvvvvvvvvvbbbbbbbbbbbbbbbbbbbbbbbbbbbbbbbbbbbbbbbbbvvvvvvvvvvvvvvvvbbbbbbbbbbbbbbbbbbbbbbbbbbbbbbb",
"bbbbbbbbbbbbbbbbbbbbbbbbvvvvvvvvvvvvvvvvbbbbbbbbbbbbbbbbbbbbbbbbbbbbbbbbbbbbbbbbbvvvvvvvvvvvvvvvvbbbbbbbbbbbbbbbbbbbbbbbbbbbbbbb",
"bbbbbbbbbbbbbbbbbbbbbbbbvvvvvvvvvvvvvvvvbbbbbbbbbbbbbbbbbbbbbbbbbbbbbbbbbbbbbbbbbvvvvvvvvvvvvvvvvbbbbbbbbbbbbbbbbbbbbbbbbbbbbbbb",
"bbbbbbbbbbbbbbbbbbbbbbbbvvvvvvvvvcvvvvvvbbbbbbbbbbbbbbbbbbbbbbbbbbbbbbbbbbbbbbbbbvvvvvvvvvvvvvvvvbbbbbbbbbbbbbbbbbbbbbbbbbbbbbbb",
"bbbbbbbbbbbbbbbbbbbbbbbbvvvvvvvvvvvvcvvcbbbbbbbbbbbbbbbbbbbbbbbbbbbbbbbbbbbbbbbbbvvvvvvvvvxvvvvvvbbbbbbbbbbbbbbbbbbbbbbbbbbbbbbb",
"bbbbbbbbbbbbbbbbbbbbbbbbvvvvvvvvvvvvvvvvbbbbbbbbbbbbbbbbbbbbbbbbbbbbbbbbbbbbbbbbbvvvvvvvvvvvcvcvvbbbbbbbbbbbbbbbbbbbbbbbbbbbbbbb",
"bbbbbbbbbbbbbbbbbbbbbbbbvvvvvvvvvcvcvvvvbbbbbbbbbbbbbbbbbbbbbbbbbbbbbbbbbbbbbbbbbvvvvvvvcvvcvvvvvbbbbbbbbbbbbbbbbbbbbbbbbbbbbbbb",
"bbbbbbbbbbbbbbbbbbbbbbbbvvvvvxvvccvvcvvcbbbbbbbbbbbbbbbbbbbbbbbbbbbbbbbbbbbbbbbbbvvvvvvxvvxvvvvvvbbbbbbbbbbbbbbbbbbbbbbbbbbbbbbb",
"bbbbbbbbbbbbbbbbbbbbbbbbvvvvvvvxvvvvvcvcbbbbbbbbbbbbbbbbbbbbbbbbbbbbbbbbbbbbbbbbbvvvvvvvvvcvvvxvvbbbbbbbbbbbbbbbbbbbbbbbbbbbbbbb",
"bbbbbbbbbbbbbbbbbbbbbbbbxvxxvvvvvcvvxvxvbbbbbbbbbbbbbbbbbbbbbbbbbbbbbbbbbbbbbbbbbvvxxvvxxvvvvxvvvbbbbbbbbbbbbbbbbbbbbbbbbbbbbbbb",
"bbbbbbbbbbbbbbbbbbbbbbbbvvvvxcvxvvcxvvvvbbbbbbbbbbbbbbbbbbbbbbbbbbbbbbbbbbbbbbbbbvvxvxvvcvvxvcccvbbbbbbbbbbbbbbbbbbbbbbbbbbbbbbb",
"bbbbbbbbbbbbbbbbbbbbbbbbxcvxvcvxvcvvvvvvbbbbbbbbbbbbbbbbbbbbbbbbbbbbbbbbbbbbbbbbbvvxvvvvvcvcvxvvvbbbbbbbbbbbbbbbbbbbbbbbbbbbbbbb",
"bbbbbbbbbbbbbbbbbbbbbbbbvvcvcvxvxvccvvvvbbbbbbbbbbbbbbbbbbbbbbbbbbbbbbbbbbbbbbbbbxvxvxxvxvcxxvxvvbbbbbbbbbbbbbbbbbbbbbbbbbbbbbbb",
"bbbbbbbbbbbbbbbbbbbbbbbbccxvxvvvvxxvxvvvbbbbbbbbbbbbbbbbbbbbbbbbbbbbbbbbbbbbbbbbbxvvxvxvxxvvvvxxvbbbbbbbbbbbbbbbbbbbbbbbbbbbbbbb",
"bbbbbbbbbbbbbbbbbbbbbbbbvcccvccxvxvxvxvvbbbbbbbbbbbbbbbbbbbbbbbbbbbbbbbbbbbbbbbbbvvxccvxvvxvxvcvvbbbbbbbbbbbbbbbbbbbbbbbbbbbbbbb",
"bbbbbbbbbbbbbbbbbbbbbbbbvxvxxcccxvxvccccbbbbbbbbbbbbbbbbbbbbbbbbbbbbbbbbbbbbbbbbbcccccccxcccccccxbbbbbbbbbbbbbbbbbbbbbbbbbbbbbbb",
"bbbbbbbbbbbbbbbbbbbbbbbbxvxvvxccvxcxcxccbbbbbbbbbbbbbbbbbbbbbbbbbbbbbbbbbbbbbbbbbccccxccccccccccvbbbbbbbbbbbbbbbbbbbbbbbbbbbbbbb",
"bbbbbbbbbbbbbbbbbbbbbbbbxcvxxvxvvxccxvccbbbbbbbbbbbbbbbbbbbbbbbbbbbbbbbbbbbbbbbbbvcccxcccccccccxxbbbbbbbbbbbbbbbbbbbbbbbbbbbbbbb",
"bbbbbbbbbbbbbbbbbbbbbbbbvxxvxvxxxxvxxvxcbbbbbbbbbbbbbbbbbbbbbbbbbbbbbbbbbbbbbbbbbxcxcccccxxccxccvbbbbbbbbbbbbbbbbbbbbbbbbbbbbbbb",
"bbbbbbbbbbbbbbbbbbbbbbbbxxxxvxvxxvvxxxxxbbbbbbbbbbbbbbbbbbbbbbbbbbbbbbbbbbbbbbbbbxxxccccxcxvxcxcvbbbbbbbbbbbbbbbbbbbbbbbbbbbbbbb",
"bbbbbbbbbbbbbbbbbbbbbbbbvxxxxcxxxxvxxvvxbbbbbbbbbbbbbbbbbbbbbbbbbbbbbbbbbbbbbbbbbvxvxcxxcxxxcccxxbbbbbbbbbbbbbbbbbbbbbbbbbbbbbbb",
"bbbbbbbbbbbbbbbbbbbbbbbbxxcvvxxxxvxxxvxxbbbbbbbbbbbbbbbbbbbbbbbbbbbbbbbbbbbbbbbbbvxxcxcccxcxcxxxxbbbbbbbbbbbbbbbbbbbbbbbbbbbbbbb",
"bbbbbbbbbbbbbbbbbbbbbbbbxcxxxxxvxxxxxxxxbbbbbbbbbbbbbbbbbbbbbbbbbbbbbbbbbbbbbbbbbxxxxxxxxcxxxxcxxbbbbbbbbbbbbbbbbbbbbbbbbbbbbbbb",
"bbbbbbbbbbbbbbbbbbbbbbbbxxxxxxxxxxxxxxxxbbbbbbbbbbbbbbbbbbbbbbbbbbbbbbbbbbbbbbbbbxxxxxxxxxxxxxxxxbbbbbbbbbbbbbbbbbbbbbbbbbbbbbbb",
"bbbbbbbbbbbbbbbbbbbbbbbbxxxxxxxxxxxxxxxxbbbbbbbbbbbvvvvvvvvvvvbbbbbbbbbbbbbbbbbbbxxxxxxxxxxxxxxxxbbbbbbbbbbbbbbbbbbbbbbbbbbbbbbb",
"bbbbbbbbbbbbbbbbbbbbbbbbxxxxxxxxxxxxxxxxbbbbbbbbbbvvvvvvvvvvvvvvvbbbbbbbbbbbbbbbbxxvxcxxxxxxxxxxxbbbbbbbbbbbbbbbbbbbbbbbbbbbbbbb",
"bbbbbbbbbbbbbbbbbbbbbbbbxxxxxxxxxxxxxxxxbbbbbbbbbbvvvvvvvvvvvvvvvvvbbbbbbbbbbbbbbxxxxxxxxxxxxxxxxbbbbbbbbbbbbbbbbbbbbbbbbbbbbbbb",
"bbbbbbbbbbbbbbbbbbbbbbbbxxxxxxxxxxxxxxxxbbbbbbbbbbb3vvvvvvvvvvvvvvvvvbbbbbbbbbbbbxxxxxxxxxxxxxxxxbbbbbbbbbbbbbbbbbbbbbbbbbbbbbbb",
"bbbbbbbbbbbbbbbbbbbbbbbbxxxxsxxxxxxxxxxxbbbbbbbbbbb bvvvvvvvvvvvvvvvvvbbbbbbbbbbbxxxxxxxxxxxxxxxxbbbbbbbbbbbbbbbbbbbbbbbbbbbbbbb",
"bbbbbbbbbbbbbbbbbbbbbbbbxhxxxxxxxxxxxxxxbbbbbbbbbbbb  ,vvvvvvvvvvvvvvvvbbbbbbbbbbxxxxxxxxxxxxsxxxbbbbbbbbbbbbbbbbbbbbbbbbbbbbbbb",
"bbbbbbbbbbbbbbbbbbbbbbbbxxxxxxhxxxxsxxxxbbbbbbbbbbbbbb.bxvvvvvcvvvvvvvvvbbbbbbbbbxxxsxxxsxxxxxxxxbbbbbbbbbbbbbbbbbbbbbbbbbbbbbbb",
"bbbbbbbbbbbbbbbbbbbbbbbbxxxxxxxhxxxsxxxxbbbbbbbbbbbbbbbb =vvvvvvvvvvvvvvbbbbbbbbbxxxxxxsxxsxsxxsxbbbbbbbbbbbbbbbbbbbbbbbbbbbbbbb",
"bbbbbbbbbbbbbbbbbbbbbbbbsxxssxxxxsxxxxxsbbbbbbbbbbbbbbbbb b<vvvvvvvvcvvvbbbbbbbbbxxxxsxxxxxxxxxxxbbbbbbbbbbbbbbbbbbbbbbbbbbbbbbb",
"bbbbbbbbbbbbbbbbbbbbbbbbxxxxxhxxxxxxhxxxbbbbbbbbbbbbbbbbbbb ,vvvvvvvvvvxxbbbbbbbbxxxxxxxxsxdsxsxxbbbbbbbbbbbbbbbbbbbbbbbbbbbbbbb",
"bbbbbbbbbbbbbbbbbbbbbbbbxsxsxxsxxsxsxxxsbbbbbbbbbbbbbbbbbbbb#vvvvvvvvvvvvbbbbbbbbxsxxdxsxxxxxxxxxbbbbbbbbbbbbbbbbbbbbbbbbbbbbbbb",
"bbbbbbbbbbbbbbbbbbbbbbbbxxsxxxxxhxxxsxhsbbbbvxbbbbbbbbbbbbbbbvvvvvvvxvvvvbbbbbbbbxxsxsxsxsxxsxxxxbbbbbbbbbbbbbbbbbbbbbbbbbbbbbbb",
"bbbbbbbbbbbbbbbbbbbbbbbbsxxxsxsxhhhsxxxxbbbbvvvvbbbbbbbbbbbbbxxvxvvvxvxvvbbbbbbbbxxxxxxxxxxssxsxxbbbbbbbbbbbbbbbbbbbbbbbbbbbbbbb",
"bbbbbbbbbbbbbbbbbbbbbbbbxxxxxxxsxsxxxssxbbbbxvvxvbbbbbbbbbbbsvvcvxvxvvxvxbbbbbbbbxxssxsxsxxxxxsxxbbbbbbbbbbbbbbbbbbbbbbbbbbbbbbb",
"bbbbbbbbbbbbbbbbbbbbbbbbsxssxsxshxsxhxxsbbbbvxvxvvvbbbbbbbbbxvxvxvxvxvxvvbbbbbbbbxsxxsxsxssxsxxsxbbbbbbbbbbbbbbbbbbbbbbbbbbbbbbb",
"bbbbbbbbbbbbbbbbbbbbbbbbxsxssxsxhhhsxsxxbbbbwvxvxxvxxbbbbbbxcxvxvxxvxvxvxbbbbbbbbxxsxsxxxsxsxsxsxbbbbbbbbbbbbbbbbbbbbbbbbbbbbbbb",
"bbbbbbbbbbbbbbbbbbbbbbbbxxsxxsxshhxhshhsbbbbbvcxxvxvxcbbbbbxccxvxxvxvxcvbbbbbbbbbxsxsxsxxsxxsxsxxbbbbbbbbbbbbbbbbbbbbbbbbbbbbbbb",
"bbbbbbbbbbbbbbbbbbbbbbbbxsxssxsxhxshsxsxbbbbbcvxccccxcxvxxvxxcxvvxxvxxxxbbbbbbbbbxsxxsxssxxsxsxsxbbbbbbbbbbbbbbbbbbbbbbbbbbbbbbb",
"bbbbbbbbbbbbbbbbbbbbbbbbsxsxxsxssshhxsxsbbbbbbxvxxcxvxxxvvxxxvxxxxxxvcxvbbbbbbbbbsxssxsxsssxsxsxsbbbbbbbbbbbbbbbbbbbbbbbbbbbbbbb",
"bbbbbbbbbbbbbbbbbbbbbbbbxsssxssxxssxsxsxbbbbbb<xxcvxxxxxxxvxxvxvcvxxxxxxbbbbbbbbbxsxsxxsxsxsssxsxbbbbbbbbbbbbbbbbbbbbbbbbbbbbbbb",
"bbbbbbbbbbbbbbbbbbbbbbbbsxxssxxshhxshshsbbbbbbbxxxxxxvvxxxxxxxxxxxxxxxxsbbbbbbbbbxxsxssxsxxsxssxxbbbbbbbbbbbbbbbbbbbbbbbbbbbbbbb",
"bbbbbbbbbbbbbbbbbbbbbbbbsssxsxsxsxsxssxxbbbbbbbbxxxxxxxxxxxxxxxxxxxxxxxsbbbbbbbbbxsxssxssssxsxsxsbbbbbbbbbbbbbbbbbbbbbbbbbbbbbbb",
"bbbbbbbbbbbbbbbbbbbbbbbbsxxsxssshssssxssbbbbbbbbb2xxxxxxxxxxxxxxxxxxxxxxbbbbbbbbbsssxsssxxssxsssxbbbbbbbbbbbbbbbbbbbbbbbbbbbbbbb",
"bbbbbbbbbbbbbbbbbbbbbbbbssssxsxssssxsxsxbbbbbbbbb ;xxxxxxxxxxxxxxxxxxxxxbbbbbbbbbxsxsssssxsssxsxsbbbbbbbbbbbbbbbbbbbbbbbbbbbbbbb",
"bbbbbbbbbbbbbbbbbbbbbbbbssxsssssssxsssssbbbbbbbbbb bxxxxxxxxxxsxxxxxxxxxbbbbbbbbbsssssxssssxsxssxbbbbbbbbbbbbbbbbbbbbbbbbbbbbbbb",
"bbbbbbbbbbbbbbbbbbbbbbbbxssxssxssxsssxssbbbbbbbbbbb b;xxsxxxxxxxxxxxxxxxbbbbbbbbbxddxssxsssssssxsbbbbbbbbbbbbbbbbbbbbbbbbbbbbbbb",
"bbbbbbbbbbbbbbbbbbbbbbbbsssssxsssssssssxbbbbbbbbbbbbb b6xxsxxxxxsxxxxsxxxbbbbbbbbsssssssssxssssssbbbbbbbbbbbbbbbbbbbbbbbbbbbbbbb",
"bbbbbbbbbbbbbbbbbbbbbbbbsssdssssssssssssbbbbbbbbbbbbbbb *xxxsxxxxxxxxxxsxxbbbbbbbxsssssssssssssssbbbbbbbbbbbbbbbbbbbbbbbbbbbbbbb",
"bbbbbbbbbbbbbbbbbbbbbbbbssssssssssssssssbbbbbbbbbbbbbbbb b;xxxxssxsxxsxxxxxbbbbbbssssssssssssssssbbbbbbbbbbbbbbbbbbbbbbbbbbbbbbb",
"bbbbbbbbbbbbbbbbbbbbbbbbssssssssssssssssbbbbbbbbbbbbbbbbbb bsxxxxsxxsxsxsxxbbbbbbxsssssssssssssssbbbbbbbbbbbbbbbbbbbbbbbbbbbbbbb",
"bbbbbbbbbbbbbbbbbbbbbbbbsssssssssssssssxbbbbbbbbbbbbbbbbbbb b=sxxxsxxxxsxsxxbbbbbssssssssssssssssbbbbbbbbbbbbbbbbbbbbbbbbbbbbbbb",
"bbbbbbbbbbbbbbbbbbbbbbbbswsssssssssswsssbbbbbbbbbbbbbbbbbbbbb b6sxxsxxsxxsxssbbbbxssswswsssssssssbbbbbbbbbbbbbbbbbbbbbbbbbbbbbbb",
"bbbbbbbbbbbbbbbbbbbbbbbbssssswwsssssssswbbbbbbbbbbbbbbbbbbbbbbb %sxxssxssxxsxsbbbssssssssswssswssbbbbbbbbbbbbbbbbbbbbbbbbbbbbbbb",
"bbbbbbbbbbbbbbbbbbbbbbbbwswsswssssssssssbbbbbbbbbbbbbbbbbbbbbbbb &xssxsxxxxxsxsbbsswsssswsswsssssbbbbbbbbbbbbbbbbbbbbbbbbbbbbbbb",
"bbbbbbbbbbbbbbbbbbbbbbbbssssssssswswwswsbbbbbbbbbbbbbbbbbbbbbbbbb ;sxsxsssssxsx69wsswswsssssswsssbbbbbbbbbbbbbbbbbbbbbbbbbbbbbbb",
"bbbbbbbbbbbbbbbbbbbbbbbbswsssswswsspsspp0bbbbbbbbbbbbbbbbbbbbbbbbb 6xsxxsxsxssxsswsswswswssssswssbbbbbbbbbbbbbbbbbbbbbbbbbbbbbbb",
"bbbbbbbbbbbbbbbbbbbbbbbbsssw0sswsswswssp0bbbbbbbbbbbbbbbbbbbbbbbbbbbssssxssssxsssswsssswswswswswsbbbbbbbbbbbbbbbbbbbbbbbbbbbbbbb",
"bbbbbbbbbbbbbbbbbbbbbbbbswssssssppppswws0bbbbbbbbbbbbbbbbbbbbbbbbbbbbxsxssxsxssxsswsppssswwswsswsbbbbbbbbbbbbbbbbbbbbbbbbbbbbbbb",
"bbbbbbbbbbbbbbbbbbbbbbbbss0s0s0spppswsswsbbbbbbbbbbbbbbbbbbbbbbbbbbbb*ssssssssssxsswwpwswsswswsssbbbbbbbbbbbbbbbbbbbbbbbbbbbbbbb",
"bbbbbbbbbbbbbbbbbbbbbbb#ss0ss0sspwswsswwsbbbbbbbbbbbbbbbbbbbbbbbbbbbb :sssssxsssssss0ss0sswwsw0ssbbbbbbbbbbbbbbbbbbbbbbbbbbbbbbb",
"bbbbbbbbbbbbbbbbbbbbbbbbss0sssswwswswswssbbbbbbbbbbbbbbbbbbbbbbbbbbbbbbsssssssssssssswwswwwswssssbbbbbbbbbbbbbbbbbbbbbbbbbbbbbbb",
"bbbbbbbbbbbbbbbbbbbbbbbbwssss00sswwsswsww9bbbbbbbbbbbbbbbbbbbbbbbbbbbbbbssssssssssssswwssss0ws0s0bbbbbbbbbbbbbbbbbbbbbbbbbbbbbbb",
"bbbbbbbbbbbbbbbbbbbbbbbb50s0s0sswswwwwwss0bbbbbbbbbbbbbbbbbbbbbbbbbbbbbb%ssssssssssssss0wwwswss00bbbbbbbbbbbbbbbbbbbbbbbbbbbbbbb",
"bbbbbbbbbbbbbbbbbbbbbbbb40s0s0s0wwswwwww0sbbbbbbbbbbbbbbbbbbbbbbbbbbbbbb =ssssssssssswswwwsswwws6bbbbbbbbbbbbbbbbbbbbbbbbbbbbbbb",
"bbbbbbbbbbbbbbbbbbbbbbbb=swswss0ws0wwwww0sbbbbbbbbbbbbbbbbbbbbbbbbbbbbbbb 2sswsssswsssssww0wwwwwbbbbbbbbbbbbbbbbbbbbbbbbbbbbbbbb",
"bbbbbbbbbbbbbbbbbbbbbbbb@sw0w0wswwssswsss00bbbbbbbbbbbbbbbbbbbbbbbbbbbbbbbbwswswwsswwswss0wwswwwbbbbbbbbbbbbbbbbbbbbbbbbbbbbbbbb",
"bbbbbbbbbbbbbbbbbbbbbbbbb00swss0sw0w0w0w0ssbbbbbbbbbbbbbbbbbbbbbbbbbbbbbbbb#0swsswwssswswswwwwwwbbbbbbbbbbbbbbbbbbbbbbbbbbbbbbbb",
"bbbbbbbbbbbbbbbbbbbbbbbbb2s0wwwwwww0wwwws000bbbbbbbbbbbbbbbbbbbbbbbbbbbbbbb %wswwswsswswss00www6bbbbbbbbbbbbbbbbbbbbbbbbbbbbbbbb",
"bbbbbbbbbbbbbbbbbbbbbbbbb=0swww0wwwswwww0ss0bbbbbbbbbbbbbbbbbbbbbbbbbbbbbbbbo1sswsswwsws0sss0wwbbbbbbbbbbbbbbbbbbbbbbbbbbbbbbbbb",
"bbbbbbbbbbbbbbbbbbbbbbbbbb0w0s0sw0w00ss00s0s0bbbbbbbbbbbbbbbbbbbbbbbbbbbbbbb%;wsswwwsw0sssww00wbbbbbbbbbbbbbbbbbbbbbbbbbbbbbbbbb",
"bbbbbbbbbbbbbbbbbbbbbbbbbb20w0w0wwww000ww00ws0bbbbbbbbbbbbbbbbbbbbbbbbbbbbb::*<0wswswswsww0ss02bbbbbbbbbbbbbbbbbbbbbbbbbbbbbbbbb",
"bbbbbbbbbbbbbbbbbbbbbbbbbb%0ww0s0w0s00www0w00s8bbbbbbbbbbbbbbbbbbbbbbbbbbb662;%<wwswwwwwwwswww<bbbbbbbbbbbbbbbbbbbbbbbbbbbbbbbbb",
"bbbbbbbbbbbbbbbbbbbbbbbbbb 2w00ww0000s0wsw0w0000bbbbbbbbbbbbbbbbbbbbbbbbb0w06<=%,s0wwwwwwwwwww6bbbbbbbbbbbbbbbbbbbbbbbbbbbbbbbbb",
"bbbbbbbbbbbbbbbbbbbbbbbbbbb%000w000ww00w0000w00s00bbbbbbbbbbbbbbbbbbbbb00s8006<*$4wsw0wswwwwwww6bbbbbbbbbbbbbbbbbbbbbbbbbbbbbbbb",
"bbbbbbbbbbbbbbbbbbbbbbbbbbb 2w00ww0000w000w000000s000bbbbbbbbbbbbbbb00000000062,*,900sw0w0wwww0w0bbbbbbbbbbbbbbbbbbbbbbbbbbbbbbb",
"bbbbbbbbbbbbbbbbbbbbbbbbbbbbb000000000w0w00000000w0000w00bbbbbbb80000w0000000062>%,0w0www00w0s0000bbbbbbbbbbbbbbbbbbbbbbbbbbbbbb",
"bbbbbbbbbbbbbbbbbbbbbbbbbbbb =000000000000000000000000000000000000000000000000841-%,ww00wwww00w000bbbbbbbbbbbbbbbbbbbbbbbbbbbbbb",
"bbbbbbbbbbbbbbbbbbbbbbbbbbbbb :90000000000000000000000000000000000000000000000085<=$<00w0ww0w00ss00bbbbbbbbbbbbbbbbbbbbbbbbbbbbb",
"bbbbbbbbbbbbbbbbbbbbbbbbbbbbb O090000000000000000000000000900000000000000008000863,*;0000000w0000000bbbbbbbbbbbbbbbbbbbbbbbbbbbb",
"bbbbbbbbbbbbbbbbbbbbbbbbbbbbbb $090090990090600007900007880080880088888009000088952;%,000000000000000bbbbbbbbbbbbbbbbbbbbbbbbbbb",
"bbbbbbbbbbbbbbbbbbbbbbbbbbbbbbb $698909008000060809000709980808888908808000690909651=%:000000000000000bbbbbbbbbbbbbbbbbbbbbbbbbb",
"bbbbbbbbbbbbbbbbbbbbbbbbbbbbbbb  $89990006066000880960608999098899999997880899989663,=#*600000090000000bbbbbbbbbbbbbbbbbbbbbbbbb",
"bbbbbbbbbbbbbbbbbbbbbbbbbbbbbbbb  $68867606066666866060699999977999999876888688999662;o =60009996060660bbbbbbbbbbbbbbbbbbbbbbbbb",
"bbbbbbbbbbbbbbbbbbbbbbbbbbbbbbbbb  o*00676666996896976796996779668686996776786996666*X  X266769670608686bbbbbbbbbbbbbbbbbbbbbbbb",
"bbbbbbbbbbbbbbbbbbbbbbbbbbbbbbbbbb   %666766666666666666666666666666666666666666666* bb  @666776666666686bbbbbbbbbbbbbbbbbbbbbbb",
"bbbbbbbbbbbbbbbbbbbbbbbbbbbbbbbbbbb   o*66666666666666666666666666666666666666666=o bbbbb $666666666666666bbbbbbbbbbbbbbbbbbbbbb",
"bbbbbbbbbbbbbbbbbbbbbbbbbbbbbbbbbbbbb   b,6666666666665666665666666666665666666,b bbbbbbbb -666666666666666bbbbbbbbbbbbbbbbbbbbb",
"bbbbbbbbbbbbbbbbbbbbbbbbbbbbbbbbbbbbbb    o%,66666666466666646566666666666646%O  bbbbbbbbbbb556464565566566bbbbbbbbbbbbbbbbbbbbb",
"bbbbbbbbbbbbbbbbbbbbbbbbbbbbbbbbbbbbbbbb     o%,5466566564665666464666646,%ob  bbbbbbbbbbbbbb54665555;=65545bbbbbbbbbbbbbbbbbbbb",
"bbbbbbbbbbbbbbbbbbbbbbbbbbbbbbbbbbbbbbbbbb      .+$;,,6464555555556,,:$O.    bbbbbbbbbbbbbbbb#455644$  b4455bbbbbbbbbbbbbbbbbbbb",
"bbbbbbbbbbbbbbbbbbbbbbbbbbbbbbbbbbbbbbbbbbbbb         .............        bbbbbbbbbbbbbbbbbb %66464bbb b644bbbbbbbbbbbbbbbbbbbb",
"bbbbbbbbbbbbbbbbbbbbbbbbbbbbbbbbbbbbbbbbbbbbbbbb                       bbbbbbbbbbbbbbbbbbbbbbbb,4644bbbbb444bbbbbbbbbbbbbbbbbbbb",
"bbbbbbbbbbbbbbbbbbbbbbbbbbbbbbbbbbbbbbbbbbbbbbbbbbbbbbb         bbbbbbbbbbbbbbbbbbbbbbbbbbbbbbbb2444;bbb4444bbbbbbbbbbbbbbbbbbbb",
"bbbbbbbbbbbbbbbbbbbbbbbbbbbbbbbbbbbbbbbbbbbbbbbbbbbbbbbbbbbbbbbbbbbbbbbbbbbbbbbbbbbbbbbbbbbbbbbbb4444324434bbbbbbbbbbbbbbbbbbbbb",
"bbbbbbbbbbbbbbbbbbbbbbbbbbbbbbbbbbbbbbbbbbbbbbbbbbbbbbbbbbbbbbbbbbbbbbbbbbbbbbbbbbbbbbbbbbbbbbbbb#32444433bbbbbbbbbbbbbbbbbbbbbb",
"bbbbbbbbbbbbbbbbbbbbbbbbbbbbbbbbbbbbbbbbbbbbbbbbbbbbbbbbbbbbbbbbbbbbbbbbbbbbbbbbbbbbbbbbbbbbbbbbb b;2422-bbbbbbbbbbbbbbbbbbbbbbb",
"bbbbbbbbbbbbbbbbbbbbbbbbbbbbbbbbbbbbbbbbbbbbbbbbbbbbbbbbbbbbbbbbbbbbbbbbbbbbbbbbbbbbbbbbbbbbbbbbbbb X++bbbbbbbbbbbbbbbbbbbbbbbbb",
"bbbbbbbbbbbbbbbbbbbbbbbbbbbbbbbbbbbbbbbbbbbbbbbbbbbbbbbbbbbbbbbbbbbbbbbbbbbbbbbbbbbbbbbbbbbbbbbbbbbbbbbbbbbbbbbbbbbbbbbbbbbbbbbb",
"bbbbbbbbbbbbbbbbbbbbbbbbbbbbbbbbbbbbbbbbbbbbbbbbbbbbbbbbbbbbbbbbbbbbbbbbbbbbbbbbbbbbbbbbbbbbbbbbbbbbbbbbbbbbbbbbbbbbbbbbbbbbbbbb",
"bbbbbbbbbbbbbbbbbbbbbbbbbbbbbbbbbbbbbbbbbbbbbbbbbbbbbbbbbbbbbbbbbbbbbbbbbbbbbbbbbbbbbbbbbbbbbbbbbbbbbbbbbbbbbbbbbbbbbbbbbbbbbbbb",
"bbbbbbbbbbbbbbbbbbbbbbbbbbbbbbbbbbbbbbbbbbbbbbbbbbbbbbbbbbbbbbbbbbbbbbbbbbbbbbbbbbbbbbbbbbbbbbbbbbbbbbbbbbbbbbbbbbbbbbbbbbbbbbbb",
"bbbbbbbbbbbbbbbbbbbbbbbbbbbbbbbbbbbbbbbbbbbbbbbbbbbbbbbbbbbbbbbbbbbbbbbbbbbbbbbbbbbbbbbbbbbbbbbbbbbbbbbbbbbbbbbbbbbbbbbbbbbbbbbb",
"bbbbbbbbbbbbbbbbbbbbbbbbbbbbbbbbbbbbbbbbbbbbbbbbbbbbbbbbbbbbbbbbbbbbbbbbbbbbbbbbbbbbbbbbbbbbbbbbbbbbbbbbbbbbbbbbbbbbbbbbbbbbbbbb",
"bbbbbbbbbbbbbbbbbbbbbbbbbbbbbbbbbbbbbbbbbbbbbbbbbbbbbbbbbbbbbbbbbbbbbbbbbbbbbbbbbbbbbbbbbbbbbbbbbbbbbbbbbbbbbbbbbbbbbbbbbbbbbbbb",
"bbbbbbbbbbbbbbbbbbbbbbbbbbbbbbbbbbbbbbbbbbbbbbbbbbbbbbbbbbbbbbbbbbbbbbbbbbbbbbbbbbbbbbbbbbbbbbbbbbbbbbbbbbbbbbbbbbbbbbbbbbbbbbbb",
"bbbbbbbbbbbbbbbbbbbbbbbbbbbbbbbbbbbbbbbbbbbbbbbbbbbbbbbbbbbbbbbbbbbbbbbbbbbbbbbbbbbbbbbbbbbbbbbbbbbbbbbbbbbbbbbbbbbbbbbbbbbbbbbb",
"bbbbbbbbbbbbbbbbbbbbbbbbbbbbbbbbbbbbbbbbbbbbbbbbbbbbbbbbbbbbbbbbbbbbbbbbbbbbbbbbbbbbbbbbbbbbbbbbbbbbbbbbbbbbbbbbbbbbbbbbbbbbbbbb"
};
