/* XPM */
static char *lock[] = {
/* columns rows colors chars-per-pixel */
"24 24 20 1",
"  c #000000",
". c #1D1D1D",
"X c #858585",
"o c #ACACAC",
"O c #B1B1B1",
"+ c #B7B7B7",
"@ c #BBBBBB",
"# c #C0C0C0",
"$ c #C6C6C6",
"% c #CBCBCB",
"& c #CFCFCF",
"* c #D4D4D4",
"= c #D5D5D5",
"- c #DADADA",
"; c #DDDDDD",
": c #DEDEDE",
"> c #E9E9E9",
", c #ECECEC",
"< c #F6F6F6",
"1 c None",
/* pixels */
"111111111111111111111111",
"111111111111111111111111",
"111111111111111111111111",
"111111111111111111111111",
"111111111111111111111111",
"111111111><<<<>111111111",
"111111111>.  .>111111111",
"111111111:1111:111111111",
"111111111-1111-111111111",
"111111111=1111=111111111",
"1111111:,&,,,,&,:1111111",
"1111111=%%%%%%%%=1111111",
"1111111$$$$$$$$$$1111111",
"1111111##########1111111",
"1111111@@@@@@@@@@1111111",
"1111111++++++++++1111111",
"1111111OOOOOOOOOO1111111",
"1111111XooooooooX1111111",
"11111111        11111111",
"111111111111111111111111",
"111111111111111111111111",
"111111111111111111111111",
"111111111111111111111111",
"111111111111111111111111"
};
