/* XPM */
static char *top[] = {
/* columns rows colors chars-per-pixel */
"24 24 30 1",
"  c #000000",
". c #050505",
"X c #6D6D6D",
"o c #ACACAC",
"O c #B0B0B0",
"+ c #B4B4B4",
"@ c #B8B8B8",
"# c #BABABA",
"$ c #BCBCBC",
"% c #BDBDBD",
"& c #BEBEBE",
"* c #C0C0C0",
"= c #C4C4C4",
"- c #C8C8C8",
"; c #CCCCCC",
": c #CDCDCD",
"> c #CFCFCF",
", c #D1D1D1",
"< c #D2D2D2",
"1 c #D5D5D5",
"2 c #D7D7D7",
"3 c #D8D8D8",
"4 c #DBDBDB",
"5 c #DCDCDC",
"6 c #DDDDDD",
"7 c #E0E0E0",
"8 c #E5E5E5",
"9 c #E7E7E7",
"0 c #F6F6F6",
"q c None",
/* pixels */
"qqqqqqqqqqqqqqqqqqqqqqqq",
"qqqqqqqqqqqqqqqqqqqqqqqq",
"qqqqqqqqqqqqqqqqqqqqqqqq",
"qqqqqqqqqqqqqqqqqqqqqqqq",
"qqqqqq000000000000qqqqqq",
"qqqqqq888888888888qqqqqq",
"qqqqqq     XX     qqqqqq",
"qqqqqqqqqqq98qqqqqqqqqqq",
"qqqqqqqqqq6366qqqqqqqqqq",
"qqqqqqqqq#6116#qqqqqqqqq",
"qqqqqqqqq7,,,,7qqqqqqqqq",
"qqqqqqqq3,:::::3qqqqqqqq",
"qqqqqqq#,------,#qqqqqqq",
"qqqqqqq1========1qqqqqqq",
"qqqqqq:&&&&**&*&&:qqqqqq",
"qqqqqq   &&#&&&.  qqqqqq",
"qqqqqqqqq#+##+#qqqqqqqqq",
"qqqqqqqqq++++++qqqqqqqqq",
"qqqqqqqqqOOOOOOqqqqqqqqq",
"qqqqqqqqqooooooqqqqqqqqq",
"qqqqqqqqq      qqqqqqqqq",
"qqqqqqqqqqqqqqqqqqqqqqqq",
"qqqqqqqqqqqqqqqqqqqqqqqq",
"qqqqqqqqqqqqqqqqqqqqqqqq"
};
