<?xml version="1.0" encoding="UTF-8" standalone="no"?>
<!-- Created with Inkscape (http://www.inkscape.org/) -->

<svg
   xmlns:dc="http://purl.org/dc/elements/1.1/"
   xmlns:cc="http://creativecommons.org/ns#"
   xmlns:rdf="http://www.w3.org/1999/02/22-rdf-syntax-ns#"
   xmlns:svg="http://www.w3.org/2000/svg"
   xmlns="http://www.w3.org/2000/svg"
   xmlns:xlink="http://www.w3.org/1999/xlink"
   xmlns:inkscape="http://www.inkscape.org/namespaces/inkscape"
   version="1.0"
   width="22"
   height="22"
   id="svg2"
   style="display:inline">
  <defs
     id="defs4">
    <linearGradient
       x1="10.710332"
       y1="1.9963325"
       x2="10.710332"
       y2="18.974037"
       id="DarkGradient"
       gradientUnits="userSpaceOnUse"
       gradientTransform="matrix(0.9984539,0,0,0.9984539,-0.0459776,0.05767558)">
      <stop
         id="stop3277"
         style="stop-color:#000000;stop-opacity:0.86274511"
         offset="0" />
      <stop
         id="stop3279"
         style="stop-color:#000000;stop-opacity:0.47058824"
         offset="1" />
    </linearGradient>
    <linearGradient
       x1="10.710332"
       y1="1.9963325"
       x2="10.710332"
       y2="18.974037"
       id="LightGradient"
       gradientUnits="userSpaceOnUse"
       gradientTransform="matrix(0.9984539,0,0,0.9984539,-0.0459776,0.05767558)">
      <stop
         id="stop3277-0"
         style="stop-color:#ebebeb;stop-opacity:1"
         offset="0" />
      <stop
         id="stop3279-4"
         style="stop-color:#aaaaaa;stop-opacity:1"
         offset="1" />
    </linearGradient>
    <linearGradient
       x1="25"
       y1="2"
       x2="29"
       y2="2"
       id="linearGradient3843"
       xlink:href="#DarkGradient"
       gradientUnits="userSpaceOnUse"
       gradientTransform="translate(-25,-29)" />
    <linearGradient
       x1="25"
       y1="2"
       x2="29"
       y2="2"
       id="linearGradient3847"
       xlink:href="#LightGradient"
       gradientUnits="userSpaceOnUse"
       gradientTransform="translate(-20,-29)" />
    <clipPath
       id="clipPath3910">
      <path
         d="m 0,19 0,22 22,0 0,-22 -22,0 z m 10.96875,2 c 2.688706,0 4.906254,2.01253 4.90625,4.5 -0.01073,0.312615 -0.06808,0.634228 -0.09375,1 0.367348,0.273322 0.391688,1.095693 0.03125,1.9375 -0.130093,0.303837 -0.261269,0.567734 -0.4375,0.78125 -0.05701,0.264083 -0.08285,0.504956 -0.15625,0.8125 -0.199702,0.593858 -0.996956,1.743723 -1.59375,2.65625 -0.03849,0.606892 -0.01307,1.19633 0.0625,1.8125 1.866195,1.60856 6.71115,2.498287 6.71875,3.875 L 20.5,39 1.5,39 1.59375,38.375 C 1.58655,36.766441 6.391892,36.053785 8.28125,34.5 8.41295,33.738867 8.37796,33.106639 8.3125,32.4375 7.656093,31.570098 6.930389,30.567676 6.75,30.03125 6.69177,29.767067 6.67315,29.546709 6.625,29.3125 6.6182,29.3052 6.60045,29.32 6.59375,29.3125 6.392039,29.087562 6.177606,28.779315 6.03125,28.4375 5.651701,27.551057 5.699491,26.693597 6.125,26.46875 6.0951,26.114173 6.1315,25.785068 6.125,25.5 6.125,23.012529 8.280046,21 10.96875,21 z"
         inkscape:connector-curvature="0"
         id="path3912"
         style="opacity:0.07999998;color:#000000;fill:#ff00ff;fill-opacity:1;fill-rule:nonzero;stroke:none;stroke-width:2;marker:none;visibility:visible;display:inline;overflow:visible;enable-background:accumulate" />
    </clipPath>
    <clipPath
       id="clipPath3924">
      <path
         d="m -30,0 0,22 22,0 0,-22 -22,0 z m 10.96875,2 c 2.688706,0 4.906254,2.01253 4.90625,4.5 -0.01073,0.312615 -0.06808,0.634228 -0.09375,1 0.367348,0.273322 0.391688,1.095693 0.03125,1.9375 -0.130093,0.303837 -0.261269,0.567734 -0.4375,0.78125 -0.05701,0.264083 -0.08285,0.504956 -0.15625,0.8125 -0.199702,0.593858 -0.996956,1.743723 -1.59375,2.65625 -0.03849,0.606892 -0.01307,1.19633 0.0625,1.8125 1.866195,1.60856 6.71115,2.498287 6.71875,3.875 L -9.5,20 l -19,0 0.09375,-0.625 c -0.0072,-1.608559 4.798142,-2.321215 6.6875,-3.875 0.1317,-0.761133 0.09671,-1.393361 0.03125,-2.0625 -0.656407,-0.867402 -1.382111,-1.869824 -1.5625,-2.40625 -0.05823,-0.264183 -0.07685,-0.484541 -0.125,-0.71875 -0.0068,-0.0073 -0.02455,0.0075 -0.03125,0 -0.201711,-0.224938 -0.416144,-0.533185 -0.5625,-0.875 -0.379549,-0.886443 -0.331759,-1.743903 0.09375,-1.96875 -0.0299,-0.354577 0.0065,-0.683682 0,-0.96875 0,-2.487471 2.155046,-4.5 4.84375,-4.5 z"
         inkscape:connector-curvature="0"
         id="path3927"
         style="opacity:0.07999998;color:#000000;fill:#ff00ff;fill-opacity:1;fill-rule:nonzero;stroke:none;stroke-width:2;marker:none;visibility:visible;display:inline;overflow:visible;enable-background:accumulate" />
    </clipPath>
  </defs>
  <metadata
     id="metadata7">
    <rdf:RDF>
      <cc:Work
         rdf:about="">
        <dc:format>image/svg+xml</dc:format>
        <dc:type
           rdf:resource="http://purl.org/dc/dcmitype/StillImage" />
        <dc:title />
      </cc:Work>
    </rdf:RDF>
  </metadata>
  <g
     id="layer1"
     style="display:inline">
    <g
       transform="translate(30,0)"
       clip-path="url(#clipPath3924)"
       id="g3918"
       style="opacity:0.2">
      <path
         d="M 10.96875,1 C 8.2059067,0.93268261 5.5015885,2.943941 5.15625,5.78125 a 0.48122411,0.48122411 0 0 0 0,0.09375 c 0.064508,0.7840142 -0.2065407,1.5004344 -0.375,2.40625 a 0.48122411,0.48122411 0 0 0 0,0.03125 c -0.068086,0.5960383 0.1231525,1.1097442 0.34375,1.53125 0.2205975,0.421506 0.4693523,0.791225 0.59375,1.09375 0.1127037,0.717042 0.5162498,1.278808 0.78125,1.75 a 0.48122411,0.48122411 0 0 0 0.0625,0.09375 c 0.313157,0.312288 0.6676618,0.830052 0.78125,1.28125 0.056794,0.225599 0.042192,0.442002 0,0.59375 -0.042192,0.151748 -0.099187,0.256171 -0.28125,0.375 -1.620056,0.969803 -3.6594469,1.355382 -5.4375,2.53125 -0.00808,0.0053 -0.023182,-0.0054 -0.03125,0 l 0,0.03125 c -0.67645873,0.461789 -0.94828288,1.219372 -1,1.9375 l -0.03125,0 c -0.007588,0.02847 0.006745,0.06465 0,0.09375 -0.0386709,0.166864 -0.083409,0.337255 -0.0625,0.53125 0.0202587,0.187961 0.11963555,0.433543 0.3125,0.59375 0.0371616,0.0355 0.0861782,0.03561 0.125,0.0625 0.2564282,0.177581 0.5401292,0.223858 0.75,0.21875 C 1.929144,21.025369 2.1373722,20.989171 2.21875,21 a 0.48122411,0.48122411 0 0 0 0.0625,0 l 18.375,0 A 0.48122411,0.48122411 0 0 0 20.875,20.96875 c 0.122641,-0.0664 0.278179,-0.146398 0.40625,-0.28125 0.128071,-0.134852 0.197978,-0.335647 0.21875,-0.53125 a 0.48122411,0.48122411 0 0 0 0,-0.09375 c -0.02749,-0.343313 -0.05805,-0.750532 -0.1875,-1.15625 -0.125533,-0.393435 -0.36256,-0.793775 -0.78125,-1.0625 -0.0063,-0.0041 0.0064,-0.02725 0,-0.03125 -0.0076,-0.0054 -0.02367,0.0054 -0.03125,0 -1.907409,-1.351423 -4.132221,-1.7707 -5.84375,-2.90625 -0.09358,-0.417361 -0.03883,-0.757468 0.15625,-1.15625 0.220333,-0.4504 0.589976,-0.925771 0.90625,-1.46875 0.305092,-0.508895 0.493872,-1.024486 0.59375,-1.625 0.01196,-0.01789 0.01937,-0.04429 0.03125,-0.0625 C 16.632431,10.151103 16.87939,9.6151487 17,9.03125 17.112781,8.4852542 17.065678,7.8894116 16.78125,7.34375 17.203982,5.0426857 15.920782,2.7095516 13.875,1.6875 12.978144,1.2128751 11.976718,0.99889428 10.96875,1 z"
         transform="translate(-30,0)"
         id="path3926"
         style="opacity:0.2;fill:#000000;fill-opacity:1;stroke:none;display:inline;enable-background:new" />
      <path
         d="M 10.96875,1.21875 C 8.3268796,1.1543802 5.7036173,3.1125728 5.375,5.8125 a 0.24584315,0.24584315 0 0 0 0,0.0625 C 5.4444966,6.7196488 5.1636539,7.4637733 5,8.34375 4.9393773,8.8744558 5.1325396,9.3464305 5.34375,9.75 c 0.1993582,0.380923 0.4204687,0.710651 0.5625,1.03125 0.00844,0.01906 0.023472,0.04358 0.03125,0.0625 0.08262,0.684504 0.463659,1.209613 0.75,1.71875 a 0.24584315,0.24584315 0 0 0 0.03125,0.03125 0.24584315,0.24584315 0 0 0 0,0.03125 c 0.3432737,0.342321 0.7157376,0.866506 0.84375,1.375 0.064006,0.254247 0.056363,0.516033 0,0.71875 -0.056363,0.202717 -0.1497313,0.352972 -0.375,0.5 C 5.5120033,16.221741 3.4811805,16.596555 1.75,17.75 c -0.6351534,0.413652 -0.92624515,1.155321 -0.96875,1.84375 -0.001219,0.01974 8.4031e-4,0.04283 0,0.0625 -0.0366893,0.154503 -0.0486532,0.307282 -0.03125,0.46875 0.0183064,0.169848 0.0783145,0.361733 0.25,0.46875 0.011299,0.01079 0.019601,0.02154 0.03125,0.03125 0.200942,0.167454 0.4451182,0.161389 0.65625,0.15625 0.2233713,-0.0054 0.432162,-0.01734 0.5625,0 a 0.24584315,0.24584315 0 0 0 0.03125,0 l 18.375,0 a 0.24584315,0.24584315 0 0 0 0.0625,0 0.24584315,0.24584315 0 0 0 0.0625,-0.03125 c 0.117105,-0.06341 0.216285,-0.117441 0.3125,-0.21875 0.09622,-0.101309 0.171064,-0.25148 0.1875,-0.40625 a 0.24584315,0.24584315 0 0 0 0,-0.0625 c -0.02743,-0.342512 -0.06928,-0.723222 -0.1875,-1.09375 -0.114152,-0.357766 -0.325153,-0.703367 -0.6875,-0.9375 -0.01174,-0.0084 -0.01947,-0.02294 -0.03125,-0.03125 -1.881316,-1.326902 -4.163171,-1.71801 -5.9375,-2.9375 -0.139926,-0.516279 -0.03394,-0.984828 0.1875,-1.4375 0.235484,-0.481371 0.601076,-0.944828 0.90625,-1.46875 0.317204,-0.5291 0.510391,-1.03417 0.59375,-1.65625 0.0075,-0.01127 0.02375,-0.01985 0.03125,-0.03125 0.0027,-0.02158 -0.0024,-0.04062 0,-0.0625 0.269149,-0.4184623 0.515029,-0.9051058 0.625,-1.4375 0.108562,-0.5255715 0.06063,-1.0621607 -0.21875,-1.5625 0.451907,-2.2139884 -0.802688,-4.5115307 -2.78125,-5.5 -0.861068,-0.4556855 -1.841998,-0.6885646 -2.8125,-0.6875 z"
         transform="translate(-30,0)"
         id="path3924"
         style="opacity:0.3;fill:#000000;fill-opacity:1;stroke:none;display:inline;enable-background:new" />
      <path
         d="m 10.96875,1.46875 c -2.9590682,0 -5.375,2.2318143 -5.375,5.03125 0.00414,0.1814796 -0.00773,0.475785 0,0.78125 C 5.3835076,7.5251775 5.2670366,7.8473209 5.25,8.1875 c -0.023035,0.459962 0.063395,0.9599469 0.28125,1.46875 0.1522951,0.355686 0.3919532,0.635768 0.59375,0.875 0.00499,0.0059 -0.00498,0.0254 0,0.03125 1.127e-4,5.52e-4 -2.128e-4,0.03078 0,0.03125 4.91e-5,1.07e-4 -0.00357,0.02578 0,0.03125 0.020978,0.146505 0.046111,0.315124 0.09375,0.53125 a 0.25985533,0.25985533 0 0 0 0,0.03125 0.25985533,0.25985533 0 0 0 0.03125,0.03125 0.25985533,0.25985533 0 0 0 0,0.03125 c 0.00391,0.01127 0.027138,0.0199 0.03125,0.03125 0.00411,0.01135 0.026936,0.01983 0.03125,0.03125 0.1296272,0.343224 0.3200716,0.717309 0.59375,1.125 0.2721342,0.405391 0.5770517,0.793836 0.875,1.1875 0.046051,0.51577 0.039012,0.991717 -0.03125,1.53125 -0.8419563,0.619098 -2.3436655,1.201103 -3.71875,1.75 -0.7255903,0.289637 -1.4237725,0.576509 -1.96875,0.9375 -0.535019,0.354395 -0.9845331,0.848131 -1,1.5 -4.225e-4,0.01781 -3.59e-5,0.02327 0,0.03125 l -0.09375,0.5625 a 0.25985533,0.25985533 0 0 0 0,0.03125 c -5.28e-6,1.89e-4 0,0.03106 0,0.03125 1.08e-6,2.35e-4 -9.21e-6,0.03102 0,0.03125 1.733e-5,2.34e-4 -2.543e-5,0.03102 0,0.03125 3.351e-5,2.33e-4 -4.154e-5,0.03102 0,0.03125 4.154e-5,2.31e-4 -4.952e-5,0.03102 0,0.03125 5.744e-5,2.28e-4 -6.529e-5,0.03102 0,0.03125 6.529e-5,2.26e-4 0.0311769,-2.23e-4 0.03125,0 7.31e-5,2.23e-4 -8.075e-5,0.03103 0,0.03125 8.83e-5,2.18e-4 -9.582e-5,0.03103 0,0.03125 9.58e-5,2.15e-4 -1.0319e-4,0.03104 0,0.03125 1.032e-4,2.11e-4 0.03114,-2.07e-4 0.03125,0 1.104e-4,2.07e-4 -1.176e-4,0.03105 0,0.03125 1.245e-4,1.99e-4 0.031119,0.03105 0.03125,0.03125 1.38e-4,1.9e-4 -1.445e-4,0.03107 0,0.03125 1.445e-4,1.85e-4 0.031099,-1.8e-4 0.03125,0 1.508e-4,1.8e-4 -1.57e-4,0.03108 0,0.03125 1.57e-4,1.75e-4 0.031087,-1.69e-4 0.03125,0 1.687e-4,1.64e-4 -1.743e-4,0.03109 0,0.03125 1.743e-4,1.58e-4 0.03107,-1.51e-4 0.03125,0 1.796e-4,1.51e-4 -1.848e-4,0.03111 0,0.03125 1.848e-4,1.45e-4 0.03106,-1.39e-4 0.03125,0 1.944e-4,1.32e-4 0.031051,0.03112 0.03125,0.03125 2.03e-4,1.18e-4 0.031043,-1.11e-4 0.03125,0 2.641e-4,1.44e-4 0.03098,0.03112 0.03125,0.03125 2.758e-4,1.2e-4 0.030969,-1.08e-4 0.03125,0 2.808e-4,1.08e-4 0.030965,0.03115 0.03125,0.03125 2.853e-4,9.5e-5 0.030961,-8.2e-5 0.03125,0 2.926e-4,6.9e-5 0.030955,-5.6e-5 0.03125,0 2.954e-4,5.6e-5 0.030952,-4.3e-5 0.03125,0 a 0.25985533,0.25985533 0 0 0 0.03125,0 c 1.892e-4,5e-6 0.031061,0 0.03125,0 l 19,0 c 1.97e-4,-3e-6 0.03105,8e-6 0.03125,0 1.96e-4,-1.4e-5 0.03105,2e-5 0.03125,0 1.95e-4,-2.5e-5 0.03106,3.1e-5 0.03125,0 1.93e-4,-3.7e-5 0.03106,4.2e-5 0.03125,0 1.91e-4,-4.8e-5 0.03106,5.3e-5 0.03125,0 1.88e-4,-5.9e-5 0.03106,-0.03119 0.03125,-0.03125 1.82e-4,-7.5e-5 0.03107,8e-5 0.03125,0 1.77e-4,-8.5e-5 0.03108,-0.03116 0.03125,-0.03125 3.11e-4,-1.45e-4 0.03095,1.61e-4 0.03125,0 2.95e-4,-1.76e-4 0.03096,-0.03106 0.03125,-0.03125 2.86e-4,-1.9e-4 0.03097,2.05e-4 0.03125,0 2.76e-4,-2.05e-4 0.03099,-0.03103 0.03125,-0.03125 2.65e-4,-2.18e-4 -2.54e-4,-0.03102 0,-0.03125 2.54e-4,-2.32e-4 0.03101,2.44e-4 0.03125,0 a 0.25985533,0.25985533 0 0 0 0,-0.03125 c 1.4e-4,-1.61e-4 0.03111,1.66e-4 0.03125,0 1.3e-4,-1.7e-4 -1.24e-4,-0.03108 0,-0.03125 1.24e-4,-1.74e-4 0.03113,1.78e-4 0.03125,0 1.19e-4,-1.78e-4 -1.13e-4,-0.03107 0,-0.03125 1.07e-4,-1.85e-4 -1.02e-4,-0.03106 0,-0.03125 1.02e-4,-1.88e-4 0.03115,1.91e-4 0.03125,0 9.6e-5,-1.91e-4 -9e-5,-0.03106 0,-0.03125 8.3e-5,-1.97e-4 -7.7e-5,-0.03105 0,-0.03125 7.7e-5,-1.99e-4 0.03118,2.02e-4 0.03125,0 7.1e-5,-2.02e-4 -6.4e-5,-0.03105 0,-0.03125 5.8e-5,-2.06e-4 -5.1e-5,-0.03104 0,-0.03125 a 0.25985533,0.25985533 0 0 0 0,-0.03125 c 3.6e-5,-2.83e-4 -2.4e-5,-0.03097 0,-0.03125 2.4e-5,-2.84e-4 -1.2e-5,-0.03096 0,-0.03125 1.2e-5,-2.85e-4 0,-0.03096 0,-0.03125 -1.2e-5,-2.85e-4 2.4e-5,-0.03097 0,-0.03125 -2.4e-5,-2.84e-4 3.6e-5,-0.03097 0,-0.03125 L 20.9375,19.375 c -5e-6,-9.5e-4 0.0011,-0.0053 0,-0.03125 -0.01282,-0.315984 -0.155259,-0.593193 -0.34375,-0.8125 C 20.392153,18.296693 20.132414,18.129298 19.875,17.96875 19.341222,17.635834 18.67181,17.302566 17.9375,17 c -1.371923,-0.565289 -2.880904,-1.138764 -3.71875,-1.78125 -0.04847,-0.458176 -0.08106,-0.902936 -0.0625,-1.34375 0.280252,-0.427708 0.594931,-0.929174 0.875,-1.375 0.282549,-0.449774 0.487613,-0.820837 0.625,-1.1875 0.0043,-0.01156 0.0271,-0.01975 0.03125,-0.03125 1.82e-4,-1.97e-4 -1.74e-4,-0.03105 0,-0.03125 a 0.25985533,0.25985533 0 0 0 0.03125,0 c 0.0026,-0.0074 -0.0025,-0.02383 0,-0.03125 A 0.25985533,0.25985533 0 0 0 15.75,11.1875 a 0.25985533,0.25985533 0 0 0 0,-0.03125 c 0.07097,-0.297379 0.08357,-0.509064 0.125,-0.71875 0.0133,-0.01841 0.01829,-0.04393 0.03125,-0.0625 0.0044,-0.02098 -7.08e-4,-0.0183 0,-0.03125 0.146689,-0.213206 0.297812,-0.4342394 0.40625,-0.6875 C 16.519783,9.1721371 16.602628,8.6907576 16.59375,8.25 16.587366,7.9330272 16.475149,7.6513802 16.3125,7.40625 16.34013,7.1255274 16.395494,6.8133725 16.40625,6.5 c 4e-6,-2.8079422 -2.478717,-5.03125 -5.4375,-5.03125 z"
         transform="translate(-30,0)"
         id="path3910"
         style="opacity:0.4;fill:#000000;fill-opacity:1;stroke:none;display:inline;enable-background:new" />
      <path
         d="m 10.96875,1.71875 c -2.8285051,0 -5.125,2.1319673 -5.125,4.78125 0.00511,0.2242845 -0.014794,0.5461799 0,0.875 C 5.6339645,7.5776679 5.5163715,7.8606008 5.5,8.1875 c -0.020456,0.4084609 0.076936,0.8978202 0.28125,1.375 0.157503,0.3678489 0.3778878,0.662113 0.59375,0.90625 0.00526,0.006 -0.00525,0.02539 0,0.03125 0.030818,0.180726 0.042194,0.359854 0.09375,0.59375 A 0.28018576,0.28018576 0 0 0 6.5,11.125 c 0.1095674,0.325822 0.3336306,0.722205 0.625,1.15625 0.2712676,0.4041 0.597385,0.809106 0.90625,1.21875 0.059691,0.618511 0.073167,1.172816 -0.03125,1.84375 -0.8898868,0.687065 -2.4709666,1.252047 -3.875,1.8125 -0.7235898,0.288838 -1.3937808,0.566792 -1.90625,0.90625 -0.5025309,0.332875 -0.8937561,0.75468 -0.90625,1.28125 -2.471e-4,0.01041 -4.73e-5,0.02074 0,0.03125 L 1.21875,19.96875 A 0.28018576,0.28018576 0 0 0 1.21875,20 0.28018576,0.28018576 0 0 0 1.375,20.25 0.28018576,0.28018576 0 0 0 1.5,20.28125 l 19,0 a 0.28018576,0.28018576 0 0 0 0.28125,-0.21875 0.28018576,0.28018576 0 0 0 0,-0.09375 L 20.6875,19.375 c -5.5e-5,-0.01 4.01e-4,-0.02136 0,-0.03125 -0.0098,-0.242377 -0.122373,-0.471398 -0.28125,-0.65625 -0.165361,-0.192397 -0.399428,-0.339821 -0.65625,-0.5 -0.513644,-0.320359 -1.18011,-0.6383 -1.90625,-0.9375 -1.408982,-0.580559 -2.99339,-1.191795 -3.875,-1.90625 -0.0596,-0.534028 -0.09187,-1.038731 -0.0625,-1.5625 0.288679,-0.440151 0.615756,-0.943828 0.90625,-1.40625 0.302561,-0.481631 0.53791,-0.898091 0.65625,-1.25 A 0.28018576,0.28018576 0 0 0 15.5,11.09375 c 0.07474,-0.31317 0.106741,-0.543529 0.15625,-0.78125 0.0019,-0.0092 -0.002,-0.0221 0,-0.03125 C 15.816568,10.059218 15.948045,9.8298133 16.0625,9.5625 16.25661,9.1091533 16.351706,8.6449806 16.34375,8.25 16.337347,7.9321067 16.239889,7.653969 16.0625,7.4375 16.08967,7.1247637 16.145625,6.8095579 16.15625,6.5 c 4e-6,-2.653975 -2.358993,-4.78125 -5.1875,-4.78125 z"
         transform="translate(-30,0)"
         id="path3906"
         style="opacity:0.5;fill:#000000;fill-opacity:1;stroke:none;display:inline;enable-background:new" />
    </g>
    <path
       d="M 10.974504,2 C 8.2858,2 6.130312,3.999781 6.130312,6.487252 c 0.0065,0.285068 -0.0299,0.614262 0,0.968839 C 5.704803,7.680938 5.64878,8.558317 6.028329,9.44476 c 0.146356,0.341815 0.359195,0.641916 0.560906,0.866854 0.0067,0.0075 0.04422,-0.0073 0.05099,0 0.04815,0.234209 0.04375,0.449699 0.101982,0.713882 0.180389,0.536426 0.92433,1.529198 1.580737,2.3966 0.06546,0.669139 0.08071,1.329519 -0.05099,2.090652 -1.889358,1.553785 -6.687129,2.266795 -6.679887,3.875354 L 1.490085,20 l 19.01983,0 -0.101978,-0.611898 c -0.0076,-1.376713 -4.864684,-2.266794 -6.730879,-3.875354 -0.07557,-0.61617 -0.08947,-1.228802 -0.05098,-1.835694 0.596794,-0.912527 1.381035,-2.0577 1.580737,-2.651558 0.0734,-0.307544 0.09597,-0.551782 0.152983,-0.815865 0.176231,-0.213516 0.32883,-0.461034 0.458923,-0.764871 0.360438,-0.841807 0.316358,-1.664357 -0.05099,-1.937679 0.02567,-0.365772 0.09125,-0.707214 0.10198,-1.019829 C 15.869715,3.999782 13.663234,2 10.974528,2 z"
       inkscape:connector-curvature="0"
       id="path3798"
       style="fill:url(#LightGradient);fill-opacity:1;stroke:none;display:inline;enable-background:new" />
    <path
       d="M 10.96875,2 C 8.280046,2 6.125,4.0125283 6.125,6.5 6.13153,6.7850676 6.0951,7.1141728 6.125,7.46875 6.1427809,4.9956521 8.2911994,3 10.96875,3 c 2.485373,0 4.575627,1.7143232 4.875,3.9375 C 15.861459,6.7903993 15.870315,6.6364852 15.875,6.5 15.875004,4.0125299 13.657456,2 10.96875,2 z M 6.125,7.46875 C 5.7906718,7.645416 5.6898209,8.2047769 5.84375,8.875 5.9019414,8.6888102 5.988007,8.54114 6.125,8.46875 6.0951,8.1141728 6.13153,7.7850676 6.125,7.5 c 0,-0.010319 -7.41e-5,-0.020948 0,-0.03125 z m 9.75,0.15625 c -0.02003,0.2800767 -0.07126,0.5545512 -0.09375,0.875 0.104381,0.077663 0.137184,0.2208066 0.1875,0.375 0.119581,-0.5254597 0.09206,-0.9879202 -0.09375,-1.25 z M 8.34375,14.84375 C 8.3282621,15.06294 8.3219467,15.2648 8.28125,15.5 6.3918922,17.053785 1.5865077,17.766441 1.59375,19.375 L 1.5,20 1.71875,20 c 0.6851155,-1.34595 4.8324454,-2.077224 6.5625,-3.5 0.1049236,-0.606389 0.0952,-1.122383 0.0625,-1.65625 z m 5.28125,0 c -0.02687,0.555524 -0.0066,1.093135 0.0625,1.65625 1.681782,1.449606 5.760927,2.335397 6.5625,3.5 l 0.25,0 -0.09375,-0.625 C 20.39865,17.998287 15.553695,17.10856 13.6875,15.5 13.660161,15.277091 13.636636,15.065628 13.625,14.84375 z"
       inkscape:connector-curvature="0"
       id="path3850"
       style="opacity:0.15;fill:#ffffff;fill-opacity:1;stroke:none;display:inline;enable-background:new" />
    <path
       d="M 10.96875,2 C 8.280046,2 6.125,4.0125283 6.125,6.5 c 0.00506,0.2206975 -0.00427,0.4851035 0,0.75 0,-2.4874717 2.155046,-4.5 4.84375,-4.5 2.520662,0 4.622746,1.7619352 4.875,4.03125 C 15.85336,6.6887105 15.871977,6.5880647 15.875,6.5 15.875004,4.0125299 13.657456,2 10.96875,2 z M 6.125,7.46875 C 5.8058686,7.6373858 5.68808,8.1499794 5.8125,8.78125 5.8579734,8.5130826 5.9501263,8.3111569 6.125,8.21875 c -0.023148,-0.2745114 -0.00565,-0.5146143 0,-0.75 z m 9.71875,0.125 c -0.02444,0.2178377 -0.04565,0.416179 -0.0625,0.65625 0.130812,0.097329 0.173591,0.2873114 0.21875,0.5 0.08997,-0.499931 0.0389,-0.9235373 -0.15625,-1.15625 z m -7.5,7.15625 c -0.014132,0.248249 -0.016038,0.48148 -0.0625,0.75 -1.8893578,1.553785 -6.6947423,2.266441 -6.6875,3.875 L 1.5,20 1.625,20 c 0.2481192,-1.516285 4.8196831,-2.23963 6.65625,-3.75 0.094675,-0.547157 0.083766,-1.016293 0.0625,-1.5 z m 5.28125,0.03125 c -0.01484,0.493627 0.0012,0.969301 0.0625,1.46875 1.807876,1.558293 6.393934,2.444633 6.6875,3.75 L 20.5,20 20.40625,19.375 C 20.39865,17.998287 15.553695,17.10856 13.6875,15.5 13.657583,15.256069 13.636162,15.023935 13.625,14.78125 z"
       inkscape:connector-curvature="0"
       id="path3859"
       style="opacity:0.3;fill:#ffffff;fill-opacity:1;stroke:none;display:inline;enable-background:new" />
    <path
       d="M 10.96875,2 C 8.280046,2 6.125,4.0125283 6.125,6.5 c 0.00337,0.1471317 0.00449,0.3319359 0,0.5 0,-2.4874717 2.155046,-4.5 4.84375,-4.5 2.587582,0 4.717619,1.8621984 4.875,4.21875 C 15.8504,6.647317 15.872642,6.5686966 15.875,6.5 15.875004,4.0125299 13.657456,2 10.96875,2 z M 6.125,7.46875 c -0.2856315,0.1509337 -0.3798418,0.580634 -0.3125,1.125 0.03716,-0.3019115 0.1230968,-0.5249154 0.3125,-0.625 -0.015432,-0.1830076 -0.00488,-0.3330932 0,-0.5 z M 15.8125,7.5625 C 15.793964,7.7125439 15.792457,7.8403068 15.78125,8 c 0.150971,0.1123284 0.213869,0.3326786 0.25,0.59375 C 16.08446,8.1370668 16.010577,7.7609294 15.8125,7.5625 z M 8.34375,14.65625 C 8.3317083,14.93323 8.3334774,15.19816 8.28125,15.5 6.3918922,17.053785 1.5865077,17.766441 1.59375,19.375 L 1.5,20 1.5625,20 1.59375,19.875 c -0.00724,-1.608559 4.7981422,-2.321215 6.6875,-3.875 0.084426,-0.487925 0.073365,-0.909784 0.0625,-1.34375 z m 5.25,0.0625 c -0.0049,0.431107 0.04035,0.845833 0.09375,1.28125 1.866195,1.60856 6.71115,2.498287 6.71875,3.875 L 20.4375,20 20.5,20 20.40625,19.375 c -0.0076,-1.376713 -4.852555,-2.26644 -6.71875,-3.875 -0.03263,-0.26604 -0.08337,-0.516706 -0.09375,-0.78125 z"
       inkscape:connector-curvature="0"
       id="path3868"
       style="opacity:0.45;fill:#ffffff;fill-opacity:1;stroke:none;display:inline;enable-background:new" />
    <path
       d="M 10.96875,2 C 8.3588631,2 6.277565,3.8957121 6.15625,6.28125 6.4029053,4.011934 8.44809,2.25 10.96875,2.25 c 2.520662,0 4.622746,1.7619352 4.875,4.03125 C 15.719622,3.8957134 13.578639,2 10.96875,2 z M 6.125,7.46875 C 5.8787457,7.5988759 5.7671928,7.9324976 5.78125,8.375 5.8124222,8.052084 5.9267753,7.8234961 6.125,7.71875 c -0.00772,-0.091504 7.596e-4,-0.1621993 0,-0.25 z m 9.6875,0.0625 c -0.0085,0.07798 -0.02561,0.1383722 -0.03125,0.21875 0.163515,0.1216613 0.221752,0.3636874 0.25,0.65625 0.0148,-0.389202 -0.03434,-0.7085139 -0.21875,-0.875 z m -7.4375,7 c -0.0081,0.315704 -0.033666,0.621503 -0.09375,0.96875 -1.8893578,1.553785 -6.6947423,2.266441 -6.6875,3.875 L 1.5,20 l 0.03125,0 0.0625,-0.375 c -0.00724,-1.608559 4.7981422,-2.321215 6.6875,-3.875 0.076098,-0.439799 0.097113,-0.825102 0.09375,-1.21875 z m 5.21875,0.125 c 0.0027,0.368692 0.04816,0.721999 0.09375,1.09375 1.866195,1.60856 6.71115,2.498287 6.71875,3.875 L 20.46875,20 20.5,20 20.40625,19.375 c -0.0076,-1.376713 -4.852555,-2.26644 -6.71875,-3.875 -0.03521,-0.287063 -0.08437,-0.558446 -0.09375,-0.84375 z"
       inkscape:connector-curvature="0"
       id="path3877"
       style="opacity:0.6;fill:#ffffff;fill-opacity:1;stroke:none;display:inline;enable-background:new" />
    <rect
       width="4"
       height="4"
       x="0"
       y="-29"
       transform="matrix(0,1,-1,0,0,0)"
       id="rect3835"
       style="color:#000000;fill:url(#linearGradient3843);fill-opacity:1;fill-rule:nonzero;stroke:none;stroke-width:2;marker:none;visibility:visible;display:inline;overflow:visible;enable-background:accumulate" />
    <rect
       width="4"
       height="4"
       x="5"
       y="-29"
       transform="matrix(0,1,-1,0,0,0)"
       id="rect3845"
       style="color:#000000;fill:url(#linearGradient3847);fill-opacity:1;fill-rule:nonzero;stroke:none;stroke-width:2;marker:none;visibility:visible;display:inline;overflow:visible;enable-background:accumulate" />
    <g
       transform="translate(0,-19)"
       clip-path="url(#clipPath3910)"
       id="g3904"
       style="opacity:0.5">
      <path
         d="m 10.974504,22 c -2.688704,0 -4.844192,1.999781 -4.844192,4.487252 0.0065,0.285068 -0.0299,0.614262 0,0.968839 -0.425509,0.224847 -0.481532,1.102226 -0.101983,1.988669 0.146356,0.341815 0.359195,0.641916 0.560906,0.866854 0.0067,0.0075 0.04422,-0.0073 0.05099,0 0.04815,0.234209 0.04375,0.449699 0.101982,0.713882 0.180389,0.536426 0.92433,1.529198 1.580737,2.3966 0.06546,0.669139 0.08071,1.329519 -0.05099,2.090652 -1.889358,1.553785 -6.687129,2.266795 -6.679887,3.875354 L 1.490085,40 l 19.01983,0 -0.101978,-0.611898 c -0.0076,-1.376713 -4.864684,-2.266794 -6.730879,-3.875354 -0.07557,-0.61617 -0.08947,-1.228802 -0.05098,-1.835694 0.596794,-0.912527 1.381035,-2.0577 1.580737,-2.651558 0.0734,-0.307544 0.09597,-0.551782 0.152983,-0.815865 0.176231,-0.213516 0.32883,-0.461034 0.458923,-0.764871 0.360438,-0.841807 0.316358,-1.664357 -0.05099,-1.937679 0.02567,-0.365772 0.09125,-0.707214 0.10198,-1.019829 C 15.869715,23.999782 13.663234,22 10.974528,22 z"
         inkscape:connector-curvature="0"
         id="path3849"
         style="opacity:0.25;fill:#000000;fill-opacity:1;stroke:none;display:inline;enable-background:new" />
      <path
         d="m 10.974504,21.75 c -2.688704,0 -4.844192,1.999781 -4.844192,4.487252 0.0065,0.285068 -0.0299,0.614262 0,0.968839 -0.425509,0.224847 -0.481532,1.102226 -0.101983,1.988669 0.146356,0.341815 0.359195,0.641916 0.560906,0.866854 0.0067,0.0075 0.04422,-0.0073 0.05099,0 0.04815,0.234209 0.04375,0.449699 0.101982,0.713882 0.180389,0.536426 0.92433,1.529198 1.580737,2.3966 0.06546,0.669139 0.08071,1.329519 -0.05099,2.090652 -1.889358,1.553785 -6.687129,2.266795 -6.679887,3.875354 L 1.490085,39.75 l 19.01983,0 -0.101978,-0.611898 c -0.0076,-1.376713 -4.864684,-2.266794 -6.730879,-3.875354 -0.07557,-0.61617 -0.08947,-1.228802 -0.05098,-1.835694 0.596794,-0.912527 1.381035,-2.0577 1.580737,-2.651558 0.0734,-0.307544 0.09597,-0.551782 0.152983,-0.815865 0.176231,-0.213516 0.32883,-0.461034 0.458923,-0.764871 0.360438,-0.841807 0.316358,-1.664357 -0.05099,-1.937679 0.02567,-0.365772 0.09125,-0.707214 0.10198,-1.019829 4e-6,-2.48747 -2.206477,-4.487252 -4.895183,-4.487252 z"
         inkscape:connector-curvature="0"
         id="path3853"
         style="opacity:0.5;fill:#000000;fill-opacity:1;stroke:none;display:inline;enable-background:new" />
      <path
         d="m 10.974504,21.5 c -2.688704,0 -4.844192,1.999781 -4.844192,4.487252 0.0065,0.285068 -0.0299,0.614262 0,0.968839 -0.425509,0.224847 -0.481532,1.102226 -0.101983,1.988669 0.146356,0.341815 0.359195,0.641916 0.560906,0.866854 0.0067,0.0075 0.04422,-0.0073 0.05099,0 0.04815,0.234209 0.04375,0.449699 0.101982,0.713882 0.180389,0.536426 0.92433,1.529198 1.580737,2.3966 0.06546,0.669139 0.08071,1.329519 -0.05099,2.090652 -1.889358,1.553785 -6.687129,2.266795 -6.679887,3.875354 L 1.490085,39.5 l 19.01983,0 -0.101978,-0.611898 c -0.0076,-1.376713 -4.864684,-2.266794 -6.730879,-3.875354 -0.07557,-0.61617 -0.08947,-1.228802 -0.05098,-1.835694 0.596794,-0.912527 1.381035,-2.0577 1.580737,-2.651558 0.0734,-0.307544 0.09597,-0.551782 0.152983,-0.815865 0.176231,-0.213516 0.32883,-0.461034 0.458923,-0.764871 0.360438,-0.841807 0.316358,-1.664357 -0.05099,-1.937679 0.02567,-0.365772 0.09125,-0.707214 0.10198,-1.019829 C 15.869715,23.499782 13.663234,21.5 10.974528,21.5 z"
         inkscape:connector-curvature="0"
         id="path3855"
         style="opacity:0.75;fill:#000000;fill-opacity:1;stroke:none;display:inline;enable-background:new" />
      <path
         d="m 10.974504,21.25 c -2.688704,0 -4.844192,1.999781 -4.844192,4.487252 0.0065,0.285068 -0.0299,0.614262 0,0.968839 -0.425509,0.224847 -0.481532,1.102226 -0.101983,1.988669 0.146356,0.341815 0.359195,0.641916 0.560906,0.866854 0.0067,0.0075 0.04422,-0.0073 0.05099,0 0.04815,0.234209 0.04375,0.449699 0.101982,0.713882 0.180389,0.536426 0.92433,1.529198 1.580737,2.3966 0.06546,0.669139 0.08071,1.329519 -0.05099,2.090652 -1.889358,1.553785 -6.687129,2.266795 -6.679887,3.875354 L 1.490085,39.25 l 19.01983,0 -0.101978,-0.611898 c -0.0076,-1.376713 -4.864684,-2.266794 -6.730879,-3.875354 -0.07557,-0.61617 -0.08947,-1.228802 -0.05098,-1.835694 0.596794,-0.912527 1.381035,-2.0577 1.580737,-2.651558 0.0734,-0.307544 0.09597,-0.551782 0.152983,-0.815865 0.176231,-0.213516 0.32883,-0.461034 0.458923,-0.764871 0.360438,-0.841807 0.316358,-1.664357 -0.05099,-1.937679 0.02567,-0.365772 0.09125,-0.707214 0.10198,-1.019829 4e-6,-2.48747 -2.206477,-4.487252 -4.895183,-4.487252 z"
         inkscape:connector-curvature="0"
         id="path3857"
         style="fill:#000000;fill-opacity:1;stroke:none;display:inline;enable-background:new" />
    </g>
  </g>
</svg>
