<svg xmlns="http://www.w3.org/2000/svg" width="48" height="48">
<defs>
  <path
     d="M 5.125 8 C 3.391658 8 2 9.304406 2 10.9375 L 2.125 37.0625 C 2.125 38.695593 3.51666 39.999996 5.25 40 L 42.875 40 C 44.608342 40 46.000002 38.695593 46 37.0625 L 46 16.25 C 46 14.616907 44.608338 13.28125 42.875 13.28125 L 26.1875 13.28125 L 24.9375 10.9375 C 24.220631 9.042752 23.15482 7.9345843 21.8125 8 L 5.125 8 z M 23.78125 16.5625 C 24.753746 16.561918 25.869142 21.803852 26.65625 22.375 C 27.443358 22.946148 32.792678 22.35653 33.09375 23.28125 C 33.394822 24.205969 28.737464 26.887421 28.4375 27.8125 C 28.137536 28.737579 30.317674 33.64666 29.53125 34.21875 C 28.744826 34.79084 24.784996 31.186918 23.8125 31.1875 C 22.840004 31.188082 18.849608 34.789898 18.0625 34.21875 C 17.275392 33.647602 19.457322 28.768469 19.15625 27.84375 C 18.855178 26.919031 14.200036 24.237579 14.5 23.3125 C 14.799964 22.387421 20.151076 22.94709 20.9375 22.375 C 21.723924 21.80291 22.808754 16.563082 23.78125 16.5625 z "
     id="path-main" />
</defs>
<acyl-settings>
<linearGradient
     id="linearGradient4321">
    <stop
       style="stop-color:#FFFFFF;stop-opacity:1.0;"
       offset="1.0"
       id="stop1" />
  </linearGradient>
<linearGradient
     inkscape:collect="always"
     xlink:href="#linearGradient4321"
     id="acyl_gradient"
     x1="50.0%"
     y1="0.0%"
     x2="50.0%"
     y2="100.0%" />
<filter>
    </filter>
<use id="1" style="fill:url(#acyl_gradient);filter:url(#filter1111)" xlink:href="#path-main" />
</acyl-settings>
</svg>
