<svg xmlns="http://www.w3.org/2000/svg" width="48" height="48">
<defs>
  <path
     d="M 5.125 8 C 3.391658 8 2 9.304406 2 10.9375 L 2.125 37.0625 C 2.125 38.695593 3.51666 39.999996 5.25 40 L 42.875 40 C 44.608342 40 46.000002 38.695593 46 37.0625 L 46 16.25 C 46 14.616907 44.608338 13.28125 42.875 13.28125 L 26.1875 13.28125 L 24.9375 10.9375 C 24.220631 9.042752 23.15482 7.9345843 21.8125 8 L 5.125 8 z M 20.71875 13.71875 C 21.095889 13.65595 21.567215 13.83266 21.71875 14.3125 C 22.021819 15.272181 21.71875 16.3875 26.71875 18.1875 C 31.71875 19.9875 31.814102 26.78534 29.40625 30.59375 C 32.335507 21.35322 24.386379 18.46786 23.375 19.3125 L 27.75 32.78125 C 28.89576 36.278604 25.52372 37.6875 23.3125 37.6875 C 21.10128 37.6875 18.49725 36.704853 18.40625 34.3125 C 18.31525 31.920147 22.372785 30.359056 25.40625 31.125 L 20.21875 14.59375 C 20.058661 14.083875 20.341611 13.781554 20.71875 13.71875 z "
     id="path-main" />
</defs>
<acyl-settings>
<linearGradient
     id="linearGradient4321">
    <stop
       style="stop-color:#FFFFFF;stop-opacity:1.0;"
       offset="1.0"
       id="stop1" />
  </linearGradient>
<linearGradient
     inkscape:collect="always"
     xlink:href="#linearGradient4321"
     id="acyl_gradient"
     x1="50.0%"
     y1="0.0%"
     x2="50.0%"
     y2="100.0%" />
<filter>
    </filter>
<use id="1" style="fill:url(#acyl_gradient);filter:url(#filter1111)" xlink:href="#path-main" />
</acyl-settings>
</svg>
