<svg xmlns="http://www.w3.org/2000/svg" width="48" height="48">
<defs>
  <path
     d="M 5.125 8 C 3.391658 8 2 9.304406 2 10.9375 L 2.125 37.0625 C 2.125 38.695593 3.51666 39.999996 5.25 40 L 42.875 40 C 44.608342 40 46.000002 38.695593 46 37.0625 L 46 16.25 C 46 14.616907 44.608338 13.28125 42.875 13.28125 L 26.1875 13.28125 L 24.9375 10.9375 C 24.220631 9.042752 23.15482 7.9345843 21.8125 8 L 5.125 8 z M 23.625 16.625 L 24.09375 16.625 C 27.506489 16.625 29.90625 18.587229 29.90625 22 L 29.90625 24.90625 L 30.90625 24.875 C 31.881317 24.875 32.375 25.399931 32.375 26.375 L 32.375 34.6875 C 32.375 35.165441 31.881597 36.089084 31.09375 36.09375 L 16.75 36.09375 C 15.774933 36.09375 15.3125 35.165442 15.3125 34.6875 L 15.3125 26.375 C 15.3125 25.399931 15.774933 24.90625 16.75 24.90625 L 17.75 24.90625 L 17.75 22 C 17.75 18.672048 20.212263 16.625 23.625 16.625 z M 23.625 19.03125 C 20.212205 19.03125 20.1875 21.962432 20.1875 22.9375 L 20.1875 24.90625 L 27.46875 24.90625 L 27.46875 22.9375 C 27.46875 21.962432 27.506492 19.03125 24.09375 19.03125 L 23.625 19.03125 z M 23.75 26.3125 C 22.521255 26.3125 21.5625 27.333754 21.5625 28.5625 C 21.5625 29.257381 21.875948 29.842005 22.375 30.25 L 22.375 32.71875 C 22.375 33.519917 22.980085 34.15625 23.78125 34.15625 C 24.582415 34.15625 25.25 33.519917 25.25 32.71875 L 25.25 30.1875 C 25.694022 29.780752 25.96875 29.212125 25.96875 28.5625 C 25.96875 27.333754 24.978746 26.3125 23.75 26.3125 z "
     id="path-main" />
</defs>
<acyl-settings>
<linearGradient
     id="linearGradient4321">
    <stop
       style="stop-color:#FFFFFF;stop-opacity:1.0;"
       offset="1.0"
       id="stop1" />
  </linearGradient>
<linearGradient
     inkscape:collect="always"
     xlink:href="#linearGradient4321"
     id="acyl_gradient"
     x1="50.0%"
     y1="0.0%"
     x2="50.0%"
     y2="100.0%" />
<filter>
    </filter>
<use id="1" style="fill:url(#acyl_gradient);filter:url(#filter1111)" xlink:href="#path-main" />
</acyl-settings>
</svg>
