<svg xmlns="http://www.w3.org/2000/svg" width="48" height="48">
<defs>
  <path
     d="M 5.125 8 C 3.391658 8 2 9.304406 2 10.9375 L 2.125 37.0625 C 2.125 38.695593 3.51666 39.999996 5.25 40 L 42.875 40 C 44.608342 40 46.000002 38.695593 46 37.0625 L 46 16.25 C 46 14.616907 44.608338 13.28125 42.875 13.28125 L 26.1875 13.28125 L 24.9375 10.9375 C 24.220631 9.042752 23.15482 7.9345843 21.8125 8 L 5.125 8 z M 16 16.40625 L 24.90625 16.40625 L 29.96875 21.71875 L 29.9375 35.3125 C 29.937498 35.91638 29.484952 36.40625 28.90625 36.40625 L 16 36.40625 C 15.421293 36.40625 14.96875 35.916379 14.96875 35.3125 L 14.96875 17.5 C 14.96875 16.896122 15.421296 16.40625 16 16.40625 z "
     id="path-main" />
</defs>
<acyl-settings>
<linearGradient
     id="linearGradient4321">
    <stop
       style="stop-color:#FFFFFF;stop-opacity:1.0;"
       offset="1.0"
       id="stop1" />
  </linearGradient>
<linearGradient
     inkscape:collect="always"
     xlink:href="#linearGradient4321"
     id="acyl_gradient"
     x1="50.0%"
     y1="0.0%"
     x2="50.0%"
     y2="100.0%" />
<filter>
    </filter>
<use id="1" style="fill:url(#acyl_gradient);filter:url(#filter1111)" xlink:href="#path-main" />
</acyl-settings>
</svg>
