<svg xmlns="http://www.w3.org/2000/svg" width="48" height="48">
<defs>
  <path
     d="M 5.125 8 C 3.391658 8 2 9.304406 2 10.9375 L 2.125 37.0625 C 2.125 38.695593 3.51666 39.999996 5.25 40 L 23.0625 40 L 23.0625 40.71875 C 22.47483 40.979166 21.984907 41.461568 21.75 42.0625 L 3 42.0625 C 2.96947 42.061 2.93678 42.061 2.90625 42.0625 C 2.366389 42.08781 1.974694 42.553888 2 43.09375 C 2.02531 43.633612 2.460139 44.056556 3 44.03125 L 21.8125 44.03125 C 22.20961 44.844062 23.066226 45.406249 24.03125 45.40625 C 24.996275 45.40625 25.82164 44.844062 26.21875 44.03125 L 45 44.03125 C 45.352524 44.03625 45.697282 43.835741 45.875 43.53125 C 46.052716 43.226759 46.052716 42.86699 45.875 42.5625 C 45.697282 42.25801 45.352524 42.057515 45 42.0625 L 26.3125 42.0625 C 26.077594 41.461568 25.587671 40.979166 25 40.71875 L 25 40 L 42.875 40 C 44.608342 40 46.000002 38.695593 46 37.0625 L 46 16.25 C 46 14.616907 44.608338 13.28125 42.875 13.28125 L 26.1875 13.28125 L 24.9375 10.9375 C 24.220631 9.042752 23.15482 7.9345843 21.8125 8 L 5.125 8 z "
     id="path-main" />
</defs>
<acyl-settings>
<linearGradient
     id="linearGradient4321">
    <stop
       style="stop-color:#FFFFFF;stop-opacity:1.0;"
       offset="1.0"
       id="stop1" />
  </linearGradient>
<linearGradient
     inkscape:collect="always"
     xlink:href="#linearGradient4321"
     id="acyl_gradient"
     x1="50.0%"
     y1="0.0%"
     x2="50.0%"
     y2="100.0%" />
<filter>
    </filter>
<use id="1" style="fill:url(#acyl_gradient);filter:url(#filter1111)" xlink:href="#path-main" />
</acyl-settings>
</svg>
