/* XPM */
static char *x[] = {
/* columns rows colors chars-per-pixel */
"24 24 56 1 ",
"  c #760706",
". c #7E0907",
"X c #7F0907",
"o c #7D0D0A",
"O c #7C0E0B",
"+ c #900D0A",
"@ c #910D0A",
"# c #85120D",
"$ c #851716",
"% c #861716",
"& c #851D13",
"* c #8B1C12",
"= c #8B1D14",
"- c #A30C0A",
"; c #A5130D",
": c #A5130E",
"> c #B6120E",
", c #B7120E",
"< c #B8120E",
"1 c #BC1710",
"2 c #B71A12",
"3 c #8B2417",
"4 c #A32116",
"5 c #BB2A1C",
"6 c #9D332B",
"7 c #A5382C",
"8 c #A6382C",
"9 c #C01C13",
"0 c #C52016",
"q c #C6241B",
"w c #C92518",
"e c #C0281B",
"r c #CD291B",
"t c #D02E1E",
"y c #D22E1E",
"u c #CF3421",
"i c #CC3327",
"p c #D63221",
"a c #DA3723",
"s c #DF3B26",
"d c #E03F2B",
"f c #E34029",
"g c #E7452B",
"h c #EC492E",
"j c #ED4E32",
"k c #E54F3B",
"l c #F04E31",
"z c #CF524C",
"x c #F15C41",
"c c #F15D42",
"v c #EC715E",
"b c #F67C64",
"n c #E4938D",
"m c #EF9F95",
"M c #F5A799",
"N c None",
/* pixels */
"NNNNNNNNNNNNNNNNNNNNNNNN",
"NNNNNNNNNNNNNNNNNNNNNNNN",
"NNNNNNNNNNNNNNNNNNNNNNNN",
"NNNNNNNNNNNNNNNNNNNNNNNN",
"NNNNNNN NNNNNNNN NNNNNNN",
"NNNNN%.-.%NNNN%.-.%NNNNN",
"NNNNO@,<,@ONNO@,<,@ONNNN",
"NNN#:11111:OO:11111:#NNN",
"NNNNz99919922999999zNNNN",
"NNNNNnw0000NN0000qnNNNNN",
"NNNNNNNiwwwNNwwwiNNNNNNN",
"NNNNNN65trrNNrrre6NNNNNN",
"NNNNN=4yyyyNNyyyy4=NNNNN",
"NNNN*5pppppNNppppp5*NNNN",
"NNN8uaaaaaaNNaaaaaau8NNN",
"NNNNmdsssss&&sssssdmNNNN",
"NNNNNNkffffNNffffkNNNNNN",
"NNNNNNNvgggNNgggvNNNNNNN",
"NNNNNNNNMjh33hjMNNNNNNNN",
"NNNNNNNNNNcllcNNNNNNNNNN",
"NNNNNNNNNNNbbNNNNNNNNNNN",
"NNNNNNNNNNNNNNNNNNNNNNNN",
"NNNNNNNNNNNNNNNNNNNNNNNN",
"NNNNNNNNNNNNNNNNNNNNNNNN"
};
