<?xml version="1.0" encoding="UTF-8" standalone="no"?>
<!-- Created with Inkscape (http://www.inkscape.org/) -->

<svg
   xmlns:dc="http://purl.org/dc/elements/1.1/"
   xmlns:cc="http://creativecommons.org/ns#"
   xmlns:rdf="http://www.w3.org/1999/02/22-rdf-syntax-ns#"
   xmlns:svg="http://www.w3.org/2000/svg"
   xmlns="http://www.w3.org/2000/svg"
   xmlns:xlink="http://www.w3.org/1999/xlink"
   xmlns:inkscape="http://www.inkscape.org/namespaces/inkscape"
   version="1.0"
   width="22"
   height="22"
   id="svg2"
   style="display:inline">
  <defs
     id="defs4">
    <linearGradient
       x1="9.8299322"
       y1="55.716991"
       x2="9.8299322"
       y2="44.99865"
       id="linearGradient4646"
       xlink:href="#linearGradient3735"
       gradientUnits="userSpaceOnUse"
       gradientTransform="matrix(0.25,0,0,0.83333333,2.5,-31.5)" />
    <linearGradient
       id="linearGradient3735">
      <stop
         id="stop3737"
         style="stop-color:#ce1717;stop-opacity:1"
         offset="0" />
      <stop
         id="stop3739"
         style="stop-color:#ff7a6d;stop-opacity:1"
         offset="1" />
    </linearGradient>
    <linearGradient
       x1="71"
       y1="17"
       x2="71"
       y2="5"
       id="linearGradient5569"
       xlink:href="#linearGradient4081-3"
       gradientUnits="userSpaceOnUse"
       gradientTransform="translate(-60,0)" />
    <linearGradient
       id="linearGradient4081-3">
      <stop
         id="stop4083-3"
         style="stop-color:#aaaaaa;stop-opacity:1"
         offset="0" />
      <stop
         id="stop4085-4"
         style="stop-color:#ebebeb;stop-opacity:1"
         offset="1" />
    </linearGradient>
  </defs>
  <metadata
     id="metadata7">
    <rdf:RDF>
      <cc:Work
         rdf:about="">
        <dc:format>image/svg+xml</dc:format>
        <dc:type
           rdf:resource="http://purl.org/dc/dcmitype/StillImage" />
        <dc:title />
      </cc:Work>
    </rdf:RDF>
  </metadata>
  <g
     id="layer1"
     style="display:inline">
    <rect
       width="4"
       height="10"
       x="3"
       y="6"
       id="rect4636"
       style="fill:url(#linearGradient4646);fill-opacity:1;stroke:none" />
    <path
       d="m 63.5,4.03125 c -1.344123,0 -2.46875,1.1246267 -2.46875,2.46875 l 0,9 c 0,1.344123 1.124627,2.46875 2.46875,2.46875 l 13,0 c 1.344123,0 2.46875,-1.124627 2.46875,-2.46875 l 0,-1.53125 0.03125,0 c 1.067123,0 1.96875,-0.901627 1.96875,-1.96875 l 0,-2 C 80.96875,8.9328767 80.067123,8.03125 79,8.03125 l -0.03125,0 0,-1.53125 c 0,-1.3441233 -1.124627,-2.46875 -2.46875,-2.46875 l -13,0 z m 1.5,3.9375 10,0 c 0.04088,0 0.03125,-0.00963 0.03125,0.03125 l 0,2 0,2 0,2 c 0,0.04088 0.0096,0.03125 -0.03125,0.03125 l -10,0 c -0.04088,0 -0.03125,0.0096 -0.03125,-0.03125 l 0,-6 c 0,-0.040877 -0.0096,-0.03125 0.03125,-0.03125 z"
       transform="translate(-60,0)"
       id="path4521"
       style="opacity:0.25;fill:#000000;fill-opacity:1;stroke:none;display:inline" />
    <path
       d="M 3.5,5 C 2.669,5 2,5.669 2,6.5 l 0,9 C 2,16.331 2.669,17 3.5,17 l 13,0 c 0.831,0 1.5,-0.669 1.5,-1.5 l 0,-2.5 1,0 c 0.554,0 1,-0.446 1,-1 l 0,-2 C 20,9.446 19.554,9 19,9 L 18,9 18,6.5 C 18,5.669 17.331,5 16.5,5 L 3.5,5 z M 5,7 15,7 c 0.554,0 1,0.446 1,1 l 0,2 0,2 0,2 c 0,0.554 -0.446,1 -1,1 L 5,15 C 4.446,15 4,14.554 4,14 L 4,8 C 4,7.446 4.446,7 5,7 z"
       inkscape:connector-curvature="0"
       id="path4523"
       style="fill:url(#linearGradient5569);fill-opacity:1;stroke:none;display:inline" />
    <path
       d="M 3.5,5 C 2.669,5 2,5.669 2,6.5 l 0,1 C 2,6.669 2.669,6 3.5,6 l 13,0 C 17.331,6 18,6.669 18,7.5 l 0,-1 C 18,5.669 17.331,5 16.5,5 l -13,0 z m 14.5,4 0,1 1,0 c 0.554,0 1,0.446 1,1 l 0,-1 C 20,9.446 19.554,9 19,9 l -1,0 z m -14,5 0,1 c 0,0.554 0.446,1 1,1 l 10,0 c 0.554,0 1,-0.446 1,-1 l 0,-1 c 0,0.554 -0.446,1 -1,1 L 5,15 C 4.446,15 4,14.554 4,14 z"
       inkscape:connector-curvature="0"
       id="path4525"
       style="opacity:0.6;fill:#ffffff;fill-opacity:1;stroke:none;display:inline" />
    <path
       d="M 5,7 C 4.446,7 4,7.446 4,8 L 4,9 C 4,8.446 4.446,8 5,8 l 10,0 c 0.554,0 1,0.446 1,1 L 16,8 C 16,7.446 15.554,7 15,7 L 5,7 z"
       inkscape:connector-curvature="0"
       id="path5576"
       style="opacity:0.3;fill:#000000;fill-opacity:1;stroke:none;display:inline" />
    <path
       d="m 20,12 c 0,0.554 -0.446,1 -1,1 l -1,0 0,1 1,0 c 0.554,0 1,-0.446 1,-1 l 0,-1 z"
       inkscape:connector-curvature="0"
       id="path5574"
       style="opacity:0.5;fill:#000000;fill-opacity:1;stroke:none;display:inline" />
    <path
       d="m 2,15.5 0,1 C 2,17.331 2.669,18 3.5,18 l 13,0 c 0.831,0 1.5,-0.669 1.5,-1.5 l 0,-1 c 0,0.831 -0.669,1.5 -1.5,1.5 l -13,0 C 2.669,17 2,16.331 2,15.5 z"
       inkscape:connector-curvature="0"
       id="path4190"
       style="opacity:0.45;fill:#000000;fill-opacity:1;stroke:none;display:inline" />
  </g>
</svg>
