<?xml version="1.0" encoding="UTF-8" standalone="no"?>
<!-- Created with Inkscape (http://www.inkscape.org/) -->

<svg
   xmlns:dc="http://purl.org/dc/elements/1.1/"
   xmlns:cc="http://creativecommons.org/ns#"
   xmlns:rdf="http://www.w3.org/1999/02/22-rdf-syntax-ns#"
   xmlns:svg="http://www.w3.org/2000/svg"
   xmlns="http://www.w3.org/2000/svg"
   xmlns:inkscape="http://www.inkscape.org/namespaces/inkscape"
   version="1.0"
   width="22"
   height="22"
   id="svg2"
   style="display:inline">
  <defs
     id="defs4" />
  <metadata
     id="metadata7">
    <rdf:RDF>
      <cc:Work
         rdf:about="">
        <dc:format>image/svg+xml</dc:format>
        <dc:type
           rdf:resource="http://purl.org/dc/dcmitype/StillImage" />
        <dc:title />
      </cc:Work>
    </rdf:RDF>
  </metadata>
  <g
     id="layer1"
     style="display:inline">
    <path
       d="M 3.5,5 C 2.669,5 2,5.669 2,6.5 l 0,9 C 2,16.331 2.669,17 3.5,17 l 13,0 c 0.831,0 1.5,-0.669 1.5,-1.5 l 0,-2.5 1,0 c 0.554,0 1,-0.446 1,-1 l 0,-2 C 20,9.446 19.554,9 19,9 L 18,9 18,6.5 C 18,5.669 17.331,5 16.5,5 L 3.5,5 z M 5,7 15,7 c 0.554,0 1,0.446 1,1 l 0,2 0,2 0,2 c 0,0.554 -0.446,1 -1,1 L 5,15 C 4.446,15 4,14.554 4,14 L 4,8 C 4,7.446 4.446,7 5,7 z"
       inkscape:connector-curvature="0"
       id="path4523"
       style="opacity:0.3;fill:#ffffff;fill-opacity:1;stroke:none;display:inline" />
  </g>
</svg>
