<svg xmlns="http://www.w3.org/2000/svg" width="48" height="48">
<defs>
<defs
     id="defs2385">
  </defs>
  <path
     id="path-main"
     d="M 3 7 L 3 42 L 45 42 L 45 10.5 L 25.75 10.5 L 25.75 7 L 3 7 z M 4.75 8.75 L 24 8.75 L 24 12.25 L 43.25 12.25 L 43.25 15.75 L 20.5 15.75 L 20.5 12.25 L 4.75 12.25 L 4.75 8.75 z M 26.4375 20.9375 C 27.501001 20.9375 28.34375 21.886377 28.34375 23.0625 C 28.34375 23.286292 28.24547 23.479773 28.1875 23.6875 C 28.554255 23.920392 28.875033 24.185009 29.1875 24.5 C 29.56576 24.178837 30.024605 23.9375 30.53125 23.9375 C 31.745706 23.9375 32.71875 25.032242 32.71875 26.375 C 32.71875 26.513643 32.6773 26.62181 32.65625 26.75 C 33.335115 27.059238 33.886915 27.575534 34.28125 28.25 C 34.395059 28.23194 34.506131 28.1875 34.625 28.1875 C 35.816008 28.1875 36.762745 29.132975 37 30.375 C 37.655988 30.496537 38.1875 31.055025 38.1875 31.8125 C 38.187501 32.655355 37.574087 33.34375 36.8125 33.34375 C 36.524613 33.34375 36.25533 33.262926 36.03125 33.09375 C 35.624023 33.421933 35.167792 33.656249 34.625 33.65625 C 34.240792 33.65625 33.946863 33.453405 33.625 33.28125 C 33.005487 33.859501 32.220744 34.28125 31.34375 34.28125 C 30.59521 34.28125 29.916778 33.966599 29.34375 33.53125 C 28.298748 34.68516 26.934156 35.46875 25.34375 35.46875 C 24.149737 35.46875 23.046451 35.002089 22.125 34.3125 C 21.566946 34.802558 20.897727 35.187499 20.125 35.1875 C 18.93355 35.1875 17.920864 34.454027 17.34375 33.40625 C 17.019945 33.558923 16.689838 33.656249 16.3125 33.65625 C 15.449658 33.656249 14.754487 33.127495 14.25 32.4375 C 13.963884 32.618799 13.630485 32.78125 13.28125 32.78125 C 12.217749 32.78125 11.375 31.801119 11.375 30.625 C 11.375 29.448881 12.217749 28.468749 13.28125 28.46875 C 13.627621 28.46875 13.965495 28.602714 14.25 28.78125 C 14.754487 28.091253 15.449657 27.562498 16.3125 27.5625 C 16.546403 27.5625 16.723199 27.68767 16.9375 27.75 C 16.964728 27.562353 17.00612 27.392732 17.0625 27.21875 C 16.620982 26.883002 16.28125 26.40913 16.28125 25.78125 C 16.28125 24.771766 17.024956 23.9375 17.9375 23.9375 C 18.641969 23.9375 19.133692 24.497351 19.375 25.1875 C 19.446777 25.17894 19.51526 25.15625 19.59375 25.15625 C 19.973816 25.15625 20.289395 25.344878 20.625 25.5 C 21.515476 24.084368 22.888633 23.132846 24.5 22.875 C 24.595492 21.794673 25.437119 20.9375 26.4375 20.9375 z "
 />

</defs>
<acyl-settings>
<linearGradient
     id="linearGradient4321">
    <stop
       style="stop-color:#FFFFFF;stop-opacity:1.0;"
       offset="1.0"
       id="stop1" />
  </linearGradient>
<linearGradient
     inkscape:collect="always"
     xlink:href="#linearGradient4321"
     id="acyl_gradient"
     x1="50.0%"
     y1="0.0%"
     x2="50.0%"
     y2="100.0%" />
<filter>
    </filter>
<use id="1" style="fill:url(#acyl_gradient);filter:url(#filter1111)" xlink:href="#path-main" />
</acyl-settings>
</svg>
