<svg xmlns="http://www.w3.org/2000/svg" width="48" height="48">
<defs>
<defs
     id="defs2385">
  </defs>
  <path
     id="path-main"
     d="M 3 7 L 3 42 L 45 42 L 45 10.5 L 25.75 10.5 L 25.75 7 L 3 7 z M 4.75 8.75 L 24 8.75 L 24 12.25 L 43.25 12.25 L 43.25 15.75 L 20.5 15.75 L 20.5 12.25 L 4.75 12.25 L 4.75 8.75 z M 23.59375 20.875 C 24.159689 20.875 24.667324 21.223774 24.9375 21.75 L 31.78125 35.53125 L 31.8125 35.53125 L 31.8125 35.5625 C 32.012866 36.051257 31.98852 36.64267 31.71875 37.125 C 31.71355 37.13425 31.72415 37.14705 31.71875 37.15625 C 31.467403 37.64972 30.988643 37.906251 30.4375 37.90625 L 16.78125 37.90625 C 16.249228 37.90625 15.741443 37.659219 15.46875 37.1875 C 15.177094 36.682981 15.175972 36.084234 15.40625 35.59375 L 15.40625 35.5625 L 22.1875 21.8125 L 22.21875 21.78125 C 22.485723 21.269042 22.993894 20.875001 23.59375 20.875 z M 23.59375 25.125 C 23.538121 25.125 23.47209 25.15853 23.4375 25.25 L 18.625 34.96875 C 18.521579 35.151696 18.610094 35.3125 18.78125 35.3125 L 28.4375 35.3125 C 28.608659 35.312502 28.695716 35.151698 28.59375 34.96875 L 23.75 25.25 C 23.699022 25.158532 23.64938 25.125 23.59375 25.125 z M 22.71875 28.34375 L 24.6875 28.375 L 23.9375 31.28125 L 23.4375 31.34375 L 22.71875 28.34375 z M 23.8125 32.21875 C 23.926885 32.23401 24.072518 32.30862 24.1875 32.375 C 24.647426 32.640537 24.694378 33.104205 24.4375 33.625 C 24.168464 34.090986 23.678676 34.265539 23.21875 34 C 22.791674 33.753427 22.668465 33.215983 22.9375 32.75 C 23.154797 32.373628 23.469347 32.17297 23.8125 32.21875 z "
/>
</defs>
<acyl-settings>
<linearGradient
     id="linearGradient4321">
    <stop
       style="stop-color:#FFFFFF;stop-opacity:1.0;"
       offset="1.0"
       id="stop1" />
  </linearGradient>
<linearGradient
     inkscape:collect="always"
     xlink:href="#linearGradient4321"
     id="acyl_gradient"
     x1="50.0%"
     y1="0.0%"
     x2="50.0%"
     y2="100.0%" />
<filter>
    </filter>
<use id="1" style="fill:url(#acyl_gradient);filter:url(#filter1111)" xlink:href="#path-main" />
</acyl-settings>
</svg>
