<svg xmlns="http://www.w3.org/2000/svg" width="48" height="48">
<defs>
<defs
     id="defs4">
  </defs>
  <g
     inkscape:label="Layer 1"
     inkscape:groupmode="layer"
     id="layer1">
    <path
         d="M 3 7 L 3 42 L 23.625 42 L 23.625 42.90625 C 23.023805 43.172659 22.521563 43.666489 22.28125 44.28125 L 3.125 44.28125 C 3.0937672 44.279784 3.0624828 44.279784 3.03125 44.28125 C 2.4789653 44.307138 2.0678616 44.791465 2.09375 45.34375 C 2.1196383 45.896035 2.5727153 46.307138 3.125 46.28125 L 22.375 46.28125 C 22.781247 47.112766 23.637769 47.687499 24.625 47.6875 C 25.61223 47.6875 26.468752 47.112766 26.875 46.28125 L 46.09375 46.28125 C 46.454387 46.28635 46.786943 46.092748 46.96875 45.78125 C 47.150557 45.469752 47.150556 45.092747 46.96875 44.78125 C 46.786944 44.469753 46.454386 44.27615 46.09375 44.28125 L 26.96875 44.28125 C 26.728437 43.666489 26.226194 43.172659 25.625 42.90625 L 25.625 42 L 45 42 L 45 10.5 L 25.75 10.5 L 25.75 7 L 3 7 z M 4.75 8.75 L 24 8.75 L 24 12.25 L 43.25 12.25 L 43.25 15.75 L 20.5 15.75 L 20.5 12.25 L 4.75 12.25 L 4.75 8.75 z M 20.21875 19.125 C 20.635307 19.119807 21.087669 19.131028 21.5625 19.1875 C 22.512161 19.300445 23.54927 19.582816 24.6875 20.0625 C 24.913474 20.157733 25.096543 20.19373 25.3125 20.28125 C 27.050326 20.985538 28.52571 21.49483 29.625 21.65625 C 30.839586 21.834602 31.599542 21.648498 32.25 21.21875 C 32.592666 20.947885 33.044602 20.902914 33.4375 21.09375 C 33.8304 21.284588 34.094803 21.688208 34.09375 22.125 L 34.15625 28.71875 C 34.191435 28.879283 34.191435 29.058218 34.15625 29.21875 L 34.25 35.15625 C 34.270049 35.278359 34.270047 35.409143 34.25 35.53125 C 34.250103 35.540031 34.250101 35.553719 34.25 35.5625 C 34.24252 35.593589 34.22882 35.625903 34.21875 35.65625 C 34.199437 35.728932 34.158239 35.77629 34.125 35.84375 C 34.120724 35.852588 34.129502 35.866277 34.125 35.875 C 34.112858 35.901844 34.107937 35.942929 34.09375 35.96875 C 34.089397 35.973177 34.066927 35.964395 34.0625 35.96875 C 34.046047 35.995814 34.018652 36.036903 34 36.0625 C 33.98326 36.085095 33.955868 36.103707 33.9375 36.125 C 33.928865 36.133925 33.915172 36.147614 33.90625 36.15625 C 33.884958 36.174619 33.866343 36.202009 33.84375 36.21875 C 33.736225 36.316213 33.604825 36.387062 33.46875 36.4375 C 33.457032 36.444426 33.449263 36.461928 33.4375 36.46875 C 32.32479 37.114121 31.029385 37.315272 29.625 37.125 C 28.090598 36.917113 26.368584 36.330331 24.25 35.4375 C 20.837769 33.999489 18.580895 34.8465 18.15625 35.03125 C 18.151895 35.035677 18.129427 35.058146 18.125 35.0625 C 17.831209 35.271291 17.467699 35.330387 17.125 35.21875 C 16.782299 35.107114 16.520689 34.810524 16.40625 34.46875 C 16.401745 34.460028 16.379277 34.477586 16.375 34.46875 C 16.356014 34.404196 16.351055 34.316891 16.34375 34.25 C 16.33729 34.210747 16.314815 34.164716 16.3125 34.125 L 16.3125 34.03125 L 16.15625 21.0625 C 16.153172 21.014258 16.153173 20.954493 16.15625 20.90625 C 16.155004 20.875532 16.155005 20.843218 16.15625 20.8125 C 16.165068 20.626613 16.217538 20.472545 16.3125 20.3125 C 16.316853 20.308075 16.339324 20.285605 16.34375 20.28125 C 16.401574 20.188124 16.480572 20.104081 16.5625 20.03125 C 16.704505 19.902734 16.876165 19.825544 17.0625 19.78125 C 17.37701 19.634389 18.00313 19.367427 19.0625 19.21875 C 19.410676 19.169886 19.802192 19.130194 20.21875 19.125 z M 20.25 21.40625 C 19.933574 21.414742 19.634565 21.432321 19.375 21.46875 C 18.95176 21.52815 18.679257 21.61147 18.4375 21.6875 L 18.5 26.15625 C 19.730563 25.868926 21.543991 25.700856 23.8125 26.375 L 23.78125 22.125 C 22.861012 21.743283 22.008555 21.52379 21.28125 21.4375 C 20.90995 21.393449 20.566425 21.397759 20.25 21.40625 z M 26.03125 23 L 26.09375 27.1875 C 27.606371 27.789146 28.891462 28.281712 29.84375 28.4375 C 30.743822 28.584747 31.338501 28.476355 31.875 28.25 L 31.8125 23.8125 C 31.01715 23.987682 30.173552 24.037277 29.28125 23.90625 C 28.299651 23.762112 27.19131 23.414114 26.03125 23 z M 20.5 28.125 C 20.195602 28.123931 19.907222 28.1548 19.65625 28.1875 C 19.163418 28.251713 18.810886 28.341467 18.53125 28.4375 L 18.59375 32.625 C 19.835533 32.373854 21.657352 32.233484 23.90625 32.90625 L 23.84375 28.8125 C 22.544786 28.312659 21.41319 28.128209 20.5 28.125 z M 26.125 29.65625 L 26.1875 33.71875 C 27.697781 34.310613 28.964525 34.747411 29.90625 34.875 C 30.803566 34.996574 31.416392 34.873783 31.96875 34.625 L 31.90625 30.625 C 31.142697 30.781463 30.342172 30.794024 29.5 30.65625 C 28.489319 30.49091 27.347011 30.116235 26.125 29.65625 z "
       id="path-main" />
  </g>
</defs>
<acyl-settings>
<linearGradient
     id="linearGradient4321">
    <stop
       style="stop-color:#FFFFFF;stop-opacity:1.0;"
       offset="1.0"
       id="stop1" />
  </linearGradient>
<linearGradient
     inkscape:collect="always"
     xlink:href="#linearGradient4321"
     id="acyl_gradient"
     x1="50.0%"
     y1="0.0%"
     x2="50.0%"
     y2="100.0%" />
<filter>
    </filter>
<use id="1" style="fill:url(#acyl_gradient);filter:url(#filter1111)" xlink:href="#path-main" />
</acyl-settings>
</svg>
