<svg xmlns="http://www.w3.org/2000/svg" width="48" height="48">
<defs>
<defs
     id="defs2385">
  </defs>
  <path
     id="path-main"
     d="M 3 7 L 3 42 L 45 42 L 45 10.5 L 25.75 10.5 L 25.75 7 L 3 7 z M 4.75 8.75 L 24 8.75 L 24 12.25 L 43.25 12.25 L 43.25 15.75 L 20.5 15.75 L 20.5 12.25 L 4.75 12.25 L 4.75 8.75 z M 20.0625 18.625 C 20.439639 18.570574 20.879715 18.709169 21.03125 19.125 C 21.334319 19.956662 21.03125 20.940115 26.03125 22.5 C 31.03125 24.059885 31.126602 29.949621 28.71875 33.25 C 31.648007 25.24213 23.698879 22.736783 22.6875 23.46875 L 27.09375 35.125 C 28.23951 38.155817 24.83622 39.40625 22.625 39.40625 C 20.41378 39.40625 17.80975 38.54197 17.71875 36.46875 C 17.627752 34.39553 21.716535 33.02373 24.75 33.6875 L 19.53125 19.375 C 19.371161 18.933141 19.685361 18.679426 20.0625 18.625 z "
/>
</defs>
<acyl-settings>
<linearGradient
     id="linearGradient4321">
    <stop
       style="stop-color:#FFFFFF;stop-opacity:1.0;"
       offset="1.0"
       id="stop1" />
  </linearGradient>
<linearGradient
     inkscape:collect="always"
     xlink:href="#linearGradient4321"
     id="acyl_gradient"
     x1="50.0%"
     y1="0.0%"
     x2="50.0%"
     y2="100.0%" />
<filter>
    </filter>
<use id="1" style="fill:url(#acyl_gradient);filter:url(#filter1111)" xlink:href="#path-main" />
</acyl-settings>
</svg>
