<svg xmlns="http://www.w3.org/2000/svg" width="48" height="48">
<defs>
<defs
     id="defs2385">
  </defs>
  <path
     id="path-main"
     d="M 3 7 L 3 42 L 45 42 L 45 10.5 L 25.75 10.5 L 25.75 7 L 3 7 z M 4.75 8.75 L 24 8.75 L 24 12.25 L 43.25 12.25 L 43.25 15.75 L 20.5 15.75 L 20.5 12.25 L 4.75 12.25 L 4.75 8.75 z M 30.3125 19.09375 L 32.6875 21.5 L 30.3125 23.625 L 29.375 23.75 L 25 28.125 L 30.875 34.03125 C 31.310833 34.46933 31.310833 35.186921 30.875 35.625 L 30.03125 36.46875 C 29.595419 36.906828 28.904582 36.906827 28.46875 36.46875 L 22.59375 30.5625 L 21.78125 31.375 C 22.334401 32.240717 22.383498 33.241924 21.8125 33.8125 L 18.125 37.46875 C 17.426078 38.167157 16.081579 37.987124 15.125 37.03125 L 14.78125 36.65625 C 13.824671 35.700377 13.613578 34.385907 14.3125 33.6875 L 18 30 C 18.594872 29.405567 19.640799 29.472852 20.53125 30.09375 L 21.3125 29.28125 L 19.125 27.0625 C 18.138152 27.775207 16.858273 27.581607 15.96875 26.6875 L 14.65625 25.40625 C 13.677861 24.422817 13.669452 22.841027 14.625 21.84375 C 15.465132 22.742469 16.35792 23.587812 17.21875 24.46875 L 18.25 24.46875 L 18.96875 23.78125 L 18.96875 22.71875 L 16.3125 20.09375 C 17.304663 19.133276 18.896612 19.172817 19.875 20.15625 L 21.15625 21.4375 C 22.045772 22.331608 22.240302 23.633065 21.53125 24.625 L 23.75 26.84375 L 28.0625 22.46875 L 28.375 21.34375 L 30.3125 19.09375 z "
/>
</defs>
<acyl-settings>
<linearGradient
     id="linearGradient4321">
    <stop
       style="stop-color:#FFFFFF;stop-opacity:1.0;"
       offset="1.0"
       id="stop1" />
  </linearGradient>
<linearGradient
     inkscape:collect="always"
     xlink:href="#linearGradient4321"
     id="acyl_gradient"
     x1="50.0%"
     y1="0.0%"
     x2="50.0%"
     y2="100.0%" />
<filter>
    </filter>
<use id="1" style="fill:url(#acyl_gradient);filter:url(#filter1111)" xlink:href="#path-main" />
</acyl-settings>
</svg>
