<svg xmlns="http://www.w3.org/2000/svg" width="48" height="48">
<defs>
  <path
     id="path-main"
     d="m 22.220519,2.0923623 0,17.7457667 c -0.954304,-0.426077 -2.08269,-0.305434 -3.512501,-0.305435 -2.928257,0 -4.673154,0.966308 -4.673154,2.321306 0,1.354996 1.744896,2.321306 4.673154,2.321305 2.928257,0 5.86435,-1.027392 5.86435,-2.382392 l 0,-12.0646784 6.994459,4.5815234 0,12.767178 c -0.954305,-0.426078 -2.082689,-0.580325 -3.512501,-0.580326 -2.928258,-1e-6 -4.673154,0.996852 -4.673154,2.351849 1e-6,1.354999 1.744896,2.321306 4.673154,2.321305 2.928257,1e-6 5.864349,-0.874675 5.864349,-2.229675 l 0,-18.723159 -11.698156,-8.1245677 z m 16.768376,3.3292404 c -0.749503,0.078557 -1.317401,0.7124899 -1.31337,1.4660874 l 0,4.8869579 -2.015871,0 0,0.794131 1.527175,0 0.183261,0 0,0.183261 c 0,0 4.27e-4,6.110176 0,12.217395 2.32e-4,4.133553 -1.9e-5,8.267105 0,12.400657 l -6.811198,0 0,4.886958 -17.012724,0 0,-4.886958 -10.7513081,0 c 0.00216,-8.206017 0.0022,-16.412035 0,-24.618052 l 0,-0.183261 0.1832609,0 17.5014192,0 0,-0.794131 -18.3566369,0 c -0.076674,0.0042 -0.1298098,0.04963 -0.122174,0.122174 l 0,26.114683 c 10e-8,0.0771 0.087496,0.152718 0.183261,0.152718 l 10.5680469,0.03054 0,4.734241 c 0,0.06966 0.0226,0.121749 0.122174,0.122174 l 18.326094,0 c 0.09032,-0.0036 0.122174,-0.06057 0.122174,-0.122174 l 0,-4.764784 6.353046,0 0,6.353046 c -0.0074,0.528723 0.276361,1.016282 0.733043,1.282826 0.456684,0.266543 1.009405,0.266544 1.466088,0 0.456682,-0.266545 0.740521,-0.754103 0.733044,-1.282826 l 0,-14.691419 1.557718,0 c 0.269888,-2.7e-5 0.488668,-0.218807 0.488695,-0.488696 l 0,-3.879023 c -2.7e-5,-0.269888 -0.218807,-0.488668 -0.488695,-0.488696 l -1.557718,0 0,-1.924239 1.557718,0 c 0.269888,-2.8e-5 0.488668,-0.218808 0.488695,-0.488696 l 0,-3.879023 c -2.7e-5,-0.269886 -0.218807,-0.488666 -0.488695,-0.488693 l -1.557718,0 0,-9.8350034 3.909566,0 c 0.528724,0.00748 1.016282,-0.276361 1.282827,-0.7330437 0.266542,-0.4566827 0.266543,-1.0094049 0,-1.4660875 -0.266546,-0.4566826 -0.754103,-0.7405212 -1.282827,-0.7330437 -1.842733,-1.28e-5 -3.685767,0 -5.528371,0 z m 0.06109,0.9773916 5.467284,0 c 0.176242,-0.00249 0.338759,0.09212 0.427609,0.2443479 0.08885,0.1522276 0.08885,0.3364681 0,0.4886959 -0.08885,0.1522275 -0.251367,0.2468403 -0.427609,0.2443479 l -4.886958,0 0,11.178917 c -0.01703,0.0609 -0.01055,0.115786 0,0.183261 l 0,25.778705 c 0.0024,0.176241 -0.09212,0.338759 -0.244348,0.427608 -0.152228,0.08884 -0.336468,0.08884 -0.488696,0 -0.152227,-0.08885 -0.24684,-0.251367 -0.244348,-0.427608 l 0,-37.6295789 c -0.0042,-0.2378147 0.163426,-0.4441162 0.397063,-0.4886958 z M 3.1919252,12.935301 c 0.00372,8.146926 -0.030436,23.829013 -0.030543,24.068269 l 10.7513078,0 0.03054,4.856415 1.252284,0 0,-3.787393 c 0,-0.114076 0.05555,-0.29762 0.18326,-0.458152 l 0.03054,-2.565653 0,-0.09163 0.06109,-0.09163 1.832609,-2.748914 0.122174,-0.122174 0.183261,0 6.139242,0 c -1.129088,-0.615093 -2.1075,-1.753142 -2.107501,-3.145979 0,-0.04157 -0.0018,-0.08101 0,-0.122174 l -0.61087,0 -2.62674,0 -1.282827,0 -2.62674,0 -1.282826,0 -0.488696,0 -1.649349,0 0,3.512501 -0.671956,0 0,-1.496631 -6.4141326,-0.06109 -0.3359783,0 0,-0.335978 0,-11.850874 c 0.531368,-0.445858 1.162464,-0.794531 1.7715223,-1.160653 l 0,-0.183261 2.7489141,0 0,-0.549783 c 0,-0.326438 0.2538882,-0.580326 0.580326,-0.580326 l 0.580327,0 0,-2.779457 0.9773905,0 0,2.779457 0.977392,0 0,-2.779457 0.977392,0 0,2.779457 0.977391,0 0,-2.779457 0.977392,0 0,2.779457 0.977392,0 0,-2.779457 0.977391,0 0,2.779457 0.977392,0 0,-2.779457 0.977391,0 0,2.779457 0.977392,0 0,-2.779457 0.977392,0 0,2.779457 0.397065,0 0,-3.054349 -17.2876143,-0.03054 z m 23.1214218,0.03054 0,4.398263 3.512501,0 0,-2.107501 -3.512501,-2.290762 z m 9.346307,0 0,15.974245 c 0,0.969223 -0.531778,1.777675 -1.099565,2.260218 -0.567788,0.482543 -1.212421,0.768915 -1.893697,1.007935 -0.340637,0.11951 -0.700586,0.217168 -1.069022,0.305435 l -0.06109,0.06109 -0.09163,0.09163 -0.152718,0 -0.488695,0 c -0.133281,0.02322 -0.261617,0.04149 -0.397066,0.06109 l -1.618805,2.290761 -0.03054,2.687827 c 0.08343,0.138 0.122174,0.27108 0.122174,0.366522 l 0,3.787393 1.282826,0 0,-4.886958 6.841742,0.03054 c 1.27e-4,-4.011378 1.9e-5,-8.022756 0,-12.034135 4.19e-4,-6.000322 2e-6,-11.795419 0,-12.003591 l -1.343914,0 z m -9.346307,5.070219 0,3.176523 3.512501,0.03054 0,-3.207067 -3.512501,0 z m -20.8917471,0.09163 -1.0995656,0.733044 0,1.221739 1.0995656,-0.549783 0,-0.427609 2.7489141,0 0,-0.977391 -2.7489141,0 z m 35.1861001,1.038478 1.069022,0 0,2.901632 -1.069022,0 0,-2.901632 z m -34.7584912,0.916305 -1.5271745,0.763587 0,1.466088 1.0995656,-0.794131 0,-0.458152 2.7489141,0 0,-0.977392 -2.3213052,0 z m 20.6473992,1.802066 3.32924,2.443479 0,-2.412936 -3.32924,-0.03054 z m -20.5863122,0.152717 -1.5882615,1.13011 0,6.841741 6.0781547,0.06109 0,-1.679892 0,-0.122174 -0.824675,-2.321305 -0.244347,0 0,-2.840544 -0.580327,0 c -0.3264388,0 -0.580326,-0.253888 -0.580326,-0.580327 l 0,-0.488696 -2.2602182,0 z m 20.3114202,0.488696 1.405001,1.099566 0.122174,0.09163 0,0.183261 0,0.885761 c 0.104353,-0.0022 0.198847,-0.03054 0.305435,-0.03054 0.441586,0 0.869482,0.02063 1.282826,0.06109 l -3.115436,-2.290764 z m -15.913158,0.580327 0,2.840544 -0.03054,0 0.763587,2.107501 1.191196,0 -0.763587,-2.107501 -0.183261,0 0,-2.840544 -0.977392,0 z m 1.954784,0 0,2.840544 -0.06109,0 0.733043,2.107501 1.31337,0 -0.763587,-2.107501 -0.244348,0 0,-1.802066 C 12.955626,23.834745 12.737193,23.49185 12.568776,23.106283 l -0.305434,0 z m 13.683483,0.06109 c -0.194257,0.354734 -0.441171,0.651241 -0.702501,0.885761 -0.553005,0.496273 -1.180746,0.834937 -1.863152,1.099565 -0.422205,0.163726 -0.876355,0.283956 -1.343914,0.397066 l 0,0.397065 -0.03054,0 0.335978,0.946848 c 0.400973,-0.538932 0.924124,-0.988715 1.496631,-1.282826 0.922401,-0.473862 1.988352,-0.706048 3.207066,-0.794131 l 0,-0.794131 -1.099565,-0.855217 z m -11.7287,1.771522 0,1.007935 -0.03054,0 0.763588,2.107501 1.191196,0 -0.763588,-2.107501 -0.18326,0 0,-0.549783 c -0.240679,-0.0904 -0.478128,-0.190168 -0.702501,-0.305435 -0.09338,-0.04797 -0.183761,-0.09726 -0.274891,-0.152717 z m 1.954783,0.733044 0,0.274891 -0.06109,0 0.733044,2.107501 1.31337,0 -0.763587,-2.107501 -0.244348,0 0,-0.122174 c -0.336771,-0.04085 -0.666116,-0.08138 -0.977392,-0.152717 z m 4.886958,0.06109 c -0.324776,0.05223 -0.642369,0.0922 -0.977391,0.122174 l 0,0.09163 -0.06109,0 0.733044,2.107501 1.007935,0 c 0.03956,-0.146025 0.09367,-0.289301 0.152717,-0.427609 l -0.61087,-1.679892 -0.244348,0 0,-0.213804 z m -2.932175,0.183261 0,0.03054 -0.03054,0 0.763587,2.107501 1.191196,0 -0.763587,-2.107501 -0.183261,0 0,-0.03054 c -0.131952,0.0033 -0.264632,0.03054 -0.397065,0.03054 -0.202026,0 -0.386278,-0.02284 -0.580327,-0.03054 z m 22.480009,0.03054 1.069022,0 0,2.901632 -1.069022,0 0,-2.901632 z m -22.815987,6.719568 -1.710435,2.474022 -0.03054,2.138045 c 0.03876,-0.0031 0.08012,0 0.122174,0 0.781593,10e-7 0.977392,0.55035 0.977392,0.79413 l 0,3.787393 0.977391,0 0,-3.787393 c 0,-0.24378 0.211072,-0.79413 0.977392,-0.79413 0.06553,0 0.125737,0.02331 0.183261,0.03054 l 0.03054,-2.382392 0,-0.122174 0.06109,-0.09163 1.435544,-2.046413 -3.023806,0 z m 3.879023,0 -1.679892,2.351848 -0.03054,2.687827 c 0.08343,0.138 0.122174,0.27108 0.122174,0.366522 l 0,3.787393 0.977391,0 0,-3.787393 c 0,-0.24378 0.211072,-0.79413 0.977392,-0.79413 0.06553,0 0.125737,0.02331 0.183261,0.03054 l 0.03054,-2.382392 0,-0.122174 0.06109,-0.09163 1.435544,-2.046413 -2.076958,0 z m 2.932175,0 -1.679892,2.351848 -0.03054,2.687827 c 0.08343,0.138 0.122174,0.27108 0.122174,0.366522 l 0,3.787393 0.977391,0 0,-3.787393 c 0,-0.24378 0.211072,-0.79413 0.977392,-0.79413 0.07626,0 0.148341,0.02086 0.213805,0.03054 l 0.03054,-2.382392 0,-0.122174 0.06109,-0.09163 1.343914,-1.893696 c -0.336799,-0.03687 -0.665773,-0.08622 -0.977392,-0.152717 l -1.038479,0 z m 4.886959,0.183261 c -0.472772,0.0398 -0.95299,0.06109 -1.435544,0.06109 -0.223236,0 -0.427906,-0.02111 -0.641414,-0.03054 l -1.527174,2.138044 0,2.748914 c 0.05493,0.11475 0.06109,0.226092 0.06109,0.305435 l 0,3.787393 0.977391,0 0,-3.787393 c 0,-0.24378 0.211072,-0.79413 0.977392,-0.79413 0.06553,0 0.125737,0.02331 0.183261,0.03054 l 0.03054,-2.382392 0,-0.122174 0.06109,-0.09163 1.313371,-1.863152 z" />
</defs>
<acyl-settings>
<linearGradient
     id="linearGradient4321">
    <stop
       style="stop-color:#FFFFFF;stop-opacity:1.0;"
       offset="1.0"
       id="stop1" />
  </linearGradient>
<linearGradient
     inkscape:collect="always"
     xlink:href="#linearGradient4321"
     id="acyl_gradient"
     x1="50.0%"
     y1="0.0%"
     x2="50.0%"
     y2="100.0%" />
<filter>
    </filter>
<use id="1" style="fill:url(#acyl_gradient);filter:url(#filter1111)" xlink:href="#path-main" />
</acyl-settings>
</svg>
