<svg xmlns="http://www.w3.org/2000/svg" width="48" height="48">
<defs>
  <path
     d="M 24 2 C 11.856 2 2 11.856002 2 24 C 2 36.143997 11.856 46 24 46 C 36.144001 46 46 36.143997 46 24 C 46 11.856002 36.144001 2 24 2 z M 24 14.71875 C 29.119529 14.71875 33.28125 18.880467 33.28125 24 C 33.28125 29.119529 29.119529 33.28125 24 33.28125 C 18.880471 33.28125 14.71875 29.119529 14.71875 24 C 14.71875 18.880467 18.880471 14.71875 24 14.71875 z M 24 16.03125 C 19.594823 16.03125 16.03125 19.594823 16.03125 24 C 16.03125 28.405177 19.594823 31.96875 24 31.96875 C 28.405176 31.96875 31.96875 28.405177 31.96875 24 C 31.96875 19.594823 28.405176 16.03125 24 16.03125 z M 24 17.96875 C 27.333647 17.96875 30.03125 20.666353 30.03125 24 C 30.03125 27.333647 27.333647 30.03125 24 30.03125 C 20.666353 30.03125 17.96875 27.333647 17.96875 24 C 17.96875 20.666353 20.666353 17.96875 24 17.96875 z M 15.96875 35.59375 C 16.232177 35.593754 16.455522 35.616733 16.6875 35.6875 C 16.921437 35.75631 17.139294 35.860426 17.34375 36 L 17.34375 36.625 C 17.143226 36.438244 16.94679 36.311151 16.71875 36.21875 C 16.492669 36.12636 16.255563 36.062504 16 36.0625 C 15.49673 36.062504 15.111109 36.222609 14.84375 36.53125 C 14.576387 36.837932 14.437499 37.293099 14.4375 37.875 C 14.437499 38.45494 14.576387 38.878856 14.84375 39.1875 C 15.111109 39.49418 15.49673 39.656251 16 39.65625 C 16.255563 39.656251 16.492669 39.623645 16.71875 39.53125 C 16.94679 39.43885 17.143226 39.280511 17.34375 39.09375 L 17.34375 39.71875 C 17.135362 39.860294 16.921438 39.960479 16.6875 40.03125 C 16.455522 40.10202 16.228245 40.15625 15.96875 40.15625 C 15.302311 40.15625 14.758347 39.938192 14.375 39.53125 C 13.99165 39.122346 13.8125 38.580756 13.8125 37.875 C 13.8125 37.167283 13.99165 36.594442 14.375 36.1875 C 14.758347 35.778598 15.302311 35.593754 15.96875 35.59375 z M 18.28125 35.65625 L 19.5 35.65625 C 20.353194 35.656254 20.975921 35.831678 21.375 36.1875 C 21.774072 36.541363 21.968746 37.088851 21.96875 37.84375 C 21.968746 38.602585 21.776037 39.175424 21.375 39.53125 C 20.973955 39.887077 20.349263 40.0625 19.5 40.0625 L 18.28125 40.0625 L 18.28125 35.65625 z M 25.125 35.65625 L 26.46875 35.65625 C 26.972015 35.656254 27.346044 35.758405 27.59375 35.96875 C 27.841449 36.179105 27.968747 36.512872 27.96875 36.9375 C 27.968747 37.214694 27.879743 37.442175 27.75 37.625 C 27.622214 37.80783 27.433233 37.92923 27.1875 38 C 27.31528 38.04325 27.442578 38.139707 27.5625 38.28125 C 27.684382 38.422795 27.815611 38.596049 27.9375 38.84375 L 28.53125 40.0625 L 27.90625 40.0625 L 27.34375 38.9375 C 27.198272 38.642618 27.04386 38.44008 26.90625 38.34375 C 26.770601 38.24742 26.579655 38.187501 26.34375 38.1875 L 25.71875 38.1875 L 25.71875 40.0625 L 25.125 40.0625 L 25.125 35.65625 z M 28.65625 35.65625 L 29.28125 35.65625 L 30.1875 39.375 L 31.125 35.65625 L 31.78125 35.65625 L 32.71875 39.375 L 33.625 35.65625 L 34.25 35.65625 L 33.125 40.0625 L 32.375 40.0625 L 31.46875 36.25 L 30.53125 40.0625 L 29.78125 40.0625 L 28.65625 35.65625 z M 18.875 36.15625 L 18.875 39.5625 L 19.59375 39.5625 C 20.201208 39.562501 20.656375 39.431475 20.9375 39.15625 C 21.220585 38.881027 21.343746 38.43745 21.34375 37.84375 C 21.343746 37.253985 21.220585 36.835762 20.9375 36.5625 C 20.656375 36.287279 20.201208 36.156254 19.59375 36.15625 L 18.875 36.15625 z M 25.71875 36.15625 L 25.71875 37.71875 L 26.46875 37.71875 C 26.755767 37.718752 26.948272 37.631722 27.09375 37.5 C 27.241189 37.366322 27.312497 37.195035 27.3125 36.9375 C 27.312497 36.679972 27.241193 36.473502 27.09375 36.34375 C 26.948272 36.212039 26.755767 36.156254 26.46875 36.15625 L 25.71875 36.15625 z M 22.625 38.15625 L 24.21875 38.15625 L 24.21875 38.65625 L 22.625 38.65625 L 22.625 38.15625 z "
     id="path-main" />
</defs>
<acyl-settings>
<linearGradient
     id="linearGradient4321">
    <stop
       style="stop-color:#FFFFFF;stop-opacity:1.0;"
       offset="1.0"
       id="stop1" />
  </linearGradient>
<linearGradient
     inkscape:collect="always"
     xlink:href="#linearGradient4321"
     id="acyl_gradient"
     x1="50.0%"
     y1="0.0%"
     x2="50.0%"
     y2="100.0%" />
<filter>
    </filter>
<use id="1" style="fill:url(#acyl_gradient);filter:url(#filter1111)" xlink:href="#path-main" />
</acyl-settings>
</svg>
