<svg xmlns="http://www.w3.org/2000/svg" width="48" height="48">
<defs>
<defs
   id="defs30"></defs>	
<path
   d="m 33.722641,2.000001 c -0.592752,0 -1.180274,0.22131 -1.632412,0.6608283 L 7.6326911,26.62304 C 7.3918616,26.878131 7.216537,27.181315 7.1171926,27.513722 L 2.105402,43.086285 c -0.2044516,0.632194 -0.1077482,1.308059 0.2577492,1.867559 0.3654974,0.559503 0.956534,0.944876 1.6324118,1.03434 0.3915011,0.04 0.7833627,-0.02256 1.1455522,-0.17239 l 14.2048468,-5.34409 c 0.28071,-0.117894 0.53221,-0.30342 0.744609,-0.51717 L 45.321357,15.503885 c 0.904857,-0.878472 0.904858,-2.310742 0,-3.189215 L 35.383692,2.6608293 C 34.931554,2.221311 34.315394,2.000001 33.722641,2.000001 z M 9.0932701,28.548062 14.076422,29.093964 18.486798,33.374982 19.030935,37.656 9.837879,41.592239 6.1721121,37.82839 9.0932701,28.548062 z"
   id="path-main"
    /></defs>
<acyl-settings>
<linearGradient
     id="linearGradient4321">
    <stop
       style="stop-color:#FFFFFF;stop-opacity:1.0;"
       offset="1.0"
       id="stop1" />
  </linearGradient>
<linearGradient
     inkscape:collect="always"
     xlink:href="#linearGradient4321"
     id="acyl_gradient"
     x1="50.0%"
     y1="0.0%"
     x2="50.0%"
     y2="100.0%" />
<filter>
    </filter>
<use id="1" style="fill:url(#acyl_gradient);filter:url(#filter1111)" xlink:href="#path-main" />
</acyl-settings>
</svg>
