<svg xmlns="http://www.w3.org/2000/svg" width="48" height="48">
<defs>
<defs
     id="defs4" />
  <g
     id="layer1">
    <path
       d="M 5.9347596,10.496393 C 5.9347596,10.496393 2.8695894,10.547693 2.8695894,13.510263 C 2.8695894,16.472834 2.7541643,27.297117 2.8567644,27.245818 C 2.8567644,27.245818 2.1898653,27.451018 2.1385654,29.913414 C 2.0872654,32.375811 2.1898653,36.018105 2.1898653,36.018105 C 2.1898653,36.018105 2.4463649,39.25 5.7808601,39.25 C 9.1153549,39.25 41.998606,39.25 41.998606,39.25 C 41.998606,39.25 46,38.788301 46,35.248606 C 46,31.708912 46,28.836115 46,28.836115 C 46,28.836115 45.897399,27.758817 45.281804,27.399718 C 45.333101,26.219819 45.281804,13.651338 45.281804,13.651338 C 45.281804,13.651338 44.974,10.496393 42.126856,10.496393 C 39.279712,10.496393 5.9347596,10.496393 5.9347596,10.496393 z M 14.091447,20.628127 C 16.017044,20.628127 17.579843,22.190929 17.579843,24.116523 C 17.579844,26.042116 16.017042,27.604917 14.091447,27.604917 C 12.165856,27.604917 10.603053,26.042116 10.603053,24.116523 C 10.603055,22.190929 12.165854,20.628127 14.091447,20.628127 z M 33.893218,20.628127 C 35.818809,20.628127 37.381611,22.190929 37.381611,24.116523 C 37.381611,26.042116 35.818809,27.604917 33.893218,27.604917 C 31.967625,27.604917 30.404824,26.042116 30.404824,24.116523 C 30.404824,22.190929 31.967625,20.628127 33.893218,20.628127 z M 19.785739,20.679428 L 28.147627,20.679428 C 28.261307,20.679428 28.352824,20.770947 28.352824,20.884628 L 28.352824,24.167823 C 28.352824,24.281504 28.261307,24.373022 28.147627,24.373022 L 19.785739,24.373022 C 19.672059,24.373022 19.580539,24.281504 19.580539,24.167823 L 19.580539,20.884628 C 19.580539,20.770947 19.672059,20.679428 19.785739,20.679428 z M 18.631491,33.607009 C 19.58013,33.607009 20.350036,34.376917 20.350036,35.325555 C 20.350042,36.274194 19.58013,37.044103 18.631491,37.044103 C 17.682854,37.044103 16.912944,36.274194 16.912944,35.325555 C 16.912945,34.376917 17.682853,33.607009 18.631491,33.607009 z M 29.327526,33.735259 C 30.276163,33.735259 31.046074,34.505168 31.046074,35.453805 C 31.046074,36.402445 30.276163,37.172353 29.327526,37.172353 C 28.378884,37.172353 27.608978,36.402445 27.608978,35.453805 C 27.608978,34.505168 28.378884,33.735259 29.327526,33.735259 z M 13.732348,34.607357 C 14.511081,34.607357 15.143096,35.239371 15.143096,36.018105 C 15.143096,36.796838 14.511081,37.428852 13.732348,37.428852 C 12.953615,37.428854 12.3216,36.796838 12.3216,36.018105 C 12.3216,35.239371 12.953615,34.607357 13.732348,34.607357 z M 34.201016,34.709956 C 34.979752,34.709956 35.611766,35.341972 35.611766,36.120704 C 35.611766,36.899438 34.979752,37.531452 34.201016,37.531452 C 33.422285,37.531452 32.790271,36.899438 32.790271,36.120704 C 32.790271,35.341972 33.422285,34.709956 34.201016,34.709956 z"
       id="path-main"
        />
  </g>
</defs>
<acyl-settings>
<linearGradient
     id="linearGradient4321">
    <stop
       style="stop-color:#FFFFFF;stop-opacity:1.0;"
       offset="1.0"
       id="stop1" />
  </linearGradient>
<linearGradient
     inkscape:collect="always"
     xlink:href="#linearGradient4321"
     id="acyl_gradient"
     x1="50.0%"
     y1="0.0%"
     x2="50.0%"
     y2="100.0%" />
<filter>
    </filter>
<use id="1" style="fill:url(#acyl_gradient);filter:url(#filter1111)" xlink:href="#path-main" />
</acyl-settings>
</svg>
