/* XPM */
static char * close_pressed_xpm[] = {
"28 18 448 2",
"  	c None",
". 	c #534C49",
"+ 	c #3B342F",
"@ 	c #3E3530",
"# 	c #403630",
"$ 	c #403831",
"% 	c #433932",
"& 	c #473B32",
"* 	c #493C32",
"= 	c #4C3E33",
"- 	c #4F4035",
"; 	c #514035",
"> 	c #524236",
", 	c #544336",
"' 	c #554337",
") 	c #544337",
"! 	c #534236",
"~ 	c #524237",
"{ 	c #504136",
"] 	c #4E4036",
"^ 	c #4C3F36",
"/ 	c #4A3F37",
"( 	c #483F37",
"_ 	c #483E38",
": 	c #473D38",
"< 	c #473E38",
"[ 	c #49403B",
"} 	c #48403B",
"| 	c #534E4A",
"1 	c #3A342F",
"2 	c #3D3630",
"3 	c #413831",
"4 	c #463B32",
"5 	c #4D3F34",
"6 	c #504135",
"7 	c #544335",
"8 	c #584636",
"9 	c #5B4938",
"0 	c #5F4A3A",
"a 	c #624B3A",
"b 	c #614B3B",
"c 	c #604C3A",
"d 	c #5D4A39",
"e 	c #5A4838",
"f 	c #574638",
"g 	c #544438",
"h 	c #514338",
"i 	c #4C4037",
"j 	c #483F38",
"k 	c #463E38",
"l 	c #453E37",
"m 	c #47403A",
"n 	c #44403A",
"o 	c #54514B",
"p 	c #39352E",
"q 	c #3E3630",
"r 	c #423931",
"s 	c #473C32",
"t 	c #4C4034",
"u 	c #534436",
"v 	c #584838",
"w 	c #5C4B3A",
"x 	c #62503D",
"y 	c #67513E",
"z 	c #6E5540",
"A 	c #705641",
"B 	c #6E5642",
"C 	c #705642",
"D 	c #6D5640",
"E 	c #68523E",
"F 	c #64513D",
"G 	c #5F4D3C",
"H 	c #5A4A39",
"I 	c #574739",
"J 	c #514438",
"K 	c #4C4237",
"L 	c #494037",
"M 	c #453E36",
"N 	c #433E36",
"O 	c #444139",
"P 	c #423F38",
"Q 	c #54524B",
"R 	c #3C362E",
"S 	c #423930",
"T 	c #473E32",
"U 	c #4E4034",
"V 	c #564536",
"W 	c #5D4B3B",
"X 	c #66513F",
"Y 	c #6E5943",
"Z 	c #765E48",
"` 	c #7D634B",
" .	c #83694F",
"..	c #866B50",
"+.	c #876C52",
"@.	c #866C50",
"#.	c #836A4E",
"$.	c #7E624B",
"%.	c #665240",
"&.	c #604D3D",
"*.	c #584839",
"=.	c #524438",
"-.	c #4D4237",
";.	c #493F36",
">.	c #444138",
",.	c #433E37",
"'.	c #57524D",
").	c #40372F",
"!.	c #473A31",
"~.	c #554536",
"{.	c #5E4D3D",
"].	c #6A5543",
"^.	c #755E48",
"/.	c #82674F",
"(.	c #8F7158",
"_.	c #9D8266",
":.	c #A2896D",
"<.	c #A18566",
"[.	c #A28867",
"}.	c #A08666",
"|.	c #A2886C",
"1.	c #9C8267",
"2.	c #8F7256",
"3.	c #83674E",
"4.	c #785D48",
"5.	c #6C5644",
"6.	c #604D3E",
"7.	c #594938",
"8.	c #534538",
"9.	c #4D4137",
"0.	c #483F36",
"a.	c #464038",
"b.	c #433D38",
"c.	c #58524B",
"d.	c #413830",
"e.	c #483C32",
"f.	c #554235",
"g.	c #685542",
"h.	c #765E4A",
"i.	c #856951",
"j.	c #94775C",
"k.	c #A28267",
"l.	c #E3DBCE",
"m.	c #E6DDCF",
"n.	c #BCA282",
"o.	c #B89E7B",
"p.	c #E5DDD0",
"q.	c #E4DBCE",
"r.	c #A08165",
"s.	c #92765A",
"t.	c #85694E",
"u.	c #775E49",
"v.	c #695641",
"w.	c #5F4D3B",
"x.	c #584638",
"y.	c #4E4236",
"z.	c #484037",
"A.	c #443D37",
"B.	c #59504B",
"C.	c #433830",
"D.	c #4C3F34",
"E.	c #594838",
"F.	c #634E3C",
"G.	c #705B45",
"H.	c #816650",
"I.	c #927558",
"J.	c #A38466",
"K.	c #B29373",
"L.	c #D3C1AA",
"M.	c #F5F2ED",
"N.	c #EDE5DB",
"O.	c #CFB799",
"P.	c #F4F1EC",
"Q.	c #D3BFAA",
"R.	c #B19272",
"S.	c #A28264",
"T.	c #917458",
"U.	c #81654E",
"V.	c #715A43",
"W.	c #65503D",
"X.	c #5C4A3A",
"Y.	c #514437",
"Z.	c #4B4036",
"`.	c #493F37",
" +	c #443D36",
".+	c #584F4A",
"++	c #463A30",
"@+	c #4E4035",
"#+	c #5B493A",
"$+	c #675140",
"%+	c #876E55",
"&+	c #997D61",
"*+	c #AA8D6E",
"=+	c #BC9F7E",
"-+	c #C5AA89",
";+	c #DDCCB2",
">+	c #DEDBD1",
",+	c #D7D4CC",
"'+	c #C6A988",
")+	c #BB9E7D",
"!+	c #A98C6B",
"~+	c #987C5E",
"{+	c #876C51",
"]+	c #755C47",
"^+	c #675240",
"/+	c #534539",
"(+	c #4A3E37",
"_+	c #433D36",
":+	c #544D47",
"<+	c #453B30",
"[+	c #4E3F35",
"}+	c #5C493A",
"|+	c #67513F",
"1+	c #786049",
"2+	c #896F57",
"3+	c #9A8062",
"4+	c #AD9171",
"5+	c #BDA380",
"6+	c #C7AE8C",
"7+	c #D2B999",
"8+	c #DBD6CA",
"9+	c #D1CEC8",
"0+	c #DCD6CA",
"a+	c #D2B998",
"b+	c #C6AD8B",
"c+	c #BBA27F",
"d+	c #AB8E6F",
"e+	c #9A7E60",
"f+	c #887054",
"g+	c #765D48",
"h+	c #68523F",
"i+	c #5E4B3B",
"j+	c #534438",
"k+	c #4B4035",
"l+	c #483E36",
"m+	c #433D35",
"n+	c #554C46",
"o+	c #453930",
"p+	c #5A4A3A",
"q+	c #655140",
"r+	c #775F49",
"s+	c #886D55",
"t+	c #997E61",
"u+	c #AB8F6E",
"v+	c #BC9E7E",
"w+	c #C9AE8F",
"x+	c #E8E0D2",
"y+	c #E9E5DD",
"z+	c #E0D3C2",
"A+	c #E9E0D3",
"B+	c #C9AD8E",
"C+	c #987B5D",
"D+	c #876D52",
"E+	c #67523F",
"F+	c #4B3F36",
"G+	c #493E36",
"H+	c #423C35",
"I+	c #504842",
"J+	c #41372E",
"K+	c #4A3D33",
"L+	c #564637",
"M+	c #624E3C",
"N+	c #705A45",
"O+	c #816751",
"P+	c #91755B",
"Q+	c #B39575",
"R+	c #E4DCBE",
"S+	c #D3CFB9",
"T+	c #D8C7A7",
"U+	c #CAAF8E",
"V+	c #D7D4BC",
"W+	c #E0D6B7",
"X+	c #B19373",
"Y+	c #A18465",
"Z+	c #80654E",
"`+	c #705B43",
" @	c #644F3C",
".@	c #5A4839",
"+@	c #504236",
"@@	c #483D34",
"#@	c #463C35",
"$@	c #413A35",
"%@	c #4D453F",
"&@	c #3E362D",
"*@	c #463A2F",
"=@	c #514033",
"-@	c #5B4A39",
";@	c #675541",
">@	c #765F4A",
",@	c #856B51",
"'@	c #94765F",
")@	c #A28469",
"!@	c #C5B294",
"~@	c #CBB99A",
"{@	c #B99D7C",
"]@	c #B99F7D",
"^@	c #CBB899",
"/@	c #B89E80",
"(@	c #A08167",
"_@	c #93765B",
":@	c #84694E",
"<@	c #675441",
"[@	c #5D4B39",
"}@	c #4A3F33",
"|@	c #453C33",
"1@	c #443C34",
"2@	c #403934",
"3@	c #45413A",
"4@	c #3B332C",
"5@	c #43372E",
"6@	c #4B3D32",
"7@	c #534434",
"8@	c #5C4B3C",
"9@	c #6A5544",
"0@	c #765E49",
"a@	c #826B52",
"b@	c #8F735B",
"c@	c #987C5F",
"d@	c #9E8366",
"e@	c #A1876A",
"f@	c #A3886A",
"g@	c #A18669",
"h@	c #9E8164",
"i@	c #987B5F",
"j@	c #8F7257",
"k@	c #5E4C3C",
"l@	c #564636",
"m@	c #504134",
"n@	c #493C33",
"o@	c #433B33",
"p@	c #413B34",
"q@	c #3E3834",
"r@	c #3F3B35",
"s@	c #362F29",
"t@	c #42392F",
"u@	c #493D32",
"v@	c #544334",
"w@	c #5D493B",
"x@	c #645140",
"y@	c #6E5944",
"z@	c #7D644E",
"A@	c #836B51",
"B@	c #866D53",
"C@	c #876D54",
"D@	c #866D52",
"E@	c #846A51",
"F@	c #7D644C",
"G@	c #5D4A3B",
"H@	c #554436",
"I@	c #4D4034",
"J@	c #483D33",
"K@	c #3E3831",
"L@	c #3D3A33",
"M@	c #3B3732",
"N@	c #332E28",
"O@	c #37302B",
"P@	c #3B342C",
"Q@	c #42372E",
"R@	c #483B31",
"S@	c #504034",
"T@	c #554635",
"U@	c #5B4A3B",
"V@	c #63503E",
"W@	c #66523F",
"X@	c #6D5641",
"Y@	c #705743",
"Z@	c #6D5643",
"`@	c #624F3D",
" #	c #5C4B3B",
".#	c #574636",
"+#	c #524335",
"@#	c #4B3F33",
"##	c #423A31",
"$#	c #3E3730",
"%#	c #3B362F",
"&#	c #3C3932",
"*#	c #3A3731",
"=#	c #34312E",
"-#	c #2F2A26",
";#	c #332E29",
">#	c #36302B",
",#	c #39322C",
"'#	c #3E352D",
")#	c #463A31",
"!#	c #4E4033",
"~#	c #534336",
"{#	c #574637",
"]#	c #5B4939",
"^#	c #5E4A39",
"/#	c #5D493A",
"(#	c #584737",
"_#	c #433931",
":#	c #3F3631",
"<#	c #3D3631",
"[#	c #3A3430",
"}#	c #38342F",
"|#	c #3A3631",
"1#	c #373632",
"2#	c #211E1C",
"3#	c #221F1E",
"4#	c #27221F",
"5#	c #2A2521",
"6#	c #2C2722",
"7#	c #2F2A24",
"8#	c #342B26",
"9#	c #382F27",
"0#	c #3B3128",
"a#	c #40352B",
"b#	c #43352B",
"c#	c #45372D",
"d#	c #473A2E",
"e#	c #483A30",
"f#	c #473A2F",
"g#	c #46392E",
"h#	c #46372E",
"i#	c #44382E",
"j#	c #40362C",
"k#	c #3E352C",
"l#	c #38322C",
"m#	c #36312C",
"n#	c #36302C",
"o#	c #35302B",
"p#	c #33302C",
"q#	c #373430",
"r#	c #363330",
"s#	c #4B4846",
"t#	c #4B4845",
"u#	c #4D4945",
"v#	c #4D4A45",
"w#	c #4E4A45",
"x#	c #4F4943",
"y#	c #514A44",
"z#	c #524A43",
"A#	c #544942",
"B#	c #534942",
"C#	c #524941",
"D#	c #51463F",
"E#	c #4E453E",
"F#	c #4C443D",
"G#	c #4A433C",
"H#	c #47413B",
"I#	c #423E39",
"J#	c #413D37",
"K#	c #3E3A36",
"L#	c #3C3935",
"M#	c #3A3734",
"N#	c #353330",
"O#	c #35322F",
". + @ # $ % & * = - ; > , ' ' ) ! ~ { ] ^ / ( _ : < [ } ",
"| 1 2 3 % 4 5 6 7 8 9 0 a b a c d e f g h i / j k l m n ",
"o p q r s t u v w x y z A B C D E F G H I J K L M N O P ",
"Q R S T U V W X Y Z `  ...+.@.#.$.Z Y %.&.*.=.-.;.M >.,.",
"'.).!.U ~.{.].^./.(._.:.<.[.}.|.1.2.3.4.5.6.7.8.9.0.a.b.",
"c.d.e.f.w g.h.i.j.k.l.m.n.o.n.p.q.r.s.t.u.v.w.x.y.L z.A.",
"B.C.D.E.F.G.H.I.J.K.L.M.N.O.N.P.Q.R.S.T.U.V.W.X.Y.Z.`. +",
".+++@+#+$+Z %+&+*+=+-+;+>+,+>+;+'+)+!+~+{+]+^+W /+i (+_+",
":+<+[+}+|+1+2+3+4+5+6+7+8+9+0+a+b+c+d+e+f+g+h+i+j+k+l+m+",
"n+o+- p+q+r+s+t+u+v+w+x+y+z+y+A+B+)+!+C+D+]+E+W =.F+G+H+",
"I+J+K+L+M+N+O+P+J.Q+R+S+T+U+T+V+W+X+Y+T.Z+`+ @.@+@@@#@$@",
"%@&@*@=@-@;@>@,@'@)@!@~@{@]@o.^@/@(@_@:@Z <@[@7 }@|@1@2@",
"3@4@5@6@7@8@9@0@a@b@c@d@e@f@g@h@i@j@/.g+].k@l@m@n@o@p@q@",
"r@s@4@t@u@v@w@x@y@r+z@A@B@C@D@E@F@^.Y q+G@H@I@J@% K@L@M@",
"M@N@O@P@Q@R@S@T@U@V@W@X@Y@Z@Y@X@E+`@ #.#+#@#4 ##$#%#&#*#",
"=#-#;#>#,#'#)#u@!#~#{#]#^#/#^#]#(#H@6 D.e._#:#<#[#}#|#1#",
"2#3#4#5#6#7#8#9#0#a#b#c#d#e#f#g#h#i#j#k#4@l#m#n#o#p#q#r#",
"s#s#t#u#v#w#w#x#y#z#z#A#B#C#C#D#E#F#G#H#n I#J#K#L#M#N#O#"};
