/* XPM */
static char * close_inactive_xpm[] = {
"28 18 82 1",
" 	c None",
".	c #3F3E3B",
"+	c #32312E",
"@	c #32312F",
"#	c #33322F",
"$	c #333230",
"%	c #333330",
"&	c #343330",
"*	c #343431",
"=	c #353431",
"-	c #363532",
";	c #383734",
">	c #403F3C",
",	c #32322F",
"'	c #343331",
")	c #41403D",
"!	c #31302D",
"~	c #31302E",
"{	c #31312E",
"]	c #363533",
"^	c #373633",
"/	c #373634",
"(	c #3F3E3C",
"_	c #302F2D",
":	c #686764",
"<	c #363633",
"[	c #302F2C",
"}	c #4E4D4A",
"|	c #777674",
"1	c #686765",
"2	c #3B3A37",
"3	c #4E4D4B",
"4	c #3E3D3A",
"5	c #30302D",
"6	c #55544F",
"7	c #6E6E6A",
"8	c #6B6B68",
"9	c #6F6E6B",
"0	c #555450",
"a	c #3C3B39",
"b	c #2F2E2B",
"c	c #2F2E2C",
"d	c #2F2F2C",
"e	c #72716E",
"f	c #6B6B69",
"g	c #373733",
"h	c #3B3A38",
"i	c #6D6C69",
"j	c #868582",
"k	c #656460",
"l	c #858581",
"m	c #6D6D68",
"n	c #3A3936",
"o	c #65655D",
"p	c #6B6A63",
"q	c #53524B",
"r	c #54534C",
"s	c #6C6C64",
"t	c #616059",
"u	c #383835",
"v	c #4B4A45",
"w	c #52514B",
"x	c #3F3E3A",
"y	c #2E2D2A",
"z	c #2E2D2B",
"A	c #282825",
"B	c #292825",
"C	c #292826",
"D	c #2A2926",
"E	c #2A2927",
"F	c #2B2A27",
"G	c #2B2A28",
"H	c #2B2B28",
"I	c #2C2B28",
"J	c #2C2B29",
"K	c #2D2C29",
"L	c #2D2C2A",
"M	c #3D3C39",
"N	c #3C3B38",
"O	c #3B3B38",
"P	c #393835",
"Q	c #373734",
".++++@@@####$%&&&*====----;;",
">++++@@,####$$&&&'====----;;",
")+++++@@#####%&&&'====----;;",
")+++++@@,####%&&&'====----;;",
">!!!!!~~{+]^@@#//$&&&&====^^",
"(__!_!!!~{::<@^::$&&&'====^^",
"([___!!!!~}|121|3#&&&&====^^",
"4[[[[_5_!!~67890##$&&&====^^",
"abbbbccd[[_-efeg++@###&&&&--",
"hbbbbcccd[=ijklm-++,##&&&&--",
"nbbbbbccc[opq!rst++###$&&&--",
"ubbbbbbcc[vw__!qx++@###&&&--",
"^yyyyzzzbbbcc[[[_!!~+++###==",
"=yyyzyzzbbbcc[[[_!!~+++,##==",
"$yyyyzzzbbbcc[[__!!!+++@##==",
"{yyyyyzzbbbbc[[[_!!!~++@##==",
"ABCCCDDEEFFGHIJKKLyzbb[[!!&&",
"4444MMMNNNOO222nPP;;QQ^--=&&"};
