/* XPM */
static char * close_active_xpm[] = {
"28 18 193 2",
"  	c None",
". 	c #504C48",
"+ 	c #37322E",
"@ 	c #38322F",
"# 	c #38332E",
"$ 	c #38332F",
"% 	c #39332F",
"& 	c #3A3430",
"* 	c #3A3531",
"= 	c #3B3531",
"- 	c #3C3632",
"; 	c #3D3733",
"> 	c #3E3834",
", 	c #3F3934",
"' 	c #3F3935",
") 	c #403A35",
"! 	c #413A36",
"~ 	c #413B36",
"{ 	c #423B37",
"] 	c #433C37",
"^ 	c #433D38",
"/ 	c #463F3A",
"( 	c #47403B",
"_ 	c #4F4C49",
": 	c #34312D",
"< 	c #35322E",
"[ 	c #36322E",
"} 	c #36332F",
"| 	c #37342F",
"1 	c #373430",
"2 	c #383430",
"3 	c #383531",
"4 	c #393531",
"5 	c #3A3632",
"6 	c #3A3732",
"7 	c #3B3733",
"8 	c #3B3833",
"9 	c #3C3834",
"0 	c #3C3934",
"a 	c #3D3935",
"b 	c #3E3A35",
"c 	c #3E3A36",
"d 	c #3F3B36",
"e 	c #403C37",
"f 	c #423E39",
"g 	c #4E4D4A",
"h 	c #31302C",
"i 	c #31302D",
"j 	c #31312D",
"k 	c #32312D",
"l 	c #32312E",
"m 	c #33322E",
"n 	c #34332E",
"o 	c #34332F",
"p 	c #35342F",
"q 	c #353430",
"r 	c #363530",
"s 	c #363531",
"t 	c #373631",
"u 	c #373632",
"v 	c #383732",
"w 	c #383733",
"x 	c #393833",
"y 	c #393834",
"z 	c #3A3934",
"A 	c #3A3A35",
"B 	c #3B3A35",
"C 	c #3C3B36",
"D 	c #3E3D38",
"E 	c #4D4D4A",
"F 	c #2F2F2B",
"G 	c #302F2C",
"H 	c #33332E",
"I 	c #3D3C37",
"J 	c #4C4B49",
"K 	c #2E2D2A",
"L 	c #2F2E2B",
"M 	c #3A3936",
"N 	c #3B3A37",
"O 	c #32322E",
"P 	c #33322F",
"Q 	c #3D3C38",
"R 	c #3D3C39",
"S 	c #353431",
"T 	c #363532",
"U 	c #373733",
"V 	c #383734",
"W 	c #3A3935",
"X 	c #3C3B37",
"Y 	c #4B4A47",
"Z 	c #2D2C29",
"` 	c #2E2D29",
" .	c #2D2C2A",
"..	c #2E2D2B",
"+.	c #9A9A97",
"@.	c #3B3B37",
"#.	c #9B9A98",
"$.	c #343330",
"%.	c #373633",
"&.	c #3B3A36",
"*.	c #494846",
"=.	c #2B2A28",
"-.	c #2C2B28",
";.	c #2E2E2A",
">.	c #666563",
",.	c #B8B8B7",
"'.	c #9A9A99",
").	c #42423E",
"!.	c #B8B8B6",
"~.	c #686865",
"{.	c #343430",
"].	c #464543",
"^.	c #2B2A27",
"/.	c #2C2B29",
"(.	c #2D2D2A",
"_.	c #74736D",
":.	c #A7A7A3",
"<.	c #A0A09E",
"[.	c #A8A8A4",
"}.	c #75746E",
"|.	c #32312F",
"1.	c #333230",
"2.	c #343431",
"3.	c #363533",
"4.	c #3A3835",
"5.	c #444341",
"6.	c #2A2927",
"7.	c #393835",
"8.	c #AFAFAB",
"9.	c #A2A1A0",
"0.	c #AFAFAC",
"a.	c #302F2D",
"b.	c #31302E",
"c.	c #343331",
"d.	c #42413F",
"e.	c #292826",
"f.	c #2A2926",
"g.	c #A5A5A0",
"h.	c #D7D7D2",
"i.	c #959590",
"j.	c #D6D6D2",
"k.	c #A6A6A0",
"l.	c #3F3E3C",
"m.	c #292825",
"n.	c #959588",
"o.	c #A1A095",
"p.	c #727266",
"q.	c #737267",
"r.	c #A3A397",
"s.	c #8E8D82",
"t.	c #31312E",
"u.	c #3C3B39",
"v.	c #282725",
"w.	c #626159",
"x.	c #706F64",
"y.	c #717065",
"z.	c #484842",
"A.	c #2F2E2C",
"B.	c #393836",
"C.	c #272624",
"D.	c #282726",
"E.	c #282724",
"F.	c #2F2E2A",
"G.	c #302F2B",
"H.	c #2E2E2C",
"I.	c #1D1C1B",
"J.	c #1D1D1B",
"K.	c #1F1E1C",
"L.	c #1F1E1D",
"M.	c #201F1D",
"N.	c #21201E",
"O.	c #22211F",
"P.	c #232220",
"Q.	c #232320",
"R.	c #242321",
"S.	c #252422",
"T.	c #262523",
"U.	c #494845",
"V.	c #484745",
"W.	c #474744",
"X.	c #474643",
"Y.	c #464542",
"Z.	c #454441",
"`.	c #434340",
" +	c #43423F",
".+	c #42413E",
"++	c #403F3C",
"@+	c #3F3F3C",
"#+	c #3F3E3B",
"$+	c #3E3D3A",
"%+	c #3C3B38",
"&+	c #3B3B38",
"*+	c #373734",
". + @ # # $ % % & & * = = - - ; ; > , ' ) ! ~ { ] ^ / ( ",
"_ : : < < < [ } } | 1 2 2 3 4 5 6 7 8 9 0 a b c d e f f ",
"g h h i j k k l m n o o p q r s t u v w x y z A B C D D ",
"E F G G G h h h k k m m H o q q r s u u v w y z z B I I ",
"J K L L L G G G i i M N O P P Q R S s T u U V y y W X X ",
"Y Z Z `  .K ..L L G +.+.M l @.#.+.$.q S T u %.w w y &.&.",
"*.=.-.-.-.Z  .K K ;.>.,.'.).'.!.~.P o {.q S T u %.w W W ",
"].^.=.=.=./././.Z (..._.:.<.[.}.l |.P 1.$.2.S T 3.%.4.4.",
"5.6.6.6.6.6.=.=././.Z 7.8.9.0.@.a.b.l |.P 1.c.S S T 7.7.",
"d.e.e.f.6.6.^.=.=./.T g.h.i.j.k.7.i b.l P 1.$.2.S T 7.7.",
"l.m.e.e.e.e.6.6.6.=.n.o.p. .q.r.s.G a.i t.l P $.$.S V V ",
"u.v.v.v.m.e.e.f.6.6.w.x.-./.Z y.z.L A.G i i l P P $.%.%.",
"B.v.v.v.v.v.e.e.6.6.^.=.=.-./. .K ..A.G a.i l |.P $.%.%.",
"T C.v.v.v.v.D.e.e.f.6.6.=.=.-.Z  .K ..L A.a.i b.l P T T ",
"|.E.E.E.E.v.m.m.m.f.f.6.^.=.-./.Z K K F.L G.G h k m s s ",
"H.C.C.C.C.E.v.v.m.e.e.f.6.^.^.-.-.Z  .K ..L G a.i l S S ",
"I.J.K.K.L.M.M.N.N.O.O.P.Q.R.S.T.T.C.v.e.6.^.-.Z K L $.$.",
"U.U.V.V.W.W.X.Y.Y.Z.5.`. + +.+++@+#+$+R %+&+N 7.V *+$.$."};
