/* XPM */
static char * hide_pressed_xpm[] = {
"28 18 448 2",
"  	c None",
". 	c #463F3A",
"+ 	c #473F3B",
"@ 	c #48403B",
"# 	c #49403B",
"$ 	c #4A403A",
"% 	c #4B413A",
"& 	c #4A4039",
"* 	c #4C4139",
"= 	c #4E4238",
"- 	c #504238",
"; 	c #524338",
"> 	c #534438",
", 	c #554338",
"' 	c #564438",
") 	c #574538",
"! 	c #564437",
"~ 	c #544337",
"{ 	c #534136",
"] 	c #4E4035",
"^ 	c #493D33",
"/ 	c #443932",
"( 	c #403731",
"_ 	c #3D3631",
": 	c #3B3530",
"< 	c #423E39",
"[ 	c #433F3A",
"} 	c #44403A",
"| 	c #47403A",
"1 	c #484039",
"2 	c #4A413A",
"3 	c #534439",
"4 	c #564539",
"5 	c #58473A",
"6 	c #5B4939",
"7 	c #5E4B3B",
"8 	c #624D3B",
"9 	c #634D3B",
"0 	c #614C3B",
"a 	c #634C3B",
"b 	c #604B3A",
"c 	c #5C4939",
"d 	c #554436",
"e 	c #4E4034",
"f 	c #473C33",
"g 	c #413831",
"h 	c #3B3630",
"i 	c #383430",
"j 	c #3F3E39",
"k 	c #3F3D38",
"l 	c #413E38",
"m 	c #423F38",
"n 	c #444139",
"o 	c #454039",
"p 	c #474038",
"q 	c #4B4239",
"r 	c #4E4439",
"s 	c #524639",
"t 	c #58483A",
"u 	c #5C4B3A",
"v 	c #5F4F3D",
"w 	c #65523D",
"x 	c #68533F",
"y 	c #6E5640",
"z 	c #715741",
"A 	c #6E5742",
"B 	c #705741",
"C 	c #6C553F",
"D 	c #68513E",
"E 	c #5E4C3B",
"F 	c #544538",
"G 	c #4A3F34",
"H 	c #413A32",
"I 	c #3A3630",
"J 	c #35342F",
"K 	c #3E3D37",
"L 	c #3F3D37",
"M 	c #413D37",
"N 	c #433E37",
"O 	c #444038",
"P 	c #4A4137",
"Q 	c #4F4438",
"R 	c #534638",
"S 	c #5A493A",
"T 	c #604E3D",
"U 	c #685341",
"V 	c #6F5A43",
"W 	c #775E48",
"X 	c #7F634A",
"Y 	c #836A4D",
"Z 	c #876C50",
"` 	c #876C51",
" .	c #866B50",
"..	c #83694D",
"+.	c #7D624A",
"@.	c #6F5844",
"#.	c #604E3C",
"$.	c #514436",
"%.	c #443C32",
"&.	c #3C362F",
"*.	c #35332E",
"=.	c #3D3C37",
"-.	c #3E3D38",
";.	c #403D37",
">.	c #433D38",
",.	c #464038",
"'.	c #4A4138",
").	c #4F4238",
"!.	c #554639",
"~.	c #5A4A39",
"{.	c #624F3E",
"].	c #6C5645",
"^.	c #785D48",
"/.	c #83684F",
"(.	c #8E7257",
"_.	c #977A5C",
":.	c #9C8061",
"<.	c #A08466",
"[.	c #A18566",
"}.	c #9F8566",
"|.	c #9D8063",
"1.	c #96795C",
"2.	c #866A51",
"3.	c #6F5944",
"4.	c #5B4A3B",
"5.	c #4A3E35",
"6.	c #3D3730",
"7.	c #35322E",
"8.	c #3C3A36",
"9.	c #3E3B37",
"0.	c #3F3C36",
"a.	c #413C37",
"b.	c #443D37",
"c.	c #484037",
"d.	c #4B4238",
"e.	c #504337",
"f.	c #584739",
"g.	c #5F4E3B",
"h.	c #695642",
"i.	c #84684E",
"j.	c #92765A",
"k.	c #A08165",
"l.	c #AA8B6C",
"m.	c #B39474",
"n.	c #B79C79",
"o.	c #B89E79",
"p.	c #B79D79",
"q.	c #B39473",
"r.	c #A98A6C",
"s.	c #96785D",
"t.	c #7C654D",
"u.	c #634F3E",
"v.	c #4D4236",
"w.	c #3E3830",
"x.	c #34312D",
"y.	c #3C3835",
"z.	c #3E3B36",
"A.	c #413C36",
"B.	c #443D36",
"C.	c #493F37",
"D.	c #4D4137",
"E.	c #534538",
"F.	c #5D4B3A",
"G.	c #65513D",
"H.	c #725B44",
"I.	c #81654D",
"J.	c #917457",
"K.	c #B9A28A",
"L.	c #CDB8A3",
"M.	c #BB9E7C",
"N.	c #C1A684",
"O.	c #C6AC8B",
"P.	c #C9AD8B",
"Q.	c #D2BDA4",
"R.	c #D3BFAA",
"S.	c #A78868",
"T.	c #886E55",
"U.	c #6A5643",
"V.	c #524437",
"W.	c #3F3830",
"X.	c #34312C",
"Y.	c #3C3935",
"Z.	c #3E3A36",
"`.	c #403B36",
" +	c #433D36",
".+	c #493E37",
"++	c #4D4238",
"@+	c #55463A",
"#+	c #5F4C3C",
"$+	c #675240",
"%+	c #765C46",
"&+	c #987C5E",
"*+	c #AD9072",
"=+	c #E5D9CC",
"-+	c #D9C7B1",
";+	c #CDB090",
">+	c #D0B594",
",+	c #D1B796",
"'+	c #D9C4AA",
")+	c #F0E8DF",
"!+	c #CCB499",
"~+	c #AF9273",
"{+	c #90755A",
"]+	c #6F5C47",
"^+	c #544639",
"/+	c #33302C",
"(+	c #3B3734",
"_+	c #3C3934",
":+	c #3E3934",
"<+	c #3F3A35",
"[+	c #433D35",
"}+	c #483E36",
"|+	c #4D4237",
"1+	c #544539",
"2+	c #5F4C3B",
"3+	c #695240",
"4+	c #775E47",
"5+	c #896E52",
"6+	c #997D5F",
"7+	c #AB8E6E",
"8+	c #C5AE90",
"9+	c #EFE7DE",
"0+	c #DBC7AE",
"a+	c #D2B796",
"b+	c #D8C0A2",
"c+	c #F2EAE1",
"d+	c #DDCCB2",
"e+	c #C6AB8A",
"f+	c #B09575",
"g+	c #90785A",
"h+	c #705B48",
"i+	c #3F3730",
"j+	c #322E2A",
"k+	c #3B3834",
"l+	c #3D3935",
"m+	c #423C35",
"n+	c #483D36",
"o+	c #685240",
"p+	c #755C46",
"q+	c #866B51",
"r+	c #AA8B6B",
"s+	c #BB9D7B",
"t+	c #D0BA9F",
"u+	c #F1E9DF",
"v+	c #D4BD9F",
"w+	c #EDE3D6",
"x+	c #E0D0BA",
"y+	c #CCB18F",
"z+	c #C4A785",
"A+	c #AF9372",
"B+	c #8F7559",
"C+	c #6F5A47",
"D+	c #3E362E",
"E+	c #393633",
"F+	c #393734",
"G+	c #3C3834",
"H+	c #423A35",
"I+	c #463C35",
"J+	c #4A3F36",
"K+	c #514337",
"L+	c #5B4839",
"M+	c #644F3C",
"N+	c #705943",
"O+	c #80644C",
"P+	c #907456",
"Q+	c #A18263",
"R+	c #B09271",
"S+	c #BB9D7C",
"T+	c #D5C1AB",
"U+	c #E1D2C1",
"V+	c #C7AB8A",
"W+	c #BA9D7C",
"X+	c #A58667",
"Y+	c #876D54",
"Z+	c #695542",
"`+	c #4F4236",
" @	c #3C352D",
".@	c #302D29",
"+@	c #383533",
"@@	c #3A3732",
"#@	c #3C3733",
"$@	c #3F3934",
"%@	c #443C34",
"&@	c #473E35",
"*@	c #4C4035",
"=@	c #5D4B39",
"-@	c #675440",
";@	c #755D47",
">@	c #83674D",
",@	c #917459",
"'@	c #9E8064",
")@	c #AA8A6C",
"!@	c #B69C79",
"~@	c #B79C78",
"{@	c #B69B78",
"]@	c #B19473",
"^@	c #A88A6C",
"/@	c #94765E",
"(@	c #7A624B",
"_@	c #5F4D3C",
":@	c #4A3E32",
"<@	c #39332C",
"[@	c #2E2B28",
"}@	c #373632",
"|@	c #383733",
"1@	c #393732",
"2@	c #3B3733",
"3@	c #3E3833",
"4@	c #413B34",
"5@	c #453C34",
"6@	c #4A3E34",
"7@	c #514235",
"8@	c #564636",
"9@	c #6A5442",
"0@	c #765B47",
"a@	c #81664D",
"b@	c #8E7055",
"c@	c #95795C",
"d@	c #9C8062",
"e@	c #9E8365",
"f@	c #A08565",
"g@	c #9F8464",
"h@	c #9B8061",
"i@	c #95775A",
"j@	c #836A4F",
"k@	c #6C5643",
"l@	c #564537",
"m@	c #443930",
"n@	c #36302A",
"o@	c #2D2B27",
"p@	c #363531",
"q@	c #383631",
"r@	c #393631",
"s@	c #3B3732",
"t@	c #3D3933",
"u@	c #403A33",
"v@	c #443B33",
"w@	c #493E34",
"x@	c #554437",
"y@	c #5C4A3A",
"z@	c #64503E",
"A@	c #6C5741",
"B@	c #745B46",
"C@	c #7C6148",
"D@	c #81684C",
"E@	c #84694E",
"F@	c #856A4F",
"G@	c #846A4E",
"H@	c #80674C",
"I@	c #7B6049",
"J@	c #6C5641",
"K@	c #5B4A38",
"L@	c #4B3E32",
"M@	c #3D342C",
"N@	c #322D28",
"O@	c #2B2A26",
"P@	c #363530",
"Q@	c #383531",
"R@	c #3A3731",
"S@	c #3C3931",
"T@	c #3D3832",
"U@	c #3F3931",
"V@	c #473D33",
"W@	c #4C4034",
"X@	c #524235",
"Y@	c #574636",
"Z@	c #5B4A39",
"`@	c #614E3A",
" #	c #644F3B",
".#	c #69523D",
"+#	c #6D533E",
"@#	c #6B533E",
"##	c #6C533E",
"$#	c #6A523C",
"%#	c #634D3A",
"&#	c #594836",
"*#	c #4D3F32",
"=#	c #42382D",
"-#	c #383129",
";#	c #302C27",
">#	c #2B2925",
",#	c #343330",
"'#	c #363431",
")#	c #363532",
"!#	c #3A3631",
"~#	c #3B3631",
"{#	c #3C3632",
"]#	c #413832",
"^#	c #443A31",
"/#	c #493D32",
"(#	c #4C3E33",
"_#	c #504034",
":#	c #534234",
"<#	c #574535",
"[#	c #5A4736",
"}#	c #5C4736",
"|#	c #5A4636",
"1#	c #5C4635",
"2#	c #584535",
"3#	c #544433",
"4#	c #4C3D2F",
"5#	c #44382E",
"6#	c #3B322B",
"7#	c #332E28",
"8#	c #2D2A26",
"9#	c #292725",
"0#	c #33322F",
"a#	c #363330",
"b#	c #373430",
"c#	c #38332F",
"d#	c #39342F",
"e#	c #39342E",
"f#	c #3B352E",
"g#	c #3E352E",
"h#	c #40362D",
"i#	c #42372D",
"j#	c #46382E",
"k#	c #46392E",
"l#	c #473A2E",
"m#	c #46382D",
"n#	c #44372C",
"o#	c #43352A",
"p#	c #3C3128",
"q#	c #352D25",
"r#	c #2F2823",
"s#	c #292521",
"t#	c #24221F",
"u#	c #21201E",
"v#	c #34322F",
"w#	c #35322F",
"x#	c #353330",
"y#	c #393632",
"z#	c #3D3934",
"A#	c #3E3A35",
"B#	c #463F38",
"C#	c #4A423A",
"D#	c #4D423B",
"E#	c #4E443D",
"F#	c #4E453D",
"G#	c #4F463E",
"H#	c #51463F",
"I#	c #4F4740",
"J#	c #4E4740",
"K#	c #4C4741",
"L#	c #494540",
"M#	c #474541",
"N#	c #474542",
"O#	c #464542",
". . . + @ # # $ % & * = - ; > , ' ) ' ! ~ { ] ^ / ( _ : ",
"< < [ [ } | | 1 2 * = 3 4 5 6 7 8 9 0 a b c d e f g h i ",
"j k l l m n o p q r s t u v w x y z A B C D E F G H I J ",
"K K L M N O p P Q R S T U V W X Y Z `  ...+.@.#.$.%.&.*.",
"=.-.K ;.>.,.'.).!.~.{.].^./.(._.:.<.[.}.|.1.2.3.4.5.6.7.",
"8.9.0.a.b.c.d.e.f.g.h.W i.j.k.l.m.n.o.p.q.r.s.t.u.v.w.x.",
"y.8.z.A.B.C.D.E.F.G.H.I.J.K.L.M.N.O.P.O.Q.R.S.T.U.V.W.X.",
"y.Y.Z.`. +.+++@+#+$+%+` &+*+=+-+;+>+,+'+)+!+~+{+]+^+W./+",
"(+_+:+<+[+}+|+1+2+3+4+5+6+7+8+9+0+a+b+c+d+e+f+g+h+^+i+j+",
"(+k+l+<+m+n+D.^+#+o+p+q+&+r+s+t+u+v+w+x+y+z+A+B+C+E.D+j+",
"E+F+G+:+H+I+J+K+L+M+N+O+P+Q+R+S+T+9+U+V+N.W+X+Y+Z+`+ @.@",
"+@E+@@#@$@%@&@*@! =@-@;@>@,@'@)@m.!@~@{@]@^@/@(@_@:@<@[@",
"}@|@1@2@3@4@5@6@7@8@#+9@0@a@b@c@d@e@f@g@h@i@j@k@l@m@n@o@",
"p@p@q@r@s@t@u@v@w@] x@y@z@A@B@C@D@E@F@G@H@I@J@K@L@M@N@O@",
"p@P@Q@Q@R@S@T@U@v@V@W@X@Y@Z@`@ #.#+#@###$#%#&#*#=#-#;#>#",
",#,#'#)#}@!#~#{#3@]#^#/#(#_#:#<#[#}#|#1#2#3#4#5#6#7#8#9#",
"0#0#0#,#a#b#i c#d#e#f#g#h#i#5#j#k#l#j#m#n#o#p#q#r#s#t#u#",
",#,#0#v#w#x#a#y#2@z#A#A. +B#1 C#D#E#F#G#H#I#J#K#L#M#N#O#"};
