/* XPM */
static char * hide_inactive_xpm[] = {
"28 18 58 1",
" 	c None",
".	c #383734",
"+	c #373633",
"@	c #363532",
"#	c #353431",
"$	c #343331",
"%	c #343330",
"&	c #333230",
"*	c #33322F",
"=	c #32322F",
"-	c #353432",
";	c #333330",
">	c #32312F",
",	c #32312E",
"'	c #31302E",
")	c #4F4E4B",
"!	c #595856",
"~	c #4D4C4A",
"{	c #575754",
"]	c #3A3936",
"^	c #737270",
"/	c #595855",
"(	c #484744",
"_	c #7D7C7A",
":	c #42413F",
"<	c #31302D",
"[	c #43423F",
"}	c #7D7C7B",
"|	c #3D3C39",
"1	c #7C7C7A",
"2	c #51514E",
"3	c #30302D",
"4	c #302F2D",
"5	c #302F2C",
"6	c #727270",
"7	c #575654",
"8	c #31312E",
"9	c #52514F",
"0	c #62615F",
"a	c #2F2E2C",
"b	c #2F2E2B",
"c	c #2E2E2B",
"d	c #2E2D2B",
"e	c #2E2D2A",
"f	c #2D2C29",
"g	c #2C2C29",
"h	c #2C2B28",
"i	c #2B2B28",
"j	c #2B2A28",
"k	c #2B2A27",
"l	c #2A2A27",
"m	c #2A2927",
"n	c #2A2926",
"o	c #373734",
"p	c #393835",
"q	c #3B3A37",
"r	c #3B3B38",
"s	c #3C3B38",
".......+++@@@@####$%%%%&****",
".......+++@@@@####$%%%%&****",
".......+++@@@@####$%%%%&***=",
".......+++@@@@####$%%%%&***=",
"+++++++@@@-###$%%%;&**>>,,,,",
"+++++++@@@-###$%%%&***>>,,,'",
"+++++++@@@-##)!%%%&*~{>>,,''",
"+++++++@@@-##]^/%;&(_:>,,''<",
"@@@@@@@###$%%%[}~*|12'<<3455",
"@@@@@@@##$%%%%*(1|678<<<4555",
"@@@@@@@##$%%%&**9_08'<<3555a",
"@@@@@@@##$%%%&***,,8<<34555a",
"#######%%&***,,,'<<4555abbcd",
"#######%%&**>,,,'<<555aabbcd",
"#######%%***>,,,<<4555aabcdd",
"#######%%***>,,'<<4555aabcdd",
"%%%%%%%=,8<<55bbdeffghijklmn",
"%%%%%%%%%##@@++oo.pp]]qqrrss"};
