/* XPM */
static char * hide_active_xpm[] = {
"28 18 161 2",
"  	c None",
". 	c #47403B",
"+ 	c #453E3A",
"@ 	c #453E39",
"# 	c #443D38",
"$ 	c #433D38",
"% 	c #433C37",
"& 	c #423C37",
"* 	c #423B37",
"= 	c #413A36",
"- 	c #403A35",
"; 	c #403935",
"> 	c #3F3934",
", 	c #3E3834",
"' 	c #3E3833",
") 	c #3D3733",
"! 	c #3D3732",
"~ 	c #3C3632",
"{ 	c #3B3531",
"] 	c #3A3430",
"^ 	c #433F3A",
"/ 	c #413E39",
"( 	c #413D38",
"_ 	c #403C37",
": 	c #3F3B37",
"< 	c #3F3B36",
"[ 	c #3E3A36",
"} 	c #3D3A35",
"| 	c #3D3934",
"1 	c #3C3934",
"2 	c #3C3834",
"3 	c #3B3733",
"4 	c #3A3732",
"5 	c #3A3632",
"6 	c #393632",
"7 	c #393531",
"8 	c #383430",
"9 	c #373430",
"0 	c #37332F",
"a 	c #3F3E39",
"b 	c #3E3D38",
"c 	c #3D3C37",
"d 	c #3C3B36",
"e 	c #3B3A36",
"f 	c #3B3A35",
"g 	c #3A3935",
"h 	c #3A3934",
"i 	c #393834",
"j 	c #393833",
"k 	c #383733",
"l 	c #373632",
"m 	c #363531",
"n 	c #353530",
"o 	c #353430",
"p 	c #34342F",
"q 	c #34332F",
"r 	c #33322E",
"s 	c #383732",
"t 	c #363631",
"u 	c #35342F",
"v 	c #32312D",
"w 	c #3D3C38",
"x 	c #3C3B37",
"y 	c #3A3936",
"z 	c #393835",
"A 	c #383834",
"B 	c #373633",
"C 	c #363532",
"D 	c #353431",
"E 	c #343430",
"F 	c #343330",
"G 	c #33332F",
"H 	c #33322F",
"I 	c #32312E",
"J 	c #31302D",
"K 	c #383734",
"L 	c #302F2C",
"M 	c #373733",
"N 	c #6A6966",
"O 	c #7D7D7A",
"P 	c #666663",
"Q 	c #7B7A78",
"R 	c #2F2F2B",
"S 	c #2F2E2B",
"T 	c #373634",
"U 	c #403F3C",
"V 	c #B1B1B0",
"W 	c #7C7C7A",
"X 	c #333230",
"Y 	c #32322F",
"Z 	c #5C5B59",
"` 	c #C5C5C4",
" .	c #50504D",
"..	c #302F2D",
"+.	c #2F2E2C",
"@.	c #2E2E2B",
"#.	c #2E2D2B",
"$.	c #2D2D2A",
"%.	c #363633",
"&.	c #353432",
"*.	c #343431",
"=.	c #535250",
"-.	c #676664",
";.	c #464543",
">.	c #C5C4C4",
",.	c #6F6F6D",
"'.	c #2E2D2A",
").	c #2D2C2A",
"!.	c #2C2B29",
"~.	c #343331",
"{.	c #5C5C59",
"].	c #474643",
"^.	c #B0B0AF",
"/.	c #7A7A78",
"(.	c #706F6E",
"_.	c #C4C4C3",
":.	c #908F8E",
"<.	c #2C2B28",
"[.	c #2B2A28",
"}.	c #2B2A27",
"|.	c #31302E",
"1.	c #2A2927",
"2.	c #32312F",
"3.	c #30302D",
"4.	c #2D2C29",
"5.	c #2A2A27",
"6.	c #292926",
"7.	c #292826",
"8.	c #31302C",
"9.	c #2F2E2A",
"0.	c #2D2C28",
"a.	c #2B2B27",
"b.	c #2A2926",
"c.	c #292825",
"d.	c #282725",
"e.	c #272724",
"f.	c #31312E",
"g.	c #2F2F2C",
"h.	c #262623",
"i.	c #262523",
"j.	c #252422",
"k.	c #242321",
"l.	c #232220",
"m.	c #22211F",
"n.	c #21211F",
"o.	c #21201E",
"p.	c #201F1D",
"q.	c #373734",
"r.	c #3B3A37",
"s.	c #3B3B38",
"t.	c #3C3B38",
"u.	c #3E3D3A",
"v.	c #3F3E3B",
"w.	c #3F3F3C",
"x.	c #41403D",
"y.	c #42413E",
"z.	c #43423F",
"A.	c #434340",
"B.	c #444341",
"C.	c #454441",
"D.	c #464542",
". . . . . . . + @ # $ % & * = - ; > , ' ) ! ~ ~ { { { ] ",
"^ ^ ^ ^ ^ ^ ^ / ( _ _ : < [ } | 1 2 3 4 5 6 7 7 8 9 9 0 ",
"a a a a a a a b c d d e f g h i j k l l m m n o p q q r ",
"b b b b b b b c d e f g h i j k s l t m n o u q r r r v ",
"w w w w w w w x e y g z i A k B l C m D E F G H I I I J ",
"x x x x x x x e g z i K k k l C m D E F q H I I J J J L ",
"e e e e e e e g i K k M l N O D o F q H P Q J J L L R S ",
"y y y y y y y z K T B B C U V W F X Y Z `  ...L +.@.#.$.",
"z z z z z z z K B %.C &.D *.=.` -.I ;.>.,.L +.@.'.$.).!.",
"z z z z z z z K B C C &.D ~.F {.>.].^./.L +.@.#.$.).!.!.",
"K K K K K K K B C D D F F H Y I (._.:.+.@.#.$.).!.<.[.}.",
"B B B B B B B &.D ~.F X H I |.J ..L S #.).).!.!.[.[.1.1.",
"B B B B B B B &.D F F H 2.I J 3.L +.#.'.).4.!.<.[.5.1.6.",
"C C C C C C C ~.F H H I |.J L +.S #.).4.!.<.[.5.1.6.7.7.",
"m m m m m m m F q r r v J 8.L S 9.'.4.0.<.a.}.5.b.c.c.c.",
"D D D D D D D X H I |.J L L S #.'.4.!.<.[.5.1.6.7.d.d.e.",
"F F F F F F F f.J g.S '.4.<.}.b.7.d.h.i.j.k.l.l.m.n.o.p.",
"F F F F F F F D C B q.K z y r.s.t.u.v.w.U x.y.z.A.B.C.D."};
