/* XPM */
static char * maximize_active_xpm[] = {
"28 18 91 1",
" 	c None",
".	c #393430",
"+	c #39332F",
"@	c #38332F",
"#	c #38322E",
"$	c #37322E",
"%	c #37312E",
"&	c #36332F",
"*	c #36322E",
"=	c #35322E",
"-	c #35312D",
";	c #34312D",
">	c #34302D",
",	c #33322E",
"'	c #32322E",
")	c #32312D",
"!	c #31312D",
"~	c #31302C",
"{	c #302F2C",
"]	c #30302C",
"^	c #302F2B",
"/	c #2F2E2B",
"(	c #2F2E2A",
"_	c #2F2F2B",
":	c #31302D",
"<	c #2E2E2B",
"[	c #2E2D2A",
"}	c #2D2D2A",
"|	c #2D2C29",
"1	c #2C2C29",
"2	c #2C2B28",
"3	c #2D2D29",
"4	c #2B2B28",
"5	c #2B2A27",
"6	c #6C6B69",
"7	c #C3C3C2",
"8	c #8D8C8B",
"9	c #2B2A28",
"0	c #2D2C2A",
"a	c #2C2B29",
"b	c #2A2A28",
"c	c #2A2A27",
"d	c #2A2927",
"e	c #555453",
"f	c #C2C2C2",
"g	c #3F3F3D",
"h	c #ADADAC",
"i	c #757573",
"j	c #292926",
"k	c #292826",
"l	c #494947",
"m	c #C2C2C1",
"n	c #5F5E5D",
"o	c #282826",
"p	c #3E3D3B",
"q	c #6A6968",
"r	c #282725",
"s	c #333331",
"t	c #ACACAB",
"u	c #757473",
"v	c #535351",
"w	c #494847",
"x	c #282825",
"y	c #5E5E5C",
"z	c #747472",
"A	c #272724",
"B	c #272624",
"C	c #5E5D5C",
"D	c #272725",
"E	c #262624",
"F	c #262523",
"G	c #282724",
"H	c #272623",
"I	c #262623",
"J	c #262522",
"K	c #252522",
"L	c #252422",
"M	c #1F1F1D",
"N	c #1F1E1C",
"O	c #1E1E1C",
"P	c #1E1D1C",
"Q	c #1D1D1B",
"R	c #1D1C1B",
"S	c #1D1C1A",
"T	c #1C1C1A",
"U	c #464542",
"V	c #474643",
"W	c #474744",
"X	c #484745",
"Y	c #494845",
"Z	c #4A4946",
".+++@@####$$%%%%%%%%%%%$$$$#",
"&*====--;;;;>>>>>>>>>>;;;;;;",
",'))!!~~~~~~{{{{{{{{{{]]~~~~",
")!~~~]^^^^//((((((((((((//_^",
":]{{_///<<[[}}}}|||||}}}[[[<",
"{///[[}}|||1222222222222211|",
"[[3|112224555678555555555559",
"01aa499bbcddefghijjjjjjjdddd",
"2499ddddkkklmnopmqrrrrrrkkkk",
"99ddddkkkksturrrvmwrrrrrrrok",
"ddjkkxrrrryzABBBBCzBBBBBADDr",
"kkxrrrDBBBBBEEEEEEEEEEEEBBBB",
"korrrrBBBBBBEEEEEEEEEEEEBBBB",
"rrABBBEEFFFFFFFFFFFFFFFFFFFF",
"GGAHHHIIJJJJJJJJJJJJJJJJJJJJ",
"BBIFFFKKLLLLLLLLLLLLLLLLLLLL",
"MNOOPQQQRRSSTTTTTTTTTTTTSSSR",
"UVVWXXXYYYYZZZZZZZZZZZZZZZYY"};
