/* XPM */
static char * menu_pressed_xpm[] = {
"28 18 460 2",
"  	c None",
". 	c #443D39",
"+ 	c #443D38",
"@ 	c #433C37",
"# 	c #433C36",
"$ 	c #443C36",
"% 	c #473D36",
"& 	c #493E36",
"* 	c #4C4036",
"= 	c #504237",
"- 	c #524237",
"; 	c #544438",
"> 	c #564539",
", 	c #58463A",
"' 	c #574639",
") 	c #544539",
"! 	c #524338",
"~ 	c #504239",
"{ 	c #4E4138",
"] 	c #4B4139",
"^ 	c #494039",
"/ 	c #483F39",
"( 	c #473F3A",
"_ 	c #413D38",
": 	c #403C37",
"< 	c #403B36",
"[ 	c #3F3B36",
"} 	c #423B35",
"| 	c #443D35",
"1 	c #483E36",
"2 	c #4C4037",
"3 	c #514337",
"4 	c #554537",
"5 	c #5A4839",
"6 	c #5F4B3A",
"7 	c #614C3B",
"8 	c #624C3C",
"9 	c #634E3C",
"0 	c #624D3B",
"a 	c #5E4C3B",
"b 	c #5B493A",
"c 	c #58473A",
"d 	c #514439",
"e 	c #4C4238",
"f 	c #474039",
"g 	c #453F39",
"h 	c #443E39",
"i 	c #433E39",
"j 	c #3D3C37",
"k 	c #3C3B36",
"l 	c #3C3B35",
"m 	c #3D3A35",
"n 	c #3E3B35",
"o 	c #413C35",
"p 	c #453E35",
"q 	c #4A4036",
"r 	c #514437",
"s 	c #56483A",
"t 	c #5D4D3C",
"u 	c #634F3D",
"v 	c #6A533F",
"w 	c #6E5641",
"x 	c #6E5742",
"y 	c #705742",
"z 	c #68533F",
"A 	c #64513D",
"B 	c #5D4E3D",
"C 	c #5A4A39",
"D 	c #554639",
"E 	c #4E4438",
"F 	c #4A4238",
"G 	c #464038",
"H 	c #423E37",
"I 	c #413E38",
"J 	c #403E38",
"K 	c #3C3A35",
"L 	c #3C3A34",
"M 	c #3D3A34",
"N 	c #403B34",
"O 	c #433D34",
"P 	c #4A3F35",
"Q 	c #514438",
"R 	c #5A4A3B",
"S 	c #63523F",
"T 	c #6D5843",
"U 	c #775D48",
"V 	c #7E674B",
"W 	c #8E755B",
"X 	c #978169",
"Y 	c #947C64",
"Z 	c #846B4E",
"` 	c #7E634A",
" .	c #755D48",
"..	c #6C5743",
"+.	c #64513F",
"@.	c #5C4B3B",
"#.	c #544639",
"$.	c #4E4338",
"%.	c #484137",
"&.	c #443E36",
"*.	c #413E37",
"=.	c #3F3D37",
"-.	c #3C3A36",
";.	c #3B3935",
">.	c #3C3934",
",.	c #3E3A34",
"'.	c #423B34",
").	c #483F34",
"!.	c #4F4337",
"~.	c #5A4A3C",
"{.	c #675341",
"].	c #755F48",
"^.	c #836951",
"/.	c #9C836A",
"(.	c #C3B2A1",
"_.	c #D4C7BB",
":.	c #D5C9BB",
"<.	c #D5C8BB",
"[.	c #CCBEAE",
"}.	c #A9927B",
"|.	c #8B6F55",
"1.	c #80644C",
"2.	c #735A46",
"3.	c #675242",
"4.	c #5A4B3C",
"5.	c #524538",
"6.	c #4C4237",
"7.	c #463E37",
"8.	c #423D37",
"9.	c #3F3C37",
"0.	c #3B3934",
"a.	c #3E3933",
"b.	c #443C33",
"c.	c #4B4035",
"d.	c #554839",
"e.	c #64503F",
"f.	c #735C46",
"g.	c #856B52",
"h.	c #96785E",
"i.	c #CBBBAB",
"j.	c #D8C9BB",
"k.	c #C4B096",
"l.	c #C2AB8E",
"m.	c #C3AE92",
"n.	c #D1BFAD",
"o.	c #D6C6B8",
"p.	c #A4896F",
"q.	c #8F7257",
"r.	c #80664B",
"s.	c #705945",
"t.	c #61503F",
"u.	c #574839",
"v.	c #4F4237",
"w.	c #463F36",
"x.	c #423D36",
"y.	c #403C36",
"z.	c #3A3834",
"A.	c #3A3833",
"B.	c #3C3833",
"C.	c #403A33",
"D.	c #463D34",
"E.	c #504236",
"F.	c #5C4C3B",
"G.	c #6D5643",
"H.	c #81674E",
"I.	c #95785C",
"J.	c #B99F86",
"K.	c #DED1C3",
"L.	c #C7AC90",
"M.	c #C3A989",
"N.	c #C9AD8B",
"O.	c #C6AC8B",
"P.	c #DACCBB",
"Q.	c #C6B09A",
"R.	c #9D7F60",
"S.	c #8B6F53",
"T.	c #79614A",
"U.	c #695440",
"V.	c #5B4A3A",
"W.	c #483F36",
"X.	c #423C35",
"Y.	c #3F3B35",
"Z.	c #393734",
"`.	c #3A3733",
" +	c #483D34",
".+	c #524437",
"++	c #604E3D",
"@+	c #745C46",
"#+	c #876D54",
"$+	c #9D8161",
"%+	c #C6B099",
"&+	c #DBC9B6",
"*+	c #C8AD8C",
"=+	c #CFB493",
"-+	c #D1B696",
";+	c #D0B594",
">+	c #CCB090",
",+	c #D2BFA6",
"'+	c #D4C3AF",
")+	c #A68868",
"!+	c #92775A",
"~+	c #7F674D",
"{+	c #6C5642",
"]+	c #5D4C3C",
"^+	c #534538",
"/+	c #494037",
"(+	c #3F3A35",
"_+	c #383733",
":+	c #393632",
"<+	c #3C3732",
"[+	c #403932",
"}+	c #493D33",
"|+	c #534337",
"1+	c #624F3E",
"2+	c #776149",
"3+	c #8B7057",
"4+	c #A08565",
"5+	c #C8B49A",
"6+	c #DBCBB8",
"7+	c #CAB18F",
"8+	c #D1B695",
"9+	c #D4B998",
"0+	c #D2B696",
"a+	c #CDB491",
"b+	c #D4C1A9",
"c+	c #D4C5B1",
"d+	c #A78B6B",
"e+	c #95795B",
"f+	c #826950",
"g+	c #6D5743",
"h+	c #5E4C3C",
"i+	c #534437",
"j+	c #493F36",
"k+	c #3E3934",
"l+	c #383633",
"m+	c #534336",
"n+	c #614E3C",
"o+	c #775F48",
"p+	c #8A7056",
"q+	c #9F8364",
"r+	c #C2AB90",
"s+	c #E4D7C8",
"t+	c #CEB79A",
"u+	c #D0B493",
"v+	c #D2B695",
"w+	c #CDB393",
"x+	c #E0D2C0",
"y+	c #CDB9A1",
"z+	c #A68867",
"A+	c #80674D",
"B+	c #6D5642",
"C+	c #5D4B3B",
"D+	c #524438",
"E+	c #3F3934",
"F+	c #373532",
"G+	c #383531",
"H+	c #3A3530",
"I+	c #3E3730",
"J+	c #473C32",
"K+	c #514234",
"L+	c #5E4D3A",
"M+	c #705944",
"N+	c #85694F",
"O+	c #987A5E",
"P+	c #AB8D6D",
"Q+	c #D6C6B5",
"R+	c #E1D4C3",
"S+	c #D2BEA3",
"T+	c #D0B99C",
"U+	c #D1BB9F",
"V+	c #DDCEBB",
"W+	c #DCCFBF",
"X+	c #B39879",
"Y+	c #9E8060",
"Z+	c #8B7053",
"`+	c #795F49",
" @	c #685440",
".@	c #5B4839",
"+@	c #473D34",
"@@	c #413A34",
"#@	c #3D3833",
"$@	c #363431",
"%@	c #373430",
"&@	c #38342F",
"*@	c #3C362F",
"=@	c #443930",
"-@	c #4C3F32",
";@	c #594939",
">@	c #67533F",
",@	c #7A6148",
"'@	c #8B6E55",
")@	c #9B7D60",
"!@	c #AF957B",
"~@	c #D1C0AC",
"{@	c #DFD3C3",
"]@	c #E0D3C3",
"^@	c #D7C8B7",
"/@	c #B69B82",
"(@	c #9E7F63",
"_@	c #8E7256",
":@	c #7F644A",
"<@	c #614F3D",
"[@	c #554636",
"}@	c #4D3F33",
"|@	c #443B32",
"1@	c #3F3932",
"2@	c #353431",
"3@	c #36332F",
"4@	c #37342F",
"5@	c #3B342E",
"6@	c #41382F",
"7@	c #483C30",
"8@	c #524235",
"9@	c #5E4B3B",
"0@	c #6B5541",
"a@	c #7B614A",
"b@	c #8A6C52",
"c@	c #947759",
"d@	c #997E60",
"e@	c #A68C6F",
"f@	c #AF977C",
"g@	c #AA9276",
"h@	c #9B7F60",
"i@	c #95775A",
"j@	c #8C6F54",
"k@	c #7E644B",
"l@	c #725945",
"m@	c #584738",
"n@	c #4F4133",
"o@	c #483D33",
"p@	c #423931",
"q@	c #3D3832",
"r@	c #3A3732",
"s@	c #343330",
"t@	c #34322E",
"u@	c #35322D",
"v@	c #37322D",
"w@	c #3B352E",
"x@	c #41372E",
"y@	c #4A3D31",
"z@	c #534234",
"A@	c #5D4939",
"B@	c #66513D",
"C@	c #705942",
"D@	c #785D48",
"E@	c #80664C",
"F@	c #83694D",
"G@	c #84694F",
"H@	c #81674D",
"I@	c #7A5F49",
"J@	c #735B44",
"K@	c #6A543F",
"L@	c #5F4C3B",
"M@	c #584637",
"N@	c #483C32",
"O@	c #373530",
"P@	c #34332E",
"Q@	c #33322D",
"R@	c #34312C",
"S@	c #35312C",
"T@	c #39332C",
"U@	c #3C342C",
"V@	c #41382E",
"W@	c #493B30",
"X@	c #4F4031",
"Y@	c #564435",
"Z@	c #5D4A38",
"`@	c #624C39",
" #	c #69513C",
".#	c #6C533D",
"+#	c #6A533D",
"@#	c #6C523D",
"##	c #6A513C",
"$#	c #624D3A",
"%#	c #5F4C38",
"&#	c #584737",
"*#	c #534334",
"=#	c #4E3F31",
"-#	c #473C30",
";#	c #42382F",
">#	c #3E362F",
",#	c #3A352F",
"'#	c #37352F",
")#	c #32312E",
"!#	c #32302D",
"~#	c #322F2C",
"{#	c #322F2B",
"]#	c #34302C",
"^#	c #37302C",
"/#	c #3B322B",
"(#	c #41362C",
"_#	c #45392E",
":#	c #4A3B2F",
"<#	c #4E3D31",
"[#	c #534233",
"}#	c #574434",
"|#	c #5A4535",
"1#	c #584535",
"2#	c #594535",
"3#	c #584434",
"4#	c #544333",
"5#	c #503F31",
"6#	c #4D3D31",
"7#	c #483A31",
"8#	c #44392F",
"9#	c #3F362E",
"0#	c #39342F",
"a#	c #37332E",
"b#	c #35322F",
"c#	c #35332F",
"d#	c #302E2C",
"e#	c #2E2C2A",
"f#	c #2C2A28",
"g#	c #2C2A27",
"h#	c #2D2926",
"i#	c #2D2A25",
"j#	c #2F2A25",
"k#	c #322B25",
"l#	c #362E26",
"m#	c #3A2F26",
"n#	c #3D3228",
"o#	c #403328",
"p#	c #42352A",
"q#	c #44372B",
"r#	c #43362C",
"s#	c #44362C",
"t#	c #43362B",
"u#	c #42342A",
"v#	c #40342A",
"w#	c #3A3029",
"x#	c #372F28",
"y#	c #342F29",
"z#	c #322E29",
"A#	c #332E2A",
"B#	c #322E2B",
"C#	c #312F2C",
"D#	c #363532",
"E#	c #3A3835",
"F#	c #3C3A37",
"G#	c #403D3A",
"H#	c #423F3B",
"I#	c #46433E",
"J#	c #4B4742",
"K#	c #4C4741",
"L#	c #4E4841",
"M#	c #514A43",
"N#	c #534A43",
"O#	c #554B43",
"P#	c #544B43",
"Q#	c #534B43",
"R#	c #544A43",
"S#	c #524942",
"T#	c #504841",
"U#	c #4D4640",
"V#	c #4A443E",
"W#	c #47433D",
"X#	c #44403B",
"Y#	c #413E39",
"Z#	c #3E3B37",
"`#	c #3C3936",
". + + @ @ # $ % & * = - ; > > , ' > ) ! ~ { ] ^ ^ / ( ( ",
"_ : < [ < } | 1 2 3 4 5 6 7 8 9 0 a b c ) d e ^ f g h i ",
"j k l m n o p q r s t u v w x y w z A B C D E F G H I J ",
"k K L M N O P Q R S T U V W X Y Z `  ...+.@.#.$.%.&.*.=.",
"-.;.>.,.'.).!.~.{.].^./.(._.:.<.[.}.|.1.2.3.4.5.6.7.8.9.",
";.0.>.a.b.c.d.e.f.g.h.i.j.k.l.m.n.o.p.q.r.s.t.u.v.w.x.y.",
"z.A.B.C.D.E.F.G.H.I.J.K.L.M.N.O.M.P.Q.R.S.T.U.V.3 W.X.Y.",
"Z.`.B.C. +.+++@+#+$+%+&+*+=+-+;+>+,+'+)+!+~+{+]+^+/+# (+",
"_+:+<+[+}+|+1+2+3+4+5+6+7+8+9+0+a+b+c+d+e+f+g+h+i+j+} k+",
"l+:+<+[+}+m+n+o+p+q+r+s+t+u+v+u+w+x+y+z+!+A+B+C+D+j+} E+",
"F+G+H+I+J+K+L+M+N+O+P+Q+R+S+T+U+V+W+X+Y+Z+`+ @.@E.+@@@#@",
"$@%@&@*@=@-@;@>@,@'@)@!@~@{@]@{@^@/@(@_@:@M+<@[@}@|@1@<+",
"2@3@4@5@6@7@8@9@0@a@b@c@d@e@f@g@h@i@j@k@l@e.m@n@o@p@q@r@",
"s@t@u@v@w@x@y@z@A@B@C@D@E@F@G@F@H@I@J@K@L@M@n@N@p@I+H+O@",
"P@Q@R@S@T@U@V@W@X@Y@Z@`@ #.#+#@###$#%#&#*#=#-#;#>#,#&@'#",
")#!#~#{#]#^#/#(#_#:#<#[#}#|#1#2#3#4#5#6#7#8#9#5@0#a#b#c#",
"d#e#f#g#h#i#j#k#l#m#n#o#p#q#r#s#t#u#v#n#w#x#y#z#A#B#C#!#",
"D#E#F#G#H#I#I#J#K#L#M#N#O#P#Q#P#R#S#T#U#V#W#X#Y#Z#`#Z.l+"};
