/* XPM */
static char * menu_active_xpm[] = {
"28 18 174 2",
"  	c None",
". 	c #453E39",
"+ 	c #443D38",
"@ 	c #433C37",
"# 	c #423B37",
"$ 	c #413A36",
"% 	c #403A35",
"& 	c #413B36",
"* 	c #423C37",
"= 	c #433C38",
"- 	c #433D38",
"; 	c #463F3A",
"> 	c #413D38",
", 	c #403C37",
"' 	c #3F3B36",
") 	c #3E3A36",
"! 	c #3E3A35",
"~ 	c #3D3935",
"{ 	c #3D3934",
"] 	c #3C3934",
"^ 	c #3D3A35",
"/ 	c #3E3B36",
"( 	c #3F3B37",
"_ 	c #3F3C37",
": 	c #403D38",
"< 	c #413E39",
"[ 	c #423E39",
"} 	c #3D3C37",
"| 	c #3C3B36",
"1 	c #3B3A35",
"2 	c #3A3935",
"3 	c #3A3934",
"4 	c #393834",
"5 	c #393833",
"6 	c #383733",
"7 	c #3B3A36",
"8 	c #3E3D38",
"9 	c #383732",
"0 	c #373632",
"a 	c #464541",
"b 	c #555551",
"c 	c #4E4E4A",
"d 	c #383734",
"e 	c #373733",
"f 	c #363532",
"g 	c #363531",
"h 	c #353431",
"i 	c #4C4B48",
"j 	c #888885",
"k 	c #A6A6A4",
"l 	c #A7A6A5",
"m 	c #989796",
"n 	c #5D5C59",
"o 	c #373633",
"p 	c #383834",
"q 	c #3A3936",
"r 	c #3C3B37",
"s 	c #353430",
"t 	c #343430",
"u 	c #343330",
"v 	c #34332F",
"w 	c #8E8E8C",
"x 	c #9E9D9B",
"y 	c #61615E",
"z 	c #52524F",
"A 	c #5B5A57",
"B 	c #888785",
"C 	c #9E9E9C",
"D 	c #454441",
"E 	c #33322F",
"F 	c #33322E",
"G 	c #32322E",
"H 	c #595855",
"I 	c #A5A4A3",
"J 	c #4A4946",
"K 	c #3B3B37",
"L 	c #969694",
"M 	c #71706D",
"N 	c #343431",
"O 	c #32312F",
"P 	c #31302E",
"Q 	c #31302D",
"R 	c #676664",
"S 	c #858583",
"T 	c #32312E",
"U 	c #686765",
"V 	c #878685",
"W 	c #333230",
"X 	c #373634",
"Y 	c #353432",
"Z 	c #32322F",
"` 	c #30302D",
" .	c #302F2D",
"..	c #302F2C",
"+.	c #2F2E2C",
"@.	c #666563",
"#.	c #848483",
"$.	c #868584",
"%.	c #363633",
"&.	c #2F2E2B",
"*.	c #565553",
"=.	c #A3A3A2",
"-.	c #464643",
";.	c #383735",
">.	c #959493",
",.	c #6E6D6C",
"'.	c #343331",
").	c #2E2D2B",
"!.	c #2D2D2A",
"~.	c #8B8A89",
"{.	c #9B9A99",
"].	c #5C5C5A",
"^.	c #4D4C4A",
"/.	c #555452",
"(.	c #8B8B89",
"_.	c #9B9B99",
":.	c #3F3E3C",
"<.	c #2D2C2A",
"[.	c #2C2C29",
"}.	c #2C2B29",
"|.	c #444341",
"1.	c #838281",
"2.	c #A2A2A0",
"3.	c #A3A2A1",
"4.	c #939291",
"5.	c #333330",
"6.	c #3C3B39",
"7.	c #4C4B49",
"8.	c #2D2C29",
"9.	c #31312E",
"0.	c #2E2D2A",
"a.	c #2B2A28",
"b.	c #2A2A27",
"c.	c #2B2B28",
"d.	c #2C2B28",
"e.	c #2F2E2A",
"f.	c #2E2D29",
"g.	c #2C2C28",
"h.	c #2C2B27",
"i.	c #2B2A27",
"j.	c #2A2926",
"k.	c #2B2B27",
"l.	c #2D2D29",
"m.	c #302F2B",
"n.	c #31302C",
"o.	c #32312D",
"p.	c #292926",
"q.	c #292826",
"r.	c #2A2927",
"s.	c #282825",
"t.	c #272624",
"u.	c #252522",
"v.	c #242321",
"w.	c #232320",
"x.	c #232220",
"y.	c #222220",
"z.	c #22211F",
"A.	c #232321",
"B.	c #252422",
"C.	c #262523",
"D.	c #282725",
"E.	c #393835",
"F.	c #3B3A37",
"G.	c #3D3C39",
"H.	c #3F3E3B",
"I.	c #41403D",
"J.	c #42413E",
"K.	c #434340",
"L.	c #43423F",
"M.	c #403F3C",
"N.	c #3F3F3C",
"O.	c #3E3D3A",
"P.	c #3C3B38",
"Q.	c #373734",
". + @ # # $ $ % % % $ $ $ $ & # # * @ @ = - + . . . ; ; ",
"> , ' ) ! ~ { ] ] ] ] ] { ~ ^ ! ! ) / ' ( _ , : > > < [ ",
"} | 1 2 3 4 5 5 6 6 6 5 5 5 4 4 3 3 2 1 1 7 | | } } 8 8 ",
"| 1 3 4 5 9 9 0 0 0 0 0 0 a b c 6 6 5 4 3 3 1 1 | | } } ",
"7 2 4 d e 0 f g g h g i j k k l m n o 6 p 4 4 2 q 7 7 r ",
"2 4 6 0 f g s t u u v w x y z A B C D f 0 6 6 4 4 2 2 7 ",
"4 6 0 g h u v E F G H I J G F E K L M s h g 0 o 6 d 4 2 ",
"d o f N u E O P P Q R S Q Q P T O U V W u N h f o X d d ",
"o Y N W Z P `  ...+.@.#.+.+... . .R $.T O E u h Y f o o ",
"%.h u W T Q  .+.+.&.*.=.-.+.+.+.;.>.,.P T Z W '.h f o o ",
"f u E T Q ..&.).).!.!.~.{.].^./.(._.:...` Q T E u h f f ",
"'.E T  ...).!.<.[.[.}.|.1.2.3.3.4.^.).&.+...` T E 5.h h ",
"u E T  .+.).<.[.}.}.}.}.}.6.7.|.8.<.!.).&.+. .P O E '.h ",
"E 9. .&.0.8.}.a.a.b.b.a.a.a.a.a.c.d.}.8.<.0.&...Q T E u ",
"F Q ..e.f.g.h.i.i.b.j.j.j.b.b.i.i.k.d.g.8.l.e.m.n.o.F E ",
"T ..&.0.[.a.i.p.q.q.q.q.q.q.q.r.r.r.b.a.d.[.<.).+. .T T ",
"+.8.i.s.t.u.v.w.x.y.y.z.y.y.x.x.A.v.v.B.C.t.D.j.c.8.&...",
"o E.F.G.H.I.J.K.K.K.|.D D |.|.|.|.K.L.J.M.N.O.P.F.E.Q.o "};
