/* XPM */
static char * menu_inactive_xpm[] = {
"28 18 80 1",
" 	c None",
".	c #373633",
"+	c #363532",
"@	c #353431",
"#	c #3C3B39",
"$	c #444341",
"%	c #41403D",
"&	c #343331",
"*	c #343330",
"=	c #333330",
"-	c #333230",
";	c #3F3E3B",
">	c #5E5D5B",
",	c #6D6D6A",
"'	c #6D6C6A",
")	c #6D6D6B",
"!	c #656563",
"~	c #474644",
"{	c #353432",
"]	c #33322F",
"^	c #61605E",
"/	c #696866",
"(	c #4A4947",
"_	c #43423F",
":	c #474643",
"<	c #3B3B38",
"[	c #464543",
"}	c #6C6C6A",
"|	c #373634",
"1	c #656462",
"2	c #52514F",
"3	c #32312F",
"4	c #4E4D4A",
"5	c #5D5C5A",
"6	c #4E4D4B",
"7	c #5D5D5A",
"8	c #32312E",
"9	c #31312E",
"0	c #31302E",
"a	c #4C4C49",
"b	c #5C5C59",
"c	c #4D4C4A",
"d	c #31302D",
"e	c #444441",
"f	c #6C6B69",
"g	c #3D3C39",
"h	c #646462",
"i	c #51504D",
"j	c #5F5F5D",
"k	c #676765",
"l	c #484745",
"m	c #40403D",
"n	c #605F5D",
"o	c #686765",
"p	c #393836",
"q	c #30302D",
"r	c #3C3C39",
"s	c #5C5B59",
"t	c #646361",
"u	c #302F2C",
"v	c #2F2E2C",
"w	c #373734",
"x	c #3F3E3C",
"y	c #3C3B38",
"z	c #302F2D",
"A	c #2F2E2B",
"B	c #2E2D2A",
"C	c #2D2C2A",
"D	c #2C2C29",
"E	c #2C2B28",
"F	c #2B2B28",
"G	c #2B2A28",
"H	c #2B2A27",
"I	c #2C2B29",
"J	c #2D2C29",
"K	c #2F2F2C",
"L	c #383734",
"M	c #393835",
"N	c #3A3936",
"O	c #3B3A37",
".++++@@@@@@@@@++++++++......",
".++++@@@@@@@@@@++++++++.....",
".++++@@@@@@@@@@@+++++++.....",
".+++@@@@@@@@@#$%@@++++++....",
"+@@@&**==-=;>,')!~*@@@@{++++",
"+@@&**=--]]^/(_:>/<*&@@@{+++",
"+@@&**-]]][};]]]|12**&@@{+++",
"+@@**=]]]34533]]]67***@@@+++",
"@**]]88900ab00998c53]]-**&@@",
"@*-]]890ddefgdd0+hi83]]***@@",
"@*]]380ddddjklmenop883]]**@@",
"&*]]89ddddqrsffft%0888]]**@@",
"-]80dduuuuvvvwxyuuuzdd083]-*",
"-]8ddzuuuvvvvvvuuuuudd083]]*",
"]38dduuvvvvvvvvvuuuuzdd88]]-",
"]38dduuvAAAAAAAvvvuuudd083]-",
"9uABCDEFGGGHGGGGEEEIJCBAKud8",
"@+.LMNO<<<<yy<<<<<OONMLw.+@@"};
