/* XPM */
static char * top_left_inactive_xpm[] = {
"6 25 24 1",
" 	c None",
".	c #343330",
"+	c #393835",
"@	c #61605D",
"#	c #464542",
"$	c #444340",
"%	c #383734",
"&	c #403F3A",
"*	c #3E3D39",
"=	c #3D3C38",
"-	c #373633",
";	c #3C3B37",
">	c #3B3A36",
",	c #3A3935",
"'	c #393834",
")	c #363532",
"!	c #383733",
"~	c #373632",
"{	c #363531",
"]	c #353430",
"^	c #353431",
"/	c #333330",
"(	c #33322F",
"_	c #32312E",
"     .",
"   ++@",
"  +##+",
" +$+++",
" %$%%%",
"%&%%%%",
"%*%%%%",
"%=%%%%",
"-;----",
"->----",
"-,----",
"-'----",
")!))))",
")~))))",
"){))))",
")]))))",
"^^^^^^",
"^^^^^^",
"^^^^^^",
"^^^^^^",
"......",
"......",
"/././.",
".(.((_",
"______"};
