/* XPM */
static char * top_left_active_xpm[] = {
"6 25 30 1",
" 	c None",
".	c #403F3A",
"+	c #8D8481",
"@	c #817A76",
"#	c #4C413C",
"$	c #78736F",
"%	c #47403B",
"&	c #706D69",
"*	c #433F3A",
"=	c #676662",
"-	c #3F3E39",
";	c #605F5B",
">	c #3E3D38",
",	c #5A5956",
"'	c #3D3C38",
")	c #53524F",
"!	c #3C3B37",
"~	c #4C4B47",
"{	c #3B3A36",
"]	c #464542",
"^	c #3A3936",
"/	c #3E3D3B",
"(	c #393835",
"_	c #383734",
":	c #373633",
"<	c #363532",
"[	c #363531",
"}	c #353431",
"|	c #343330",
"1	c #33322F",
"     .",
"   ..+",
"  .@@#",
" .$%%%",
" .&***",
".=----",
".;>>>>",
".,''''",
".)!!!!",
".~{{{{",
".]^^^^",
"./((((",
".(((((",
"._____",
".:::::",
".:::::",
".<<<<<",
".[[[[[",
".}}}}}",
".|||||",
".|||||",
"||||||",
"||||||",
"||||11",
"111111"};
