/* XPM */
static char * top_right_inactive_xpm[] = {
"6 25 60 1",
" 	c None",
".	c #33322F",
"+	c #5F5E5B",
"@	c #373633",
"#	c #383734",
"$	c #3F3E39",
"%	c #3E3D38",
"&	c #363532",
"*	c #3E3C37",
"=	c #373532",
"-	c #353432",
";	c #353532",
">	c #353431",
",	c #353331",
"'	c #363431",
")	c #3D3B36",
"!	c #34322F",
"~	c #353330",
"{	c #3A3835",
"]	c #343230",
"^	c #343330",
"/	c #393734",
"(	c #33332F",
"_	c #383632",
":	c #33322E",
"<	c #33312F",
"[	c #373631",
"}	c #32312D",
"|	c #353430",
"1	c #32312E",
"2	c #33312E",
"3	c #34332F",
"4	c #31302C",
"5	c #32302D",
"6	c #33322D",
"7	c #30302C",
"8	c #32312C",
"9	c #2F2F2B",
"0	c #31302B",
"a	c #312F2C",
"b	c #33302D",
"c	c #31302D",
"d	c #302F2A",
"e	c #302E2B",
"f	c #302F2C",
"g	c #2F2E2B",
"h	c #302E2A",
"i	c #32302E",
"j	c #32302C",
"k	c #302F2B",
"l	c #2F2D29",
"m	c #2F2D2A",
"n	c #2E2D29",
"o	c #2E2D2A",
"p	c #2E2C29",
"q	c #2F2E2A",
"r	c #2D2B28",
"s	c #312F2D",
"t	c #302E2C",
"u	c #2E2C28",
".     ",
"+@@   ",
"#$%@  ",
"@&&*= ",
"-;>*, ",
"->'')!",
">>~'{]",
">^~~/(",
"^~!]_:",
"^!!<[}",
"^^<!|1",
"^.<234",
"<25267",
".55}89",
"22510a",
"2b5cde",
"55f4gh",
"iajkkl",
"55a4gm",
"aefkgn",
"!14kop",
"5afqor",
"5skklp",
"aefqmr",
"atqqur"};
