<svg xmlns="http://www.w3.org/2000/svg" width="48" height="48">
<defs>
  <path
     d="M 24.889828,2.0004778 C 21.392877,2.1068035 18.046952,5.0084053 14.950578,9.0479895 11.854203,13.087573 9.0061389,18.367088 6.7585732,23.658684 4.5110076,28.95028 2.8720095,34.232911 2.2615639,38.298027 c -0.3052228,2.032559 -0.3674238,3.769699 -0.057287,5.128068 0.1550685,0.679184 0.3985549,1.273095 0.8306577,1.747553 0.4321029,0.474459 1.078571,0.773139 1.7472457,0.802156 6.4913857,0.32593 13.6325937,-2.691283 19.3342767,-6.016168 2.850841,-1.662443 5.345467,-3.413974 7.189486,-4.89888 0.92201,-0.742453 1.687098,-1.39911 2.262826,-1.976741 0.575728,-0.577631 0.946806,-0.99485 1.174379,-1.547015 0.09947,-0.242759 0.08264,-0.517663 -0.04569,-0.746473 -0.128334,-0.22881 -0.354122,-0.386471 -0.613105,-0.428112 -0.667852,-0.112531 -1.152614,0.08443 -1.919106,0.315132 -0.766492,0.230701 -1.707127,0.56296 -2.778407,0.974046 -2.142559,0.822174 -4.787026,1.938723 -7.47592,3.036733 -2.688894,1.09801 -5.42756,2.169505 -7.64778,2.922139 -1.11011,0.376318 -2.08659,0.688623 -2.864337,0.859453 -0.777748,0.17083 -1.366946,0.172216 -1.4894562,0.143242 -0.00955,-1.6e-4 -0.019096,-1.6e-4 -0.028643,0 -0.038747,-0.0078 -0.00278,0.0136 -0.057287,-0.08595 -0.054505,-0.09954 -0.1513111,-0.343299 -0.1718602,-0.716211 -0.041098,-0.745823 0.1323678,-1.94155 0.4869374,-3.351865 0.709139,-2.820631 2.146385,-6.547784 3.924142,-10.198838 1.777757,-3.651054 3.898836,-7.223063 5.900535,-9.711815 1.00085,-1.244376 1.969412,-2.208992 2.80705,-2.778897 0.837639,-0.569905 1.47019,-0.697935 1.890463,-0.572968 0.03815,0.0026 0.07643,0.0026 0.114573,0 0.531555,0.08715 1.332183,0.58416 2.234183,1.489717 0.902001,0.905558 1.905742,2.196376 2.921624,3.724295 2.031763,3.055838 4.174489,7.081258 6.158325,11.058291 1.983836,3.977033 3.797304,7.905656 5.241737,10.829103 0.722216,1.461724 1.344508,2.664292 1.861819,3.523756 0.258656,0.429732 0.502896,0.784488 0.744728,1.059992 0.120915,0.137751 0.24166,0.255118 0.429651,0.372429 0.133536,0.08333 0.382175,0.08489 0.630154,0.08595 l 0,0.08595 c 0.06056,0 0.109093,-0.04291 0.17186,-0.0573 0.03565,-0.0077 0.04938,0.01232 0.08593,0 l -0.02864,-0.0573 c 0.159316,-0.04986 0.330798,-0.07313 0.42965,-0.171891 0.153527,-0.153386 0.218028,-0.310981 0.257791,-0.429726 0.07953,-0.237488 0.0862,-0.40903 0.08593,-0.601617 -5.33e-4,-0.385174 -0.07246,-0.812695 -0.17186,-1.375124 -0.198805,-1.124857 -0.561797,-2.694452 -1.088455,-4.555099 -1.053315,-3.721292 -2.711059,-8.641573 -4.726156,-13.608 C 37.998431,17.603617 35.632127,12.614144 33.110475,8.7901535 31.849649,6.8781578 30.559494,5.2562024 29.214977,4.0631641 27.87046,2.8701259 26.451139,2.0708728 24.947114,2.0004778 c -0.01909,-6.368e-4 -0.0382,-6.368e-4 -0.05729,0 l 0,0 z"
     id="path-main"/>
</defs>
<acyl-settings>
<linearGradient
     id="linearGradient4321">
    <stop
       style="stop-color:#FFFFFF;stop-opacity:1.0;"
       offset="1.0"
       id="stop1" />
  </linearGradient>
<linearGradient
     inkscape:collect="always"
     xlink:href="#linearGradient4321"
     id="acyl_gradient"
     x1="50.0%"
     y1="0.0%"
     x2="50.0%"
     y2="100.0%" />
<filter>
    </filter>
<use id="1" style="fill:url(#acyl_gradient);filter:url(#filter1111)" xlink:href="#path-main" />
</acyl-settings>
</svg>
