<svg xmlns="http://www.w3.org/2000/svg" width="48" height="48">
<defs>
  <path
     d="m 8.5,40.5 c 0,3.037375 2.449456,5.5 5.470588,5.5 l 20.058824,0 C 37.050544,46 39.5,43.537375 39.5,40.5 l 0,-33 C 39.5,4.462625 37.050544,2 34.029412,2 L 13.970588,2 C 10.949456,2 8.5,4.462625 8.5,7.5 z m 5.014706,-22.916667 c -1.007045,0 -1.82353,-0.820875 -1.82353,-1.833333 l 0,-7.3333333 c 0,-1.0124584 0.816485,-1.8333334 1.82353,-1.8333334 l 20.970588,0 c 1.007044,0 1.823529,0.820875 1.823529,1.8333334 l 0,7.3333333 c 0,1.012458 -0.816485,1.833333 -1.823529,1.833333 z m 0.911764,8.25 c -1.007044,0 -1.823529,-0.820875 -1.823529,-1.833333 0,-1.012458 0.816485,-1.833333 1.823529,-1.833333 l 0.911765,0 c 1.007044,0 1.823529,0.820875 1.823529,1.833333 0,1.012458 -0.816485,1.833333 -1.823529,1.833333 z m 9.117648,0 c -1.007044,0 -1.823529,-0.820875 -1.823529,-1.833333 0,-1.012458 0.816485,-1.833333 1.823529,-1.833333 l 0.911765,0 c 1.007043,0 1.823529,0.820875 1.823529,1.833333 0,1.012458 -0.816486,1.833333 -1.823529,1.833333 z m 9.117647,0 c -1.007045,0 -1.82353,-0.820875 -1.82353,-1.833333 0,-1.012458 0.816485,-1.833333 1.82353,-1.833333 l 0.911764,0 c 1.007045,0 1.82353,0.820875 1.82353,1.833333 0,1.012458 -0.816485,1.833333 -1.82353,1.833333 z M 14.42647,33.166667 c -1.007044,0 -1.823529,-0.820875 -1.823529,-1.833334 0,-1.012458 0.816485,-1.833333 1.823529,-1.833333 l 0.911765,0 c 1.007044,0 1.823529,0.820875 1.823529,1.833333 0,1.012459 -0.816485,1.833334 -1.823529,1.833334 z m 9.117648,0 c -1.007044,0 -1.823529,-0.820875 -1.823529,-1.833334 0,-1.012458 0.816485,-1.833333 1.823529,-1.833333 l 0.911765,0 c 1.007043,0 1.823529,0.820875 1.823529,1.833333 0,1.012459 -0.816486,1.833334 -1.823529,1.833334 z m 9.117647,0 c -1.007045,0 -1.82353,-0.820875 -1.82353,-1.833334 0,-1.012458 0.816485,-1.833333 1.82353,-1.833333 l 0.911764,0 c 1.007045,0 1.82353,0.820875 1.82353,1.833333 0,1.012459 -0.816485,1.833334 -1.82353,1.833334 z M 14.42647,40.5 c -1.007044,0 -1.823529,-0.820875 -1.823529,-1.833333 0,-1.012459 0.816485,-1.833334 1.823529,-1.833334 l 0.911765,0 c 1.007044,0 1.823529,0.820875 1.823529,1.833334 0,1.012458 -0.816485,1.833333 -1.823529,1.833333 z m 9.117648,0 c -1.007044,0 -1.823529,-0.820875 -1.823529,-1.833333 0,-1.012459 0.816485,-1.833334 1.823529,-1.833334 l 0.911765,0 c 1.007043,0 1.823529,0.820875 1.823529,1.833334 0,1.012458 -0.816486,1.833333 -1.823529,1.833333 z m 9.117647,0 c -1.007045,0 -1.82353,-0.820875 -1.82353,-1.833333 0,-1.012459 0.816485,-1.833334 1.82353,-1.833334 l 0.911764,0 c 1.007045,0 1.82353,0.820875 1.82353,1.833334 0,1.012458 -0.816485,1.833333 -1.82353,1.833333 z"
     id="path-main"
      />
</defs>
<acyl-settings>
<linearGradient
     id="linearGradient4321">
    <stop
       style="stop-color:#FFFFFF;stop-opacity:1.0;"
       offset="1.0"
       id="stop1" />
  </linearGradient>
<linearGradient
     inkscape:collect="always"
     xlink:href="#linearGradient4321"
     id="acyl_gradient"
     x1="50.0%"
     y1="0.0%"
     x2="50.0%"
     y2="100.0%" />
<filter>
    </filter>
<use id="1" style="fill:url(#acyl_gradient);filter:url(#filter1111)" xlink:href="#path-main" />
</acyl-settings>
</svg>
