<svg xmlns="http://www.w3.org/2000/svg" width="48" height="48">
<defs>
<defs
     id="defs13">
  </defs>
  <path
     id="path-main"
     d="m 2.00003,33.872923 1.1612,0 c 0.0837,1.3409 0.52306,2.2757 1.31812,2.8045 0.79505,0.5288 2.06086,0.7932 3.79743,0.7932 l 8.56776,0 -0.0628,-1.898 c -3.32668,-0.6043 -6.36044,-2.2757 -9.10128,-5.0141 -2.74085,-2.7384 -4.11127,-6.1944 -4.11127,-10.3681 0,-4.6269 1.90394,-8.574 5.71184,-11.8411004 3.80789,-3.2672 8.7979,-4.9008 14.97004,-4.9008 5.96291,0 10.83785,1.5392 14.62482,4.6175 3.78697,3.0783004 5.68046,7.0348004 5.68046,11.8695004 0,3.9092 -1.17166,7.2236 -3.51498,9.9431 -2.34332,2.7195 -5.534,4.6175 -9.57204,5.694 l -0.31384,1.898 8.72468,0 c 1.98764,0 3.29529,-0.34 3.92297,-1.0198 0.62767,-0.6799 0.97289,-1.5392 1.03566,-2.5779 l 1.1612,0 0,8.8667 -17.57489,0 0.81597,-8.5551 c 5.39801,-1.5297 8.09701,-6.0339 8.09701,-13.5125 0,-4.8913 -1.31812,-8.6401 -3.95435,-11.2463004 -2.63624,-2.6062 -5.74323,-3.9092 -9.32097,-3.9092 -3.78697,0 -6.91489,1.3786 -9.38374,4.1359 -2.46885,2.7572004 -3.71374,6.2982004 -3.73466,10.6230004 0,3.1161 0.55444,5.9489 1.66333,8.4984 1.1089,2.5496 3.23253,4.3531 6.3709,5.4107 l 0.59629,8.5551 -17.57489,0 0,-8.8667 z" />
</defs>
<acyl-settings>
<linearGradient
     id="linearGradient4321">
    <stop
       style="stop-color:#FFFFFF;stop-opacity:1.0;"
       offset="1.0"
       id="stop1" />
  </linearGradient>
<linearGradient
     inkscape:collect="always"
     xlink:href="#linearGradient4321"
     id="acyl_gradient"
     x1="50.0%"
     y1="0.0%"
     x2="50.0%"
     y2="100.0%" />
<filter>
    </filter>
<use id="1" style="fill:url(#acyl_gradient);filter:url(#filter1111)" xlink:href="#path-main" />
</acyl-settings>
</svg>
