<svg xmlns="http://www.w3.org/2000/svg" width="48" height="48">
<defs>
<defs
     id="defs3">
  </defs>
  <g
     id="layer6" />
  <path
     id="path-main"
     d="m 16.535959,2.0186666 c -0.48195,-0.046032 -0.956535,-0.00614 -1.414935,0.1109603 -0.916801,0.234205 -1.812262,0.7904702 -2.333726,1.6089249 -0.521464,0.8184548 -0.645302,1.7597364 -0.588026,2.6260615 0.114554,1.7326504 0.86146,3.4427574 1.947835,5.3630837 0.603202,1.066249 1.339052,2.19674 2.149967,3.347303 -0.449286,3.083346 -1.097365,6.393366 -2.058088,9.819991 -0.962235,3.43202 -2.142259,6.619292 -3.362771,9.487109 -1.2823872,0.552024 -2.5015796,1.112332 -3.5649036,1.701391 -1.9235395,1.065601 -3.4493662,2.133893 -4.4469419,3.550732 -0.4987878,0.708419 -0.8831191,1.580028 -0.8636622,2.552088 0.019457,0.972058 0.4977369,1.907123 1.157675,2.589074 0.6599381,0.681952 1.5892083,1.175301 2.5542351,1.220564 0.9650267,0.04527 1.8190089,-0.29364 2.5358594,-0.776723 1.4337006,-0.966166 2.5474942,-2.494414 3.6567832,-4.401426 0.61168,-1.051558 1.201598,-2.241845 1.782452,-3.513744 2.881233,-1.152378 6.065121,-2.266334 9.500285,-3.143876 3.436499,-0.877885 6.770016,-1.442345 9.849425,-1.812353 1.113934,0.839674 2.197606,1.606703 3.23414,2.2377 1.878738,1.143694 3.574224,1.965705 5.292227,2.12674 0.859003,0.08052 1.782616,-0.03332 2.609364,-0.536308 0.826746,-0.502988 1.415334,-1.377024 1.672196,-2.293181 0.256863,-0.916156 0.204678,-1.984264 -0.238885,-2.847982 -0.443563,-0.863718 -1.173706,-1.42911 -1.947834,-1.812352 -1.548254,-0.766484 -3.408953,-0.966837 -5.604616,-0.980149 -1.21705,-0.0073 -2.539511,0.07239 -3.93242,0.203426 -2.432759,-1.935241 -4.968863,-4.157264 -7.442196,-6.7131 -2.471497,-2.553937 -4.610987,-5.177679 -6.46828,-7.674757 0.165768,-1.391638 0.269281,-2.737937 0.294013,-3.957586 0.0448,-2.2092949 -0.106483,-4.0811035 -0.82691,-5.6589773 C 19.318006,3.6523638 18.760348,2.8945928 17.914144,2.4255212 17.491042,2.1909853 17.017911,2.0646988 16.535959,2.0186666 z M 16.150068,5.643371 c -0.03084,-0.017094 0.08043,0.026083 0.22051,0.332881 0.21117,0.4625052 0.356485,1.5356853 0.422643,2.8109957 -0.544375,-1.1499311 -0.922022,-2.1745555 -0.955542,-2.6815419 -0.02227,-0.3368927 0.03738,-0.4181867 0.01838,-0.3883611 -0.019,0.029825 -0.07756,0.043566 0.165382,-0.018493 0.242934,-0.062059 0.159467,-0.038386 0.12863,-0.05548 z m 3.215764,13.333735 c 1.470731,1.780466 3.003671,3.569335 4.685827,5.307602 1.68361,1.739771 3.432462,3.354511 5.163598,4.882256 -2.266873,0.391563 -4.591473,0.827187 -6.927674,1.423991 -2.337187,0.597055 -4.583483,1.326972 -6.762292,2.071259 0.797507,-2.173629 1.568203,-4.412933 2.223471,-6.750087 0.655431,-2.337735 1.167943,-4.661925 1.61707,-6.935021 z m 19.919359,13.03784 c 1.255628,0.100957 2.304811,0.275772 2.75637,0.499322 0.301038,0.149033 0.346928,0.253396 0.330763,0.22192 -0.01617,-0.03148 0.01294,-0.09482 -0.05513,0.147947 -0.06806,0.242765 -0.06688,0.166277 -0.03675,0.147947 0.03013,-0.01833 -0.05184,0.03131 -0.385892,0 -0.501067,-0.04696 -1.486492,-0.442671 -2.609363,-1.017136 z M 8.0463431,39.985598 c -0.7191203,1.05312 -1.3987842,1.880406 -1.8192035,2.163726 -0.2787658,0.187859 -0.3843069,0.183284 -0.34914,0.184934 0.035167,0.0017 0.064616,0.06975 -0.1102548,-0.110961 -0.174871,-0.180704 -0.1109639,-0.146384 -0.1102547,-0.11096 7.091e-4,0.03543 -0.010209,-0.07589 0.1837579,-0.351375 0.2929236,-0.416034 1.1377121,-1.078678 2.2050951,-1.775364 z" />
  <g
     id="layer5"
     style="display:inline" />
</defs>
<acyl-settings>
<linearGradient
     id="linearGradient4321">
    <stop
       style="stop-color:#FFFFFF;stop-opacity:1.0;"
       offset="1.0"
       id="stop1" />
  </linearGradient>
<linearGradient
     inkscape:collect="always"
     xlink:href="#linearGradient4321"
     id="acyl_gradient"
     x1="50.0%"
     y1="0.0%"
     x2="50.0%"
     y2="100.0%" />
<filter>
    </filter>
<use id="1" style="fill:url(#acyl_gradient);filter:url(#filter1111)" xlink:href="#path-main" />
</acyl-settings>
</svg>
