<svg xmlns="http://www.w3.org/2000/svg" width="48" height="48">
<defs>
  <path
     d="m 10.155402,2.5 c -1.987508,0 -3.588776,1.564083 -3.66815,3.538654 l 5.377579,0 c 1.176088,0 2.118981,0.946357 2.118981,2.126767 l 0,3.431421 c 0,1.180409 -0.942893,2.126767 -2.118981,2.126767 l -5.395386,0 0,1.733582 5.395386,0 c 1.176088,0 2.118981,0.946358 2.118981,2.126768 l 0,3.413549 c 0,1.180409 -0.942893,2.126767 -2.118981,2.126767 l -5.395386,0 0,1.733582 5.395386,0 c 1.176088,0 2.118981,0.964231 2.118981,2.144639 l 0,3.395678 c 0,1.180408 -0.942893,2.126766 -2.118981,2.126766 l -5.395386,0 0,1.733583 5.395386,0 c 1.176088,0 2.118981,0.964229 2.118981,2.144647 l 0,3.41354 c 0,1.18041 -0.942893,2.12676 -2.118981,2.12676 l -5.377579,0 C 6.558992,43.92516 8.162829,45.5 10.155402,45.5 l 32.158639,0 C 44.352594,45.5 46,43.84654 46,41.80051 L 46,6.199502 C 46,4.153462 44.352594,2.5 42.314041,2.5 l -32.158639,0 z M 3.317685,7.504157 C 2.589633,7.504157 2,8.095955 2,8.826684 l 0,2.108895 c 0,0.730729 0.589633,1.322527 1.317685,1.322527 l 7.621206,0 c 0.728057,0 1.317685,-0.591798 1.317685,-1.322527 l 0,-2.108895 c 0,-0.730729 -0.589628,-1.322527 -1.317685,-1.322527 l -7.621206,0 z m 14.654795,4.467997 11.16471,0 c 0.474458,0 0.854715,0.381654 0.854715,0.857856 l 0,1.304654 c 0,0.476202 -0.380257,0.857856 -0.854715,0.857856 l -11.16471,0 c -0.474457,0 -0.854714,-0.381654 -0.854714,-0.857856 l 0,-1.304654 c 0,-0.476202 0.380257,-0.857856 0.854714,-0.857856 z M 3.317685,16.904822 C 2.589633,16.904822 2,17.496621 2,18.22735 l 0,2.108894 c 0,0.73073 0.589633,1.322527 1.317685,1.322527 l 7.621206,0 c 0.728057,0 1.317685,-0.591797 1.317685,-1.322527 l 0,-2.108894 c 0,-0.730729 -0.589628,-1.322528 -1.317685,-1.322528 l -7.621206,0 z m 14.654795,2.091023 21.652772,0 c 0.474458,0 0.854714,0.381654 0.854714,0.857856 l 0,1.286783 c 0,0.476201 -0.380256,0.857856 -0.854714,0.857856 l -21.652772,0 c -0.474457,0 -0.854714,-0.381655 -0.854714,-0.857856 l 0,-1.286783 c 0,-0.476202 0.380257,-0.857856 0.854714,-0.857856 z m 0,7.005819 21.652772,0 c 0.474458,0 0.854714,0.381655 0.854714,0.857856 l 0,1.286783 c 0,0.476202 -0.380256,0.857856 -0.854714,0.857856 l -21.652772,0 c -0.474457,0 -0.854714,-0.381654 -0.854714,-0.857856 l 0,-1.286783 c 0,-0.476201 0.380257,-0.857856 0.854714,-0.857856 z M 3.317685,26.32336 C 2.589633,26.32336 2,26.915158 2,27.645887 l 0,2.108895 c 0,0.73073 0.589633,1.322527 1.317685,1.322527 l 7.621206,0 c 0.728057,0 1.317685,-0.591797 1.317685,-1.322527 l 0,-2.108895 c 0,-0.730729 -0.589628,-1.322527 -1.317685,-1.322527 l -7.621206,0 z m 14.654795,6.684124 21.652772,0 c 0.474458,0 0.854714,0.381654 0.854714,0.857856 l 0,1.286783 c 0,0.4762 -0.380256,0.875727 -0.854714,0.875727 l -21.652772,0 c -0.474457,0 -0.854714,-0.399527 -0.854714,-0.875727 l 0,-1.286783 c 0,-0.476202 0.380257,-0.857856 0.854714,-0.857856 z M 3.317685,35.741898 C 2.589633,35.741898 2,36.31583 2,37.04655 l 0,2.1089 c 0,0.73073 0.589633,1.32252 1.317685,1.32252 l 7.621206,0 c 0.728057,0 1.317685,-0.59179 1.317685,-1.32252 l 0,-2.1089 c 0,-0.73072 -0.589628,-1.304652 -1.317685,-1.304652 l -7.621206,0 z"
     id="path-main"/>
</defs>
<acyl-settings>
<linearGradient
     id="linearGradient4321">
    <stop
       style="stop-color:#FFFFFF;stop-opacity:1.0;"
       offset="1.0"
       id="stop1" />
  </linearGradient>
<linearGradient
     inkscape:collect="always"
     xlink:href="#linearGradient4321"
     id="acyl_gradient"
     x1="50.0%"
     y1="0.0%"
     x2="50.0%"
     y2="100.0%" />
<filter>
    </filter>
<use id="1" style="fill:url(#acyl_gradient);filter:url(#filter1111)" xlink:href="#path-main" />
</acyl-settings>
</svg>
