<svg xmlns="http://www.w3.org/2000/svg" width="48" height="48">
<defs>
  <path
     d="m 20.490964,5.5532239 c -0.941039,0.02721 -2.023026,0.308169 -3.162555,0.826137 -1.956952,0.8895226 -6.388918,5.4685571 -7.228699,6.6090951 -0.0029,-0.168591 0.01291,-0.283985 0.01291,-0.283985 0,0 -1.1459225,1.635467 -1.9620755,2.723671 -0.816153,1.088204 -2.489369,3.435699 -3.033472,4.659928 -0.419816,0.944587 -0.599427,2.008689 -0.658327,2.452595 -0.380004,0.285112 -1.395659,1.047131 -2.000801,1.652274 -0.727037,0.727037 -0.02355,1.028441 0.619603,1.419923 0.643148,0.391481 0.765856,1.508229 0.542152,2.039525 -0.223703,0.531297 -0.793944,0.72735 -1.213389,1.678091 -0.419444,0.950742 -0.641002,2.220243 -0.02582,2.220243 0.615185,0 2.377415,0.189427 3.020563,0.748687 0.643148,0.559259 -0.144232,0.585232 -0.619603,0.864862 -0.475371,0.27963 -1.508166,1.398557 -1.703907,2.181517 -0.195741,0.78296 0.06034,1.23703 0.619602,1.09721 0.53626,-0.13406 2.052194,-0.0466 2.181518,-0.0387 0.204238,0.0579 0.401568,0.12694 0.555061,0.20653 0.558062,0.28937 1.151719,0.75971 1.458648,1.00686 0.03311,0.10982 0.09036,0.29108 0.09036,0.63251 0,0.50334 0.185073,0.8067 0.464702,0.38725 0.27963,-0.41944 0.864987,-0.80897 1.536099,-1.03267 0.6711105,-0.2237 1.5986185,-0.21293 2.2976925,0.0387 0.699075,0.25167 0.998364,0.18725 1.613549,0.6067 0.274526,0.18718 0.677136,0.28439 1.032671,0.33562 0.298899,0.11522 0.604677,0.20378 0.890679,0.27107 0.770811,0.18137 1.262748,0.5465 1.897533,1.13594 0.634786,0.58944 1.145924,1.08203 1.962076,1.71682 0.816155,0.63478 2.886605,0.96813 4.24686,0.96813 1.360256,0 2.816748,0.035 3.859609,-0.73578 1.042864,-0.77081 1.726153,-1.4425 2.72367,-2.34933 0.997522,-0.90684 1.862176,-1.23226 2.723671,-1.36829 0.369793,-0.0584 0.664109,-0.25381 0.955221,-0.51633 1.198252,-0.0258 1.488143,-0.20654 2.078251,-0.20654 0.63499,0 1.623096,-0.002 2.116976,0.24526 0.493875,0.24694 0.846825,0.49918 1.058486,0.85196 0.211664,0.35276 0.387252,0.17806 0.387252,-0.24526 0,-0.42333 0.427831,-1.09642 1.239205,-1.48447 0.811374,-0.38805 1.945809,-0.60581 2.439686,-0.4647 0.493881,0.14111 1.259012,0.42244 1.329564,-0.14199 0.07055,-0.56444 -0.322796,-1.4407 -0.851954,-2.18152 -0.529157,-0.740822 -1.048227,-0.927725 -1.471556,-1.174665 -0.423325,-0.24694 -0.24685,-0.543919 0.529244,-0.826137 0.776098,-0.282217 1.586137,-0.580877 2.362235,-0.580877 0.776098,0 0.697851,-0.771229 0.309802,-1.794267 -0.388049,-1.023038 -1.124798,-1.513816 -1.407015,-2.078251 -0.282217,-0.564434 -0.307149,-0.990584 0.116176,-1.484464 0.423325,-0.493881 0.979356,-1.063703 1.226297,-1.381198 0.24694,-0.317495 -0.215201,-0.412272 -0.567969,-0.80032 C 44.819803,23.672781 43.904088,23.088509 43.287178,22.463214 43.08299,21.795856 42.478716,19.890022 41.725263,18.345438 40.80443,16.457733 38.3175,13.511739 36.936252,11.762159 35.555009,10.012579 33.479886,8.5476015 31.592178,6.8440625 29.704475,5.1405239 26.530836,5.4120689 25.56396,6.0566509 24.597088,6.7012325 23.585579,6.6569159 22.388496,5.9662909 21.864775,5.6641449 21.222887,5.5320579 20.490964,5.5532239 z M 6.0593845,7.7863745 c -1.036482,0.02029 -0.724473,0.699674 -0.658328,1.923351 0.07056,1.3052535 0.636843,4.0800205 0.813229,4.7502865 0.176386,0.670266 0.377877,0.672918 0.942312,0.425977 0.564434,-0.24694 0.89333,-0.482826 1.316656,-0.80032 0.423326,-0.317495 0.137661,-0.671236 -0.03872,-0.671236 -0.176386,0 -0.469831,-0.07489 -0.258168,-0.180718 0.211663,-0.105831 0.323594,-0.183368 0.464702,-0.606694 0.141109,-0.423326 0.2892,-0.627382 0.606694,-0.839046 0.317495,-0.211662 -0.144643,-0.42686 -0.567969,-0.567969 -0.423326,-0.141108 -0.172851,-0.488838 0.567969,-0.735778 0.740821,-0.24694 0.8838695,-0.392466 1.3424725,-0.7099605 0.458603,-0.317495 0.385398,-0.628266 -0.425977,-0.981038 0,0 -2.5801695,-0.923392 -3.8854245,-0.993946 -0.08158,-0.0044 -0.150344,-0.01426 -0.219443,-0.01291 z m 35.7046055,0 c -0.0691,-0.0013 -0.150774,0.0085 -0.232351,0.01291 -1.305259,0.07055 -3.872515,0.993946 -3.872515,0.993946 -0.811375,0.352772 -0.884582,0.663543 -0.425977,0.981038 0.458605,0.3174945 0.601651,0.4630205 1.342472,0.7099605 0.740816,0.24694 0.991293,0.59467 0.567968,0.735778 -0.423325,0.141109 -0.885462,0.356307 -0.567968,0.567969 0.317491,0.211664 0.452676,0.41572 0.593785,0.839046 0.141108,0.423326 0.240133,0.500863 0.451793,0.606694 0.211665,0.105832 -0.06887,0.180718 -0.245259,0.180718 -0.176384,0 -0.449171,0.353741 -0.02582,0.671236 0.423325,0.317494 0.739314,0.55338 1.303748,0.80032 0.564433,0.246941 0.765924,0.244289 0.942312,-0.425977 0.176384,-0.670266 0.755581,-3.445033 0.826137,-4.7502865 0.06614,-1.223677 0.378152,-1.903068 -0.658328,-1.923351 z M 17.741477,17.751652 c 0.653862,-0.0111 1.21686,0.262709 1.936259,1.097213 1.151042,1.335206 1.003406,2.548495 1.187572,3.975784 0.184168,1.427289 0.236639,1.554599 0.697053,1.600641 0.460417,0.04604 0.501656,-0.228903 1.974984,-0.413069 l 1.110121,0 c 0.736666,0 0.874742,0.461254 1.381198,0.64542 0.506459,0.184166 0.684145,-0.09078 0.684145,-0.413069 0,-0.322291 0.08864,-0.698309 0.180717,-1.665182 0.09209,-0.966874 0.557625,-2.481391 1.110122,-3.356182 0.5525,-0.87479 1.106206,-1.381197 2.349327,-1.381197 1.243124,0 2.080395,0.647562 2.310602,0.87777 0.23021,0.230208 0.641134,0.64542 0.180717,0.64542 -0.460414,0 -1.064917,-0.05163 -1.755541,-0.05163 -0.690624,0 -0.818401,0.503427 -0.542152,0.503427 0.276252,0 0.769751,0.193626 1.368289,0.193626 0.598542,0 0.969437,0.228902 0.555061,0.413069 -0.414373,0.184166 -1.378634,0.464702 -0.826137,0.464702 0.5525,0 1.328676,0.323128 2.065342,0.645419 0.736666,0.322292 2.039526,1.561915 2.039526,1.561915 0,0 0.358822,-0.640664 1.187572,-1.239205 0.828752,-0.598541 1.796359,-0.833035 3.407813,-0.464702 1.060141,0.242318 1.996183,0.743066 2.542953,1.071396 0.270234,0.28497 0.613089,0.629046 0.955221,0.890679 0.599714,0.458603 1.066266,0.782284 1.277931,0.993946 0.21166,0.211664 0.419847,0.321913 -0.03871,0.709962 -0.458605,0.388049 -0.981207,0.69714 -2.039526,1.226297 -1.058314,0.529158 -1.947568,0.873525 -2.72367,1.226297 -0.776094,0.352772 -0.381948,0.507759 0.464702,0.684145 0.846654,0.176386 2.3701,0.173024 3.110922,0.490519 0.740822,0.317494 1.015517,0.324563 1.36829,1.135938 0.352768,0.811375 0.313163,0.97759 -0.180718,0.942312 -0.493881,-0.03528 -1.930418,-0.173735 -3.059288,0.425977 -1.128867,0.599713 -1.801252,0.85204 -2.400961,1.381198 -0.599713,0.529157 -0.209806,1.057604 0.813229,0.916496 1.023042,-0.141109 2.081782,-0.149686 2.64622,0.167809 0.564433,0.317494 0.666106,0.523314 0.87777,1.123024 0.211665,0.59971 0.46108,0.89059 -0.632511,0.36144 -1.093595,-0.52916 -2.081783,-0.4518 -2.64622,-0.4518 -0.564433,0 -1.231514,0.23934 -1.549007,0.83905 -0.317494,0.59971 0.174703,0.42694 0.24526,1.09721 0.07055,0.67027 0.103267,0.94753 0.103267,1.26502 0,0.3175 -0.06976,0.38549 -0.387252,0.10327 -0.317491,-0.28222 -0.778921,-0.77194 -1.484463,-0.87777 -0.705546,-0.10583 -1.204899,-0.10237 -1.910442,0.0387 -0.345759,0.0692 -0.748188,0.1111 -1.071396,0.12908 0.24444,-0.27575 0.493317,-0.58972 0.787411,-0.9165 0.816156,-0.90683 2.129885,-2.44544 2.129885,-4.440478 0,-1.995042 -0.90663,-3.136532 -1.858808,-4.995548 -0.952199,-1.859015 -1.772161,-2.888229 -2.542974,-3.795066 -0.578105,-0.680128 -1.301699,-0.990008 -2.013709,-1.019763 -0.237334,-0.0099 -0.483253,0.0192 -0.709961,0.06454 -0.906835,0.181367 -1.772789,0.900988 -2.362236,1.626457 -0.589443,0.725469 -1.355381,1.265022 -1.355381,1.265022 l 1.729725,1.497373 c 0,0 -0.32271,-0.72092 -0.32271,-1.265022 0,-0.544102 0.230727,-1.450731 0.684144,-1.858808 0.453421,-0.408077 1.177707,-1.000888 2.129885,-0.864862 0.952181,0.136025 1.528184,0.410794 1.936258,1.045579 0.408078,0.634786 0.859872,1.416349 0.451794,2.413869 -0.408074,0.997521 -0.991347,1.626133 -1.716816,1.716816 -0.725469,0.09068 -0.993946,0.271077 -0.993946,0.271077 0,0 0.863239,0.35916 1.316656,0.993946 0.453421,0.634785 1.360699,1.232707 1.678091,3.04638 0.317395,1.813668 0.452121,1.588824 0.361435,3.085108 -0.09068,1.49628 -1.266439,1.71421 -2.672037,2.43968 -1.405595,0.72547 -2.413869,0.85195 -2.413869,0.85195 0,0 0.374343,-0.35286 0.374343,-0.94231 0,-0.58944 -0.77825,-1.09182 -1.497373,-1.18757 -0.986048,-0.13128 -1.561402,0.83652 -1.987892,1.43283 -0.43239,0.60456 -1.069538,0.86336 -1.711674,1.05594 -1.539631,0.46173 -4.819972,0.14454 -4.819972,0.14454 -0.989937,-0.0944 -2.078211,-0.46514 -3.330365,-1.13594 -1.269571,-0.68014 -2.567673,-1.30862 -2.826937,-2.58167 -0.240335,-1.18011 0.286843,-2.691506 0.580877,-3.691802 0.435969,-1.483153 2.801121,-3.872517 2.801121,-3.872517 0,0 -0.946654,0.04295 -1.536098,-1.135939 -0.589444,-1.178888 -0.415344,-2.081618 0.219442,-2.943113 0.634786,-0.861495 1.275332,-1.006854 2.000801,-1.006854 0.725469,0 1.586107,0.313493 2.039526,1.084305 0.453419,0.770811 0.503427,2.091159 0.503427,2.091159 l 1.265022,-1.174664 c 0,0 -0.45646,0.08634 -0.955221,-0.593786 -0.49876,-0.680128 -0.996013,-1.490431 -2.220243,-1.626457 -1.22423,-0.136025 -1.900576,-0.0026 -2.852754,0.72287 -0.952179,0.725469 -2.817721,3.576392 -3.588533,5.163356 -0.770811,1.586965 -1.033321,3.182523 -0.851954,4.81483 0.181368,1.632302 0.946005,2.216992 1.716816,3.123832 0.464432,0.54639 0.490725,0.66816 0.619603,0.83904 -0.288904,-0.0525 -0.686827,-0.11617 -1.226297,-0.11617 -1.146482,0 -1.480297,-0.0559 -2.2073345,0.33561 -0.727037,0.39149 -1.045579,0.83905 -1.045579,0.83905 l -0.193626,-0.34853 c -0.150822,-0.45354 -0.219335,-1.0143 -0.09036,-1.43283 0.293073,-0.95102 1.097213,-1.31665 1.097213,-1.31665 0,0 -0.581158,-0.19792 -2.091159,-0.142 -1.124434,0.0417 -2.230671,0.71528 -2.72367,1.05849 -0.308259,-0.11208 -0.616531,-0.37003 -0.555061,-0.80032 0.08389,-0.58722 0.368061,-1.03706 1.290839,-1.484461 0.922778,-0.447408 1.428695,-0.195803 2.32351,-0.335619 0.894816,-0.139814 0.843275,-0.707877 0.451794,-1.071396 -0.391482,-0.363519 -0.875781,-0.74231 -1.742633,-1.161755 -0.866853,-0.419445 -2.127894,-0.318417 -2.994746,-0.374343 -0.866853,-0.05593 -0.774473,-0.129209 -0.606695,-0.800321 0.167778,-0.671111 0.978985,-1.572739 1.510282,-1.936258 0.531297,-0.363519 1.366299,-0.453971 2.233151,-0.593786 0.866853,-0.139815 0.810958,-0.746572 0.167809,-0.942313 -0.643148,-0.19574 -2.263354,-0.314156 -2.710762,-0.593786 -0.447407,-0.27963 -1.172517,-0.583117 -1.20048,-1.058488 -0.02796,-0.47537 0.520753,-0.759542 1.135939,-1.290839 0.386843,-0.334091 0.680342,-0.577788 0.890678,-0.748686 0.04802,-0.02627 0.471989,-0.253112 1.678091,-0.942313 1.269572,-0.725469 3.494924,-0.673511 4.4017605,-0.03872 0.906837,0.634786 1.678091,1.355381 1.678091,1.355381 l 1.729724,-1.549007 c 0,0 -0.08922,-0.109992 -0.103267,-0.129084 0.57951,-0.253387 1.198271,-0.193626 1.626457,-0.193626 0.5525,0 0.816678,-0.284403 0.632512,-0.606694 -0.184167,-0.322291 -0.72287,-0.593786 -0.72287,-0.593786 0,0 0.869567,-0.101542 1.652274,-0.193626 0.782707,-0.09208 0.314556,-0.498253 -0.283985,-0.774503 -0.59854,-0.27625 -2.116976,0.09036 -2.116976,0.09036 0,0 0.335568,-0.695748 1.716816,-1.110122 0.517968,-0.155391 0.937247,-0.264417 1.329564,-0.271076 z m -0.542152,5.511883 c -1.064268,0 -1.92335,0.87199 -1.92335,1.936258 0,1.064269 0.859082,1.92335 1.92335,1.92335 1.064268,0 1.92335,-0.859081 1.92335,-1.92335 0,-1.064268 -0.859082,-1.936258 -1.92335,-1.936258 z m 13.605443,0 c -1.064266,0 -1.936258,0.87199 -1.936258,1.936258 0,1.064269 0.871992,1.92335 1.936258,1.92335 1.064271,0 1.923351,-0.859081 1.923351,-1.92335 0,-1.064268 -0.85908,-1.936258 -1.923351,-1.936258 z m -14.095962,0.542152 c 0.388145,0 0.697053,0.308908 0.697053,0.697053 0,0.388145 -0.308908,0.709961 -0.697053,0.709961 -0.388145,0 -0.709961,-0.321816 -0.709961,-0.709961 0,-0.388145 0.321816,-0.697053 0.709961,-0.697053 z m 13.592535,0 c 0.388148,0 0.697053,0.308908 0.697053,0.697053 0,0.388145 -0.308905,0.709961 -0.697053,0.709961 -0.388144,0 -0.709961,-0.321816 -0.709961,-0.709961 0,-0.388145 0.321817,-0.697053 0.709961,-0.697053 z m -12.469505,1.716816 c 0.31302,0 0.567969,0.267857 0.567969,0.580877 0,0.31302 -0.254949,0.56797 -0.567969,0.56797 -0.31302,0 -0.567969,-0.25495 -0.567969,-0.56797 0,-0.31302 0.254949,-0.580877 0.567969,-0.580877 z m 13.605443,0 c 0.31302,0 0.56797,0.267857 0.56797,0.580877 0,0.31302 -0.25495,0.56797 -0.56797,0.56797 -0.313019,0 -0.567969,-0.25495 -0.567969,-0.56797 0,-0.31302 0.25495,-0.580877 0.567969,-0.580877 z m -7.512683,3.020563 c -0.435427,-0.01079 -0.889052,0.103865 -1.342472,0.387252 -1.949699,1.224229 -2.504228,2.900488 -2.504228,3.988693 0,1.088206 0.77787,1.539466 1.639366,2.400956 0.861494,0.8615 2.706538,1.31362 3.885425,0.36144 1.17889,-0.95218 2.31722,-1.991585 2.271877,-2.762396 -0.04534,-0.770812 -0.674603,-2.132927 -1.536099,-3.085106 -0.592277,-0.654622 -1.455922,-1.267094 -2.413869,-1.290839 z m 4.634112,10.391251 c 0.171159,0.005 0.271077,0.0645 0.271077,0.0645 0,0 -1.805224,1.63742 -2.349327,2.18152 -0.5441,0.5441 -2.720096,0.58782 -3.717617,0.4518 -0.997517,-0.13603 -1.417323,-0.46211 -2.142793,-1.18758 -0.295219,-0.29522 -0.637449,-0.6586 -0.968129,-1.01976 0,0 2.622875,-0.10886 3.320045,0.14455 1.216837,0.4423 1.917093,0.58276 2.772715,0.48796 0.722567,-0.0791 1.585785,-0.46969 2.129885,-0.87777 0.272052,-0.20404 0.512985,-0.25058 0.684144,-0.24526 z"
     id="path-main"
      />
</defs>
<acyl-settings>
<linearGradient
     id="linearGradient4321">
    <stop
       style="stop-color:#FFFFFF;stop-opacity:1.0;"
       offset="1.0"
       id="stop1" />
  </linearGradient>
<linearGradient
     inkscape:collect="always"
     xlink:href="#linearGradient4321"
     id="acyl_gradient"
     x1="50.0%"
     y1="0.0%"
     x2="50.0%"
     y2="100.0%" />
<filter>
    </filter>
<use id="1" style="fill:url(#acyl_gradient);filter:url(#filter1111)" xlink:href="#path-main" />
</acyl-settings>
</svg>
