<svg xmlns="http://www.w3.org/2000/svg" width="48" height="48">
<defs>
    <path
         d="M 37.84375 1.5625 C 32.937667 1.5625 29.926498 5.1974996 28.9375 8.75 C 28.443001 10.52625 28.416155 12.31354 28.90625 13.78125 C 29.396345 15.24896 30.61967 16.4375 32.28125 16.4375 C 33.942709 16.4375 35.582624 15.48396 37.125 14.1875 C 38.667376 12.89104 40.09201 11.203617 41.09375 9.46875 C 42.09549 7.7338829 42.728692 5.9559671 42.34375 4.3125 C 42.151279 3.4907665 41.629001 2.7294453 40.84375 2.25 C 40.058499 1.7705547 39.070311 1.5625 37.84375 1.5625 z M 24.125 3.5625 C 23.940673 3.5575955 23.755554 3.5702789 23.5625 3.59375 C 22.04759 3.7779966 20.907689 4.6091831 20.28125 5.6875 C 19.654811 6.7658169 19.475654 8.0365166 19.5625 9.25 C 19.649346 10.463483 20.008218 11.642553 20.5625 12.59375 C 21.116782 13.544947 21.921418 14.372232 23.0625 14.4375 C 24.308222 14.508783 25.18784 13.604822 25.84375 12.59375 C 26.49966 11.582678 26.978531 10.290367 27.21875 9 C 27.458969 7.7096334 27.470563 6.3998619 26.9375 5.28125 C 26.47107 4.3024646 25.415287 3.5968318 24.125 3.5625 z M 15 6.5625 C 14.679697 6.5968233 14.347062 6.6876221 14.03125 6.8125 C 12.761729 7.3145115 11.968151 8.3431338 11.6875 9.4375 C 11.406849 10.531866 11.57594 11.656406 11.9375 12.6875 C 12.29906 13.718594 12.8628 14.66803 13.5625 15.375 C 14.2622 16.08197 15.157389 16.645352 16.21875 16.4375 C 17.244742 16.23705 17.764385 15.361298 18.09375 14.5 C 18.423115 13.638702 18.590593 12.65157 18.59375 11.625 C 18.596907 10.59843 18.442591 9.5368008 18.0625 8.625 C 17.682409 7.7131992 16.99497 6.8803552 15.9375 6.625 C 15.628274 6.5503288 15.320303 6.5281767 15 6.5625 z M 8.84375 11.96875 C 8.2326827 11.94736 7.647776 12.187005 7.125 12.5625 C 6.0807177 13.313036 5.5564729 14.445414 5.53125 15.53125 C 5.5060271 16.617086 5.8804909 17.654222 6.40625 18.5625 C 6.9320091 19.470778 7.6368772 20.239284 8.40625 20.78125 C 9.1756228 21.323216 10.130388 21.72215 11.09375 21.28125 C 12.032054 20.851632 12.291902 19.942072 12.40625 19.0625 C 12.520598 18.182928 12.454069 17.191707 12.25 16.21875 C 12.045931 15.245793 11.705034 14.291412 11.1875 13.5 C 10.669966 12.708588 9.8932255 12.005487 8.84375 11.96875 z M 27.5 16.53125 C 23.819995 16.47058 19.677609 17.333022 16.125 19.125 C 12.575638 20.91534 9.6229376 23.691517 8.75 27.5 C 7.7853218 31.705708 9.7015374 36.342237 12.96875 40.03125 C 16.227435 43.710634 20.862972 46.46875 25.8125 46.46875 C 28.382906 46.46875 30.92027 45.338258 33.03125 43.625 C 35.14223 41.911742 36.863141 39.554721 37.40625 36.75 C 37.506953 36.230764 37.385929 35.320108 37.125 34.875 C 36.710187 34.167389 36.230739 33.972714 35.8125 33.78125 C 34.667559 33.257114 33.611559 33.220831 32.34375 33.34375 C 31.123915 33.462018 29.972434 33.734345 28.9375 34.28125 C 28.377274 34.577298 27.999772 34.859812 27.65625 35.28125 C 27.591088 35.361192 27.542063 35.425289 27.46875 35.53125 C 27.432093 35.58423 27.416414 35.613815 27.3125 35.84375 C 27.208586 36.073685 27.156227 36.90608 27.15625 36.90625 C 27.312258 38.066982 26.855887 38.77254 26.3125 39.0625 C 25.738196 39.368957 24.856757 39.360283 23.78125 38.5625 C 22.826143 37.854054 22.433064 37.302635 22.3125 36.875 C 22.217663 36.53862 22.292508 36.128317 22.59375 35.6875 C 23.323696 34.619346 25.124686 33.442183 27.3125 32.125 C 29.481924 30.818889 31.855077 29.433407 33.71875 27.75 C 34.631518 26.925521 35.425376 26.05557 35.96875 25 C 36.512124 23.94443 36.747141 22.656052 36.53125 21.40625 C 36.248228 19.767843 34.958131 18.46276 33.375 17.71875 C 31.757017 16.958361 29.730697 16.568026 27.5 16.53125 z "
       id="path-main" />
</defs>
<acyl-settings>
<linearGradient
     id="linearGradient4321">
    <stop
       style="stop-color:#FFFFFF;stop-opacity:1.0;"
       offset="1.0"
       id="stop1" />
  </linearGradient>
<linearGradient
     inkscape:collect="always"
     xlink:href="#linearGradient4321"
     id="acyl_gradient"
     x1="50.0%"
     y1="0.0%"
     x2="50.0%"
     y2="100.0%" />
<filter>
    </filter>
<use id="1" style="fill:url(#acyl_gradient);filter:url(#filter1111)" xlink:href="#path-main" />
</acyl-settings>
</svg>
