<svg xmlns="http://www.w3.org/2000/svg" width="48" height="48">
<defs>
<defs
     id="defs4">
  </defs>
  <path
     id="path-main"
     d="m 25.148682,45.444784 c -0.91498,-0.82961 -2.440964,-1.794842 -2.83755,-1.794842 -0.192216,0 -0.985985,0.315398 -1.763905,0.700893 -1.218818,0.603964 -1.42802,0.668369 -1.512655,0.465648 -0.210843,-0.505074 -0.685227,-3.907768 -0.560753,-4.022195 0.07324,-0.06728 0.529788,0.06059 1.030498,0.288603 0.494478,0.225188 1.360617,0.586465 1.924734,0.802844 l 1.025686,0.393406 0.581597,-0.268904 c 0.319889,-0.147895 1.08295,-0.513086 1.695695,-0.811553 0.612746,-0.298457 1.138638,-0.518045 1.168649,-0.487969 0.02998,0.03007 0.104427,1.241909 0.165367,2.692983 0.125116,2.978653 0.122678,2.98407 -0.917363,2.041086 z m 2.309431,-1.618457 c -0.04941,-0.04537 -0.08983,-0.292187 -0.08983,-0.548368 0,-0.329982 0.100421,-0.524095 0.344428,-0.665766 0.685612,-0.398071 6.149173,-1.951812 6.926625,-1.969797 l 0.765371,-0.01769 -0.02438,0.472689 c -0.01338,0.259985 -0.0891,0.532207 -0.168264,0.604945 -0.07911,0.07278 -1.480269,0.503231 -3.113641,0.956669 -4.392115,1.219258 -4.542605,1.257126 -4.640275,1.167338 z m -5.556328,-2.805091 c -0.429614,-0.602626 -0.468847,-2.375239 -0.06857,-3.096499 l 0.312061,-0.562293 -0.717887,-0.152579 c -2.460571,-0.522967 -5.13787,-1.825074 -6.19816,-3.014503 -0.917079,-1.028757 -1.234621,-1.840373 -1.228113,-3.138905 0.0082,-1.613754 0.602644,-2.953132 2.025164,-4.56224 0.899186,-1.017151 2.691553,-2.332036 3.944306,-2.893558 1.245502,-0.558268 3.966507,-1.254275 5.545566,-1.418486 0.524223,-0.05454 0.897077,-0.147144 0.828584,-0.20582 -0.06847,-0.05867 -0.624167,-0.27037 -1.234814,-0.470424 C 23.652508,21.028456 21.283613,20.100432 19.944134,19.482186 18.335641,18.739787 17.183043,17.972061 15.677097,16.63998 12.210512,13.573611 10.137957,10.43148 9.3154134,6.9951725 9.1391109,6.2586309 8.7042443,3.4999965 8.7560085,3.4465182 c 0.0165,-0.01705 1.5274415,0.7428299 3.3577125,1.6885088 3.522951,1.8202888 5.5342,3.10694 7.906945,5.058312 1.970237,1.620346 3.363195,3.138254 7.153565,7.795286 l 3.221413,3.958001 0.07819,-3.395158 c 0.06288,-2.731346 0.138545,-3.628991 0.386879,-4.591189 0.897288,-3.476466 2.608228,-6.3473925 5.39703,-9.0561144 1.236097,-1.2005764 3.327233,-2.9041644 3.56487,-2.9041644 0.153734,0 0.114216,5.0454422 -0.05894,7.5303508 -0.418742,6.008235 -1.870238,9.806131 -4.966994,12.996378 -0.465401,0.479444 -0.843654,0.916804 -0.840601,0.971932 0.0027,0.05509 0.350533,0.511775 0.772135,1.014824 1.008966,1.20383 1.928694,2.954306 2.227857,4.240178 0.442292,1.901111 0.05775,6.295491 -0.717658,8.200461 -0.400363,0.983657 -0.852078,1.328039 -2.964609,2.260161 -1.659341,0.73216 -5.341269,2.043589 -5.737517,2.043589 -0.156786,0 -0.176485,-0.242523 -0.09139,-1.125667 0.100485,-1.043561 0.08736,-1.125676 -0.179621,-1.125676 -0.158418,0 -0.423903,0.08424 -0.589967,0.187266 -0.166063,0.102988 -1.246419,0.642721 -2.400795,1.199385 l -2.098846,1.012128 -0.273799,-0.384074 z m -0.12815,-12.204222 c 0.663657,-0.254879 0.849319,-0.586979 0.849319,-1.519137 0,-0.930233 -0.277328,-1.321429 -1.07712,-1.519402 -1.352092,-0.334666 -2.29052,0.293416 -2.29052,1.533033 0,0.823533 0.239488,1.269519 0.802477,1.494441 0.640237,0.255778 1.071492,0.258555 1.715844,0.01109 z" />
</defs>
<acyl-settings>
<linearGradient
     id="linearGradient4321">
    <stop
       style="stop-color:#FFFFFF;stop-opacity:1.0;"
       offset="1.0"
       id="stop1" />
  </linearGradient>
<linearGradient
     inkscape:collect="always"
     xlink:href="#linearGradient4321"
     id="acyl_gradient"
     x1="50.0%"
     y1="0.0%"
     x2="50.0%"
     y2="100.0%" />
<filter>
    </filter>
<use id="1" style="fill:url(#acyl_gradient);filter:url(#filter1111)" xlink:href="#path-main" />
</acyl-settings>
</svg>
