<svg xmlns="http://www.w3.org/2000/svg" width="48" height="48">
<defs>
<defs
     id="defs2508" />
  <path
     d="M 23.994185,2 C 11.849783,2 2,11.861911 2,24.00598 2,36.150049 11.849784,46 23.994185,46 36.138586,46 46,36.150048 46,24.00598 46,11.861911 36.138586,2 23.994185,2 z m 0,5.4656157 c 9.058454,0 16.411313,7.3578313 16.411313,16.4207663 0,6.28741 -3.543304,11.758634 -8.734866,14.519163 0.0054,0.02775 0.0068,0.05587 0.01163,0.08372 -2.294801,1.212293 -4.91415,1.901604 -7.688078,1.901604 -3.480339,0 -6.7012,-1.086188 -9.36294,-2.930144 0.0092,-0.02088 0.02536,-0.03901 0.03489,-0.0598 -4.278427,-2.966689 -7.083269,-7.917195 -7.083267,-13.514542 0,-9.062935 7.35286,-16.4207667 16.411314,-16.4207663 z m 0,1.1361783 c -8.431028,0 -15.271475,6.849388 -15.271478,15.284588 0,3.319102 1.062079,6.392015 2.861221,8.89807 0.02739,-0.01467 0.06171,-0.03511 0.09305,-0.04784 l 1.023526,-0.813264 0.290775,-0.56211 0.06979,-0.430551 -0.849062,-0.645828 -1.07005,-1.136178 -1.349194,-1.207937 -0.06979,-0.705627 1.488766,-0.717586 1.709754,-0.920902 1.488765,-1.423213 0.488502,-0.502311 1.709754,-0.346833 0.500132,-0.215276 3.407877,-2.977983 0.581549,-0.287035 2.686757,-0.143517 3.55908,-2.702908 3.047317,-2.272357 0.639704,-0.430552 0.569918,0.07176 1.07005,1.782006 -0.06979,0.920902 -1.139836,2.284317 -0.988633,2.128839 0,0.849144 2.407613,0 1.058419,-0.717586 0.639704,0.287034 0.220989,1.351454 -0.430347,0.358793 -1.07005,0.275075 -1.267777,0.645828 -1.139836,0.920902 -1.209622,1.004621 -0.779276,0.920902 -0.430346,0.920903 -0.209358,0.992661 -0.08142,0.992661 -0.267513,1.925523 -0.06979,2.009242 c 1.60227,0.735562 2.837333,1.817564 3.454401,3.097581 4.746828,-2.592442 7.967222,-7.641315 7.967222,-13.430824 0,-8.4352 -6.840445,-15.2845884 -15.271477,-15.2845876 z m -1.477135,12.808915 -0.500132,0.07176 -1.139836,0.980701 -0.790907,1.07638 -0.36056,1.136178 0,0.849144 0.72112,-0.645828 0.651335,-0.705626 0.918848,-0.705627 0.767645,-0.430552 0.290774,-0.346833 0.500132,-0.50231 -0.08142,-0.777386 -0.977002,0 z"
     id="path-main"
      />
</defs>
<acyl-settings>
<linearGradient
     id="linearGradient4321">
    <stop
       style="stop-color:#FFFFFF;stop-opacity:1.0;"
       offset="1.0"
       id="stop1" />
  </linearGradient>
<linearGradient
     inkscape:collect="always"
     xlink:href="#linearGradient4321"
     id="acyl_gradient"
     x1="50.0%"
     y1="0.0%"
     x2="50.0%"
     y2="100.0%" />
<filter>
    </filter>
<use id="1" style="fill:url(#acyl_gradient);filter:url(#filter1111)" xlink:href="#path-main" />
</acyl-settings>
</svg>
