<svg xmlns="http://www.w3.org/2000/svg" width="48" height="48">
<defs>
<defs
     id="defs5">
  </defs>
  <path
     d="m 23.512638,2.000005 c -0.420199,0 -0.737703,0.2049568 -0.947486,0.4013623 -0.209783,0.1964054 -0.353802,0.4223392 -0.488098,0.6593808 -0.268592,0.4740833 -0.501408,1.0288538 -0.689081,1.6914554 -0.375345,1.3252033 -0.629471,3.0016994 -0.631657,4.5869974 -7.39e-4,0.535699 0.0072,0.9507111 0.02871,1.2900931 0.02151,0.339382 -0.05981,0.59036 0.344539,1.060743 0.202178,0.235192 0.656814,0.412403 0.947487,0.372694 0.290672,-0.03971 0.443586,-0.142004 0.574233,-0.22935 0.261295,-0.174693 0.459705,-0.360165 0.717793,-0.602043 0.355403,-0.333083 0.899458,-0.468489 1.292026,-0.401363 0.196283,0.03356 0.347596,0.121655 0.401963,0.172013 0.05437,0.05036 0.05743,0.03365 0.05743,0.114675 0,0.324526 0.08129,0.624351 0.229694,0.917399 -0.06341,-0.02643 -0.13979,-0.09125 -0.200982,-0.114675 -0.242984,-0.09302 -0.446676,-0.162196 -0.68908,-0.200681 -0.121202,-0.01924 -0.259792,-0.01896 -0.430675,0 -0.170885,0.01896 -0.423999,0.07057 -0.660369,0.315356 -0.388028,0.401835 -0.32444,0.938448 -0.229694,1.232756 0.09474,0.294307 0.236448,0.51211 0.401963,0.745387 0.33103,0.466552 0.783275,0.968197 1.292027,1.433436 0.508751,0.465239 1.065977,0.88663 1.607854,1.232756 0.541878,0.346126 0.982752,0.659381 1.69399,0.659381 -0.102326,0 0.24096,0.06688 0.803927,0.716718 0.562969,0.649836 1.315393,1.76965 2.296936,3.354242 1.416297,2.286459 2.993329,4.285383 4.450312,5.762416 0.728491,0.738516 1.428247,1.335732 2.095953,1.777461 0.667706,0.44173 1.308919,0.774056 2.03853,0.774056 -0.08652,0 0.01165,0.0038 0.200981,0.200681 0.189339,0.196881 0.417718,0.522925 0.602946,0.9174 0.370456,0.788949 0.54471,1.810412 0.430676,2.293498 -0.280428,1.187987 -0.633128,1.787554 -1.119757,2.121487 -0.486627,0.333932 -1.296539,0.505533 -2.670186,0.430031 -0.811224,-0.04459 -1.472353,-0.0281 -2.03853,0.05734 -0.566177,0.08544 -1.087495,0.198049 -1.493008,0.68805 -0.405513,0.49 -0.349494,1.236989 -0.114847,1.720124 0.234646,0.483135 0.600269,0.9026 1.091044,1.376099 1.539401,1.485209 3.748365,1.731217 5.713627,1.118081 1.96526,-0.613137 3.776645,-2.070504 4.59387,-4.185635 0.813054,-2.104341 1.224172,-3.689361 0.832639,-5.246379 -0.391533,-1.557018 -1.507613,-2.843135 -3.273133,-4.558328 -0.871716,-0.846868 -1.724968,-1.607925 -2.440494,-2.178824 -0.357762,-0.28545 -0.695028,-0.536085 -0.976197,-0.716719 -0.140585,-0.09032 -0.260743,-0.162628 -0.401964,-0.22935 -0.07455,-0.03522 -0.218561,-0.05635 -0.315828,-0.08601 -0.01074,-0.0062 -0.06516,-0.05158 -0.143559,-0.114675 -0.156794,-0.126194 -0.394414,-0.35997 -0.660368,-0.630712 -0.53191,-0.541484 -1.194277,-1.28019 -1.837548,-2.064149 -0.643272,-0.783958 -1.275891,-1.61294 -1.722702,-2.26483 -0.223406,-0.325944 -0.406751,-0.599624 -0.516811,-0.802724 -0.110058,-0.203101 -0.08614,-0.415055 -0.08614,-0.114675 0,-0.631224 -0.311635,-0.984462 -0.602945,-1.347431 -0.291311,-0.362968 -0.636846,-0.714565 -1.033621,-1.032074 -0.793549,-0.635018 -1.59234,-1.211405 -2.641475,-1.232756 0.06209,0.0013 -0.415614,-0.08642 -0.890063,-0.286687 -0.474449,-0.200262 -1.027143,-0.500532 -1.521719,-0.802725 -0.01218,-0.0074 -0.01656,-0.02129 -0.02871,-0.02867 0.737978,-0.141385 1.180651,-0.688116 1.435584,-1.3761 C 29.116681,8.8523059 28.49207,6.1880052 26.584789,4.15016 26.073706,3.6040911 25.551805,3.1201998 25.063069,2.7453921 24.818701,2.5579882 24.574537,2.3852334 24.345277,2.2580236 24.116016,2.1308138 23.947458,2.000005 23.512638,2.000005 z M 13.434835,3.5767854 c -0.230207,-0.073072 -0.547779,-0.072253 -0.803928,0.028669 -0.256148,0.1009213 -0.42919,0.2642001 -0.545522,0.4013623 -0.232666,0.2743243 -0.334501,0.5055121 -0.488098,0.8027245 -0.60841,1.177283 -0.692855,2.8895336 -0.660369,4.673004 0.01624,0.8917348 0.072,1.7663038 0.200981,2.5515168 0.128988,0.785213 0.290982,1.466348 0.631657,2.03548 0.210035,0.350884 0.21208,0.417235 0.229694,0.430031 -0.35302,0.234808 -0.603979,0.525331 -0.918775,0.888731 -0.324785,0.374934 -0.668965,0.79864 -0.947485,1.232756 -0.4911279,0.765498 -1.3587005,2.098742 -1.923683,2.92421 -0.4748985,0.693851 -0.8489102,1.745783 -1.3207378,3.239567 -0.4718276,1.493785 -0.9563635,3.330239 -1.3781612,5.160373 -0.5376851,2.332957 -1.0028372,4.013467 -1.4068728,5.160372 -0.4040355,1.146904 -0.7964159,1.73663 -0.9474858,1.863467 -0.5238333,0.439807 -0.9769403,0.803747 -1.1197559,1.490775 -0.1428156,0.687027 0.1599376,1.233291 0.4880988,1.777461 0.286924,0.475789 0.5837507,0.876322 0.9761975,1.175418 0.3924466,0.299096 0.9428221,0.488821 1.4642961,0.430031 1.0429479,-0.117579 1.7112151,-0.919479 2.3543586,-2.006811 1.2862871,-2.174664 2.5715842,-6.073328 4.1344835,-12.069537 0.934188,-3.584099 1.661326,-5.982238 2.296935,-7.396534 0.317804,-0.707148 0.623352,-1.154234 0.832639,-1.376099 0.209286,-0.221865 0.254467,-0.22935 0.315829,-0.22935 0.360106,0 0.749473,-0.06063 1.091044,-0.315356 0.341571,-0.254724 0.5595,-0.686854 0.602945,-1.060743 0.08689,-0.747777 -0.185001,-1.398763 -0.602945,-2.207493 -0.190019,-0.367688 -0.229079,-0.884657 -0.143559,-1.204086 0.03703,-0.13831 0.06844,-0.204903 0.08614,-0.22935 0.411002,0.04713 0.772378,0.09786 1.091044,0.08601 0.360368,-0.0134 0.715853,-0.02045 1.119757,-0.372694 0.201952,-0.176124 0.373292,-0.473041 0.401963,-0.745387 0.02867,-0.272346 -0.04309,-0.484358 -0.114847,-0.659381 -0.143493,-0.3500448 -0.345763,-0.5944328 -0.602945,-0.8887298 -0.212039,-0.24264 -0.414955,-0.531497 -0.545522,-0.745387 -0.06529,-0.106946 -0.09351,-0.180138 -0.114847,-0.22935 -0.02133,-0.04921 0,-0.105869 0,0.08601 0,-0.5144371 -0.124,-0.5521808 -0.229693,-0.7453872 C 16.831967,7.3398642 16.693371,7.1317724 16.535697,6.9023585 16.220348,6.4435308 15.791676,5.8990067 15.329806,5.3542469 14.933715,4.8870694 14.652171,4.51676 14.38232,4.2361663 14.112469,3.9555726 13.895248,3.7229299 13.434835,3.5767854 z m 3.732519,20.1254516 c -0.424341,-0.111369 -0.952522,0.12018 -1.177179,0.372693 -0.449313,0.505027 -0.476399,0.982895 -0.545522,1.634118 -0.06912,0.651224 -0.07728,1.443113 0,2.408174 0.160812,2.008199 0.625947,3.649102 1.464296,4.902354 0.838349,1.253251 2.106538,2.094211 3.588961,2.322167 0.450419,0.06926 0.75606,0.127989 0.890063,0.172012 0.134002,0.04402 0.04949,-0.02052 0.02871,-0.05734 -0.04156,-0.07363 0.05049,0.541618 -0.02871,1.863468 -0.100495,1.677382 0.09371,3.349378 0.488098,4.75901 0.394394,1.409631 0.908747,2.60896 1.952395,3.239566 0.710734,0.429449 1.547577,0.602803 2.354359,0.659381 0.403391,0.02829 0.802507,0.03956 1.17718,-0.02867 0.374672,-0.06823 0.740458,-0.181645 1.091044,-0.544706 0.303835,-0.314652 0.317435,-0.692064 0.287117,-0.888731 -0.03032,-0.196668 -0.08515,-0.307618 -0.143559,-0.430031 C 28.477782,43.840876 28.323077,43.62139 28.13522,43.368984 27.759507,42.864177 27.237775,42.263857 26.613501,41.648865 25.61183,40.662088 25.151729,40.152867 24.976934,39.728059 24.802139,39.303252 24.784945,38.74619 24.862087,37.491898 l 0.114847,-1.949474 2.497917,-0.22935 c 0.772443,-0.07169 1.360739,-0.113394 1.808837,-0.172012 0.448097,-0.05862 0.69377,-0.05435 1.119756,-0.286687 0.106495,-0.05808 0.240058,-0.151197 0.373251,-0.344025 0.133195,-0.192829 0.199139,-0.526731 0.143559,-0.774056 -0.111161,-0.49465 -0.347753,-0.590165 -0.488099,-0.68805 -0.280692,-0.195769 -0.53093,-0.29799 -0.890063,-0.458699 -0.822841,-0.368215 -2.004205,-0.632513 -3.41669,-0.860063 -1.412486,-0.227549 -3.039698,-0.376098 -4.56516,-0.430031 0.08515,0.003 -0.09156,-0.02284 -0.344539,-0.258018 -0.252979,-0.235181 -0.578881,-0.627624 -0.890063,-1.118081 -0.622364,-0.980912 -1.209228,-2.35568 -1.579143,-3.755604 -0.219392,-0.830274 -0.442466,-1.429502 -0.775215,-1.892136 -0.166375,-0.231317 -0.379586,-0.462006 -0.803928,-0.573375 z"
     id="path-main"
      />
</defs>
<acyl-settings>
<linearGradient
     id="linearGradient4321">
    <stop
       style="stop-color:#FFFFFF;stop-opacity:1.0;"
       offset="1.0"
       id="stop1" />
  </linearGradient>
<linearGradient
     inkscape:collect="always"
     xlink:href="#linearGradient4321"
     id="acyl_gradient"
     x1="50.0%"
     y1="0.0%"
     x2="50.0%"
     y2="100.0%" />
<filter>
    </filter>
<use id="1" style="fill:url(#acyl_gradient);filter:url(#filter1111)" xlink:href="#path-main" />
</acyl-settings>
</svg>
