<svg xmlns="http://www.w3.org/2000/svg" width="48" height="48">
<defs>
  <path
     d="m 17.187564,4.2596659 c -0.809712,0.024152 -1.449673,0.6955261 -1.436125,1.5066205 l 0.06839,7.3961366 -8.9586808,-1.917517 c -0.6296503,-0.123503 -1.2613023,0.191651 -1.5728981,0.75331 -0.3115958,0.56166 -0.2321995,1.241957 0.2051606,1.712069 l 7.2490083,7.190689 -6.7703002,2.122966 c -0.6588695,0.165103 -1.0941899,0.757999 -1.0941899,1.438137 0,0.680137 0.4353204,1.27303 1.0941899,1.438137 l 5.8812712,1.917517 -7.3173955,9.861516 c -0.3545286,0.517656 -0.3686799,1.204423 0,1.71207 0.3686801,0.507646 1.0402689,0.726122 1.641285,0.547862 l 10.3948045,-3.766551 0.273547,5.273171 c 0.0072,0.597152 0.404747,1.145285 0.957417,1.369655 0.55267,0.224369 1.152505,0.08117 1.572898,-0.342414 l 4.923855,-4.588344 2.461927,3.835034 c 0.339147,0.54777 1.016892,0.841143 1.641286,0.684828 0.624392,-0.156317 1.052356,-0.726507 1.094189,-1.369655 l 0.273548,-3.287173 9.505775,5.821034 c 0.55931,0.302676 1.244899,0.228948 1.709672,-0.205448 0.46477,-0.434395 0.604942,-1.132455 0.341934,-1.712069 l -4.718694,-9.039723 3.350957,-0.06848 c 0.615604,-0.0053 1.154912,-0.38028 1.367737,-0.958759 0.21282,-0.578478 0.05473,-1.239644 -0.410322,-1.643585 l -3.009022,-2.807793 5.129015,-3.287172 c 0.489639,-0.307013 0.757333,-0.864323 0.68387,-1.438138 -0.07347,-0.573815 -0.47466,-1.059297 -1.025804,-1.232689 L 37.703625,19.531318 43.51651,6.6565622 C 43.779518,6.0769483 43.639343,5.3788888 43.174576,4.9444934 42.709801,4.510098 42.024214,4.4363689 41.464903,4.7390451 L 30.454617,10.628561 29.565588,7.6153206 C 29.408135,7.0788191 28.95218,6.6893835 28.403012,6.5880794 27.853844,6.4867688 27.304911,6.6908364 26.966887,7.1359414 L 24.573346,10.35463 18.213368,4.6705623 C 17.937193,4.4061708 17.569636,4.2589405 17.187564,4.2596659 z m 6.7703,8.8342741 c 1.212363,0 2.18838,0.977386 2.18838,2.191449 l 0,10.95724 c 0,1.214061 -0.976017,2.191448 -2.18838,2.191448 -1.212362,0 -2.188379,-0.977387 -2.188379,-2.191448 l 0,-10.95724 c 0,-1.214063 0.976017,-2.191449 2.188379,-2.191449 z m -1.094189,17.531584 1.094189,0 1.09419,0 c 0.606181,0 1.09419,0.488694 1.09419,1.095724 l 0,1.095724 0,1.095724 c 0,0.607032 -0.488009,1.095724 -1.09419,1.095724 l -1.09419,0 -1.094189,0 c -0.606181,0 -1.09419,-0.488692 -1.09419,-1.095724 l 0,-1.095724 0,-1.095724 c 0,-0.60703 0.488009,-1.095724 1.09419,-1.095724 z"
     id="path-main"
      />
</defs>
<acyl-settings>
<linearGradient
     id="linearGradient4321">
    <stop
       style="stop-color:#FFFFFF;stop-opacity:1.0;"
       offset="1.0"
       id="stop1" />
  </linearGradient>
<linearGradient
     inkscape:collect="always"
     xlink:href="#linearGradient4321"
     id="acyl_gradient"
     x1="50.0%"
     y1="0.0%"
     x2="50.0%"
     y2="100.0%" />
<filter>
    </filter>
<use id="1" style="fill:url(#acyl_gradient);filter:url(#filter1111)" xlink:href="#path-main" />
</acyl-settings>
</svg>
