<svg xmlns="http://www.w3.org/2000/svg" width="48" height="48">
<defs>
  <path
     d="M 24.084611,3.8068602 2,43.237617 c 1.382047,-0.648718 2.256408,-0.62051 3.892307,-1.269228 0.310255,-0.676925 0.08756,-2.274895 0.930776,-2.369239 0.847427,-0.09481 0.874356,1.889744 1.438462,2.115393 0.874362,-1.212818 1.002458,-6.973643 1.861531,-7.19231 0.993873,-0.252988 -0.141015,4.794875 1.438468,5.838465 0.535898,-3.299998 0.554936,-9.606584 1.60769,-9.9 0.6838,-0.190585 0.958973,8.112378 1.438457,8.969235 1.353845,-0.958973 1.25624,-12.130775 2.284621,-12.015394 0.895485,0.100463 0.535899,11.987187 1.438462,12.015394 1.410255,-0.225649 1.482106,-12.215596 2.453845,-12.353856 1.143825,-0.162735 0.112819,12.128207 2.115387,12.946159 1.833329,0.02824 1.002407,-11.455549 2.030765,-11.42308 0.813055,0.02568 0.280371,12.10092 1.776925,11.846154 1.438462,-0.789745 0.989333,-9.151963 2.284616,-9.138458 0.815815,0.0085 0.253851,9.223075 1.523073,9.73076 1.438457,0.112825 1.921627,-5.151046 2.284616,-5.076917 0.817288,0.166899 0.817941,5.16154 1.607691,5.58462 1.24102,-0.338468 1.297952,-3.681548 1.946153,-3.807695 0.56893,-0.110723 0.36667,4.456407 1.269228,4.992306 0.676925,-0.507686 1.181242,-1.941609 1.861548,-1.438462 0.875128,0.647235 1.64513,1.602338 6.515379,2.03077 z"
     id="path-main"/>
</defs>
<acyl-settings>
<linearGradient
     id="linearGradient4321">
    <stop
       style="stop-color:#FFFFFF;stop-opacity:1.0;"
       offset="1.0"
       id="stop1" />
  </linearGradient>
<linearGradient
     inkscape:collect="always"
     xlink:href="#linearGradient4321"
     id="acyl_gradient"
     x1="50.0%"
     y1="0.0%"
     x2="50.0%"
     y2="100.0%" />
<filter>
    </filter>
<use id="1" style="fill:url(#acyl_gradient);filter:url(#filter1111)" xlink:href="#path-main" />
</acyl-settings>
</svg>
