<svg xmlns="http://www.w3.org/2000/svg" width="48" height="48">
<defs>
  <path
     d="m 21.036219,8.9560398 c -1.265327,0.057879 -2.869261,0.3207479 -5.275731,1.0489762 l -0.03085,0 -0.03085,0 c 0,0 -3.854031,1.602833 -5.861923,3.362892 l -0.030852,-0.03085 c -0.23713,0.16007 -0.4445854,0.410125 -0.7713057,0.740454 -0.3267202,0.330328 -0.7083164,0.724044 -1.0798279,1.11068 -0.3715116,0.386636 -0.7447381,0.752465 -1.0181235,1.018123 -0.1366927,0.132829 -0.2353861,0.248204 -0.3085223,0.308523 -0.021941,0.0181 -0.020082,0.023 -0.030852,0.03085 -0.00718,0.0052 -0.032217,8.36e-4 -0.030852,0 -0.2021351,0.0075 -0.4069634,-0.0044 -0.5553401,0.03085 l -0.030852,0 C 4.8118306,16.892404 4.5234234,17.89195 4.4685784,18.088297 l -0.030852,0 -0.030852,0.09256 c -2.136e-4,8.87e-4 0,0.03085 0,0.03085 l 0,0.0617 0,0.03085 -0.061704,0.709601 C 4.0604467,19.21714 3.5783485,19.6157 3.5430067,20.463921 c -0.016637,0.39763 0.176988,0.656837 0.3393745,0.925566 -0.1933697,0.25941 -0.476283,0.644047 -0.8330102,1.51176 -0.5092275,1.238642 -1.0311081,3.149587 -1.0489757,5.831071 -0.022646,3.395135 0.9316361,5.687044 1.8819859,7.126864 0.9518141,1.442062 1.9745425,2.067099 1.9745425,2.067099 l 0.030852,0.03085 0.3393745,0.185114 0.1234089,-0.09256 c 0.084927,0.01287 0.1610077,0.0178 0.2776701,0.03085 0.3635136,0.04055 0.8485769,0.07521 1.4192025,0.03085 0.5537761,-0.04294 0.9609471,-0.413467 1.3266457,-0.802158 0.3681566,-0.391306 0.7081876,-0.851898 1.0181236,-1.326646 0.492803,-0.754865 0.756255,-1.306332 0.894714,-1.573464 l 10.551462,-0.123409 c 0.104241,0.122098 0.194977,0.250027 0.308522,0.370227 0.01026,0.01086 0.02052,0.02001 0.03085,0.03085 0.510474,0.622499 1.315444,1.363081 2.529882,2.190509 0.83763,0.570697 1.715612,1.164623 3.393745,1.851133 4.657997,1.905538 9.857264,-0.411228 9.903565,-0.431931 7.71e-4,-2.8e-4 0.02968,4.29e-4 0.03085,0 l 0.308523,-0.123409 0,-0.03085 c 0.43465,-0.176198 1.650468,-0.703015 3.177779,-2.005395 1.800511,-1.535346 3.759298,-4.031252 4.319312,-7.743909 0.05632,-0.37345 0.09907,-0.727884 0.123409,-1.079828 0.0021,-0.02514 -0.0028,-0.04422 0,-0.09256 0.02981,-0.378192 0.0426,-0.804991 0.03085,-1.234089 -0.02582,-0.937544 -0.118935,-1.874446 -0.339375,-2.49903 -0.02693,-0.07635 -0.07004,-0.123817 -0.09256,-0.185113 -0.0028,-0.01021 0.0028,-0.02067 0,-0.03085 -0.384891,-1.407473 -1.006674,-2.57975 -1.635168,-3.517154 -0.0049,-0.008 0.0049,-0.02287 0,-0.03085 l -0.03085,0 c -0.715644,-1.146672 -1.444644,-1.872443 -2.221361,-2.49903 l -0.03085,-0.03085 c -0.01839,-0.01511 -0.01462,-0.01769 -0.03085,-0.03085 -0.01623,-0.01316 -0.01666,-0.01951 -0.03085,-0.03085 l 0.555341,-0.215966 -0.154262,-0.185113 0.154262,0 0.03085,-0.123409 1.264941,0.09256 -1.018123,-0.678749 0.03085,-0.123409 -0.308522,-0.246818 c -1.512605,-1.017705 -3.00723,-2.021327 -5.090612,-3.146929 l 0,-0.03085 -0.03085,0 -0.03085,-0.03085 -0.06171,0 -0.03085,0 -0.03085,0 -0.154261,-0.03085 -0.0617,-0.03085 c -0.952107,-0.507788 -1.927072,-0.746258 -2.869257,-1.11068 l 0,-0.370227 -0.154261,0.308522 C 30.978181,10.206206 28.204907,9.4935218 23.998033,9.0177443 l -0.03085,0 -0.215966,0 -1.450055,-0.061705 -0.03085,0 -0.0617,0 c -0.362341,-0.017021 -0.750609,-0.019293 -1.172385,0 z m 0.185113,3.8256762 c 0.854306,0.01067 1.691509,0.09149 2.468179,0.246818 0.967462,0.19349 1.605598,0.615375 2.128803,1.048976 0.09939,0.08625 0.18848,0.159531 0.27767,0.246817 0.234992,0.223916 0.457013,0.403306 0.647897,0.617045 -0.521922,0.220517 -1.047896,0.456832 -1.480907,0.709601 -1.151869,0.672411 -1.915719,1.333272 -1.94369,1.357498 -0.547417,0.03438 -1.235068,0.137483 -2.128804,0.27767 -1.091509,0.171216 -2.366573,0.389989 -3.578858,0.617045 -2.150224,0.402721 -3.686869,0.716456 -4.103346,0.802158 -0.05677,-0.333821 -0.166373,-0.760625 -0.09256,-1.666021 0.09708,-1.190839 0.482551,-2.466415 1.635168,-3.116075 0.62965,-0.354887 2.032426,-0.776443 3.640563,-0.987271 0.80417,-0.105431 1.675577,-0.164925 2.529882,-0.154261 z m -7.06516,0.55534 c -1.236727,0.944144 -1.780994,2.370996 -1.881985,3.609711 -0.112485,1.379682 0.154261,2.529882 0.154261,2.529882 l 0.09256,0.493636 0.308523,-0.09256 0.215965,0.03085 3.239484,0.339374 0.03085,0 0.03085,0 0.0617,0 0.0617,0 0,-0.03085 5.152322,-1.141533 c -0.282426,0.412963 -0.590786,0.751342 -0.83301,1.234089 -0.381736,0.760797 -0.693263,1.625318 -0.925567,2.499031 -0.109198,0.114441 -0.710752,0.767011 -1.357498,1.635168 -0.04104,0.05509 -0.08348,0.0987 -0.123408,0.154261 l -0.0617,0.0617 -1.450055,1.141532 -5.676809,0.647897 -0.03085,0 -0.03085,0 -0.339374,0.03085 -0.09256,0.308522 -0.03085,0.03085 0,0.03085 -1.3574978,4.257607 -0.030852,0.09256 C 8.960796,31.035526 8.6166786,30.638648 8.5410675,30.552599 l -0.030852,-8.854589 0,-0.03085 0,-0.185113 -0.092557,-0.123409 -0.030852,0 0,-0.03085 -1.9128381,-2.838405 c 0.3447685,-0.450558 2.2105859,-2.759445 5.8002186,-4.473573 0.567832,-0.271154 1.239054,-0.460763 1.881985,-0.678749 z m 23.910477,3.054371 0.03085,0 0.123409,0 0.154261,0 1.66602,0.154261 -0.185113,0.0617 0.185113,0.308522 -0.0617,0 0.27767,0.647897 0.03085,0.09256 0,0.03085 c 0,0 0.125012,0.302902 0.215966,0.617045 -1.04594,-0.254415 -2.040823,-0.113995 -2.90011,0.154261 -0.366908,-0.987108 -0.987271,-1.820282 -0.987271,-1.820282 l -0.09256,-0.123408 0.09256,-0.03085 c 0.02271,-6.31e-4 0.06332,0.0013 0.09256,0 0.01949,-8.34e-4 0.03916,0.0011 0.0617,0 0.113559,-0.0056 0.240103,-0.0197 0.401079,-0.03085 0.311934,-0.02173 0.662586,-0.03669 0.894715,-0.0617 z m -11.816403,0.863862 c 0.03344,-0.0016 0.05918,7.96e-4 0.09256,0 -0.407583,0.131993 -0.837343,0.344085 -1.264941,0.617045 l -0.27767,-0.185114 c 0.493579,-0.20009 0.991275,-0.409533 1.450055,-0.431931 z M 24.9236,17.934038 c -0.04199,0.02859 -0.08139,0.03156 -0.123409,0.0617 -1.651972,1.185166 -3.158359,3.917131 -3.486302,7.713057 -0.207102,2.397082 0.246431,5.791536 2.313917,8.052432 0.726899,0.79491 1.56295,1.174872 2.375622,1.38835 -0.814423,0.113255 -1.647166,0.01746 -2.468178,-0.709601 -0.184397,-0.163286 -0.360851,-0.323789 -0.524488,-0.493636 -0.0099,-0.01029 -0.02101,-0.02056 -0.03085,-0.03085 -0.05959,-0.07182 -0.09429,-0.146408 -0.154261,-0.215966 l -0.09256,-0.123409 c -0.624633,-0.725083 -1.112277,-1.465333 -1.419203,-2.22136 -0.0031,-0.0075 0.0031,-0.02334 0,-0.03085 -0.01966,-0.07753 0.0025,-0.172902 -0.03085,-0.215966 -0.05117,-0.06616 -0.03351,-0.03693 -0.0617,-0.0617 -0.671653,-1.861233 -0.616806,-3.723212 -0.647896,-5.183175 -0.03671,-1.724382 0.458989,-3.54563 1.203237,-5.028913 0.450299,-0.897431 1.007336,-1.672072 1.542611,-2.22136 0.213349,-0.218658 0.412643,-0.412386 0.617044,-0.55534 l 0.0617,-0.03085 0.0617,-0.0617 0.0617,0 0.802158,-0.03085 z m 2.622439,0.185113 c 0.07569,-0.0047 0.146487,0 0.215966,0 0.48858,-4.01e-4 0.884407,0.124738 1.048975,0.215966 0.340484,0.188735 0.627709,0.411948 0.894715,0.678749 0.01029,0.01028 0.02066,0.02047 0.03085,0.03085 0.865017,1.164791 1.385652,2.627719 1.66602,3.979937 0.111433,0.537482 0.169103,1.033578 0.215966,1.51176 0.04722,1.041782 -0.06254,1.845884 -0.09256,2.252212 -0.10723,1.450104 -0.293976,3.998491 -2.375621,6.664081 -0.0067,0.0086 0.0068,0.02224 0,0.03085 -0.06582,0.08015 -0.147085,0.167532 -0.215966,0.246817 -0.05406,0.06223 -0.275616,0.224517 -0.586192,0.339375 -0.310576,0.114858 -0.710282,0.183339 -1.141532,0.185113 -0.866788,0.0032 -1.865624,-0.271519 -2.745849,-1.234089 -1.734754,-1.897047 -2.222049,-5.037958 -2.036247,-7.188569 0.305602,-3.537353 1.826659,-6.030113 3.054371,-6.910899 0.770547,-0.552818 1.474647,-0.761896 2.067099,-0.802158 z m -4.350164,0.401079 0.09256,0.09256 -0.123409,0.09256 c 3.1e-5,-1.5e-5 -0.06198,0.02124 -0.09256,0.03085 -0.0094,0.003 -0.03086,2e-6 -0.03085,0 2.5e-5,-5e-6 -0.02079,-6.54e-4 -0.03085,0 0.01344,-0.01506 0.0174,-0.0469 0.03085,-0.0617 0.0084,-0.0093 0.02243,-0.02171 0.03085,-0.03085 l 0.0617,-0.0617 0.0617,-0.0617 z m -16.6293501,2.159656 0.802158,1.172385 0.030852,5.491696 -0.030852,-0.0617 C 7.333926,26.678096 7.2033584,26.408898 7.121865,25.955617 L 7.091013,25.863057 7.060161,25.677944 c -0.00207,-0.0096 0.0021,-0.02139 0,-0.03085 -0.00326,-0.01726 0.00333,-0.04465 0,-0.0617 L 7.0293083,25.431129 C 7.0107451,25.344677 6.9880738,25.296148 6.9676039,25.215164 6.8814155,24.921262 6.8735947,24.425425 6.7516383,24.19704 6.4694597,23.668592 6.0165698,23.371514 5.5484014,23.209769 l -0.030852,-0.987271 c 0.093794,-0.0451 0.1370065,-0.04343 0.2468178,-0.123409 0.3491756,-0.254252 0.7023562,-0.718083 0.8021579,-1.419203 z m -1.2340891,0.0617 c -0.075912,0.174381 -0.1472196,0.359407 -0.2468178,0.431931 -0.013051,0.0095 -0.018299,-0.0082 -0.030852,0 -0.081901,-0.07611 -0.216679,-0.169945 -0.2468178,-0.215966 -0.017947,-0.0274 -0.01678,-0.116012 -0.030852,-0.154261 l 0.1851133,-0.03085 0.061705,0 0.3085222,-0.03085 z m 22.0901942,2.560735 0.03085,0.123408 c -0.2131,0.07766 -0.487292,0.178287 -0.771305,0.370227 -0.601489,0.40646 -1.240494,1.159796 -1.450055,2.313917 l -0.03085,0 0,0.0617 -0.03085,0.0617 0.03085,0.123409 c 0.0016,0.01121 -0.0017,0.01971 0,0.03085 0.282518,1.895539 1.820281,2.869257 1.820281,2.869257 l 0.03085,0 0.03085,0.03085 0.03085,0 0,0.03085 c 0,0 0.717494,0.276861 1.480907,0 0.383802,-0.138887 0.751987,-0.445287 1.018123,-0.925567 0.265548,-0.479223 0.419571,-1.11903 0.431931,-1.974543 0.0222,-1.532665 -0.419918,-2.35757 -0.987271,-2.7767 l 0,-0.03085 c -0.239197,-0.166037 -0.542753,-0.226272 -0.83301,-0.246818 -5.7e-5,-3.5e-5 -0.0925,-0.03083 -0.09256,-0.03085 -10e-6,-4e-6 -0.02181,0.0014 -0.03085,0 l 0,-0.03085 c -0.01079,-0.0029 -0.0151,0.0018 -0.03085,0 l -0.09256,0 -0.0617,0 -0.123409,0 -0.370227,0 z m 5.275731,0.370226 c 4.277357,1.052013 8.677363,1.996379 11.970664,4.782095 -1.113903,6.538948 -6.78414,8.692768 -6.972603,8.762033 l -0.09256,0 0,0.03085 c 0,0 -0.03063,-9.5e-5 -0.03085,0 -0.04677,0.01978 -4.93645,2.121533 -9.00885,0.462784 l -0.03085,-0.03085 c -1.327682,-0.543144 -2.154628,-0.987269 -2.869257,-1.419202 0.511542,-0.0094 1.032495,-0.0084 1.480907,-0.154261 0.757185,-0.246292 1.088455,-0.602212 1.573464,-0.956419 0.02236,-0.01633 0.04001,-0.04542 0.0617,-0.0617 0.0067,-0.005 0.02421,0.005 0.03085,0 0.03478,-0.02631 0.09042,-0.03564 0.123409,-0.0617 l 0,-0.03085 c 0.240983,-0.191413 0.727725,-0.371102 0.863863,-0.524488 2.687592,-3.02812 2.788489,-6.144139 2.961813,-7.558796 0.05002,-0.408116 0.140319,-1.328964 0.03085,-2.468178 -3.05e-4,-0.01022 3.31e-4,-0.02064 0,-0.03085 -0.0081,-0.248104 -0.06886,-0.4951 -0.09256,-0.740454 z m -27.890413,0.493636 0.092557,0 0.061704,0 c 0.372525,0.02277 0.5259242,0.09582 0.7713057,0.55534 0.07166,0.134201 0.1513467,0.371152 0.2159656,0.586192 -0.1080608,0.05934 -0.1646289,0.04871 -0.2776701,0.154261 -0.4040823,0.37719 -0.757761,1.042875 -0.8021579,2.128804 l 0,0.03085 0,0.03085 0,0.03085 c 0.1058381,0.936436 0.3952281,1.508653 0.7096013,1.851133 0.042519,0.04631 0.080297,0.05527 0.1234089,0.09256 -0.1296069,0.271398 -0.2577543,0.582064 -0.3702268,0.709601 -0.1557606,0.176614 -0.2981476,0.24677 -0.3702267,0.27767 -0.019395,0.0083 -0.03527,0.02531 -0.030852,0.03085 l -0.030852,0 -0.4936357,0 0,0.493635 0,0.0617 0,1.048975 C 4.1795818,31.539439 4.0003689,30.667895 3.9132334,29.59618 3.7063573,27.051517 4.2963348,25.327516 4.807948,24.166188 z m 23.231727,0.246818 c 0.01353,-7.62e-4 0.01819,-7.23e-4 0.03085,0 0.09259,0.0044 0.231329,0.06286 0.370227,0.123409 0.200697,0.157259 0.512391,0.584101 0.493635,1.881985 -0.01049,0.730767 -0.133701,1.190248 -0.27767,1.450055 -0.144955,0.261592 -0.305378,0.344118 -0.462783,0.401079 -0.15177,0.05492 -0.327248,0.04771 -0.462784,0.03085 -0.03909,-0.0048 -0.06197,0.0064 -0.09256,0 0.01456,0.0093 -0.05201,-0.02408 -0.0617,-0.03085 -0.02182,-0.01524 -0.0479,-0.02999 -0.123409,-0.09256 -0.10906,-0.09037 -0.246018,-0.220799 -0.401079,-0.401079 -0.297822,-0.346259 -0.59823,-0.868505 -0.709601,-1.511759 0.161375,-0.796225 0.584484,-1.270417 0.987271,-1.542611 0.209609,-0.141645 0.415294,-0.229281 0.555341,-0.27767 0.05361,-0.01875 0.105726,-0.02869 0.154261,-0.03085 z m -8.484363,0.493635 c -0.02595,0.330041 -0.09961,0.656203 -0.09256,0.987272 0.02158,1.014401 0.07204,2.385951 0.339374,3.856528 -0.02465,-0.02469 -0.03689,-0.0365 -0.0617,-0.0617 -0.281024,-0.285455 -0.530592,-0.587011 -0.771306,-0.894715 -0.156832,-0.214632 -0.296958,-0.394748 -0.401079,-0.586192 -0.150979,-0.269511 -0.325234,-0.563487 -0.339375,-0.709602 -0.01851,-0.191559 0.09063,-0.580288 0.308523,-1.018123 0.218717,-0.439537 0.535119,-0.947061 0.863862,-1.38835 0.06078,-0.08158 0.09389,-0.107413 0.154261,-0.185114 z m -2.375621,1.974543 0.03085,0 0.09256,0 c -0.0568,0.238577 -0.208898,0.463887 -0.185114,0.709601 0.105888,1.093595 1.013403,2.080519 1.820282,2.900109 0.558749,0.567549 1.072358,0.99646 1.357498,1.23409 0.194723,0.486771 0.501052,0.968137 0.802158,1.450054 L 9.9602699,33.298447 c 0.066471,-0.173934 0.1627971,-0.352445 0.1542611,-0.524488 -0.01392,-0.268214 -0.09104,-0.480754 -0.1851133,-0.678749 l -0.030852,-0.0617 0,-0.03085 c 0.1224823,-0.08731 0.3352393,-0.0984 0.4010793,-0.215966 0.08382,-0.149599 0.05368,-0.229194 0.0617,-0.339374 l 0.03085,0 1.264941,-3.918233 5.522549,-0.647897 z M 6.1962982,27.004593 c 0.012902,0.1575 0.052634,0.258321 0.061705,0.431931 -0.00143,0.0123 0.00145,0.01864 0,0.03085 -0.027031,0.227222 -0.058338,0.359135 -0.092557,0.55534 -0.049278,-0.156073 -0.1207315,-0.151788 -0.1542612,-0.401079 1.344e-4,-0.0075 0.00114,-0.01562 0,-0.03085 0.023458,-0.360851 0.1142961,-0.395233 0.1851134,-0.586192 z m 1.2032369,0.524488 0.030852,3.270336 0,0.185113 0.092557,0.123409 0,0.03085 c 3.226e-4,5.27e-4 0.030269,-9.43e-4 0.030852,0 0.021861,0.03533 0.2568723,0.301916 0.6170446,0.617045 l 0,0.27767 c -0.061624,0.07837 -0.128701,0.153557 -0.1542612,0.215965 -0.069634,0.170663 -0.092557,0.331807 -0.092557,0.524488 0,0.192682 0.02292,0.384674 0.092557,0.55534 l -2.4990304,0.03085 0,-1.758577 c 0.2012534,-0.09874 0.4158151,-0.261337 0.6478968,-0.524488 0.5129637,-0.581659 0.9845791,-1.632355 1.2032369,-3.486302 0.00315,-0.02671 0.027811,-0.03464 0.030852,-0.0617 z m 6.9108989,0.154261 c -0.24798,0.0058 -0.493982,0.02688 -0.709602,0.0617 -0.502583,0.08116 -0.894714,0.215966 -0.894714,0.215966 l -0.123409,0.03085 0,0.03085 -0.0617,0.0617 c -0.205219,0.143787 -0.44381,0.33238 -0.647896,0.647897 -0.22423,0.346686 -0.401639,0.841797 -0.308523,1.38835 0.113259,0.664713 0.413838,1.134485 0.740454,1.450054 0.311058,0.30055 0.610068,0.473325 0.83301,0.647897 0,0 0.02091,0.0252 0.03085,0.03085 0.04173,0.02374 0.147485,0.0903 0.154261,0.09256 0.0084,0.0028 0.01697,-0.0041 0.03085,0 0.01388,0.0041 0.03449,-0.0057 0.0617,0 0.01361,0.0029 0.03499,0.02794 0.0617,0.03085 0.01336,0.0015 0.03938,-2.18e-4 0.0617,0 l 0.03085,0 c 0.0139,-0.0012 0.01935,0.0012 0.03085,0 0.0071,-0.0012 0.02303,0.0016 0.03085,0 0.04433,-0.0088 0.09717,-0.03056 0.154261,-0.0617 0.01291,-0.007 0.01949,-0.02332 0.03085,-0.03085 -4.81e-4,2.87e-4 0.05382,-0.02462 0.0617,-0.03085 0.02523,-0.02478 0.07969,-0.11054 0.03085,-0.0617 -0.0073,0.0073 0.0351,-0.0019 0.0617,-0.03085 0.02878,-0.03094 0.05449,-0.04817 0.09256,-0.09256 0.07207,-0.08406 0.15517,-0.21615 0.27767,-0.370227 0.240801,-0.302883 0.55132,-0.709804 0.83301,-1.141532 0.282237,-0.432556 0.542744,-0.885571 0.678749,-1.326646 0.06725,-0.21794 0.1154,-0.444952 0.0617,-0.709601 -0.05796,-0.285704 -0.251777,-0.568256 -0.55534,-0.678749 -0.302339,-0.11002 -0.632235,-0.152447 -0.925567,-0.154261 l -0.123408,0 z m 0.123408,1.141532 c 0.134279,9.65e-4 0.230663,0.0095 0.339375,0.03085 -0.004,0.01837 0.0064,0.0099 0,0.03085 -0.07507,0.24345 -0.271627,0.661444 -0.524488,1.048975 -0.253758,0.388909 -0.547004,0.766851 -0.771306,1.048976 -0.01732,0.02179 -0.01443,0.04124 -0.03085,0.0617 -0.124335,-0.08935 -0.282343,-0.192753 -0.370227,-0.27767 -0.187139,-0.180815 -0.320849,-0.362139 -0.401078,-0.833011 -0.03793,-0.222578 0.03905,-0.408003 0.154261,-0.586192 0.103342,-0.159768 0.245115,-0.271385 0.339374,-0.339374 0.04972,-0.01453 0.265577,-0.09752 0.617045,-0.154262 0.208118,-0.03359 0.439081,-0.03221 0.647896,-0.03085 z m -4.4427198,5.584253 c -0.1767021,0.317191 -0.28008,0.534782 -0.5553401,0.956419 -0.2885391,0.44198 -0.6028991,0.862216 -0.8947146,1.172385 -0.2896246,0.307839 -0.5699355,0.463917 -0.5553401,0.462783 -0.4787065,0.03719 -0.9220395,0.0039 -1.2340891,-0.03085 -0.1586836,-0.01773 -0.2854045,-0.04769 -0.3702267,-0.0617 -0.00997,-0.0017 -0.021606,0.0017 -0.030852,0 -0.021757,-0.01365 -0.566423,-0.599997 -1.0181235,-1.079828 l 0.6170443,0.277664 0,-0.246818 c 0.2028138,0.0077 0.3921897,0.03969 0.7096012,0 0.6767693,-0.08457 1.1332597,-0.574976 1.4809069,-0.956419 0.1862551,-0.204362 0.2700894,-0.323253 0.3702268,-0.462783 l 1.4809069,-0.03085 z m -3.116075,0.03085 c -0.1391838,0.09451 -0.3025884,0.269214 -0.3702267,0.27767 -0.3803301,0.04755 -0.5923217,0.04551 -0.7096012,0.03085 -0.045298,-0.04403 -0.1501111,-0.202766 -0.2159656,-0.27767 l 1.2957935,-0.03085 z"
     id="path-main" />
</defs>
<acyl-settings>
<linearGradient
     id="linearGradient4321">
    <stop
       style="stop-color:#FFFFFF;stop-opacity:1.0;"
       offset="1.0"
       id="stop1" />
  </linearGradient>
<linearGradient
     inkscape:collect="always"
     xlink:href="#linearGradient4321"
     id="acyl_gradient"
     x1="50.0%"
     y1="0.0%"
     x2="50.0%"
     y2="100.0%" />
<filter>
    </filter>
<use id="1" style="fill:url(#acyl_gradient);filter:url(#filter1111)" xlink:href="#path-main" />
</acyl-settings>
</svg>
