<svg xmlns="http://www.w3.org/2000/svg" width="48" height="48">
<defs>
  <path
     id="path-main"
     d="M 24,2.000001 C 11.861158,2.000001 2,11.861159 2,24 2,36.138842 11.861158,46 24,46 38.194718,46 46.000014,37.372373 46,24 45.999987,11.861159 36.138835,2.000001 24,2.000001 z m 0.916667,7.3333331 c 2.344219,0.010756 4.828963,-0.00342 6.951388,1.0694449 2.655491,1.25597 4.067263,4.206106 4.277778,7.027777 0.194285,3.01115 0.03889,5.997344 0.07639,9.013889 0.123542,0.474244 -0.599231,4.817134 0,4.888889 1.811228,0.232246 2.433726,0.710162 2.444444,2.444444 0.01076,1.734282 -0.279722,2.200362 -2.0625,2.444444 -1.565053,0.209098 -3.161351,0.05622 -4.736111,0 -1.163091,-0.06732 -2.165726,-1.557597 -2.520833,-2.673611 -0.458333,2.673611 -8.93442,3.53232 -13.368056,1.909723 -2.916773,-0.989546 -4.201389,-4.481794 -4.201389,-6.798611 0,-2.215278 0.02171,-3.931347 2.444445,-7.104167 2.422741,-3.17282 9.777778,-2.444444 14.666667,-2.444444 0.765549,-0.639139 0.688233,-3.221116 -2.485949,-3.388 -3.174179,-0.166882 -4.943456,-0.510082 -6.996051,1.1 -3.488001,2.736032 -6.043855,2.091075 -6.636056,-0.843945 -0.672681,-1.845565 1.93424,-3.859376 3.529166,-4.8125 3.015072,-1.2234733 5.17179,-1.781144 8.616668,-1.8333329 z M 24.611111,24.488889 c -2.188856,-0.06175 -2.75075,0.386663 -3.933111,1.053556 -1.221557,0.567011 -2.150667,1.732981 -0.733333,2.231778 1.39181,0.965883 7.850947,1.794799 9.095777,-0.811556 l 0,-1.496 C 28.4659,24.802475 26.799967,24.550638 24.611111,24.488889 z" />
</defs>
<acyl-settings>
<linearGradient
     id="linearGradient4321">
    <stop
       style="stop-color:#FFFFFF;stop-opacity:1.0;"
       offset="1.0"
       id="stop1" />
  </linearGradient>
<linearGradient
     inkscape:collect="always"
     xlink:href="#linearGradient4321"
     id="acyl_gradient"
     x1="50.0%"
     y1="0.0%"
     x2="50.0%"
     y2="100.0%" />
<filter>
    </filter>
<use id="1" style="fill:url(#acyl_gradient);filter:url(#filter1111)" xlink:href="#path-main" />
</acyl-settings>
</svg>
