<svg xmlns="http://www.w3.org/2000/svg" width="48" height="48">
<defs>
  <path
     id="path-main"
     d="m 8.7880001,13.500525 10.8719999,0 c 0,0 0,0 0,0 l 0,1.002 c 0,0 0,0 0,0 l -10.8719999,0 c 0,0 0,0 0,0 l 0,-1.002 c 0,0 0,0 0,0 z M 4.625,12.406275 c -0.4986,0 -0.90625,0.3764 -0.90625,0.875 l 0,1.53125 c 0,0.4986 0.40765,0.90625 0.90625,0.90625 l 15.75,0 c 0.4986,0 0.90625,-0.40765 0.90625,-0.90625 l 0,-1.53125 c 0,-0.4986 -0.40765,-0.875 -0.90625,-0.875 l -15.75,0 z m 0,0.5 15.75,0 c 0.2216,0 0.375,0.1534 0.375,0.375 l 0,1.53125 c 0,0.2216 -0.1534,0.40625 -0.375,0.40625 l -15.75,0 c -0.2216,0 -0.40625,-0.18465 -0.40625,-0.40625 l 0,-1.53125 c 0,-0.2216 0.18465,-0.375 0.40625,-0.375 z m 3.96875,5.8125 0,7.5625 7.8125,0 0,-7.5625 -7.8125,0 z m 1.03125,0.75 3.8125,0 c 0.149924,0 0.28125,0.14703 0.28125,0.34375 0,0.19672 -0.131326,0.375 -0.28125,0.375 l -3.8125,0 c -0.1499237,0 -0.25,-0.17828 -0.25,-0.375 0,-0.19672 0.1000763,-0.34375 0.25,-0.34375 z m -0.21875,2.40625 1.875,0 0,1.59375 -0.25,0 0,2.34375 -1.375,0 0,-2.34375 -0.25,0 0,-1.59375 z m 0.25,0.25 0,1.09375 1.375,0 0,-1.09375 -1.375,0 z m 2.15625,0.0312 1.375,0 0,2.34375 0.25,0 0,1.59375 -1.875,0 0,-1.59375 0.25,0 0,-2.34375 z m 2.15625,0 1.375,0 0,2.34375 0.25,0 0,1.59375 -1.875,0 0,-1.59375 0.25,0 0,-2.34375 z m -4.03125,0.25 0.84375,0 0,0.53125 -0.84375,0 0,-0.53125 z m 1.875,2.34375 0,1.09375 1.375,0 0,-1.09375 -1.375,0 z m 2.15625,0 0,1.09375 1.375,0 0,-1.09375 -1.375,0 z m -1.875,0.28125 0.84375,0 0,0.53125 -0.84375,0 0,-0.53125 z m 2.15625,0 0.84375,0 0,0.53125 -0.84375,0 0,-0.53125 z m -5.84375,-6.9375 c -0.2216,0 -0.40625,0.1534 -0.40625,0.375 l 0,2.4375 -1.90625,0 c -1.0557698,0 -1.90625,0.87908 -1.90625,1.96875 l 0,10.75 c 0,1.08967 0.8504802,1.96875 1.90625,1.96875 l 35.71875,0 c 1.055769,0 1.90625,-0.87908 1.90625,-1.96875 l 0,-10.75 c 0,-1.08967 -0.850481,-1.96875 -1.90625,-1.96875 l -24.84375,0 0,-2.4375 c 0,-0.2216 -0.1534,-0.375 -0.375,-0.375 l -8.1875,0 z m 0.03125,0.3125 8.09375,0 0.1875,0.15625 0,7.84375 -0.1875,0.1875 -8.09375,0 -0.15625,-0.1875 0,-7.84375 0.15625,-0.15625 z m 12.90625,5.53125 5.71875,0 c 0.8864,0 1.59375,0.70735 1.59375,1.59375 l 0,5.59375 c 0,0.8864 -0.70735,1.625 -1.59375,1.625 l -5.71875,0 c -0.8864,0 -1.59375,-0.7386 -1.59375,-1.625 l 0,-5.59375 c 0,-0.8864 0.70735,-1.59375 1.59375,-1.59375 z m 11.71875,0.0312 5.71875,0 c 0.8864,0 1.59375,0.70735 1.59375,1.59375 l 0,5.59375 c 0,0.8864 -0.70735,1.625 -1.59375,1.625 l -5.71875,0 c -0.8864,0 -1.59375,-0.7386 -1.59375,-1.625 l 0,-5.59375 c 0,-0.8864 0.70735,-1.59375 1.59375,-1.59375 z m -11.71875,0.96885 c -0.32686,0 -0.59375,0.26689 -0.59375,0.59375 l 0,5.625 c 0,0.32686 0.26689,0.59375 0.59375,0.59375 l 5.71875,0 c 0.32686,0 0.59375,-0.26689 0.59375,-0.59375 l 0,-5.625 c 0,-0.32686 -0.26689,-0.59375 -0.59375,-0.59375 l -5.71875,0 z m 11.71875,0.0312 c -0.32686,0 -0.59375,0.26689 -0.59375,0.59375 l 0,5.625 c 0,0.32686 0.26689,0.59375 0.59375,0.59375 l 5.71875,0 c 0.32686,0 0.59375,-0.26689 0.59375,-0.59375 l 0,-5.625 c 0,-0.32686 -0.26689,-0.59375 -0.59375,-0.59375 l -5.71875,0 z m -20.53125,3.65625 3,3.0625 -6.0625,0.0625 3.0625,-3.125 z m -7.2377501,-15.07644 2.5969999,0 c 0,0 0,0 0,0 l 0,1.002 c 0,0 0,0 0,0 l -2.5969999,0 c 0,0 0,0 0,0 l 0,-1.002 c 0,0 0,0 0,0 z" />
</defs>
<acyl-settings>
<linearGradient
     id="linearGradient4321">
    <stop
       style="stop-color:#FFFFFF;stop-opacity:1.0;"
       offset="1.0"
       id="stop1" />
  </linearGradient>
<linearGradient
     inkscape:collect="always"
     xlink:href="#linearGradient4321"
     id="acyl_gradient"
     x1="50.0%"
     y1="0.0%"
     x2="50.0%"
     y2="100.0%" />
<filter>
    </filter>
<use id="1" style="fill:url(#acyl_gradient);filter:url(#filter1111)" xlink:href="#path-main" />
</acyl-settings>
</svg>
