<svg xmlns="http://www.w3.org/2000/svg" width="48" height="48">
<defs>
<defs
   id="defs32">
</defs>
	<path
   
   id="path-main"
   d="M 24,2 C 11.738505,2.197766 2,11.914813 2,24 c 0,12.094314 9.905685,22 22,22 12.094314,-2e-6 22,-9.905684 22,-22 -2e-6,-12.094316 -9.905684,-22 -22,-22 z m 8.436314,12.669377 c 0.95393,0 1.711111,0.172899 2.474255,0.745257 1.526287,1.144716 1.740923,3.24336 0.596206,4.769648 L 25.192412,33.747967 c -0.572358,0.763144 -1.520325,1.341465 -2.474255,1.341464 -0.953929,0 -1.919782,-0.190785 -2.682927,-0.95393 l -7.422764,-7.452574 c -1.335501,-1.335502 -1.335501,-3.434147 0,-4.769648 0.763144,-0.572358 1.520325,-0.953929 2.474255,-0.953929 0.953929,0 1.901896,0.381571 2.474255,0.953929 0,0 3.052573,3.052575 4.769647,4.769648 2.098645,-2.671003 7.810298,-10.672087 7.810298,-10.672087 0.572358,-0.763143 1.341463,-1.150677 2.295393,-1.341463 z" />
</defs>
<acyl-settings>
<linearGradient
     id="linearGradient4321">
    <stop
       style="stop-color:#FFFFFF;stop-opacity:1.0;"
       offset="1.0"
       id="stop1" />
  </linearGradient>
<linearGradient
     inkscape:collect="always"
     xlink:href="#linearGradient4321"
     id="acyl_gradient"
     x1="50.0%"
     y1="0.0%"
     x2="50.0%"
     y2="100.0%" />
<filter>
    </filter>
<use id="1" style="fill:url(#acyl_gradient);filter:url(#filter1111)" xlink:href="#path-main" />
</acyl-settings>
</svg>
