<svg xmlns="http://www.w3.org/2000/svg" width="48" height="48">
<defs>
<defs
     id="defs5">
  </defs>
  <path
     d="m 23.921614,43.232848 c -0.07553,-0.201499 0.0204,-0.500513 0.213195,-0.66446 0.192792,-0.163955 0.45593,-0.40478 0.584752,-0.535167 0.418984,-0.424079 2.508042,-3.76839 2.414056,-3.864597 -0.195693,-0.200333 -2.317341,1.669035 -2.320132,2.044246 -0.002,0.265049 -0.195256,0.397954 -0.578735,0.397954 -0.732523,0 -0.929841,-0.757172 -0.263112,-1.009655 0.501431,-0.189888 4.477743,-4.826923 4.29743,-5.01151 -0.193689,-0.198278 -3.556576,-0.619213 -10.753278,-1.345999 -4.6288,-0.467453 -6.42951,-2.941375 -2.933536,-4.030265 0.276077,-0.08599 0.658272,-0.287715 0.849326,-0.448284 0.191051,-0.160568 1.364349,-0.689998 2.607326,-1.176509 2.293549,-0.89772 2.52945,-1.139061 1.397632,-1.429859 -0.579189,-0.148811 -1.630163,-0.589184 -3.426012,-1.435544 -0.850198,-0.400687 -0.861024,-0.388739 -1.507427,1.663677 -0.847152,2.689815 -1.461793,2.813587 -6.3662572,1.281993 -1.3583491,-0.424193 -2.6494993,-0.347556 -3.8093601,0.226105 -1.237757,0.612187 -1.6920825,0.641853 -1.5908755,0.103876 0.052253,-0.277761 0.5435343,-0.523449 1.5801371,-0.790227 1.633345,-0.42035 1.6047912,-0.44729 -0.8820239,-0.832085 -0.7551187,-0.116843 -0.9791065,-0.24861 -0.9236573,-0.543365 0.096677,-0.5139 0.8784114,-0.669531 0.8784114,-0.17488 0,0.279261 0.2411339,0.372982 0.959617,0.372982 l 0.9596167,0 -1.0626857,-0.830647 C 3.6615418,24.743771 2.9170826,24.266352 2.5916655,24.139699 2.2662509,24.013044 2,23.79675 2,23.659043 2,23.234545 2.7449106,23.086637 3.017699,23.45697 c 0.2206137,0.299503 1.7033234,1.401392 2.6389511,1.96116 0.3788815,0.226677 0.153745,-0.902376 -0.3417992,-1.714113 -0.263069,-0.430924 -0.2754584,-0.623089 -0.057512,-0.89192 0.3732982,-0.460455 0.98962,0.04133 0.8279756,0.67411 -0.2540584,0.994541 0.6583306,2.46535 1.6238085,2.617651 3.302519,0.520964 4.943433,0.488032 4.94552,-0.09925 0.0011,-0.311301 0.06515,-1.103804 0.142324,-1.76112 l 0.140307,-1.195115 -1.010743,-0.682418 c -5.5854472,-3.771098 -5.780659,-7.586938 -0.431795,-8.440423 0.700528,-0.111778 1.595564,-0.270309 1.988972,-0.352289 0.467539,-0.09743 0.828487,-0.03571 1.042105,0.17819 0.915421,0.916611 2.496321,0.905801 4.400971,-0.03009 l 1.797095,-0.883045 -0.735624,-1.489605 -0.735624,-1.4896046 -1.80767,0.122877 c -1.597234,0.1085706 -1.799003,0.07708 -1.733202,-0.27048 0.06126,-0.323598 0.309966,-0.37896 1.402408,-0.312184 0.730364,0.04465 1.327939,0.03051 1.327939,-0.03142 0,-0.194899 -2.912856,-2.0648102 -3.216464,-2.0648102 -0.379677,0 -0.235755,-0.9978401 0.163343,-1.1324708 0.167626,-0.056546 0.356162,0.098352 0.418969,0.3442168 0.104536,0.4092337 2.321369,1.8986658 2.521301,1.6939982 0.137746,-0.1410094 -0.836921,-1.6169418 -1.067785,-1.6169418 -0.288722,0 -0.263202,-0.6488212 0.03288,-0.8361491 0.265697,-0.1680995 0.967581,0.3221426 0.817389,0.570917 -0.05153,0.085347 0.208076,0.5694828 0.576901,1.0758574 l 0.670587,0.9206814 -0.0533,-1.6361176 c -0.04166,-1.2787167 0.01832,-1.6361178 0.274566,-1.6361178 0.249127,0 0.342024,0.436491 0.386846,1.8176185 0.06192,1.908132 0.242572,2.447381 1.229776,3.6708906 2.526994,3.131873 2.470035,2.615688 0.442304,4.008383 -1.533668,1.05336 -1.620945,1.156541 -1.1,1.300445 0.88681,0.244972 3.240698,1.573669 4.386894,2.476265 1.572052,1.23795 1.842471,1.378706 1.959314,1.019842 0.0549,-0.168607 0.324918,-1.476146 0.600046,-2.905643 0.757214,-3.934279 1.062494,-4.410317 2.49946,-3.897519 1.612236,0.575346 4.991043,6.402083 6.731379,11.608233 0.3296,0.985988 0.703484,1.806847 0.830853,1.824126 0.37019,0.05023 4.536967,-3.79781 4.769373,-4.404544 0.264673,-0.690968 0.991333,-0.599181 1.094102,0.138205 0.06597,0.473328 -0.143151,0.64339 -0.694361,0.564673 -0.08646,-0.01234 -0.476289,0.508418 -0.866281,1.157257 -0.389992,0.648837 -0.658314,1.179703 -0.596267,1.179703 0.237196,0 3.470931,-2.46268 3.830303,-2.917001 0.210333,-0.265903 0.496789,-0.401946 0.646679,-0.307116 0.528365,0.334286 0.249293,0.975805 -0.605313,1.391474 -0.474344,0.230715 -1.175078,0.689587 -1.557182,1.019714 l -0.694738,0.600234 0.926315,-0.159472 C 44.30947,24.149003 44.825311,23.9835 44.946312,23.868931 45.409833,23.430037 46,23.645313 46,24.253282 c 0,0.485902 -0.114719,0.594593 -0.636841,0.603377 -0.350265,0.0059 -1.105791,0.267769 -1.678948,0.581951 l -1.042106,0.57124 1.086334,0.01071 c 0.597482,0.0059 1.150737,-0.09597 1.229456,-0.226354 C 45.273,25.272278 46,25.541491 46,26.180107 c 0,0.592945 -0.04418,0.615734 -0.916833,0.472882 -0.691133,-0.113134 -1.728373,0.08244 -4.213444,0.794465 -3.141203,0.900015 -3.317552,0.925219 -3.740791,0.534648 -0.852289,-0.786514 -3.760954,-4.925271 -5.197353,-7.395348 l -1.44737,-2.488942 0,3.250738 c 0,3.78625 -0.940149,6.816318 -2.114924,6.816318 -0.131295,0 -0.861048,0.37338 -1.621671,0.829731 -0.760624,0.456353 -1.507634,0.830705 -1.660023,0.831898 -0.152384,0.0012 -0.798118,0.264556 -1.43496,0.585251 -0.636842,0.320697 -1.366315,0.593639 -1.621052,0.606543 -0.463158,0.02346 -0.463158,0.02346 0,0.214129 1.114974,0.459012 2.816449,0.96482 3.241916,0.963742 0.983273,-0.0025 5.442434,1.731851 5.436709,2.11455 -0.0031,0.205408 -0.413872,2.023524 -0.91289,4.040261 -0.652497,2.636995 -0.838766,3.751331 -0.663246,3.967833 0.299592,0.369539 0.08736,1.018281 -0.333118,1.018281 -0.553808,0 -0.86405,-0.505413 -0.609322,-0.992653 0.128206,-0.245236 0.201487,-0.948978 0.162844,-1.563876 l -0.07026,-1.117992 -0.461346,1.303857 c -0.253741,0.717132 -0.434038,1.531668 -0.400661,1.810092 0.06542,0.545686 -0.42773,0.86742 -0.990624,0.6463 -0.404386,-0.158857 -0.452021,-0.594968 -0.103913,-0.951321 0.133901,-0.137074 0.389082,-0.814354 0.56707,-1.505071 0.177991,-0.690708 0.243296,-1.159959 0.145122,-1.042779 -0.900941,1.07537 -1.720933,2.345562 -1.859975,2.881157 -0.190189,0.732605 -1.036216,1.020419 -1.258269,0.428047 z"
     id="path-main"
      />
</defs>
<acyl-settings>
<linearGradient
     id="linearGradient4321">
    <stop
       style="stop-color:#FFFFFF;stop-opacity:1.0;"
       offset="1.0"
       id="stop1" />
  </linearGradient>
<linearGradient
     inkscape:collect="always"
     xlink:href="#linearGradient4321"
     id="acyl_gradient"
     x1="50.0%"
     y1="0.0%"
     x2="50.0%"
     y2="100.0%" />
<filter>
    </filter>
<use id="1" style="fill:url(#acyl_gradient);filter:url(#filter1111)" xlink:href="#path-main" />
</acyl-settings>
</svg>
