<svg xmlns="http://www.w3.org/2000/svg" width="48" height="48">
<defs>
<defs
     id="defs4">
  </defs>
  <path
     d="M 12.373626,9.8386689 2,30.640866 l 2.5714286,0 c 0.5144172,-5.089282 4.3112003,-9.237558 9.2307694,-10.274725 -0.413566,-0.766751 -0.679312,-1.645453 -0.813187,-2.604396 0,-3.695895 4.626731,-6.716084 10.43956,-6.901098 0.187511,-0.006 0.370567,0 0.56044,0 6.075928,0 11,3.085981 11,6.901098 0,1.951213 -0.950245,3.370171 -3.021978,4.626374 l 5.417582,1.021978 0,0.01099 c 1.769755,0.473408 2.945319,0.571788 3.527473,1.593407 0.27411,0.481029 0.328534,1.095244 0.208791,1.582417 -0.125109,0.509007 -0.397303,0.961731 -0.758242,1.373627 -1.421464,1.622125 -4.250105,2.681544 -6.989011,1.516483 l -6.560439,-2.571429 c 0.537217,1.155375 0.899563,2.405476 1.032967,3.725275 l 18.153846,0 -9.89011,-20.8021971 -23.736264,0 z m 11.78022,5.2087911 c -2.005526,0 -3.626373,1.015441 -3.626373,2.274725 0,1.259284 1.620847,2.285714 3.626373,2.285714 2.005527,0 3.637363,-1.02643 3.637363,-2.285714 0,-1.259284 -1.631836,-2.274725 -3.637363,-2.274725 z m -3.120879,6.120879 c 1.645458,0.751052 3.097531,1.867892 4.230769,3.252747 l 8.494506,4.010989 0.01099,0 0.01099,0.01099 c 2.226978,0.967797 4.688763,-8.79e-4 5.747253,-1.208791 0.264622,-0.301982 0.435555,-0.616554 0.505494,-0.901099 0.06994,-0.284545 0.04656,-0.533247 -0.08791,-0.769231 -0.268944,-0.471968 -1.071297,-0.928791 -2.692308,-1.043956 L 21.032971,21.16834 z m -4.824176,0.04396 c -5.856007,0 -10.6153844,4.759377 -10.6153844,10.615384 0,5.856004 4.7593774,10.604396 10.6153844,10.604396 5.856008,0 10.615385,-4.748392 10.615385,-10.604396 0,-5.856007 -4.759377,-10.615384 -10.615385,-10.615384 z m 7.285714,3.802198 c 0.960949,1.027865 1.705256,2.26303 2.164836,3.626373 l -9.45055,3.175824 9.637363,2.593407 c -1.137415,4.25728 -5.0182,7.384615 -9.637363,7.384615 -1.281398,0 -2.501033,-0.242532 -3.626373,-0.681318 l 3.626373,-9.296704 7.285714,-6.802197 z m 12.45055,0.197802 c 1.238847,0 2.252747,0.639701 2.252747,1.417582 0,0.777882 -1.0139,1.406594 -2.252747,1.406594 -1.238848,0 -2.241758,-0.628712 -2.241758,-1.406594 0,-0.777881 1.00291,-1.417582 2.241758,-1.417582 z m 0,0.560439 c -0.759182,0 -1.362637,0.380447 -1.362637,0.857143 0,0.476696 0.603455,0.857143 1.362637,0.857143 0.759181,0 1.362637,-0.380447 1.362637,-0.857143 0,-0.476696 -0.603456,-0.857143 -1.362637,-0.857143 z M 2,31.860646 l 0,5.153847 3.7252747,0 C 4.95154,35.459338 4.5107198,33.709373 4.5054945,31.860646 L 2,31.860646 z m 25.901099,0 c -0.0052,1.848714 -0.446051,3.598699 -1.21978,5.153847 l 19.318681,0 0,-5.153847 -18.098901,0 z"
     id="path-main" />
</defs>
<acyl-settings>
<linearGradient
     id="linearGradient4321">
    <stop
       style="stop-color:#FFFFFF;stop-opacity:1.0;"
       offset="1.0"
       id="stop1" />
  </linearGradient>
<linearGradient
     inkscape:collect="always"
     xlink:href="#linearGradient4321"
     id="acyl_gradient"
     x1="50.0%"
     y1="0.0%"
     x2="50.0%"
     y2="100.0%" />
<filter>
    </filter>
<use id="1" style="fill:url(#acyl_gradient);filter:url(#filter1111)" xlink:href="#path-main" />
</acyl-settings>
</svg>
