<svg xmlns="http://www.w3.org/2000/svg" width="48" height="48">
<defs>
      <path
         d="M 5.59375,10 C 4.7428899,10 4,10.622766 4,11.46875 L 4,36.53125 C 4,37.377234 4.7428899,38 5.59375,38 L 42.40625,38 C 43.25711,38 44,37.377234 44,36.53125 L 44,11.46875 C 44,10.622766 43.257111,10 42.40625,10 L 5.59375,10 z M 5.59375,11 L 42.40625,11 C 42.783268,11 43,11.230665 43,11.46875 L 43,36.53125 C 43,36.769335 42.783265,37 42.40625,37 L 5.59375,37 C 5.2167351,37 5,36.769335 5,36.53125 L 5,11.46875 C 5,11.230665 5.2167349,11 5.59375,11 z M 7.0625,12 C 6.4764961,12 6,12.476496 6,13.0625 L 6,34.9375 C 6,35.523504 6.4764961,36 7.0625,36 L 40.9375,36 C 41.523504,36 42,35.523505 42,34.9375 L 42,13.0625 C 42,12.476496 41.523505,12 40.9375,12 L 7.0625,12 z M 17.03125,13.90625 L 17.46875,13.90625 L 17.46875,14.9375 C 17.741208,14.949225 17.995114,14.984381 18.25,15.03125 C 18.504879,15.075201 18.756832,15.139654 19,15.21875 L 19,15.96875 C 18.756832,15.845708 18.507808,15.754888 18.25,15.6875 C 17.995114,15.620122 17.738278,15.574224 17.46875,15.5625 L 17.46875,17.4375 C 18.133785,17.540042 18.624019,17.736331 18.9375,18 C 19.250972,18.263674 19.406245,18.605471 19.40625,19.0625 C 19.406245,19.557618 19.24023,19.962891 18.90625,20.25 C 18.575191,20.53418 18.095699,20.706055 17.46875,20.75 L 17.46875,22.0625 L 17.03125,22.0625 L 17,20.75 C 16.692381,20.744141 16.401365,20.720703 16.09375,20.65625 C 15.786131,20.588867 15.466796,20.475586 15.15625,20.34375 L 15.15625,19.5625 C 15.455077,19.750001 15.757811,19.872071 16.0625,19.96875 C 16.370115,20.062501 16.706052,20.122071 17.03125,20.125 L 17.03125,18.125 C 16.383787,18.019534 15.889647,17.845706 15.59375,17.59375 C 15.30078,17.3418 15.156249,17.001957 15.15625,16.5625 C 15.156249,16.084966 15.336913,15.681646 15.65625,15.40625 C 15.975584,15.130865 16.433592,14.978521 17.03125,14.9375 L 17.03125,13.90625 z M 17.03125,15.5625 C 16.691404,15.600591 16.428709,15.688482 16.25,15.84375 C 16.071287,15.999028 15.968748,16.210942 15.96875,16.46875 C 15.968748,16.720707 16.054686,16.921879 16.21875,17.0625 C 16.38574,17.203129 16.665037,17.31348 17.03125,17.375 L 17.03125,15.5625 z M 13.46875,17.15625 L 13.46875,17.9375 C 13.161127,18.168948 12.857416,18.337893 12.59375,18.4375 C 12.333002,18.537112 12.065424,18.593752 11.78125,18.59375 C 11.45898,18.593752 11.08398,18.516604 10.65625,18.34375 C 10.62402,18.332034 10.608395,18.318362 10.59375,18.3125 C 10.573238,18.303713 10.543942,18.295901 10.5,18.28125 C 10.045895,18.099612 9.6816378,18.000003 9.40625,18 C 9.1484352,18.000003 8.8769511,18.041995 8.625,18.15625 C 8.3730454,18.267581 8.1308581,18.444338 7.84375,18.6875 L 7.84375,17.90625 C 8.1513659,17.674808 8.4267563,17.505863 8.6875,17.40625 C 8.9511698,17.303714 9.215818,17.250003 9.5,17.25 C 9.8222627,17.250003 10.194333,17.355472 10.625,17.53125 C 10.654293,17.542972 10.672848,17.556644 10.6875,17.5625 C 10.710934,17.571292 10.74023,17.579105 10.78125,17.59375 C 11.235347,17.775394 11.599605,17.875003 11.875,17.875 C 12.126948,17.875003 12.378901,17.798831 12.625,17.6875 C 12.874017,17.576175 13.166986,17.402347 13.46875,17.15625 z M 17.46875,18.21875 L 17.46875,20.125 C 17.840817,20.075196 18.093746,19.942384 18.28125,19.78125 C 18.471676,19.620118 18.593746,19.419923 18.59375,19.15625 C 18.593746,18.898439 18.494137,18.683596 18.3125,18.53125 C 18.133785,18.378909 17.858395,18.289065 17.46875,18.21875 z"
         id="path-main"
         />
</defs>
<acyl-settings>
<linearGradient
     id="linearGradient4321">
    <stop
       style="stop-color:#FFFFFF;stop-opacity:1.0;"
       offset="1.0"
       id="stop1" />
  </linearGradient>
<linearGradient
     inkscape:collect="always"
     xlink:href="#linearGradient4321"
     id="acyl_gradient"
     x1="50.0%"
     y1="0.0%"
     x2="50.0%"
     y2="100.0%" />
<filter>
    </filter>
<use id="1" style="fill:url(#acyl_gradient);filter:url(#filter1111)" xlink:href="#path-main" />
</acyl-settings>
</svg>
