<svg xmlns="http://www.w3.org/2000/svg" width="48" height="48">
<defs>
  <path
     d="M 11.885476,2 C 9.8497199,2 8.2104239,3.641503 8.2104239,5.68 l 0,36.64 c 0,2.0385 1.639296,3.68 3.6750521,3.68 l 24.340563,0 c 2.035753,0 3.675052,-1.6415 3.675052,-3.68 l 0,-36.64 C 39.901091,3.641503 38.261792,2 36.226039,2 L 11.885476,2 z m 2.157096,2.893333 a 0.229164,0.22947253 0 0 1 0.02663,0 0.229164,0.22947253 0 0 1 0.03994,0 l 0.1731,0 a 0.229164,0.22947253 0 0 1 0.213047,0.133334 L 16.945323,10.88 c 0.193429,0.46215 0.35806,0.755516 0.452724,0.84 0.111651,0.09515 0.308942,0.171569 0.559247,0.186667 a 0.229164,0.22947253 0 0 1 0.213047,0.226666 l 0,0.186667 a 0.229164,0.22947253 0 0 1 -0.226362,0.226667 l -2.769605,0 A 0.229164,0.22947253 0 0 1 14.948019,12.32 l 0,-0.186667 a 0.229164,0.22947253 0 0 1 0.213047,-0.226666 c 0.25581,-0.01265 0.378312,-0.06499 0.412778,-0.09333 0.06415,-0.05095 0.06658,-0.05427 0.06658,-0.106666 -3e-6,-0.09066 -0.05491,-0.327249 -0.186416,-0.64 a 0.229164,0.22947253 0 0 1 0,-0.01333 l -0.359516,-0.866666 -2.410089,0 -0.426092,0.986666 c -0.111532,0.259494 -0.159786,0.447907 -0.159785,0.52 -10e-7,0.03542 0.01327,0.05748 0.05326,0.09333 0.02662,0.02044 0.212057,0.09707 0.532616,0.12 a 0.229164,0.22947253 0 0 1 0.213047,0.226666 l 0,0.186667 a 0.229164,0.22947253 0 0 1 -0.226362,0.226667 l -2.210357,0 A 0.229164,0.22947253 0 0 1 10.234366,12.32 l 0,-0.186667 a 0.229164,0.22947253 0 0 1 0.186415,-0.226666 c 0.27316,-0.04827 0.458557,-0.139474 0.46604,-0.146667 a 0.229164,0.22947253 0 0 1 0,-0.01333 c 0.120687,-0.113741 0.308785,-0.433537 0.5193,-0.933334 L 13.896103,5.02667 A 0.229164,0.22947253 0 0 1 14.042572,4.893336 z M 13.909418,7.32 l -0.892132,2.026667 1.731003,0 L 13.909418,7.32 z m 7.39005,11.666667 c 1.482655,0 2.681959,1.336475 2.756289,3.013333 0.07412,-1.677094 1.286805,-3.013333 2.769605,-3.013333 1.530551,0 2.769604,1.420454 2.769604,3.173333 0,3.892713 -5.539209,6.866667 -5.539209,6.866667 0,0 -5.539209,-2.995543 -5.539209,-6.866667 0,-1.752879 1.252365,-3.173333 2.78292,-3.173333 z m 8.801484,16.480003 a 0.229164,0.22947253 0 0 1 0.02663,0 0.229164,0.22947253 0 0 1 0.03994,0 l 2.78292,0 a 0.229164,0.22947253 0 0 1 0.226361,0.22666 l 0,0.18667 a 0.229164,0.22947253 0 0 1 -0.213046,0.22667 c -0.256167,0.0127 -0.39959,0.0715 -0.426093,0.0933 -0.06415,0.051 -0.06658,0.0543 -0.06658,0.10667 2e-6,0.0906 0.05492,0.32724 0.186416,0.64 l 0.372831,0.88 2.396773,0 0.426093,-0.98667 c 0.112946,-0.26278 0.173101,-0.47634 0.173101,-0.53333 0,-0.0193 -0.01967,-0.0505 -0.06658,-0.0933 -0.01682,-0.0129 -0.206099,-0.0833 -0.532616,-0.10666 a 0.229164,0.22947253 0 0 1 -0.213046,-0.22667 l 0,-0.18667 a 0.229164,0.22947253 0 0 1 0.226362,-0.22666 l 2.210357,0 a 0.229164,0.22947253 0 0 1 0.226362,0.22666 l 0,0.18667 a 0.229164,0.22947253 0 0 1 -0.186416,0.22667 c -0.277436,0.049 -0.423805,0.11833 -0.439408,0.13333 a 0.229164,0.22947253 0 0 1 0,0.0133 c -0.12907,0.12164 -0.338058,0.43981 -0.545932,0.93334 L 34.2154,42.97331 a 0.229164,0.22947253 0 0 1 -0.213046,0.13334 l -0.1731,0 a 0.229164,0.22947253 0 0 1 -0.213047,-0.13334 l -2.450035,-5.84 c -0.194024,-0.46357 -0.363378,-0.77359 -0.452723,-0.85333 -0.106121,-0.0904 -0.301896,-0.15781 -0.559248,-0.17333 a 0.229164,0.22947253 0 0 1 -0.213046,-0.22667 l 0,-0.18667 a 0.229164,0.22947253 0 0 1 0.159785,-0.22666 z m 3.262274,3.2 0.838871,2.02666 0.892132,-2.02666 -1.731003,0 z"
     id="path-main"
      />
</defs>
<acyl-settings>
<linearGradient
     id="linearGradient4321">
    <stop
       style="stop-color:#FFFFFF;stop-opacity:1.0;"
       offset="1.0"
       id="stop1" />
  </linearGradient>
<linearGradient
     inkscape:collect="always"
     xlink:href="#linearGradient4321"
     id="acyl_gradient"
     x1="50.0%"
     y1="0.0%"
     x2="50.0%"
     y2="100.0%" />
<filter>
    </filter>
<use id="1" style="fill:url(#acyl_gradient);filter:url(#filter1111)" xlink:href="#path-main" />
</acyl-settings>
</svg>
