<svg xmlns="http://www.w3.org/2000/svg" width="48" height="48">
<defs>
<defs
     id="defs11">
  </defs>
  <path
     d="M 2.6364267,2.08304 2.4354035,3.3156961 C 0.62756544,14.57536 4.6236808,23.705034 11.194271,29.832137 c 6.129237,5.715539 14.435707,8.789597 22.543315,9.087256 -0.189792,1.78493 -0.403497,3.563332 -0.918963,5.073956 L 32.158118,45.914 37.442156,46 37.75805,44.939342 c 0.554783,-1.838635 0.831594,-3.980656 1.033833,-6.16328 2.138384,-0.257664 4.223019,-0.701341 6.203001,-1.404655 L 46,37.02741 45.91385,32.526781 44.248229,32.784779 c -0.948434,0.148041 -3.45649,0.553741 -5.370191,0.80266 C 38.19337,24.287393 34.815906,16.231662 29.0279,10.596967 22.916905,4.6478395 14.251651,1.4313294 3.9287186,2.08304 c -0.00999,6.304e-4 -0.018729,-6.377e-4 -0.028718,0 l -0.057435,0 -1.2061391,0 z M 28.999182,18.021571 c 0.02072,0.02871 0.03676,0.0572 0.05743,0.086 2.902307,4.659095 4.471489,10.254699 4.824557,15.565867 C 28.457646,33.372834 22.759682,31.8885 17.914189,29.029477 10.459282,24.384756 5.5480679,17.081381 6.5707376,6.497669 16.105799,4.9485874 23.373094,11.170002 28.999182,18.021571 z"
     id="path-main"
      />
</defs>
<acyl-settings>
<linearGradient
     id="linearGradient4321">
    <stop
       style="stop-color:#FFFFFF;stop-opacity:1.0;"
       offset="1.0"
       id="stop1" />
  </linearGradient>
<linearGradient
     inkscape:collect="always"
     xlink:href="#linearGradient4321"
     id="acyl_gradient"
     x1="50.0%"
     y1="0.0%"
     x2="50.0%"
     y2="100.0%" />
<filter>
    </filter>
<use id="1" style="fill:url(#acyl_gradient);filter:url(#filter1111)" xlink:href="#path-main" />
</acyl-settings>
</svg>
