<svg xmlns="http://www.w3.org/2000/svg" width="48" height="48">
<defs>
<defs
     id="defs5">
  </defs>
  <path
     d="M 26.110815,1.999996 25.522888,2.3527523 24.93496,2.7055086 C 17.318214,7.2964736 11.697756,17.211124 9.1491152,26.1932 7.8887471,30.635067 6.245309,35.90066 6.7680099,39.392166 c 0.252469,1.686426 0.754648,3.197814 1.6167999,4.350662 0.8910292,1.191461 2.3493802,1.928619 3.8509232,2.145934 l 0.0294,0 c 2.161711,0.202212 3.718731,-0.600387 5.056174,-1.734385 1.337443,-1.133999 2.512027,-2.59433 4.027301,-3.792131 0.70246,-0.555283 1.36428,-0.729331 2.057746,-0.676116 0.693465,0.05321 1.424983,0.356368 2.17533,0.823098 1.500696,0.933462 3.004044,2.517333 4.380058,3.733338 l 0.0294,0 0,0.0294 c 1.0749,0.833953 2.322805,1.565142 3.821527,1.704989 1.500642,0.140026 3.144155,-0.351859 4.967985,-1.646196 1.020594,-0.724296 1.659167,-1.749039 1.881367,-2.91024 0.219969,-1.149534 0.113015,-2.431136 -0.235171,-3.79213 C 39.733137,34.91682 38.148106,31.769534 36.311352,28.192153 32.636825,21.03541 27.838155,12.249541 26.345986,3.3522286 L 26.2284,2.6761123 26.110815,1.999996 z m -4.585832,14.37482 c 2.131015,-10e-7 3.821526,1.690513 3.821526,3.821527 0,2.131013 -1.690511,3.821527 -3.821526,3.821527 -2.131015,0 -3.821527,-1.690513 -3.821527,-3.821527 -10e-7,-2.131015 1.690512,-3.821527 3.821527,-3.821527 z m 5.673497,4.527039 c 1.257764,0.292655 2.571637,0.673232 3.909716,1.205251 1.203272,2.442992 2.421084,4.782493 3.527563,6.937541 1.827215,3.558801 3.329303,6.670449 3.939113,9.054079 0.30435,1.189647 0.379453,2.215027 0.235171,2.969033 -0.146107,0.763541 -0.429616,1.267379 -1.087666,1.734385 -1.57291,1.116264 -2.773537,1.385743 -3.762734,1.29344 -0.961698,-0.08974 -1.81421,-0.560059 -2.733861,-1.264043 -0.01909,-0.02017 -0.03964,-0.03866 -0.05879,-0.05879 -1.591452,-1.673567 -3.381898,-3.225392 -5.261949,-4.086094 -1.902673,-0.871059 -3.96679,-0.994056 -5.791083,0.293963 -1.739326,1.228032 -2.827335,2.568911 -3.880319,3.527564 -1.039182,0.946085 -1.999996,1.528332 -3.733338,1.499214 -0.01911,-0.0028 -0.03975,0.003 -0.05879,0 C 11.410957,43.845264 10.485126,43.360841 9.9134205,42.59637 9.3082052,41.78709 8.8705346,40.604874 8.649377,39.127599 8.2258226,36.298365 9.7048939,31.02446 10.942293,26.663542 c 0.436184,-1.537228 0.994291,-3.089502 1.616799,-4.644625 0.480916,-0.221725 1.613963,-0.676428 3.292393,-1.087665 0.363169,2.804668 2.773483,4.997383 5.673498,4.997381 2.910122,10e-7 5.32341,-2.208001 5.673497,-5.026778 z"
     id="path-main"
      />
</defs>
<acyl-settings>
<linearGradient
     id="linearGradient4321">
    <stop
       style="stop-color:#FFFFFF;stop-opacity:1.0;"
       offset="1.0"
       id="stop1" />
  </linearGradient>
<linearGradient
     inkscape:collect="always"
     xlink:href="#linearGradient4321"
     id="acyl_gradient"
     x1="50.0%"
     y1="0.0%"
     x2="50.0%"
     y2="100.0%" />
<filter>
    </filter>
<use id="1" style="fill:url(#acyl_gradient);filter:url(#filter1111)" xlink:href="#path-main" />
</acyl-settings>
</svg>
