<svg xmlns="http://www.w3.org/2000/svg" width="48" height="48">
<defs>
  <path
     d="m 44.117897,3.287965 c -0.19501,-0.02166 -0.415395,0.05106 -0.623405,0.189733 -0.832056,0.554702 -2.492157,2.128659 -2.954409,2.683361 -0.462252,0.554702 -0.294792,1.739529 0.35236,1.92443 0.647151,0.184901 0.94866,0.572557 0.94866,1.219709 0,0 0.140535,2.139734 0,4.716214 C 39.45715,10.859558 36.137366,9.7766045 34.717901,9.7067585 33.249154,9.634488 31.047012,10.189016 29.454278,11.500679 28.289567,9.9995055 26.833555,8.264298 24.087557,6.621837 21.532581,5.093633 17.33442,4.3078 12.896801,5.324754 8.4591844,6.341709 5.1248644,9.9211225 3.1933344,16.247933 c -2.062163,6.754703 -1.1929162,12.085646 0.647044,17.180411 2.605584,7.21475 9.3191856,10.63194 12.5303936,11.63192 2.852077,0.88814 5.527091,0.39811 7.7459,-1.17354 2.218809,-1.57166 2.823177,-4.35394 2.545827,-6.20295 -0.277351,-1.84901 -1.104342,-3.79465 -4.987257,-3.79465 0,0 -1.667879,0.36055 -2.222582,1.19261 -0.554701,0.83205 -0.653457,2.12382 0.271047,2.49362 0.924503,0.36981 1.407969,-0.27399 1.870221,0.65052 0.462252,0.9245 -0.387655,1.38717 -1.219709,1.57207 -0.832053,0.1849 -1.390943,0.18154 -3.794652,-0.65052 -2.40371,-0.83205 -4.066112,-2.57388 -5.637769,-4.60779 -1.5716556,-2.03391 -2.9369656,-3.69902 -3.3067676,-9.893197 -0.369801,-6.194176 1.738538,-10.044556 4.3632016,-12.67082 2.397685,-2.3991485 6.127256,-2.713394 9.142324,-1.892259 2.435529,0.663299 4.844166,3.547344 5.211973,4.519071 0.394089,1.041162 0.311442,2.555346 -0.150809,3.294949 -0.462252,0.739603 -1.301024,1.369728 -1.301024,1.92443 0,0.554702 0.74968,1.47962 1.951536,1.57207 1.201854,0.09245 3.386265,0.07839 4.218318,0.07839 0.832052,0 1.185516,-0.477531 1.185516,-0.847333 0,-0.369801 -0.233934,-1.431957 -0.233934,-1.431957 l 4.147013,-0.08131 c 0,0 0.115507,0.171406 0.115507,0.818558 0,0.647154 0.400507,1.07001 0.862759,1.07001 0.462252,0 2.436697,-0.0049 2.898949,-0.189733 0.462256,-0.1849 0.661183,-1.168764 0.846083,-0.798962 0.1849,0.369801 0.741491,0.921558 1.111291,0.921558 0.369799,0 2.219635,0.09245 3.144139,0 0.924507,-0.09245 1.020316,-0.735185 0.650512,-1.382338 -0.369804,-0.647152 -1.014005,-0.830994 -0.921557,-2.032849 0.09245,-1.201855 0.271045,-11.000075 0.271045,-12.386831 0,-1.040066 -0.444938,-1.778112 -1.029976,-1.843113 z m -10.19135,12.083261 c 1.002044,0 2.005744,0.650512 2.005744,0.650512 l -3.686233,0 c 0,0 0.678446,-0.650512 1.680489,-0.650512 z"
     id="path-main"
      />
</defs>
<acyl-settings>
<linearGradient
     id="linearGradient4321">
    <stop
       style="stop-color:#FFFFFF;stop-opacity:1.0;"
       offset="1.0"
       id="stop1" />
  </linearGradient>
<linearGradient
     inkscape:collect="always"
     xlink:href="#linearGradient4321"
     id="acyl_gradient"
     x1="50.0%"
     y1="0.0%"
     x2="50.0%"
     y2="100.0%" />
<filter>
    </filter>
<use id="1" style="fill:url(#acyl_gradient);filter:url(#filter1111)" xlink:href="#path-main" />
</acyl-settings>
</svg>
