<svg xmlns="http://www.w3.org/2000/svg" width="48" height="48">
<defs>
  <path
     d="m 43.326037,13.601501 c -1.481394,0 -2.673959,1.213484 -2.673959,2.719573 l 0,15.775807 c 0,1.506089 1.192565,2.719574 2.673959,2.719574 C 44.807436,34.816455 46,33.602969 46,32.096881 l 0,-15.775807 c 0,-1.506089 -1.192564,-2.719573 -2.673963,-2.719573 z m -16.625312,0.353487 c -1.506088,0 -2.713872,1.213485 -2.713872,2.719574 0,1.506087 1.207784,2.719572 2.713872,2.719572 l 2.360385,0 c -0.05383,0.214058 -0.08552,0.435841 -0.08552,0.667067 l 0,12.035679 c 0,1.506089 1.213485,2.719574 2.719574,2.719574 l 0.09122,0 c 1.506088,0 2.713872,-1.213485 2.713872,-2.719574 l 0,-12.03568 c 0,-0.230995 -0.02609,-0.453198 -0.07982,-0.667067 l 2.622649,0 c 1.506089,0 2.719574,-1.213485 2.719574,-2.719572 0,-1.506088 -1.213485,-2.719573 -2.719574,-2.719573 z m -6.66495,0.245161 c -0.503114,0.01072 -0.995745,0.182706 -1.396846,0.558738 -1.426136,1.337003 -14.6206833,14.438236 -15.6902853,15.507839 -1.069602,1.069604 -1.337569,2.051727 -0.267966,3.477862 1.069602,1.426138 2.999623,1.400047 4.544025,-0.08552 L 16.586421,24.65654 c 0.954976,-0.918597 1.071865,-1.42727 1.071865,-0.535934 l 0,8.643339 c 0,2.941406 5.079958,2.941406 5.079958,0 0,-2.941406 0.08913,-14.348712 0,-16.220516 -0.06406,-1.345359 -1.416732,-2.370683 -2.702469,-2.34328 z m 23.290262,0.405022 c 0.964707,0 1.747967,0.78326 1.747967,1.747966 0,0.964706 -0.78326,1.743002 -1.747967,1.743002 -0.964703,0 -1.747962,-0.778296 -1.747962,-1.743002 0,-0.964706 0.783259,-1.747966 1.747962,-1.747966 z M 15.024234,27.860732 c -1.107609,0 -2.001196,0.899287 -2.001196,2.006895 0,1.107612 0.893587,2.0069 2.001196,2.0069 1.10761,0 2.006897,-0.899288 2.006897,-2.006901 0,-1.107608 -0.899287,-2.006895 -2.006897,-2.006895 z"
     id="path-main"
      />
</defs>
<acyl-settings>
<linearGradient
     id="linearGradient4321">
    <stop
       style="stop-color:#FFFFFF;stop-opacity:1.0;"
       offset="1.0"
       id="stop1" />
  </linearGradient>
<linearGradient
     inkscape:collect="always"
     xlink:href="#linearGradient4321"
     id="acyl_gradient"
     x1="50.0%"
     y1="0.0%"
     x2="50.0%"
     y2="100.0%" />
<filter>
    </filter>
<use id="1" style="fill:url(#acyl_gradient);filter:url(#filter1111)" xlink:href="#path-main" />
</acyl-settings>
</svg>
