<svg xmlns="http://www.w3.org/2000/svg" width="48" height="48">
<defs>
<defs
     id="defs2358">
  </defs>
  <path
     d="M 24,2 C 19.930216,2 16.122849,3.1169929 12.850543,5.048913 L 6.9619565,2.2690217 7.9483696,8.9646739 C 4.2598622,12.900129 2,18.189486 2,24 2,36.136842 11.863157,46 24,46 36.136842,46 45.999999,36.136842 46,24 46,18.09846 43.663804,12.739139 39.872283,8.7853261 L 40.679348,2.1793478 35.059783,4.9891304 C 31.8086,3.0914071 28.030741,2 24,2 z m 0,2.2717391 C 34.915201,4.271739 43.728261,13.084798 43.728261,24 c 0,1.097764 -0.09757,2.179849 -0.269022,3.228261 l -38.9184781,0 C 4.3693043,26.179849 4.2717391,25.097764 4.2717391,24 4.2717391,13.084798 13.084798,4.2717391 24,4.2717391 z M 11.206522,20.532609 c -1.2971318,0 -2.3318752,1.03439 -2.331522,2.331521 -3.535e-4,1.297131 1.0343904,2.361413 2.331522,2.361413 1.297131,0 2.361766,-1.064283 2.361413,-2.361413 3.53e-4,-1.29713 -1.064282,-2.331521 -2.361413,-2.331521 z m 25.527174,0 c -1.297133,0 -2.361767,1.03439 -2.361413,2.331521 -3.54e-4,1.297131 1.06428,2.361413 2.361413,2.361413 1.29713,0 2.361765,-1.064283 2.361413,-2.361413 3.52e-4,-1.29713 -1.064283,-2.331521 -2.361413,-2.331521 z m -31.595109,9.296195 5.709239,0 2.989131,6.546196 2.630434,-6.546196 14.527174,0 2.989131,6.546196 2.630434,-6.546196 6.247283,0 C 40.386974,37.896914 32.891135,43.728261 24,43.728261 c -8.891136,0 -16.3869743,-5.831347 -18.861413,-13.899457 z"
     id="path-main"
      />
</defs>
<acyl-settings>
<linearGradient
     id="linearGradient4321">
    <stop
       style="stop-color:#FFFFFF;stop-opacity:1.0;"
       offset="1.0"
       id="stop1" />
  </linearGradient>
<linearGradient
     inkscape:collect="always"
     xlink:href="#linearGradient4321"
     id="acyl_gradient"
     x1="50.0%"
     y1="0.0%"
     x2="50.0%"
     y2="100.0%" />
<filter>
    </filter>
<use id="1" style="fill:url(#acyl_gradient);filter:url(#filter1111)" xlink:href="#path-main" />
</acyl-settings>
</svg>
