<svg xmlns="http://www.w3.org/2000/svg" width="48" height="48">
<defs>
<path
   id="path-main"
   
   d="m 4.6629477,6.0220977 c -1.4392421,0 -2.5884241,1.149182 -2.5884241,2.5884242 l 0,30.8783791 c 0,1.439241 1.149182,2.588424 2.5884241,2.588424 l 38.6741023,0 c 1.439242,0 2.588425,-1.149183 2.588425,-2.588424 l 0,-30.8783791 c 0,-1.4392422 -1.149183,-2.5884242 -2.588425,-2.5884242 l -38.6741023,0 z M 23.999999,10.407193 c 1.614949,0 2.923883,1.309706 2.923397,2.923397 3.78e-4,1.253972 -0.808295,2.29532 -1.91848,2.710232 -7.88e-4,0.398884 -0.0037,0.804565 0,1.18763 l 4.324191,0 c 0.288164,0 0.517685,0.229521 0.517685,0.517685 l 0,0.913562 c 0,0.288163 -0.22952,0.517684 -0.517685,0.517684 l -4.293739,0 c 0.0061,3.134901 -0.03045,6.480609 -0.03045,10.84093 -0.0077,0.719202 -0.02808,1.443175 0,2.162096 -0.0073,0.116356 0.05819,0.235791 0.152261,0.30452 0.266303,0.199171 0.586319,0.264811 0.913561,0.274069 0.520363,-0.0032 0.84202,-0.136163 1.33989,-0.274069 1.124354,-0.329144 2.197506,-0.789114 3.227918,-1.33989 0.433834,-0.24079 0.862526,-0.479333 1.248534,-0.791753 0.166375,-0.142101 0.352659,-0.343746 0.334972,-0.578589 -0.02247,-0.177777 -0.108937,-0.363349 -0.30452,-0.395877 -0.176278,-0.02795 -0.331359,0.0629 -0.487233,0.121808 -0.134369,0.05801 -0.234661,-0.101348 -0.213164,-0.213164 0.02162,-0.29457 0.121632,-0.567227 0.274068,-0.822205 0.317151,-0.522252 0.80287,-0.91452 1.309438,-1.248534 0.540849,-0.345779 1.119049,-0.725955 1.461698,-1.278987 0.06816,-0.102208 0.15181,-0.26751 0.304521,-0.213164 0.212295,0.06893 0.322349,0.277225 0.426329,0.456781 0.292556,0.557358 0.446686,1.154794 0.578589,1.766219 0.108428,0.486482 0.129233,0.996459 0.09136,1.49215 -0.03921,0.495975 -0.07343,0.99853 -0.274069,1.461699 -0.126359,0.304374 -0.357064,0.553573 -0.578589,0.791753 -0.141354,-0.149621 -0.281718,-0.310222 -0.426328,-0.456781 -0.187402,-0.188345 -0.426126,-0.310621 -0.700397,-0.274068 -0.373298,0.0481 -0.71156,0.270753 -1.004918,0.487232 -0.413215,0.321686 -0.797064,0.66213 -1.218082,0.974466 -0.666206,0.509693 -1.407226,0.886627 -2.162096,1.248534 -0.628911,0.292384 -1.265835,0.58442 -1.918479,0.822205 -0.116877,0.0511 -0.246431,0.04878 -0.365424,0.09136 -1.167483,0.486083 -2.1738,1.032018 -2.984301,2.040287 -0.006,0.02829 0.0061,0.06318 0,0.09136 -0.0094,-0.01209 -0.0211,-0.01849 -0.03045,-0.03045 -0.0094,0.01197 -0.0211,0.01836 -0.03045,0.03045 -0.0012,-0.01334 0.0012,-0.0469 0,-0.0609 -0.813049,-1.020101 -1.809694,-1.581689 -2.984301,-2.070739 -0.118993,-0.04257 -0.248547,-0.04026 -0.365425,-0.09136 -0.652643,-0.237785 -1.289568,-0.529821 -1.918479,-0.822205 -0.75487,-0.361907 -1.495889,-0.738841 -2.162095,-1.248534 -0.421018,-0.312336 -0.804867,-0.65278 -1.218082,-0.974466 -0.293358,-0.216479 -0.631621,-0.439133 -1.004918,-0.487232 -0.274271,-0.03655 -0.512996,0.08572 -0.700397,0.274068 -0.144611,0.146559 -0.284975,0.30716 -0.426329,0.456781 -0.221524,-0.23818 -0.45223,-0.487379 -0.578589,-0.791753 -0.200642,-0.463169 -0.234856,-0.965724 -0.274068,-1.461699 -0.03788,-0.495691 -0.01707,-1.005668 0.09136,-1.49215 0.131903,-0.611425 0.286033,-1.208861 0.578589,-1.766219 0.103979,-0.179556 0.214033,-0.387847 0.426329,-0.456781 0.152711,-0.05435 0.236356,0.110956 0.30452,0.213164 0.342649,0.553032 0.92085,0.933208 1.461698,1.278987 0.506569,0.334014 0.992287,0.726282 1.309439,1.248534 0.152435,0.254978 0.252445,0.527635 0.274068,0.822205 0.0215,0.111816 -0.07879,0.271174 -0.213164,0.213164 -0.155875,-0.05891 -0.310955,-0.149756 -0.487233,-0.121808 -0.195583,0.03253 -0.282049,0.2181 -0.304521,0.395877 -0.01769,0.234843 0.168598,0.436488 0.334973,0.578589 0.386007,0.31242 0.8147,0.550963 1.248534,0.791753 1.030412,0.550776 2.103563,1.010746 3.227917,1.33989 0.49787,0.137906 0.819528,0.270853 1.33989,0.274069 0.327242,-0.0093 0.647259,-0.0749 0.913562,-0.274069 0.09408,-0.06873 0.159569,-0.188164 0.15226,-0.30452 0.02808,-0.718921 0.0077,-1.442894 0,-2.162096 0,-4.360321 -0.03659,-7.706029 -0.03045,-10.84093 l -4.293739,0 c -0.288164,0 -0.517685,-0.229521 -0.517685,-0.517684 l 0,-0.913562 c 0,-0.288164 0.229522,-0.517685 0.517685,-0.517685 l 4.324191,0 c 0.0037,-0.383065 7.88e-4,-0.788746 0,-1.18763 -1.110186,-0.414912 -1.918856,-1.45626 -1.918479,-2.710232 -4.85e-4,-1.613691 1.308441,-2.923397 2.923397,-2.923397 z m -0.0609,1.431246 c -0.78396,0 -1.431482,0.61745 -1.431247,1.400795 -2.35e-4,0.783346 0.647287,1.431246 1.431247,1.431246 0.783957,0 1.431482,-0.647901 1.431246,-1.431246 2.37e-4,-0.783345 -0.647289,-1.400795 -1.431246,-1.400795 z"
 />
</defs>
<acyl-settings>
<linearGradient
     id="linearGradient4321">
    <stop
       style="stop-color:#FFFFFF;stop-opacity:1.0;"
       offset="1.0"
       id="stop1" />
  </linearGradient>
<linearGradient
     inkscape:collect="always"
     xlink:href="#linearGradient4321"
     id="acyl_gradient"
     x1="50.0%"
     y1="0.0%"
     x2="50.0%"
     y2="100.0%" />
<filter>
    </filter>
<use id="1" style="fill:url(#acyl_gradient);filter:url(#filter1111)" xlink:href="#path-main" />
</acyl-settings>
</svg>
