<svg xmlns="http://www.w3.org/2000/svg" width="48" height="48">
<defs>
  <path
     d="M 44.800232,3 C 40.849997,11.663703 40.25372,11.952048 38.383723,13.677725 37.255546,12.767773 35.732506,11.672986 37.424772,11.218009 36.409412,10.194313 33.02488,8.374408 35.506871,7.691943 33.588969,6.213271 30.655707,6.554503 32.912062,4.962085 c -1.917901,-0.341232 -4.061438,0 -3.49735,-1.592416 -1.353813,0.341232 -3.046079,2.957345 -3.835803,3.071089 -0.638864,0.09202 -1.724478,0.699978 -2.890955,1.834124 -0.275451,0.267817 -0.551864,0.569807 -0.832034,0.895734 -1.46663,1.706161 -4.39989,3.184835 -4.17425,5.687204 1.57945,-0.454976 1.69226,-1.478672 3.72298,-2.161137 2.030722,-0.682464 5.076801,-1.819906 5.753707,-2.843602 1.805084,0.113744 3.384533,-0.113744 3.384533,1.137441 -1.466631,1.023697 -4.174257,4.663507 -7.107518,6.369668 C 20.50211,19.066351 8.31779,26.232228 5.27171,33.739336 c 0,0 6.32085,-7.056736 10.7882,-9.7109 4.46736,-2.654164 10.837005,-5.779065 11.874069,-6.824644 C 27.614882,20.260101 16.30241,30.384723 15.18557,30.867299 17.73835,29.821719 26.172862,22.689013 27.130153,21 c -1.116839,2.975881 -5.327463,9.394481 -6.204973,10.037915 1.435932,-0.723863 8.297355,-10.542935 8.616452,-12.07109 0,3.140029 -1.79505,9.400651 -2.496092,10.720379 1.906651,-2.716558 3.097988,-7.84562 4.653732,-8.78673 0.149576,1.508048 -0.485919,5.900979 -0.846133,8.004739 C 34.293401,28.186377 46.615095,8.388757 44.800232,3 z M 45.03997,3.213271 C 46.05533,9.582938 36.52223,23.957346 33.137698,27.483412 29.753165,31.009479 19.93802,32.658768 12.49205,35.161138 5.04608,37.663507 2,45 2,45 c 0,0 5.75371,-10.919432 21.99946,-6.483413 0.03999,-0.04032 0.0863,-0.07381 0.12692,-0.113743 0.182748,-0.3313 2.085593,-3.669321 5.344741,-5.914692 3.384532,-2.331754 8.179287,-6.085308 11.676637,-12.056872 -2.087128,4.549763 -7.389563,9.099526 -8.912602,10.293839 -1.256795,0.985533 -5.276886,4.232 -6.585736,6.127962 3.052187,-2.051396 7.280685,-3.104545 10.985628,-2.772513 2.48199,-4.094786 12.466361,-22.905212 8.404922,-30.867297 z M 24.676367,8.2891 c -0.07977,0.703756 -0.458185,0.805548 -1.734573,0.725119 0.33904,-0.301611 0.637678,-0.765333 1.734573,-0.725119 z m 2.538399,9.824644 c -2.712323,1.970516 -9.845836,5.60357 -11.281776,6.568721 -1.31753,0.885564 -3.09903,2.080086 -6.52933,5.900473 0,0 2.86207,-1.000486 5.17552,0.08531 1.51571,-1.48794 10.282247,-7.929823 12.635586,-12.554502 z m 1.917902,2.43128 c -1.466631,2.50237 -6.148567,9.298578 -7.248538,10.293839 0,0 2.171739,-1.535545 4.794752,-1.137441 1.099973,-2.473934 2.453786,-7.308057 2.453786,-9.156398 z m 2.312764,1.194313 c -1.382018,1.222748 -2.820444,6.909952 -4.033235,7.933649 0,0 1.212791,-0.909953 3.074284,-0.995261 0.394862,-1.649289 0.987155,-5.061611 0.958951,-6.938388 z m -5.584479,0.99526 c -2.087128,2.473934 -7.333153,6.682465 -9.589513,7.990522 0,0 2.87686,-0.483413 4.17426,0.227488 0.98716,-1.080569 2.84865,-3.07109 5.415253,-8.21801 z"
     id="path-main" />
</defs>
<acyl-settings>
<linearGradient
     id="linearGradient4321">
    <stop
       style="stop-color:#FFFFFF;stop-opacity:1.0;"
       offset="1.0"
       id="stop1" />
  </linearGradient>
<linearGradient
     inkscape:collect="always"
     xlink:href="#linearGradient4321"
     id="acyl_gradient"
     x1="50.0%"
     y1="0.0%"
     x2="50.0%"
     y2="100.0%" />
<filter>
    </filter>
<use id="1" style="fill:url(#acyl_gradient);filter:url(#filter1111)" xlink:href="#path-main" />
</acyl-settings>
</svg>
