<svg xmlns="http://www.w3.org/2000/svg" width="48" height="48">
<defs>
<defs
     id="defs3306">
  </defs>
  <path
     id="path-main"
     d="M 19.130208,2 C 9.3242666,4.2436632 2,13.120625 2,23.724456 2,36.020556 11.856,46.000002 24,46 36.144,46 46.000002,36.020557 46,23.724456 46,13.152534 38.717261,4.3056979 28.955729,2.0290046 l 0,6.4100194 4.526042,0 -9.453125,8.788399 -9.510417,-8.788399 4.611979,0 0,-6.439024 z M 24,19.083718 c 2.53,0 4.583333,2.07905 4.583333,4.640738 0,2.561689 -2.053333,4.640738 -4.583333,4.640738 -2.53,0 -4.583333,-2.079049 -4.583333,-4.640738 0,-2.561688 2.053333,-4.640738 4.583333,-4.640738 z" />
</defs>
<acyl-settings>
<linearGradient
     id="linearGradient4321">
    <stop
       style="stop-color:#FFFFFF;stop-opacity:1.0;"
       offset="1.0"
       id="stop1" />
  </linearGradient>
<linearGradient
     inkscape:collect="always"
     xlink:href="#linearGradient4321"
     id="acyl_gradient"
     x1="50.0%"
     y1="0.0%"
     x2="50.0%"
     y2="100.0%" />
<filter>
    </filter>
<use id="1" style="fill:url(#acyl_gradient);filter:url(#filter1111)" xlink:href="#path-main" />
</acyl-settings>
</svg>
