<svg xmlns="http://www.w3.org/2000/svg" width="48" height="48">
<defs>
  <path
     id="path-main"
     d="M 16.165773,4.5990137 C 15.75149,5.0760357 15.569844,5.731714 15.745929,6.3888778 l 2.342291,8.7504472 c 0.281737,1.051462 1.35712,1.718048 2.408582,1.43631 l 1.038563,-0.287262 c -0.0067,-0.02029 -0.01564,-0.04556 -0.0221,-0.06629 0.164717,-0.03128 0.316491,-0.04293 0.486136,-0.08839 0.711423,-0.190625 1.287134,-0.541707 1.856156,-0.928078 2.211395,1.33091 3.933282,4.885731 3.933281,9.148194 0,4.246261 -1.711925,7.783213 -3.911184,9.126097 -0.574817,-0.382242 -1.177406,-0.71819 -1.878253,-0.905981 -0.02758,-0.0074 -0.06053,0.0071 -0.08839,0 -0.117096,-0.05849 -0.266315,-0.09737 -0.397748,-0.132582 l -0.994369,-0.287262 c -1.051462,-0.281739 -2.171037,0.340655 -2.452776,1.392116 l -2.342291,8.750446 c -0.28174,1.051462 0.384848,2.171038 1.43631,2.452777 l 0.972272,0.265165 c 0.06962,0.01866 0.151287,0.03358 0.220971,0.04419 0.08118,0.02684 0.157659,0.0434 0.243068,0.06629 1.507294,0.403877 3.072102,0.224402 4.39732,-0.375651 0.04207,-0.01905 0.09096,-0.02425 0.132583,-0.04419 3.075541,-0.561014 5.711842,-3.037802 7.601398,-6.629126 1.917757,-3.644927 3.071495,-8.447194 3.071495,-13.722291 0,-5.303372 -1.157402,-10.132625 -3.093592,-13.788583 C 28.797588,6.9623766 26.0949,4.4790911 22.993768,3.9581952 c -0.04227,-0.01953 -0.08989,-0.025574 -0.132582,-0.044194 -1.30233,-0.5679821 -2.789804,-0.7266639 -4.264738,-0.3314563 -0.156481,0.041929 -0.298137,0.078517 -0.441942,0.1325826 -0.02177,0.00819 -0.04472,0.013699 -0.06629,0.022097 l -0.950175,0.2430679 c -0.394298,0.1056518 -0.723702,0.3325051 -0.972272,0.6187184 z m 0.618719,0.7954952 c 0.122475,-0.2121333 0.352195,-0.370527 0.618718,-0.4419418 l 2.894719,10.6728939 -0.04419,0 C 19.720686,15.76829 19.203321,15.407204 19.060492,14.87416 L 16.718201,6.1237127 c -0.07141,-0.2665239 -0.05618,-0.5170705 0.06629,-0.7292038 z M 19.215171,33.45781 c 0.237338,-0.298819 0.638777,-0.43858 1.038563,-0.331457 l -2.828427,10.650796 c -0.533045,-0.142829 -0.872032,-0.682293 -0.729204,-1.21534 l 2.342292,-8.750446 c 0.03571,-0.133261 0.09766,-0.253947 0.176776,-0.353553 z" />
</defs>
<acyl-settings>
<linearGradient
     id="linearGradient4321">
    <stop
       style="stop-color:#FFFFFF;stop-opacity:1.0;"
       offset="1.0"
       id="stop1" />
  </linearGradient>
<linearGradient
     inkscape:collect="always"
     xlink:href="#linearGradient4321"
     id="acyl_gradient"
     x1="50.0%"
     y1="0.0%"
     x2="50.0%"
     y2="100.0%" />
<filter>
    </filter>
<use id="1" style="fill:url(#acyl_gradient);filter:url(#filter1111)" xlink:href="#path-main" />
</acyl-settings>
</svg>
