<svg xmlns="http://www.w3.org/2000/svg" width="48" height="48">
<defs>
<defs
     id="defs7151" />
  <g
     id="layer1">
    <path
       d="M 0.376,0.37599998 C 6.1789285,6.4880594 3.6608081,10.398043 6.8447439,17.596827 C 9.7994331,24.277305 16.231223,19.276929 20.634515,24.000009 C 16.231243,28.72305 9.7775472,23.700846 6.8228777,30.381323 C 3.638961,37.580126 6.1789104,41.511939 0.376,47.623998 C 6.4880604,41.82107 10.419873,44.361038 17.618677,41.177121 C 24.299173,38.222432 19.298778,31.790642 24.021877,27.387352 C 28.711325,31.79114 23.730831,38.247889 30.403192,41.198968 C 37.603579,44.383611 41.510604,41.81979 47.624,47.623998 C 41.819812,41.510602 44.383593,37.603559 41.198971,30.403191 C 38.247892,23.73083 31.812989,28.689476 27.409201,24.000009 C 31.812989,19.310522 38.247892,24.269169 41.198971,17.596827 C 44.383613,10.396439 41.819792,6.489396 47.624,0.37599998 C 41.510585,6.1801886 37.603561,3.6164065 30.403192,6.8010295 C 23.730831,9.7521087 28.711325,16.208878 24.021877,20.612666 C 19.298797,16.209356 24.299173,9.7775659 17.618677,6.8228767 C 10.419873,3.6389606 6.4880604,6.1789283 0.376,0.37599998 z"
       id="path-main"
        />
  </g>
</defs>
<acyl-settings>
<linearGradient
     id="linearGradient4321">
    <stop
       style="stop-color:#FFFFFF;stop-opacity:1.0;"
       offset="1.0"
       id="stop1" />
  </linearGradient>
<linearGradient
     inkscape:collect="always"
     xlink:href="#linearGradient4321"
     id="acyl_gradient"
     x1="50.0%"
     y1="0.0%"
     x2="50.0%"
     y2="100.0%" />
<filter>
    </filter>
<use id="1" style="fill:url(#acyl_gradient);filter:url(#filter1111)" xlink:href="#path-main" />
</acyl-settings>
</svg>
