<svg xmlns="http://www.w3.org/2000/svg" width="48" height="48">
<defs>
<defs
     id="defs2385">
  </defs>
  <path
     d="M 10.25 3.6875 C 9.6555333 3.6952467 9.0896788 3.7428993 8.59375 3.8125 C 7.5852496 3.9161512 6.62782 4.1410497 5.84375 4.375 C 5.05968 4.6089505 4.8067322 5.1722342 4.8125 5.65625 C 4.9303077 12.317234 4.8667021 23.450441 4.96875 24.625 C 5.0731928 25.827121 5.4062509 26.303161 5.75 26.4375 C 6.1964387 26.637497 6.485259 26.424293 6.875 26.28125 C 7.1722581 26.152104 8.1962086 25.739208 9.78125 25.625 C 9.9841611 24.872426 10.240121 24.167814 10.5625 23.5 C 9.1857383 23.519725 8.0422588 23.723887 7.21875 23.9375 L 7.125 16.59375 C 7.5405242 16.419448 8.198014 16.147427 9.3125 16 C 10.988015 15.77836 13.377434 15.901319 16.25 17.09375 L 16.28125 18.46875 C 16.980122 18.253876 17.705191 18.123381 18.46875 18.0625 L 18.46875 17.9375 C 18.553764 17.970816 18.634413 17.998493 18.71875 18.03125 C 18.935182 18.01885 19.154365 18.000002 19.375 18 C 20.400726 18.000024 21.424205 18.132052 22.40625 18.4375 C 23.385311 18.742077 24.300406 19.182701 25.15625 19.75 A 1.450145 1.450145 0 0 1 25.25 19.84375 A 1.450145 1.450145 0 0 1 25.28125 19.84375 C 26.340861 19.905315 27.358031 19.792489 28.28125 19.5 L 28.34375 23.5 L 30.5 23.5 L 30.4375 17.96875 C 30.437734 17.95566 30.437734 17.95059 30.4375 17.9375 C 30.46107 17.807634 30.46107 17.692367 30.4375 17.5625 L 30.3125 7.5625 C 30.307859 7.1594498 30.106334 6.8134066 29.75 6.625 C 29.393666 6.4365935 28.960707 6.4331541 28.625 6.65625 C 27.255954 7.5834895 25.738369 7.5927366 24.15625 7.4375 C 22.221677 7.1534257 19.755572 6.3242242 16.6875 5.03125 C 15.04134 4.3375106 13.517995 3.943147 12.15625 3.78125 C 11.475378 3.7003014 10.844467 3.6797533 10.25 3.6875 z M 10.28125 5.875 C 10.779756 5.8672493 11.325433 5.8998041 11.90625 5.96875 C 13.067885 6.1066417 14.385784 6.4168209 15.84375 7.03125 C 15.93662 7.070386 16.001833 7.086597 16.09375 7.125 L 16.21875 14.75 C 12.113938 13.302685 8.8586459 13.82284 7.09375 14.34375 L 7 6.4375 C 7.4050774 6.2813982 7.9886801 6.0975257 8.90625 5.96875 C 9.3165427 5.9111678 9.7827436 5.8827507 10.28125 5.875 z M 18.34375 7.96875 C 20.375101 8.7338654 22.221938 9.3556015 23.84375 9.59375 C 25.415033 9.8244783 26.864253 9.7444309 28.15625 9.3125 L 28.25 17.0625 C 27.238576 17.598216 26.137116 17.82521 24.53125 17.5625 C 22.954728 17.304591 20.883079 16.551173 18.4375 15.5625 L 18.34375 7.96875 z M 19.375 19.4375 C 16.691462 19.437521 14.568386 20.391509 13 22.3125 C 11.431607 24.224335 10.65625 26.834478 10.65625 30.125 C 10.65625 33.40635 11.431607 35.985244 13 37.90625 C 14.568386 39.81807 16.691462 40.78125 19.375 40.78125 C 20.274296 40.78125 21.141376 40.66361 21.96875 40.40625 C 22.796099 40.148889 23.581123 39.75553 24.34375 39.25 L 24.34375 35 C 23.573929 35.670979 22.81071 36.156245 22.0625 36.46875 C 21.314266 36.781262 20.546102 36.937503 19.71875 36.9375 C 18.236684 36.937503 17.067688 36.338274 16.21875 35.125 C 15.369799 33.911736 14.937495 32.24823 14.9375 30.125 C 14.937495 27.992598 15.369799 26.307034 16.21875 25.09375 C 17.067688 23.880496 18.236684 23.281267 19.71875 23.28125 C 20.546102 23.281267 21.314266 23.437508 22.0625 23.75 C 22.81071 24.062525 23.573929 24.547791 24.34375 25.21875 L 24.34375 20.96875 C 23.581123 20.46324 22.796099 20.069881 21.96875 19.8125 C 21.141376 19.55516 20.274296 19.437521 19.375 19.4375 z M 34.625 19.78125 L 40.3125 43 L 42.6875 43 L 37 19.78125 L 34.625 19.78125 z M 18.5625 24.9375 C 18.118202 25.122746 17.764086 25.4261 17.40625 25.9375 C 17.200148 26.232053 17.027549 26.596084 16.875 27 C 19.832946 28.23154 22.244752 29.059368 24.34375 29.34375 C 25.207828 29.460819 26.049543 29.437147 26.8125 29.3125 L 26.8125 27.125 C 26.18245 27.24619 25.46936 27.270648 24.625 27.15625 C 23.064788 26.944865 21.00279 26.256197 18.5625 25.28125 L 18.5625 24.9375 z M 28.25 24.9375 L 28.25 30.28125 L 32.125 30.28125 L 32.125 24.9375 L 28.25 24.9375 z M 28.25 35.03125 L 28.25 40.375 L 32.125 40.375 L 32.125 35.03125 L 28.25 35.03125 z "
     id="path-main" />
</defs>
<acyl-settings>
<linearGradient
     id="linearGradient4321">
    <stop
       style="stop-color:#FFFFFF;stop-opacity:1.0;"
       offset="1.0"
       id="stop1" />
  </linearGradient>
<linearGradient
     inkscape:collect="always"
     xlink:href="#linearGradient4321"
     id="acyl_gradient"
     x1="50.0%"
     y1="0.0%"
     x2="50.0%"
     y2="100.0%" />
<filter>
    </filter>
<use id="1" style="fill:url(#acyl_gradient);filter:url(#filter1111)" xlink:href="#path-main" />
</acyl-settings>
</svg>
