<svg xmlns="http://www.w3.org/2000/svg" width="48" height="48">
<defs>
  <path
     d="m 23.430496,1.9999222 c -5.601611,0 -10.149081,4.562908 -10.149081,10.1630608 0,2.502108 0.911954,4.788872 2.418445,6.556362 -2.609972,0.612611 -5.009439,1.479979 -7.0456417,2.488341 -1.967853,0.974514 -3.589432,2.064856 -4.753013,3.187315 C 2.7376233,25.51746 2,26.677028 2,27.861908 c 0,0.40897 0.2416959,0.78078 0.5312189,0.99254 0.2895234,0.21175 0.6207274,0.33605 0.9925414,0.43336 0.743627,0.19462 1.653861,0.26973 2.558239,0.34949 0.904378,0.0798 1.807867,0.15814 2.446404,0.29356 0.319268,0.0677 0.566492,0.1632 0.698972,0.23766 0.06624,0.0372 0.09995,0.0622 0.111836,0.0699 l 1.7474307,11.81264 0.01398,0.0839 c 0.01439,0.63418 0.180409,1.22011 0.48928,1.67754 0.295718,0.43795 0.761426,0.72865 1.300089,0.78285 l 0,0.028 c 7.15317,1.84811 14.200341,1.82292 21.053051,0 l 0,-0.028 c 0.538768,-0.0536 1.009066,-0.34673 1.314068,-0.78285 0.318715,-0.45574 0.48786,-1.03794 0.50326,-1.67754 l 0.01398,-0.0839 1.733452,-11.72876 0,-0.0419 0.01398,0 c -0.01006,0.0397 -0.02243,0.0501 -0.01398,0.0419 0.0084,-0.008 0.03773,-0.0347 0.111836,-0.0699 0.148223,-0.0703 0.413922,-0.14595 0.740908,-0.20969 0.653977,-0.12748 1.557776,-0.21238 2.460385,-0.30755 0.902605,-0.0952 1.806577,-0.20357 2.544258,-0.41938 0.36884,-0.10791 0.695058,-0.24277 0.978565,-0.46132 0.283502,-0.21856 0.517239,-0.58575 0.517239,-0.99254 0,-1.18488 -0.737626,-2.344448 -1.901206,-3.466907 -1.163581,-1.122459 -2.785158,-2.212801 -4.753013,-3.187315 -2.032777,-1.006665 -4.426794,-1.875871 -7.031664,-2.488341 1.500949,-1.767935 2.404466,-4.059646 2.404466,-6.556362 0,-5.6001528 -4.547471,-10.1630608 -10.14908,-10.1630608 z"
     id="path-main"
     />
</defs>
<acyl-settings>
<linearGradient
     id="linearGradient4321">
    <stop
       style="stop-color:#FFFFFF;stop-opacity:1.0;"
       offset="1.0"
       id="stop1" />
  </linearGradient>
<linearGradient
     inkscape:collect="always"
     xlink:href="#linearGradient4321"
     id="acyl_gradient"
     x1="50.0%"
     y1="0.0%"
     x2="50.0%"
     y2="100.0%" />
<filter>
    </filter>
<use id="1" style="fill:url(#acyl_gradient);filter:url(#filter1111)" xlink:href="#path-main" />
</acyl-settings>
</svg>
