<svg xmlns="http://www.w3.org/2000/svg" width="48" height="48">
<defs>
  <path
     d="m 16.134019,5.9352223 c -0.897774,-0.0077 -1.710626,0.05266 -2.353808,0.175167 -2.572724,0.490043 -5.7513458,2.390328 -7.4664948,4.1054777 -1.71515,1.715149 -2.643417,3.485653 -3.3172259,5.813356 -0.6738088,2.327702 -1.2149558,7.470438 -0.9086791,9.491864 0.3062765,2.021426 1.528811,5.216449 2.080109,6.196534 0.551298,0.980086 0.55356,1.670899 0.492657,2.813619 -0.165664,3.10835 3.729351,7.81971 3.853675,7.29133 0,0 0.06361,-1.16961 0.186115,-1.5984 0.122511,-0.42878 0.547663,-0.24032 0.853939,0.37223 0.306277,0.61256 1.2835238,1.3466 1.7735668,1.3466 0.490042,0 1.346862,-0.36416 1.653139,-1.16048 0.306276,-0.79632 0.37223,-1.65314 0.37223,-1.65314 0,0 1.106007,-0.43429 1.412284,-1.29186 0.306277,-0.85758 0.3631,-2.38745 -0.06569,-3.30628 -0.428787,-0.91883 -1.715457,-1.4102 -2.879308,-1.53271 -1.163852,-0.12251 -3.7361278,-0.302109 -4.5324468,-0.240854 -0.796319,0.06126 -1.285607,0.0013 -1.653139,-1.040055 -0.367533,-1.04134 -0.546866,-4.290837 0.06569,-5.944731 0.612554,-1.653894 1.158664,-3.1882 1.587452,-3.371966 0.428787,-0.183766 0.919627,0.678773 0.919627,0.678773 l -0.186115,-1.653139 c 0,0 0.495537,-0.801815 1.291857,-1.291858 0.7963188,-0.490042 1.5874508,-0.547397 1.5874508,-0.547397 l 0.492657,1.773567 c 0,0 -0.06307,-1.108357 0.42697,-1.598399 0.490042,-0.490043 1.714926,-0.422272 2.266224,-0.05474 0.551298,0.367532 3.495804,2.575646 4.904677,3.371966 1.408873,0.796319 5.812154,3.242939 11.998943,3.426705 6.186788,0.183766 13.115632,-0.37223 13.115632,-0.37223 0,0 -3.307873,-0.489819 -5.145531,-2.266224 -1.837661,-1.776405 -4.83899,-5.572502 -4.83899,-5.572502 0,0 0.431401,-0.554443 0.492657,-1.105742 0.06126,-0.551298 -0.49944,-1.957597 -0.74446,-2.080108 -0.24502,-0.122511 -0.42697,-0.547397 -0.42697,-0.547397 0,0 1.681566,0.371169 4.663823,2.934048 -2.423086,-3.028857 -6.130847,-3.919363 -6.130847,-3.919363 3.190184,-2.003712 7.369768,-2.333491 14.024312,1.477972 0,0 -3.734884,-3.369882 -8.145268,-3.492393 -4.410384,-0.12251 -7.65261,1.401336 -7.65261,1.401336 l -0.864887,-0.613084 c 0,0 0.0675,-0.366246 -0.361282,-1.040055 C 28.547166,10.636852 26.34424,8.6820923 24.016537,7.4569853 22.270759,6.5381563 18.82734,5.9581923 16.13402,5.9352223 z M 27.705992,16.062067 c 1.351797,0 2.44139,1.089592 2.44139,2.441391 0,1.351797 -1.089593,2.452338 -2.44139,2.452338 -1.351798,0 -2.452339,-1.100541 -2.452339,-2.452338 0,-1.351799 1.100541,-2.441391 2.452339,-2.441391 z"
     id="path-main"
      />
</defs>
<acyl-settings>
<linearGradient
     id="linearGradient4321">
    <stop
       style="stop-color:#FFFFFF;stop-opacity:1.0;"
       offset="1.0"
       id="stop1" />
  </linearGradient>
<linearGradient
     inkscape:collect="always"
     xlink:href="#linearGradient4321"
     id="acyl_gradient"
     x1="50.0%"
     y1="0.0%"
     x2="50.0%"
     y2="100.0%" />
<filter>
    </filter>
<use id="1" style="fill:url(#acyl_gradient);filter:url(#filter1111)" xlink:href="#path-main" />
</acyl-settings>
</svg>
