<svg xmlns="http://www.w3.org/2000/svg" width="48" height="48">
<defs>
  <path
     d="m 9.9635808,2.000004 c -2.7468304,0 -4.9323308,2.1854999 -4.9323308,4.9323308 l 0,32.4812032 c 0,2.74683 2.1855001,4.932331 4.9323308,4.932331 l 15.2481202,0 c -0.461507,-0.69696 -0.721804,-1.534472 -0.721804,-2.436091 0,-0.668173 0.187166,-1.274833 0.481203,-1.804511 l -5.714286,0 c -0.753179,0.750311 -1.783036,1.203008 -2.917293,1.203008 -1.126345,0 -2.168804,-0.467362 -2.917294,-1.203008 l -1.864661,0 c -1.204041,-10e-7 -2.1654137,-0.961372 -2.1654137,-2.165413 l 0,-29.533835 c 0,-1.2040401 0.9613727,-2.1654135 2.1654137,-2.1654135 l 23.30827,0 c 1.204043,0 2.165414,0.9613724 2.165414,2.1654135 l 0,25.353383 2.406015,0.571429 c 0.484984,-0.301937 1.053456,-0.540891 1.744361,-0.511278 0.02049,0 0.03973,-3.11e-4 0.06015,0 0.02034,3.1e-4 0.03989,-6.16e-4 0.06015,0 l 0,-26.8872182 c 0,-2.7468309 -2.215575,-4.9323308 -4.962406,-4.9323308 l -26.3759402,0 z m 3.6691732,7.368421 c -0.59738,0 -1.082707,0.485327 -1.082707,1.082707 l 0,6.345864 c 0,0.59738 0.485327,1.082706 1.082707,1.082707 l 11.338346,0 c -8.2e-5,-0.01 0,-0.02009 0,-0.03008 0,-1.580604 0.935439,-2.886267 2.225564,-3.578947 0.641604,-0.35593 1.283207,-0.505604 1.924812,-0.541354 2.195809,0 4.037177,1.746353 4.1203,3.969925 0.296751,-0.191341 0.511279,-0.520987 0.511279,-0.902256 l 0,-6.345864 c 0,-0.59738 -0.485326,-1.082707 -1.082707,-1.082707 l -19.037594,0 z m 14.43609,4.962406 c -1.533409,0.458221 -2.706767,1.811152 -2.706767,3.518797 0,1.168393 0.581314,2.179295 1.413534,2.857143 l 0.09023,8.270677 c -1.757848,0.796589 -3.035757,2.432959 -3.157894,4.451127 l -4.992481,1.142858 c -0.656366,-0.64891 -1.547619,-0.900374 -2.37594,-0.962406 -2.044921,0 -3.729324,1.615315 -3.729324,3.639097 0,2.023566 1.681073,3.669173 3.729324,3.669173 1.386448,0 2.6029,-0.731806 3.24812,-1.864661 0.01698,-0.02848 0.01769,-0.06038 0.03008,-0.09023 l 5.684211,-1.473684 c 0.452749,0.445556 0.950917,0.850798 1.533834,1.112782 -1.105778,0.728434 -1.954887,1.869319 -1.954887,3.30827 0,2.294552 1.911293,4.090226 4.150376,4.090226 2.239081,0 4.120301,-1.797423 4.120301,-4.090226 0,-1.443466 -0.843207,-2.580227 -1.954887,-3.30827 0.530683,-0.243075 0.9873,-0.62484 1.413533,-1.022557 l 5.383459,1.413534 c 0.247642,0.639318 0.603035,1.189241 1.112782,1.533835 0.590641,0.39928 1.300742,0.629329 2.045113,0.721804 l 0.03008,0 c 1.964878,0 3.578947,-1.575125 3.578947,-3.518797 0,-1.933697 -1.597675,-3.502698 -3.548872,-3.518797 -0.01007,-8.2e-5 -0.01999,0 -0.03007,0 -0.614047,-0.03219 -1.090764,0.262339 -1.533835,0.541354 l -0.03007,0 -5.323308,-1.203008 c -0.08474,-2.073347 -1.383929,-3.7967 -3.18797,-4.601504 -0.04251,-2.357662 -0.03214,-7.318198 -0.03008,-7.969924 1.045019,-0.654078 1.804511,-1.78857 1.804511,-3.12782 0,-2.010272 -1.609476,-3.553181 -3.548872,-3.669173 -0.658113,-0.06841 -0.903295,0.06966 -1.263158,0.150376 z m 1.052632,1.263158 c 1.364439,0 2.406015,1.025318 2.406015,2.255639 0,1.230321 -1.041576,2.285714 -2.406015,2.285714 -1.364439,0 -2.406015,-1.055393 -2.406015,-2.285714 0,-1.230321 1.041576,-2.255639 2.406015,-2.255639 z m -15.609023,5.473684 c -0.521916,0 -0.962406,0.410415 -0.962406,0.932331 l 0,3.398496 c 0,0.521917 0.44049,0.932331 0.962406,0.932331 l 3.398496,0 c 0.521916,0 0.962407,-0.410414 0.962406,-0.932331 l 0,-3.398496 c 0,-0.521915 -0.440489,-0.932331 -0.962406,-0.932331 l -3.398496,0 z m 7.93985,0 c -0.521916,0 -0.932332,0.410415 -0.932331,0.932331 l 0,3.398496 c 0,0.521917 0.410416,0.932331 0.932331,0.932331 l 3.398496,0 c 0.521916,0 0.932332,-0.410414 0.932331,-0.932331 l 0,-3.398496 c 0,-0.521915 -0.410414,-0.932331 -0.932331,-0.932331 l -3.398496,0 z m 10.045112,0 c -0.01131,0.0083 -0.0187,0.02187 -0.03008,0.03008 -0.0016,0.517741 0.0194,3.0865 0.03008,5.233083 l 1.323309,0 c 0.521916,0 0.932331,-0.410414 0.932331,-0.932331 l 0,-3.398496 c 0,-0.521915 -0.410416,-0.932331 -0.932331,-0.932331 l -1.323309,0 z m -3.518797,0.240602 c 0.373249,0.12163 0.732772,0.270676 1.142858,0.270676 0.25651,0 0.505689,-0.07174 0.751879,-0.1203 -0.0049,1.174959 -0.0458,5.591434 0,7.729323 -0.573896,0.217403 -1.070562,0.199679 -1.744361,-0.03008 l -0.150376,-7.849619 z m -14.466165,8.631579 c -0.521916,0 -0.962406,0.440491 -0.962406,0.962406 l 0,3.398496 c 0,0.301252 0.142983,0.550403 0.360902,0.721804 0.74318,-1.090268 2.009363,-1.804511 3.428572,-1.804511 l 0.03008,0 c 0.494715,0.03705 1.002973,0.186964 1.503759,0.421053 l 0,-2.736842 c 0,-0.521915 -0.440489,-0.962407 -0.962406,-0.962406 l -3.398496,0 z m 7.93985,0 c -0.521916,0 -0.932332,0.440491 -0.932331,0.962406 l 0,2.857142 2.857143,-0.661654 c 0.142519,-1.224405 0.657199,-2.305553 1.443609,-3.157894 l -3.368421,0 z m 2.406015,4.691729 c 0.109858,0.646079 0.34047,1.230549 0.661654,1.774436 l -5.172933,1.383459 c -0.293059,-0.321307 -0.468012,-0.613066 -0.511278,-0.902256 -0.04016,-0.268425 0.01701,-0.682858 0.120301,-1.142857 l 4.902256,-1.112782 z m 10.255639,0.120301 5.082707,1.172932 c 0.09902,0.446993 0.189694,0.880054 0.150375,1.142857 -0.04219,0.281948 -0.250082,0.553059 -0.541353,0.872181 L 33.392152,36.52632 c 0.342481,-0.53962 0.593052,-1.12686 0.721805,-1.774436 z M 16.339521,34.90226 c 0.481988,0 0.982116,0.158494 1.353383,0.360902 -0.140352,0.595812 -0.206271,1.198191 -0.210526,1.744361 l 0,0.03007 0,0.03008 c 0.08551,0.571518 0.464594,1.058794 0.87218,1.533835 -0.455097,0.558163 -1.24433,0.992481 -2.015037,0.992481 -1.352638,0 -2.436091,-1.043905 -2.436091,-2.345865 0,-1.302218 1.079396,-2.345864 2.436091,-2.345864 z m 24.842105,0.661654 c 1.242149,0 2.225564,0.97338 2.225564,2.165413 0,1.192033 -0.983415,2.135339 -2.225564,2.135339 -0.636625,0 -1.283904,-0.333289 -1.714286,-0.75188 0.231202,-0.187634 0.518665,-0.32986 0.661654,-0.571429 0.236954,-0.400314 0.372264,-0.826614 0.511279,-1.203007 l 0.03007,-0.03008 0,-0.03008 c 0.08142,-0.544237 -0.06535,-1.067001 -0.180451,-1.593984 0.236494,-0.0595 0.496267,-0.120301 0.691729,-0.120301 z m -11.969928,0.240601 c 0.460914,0.02268 0.771638,0.262838 0.932334,0.481203 l 0.03008,1.864662 0.03008,0.661654 c -0.370253,-0.130496 -0.753171,-0.240601 -1.172932,-0.240601 -0.463186,0 -0.721647,-0.05678 -1.123102,0.100545 l 0.01032,-0.491523 0,-1.894737 c 0.36917,-0.307114 0.847436,-0.50314 1.293233,-0.481203 z m 7.5188,3.248121 c -0.382224,0.633233 -1.072001,1.052631 -1.864662,1.052631 l -1.804511,0 c 0.294331,0.529806 0.481203,1.13731 0.481203,1.804511 0,0.900359 -0.265282,1.739067 -0.721804,2.436091 l 3.518797,0 c 1.973008,0 3.64767,-1.140207 4.451127,-2.796993 -0.673109,-0.112291 -1.32394,-0.305865 -1.894736,-0.691729 -0.498313,-0.336864 -0.799505,-0.942469 -1.082707,-1.533835 l -1.082707,-0.270676 z m -7.699248,0.300751 c 1.536368,0 2.676692,1.167283 2.676692,2.556391 0,1.389112 -1.142424,2.586467 -2.676692,2.586467 -1.534269,0 -2.706767,-1.197355 -2.706767,-2.586467 0,-1.389108 1.170398,-2.556391 2.706767,-2.556391 z"
     id="path-main"/>
</defs>
<acyl-settings>
<linearGradient
     id="linearGradient4321">
    <stop
       style="stop-color:#FFFFFF;stop-opacity:1.0;"
       offset="1.0"
       id="stop1" />
  </linearGradient>
<linearGradient
     inkscape:collect="always"
     xlink:href="#linearGradient4321"
     id="acyl_gradient"
     x1="50.0%"
     y1="0.0%"
     x2="50.0%"
     y2="100.0%" />
<filter>
    </filter>
<use id="1" style="fill:url(#acyl_gradient);filter:url(#filter1111)" xlink:href="#path-main" />
</acyl-settings>
</svg>
