<svg xmlns="http://www.w3.org/2000/svg" width="48" height="48">
<defs>
  <path
     d="m 2,5.780303 0,2.4848485 1.9393939,0 0,-2.4848485 -1.9393939,0 z m 41.454545,0 0,2.4848485 1.939394,0 0,-2.4848485 -1.939394,0 z M 2,8.871212 l 0,2.484849 1.9393939,0 0,-2.484849 -1.9393939,0 z m 2.4242424,0 0,2.484849 1.969697,0 0,-2.484849 -1.969697,0 z m 26.8181816,0 0,2.484849 1.969697,0 0,-2.484849 -1.969697,0 z m 2.454546,0 0,2.484849 1.939394,0 0,-2.484849 -1.939394,0 z m 2.424242,0 0,2.484849 1.969697,0 0,-2.484849 -1.969697,0 z m 2.454546,0 0,2.484849 1.939394,0 0,-2.484849 -1.939394,0 z m 2.424242,0 0,2.484849 1.969697,0 0,-2.484849 -1.969697,0 z m 2.454545,0 0,2.484849 1.939394,0 0,-2.484849 -1.939394,0 z M 2,11.962121 l 0,2.484849 1.9393939,0 0,-2.484849 -1.9393939,0 z m 2.4242424,0 0,2.484849 1.969697,0 0,-2.484849 -1.969697,0 z m 26.8181816,0 0,0.424243 c 0.749771,0.194327 1.439505,0.579781 1.969697,1.12126 l 0,-1.545503 -1.969697,0 z m 2.454546,0 0,2.181818 c 0.0656,0.09852 0.124668,0.198788 0.181818,0.303031 l 1.757576,0 0,-2.484849 -1.939394,0 z m 2.424242,0 0,2.484849 1.969697,0 0,-2.484849 -1.969697,0 z m 2.454546,0 0,2.484849 1.939394,0 0,-2.484849 -1.939394,0 z m 2.424242,0 0,2.484849 2,0 -0.0303,-2.484849 -1.969697,0 z m 2.454545,0 0.0303,2.484849 1.909091,0 0,-2.484849 -1.939394,0 z m -13.636363,0.757624 c -1.867801,0.205479 -3.363637,1.706279 -3.363637,3.666619 0,1.176242 0.556665,2.195878 1.39394,2.878836 l 0.121212,8.272679 c -1.790896,0.793988 -3.056465,2.498521 -3.181818,4.545454 l -5.090909,1.121261 c -0.657577,-0.618473 -1.518152,-0.908509 -2.333334,-0.969697 l -0.0303,0 c -2.060418,0 -3.757575,1.657794 -3.757575,3.69697 0,2.038885 1.693809,3.696969 3.757575,3.696969 1.396948,0 2.652924,-0.737357 3.303031,-1.878788 0.02171,-0.03685 -0.01423,-0.08242 0,-0.121212 l 5.696969,-1.454545 c 0.465419,0.461964 1.002971,0.822982 1.606061,1.090909 -1.134005,0.730473 -1.969697,1.898182 -1.969697,3.363588 0,2.311951 1.895465,4.121212 4.151515,4.121212 2.256042,0 4.151515,-1.811006 4.151515,-4.121212 0,-1.467152 -0.832376,-2.634376 -1.969697,-3.363588 0.541539,-0.248048 1.021309,-0.592194 1.454546,-1.000048 l 5.424242,1.393939 c 0.249466,0.644751 0.577005,1.228315 1.090909,1.575757 0.595118,0.402328 1.31059,0.603831 2.060606,0.697019 l 0.0303,0 0.0303,0 c 1.979757,0 3.606061,-1.587006 3.606061,-3.545503 0,-1.948122 -1.610063,-3.528825 -3.575758,-3.545406 l -0.0303,0 c -0.651397,-0.03394 -1.176528,0.241163 -1.636363,0.545454 l -5.333334,-1.212121 c -0.09537,-2.077479 -1.402277,-3.798691 -3.212121,-4.606061 -0.04347,-2.363539 -0.0021,-7.401503 0,-8.060606 C 33.256768,18.84697 34,17.729297 34,16.386364 c 0,-2.10337 -1.550353,-3.666619 -3.606061,-3.666619 l -0.575757,0 z m 0.393939,1.363588 c 1.37478,0 2.424243,1.063273 2.424243,2.303031 0,1.239563 -1.049463,2.30303 -2.424243,2.30303 -1.37478,0 -2.393939,-1.063467 -2.393939,-2.30303 0,-1.239758 1.019159,-2.303031 2.393939,-2.303031 z M 2,15.083382 l 0,2.454497 1.9393939,0 0,-2.454497 -1.9393939,0 z m 2.4242424,0 0,2.454497 1.969697,0 0,-2.454497 -1.969697,0 z m 2.4545455,0 0,2.454497 1.9393941,0 0,-2.454497 -1.9393941,0 z m 2.4242421,0 0,2.454497 1.969697,0 0,-2.454497 -1.969697,0 z m 2.454546,0 0,2.454497 1.878788,0 0,-2.454497 -1.878788,0 z m 2.363636,0 0,2.454497 2.030303,0 0,-2.454497 -2.030303,0 z m 2.515152,0 0,2.454497 1.939394,0 0,-2.454497 -1.939394,0 z m 2.424242,0 0,2.454497 1.969697,0 0,-2.454497 -1.969697,0 z m 2.454546,0 0,2.454497 1.939393,0 0,-2.454497 -1.939393,0 z m 2.424242,0 0,2.454497 1.939394,0 0,-2.454497 -1.939394,0 z m 10.212121,0 c 0.143623,0.417357 0.242424,0.835394 0.242424,1.302982 0,0.405236 -0.06524,0.791078 -0.181818,1.151515 l 1.424243,0 0,-2.454497 -1.484849,0 z m 1.969697,0 0,2.454497 1.969697,0 0,-2.454497 -1.969697,0 z m 2.454546,0 0,2.454497 1.939394,0 0,-2.454497 -1.939394,0 z m 2.424242,0 0,2.454497 2,0 0,-2.454497 -2,0 z m 2.484848,0 0,2.454497 1.909091,0 0,-2.454497 -1.909091,0 z M 2,18.174291 l 0,2.454497 1.9393939,0 0,-2.454497 -1.9393939,0 z m 2.4242424,0 0,2.454497 1.969697,0 0,-2.454497 -1.969697,0 z m 2.4545455,0 0,2.454497 1.9393941,0 0,-2.454497 -1.9393941,0 z m 2.4242421,0 0,2.454497 1.969697,0 0,-2.454497 -1.969697,0 z m 2.454546,0 0,2.454497 1.909091,0 -0.0303,-2.454497 -1.878788,0 z m 2.363636,0 0.0303,2.454497 2,0 0,-2.454497 -2.030303,0 z m 2.515152,0 0,2.454497 1.939394,0 0,-2.454497 -1.939394,0 z m 2.424242,0 0,2.454497 1.969697,0 0,-2.454497 -1.969697,0 z m 2.454546,0 0,2.454497 1.939393,0 0,-2.454497 -1.939393,0 z m 2.424242,0 0,2.454497 1.939394,0 0,-2.454497 -1.939394,0 z m 2.424242,0 0,2.454497 1.121212,0 -0.0303,-1.242376 c -0.384032,-0.351321 -0.69755,-0.748509 -0.939393,-1.212121 l -0.151516,0 z m 7.575758,0 c -0.07365,0.137891 -0.153651,0.265697 -0.242424,0.393891 l 0,2.060606 1.939394,0 0,-2.454497 -1.69697,0 z m 2.181818,0 0,2.454497 1.969697,0 0,-2.454497 -1.969697,0 z m 2.454546,0 0,2.454497 1.939394,0 0,-2.454497 -1.939394,0 z m 2.424242,0 0,2.454497 2.030303,0 -0.0303,-2.454497 -2,0 z m 2.484848,0 0.0303,2.454497 1.878787,0 0,-2.454497 -1.909091,0 z m -10.272727,0.999951 c -0.195722,0.197625 -0.408976,0.354134 -0.636363,0.5152 -3.1e-4,0.100073 2.83e-4,0.74017 0,0.939346 l 0.636363,0 0,-1.454546 z m -4.121212,0.697019 c 0.367846,0.116751 0.718329,0.272678 1.121212,0.272678 0.258485,0 0.509555,-0.07176 0.757576,-0.121212 -0.0052,1.184582 -0.01588,5.633843 0.0303,7.787928 -0.600805,0.233503 -1.082679,0.213333 -1.787879,-0.03006 L 29.090909,19.871552 z M 2,21.2652 l 0,2.484848 1.9393939,0 0,-2.484848 L 2,21.2652 z m 2.4242424,0 0,2.484848 1.969697,0 0,-2.484848 -1.969697,0 z m 2.4545455,0 0,2.484848 1.9393941,0 0,-2.484848 -1.9393941,0 z m 2.4242421,0 0,2.484848 1.969697,0 0,-2.484848 -1.969697,0 z m 2.454546,0 0,2.484848 1.909091,0 0,-2.484848 -1.909091,0 z m 2.393939,0 0,2.484848 2,0 0,-2.484848 -2,0 z m 2.484849,0 0,2.484848 1.939394,0 0,-2.484848 -1.939394,0 z m 2.424242,0 0,2.484848 1.969697,0 0,-2.484848 -1.969697,0 z m 2.454546,0 0,2.484848 1.939393,0 0,-2.484848 -1.939393,0 z m 2.424242,0 0,2.484848 1.939394,0 0,-2.484848 -1.939394,0 z m 2.424242,0 0,2.484848 1.151516,0 -0.0303,-2.484848 -1.121212,0 z m 6.212122,0 c -4.58e-4,0.672679 0.02772,1.488485 0.0303,2.484848 l 0.60606,0 0,-2.484848 -0.636363,0 z m 1.121212,0 0,2.484848 1.939394,0 0,-2.484848 -1.939394,0 z m 2.424242,0 0,2.484848 1.969697,0 0,-2.484848 -1.969697,0 z m 2.454546,0 0,2.484848 1.939394,0 0,-2.484848 -1.939394,0 z m 2.424242,0 0,2.484848 2.060606,0 -0.0303,-2.484848 -2.030303,0 z m 2.515152,0 0.0303,2.484848 1.848484,0 0,-2.484848 -1.878787,0 z M 2,24.356109 l 0,2.484849 1.9393939,0 0,-2.484849 -1.9393939,0 z m 2.4242424,0 0,2.484849 1.969697,0 0,-2.484849 -1.969697,0 z m 2.4545455,0 0,2.484849 1.9393941,0 0,-2.484849 -1.9393941,0 z m 2.4242421,0 0,2.484849 1.969697,0 0,-2.484849 -1.969697,0 z m 2.454546,0 0,2.484849 1.939394,0 0,-2.484849 -1.939394,0 z m 2.424242,0 0,2.484849 1.969697,0 0,-2.484849 -1.969697,0 z m 2.454546,0 0,2.484849 1.939394,0 0,-2.484849 -1.939394,0 z m 2.424242,0 0,2.484849 1.969697,0 0,-2.484849 -1.969697,0 z m 2.454546,0 0,2.484849 1.939393,0 0,-2.484849 -1.939393,0 z m 2.424242,0 0,2.484849 1.939394,0 0,-2.484849 -1.939394,0 z m 2.424242,0 0,2.484849 1.212122,0 -0.0303,-2.484849 -1.181819,0 z m 6.242425,0 c 0.0038,1.015855 -0.01056,1.631709 0,2.484849 l 0.60606,0 0,-2.484849 -0.60606,0 z m 1.090909,0 0,2.484849 1.939394,0 0,-2.484849 -1.939394,0 z m 2.424242,0 0,2.484849 1.969697,0 0,-2.484849 -1.969697,0 z m 2.454546,0 0,2.484849 1.939394,0 0,-2.484849 -1.939394,0 z m -29.272728,6.181818 0,2.484849 1.969697,0 0,-2.484849 -1.969697,0 z m 2.454546,0 0,2.484849 1.969697,0 -0.0303,-2.484849 -1.939394,0 z m 2.424242,0 0.0303,2.484849 0.242424,0 c 0.476454,-0.445188 1.082288,-0.784485 1.727273,-0.969697 l 0.0303,-1.515152 -2.030303,0 z m 2.515152,0 -0.0303,1.39394 c 0.220755,-0.03588 0.436525,-0.06012 0.666666,-0.06012 l 0.0303,0 0.0303,0 c 0.388151,0.02909 0.782589,0.125576 1.181819,0.272679 l 0,-1.606012 -1.878788,0 z m 2.363636,0 0,1.848437 c 0.246674,0.127321 0.501745,0.241163 0.727273,0.424242 l 1.242424,-0.272679 0,-2 -1.969697,0 z m 2.454546,0 0,1.878788 1.939393,-0.454594 0,-1.424194 -1.939393,0 z m 2.424242,0 0,1.333334 0.484848,-0.121213 c 0.04962,-0.426278 0.137122,-0.820169 0.272728,-1.212121 l -0.757576,0 z m 11.515151,0 c 0.04871,0.139152 0.08306,0.280146 0.121213,0.424243 l 0,-0.424243 -0.121213,0 z m 0.606061,0 0.0303,1.39394 2,0.454497 0,-1.848437 -2.030303,0 z m 2.515152,0 0,1.969649 1.939394,0.424242 0,-2.393891 -1.939394,0 z m 2.424242,0 0,2.242425 c 0.408784,-0.206061 0.853641,-0.36257 1.393939,-0.333382 0.01024,0 0.02007,-9.7e-5 0.0303,0 0.187947,0 0.364055,0.03394 0.545455,0.06012 l 0,-1.969649 -1.969697,0 z m 2.454545,0 0,2.090861 c 0.339886,0.09406 0.671677,0.219054 0.969697,0.393988 l 0.969697,0 0,-2.484849 -1.939394,0 z m -18.545454,2.757528 c 0.112478,0.641454 0.377305,1.216775 0.69697,1.757575 l -5.242425,1.39394 C 20.09128,36.139188 19.890451,35.848667 19.848485,35.56823 19.808895,35.303406 19.900245,34.867139 20,34.416715 l 4.909091,-1.12126 z m 10.363636,0.121212 5.121212,1.151515 c 0.104907,0.465939 0.161839,0.910351 0.121213,1.181866 -0.04239,0.283443 -0.223059,0.558255 -0.515152,0.87874 l -5.454545,-1.424194 c 0.345077,-0.543709 0.597546,-1.135418 0.727272,-1.787927 z M 17.333333,33.56823 c 0.485628,0 0.989552,0.159709 1.363637,0.363637 -0.141293,0.600145 -0.177537,1.207369 -0.181818,1.757575 l 0,0.03006 0,0.03006 c 0.08403,0.561648 0.424158,1.046109 0.818181,1.515151 -0.460787,0.555733 -1.229936,1.030303 -2,1.030303 -1.362889,0 -2.424242,-1.05183 -2.424242,-2.363636 0,-1.312097 1.057271,-2.363637 2.424242,-2.363637 z m -8.030303,0.09115 0,2.454594 1.969697,0 0,-2.454594 -1.969697,0 z m 2.454546,0 0,2.454594 1.454545,0 c -0.0027,-0.06012 -0.0303,-0.121212 -0.0303,-0.181818 0,-0.720485 0.208775,-1.384825 0.545455,-1.969746 l 0,-0.30303 -1.969697,0 z m 33.484848,0 c 0.05605,0.05624 0.09894,0.121988 0.151515,0.181818 l 0,-0.181818 -0.151515,0 z m -2.848485,0.575806 c 1.251544,0 2.212122,0.9504 2.212122,2.151467 0,1.201066 -0.960561,2.181818 -2.212122,2.181818 -0.628852,0 -1.290947,-0.347928 -1.727272,-0.757528 0.22443,-0.186472 0.495996,-0.338618 0.636363,-0.575806 0.238749,-0.403394 0.405385,-0.832872 0.545455,-1.212121 0.0871,-0.563297 -0.05833,-1.114279 -0.151515,-1.666618 0.235654,-0.05818 0.504982,-0.121212 0.696969,-0.121212 z M 30.30303,34.477612 c 0.464745,0.0223 0.807968,0.234279 0.969697,0.454497 l 0.0303,1.878788 0.0303,0.666667 c -0.380537,-0.1376 -0.77897,-0.212073 -1.212121,-0.212073 -0.401644,0 -0.764026,0.09309 -1.121212,0.212073 l 0,-0.606061 0,-1.909042 c 0.372947,-0.314085 0.850672,-0.507152 1.30303,-0.484849 z m -0.181818,3.545406 c 1.548011,0 2.727273,1.2064 2.727273,2.606061 0,1.39966 -1.181385,2.60606 -2.727273,2.60606 -1.545888,0 -2.727273,-1.2064 -2.727273,-2.60606 0,-1.399661 1.179262,-2.606061 2.727273,-2.606061 z"
     id="path-main"
     sodipodi:nodetypes="ccccccccccccccccccccccccccccccccccccccccccccccccccccccccccccccccccccccccccccccccccccccccccccsccccccssscccssscccscccsccccccscccsssccccccccccccccccccccccccccccccccccccccccccccccccccccsccccccccccccccccccccccccccccccccccccccccccccccccccccccccccccccccccccccccccccccccccccccccccccccccccccccccccccccccsccccccccccccccccccccccccccccccccccccccccccccccccccccccccccccccccccccccccccccccccccccccccccccccccccccccccccccccccccccccccccccccccccccccccccccccccccccccccccccccccccccccccccccccccccccccccccccccccccccccccccccccccccccccccccccssccccccccccccsccccscccccccccsscccccccccsccccccccsscscccccccscccccsssc" />
</defs>
<acyl-settings>
<linearGradient
     id="linearGradient4321">
    <stop
       style="stop-color:#FFFFFF;stop-opacity:1.0;"
       offset="1.0"
       id="stop1" />
  </linearGradient>
<linearGradient
     inkscape:collect="always"
     xlink:href="#linearGradient4321"
     id="acyl_gradient"
     x1="50.0%"
     y1="0.0%"
     x2="50.0%"
     y2="100.0%" />
<filter>
    </filter>
<use id="1" style="fill:url(#acyl_gradient);filter:url(#filter1111)" xlink:href="#path-main" />
</acyl-settings>
</svg>
