<svg xmlns="http://www.w3.org/2000/svg" width="48" height="48">
<defs>
  <path
     d="m 13.177143,2.0000002 c -1.430063,0 -2.718118,0.1740149 -3.8188572,0.4893145 L 2.6830476,4.4771548 C 2.2804598,4.5789201 2,4.9238032 2,5.3334552 2,5.7431073 2.2804598,6.0879909 2.6830476,6.1897556 L 3.304,6.3732485 l 3.2910477,3.9450985 0,26.484147 C 6.108527,37.190757 5.6636191,37.648649 5.6636191,38.331602 l 0,0.886883 c 0,0.649253 0.3909237,1.218155 0.8382857,1.590272 0.447361,0.372118 0.9999557,0.62905 1.6455238,0.8563 1.2911367,0.454503 2.9660574,0.70339 4.8123804,0.70339 0.281989,0 0.536327,-0.01954 0.807238,-0.03058 0.527635,-0.426789 1.0642,-0.976636 1.583429,-1.651437 -0.956309,-0.953788 -1.490285,-2.065889 -1.490285,-3.241708 -0.04382,-4.566465 2.920856,-7.425236 4.812381,-9.755708 1.043105,-1.285173 0.952024,-2.892128 0.683047,-4.128591 -0.03599,-0.157825 -0.104415,-0.310764 -0.217334,-0.428151 l -1.831809,-1.896093 c 1.763859,-0.64142 3.258941,-1.284451 5.216,-1.284451 1.260273,0 2.421246,0.182634 3.197906,0.458732 0.388329,0.13805 0.672981,0.316498 0.807238,0.428151 -0.09831,0.112561 -0.184951,0.252518 -0.217335,0.397568 -0.06129,0.287925 -0.495817,1.381369 -0.714094,2.568901 -0.218277,1.187533 -0.233153,2.678614 0.745143,3.883934 0.829497,1.021991 1.850103,2.201678 2.73219,3.608694 1.478221,-1.355844 3.069466,-2.816803 4.750285,-4.312084 2.569217,-2.28561 5.191372,-4.535172 7.296191,-6.147013 l -12.698476,0 c 0,-0.590161 -0.332204,-1.0586 -0.714095,-1.376197 -0.381892,-0.317598 -0.840932,-0.547277 -1.366095,-0.733972 -1.050329,-0.373385 -2.375565,-0.581061 -3.818858,-0.581061 -0.159315,0 -0.312632,0.02422 -0.465714,0.03058 l 0,-3.455784 c 1.6e-4,-0.272587 -0.125645,-0.533013 -0.341524,-0.703389 -0.462283,-0.373313 -0.558856,-0.619182 -0.558856,-0.795136 l 0,-0.917465 c 0,-0.193053 0.05397,-0.369009 0.527808,-0.672807 0.473837,-0.303799 1.308031,-0.616848 2.35962,-0.856301 2.103175,-0.47891 5.126189,-0.703389 8.476,-0.703389 3.34981,0 6.372823,0.224483 8.475999,0.703389 1.05159,0.239453 1.885782,0.552502 2.359619,0.856301 0.473836,0.303798 0.558858,0.479753 0.558858,0.672807 l 0,0.917465 c 0,0.175953 -0.127624,0.421824 -0.589905,0.795136 -0.215879,0.170377 -0.341682,0.4308 -0.341524,0.703389 l 0,4.801399 c 0.303731,-0.19736 0.624877,-0.39691 0.900381,-0.550479 0.309469,-0.172502 0.609433,-0.318194 0.931429,-0.42815 l 0,-3.516948 c 0.500167,-0.50946 0.900381,-1.082898 0.900381,-1.804347 l 0,-0.917465 c 0,-0.921116 -0.626934,-1.677519 -1.397143,-2.171333 C 43.547698,9.6410399 42.602809,9.3008439 41.430477,9.0338961 39.08581,8.5000022 35.952345,8.2693422 32.51981,8.2693422 c -3.432534,0 -6.566002,0.23066 -8.910667,0.7645539 -1.172334,0.2669478 -2.117221,0.6071428 -2.887429,1.1009579 -0.770207,0.493814 -1.397143,1.250217 -1.397143,2.171333 l 0,-5.3518775 c 0.491908,-0.4132995 0.900382,-0.9154761 0.900382,-1.6208543 0,-0.6376786 -0.314551,-1.1867531 -0.745143,-1.5902721 -0.430592,-0.403524 -0.984305,-0.697419 -1.614477,-0.9480469 -1.26034,-0.5012558 -2.892853,-0.795136 -4.68819,-0.795136 z m 0,1.8043472 c 1.595834,0 3.041562,0.258996 4.005142,0.6422253 0.48179,0.1916154 0.83314,0.4016655 1.024573,0.5810609 0.19143,0.1793955 0.217333,0.2735454 0.217333,0.3058216 0,0.013485 -0.08029,0.1976459 -0.52781,0.4893145 -0.25365,0.1700485 -0.408773,0.4316537 -0.403619,0.7339718 l 0,12.6915945 c -0.679543,0.255194 -1.327418,0.516493 -2.049143,0.733972 -0.306268,0.08818 -0.570512,0.338165 -0.652,0.642226 -0.08149,0.304061 0.02621,0.599962 0.248381,0.825718 l 2.452762,2.568901 0,2.079587 c -0.06918,0.15998 -0.135228,0.319322 -0.248381,0.458732 -0.184414,0.227212 -0.434724,0.539831 -0.651999,0.795136 l 0,-1.590272 -7.2651439,0 0,12.569266 c 0,0.68559 1.3726639,1.231882 3.1668569,1.315033 0.133866,0.323974 0.309556,0.615006 0.496762,0.917465 -0.0096,4.4e-5 -0.02136,0 -0.03105,0 -1.670447,0 -3.2073239,-0.254292 -4.2224756,-0.611644 C 8.2297567,39.77378 7.8483651,39.597008 7.6506667,39.43256 7.4529673,39.268114 7.4954286,39.188215 7.4954286,39.218485 l 0,-0.886883 c 0,0.0636 0.030107,-0.140246 0.4657143,-0.397568 0.2754068,-0.15664 0.4275193,-0.451226 0.4346666,-0.764554 l 0,-27.156955 C 8.3959636,9.8087739 8.3385538,9.6212319 8.2095239,9.4620459 L 5.0426667,5.6392768 9.855048,4.2324976 c 0.9232,-0.2644451 2.062986,-0.4281502 3.322095,-0.4281502 z m 6.147428,9.4193046 c 0,0.72145 0.400213,1.294887 0.900382,1.804347 l 0,3.364037 c -0.311695,0.06599 -0.606965,0.15967 -0.900382,0.244657 l 0,-5.413041 z m 26.421524,6.605745 c -2.452716,-0.236874 -20.910992,17.547922 -21.050286,17.523576 -2.114873,0.213784 -5.543449,0.441781 -7.761904,3.700441 -2.218453,3.258657 -5.340191,4.189755 -5.340191,4.189755 0,0 10.957777,2.488665 13.629905,-1.55969 2.192713,-3.322026 1.474869,-4.363438 1.490286,-4.862562 0.420514,-0.458696 20.597873,-17.468558 19.218476,-18.899773 -0.04466,-0.04634 -0.107166,-0.08411 -0.186286,-0.09175 z m -0.931428,4.403831 c -0.05807,0.06216 -0.09554,0.120302 -0.155238,0.183493 -0.505649,0.535255 -1.076774,1.118057 -1.676572,1.712601 l 0,6.819821 c 0,0.220018 -0.107487,0.508429 -0.558856,0.886882 -0.451366,0.378453 -1.213099,0.790816 -2.173334,1.13154 -1.85286,0.657458 -4.496626,1.101894 -7.420381,1.13154 -0.02881,-0.191546 -0.05878,-0.392584 -0.09315,-0.581061 -0.542396,0.475784 -1.13521,0.988742 -1.614476,1.406779 0.01684,0.168 0.02171,0.348051 0.03105,0.519897 0.0011,0.01932 -9.1e-4,0.01121 0,0.03058 -0.02033,1.49679 -0.888471,2.926805 -2.421714,4.006262 -0.290937,0.204831 -0.596575,0.37517 -0.931429,0.550479 -0.283335,0.706115 -0.709851,1.499381 -1.335047,2.446573 -0.01275,0.01931 -0.01808,0.04211 -0.03105,0.06116 1.255043,-0.365135 2.382977,-0.937822 3.353143,-1.620854 1.784438,-1.256308 3.014872,-3.052639 3.166857,-5.076638 3.056387,-0.03892 5.81865,-0.448089 7.917143,-1.192705 1.098952,-0.389945 2.000618,-0.880581 2.701143,-1.467943 0.700526,-0.587361 1.241905,-1.338347 1.241905,-2.232497 l 0,-8.715915 z m -2.732191,2.752394 c -1.269045,1.230319 -2.640717,2.521761 -4.067238,3.82277 -1.660989,1.514848 -3.294815,2.947193 -4.812381,4.281502 4.955536,-0.114006 8.879619,-1.404418 8.879619,-3.027634 l 0,-5.076638 z m -24.713905,3.608695 c -1.396831,1.803315 -2.635077,3.875117 -2.608,6.697492 7.4e-5,0.0095 7.4e-5,0.02123 0,0.03058 0,0.894516 0.39142,1.771011 1.17981,2.568901 2.427815,-3.24566 6.00292,-3.727838 8.103429,-3.945098 0.137029,-0.124538 0.305937,-0.253457 0.527809,-0.458732 0.550306,-0.509143 1.322041,-1.264653 2.266476,-2.140751 0.469953,-0.435948 1.074575,-0.971055 1.614476,-1.467944 -0.273783,-0.449305 -0.571245,-0.871094 -0.869333,-1.28445 l -10.214667,0 z m 12.853715,7.125642 c -0.545406,0.476508 -1.143122,0.986364 -1.521333,1.315033 -0.199389,0.17327 -0.354581,0.303823 -0.496762,0.42815 0.044,0.265268 0.142153,0.28982 0.06209,0.917465 -0.0097,0.07655 -0.04833,0.164999 -0.06209,0.244657 1.217545,-0.857195 1.881864,-1.866909 2.018095,-2.905305 z"
     id="path-main" />
</defs>
<acyl-settings>
<linearGradient
     id="linearGradient4321">
    <stop
       style="stop-color:#FFFFFF;stop-opacity:1.0;"
       offset="1.0"
       id="stop1" />
  </linearGradient>
<linearGradient
     inkscape:collect="always"
     xlink:href="#linearGradient4321"
     id="acyl_gradient"
     x1="50.0%"
     y1="0.0%"
     x2="50.0%"
     y2="100.0%" />
<filter>
    </filter>
<use id="1" style="fill:url(#acyl_gradient);filter:url(#filter1111)" xlink:href="#path-main" />
</acyl-settings>
</svg>
