<svg xmlns="http://www.w3.org/2000/svg" width="48" height="48">
<defs>
<defs
   id="defs15">
</defs>
	<path
   d="M 32.94858,3.1172545 C 31.701611,4.3642231 31.705483,6.6701903 32.670173,8.9777703 32.192184,10.418193 30.3684,11.47203 28.926041,10.797037 L 21.996525,3.8675215 21.804684,4.0593629 3.963442,21.900606 3.7716006,22.092447 10.79736,29.118206 C 11.568596,30.656807 10.61068,32.38467 9.170257,32.86266 6.7661109,31.609562 4.364223,31.701611 3.0213338,33.0445 1.0069999,35.058834 2.0711603,39.384297 5.3434315,42.656568 8.6157028,45.928839 12.941166,46.993 14.9555,44.978666 c 1.246968,-1.246969 1.243097,-3.552936 0.278405,-5.860516 0.477991,-1.440423 2.301774,-2.49426 3.744132,-1.819267 l 6.929516,6.929516 0.191841,-0.191841 17.937164,-17.937164 0.191841,-0.191841 -7.025759,-7.025759 c -0.771236,-1.538602 0.18668,-3.266464 1.627102,-3.744454 2.404147,1.253098 4.806034,1.161048 6.148924,-0.181841 C 46.992999,12.941165 45.92884,8.6157023 42.656568,5.3434315 39.384297,2.0711603 35.058834,1.007 33.0445,3.0213339 l -0.09592,0.095921 z"
   id="path-main"
    />
	
</defs>
<acyl-settings>
<linearGradient
     id="linearGradient4321">
    <stop
       style="stop-color:#FFFFFF;stop-opacity:1.0;"
       offset="1.0"
       id="stop1" />
  </linearGradient>
<linearGradient
     inkscape:collect="always"
     xlink:href="#linearGradient4321"
     id="acyl_gradient"
     x1="50.0%"
     y1="0.0%"
     x2="50.0%"
     y2="100.0%" />
<filter>
    </filter>
<use id="1" style="fill:url(#acyl_gradient);filter:url(#filter1111)" xlink:href="#path-main" />
</acyl-settings>
</svg>
