<svg xmlns="http://www.w3.org/2000/svg" width="48" height="48">
<defs>
  <path
     d="m 24.325307,4.7609574 c -0.38497,0.0093 -0.676657,0.180352 -1.036816,0.531052 L 2.7418505,25.307599 c -0.8022049,0.781137 -0.986441,3.1683 -0.391967,4.716245 0.580981,1.51281 1.391969,2.089218 2.528818,2.667898 l 20.1926065,10.27965 c 1.013041,0.28944 1.586762,0.35692 2.238003,-0.36668 l 18.245418,-19.88915 c 0.506524,-0.651244 0.37948,-1.770685 0.07586,-2.098919 -0.310761,-0.335955 -1.074747,-0.910374 -1.074747,-0.910374 l 0.05058,1.11268 c 0.476684,0.07945 0.724978,0.590008 0.290814,1.024171 L 27.031141,40.872472 c -0.651241,0.7236 -1.088008,0.70319 -1.883969,0.34139 L 5.0177865,30.681336 c -1.395397,-0.730067 -1.359475,-2.897554 -1.074748,-3.704717 0.327407,-0.928153 1.145944,-1.171606 1.883969,-0.796578 l 18.5235875,9.407201 c 1.230122,0.57888 1.815729,0.79809 2.756411,-0.21495 L 45.263915,16.330298 C 45.915156,15.679055 46.463756,14.654121 45.403,14.168159 L 25.918461,5.2414324 c -0.726878,-0.333004 -1.208186,-0.489734 -1.593154,-0.480475 z m 2.162138,4.7162442 3.135734,1.5678674 -5.272584,7.788758 -2.22536,-1.100036 1.062104,-1.340273 -0.77129,-0.391967 -1.302341,1.226477 -2.250647,-1.11268 7.624384,-6.6381464 z m 0.202306,2.4403094 c -1.465176,1.262439 -2.51646,2.186082 -3.148378,2.794343 l 0.746001,0.379323 c 0.627757,-0.867526 1.428483,-1.924797 2.402377,-3.173666 z m 7.497943,1.378206 3.805871,1.896613 -1.302341,1.428782 -5.538111,3.502412 1.631088,0.809221 -1.314985,1.441426 -3.995532,-1.997766 0.935663,-1.036815 5.942721,-3.86909 -1.479359,-0.733357 1.314985,-1.441426 z m -6.473772,2.035698 2.731123,1.365561 -1.125324,1.239121 -2.731123,-1.365562 1.125324,-1.23912 z"
     id="path-main"
      />
</defs>
<acyl-settings>
<linearGradient
     id="linearGradient4321">
    <stop
       style="stop-color:#FFFFFF;stop-opacity:1.0;"
       offset="1.0"
       id="stop1" />
  </linearGradient>
<linearGradient
     inkscape:collect="always"
     xlink:href="#linearGradient4321"
     id="acyl_gradient"
     x1="50.0%"
     y1="0.0%"
     x2="50.0%"
     y2="100.0%" />
<filter>
    </filter>
<use id="1" style="fill:url(#acyl_gradient);filter:url(#filter1111)" xlink:href="#path-main" />
</acyl-settings>
</svg>
