<svg xmlns="http://www.w3.org/2000/svg" width="48" height="48">
<defs>
  <path
     d="M 3.0798307,6.873767 C 2.4839269,6.873767 2,7.345282 2,7.941186 l 0,3.276728 34.579406,0 0,-3.276728 c 0,-0.595904 -0.483927,-1.067419 -1.079831,-1.067419 l -32.4197443,0 z M 2,12.781807 2,30.232864 c 0,0.595904 0.4839269,1.067419 1.0798307,1.067419 l 21.1621993,0 0,-6.04457 12.337376,0 0,-12.473906 -34.579406,0 z m 4.877856,5.833568 22.155147,0 c 0.481505,0 0.868829,0.387324 0.868829,0.868829 l 0,3.003667 c 0,0.481505 -0.387324,0.868829 -0.868829,0.868829 l -22.155147,0 c -0.481505,0 -0.868829,-0.387324 -0.868829,-0.868829 l 0,-3.003667 c 0,-0.481505 0.387324,-0.868829 0.868829,-0.868829 z m 0.459238,0.819182 0,3.078138 1.700423,0 0,-3.078138 -1.700423,0 z m 18.307475,7.32299 0,15.142453 20.355431,0 0,-15.142453 -20.355431,0 z m 1.377715,1.725246 17.600001,0 0,8.353177 c -0.915045,0.86043 -2.5873,2.14134 -4.319323,1.83695 -3.394095,-0.59649 -6.112652,-3.71839 -11.406489,-1.1543 -0.964196,0.46701 -1.538545,1.10301 -1.874189,1.61354 l 0,-10.649367 z m 12.746969,2.01072 c -0.976346,0 -1.762485,0.798552 -1.762485,1.774894 0,0.976341 0.786139,1.762483 1.762485,1.762483 0.976341,0 1.774894,-0.786142 1.774894,-1.762483 0,-0.976342 -0.798553,-1.774894 -1.774894,-1.774894 z"
     id="path-main"
      />
</defs>
<acyl-settings>
<linearGradient
     id="linearGradient4321">
    <stop
       style="stop-color:#FFFFFF;stop-opacity:1.0;"
       offset="1.0"
       id="stop1" />
  </linearGradient>
<linearGradient
     inkscape:collect="always"
     xlink:href="#linearGradient4321"
     id="acyl_gradient"
     x1="50.0%"
     y1="0.0%"
     x2="50.0%"
     y2="100.0%" />
<filter>
    </filter>
<use id="1" style="fill:url(#acyl_gradient);filter:url(#filter1111)" xlink:href="#path-main" />
</acyl-settings>
</svg>
