<svg xmlns="http://www.w3.org/2000/svg" width="48" height="48">
<defs>
  <path
     d="M 5.046358,3.217222 C 3.351609,3.217222 2,4.568828 2,6.263579 L 2,37.85598 c 0,0.75841 0.251734,1.0037 0.69122,1.44319 l 5.946701,5.9467 C 9.089707,45.69765 9.439946,45.8 10.023376,45.8 l 32.917021,0 C 44.635146,45.8 46,44.43515 46,42.7404 L 46,6.263579 C 46,4.568828 44.635146,3.217222 42.940397,3.217222 z m 3.152318,4.649006 31.602648,0 0,14.728477 -31.602648,0 z m 5.68212,19.84106 18.357614,0 c 1.694749,0 3.059603,1.364852 3.059603,3.059603 l 0,8.715229 c 0,1.69475 -1.364854,3.0596 -3.059603,3.0596 l -18.357614,0 c -1.69475,0 -3.046359,-1.36485 -3.046359,-3.0596 l 0,-8.715229 c 0,-1.694751 1.351609,-3.059603 3.046359,-3.059603 z m 1.258274,1.218543 0,10.211919 6.450333,0 0,-10.211919 z"
     id="path-main"
      />
</defs>
<acyl-settings>
<linearGradient
     id="linearGradient4321">
    <stop
       style="stop-color:#FFFFFF;stop-opacity:1.0;"
       offset="1.0"
       id="stop1" />
  </linearGradient>
<linearGradient
     inkscape:collect="always"
     xlink:href="#linearGradient4321"
     id="acyl_gradient"
     x1="50.0%"
     y1="0.0%"
     x2="50.0%"
     y2="100.0%" />
<filter>
    </filter>
<use id="1" style="fill:url(#acyl_gradient);filter:url(#filter1111)" xlink:href="#path-main" />
</acyl-settings>
</svg>
