<svg xmlns="http://www.w3.org/2000/svg" width="48" height="48">
<defs>
<defs
     id="defs3">
  </defs>
  <path
     id="path-main"
     d="m 11.877394,2.0000002 c -3.6309087,0 -6.5863234,2.9355704 -6.5863234,6.5596946 10e-8,1.6185182 0.5882495,3.1069042 1.5640724,4.2537752 l -1.5640724,0.472642 -3.0850968,2.864496 c -0.2192577,0.204258 -0.4014231,1.23209 0.2152393,1.847599 0.7267436,0.725386 1.6527098,0.426956 1.8510581,0.214837 l 2.8698575,-3.079332 0.4878758,-1.56115 c 1.1479118,0.96994 2.6296155,1.56115 4.2473895,1.56115 3.630908,0 6.571973,-2.949893 6.571973,-6.5740172 1e-6,-3.6241241 -2.941065,-6.5596946 -6.571973,-6.5596946 z m 0,1.6470849 c 2.723181,0 4.936155,2.1945167 4.936155,4.9126097 0,2.7180932 -2.212974,4.9269312 -4.936155,4.9269322 -2.7231815,0 -4.9361553,-2.208839 -4.9361553,-4.9269322 0,-2.7180932 2.2129738,-4.9126097 4.9361553,-4.9126097 z m 21.997458,3.8957138 c -3.630908,0 -6.571974,2.9355701 -6.571974,6.5596941 0,1.615189 0.595004,3.093558 1.564072,4.239454 l -1.564072,0.486964 -3.085097,2.864495 c -0.219257,0.204258 -0.415772,1.232089 0.20089,1.8476 0.726744,0.725385 1.652709,0.426955 1.851058,0.214837 l 2.869858,-3.079333 0.487876,-1.575472 c 1.146691,0.977138 2.622927,1.575472 4.247389,1.575472 3.630909,0 6.571974,-2.949892 6.571974,-6.574017 0,-3.624124 -2.941066,-6.5596941 -6.571974,-6.5596941 z m 0,1.6327624 c 2.723181,0 4.936155,2.2088387 4.936155,4.9269317 0,2.718094 -2.212973,4.926933 -4.936155,4.926933 -2.723181,0 -4.936155,-2.20884 -4.936155,-4.926933 0,-2.718093 2.212975,-4.9269317 4.936155,-4.9269317 z m 5.553174,14.8237637 c -3.630907,0 -6.586323,2.93557 -6.586323,6.559695 -1e-6,1.618518 0.588249,3.106904 1.564072,4.253775 l -1.564072,0.472642 -3.085097,2.864496 c -0.219257,0.204257 -0.401423,1.232087 0.21524,1.847599 0.726743,0.725386 1.652709,0.426956 1.851058,0.214837 l 2.869857,-3.079332 0.487876,-1.56115 c 1.147912,0.96994 2.629616,1.56115 4.247389,1.56115 C 43.058936,37.133035 46,34.183144 46,30.55902 46,26.934894 43.058935,23.999325 39.428026,23.999325 z m 0,1.647085 c 2.723181,0 4.936156,2.194516 4.936155,4.91261 0,2.718093 -2.212972,4.92693 -4.936155,4.926932 -2.723181,0 -4.936153,-2.20884 -4.936155,-4.926932 0,-2.718093 2.212975,-4.91261 4.936155,-4.91261 z m -21.997458,3.895714 c -3.630907,0 -6.586323,2.93557 -6.586323,6.559694 0,1.618519 0.58825,3.106905 1.564072,4.253776 l -1.564072,0.472642 -3.0850969,2.864495 c -0.2192576,0.204258 -0.4014233,1.232091 0.2152393,1.8476 0.7267435,0.725385 1.6527101,0.426954 1.8510582,0.214837 l 2.8698574,-3.079333 0.473527,-1.56115 c 1.149018,0.974 2.64019,1.56115 4.261738,1.56115 3.630909,10e-7 6.571974,-2.949892 6.571974,-6.574017 0,-3.624122 -2.941066,-6.559694 -6.571974,-6.559694 z m 0,1.647085 c 2.723181,0 4.921806,2.194518 4.921806,4.912609 0,2.718094 -2.198624,4.926933 -4.921806,4.926933 -2.723181,0 -4.936154,-2.208838 -4.936155,-4.926933 0,-2.718093 2.212974,-4.912609 4.936155,-4.912609 z" />
</defs>
<acyl-settings>
<linearGradient
     id="linearGradient4321">
    <stop
       style="stop-color:#FFFFFF;stop-opacity:1.0;"
       offset="1.0"
       id="stop1" />
  </linearGradient>
<linearGradient
     inkscape:collect="always"
     xlink:href="#linearGradient4321"
     id="acyl_gradient"
     x1="50.0%"
     y1="0.0%"
     x2="50.0%"
     y2="100.0%" />
<filter>
    </filter>
<use id="1" style="fill:url(#acyl_gradient);filter:url(#filter1111)" xlink:href="#path-main" />
</acyl-settings>
</svg>
