<svg xmlns="http://www.w3.org/2000/svg" width="48" height="48">
<defs>
  <path
     d="m 13.205402,2 c -0.541709,0 -0.980427,0.438717 -0.980427,0.980428 l 0,5.67058 c 0,0.541711 0.438718,0.980428 0.980427,0.980428 l 1.563385,0 c 0.541713,0 0.967178,-0.438717 0.967178,-0.980428 l 0,-5.67058 C 15.735965,2.438717 15.3105,2 14.768787,2 l -1.563385,0 z m 6.968985,0 C 19.632678,2 19.19396,2.438717 19.19396,2.980428 l 0,5.67058 c 0,0.541711 0.438718,0.980428 0.980427,0.980428 l 1.576634,0 c 0.541713,0 0.980427,-0.438717 0.980427,-0.980428 l 0,-5.67058 C 22.731448,2.438717 22.292734,2 21.751021,2 l -1.576634,0 z m 6.982234,0 c -0.541709,0 -0.980427,0.438717 -0.980427,0.980428 l 0,5.67058 c 0,0.541711 0.438718,0.980428 0.980427,0.980428 l 1.563385,0 c 0.541713,0 0.980427,-0.438717 0.980427,-0.980428 l 0,-5.67058 C 29.700433,2.438717 29.261719,2 28.720006,2 l -1.563385,0 z m 6.968985,0 c -0.541709,0 -0.980427,0.438717 -0.980427,0.980428 l 0,5.67058 c 0,0.541711 0.438718,0.980428 0.980427,0.980428 l 1.563385,0 c 0.541713,0 0.980427,-0.438717 0.980427,-0.980428 l 0,-5.67058 C 36.669418,2.438717 36.230704,2 35.688991,2 l -1.563385,0 z m -17.289972,3.325504 0,4.014453 c 0,0.875071 -0.714811,1.576634 -1.589882,1.576634 l -2.530563,0 c -0.875072,0 -1.576634,-0.701563 -1.576634,-1.576634 l 0,-4.001204 C 9.669478,5.392133 8.502,6.585474 8.502,8.068051 l 0,35.202649 C 8.502,44.78749 9.727757,46 11.244547,46 l 26.405299,0 c 1.51679,0 2.729298,-1.21251 2.729298,-2.7293 l 0,-35.202649 c 0,-1.478809 -1.159499,-2.670243 -2.623306,-2.729298 l 0,4.001204 c 0,0.875071 -0.701562,1.576634 -1.576634,1.576634 l -2.530563,0 c -0.875071,0 -1.576633,-0.701563 -1.576633,-1.576634 l 0,-4.014453 -1.285155,0 0,4.014453 c 0,0.875071 -0.714811,1.576634 -1.589883,1.576634 l -2.530563,0 c -0.875071,0 -1.576633,-0.701563 -1.576633,-1.576634 l 0,-4.014453 -1.285155,0 0,4.014453 c 0,0.875071 -0.714811,1.576634 -1.589883,1.576634 l -2.517313,0 c -0.875072,0 -1.576634,-0.701563 -1.576634,-1.576634 l 0,-4.014453 -1.285155,0 z m -2.517314,17.091237 12.440831,0 c 0.353021,0 0.635953,0.29618 0.635953,0.649202 l 0,0.953929 c 0,0.353022 -0.282932,0.635953 -0.635953,0.635953 l -12.440831,0 c -0.353022,0 -0.635953,-0.282931 -0.635953,-0.635953 l 0,-0.953929 c 0,-0.353022 0.282931,-0.649202 0.635953,-0.649202 z m 0,5.206865 20.244504,0 c 0.353022,0 0.635953,0.282931 0.635953,0.635953 l 0,0.95393 c 0,0.353021 -0.282931,0.635953 -0.635953,0.635953 l -20.244504,0 c -0.353022,0 -0.635953,-0.282932 -0.635953,-0.635953 l 0,-0.95393 c 0,-0.353022 0.282931,-0.635953 0.635953,-0.635953 z m 0,5.193614 20.244504,0 c 0.353022,0 0.635953,0.28293 0.635953,0.63596 l 0,0.95392 c 0,0.35303 -0.282931,0.63596 -0.635953,0.63596 l -20.244504,0 c -0.353022,0 -0.635953,-0.28293 -0.635953,-0.63596 l 0,-0.95392 c 0,-0.35303 0.282931,-0.63596 0.635953,-0.63596 z m 0,5.19362 20.244504,0 c 0.353022,0 0.635953,0.28293 0.635953,0.63595 l 0,0.96718 c 0,0.35302 -0.282931,0.63595 -0.635953,0.63595 l -20.244504,0 c -0.353022,0 -0.635953,-0.28293 -0.635953,-0.63595 l 0,-0.96718 c 0,-0.35302 0.282931,-0.63595 0.635953,-0.63595 z"
     id="path-main"
      />
</defs>
<acyl-settings>
<linearGradient
     id="linearGradient4321">
    <stop
       style="stop-color:#FFFFFF;stop-opacity:1.0;"
       offset="1.0"
       id="stop1" />
  </linearGradient>
<linearGradient
     inkscape:collect="always"
     xlink:href="#linearGradient4321"
     id="acyl_gradient"
     x1="50.0%"
     y1="0.0%"
     x2="50.0%"
     y2="100.0%" />
<filter>
    </filter>
<use id="1" style="fill:url(#acyl_gradient);filter:url(#filter1111)" xlink:href="#path-main" />
</acyl-settings>
</svg>
