<svg xmlns="http://www.w3.org/2000/svg" width="48" height="48">
<defs>
  <path
     d="M 24.005417,4.7838454 3.0507163,23.919778 c -1.990087,1.817076 -0.966742,4.725689 1.507868,4.72569 l 3.264457,0 0,8.876212 c 0,2.73952 2.2037967,4.94332 4.9433187,4.94332 l 22.726835,0 c 2.739522,0 4.94332,-2.2038 4.94332,-4.94332 l 0,-8.876212 3.015736,0 c 2.47461,0 3.482409,-2.908614 1.492323,-4.72569 l -6.870904,-6.280192 0,-10.8659756 c 0,-0.442416 -0.350381,-0.792797 -0.792796,-0.792797 l -4.259338,0 c -0.442416,0 -0.792797,0.350381 -0.792797,0.792797 l 0,5.5184846 -8.223322,-7.5082496 z"
     id="path-main"
      />
</defs>
<acyl-settings>
<linearGradient
     id="linearGradient4321">
    <stop
       style="stop-color:#FFFFFF;stop-opacity:1.0;"
       offset="1.0"
       id="stop1" />
  </linearGradient>
<linearGradient
     inkscape:collect="always"
     xlink:href="#linearGradient4321"
     id="acyl_gradient"
     x1="50.0%"
     y1="0.0%"
     x2="50.0%"
     y2="100.0%" />
<filter>
    </filter>
<use id="1" style="fill:url(#acyl_gradient);filter:url(#filter1111)" xlink:href="#path-main" />
</acyl-settings>
</svg>
