<svg xmlns="http://www.w3.org/2000/svg" width="48" height="48">
<defs>
    <path
       d="M 11.375,5 C 10.578446,4.9999819 9.8245192,5.3339652 9.40625,5.96875 L 8.59375,7.21875 C 8.4623262,7.3621167 8.424947,7.5705752 8.5,7.75 C 8.5750525,7.9294251 8.7431397,8.055408 8.9375,8.0625 C 9.1318604,8.0695922 9.31832,7.9547278 9.40625,7.78125 L 10.25,6.53125 C 10.44371,6.237266 10.871031,5.9999886 11.375,6 L 12.5,6 C 12.776142,6 13,5.7761424 13,5.5 C 13,5.2238576 12.776142,5 12.5,5 L 11.375,5 z M 35.40625,5 C 35.130108,5.0258883 34.911612,5.2863576 34.9375,5.5625 C 34.963388,5.8386424 35.223858,6.0258883 35.5,6 L 36.625,6 C 37.128968,5.9999886 37.587538,6.2372646 37.78125,6.53125 L 38.59375,7.78125 C 38.68168,7.9547277 38.86814,8.0695921 39.0625,8.0625 C 39.256861,8.0554079 39.424947,7.9294248 39.5,7.75 C 39.575055,7.5705753 39.537674,7.3621167 39.40625,7.21875 L 38.59375,5.96875 C 38.175479,5.3339665 37.421554,4.999982 36.625,5 L 35.5,5 C 35.468819,4.9970564 35.437431,4.9970564 35.40625,5 z M 12.25,7 C 11.424481,6.9957642 10.645695,7.4398057 10.25,8.15625 L 9.0625,10.25 C 8.9244288,10.491625 9.0083754,10.799429 9.25,10.9375 C 9.4916246,11.075571 9.7994288,10.991625 9.9375,10.75 L 11.125,8.625 C 11.335861,8.2432151 11.77344,7.9975547 12.25,8 L 14.5,8 C 14.776142,8 15,7.7761424 15,7.5 C 15,7.2238576 14.776142,7 14.5,7 L 12.25,7 z M 33.40625,7 C 33.130108,7.0258884 32.911612,7.2863576 32.9375,7.5625 C 32.963388,7.8386424 33.223858,8.0258883 33.5,8 L 35.75,8 C 36.226999,7.9975539 36.664041,8.2432407 36.875,8.625 L 38.0625,10.75 C 38.200571,10.991625 38.508375,11.075571 38.75,10.9375 C 38.991625,10.799429 39.075571,10.491625 38.9375,10.25 L 37.75,8.125 C 37.35408,7.4085306 36.575773,6.9957653 35.75,7 L 33.5,7 C 33.468819,6.9970575 33.437431,6.9970575 33.40625,7 z M 12.40625,9 C 12.260189,9.0280647 12.134202,9.1196919 12.0625,9.25 L 8.0625,16.75 C 8.0201833,16.826442 7.9986344,16.912637 8,17 L 8,19.5 C 8.0000276,19.776131 8.2238691,19.999972 8.5,20 L 17.59375,20 C 17.678498,20.086011 17.749667,20.169022 17.84375,20.25 C 17.145045,20.841467 16.6875,21.601586 16.6875,22.5 C 16.6875,23.212675 17.041269,23.859324 17.53125,24.34375 C 17.617841,24.42936 17.716691,24.515682 17.8125,24.59375 C 17.112515,25.26012 16.6875,26.086793 16.6875,27 C 16.6875,28.090033 17.388296,28.959271 18.375,29.625 C 17.900488,30.467463 17.6875,31.466242 17.6875,32.5 C 17.6875,34.222222 18.508871,35.570599 19.8125,36.3125 C 21.116129,37.054401 22.817957,37.312508 24.78125,37.3125 L 25.5,37.3125 C 25.948731,37.3125 26.3125,36.948731 26.3125,36.5 C 26.3125,36.051269 25.948731,35.6875 25.5,35.6875 L 24.78125,35.6875 C 22.958839,35.687508 21.517797,35.445595 20.625,34.9375 C 19.732203,34.429405 19.3125,33.777778 19.3125,32.5 C 19.3125,31.644135 19.495359,30.959934 19.84375,30.375 C 21.259843,30.949021 23.010276,31.312478 24.9375,31.3125 C 25.633938,31.312508 27.034457,31.295177 28.34375,31.09375 C 28.998397,30.993036 29.63904,30.87353 30.1875,30.59375 C 30.73596,30.31397 31.3125,29.74643 31.3125,29 C 31.3125,28.887817 31.291115,28.784706 31.25,28.6875 C 31.154598,28.273101 30.905226,27.916074 30.59375,27.6875 C 30.207475,27.404035 29.727749,27.234052 29.1875,27.09375 C 28.107002,26.813146 26.696094,26.6875 24.96875,26.6875 C 22.618439,26.6875 20.813111,27.215404 19.5625,28.25 C 19.504681,28.297832 19.461392,28.356303 19.40625,28.40625 C 18.656659,27.926234 18.3125,27.40575 18.3125,27 C 18.3125,26.421311 18.607137,25.913007 19.34375,25.4375 C 19.366093,25.446166 19.38372,25.46023 19.40625,25.46875 C 20.892125,26.03068 22.817768,26.312475 24.9375,26.3125 C 25.633938,26.312508 27.032208,26.28756 28.3125,26.15625 C 28.952646,26.090595 29.572234,26.021108 30.09375,25.84375 C 30.354508,25.755071 30.577231,25.62998 30.8125,25.4375 C 30.930135,25.34126 31.060659,25.222369 31.15625,25.0625 C 31.160685,25.055083 31.151946,25.038779 31.15625,25.03125 C 31.260763,24.880389 31.325714,24.694043 31.3125,24.5 C 31.3125,24.396836 31.278854,24.307185 31.25,24.21875 C 31.218828,24.12321 31.175796,24.045191 31.125,23.96875 C 31.062399,23.874544 31.005163,23.780588 30.9375,23.71875 C 30.764113,23.560291 30.595479,23.45678 30.40625,23.375 C 30.027792,23.21144 29.557717,23.096797 29,23 C 27.884567,22.806407 26.361168,22.6875 24.5,22.6875 C 22.342179,22.6875 20.606076,23.013982 19.28125,23.625 C 19.025565,23.485077 18.80216,23.363005 18.65625,23.21875 C 18.39409,22.959562 18.3125,22.753325 18.3125,22.5 C 18.3125,21.916666 18.57495,21.52964 19.3125,21.15625 C 19.325507,21.162457 19.330694,21.181349 19.34375,21.1875 C 20.830147,21.887815 22.785251,22.312475 24.9375,22.3125 C 25.633938,22.312508 27.032208,22.28756 28.3125,22.15625 C 28.952646,22.090595 29.572234,22.021108 30.09375,21.84375 C 30.354508,21.755071 30.577231,21.62998 30.8125,21.4375 C 30.930135,21.34126 31.060659,21.222369 31.15625,21.0625 C 31.160685,21.055083 31.151946,21.038779 31.15625,21.03125 C 31.260763,20.880389 31.325714,20.694043 31.3125,20.5 C 31.3125,20.304699 31.241133,20.139998 31.15625,20 L 39.5,20 C 39.776131,19.999972 39.999972,19.776131 40,19.5 L 40,17 C 40.001366,16.912637 39.979817,16.826442 39.9375,16.75 L 35.9375,9.25 C 35.847379,9.0939102 35.680231,8.9983971 35.5,9 L 12.5,9 C 12.468819,8.9970641 12.437431,8.9970641 12.40625,9 z M 24.5,20.3125 C 26.126141,20.3125 27.44137,20.419978 28.40625,20.5625 C 28.320845,20.574082 28.24488,20.58466 28.15625,20.59375 C 26.999043,20.712436 25.633919,20.687508 24.9375,20.6875 C 23.974705,20.687489 23.075108,20.597494 22.25,20.4375 C 22.929298,20.366241 23.659531,20.3125 24.5,20.3125 z M 24.5,24.3125 C 26.126141,24.3125 27.44137,24.419978 28.40625,24.5625 C 28.320845,24.574082 28.24488,24.58466 28.15625,24.59375 C 26.999043,24.712436 25.633919,24.687508 24.9375,24.6875 C 23.947081,24.687489 23.000425,24.622803 22.15625,24.5 C 22.852614,24.392067 23.62475,24.3125 24.5,24.3125 z M 24.96875,28.3125 C 26.617098,28.3125 27.93644,28.436854 28.78125,28.65625 C 29.203655,28.765948 29.500266,28.908465 29.625,29 C 29.656184,29.022884 29.648425,29.020515 29.65625,29.03125 C 29.631314,29.053347 29.593027,29.092854 29.46875,29.15625 C 29.190198,29.298345 28.689107,29.444466 28.125,29.53125 C 26.996787,29.704819 25.633919,29.687508 24.9375,29.6875 C 23.500235,29.687483 22.176567,29.458352 21.09375,29.125 C 21.9724,28.620627 23.246014,28.3125 24.96875,28.3125 z"
       id="path-main"
        />
</defs>
<acyl-settings>
<linearGradient
     id="linearGradient4321">
    <stop
       style="stop-color:#FFFFFF;stop-opacity:1.0;"
       offset="1.0"
       id="stop1" />
  </linearGradient>
<linearGradient
     inkscape:collect="always"
     xlink:href="#linearGradient4321"
     id="acyl_gradient"
     x1="50.0%"
     y1="0.0%"
     x2="50.0%"
     y2="100.0%" />
<filter>
    </filter>
<use id="1" style="fill:url(#acyl_gradient);filter:url(#filter1111)" xlink:href="#path-main" />
</acyl-settings>
</svg>
