<svg xmlns="http://www.w3.org/2000/svg" width="48" height="48">
<defs>
<defs
     id="defs4">
  </defs>
  <path
     id="path-main"
     d="M 14.556355,6.1946969 C 14.089965,6.2381899 13.582133,6.3631486 12.990357,6.5197153 10.81493,7.0952698 8.4105626,7.952917 5.5444805,8.824392 5.0015049,8.989491 4.4645848,9.147256 4.0080297,9.415334 3.5514746,9.683412 3.1755744,10.101541 3.0034273,10.656314 2.8560962,11.131112 2.7053434,11.969837 2.5602203,12.842801 2.4150972,13.715765 2.2780714,14.598242 2.1761076,14.999742 1.7926381,16.436794 2.069342,17.86387 2.6784088,19.165887 l 4.9343709,10.548326 0.029547,0.08864 0.029547,0 c 0.4301627,1.370146 1.9171549,2.172606 3.3683733,1.802375 l 0.02955,-0.02955 0.02955,0 11.109721,-4.934371 0.08864,-0.02955 0,-0.02955 c 1.404388,-0.416315 2.312138,-1.77932 1.979657,-3.161543 l 0,-0.05909 C 23.744659,19.854163 23.027771,14.459485 22.711363,12.813254 22.02107,10.05003 20.73129,9.064377 18.456577,7.790242 17.431535,7.2300728 16.346113,6.6781173 15.856429,6.4015268 15.460776,6.1780484 15.022745,6.1512035 14.556355,6.1946969 z m 0.08864,0.9159611 c 0.35687,-0.03328 0.588459,0.01665 0.768225,0.1181885 0.537287,0.3034788 1.562069,0.8375685 2.570601,1.3887155 0.88541,0.483862 1.791816,0.954482 2.186487,1.565998 0.39467,0.611515 -0.04665,0.674694 -1.211432,1.063696 l -1.950111,0.650037 c -0.03101,0.01044 -0.02767,0.01895 -0.05909,0.02955 -1.403229,0.473361 -3.164523,1.079008 -4.934371,1.684187 l -7.2981431,2.452409 c -0.6873504,0.189494 -1.198344,0.436186 -1.4773566,0.118188 -0.2716144,-0.309566 0.1181885,-2.097846 0.1181885,-2.097846 l -0.029547,0 C 3.3885384,13.738491 3.4435039,13.364839 3.5057285,12.990537 3.6503732,12.120451 3.7944243,11.229734 3.8898412,10.922238 3.9822949,10.62429 4.1827128,10.435023 4.510331,10.242654 4.8379491,10.050285 5.2823469,9.900916 5.8104047,9.740353 8.7030934,8.860787 11.113459,7.965239 13.226734,7.4061293 13.807963,7.2523528 14.288126,7.1439379 14.644997,7.110658 z m -3.102449,2.304676 c -0.477002,0.0086 -1.00953,0.09322 -1.536451,0.265924 -1.4051223,0.460554 -2.2549638,1.371634 -1.8910161,2.009205 0.3631432,0.637836 1.7859681,0.785573 3.1910901,0.325019 1.405123,-0.460555 2.254964,-1.371634 1.891016,-2.009205 C 12.970221,9.60763 12.337549,9.401066 11.542546,9.415334 z m 8.420932,2.570601 c 0.635036,-0.04471 1.208612,0.205627 1.565998,0.650036 l 0.295472,0.561396 1.506903,10.371043 0.02955,0.02955 c 0.243746,0.914456 -0.330626,1.864994 -1.359168,2.127393 l -0.05909,0.02955 -0.02955,0 -11.109721,4.93437 c -1.0285429,0.2624 -2.0313848,-0.296976 -2.2751293,-1.211432 l 0,-0.02955 -0.029547,-0.05909 c 0,0 -4.7373204,-9.780924 -4.8752766,-10.252855 -0.1390639,-0.475718 -0.2770692,-0.494193 -0.1181906,-1.063703 0.1550511,-0.55579 0.5865086,-0.71443 1.1523381,-0.975055 0.050708,-0.01325 0.2837345,-0.09778 0.3545656,-0.118188 l 0.029547,0 1.1523381,-0.384113 c 0.4347499,-0.140125 0.5837547,-0.182341 1.1818852,-0.384113 1.4032287,-0.473361 3.1645235,-1.079007 4.9343705,-1.684186 1.769848,-0.605179 3.534259,-1.211876 4.934371,-1.684187 1.308606,-0.441441 2.228332,-0.738196 2.541054,-0.827319 0.05804,-0.009 0.119962,-0.02551 0.177282,-0.02955 z m -2.068299,2.688788 c -0.303521,-3.17e-4 -0.629319,0.04636 -0.945508,0.147736 -1.264758,0.405525 -2.036177,1.519726 -1.713734,2.481959 0.322445,0.962233 1.630861,1.410127 2.895619,1.004603 1.264757,-0.405525 2.036178,-1.519726 1.713734,-2.481959 -0.241833,-0.721676 -1.039548,-1.151386 -1.950111,-1.152339 z m -2.836524,4.727541 c -0.303522,-3.17e-4 -0.629319,0.04636 -0.945509,0.147736 -1.264758,0.405525 -2.036177,1.519726 -1.713733,2.481959 0.322445,0.962233 1.630861,1.410127 2.895619,1.004602 1.264757,-0.405524 2.036177,-1.519725 1.713733,-2.481959 -0.241832,-0.721675 -1.039547,-1.151385 -1.95011,-1.152338 z m 17.137335,0.384113 c -1.67735,0.150804 -3.272124,0.742297 -4.845729,1.300074 -0.718249,0.329549 -1.263963,0.988594 -1.861469,2.038752 -1.077823,1.894344 -2.089374,4.138549 -3.427467,6.707199 -0.254109,0.487795 -0.494923,0.999661 -0.62049,1.506903 -0.125568,0.507244 -0.11793,1.06409 0.147735,1.565998 0.832642,1.277852 1.745841,2.499073 2.570601,3.782033 0.05514,0.06958 0.113599,0.149919 0.177283,0.20683 0.834047,1.141542 1.586573,1.624115 2.895618,2.127393 l 10.784703,4.047957 c 1.231007,0.676232 2.798387,0.22265 3.545656,-1.063697 l 4.166145,-11.198362 c 0.50468,-1.365175 0.347462,-2.839944 -0.827319,-3.575203 -2.819595,-2.160853 -5.664129,-4.373844 -8.598215,-6.411727 -1.653186,-0.950094 -3.035651,-1.097797 -4.107052,-1.03415 z m -0.325018,1.03415 c 0.45924,0.0073 0.778854,0.270904 0.915961,0.472754 0.18281,0.269133 0.117433,0.832001 0,1.034149 -0.117432,0.202149 -0.596855,1.191672 -1.181885,2.422865 -0.58503,1.231194 -1.309509,2.819274 -2.038752,4.372975 -0.569647,1.213672 -1.093421,2.312167 -1.595545,3.368373 -0.140679,0.295915 -0.315556,0.676866 -0.443207,0.945509 -0.381544,0.789169 -0.877149,1.828057 -1.152338,2.36377 -0.27519,0.535713 -0.94471,0.389955 -1.152338,0.20683 -1.181212,-0.978998 -1.982278,-2.326283 -2.806978,-3.60475 -0.145781,-0.275417 -0.14604,-0.50564 -0.05909,-0.856867 0.08695,-0.351227 0.256071,-0.797855 0.502301,-1.270526 1.352146,-2.595625 2.413994,-4.844476 3.457014,-6.677652 0.562637,-0.988871 0.948449,-1.423089 1.388716,-1.625092 1.056538,-0.484764 2.949441,-0.813767 3.663844,-1.063697 0.178601,-0.06248 0.349221,-0.09107 0.502301,-0.08864 z m 3.279732,0.768225 c 0.455977,0.024 0.923774,0.13292 1.181885,0.325019 l 8.036819,6.086708 c 0.814455,0.481992 0.912296,1.491251 0.561396,2.422865 l -4.195691,11.139269 c -0.508999,0.82858 -1.533093,1.124142 -2.334223,0.650036 -3.338656,-1.260529 -6.719445,-2.508037 -10.075572,-3.752485 -0.656225,-0.24098 -1.093244,-0.886414 -1.093244,-0.886414 -0.231413,-0.502417 -0.194347,-1.116641 0.118189,-1.654639 l 0,-0.02955 1.004602,-2.068299 c 0.58503,-1.231192 1.309509,-2.760179 2.038752,-4.313881 l 3.397921,-7.032217 c 0.304953,-0.524947 0.903369,-0.910405 1.359168,-0.886414 z m -6.648105,1.004603 c -0.4499,0.0695 -0.972951,0.549174 -1.329621,1.270526 -0.47556,0.961803 -0.462015,2.005837 0.02955,2.304676 0.491018,0.299944 1.267722,-0.249629 1.743281,-1.211432 0.475559,-0.961802 0.462015,-1.97629 -0.02955,-2.275129 -0.122754,-0.07499 -0.263693,-0.11181 -0.41366,-0.08864 z m -16.280469,1.53645 c -0.303521,-3.17e-4 -0.629319,0.04636 -0.945508,0.147736 -1.264758,0.405525 -2.0361779,1.519726 -1.7137337,2.481959 0.3224448,0.962233 1.6308607,1.410127 2.8956187,1.004602 1.264757,-0.405524 2.036178,-1.519725 1.713734,-2.481959 -0.241833,-0.721675 -1.039548,-1.151386 -1.950111,-1.152338 z m 23.755893,1.211433 c -0.638746,0.01717 -1.287291,0.466817 -1.625092,1.211432 -0.451073,0.992487 -0.171765,2.117935 0.62049,2.511506 0.792255,0.393572 1.795181,-0.07088 2.245582,-1.063697 0.451071,-0.992487 0.171764,-2.117934 -0.62049,-2.511506 -0.198064,-0.09839 -0.407575,-0.153458 -0.62049,-0.147735 z m 5.673049,3.338825 c -0.638746,0.01717 -1.287291,0.466818 -1.625092,1.211433 -0.451073,0.992487 -0.171765,2.117934 0.62049,2.511506 0.792253,0.393572 1.795181,-0.100424 2.245582,-1.093244 0.451073,-0.992486 0.171764,-2.117934 -0.62049,-2.511506 -0.198063,-0.09839 -0.407574,-0.123911 -0.62049,-0.118189 z m -14.980395,0.561396 c -0.4499,0.0695 -0.972952,0.549175 -1.329621,1.270527 -0.475558,0.961804 -0.462015,1.976289 0.02955,2.275129 0.491018,0.299942 1.267722,-0.24963 1.743281,-1.211433 0.475558,-0.961801 0.462015,-1.97629 -0.02955,-2.275129 -0.122755,-0.07499 -0.263693,-0.08226 -0.41366,-0.05909 z m 10.282402,1.595545 c -0.63578,0.06384 -1.22447,0.562293 -1.506904,1.329621 -0.377276,1.02282 -0.02114,2.117839 0.797772,2.452412 0.818919,0.334574 1.780361,-0.217876 2.156941,-1.24098 0.377276,-1.022817 0.02114,-2.117839 -0.797773,-2.452412 -0.20473,-0.08364 -0.43811,-0.109921 -0.650036,-0.08864 z m -4.84573,2.156941 c -0.637343,0.0573 -1.265788,0.566019 -1.565998,1.32962 -0.400966,1.017846 -0.07261,2.109875 0.738678,2.452412 0.811297,0.342541 1.786208,-0.193297 2.186488,-1.211432 0.400968,-1.017846 0.07261,-2.13942 -0.738678,-2.481959 -0.202825,-0.08564 -0.408042,-0.10774 -0.62049,-0.08864 z m 6.648105,2.866071 c -0.637344,0.0573 -1.265788,0.536472 -1.565998,1.300074 -0.400967,1.017842 -0.07262,2.139421 0.738678,2.481959 0.811296,0.342538 1.786208,-0.222845 2.186488,-1.240979 0.400969,-1.017846 0.07261,-2.109874 -0.738679,-2.452412 -0.202824,-0.08564 -0.408041,-0.10774 -0.620489,-0.08864 z" />
</defs>
<acyl-settings>
<linearGradient
     id="linearGradient4321">
    <stop
       style="stop-color:#FFFFFF;stop-opacity:1.0;"
       offset="1.0"
       id="stop1" />
  </linearGradient>
<linearGradient
     inkscape:collect="always"
     xlink:href="#linearGradient4321"
     id="acyl_gradient"
     x1="50.0%"
     y1="0.0%"
     x2="50.0%"
     y2="100.0%" />
<filter>
    </filter>
<use id="1" style="fill:url(#acyl_gradient);filter:url(#filter1111)" xlink:href="#path-main" />
</acyl-settings>
</svg>
