<svg xmlns="http://www.w3.org/2000/svg" width="48" height="48">
<defs>
<defs
   id="defs4">
</defs>
	<path
   
   id="path-main"
   d="M 11.234568,2 C 6.135504,2 2,6.13368 2,11.20598 c 0,5.09906 4.1622712,9.24612 9.234568,9.20598 l 4.317089,0 0,7.20468 -4.317089,0 C 6.135504,27.61664 2,31.72172 2,36.79402 2,41.90648 6.1355044,46 11.234568,46 c 5.072297,0 9.205978,-4.09354 9.205978,-9.20598 l 0,-4.2885 7.176088,0 0,4.2885 C 27.61663,41.90648 31.708342,46 36.794022,46 41.89309,46 46.000002,41.90646 46,36.79402 c 4e-6,-5.0723 -4.106916,-9.17738 -9.205978,-9.17738 l -4.317088,0 0,-7.20468 4.317088,0 c 5.099068,0 9.20598,-4.10692 9.205978,-9.20598 C 46.000004,6.13368 41.893084,2 36.794022,2 31.708346,2 27.589868,6.13368 27.616634,11.20598 l 0,4.34568 -7.176088,0 0,-4.34568 C 20.44055,6.13368 16.306865,2 11.234568,2 z m 0,4.88888 c 2.368856,0 4.317089,1.91966 4.317089,4.2885 l 0,4.34568 -4.317089,0 c -2.4090066,0 -4.3170894,-1.93666 -4.3170892,-4.34568 -6e-7,-2.36884 1.9080828,-4.2885 4.3170892,-4.2885 z m 25.559454,0 c 2.409008,0 4.31709,1.91966 4.31709,4.2885 2e-6,2.40902 -1.908082,4.34568 -4.31709,4.34568 l -4.317088,0 0,-4.34568 c 2e-6,-2.36884 1.948232,-4.2885 4.317088,-4.2885 z m -16.353476,13.52308 7.176088,0 0,7.20468 -7.176088,0 0,-7.20468 z m -9.205978,12.09356 4.317089,0 0,4.2885 c 0,2.409 -1.948233,4.34568 -4.317089,4.34568 -2.4090064,0 -4.3170894,-1.93668 -4.3170892,-4.34568 -2e-7,-2.36886 1.9080828,-4.2885 4.3170892,-4.2885 z m 21.242366,0 4.317088,0 c 2.409008,0 4.31709,1.91964 4.31709,4.2885 2e-6,2.40902 -1.908084,4.34568 -4.31709,4.34568 -2.368854,0 -4.317088,-1.93668 -4.317088,-4.34568 l 0,-4.2885 z" />
</defs>
<acyl-settings>
<linearGradient
     id="linearGradient4321">
    <stop
       style="stop-color:#FFFFFF;stop-opacity:1.0;"
       offset="1.0"
       id="stop1" />
  </linearGradient>
<linearGradient
     inkscape:collect="always"
     xlink:href="#linearGradient4321"
     id="acyl_gradient"
     x1="50.0%"
     y1="0.0%"
     x2="50.0%"
     y2="100.0%" />
<filter>
    </filter>
<use id="1" style="fill:url(#acyl_gradient);filter:url(#filter1111)" xlink:href="#path-main" />
</acyl-settings>
</svg>
