<svg xmlns="http://www.w3.org/2000/svg" width="48" height="48">
<defs>
<defs
     id="defs1327">
  </defs>
  <path
     id="path-main"
     d="M 3.661475,9.3443516 C 2.7166567,9.4334016 1.9959251,10.228688 2.0000173,11.177685 l 0,26.583322 c 1.011e-4,1.01248 0.8208529,1.833232 1.8333326,1.833333 l 40.3333171,0 C 45.179147,39.594239 45.999899,38.773487 46,37.761007 l 0,-26.583322 c -1.01e-4,-1.01248 -0.820853,-1.8332324 -1.833333,-1.8333334 l -40.3333171,0 c -0.05726,-0.0027 -0.1146148,-0.0027 -0.1718749,0 z m 2.0052075,3.6666654 36.6666525,0 0,22.916658 -36.6666525,0 0,-22.916658 z m 32.4270705,1.375 c -4.02588,0 -4.785615,5.729164 -2.520832,5.729164 2.264454,1e-6 6.546876,-5.729164 2.520832,-5.729164 z m -6.44531,0.716145 c -2.265599,0.294058 -1.46417,4.223237 -0.257812,4.296873 1.205866,0.07364 2.524232,-4.59093 0.257812,-4.296873 z m -3.781248,1.546875 c -0.09935,0.01054 -0.201313,0.03899 -0.315104,0.08594 -1.82099,0.751425 -0.275344,3.846493 0.744791,3.638019 0.957142,-0.195139 1.060606,-3.882127 -0.429687,-3.723956 z m -13.950516,1.145832 -3.007811,2.520833 -2.7499989,2.291666 -1.6901035,1.403645 1.6901035,1.403645 2.7499989,2.291666 3.007811,2.520832 0,-3.924477 0,-4.583332 0,-3.924478 z m 11.114579,1.289062 c -0.158325,-0.0053 -0.333329,0.046 -0.515624,0.171875 -1.45771,1.007193 0.488714,3.442453 1.346353,3.065103 0.750435,-0.330323 0.27755,-3.19968 -0.830729,-3.236978 z m 8.335935,1.861979 c -3.125133,-0.05288 -7.260499,1.520976 -7.963539,4.669269 -0.761418,3.40727 3.153921,8.135413 7.218747,8.135413 1.999687,2e-6 4.295041,-1.80902 4.726561,-4.096352 0.329573,-1.744216 -3.87516,-1.068202 -3.723957,0.08594 0.18115,1.383395 -1.005744,2.066305 -2.177083,1.174479 -3.728874,-2.838955 6.15276,-4.228056 5.499998,-8.106768 -0.20318,-1.207279 -1.705648,-1.830248 -3.580727,-1.861978 z" />
</defs>
<acyl-settings>
<linearGradient
     id="linearGradient4321">
    <stop
       style="stop-color:#FFFFFF;stop-opacity:1.0;"
       offset="1.0"
       id="stop1" />
  </linearGradient>
<linearGradient
     inkscape:collect="always"
     xlink:href="#linearGradient4321"
     id="acyl_gradient"
     x1="50.0%"
     y1="0.0%"
     x2="50.0%"
     y2="100.0%" />
<filter>
    </filter>
<use id="1" style="fill:url(#acyl_gradient);filter:url(#filter1111)" xlink:href="#path-main" />
</acyl-settings>
</svg>
