<svg xmlns="http://www.w3.org/2000/svg" width="48" height="48">
<defs>
    <path
       d="M 18.5,5.28125 C 17.712592,5.28125 17.09375,5.952154 17.09375,6.78125 L 17.09375,23 L 10.78125,23 C 10.392833,22.122966 9.5204041,21.5 8.5,21.5 C 7.4795961,21.5 6.6071675,22.122966 6.21875,23 L 3,23 C 2.9687672,22.998534 2.9374828,22.998534 2.90625,23 C 2.3539653,23.025888 1.9116117,23.510215 1.9375,24.0625 C 1.9633883,24.614785 2.4477153,25.025888 3,25 L 6.21875,25 C 6.6071676,25.877034 7.4795963,26.5 8.5,26.5 C 9.5204039,26.5 10.392833,25.877034 10.78125,25 L 17.09375,25 L 17.09375,38.78125 C 17.09375,39.610346 17.712592,40.281249 18.5,40.28125 L 29.65625,40.28125 C 30.443658,40.28125 31.09375,39.610348 31.09375,38.78125 L 31.09375,25 L 37.21875,25 C 37.607168,25.877034 38.479596,26.5 39.5,26.5 C 40.520404,26.5 41.392833,25.877034 41.78125,25 L 45.03125,25 C 45.391886,25.0051 45.724443,24.811498 45.90625,24.5 C 46.088056,24.188502 46.088056,23.811497 45.90625,23.5 C 45.724443,23.188503 45.391886,22.9949 45.03125,23 L 41.78125,23 C 41.392833,22.122966 40.520404,21.5 39.5,21.5 C 38.479596,21.5 37.607167,22.122966 37.21875,23 L 31.09375,23 L 31.09375,6.78125 C 31.09375,5.9521537 30.443658,5.28125 29.65625,5.28125 L 18.5,5.28125 z"
       id="path-main"
        />
</defs>
<acyl-settings>
<linearGradient
     id="linearGradient4321">
    <stop
       style="stop-color:#FFFFFF;stop-opacity:1.0;"
       offset="1.0"
       id="stop1" />
  </linearGradient>
<linearGradient
     inkscape:collect="always"
     xlink:href="#linearGradient4321"
     id="acyl_gradient"
     x1="50.0%"
     y1="0.0%"
     x2="50.0%"
     y2="100.0%" />
<filter>
    </filter>
<use id="1" style="fill:url(#acyl_gradient);filter:url(#filter1111)" xlink:href="#path-main" />
</acyl-settings>
</svg>
