<svg xmlns="http://www.w3.org/2000/svg" width="48" height="48">
<defs>
  <path
     d="M 5.673834,3.5 C 3.6342794,3.5 2,5.1455013 2,7.1837374 L 2,40.816264 C 2,42.854495 3.6342794,44.5 5.673834,44.5 l 36.640045,0 C 44.353434,44.5 46,42.854495 46,40.816264 L 46,7.1837374 C 46,5.1455013 44.353434,3.5 42.313879,3.5 l -36.640045,0 z m 0.1720191,9.811021 4.9148279,0 0,6.31147 -4.9148279,0 0,-6.31147 z m 7.8514379,0 4.902541,0 0,6.31147 -4.902541,0 0,-6.31147 z m 7.83915,0 4.914829,0 0,6.31147 -4.914829,0 0,-6.31147 z m 7.851438,0 4.902541,0 0,6.31147 -4.902541,0 0,-6.31147 z m 7.839151,0 4.91483,0 0,6.31147 -4.91483,0 0,-6.31147 z m -31.3811769,8.82869 4.9148279,0 0,5.071279 -4.9148279,0 0,-5.071279 z m 7.8514379,0 4.902541,0 0,5.071279 -4.902541,0 0,-5.071279 z m 7.83915,0 4.914829,0 0,5.071279 -4.914829,0 0,-5.071279 z m 7.851438,0 4.902541,0 0,5.071279 -4.902541,0 0,-5.071279 z m 7.839151,0 4.91483,0 0,5.071279 -4.91483,0 0,-5.071279 z m -31.3811769,7.588497 4.9148279,0 0,4.027554 -4.9148279,0 0,-4.027554 z m 7.8514379,0 4.902541,0 0,4.027554 -4.902541,0 0,-4.027554 z m 7.83915,0 4.914829,0 0,4.027554 -4.914829,0 0,-4.027554 z m 7.851438,0 4.902541,0 0,4.027554 -4.902541,0 0,-4.027554 z m 7.839151,0 4.91483,0 0,4.027554 -4.91483,0 0,-4.027554 z m -31.3811769,6.544775 4.9148279,0 0,4.027554 -4.9148279,0 0,-4.027554 z m 7.8514379,0 4.902541,0 0,4.027554 -4.902541,0 0,-4.027554 z m 7.83915,0 4.914829,0 0,4.027554 -4.914829,0 0,-4.027554 z m 7.851438,0 4.902541,0 0,4.027554 -4.902541,0 0,-4.027554 z m 7.839151,0 4.91483,0 0,4.027554 -4.91483,0 0,-4.027554 z"
     id="path-main"
      />
</defs>
<acyl-settings>
<linearGradient
     id="linearGradient4321">
    <stop
       style="stop-color:#FFFFFF;stop-opacity:1.0;"
       offset="1.0"
       id="stop1" />
  </linearGradient>
<linearGradient
     inkscape:collect="always"
     xlink:href="#linearGradient4321"
     id="acyl_gradient"
     x1="50.0%"
     y1="0.0%"
     x2="50.0%"
     y2="100.0%" />
<filter>
    </filter>
<use id="1" style="fill:url(#acyl_gradient);filter:url(#filter1111)" xlink:href="#path-main" />
</acyl-settings>
</svg>
