<svg xmlns="http://www.w3.org/2000/svg" width="48" height="48">
<defs>
	<path
   d="M 23.439554,2 C 12.131182,2 2.9660377,11.200102 2.9660377,22.508475 c 0,6.068644 2.802576,11.941339 7.5042373,15.824152 -0.4821354,0.482135 -3.6705504,3.670551 -3.6705504,3.670551 -0.071224,0.07122 -0.1048738,0.17106 -0.1048738,0.268009 0,0.0481 0.00427,0.0936 0.023302,0.13983 0.057424,0.139085 0.198932,0.233051 0.3495767,0.233051 l 12.6779655,0 c 0.206203,0 0.372882,-0.166678 0.372882,-0.372881 l 0,-12.677966 c 0,-0.150645 -0.09397,-0.292153 -0.233051,-0.349577 -0.139457,-0.05742 -0.301196,-0.02471 -0.40784,0.08157 1e-6,0 -3.279212,3.290864 -3.693856,3.705508 -3.357047,-2.466239 -5.360165,-6.372451 -5.360165,-10.522247 0,-7.196238 5.819652,-13.0508479 13.015889,-13.0508479 0.206204,0 0.372883,-0.1670508 0.372883,-0.3728813 l 0,-6.7118644 C 23.812436,2.1670508 23.645758,2 23.439554,2 z m 4.509535,3.3559322 c -0.206203,0 -0.372882,0.1670508 -0.372882,0.3728814 l 0,12.6779654 c 0,0.150645 0.09397,0.29178 0.233051,0.349577 0.139459,0.05779 0.301195,0.02508 0.40784,-0.08157 -1e-6,-1e-6 3.279211,-3.290865 3.693855,-3.70551 3.357049,2.466239 5.360169,6.372823 5.360169,10.522247 0,7.196237 -5.819652,13.050847 -13.01589,13.050847 -0.206202,0 -0.372881,0.166678 -0.372881,0.372881 l 0,6.711865 C 23.882352,45.833322 24.049029,46 24.255232,46 35.563606,46 44.72875,36.799899 44.72875,25.491525 c 0,-6.068644 -2.802576,-11.941339 -7.504238,-15.824152 0.482136,-0.4821361 3.670551,-3.6705509 3.670551,-3.6705509 0.07122,-0.071221 0.104874,-0.1710594 0.104874,-0.2680085 0,-0.048102 -0.0043,-0.093593 -0.0233,-0.1398305 -0.05743,-0.1390848 -0.198934,-0.2330509 -0.349579,-0.2330509 l -12.677965,0 z"
   id="path-main"
    />
</defs>
<acyl-settings>
<linearGradient
     id="linearGradient4321">
    <stop
       style="stop-color:#FFFFFF;stop-opacity:1.0;"
       offset="1.0"
       id="stop1" />
  </linearGradient>
<linearGradient
     inkscape:collect="always"
     xlink:href="#linearGradient4321"
     id="acyl_gradient"
     x1="50.0%"
     y1="0.0%"
     x2="50.0%"
     y2="100.0%" />
<filter>
    </filter>
<use id="1" style="fill:url(#acyl_gradient);filter:url(#filter1111)" xlink:href="#path-main" />
</acyl-settings>
</svg>
