<svg xmlns="http://www.w3.org/2000/svg" width="48" height="48">
<defs>
<defs
   id="defs30" />
	
	
	
<path
   d="M 10.3125,5 C 7.3652481,5 5,7.3652479 5,10.3125 L 5,37.6875 C 5,40.634752 7.3652479,43 10.3125,43 L 37.6875,43 C 40.634752,43 43,40.634753 43,37.6875 L 43,10.3125 C 43,7.3652481 40.634753,5 37.6875,5 L 10.3125,5 z M 31.84375,10 C 32.187301,9.950548 32.555613,10.032874 32.78125,10.25 L 37.71875,15.03125 C 38.170409,15.465122 38.065977,16.29015 37.46875,16.875 L 20.8125,33.15625 C 20.671687,33.297908 20.516215,33.439474 20.34375,33.53125 L 11.65625,37.8125 C 11.433916,37.92959 11.192346,37.990533 10.96875,38 C 10.584433,38.004513 10.29048,37.825169 10.125,37.53125 C 9.9595175,37.23733 9.9541238,36.852367 10.125,36.46875 L 14.3125,27.03125 C 14.39762,26.830224 14.526784,26.636749 14.6875,26.46875 L 30.84375,10.53125 C 31.142217,10.238684 31.500197,10.04945 31.84375,10 z M 18.21875,27.375 L 15.375,27.46875 L 12.90625,33.09375 L 14.71875,34.96875 L 20.375,31.90625 L 20.4375,29.46875 L 18.21875,27.375 z"
   id="path-main"
    /></defs>
<acyl-settings>
<linearGradient
     id="linearGradient4321">
    <stop
       style="stop-color:#FFFFFF;stop-opacity:1.0;"
       offset="1.0"
       id="stop1" />
  </linearGradient>
<linearGradient
     inkscape:collect="always"
     xlink:href="#linearGradient4321"
     id="acyl_gradient"
     x1="50.0%"
     y1="0.0%"
     x2="50.0%"
     y2="100.0%" />
<filter>
    </filter>
<use id="1" style="fill:url(#acyl_gradient);filter:url(#filter1111)" xlink:href="#path-main" />
</acyl-settings>
</svg>