<svg xmlns="http://www.w3.org/2000/svg" width="48" height="48">
<defs>
<defs
     id="defs5">
    <inkscape:perspective
       sodipodi:type="inkscape:persp3d"
       inkscape:vp_x="0 : 128 : 1"
       inkscape:vp_y="0 : 1000 : 0"
       inkscape:vp_z="256 : 128 : 1"
       inkscape:persp3d-origin="128 : 85.333333 : 1"
       id="perspective13" />
  </defs>
  <path
     d="M 24.002872,2 C 11.860427,2 2,11.854638 2,23.997128 2,36.139617 11.860383,46 24.002872,46 36.145364,46 46,36.139573 46,23.997128 46,11.854682 36.145318,2 24.002872,2 z m -0.660488,0.6145412 c 3.961859,-0.036535 7.733461,1.3452658 10.343819,2.8774311 1.962591,1.1519558 5.299524,4.4836888 7.575512,7.6386897 1.137994,1.5775 2.016443,3.115129 2.331811,4.296045 0.157684,0.590457 0.172906,1.083619 0.03446,1.44733 -0.138446,0.363711 -0.423896,0.617951 -0.93617,0.740896 -1.047645,0.251435 -1.921589,-0.0376 -2.751077,-0.694949 C 39.11125,18.262632 38.344352,17.228374 37.574468,16.013836 36.034701,13.584763 34.483593,10.437881 32.284819,8.1511552 30.067452,5.8450934 26.254257,4.7642876 22.997781,4.2399165 20.353224,3.8140796 18.461745,3.7787868 17.696645,3.774703 19.556413,2.9902443 21.469076,2.6318173 23.342384,2.6145412 z m -8.075187,4.6119305 c 0.204655,-0.0011 0.414425,0.00996 0.626028,0.028717 1.675231,0.1484382 3.566014,1.149096 5.553845,2.6362094 1.987831,1.4871139 4.07412,3.4572749 6.162642,5.5136409 4.177042,4.112729 8.344986,8.582496 11.831353,10.303615 1.714728,0.846511 2.982429,1.605887 3.784885,2.234173 0.401227,0.314144 0.685963,0.596356 0.850019,0.827046 0.164057,0.230691 0.202305,0.395883 0.166558,0.499674 -0.03575,0.103791 -0.159329,0.203872 -0.430753,0.269939 -0.271424,0.06607 -0.674487,0.09161 -1.200366,0.05743 -1.051758,-0.06836 -2.599415,-0.360088 -4.640647,-0.924683 -4.046882,-1.11935 -9.274173,-4.866732 -14.025323,-8.339381 -2.375574,-1.736325 -4.631155,-3.4048 -6.576165,-4.640648 -1.945011,-1.235847 -3.566351,-2.050385 -4.732542,-2.050385 -3.747504,0 -6.991377,2.820384 -8.006265,3.790628 0.433547,-1.076527 1.434797,-3.235904 2.986555,-5.335596 1.864707,-2.5231445 4.46375,-4.8534534 7.650176,-4.8703822 z M 8.34643,29.774964 c 1.474624,0.02106 3.331265,0.866408 4.54301,1.332463 0.535081,0.205801 1.767409,0.915206 3.486229,1.763217 1.71882,0.84801 3.939707,1.839056 6.518731,2.636209 5.073647,1.568217 11.536324,2.362139 18.246704,-0.195275 -0.163025,0.357405 -0.655838,1.348447 -1.935517,2.521342 -1.534781,1.406708 -4.042589,2.805741 -7.971806,2.762564 -3.942921,-0.04333 -7.586754,-0.934397 -10.395509,-1.631119 -1.404378,-0.348361 -2.600483,-0.647983 -3.526433,-0.769612 -0.462975,-0.06082 -0.86049,-0.07816 -1.188879,-0.02872 -0.328388,0.04944 -0.594473,0.169031 -0.763868,0.390549 -0.610591,0.798464 -0.443965,1.876154 -0.143585,2.733847 0.145333,0.414977 0.324949,0.779662 0.470957,1.051038 C 15.097767,42.005339 13.15266,40.876842 10.925206,39.142407 9.629645,38.133603 8.344745,36.987724 7.404516,35.816992 6.464288,34.646261 5.877803,33.454026 5.939956,32.37671 5.999896,31.337674 6.289689,30.693462 6.709568,30.303352 7.129447,29.913241 7.695764,29.765667 8.34643,29.774961 z"
     id="path-main"
      />
</defs>
<acyl-settings>
<linearGradient
     id="linearGradient4321">
    <stop
       style="stop-color:#FFFFFF;stop-opacity:1.0;"
       offset="1.0"
       id="stop1" />
  </linearGradient>
<linearGradient
     inkscape:collect="always"
     xlink:href="#linearGradient4321"
     id="acyl_gradient"
     x1="50.0%"
     y1="0.0%"
     x2="50.0%"
     y2="100.0%" />
<filter>
    </filter>
<use id="1" style="fill:url(#acyl_gradient);filter:url(#filter1111)" xlink:href="#path-main" />
</acyl-settings>
</svg>
