<svg xmlns="http://www.w3.org/2000/svg" width="48" height="48">
<defs>
  <path
     d="m 12.231142,3.7749394 c -0.77615,0.015678 -1.447296,0.4179433 -1.85744,0.9134948 C 9.963559,5.1839857 9.7362106,5.7848457 9.7342562,6.3936245 l -0.03045,0.9743944 -3.4712802,0 C 3.8964601,7.3680189 1.9999999,9.2949287 2,11.630995 l 0,29.262283 c 0,2.313107 1.8654945,4.226477 4.1716263,4.262976 0.022868,3.62e-4 0.037865,2e-6 0.0609,0 l 18.7266437,0 c 2.336066,0 4.262975,-1.926909 4.262975,-4.262976 l 0,-29.262283 c 0,-2.3360661 -1.92691,-4.2629759 -4.262975,-4.2629761 l -3.319032,0 0,-1.0961937 0,-0.03045 C 21.601887,4.9396041 20.573146,3.8251231 19.204152,3.835839 l -6.97301,-0.0609 z m 0.03045,1.9487889 6.94256,0.0609 c 0.228803,-0.00179 0.478867,0.234173 0.487197,0.5176471 l 0,2.0401384 0,0.9743945 0.974395,0 4.293426,0 c 1.290146,10e-8 2.314186,1.0240417 2.314186,2.3141867 l 0,29.262283 c 0,1.290147 -1.02404,2.314187 -2.314186,2.314187 l -18.7266439,0 c -0.012605,10e-7 -0.017819,2e-4 -0.03045,0 -1.2704707,-0.02011 -2.2532872,-1.036721 -2.2532872,-2.314187 l 0,-29.262283 c 0,-1.290145 0.993592,-2.3141871 2.2837372,-2.3141871 l 4.4456749,0 0.974394,0 0,-0.9439447 0.03045,-1.9792387 c 3.47e-4,-0.1081867 0.07396,-0.3253683 0.182699,-0.4567474 0.108736,-0.1313792 0.209504,-0.2093848 0.395848,-0.2131488 z m 19.640138,0 c -0.883236,0 -1.583391,0.7447428 -1.583391,1.6747405 l 0,35.9003462 c 0,0.929997 0.700156,1.705191 1.583391,1.70519 l 12.514879,0 c 0.883236,0 1.583389,-0.775192 1.583391,-1.70519 L 46,7.3984688 C 46,6.4684714 45.299844,5.7237283 44.416609,5.7237283 l -12.514879,0 z M 5.897578,17.111964 l 0,6.820761 19.487889,0 0,-6.820761 -19.487889,0 z m 0,8.76955 0,6.820761 19.487889,0 0,-6.820761 -19.487889,0 z m 19.548789,8.7391 -19.5183392,0.0609 0,4.811072 c 0,1.427006 0.6533315,2.009688 2.0401384,2.009689 l 15.4685118,0 c 1.296989,0 2.009689,-0.667435 2.009689,-1.948789 l 0,-4.932872 z"
     id="path-main"
      />
</defs>
<acyl-settings>
<linearGradient
     id="linearGradient4321">
    <stop
       style="stop-color:#FFFFFF;stop-opacity:1.0;"
       offset="1.0"
       id="stop1" />
  </linearGradient>
<linearGradient
     inkscape:collect="always"
     xlink:href="#linearGradient4321"
     id="acyl_gradient"
     x1="50.0%"
     y1="0.0%"
     x2="50.0%"
     y2="100.0%" />
<filter>
    </filter>
<use id="1" style="fill:url(#acyl_gradient);filter:url(#filter1111)" xlink:href="#path-main" />
</acyl-settings>
</svg>
