<svg xmlns="http://www.w3.org/2000/svg" width="48" height="48">
<defs>
  <path
     d="M 6.095074,2 C 3.859728,2 2,3.9350935 2,6.2610256 L 2,41.73898 C 2,44.064906 3.859728,46 6.095074,46 l 35.809852,0 C 44.140271,46 46,44.064906 46,41.73898 L 46,6.2610256 C 46,3.9350935 44.140271,2 41.904926,2 L 6.095074,2 z m 0,3.8939213 35.809852,0 c 0.230812,0 0.352806,0.1269388 0.352806,0.3671043 l 0,35.4779544 c 0,0.240163 -0.121994,0.367097 -0.352806,0.367097 l -35.809852,0 c -0.230811,0 -0.352806,-0.126934 -0.352806,-0.367097 l 0,-35.4779544 c 0,-0.2401655 0.121995,-0.3671043 0.352806,-0.3671043 z m 12.63803,3.8939213 c -0.565075,0 -1.020618,0.4740034 -1.020618,1.0619794 l 0,3.408819 2.041237,0 0,-3.408819 c 0,-0.587976 -0.455543,-1.0619794 -1.020619,-1.0619794 z m 3.515464,0 c -0.565075,0 -1.020618,0.4740034 -1.020618,1.0619794 l 0,3.408819 2.041237,0 0,-3.408819 c 0,-0.587976 -0.455544,-1.0619794 -1.020619,-1.0619794 z m 3.502864,0 c -0.565075,0 -1.020619,0.4740034 -1.020619,1.0619794 l 0,3.408819 2.041237,0 0,-3.408819 c 0,-0.587976 -0.455543,-1.0619794 -1.020618,-1.0619794 z m 3.515464,0 c -0.565076,0 -1.020619,0.4740034 -1.020619,1.0619794 l 0,3.408819 2.041237,0 0,-3.408819 c 0,-0.587976 -0.455543,-1.0619794 -1.020618,-1.0619794 z M 18.103093,15.005959 c -1.527888,0 -2.75945,1.268361 -2.75945,2.858165 l 0,12.271749 c 0,1.589807 1.231562,2.871275 2.75945,2.871275 l 11.793814,0 c 1.527887,0 2.74685,-1.281468 2.74685,-2.871275 l 0,-12.271749 c 0,-1.589804 -1.218963,-2.858165 -2.74685,-2.858165 l -11.793814,0 z m -6.741123,2.451729 c -0.565076,0 -1.020618,0.474003 -1.020618,1.061979 0,0.587973 0.455542,1.061978 1.020618,1.061978 l 3.27606,0 0,-2.123957 -3.27606,0 z m 22,0 0,2.123957 3.27606,0 c 0.565078,0 1.020618,-0.474004 1.020618,-1.061978 0,-0.587976 -0.45554,-1.061979 -1.020618,-1.061979 l -3.27606,0 z m -22,3.657926 c -0.565076,0 -1.020618,0.474004 -1.020618,1.061979 0,0.587974 0.455542,1.061978 1.020618,1.061978 l 3.27606,0 0,-2.123957 -3.27606,0 z m 22,0 0,2.123957 3.27606,0 c 0.565078,0 1.020618,-0.474004 1.020618,-1.061978 0,-0.587975 -0.45554,-1.061979 -1.020618,-1.061979 l -3.27606,0 z m -22,3.644815 c -0.565076,0 -1.020618,0.474004 -1.020618,1.061978 0,0.587976 0.455542,1.061979 1.020618,1.061979 l 3.27606,0 0,-2.123957 -3.27606,0 z m 22,0 0,2.123957 3.27606,0 c 0.565078,0 1.020618,-0.474003 1.020618,-1.061979 0,-0.587974 -0.45554,-1.061978 -1.020618,-1.061978 l -3.27606,0 z m -22,3.657926 c -0.565076,0 -1.020618,0.474004 -1.020618,1.061977 0,0.58798 0.455542,1.06198 1.020618,1.06198 l 3.27606,0 0,-2.123957 -3.27606,0 z m 22,0 0,2.123957 3.27606,0 c 0.565078,0 1.020618,-0.474 1.020618,-1.06198 0,-0.587973 -0.45554,-1.061977 -1.020618,-1.061977 l -3.27606,0 z m -15.649484,5.323008 0,3.408821 c 0,0.587969 0.455543,1.061969 1.020618,1.061969 0.565076,0 1.020619,-0.474 1.020619,-1.061969 l 0,-3.408821 -2.041237,0 z m 3.515464,0 0,3.408821 c 0,0.587969 0.455543,1.061969 1.020618,1.061969 0.565075,0 1.020619,-0.474 1.020619,-1.061969 l 0,-3.408821 -2.041237,0 z m 3.502863,0 0,3.408821 c 0,0.587969 0.455544,1.061969 1.020619,1.061969 0.565075,0 1.020618,-0.474 1.020618,-1.061969 l 0,-3.408821 -2.041237,0 z m 3.515464,0 0,3.408821 c 0,0.587969 0.455543,1.061969 1.020619,1.061969 0.565075,0 1.020618,-0.474 1.020618,-1.061969 l 0,-3.408821 -2.041237,0 z"
     id="path-main"
      />
</defs>
<acyl-settings>
<linearGradient
     id="linearGradient4321">
    <stop
       style="stop-color:#FFFFFF;stop-opacity:1.0;"
       offset="1.0"
       id="stop1" />
  </linearGradient>
<linearGradient
     inkscape:collect="always"
     xlink:href="#linearGradient4321"
     id="acyl_gradient"
     x1="50.0%"
     y1="0.0%"
     x2="50.0%"
     y2="100.0%" />
<filter>
    </filter>
<use id="1" style="fill:url(#acyl_gradient);filter:url(#filter1111)" xlink:href="#path-main" />
</acyl-settings>
</svg>
