<svg xmlns="http://www.w3.org/2000/svg" width="48" height="48">
<defs>
  <path
     d="M 25.799799,4.9629566 C 11.747894,4.7105272 2.0005237,27.096283 2.0005237,27.096283 c -0.084149,0.168286 9.9852133,14.636555 21.0921073,14.636555 11.106896,0 17.522218,-8.091754 17.522218,-8.091754 0,0 -4.379699,3.867382 -16.748741,3.867382 -12.369042,0 -18.7716791,-9.073473 -18.7716791,-9.073473 2.566367,0.620555 1.0046401,4.61111 17.0759811,4.61111 16.071341,0 23.829024,-21.865586 23.829024,-21.865586 0,0 -6.14773,-5.9651309 -20.199635,-6.2175604 z m 3.2724,5.5630804 c 7.203527,0.02674 9.764667,2.075807 11.869889,3.093906 -0.374701,2.800389 -4.876509,11.4391 -12.970605,15.082792 2.881987,-1.686204 4.819353,-4.809164 4.819353,-8.389245 0,-4.787415 -3.475467,-8.745463 -8.032256,-9.54946 0.990971,-0.09023 1.934389,-0.180155 2.796415,-0.208244 0.522614,-0.01703 1.036969,-0.03153 1.517204,-0.02975 z m -12.197128,2.290681 c -2.159918,1.782522 -3.540143,4.477611 -3.540143,7.496772 0,5.367397 4.360557,9.727954 9.727954,9.727954 0.213309,0 0.414842,-0.01621 0.624731,-0.02975 C 15.125429,31.361937 5.7489095,26.144312 5.7489095,26.144312 6.9895245,22.748944 10.158402,16.1726 16.875071,12.816718 z"
     id="path-main" />
</defs>
<acyl-settings>
<linearGradient
     id="linearGradient4321">
    <stop
       style="stop-color:#FFFFFF;stop-opacity:1.0;"
       offset="1.0"
       id="stop1" />
  </linearGradient>
<linearGradient
     inkscape:collect="always"
     xlink:href="#linearGradient4321"
     id="acyl_gradient"
     x1="50.0%"
     y1="0.0%"
     x2="50.0%"
     y2="100.0%" />
<filter>
    </filter>
<use id="1" style="fill:url(#acyl_gradient);filter:url(#filter1111)" xlink:href="#path-main" />
</acyl-settings>
</svg>
