<svg xmlns="http://www.w3.org/2000/svg" width="48" height="48">
<defs>
  <path
     d="m 32.416219,13.62167 c -0.67165,0.05399 -0.686234,0.240165 -0.706662,0.863696 -0.03997,1.199006 2.316281,2.199888 2.316281,3.808123 l 0,9.893268 c 0,1.880816 -0.04046,1.993644 -0.667403,2.865906 -0.626923,0.872263 -0.918042,1.766655 0.117777,1.766655 l 2.826648,0 c 1.367218,0 2.159246,0.43167 2.159246,-0.549625 0,-0.981296 -1.491843,-1.651288 -1.491843,-2.905167 l 0,-6.870325 c 4.088733,2.344209 7.426996,13.932433 7.891059,15.664341 0.464064,1.73191 0.78518,0.991065 0.78518,-0.235554 l 0,-21.867262 c 0,-1.221845 0.35333,-0.977192 0.35333,-1.413325 0,-0.43613 0.03093,-0.628143 -0.745921,-0.628143 l -3.297754,0 c -0.906957,0 -1.126514,-0.08056 -1.099253,0.628143 0.02726,0.708715 2.080728,0.812797 2.080728,2.748131 l 0,7.537728 c -3.216471,-2.589532 -3.673361,-6.892193 -4.907376,-9.029571 -0.961693,-1.665702 -1.365018,-2.110854 -2.669613,-2.237763 -0.369422,-0.03596 -1.69189,-0.03926 -2.041467,-0.03926 -0.396012,0 -0.679074,-0.018 -0.902957,0 z m -6.831066,-0.587868 c -4.849541,0.0795 -6.713289,4.022037 -6.713289,6.831066 0,2.809028 3.527368,6.493444 7.184398,6.28144 3.657041,-0.212002 5.967368,-4.395497 5.967368,-6.63477 0,-2.239273 -1.032423,-6.477736 -6.438477,-6.477736 z m -13.073246,0.431849 c -0.828802,0 -1.059227,0.111997 -1.020734,0.8637 0.03854,0.751704 1.531101,0.572345 1.531101,1.805913 l 0,3.297755 -6.0458861,0 0,-2.512576 c 0,-1.42631 1.1970796,-2.145649 1.1777705,-2.473317 -0.018002,-0.306025 0.046131,-0.802408 -0.3533316,-0.863697 l -0.078519,0 c -4.7387436,0.01888 -4.8419963,0.05185 -4.985893,0.588885 -0.1449024,0.540793 1.413324,1.23407 1.413324,2.159245 l 0,3.10146 c -1.0711639,0 -2.0293127,-0.179252 -2.1449679,0.745921 -0.1156438,0.925174 1.9094139,1.295548 1.9094139,1.295548 l 0,13.976203 c 0,3.14174 0.105607,2.925153 0.510367,2.944425 0.4047711,0.01928 1.3355672,-2.766592 1.374065,-3.768864 0.038555,-1.002272 1.3740649,-2.534587 1.3740649,-3.729605 l 0,-8.99031 5.6532953,0 0,7.145137 c 0,0.867351 -1.374065,1.618139 -1.374065,2.080727 0,0.462588 -0.159969,1.334806 0.74592,1.334806 l 3.847383,0 c 1.028879,0 1.570359,0.234237 1.570359,-0.902957 0,-1.137192 -1.648878,-1.373252 -1.648878,-2.394799 l 0,-7.262914 c 0,0 2.496079,1.413816 3.376275,0.863698 0.231301,-0.144559 -2.53851,-3.337016 -3.258497,-3.337016 l 0,-2.630352 c 0,-1.619056 1.531867,-1.523187 1.570359,-2.159246 0.03855,-0.636056 -0.03276,-1.17777 -0.745919,-1.17777 l -4.397008,0 z m 13.112505,2.237763 c 2.305525,0 2.277022,2.714048 2.277022,3.9259 0,1.211853 -0.334362,4.082937 -2.35554,4.082937 -2.021166,0 -2.512575,-2.325703 -2.512575,-4.35775 0,-2.032046 0.630077,-3.571586 2.591093,-3.651087 z m 4.985894,9.736233 c -0.908204,-0.02087 -1.947746,1.805914 -3.808124,1.805914 -2.235171,0 -3.362224,-1.032733 -4.043676,-1.059994 -0.681465,-0.02726 -1.591274,0.05488 -2.708871,1.96295 -1.117585,1.908076 1.486717,1.550642 3.258497,1.059994 1.771789,-0.490648 4.566228,0.58991 5.574777,0.235553 1.008561,-0.354356 3.128536,-3.138667 2.119986,-3.847382 -0.12607,-0.0886 -0.262848,-0.154055 -0.392589,-0.157035 z"
     id="path-main"/>
</defs>
<acyl-settings>
<linearGradient
     id="linearGradient4321">
    <stop
       style="stop-color:#FFFFFF;stop-opacity:1.0;"
       offset="1.0"
       id="stop1" />
  </linearGradient>
<linearGradient
     inkscape:collect="always"
     xlink:href="#linearGradient4321"
     id="acyl_gradient"
     x1="50.0%"
     y1="0.0%"
     x2="50.0%"
     y2="100.0%" />
<filter>
    </filter>
<use id="1" style="fill:url(#acyl_gradient);filter:url(#filter1111)" xlink:href="#path-main" />
</acyl-settings>
</svg>
