<svg xmlns="http://www.w3.org/2000/svg" width="48" height="48">
<defs>
  <path
     d="M 23.071063,2.125157 C 17.377116,2.091437 11.692612,4.365681 7.5330338,8.888266 c -7.82979289,8.5131 -7.28603719,21.748104 1.227062,29.577904 6.2224122,5.72296 15.0140282,7.0666 22.2868702,3.89521 0.873544,-0.38092 1.678775,-0.44383 2.211565,-0.35671 L 46,45.8 41.57687,34.21425 C 41.305374,33.13081 41.64393,32.55596 42.019183,31.73159 45.66663,23.715239 43.946363,13.933713 37.110935,7.646936 33.120419,3.97672 28.095134,2.154913 23.071063,2.125157 z m 0.342436,8.746383 c 2.928126,0.01741 5.86299,1.084442 8.189925,3.224605 3.985849,3.665923 4.994788,9.365404 2.867901,14.039872 -0.218721,0.480704 -1.454509,2.487503 -1.298403,3.110463 l 0.69914,2.78229 -3.124728,-0.49939 c -0.594653,-0.0972 -2.173035,0.59117 -2.682414,0.81329 -4.240912,1.84929 -9.355638,1.05425 -12.984028,-2.28291 -4.964128,-4.565679 -5.2933572,-12.271811 -0.727676,-17.235939 2.425518,-2.637193 5.741739,-3.972017 9.060283,-3.952281 z"
     id="path-main"
      />
</defs>
<acyl-settings>
<linearGradient
     id="linearGradient4321">
    <stop
       style="stop-color:#FFFFFF;stop-opacity:1.0;"
       offset="1.0"
       id="stop1" />
  </linearGradient>
<linearGradient
     inkscape:collect="always"
     xlink:href="#linearGradient4321"
     id="acyl_gradient"
     x1="50.0%"
     y1="0.0%"
     x2="50.0%"
     y2="100.0%" />
<filter>
    </filter>
<use id="1" style="fill:url(#acyl_gradient);filter:url(#filter1111)" xlink:href="#path-main" />
</acyl-settings>
</svg>
