<svg xmlns="http://www.w3.org/2000/svg" width="48" height="48">
<defs>
<defs
     id="defs3">
  </defs>
  <path
     id="path-main"
     d="M 31.641807,3.3902171 C 29.987901,3.5263317 28.443102,4.3164518 27.334349,5.6013789 26.487695,5.097883 25.514296,4.7954217 24.46271,4.8260365 23.307244,4.8596758 22.22936,5.2657923 21.36134,5.9172592 20.245369,4.5777613 18.648564,3.7347666 16.967733,3.5912319 15.726556,3.4852415 14.463494,3.7587835 13.320752,4.3952907 10.654929,5.8801544 9.4513856,9.0138075 10.276815,11.832836 c -1.5035454,0.269732 -2.8756261,1.169979 -3.7044135,2.555758 -0.8171671,1.366351 -0.9584413,2.967382 -0.516895,4.393607 -2.4711382,0.98958 -4.1744434,3.468118 -4.0490105,6.260172 0.1263614,2.81272 2.0757648,5.136326 4.6520547,5.88686 -0.2911417,1.31646 -0.1058217,2.729377 0.6317605,3.962861 0.8152754,1.363412 2.1562727,2.241372 3.6182648,2.527042 -0.290928,2.634148 1.076429,5.310889 3.589548,6.51862 2.679469,1.287671 5.868758,0.543498 7.724708,-1.636834 0.852675,0.480984 1.860648,0.735417 2.900355,0.689193 1.140198,-0.05069 2.194368,-0.466214 3.043937,-1.119939 1.965437,2.306924 5.388058,2.942723 8.098021,1.378386 2.624733,-1.515135 3.753241,-4.645087 2.900355,-7.437544 1.219329,-0.402679 2.300613,-1.224379 2.986504,-2.412176 0.618,-1.070228 0.812239,-2.272642 0.660477,-3.41725 C 44.70843,28.85804 45.999998,26.786349 46,24.439329 c 0,-2.648814 -1.62836,-4.934197 -3.934145,-5.915575 0.546423,-1.461302 0.462654,-3.146688 -0.373313,-4.594622 -0.740361,-1.28234 -1.9319,-2.154369 -3.273668,-2.527042 C 39.143053,8.5427322 37.831205,5.4212416 35.087773,4.050694 34.25535,3.6348362 33.383482,3.4413862 32.589447,3.3902171 c -0.312595,-0.020144 -0.638698,-0.025425 -0.94764,0 z m 0.344596,3.6756975 c 0.126782,-0.01007 0.244218,-0.00832 0.373313,0 0.39721,0.025597 0.75655,0.1055994 1.062507,0.2584475 1.367751,0.6832935 1.891335,2.2613514 1.234804,3.6469819 l -1.263521,1.66555 -4.307458,3.675698 0.918925,-5.858143 c 0.02038,-0.113708 0.02999,-0.229084 0.02872,-0.344597 -0.01499,-0.5147475 -0.107958,-1.0222075 -0.258451,-1.4932525 l 0.02872,-0.1148656 C 30.2761,7.6525851 31.098927,7.1364094 31.986403,7.0659146 z M 16.27854,7.2669293 c 0.131471,-0.00739 0.271871,-0.011115 0.402029,0 0.846372,0.072276 1.614333,0.5401873 2.096297,1.3496702 l 0.402029,1.206089 c -0.01692,0.2008015 -0.006,0.3972265 0,0.6030445 -0.0013,0.115512 0.0084,0.230888 0.02872,0.344596 l 1.608118,7.322679 c -0.0763,0.0491 -0.155466,0.09165 -0.229731,0.143582 L 17.714359,15.738264 14.038662,11.315941 C 13.32474,9.9683715 13.761442,8.3577538 15.101168,7.6115259 15.494787,7.3922804 15.884125,7.2890807 16.27854,7.2669293 z m 8.299036,1.2348046 c 0.488921,-0.014234 0.895041,0.1812954 1.206088,0.4881786 L 24.405277,13.78555 22.998174,9.6216735 c 0.241851,-0.641016 0.838473,-1.0983687 1.579402,-1.1199396 z m 12.54906,6.3750391 c 0.536397,0.0375 1.096456,0.352152 1.407103,0.890207 0.488881,0.846765 0.196605,1.809767 -0.63176,2.326028 l -1.148656,0.402029 -3.675697,0.689193 2.986504,-3.962861 0.172298,-0.143582 c 0.303191,-0.150337 0.614035,-0.22032 0.890208,-0.201014 z m -26.017045,0.545611 c 0.307705,-0.01675 0.651476,0.0709 0.976356,0.258447 0.0089,0.0051 0.01979,-0.0053 0.02872,0 l 2.929071,2.584475 0.947641,1.148656 -5.743277,-0.804059 c -0.7887033,-0.52991 -1.0136914,-1.495359 -0.516898,-2.326028 0.327471,-0.54755 0.829256,-0.831592 1.378387,-0.861491 z m 13.467985,5.255099 c 0.183943,0 0.370479,0.02977 0.545611,0.05743 0.173456,0.02739 0.325392,0.06237 0.488178,0.114866 0.263182,0.08596 0.519302,0.199814 0.746627,0.344597 0.09031,0.05752 0.174581,0.10648 0.258447,0.172298 0.02136,0.01658 0.03651,0.04034 0.05743,0.05743 0.103356,0.08541 0.195009,0.161131 0.287164,0.258447 0.0094,0.0097 0.01948,0.01888 0.02872,0.02872 0.01829,0.0194 0.03962,0.03759 0.05743,0.05743 0.06232,0.07075 0.11602,0.153745 0.172298,0.229731 0.05808,0.07751 0.121126,0.147163 0.172298,0.229731 0.0219,0.03535 0.03679,0.07863 0.05743,0.114866 0.01671,0.02968 0.03924,0.05764 0.05743,0.08615 0.01859,0.04807 0.03464,0.09682 0.05743,0.143582 0.07275,0.15282 0.121246,0.305185 0.172298,0.459462 0.01461,0.04889 0.04499,0.09381 0.05743,0.143582 0.0097,0.04043 0.0205,0.07383 0.02872,0.114866 0.0019,0.009 -0.0018,0.0197 0,0.02872 0.0019,0.0091 -0.0021,0.01966 0,0.02872 0.04616,0.206687 0.08615,0.416781 0.08615,0.63176 0,0.190975 -0.02766,0.363823 -0.05743,0.545611 -0.0063,0.03898 -0.02103,0.07637 -0.02872,0.114866 -0.02772,0.130875 -0.04279,0.249015 -0.08615,0.373313 -0.02969,0.08811 -0.04902,0.173338 -0.08615,0.258447 -0.02534,0.05705 -0.05763,0.11673 -0.08615,0.172299 -0.0056,0.01151 -0.02301,0.01728 -0.02872,0.02872 -0.004,0.0076 0.004,0.0211 0,0.02872 -0.01001,0.0194 -0.01834,0.03826 -0.02872,0.05743 -0.03556,0.06684 -0.07499,0.13707 -0.114866,0.201015 -0.0072,0.01132 -0.02137,0.01749 -0.02872,0.02872 -0.109267,0.163664 -0.234922,0.313448 -0.373313,0.459463 -0.02352,0.02525 -0.03313,0.06165 -0.05743,0.08615 -0.01807,0.02087 -0.04039,0.03586 -0.05743,0.05743 -0.107488,0.102631 -0.224112,0.199429 -0.344596,0.287164 -0.01703,0.01233 -0.04016,0.01671 -0.05743,0.02872 -0.01094,0.0076 -0.01768,0.0212 -0.02872,0.02872 -0.06221,0.04211 -0.135803,0.077 -0.201015,0.114866 -0.01889,0.011 -0.03831,0.01808 -0.05743,0.02872 -0.03659,0.02032 -0.07741,0.03848 -0.114865,0.05743 -0.08488,0.04312 -0.169565,0.107716 -0.258448,0.143582 -0.06602,0.02629 -0.132878,0.03532 -0.201015,0.05743 -0.06562,0.02181 -0.133645,0.03969 -0.201014,0.05743 -0.114363,0.03012 -0.225762,0.0396 -0.344597,0.05743 -0.01159,0.0017 -0.01706,0.02715 -0.02872,0.02872 -0.148126,0.01984 -0.303029,0.02872 -0.459462,0.02872 -0.03002,0 -0.05633,7.7e-4 -0.08615,0 -0.170723,-0.0044 -0.325105,-0.02884 -0.488178,-0.05743 -0.0095,-0.0017 -0.01925,0.0017 -0.02872,0 -0.01763,-0.0033 -0.03989,0.0036 -0.05743,0 -0.009,-0.0018 -0.01975,0.0019 -0.02872,0 -0.09237,-0.01886 -0.16983,-0.05994 -0.258447,-0.08615 -0.11599,-0.03409 -0.234213,-0.06898 -0.344597,-0.114866 -0.01977,-0.0085 -0.03742,-0.0209 -0.05743,-0.02872 -0.120358,-0.05271 -0.232182,-0.106369 -0.344596,-0.172298 -0.04007,-0.02354 -0.0759,-0.061 -0.114866,-0.08615 -0.01758,-0.01135 -0.04008,-0.01705 -0.05743,-0.02872 -0.0055,-0.0039 0.0056,-0.0249 0,-0.02872 -0.154951,-0.10648 -0.29468,-0.214475 -0.430745,-0.344597 -0.136065,-0.130121 -0.260394,-0.281655 -0.373313,-0.430746 -0.02433,-0.03213 -0.06301,-0.05327 -0.08615,-0.08615 -0.02335,-0.0347 -0.03538,-0.07924 -0.05743,-0.114865 -0.0043,-0.0066 0.0042,-0.02207 0,-0.02872 -0.08798,-0.144227 -0.19123,-0.280323 -0.258448,-0.430746 -0.05283,-0.125931 -0.07752,-0.268536 -0.114865,-0.402029 -0.03801,-0.123537 -0.06373,-0.246372 -0.08615,-0.373313 -0.02979,-0.168642 -0.05743,-0.342723 -0.05743,-0.516895 0,-0.193541 0.02651,-0.390602 0.05743,-0.574328 0.0056,-0.02965 0.02228,-0.05683 0.02872,-0.08615 0.004,-0.01866 -0.0042,-0.03887 0,-0.05743 0.01061,-0.04949 0.01595,-0.09499 0.02872,-0.143582 0.02488,-0.08571 0.05407,-0.175677 0.08615,-0.258447 0.133153,-0.343543 0.331596,-0.650778 0.574328,-0.947641 0.03587,-0.04487 0.05485,-0.09591 0.08615,-0.143582 0.01403,-0.01558 0.01439,-0.04212 0.02872,-0.05743 0.02597,-0.02747 0.05922,-0.0596 0.08615,-0.08615 0.01489,-0.01477 0.04227,-0.01423 0.05743,-0.02872 0.09011,-0.08576 0.18741,-0.18325 0.287164,-0.258448 0.06602,-0.04959 0.13121,-0.09893 0.201014,-0.143581 0.130843,-0.08361 0.258781,-0.164588 0.40203,-0.229732 0.08411,-0.03824 0.170508,-0.0547 0.258447,-0.08615 0.02064,-0.0074 0.03659,-0.02172 0.05743,-0.02872 0.05707,-0.01961 0.113824,-0.04083 0.172298,-0.05743 0.0756,-0.02097 0.151891,-0.04155 0.229731,-0.05743 0.009,-0.0022 0.0197,0.0021 0.02872,0 0.01881,-0.0038 0.0385,0.0035 0.05743,0 0.200439,-0.0365 0.391131,-0.05743 0.603045,-0.05743 z m 15.047386,1.033789 c 1.523806,0.0356 2.69934,1.19331 2.69934,2.728057 -1e-6,0.959218 -0.460954,1.757124 -1.177371,2.239878 -0.288193,-0.266713 -0.623158,-0.485239 -0.976358,-0.689193 -0.10053,-0.05772 -0.206294,-0.105789 -0.31588,-0.143582 l -6.461187,-2.297311 4.192593,-1.464535 2.038863,-0.373314 z m -31.3582937,0.315881 1.0337899,0.143582 6.9780818,2.613191 -6.8057835,2.498325 -0.9476407,0.229732 c -1.538341,0.05376 -2.7734094,-1.094597 -2.8429223,-2.641908 -0.069715,-1.551802 1.0495787,-2.752791 2.5844748,-2.842922 z m 7.4088277,7.552409 -2.957788,4.049011 c -0.835746,0.431426 -1.775541,0.192787 -2.268594,-0.631761 -0.47857,-0.800328 -0.266826,-1.76099 0.459462,-2.297311 l 4.76692,-1.119939 z m 19.211262,0.459463 4.336175,0.804058 c -0.0209,0.240082 -0.09759,0.489063 -0.229731,0.71791 -0.473952,0.820769 -1.385561,1.068591 -2.211162,0.689193 l -1.895282,-2.211161 z m -6.202739,0.229731 5.513546,4.709487 1.263521,1.464536 c 0.693911,1.32565 0.28766,2.88417 -1.03379,3.646981 -1.33871,0.772775 -2.911454,0.328091 -3.704414,-0.976357 l -0.430746,-1.234805 c 0.01059,-0.181714 0.0083,-0.360225 0,-0.545611 -0.0099,-0.106767 -0.02911,-0.212464 -0.05743,-0.315881 l -1.550685,-6.74835 z m -8.413901,1.636834 -0.775343,5.570979 c -0.02038,0.113707 -0.02999,0.229084 -0.02872,0.344596 0.02369,0.532912 0.118371,1.040378 0.287164,1.521969 l 0,0.02872 c -0.681484,1.364498 -2.24848,1.906881 -3.646981,1.234805 -1.386364,-0.666245 -1.902769,-2.187333 -1.263521,-3.589549 l 0.660476,-0.918924 4.766921,-4.192592 z m 4.76692,2.096296 1.464535,4.192592 c -0.225042,0.642859 -0.795201,1.086352 -1.550684,1.119939 -0.494612,0.02199 -0.921345,-0.138791 -1.234805,-0.430745 l 1.320954,-4.881786 z" />
</defs>
<acyl-settings>
<linearGradient
     id="linearGradient4321">
    <stop
       style="stop-color:#FFFFFF;stop-opacity:1.0;"
       offset="1.0"
       id="stop1" />
  </linearGradient>
<linearGradient
     inkscape:collect="always"
     xlink:href="#linearGradient4321"
     id="acyl_gradient"
     x1="50.0%"
     y1="0.0%"
     x2="50.0%"
     y2="100.0%" />
<filter>
    </filter>
<use id="1" style="fill:url(#acyl_gradient);filter:url(#filter1111)" xlink:href="#path-main" />
</acyl-settings>
</svg>
