<svg xmlns="http://www.w3.org/2000/svg" width="48" height="48">
<defs>
<defs
     id="defs3">
  </defs>
  <path
     id="path-main"
     d="M 23.985668,2 C 11.837102,2 2,11.859342 2,24 2,36.140656 11.837101,46 23.985668,46 36.134235,46 45.999995,36.140657 46,24 46.000001,11.859341 36.134234,2 23.985668,2 z m -5.67557,9.166667 c 0.477997,-0.01777 0.950396,0.04259 1.433224,0.171875 1.674758,0.448458 3.005637,1.716717 3.468404,3.380208 l -2.637133,0.773437 c -0.218104,-0.78401 -0.727571,-1.269924 -1.547883,-1.489583 -1.167522,-0.312633 -2.285924,0.33623 -2.579804,1.432292 L 13.781107,14.71875 c 0.558684,-2.08368 2.457671,-3.475069 4.528991,-3.552083 z m 11.064495,0 c 0.477997,-0.01777 0.979061,0.04259 1.461889,0.171875 1.674758,0.448458 2.976973,1.716717 3.439739,3.380208 l -2.637133,0.773437 c -0.218104,-0.78401 -0.698905,-1.269924 -1.519218,-1.489583 -1.167522,-0.312633 -2.285924,0.33623 -2.579805,1.432292 L 24.874267,14.71875 c 0.558683,-2.08368 2.429006,-3.475069 4.500326,-3.552083 z M 5.9557003,21.565104 41.299023,21.622396 c 2.133242,10.35738 -5.356628,20.42448 -17.6,20.424479 -12.137776,0 -19.5820467,-11.446403 -17.7433227,-20.481771 z" />
</defs>
<acyl-settings>
<linearGradient
     id="linearGradient4321">
    <stop
       style="stop-color:#FFFFFF;stop-opacity:1.0;"
       offset="1.0"
       id="stop1" />
  </linearGradient>
<linearGradient
     inkscape:collect="always"
     xlink:href="#linearGradient4321"
     id="acyl_gradient"
     x1="50.0%"
     y1="0.0%"
     x2="50.0%"
     y2="100.0%" />
<filter>
    </filter>
<use id="1" style="fill:url(#acyl_gradient);filter:url(#filter1111)" xlink:href="#path-main" />
</acyl-settings>
</svg>
