<svg xmlns="http://www.w3.org/2000/svg" width="48" height="48">
<defs>
  <path
     d="M 4.461172,4.9859184 C 3.112394,4.9859184 2,6.0983124 2,7.4470904 L 2,21.153725 c 0,1.348778 1.112394,2.461172 2.461172,2.461172 l 16.324903,0 c 1.348778,0 2.461172,-1.112394 2.461172,-2.461172 l 0,-13.7066346 c 0,-1.348778 -1.112394,-2.461172 -2.461172,-2.461172 l -16.324903,0 z m 24.140433,0 c -1.020457,0 -1.845879,0.825422 -1.845879,1.845879 l 0,14.9372206 c 0,1.020457 0.825422,1.845879 1.845879,1.845879 l 15.552516,0 C 45.174579,23.614897 46,22.789475 46,21.769018 L 46,6.8317974 c 0,-1.020457 -0.825421,-1.845879 -1.845879,-1.845879 l -15.552516,0 z m -24.140433,1.531687 16.324903,0 c 0.523668,0 0.929485,0.405817 0.929485,0.929485 l 0,13.7066346 c 0,0.523668 -0.405817,0.916394 -0.929485,0.916394 l -16.324903,0 c -0.523668,0 -0.929485,-0.392726 -0.929485,-0.916394 l 0,-13.7066346 c 0,-0.523668 0.405817,-0.929485 0.929485,-0.929485 z M 3.832788,24.636021 C 2.81233,24.636021 2,25.461443 2,26.481901 L 2,41.41912 C 2,42.43958 2.81233,43.265 3.832788,43.265 l 27.845283,0 c 1.020457,0 1.832787,-0.82542 1.832787,-1.84588 l 0,-14.937219 c 0,-1.020458 -0.81233,-1.84588 -1.832787,-1.84588 l -27.845283,0 z"
     id="path-main"
      />
</defs>
<acyl-settings>
<linearGradient
     id="linearGradient4321">
    <stop
       style="stop-color:#FFFFFF;stop-opacity:1.0;"
       offset="1.0"
       id="stop1" />
  </linearGradient>
<linearGradient
     inkscape:collect="always"
     xlink:href="#linearGradient4321"
     id="acyl_gradient"
     x1="50.0%"
     y1="0.0%"
     x2="50.0%"
     y2="100.0%" />
<filter>
    </filter>
<use id="1" style="fill:url(#acyl_gradient);filter:url(#filter1111)" xlink:href="#path-main" />
</acyl-settings>
</svg>
