<svg xmlns="http://www.w3.org/2000/svg" width="48" height="48">
<defs>
  <path
     d="m 19.735317,6.1249325 c -9.33155,1.240167 -10.4886586,1.911248 -15.4526956,4.3835695 -1.2357696,0.61547 -2.3684039,2.087666 -2.2774968,3.465224 l 0.9673239,17.644483 c 0.2559852,2.17811 0.2368511,4.38604 3.1346199,5.08151 l 10.9711686,3.7591 c 2.637598,0.63302 4.779449,0.79801 7.114117,-0.17143 -0.904668,-1.70954 -1.420375,-3.65554 -1.420375,-5.71823 0,-6.774693 5.532993,-12.293589 12.305832,-12.293589 1.431671,0 2.810241,0.244891 4.089697,0.697943 l 0.514274,-7.946751 C 39.83354,12.719964 38.685059,11.474031 36.706344,10.263609 32.040758,7.4095755 27.120069,6.1826345 19.735317,6.1249325 z m 1.591799,3.550936 c 3.950463,-0.04063 8.087734,0.5729095 12.03645,1.9468925 0,0 -6.317635,2.780551 -9.256924,4.371325 -1.076654,0.582696 -2.372303,1.242948 -2.583613,2.620346 L 20.678151,35.132409 19.882252,18.173626 C 19.824572,16.949696 17.368115,15.864402 16.20887,15.467568 10.773542,13.60694 7.7845794,12.785999 7.7845794,12.785999 11.468108,10.851338 16.247948,9.7281115 21.327116,9.6758685 z M 35.077811,23.646966 c -6.034655,0 -10.934435,4.887534 -10.934435,10.922193 0,6.03465 4.89978,10.92219 10.934435,10.92219 C 41.112461,45.491349 46,40.603809 46,34.569159 46,28.5345 41.112461,23.646966 35.077811,23.646966 z m 0,8.791633 c 1.178864,0 2.130561,0.95169 2.130561,2.13056 0,1.17886 -0.951697,2.13056 -2.130561,2.13056 -1.178862,0 -2.130562,-0.9517 -2.130562,-2.13056 0,-1.17887 0.9517,-2.13056 2.130562,-2.13056 z"
     id="path-main"
      />
</defs>
<acyl-settings>
<linearGradient
     id="linearGradient4321">
    <stop
       style="stop-color:#FFFFFF;stop-opacity:1.0;"
       offset="1.0"
       id="stop1" />
  </linearGradient>
<linearGradient
     inkscape:collect="always"
     xlink:href="#linearGradient4321"
     id="acyl_gradient"
     x1="50.0%"
     y1="0.0%"
     x2="50.0%"
     y2="100.0%" />
<filter>
    </filter>
<use id="1" style="fill:url(#acyl_gradient);filter:url(#filter1111)" xlink:href="#path-main" />
</acyl-settings>
</svg>
