<svg xmlns="http://www.w3.org/2000/svg" width="48" height="48">
<defs>
    <path
         d="m 11,3 0,14.71875 c 0.426454,-0.0035 0.872082,0.02825 1.3125,0.09375 1.152688,-1.849098 2.910234,-3.031993 4.40625,-3.625 2.092371,-0.8294 4,-0.875 4,-0.875 2.510117,-0.328896 3.984636,2.969611 0.84375,4.875 0,0 -1.213168,0.438836 -2.3125,1.40625 -0.856504,0.753725 -1.36995,1.741369 -1.46875,3.15625 0.700511,-0.518399 1.431621,-0.97612 2.125,-1.34375 1.425117,-0.755597 2.786008,-1.243325 3.875,-1.5625 5.814167,-1.732005 6.295228,2.188443 2.40625,4.9375 -0.814368,0.49059 -1.921798,1.256269 -2.9375,2.25 C 21.714662,28.533377 20.382676,30.425083 20.09375,33 L 37,33 37,14.71875 26.6875,3 z m 9.78125,12.8125 c 0,-10e-7 -6.019744,0.154185 -7.0625,5.03125 -3.8043211,-2.080598 -7.729225,1.231833 -8.28125,1.71875 1.0571059,-0.619928 5.569935,-2.791158 9.78125,1.78125 -1.007048,-6.330955 5.5625,-8.53125 5.5625,-8.53125 z m 5.59375,6 C 25.497839,21.91174 16.779247,23.615331 15.3125,30.59375 9.1343659,27.187783 1.182205,33.369996 1.46875,33.25 c -0.118406,0.06626 8.727897,-5.362775 16.25,2.84375 -1.586863,-9.873968 8.804231,-14.321815 8.71875,-14.28125 0.01553,-0.0065 -0.004,-0.0066 -0.0625,0 z M 11,24.28125 l 0,2.8125 c 0.931324,-0.0077 1.890999,0.08688 2.84375,0.3125 0.09329,-0.189321 0.179336,-0.381463 0.28125,-0.5625 l -0.75,-0.8125 C 12.497854,25.078894 11.716634,24.564845 11,24.28125 z M 4,35 4,45 44,45 44,35 20.0625,35 c 0.02234,0.232071 0.0549,0.477008 0.09375,0.71875 L 21.5,43.9375 15.875,37.78125 C 14.657285,36.452737 13.469819,35.570923 12.3125,35 z m 32.34375,5.21875 4.6875,0 0,2.1875 -4.6875,0 z"
       id="path-main"/>
</defs>
<acyl-settings>
<linearGradient
     id="linearGradient4321">
    <stop
       style="stop-color:#FFFFFF;stop-opacity:1.0;"
       offset="1.0"
       id="stop1" />
  </linearGradient>
<linearGradient
     inkscape:collect="always"
     xlink:href="#linearGradient4321"
     id="acyl_gradient"
     x1="50.0%"
     y1="0.0%"
     x2="50.0%"
     y2="100.0%" />
<filter>
    </filter>
<use id="1" style="fill:url(#acyl_gradient);filter:url(#filter1111)" xlink:href="#path-main" />
</acyl-settings>
</svg>
