<svg xmlns="http://www.w3.org/2000/svg" width="48" height="48">
<defs>
  <path
     d="m 6.6053422,1.999997 c -1.489217,0 -2.6817156,1.2474848 -2.6817156,2.7810384 l 0,8.2437926 c 0,1.222476 0.7574701,2.246921 1.8209179,2.615501 l 0,5.893152 0,16.355154 0,0.297969 -0.2317532,0.165538 c -0.5794943,0.431737 -0.9601204,1.102368 -0.9601204,1.887133 0,0.68126 0.3000767,1.286337 0.7614749,1.721595 1.3597741,0.796305 2.2566563,0.943211 3.3769751,-0.165538 C 9.569495,40.568289 9.3489292,39.554061 8.5918509,38.683218 8.5058239,38.592138 8.4233887,38.497307 8.32699,38.418356 l -0.2317532,-0.198645 0,-0.264861 0,-22.182092 14.5342362,0 c 1.489218,0 2.681716,-1.214377 2.681716,-2.74793 l 0,-8.2437926 c 0,-1.5335536 -1.192498,-2.7810384 -2.681716,-2.7810384 l -16.0240782,0 z m -2.8803613,15.063958 0.82769,0.794582 0,-0.794582 -0.82769,0 z m 5.5620768,0 0,5.52897 14.3024823,14.302481 0.364185,0.364185 0.364184,-0.364185 18.937545,-18.937546 0.927013,-0.893905 -1.291195,0 -33.6042143,0 z m -6.7870579,1.224981 0,1.291196 0,23.903687 0,1.291196 0.8939053,-0.893904 1.0925507,-1.09255 C 3.814684,42.143303 3.3939051,41.241057 3.3939051,40.239275 c 0,-1.014927 0.4689519,-1.90195 1.1587658,-2.549286 l 0,-17.348382 -1.1587658,-1.158766 -0.8939053,-0.893905 z m 42.9074492,0 -0.893905,0.893905 -11.984952,11.984952 -0.364182,0.364182 0.364182,0.364185 11.984952,11.984951 0.893905,0.893904 0,-1.291196 0,-23.903687 0,-1.291196 z m -36.1203913,6.787058 0,12.680211 c 0.039411,0.03783 0.060812,0.09305 0.09927,0.13243 L 15.378804,31.89616 15.742987,31.531975 15.378804,31.167793 9.2870047,25.075994 z m 7.6809643,7.680963 -0.364185,0.397292 -6.257336,6.257335 c 0.07871,0.261804 0.132431,0.535103 0.132431,0.827691 0,1.951894 -1.5906168,3.542513 -3.5425138,3.542513 -0.2921097,0 -0.5889868,-0.03219 -0.8607976,-0.09932 L 4.6519938,45.106095 3.7249809,46 l 1.2911964,0 37.8750947,0 1.291195,0 -0.927013,-0.893905 -11.951842,-11.951843 -0.364184,-0.397292 -0.397291,0.397292 -6.588412,6.588412 -6.588413,-6.588412 -0.39729,-0.397292 z"
     id="path-main" />
</defs>
<acyl-settings>
<linearGradient
     id="linearGradient4321">
    <stop
       style="stop-color:#FFFFFF;stop-opacity:1.0;"
       offset="1.0"
       id="stop1" />
  </linearGradient>
<linearGradient
     inkscape:collect="always"
     xlink:href="#linearGradient4321"
     id="acyl_gradient"
     x1="50.0%"
     y1="0.0%"
     x2="50.0%"
     y2="100.0%" />
<filter>
    </filter>
<use id="1" style="fill:url(#acyl_gradient);filter:url(#filter1111)" xlink:href="#path-main" />
</acyl-settings>
</svg>
