<svg xmlns="http://www.w3.org/2000/svg" width="48" height="48">
<defs>
  <path
     d="m 25.330048,2 c 0,0 -10.343538,0.2553 -14.477277,5.3617 -4.1337382,5.1064 -4.8936172,7.0335 -8.2978725,7.2765 8.0243175,0 11.6717335,-4.857 17.0212775,-5.8297 l 0,37.1915 12.638298,0 c 6.322188,0 11.446808,-5.0821 11.446808,-11.4043 0,-6.3222 -6.378926,-7.4042 -10.085106,-7.4042 -3.706182,0 -8.246128,2.851 -8.246128,2.851 l 0,-28.0425 z m 4.616146,30.9804 c 3.782699,-0.7307 7.723734,0.02 7.680745,2.9441 -0.0344,2.3386 -3.052449,6.5556 -12.296891,5.352 l 0,-5.7263 c 0,0 0.833446,-1.839 4.616146,-2.5698 z"
     id="path-main" />
</defs>
<acyl-settings>
<linearGradient
     id="linearGradient4321">
    <stop
       style="stop-color:#FFFFFF;stop-opacity:1.0;"
       offset="1.0"
       id="stop1" />
  </linearGradient>
<linearGradient
     inkscape:collect="always"
     xlink:href="#linearGradient4321"
     id="acyl_gradient"
     x1="50.0%"
     y1="0.0%"
     x2="50.0%"
     y2="100.0%" />
<filter>
    </filter>
<use id="1" style="fill:url(#acyl_gradient);filter:url(#filter1111)" xlink:href="#path-main" />
</acyl-settings>
</svg>
