<svg xmlns="http://www.w3.org/2000/svg" width="48" height="48">
<defs>
  <path
     d="M 31.323166,1.9999999 C 23.481027,4.3596322 15.871325,8.1714019 10.049689,14.02363 7.0057155,17.149907 4.537225,20.930638 3.6935776,25.464278 3.0242466,29.678184 3.0046888,33.472232 4.6632285,37.01528 5.1211214,38.279707 7.386555,40.184012 8.2381265,39.221329 7.7180153,34.537935 7.8280694,29.159468 11.110409,25.433682 c 1.788148,-1.737006 4.658377,1.069653 2.962193,2.886759 -2.078084,3.042684 -1.902207,6.980613 -1.729031,10.50496 0.0185,2.230713 1.169271,4.536708 3.003173,5.901901 2.158923,1.212199 5.002814,1.783204 7.318344,0.693653 0.451536,-1.643565 -1.647062,-3.987076 -1.508279,-6.082065 -0.343442,-3.408841 0.693137,-6.818818 2.029219,-9.908887 1.042699,-1.676756 3.698532,-0.680047 3.738667,1.169575 -0.329893,1.904943 -1.320472,3.683856 -1.571137,5.633363 -0.749555,2.912426 1.17545,7.208293 1.785823,7.939445 1.124084,1.375155 3.340864,2.046595 5.145401,1.366638 2.853777,-0.825574 4.339945,-3.689413 5.820098,-6.023061 4.060216,-7.618524 5.610562,-16.326727 6.00583,-24.876573 0.16186,-2.035925 -0.111121,-4.100815 0.07898,-6.1200111 0.150979,-0.9003912 -1.449333,1.4867121 -2.094586,1.8701151 -4.403301,4.141899 -9.596994,7.711245 -15.493398,9.291155 -2.296969,0.58886 -5.573561,0.737279 -6.818166,-1.743161 -1.423641,-3.095998 0.751969,-6.301632 2.731542,-8.5805571 2.54782,-2.87323 5.633495,-5.2223108 8.808084,-7.356931 z"
     id="path-main"/>
</defs>
<acyl-settings>
<linearGradient
     id="linearGradient4321">
    <stop
       style="stop-color:#FFFFFF;stop-opacity:1.0;"
       offset="1.0"
       id="stop1" />
  </linearGradient>
<linearGradient
     inkscape:collect="always"
     xlink:href="#linearGradient4321"
     id="acyl_gradient"
     x1="50.0%"
     y1="0.0%"
     x2="50.0%"
     y2="100.0%" />
<filter>
    </filter>
<use id="1" style="fill:url(#acyl_gradient);filter:url(#filter1111)" xlink:href="#path-main" />
</acyl-settings>
</svg>
