<svg xmlns="http://www.w3.org/2000/svg" width="48" height="48">
<defs>
  <path
     d="m 20.602729,2.0788996 c -4.990182,0 -9.030717,4.0691004 -9.030717,9.0593004 0,4.9903 4.040536,9.0308 9.030717,9.0308 0.243926,0 0.477566,-0.038 0.716723,-0.057 0.965432,1.3046 1.191681,3.0096 1.204096,4.2143 -2.948859,2.0629 -4.873721,5.4742 -4.873721,9.346 0,0.288 0.0077,0.5775 0.02867,0.8601 -1.172652,0.3862 -2.373339,0.3889 -3.268258,0.3154 C 13.209803,33.5793 11.504616,32.7836 9.6225255,32.7836 5.9758548,32.7836 3,35.7595 3,39.4062 3,43.0528 5.9758548,46 9.6225255,46 c 3.3047965,0 6.0249615,-2.4224 6.5078495,-5.5904 1.137302,-0.6106 2.148869,-0.93 3.010239,-1.0895 1.963472,3.4463 5.669295,5.7625 9.919454,5.7625 6.301703,0 11.410238,-5.1085 11.410238,-11.4103 0,-3.0488 -1.205393,-5.8084 -3.153584,-7.8552 0.914911,-2.0085 2.139605,-2.9971 2.838226,-3.4403 0.04712,0 0.09588,0 0.143344,0 2.591056,0 4.701707,-2.1107 4.701707,-4.7017 0,-2.5911 -2.110651,-4.7018 -4.701707,-4.7018 -2.591056,0 -4.673037,2.1107 -4.673037,4.7018 0,0.8073 0.216731,1.5714 0.573379,2.2361 -0.765284,1.7955 -2.629739,2.759 -3.23959,3.039 -1.218549,-0.4439 -2.526881,-0.6881 -3.898976,-0.6881 -0.393857,0 -0.791849,0.018 -1.175427,0.057 -1.079851,-1.7423 -1.410077,-3.2569 -1.490786,-4.2431 1.996439,-1.6561 3.26826,-4.1457 3.26826,-6.9379 0,-4.9902 -4.069204,-9.0593004 -9.059385,-9.0593004 z m 0,3.0389 c 3.326786,0 6.049146,2.6936004 6.049146,6.0204004 0,3.3269 -2.72236,6.0205 -6.049146,6.0205 -3.326788,0 -6.020479,-2.6936 -6.020479,-6.0205 0,-3.3268 2.693691,-6.0204004 6.020479,-6.0204004 z M 40.298291,15.4099 c 1.311523,0 2.379522,1.068 2.379522,2.3796 0,1.3115 -1.067999,2.3795 -2.379522,2.3795 -1.311521,0 -2.379522,-1.068 -2.379522,-2.3795 0,-1.3116 1.068001,-2.3796 2.379522,-2.3796 z M 29.060067,26.0748 c 4.254449,0 7.711944,3.4575 7.711944,7.7119 0,4.2544 -3.457495,7.6833 -7.711943,7.6833 -4.254449,0 -7.683278,-3.4289 -7.683278,-7.6833 0,-4.2544 3.428829,-7.7119 7.683278,-7.7119 z M 9.6225245,35.5642 c 2.1112295,0 3.8129685,1.7304 3.8129685,3.8417 0,2.1112 -1.701739,3.8129 -3.8129685,3.8129 -2.11123,0 -3.8416381,-1.7017 -3.8416381,-3.8129 0,-2.1113 1.7304081,-3.8417 3.8416381,-3.8417 z"
     id="path-main" />
</defs>
<acyl-settings>
<linearGradient
     id="linearGradient4321">
    <stop
       style="stop-color:#FFFFFF;stop-opacity:1.0;"
       offset="1.0"
       id="stop1" />
  </linearGradient>
<linearGradient
     inkscape:collect="always"
     xlink:href="#linearGradient4321"
     id="acyl_gradient"
     x1="50.0%"
     y1="0.0%"
     x2="50.0%"
     y2="100.0%" />
<filter>
    </filter>
<use id="1" style="fill:url(#acyl_gradient);filter:url(#filter1111)" xlink:href="#path-main" />
</acyl-settings>
</svg>
