<svg xmlns="http://www.w3.org/2000/svg" width="48" height="48">
<defs>
<defs
     id="defs4291">
  </defs>
  <path
     id="path-main"
     d="M 30.90625 2 C 29.510633 2.00466 28.423528 2.00639 28 2.03125 C 26.305889 2.13069 25.459867 3.189065 25.125 4.75 C 25.08256 5.535203 25.125 18.5 25.125 18.5 C 25.124999 20.098342 26.401659 21.40625 28 21.40625 L 43.09375 21.40625 C 44.69209 21.40625 45.968749 20.098342 45.96875 18.5 C 45.968751 16.901658 46.163141 4.959408 45.75 3.875 C 45.336859 2.790591 44.330188 2.03125 43.09375 2.03125 C 42.166421 2.03125 35.093101 1.986016 30.90625 2 z M 29.03125 4.28125 L 42.03125 4.28125 C 42.959317 4.28125 43.71875 5.009431 43.71875 5.9375 L 43.71875 17.5 C 43.71875 18.428066 42.959319 19.15625 42.03125 19.15625 L 29.03125 19.15625 C 28.10318 19.156248 27.34375 18.428069 27.34375 17.5 L 27.34375 5.9375 C 27.34375 5.009431 28.103181 4.28125 29.03125 4.28125 z M 41.34375 22.71875 C 40.227509 22.844674 39.436576 23.852509 39.5625 24.96875 C 39.688424 26.084991 40.696259 26.875924 41.8125 26.75 C 42.928741 26.624076 43.719674 25.647491 43.59375 24.53125 C 43.467826 23.415009 42.459991 22.592826 41.34375 22.71875 z M 7.78125 26.59375 C 6.385633 26.59845 5.329778 26.60015 4.90625 26.625 C 3.212139 26.72444 2.334867 27.782815 2 29.34375 C 1.95756 30.128953 2 43.09375 2 43.09375 C 1.999999 44.692092 3.307909 46 4.90625 46 L 19.96875 46 C 20.371911 46.076591 20.787987 46.111095 21.21875 46.0625 C 23.558052 45.798601 25.263899 43.683052 25 41.34375 C 24.842873 39.950911 24.006617 38.807569 22.875 38.15625 C 22.91182 34.056875 22.933401 29.196213 22.65625 28.46875 C 22.243109 27.384341 21.205188 26.625 19.96875 26.625 C 19.041421 26.625 11.9681 26.57977 7.78125 26.59375 z M 5.90625 28.875 L 18.90625 28.875 C 19.834317 28.875 20.59375 29.603181 20.59375 30.53125 L 20.59375 42.09375 C 20.59375 43.021816 19.834319 43.75 18.90625 43.75 L 5.90625 43.75 C 4.97818 43.749998 4.21875 43.021819 4.21875 42.09375 L 4.21875 30.53125 C 4.21875 29.603181 4.978181 28.875 5.90625 28.875 z M 38.125 31.46875 C 36.551069 31.646306 35.447444 33.082319 35.625 34.65625 C 35.802556 36.230181 37.207319 37.365056 38.78125 37.1875 C 40.355181 37.009944 41.490056 35.573931 41.3125 34 C 41.134944 32.426069 39.698931 31.291194 38.125 31.46875 z M 31 37.1875 C 30.766963 37.166586 30.554058 37.1915 30.3125 37.21875 C 28.380033 37.436753 26.969497 39.161283 27.1875 41.09375 C 27.405503 43.026217 29.161283 44.436753 31.09375 44.21875 C 33.026217 44.000747 34.405503 42.244967 34.1875 40.3125 C 33.996747 38.621591 32.631261 37.333901 31 37.1875 z "
/>
</defs>
<acyl-settings>
<linearGradient
     id="linearGradient4321">
    <stop
       style="stop-color:#FFFFFF;stop-opacity:1.0;"
       offset="1.0"
       id="stop1" />
  </linearGradient>
<linearGradient
     inkscape:collect="always"
     xlink:href="#linearGradient4321"
     id="acyl_gradient"
     x1="50.0%"
     y1="0.0%"
     x2="50.0%"
     y2="100.0%" />
<filter>
    </filter>
<use id="1" style="fill:url(#acyl_gradient);filter:url(#filter1111)" xlink:href="#path-main" />
</acyl-settings>
</svg>
