<svg xmlns="http://www.w3.org/2000/svg" width="48" height="48">
<defs>
<defs
     id="defs4291">
  </defs>
  <path
     d="M 30.90625 2 C 29.510633 2.00466 28.423528 2.00639 28 2.03125 C 26.305889 2.13069 25.459867 3.189065 25.125 4.75 C 25.08256 5.535203 25.125 18.5 25.125 18.5 C 25.124999 20.098342 26.401659 21.40625 28 21.40625 L 43.09375 21.40625 C 44.69209 21.40625 45.968749 20.098342 45.96875 18.5 C 45.968751 16.901658 46.163141 4.959408 45.75 3.875 C 45.336859 2.790591 44.330188 2.03125 43.09375 2.03125 C 42.166421 2.03125 35.093101 1.986016 30.90625 2 z M 29.03125 4.28125 L 42.03125 4.28125 C 42.959317 4.28125 43.71875 5.009431 43.71875 5.9375 L 43.71875 17.5 C 43.71875 18.428066 42.959319 19.15625 42.03125 19.15625 L 29.03125 19.15625 C 28.10318 19.156248 27.34375 18.428069 27.34375 17.5 L 27.34375 5.9375 C 27.34375 5.009431 28.103181 4.28125 29.03125 4.28125 z M 12.25 5.875 C 10.881844 5.897932 9.553117 6.5796829 8.75 7.8125 C 7.4650127 9.7850073 8.0274927 12.433763 10 13.71875 C 11.972507 15.003737 14.590013 14.441257 15.875 12.46875 C 17.159987 10.496243 16.628757 7.8474873 14.65625 6.5625 C 13.91656 6.0806298 13.070894 5.8612408 12.25 5.875 z M 6.8125 15 C 5.6822839 15.018944 4.5696945 15.606586 3.90625 16.625 C 2.8447388 18.254463 3.3080374 20.407239 4.9375 21.46875 C 6.5669626 22.530261 8.7509888 22.098213 9.8125 20.46875 C 10.874011 18.839287 10.410713 16.655261 8.78125 15.59375 C 8.1702015 15.195683 7.4906296 14.988634 6.8125 15 z M 6.78125 25.71875 C 6.0141469 25.731608 5.2883818 26.067636 4.75 26.65625 C 3.1639841 26.813309 2.3237802 27.834495 2 29.34375 C 1.957556 30.128953 2 43.09375 2 43.09375 C 1.9999989 44.692092 3.3079091 46 4.90625 46 L 19.96875 46 C 21.56709 46 22.843749 44.692092 22.84375 43.09375 C 22.843751 41.495408 23.069391 29.553158 22.65625 28.46875 C 22.243109 27.384341 21.205188 26.625 19.96875 26.625 C 19.12702 26.625 13.120461 26.590175 8.90625 26.59375 C 8.758448 26.440809 8.5954084 26.310727 8.40625 26.1875 C 7.9085712 25.863288 7.3335642 25.709493 6.78125 25.71875 z M 5.90625 28.875 L 18.90625 28.875 C 19.834317 28.875 20.59375 29.603181 20.59375 30.53125 L 20.59375 42.09375 C 20.59375 43.021816 19.834319 43.75 18.90625 43.75 L 5.90625 43.75 C 4.9781798 43.749998 4.21875 43.021819 4.21875 42.09375 L 4.21875 30.53125 C 4.21875 29.603181 4.9781809 28.875 5.90625 28.875 z "
     id="path-main" />
</defs>
<acyl-settings>
<linearGradient
     id="linearGradient4321">
    <stop
       style="stop-color:#FFFFFF;stop-opacity:1.0;"
       offset="1.0"
       id="stop1" />
  </linearGradient>
<linearGradient
     inkscape:collect="always"
     xlink:href="#linearGradient4321"
     id="acyl_gradient"
     x1="50.0%"
     y1="0.0%"
     x2="50.0%"
     y2="100.0%" />
<filter>
    </filter>
<use id="1" style="fill:url(#acyl_gradient);filter:url(#filter1111)" xlink:href="#path-main" />
</acyl-settings>
</svg>
