<svg xmlns="http://www.w3.org/2000/svg" width="48" height="48">
<defs>
<defs
     id="defs4291">
  </defs>
  <path
     d="M 21.78125 1.75 C 21.227589 1.7568966 20.664146 1.8577514 20.125 2.09375 C 17.968417 3.0377446 16.993505 5.5621666 17.9375 7.71875 C 18.881495 9.8753334 21.374667 10.850245 23.53125 9.90625 C 24.184133 9.6204653 24.705182 9.1736796 25.125 8.65625 C 25.120934 12.699136 25.125 18.5 25.125 18.5 C 25.124999 20.098342 26.401659 21.40625 28 21.40625 L 43.09375 21.40625 C 44.69209 21.40625 45.968749 20.098342 45.96875 18.5 C 45.968751 16.901658 46.163141 4.959408 45.75 3.875 C 45.336859 2.7905915 44.330188 2.03125 43.09375 2.03125 C 42.166421 2.03125 35.093101 1.986016 30.90625 2 C 29.510633 2.00466 28.423528 2.00639 28 2.03125 C 26.701858 2.1074476 25.8913 2.7530305 25.4375 3.75 C 24.634283 2.4818751 23.234611 1.7318964 21.78125 1.75 z M 29.03125 4.28125 L 42.03125 4.28125 C 42.959317 4.28125 43.71875 5.009431 43.71875 5.9375 L 43.71875 17.5 C 43.71875 18.428066 42.959319 19.15625 42.03125 19.15625 L 29.03125 19.15625 C 28.10318 19.156248 27.34375 18.428069 27.34375 17.5 L 27.34375 5.9375 C 27.34375 5.009431 28.103181 4.28125 29.03125 4.28125 z M 12.625 6.5 C 12.167627 6.5056972 11.695381 6.5862946 11.25 6.78125 C 9.4684746 7.5610716 8.6576784 9.6559746 9.4375 11.4375 C 10.217322 13.219025 12.280975 14.029822 14.0625 13.25 C 15.844025 12.470178 16.686072 10.375275 15.90625 8.59375 C 15.321384 7.257606 13.997118 6.4829084 12.625 6.5 z M 7.09375 15.53125 C 6.7212351 15.53589 6.3314984 15.622465 5.96875 15.78125 C 4.5177563 16.416389 3.864861 18.111506 4.5 19.5625 C 5.135139 21.013494 6.8302563 21.666389 8.28125 21.03125 C 9.7322437 20.396111 10.385139 18.700994 9.75 17.25 C 9.2736457 16.161755 8.2112946 15.517329 7.09375 15.53125 z M 6.96875 26.4375 C 6.7144673 26.440668 6.4665514 26.519609 6.21875 26.625 C 6.2090954 26.629106 6.1971474 26.620777 6.1875 26.625 C 5.7735532 26.629194 5.0949738 26.613927 4.90625 26.625 C 3.2121389 26.72444 2.334867 27.782815 2 29.34375 C 1.9792414 29.727779 1.9950444 33.074585 2 36.34375 C 2.0001106 36.416722 1.9998842 36.427088 2 36.5 C 2.0053055 39.83935 2 43.09375 2 43.09375 C 1.9999989 44.692092 3.3079091 46 4.90625 46 L 19.96875 46 C 21.56709 46 22.843749 44.692092 22.84375 43.09375 C 22.843751 41.495408 23.069391 29.553158 22.65625 28.46875 C 22.243109 27.384341 21.205188 26.625 19.96875 26.625 C 19.041421 26.625 11.9681 26.57977 7.78125 26.59375 C 7.527125 26.487732 7.2498393 26.433999 6.96875 26.4375 z M 5.90625 28.875 L 18.90625 28.875 C 19.834317 28.875 20.59375 29.603181 20.59375 30.53125 L 20.59375 42.09375 C 20.59375 43.021816 19.834319 43.75 18.90625 43.75 L 5.90625 43.75 C 4.9781798 43.749998 4.21875 43.021819 4.21875 42.09375 L 4.21875 30.53125 C 4.21875 29.603181 4.9781809 28.875 5.90625 28.875 z M 6.46875 31.09375 L 6.46875 41.53125 L 18.375 41.53125 L 18.375 31.09375 L 6.46875 31.09375 z "
     id="path-main" />
</defs>
<acyl-settings>
<linearGradient
     id="linearGradient4321">
    <stop
       style="stop-color:#FFFFFF;stop-opacity:1.0;"
       offset="1.0"
       id="stop1" />
  </linearGradient>
<linearGradient
     inkscape:collect="always"
     xlink:href="#linearGradient4321"
     id="acyl_gradient"
     x1="50.0%"
     y1="0.0%"
     x2="50.0%"
     y2="100.0%" />
<filter>
    </filter>
<use id="1" style="fill:url(#acyl_gradient);filter:url(#filter1111)" xlink:href="#path-main" />
</acyl-settings>
</svg>
