<svg xmlns="http://www.w3.org/2000/svg" width="48" height="48">
<defs>
  <path
     d="m 4.7714173,2 c 0,0 -3.497092,13.065113 -2.634586,23.638135 0.862505,10.573024 4.668654,18.336688 7.8417672,19.014614 C 13.151708,45.330668 20.054435,39.938127 25.538152,30.720946 31.021869,21.503768 33.75186,8.2769659 33.75186,8.2769659 c 0,0 -8.562434,-0.2057425 -14.908656,-1.5615866 C 12.496981,5.3595341 4.7714173,2 4.7714173,2 z M 6.6311243,8.0626305 15.123789,16.850383 4.3994753,11.920668 6.6311243,8.0626305 z m 22.3164917,4.3173275 0.464927,4.347947 -11.840139,0.551149 11.375212,-4.899096 z m 11.437202,13.748087 c 0,0 -5.970644,0.151039 -7.004899,4.929714 -4.058051,-2.192443 -8.432688,1.838043 -8.430674,1.837161 0,0 5.144764,-3.527937 9.91844,1.592206 -0.998837,-6.203137 5.517133,-8.359081 5.517133,-8.359081 z M 7.0960513,27.812109 c 1.4618587,-0.127718 3.7185947,2.569465 6.3540007,2.939457 2.972362,0.4173 5.730355,-0.91833 6.756938,-0.48991 0.780992,0.32593 1.051749,3.159591 -1.921698,5.878915 -2.073927,1.896679 -5.187394,1.843336 -6.539971,1.653444 -1.463579,-0.205476 -4.1537837,-1.487509 -5.3311627,-4.378566 -0.756438,-1.857432 -0.498152,-5.205167 0.371942,-5.542102 0.0903,-0.03497 0.212495,-0.05272 0.309951,-0.06124 z m 38.8368937,4.19485 c -0.870006,0.097 -9.486492,1.766369 -10.941279,8.604036 C 28.863924,37.273731 20.976611,43.331218 21.260824,43.21364 21.14338,43.27831 29.886535,37.959115 37.347295,46 c -1.573927,-9.674733 8.732423,-14.032822 8.647641,-13.993041 0.01537,-0.0098 -0.004,-0.0098 -0.06199,0 z"
     id="path-main" />
</defs>
<acyl-settings>
<linearGradient
     id="linearGradient4321">
    <stop
       style="stop-color:#FFFFFF;stop-opacity:1.0;"
       offset="1.0"
       id="stop1" />
  </linearGradient>
<linearGradient
     inkscape:collect="always"
     xlink:href="#linearGradient4321"
     id="acyl_gradient"
     x1="50.0%"
     y1="0.0%"
     x2="50.0%"
     y2="100.0%" />
<filter>
    </filter>
<use id="1" style="fill:url(#acyl_gradient);filter:url(#filter1111)" xlink:href="#path-main" />
</acyl-settings>
</svg>
