<svg xmlns="http://www.w3.org/2000/svg" width="48" height="48">
<defs>
  <path
     d="M 28.969045,6.0552836 C 23.747765,6.2221263 18.53776,7.4646617 13.939303,9.9828528 9.4710761,12.412374 4.9267406,15.548256 2.7583553,20.321434 c -1.3096988,2.883155 -0.8881219,6.446667 0.9951917,8.96192 1.4368228,1.282493 2.7969892,2.64786 4.1301247,4.036964 -1.0003477,1.828427 -1.9334396,3.69471 -2.9811427,5.496482 2.3039355,0.962867 4.6252584,1.884027 6.924946,2.856928 3.31975,-7.210515 6.668379,-14.407847 9.999249,-21.613284 4.154014,7.161145 8.282185,14.337522 12.452482,21.48907 2.802096,-1.692264 5.627303,-3.346921 8.415517,-5.061732 -1.024814,-1.84376 -2.093708,-3.662767 -3.13641,-5.496482 3.862556,-2.868484 6.291402,-7.591889 6.41766,-12.340772 C 46.27795,14.381093 43.706172,10.081544 39.795849,8.3365344 36.478378,6.5301852 32.690571,6.0614708 28.969045,6.0552836 z m -1.801107,4.8133034 c 4.088085,0.17373 8.551895,0.245794 12.017486,2.71497 2.177758,1.510363 2.692107,4.492385 1.877847,6.903419 -0.762869,2.509861 -2.15747,4.892276 -4.144512,6.622628 C 33.668486,21.695931 30.418212,16.28226 27.167938,10.868587 z m -10.18557,2.391125 c -2.194452,4.854708 -4.388905,9.709416 -6.583357,14.564124 -2.0675839,-1.36566 -4.3138797,-3.710895 -3.6956995,-6.398994 1.116506,-2.859344 3.9303945,-4.545393 6.3859685,-6.155927 1.248579,-0.76122 2.546741,-1.43767 3.893088,-2.009203 z m 5.807017,11.800356 c -1.94512,2.864219 -3.819851,5.776637 -5.775964,8.632893 1.338035,2.658869 2.647755,5.33211 4.005911,7.980767 2.313188,-3.055232 4.689428,-6.063196 6.987053,-9.129749 -1.700224,-2.520497 -3.510796,-4.966967 -5.217,-7.483911 z"
     id="path-main" />
</defs>
<acyl-settings>
<linearGradient
     id="linearGradient4321">
    <stop
       style="stop-color:#FFFFFF;stop-opacity:1.0;"
       offset="1.0"
       id="stop1" />
  </linearGradient>
<linearGradient
     inkscape:collect="always"
     xlink:href="#linearGradient4321"
     id="acyl_gradient"
     x1="50.0%"
     y1="0.0%"
     x2="50.0%"
     y2="100.0%" />
<filter>
    </filter>
<use id="1" style="fill:url(#acyl_gradient);filter:url(#filter1111)" xlink:href="#path-main" />
</acyl-settings>
</svg>
