<svg xmlns="http://www.w3.org/2000/svg" width="48" height="48">
<defs>
  <path
     d="M 8.71875,4 C 5.9622027,3.9122324 3.6694756,6.5798714 4,9.2844355 4.016148,19.444365 3.967679,29.606323 4.0242779,39.764982 4.215565,42.388703 6.8365682,44.326313 9.3975725,44 19.519789,43.983852 29.644036,44.032321 39.764982,43.975722 42.388703,43.784435 44.326313,41.163432 44,38.602427 43.983852,28.480211 44.032321,18.355964 43.975722,8.2350175 43.784435,5.6112967 41.163432,3.6736866 38.602427,4 28.641202,4 18.679976,4 8.71875,4 z M 29.375,9.53125 c 1.853786,-0.3388515 1.061904,1.298413 0.407013,2.059111 -0.455254,0.825248 -1.127559,1.607148 -1.450913,2.458737 0.16604,0.652563 0.0015,1.518902 0.796214,1.764945 0.556501,0.680263 1.265821,0.219381 1.941911,0.0066 0.651153,-0.434452 0.92158,-1.354816 1.420313,-1.983798 0.481908,-0.598533 0.709405,-1.484534 1.385462,-1.868127 1.929682,1.231745 1.890819,4.568458 0.85581,6.504189 -0.989323,2.114851 -3.40922,3.11384 -5.541668,3.247436 -3.53371,5.521661 -7.038344,11.062729 -10.59023,16.572259 -1.372379,1.965004 -4.788372,1.443923 -5.435013,-0.891899 -0.701043,-1.990401 1.00832,-3.536393 1.886236,-5.131062 2.972872,-4.662808 5.945743,-9.325615 8.918615,-13.988423 -1.658333,-2.87961 -0.266767,-6.852861 2.781864,-8.131641 C 27.569111,9.763405 28.468757,9.5421996 29.375,9.53125 z"
     id="path-main" />
</defs>
<acyl-settings>
<linearGradient
     id="linearGradient4321">
    <stop
       style="stop-color:#FFFFFF;stop-opacity:1.0;"
       offset="1.0"
       id="stop1" />
  </linearGradient>
<linearGradient
     inkscape:collect="always"
     xlink:href="#linearGradient4321"
     id="acyl_gradient"
     x1="50.0%"
     y1="0.0%"
     x2="50.0%"
     y2="100.0%" />
<filter>
    </filter>
<use id="1" style="fill:url(#acyl_gradient);filter:url(#filter1111)" xlink:href="#path-main" />
</acyl-settings>
</svg>
