<svg xmlns="http://www.w3.org/2000/svg" width="48" height="48">
<defs>
  <path
     d="M 8.71875 4 C 6.1049638 4 4 6.1049638 4 8.71875 L 4 39.28125 C 4 41.895036 6.1049638 44 8.71875 44 L 39.28125 44 C 41.895036 44 44 41.895036 44 39.28125 L 44 8.71875 C 44 6.1049638 41.895036 4 39.28125 4 L 8.71875 4 z M 24.4375 7 C 25.10404 7.006 25.74649 7.0748 26.40625 7.15625 L 27.25 12.125 C 28.25766 12.38402 29.18385 12.8187 30.09375 13.3125 L 34.21875 10.40625 C 35.53934 11.35842 36.64108 12.55139 37.65625 13.8125 L 37.40625 14.65625 L 34.71875 17.90625 C 35.24649 18.798 35.61686 19.7595 35.90625 20.75 L 40.90625 21.59375 C 41.17207 23.19382 40.77502 25.6154 40.59375 27.21875 L 35.90625 27.25 C 35.64541 28.25172 35.21544 29.18934 34.71875 30.09375 L 37.65625 34.15625 L 37.40625 34.96875 C 36.49706 36.12206 35.367 36.67994 34.21875 37.59375 L 30.09375 34.65625 C 29.19705 35.18044 28.24625 35.5547 27.25 35.84375 L 26.40625 40.8125 C 25.50348 40.95173 24.59989 40.99963 23.6875 41 C 22.97672 40.993 22.26723 40.89791 21.5625 40.8125 L 20.71875 35.84375 C 19.71145 35.58436 18.7849 35.15006 17.875 34.65625 L 13.75 37.59375 C 12.57748 36.74794 11.51363 36.07503 10.59375 34.96875 L 10.3125 34.15625 L 13.25 30.09375 C 12.72298 29.202 12.35259 28.24015 12.0625 27.25 L 7.375 27.21875 C 7.10953 25.6183 6.88088 23.19672 7.0625 21.59375 L 12.0625 20.75 C 12.32334 19.74828 12.75365 18.81102 13.25 17.90625 L 10.59375 14.65625 L 10.3125 13.8125 C 11.27022 12.4993 12.48113 11.41486 13.75 10.40625 L 17.875 13.3125 C 18.77169 12.78831 19.72286 12.41332 20.71875 12.125 L 21.5625 7.15625 C 22.50914 7.00214 23.48051 6.99819 24.4375 7 z M 24 16.75 C 22.07817 16.7603 20.20324 17.55433 18.84375 18.90625 C 13.4008 24.31896 19.24884 33.43045 26.46875 30.78125 C 34.06655 27.99423 32.03633 16.95477 24 16.75 z "
     id="path-main" />
</defs>
<acyl-settings>
<linearGradient
     id="linearGradient4321">
    <stop
       style="stop-color:#FFFFFF;stop-opacity:1.0;"
       offset="1.0"
       id="stop1" />
  </linearGradient>
<linearGradient
     inkscape:collect="always"
     xlink:href="#linearGradient4321"
     id="acyl_gradient"
     x1="50.0%"
     y1="0.0%"
     x2="50.0%"
     y2="100.0%" />
<filter>
    </filter>
<use id="1" style="fill:url(#acyl_gradient);filter:url(#filter1111)" xlink:href="#path-main" />
</acyl-settings>
</svg>
