<svg xmlns="http://www.w3.org/2000/svg" width="48" height="48">
<defs>
  <path
     d="m 16.879017,3.1681756 c -0.06591,0.0016 -0.133327,0.0052 -0.195325,0.01953 -0.663443,0.105272 -0.999973,0.784956 -1.484468,1.42587 -0.547815,7.4866234 -1.321584,14.3415664 -1.870234,21.8372994 2.295967,-0.171917 5.451359,-0.136681 8.691949,-0.180684 3.525487,-0.04783 6.96112,-0.289096 8.643117,-0.898493 3.466461,-1.255889 6.140881,-4.435869 8.374546,-9.160726 C 32.172458,12.030665 24.781538,7.0621376 18.441614,3.6711296 17.890623,3.4414116 17.34036,3.1583786 16.879017,3.1681756 z m -2.988468,3.061707 C 9.7843743,13.993647 6.1524283,20.346981 2.0099253,28.247864 c -0.08042,2.12282 0.338408,3.344586 0.874078,4.121346 0.536921,0.77858 1.023495,0.97994 1.743273,0.93267 1.038124,-0.34418 2.342735,-1.26872 3.691636,-2.436665 0.511465,-0.45567 3.7871067,-3.297628 4.0676367,-3.926026 0.51401,-7.024798 0.986274,-13.643664 1.504,-20.7093064 z m 11.724364,0.371117 c 4.997971,3.1010367 9.776128,6.2196994 14.126857,8.7945004 1.300361,0.769564 3.766054,1.682214 5.630234,2.236468 -1.774289,-1.796769 -3.799346,-3.341099 -6.055065,-4.453403 L 25.614913,6.6009996 z m -3.183792,2.8956957 c 0.504633,-0.01313 1.00497,0.128695 1.499116,0.419948 0.990018,0.5754887 1.909282,1.7318887 2.758961,3.4719037 0.793477,1.624898 1.092461,3.128726 0.898494,4.512 -0.192249,1.37618 -0.851961,2.411682 -1.977662,3.105662 -0.302313,0.186371 -0.622876,0.341662 -0.966857,0.463889 l -1.118234,0.28322 -0.620156,-1.26961 c 0.383232,-0.02066 0.750609,-0.08174 1.103584,-0.185558 0.352973,-0.103819 0.67829,-0.250672 0.976624,-0.434606 0.795548,-0.490421 1.250812,-1.171698 1.367273,-2.046018 0.118182,-0.881352 -0.09811,-1.968748 -0.654338,-3.266813 -0.0374,0.538143 -0.183979,1.020298 -0.434597,1.450294 -0.250624,0.429995 -0.590976,0.775267 -1.020572,1.040111 -0.89102,0.5493 -1.74886,0.676183 -2.573403,0.375992 -0.82281,-0.307237 -1.498252,-1.003312 -2.026493,-2.085098 -0.516996,-1.058707 -0.663121,-2.073692 -0.434598,-3.047065 0.228532,-0.973342 0.795472,-1.735952 1.694442,-2.2901747 0.51512,-0.317551 1.023783,-0.48492 1.528416,-0.498077 z m -0.112312,1.3135657 c -0.291351,0.01083 -0.583114,0.10571 -0.878961,0.288096 -0.540973,0.333521 -0.864813,0.816535 -0.971741,1.445403 -0.105192,0.621836 0.02387,1.300034 0.385767,2.041142 0.364149,0.745719 0.809802,1.235468 1.333091,1.469811 l 1.601662,-0.151369 c 0.540973,-0.333505 0.86166,-0.808909 0.966857,-1.430761 0.109173,-0.624226 -0.01674,-1.31005 -0.380883,-2.055784 -0.361901,-0.741093 -0.805823,-1.228108 -1.333091,-1.46006 -0.197076,-0.08958 -0.396493,-0.137399 -0.59574,-0.146478 -0.04151,-0.0019 -0.08534,-0.0016 -0.126961,0 z M 11.649198,14.72163 c 0.103944,-0.0058 0.188762,0.02443 0.253923,0.0879 0.209873,0.198356 0.195885,0.718342 -0.04883,1.562598 -0.170487,0.588161 -0.412622,1.164478 -0.717818,1.728623 -0.303833,0.559441 -0.649775,1.064066 -1.040104,1.508875 0.339206,-0.172089 0.551353,-0.115632 0.629922,0.170917 0.08119,0.284346 0.02218,0.767298 -0.175792,1.450278 -0.303845,1.048253 -0.7420597,2.026314 -1.3086747,2.934761 -0.566625,0.908463 -1.215921,1.669042 -1.953247,2.285299 -0.247533,0.206888 -0.490376,0.377867 -0.727584,0.507844 -0.235953,0.132524 -0.470025,0.22542 -0.698286,0.283221 l 0.405298,-1.386805 c 0.153832,0.04755 0.342365,0.02338 0.571325,-0.07813 0.22896,-0.101522 0.489384,-0.272814 0.776416,-0.51272 0.500328,-0.418167 0.930213,-0.915729 1.294026,-1.489358 0.366441,-0.575817 0.648171,-1.201747 0.844779,-1.880008 0.1814747,-0.626055 0.2017527,-1.010985 0.0586,-1.157291 -0.139155,-0.153244 -0.424937,-0.05061 -0.859429,0.31252 l -0.68852,0.576207 0.341818,-1.181714 0.717819,-0.600631 c 0.392359,-0.327927 0.7363027,-0.718201 1.0254537,-1.171948 0.290518,-0.458435 0.510115,-0.953231 0.664104,-1.484468 0.158101,-0.54544 0.171126,-0.872633 0.03907,-0.981499 -0.128064,-0.115772 -0.390807,-0.0074 -0.791065,0.327177 -0.21857,0.182683 -0.4673257,0.418495 -0.7422327,0.712919 -0.274916,0.294519 -0.58512,0.657807 -0.937559,1.088943 l 0.371117,-1.279376 c 0.346821,-0.404885 0.661991,-0.753891 0.9473247,-1.049863 0.287958,-0.298206 0.546929,-0.546346 0.781298,-0.742233 0.41639,-0.348022 0.738182,-0.529268 0.966857,-0.542034 z m 28.483222,2.041143 c -2.208108,4.667103 -5.020998,8.219747 -8.623585,9.69787 l 0.546909,17.779417 c 0.941687,-0.52576 1.119595,-0.84063 1.533299,-1.83605 L 45.874965,19.858669 c 0.171372,-0.439106 0.187146,-0.723405 -0.08301,-0.90826 -2.025938,-0.566879 -3.766435,-1.259234 -5.659531,-2.187636 z m -9.27304,3.110553 0.429715,0.87407 -7.124468,3.501203 -0.434597,-0.874086 7.12935,-3.501187 z m 10.449872,3.281455 -0.488314,1.279361 c -0.542595,0.725108 -1.277513,1.701075 -2.202284,2.924995 -0.929415,1.230045 -1.521834,2.01561 -1.772572,2.363429 -0.474338,0.654899 -0.835793,1.192714 -1.084052,1.611424 -0.252897,0.42481 -0.449754,0.82015 -0.590857,1.18659 -0.229997,0.59734 -0.303102,1.04018 -0.21974,1.32334 0.08066,0.28423 0.304753,0.34908 0.668986,0.2002 0.258236,-0.10557 0.561236,-0.29768 0.913144,-0.58109 0.3492,-0.28231 0.755334,-0.65837 1.211013,-1.12799 l -0.595741,1.53328 c -0.426323,0.3815 -0.806194,0.6943 -1.142649,0.93756 -0.336444,0.24328 -0.625101,0.41495 -0.864312,0.51274 -0.630616,0.25775 -1.021035,0.17013 -1.171948,-0.25882 -0.150898,-0.42896 -0.03802,-1.13082 0.336935,-2.10461 0.177829,-0.46181 0.393901,-0.91664 0.649455,-1.37217 0.250917,-0.449382 0.610461,-1.00673 1.074285,-1.670005 0.124014,-0.173371 0.499987,-0.681824 1.132884,-1.528424 l 2.666181,-3.545143 -2.876155,1.171949 0.493195,-1.279377 3.862546,-1.577239 z m -10.772157,3.657447 c -1.987446,0.59613 -5.182105,0.721529 -8.50639,0.766641 -2.821204,0.02674 -6.683704,-0.195309 -8.96052,0.214857 -1.329495,1.281002 -2.76077,2.65065 -4.1604147,3.862554 -1.246234,1.04381 -2.522529,2.12798 -4.096935,2.62712 -0.193644,0.0156 -0.2251,-0.006 -0.419948,-0.0293 0.583636,0.52539 1.197341,0.84369 1.860467,1.22078 l 22.4135067,8.97517 c 0.11772,0.0229 1.359279,0.48288 2.373195,0.005 L 30.537095,26.812228 z M 19.769822,31.7686 c 0.10014,-0.003 0.19937,-0.003 0.29787,0 0.112571,0.003 0.221583,0.0128 0.332052,0.0244 0.883749,0.093 1.586608,0.42888 2.109506,1.01081 0.373911,0.41612 0.527495,0.83937 0.454131,1.26961 -0.0688,0.42829 -0.354066,0.81894 -0.849663,1.17195 0.766026,-0.17128 1.479716,-0.17048 2.138805,-0.005 0.663646,0.16359 1.203458,0.47755 1.621195,0.94245 0.633896,0.70542 0.815384,1.37315 0.546909,2.00695 -0.263924,0.6319 -0.957172,1.18839 -2.085091,1.66515 -1.127926,0.47671 -2.164344,0.65267 -3.110545,0.53226 -0.941639,-0.12233 -1.729525,-0.53487 -2.363429,-1.24032 -0.417729,-0.46489 -0.583329,-0.93599 -0.498078,-1.4161 0.08526,-0.48011 0.409237,-0.91635 0.976624,-1.30868 l 0,-0.005 c -0.687123,0.14688 -1.325722,0.14844 -1.919065,0 -0.588771,-0.15037 -1.071486,-0.43353 -1.445403,-0.84968 -0.522893,-0.58188 -0.647253,-1.16492 -0.371117,-1.74814 0.28071,-0.58515 0.929722,-1.09018 1.94348,-1.51866 0.779659,-0.32953 1.520833,-0.50886 2.221819,-0.53225 z m -0.244156,1.01569 c -0.405627,0.007 -0.834143,0.10968 -1.279377,0.29786 -0.598209,0.25286 -0.96499,0.55119 -1.108467,0.90337 -0.138907,0.35032 -0.04099,0.71673 0.29787,1.09382 0.33886,0.3771 0.765594,0.60155 1.28426,0.67388 0.523232,0.0704 1.086466,-0.0206 1.684675,-0.27345 0.593645,-0.25094 0.960107,-0.55118 1.103584,-0.90339 0.148041,-0.35413 0.05564,-0.72156 -0.28322,-1.09871 C 20.88613,33.1006 20.448995,32.87718 19.921199,32.8087 19.79039,32.7911 19.660874,32.7818 19.525666,32.7843 z m 3.012883,3.15448 c -0.461307,0 -0.939032,0.10752 -1.435636,0.31741 -0.657576,0.27793 -1.066693,0.61985 -1.220779,1.03033 -0.149519,0.40863 -0.02813,0.83075 0.366233,1.26961 0.394364,0.43891 0.894848,0.70879 1.494234,0.80083 0.60395,0.0902 1.232188,-0.005 1.889767,-0.28321 0.657569,-0.27797 1.066688,-0.62472 1.220779,-1.03522 0.151159,-0.41376 0.03009,-0.83886 -0.361351,-1.2745 -0.394367,-0.43887 -0.895168,-0.70093 -1.499117,-0.79107 -0.149847,-0.023 -0.300361,-0.0344 -0.45413,-0.0342 z"
     id="path-main"
      />
</defs>
<acyl-settings>
<linearGradient
     id="linearGradient4321">
    <stop
       style="stop-color:#FFFFFF;stop-opacity:1.0;"
       offset="1.0"
       id="stop1" />
  </linearGradient>
<linearGradient
     inkscape:collect="always"
     xlink:href="#linearGradient4321"
     id="acyl_gradient"
     x1="50.0%"
     y1="0.0%"
     x2="50.0%"
     y2="100.0%" />
<filter>
    </filter>
<use id="1" style="fill:url(#acyl_gradient);filter:url(#filter1111)" xlink:href="#path-main" />
</acyl-settings>
</svg>
