<svg xmlns="http://www.w3.org/2000/svg" width="48" height="48">
<defs>
  <path
     d="M 6.75 4.5 C 6.0535068 4.5 5.5 5.0513432 5.5 5.71875 L 5.5 42.28125 C 5.5 42.948657 6.0535068 43.5 6.75 43.5 L 41.25 43.5 C 41.946493 43.5 42.5 42.948657 42.5 42.28125 L 42.5 14 L 44.5 12.09375 L 45.28125 11.375 L 44.21875 11.25 L 42.5 11.03125 L 42.5 5.71875 C 42.5 5.0513432 41.946493 4.5 41.25 4.5 L 6.75 4.5 z M 36.125 7.09375 L 38.09375 11.25 L 38.21875 11.5 L 38.46875 11.53125 L 43.0625 12.09375 L 39.6875 15.25 L 39.5 15.4375 L 39.5625 15.71875 L 40.4375 20.25 L 36.375 18.03125 L 36.15625 17.90625 L 35.90625 18.03125 L 31.875 20.28125 L 32.71875 15.75 L 32.78125 15.46875 L 32.59375 15.28125 L 29.21875 12.15625 L 33.78125 11.5625 L 34.0625 11.5 L 34.15625 11.25 L 36.125 7.09375 z M 16.40625 10.40625 L 33.46875 10.40625 L 33.375 10.59375 L 28.03125 11.28125 L 27 11.4375 L 27.25 11.65625 L 17.65625 11.65625 L 17.65625 29.6875 C 16.790574 29.093524 15.736665 28.6875 14.53125 28.6875 C 13.240371 28.6875 12.022064 29.079206 11.125 29.75 C 10.229937 30.419298 9.65625 31.390929 9.65625 32.5 C 9.65625 33.608991 10.226985 34.601278 11.125 35.28125 C 12.02484 35.962604 13.243121 36.34375 14.53125 36.34375 C 15.819544 36.34375 17.021582 35.963992 17.90625 35.28125 C 18.789147 34.599876 19.34375 33.60481 19.34375 32.5 L 19.34375 19.34375 L 31.0625 19.34375 L 30.71875 21.125 L 30.5 22.15625 L 31.4375 21.65625 L 35.59375 19.34375 L 35.65625 19.34375 L 35.65625 29.6875 C 34.790574 29.093524 33.736665 28.6875 32.53125 28.6875 C 31.240371 28.6875 30.022065 29.079207 29.125 29.75 L 29.09375 29.78125 C 28.219233 30.449369 27.65625 31.406051 27.65625 32.5 C 27.65625 33.608991 28.226985 34.601277 29.125 35.28125 C 30.02484 35.962605 31.243122 36.34375 32.53125 36.34375 C 33.819544 36.34375 35.021582 35.963992 35.90625 35.28125 L 35.90625 35.25 C 36.777823 34.569226 37.34375 33.596592 37.34375 32.5 L 37.34375 19.6875 L 40.875 21.625 L 41.8125 22.125 L 41.59375 21.09375 L 40.59375 15.8125 L 41.96875 14.5 L 41.96875 24 L 38.59375 24 L 38.59375 32.5 C 38.59375 33.025397 38.485521 33.526492 38.3125 34 L 41.84375 34 L 41.875 41.625 C 41.81819 42.707779 41.59594 42.867817 39.9375 42.875 L 7.53125 42.9375 C 6.5395583 42.90625 6.0625 42.92273 6.0625 41.5 L 6.0625 34 L 8.6875 34 C 8.5175627 33.529108 8.40625 33.021419 8.40625 32.5 C 8.40625 30.962393 9.2399429 29.598757 10.375 28.75 L 10.40625 28.71875 C 11.543104 27.880518 12.994671 27.4375 14.53125 27.4375 C 15.189388 27.4375 15.800607 27.589474 16.40625 27.75 L 16.40625 24 L 6.0625 24 L 6.0625 14 L 16.40625 14 L 16.40625 10.40625 z M 20.59375 24 L 20.59375 32.5 C 20.59375 33.025397 20.485521 33.526492 20.3125 34 L 26.6875 34 C 26.517563 33.529108 26.40625 33.021419 26.40625 32.5 C 26.40625 31.009702 27.198738 29.696514 28.28125 28.84375 L 28.375 28.75 C 29.517059 27.896009 30.979655 27.4375 32.53125 27.4375 C 33.189388 27.4375 33.800607 27.589474 34.40625 27.75 L 34.40625 24 L 20.59375 24 z "
     id="path-main" />
</defs>
<acyl-settings>
<linearGradient
     id="linearGradient4321">
    <stop
       style="stop-color:#FFFFFF;stop-opacity:1.0;"
       offset="1.0"
       id="stop1" />
  </linearGradient>
<linearGradient
     inkscape:collect="always"
     xlink:href="#linearGradient4321"
     id="acyl_gradient"
     x1="50.0%"
     y1="0.0%"
     x2="50.0%"
     y2="100.0%" />
<filter>
    </filter>
<use id="1" style="fill:url(#acyl_gradient);filter:url(#filter1111)" xlink:href="#path-main" />
</acyl-settings>
</svg>
