<svg xmlns="http://www.w3.org/2000/svg" width="48" height="48">
<defs>
<defs
     id="defs5">
  </defs>
  <path
     d="m 24.403481,2.5681054 c -8.468689,0 -11.171235,1.390158 -11.171235,5.7676045 0,3.6415691 0.09259,3.6946551 5.40363,4.0877201 3.787067,0.280279 2.763131,0.453078 -3.415766,0.58796 -11.719042,0.255823 -13.7885038,1.997522 -13.1031023,10.891254 0.2619087,3.398513 1.1396392,6.939836 1.9598657,7.867461 0.8202265,0.927625 2.9644279,1.679887 4.7596739,1.679885 2.8705417,0 3.2757757,-0.382857 3.2757757,-3.191781 0,-5.322677 3.36671,-7.447491 11.815191,-7.44749 9.557188,0 10.863254,-1.21812 10.863256,-10.135306 0,-8.1589154 -1.99507,-10.1073076 -10.387289,-10.1073076 z M 17.71194,6.0118695 c 0.751545,-0.031426 1.677491,0.5694318 2.071858,1.679885 0.246952,0.6953634 -0.356101,1.2599134 -1.343908,1.2599134 -0.987808,0 -1.791878,-0.752733 -1.791878,-1.6798847 0,-0.8225579 0.479392,-1.2354714 1.063928,-1.2599137 z m 19.85064,7.2235055 c -0.239549,0.01091 -0.404075,0.0478 -0.559962,0.08399 l -0.279981,0.08399 c -5.9e-5,2.4e-5 -0.195907,0.08394 -0.195986,0.08399 -1.61e-4,9.8e-5 -0.167748,0.111775 -0.167989,0.111992 0,0 -0.05419,0.02546 -0.08399,0.056 -0.0298,0.03054 -0.04397,0.06861 -0.056,0.08399 l -0.139991,0.251983 c -0.0079,0.01946 -0.02064,0.06531 -0.028,0.08399 -0.02625,0.06668 -0.03868,0.132232 -0.056,0.195987 -8.91e-4,0.0026 0,0.028 0,0.028 -0.02099,0.08166 -0.03758,0.146699 -0.056,0.251983 -0.08072,0.461374 -0.111992,1.018522 -0.111992,1.791877 0,2.653729 -0.823007,4.543913 -2.659818,5.711609 -1.880188,1.195271 -4.82476,1.707883 -9.071379,1.707883 -4.801935,0 -7.457845,0.254478 -9.071378,1.763879 -0.77118,0.721409 -1.241384,1.737201 -1.511897,3.107787 -0.273225,1.384327 -0.363975,3.133475 -0.363975,5.375632 0,3.173637 0.02637,4.856271 0.475968,6.075584 0.199995,0.542391 0.551711,1.075045 1.007931,1.4559 0.456219,0.380854 0.965693,0.630265 1.679884,1.007931 1.933928,1.022664 5.338243,1.410368 8.735402,1.31591 1.693691,-0.04709 3.353515,-0.236915 4.759674,-0.531964 0.321296,-0.06742 0.589832,-0.17282 0.755948,-0.251983 0.166116,-0.07916 0.214975,-0.110283 0.307979,-0.13999 0.33825,-0.108043 0.723644,-0.214217 1.091925,-0.335977 0.368281,-0.12176 0.69985,-0.176743 1.119924,-0.503966 0.604219,-0.470665 0.923867,-1.071603 1.259913,-1.903869 0.329467,-0.815973 0.531963,-1.718848 0.531964,-2.575824 0,-0.70666 0.0261,-1.151038 -0.111992,-1.679885 -0.03495,-0.133835 -0.05621,-0.307589 -0.251983,-0.587959 -0.195774,-0.280371 -0.413384,-0.380433 -0.475968,-0.419972 -0.560965,-0.354409 -0.89754,-0.354012 -1.623888,-0.475967 -0.726349,-0.121955 -1.713481,-0.241074 -2.995795,-0.335977 -0.788624,-0.05837 -1.224405,-0.09009 -1.539895,-0.13999 0.715216,-0.09811 2.415271,-0.190361 5.375632,-0.251983 5.450518,-0.113455 8.343816,-0.316071 10.163304,-1.623889 0.854436,-0.614154 1.434787,-1.542579 1.791877,-2.743812 0.365493,-1.229497 0.547641,-2.752014 0.699952,-4.759674 0.275989,-3.637848 -0.04641,-6.297371 -1.091925,-8.17544 -1.016056,-1.825147 -2.802061,-2.88855 -5.207643,-3.107787 -0.868327,-0.07914 -1.541962,-0.106857 -2.04386,-0.08399 z m 0.531963,2.267844 c 0.336511,0.0032 0.675969,2.26e-4 1.287912,0.056 1.962911,0.178893 2.765156,0.662587 3.471762,1.931867 0.677145,1.216359 1.070504,3.535424 0.811945,6.943525 -0.148697,1.960011 -0.319709,3.409323 -0.58796,4.311704 -0.276653,0.930647 -0.504834,1.246524 -0.951935,1.567893 -0.783586,0.563228 -3.561616,1.064145 -8.931388,1.175919 -3.062506,0.06375 -4.788946,0.09247 -5.823601,0.251983 -0.03468,0.0053 -0.237296,0.03945 -0.475968,0.111992 -0.03369,0.01024 -0.266928,0.06344 -0.503965,0.195987 -0.05337,0.02985 -0.742704,0.516459 -0.979933,1.203918 -0.177376,0.514015 -0.107439,0.956051 0,1.315909 0.107439,0.359859 0.20205,0.635706 0.531964,0.951935 0.305932,0.293243 0.796056,0.476583 0.72795,0.44797 0.182678,0.07675 0.364488,0.133895 0.531963,0.167988 0.540811,0.110092 1.137986,0.156942 2.04386,0.223985 1.232657,0.09123 2.145555,0.202829 2.771811,0.307979 0.437575,0.07347 0.504157,0.09468 0.587959,0.111992 0.01195,0.153463 0.028,0.343451 0.028,0.839942 -10e-7,0.464911 -0.144583,1.192527 -0.363975,1.735881 -0.199171,0.493276 -0.587071,0.928769 -0.559961,0.923937 -0.02897,0.0096 -0.22114,0.120993 -0.44797,0.195987 -0.06475,0.02141 -0.152227,0.06153 -0.223984,0.08399 0.07696,-0.06775 0.178206,-0.09507 0.223984,-0.167989 0.310153,-0.494025 0.223985,-0.708244 0.223985,-1.035929 0,-0.456231 -0.08763,-0.867951 -0.307979,-1.315909 -0.127703,-0.259617 -0.266273,-0.423666 -0.391973,-0.559962 -0.06285,-0.06815 -0.142831,-0.12074 -0.195987,-0.167989 -0.05316,-0.04725 0.029,-0.04924 -0.223984,-0.195986 -0.08387,-0.04865 -0.147669,-0.141472 -0.58796,-0.167989 -0.184446,-0.01111 -0.347511,0.02111 -0.447969,0.056 -0.02369,0.0077 -0.0069,0.02044 -0.028,0.028 -0.323195,0.115524 -0.406549,0.214231 -0.503966,0.307979 -0.103788,0.09988 -0.194429,0.210224 -0.279981,0.335977 -0.405802,0.596482 -0.529855,1.449687 -0.028,2.211848 0.265157,0.402687 0.566807,0.696125 0.895939,0.867941 0.219421,0.114544 0.452118,0.09554 0.671954,0.111992 -0.186071,0.07198 -0.369023,0.158364 -0.44797,0.195986 -0.103283,0.04922 -0.121547,0.05663 -0.251982,0.08399 -1.240444,0.260277 -2.798531,0.432336 -4.367701,0.475967 -3.128566,0.08699 -6.618608,-0.508782 -7.615478,-1.035929 -0.692953,-0.366435 -1.123616,-0.623417 -1.31591,-0.783946 -0.192295,-0.160529 -0.197465,-0.20425 -0.307979,-0.503966 -0.171423,-0.464901 -0.363975,-2.169929 -0.363975,-5.291637 0,-2.181377 0.08931,-3.819734 0.307979,-4.927663 0.221384,-1.121669 0.486231,-1.600984 0.839942,-1.931867 0.636246,-0.595184 2.88474,-1.147922 7.559482,-1.147922 4.413406,0 7.747468,-0.454672 10.247298,-2.04386 2.543207,-1.616763 3.723745,-4.447824 3.723745,-7.615478 0,-0.428739 0.01072,-0.585037 0.028,-0.839943 z"
     id="path-main"
      />
</defs>
<acyl-settings>
<linearGradient
     id="linearGradient4321">
    <stop
       style="stop-color:#FFFFFF;stop-opacity:1.0;"
       offset="1.0"
       id="stop1" />
  </linearGradient>
<linearGradient
     inkscape:collect="always"
     xlink:href="#linearGradient4321"
     id="acyl_gradient"
     x1="50.0%"
     y1="0.0%"
     x2="50.0%"
     y2="100.0%" />
<filter>
    </filter>
<use id="1" style="fill:url(#acyl_gradient);filter:url(#filter1111)" xlink:href="#path-main" />
</acyl-settings>
</svg>
