<svg xmlns="http://www.w3.org/2000/svg" width="48" height="48">
<defs>
<defs
     id="defs5">
  </defs>
  <path
     d="M 24,2.6565217 22.086957,23.7 24,45.7 25.913043,23.7 24,2.6565217 z M 13.836957,13.028804 C 6.8066873,14.060185 2,16.089028 2,18.469022 c 0,2.687294 6.1655459,4.9474 14.706522,5.798913 l 2.510869,16.649456 0,-16.410326 0,-2.899456 C 11.507623,21.053913 5.826087,19.207997 5.826087,17.004348 c 0,-1.650001 3.1763248,-3.115795 8.01087,-3.975544 z m 20.326086,0 c 4.834545,0.859749 8.01087,2.325544 8.01087,3.975544 -10e-7,2.203648 -5.681536,4.049565 -13.391304,4.603261 l 0,0.179348 0,2.720108 0,16.410326 2.510869,-16.649456 C 39.834454,23.416422 46.000001,21.156316 46,18.469022 46,16.089029 41.193313,14.060186 34.163043,13.028804 z"
     id="path-main"
      />
</defs>
<acyl-settings>
<linearGradient
     id="linearGradient4321">
    <stop
       style="stop-color:#FFFFFF;stop-opacity:1.0;"
       offset="1.0"
       id="stop1" />
  </linearGradient>
<linearGradient
     inkscape:collect="always"
     xlink:href="#linearGradient4321"
     id="acyl_gradient"
     x1="50.0%"
     y1="0.0%"
     x2="50.0%"
     y2="100.0%" />
<filter>
    </filter>
<use id="1" style="fill:url(#acyl_gradient);filter:url(#filter1111)" xlink:href="#path-main" />
</acyl-settings>
</svg>
