<svg xmlns="http://www.w3.org/2000/svg" width="48" height="48">
<defs>
  <path
     d="m 2,6.6061823 0,23.2844877 2.153406,0 0,-5.654265 c -0.0031,0.0047 -0.0095,0.0079 -0.01259,0.01259 l 0,-14.9856887 27.049799,0 0,8.8906687 2.12822,0 0,-11.5477957 -31.318832,0 z m 22.969662,5.0120207 c -1.501224,0 -2.720091,1.218866 -2.720091,2.720091 0,1.501225 1.218867,2.720092 2.720091,2.720092 1.501225,0 2.720092,-1.218867 2.720092,-2.720092 0,-1.501225 -1.218867,-2.720091 -2.720092,-2.720091 z m 10.061821,2.392673 0,2.657126 8.815111,0 0,2.997138 c 0.0032,-0.0047 0.0096,-0.0079 0.01257,-0.01259 l 0,12.001145 c -0.0028,-0.0047 -0.0094,-0.0079 -0.01257,-0.01259 l 0,2.997145 -4.734974,0 0,2.65712 4.734974,0 2.153406,0 0,-23.284488 -2.153406,0 -8.815111,0 z m -28.76245,5.704636 0,23.284488 31.306239,0 0,-23.284488 -31.306239,0 z m 2.128219,2.657127 27.062393,0 0,11.472241 c -1.406974,1.32301 -3.973359,3.27628 -6.63652,2.80824 -5.218764,-0.91717 -9.402259,-5.705565 -17.542072,-1.76302 -1.482549,0.71807 -2.367714,1.69584 -2.883801,2.48082 l 0,-14.998281 z m 19.607327,3.097882 c -1.501224,0 -2.720091,1.218866 -2.720091,2.720091 0,1.501225 1.218867,2.720092 2.720091,2.720092 1.501225,0 2.707499,-1.218867 2.707499,-2.720092 0,-1.501225 -1.206274,-2.720091 -2.707499,-2.720091 z"
     id="path-main"
      />
</defs>
<acyl-settings>
<linearGradient
     id="linearGradient4321">
    <stop
       style="stop-color:#FFFFFF;stop-opacity:1.0;"
       offset="1.0"
       id="stop1" />
  </linearGradient>
<linearGradient
     inkscape:collect="always"
     xlink:href="#linearGradient4321"
     id="acyl_gradient"
     x1="50.0%"
     y1="0.0%"
     x2="50.0%"
     y2="100.0%" />
<filter>
    </filter>
<use id="1" style="fill:url(#acyl_gradient);filter:url(#filter1111)" xlink:href="#path-main" />
</acyl-settings>
</svg>
