<svg xmlns="http://www.w3.org/2000/svg" width="48" height="48">
<defs>
  <path
     d="m 25.411648,5.4709358 c -6.86473,-0.062 -13.441821,5.5651662 -15.8647573,13.7147092 l -5.3859823,0 -1.6288255,3.648568 6.2329718,0 c -0.0815,0.632459 -0.124334,1.267303 -0.152024,1.889437 l -4.9950643,0 L 2,28.36136 l 6.7541957,0 c 0.869729,6.936619 5.1246573,12.521329 11.2063173,13.725569 7.711359,1.52694 15.586159,-4.53875 18.210268,-13.725569 l -6.471867,0 1.617966,-3.63771 5.581443,0 c 0.07575,-0.636295 0.130703,-1.264071 0.152023,-1.889437 l -5.201383,0 1.628825,-3.648568 3.387956,0 C 37.928254,12.359762 33.703734,6.8893689 27.692003,5.6989718 26.929012,5.5478898 26.17275,5.4778108 25.411648,5.4709358 z M 38.865744,19.185645 c 0.16216,1.180675 0.227102,2.401762 0.184602,3.648568 l 5.331688,0 L 46,19.185645 l -7.134256,0 z m 0.03256,5.538005 c -0.08212,0.689812 -0.188127,1.386912 -0.336622,2.084897 -0.1122,0.527368 -0.245543,1.043857 -0.390919,1.552813 l 4.050344,0 1.617966,-3.63771 -4.940769,0 z M 32.621915,10.335694 c 0.0693,-0.0099 0.143089,0.0073 0.206317,0.04344 0.505827,0.289043 0.647386,0.86218 0.358342,3.246791 -0.289044,2.384611 -2.100294,10.62131 -2.60612,13.367226 -0.505827,2.745908 -2.241459,8.679358 -2.747286,10.413618 -0.505826,1.73426 -1.51056,2.66456 -2.160908,2.9536 -0.650348,0.28905 -1.949057,-0.3532 -2.88845,-1.50938 -0.939392,-1.15617 -3.257051,-4.4138 -4.919052,-7.23198 0,0 -1.876797,-2.52911 -2.88845,-3.974328 -1.011653,-1.445219 -3.826848,-5.420134 -4.332675,-6.287266 -0.505827,-0.867131 -0.432778,-1.881541 0.434353,-1.520236 0.867131,0.361304 3.031191,1.014016 3.898322,1.30306 0.867131,0.289044 1.879366,0.0022 2.312932,-0.792695 0.433565,-0.79487 0.355773,-1.229018 0.93386,-2.312932 0.578087,-1.083914 1.011447,-1.156569 1.878578,-0.217176 0.867131,0.939391 2.463962,1.879759 3.909181,2.530108 1.445218,0.650348 3.034547,-0.791307 3.757156,-2.019743 0.72261,-1.228436 2.668704,-4.917271 3.246792,-5.928924 0.505827,-0.885197 1.122027,-1.994023 1.607108,-2.063179 z M 30.1461,17.535102 c 0,0 -0.641853,1.367219 -1.292201,2.812438 -0.650349,1.445219 -1.522601,3.544912 -2.823297,4.267522 -1.300697,0.72261 -2.603945,0.432778 -3.398815,-0.434353 -0.794871,-0.867131 -0.938005,-1.017767 -1.227049,-1.379072 -0.289044,-0.361305 -0.507008,-0.07147 -0.65153,0.434353 -0.144522,0.505826 -0.210856,0.938792 -0.716683,1.661402 -0.505826,0.722609 -1.380254,0.871276 -2.030602,0.293188 -0.650348,-0.578087 -3.53998,-1.58539 -3.53998,-1.58539 0,0 4.048563,5.344909 5.060217,6.645609 1.011653,1.3007 2.890025,4.11747 3.757157,5.20138 0.867131,1.08391 1.304241,1.58914 1.95459,1.6614 0.650348,0.0723 1.014016,-0.43632 1.30306,-1.52023 0.289044,-1.08392 1.730699,-6.86258 2.019743,-8.741367 0.289044,-1.878785 1.368607,-6.354388 1.58539,-7.438302 0.216783,-1.083914 0,-1.878578 0,-1.878578 z m -7.959526,7.818361 c 0.144522,0 0.307799,0.130699 0.38006,0.347482 0.650348,1.51748 2.530108,5.990514 2.530108,8.013824 0,2.0233 -1.235732,2.45687 -2.030602,0 -0.79487,-2.45688 -0.93386,-3.17393 -0.93386,-4.9082 0,-1.734259 -0.217176,-2.462383 -0.217176,-3.040471 0,-0.289043 0.126948,-0.412635 0.27147,-0.412635 z"
     id="path-main"
      />
</defs>
<acyl-settings>
<linearGradient
     id="linearGradient4321">
    <stop
       style="stop-color:#FFFFFF;stop-opacity:1.0;"
       offset="1.0"
       id="stop1" />
  </linearGradient>
<linearGradient
     inkscape:collect="always"
     xlink:href="#linearGradient4321"
     id="acyl_gradient"
     x1="50.0%"
     y1="0.0%"
     x2="50.0%"
     y2="100.0%" />
<filter>
    </filter>
<use id="1" style="fill:url(#acyl_gradient);filter:url(#filter1111)" xlink:href="#path-main" />
</acyl-settings>
</svg>
