<svg xmlns="http://www.w3.org/2000/svg" width="48" height="48">
<defs>
<defs
     id="defs2162">
  </defs>
  <path
     id="path-main"
   d="M 38.6875 5.15625 C 34.298812 5.1540741 27.94821 7.8087552 22.1875 13.15625 C 42.089154 -0.059435259 47.125232 13.473375 24.25 30.84375 C 23.598756 30.352181 22.785063 30.03125 21.90625 30.03125 C 19.758367 30.03125 18.03125 31.789617 18.03125 33.9375 C 18.03125 36.085383 19.758367 37.8125 21.90625 37.8125 C 24.054133 37.8125 25.8125 36.085383 25.8125 33.9375 C 25.8125 33.590832 25.741356 33.257369 25.65625 32.9375 C 48.257163 14.59257 46.968775 5.1603559 38.6875 5.15625 z M 18.21875 14.78125 C 9.7824624 14.78125 2.96875 21.594961 2.96875 30.03125 C 2.96875 38.467538 9.7824624 45.3125 18.21875 45.3125 C 26.655039 45.3125 33.53125 38.467538 33.53125 30.03125 C 33.53125 29.64121 33.497621 29.25759 33.46875 28.875 C 31.30351 30.746363 28.924796 32.692924 27.15625 33.84375 C 27.15625 36.811735 24.749235 39.21875 21.78125 39.21875 C 18.813265 39.21875 16.40625 36.811735 16.40625 33.84375 C 16.40625 30.875765 18.813265 28.46875 21.78125 28.46875 C 22.488942 28.46875 23.162372 28.626327 23.78125 28.875 C 25.778512 27.524804 28.818653 24.926617 31.4375 22.34375 C 28.77691 17.818384 23.848077 14.78125 18.21875 14.78125 z M 14.375 17.53125 C 15.000553 17.528232 15.478364 17.725098 15.71875 18.09375 C 16.359779 19.076822 15.036534 21.060655 12.78125 22.53125 C 10.525966 24.001845 8.1722787 24.389322 7.53125 23.40625 C 6.8902213 22.423178 8.2134664 20.439345 10.46875 18.96875 C 11.878302 18.049628 13.332412 17.536279 14.375 17.53125 z "
/>
</defs>
<acyl-settings>
<linearGradient
     id="linearGradient4321">
    <stop
       style="stop-color:#FFFFFF;stop-opacity:1.0;"
       offset="1.0"
       id="stop1" />
  </linearGradient>
<linearGradient
     inkscape:collect="always"
     xlink:href="#linearGradient4321"
     id="acyl_gradient"
     x1="50.0%"
     y1="0.0%"
     x2="50.0%"
     y2="100.0%" />
<filter>
    </filter>
<use id="1" style="fill:url(#acyl_gradient);filter:url(#filter1111)" xlink:href="#path-main" />
</acyl-settings>
</svg>
