<svg xmlns="http://www.w3.org/2000/svg" width="48" height="48">
<defs>
<defs
     id="defs4">
  </defs>
  <path
     id="path-main"
     d="M 22.818205,4.1959186 C 14.762812,4.3228878 10.238028,10.960751 10.009475,11.302328 l -0.2865485,0.08597 0,0.02865 -0.028655,0 c -0.7727319,0.164558 -1.2623151,0.328713 -2.0631511,0.773682 -1.9142083,1.06359 -3.5767763,3.123231 -3.8397534,6.504657 -1.2439934,1.099418 -2.280435,3.196234 -1.5473634,5.988869 0.4190825,1.59651 1.7741346,3.113471 3.0087621,4.326887 0.7400141,0.767186 1.5944994,1.454341 2.4070096,2.12046 0.7830042,2.286048 2.1126094,4.524547 4.3268867,6.246764 0.81303,0.607381 1.680501,1.077187 2.578939,1.461398 -0.625577,0.06381 -1.301776,0.243774 -1.948532,0.573098 -1.411887,0.718924 -2.056295,1.788402 -1.432744,2.378355 0.32033,0.303069 0.91351,0.42518 1.604673,0.372513 -0.149703,0.56003 -0.03171,1.019938 0.401169,1.203505 0.790286,0.335124 2.309236,-0.352088 3.381275,-1.518709 0.711256,-0.774009 1.028104,-1.545168 0.945611,-2.091806 1.055173,0.217285 2.125971,0.339858 3.209346,0.401169 -0.644386,0.315568 -1.319695,0.88283 -1.833912,1.576018 -0.893216,1.204093 -0.944869,2.349649 -0.114619,2.550284 0.428351,0.103513 1.021168,-0.07884 1.604673,-0.429823 0.135959,0.524559 0.445926,0.845743 0.916956,0.802336 0.854132,-0.07871 1.854951,-1.278289 2.23508,-2.693558 0.195767,-0.728864 0.198243,-1.365491 0.02866,-1.805257 1.58635,-0.117687 3.170867,-0.340776 4.728055,-0.773682 2.424863,1.310399 4.746069,1.609978 6.848515,1.203505 2.696186,-0.521262 4.996304,-2.107807 6.848516,-3.925718 1.966754,-1.930332 2.546131,-4.399246 2.464319,-6.390038 -0.0098,-0.238781 0.05412,-0.481793 0.114619,-0.745027 0.04686,-0.203855 0.04958,-0.441422 0.02866,-0.687717 0.844018,-1.40987 1.404088,-3.6576 1.404089,-5.530391 l 0,-0.02865 c -0.184005,-1.991201 -0.720492,-4.237617 -2.034496,-5.874249 -0.0014,-0.0094 0.0014,-0.01928 0,-0.02866 -0.274009,-1.817031 -0.639889,-3.623734 -2.005841,-4.871329 -1.349804,-1.232844 -2.884826,-1.511955 -3.610515,-1.719293 0.03559,0.01017 -0.03124,-0.03548 -0.114619,-0.08596 -0.08338,-0.05049 -0.211884,-0.109053 -0.343859,-0.200585 C 37.62672,10.316928 37.300417,10.054064 36.916404,9.7549646 36.141769,9.1516172 35.121973,8.36799 33.878987,7.577194 31.393815,5.9961016 27.983048,4.3945285 23.649197,4.2245734 23.376804,4.2138916 23.086705,4.1916879 22.818205,4.1959186 z m 0.02866,0.6590621 c 0.253048,-0.00399 0.509903,-0.010344 0.773682,0 4.189888,0.1643095 7.489194,1.7235965 9.914587,3.266656 1.212305,0.7712771 2.204221,1.5447935 2.980107,2.1491153 0.391248,0.304735 0.753316,0.552039 1.031576,0.745027 0.139129,0.09649 0.242633,0.16795 0.343858,0.229239 0.101226,0.06129 0.171672,0.110452 0.286549,0.143275 0.793193,0.226625 2.14379,0.500586 3.352621,1.604673 1.185623,1.08289 1.533607,2.691944 1.805257,4.498815 l 0,0.08597 0.05731,0.05731 c 1.253213,1.466617 1.791204,3.69124 1.977187,5.673665 8.51e-4,0.0091 -8.37e-4,0.0196 0,0.02866 -0.0057,1.757061 -0.59075,3.979703 -1.346779,5.215188 l -0.05731,0.114619 0.02866,0.143274 c 0.04216,0.16007 -4.2e-4,0.325595 -0.05731,0.573098 -0.05689,0.247503 -0.129305,0.559605 -0.114619,0.916956 0.0757,1.842155 -0.47356,4.117756 -2.29239,5.902905 -1.79825,1.764948 -3.983358,3.266338 -6.504657,3.753788 -1.994353,0.385576 -4.179899,0.128623 -6.533312,-1.17485 l -0.11462,-0.08596 -0.143274,0.05731 c -1.699255,0.485432 -3.462664,0.691566 -5.243843,0.802336 -0.09152,-0.0249 -0.208437,-0.03849 -0.315203,-0.02866 -0.05914,0.0054 -0.111638,0.0413 -0.171929,0.05731 -0.0577,0.0031 -0.114188,-0.003 -0.17193,0 -3.571107,-0.02238 -7.1219,-0.593097 -9.971897,-2.722213 C 10.188364,35.174068 8.9148001,32.995532 8.1755632,30.730334 L 7.8317047,30.415131 C 7.654632,30.276391 6.8076288,29.630111 5.7112438,28.552564 4.5029295,27.365009 3.2004702,25.863521 2.8457561,24.512226 2.1492634,21.858938 3.1769145,19.94795 4.2785,19.039145 l 0.1146195,-0.08597 0,-0.11462 C 4.6172856,15.590261 6.1731059,13.748978 7.9463242,12.763727 8.7354232,12.325279 9.1083867,12.177358 9.8662009,12.0187 l 0.028655,0 0.4011681,-0.11462 0.11462,-0.02866 0.05731,-0.114619 c 0,0 4.476413,-6.7812661 12.378906,-6.9058253 z M 21.270842,9.210522 c -3.450331,0.061199 -6.09645,1.605617 -8.080675,3.610514 -2.267693,2.291313 -3.6576975,5.215463 -4.1549575,7.0491 -0.5039875,1.858454 -0.9011692,4.798052 -0.458478,7.794126 0.4426915,2.996071 1.7141595,6.035815 4.5274705,8.22395 4.61748,3.591378 11.830359,2.429029 14.212819,1.919877 -0.262035,-0.178148 -0.537646,-0.340172 -0.802337,-0.544443 -0.527645,-0.427249 -0.03887,-1.134165 0.573098,-0.716372 2.907957,2.244179 5.484195,2.738976 7.794126,2.29239 2.309933,-0.446589 4.359585,-1.869723 6.074834,-3.553204 1.648919,-1.618386 2.13196,-3.65543 2.063151,-5.329807 -0.0344,-0.837193 -0.204459,-1.571393 -0.429823,-2.091806 -0.225363,-0.520415 -0.332218,-0.673199 -0.401168,-0.687717 -0.06896,-0.01452 -0.317318,-0.109483 -0.458478,0.08596 -0.14116,0.195456 -0.270588,0.547007 -0.372514,0.916956 -0.203848,0.739898 -0.257894,1.547364 -0.257894,1.547364 -0.208051,0.643054 -0.491375,0.765063 -0.888301,0.08596 -10e-7,-10e-7 -0.116178,-0.43242 -0.372513,-0.859646 -0.256333,-0.427229 -0.649923,-0.758441 -1.088886,-0.802337 -0.162002,-0.01619 -0.271676,0.02486 -0.429823,0.200584 -0.158148,0.175719 -0.282915,0.463275 -0.401168,0.773682 -0.236494,0.620817 -0.343858,1.28947 -0.343858,1.28947 -0.251395,0.568869 -0.529628,0.825784 -0.888302,0 -10e-7,10e-7 -0.08105,-0.609731 -0.286548,-1.17485 -0.102754,-0.282559 -0.263558,-0.526459 -0.401169,-0.687717 -0.137608,-0.161262 -0.187523,-0.236331 -0.315203,-0.229239 -0.07694,0.0043 -0.266514,0.08988 -0.487133,0.372513 -0.220618,0.282637 -0.494761,0.72362 -0.745027,1.146195 -0.250258,0.422577 -0.478038,0.853067 -0.802337,1.203505 -0.324299,0.350427 -0.788319,0.652208 -1.318124,0.601752 -1.696124,-0.161533 -2.063151,-1.891222 -2.063151,-1.891222 -0.08901,-0.286717 0.135599,-0.465495 0.02866,-0.716372 -1.961762,-5.484103 -1.269888,-9.309823 -0.05731,-11.748499 1.174171,-2.361424 2.80363,-3.37093 3.008762,-3.495895 C 32.936734,13.414033 32.367433,12.792928 31.414668,12.133319 29.789836,11.008434 27.072995,9.7440112 22.78955,9.2964866 22.263726,9.2415495 21.763749,9.2017782 21.270842,9.210522 z m -8.968976,2.693558 c -0.392696,0.0054 -0.834823,0.05719 -1.318125,0.143275 -0.151335,0.11971 -2.3592134,1.488275 -3.6391692,3.811098 -1.3292052,2.412204 -1.5512907,5.887566 0.2578939,10.000552 -0.09254,-2.39494 0.3259519,-4.730079 0.7450267,-6.275418 0.779174,-3.013871 2.6386766,-5.375523 4.6707446,-7.650852 -0.152478,-0.01039 -0.53484,-0.03114 -0.716371,-0.02865 z m 21.347882,2.235081 -0.08596,0.02866 c 10e-7,0 -1.651652,0.997702 -2.836833,3.381275 -1.185179,2.38357 -1.873561,6.144044 0.286549,11.805809 2e-6,0 0.372429,1.277182 1.404089,1.375434 0.152144,0.01449 0.343314,-0.03825 0.573097,-0.286549 0.229779,-0.248292 0.442757,-0.675263 0.687717,-1.088885 0.244956,-0.413618 0.488927,-0.838695 0.773682,-1.203505 0.07119,-0.0912 0.148996,-0.17374 0.229239,-0.257894 -0.658028,-1.232207 -1.031576,-2.709052 -1.031576,-4.326886 2e-6,-1.246964 0.252195,-2.456536 0.659063,-3.495895 -0.122082,-0.26975 -1.33645,-3.004747 -0.659063,-5.931559 z m 4.728055,0.458478 c -1.263158,0 -2.263728,1.000574 -2.263735,2.263735 0,0.209537 0.02682,0.668589 0.08596,1.031576 -0.175465,0.185049 -0.325885,0.384399 -0.487132,0.601752 -1.003929,1.353234 -1.490059,3.335804 -1.490054,5.358462 0,1.538409 0.211372,2.919599 0.830991,4.126302 l 0.143275,0.286549 0.286549,-0.143275 c 0.137783,-0.06548 0.05195,-0.04906 0.200584,-0.05731 0.314903,-0.0175 0.594845,0.180016 0.802336,0.401168 0.111282,0.389658 0.212045,0.679798 0.286549,0.859646 0.04098,0.09892 0.03966,0.184207 0.171929,0.286549 0.06613,0.05117 0.201744,0.08678 0.315204,0.05731 0.113459,-0.02947 0.192861,-0.09785 0.229239,-0.143275 0.07276,-0.09085 0.08125,-0.144669 0.114619,-0.229239 0.03337,-0.08457 0.07543,-0.206627 0.11462,-0.315203 0.06989,-0.193648 0.165288,-0.432855 0.286549,-0.687717 0.233951,-0.25511 0.442142,-0.400223 0.802336,-0.372514 0.0092,0.0035 0.01955,-0.0036 0.02866,0 0.309471,0.121046 0.565392,0.268422 0.773682,0.401169 0.229731,0.146412 0.414008,0.302606 0.659062,0.372513 0.122526,0.03495 0.290047,0.04173 0.429823,-0.02865 0.139776,-0.07039 0.214474,-0.187482 0.286549,-0.315204 0.14415,-0.255444 0.241129,-0.619347 0.372513,-1.174849 0.02471,-0.115298 0.150553,-0.211595 0.343859,-0.286549 0.193306,-0.07495 0.444092,-0.09653 0.630407,-0.05731 0.166576,0.03506 0.299952,0.113489 0.429823,0.229239 0.08959,0.07985 0.264725,0.326156 0.601753,0.945611 l 0.286548,0.544443 0.286549,-0.544443 c 0.613541,-1.192845 0.945614,-2.625186 0.945611,-4.183612 0,-2.033532 -0.584976,-3.879316 -1.576018,-5.215188 -0.715219,-0.964069 -1.644087,-1.658609 -2.664904,-1.977186 -0.131874,-1.13834 -1.090307,-2.034495 -2.263735,-2.034496 z m 1.060231,2.492974 c 1.273967,-1e-6 2.455696,0.682224 3.35262,1.891222 0.895704,1.20736 1.461399,2.936067 1.461399,4.842674 3e-6,1.231596 -0.278575,2.338507 -0.687717,3.323966 -0.0065,-0.01046 -0.02219,-0.01854 -0.02866,-0.02866 0.169706,-0.731196 0.257894,-1.543659 0.257894,-2.40701 4e-6,-1.466407 -0.255535,-2.803447 -0.716372,-3.811098 -0.230583,-0.50419 -0.52312,-0.920995 -0.859646,-1.23216 -0.336527,-0.311165 -0.736401,-0.515788 -1.17485,-0.515788 -0.438448,10e-7 -0.838324,0.204623 -1.17485,0.515788 -0.336527,0.311164 -0.629062,0.727971 -0.859647,1.23216 -0.460831,1.00765 -0.716372,2.344694 -0.716372,3.811098 4e-6,0.974351 0.159293,1.860719 0.372514,2.664904 -0.45939,0.04209 -0.880336,0.191736 -1.146195,0.487133 l -0.02866,0.02865 -0.02866,0.02866 c -0.124529,0.24932 -0.184631,0.464171 -0.257894,0.659062 -0.04155,-0.136533 -0.05839,-0.174841 -0.114619,-0.372513 l -0.02866,-0.08596 -0.02866,-0.05731 c -0.305106,-0.357547 -0.810807,-0.663368 -1.404089,-0.630408 -0.03548,0.0019 -0.05416,0.02407 -0.08597,0.02866 -0.475995,-1.034059 -0.659062,-2.227223 -0.659062,-3.610514 -5e-6,-1.917483 0.463948,-3.767293 1.346779,-4.957294 0.902904,-1.217065 1.919975,-1.805257 3.209347,-1.805257 z M 10.09544,19.039145 c 0,0 0.203257,0.286988 0.659062,0.458478 0.455806,0.171487 1.117735,0.236437 2.091806,-0.343859 l 0.487133,0.888301 c -1.205716,0.718298 -2.264854,0.698928 -2.980107,0.429823 C 9.6380809,20.202781 9.2357936,19.726862 9.2357936,19.726862 L 10.09544,19.039145 z m -5.5303912,0.659062 c -0.7481983,0.911702 -1.308292,2.404896 -0.7736817,4.441506 0.3021112,1.150895 1.5302724,2.639149 2.6935584,3.782443 2.0163434,1.959845 1.0883406,0.07705 1.0602304,-1.461398 C 7.1812656,26.227954 6.7023871,25.864586 6.2270316,25.257253 5.3912261,24.189391 4.5866569,22.440597 4.5650488,19.698207 z m 36.4776582,0.08596 c 0.248149,0 0.493734,0.111504 0.745026,0.343859 0.251293,0.232355 0.511688,0.584017 0.716372,1.031575 0.409705,0.895847 0.659067,2.164482 0.659062,3.553205 0,0.637861 -0.101882,1.189185 -0.200584,1.747948 -0.155537,-0.103299 -0.317016,-0.216047 -0.515787,-0.257894 -0.325253,-0.06847 -0.680933,-0.03889 -1.002921,0.08596 -0.321988,0.12485 -0.633704,0.359391 -0.716372,0.745027 -0.127238,0.537972 -0.214487,0.875222 -0.286549,1.002921 -0.01441,0.02554 0.0073,0.01963 0,0.02866 -0.04327,-0.01234 -0.241892,-0.130252 -0.487133,-0.286549 -0.164456,-0.104811 -0.418895,-0.20187 -0.659062,-0.315204 -0.0025,-0.0081 0.0024,-0.02054 0,-0.02866 -0.233134,-0.782909 -0.343854,-1.708257 -0.343858,-2.722213 0,-1.388722 0.249361,-2.657357 0.659062,-3.553205 0.204685,-0.447559 0.436423,-0.79922 0.687717,-1.031575 0.251293,-0.232355 0.496881,-0.343859 0.745027,-0.343859 z m -15.588253,0.401169 0.716372,0.716372 c -1.425788,1.50083 -2.931189,1.687764 -4.011683,1.432743 -1.080499,-0.255027 -1.776602,-0.916956 -1.776602,-0.916956 l 0.745026,-0.745026 c 0,0 0.503234,0.473491 1.28947,0.659062 0.786238,0.185572 1.819634,0.135684 3.037417,-1.146195 z m -10.688269,0.773681 0.630407,0.830992 -2.091806,1.633328 c 1.435559,-0.214984 2.375241,-0.558413 2.894143,-0.859647 0.341245,-0.198102 0.503111,-0.373996 0.601752,-0.487133 0.04932,-0.05658 0.08189,-0.06731 0.08596,-0.08596 l 0.945611,0.343858 c 0,0 -0.08044,0.226283 -0.257894,0.429824 -0.177462,0.203541 -0.426951,0.436527 -0.859647,0.687717 -0.543409,0.315462 -1.399984,0.624587 -2.521629,0.859646 0.672045,0.304725 1.368755,0.792386 2.005842,1.604673 l -0.802332,0.659062 c -1.685203,-2.148628 -3.425091,-1.737537 -4.011683,-1.747947 -0.586528,-0.01042 -1.346779,0.17193 -1.346779,0.171929 0,1e-6 0.239885,-0.444086 0.916956,-1.088885 0.677071,-0.644803 3.811099,-2.951453 3.811099,-2.951453 z" />
</defs>
<acyl-settings>
<linearGradient
     id="linearGradient4321">
    <stop
       style="stop-color:#FFFFFF;stop-opacity:1.0;"
       offset="1.0"
       id="stop1" />
  </linearGradient>
<linearGradient
     inkscape:collect="always"
     xlink:href="#linearGradient4321"
     id="acyl_gradient"
     x1="50.0%"
     y1="0.0%"
     x2="50.0%"
     y2="100.0%" />
<filter>
    </filter>
<use id="1" style="fill:url(#acyl_gradient);filter:url(#filter1111)" xlink:href="#path-main" />
</acyl-settings>
</svg>
