<svg xmlns="http://www.w3.org/2000/svg" width="48" height="48">
<defs>
  <path
     d="M 24.000001,2.000002 C 11.848604,2.000002 2,11.848604 2,24.000001 2,36.1514 11.848604,46 24.000001,46 36.151399,46 46,36.1514 46,24.000001 46,11.848604 36.151399,2.000002 24.000001,2.000002 z m 0,17.713235 c 2.373761,0 4.286765,1.913003 4.286765,4.286764 0,2.373761 -1.913004,4.300245 -4.286765,4.300245 -2.373761,0 -4.300245,-1.926484 -4.300245,-4.300245 0,-2.373761 1.926484,-4.286764 4.300245,-4.286764 z m -0.795343,9.261029 5.661765,4.138484 0,0.80882 0,2.18382 0,6.01226 c 0,0.7726 -1.151367,1.40196 -2.574755,1.40196 -1.42339,0 -2.574755,-0.62936 -2.574755,-1.40196 0,-0.7726 1.151365,-1.38848 2.574755,-1.38848 0.562986,0 1.085864,0.10335 1.509804,0.2696 l 0,-5.67524 -3.531863,-2.57475 0,5.91789 c 0,0.7726 -1.151366,1.38848 -2.574755,1.38848 -1.423389,0 -2.574755,-0.61588 -2.574755,-1.38848 0,-0.7726 1.151366,-1.40196 2.574755,-1.40196 0.562987,0 1.085863,0.10335 1.509804,0.2696 l 0,-5.5674 0,-2.992644 z"
     id="path-main"
      />
</defs>
<acyl-settings>
<linearGradient
     id="linearGradient4321">
    <stop
       style="stop-color:#FFFFFF;stop-opacity:1.0;"
       offset="1.0"
       id="stop1" />
  </linearGradient>
<linearGradient
     inkscape:collect="always"
     xlink:href="#linearGradient4321"
     id="acyl_gradient"
     x1="50.0%"
     y1="0.0%"
     x2="50.0%"
     y2="100.0%" />
<filter>
    </filter>
<use id="1" style="fill:url(#acyl_gradient);filter:url(#filter1111)" xlink:href="#path-main" />
</acyl-settings>
</svg>
