<svg xmlns="http://www.w3.org/2000/svg" width="48" height="48">
<defs>
<defs
     id="defs2162">
  </defs>
  <path
     id="path-main"
   d="M 47.09375 8.59375 L 36.6875 11.25 L 36.1875 12.75 L 40.3125 11.75 C 40.3125 11.75 38.06875 17.20625 36.96875 17.90625 C 35.86875 18.60625 34.54375 18.7375 33.84375 18.4375 C 33.14375 18.1375 32.35625 15.79375 30.15625 15.09375 C 27.95625 14.39375 26.6875 15.15625 26.6875 15.15625 C 26.6875 15.15625 27.856246 19.2875 26.65625 21.1875 C 25.45625 23.0875 20.975 24.35 19.375 23.25 C 17.775 22.15 15.8125 19.84375 15.8125 19.84375 C 15.8125 19.84375 10.49375 20.95625 7.59375 24.15625 C 4.69375 27.35625 4.28125 30.21875 4.28125 30.21875 C 2.4332448 31.295473 3.0541379 30.967144 1.875 31.375 L 1.21875 32.59375 L 7.9375 32.59375 C 7.3270255 31.675273 6.96875 30.591767 6.96875 29.40625 C 6.96875 26.202998 9.577998 23.59375 12.78125 23.59375 C 15.984502 23.59375 18.59375 26.202998 18.59375 29.40625 C 18.59375 30.591767 18.235475 31.675273 17.625 32.59375 L 31.875 32.59375 C 31.179635 31.527116 30.78125 30.274489 30.78125 28.90625 C 30.78125 25.150714 33.838214 22.09375 37.59375 22.09375 C 41.349286 22.09375 44.375 25.150714 44.375 28.90625 C 44.375 30.274489 43.976615 31.527116 43.28125 32.59375 L 44.78125 32.59375 L 45.59375 30.65625 L 47.09375 30.78125 L 47.09375 29.1875 L 45.6875 29.1875 L 45.78125 27.84375 L 47.0625 27.90625 L 47.125 26.4375 L 45.6875 26.40625 C 45.6875 26.40625 45.59375 22.00625 45.09375 21.40625 C 44.59375 20.80625 42.99375 19.2 41.09375 19 C 39.19375 18.8 38.875 18.59375 38.875 18.59375 L 42.09375 11.375 L 46.90625 9.96875 L 47.09375 8.59375 z M 24.1875 11.21875 C 23.347292 11.21875 22.594895 11.258084 22.03125 11.28125 C 22.01093 11.278669 21.989363 11.283377 21.96875 11.28125 C 21.925806 11.276819 21.887988 11.252447 21.84375 11.25 C 21.647052 11.239572 21.462054 11.278993 21.28125 11.3125 C 21.122318 11.330051 21.03125 11.352665 21.03125 11.375 C 20.069146 11.662155 19.346571 12.50111 18.84375 13.40625 C 18.208053 14.550585 18.80523 15.75 17.96875 15.75 C 17.132272 15.75 14.798743 16.787045 14.5 17.0625 C 14.201258 17.337956 14.198506 18.029636 14.4375 18.25 C 14.676494 18.470365 15.825275 17.94168 16.78125 18.4375 C 17.737225 18.933319 18.75 18.5625 18.75 18.5625 C 18.936831 19.648184 20.523708 20.17385 18.9375 21.96875 C 19.963657 23.893695 25.892434 23.415628 26.78125 19.34375 C 26.68323 19.35666 25.686556 19.162076 25.3125 17.34375 C 25.006199 15.854787 24.719779 14.586205 24.34375 13.59375 C 24.907844 13.601781 25.525584 13.59375 25.875 13.59375 C 26.830545 13.59375 27.59375 13.56701 27.59375 13.5 L 27.59375 13.28125 C 27.59375 13.21424 26.830545 13.1875 25.875 13.1875 C 25.606252 13.1875 24.902916 13.189661 24.1875 13.1875 C 24.101477 12.993118 24.002898 12.823563 23.90625 12.65625 L 27.4375 12.65625 C 28.420346 12.65625 29.21875 12.598261 29.21875 12.53125 L 29.21875 12.3125 C 29.21875 12.2455 28.420346 12.1875 27.4375 12.1875 L 23.5625 12.1875 C 23.389676 11.971586 23.211246 11.766808 23 11.625 C 23.395854 11.632295 23.724708 11.65625 24.1875 11.65625 L 29.46875 11.65625 C 31.197832 11.65625 32.59375 11.62059 32.59375 11.53125 L 32.59375 11.375 C 32.59375 11.28566 31.197832 11.21875 29.46875 11.21875 L 24.1875 11.21875 z M 20.5 13.9375 C 21.079899 13.9375 21.5625 14.626516 21.5625 15.46875 C 21.5625 16.310984 21.079899 17 20.5 17 C 20.327473 17 20.176406 16.92036 20.03125 16.8125 C 20.09283 16.82781 20.153028 16.84375 20.21875 16.84375 C 20.701999 16.84375 21.09375 16.413478 21.09375 15.875 C 21.09375 15.336522 20.701999 14.90625 20.21875 14.90625 C 19.87941 14.90625 19.582643 15.122852 19.4375 15.4375 C 19.44967 14.610049 19.927546 13.9375 20.5 13.9375 z M 18.03125 16.09375 C 18.098947 16.082142 18.141747 16.073191 18.125 16.09375 C 17.781891 16.51496 18.686125 17.132006 18.8125 17.0625 C 17.352942 16.841021 15.938356 17.09689 14.84375 17.40625 C 15.28125 16.96875 17.557371 16.175009 18.03125 16.09375 z M 37.59375 23.1875 C 34.445727 23.1875 31.875 25.758227 31.875 28.90625 C 31.875 32.054273 34.445727 34.59375 37.59375 34.59375 C 40.741773 34.59375 43.28125 32.054273 43.28125 28.90625 C 43.28125 25.758227 40.741773 23.1875 37.59375 23.1875 z M 37.625 24.21875 C 38.292291 24.163565 39.246311 24.406456 40.15625 24.9375 C 41.612153 25.78717 42.464371 27.030147 42.0625 27.71875 C 41.660629 28.407353 40.143403 28.28717 38.6875 27.4375 C 37.231597 26.58783 36.379379 25.344853 36.78125 24.65625 C 36.931952 24.398024 37.224625 24.251861 37.625 24.21875 z M 12.78125 24.5 C 10.075055 24.5 7.875 26.700055 7.875 29.40625 C 7.875 32.112445 10.075055 34.3125 12.78125 34.3125 C 15.487445 34.3125 17.6875 32.112445 17.6875 29.40625 C 17.6875 26.700055 15.487445 24.5 12.78125 24.5 z M 12.53125 25.28125 C 13.103234 25.233947 13.907524 25.451053 14.6875 25.90625 C 15.935462 26.634565 16.688223 27.690998 16.34375 28.28125 C 15.999277 28.871502 14.685462 28.759565 13.4375 28.03125 C 12.189538 27.302935 11.468027 26.246502 11.8125 25.65625 C 11.941677 25.434905 12.188059 25.309632 12.53125 25.28125 z M 19.3125 31.15625 L 30.125 31.1875 L 30.46875 32.03125 L 18.96875 31.96875 L 19.3125 31.15625 z "
 />
</defs>
<acyl-settings>
<linearGradient
     id="linearGradient4321">
    <stop
       style="stop-color:#FFFFFF;stop-opacity:1.0;"
       offset="1.0"
       id="stop1" />
  </linearGradient>
<linearGradient
     inkscape:collect="always"
     xlink:href="#linearGradient4321"
     id="acyl_gradient"
     x1="50.0%"
     y1="0.0%"
     x2="50.0%"
     y2="100.0%" />
<filter>
    </filter>
<use id="1" style="fill:url(#acyl_gradient);filter:url(#filter1111)" xlink:href="#path-main" />
</acyl-settings>
</svg>
