<svg xmlns="http://www.w3.org/2000/svg" width="48" height="48">
<defs>
  <path
     d="M 24.6875 3.78125 C 22.86865 3.793318 21.343243 5.3376373 21.375 7.15625 L 21.375 22.625 L 21.375 22.65625 C 21.32318 24.493346 22.846203 26.09375 24.6875 26.09375 C 26.528797 26.09375 28.083073 24.493346 28.03125 22.65625 C 28.030948 22.64555 28.03166 22.63572 28.03125 22.625 L 28.03125 7.15625 C 28.06325 5.3230164 26.520985 3.7712074 24.6875 3.78125 z M 16.5 10.28125 C 16.012447 10.29526 15.525663 10.429103 15.09375 10.65625 C 7.0392447 14.876206 4.549539 23.55305 6.6875 30.75 C 8.8224635 37.93686 15.50084 44.03125 24.625 44.03125 C 33.609129 44.03125 40.420519 38.278728 42.6875 31.1875 C 44.955773 24.092232 42.446736 15.485473 34.28125 10.75 C 34.27265 10.7447 34.25862 10.7552 34.25 10.75 C 32.741174 9.8377692 30.691329 10.342682 29.8125 11.875 C 28.93619 13.402924 29.523208 15.403936 31.0625 16.25 L 31.0625 16.28125 C 31.0698 16.28525 31.08637 16.27735 31.09375 16.28125 C 36.992471 19.697366 38.057445 24.671493 36.59375 29.25 C 35.134776 33.81374 30.928155 37.625 24.625 37.625 C 18.298484 37.625 14.220073 33.644517 12.8125 28.90625 C 11.400405 24.152761 12.583402 19.183137 18.0625 16.3125 C 19.370692 15.632344 20.054179 14.115619 19.6875 12.6875 C 19.323375 11.269328 17.99305 10.261703 16.53125 10.28125 C 16.521 10.281387 16.51027 10.281012 16.5 10.28125 z "
     id="path-main" />
</defs>
<acyl-settings>
<linearGradient
     id="linearGradient4321">
    <stop
       style="stop-color:#FFFFFF;stop-opacity:1.0;"
       offset="1.0"
       id="stop1" />
  </linearGradient>
<linearGradient
     inkscape:collect="always"
     xlink:href="#linearGradient4321"
     id="acyl_gradient"
     x1="50.0%"
     y1="0.0%"
     x2="50.0%"
     y2="100.0%" />
<filter>
    </filter>
<use id="1" style="fill:url(#acyl_gradient);filter:url(#filter1111)" xlink:href="#path-main" />
</acyl-settings>
</svg>
