<svg xmlns="http://www.w3.org/2000/svg" width="48" height="48">
<defs>
  <defs
     id="defs6">
  </defs>
  <path
     d="M 28.204348,2.001249 C 18.858279,2.025 7.737288,2.3700248 7.737288,2.3700248 L 4.581,16.31843 l 2.917668,7.462288 11.833367,0 c 0,0 -1.05265,11.90866 -1.214791,18.070017 -0.162141,6.161362 11.862822,4.741951 11.670671,0.412162 l -0.813476,-18.33033 11.269357,-0.151849 3.243058,-7.223668 c 0,0 -1.859162,-9.8845871 -3.156288,-14.1002544 C 38.780094,2.0919782 33.81199,1.9869984 28.204348,2.001249 z m 11.356128,1.0179918 c 0,0 -20.865645,0.4602416 -24.935757,0.9761714 C 10.554608,4.511342 8.036326,5.2489298 8.036326,5.1342788 L 8.461645,3.1385506 c 0,0 22.729305,-0.9791927 31.098831,-0.1193098 z M 32.228344,4.333214 c 0,0 -1.777309,1.4395799 -2.40789,2.7007409 -0.630581,1.2611619 -2.406397,2.6868009 -3.036978,2.7441259 0,1.0891852 -0.283643,3.2771992 -1.258176,3.8504542 -0.974534,0.573255 -0.867708,1.713723 -0.867708,1.713723 0,0 -3.666066,-2.124609 -3.666066,-5.162862 C 17.895948,8.6889328 17.265004,7.6071739 16.978377,6.63264 16.691749,5.6581061 16.008357,4.9700186 15.492427,4.6260654 c 2.464997,-0.057326 4.868663,-0.6863049 7.104359,0.5748565 -0.286628,0.745232 -0.629089,1.0846349 -0.629089,1.0846349 0,0 -1.831685,-0.6848485 -4.06738,-0.4555466 0.974533,0.8025573 0.854312,3.6645006 6.930817,3.4925246 l 0,1.2039442 -2.516353,-0.108463 c 0,0 0.04964,1.718418 0.737551,2.234348 0.687906,0.51593 1.269023,0.911093 1.269023,0.911093 0,0 1.600601,-1.892032 1.48595,-3.210519 C 25.692654,9.0344508 25.29436,8.4098038 24.549129,7.4352698 25.007733,6.460736 25.28668,6.5675619 25.28668,6.5675619 c 0,0 1.434812,1.2675665 1.377487,2.2994259 C 27.753351,7.5485009 29.076715,6.1708333 29.191366,5.482927 27.872879,5.2536251 25.351613,5.3157183 23.746499,6.8061816 22.141384,8.2966448 22.369012,8.8127558 22.369012,8.8127558 l -1.258176,-0.520624 c 0,0 1.596124,-2.9254572 3.373214,-3.3840613 C 26.261142,4.4494664 32.228344,4.333214 32.228344,4.333214 z M 11.218966,7.0014159 c 0.930979,-0.033591 1.923006,0.1728314 3.069516,0.8894006 1.834417,1.1465103 2.516353,-0.054232 2.516353,-0.054232 0,0 0.692674,0.5703071 1.323255,1.6594911 -1.146511,1.0318604 -5.844835,0.06202 -8.08053,0.5206254 -2.235695,0.458604 -1.609701,2.350564 0.68332,2.40789 2.29302,0.05733 1.609737,-1.379016 -0.282005,-1.149713 2.923601,-2.0637194 3.780717,-0.404337 3.666066,0.455546 -0.114652,0.859883 -2.237515,1.898111 -2.982746,1.898111 -0.745232,0 -3.329865,-0.409212 -3.731144,-2.071652 C 6.999772,9.8944426 9.692978,8.9754516 12.444603,8.9754516 11.355418,7.3130115 9.581167,7.2617282 9.581167,7.2617282 10.118594,7.1327459 10.660378,7.0215693 11.218966,7.0014159 z m 25.065912,0 c 0.118463,-0.00383 0.230711,-0.0042 0.347083,0 0.558589,0.020152 1.089526,0.13133 1.626953,0.2603123 0,0 -1.774252,0.051283 -2.863436,1.7137236 2.751626,0 5.444832,0.918991 5.043552,2.5814312 -0.401277,1.66244 -2.975069,2.071652 -3.720298,2.071652 -0.745232,0 -2.868095,-1.038228 -2.982746,-1.898111 -0.114651,-0.859883 0.742465,-2.5192652 3.666066,-0.455546 -1.891741,-0.229303 -2.575024,1.207038 -0.282005,1.149713 2.293022,-0.05733 2.919015,-1.949286 0.68332,-2.40789 -2.235696,-0.4586042 -6.93402,0.511235 -8.08053,-0.5206252 0.630581,-1.089184 1.323255,-1.6594911 1.323255,-1.6594911 0,0 0.681936,1.2007421 2.516353,0.054232 1.003196,-0.6269981 1.893194,-0.8625957 2.722433,-0.8894006 z M 6.4671565,12.185417 c 0,0 -0.3270936,1.959121 2.9404685,2.245748 3.267555,0.286628 15.82697,1.371299 22.419404,1.48595 l -26.2590112,0 0.8991387,-3.731698 z m 27.8653785,2.343365 1.735416,1.507643 -3.644373,3.156287 1.908957,-4.66393 z m 7.353825,3.080363 c 0.01121,0.0059 -0.0058,0.04194 -0.04339,0.09762 l 0.04339,-0.09762 z m -0.05423,0.108464 -2.266887,4.729008 -9.371245,0.08677 c 0,0 6.058776,-0.08554 7.993759,-1.431718 1.69311,-1.177907 3.327261,-2.929563 3.644373,-3.384061 z M 6.3706476,17.826072 c 0.2962566,0.500031 1.7477764,2.258852 3.5033704,3.362369 2.006393,1.261161 9.165165,1.605259 9.165165,1.605259 L 8.377222,22.565927 6.3706476,17.826072 z m 17.5927784,0.574857 c 1.177885,-0.02343 2.418339,0.532896 3.839607,2.28858 0.08107,5.269583 1.519914,20.979924 1.540182,21.486617 0.02027,0.506689 -1.09849,3.126598 -5.152016,3.167134 -4.053526,0.04054 -5.303865,-2.109179 -5.303865,-3.568449 0,-1.45927 1.545328,-20.918015 1.464257,-21.161227 0,0 1.363145,-2.167921 3.611835,-2.212655 z m 0.151849,0.911093 c -1.702481,0.08107 -3.080364,1.626953 -3.080364,1.626953 l -0.347083,5.954645 c 0,0 0.664873,-1.411688 2.40789,-1.898111 -1.698517,1.710283 -2.418736,4.403618 -2.418736,4.403618 0,0 -0.733752,4.105858 1.171406,7.429749 0,0 1.01544,-3.244167 2.190962,-3.568449 0,0 -1.135304,3.643502 3.080363,6.562041 0,0 -4.938506,-1.737942 -7.549059,1.138867 0.648564,2.269976 1.64488,3.568449 4.381925,3.568449 2.737045,0 4.788941,-2.4375 4.870011,-3.167134 0.08107,-0.729635 -1.540182,-20.423675 -1.540182,-20.423675 0,0 -1.707864,-1.626953 -3.167133,-1.626953 z"
     id="path-main"/>
</defs>
<acyl-settings>
<linearGradient
     id="linearGradient4321">
    <stop
       style="stop-color:#FFFFFF;stop-opacity:1.0;"
       offset="1.0"
       id="stop1" />
  </linearGradient>
<linearGradient
     inkscape:collect="always"
     xlink:href="#linearGradient4321"
     id="acyl_gradient"
     x1="50.0%"
     y1="0.0%"
     x2="50.0%"
     y2="100.0%" />
<filter>
    </filter>
<use id="1" style="fill:url(#acyl_gradient);filter:url(#filter1111)" xlink:href="#path-main" />
</acyl-settings>
</svg>
