<svg xmlns="http://www.w3.org/2000/svg" width="48" height="48">
<defs>
<defs
     id="defs2385">
  </defs>
  <path
     id="path-main"
     d="M 6.3513032,9.2193327 C 5.3241293,10.323423 5.2662162,12.614536 6.2670192,13.742585 7.3403825,14.952421 12.335398,13.369237 14.859872,13.426936 8.5335608,19.39387 2.5541163,26.54599 2.7832718,28.211375 3.0216122,29.943511 5.3420237,31.391861 7.0817664,31.217512 8.0230253,31.123181 12.267753,23.60195 21.113431,13.544275 24.60804,13.318988 30.717005,13.891007 31.552281,12.618796 32.48943,11.191424 33.004259,9.0237033 32.170366,7.5336491 31.467336,6.2774297 7.2962647,8.2036109 6.3513032,9.2193327 z M 36.440766,16.074449 c -6.04988,0.09603 -16.82314,1.700479 -17.755873,2.921852 -0.987687,1.293334 0.191146,3.695475 1.01141,4.136533 0.883705,0.47517 5.486728,-0.884974 5.486728,-0.884974 -5.408925,5.120556 -13.78026,14.332334 -13.493728,15.965242 0.306914,1.749057 2.448187,3.444889 4.214211,3.258989 1.258608,-0.132488 4.550928,-6.089499 7.220346,-8.990316 0,0 10.539815,10.10626 12.249306,9.55221 1.781472,-0.57738 2.166397,-2.457005 1.746009,-3.537448 -0.41746,-1.072916 -6.606399,-5.986668 -6.606399,-5.986668 18.511348,-1.878785 19.372273,-15.591986 5.92799,-16.43542 z m -2.753285,4.2704 c 13.658923,-0.230585 4.617042,7.865691 -5.956084,6.658452 2.53544,-3.2814 5.956084,-6.658452 5.956084,-6.658452 z"
    />
</defs>
<acyl-settings>
<linearGradient
     id="linearGradient4321">
    <stop
       style="stop-color:#FFFFFF;stop-opacity:1.0;"
       offset="1.0"
       id="stop1" />
  </linearGradient>
<linearGradient
     inkscape:collect="always"
     xlink:href="#linearGradient4321"
     id="acyl_gradient"
     x1="50.0%"
     y1="0.0%"
     x2="50.0%"
     y2="100.0%" />
<filter>
    </filter>
<use id="1" style="fill:url(#acyl_gradient);filter:url(#filter1111)" xlink:href="#path-main" />
</acyl-settings>
</svg>
