<svg xmlns="http://www.w3.org/2000/svg" width="48" height="48">
<defs>
<defs
     id="defs4">
  </defs>
  <path
     id="path-main"
     d="m 9.9189463,1.9999997 c -1.3296828,0 -2.4047955,1.0751153 -2.4047955,2.4047955 l 0,39.2059238 C 7.5141508,44.940401 8.5892635,46 9.9189463,46 l 29.6488017,0 c 1.329681,0 2.404795,-1.059599 2.404795,-2.389281 l 0.04655,-29.974612 -11.682652,-11.6361073 -20.4174897,0 z m 10.3328637,8.2383643 7.29196,0 0,10.146685 5.073343,0.01552 -8.641749,12.303244 -8.517631,-12.380818 4.794077,0.01552 0,-10.100141 z m 13.854725,28.842031 c 0.608955,4e-6 1.09379,0.211394 1.458392,0.620592 0.364595,0.407267 0.543014,0.942528 0.543018,1.629055 -2e-6,0.684593 -0.178424,1.235366 -0.543018,1.64457 -0.3646,0.407263 -0.849439,0.620592 -1.458392,0.620592 -0.610896,0 -1.091856,-0.213329 -1.458393,-0.620592 -0.364596,-0.407262 -0.558533,-0.958036 -0.558533,-1.64457 2e-6,-0.686527 0.193935,-1.221788 0.558533,-1.629055 0.366539,-0.409198 0.847495,-0.620588 1.458393,-0.620592 z m -9.495064,0.07757 1.504937,0 c 0.447989,4e-6 0.79707,0.09309 1.039492,0.279267 0.242417,0.186181 0.356837,0.447993 0.35684,0.791255 -1e-6,0.265694 -0.06206,0.479022 -0.186177,0.636107 -0.12412,0.15709 -0.302542,0.255997 -0.543019,0.294781 0.288963,0.06206 0.508107,0.190059 0.667137,0.387871 0.160965,0.195876 0.248234,0.449929 0.248237,0.74471 -2e-6,0.387871 -0.124122,0.688471 -0.38787,0.899859 -0.263753,0.211389 -0.645807,0.310297 -1.132581,0.310297 l -1.566996,0 0,-4.344147 z m 3.490832,0 3.67701,0 0,0.496474 -1.551481,0 0,3.847673 -0.589563,0 0,-3.847673 -1.535966,0 0,-0.496474 z m 8.936531,0 1.318758,0 c 0.496474,4e-6 0.872706,0.10279 1.117067,0.310296 0.244357,0.207514 0.356837,0.527507 0.35684,0.946404 -10e-7,0.273451 -0.05818,0.502294 -0.186177,0.682651 -0.12606,0.180362 -0.316118,0.302541 -0.558534,0.372356 0.126057,0.04267 0.254053,0.12412 0.372356,0.263751 0.120238,0.139634 0.236598,0.345209 0.356841,0.589563 l 0.605077,1.179126 -0.636107,0 -0.558533,-1.117067 c -0.143513,-0.290899 -0.283148,-0.479018 -0.4189,-0.574048 -0.133816,-0.09503 -0.310298,-0.139631 -0.543018,-0.139633 l -0.636108,0 0,1.830748 -0.589562,0 0,-4.344147 z m -2.932299,0.403385 c -0.426658,4e-6 -0.771864,0.162909 -1.023978,0.480959 -0.250176,0.318057 -0.372356,0.738896 -0.372355,1.287729 10e-7,0.546901 0.122178,0.985193 0.372355,1.303244 0.252116,0.318056 0.597318,0.480959 1.023978,0.480959 0.426656,0 0.760222,-0.162903 1.008462,-0.480959 0.250175,-0.318051 0.387866,-0.756343 0.38787,-1.303244 -2e-6,-0.548833 -0.137697,-0.969672 -0.38787,-1.287729 -0.248238,-0.31805 -0.581808,-0.480955 -1.008462,-0.480959 z m -8.905501,0.07757 0,1.318759 0.868829,0 c 0.287024,2e-6 0.511986,-0.064 0.651622,-0.170663 0.141572,-0.108601 0.20169,-0.275385 0.201693,-0.496474 -1e-6,-0.219143 -0.06012,-0.372352 -0.201693,-0.480959 -0.139634,-0.1086 -0.3646,-0.170659 -0.651622,-0.170663 l -0.868829,0 z m 12.427362,0 0,1.551481 0.729196,0 c 0.283145,2e-6 0.492593,-0.07175 0.636108,-0.201693 0.14545,-0.131873 0.232719,-0.31999 0.232722,-0.574047 -10e-7,-0.254052 -0.08727,-0.446048 -0.232722,-0.574048 -0.143513,-0.129933 -0.352965,-0.201689 -0.636108,-0.201693 l -0.729196,0 z m -12.427362,1.784203 0,1.598026 0.946403,0 c 0.316114,0 0.546895,-0.07176 0.698167,-0.201693 0.153208,-0.131873 0.232719,-0.319992 0.232722,-0.589563 -1e-6,-0.271506 -0.07952,-0.477078 -0.232722,-0.605077 -0.151271,-0.129935 -0.382055,-0.201691 -0.698167,-0.201693 l -0.946403,0 z" />
</defs>
<acyl-settings>
<linearGradient
     id="linearGradient4321">
    <stop
       style="stop-color:#FFFFFF;stop-opacity:1.0;"
       offset="1.0"
       id="stop1" />
  </linearGradient>
<linearGradient
     inkscape:collect="always"
     xlink:href="#linearGradient4321"
     id="acyl_gradient"
     x1="50.0%"
     y1="0.0%"
     x2="50.0%"
     y2="100.0%" />
<filter>
    </filter>
<use id="1" style="fill:url(#acyl_gradient);filter:url(#filter1111)" xlink:href="#path-main" />
</acyl-settings>
</svg>
