<svg xmlns="http://www.w3.org/2000/svg" width="48" height="48">
<defs>
<defs
     id="defs3">
  </defs>
  <path
     id="path-main"
     d="m 28.417332,2.3030281 c -9.711053,0 -17.61212,7.8820939 -17.61212,17.5698269 0,4.31388 1.586616,8.25685 4.182142,11.311678 l -4.182142,1.292764 -8.2464781,7.668436 c -0.5864158,0.546007 -1.0897131,3.290669 0.5595824,4.936005 1.9437135,1.939046 4.4173942,1.125259 4.9478866,0.558239 l 7.6868951,-8.226675 1.295875,-4.1721 c 3.072454,2.596703 7.031164,4.1721 11.368359,4.1721 C 38.128384,37.413303 46,29.560588 46,19.872855 45.999999,10.185122 38.128384,2.3030281 28.417332,2.3030281 z m 0,4.4071474 c 7.283289,0 13.194364,5.8968805 13.194364,13.1626795 0,7.2658 -5.911076,13.162679 -13.194364,13.16268 -7.283289,0 -13.194364,-5.89688 -13.194364,-13.16268 0,-7.265799 5.911074,-13.1626794 13.194364,-13.1626795 z" />
</defs>
<acyl-settings>
<linearGradient
     id="linearGradient4321">
    <stop
       style="stop-color:#FFFFFF;stop-opacity:1.0;"
       offset="1.0"
       id="stop1" />
  </linearGradient>
<linearGradient
     inkscape:collect="always"
     xlink:href="#linearGradient4321"
     id="acyl_gradient"
     x1="50.0%"
     y1="0.0%"
     x2="50.0%"
     y2="100.0%" />
<filter>
    </filter>
<use id="1" style="fill:url(#acyl_gradient);filter:url(#filter1111)" xlink:href="#path-main" />
</acyl-settings>
</svg>
