<svg xmlns="http://www.w3.org/2000/svg" width="48" height="48">
<defs>
  <path
     d="m 35.165328,3.7544694 c -2.777447,0 -5.568984,1.0688293 -7.687756,3.1876053 -4.237556,4.2375533 -4.237556,11.1067083 0,15.3442603 4.237548,4.23755 11.106715,4.23755 15.34426,0 4.237557,-4.237552 4.237557,-11.106707 0,-15.3442603 -2.118773,-2.118776 -4.879057,-3.1876053 -7.656504,-3.1876053 z m -2.000067,4.3126426 3.968882,0 0,4.562652 4.562652,0 0,3.968881 -4.562652,0 0,4.562652 -3.968882,0 0,-4.562652 -4.562652,0 0,-3.968881 4.562652,0 0,-4.562652 z M 6.6643799,16.098629 c -0.8593376,0 -1.3876562,0.715306 -1.531301,1.562552 L 2.0079751,32.911688 c -0.096813,0.85388 0.7032153,1.531301 1.562552,1.531301 l 34.0636329,0 c 0.85934,0 1.627641,-0.677368 1.531301,-1.531301 l -1.281293,-6.281459 c -4.001449,0.902223 -8.364484,-0.176709 -11.469131,-3.281358 -2.02498,-2.024979 -3.17995,-4.601892 -3.500117,-7.250242 l -16.2505401,0 z M 3.5705271,36.005541 c -0.8593507,0 -1.562552,0.703203 -1.562552,1.562552 l 0,3.156355 c 0,0.859351 0.7032013,1.562552 1.562552,1.562552 l 34.0636329,0 c 0.859352,0 1.531301,-0.703201 1.531301,-1.562552 l 0,-3.156355 c 0,-0.859349 -0.671949,-1.562552 -1.531301,-1.562552 l -34.0636329,0 z m 1.5000498,1.875063 3.8126267,0 c 0.2868076,0 0.5312677,0.24446 0.5312677,0.531267 l 0,1.468798 c 0,0.286808 -0.2444601,0.531268 -0.5312677,0.531268 l -3.8126267,0 c -0.2868076,0 -0.5000166,-0.24446 -0.5000166,-0.531268 l 0,-1.468798 c 0,-0.286807 0.213209,-0.531267 0.5000166,-0.531267 z"
     id="path-main"
      />
</defs>
<acyl-settings>
<linearGradient
     id="linearGradient4321">
    <stop
       style="stop-color:#FFFFFF;stop-opacity:1.0;"
       offset="1.0"
       id="stop1" />
  </linearGradient>
<linearGradient
     inkscape:collect="always"
     xlink:href="#linearGradient4321"
     id="acyl_gradient"
     x1="50.0%"
     y1="0.0%"
     x2="50.0%"
     y2="100.0%" />
<filter>
    </filter>
<use id="1" style="fill:url(#acyl_gradient);filter:url(#filter1111)" xlink:href="#path-main" />
</acyl-settings>
</svg>
