<svg xmlns="http://www.w3.org/2000/svg" width="48" height="48">
<defs>
  <path
     d="m 30.085051,2.548699 c -1.723411,0 -3.115549,1.385616 -3.115256,3.10332 -2.93e-4,1.717705 1.391849,3.115257 3.115256,3.115257 1.723407,0 3.127487,-1.397552 3.127193,-3.115257 2.97e-4,-1.717704 -1.403783,-3.10332 -3.127193,-3.10332 z m -9.262218,3.10332 c -1.553192,0.114452 -3.037792,0.507072 -4.416264,1.074227 l 2.792989,4.762403 c 0.713024,-0.225415 1.451283,-0.354396 2.232003,-0.393883 0.152821,-0.0077 0.310758,0 0.465498,0 4.281071,0 7.857464,2.993959 8.748977,6.994407 l 5.562105,0 c -0.394761,-2.908088 -1.686533,-5.539005 -3.556882,-7.627007 -0.768151,0.411278 -1.633736,0.6326 -2.566208,0.6326 -2.927703,0 -5.331985,-2.295139 -5.466618,-5.180158 -0.881124,-0.167793 -1.791785,-0.262589 -2.721374,-0.262589 -0.186694,0 -0.375999,-0.007 -0.560985,0 -0.06021,0.0023 -0.107077,-0.0031 -0.167101,0 -0.05655,0.0029 -0.110694,-0.0035 -0.167102,0 -0.05464,0.0034 -0.124541,-0.004 -0.179038,0 z m -7.770237,3.007834 c -2.240084,1.738354 -3.9480073,4.132163 -4.8578913,6.875049 1.437239,0.980604 2.3752343,2.634008 2.3752343,4.499815 0,1.865803 -0.9379953,3.507275 -2.3752343,4.487879 0.909579,2.743554 2.6170293,5.138414 4.8578913,6.875044 l 2.769117,-4.78627 c -1.781258,-1.634004 -2.888476,-3.976005 -2.888476,-6.576653 0,-2.599708 1.109385,-4.950519 2.888476,-6.588589 L 13.052596,8.659853 z M 5.139128,16.91946 c -1.7234101,0 -3.1394251,1.397551 -3.139128,3.115257 -2.971e-4,1.717703 1.4157179,3.103319 3.139128,3.10332 1.7234097,0 3.1036177,-1.385617 3.1033207,-3.10332 2.97e-4,-1.717705 -1.379911,-3.115257 -3.1033207,-3.115257 z m 20.016418,0.77583 c -1.683881,-0.0012 -3.359017,0.637643 -4.643045,1.921672 -0.07868,0.07868 -0.164772,0.157222 -0.238717,0.238717 l 5.34726,2.160388 c 1.086791,0.43857 1.608283,1.658454 1.169713,2.745246 l -0.501306,1.265197 c -0.438569,1.08679 -1.67039,1.60828 -2.75718,1.16972 l -4.881762,-1.969419 c 0.198828,1.351579 0.822409,2.648599 1.861992,3.688179 1.736525,1.73652 4.200555,2.29491 6.40955,1.68295 l 13.618803,13.61881 c 1.167124,1.16712 3.046239,1.16711 4.213355,0 l 0.28646,-0.28646 c 1.167116,-1.16712 1.167124,-3.04624 0,-4.21336 L 31.46961,26.13394 c 0.662075,-2.236896 0.106453,-4.75144 -1.659083,-6.516978 -1.284029,-1.284028 -2.971101,-1.920499 -4.654981,-1.921672 z m 18.166361,2.506529 c -0.683361,-0.001 -1.373639,0.263606 -1.8978,0.787765 l -6.719882,6.719886 1.038418,1.03842 7.042151,-7.042155 c 0.109962,-0.109963 0.283916,-0.109963 0.393883,0 0.109962,0.109964 0.109962,0.28392 0,0.393883 l -7.042151,7.042152 0.930997,0.91906 7.030214,-7.030215 c 0.109963,-0.109964 0.295853,-0.109966 0.405819,0 0.109963,0.109963 0.109963,0.283919 0,0.393883 l -7.04215,7.042152 1.026482,1.02648 6.731819,-6.719882 c 1.048319,-1.048317 1.036368,-2.735345 -0.01192,-3.783664 C 44.68363,20.465426 44.00528,20.202849 43.321923,20.201819 z M 32.328991,21.98026 c 0.375964,1.231071 0.439616,2.545296 0.179037,3.80754 l 1.384559,1.38455 c 0.03448,-0.0555 0.07453,-0.10759 0.119358,-0.15516 l 1.002612,-1.00261 c 0.583197,-1.259641 1.00036,-2.610895 1.193584,-4.03432 l -3.87915,0 z m -13.248792,6.77956 -2.67363,4.5595 c 1.692789,0.69652 3.54579,1.09809 5.49049,1.09809 0.929593,0 1.840253,-0.10673 2.721374,-0.27452 0.04223,-0.86004 0.291826,-1.66368 0.692279,-2.37523 -1.984282,0.0532 -3.980049,-0.64995 -5.49049,-2.16039 -0.268927,-0.26893 -0.520579,-0.55042 -0.740023,-0.84745 z m 10.563226,6.27826 -3.151064,3.163 -2.064902,0.39388 -3.330102,5.34726 1.157778,1.15778 5.34726,-3.31817 0.393883,-2.0649 3.163,-3.163 -1.515853,-1.51585 z M 42.6535,40.23017 c 0.407529,0 0.81103,0.15456 1.121969,0.4655 0.621868,0.62187 0.621868,1.634 0,2.25588 -0.621878,0.62187 -1.634004,0.62186 -2.255875,0 -0.621875,-0.62188 -0.621875,-1.63401 0,-2.25588 0.310935,-0.31094 0.726376,-0.4655 1.133906,-0.4655 z"
     id="path-main"
      />
</defs>
<acyl-settings>
<linearGradient
     id="linearGradient4321">
    <stop
       style="stop-color:#FFFFFF;stop-opacity:1.0;"
       offset="1.0"
       id="stop1" />
  </linearGradient>
<linearGradient
     inkscape:collect="always"
     xlink:href="#linearGradient4321"
     id="acyl_gradient"
     x1="50.0%"
     y1="0.0%"
     x2="50.0%"
     y2="100.0%" />
<filter>
    </filter>
<use id="1" style="fill:url(#acyl_gradient);filter:url(#filter1111)" xlink:href="#path-main" />
</acyl-settings>
</svg>
