<svg xmlns="http://www.w3.org/2000/svg" width="48" height="48">
<defs>
<defs
     id="defs2385">
  </defs>
  <path
     id="path-main"
     d="m 23.968965,2.0162823 c -0.02059,0.00856 -0.04056,0.018537 -0.05975,0.029877 L 5.3855171,10.023299 c -0.020874,0.0085 -0.04061,0.0187 -0.059754,0.02988 -0.01966,0.01098 -0.041992,0.01637 -0.059754,0.02988 -0.067565,0.0532 -0.1184909,0.128782 -0.1493846,0.209139 -0.00671,0.01723 0.0047,0.04168 0,0.05975 -0.00554,0.02178 -0.027441,0.03702 -0.029877,0.05975 -0.0011,0.01027 4.338e-4,0.01964 0,0.02988 -0.00114,0.02007 -0.00144,0.03919 0,0.05975 L 5.684286,30.2201 c 0.00225,0.155814 0.080292,0.300755 0.2091385,0.3884 l 6.9015695,5.019323 c -4.78e-4,0.107022 -0.0039,0.213398 0,0.328646 0.195584,5.734779 5.516033,10.212287 11.801386,10.038647 6.218063,-0.171779 11.168142,-4.8344 11.08434,-10.486801 L 41.745736,30.9969 c 0.109387,-0.08748 0.174911,-0.218526 0.179261,-0.358523 l 1.404216,-19.92791 c 0.0072,-0.05323 -0.01957,-0.09799 -0.02988,-0.149385 -0.004,-0.01839 0.006,-0.04212 0,-0.05975 -0.0143,-0.04237 -0.03401,-0.08243 -0.05975,-0.119507 -0.03071,-0.04429 -0.0752,-0.05768 -0.119508,-0.08963 -0.03397,-0.02542 -0.05066,-0.07415 -0.08963,-0.08963 L 24.297611,2.0461592 c -0.10253,-0.048651 -0.219024,-0.059241 -0.328646,-0.029877 z M 24.148226,3.0022209 41.835366,10.740345 24.327488,21.6753 6.6104711,10.531206 24.148226,3.0022209 z M 24.20798,4.3168056 10.673733,10.680591 24.327488,18.807115 37.861735,10.59096 24.20798,4.3168056 z M 6.0726864,11.337883 23.849457,22.511854 l 0,19.957786 -10.128278,-7.349724 c -0.03551,-0.08201 -0.1022,-0.15706 -0.179262,-0.209138 -0.05908,-0.03993 -0.14135,-0.04902 -0.209138,-0.05975 L 6.640348,29.981085 6.0726864,11.337883 z m 36.2407106,0.239016 -1.284708,18.762709 -16.22317,12.100155 0,-19.957786 17.507878,-10.905078 z m -1.882246,3.555354 -13.564125,8.425293 -0.209138,14.400678 12.876955,-9.470985 0.896308,-13.354986 z M 8.2238251,15.311514 8.7018559,28.905516 21.698318,38.167363 21.459303,23.438038 8.2238251,15.311514 z M 34.694781,36.25524 C 34.353898,41.0132 30.045477,44.887693 24.566503,45.039056 18.9053,45.195451 14.196176,41.305847 13.780933,36.34487 l 10.247785,7.439355 c 0.06227,0.04503 0.134962,0.07809 0.209139,0.08963 0.0097,0.0016 0.02011,-0.0011 0.02988,0 0.0511,0.0047 0.09869,0.01192 0.149384,0 0.04004,-0.0083 0.08185,-0.01105 0.119508,-0.02988 0.02553,-0.01276 0.03737,-0.04307 0.05975,-0.05975 l 0.08963,-0.05975 c 0.01792,-0.02087 0.04572,-0.03621 0.05975,-0.05975 l 9.949016,-7.409477 z" />
</defs>
<acyl-settings>
<linearGradient
     id="linearGradient4321">
    <stop
       style="stop-color:#FFFFFF;stop-opacity:1.0;"
       offset="1.0"
       id="stop1" />
  </linearGradient>
<linearGradient
     inkscape:collect="always"
     xlink:href="#linearGradient4321"
     id="acyl_gradient"
     x1="50.0%"
     y1="0.0%"
     x2="50.0%"
     y2="100.0%" />
<filter>
    </filter>
<use id="1" style="fill:url(#acyl_gradient);filter:url(#filter1111)" xlink:href="#path-main" />
</acyl-settings>
</svg>
