<svg xmlns="http://www.w3.org/2000/svg" width="48" height="48">
<defs>
  <path
     d="M 5.6714584,3.5 C 3.633221,3.5 2,5.1455013 2,7.1837374 L 2,40.816264 C 2,42.854495 3.633221,44.5 5.6714584,44.5 l 36.6163526,0 c 2.038236,0 3.683737,-1.645505 3.683737,-3.683736 l 0,-33.6325266 C 45.971548,5.1455013 44.326047,3.5 42.287811,3.5 l -36.6163526,0 z m 2.026056,2.8978739 14.3665766,0 0,6.7412391 -16.6504948,0 0,-4.469602 c 0,-1.2617645 1.0221527,-2.2716371 2.2839182,-2.2716371 z m 17.5100316,0 15.066488,0 c 1.261763,0 2.283918,1.0098726 2.283918,2.2716371 l 0,4.469602 -17.350406,0 0,-6.7412391 z m -19.7939498,9.8969741 16.6504948,0 0,6.04133 -16.6504948,0 0,-6.04133 z m 19.7939498,0 17.350406,0 0,6.04133 -17.350406,0 0,-6.04133 z m -19.7939498,9.197065 16.6504948,0 0,16.110212 -14.3665766,0 c -1.2617655,0 -2.2839182,-1.009876 -2.2839182,-2.27164 l 0,-13.838572 z m 19.7939498,0 17.350406,0 0,6.041327 -17.350406,0 0,-6.041327 z m 0,9.197065 17.350406,0 0,4.641507 c 0,1.261764 -1.022155,2.27164 -2.283918,2.27164 l -15.066488,0 0,-6.913147 z"
     id="path-main"
      />
</defs>
<acyl-settings>
<linearGradient
     id="linearGradient4321">
    <stop
       style="stop-color:#FFFFFF;stop-opacity:1.0;"
       offset="1.0"
       id="stop1" />
  </linearGradient>
<linearGradient
     inkscape:collect="always"
     xlink:href="#linearGradient4321"
     id="acyl_gradient"
     x1="50.0%"
     y1="0.0%"
     x2="50.0%"
     y2="100.0%" />
<filter>
    </filter>
<use id="1" style="fill:url(#acyl_gradient);filter:url(#filter1111)" xlink:href="#path-main" />
</acyl-settings>
</svg>
