<svg xmlns="http://www.w3.org/2000/svg" width="48" height="48">
<defs>
<defs
     id="defs3">
  </defs>
  <path
     d="M 6.6979167,2 C 4.0929755,2 2,4.0929756 2,6.6979167 L 2,41.302083 C 2,43.907024 4.0929754,45.999999 6.6979167,46 L 41.302083,46 C 43.907024,46 46,43.907024 46,41.302083 L 46,6.6979167 C 46,4.0929755 43.907024,2 41.302083,2 L 6.6979167,2 z M 8.53125,7.4713542 c 0.2786563,-0.013151 0.4583334,0.057292 0.4583333,0.057292 l 10.5130207,0 c 0,0 1.375,0.5275622 1.375,1.7473962 0,1.2198326 -1.03125,2.0338536 -1.03125,2.0338536 l -6.388021,0 4.440105,4.296875 5.414062,0 0,3.809896 -1.546875,0 c -0.01119,0 -0.01749,-1.42e-4 -0.02865,0 -1.417992,0.01784 -2.549478,1.155755 -2.549479,2.578125 l 0,1.375 -3.638021,0 -0.05729,-4.984375 c -9e-6,-0.03185 -4.010417,-4.153646 -4.010417,-4.153646 l -0.02865,5.729166 c -8e-6,0 -0.865517,1.375 -2.2057294,1.375 -1.3402166,0 -2.0625001,-1.489584 -2.0625,-1.489583 l 0,-10.3697906 c 0,-5e-6 -0.2072967,-0.934761 0.34375,-1.5468755 0.013415,-0.014687 0.043,-0.042995 0.057292,-0.057292 C 7.890896,7.5674394 8.2525937,7.4845042 8.53125,7.4713542 z m 19.908854,0.1145833 c 0,0 10.307937,0.048754 10.3125,0 0.0023,-0.024173 0.99963,0.037714 1.403646,0.3723958 0.457913,0.3793227 0.601563,1.2317707 0.601562,1.2317707 l 0,10.484375 c -4e-6,5e-6 -0.527556,1.375 -1.747395,1.375 -1.21983,0 -2.033855,-1.002604 -2.033855,-1.002604 l 0,-5.729167 -4.66927,5.041667 0,4.010417 -3.981771,0 0,-1.375 c 0,-1.43357 -1.144551,-2.578124 -2.578125,-2.578125 l -1.203125,0 0,-3.809896 5.15625,0 c 0.186226,0 0.369408,0.02027 0.544271,0.05729 l 4.46875,-4.32552 -6.588542,-0.02865 c 0,0 -1.117199,-0.607696 -1.117188,-1.947917 -4e-6,-0.523521 0.180549,-1.089858 0.458334,-1.3749998 0.433332,-0.4448176 0.973958,-0.4010418 0.973958,-0.4010417 z m -12.890625,16.9869795 3.638021,0 0,1.403645 c 0,1.433562 1.144564,2.578125 2.578125,2.578125 l 1.546875,0 0,3.78125 -5.15625,0 c -1.43355,0 -2.606775,-1.144569 -2.606771,-2.578125 l 0,-5.184895 z m 12.776042,0 3.981771,0 0,5.184895 c 8e-6,0.0849 -0.02075,0.175051 -0.02865,0.257813 l 4.583333,4.039062 0.143229,-6.273437 c 9e-6,1.3e-5 0.636342,-1.0599 1.976563,-1.059896 1.340212,-1.3e-5 1.890627,1.317708 1.890625,1.317708 l -0.08594,10.541667 c 1.3e-5,8e-6 -0.02029,0.936959 -0.630208,1.546875 -0.609909,0.60993 -1.432293,0.343751 -1.432292,0.34375 l -10.484375,0 c 0,0 -1.375,-0.527557 -1.375,-1.747396 0,-1.219834 1.002604,-2.033855 1.002604,-2.033854 l 6.817709,0 -4.955729,-4.354167 -5.184896,0 0,-3.78125 1.203125,0 c 1.433578,9e-6 2.578121,-1.144563 2.578125,-2.578125 l 0,-1.403645 z"
     id="path-main"
      />
</defs>
<acyl-settings>
<linearGradient
     id="linearGradient4321">
    <stop
       style="stop-color:#FFFFFF;stop-opacity:1.0;"
       offset="1.0"
       id="stop1" />
  </linearGradient>
<linearGradient
     inkscape:collect="always"
     xlink:href="#linearGradient4321"
     id="acyl_gradient"
     x1="50.0%"
     y1="0.0%"
     x2="50.0%"
     y2="100.0%" />
<filter>
    </filter>
<use id="1" style="fill:url(#acyl_gradient);filter:url(#filter1111)" xlink:href="#path-main" />
</acyl-settings>
</svg>
