<svg xmlns="http://www.w3.org/2000/svg" width="48" height="48">
<defs>
<defs
     id="defs7727" />
  <g
     id="layer1"
     inkscape:label="Layer 1"
     inkscape:groupmode="layer">
    <path
         d="M 4.167212,2.9144344 C 4.0339381,2.9423362 3.9307161,3.0023538 3.8360867,3.0950481 L 2.2105628,4.6904698 C 1.8320451,5.0612473 1.9766239,5.8029439 2.5416881,6.3761983 l 5.2679016,5.3281057 c 0.00563,0.164751 0.022653,0.392564 0.030102,0.571944 l -2.5887974,2.528593 -0.3311253,0.361227 0.2408184,0.39133 3.1005364,4.756163 0.4816367,0.752557 c 0.5754158,3.408432 1.4904205,7.063197 2.9500255,10.264883 0.303899,0.666613 0.625457,1.301043 0.963273,1.926547 l -4.1541169,4.214321 -0.090307,0.0602 -0.030102,0.09031 -2.0469561,4.816368 -0.5418413,1.264296 1.2341941,-0.541841 4.8765722,-2.107161 0.09031,-0.06021 0.0602,-0.0602 3.341355,-3.40156 C 19.289791,42.788597 23.55309,45.75 23.55309,45.75 c 0,0 4.764862,-3.079509 8.729666,-8.488847 l 3.642377,3.67248 0.09031,0.0602 0.09031,0.06021 4.846469,2.107161 1.264297,0.541841 -0.541841,-1.264296 -2.046957,-4.816368 -0.0602,-0.09031 -0.0602,-0.0602 -4.545446,-4.605651 c 0.26998,-0.539403 0.515057,-1.087289 0.752557,-1.655626 1.467221,-3.511056 2.357268,-7.503929 2.919923,-11.107747 l 0.0602,0.120409 0.421432,1.023478 0.602046,-0.933171 3.100537,-4.756163 0.27092,-0.39133 -0.361227,-0.361227 -2.829616,-2.769411 5.538822,-5.6592317 C 46.002522,5.802944 46.177203,5.0612475 45.798686,4.6904698 L 44.173162,3.0950481 C 43.794645,2.7242705 43.022395,2.8830213 42.457331,3.4562757 L 36.888407,9.1155071 34.088893,6.3761983 33.757768,6.045073 33.366438,6.3159937 29.904674,8.6037681 C 27.633721,8.0998088 25.313579,7.3592366 23.402579,6.2557891 21.657061,7.263684 19.695177,7.9512179 17.773449,8.4231543 L 14.642811,6.3159937 14.221379,6.045073 13.890253,6.3761983 11.09074,9.1155071 5.5519175,3.4562757 C 5.1281194,3.0263349 4.5670337,2.830729 4.167212,2.9144344 z m 10.23478,4.6357534 1.776036,1.2040918 c -1.259637,0.2391407 -2.427145,0.3847257 -3.521969,0.4816367 l 1.745933,-1.6857285 z m 19.205264,0 1.986752,1.8964446 C 34.393657,9.3410032 33.015278,9.1905 31.5603,8.9348933 L 33.607256,7.5501878 z M 23.492885,11.072156 c 2.519409,1.454754 6.028259,2.20513 8.458745,2.588798 0.02801,0.0044 0.06259,-0.0043 0.09031,0 0.101126,0.01606 0.174192,0.04433 0.270921,0.0602 0.382705,0.05732 0.684673,0.112008 0.993376,0.150512 0.446262,0.05566 0.569015,0.06709 0.812761,0.09031 0.209005,0.01964 0.507946,0.05407 0.571944,0.0602 l 0.06021,0.0602 c -1.2e-5,0.0026 4.2e-5,0.08395 0,0.09031 -0.0082,0.125908 -0.02848,0.295628 -0.0301,0.391329 -0.0056,0.348712 -0.02746,0.854522 -0.09031,1.926547 -0.03017,0.508794 -0.06709,1.06098 -0.12041,1.685729 -0.278447,3.28702 -0.891391,7.927131 -2.378081,11.800099 -0.01927,0.0502 -0.04065,0.100589 -0.0602,0.150512 -0.125737,0.321014 -0.282361,0.624494 -0.421432,0.933171 -0.414238,0.918696 -0.855491,1.814986 -1.354603,2.6189 l -0.0301,-0.0301 c -0.201265,0.324483 -0.392903,0.658318 -0.602046,0.963274 -2.767647,4.024255 -6.080664,6.321482 -6.080664,6.321482 0,0 -2.910648,-2.181435 -5.599027,-6.020459 -0.206108,-0.293942 -0.400019,-0.589539 -0.602045,-0.903069 -0.51419,-0.798889 -1.019456,-1.63729 -1.475013,-2.558695 -0.164699,-0.332962 -0.328803,-0.675139 -0.481637,-1.023478 -0.03096,-0.07057 -0.05989,-0.139523 -0.09031,-0.210716 -1.786476,-4.180808 -2.432506,-9.417485 -2.649001,-12.823578 -0.0029,-0.04586 0.0025,-0.07551 0,-0.120409 -0.03571,-0.578461 -0.0443,-1.083034 -0.0602,-1.535217 -0.0092,-0.260265 0.0046,-0.331182 0,-0.541841 -0.0052,-0.250577 0.0048,-0.273306 0,-0.481637 l 0.903069,-0.903069 c 0.156612,-0.0096 0.158586,-0.014 0.361227,-0.0301 0.04626,-0.0037 0.102132,0.0041 0.150512,0 0.174929,-0.01497 0.341136,-0.0088 0.541841,-0.0301 0.111147,-0.01182 0.212799,-0.04616 0.331125,-0.0602 0.324339,-0.04746 0.652291,-0.09236 1.023478,-0.150512 2.164672,-0.33484 5.030761,-1.010454 7.555676,-2.468388 z m 15.924114,2.137263 2.167366,2.107161 -2.257672,3.431661 -0.39133,-0.903068 c 0.220766,-1.767391 0.394205,-3.329189 0.481636,-4.635754 z M 7.9299988,13.87167 c 0.082295,1.285602 0.2206334,2.813167 0.4214322,4.425037 L 6.4248841,15.31658 7.9299988,13.87167 z m 26.4900192,19.987924 4.244424,4.304628 1.475012,3.461764 -3.491866,-1.505115 -3.732684,-3.792889 c 0.529055,-0.776035 1.03093,-1.608815 1.505114,-2.468388 z m -21.222117,0.361227 c 0.500177,0.857207 1.027841,1.668346 1.565319,2.438286 l -3.371457,3.431662 -3.552071,1.535217 1.5051147,-3.491867 0.030102,-0.0602 3.8229923,-3.853094 z"
       id="path-main" />
  </g>
</defs>
<acyl-settings>
<linearGradient
     id="linearGradient4321">
    <stop
       style="stop-color:#FFFFFF;stop-opacity:1.0;"
       offset="1.0"
       id="stop1" />
  </linearGradient>
<linearGradient
     inkscape:collect="always"
     xlink:href="#linearGradient4321"
     id="acyl_gradient"
     x1="50.0%"
     y1="0.0%"
     x2="50.0%"
     y2="100.0%" />
<filter>
    </filter>
<use id="1" style="fill:url(#acyl_gradient);filter:url(#filter1111)" xlink:href="#path-main" />
</acyl-settings>
</svg>
