<svg xmlns="http://www.w3.org/2000/svg" width="48" height="48">
<defs>
  <path
     id="path-main"
     d="m 28.232252,9.852603 c 4.809786,3.93565 3.653859,14.515202 -0.485059,16.732138 6.942552,-0.701418 8.024155,-14.839352 0.485059,-16.732138 z m -7.703409,0 c -4.809787,3.93565 -3.653859,14.515202 0.485058,16.732138 C 14.071349,25.883323 12.989746,11.745389 20.528843,9.852603 z M 32.098716,2 c 9.627987,7.711164 7.31411,28.439798 -0.970965,32.783467 C 45.025,33.40917 47.190098,5.7085564 32.098716,2 z m -7.718171,13.373306 c -2.143005,0 -3.882256,1.43005 -3.882256,3.192078 0,0.978825 0.535864,1.862287 1.380358,2.447981 l 0,19.982834 -6.254748,0 0,5.003801 17.513293,0 0,-5.003801 -6.254747,0 0,-19.982834 c 0.844494,-0.585694 1.380357,-1.469156 1.380357,-2.447981 0,-1.762027 -1.73925,-3.192079 -3.882257,-3.192078 z M 16.68032,2 C 7.0523331,9.711164 9.36621,30.439798 17.651285,34.783467 3.7540366,33.40917 1.5889381,5.7085564 16.68032,2 z" />
</defs>
<acyl-settings>
<linearGradient
     id="linearGradient4321">
    <stop
       style="stop-color:#FFFFFF;stop-opacity:1.0;"
       offset="1.0"
       id="stop1" />
  </linearGradient>
<linearGradient
     inkscape:collect="always"
     xlink:href="#linearGradient4321"
     id="acyl_gradient"
     x1="50.0%"
     y1="0.0%"
     x2="50.0%"
     y2="100.0%" />
<filter>
    </filter>
<use id="1" style="fill:url(#acyl_gradient);filter:url(#filter1111)" xlink:href="#path-main" />
</acyl-settings>
</svg>
