<svg xmlns="http://www.w3.org/2000/svg" width="48" height="48">
<defs>
<defs
     id="defs2385">
  </defs>
  <path
     d="m 12.36189,4.8669214 c -0.783073,0.010204 -1.534228,0.064567 -2.1875,0.15625 -1.3284671,0.1365366 -2.5921674,0.4418242 -3.6249995,0.75 -1.0328321,0.308176 -1.3513478,1.0499204 -1.34375,1.6875 0.1551846,8.7743156 0.084326,23.4527876 0.21875,24.9999996 0.1375793,1.583518 0.5784396,2.198039 1.03125,2.375 0.5880804,0.26345 0.9553557,-0.03033 1.46875,-0.21875 0.4506313,-0.195781 2.1881985,-0.808732 4.8437495,-0.84375 l 0,-2.8125 c -1.81142,0.03157 -3.3214659,0.312364 -4.4062495,0.59375 l -0.125,-9.6875 c 0.5473577,-0.229603 1.4381703,-0.587049 2.9062495,-0.78125 0.551776,-0.07299 1.14853,-0.09074 1.8125,-0.09375 1.991912,-0.009 4.474541,0.353185 7.3125,1.53125 l 0.03125,3.84375 2.9375,0 -0.03125,-2.71875 c 0.447946,0.175544 0.879061,0.305882 1.3125,0.46875 l 0,-3.0625 c -0.453544,-0.176572 -0.900231,-0.339315 -1.375,-0.53125 l -0.125,-10.03125 c 0.513407,0.193377 1.003411,0.417659 1.5,0.59375 l 0,-2.9999996 c -1.150615,-0.4233091 -2.339344,-0.8825173 -3.65625,-1.4375 -2.168438,-0.9138423 -4.174964,-1.4429879 -5.96875,-1.65625 -0.896893,-0.1066312 -1.748176,-0.1352045 -2.53125,-0.125 z m 0.0625,2.875 c 0.656667,-0.01021 1.359907,0.03418 2.125,0.125 1.530187,0.1816407 3.266965,0.5968808 5.1875,1.40625 0.122335,0.051553 0.222671,0.074413 0.34375,0.125 L 20.23689,19.429421 C 14.829743,17.522916 10.530485,18.211992 8.2056405,18.898171 l -0.125,-10.4062496 c 0.5335964,-0.2056283 1.322562,-0.4553676 2.5312495,-0.625 0.540466,-0.075851 1.155832,-0.1147903 1.8125,-0.125 z m 13.15625,1.15625 0,3.1249996 c 2.394577,0.87574 4.527972,1.522538 6.4375,1.78125 0.641159,0.08686 1.265881,0.121675 1.875,0.09375 l 0,-2.90625 c -0.468248,0.0042 -0.956734,0.01114 -1.5,-0.0625 -1.792888,-0.24291 -4.120047,-0.9958173 -6.8125,-2.0312496 z m 16.15625,1.0625 c -0.255836,0.012777 -0.497641,0.1030586 -0.71875,0.2499996 -1.803404,1.221424 -3.822171,1.173237 -5.90625,0.96875 -0.104973,-0.01541 -0.205755,-0.04349 -0.3125,-0.0625 l 0,2.90625 c 2.03791,0.289071 3.914574,0.18637 5.59375,-0.375 l 0.0625,3.84375 2.875,0 -0.0625,-6.15625 c -0.0061,-0.530926 -0.311862,-0.970567 -0.78125,-1.21875 -0.234694,-0.1240864 -0.494164,-0.1690746 -0.75,-0.1562496 z m -1.4375,11.8124996 0,0.75 c -0.700836,0.371209 -1.433323,0.61612 -2.28125,0.71875 l 0,2.90625 c 0.808084,-0.06028 1.579356,-0.205229 2.3125,-0.4375 l 0.0625,3 2.875,0 -0.09375,-5 c 3.08e-4,-0.01724 3.08e-4,-0.04526 0,-0.0625 0.03105,-0.171069 0.03105,-0.328931 0,-0.5 l 0,-1.375 -2.875,0 z m -13.15625,0.09375 0,3.125 c 1.668979,0.548866 3.211856,0.93354 4.625,1.125 0.641159,0.08686 1.297131,0.09043 1.90625,0.0625 l 0,-2.875 c -0.468249,0.0042 -0.987984,0.01113 -1.53125,-0.0625 -1.381155,-0.187125 -3.067516,-0.690422 -5,-1.375 z m -6.28125,7.65625 0.03125,3.3125 c -2.142583,-0.754925 -4.099166,-1.099805 -5.84375,-1.21875 l 0,2.78125 c 1.755058,0.163186 3.790807,0.605142 6.0625,1.5625 1.397296,0.588859 2.683445,1.052679 3.90625,1.5 l 0,-3.125 c -0.397577,-0.152831 -0.773253,-0.272 -1.1875,-0.4375 l -0.0625,-4.375 -2.90625,0 z m 8.75,6.375 0,3.125 c 0.870078,0.286137 1.69898,0.525973 2.5,0.71875 l 0,-3.03125 c -0.777032,-0.224689 -1.613737,-0.498543 -2.5,-0.8125 z m 10.09375,2 0,0.25 c -0.131477,0.07208 -0.273186,0.12287 -0.40625,0.1875 l 0,3.03125 c 0.620028,-0.189622 1.164572,-0.428659 1.625,-0.65625 1.470076,-0.726661 1.667761,-0.916564 1.65625,-1.8125 l 0,-1 -2.875,0 z"
     id="path-main" />
</defs>
<acyl-settings>
<linearGradient
     id="linearGradient4321">
    <stop
       style="stop-color:#FFFFFF;stop-opacity:1.0;"
       offset="1.0"
       id="stop1" />
  </linearGradient>
<linearGradient
     inkscape:collect="always"
     xlink:href="#linearGradient4321"
     id="acyl_gradient"
     x1="50.0%"
     y1="0.0%"
     x2="50.0%"
     y2="100.0%" />
<filter>
    </filter>
<use id="1" style="fill:url(#acyl_gradient);filter:url(#filter1111)" xlink:href="#path-main" />
</acyl-settings>
</svg>
