<svg xmlns="http://www.w3.org/2000/svg" width="48" height="48">
<defs>
  <path
     d="M 20.61592,4.4978057 18.090072,9.996062 15.10371,4.7769057 c -0.208587,0.04535 -0.422357,0.08653 -0.627973,0.139549 L 14.112908,10.931044 9.437995,7.1492487 c -0.180841,0.119315 -0.354426,0.250757 -0.530288,0.376784 l 1.8281,5.7215353 -5.70758,-1.8281 c -0.126026,0.175862 -0.257468,0.34945 -0.376784,0.530288 l 3.781795,4.660958 -6.028544,0.362829 c -0.05224,0.202617 -0.0808,0.408515 -0.125595,0.614018 L 7.498255,20.601833 2,23.113727 c 0.02347,0.205661 0.03893,0.410683 0.06977,0.614018 l 5.986679,0.921028 -4.242309,4.353948 c 0.09299,0.17654 0.194024,0.357533 0.293054,0.530289 l 2.414209,-0.530289 c 0.758084,-1.700496 1.92094,-3.183394 3.363146,-4.326038 -0.427887,-1.078564 -0.669838,-2.258999 -0.669838,-3.488741 0,-5.223122 4.2523,-9.47542 9.47542,-9.47542 5.223119,0 9.461464,4.252298 9.461464,9.47542 0,2.191702 -0.756238,4.213584 -2.009514,5.819219 0.08394,0.116563 0.171427,0.229239 0.251189,0.348874 1.082383,-0.57165 2.280306,-0.976847 3.586425,-0.976847 1.459149,0 2.802316,0.417215 3.949255,1.130352 l -4.493498,-3.85157 6.014589,-1.493181 c 0.01027,-0.179363 0.0094,-0.363416 0.01396,-0.544243 l -5.833175,-2.05138 5.037742,-3.54456 c -0.05706,-0.176978 -0.118694,-0.355931 -0.181415,-0.530289 l -6.168093,0.209324 3.405011,-5.107516 c -0.121445,-0.149236 -0.25038,-0.301638 -0.376784,-0.446559 l -5.62385,2.400254 1.311766,-5.9308593 C 26.858968,6.5177637 26.671139,6.4068647 26.49096,6.3119517 L 22.137011,10.55426 21.229939,4.5815357 c -0.205577,-0.0313 -0.406059,-0.05995 -0.614019,-0.08373 z m -2.372343,8.0938793 c -4.547191,0.230526 -8.163654,3.991249 -8.163654,8.596257 0,1.034317 0.196496,2.027167 0.530289,2.944497 1.813389,-1.216375 3.993434,-1.925785 6.335553,-1.925785 3.483565,0 6.553831,1.612598 8.638122,4.088804 1.055625,-1.426813 1.688551,-3.191091 1.688551,-5.107516 0,-4.753557 -3.828749,-8.596257 -8.582302,-8.596257 -0.148549,0 -0.299876,-0.0074 -0.446559,0 z M 17.12718,23.267231 c -5.837206,0 -10.563907,4.740654 -10.563907,10.577862 0,0.153408 -0.0064,0.308699 0,0.460514 -1.48587,0.540597 -2.539803,1.955533 -2.539803,3.628293 0,2.13756 1.727957,3.87948 3.865524,3.87948 0.652571,0 1.274806,-0.16135 1.814145,-0.44656 1.908671,1.88415 4.530165,3.04218 7.424041,3.04218 l 22.704724,0 C 43.243794,44.409 46,41.6528 46,38.24091 c 0,-3.411894 -2.756206,-6.182052 -6.168096,-6.182052 -1.066215,0 -2.069147,0.27805 -2.944497,0.753568 -0.71027,-3.067869 -3.45643,-5.372661 -6.740247,-5.372661 -1.42387,0 -2.737292,0.435115 -3.837615,1.172217 -1.820231,-3.186753 -5.249622,-5.344751 -9.182365,-5.344751 z"
     id="path-main"
      />
</defs>
<acyl-settings>
<linearGradient
     id="linearGradient4321">
    <stop
       style="stop-color:#FFFFFF;stop-opacity:1.0;"
       offset="1.0"
       id="stop1" />
  </linearGradient>
<linearGradient
     inkscape:collect="always"
     xlink:href="#linearGradient4321"
     id="acyl_gradient"
     x1="50.0%"
     y1="0.0%"
     x2="50.0%"
     y2="100.0%" />
<filter>
    </filter>
<use id="1" style="fill:url(#acyl_gradient);filter:url(#filter1111)" xlink:href="#path-main" />
</acyl-settings>
</svg>
