<svg xmlns="http://www.w3.org/2000/svg" width="48" height="48">
<defs>
<defs
     id="defs3">
    <inkscape:perspective
       sodipodi:type="inkscape:persp3d"
       inkscape:vp_x="0 : 24 : 1"
       inkscape:vp_y="0 : 1000 : 0"
       inkscape:vp_z="48 : 24 : 1"
       inkscape:persp3d-origin="24 : 16 : 1"
       id="perspective15" />
  </defs>
  <path
     d="m 23.186146,39.804262 c -2.052658,-0.559266 -4.656883,-1.47632 -5.15557,-3.814323 -0.135142,-2.453017 2.33789,-4.041056 4.406645,-4.713573 3.978981,-1.194368 8.568584,-1.048135 12.221003,1.057956 1.49665,0.77005 2.754177,2.7264 1.439652,4.242498 -2.075799,2.896775 -5.940129,3.579632 -9.288911,3.652768 -1.218286,-0.0012 -2.440036,-0.127732 -3.622819,-0.425326 z m 14.189355,-7.892657 c -0.77796,-3.085102 -3.41444,-5.500388 -6.483537,-6.224598 -1.948944,-0.509924 -1.138212,-3.038795 -0.458212,-4.289423 1.488847,-2.818735 4.583967,-5.071099 7.893434,-4.509122 3.170628,0.326954 6.094343,2.440627 7.153148,5.484358 1.291947,2.755491 -0.02539,5.908939 -1.75943,8.144686 -1.297272,1.710065 -3.316571,2.791953 -5.465239,2.831339 -0.818329,0.305553 -0.587824,-0.929359 -0.872271,-1.407938 l -0.0079,-0.02931 z M 6.7972666,31.806277 C 4.7241346,31.223257 2.0163251,30.072831 2,27.534789 2.052674,24.976683 4.751018,23.746293 6.8790821,23.184271 10.82578,22.251786 15.366835,22.290584 18.854505,24.587742 c 1.925673,0.983213 2.179594,3.619331 0.451865,4.946345 -2.514503,2.619106 -6.436767,2.561911 -9.7981187,2.593634 -0.9088101,-0.03406 -1.8284675,-0.08581 -2.7109847,-0.321444 z M 21.699877,25.181241 C 20.9006,23.659492 20.701058,21.810803 19.386365,20.574552 17.883868,18.756979 15.612962,18.001201 13.411027,17.43832 c 0.114712,-2.048683 0.320456,-4.256981 1.894438,-5.768777 2.54106,-2.9471905 7.202038,-3.7270176 10.489516,-1.574812 3.837549,2.299012 4.957771,7.906356 2.340776,11.523165 -1.360497,1.843809 -3.280596,3.673145 -5.657676,3.9179 -0.289532,-0.0094 -0.599093,-0.112309 -0.778204,-0.354555 z"
     id="path-main"
      />
</defs>
<acyl-settings>
<linearGradient
     id="linearGradient4321">
    <stop
       style="stop-color:#FFFFFF;stop-opacity:1.0;"
       offset="1.0"
       id="stop1" />
  </linearGradient>
<linearGradient
     inkscape:collect="always"
     xlink:href="#linearGradient4321"
     id="acyl_gradient"
     x1="50.0%"
     y1="0.0%"
     x2="50.0%"
     y2="100.0%" />
<filter>
    </filter>
<use id="1" style="fill:url(#acyl_gradient);filter:url(#filter1111)" xlink:href="#path-main" />
</acyl-settings>
</svg>
