<svg xmlns="http://www.w3.org/2000/svg" width="48" height="48">
<defs>
  <defs
     id="defs2385">
    <inkscape:perspective
       sodipodi:type="inkscape:persp3d"
       inkscape:vp_x="0 : 24 : 1"
       inkscape:vp_y="0 : 1000 : 0"
       inkscape:vp_z="48 : 24 : 1"
       inkscape:persp3d-origin="24 : 16 : 1"
       id="perspective2869" />
  </defs>
  <path
     id="path-main"
     d="M 33.684783,4.3722826 17.065217,13.967391 15.570652,11.1875 3.7038043,18.032609 5.2282609,20.8125 l -2.3913044,1.375 1.7934783,3.108696 -1.8532609,1.046195 -0.5081522,0.298913 0.388587,0.44837 1.763587,1.883152 L 2.5679348,30.019022 2,30.347826 2.4483696,30.766304 14.793478,43.05163 15.0625,43.320652 15.182065,43.5 46,25.714674 33.684783,4.3722826 z M 23.671196,13.548913 c 0.220529,0.124454 3.288043,7.682065 3.288043,7.682065 0,0 2.727382,-2.97933 3.019022,-2.779891 0.291645,0.19944 0.60388,12.913985 -0.02989,13.391304 -0.633752,0.477354 -10.421171,-5.281242 -10.432066,-5.709239 -0.01061,-0.416421 3.586957,-2.122282 3.586957,-2.122282 0,0 -4.376958,-6.642686 -4.364131,-6.845109 0.01283,-0.202425 4.711535,-3.741302 4.932066,-3.616848 z M 5.1086957,26.133152 13.269022,40.182065 3.5842391,30.557065 5.4076087,29.480978 5.9157609,29.182065 5.5271739,28.733696 3.7934783,26.880435 5.1086957,26.133152 z" />
</defs>
<acyl-settings>
<linearGradient
     id="linearGradient4321">
    <stop
       style="stop-color:#FFFFFF;stop-opacity:1.0;"
       offset="1.0"
       id="stop1" />
  </linearGradient>
<linearGradient
     inkscape:collect="always"
     xlink:href="#linearGradient4321"
     id="acyl_gradient"
     x1="50.0%"
     y1="0.0%"
     x2="50.0%"
     y2="100.0%" />
<filter>
    </filter>
<use id="1" style="fill:url(#acyl_gradient);filter:url(#filter1111)" xlink:href="#path-main" />
</acyl-settings>
</svg>
