<svg xmlns="http://www.w3.org/2000/svg" width="48" height="48">
<defs>
  <defs
     id="defs2385">
  </defs>
  <path
     id="path-main"
     d="M 33.684783,4.3722826 17.065217,13.967391 15.570652,11.1875 3.7038043,18.032609 5.2282609,20.8125 l -2.3913044,1.375 1.7934783,3.108696 -1.8532609,1.046195 -0.5081522,0.298913 0.388587,0.44837 1.763587,1.883152 L 2.5679348,30.019022 2,30.347826 2.4483696,30.766304 14.793478,43.05163 15.0625,43.320652 15.182065,43.5 46,25.714674 33.684783,4.3722826 z M 22.744565,18.480978 c 0.624177,-0.04528 1.323446,0.253103 1.733696,0.807065 0.104076,0.140548 0.09246,0.297049 0.149456,0.44837 0.358972,0.01424 0.716034,0.06412 1.076087,0.149457 0.109149,-0.337857 0.311339,-0.654592 0.657609,-0.836957 0.830011,-0.437172 2.005933,-0.09598 2.630435,0.747283 0.06447,0.08708 0.104232,0.180945 0.149456,0.269021 0.60779,-0.05017 1.210286,0.04718 1.793479,0.328805 0.06939,-0.0523 0.128001,-0.106672 0.209239,-0.149457 0.813986,-0.42873 1.890632,-0.186448 2.630435,0.508152 0.504855,-0.159812 1.142271,0.0026 1.494565,0.478261 0.392003,0.52932 0.281386,1.190553 -0.239131,1.464674 -0.196754,0.103628 -0.425779,0.145152 -0.657608,0.119565 -0.125682,0.352694 -0.316545,0.671436 -0.6875,0.866848 -0.262586,0.138338 -0.566806,0.111818 -0.866848,0.119565 -0.154465,0.586155 -0.506621,1.119053 -1.105978,1.434783 -0.511585,0.269459 -1.079806,0.33615 -1.673914,0.269022 -0.177531,1.10084 -0.766309,2.087823 -1.85326,2.660326 -0.816042,0.429853 -1.769629,0.519848 -2.720109,0.418478 -0.153478,0.508644 -0.458292,0.977286 -0.986413,1.255435 -0.814289,0.42889 -1.838375,0.360595 -2.720109,-0.08967 -0.150294,0.212444 -0.33994,0.372314 -0.597826,0.508152 -0.589704,0.310599 -1.307129,0.251723 -1.972826,0 -0.111224,0.216854 -0.269474,0.412322 -0.508152,0.538044 -0.726844,0.382831 -1.754631,0.08101 -2.301631,-0.657609 -0.547,-0.738616 -0.427925,-1.649768 0.298913,-2.032609 0.236726,-0.124674 0.529586,-0.159165 0.807066,-0.149456 0.02388,-0.614927 0.247271,-1.183929 0.836956,-1.494565 0.159859,-0.08421 0.362593,-0.08156 0.538044,-0.119566 -0.06867,-0.127645 -0.136965,-0.259028 -0.179348,-0.388587 -0.457903,-0.05192 -0.903633,-0.203512 -1.195652,-0.597826 -0.4695,-0.633967 -0.354655,-1.435106 0.269021,-1.763587 0.481466,-0.25359 1.098339,-0.07753 1.58424,0.269022 0.04508,-0.03123 0.06592,-0.09131 0.119565,-0.119565 0.259753,-0.13682 0.565338,-0.126051 0.866848,-0.149457 -0.0498,-1.209577 0.453425,-2.306935 1.434782,-3.048913 -0.437185,-0.71283 -0.295134,-1.552965 0.388587,-1.913043 0.181712,-0.09571 0.389767,-0.134365 0.597826,-0.149457 z m -17.6358693,7.652174 8.1603263,14.048913 -9.6847829,-9.625 1.8233696,-1.076087 0.5081522,-0.298913 -0.388587,-0.448369 -1.7336956,-1.853261 1.3152174,-0.747283 z" />
</defs>
<acyl-settings>
<linearGradient
     id="linearGradient4321">
    <stop
       style="stop-color:#FFFFFF;stop-opacity:1.0;"
       offset="1.0"
       id="stop1" />
  </linearGradient>
<linearGradient
     inkscape:collect="always"
     xlink:href="#linearGradient4321"
     id="acyl_gradient"
     x1="50.0%"
     y1="0.0%"
     x2="50.0%"
     y2="100.0%" />
<filter>
    </filter>
<use id="1" style="fill:url(#acyl_gradient);filter:url(#filter1111)" xlink:href="#path-main" />
</acyl-settings>
</svg>
