<svg xmlns="http://www.w3.org/2000/svg" width="48" height="48">
<defs>
  <defs
     id="defs2385">
  </defs>
  <path
     id="path-main"
     d="M 33.684783,4.3722826 17.065217,13.967391 15.570652,11.1875 3.7038043,18.032609 5.2282609,20.8125 l -2.3913044,1.375 1.7934783,3.108696 -1.8532609,1.046195 -0.5081522,0.298913 0.388587,0.44837 1.763587,1.883152 L 2.5679348,30.019022 2,30.347826 2.4483696,30.766304 14.793478,43.05163 15.0625,43.320652 15.182065,43.5 46,25.714674 33.684783,4.3722826 z M 24.179348,14.654891 c 4.094832,-0.210769 8.170101,2.13737 9.595109,5.769022 1.628585,4.150461 -0.811837,8.42547 -5.440218,9.535326 -0.9548,0.228961 -1.94061,0.298043 -2.899456,0.239131 0.02571,0.07237 0.0654,0.134448 0.08967,0.209239 0.105652,0.325254 0.168472,0.670664 0.149456,1.016304 -0.01902,0.345637 -0.120911,0.693223 -0.44837,0.956522 -0.646221,0.519606 -1.551396,0.438846 -2.331521,0.328804 -0.780126,-0.110038 -1.493217,-0.220855 -1.913044,-0.05978 -0.5114,0.196212 -0.67478,0.381759 -0.777174,0.597826 -0.102392,0.216067 -0.09594,0.499561 -0.328804,0.777174 L 19.247283,33.63587 c 0.07645,-0.09114 0.147823,-0.338791 0.298913,-0.657609 0.151088,-0.318819 0.466094,-0.681125 1.105978,-0.926631 0.731461,-0.280647 1.555949,-0.105186 2.30163,0 0.745679,0.105172 1.370861,0.166323 1.763587,-0.149456 0.192019,-0.15439 0.226581,-0.339912 0.239131,-0.567935 0.01255,-0.228023 -0.05386,-0.512749 -0.149457,-0.807065 -0.04497,-0.138464 -0.09765,-0.278433 -0.149456,-0.418478 -3.388302,-0.471182 -6.451426,-2.589335 -7.652174,-5.649457 -1.368747,-3.488271 0.146032,-7.048155 3.407608,-8.758152 0.604009,-0.316646 1.25514,-0.570712 1.972827,-0.747283 0.01801,-0.0044 0.04172,-0.02549 0.05978,-0.02989 0.578548,-0.138732 1.14872,-0.238911 1.733696,-0.269022 z m 2.271739,1.255435 c -0.127609,0.01381 -0.269102,0.02878 -0.388587,0.05978 -0.170002,0.04531 -0.326989,0.131187 -0.478261,0.209239 -0.453764,0.234224 -0.818331,0.595646 -0.986413,1.076087 -0.38294,1.094583 0.360685,2.32919 1.644022,2.75 1.283339,0.420803 2.606196,-0.130961 2.98913,-1.225544 0.382938,-1.094583 -0.300897,-2.329191 -1.584239,-2.75 -0.394778,-0.129453 -0.812826,-0.160984 -1.195652,-0.119565 z m -5.798913,1.434783 c -0.19004,0.0074 -0.388834,0.014 -0.567935,0.05978 -0.007,0.0019 -0.02281,0.02798 -0.02989,0.02989 -0.221651,0.05871 -0.406501,0.122105 -0.597826,0.23913 -0.191331,0.117018 -0.393237,0.274983 -0.538044,0.44837 -0.760767,0.910973 -0.444584,2.250674 0.657609,2.98913 1.102194,0.738457 2.616948,0.612057 3.377717,-0.298913 0.76077,-0.910972 0.474479,-2.250674 -0.627717,-2.98913 -0.506967,-0.33966 -1.103795,-0.500492 -1.673913,-0.478261 z m 9.684783,3.228261 c -0.124036,0.01295 -0.241606,0.03171 -0.358696,0.05978 -0.01507,0.0035 -0.04483,0.02607 -0.05978,0.02989 -0.235249,0.06101 -0.433927,0.149092 -0.627717,0.269022 -0.581362,0.359796 -0.945866,0.948321 -0.926631,1.644022 0.03238,1.171047 1.142115,2.179884 2.480979,2.241848 1.338862,0.06197 2.423682,-0.831668 2.391304,-2.002718 -0.03238,-1.171049 -1.172003,-2.179874 -2.51087,-2.241847 -0.130746,-0.0061 -0.264551,-0.01295 -0.388586,0 z m -4.902174,1.016304 c -0.125974,-0.01469 -0.262254,-4.03e-4 -0.388587,0.02989 -0.01384,0.0032 -0.01644,-0.0038 -0.02989,0 -0.05937,0.01724 -0.09768,0.06326 -0.149456,0.08967 -0.36239,0.184846 -0.569218,0.542469 -0.418478,0.926631 0.177808,0.453151 0.750099,0.748894 1.255434,0.627717 0.505326,-0.121175 0.775636,-0.593045 0.597826,-1.046196 -0.133359,-0.339864 -0.488926,-0.583651 -0.866847,-0.627717 z M 21.040761,22.875 c -0.248431,-0.01122 -0.506081,0.03183 -0.747283,0.08967 -0.01467,0.0034 -0.0452,-0.0037 -0.05978,0 -0.218415,0.05653 -0.432866,0.152171 -0.627718,0.269022 -1.06413,0.638192 -1.261525,1.94553 -0.448369,2.929347 0.813161,0.983821 2.343478,1.265907 3.407608,0.627718 1.06413,-0.638191 1.261528,-1.945527 0.44837,-2.929348 -0.490754,-0.593749 -1.227534,-0.952744 -1.972826,-0.986413 z m 5.798913,2.002717 c -0.160321,0.0081 -0.320345,0.05181 -0.478261,0.08967 -0.0099,0.0024 -0.02008,-0.0025 -0.02989,0 -0.231507,0.05984 -0.441002,0.156328 -0.627718,0.269022 -0.809114,0.488304 -1.193911,1.421815 -0.836956,2.331522 0.444525,1.132879 1.845363,1.797505 3.108695,1.494565 1.263331,-0.302939 1.939094,-1.467667 1.494566,-2.600543 -0.38896,-0.991274 -1.508189,-1.640833 -2.630435,-1.58424 z m -21.7309783,1.255435 8.1603263,14.048913 -9.6847829,-9.625 1.8233696,-1.076087 0.5081522,-0.298913 -0.388587,-0.448369 -1.7336956,-1.853261 1.3152174,-0.747283 z" />
</defs>
<acyl-settings>
<linearGradient
     id="linearGradient4321">
    <stop
       style="stop-color:#FFFFFF;stop-opacity:1.0;"
       offset="1.0"
       id="stop1" />
  </linearGradient>
<linearGradient
     inkscape:collect="always"
     xlink:href="#linearGradient4321"
     id="acyl_gradient"
     x1="50.0%"
     y1="0.0%"
     x2="50.0%"
     y2="100.0%" />
<filter>
    </filter>
<use id="1" style="fill:url(#acyl_gradient);filter:url(#filter1111)" xlink:href="#path-main" />
</acyl-settings>
</svg>
