<svg xmlns="http://www.w3.org/2000/svg" width="48" height="48">
<defs>
  <defs
     id="defs2385">
  </defs>
  <path
     id="path-main"
     d="M 33.684783,4.3722826 17.065217,13.967391 15.570652,11.1875 3.7038043,18.032609 5.2282609,20.8125 l -2.3913044,1.375 1.7934783,3.108696 -1.8532609,1.046195 -0.5081522,0.298913 0.388587,0.44837 1.763587,1.883152 L 2.5679348,30.019022 2,30.347826 2.4483696,30.766304 14.793478,43.05163 15.0625,43.320652 15.182065,43.5 46,25.714674 33.684783,4.3722826 z M 20.11413,16.597826 c 0.285488,0.01059 0.571089,0.09473 0.836957,0.239131 l 13.75,7.682065 0.02989,0 c 0.451074,0.290787 0.757613,0.73018 0.807065,1.225543 9.28e-4,0.0095 0.02917,0.02033 0.02989,0.02989 0.07148,0.495811 -0.191167,0.949942 -0.657609,1.195652 l -11.567935,6.067934 c -0.450271,0.237149 -1.021982,0.245295 -1.524456,0 -0.537418,-0.262349 -0.868924,-0.711554 -0.956522,-1.195652 l -0.02989,0 -2.182065,-13.75 0,-0.02989 c -0.06905,-0.517357 0.149924,-1.017932 0.657608,-1.285326 0.239488,-0.126138 0.521578,-0.189942 0.807065,-0.179348 z m 1.703805,3.4375 c -0.03051,-0.0036 -0.06613,0.01749 -0.08967,0.02989 -0.04708,0.0248 -0.05329,0.06291 -0.02989,0.149457 l 1.524456,9.714674 c 0.01784,0.188375 0.183943,0.25564 0.328804,0.179348 l 8.160327,-4.304348 c 0.144862,-0.0763 0.131882,-0.202089 -0.05978,-0.298913 L 21.9375,20.095109 c -0.04791,-0.02421 -0.08905,-0.05621 -0.119565,-0.05978 z m 2.720108,2.0625 1.046196,2.600544 -0.388587,0.269021 -2.331522,-2.002717 1.673913,-0.866848 z m 1.883153,3.347826 c 0.542191,0.0015 0.873983,0.317429 0.956521,0.836957 0.04068,0.482321 -0.264876,0.838487 -0.807065,0.836956 -0.503462,-0.0014 -0.945684,-0.354641 -0.986413,-0.836956 -0.03286,-0.389569 0.13158,-0.689699 0.44837,-0.807066 0.105595,-0.03916 0.253043,-0.03026 0.388587,-0.02989 z m -21.3125003,0.6875 8.1603263,14.048913 -9.6847829,-9.625 1.8233696,-1.076087 0.5081522,-0.298913 -0.388587,-0.448369 -1.7336956,-1.853261 1.3152174,-0.747283 z" />
</defs>
<acyl-settings>
<linearGradient
     id="linearGradient4321">
    <stop
       style="stop-color:#FFFFFF;stop-opacity:1.0;"
       offset="1.0"
       id="stop1" />
  </linearGradient>
<linearGradient
     inkscape:collect="always"
     xlink:href="#linearGradient4321"
     id="acyl_gradient"
     x1="50.0%"
     y1="0.0%"
     x2="50.0%"
     y2="100.0%" />
<filter>
    </filter>
<use id="1" style="fill:url(#acyl_gradient);filter:url(#filter1111)" xlink:href="#path-main" />
</acyl-settings>
</svg>
