<svg xmlns="http://www.w3.org/2000/svg" width="48" height="48">
<defs>
  <defs
     id="defs2385">
  </defs>
  <path
     id="path-main"
     d="M 33.684783,4.3722826 17.065217,13.967391 15.570652,11.1875 3.7038043,18.032609 5.2282609,20.8125 l -2.3913044,1.375 1.7934783,3.108696 -1.8532609,1.046195 -0.5081522,0.298913 0.388587,0.44837 1.763587,1.883152 L 2.5679348,30.019022 2,30.347826 2.4483696,30.766304 14.793478,43.05163 15.0625,43.320652 15.182065,43.5 46,25.714674 33.684783,4.3722826 z M 24.089674,16.478261 c 3.382373,-0.07338 6.799095,1.617616 8.548913,4.513587 2.333197,3.861472 0.809742,8.39535 -3.407609,10.133152 -4.21774,1.737965 -9.533671,0.0055 -11.866848,-3.855978 -2.333091,-3.861298 -0.81013,-8.365294 3.407609,-10.103261 1.054338,-0.434451 2.190477,-0.663038 3.317935,-0.6875 z m 2.271739,0.627717 -0.717391,0.179348 -0.44837,0 -0.448369,0.358696 -0.239131,0.328804 0.119565,0.179348 -0.328804,0.538043 0.388587,0.418479 0.179348,-0.328805 0.298913,0.119566 0.298913,0.02989 -0.05978,-0.388587 -0.209239,-0.179348 0,-0.179348 0.149457,-0.418478 0.119565,-0.05978 0.05978,0.358696 0.149456,0.269022 c 0.108861,-0.08473 0.236573,-0.140274 0.358696,-0.209239 l -0.239131,0.388587 0.08967,0.149456 -0.23913,0.478261 -0.478261,0.08967 -0.119565,-0.239131 -0.119566,0.20924 0.179348,0.149456 -0.298913,0.149457 0,0.328804 -0.08967,0.298913 -0.328804,0.23913 0.328804,0.08967 0.179348,0.179348 -0.269022,0.119565 -0.23913,0.328805 0.298913,0.508152 0.149457,-0.05978 0.269021,0.08967 0.239131,-0.298913 -0.02989,-0.388587 0.149457,-0.23913 -0.02989,-0.119565 0.388587,-0.269022 0.358695,0.119565 0.298913,0.02989 0.02989,0.328805 0.209239,-0.179348 -0.05978,-0.298913 -0.448369,-0.179348 0.08967,-0.02989 0.418479,0.08967 0.23913,0.269021 0.418478,0.149457 -0.179347,-0.418478 0.08967,-0.119566 c 0.217084,0.07424 0.422457,0.199277 0.627718,0.298913 l 0.418478,-0.149456 0.358696,0.05978 -0.02989,0.179347 -0.149456,0.328805 -0.358696,0.119565 -0.538043,0.05978 -0.239131,0.149456 -0.05978,0.23913 -0.807065,-0.269021 -0.418479,0.05978 -0.508152,0.269022 -0.388587,0.328804 c -0.0992,0.385755 -0.190482,0.77523 -0.269022,1.165761 l 0.05978,0.777174 0.23913,0.08967 -0.02989,0.44837 0.657609,0.508152 c 0.385555,0.147881 0.750556,0.270281 1.135869,0.418478 l 0.20924,-0.388587 0.209239,0.08967 0.269021,-0.358696 0.20924,0.05978 0.358695,-0.149456 0.358696,0.149456 0.119565,0.418478 0.418478,0.179348 0.269022,0.478261 0.418478,0.269022 0.02989,0.358695 c 0.114609,0.218377 0.230187,0.44492 0.358695,0.657609 0.288402,0.241042 0.55367,0.471655 0.836957,0.717391 l 0.388587,0.418479 0.149456,0.209239 0.179348,-0.05978 0.209239,-0.298913 0.358696,-0.149456 0.209239,-0.777174 -0.179348,-0.179348 0.179348,-0.418478 -0.418478,-0.179348 0.179348,-0.358696 0.179347,-0.328804 0.02989,-0.179348 -0.269018,-0.298886 -0.478261,-0.807065 -0.02989,-0.567935 0.119565,-0.478261 -0.119565,-0.866848 -0.119565,-0.209239 c -0.152006,0.08616 -0.324961,0.162532 -0.478261,0.239131 l 0.149456,-0.44837 0.298913,-0.478261 0.08967,-0.358696 -0.179348,-0.298913 C 31.388656,20.679336 31.288356,20.6167 31.173913,20.543478 l -0.08967,0.328805 -0.269022,-0.08967 -0.358695,-0.08967 -0.239131,-0.358696 0.478261,0.149457 0.298913,-0.149457 c 0.21948,0.06123 0.416031,0.09389 0.627718,0.179348 l 0.08967,-0.269022 C 31.573089,20.014736 30.601599,18.980049 29.410326,18.271739 28.219246,17.563748 26.630434,17.13587 26.630435,17.13587 l 0,0.149456 -0.119565,0.418478 -0.567935,-0.209239 0.358695,-0.149456 0.05978,-0.239131 z m -4.214674,0.418479 -0.956522,0.02989 -0.866847,0.448369 -0.6875,0.567935 -0.239131,-0.119565 -0.358696,0.209239 -0.05978,0.239131 -0.298913,0.149456 -0.209239,0.23913 -0.05978,0.08967 0,0.02989 -0.149456,0.08967 0.02989,0.269021 -0.328804,-0.23913 0.02989,0.179348 0.209239,0.298913 -0.149457,0.269022 0.05978,0.418478 0.328804,-0.119565 -0.02989,-0.20924 0.358696,0.05978 0.269021,-0.08967 -0.149456,-0.23913 -0.388587,0.02989 -0.119565,0.149457 0.02989,-0.08967 c 0.07976,-0.138803 0.155024,-0.281852 0.239131,-0.418479 l 0.328804,-0.02989 c 0.278505,0.0425 0.5584,0.07734 0.836956,0.119565 l 0.179348,-0.358695 -0.418478,0 -0.328804,-0.20924 -0.44837,0.119566 0.08967,-0.149457 0.269022,-0.209239 c 0.06216,-0.07291 0.111425,-0.113855 0.179348,-0.179348 l -0.05978,0.179348 0.956522,0.149457 0.149456,0.23913 -0.08967,0.358696 0.747283,0.538043 0.149456,-0.23913 0.05978,-0.567929 c 0.366166,-0.307033 0.674865,-0.610772 0.986413,-0.956522 0.01527,-0.01698 0.04449,-0.04259 0.05978,-0.05978 l -0.149457,-0.986413 z m 0.08967,1.046195 0.05978,0.179348 0.269021,0.02989 0.269022,-0.358695 -0.298913,-0.08967 -0.179348,0.209239 -0.119565,0.02989 z m 1.345109,0.298913 -0.209239,0.05978 0.119565,0.209239 0.209239,0.05978 0.179348,0.298913 0.149456,0.388587 0.328805,-0.20924 0.08967,-0.298913 -0.328805,-0.119565 c -0.176622,-0.144681 -0.347752,-0.258424 -0.538043,-0.388587 z m -0.269022,0.657609 -0.179348,0.149456 0.269022,0.298913 0.209239,-0.209239 -0.298913,-0.23913 z m -5.559783,1.076087 -0.23913,0.05978 0.02989,0.358696 c 0,0 -0.188875,0.142197 -0.23913,0.179348 -0.364391,0.933294 -1.045633,2.890589 0.149456,5.589674 0.04961,0.05356 0.478261,0.298913 0.478261,0.298913 l 0.777174,0.08967 0.657609,-0.08967 0.388587,0.179348 0.538043,0.08967 0.209239,-0.119566 0.20924,0 0.02989,0.05978 0.08967,0.597826 -0.02989,0.298913 0.119566,0.08967 0.119565,0.478261 0.986413,0.597826 0.747283,0.209239 0.358695,0.209239 0.328805,0.597826 0.358695,0.269022 0.239131,0.6875 c 0,0 -0.02985,0.0037 0.02989,0.05978 0.05996,0.05598 1.193854,0.148452 1.225543,0.08967 0.03109,-0.05939 0.05978,-0.119566 0.05978,-0.119566 l -0.149457,-0.119565 0.08967,-0.298913 -0.02989,-0.209239 0.298913,-0.269022 -0.119565,-0.717391 -0.179348,-0.119565 0.02989,-0.358696 0.358696,-0.269022 -0.02989,-0.508152 -0.418479,-0.538043 0.05978,-0.567935 -0.179348,-0.44837 c -0.56626,-0.01863 -1.137252,-0.03382 -1.703804,-0.05978 l -0.478261,-0.298913 -0.44837,0.08967 -0.538043,-0.44837 -0.508152,0.269022 -0.627718,-0.119565 -0.23913,0.597826 0.02989,0.05978 c -0.170993,0.0218 -0.362094,0.109484 -0.538043,0.08967 l -0.269022,-0.269022 -0.209239,-0.298913 -0.298913,0.179348 c -0.09155,-0.207597 -0.177664,-0.420083 -0.269022,-0.627717 l -0.179348,0.05978 -0.05978,0.328805 -0.149457,0.149456 -0.328804,-0.02989 -0.239131,-0.269022 -0.149456,-0.388587 0.23913,-0.448369 0.328805,-0.119565 -0.05978,-0.20924 0.44837,-0.08967 0.538043,0.23913 -0.298913,-0.567935 0.269022,-0.627717 -0.05978,-0.508152 0.298913,-0.269022 0.02989,-0.388587 0.448369,-0.298913 0.05978,-0.418478 -0.747283,0.298913 0.328804,-0.388587 0.328805,-0.119566 0.358695,-0.328804 -0.02989,-0.209239 -0.23913,-0.05978 -0.239131,0.02989 -0.02989,-0.209239 -0.298913,-0.179348 -0.23913,0.23913 -0.08967,-0.269022 -0.508153,-0.02989 0,0.597826 0.119566,0.149457 -0.239131,0.23913 0.05978,0.44837 -0.298913,-0.298913 -0.627718,0 -0.23913,-0.209239 0.44837,-0.627718 0.149456,-0.388587 -0.179348,-0.328804 -0.179348,0 z m 11.269022,0.388587 0.538044,0.209239 0.807065,0.567935 0.358695,0.149456 0.05978,0.298913 0.328804,0.149457 c -0.09425,0.04643 -0.198227,0.07808 -0.298913,0.119565 -0.384054,-0.268484 -0.69497,-0.535244 -1.046195,-0.836956 l -0.388587,-0.179348 -0.388587,-0.358696 0.02989,-0.119565 z m -23.9130433,5.141304 8.1603263,14.048913 -9.6847829,-9.625 1.8233696,-1.076087 0.5081522,-0.298913 -0.388587,-0.448369 -1.7336956,-1.853261 1.3152174,-0.747283 z" />
</defs>
<acyl-settings>
<linearGradient
     id="linearGradient4321">
    <stop
       style="stop-color:#FFFFFF;stop-opacity:1.0;"
       offset="1.0"
       id="stop1" />
  </linearGradient>
<linearGradient
     inkscape:collect="always"
     xlink:href="#linearGradient4321"
     id="acyl_gradient"
     x1="50.0%"
     y1="0.0%"
     x2="50.0%"
     y2="100.0%" />
<filter>
    </filter>
<use id="1" style="fill:url(#acyl_gradient);filter:url(#filter1111)" xlink:href="#path-main" />
</acyl-settings>
</svg>
