<svg xmlns="http://www.w3.org/2000/svg" width="48" height="48">
<defs>
  <defs
     id="defs2385">
  </defs>
  <path
     id="path-main"
     d="M 33.684783,4.3722826 17.065217,13.967391 15.570652,11.1875 3.7038043,18.032609 5.2282609,20.8125 l -2.3913044,1.375 1.7934783,3.108696 -1.8532609,1.046195 -0.5081522,0.298913 0.388587,0.44837 1.763587,1.883152 L 2.5679348,30.019022 2,30.347826 2.4483696,30.766304 14.793478,43.05163 15.0625,43.320652 15.182065,43.5 46,25.714674 33.684783,4.3722826 z M 22.625,16.388587 c 1.555814,-0.01061 3.012314,0.640762 4.065217,2.0625 l 1.464674,1.972826 0.6875,-0.388587 c 0.707299,-0.372537 1.312156,-0.231452 1.793479,0.418478 l 4.095108,5.529892 c 0.235926,0.31857 0.359933,1.160522 -0.209239,1.464674 L 24.119565,32.918478 C 23.412266,33.291016 22.591905,32.818568 22.355978,32.5 L 18.26087,26.970109 c -0.481322,-0.649931 -0.378488,-1.151907 0.328804,-1.524457 l 0.717391,-0.358695 -1.434782,-1.972827 c -1.642778,-2.218246 -0.89131,-4.495036 1.584239,-5.798913 l 0.358695,-0.179347 c 0.928331,-0.488956 1.876294,-0.740919 2.809783,-0.747283 z m 0.02989,1.913043 c -0.491268,-0.0084 -1.025134,0.122401 -1.644021,0.44837 l -0.328805,0.179348 c -2.475588,1.303903 -1.049257,3.235938 -0.567935,3.885869 l 0.956522,1.315218 5.320652,-2.779892 -0.986413,-1.315217 c -0.360992,-0.487448 -1.276194,-1.708349 -2.75,-1.733696 z m 2.421196,5.201087 c -0.249762,0.0264 -0.494562,0.121768 -0.717391,0.239131 -0.891314,0.469457 -1.084806,1.482609 -0.478261,2.30163 0.343015,0.463173 0.871381,0.72579 1.434782,0.807065 l 1.225544,1.644022 c 0.39548,0.534022 1.152558,0.754493 1.733696,0.44837 0.581152,-0.306095 0.724284,-0.99044 0.328804,-1.524457 l -1.225544,-1.703804 c 0.121305,-0.440761 0.02176,-0.912103 -0.298913,-1.345109 -0.454909,-0.614262 -1.253431,-0.946033 -2.002717,-0.866848 z m -19.9673913,2.630435 8.1603263,14.048913 -9.6847829,-9.625 1.8233696,-1.076087 0.5081522,-0.298913 -0.388587,-0.448369 -1.7336956,-1.853261 1.3152174,-0.747283 z" />
</defs>
<acyl-settings>
<linearGradient
     id="linearGradient4321">
    <stop
       style="stop-color:#FFFFFF;stop-opacity:1.0;"
       offset="1.0"
       id="stop1" />
  </linearGradient>
<linearGradient
     inkscape:collect="always"
     xlink:href="#linearGradient4321"
     id="acyl_gradient"
     x1="50.0%"
     y1="0.0%"
     x2="50.0%"
     y2="100.0%" />
<filter>
    </filter>
<use id="1" style="fill:url(#acyl_gradient);filter:url(#filter1111)" xlink:href="#path-main" />
</acyl-settings>
</svg>
