<?xml version="1.0" encoding="UTF-8" standalone="no"?>
<!-- Created with Inkscape (http://www.inkscape.org/) -->

<svg
   xmlns:dc="http://purl.org/dc/elements/1.1/"
   xmlns:cc="http://creativecommons.org/ns#"
   xmlns:rdf="http://www.w3.org/1999/02/22-rdf-syntax-ns#"
   xmlns:svg="http://www.w3.org/2000/svg"
   xmlns="http://www.w3.org/2000/svg"
   xmlns:xlink="http://www.w3.org/1999/xlink"
   xmlns:inkscape="http://www.inkscape.org/namespaces/inkscape"
   version="1.0"
   width="96"
   height="96"
   id="svg2408">
  <defs
     id="defs2410">
    <linearGradient
       x1="65.15625"
       y1="16.125"
       x2="65.15625"
       y2="69.687508"
       id="linearGradient2675"
       xlink:href="#linearGradient3737"
       gradientUnits="userSpaceOnUse" />
    <linearGradient
       id="linearGradient3687">
      <stop
         id="stop3689"
         style="stop-color:#ffffff;stop-opacity:1"
         offset="0" />
      <stop
         id="stop3691"
         style="stop-color:#ffffff;stop-opacity:0"
         offset="1" />
    </linearGradient>
    <linearGradient
       id="linearGradient3175">
      <stop
         id="stop3177"
         style="stop-color:#55a6eb;stop-opacity:1"
         offset="0" />
      <stop
         id="stop3179"
         style="stop-color:#1754c4;stop-opacity:1"
         offset="1" />
    </linearGradient>
    <radialGradient
       cx="48"
       cy="-15.894132"
       r="35.9375"
       fx="48"
       fy="-15.894132"
       id="radialGradient3465"
       xlink:href="#linearGradient3175"
       gradientUnits="userSpaceOnUse"
       gradientTransform="matrix(-0.00506833,1.2204755,-1.3843695,-0.00574561,26.241279,-46.842142)" />
    <linearGradient
       x1="45.447727"
       y1="92.539597"
       x2="45.447727"
       y2="7.0165396"
       id="ButtonShadow"
       gradientUnits="userSpaceOnUse"
       gradientTransform="scale(1.0058652,0.994169)">
      <stop
         id="stop3750"
         style="stop-color:#000000;stop-opacity:1"
         offset="0" />
      <stop
         id="stop3752"
         style="stop-color:#000000;stop-opacity:0.58823532"
         offset="1" />
    </linearGradient>
    <linearGradient
       id="linearGradient3737">
      <stop
         id="stop3739"
         style="stop-color:#ffffff;stop-opacity:1"
         offset="0" />
      <stop
         id="stop3741"
         style="stop-color:#ffffff;stop-opacity:0"
         offset="1" />
    </linearGradient>
    <linearGradient
       id="linearGradient3700">
      <stop
         id="stop3702"
         style="stop-color:#dcdcdc;stop-opacity:1"
         offset="0" />
      <stop
         id="stop3704"
         style="stop-color:#f0f0f0;stop-opacity:1"
         offset="1" />
    </linearGradient>
    <filter
       color-interpolation-filters="sRGB"
       id="filter3174">
      <feGaussianBlur
         stdDeviation="1.71"
         id="feGaussianBlur3176" />
    </filter>
    <linearGradient
       x1="36.357143"
       y1="6"
       x2="36.357143"
       y2="63.893143"
       id="linearGradient3188"
       xlink:href="#linearGradient3737"
       gradientUnits="userSpaceOnUse" />
    <linearGradient
       x1="24.995535"
       y1="-2.75"
       x2="46.020512"
       y2="75.716286"
       id="linearGradient3507"
       xlink:href="#linearGradient3737"
       gradientUnits="userSpaceOnUse" />
    <linearGradient
       x1="24.995535"
       y1="-2.75"
       x2="46.020512"
       y2="75.716286"
       id="linearGradient3519"
       xlink:href="#linearGradient3737"
       gradientUnits="userSpaceOnUse" />
    <filter
       x="-0.168"
       y="-0.42000002"
       width="1.336"
       height="1.84"
       color-interpolation-filters="sRGB"
       id="filter3531">
      <feGaussianBlur
         stdDeviation="0.55"
         id="feGaussianBlur3533" />
    </filter>
    <linearGradient
       x1="10.898764"
       y1="20.867033"
       x2="67.260826"
       y2="64.556129"
       id="linearGradient3701"
       xlink:href="#linearGradient3737"
       gradientUnits="userSpaceOnUse"
       gradientTransform="translate(-80,0)" />
    <linearGradient
       x1="48"
       y1="90"
       x2="48"
       y2="5.9877172"
       id="linearGradient3735"
       xlink:href="#linearGradient3700"
       gradientUnits="userSpaceOnUse" />
    <linearGradient
       x1="142.47113"
       y1="16.125"
       x2="142.47113"
       y2="64.188072"
       id="linearGradient4126"
       xlink:href="#linearGradient3687"
       gradientUnits="userSpaceOnUse"
       gradientTransform="translate(-80,0)" />
    <linearGradient
       x1="68.517296"
       y1="9.0625"
       x2="68.517296"
       y2="87.868492"
       id="linearGradient4151"
       xlink:href="#linearGradient3737"
       gradientUnits="userSpaceOnUse" />
    <filter
       color-interpolation-filters="sRGB"
       id="filter4161">
      <feGaussianBlur
         id="feGaussianBlur4163"
         stdDeviation="0.50332031" />
    </filter>
    <linearGradient
       id="linearGradient3737-1">
      <stop
         id="stop3739-7"
         style="stop-color:#ffffff;stop-opacity:1"
         offset="0" />
      <stop
         id="stop3741-2"
         style="stop-color:#ffffff;stop-opacity:0"
         offset="1" />
    </linearGradient>
    <radialGradient
       cx="48"
       cy="90.171875"
       r="42"
       fx="48"
       fy="90.171875"
       id="radialGradient2874"
       xlink:href="#linearGradient3737-1"
       gradientUnits="userSpaceOnUse"
       gradientTransform="matrix(1.1573129,0,0,0.99590774,-7.551021,0.1971319)" />
    <linearGradient
       x1="45.447727"
       y1="92.539597"
       x2="45.447727"
       y2="7.0165396"
       id="ButtonShadow-0"
       gradientUnits="userSpaceOnUse"
       gradientTransform="matrix(1.0058652,0,0,0.994169,100,0)">
      <stop
         id="stop3750-8"
         style="stop-color:#000000;stop-opacity:1"
         offset="0" />
      <stop
         id="stop3752-5"
         style="stop-color:#000000;stop-opacity:0.58823532"
         offset="1" />
    </linearGradient>
    <linearGradient
       x1="32.251034"
       y1="6.1317081"
       x2="32.251034"
       y2="90.238609"
       id="linearGradient3780"
       xlink:href="#ButtonShadow-0"
       gradientUnits="userSpaceOnUse"
       gradientTransform="matrix(1.0238095,0,0,1.0119048,-1.1428571,-98.071429)" />
    <linearGradient
       x1="32.251034"
       y1="6.1317081"
       x2="32.251034"
       y2="90.238609"
       id="linearGradient3772"
       xlink:href="#ButtonShadow-0"
       gradientUnits="userSpaceOnUse"
       gradientTransform="matrix(1.0238095,0,0,1.0119048,-1.1428571,-98.071429)" />
    <linearGradient
       x1="32.251034"
       y1="6.1317081"
       x2="32.251034"
       y2="90.238609"
       id="linearGradient3725"
       xlink:href="#ButtonShadow-0"
       gradientUnits="userSpaceOnUse"
       gradientTransform="matrix(1.0238095,0,0,1.0119048,-1.1428571,-98.071429)" />
    <linearGradient
       x1="32.251034"
       y1="6.1317081"
       x2="32.251034"
       y2="90.238609"
       id="linearGradient3721"
       xlink:href="#ButtonShadow-0"
       gradientUnits="userSpaceOnUse"
       gradientTransform="translate(0,-97)" />
    <linearGradient
       x1="32.251034"
       y1="6.1317081"
       x2="32.251034"
       y2="90.238609"
       id="linearGradient2918"
       xlink:href="#ButtonShadow-0"
       gradientUnits="userSpaceOnUse"
       gradientTransform="matrix(1.0238095,0,0,1.0119048,-1.1428571,-98.071429)" />
  </defs>
  <metadata
     id="metadata2413">
    <rdf:RDF>
      <cc:Work
         rdf:about="">
        <dc:format>image/svg+xml</dc:format>
        <dc:type
           rdf:resource="http://purl.org/dc/dcmitype/StillImage" />
      </cc:Work>
    </rdf:RDF>
  </metadata>
  <g
     id="layer2"
     style="display:none">
    <rect
       width="86"
       height="85"
       rx="6"
       ry="6"
       x="5"
       y="7"
       id="rect3745"
       style="opacity:0.9;fill:url(#ButtonShadow);fill-opacity:1;fill-rule:nonzero;stroke:none;filter:url(#filter3174)" />
  </g>
  <g
     id="layer6"
     style="display:inline">
    <path
       d="m 12,-95.03125 c -5.5110903,0 -10.03125,4.52016 -10.03125,10.03125 l 0,71 c 0,5.5110902 4.5201598,10.03125 10.03125,10.03125 l 72,0 c 5.51109,0 10.03125,-4.5201597 10.03125,-10.03125 l 0,-71 c 0,-5.51109 -4.52016,-10.03125 -10.03125,-10.03125 l -72,0 z"
       transform="scale(1,-1)"
       id="path3786"
       style="opacity:0.07999998;fill:url(#linearGradient2918);fill-opacity:1;fill-rule:nonzero;stroke:none;display:inline" />
    <path
       d="m 12,-94.03125 c -4.971633,0 -9.03125,4.059617 -9.03125,9.03125 l 0,71 c 0,4.9716329 4.0596171,9.03125 9.03125,9.03125 l 72,0 c 4.971633,0 9.03125,-4.059617 9.03125,-9.03125 l 0,-71 c 0,-4.971633 -4.059617,-9.03125 -9.03125,-9.03125 l -72,0 z"
       transform="scale(1,-1)"
       id="path3778"
       style="opacity:0.1;fill:url(#linearGradient3780);fill-opacity:1;fill-rule:nonzero;stroke:none;display:inline" />
    <path
       d="m 12,-93 c -4.4091333,0 -8,3.590867 -8,8 l 0,71 c 0,4.4091333 3.5908667,8 8,8 l 72,0 c 4.409133,0 8,-3.5908667 8,-8 l 0,-71 c 0,-4.409133 -3.590867,-8 -8,-8 l -72,0 z"
       transform="scale(1,-1)"
       id="path3770"
       style="opacity:0.2;fill:url(#linearGradient3772);fill-opacity:1;fill-rule:nonzero;stroke:none;display:inline" />
    <rect
       width="86"
       height="85"
       rx="7"
       ry="7"
       x="5"
       y="-92"
       transform="scale(1,-1)"
       id="rect3723"
       style="opacity:0.3;fill:url(#linearGradient3725);fill-opacity:1;fill-rule:nonzero;stroke:none;display:inline" />
    <rect
       width="84"
       height="84"
       rx="6"
       ry="6"
       x="6"
       y="-91"
       transform="scale(1,-1)"
       id="rect3716"
       style="opacity:0.45;fill:url(#linearGradient3721);fill-opacity:1;fill-rule:nonzero;stroke:none;display:inline" />
  </g>
  <g
     id="layer3">
    <path
       d="m 12.0625,12.0625 0,53.875 71.875,0 0,-53.875 -71.875,0 z"
       transform="matrix(-1.0008688,0,0,-1.1558456,96.010447,88.220854)"
       id="path3215"
       style="fill:url(#radialGradient3465);fill-opacity:1;fill-rule:nonzero;stroke:none" />
    <path
       d="m 12,12 0,62.28125 71.9375,0 L 83.9375,12 12,12 z m 3,3 66,0 0,56 -66,0 0,-56 z"
       inkscape:connector-curvature="0"
       id="path3726"
       style="fill:#0e367e;fill-opacity:1;fill-rule:nonzero;stroke:none;filter:url(#filter4161)" />
  </g>
  <g
     id="layer1"
     style="display:inline">
    <path
       d="M 12,6 C 8.676,6 6,8.676 6,12 l 0,72 c 0,3.324 2.676,6 6,6 l 72,0 c 3.324,0 6,-2.676 6,-6 L 90,12 C 90,8.676 87.324,6 84,6 L 12,6 z m 2,7.494924 68.378807,0 0,58.505076 L 14,72 14,13.494924 z"
       inkscape:connector-curvature="0"
       id="rect2419"
       style="fill:url(#linearGradient3735);fill-opacity:1;fill-rule:nonzero;stroke:none" />
    <path
       d="M 12,6 C 8.676,6 6,8.676 6,12 l 0,2 0,68 0,2 c 0,0.334721 0.04135,0.6507 0.09375,0.96875 0.0487,0.295596 0.09704,0.596915 0.1875,0.875 0.00988,0.03038 0.020892,0.0636 0.03125,0.09375 0.098865,0.287771 0.2348802,0.547452 0.375,0.8125 0.1445918,0.273507 0.3156161,0.535615 0.5,0.78125 0.1843839,0.245635 0.3737765,0.473472 0.59375,0.6875 0.439947,0.428056 0.94291,0.814526 1.5,1.09375 0.278545,0.139612 0.5734731,0.246947 0.875,0.34375 -0.2562018,-0.100222 -0.4867109,-0.236272 -0.71875,-0.375 -0.00741,-0.0044 -0.023866,0.0045 -0.03125,0 -0.031933,-0.0193 -0.062293,-0.04251 -0.09375,-0.0625 -0.120395,-0.0767 -0.2310226,-0.163513 -0.34375,-0.25 -0.1061728,-0.0808 -0.2132809,-0.161112 -0.3125,-0.25 C 8.4783201,88.557317 8.3087904,88.373362 8.15625,88.1875 8.0486711,88.057245 7.9378561,87.922215 7.84375,87.78125 7.818661,87.74287 7.805304,87.69538 7.78125,87.65625 7.716487,87.553218 7.6510225,87.451733 7.59375,87.34375 7.4927417,87.149044 7.3880752,86.928049 7.3125,86.71875 7.30454,86.69694 7.288911,86.6782 7.28125,86.65625 7.2494249,86.5643 7.2454455,86.469419 7.21875,86.375 7.1884177,86.268382 7.1483606,86.171969 7.125,86.0625 7.0521214,85.720988 7,85.364295 7,85 L 7,83 7,15 7,13 C 7,10.218152 9.2181517,8 12,8 l 2,0 68,0 2,0 c 2.781848,0 5,2.218152 5,5 l 0,2 0,68 0,2 c 0,0.364295 -0.05212,0.720988 -0.125,1.0625 -0.04415,0.206893 -0.08838,0.397658 -0.15625,0.59375 -0.0077,0.02195 -0.0233,0.04069 -0.03125,0.0625 -0.06274,0.173739 -0.138383,0.367449 -0.21875,0.53125 -0.04158,0.0828 -0.07904,0.169954 -0.125,0.25 -0.0546,0.09721 -0.126774,0.18835 -0.1875,0.28125 -0.09411,0.140965 -0.204921,0.275995 -0.3125,0.40625 -0.143174,0.17445 -0.303141,0.346998 -0.46875,0.5 -0.01117,0.0102 -0.01998,0.02115 -0.03125,0.03125 -0.138386,0.125556 -0.285091,0.234436 -0.4375,0.34375 -0.102571,0.07315 -0.204318,0.153364 -0.3125,0.21875 -0.0074,0.0045 -0.02384,-0.0044 -0.03125,0 -0.232039,0.138728 -0.462548,0.274778 -0.71875,0.375 0.301527,-0.0968 0.596455,-0.204138 0.875,-0.34375 0.55709,-0.279224 1.060053,-0.665694 1.5,-1.09375 0.219973,-0.214028 0.409366,-0.441865 0.59375,-0.6875 0.184384,-0.245635 0.355408,-0.507743 0.5,-0.78125 0.14012,-0.265048 0.276135,-0.524729 0.375,-0.8125 0.01041,-0.03078 0.02133,-0.06274 0.03125,-0.09375 0.09046,-0.278085 0.1388,-0.579404 0.1875,-0.875 C 89.95865,84.6507 90,84.334721 90,84 l 0,-2 0,-68 0,-2 C 90,8.676 87.324,6 84,6 L 12,6 z"
       inkscape:connector-curvature="0"
       id="rect3728"
       style="fill:url(#linearGradient3188);fill-opacity:1;fill-rule:nonzero;stroke:none" />
    <path
       d="M 11.3125,8 C 9.42859,8 8,9.4293755 8,11.3125 l 0,63.375 C 8,76.570624 9.42859,78 11.3125,78 l 73.375,0 C 86.57141,78 88,76.570624 88,74.6875 l 0,-63.375 C 88,9.4293754 86.57141,8 84.6875,8 L 11.3125,8 z M 14,14 l 68,0 0,58 -68,0 0,-58 z"
       inkscape:connector-curvature="0"
       id="path3174"
       style="fill:#000000;fill-opacity:1;fill-rule:nonzero;stroke:none" />
    <path
       d="m 33,74 c -1.662,0 -3,1.338 -3,3 l -3,0 0,1 c 1.656,0 3,1.344 3,3 l 0,2 c 0,1.662 1.338,3 3,3 l 30,0 c 1.662,0 3,-1.338 3,-3 l 0,-2 c 0,-1.656 1.344,-3 3,-3 l 0,-1 -3,0 c 0,-1.662 -1.338,-3 -3,-3 l -30,0 z"
       inkscape:connector-curvature="0"
       id="rect3535"
       style="fill:#000000;fill-opacity:1;fill-rule:nonzero;stroke:none" />
    <path
       d="m 14,72 68,0 0,1 -68,0 0,-1 z"
       inkscape:connector-curvature="0"
       id="rect3483"
       style="fill:#7f7f7f;fill-opacity:1;fill-rule:nonzero;stroke:none" />
    <rect
       width="7.8571429"
       height="3.1428571"
       rx="1.5714285"
       ry="1.5714285"
       x="50.57143"
       y="79.535713"
       transform="matrix(1.2045455,0,0,1.4098656,-7.147728,-33.243035)"
       id="rect3525"
       style="opacity:0.24302787;fill:#ccff00;fill-opacity:1;fill-rule:nonzero;stroke:none;filter:url(#filter3531)" />
    <rect
       width="5"
       height="2"
       rx="1"
       ry="1"
       x="56"
       y="80.10714"
       id="rect3485"
       style="fill:#7fff2a;fill-opacity:1;fill-rule:nonzero;stroke:none" />
    <path
       d="m 8,74.6875 0,1 C 8,77.570624 9.42859,79 11.3125,79 L 27,79 c 1.656,0 3,1.344 3,3 l 0,-1 c 0,-1.656 -1.344,-3 -3,-3 L 11.3125,78 C 9.42859,78 8,76.570624 8,74.6875 z m 80,0 C 88,76.570624 86.57141,78 84.6875,78 L 69,78 c -1.656,0 -3,1.344 -3,3 l 0,1 c 0,-1.656 1.344,-3 3,-3 l 15.6875,0 C 86.57141,79 88,77.570624 88,75.6875 l 0,-1 z M 30,83 l 0,1 c 0,1.662 1.338,3 3,3 l 30,0 c 1.662,0 3,-1.338 3,-3 l 0,-1 c 0,1.662 -1.338,3 -3,3 l -30,0 c -1.662,0 -3,-1.338 -3,-3 z"
       inkscape:connector-curvature="0"
       id="path3737"
       style="fill:#ffffff;fill-opacity:1;fill-rule:nonzero;stroke:none" />
    <path
       d="M 12,90 C 8.676,90 6,87.324 6,84 L 6,82 6,14 6,12 c 0,-0.334721 0.04135,-0.6507 0.09375,-0.96875 0.0487,-0.295596 0.09704,-0.596915 0.1875,-0.875 C 6.29113,10.12587 6.302142,10.09265 6.3125,10.0625 6.411365,9.774729 6.5473802,9.515048 6.6875,9.25 6.8320918,8.976493 7.0031161,8.714385 7.1875,8.46875 7.3718839,8.223115 7.5612765,7.995278 7.78125,7.78125 8.221197,7.353194 8.72416,6.966724 9.28125,6.6875 9.559795,6.547888 9.8547231,6.440553 10.15625,6.34375 9.9000482,6.443972 9.6695391,6.580022 9.4375,6.71875 c -0.00741,0.0044 -0.023866,-0.0045 -0.03125,0 -0.031933,0.0193 -0.062293,0.04251 -0.09375,0.0625 -0.120395,0.0767 -0.2310226,0.163513 -0.34375,0.25 -0.1061728,0.0808 -0.2132809,0.161112 -0.3125,0.25 C 8.4783201,7.442683 8.3087904,7.626638 8.15625,7.8125 8.0486711,7.942755 7.9378561,8.077785 7.84375,8.21875 7.818661,8.25713 7.805304,8.30462 7.78125,8.34375 7.716487,8.446782 7.6510225,8.548267 7.59375,8.65625 7.4927417,8.850956 7.3880752,9.071951 7.3125,9.28125 7.30454,9.30306 7.288911,9.3218 7.28125,9.34375 7.2494249,9.4357 7.2454455,9.530581 7.21875,9.625 7.1884177,9.731618 7.1483606,9.828031 7.125,9.9375 7.0521214,10.279012 7,10.635705 7,11 l 0,2 0,68 0,2 c 0,2.781848 2.2181517,5 5,5 l 2,0 68,0 2,0 c 2.781848,0 5,-2.218152 5,-5 l 0,-2 0,-68 0,-2 C 89,10.635705 88.94788,10.279012 88.875,9.9375 88.83085,9.730607 88.78662,9.539842 88.71875,9.34375 88.71105,9.3218 88.69545,9.30306 88.6875,9.28125 88.62476,9.107511 88.549117,8.913801 88.46875,8.75 88.42717,8.6672 88.38971,8.580046 88.34375,8.5 88.28915,8.40279 88.216976,8.31165 88.15625,8.21875 88.06214,8.077785 87.951329,7.942755 87.84375,7.8125 87.700576,7.63805 87.540609,7.465502 87.375,7.3125 87.36383,7.3023 87.35502,7.29135 87.34375,7.28125 87.205364,7.155694 87.058659,7.046814 86.90625,6.9375 86.803679,6.86435 86.701932,6.784136 86.59375,6.71875 c -0.0074,-0.0045 -0.02384,0.0044 -0.03125,0 -0.232039,-0.138728 -0.462548,-0.274778 -0.71875,-0.375 0.301527,0.0968 0.596455,0.204138 0.875,0.34375 0.55709,0.279224 1.060053,0.665694 1.5,1.09375 0.219973,0.214028 0.409366,0.441865 0.59375,0.6875 0.184384,0.245635 0.355408,0.507743 0.5,0.78125 0.14012,0.265048 0.276135,0.524729 0.375,0.8125 0.01041,0.03078 0.02133,0.06274 0.03125,0.09375 0.09046,0.278085 0.1388,0.579404 0.1875,0.875 C 89.95865,11.3493 90,11.665279 90,12 l 0,2 0,68 0,2 c 0,3.324 -2.676,6 -6,6 l -72,0 z"
       inkscape:connector-curvature="0"
       id="path3615"
       style="opacity:0.6;fill:url(#radialGradient2874);fill-opacity:1;fill-rule:nonzero;stroke:none" />
  </g>
  <g
     id="layer4"
     style="display:none">
    <path
       d="m 11.3125,9.15625 c -1.296799,0 -2.15625,0.860159 -2.15625,2.15625 l 0,63.375 c 0,1.296091 0.859451,2.15625 2.15625,2.15625 l 21.40625,0 c 0.426766,-0.0067 0.822797,0.221297 1.03125,0.59375 l 3.28125,6 c 0.294483,0.539885 0.491672,1.007766 0.65625,1.21875 0.164578,0.210984 0.117222,0.1875 0.3125,0.1875 l 7.15625,0 -4.46875,-13.6875 -24.6875,0 C 15.362464,71.153739 14.846261,70.637536 14.84375,70 l 0,-54 c -0.0056,-0.571296 0.405297,-1.061742 0.96875,-1.15625 0.0624,-0.0051 0.125102,-0.0051 0.1875,0 l 6.25,0 -1.875,-5.6875 -9.0625,0 z m 28.6875,0 3.28125,5.6875 36.71875,0 c 0.637536,0.0025 1.153739,0.518714 1.15625,1.15625 l 0,54 C 81.153739,70.637536 80.637536,71.153739 80,71.15625 l -4.21875,0 3.28125,5.6875 5.625,0 c 1.296799,0 2.15625,-0.860159 2.15625,-2.15625 l 0,-63.375 c 0,-1.296091 -0.859451,-2.15625 -2.15625,-2.15625 l -44.6875,0 z"
       inkscape:connector-curvature="0"
       id="path3488"
       style="opacity:0.4;fill:url(#linearGradient3507);fill-opacity:1;fill-rule:evenodd;stroke:none" />
    <path
       d="m 17,17 0,52 22.96875,0 -17,-52 L 17,17 z m 27.53125,0 30,52 L 79,69 79,17 44.53125,17 z"
       inkscape:connector-curvature="0"
       id="path3515"
       style="opacity:0.6;fill:url(#linearGradient3519);fill-opacity:1;fill-rule:evenodd;stroke:none" />
  </g>
  <g
     id="layer5"
     style="display:inline">
    <path
       d="M 11.3125,8 C 9.42859,8 8,9.4293755 8,11.3125 l 0,63.375 C 8,76.570624 9.42859,78 11.3125,78 L 27,78 c 1.656,0 3,1.344 3,3 l 0,2 c 0,1.662 1.338,3 3,3 l 30,0 c 1.662,0 3,-1.338 3,-3 l 0,-2 c 0,-1.656 1.344,-3 3,-3 l 15.6875,0 C 86.57141,78 88,76.570624 88,74.6875 l 0,-63.375 C 88,9.4293754 86.57141,8 84.6875,8 L 11.3125,8 z M 14,14 l 68,0 0,58 -68,0 0,-58 z"
       inkscape:connector-curvature="0"
       id="path3691"
       style="fill:#000000;fill-opacity:1;fill-rule:nonzero;stroke:none;display:none" />
    <path
       d="m -67.183181,87.787674 c 0,0 -3.073698,-20.843788 -3.073698,-20.843788 0,0 14.075575,-5.321516 14.075575,-5.321516 0,0 5.126318,18.755244 5.126318,18.755244 0,0 -16.128195,7.41006 -16.128195,7.41006 0,0 0,0 0,0 m 18.009946,-8.274625 c 0,0 -5.349846,-18.517598 -5.349846,-18.517598 0,0 12.539717,-4.740858 12.539717,-4.740858 0,0 6.91754,16.77684 6.91754,16.77684 0,0 -14.107411,6.481616 -14.107411,6.481616 0,0 0,0 0,0 m 15.760722,-7.241226 c 0,0 -7.088658,-16.577597 -7.088658,-16.577597 0,0 11.24222,-4.250318 11.24222,-4.250318 0,0 8.290445,15.110545 8.290445,15.110545 0,0 -12.444007,5.71737 -12.444007,5.71737 0,0 0,0 0,0 m 13.908085,-6.390036 c 0,0 -8.421751,-14.941755 -8.421751,-14.941755 0,0 10.136189,-3.832163 10.136189,-3.832163 0,0 9.343968,13.693161 9.343968,13.693161 0,0 -11.058406,5.080757 -11.058406,5.080757 0,0 0,0 0,0 m -51.040001,-0.887872 c 0,0 -2.229883,-15.121608 -2.229883,-15.121608 0,0 12.32755,-3.855628 12.32755,-3.855628 0,0 3.78132,13.834412 3.78132,13.834412 0,0 -13.878987,5.142824 -13.878987,5.142824 0,0 0,0 0,0 m 15.515538,-5.749244 c 0,0 -3.953928,-13.685863 -3.953928,-13.685863 0,0 11.151219,-3.487713 11.151219,-3.487713 0,0 5.188709,12.583974 5.188709,12.583974 0,0 -12.386,4.589602 -12.386,4.589602 0,0 0,0 0,0 m 13.851212,-5.132533 c 0,0 -5.326357,-12.456258 -5.326357,-12.456258 0,0 10.13559,-3.170059 10.13559,-3.170059 0,0 6.31238,11.50523 6.31238,11.50523 0,0 -11.121613,4.121087 -11.121613,4.121087 0,0 0,0 0,0 m 12.441048,-4.61 c 0,0 -6.422422,-11.394573 -6.422422,-11.394573 0,0 9.252664,-2.893912 9.252664,-2.893912 0,0 7.211182,10.56766 7.211182,10.56766 0,0 -10.041424,3.720825 -10.041424,3.720825 0,0 0,0 0,0 M -72.988265,48.42142 c 0,0 -1.69154,-11.470908 -1.69154,-11.470908 0,0 10.963533,-2.895725 10.963533,-2.895725 0,0 2.904172,10.625261 2.904172,10.625261 0,0 -12.176165,3.741372 -12.176165,3.741372 0,0 0,0 0,0 m 13.623117,-4.185977 c 0,0 -3.041208,-10.526637 -3.041208,-10.526637 0,0 10.034007,-2.650214 10.034007,-2.650214 0,0 4.035881,9.788067 4.035881,9.788067 0,0 -11.02868,3.388784 -11.02868,3.388784 0,0 0,0 0,0 m 12.342468,-3.792471 c 0,0 -4.148469,-9.701647 -4.148469,-9.701647 0,0 9.217882,-2.434657 9.217882,-2.434657 0,0 4.966686,9.052511 4.966686,9.052511 0,0 -10.036099,3.083793 -10.036099,3.083793 0,0 0,0 0,0 m 11.234294,-3.451963 c 0,0 -5.059404,-8.976324 -5.059404,-8.976324 0,0 8.497435,-2.24437 8.497435,-2.24437 0,0 5.73371,8.402493 5.73371,8.402493 0,0 -9.171741,2.818201 -9.171741,2.818201 0,0 0,0 0,0 m -39.0568,-1.161994 c 0,0 -1.327119,-8.999644 -1.327119,-8.999644 0,0 9.870118,-2.235457 9.870118,-2.235457 0,0 2.300466,8.416526 2.300466,8.416526 0,0 -10.843465,2.818575 -10.843465,2.818575 0,0 0,0 0,0 m 12.139723,-3.155517 c 0,0 -2.411775,-8.347961 -2.411775,-8.347961 0,0 9.117238,-2.064941 9.117238,-2.064941 0,0 3.228792,7.830661 3.228792,7.830661 0,0 -9.934255,2.582241 -9.934255,2.582241 0,0 0,0 0,0 m 11.124093,-2.891519 c 0,0 -3.32235,-7.769677 -3.32235,-7.769677 0,0 8.447339,-1.913217 8.447339,-1.913217 0,0 4.009806,7.308457 4.009806,7.308457 0,0 -9.134795,2.374437 -9.134795,2.374437 0,0 0,0 0,0 m 10.230798,-2.659324 c 0,0 -4.088608,-7.253953 -4.088608,-7.253953 0,0 7.848653,-1.777621 7.848653,-1.777621 0,0 4.668061,6.84083 4.668061,6.84083 0,0 -8.428106,2.190744 -8.428106,2.190744 0,0 0,0 0,0"
       inkscape:connector-curvature="0"
       id="path3698"
       style="fill:url(#linearGradient3701);fill-opacity:1;fill-rule:nonzero;stroke:none" />
    <path
       d="m 47.65625,16.125 22.03125,63.75 1,0 -22.03125,-63.75 -1,0 z"
       inkscape:connector-curvature="0"
       id="path2669"
       style="opacity:0.5;fill:url(#linearGradient2675);fill-opacity:1;fill-rule:evenodd;stroke:none" />
    <path
       d="m 47.65625,16.125 22.03125,63.75 9.3125,0 c 0.538805,0 0.875,-0.336196 0.875,-0.875 l 0,-62 c 0,-0.538805 -0.336194,-0.875 -0.875,-0.875 l -31.34375,0 z"
       inkscape:connector-curvature="0"
       id="path3664"
       style="opacity:0.7;fill:url(#linearGradient4126);fill-opacity:1;fill-rule:evenodd;stroke:none" />
    <path
       d="m 45.03125,9.0625 1.375,3.875 35.59375,0 c 0.58434,0.0059 1.0566,0.478159 1.0625,1.0625 l 0,58 C 83.0566,72.584341 82.58434,73.056599 82,73.0625 l -14.25,0 1.375,3.875 15.5625,0 c 1.34102,0 2.25,-0.909693 2.25,-2.25 l 0,-63.375 c 0,-1.3403079 -0.90898,-2.25 -2.25,-2.25 l -39.65625,0 z"
       inkscape:connector-curvature="0"
       id="path4128"
       style="opacity:0.3;fill:url(#linearGradient4151);fill-opacity:1;fill-rule:evenodd;stroke:none" />
  </g>
</svg>
