<?xml version="1.0" encoding="UTF-8" standalone="no"?>
<!-- Created with Inkscape (http://www.inkscape.org/) -->

<svg
   xmlns:dc="http://purl.org/dc/elements/1.1/"
   xmlns:cc="http://creativecommons.org/ns#"
   xmlns:rdf="http://www.w3.org/1999/02/22-rdf-syntax-ns#"
   xmlns:svg="http://www.w3.org/2000/svg"
   xmlns="http://www.w3.org/2000/svg"
   xmlns:xlink="http://www.w3.org/1999/xlink"
   xmlns:inkscape="http://www.inkscape.org/namespaces/inkscape"
   version="1.0"
   width="96"
   height="96"
   id="svg2408"
   style="display:inline">
  <defs
     id="defs2410">
    <linearGradient
       id="linearGradient3875">
      <stop
         id="stop3877"
         style="stop-color:#ffffff;stop-opacity:1"
         offset="0" />
      <stop
         id="stop3879"
         style="stop-color:#ffffff;stop-opacity:0.42635658"
         offset="1" />
    </linearGradient>
    <linearGradient
       x1="45.447727"
       y1="92.539597"
       x2="45.447727"
       y2="7.0165396"
       id="ButtonShadow"
       gradientUnits="userSpaceOnUse"
       gradientTransform="scale(1.0058652,0.994169)">
      <stop
         id="stop3750"
         style="stop-color:#000000;stop-opacity:1"
         offset="0" />
      <stop
         id="stop3752"
         style="stop-color:#000000;stop-opacity:0.58823532"
         offset="1" />
    </linearGradient>
    <filter
       color-interpolation-filters="sRGB"
       id="filter3174">
      <feGaussianBlur
         id="feGaussianBlur3176"
         stdDeviation="1.71" />
    </filter>
    <linearGradient
       id="linearGradient3737-6">
      <stop
         id="stop3739-73"
         style="stop-color:#ffffff;stop-opacity:1"
         offset="0" />
      <stop
         id="stop3741-6"
         style="stop-color:#ffffff;stop-opacity:0"
         offset="1" />
    </linearGradient>
    <clipPath
       id="clipPath3613">
      <rect
         width="84"
         height="84"
         rx="6"
         ry="6"
         x="6"
         y="6"
         id="rect3615"
         style="fill:#ffffff;fill-opacity:1;fill-rule:nonzero;stroke:none" />
    </clipPath>
    <linearGradient
       x1="48"
       y1="20.220806"
       x2="48"
       y2="138.66119"
       id="linearGradient2885"
       xlink:href="#linearGradient3737-6"
       gradientUnits="userSpaceOnUse" />
    <radialGradient
       cx="48"
       cy="41.752277"
       r="42"
       fx="48"
       fy="41.752277"
       id="radialGradient2977"
       xlink:href="#linearGradient3737-5"
       gradientUnits="userSpaceOnUse"
       gradientTransform="matrix(1.7146179,6.6254866e-8,-4.2857144e-8,1.1091053,-134.30166,-5.082394)" />
    <radialGradient
       cx="48"
       cy="90.171875"
       r="42"
       fx="48"
       fy="90.171875"
       id="radialGradient2855-1"
       xlink:href="#linearGradient3737-1-4"
       gradientUnits="userSpaceOnUse"
       gradientTransform="matrix(1.1573129,0,0,0.99590774,-7.551021,0.19713)" />
    <linearGradient
       id="linearGradient3737-1-4">
      <stop
         id="stop3739-7-1"
         style="stop-color:#ffffff;stop-opacity:1"
         offset="0" />
      <stop
         id="stop3741-2-0"
         style="stop-color:#ffffff;stop-opacity:0"
         offset="1" />
    </linearGradient>
    <linearGradient
       x1="36.357143"
       y1="6"
       x2="36.357143"
       y2="63.893143"
       id="linearGradient3188-9"
       xlink:href="#linearGradient3737-5"
       gradientUnits="userSpaceOnUse" />
    <linearGradient
       id="linearGradient3737-5">
      <stop
         id="stop3739-6"
         style="stop-color:#ffffff;stop-opacity:1"
         offset="0" />
      <stop
         id="stop3741-7"
         style="stop-color:#ffffff;stop-opacity:0"
         offset="1" />
    </linearGradient>
    <filter
       x="-0.14399999"
       y="-0.14399999"
       width="1.288"
       height="1.288"
       color-interpolation-filters="sRGB"
       id="filter4123">
      <feGaussianBlur
         id="feGaussianBlur4125"
         stdDeviation="3.96" />
    </filter>
    <linearGradient
       x1="45.447727"
       y1="92.539597"
       x2="45.447727"
       y2="7.0165396"
       id="ButtonShadow-0"
       gradientUnits="userSpaceOnUse"
       gradientTransform="matrix(1.0058652,0,0,0.994169,100,0)">
      <stop
         id="stop3750-8"
         style="stop-color:#000000;stop-opacity:1"
         offset="0" />
      <stop
         id="stop3752-5"
         style="stop-color:#000000;stop-opacity:0.58823532"
         offset="1" />
    </linearGradient>
    <linearGradient
       x1="32.251034"
       y1="6.1317081"
       x2="32.251034"
       y2="90.238609"
       id="linearGradient3780"
       xlink:href="#ButtonShadow-0"
       gradientUnits="userSpaceOnUse"
       gradientTransform="matrix(1.0238095,0,0,1.0119048,-1.1428571,-98.071429)" />
    <linearGradient
       x1="32.251034"
       y1="6.1317081"
       x2="32.251034"
       y2="90.238609"
       id="linearGradient3772"
       xlink:href="#ButtonShadow-0"
       gradientUnits="userSpaceOnUse"
       gradientTransform="matrix(1.0238095,0,0,1.0119048,-1.1428571,-98.071429)" />
    <linearGradient
       x1="32.251034"
       y1="6.1317081"
       x2="32.251034"
       y2="90.238609"
       id="linearGradient3725"
       xlink:href="#ButtonShadow-0"
       gradientUnits="userSpaceOnUse"
       gradientTransform="matrix(1.0238095,0,0,1.0119048,-1.1428571,-98.071429)" />
    <linearGradient
       x1="32.251034"
       y1="6.1317081"
       x2="32.251034"
       y2="90.238609"
       id="linearGradient3721"
       xlink:href="#ButtonShadow-0"
       gradientUnits="userSpaceOnUse"
       gradientTransform="translate(0,-97)" />
    <linearGradient
       x1="32.251034"
       y1="6.1317081"
       x2="32.251034"
       y2="90.238609"
       id="linearGradient3071"
       xlink:href="#ButtonShadow-0"
       gradientUnits="userSpaceOnUse"
       gradientTransform="matrix(1.0238095,0,0,1.0119048,-1.1428571,-98.071429)" />
    <radialGradient
       cx="63.98003"
       cy="61.948856"
       r="58.01997"
       fx="63.98003"
       fy="61.948856"
       id="radialGradient5232-9"
       xlink:href="#linearGradient3875"
       gradientUnits="userSpaceOnUse"
       gradientTransform="matrix(1.090012,0,0,0.84044811,-21.739002,-5.4878171)" />
    <linearGradient
       x1="48"
       y1="90"
       x2="48"
       y2="5.9877172"
       id="linearGradient3345"
       xlink:href="#linearGradient3700-5-1-1"
       gradientUnits="userSpaceOnUse" />
    <linearGradient
       id="linearGradient3543">
      <stop
         id="stop3545"
         style="stop-color:#ffffff;stop-opacity:1"
         offset="0" />
      <stop
         id="stop3555"
         style="stop-color:#ffffff;stop-opacity:1"
         offset="0.30645162" />
      <stop
         id="stop3551"
         style="stop-color:#ffffff;stop-opacity:0.640625"
         offset="0.51899064" />
      <stop
         id="stop3547"
         style="stop-color:#ffffff;stop-opacity:0"
         offset="1" />
    </linearGradient>
    <radialGradient
       cx="74.375"
       cy="67.125"
       r="3.125"
       fx="74.375"
       fy="67.125"
       id="radialGradient3443"
       xlink:href="#linearGradient3543"
       gradientUnits="userSpaceOnUse" />
    <radialGradient
       cx="74.375"
       cy="67.125"
       r="3.125"
       fx="74.375"
       fy="67.125"
       id="radialGradient3445"
       xlink:href="#linearGradient3543"
       gradientUnits="userSpaceOnUse" />
    <radialGradient
       cx="74.375"
       cy="67.125"
       r="3.125"
       fx="74.375"
       fy="67.125"
       id="radialGradient3447"
       xlink:href="#linearGradient3543"
       gradientUnits="userSpaceOnUse" />
    <radialGradient
       cx="74.375"
       cy="67.125"
       r="3.125"
       fx="74.375"
       fy="67.125"
       id="radialGradient3449"
       xlink:href="#linearGradient3543"
       gradientUnits="userSpaceOnUse" />
    <radialGradient
       cx="74.375"
       cy="67.125"
       r="3.125"
       fx="74.375"
       fy="67.125"
       id="radialGradient3451"
       xlink:href="#linearGradient3543"
       gradientUnits="userSpaceOnUse" />
    <linearGradient
       id="linearGradient5226-0">
      <stop
         id="stop5228-7"
         style="stop-color:#ffffff;stop-opacity:1"
         offset="0" />
      <stop
         id="stop5230-6"
         style="stop-color:#ffffff;stop-opacity:0"
         offset="1" />
    </linearGradient>
    <radialGradient
       cx="74.375"
       cy="67.125"
       r="3.125"
       fx="74.375"
       fy="67.125"
       id="radialGradient3216"
       xlink:href="#linearGradient3543"
       gradientUnits="userSpaceOnUse" />
    <radialGradient
       cx="49.233551"
       cy="70.608253"
       r="25.483549"
       fx="49.233551"
       fy="70.608253"
       id="radialGradient4246"
       xlink:href="#linearGradient5226-0"
       gradientUnits="userSpaceOnUse"
       gradientTransform="matrix(0.46811249,-0.52911558,1.7948202,1.5821666,-112.03757,-37.344561)" />
    <radialGradient
       cx="63.875"
       cy="2.2173476"
       r="58.375"
       fx="63.875"
       fy="2.2173476"
       id="radialGradient4248"
       xlink:href="#linearGradient5226-0"
       gradientUnits="userSpaceOnUse"
       gradientTransform="matrix(1.0948456,0,0,0.33117465,-21.844872,32.792567)" />
    <radialGradient
       cx="69.75"
       cy="75.973572"
       r="58.5"
       fx="69.75"
       fy="75.973572"
       id="radialGradient4250"
       xlink:href="#linearGradient5226-0"
       gradientUnits="userSpaceOnUse"
       gradientTransform="matrix(2.2593878,-0.06832043,0.00797869,0.26385907,-105.95706,38.8624)" />
    <radialGradient
       cx="64.230392"
       cy="68.449158"
       r="43.769611"
       fx="64.230392"
       fy="68.449158"
       id="radialGradient4252"
       xlink:href="#linearGradient5226-0"
       gradientUnits="userSpaceOnUse"
       gradientTransform="matrix(1.4544425,0,0,0.92610887,-45.079796,-12.6013)" />
    <radialGradient
       cx="74.375"
       cy="67.125"
       r="3.125"
       fx="74.375"
       fy="67.125"
       id="radialGradient3354"
       xlink:href="#linearGradient3543"
       gradientUnits="userSpaceOnUse" />
    <linearGradient
       x1="48"
       y1="41"
       x2="60"
       y2="41"
       id="linearGradient3954"
       xlink:href="#linearGradient3956"
       gradientUnits="userSpaceOnUse"
       gradientTransform="matrix(1.5,0,0,1.5,-24,4)"
       spreadMethod="reflect" />
    <linearGradient
       id="linearGradient3956">
      <stop
         id="stop3958"
         style="stop-color:#e6c94c;stop-opacity:1"
         offset="0" />
      <stop
         id="stop3966"
         style="stop-color:#e7ce5f;stop-opacity:1"
         offset="0.57832253" />
      <stop
         id="stop3960"
         style="stop-color:#f0de93;stop-opacity:1"
         offset="0.83333331" />
      <stop
         id="stop3962"
         style="stop-color:#d0b64c;stop-opacity:1"
         offset="0.91666669" />
      <stop
         id="stop3964"
         style="stop-color:#907d2e;stop-opacity:1"
         offset="1" />
    </linearGradient>
    <linearGradient
       x1="48"
       y1="41"
       x2="60"
       y2="41"
       id="linearGradient3945"
       xlink:href="#linearGradient3956"
       gradientUnits="userSpaceOnUse"
       gradientTransform="matrix(1.5,0,0,1.5,-24,-5)"
       spreadMethod="reflect" />
    <linearGradient
       x1="48"
       y1="41"
       x2="60"
       y2="41"
       id="linearGradient3933"
       xlink:href="#linearGradient3956"
       gradientUnits="userSpaceOnUse"
       gradientTransform="matrix(1.5,0,0,1.5,-24,-14)"
       spreadMethod="reflect" />
    <linearGradient
       x1="56.727566"
       y1="37.282234"
       x2="48.758419"
       y2="23.479269"
       id="linearGradient4039"
       xlink:href="#linearGradient4033"
       gradientUnits="userSpaceOnUse"
       gradientTransform="matrix(1.5,0,0,1.5,-24,-14)" />
    <linearGradient
       id="linearGradient4033">
      <stop
         id="stop4035"
         style="stop-color:#000000;stop-opacity:1"
         offset="0" />
      <stop
         id="stop4037"
         style="stop-color:#000000;stop-opacity:0"
         offset="1" />
    </linearGradient>
    <linearGradient
       x1="39.03125"
       y1="35.984375"
       x2="47.230457"
       y2="24.974846"
       id="linearGradient4011"
       xlink:href="#linearGradient4005"
       gradientUnits="userSpaceOnUse"
       gradientTransform="matrix(1.5,0,0,1.5,-24,-14)" />
    <linearGradient
       id="linearGradient4005">
      <stop
         id="stop4007"
         style="stop-color:#000000;stop-opacity:1"
         offset="0" />
      <stop
         id="stop4009"
         style="stop-color:#000000;stop-opacity:0"
         offset="1" />
    </linearGradient>
    <linearGradient
       x1="48"
       y1="36"
       x2="56.96875"
       y2="36"
       id="linearGradient3983"
       xlink:href="#linearGradient3977"
       gradientUnits="userSpaceOnUse"
       gradientTransform="matrix(1.5,0,0,1.5,-24,-14)"
       spreadMethod="reflect" />
    <linearGradient
       id="linearGradient3977">
      <stop
         id="stop3979"
         style="stop-color:#cbcbcb;stop-opacity:1"
         offset="0" />
      <stop
         id="stop3981"
         style="stop-color:#efefef;stop-opacity:1"
         offset="1" />
    </linearGradient>
    <linearGradient
       id="linearGradient3700-5-1-1">
      <stop
         id="stop3702-0-2-7"
         style="stop-color:#285178;stop-opacity:1"
         offset="0" />
      <stop
         id="stop3704-4-9-2"
         style="stop-color:#4f759a;stop-opacity:1"
         offset="1" />
    </linearGradient>
  </defs>
  <metadata
     id="metadata2413">
    <rdf:RDF>
      <cc:Work
         rdf:about="">
        <dc:format>image/svg+xml</dc:format>
        <dc:type
           rdf:resource="http://purl.org/dc/dcmitype/StillImage" />
        <dc:title />
      </cc:Work>
    </rdf:RDF>
  </metadata>
  <g
     id="layer2"
     style="display:none">
    <rect
       width="86"
       height="85"
       rx="6"
       ry="6"
       x="5"
       y="7"
       id="rect3745"
       style="opacity:0.9;fill:url(#ButtonShadow);fill-opacity:1;fill-rule:nonzero;stroke:none;filter:url(#filter3174)" />
  </g>
  <g
     id="layer5"
     style="display:inline">
    <path
       d="m 12,-95.03125 c -5.5110903,0 -10.03125,4.52016 -10.03125,10.03125 l 0,71 c 0,5.5110902 4.5201598,10.03125 10.03125,10.03125 l 72,0 c 5.51109,0 10.03125,-4.5201597 10.03125,-10.03125 l 0,-71 c 0,-5.51109 -4.52016,-10.03125 -10.03125,-10.03125 l -72,0 z"
       transform="scale(1,-1)"
       id="path3786"
       style="opacity:0.07999998;fill:url(#linearGradient3071);fill-opacity:1;fill-rule:nonzero;stroke:none;display:inline" />
    <path
       d="m 12,-94.03125 c -4.971633,0 -9.03125,4.059617 -9.03125,9.03125 l 0,71 c 0,4.9716329 4.0596171,9.03125 9.03125,9.03125 l 72,0 c 4.971633,0 9.03125,-4.059617 9.03125,-9.03125 l 0,-71 c 0,-4.971633 -4.059617,-9.03125 -9.03125,-9.03125 l -72,0 z"
       transform="scale(1,-1)"
       id="path3778"
       style="opacity:0.1;fill:url(#linearGradient3780);fill-opacity:1;fill-rule:nonzero;stroke:none;display:inline" />
    <path
       d="m 12,-93 c -4.4091333,0 -8,3.590867 -8,8 l 0,71 c 0,4.4091333 3.5908667,8 8,8 l 72,0 c 4.409133,0 8,-3.5908667 8,-8 l 0,-71 c 0,-4.409133 -3.590867,-8 -8,-8 l -72,0 z"
       transform="scale(1,-1)"
       id="path3770"
       style="opacity:0.2;fill:url(#linearGradient3772);fill-opacity:1;fill-rule:nonzero;stroke:none;display:inline" />
    <rect
       width="86"
       height="85"
       rx="7"
       ry="7"
       x="5"
       y="-92"
       transform="scale(1,-1)"
       id="rect3723"
       style="opacity:0.3;fill:url(#linearGradient3725);fill-opacity:1;fill-rule:nonzero;stroke:none;display:inline" />
    <rect
       width="84"
       height="84"
       rx="6"
       ry="6"
       x="6"
       y="-91"
       transform="scale(1,-1)"
       id="rect3716"
       style="opacity:0.45;fill:url(#linearGradient3721);fill-opacity:1;fill-rule:nonzero;stroke:none;display:inline" />
  </g>
  <g
     id="layer1"
     style="display:inline">
    <rect
       width="84"
       height="84"
       rx="6"
       ry="6"
       x="6"
       y="6"
       id="rect2419-8"
       style="fill:url(#linearGradient3345);fill-opacity:1;fill-rule:nonzero;stroke:none;display:inline" />
    <path
       d="m -63.72611,6.0817017 c 1.65011,2.216692 0.11258,5.9183373 2.60147,5.8815913 1.2119,1.714016 -2.41545,0.511296 0.20359,1.832342 1.50611,1.186578 -1.59338,1.86454 0.27179,2.929374 -2.14969,1.109666 0.34845,5.803987 1.94512,6.978848 2.62796,2.213161 1.16221,-4.685722 4.0945,-5.044597 1.59336,-1.819699 4.39184,-2.987811 6.37927,-4.818381 -1.9423,-0.15774 -3.07646,-1.367135 -1.23703,-2.116304 3.38546,3.470394 0.84891,-1.643528 -1.02513,-2.4532403 1.81337,-0.577046 3.57698,-0.154481 3.32537,-1.65137 1.91632,-1.402516 -1.84226,-1.855344 -3.18394,-1.538263 -4.45834,0 -8.91668,0 -13.37501,0 z m -27.80185,1.447777 c -2.44976,0.698195 -2.62065,6.5548783 -0.15835,3.3027393 0.60434,-1.3353663 3.39707,-2.9446723 0.15835,-3.3027393 z m 11.44649,0.203593 c -1.41226,2.2153416 0.20491,3.9914993 1.37991,1.289427 0.83171,-1.128343 -0.61793,-1.248085 -1.37991,-1.289427 z m 3.52895,0.497674 c -2.72875,1.265212 -0.6726,4.2155643 -0.60506,4.8717383 2.87456,0.994829 4.47323,-0.650437 5.5607,2.161488 2.73516,1.576935 -0.0538,4.317061 -1.08055,5.030674 1.84934,-1.611189 5.40416,4.380481 4.47225,1.214924 -1.11178,-0.812076 2.98516,1.304563 0.85962,-1.334669 -1.95606,-3.152657 0.15527,-1.411414 0.97995,-0.675608 2.80489,-2.516097 -3.17359,-2.820214 -1.68121,-5.409578 -1.30776,-1.059583 -3.02289,-4.2694933 -5.33868,-3.642063 -1.55024,2.005564 -0.21416,-4.3699603 -2.48861,-1.1795633 -0.11789,1.7834153 -0.0429,4.0464553 -0.70571,0.9568243 -0.44407,-0.5408723 0.764,-1.7982983 0.0273,-1.9941673 z m -5.56489,0.022621 c -1.8316,0.610853 -1.73323,3.0865053 0.51896,3.3519113 0.77143,-0.879633 0.30649,-3.1853383 -0.51896,-3.3519113 z m -7.1484,0.791753 c -2.37908,0.563878 -1.40799,2.4828653 -0.67958,3.0233213 -2.94491,0.737923 4.4957,0.943126 0.79269,1.410494 -3.0808,1.230835 2.96666,2.680942 3.95876,1.221561 3.80439,0.930735 0.13691,-3.046545 -0.19704,-5.2025323 -1.61275,-1.731481 -0.0637,3.9915333 -1.52187,0.184408 -0.50878,1.1305433 -2.12652,0.166598 -2.35296,-0.637252 z m 75.60113,0.248837 c -3.19245,1.2498623 1.98418,5.9664343 0.69764,1.6754943 -0.12817,-0.518125 0.2882,-1.8871053 -0.69764,-1.6754943 z m -66.66563,1.9002053 c -2.29408,2.156707 2.91599,3.940201 -0.6589,5.546906 -0.53601,-2.002938 -1.45827,1.002105 -3.50346,-0.615417 -3.5159,1.464466 -5.31387,-0.762828 -8.25754,-2.28957 -1.76803,-0.220164 -1.10378,1.680533 -1.22088,3.460193 0,4.918306 0,9.836614 0,14.75492 1.73349,1.82448 0.67633,0.804976 0,0.301752 0.95147,3.241642 -0.41957,7.980231 3.33085,9.86583 0.63757,1.183033 3.31289,6.223076 3.43622,4.715046 -1.34121,-1.405066 -2.71735,-5.617387 -0.44789,-1.863024 2.03275,3.568795 4.77475,5.883507 8.78047,6.73276 2.19006,0.745225 3.99117,3.306965 5.91712,2.743325 1.08905,2.871967 -3.22742,5.629887 0.14491,8.308597 1.76052,2.7118 4.71619,4.4904 3.11596,8.29758 -1.11907,3.71826 -0.63992,7.76974 -1.60778,11.23409 -0.3004,2.10873 2.93803,7.46101 2.65747,3.17511 0.94557,-2.9784 0.92064,-6.25562 3.14758,-8.36483 3.04711,0.02413 0.58237,-3.27775 3.60701,-2.84642 1.84564,-2.42007 2.38023,-5.30712 5.49491,-6.26809 0.37204,-2.9376 5.17882,-7.43659 0.21313,-8.580318 -1.3496,-0.665451 -4.8245,-0.904732 -4.55895,-1.233078 0.53804,-2.914877 -4.49346,-3.744701 -6.63422,-4.937269 -2.81076,-1.995848 -7.03424,3.315594 -8.02452,-1.261025 -0.59087,-1.439948 -2.75132,-1.463301 -1.75843,-3.68521 -1.78939,1.780326 -5.28934,1.23924 -4.37303,-2.198916 1.39157,-2.895595 6.73564,-3.032599 7.64626,0.450282 -1.26435,-3.841203 2.44394,-6.83143 4.50253,-9.564217 0.41916,-1.3062 2.90974,-2.428425 2.05267,-0.692421 1.46016,-0.05269 3.6733,-2.688637 1.07941,-1.472012 -0.0367,-2.403896 -2.27297,-1.720272 -2.99799,-1.378934 1.34377,-2.133574 8.24499,-0.967127 5.3551,-4.454587 -2.23931,-0.907679 -2.05303,-6.204449 -4.318,-3.253597 0.19059,-1.818146 -4.61001,-5.377145 -4.50526,-2.328319 0.58599,2.728128 0.10714,5.870869 -1.13992,7.659113 -0.26025,-3.99762 -7.07568,-3.114085 -6.19943,-7.373995 1.26944,-2.030291 2.75285,-4.83791 2.89418,-4.585337 2.27505,-0.868941 4.10459,-3.396512 1.46783,-5.058122 -0.14091,1.448202 -1.98303,4.436139 -1.72366,0.822325 -1.70579,2.02318 -1.3162,-3.219407 -2.91375,-3.763121 z m 54.45,1.402533 c -3.99594,0.977838 -5.58006,4.795836 -7.55681,7.958163 -2.91386,1.314237 -2.80294,6.958318 0.45241,5.155674 0.87128,1.522277 -0.60951,3.921673 1.92831,1.931216 2.047,-2.709901 0.35794,-7.092756 3.84142,-8.801515 0.25373,1.32865 -3.21333,6.289871 0.837,5.474405 3.66156,0.138209 -2.66186,0.364969 -0.88101,2.704729 -1.85026,-1.098211 -0.88882,2.999333 -3.30397,2.045788 -2.09233,1.138533 -3.46434,-0.528629 -2.98503,-2.35496 -1.64596,0.960573 0.51769,3.67045 -2.33959,3.83331 -0.64004,2.273659 -5.90338,1.930962 -2.91021,4.246159 1.3289,3.445358 -4.95153,0.215986 -3.16853,4.35053 1.52545,4.088438 4.7224,-1.354722 6.01944,-2.406348 2.50247,-1.941872 6.21066,3.311089 3.95876,3.506335 2.52508,-0.338912 2.00619,-2.74125 -0.017,-3.671301 -1.09268,-2.834933 3.45903,1.390324 3.2066,2.811683 1.60594,3.008346 0.94461,-3.080088 2.57885,-0.384565 -0.1908,2.843378 6.57418,0.668556 3.34439,4.292415 -2.77687,0.559513 -5.51013,-0.716143 -7.90083,0.100926 -2.22511,-0.01969 -2.11347,-2.397964 -2.92358,-2.993542 -2.83037,0.23004 -6.32794,0.204027 -8.22277,2.491404 -2.04902,2.812343 -5.00383,6.743795 -2.77053,10.334807 2.23488,5.321462 7.77719,0.276028 10.96298,3.418767 0.94693,1.310381 -0.8206,2.868035 1.29671,4.287425 0.7967,3.02353 -0.90449,5.89433 1.05226,8.78464 1.01184,2.7182 1.63978,6.78664 5.40576,4.30281 3.98577,-2.39945 2.92416,-6.8227 6.21294,-9.27265 -2.60227,-5.038063 3.18363,-7.247103 4.62722,-11.337101 -3.15394,0.461909 -5.96377,-2.68376 -6.72579,-5.84994 -1.32493,-1.537885 -0.98367,-3.805502 0.49633,-0.916468 2.03426,1.971905 2.07822,7.823061 5.84127,4.813019 1.72035,-0.719835 6.41861,-3.465723 2.67511,-4.71532 -2.41304,1.748397 -5.07525,-5.224262 -1.53182,-1.179972 2.57604,1.093303 4.37998,1.744706 4.37998,-1.880149 0,-9.766125 0,-19.664578 0,-29.496868 -0.8024,0.82028 -2.8638,2.335242 -3.90428,1.328569 -1.79037,0.249406 -4.15389,3.734285 -3.59125,0.365539 -1.55624,-0.103093 -0.27859,3.020534 -2.41664,3.107891 -0.21529,1.605887 -2.15987,0.297377 -1.42943,1.822369 -1.50065,-1.064875 -2.77067,-4.427041 0.18614,-2.316729 4.39102,-1.317844 -2.8956,-4.290405 -3.45804,-5.008905 0.94545,-0.226615 -1.02861,-1.212248 -1.26681,-0.88224 z m -36.23967,0.88224 c -1.46151,1.2182 2.77853,1.447612 0,0 z m -19.52238,0.656023 c -1.63465,1.710504 2.60328,1.572448 0,0 z m 9.47842,1.696613 c -1.23787,2.028578 1.82903,0.748943 0,0 z m 27.10058,2.39788 c -1.44923,1.669078 -3.36205,-0.439263 -3.39323,0.995347 0.26265,0.433474 1.31468,3.527292 3.61944,1.244183 1.23699,-0.52171 0.74997,-1.836879 -0.22621,-2.23953 z m -30.85575,0.995347 c -2.74881,2.401478 4.6683,2.622741 0.58232,0.275426 l -0.58232,-0.275426 z m 36.26229,6.650724 c -1.97908,1.291041 0.94944,4.032808 -0.0431,5.320723 -1.2401,2.161465 4.60833,-0.152255 1.48462,-1.87676 -0.22257,-1.481616 -1.83002,-3.289356 -1.44154,-3.443963 z m -1.33466,2.601473 c -2.7574,0.779858 -0.62597,4.806237 0.35065,1.013998 0.055,-0.219858 0.12936,-1.021351 -0.35065,-1.013998 z m -22.07861,2.918175 c -2.56522,1.749832 -0.39843,3.496444 1.48156,2.709121 -0.38595,-1.055763 -1.46417,-1.720956 -1.48156,-2.709121 z m 48.4553,2.940797 c 1.27995,0.646198 -2.34553,1.750082 -0.0498,2.887358 1.33598,1.571671 0.83231,4.945457 -1.3392,2.557643 0.40344,-2.665992 -2.94356,-4.656978 1.38903,-5.445001 z m -6.58287,0.02262 c -0.17366,1.712793 3.69395,4.375139 -0.47504,3.506334 -2.20475,0.258725 -5.50697,-0.06739 -2.72943,-2.815681 0.87765,-0.527085 3.18206,1.818498 1.98292,-0.373952 0.42514,-0.02713 0.82107,-0.187672 1.22155,-0.316701 z m -12.73591,3.709927 c -1.60811,1.036413 1.11198,1.831121 0,0 z M -74.31299,47.7279 c -0.2711,0.904805 5.086,1.821755 1.38931,0.372149 l -0.55107,-0.194046 -0.83824,-0.178103 z m 4.16236,1.289426 c -1.62491,1.650213 3.34781,0.493017 0,0 z m 54.3369,15.133794 c -3.53072,0.09113 -3.06133,9.20159 -0.60013,3.81083 0.2334,-1.16979 1.1689,-2.71377 0.60013,-3.81083 z"
       inkscape:connector-curvature="0"
       id="path3522"
       style="opacity:0.2;fill:url(#radialGradient2977);fill-opacity:1;stroke:none;display:inline" />
    <path
       d="m 12,6.0000002 c -3.324,0 -6,2.676 -6,5.9999998 l 0,2 0,68 0,2 c 0,0.334721 0.04135,0.6507 0.09375,0.96875 0.0487,0.295596 0.09704,0.596915 0.1875,0.875 0.00988,0.03038 0.020892,0.0636 0.03125,0.09375 0.098865,0.287771 0.2348802,0.547452 0.375,0.8125 0.1445918,0.273507 0.3156161,0.535615 0.5,0.78125 0.1843839,0.245635 0.3737765,0.473472 0.59375,0.6875 0.439947,0.428056 0.94291,0.814526 1.5,1.09375 0.278545,0.139612 0.5734731,0.246947 0.875,0.34375 -0.2562018,-0.100222 -0.4867109,-0.236272 -0.71875,-0.375 -0.00741,-0.0044 -0.023866,0.0045 -0.03125,0 -0.031933,-0.0193 -0.062293,-0.04251 -0.09375,-0.0625 -0.120395,-0.0767 -0.2310226,-0.163513 -0.34375,-0.25 -0.1061728,-0.0808 -0.2132809,-0.161112 -0.3125,-0.25 C 8.4783201,88.557317 8.3087904,88.373362 8.15625,88.1875 8.0486711,88.057245 7.9378561,87.922215 7.84375,87.78125 7.818661,87.74287 7.805304,87.69538 7.78125,87.65625 7.716487,87.553218 7.6510225,87.451733 7.59375,87.34375 7.4927417,87.149044 7.3880752,86.928049 7.3125,86.71875 7.30454,86.69694 7.288911,86.6782 7.28125,86.65625 7.249425,86.5643 7.245445,86.469419 7.21875,86.375 7.188418,86.268382 7.148361,86.171969 7.125,86.0625 7.052121,85.720988 7,85.364295 7,85 L 7,83 7,15 7,13 C 7,10.218152 9.2181517,8.0000002 12,8.0000002 l 2,0 68,0 2,0 c 2.781848,0 5,2.2181518 5,4.9999998 l 0,2 0,68 0,2 c 0,0.364295 -0.05212,0.720988 -0.125,1.0625 -0.04415,0.206893 -0.08838,0.397658 -0.15625,0.59375 -0.0077,0.02195 -0.0233,0.04069 -0.03125,0.0625 -0.06274,0.173739 -0.138383,0.367449 -0.21875,0.53125 -0.04158,0.0828 -0.07904,0.169954 -0.125,0.25 -0.0546,0.09721 -0.126774,0.18835 -0.1875,0.28125 -0.09411,0.140965 -0.204921,0.275995 -0.3125,0.40625 -0.143174,0.17445 -0.303141,0.346998 -0.46875,0.5 -0.01117,0.0102 -0.01998,0.02115 -0.03125,0.03125 -0.138386,0.125556 -0.285091,0.234436 -0.4375,0.34375 -0.102571,0.07315 -0.204318,0.153364 -0.3125,0.21875 -0.0074,0.0045 -0.02384,-0.0044 -0.03125,0 -0.232039,0.138728 -0.462548,0.274778 -0.71875,0.375 0.301527,-0.0968 0.596455,-0.204138 0.875,-0.34375 0.55709,-0.279224 1.060053,-0.665694 1.5,-1.09375 0.219973,-0.214028 0.409366,-0.441865 0.59375,-0.6875 0.184384,-0.245635 0.355408,-0.507743 0.5,-0.78125 0.14012,-0.265048 0.276135,-0.524729 0.375,-0.8125 0.01041,-0.03078 0.02133,-0.06274 0.03125,-0.09375 0.09046,-0.278085 0.1388,-0.579404 0.1875,-0.875 C 89.95865,84.6507 90,84.334721 90,84 l 0,-2 0,-68 0,-2 C 90,8.6760002 87.324,6.0000002 84,6.0000002 l -72,0 z"
       inkscape:connector-curvature="0"
       id="rect3728"
       style="opacity:0.25;fill:url(#linearGradient3188-9);fill-opacity:1;fill-rule:nonzero;stroke:none" />
    <path
       d="M 12,90 C 8.676,90 6,87.324 6,84 L 6,82 6,14 6,12 c 0,-0.33472 0.04135,-0.6507 0.09375,-0.96875 0.0487,-0.2956 0.09704,-0.59691 0.1875,-0.875 0.0099,-0.0304 0.02089,-0.0636 0.03125,-0.0937 C 6.41136,9.77478 6.54738,9.5151 6.6875,9.25005 6.832092,8.97654 7.003116,8.71443 7.1875,8.4688 7.371884,8.22317 7.561276,7.99533 7.78125,7.7813 8.221197,7.35324 8.72416,6.96677 9.28125,6.68755 9.559795,6.54794 9.854723,6.4406 10.15625,6.3438 9.900048,6.44402 9.669539,6.58007 9.4375,6.7188 9.4301,6.7228 9.41363,6.7148 9.40625,6.7188 9.37432,6.7381 9.34396,6.7613 9.3125,6.7813 9.192105,6.858 9.081477,6.94481 8.96875,7.0313 8.862577,7.1121 8.755469,7.19241 8.65625,7.2813 8.47832,7.44273 8.30879,7.62669 8.15625,7.81255 8.048671,7.94281 7.937856,8.07784 7.84375,8.2188 7.81866,8.2572 7.8053,8.3047 7.78125,8.3438 7.71649,8.44683 7.651022,8.54832 7.59375,8.6563 7.492742,8.85101 7.388075,9.072 7.3125,9.2813 7.3045,9.3031 7.28891,9.3218 7.28125,9.3438 7.24942,9.4357 7.24545,9.53063 7.21875,9.62505 7.18842,9.73167 7.14836,9.82808 7.125,9.93755 7.052121,10.27901 7,10.63571 7,11 l 0,2 0,68 0,2 c 0,2.78185 2.218152,5 5,5 l 2,0 68,0 2,0 c 2.781848,0 5,-2.21815 5,-5 l 0,-2 0,-68 0,-2 C 89,10.63571 88.94788,10.27901 88.875,9.9375 88.83085,9.73061 88.78662,9.53984 88.71875,9.34375 88.71105,9.32175 88.69545,9.30305 88.6875,9.28125 88.62476,9.10751 88.549117,8.9138 88.46875,8.75 88.42717,8.6672 88.38971,8.58005 88.34375,8.5 88.28915,8.4028 88.216976,8.31165 88.15625,8.21875 88.06214,8.07779 87.951329,7.94276 87.84375,7.8125 87.700576,7.63805 87.540609,7.4655 87.375,7.3125 87.36383,7.3023 87.35502,7.2913 87.34375,7.2813 87.205364,7.15574 87.058659,7.04686 86.90625,6.93755 86.803679,6.86445 86.701932,6.78419 86.59375,6.7188 c -0.0074,-0.004 -0.02384,0.004 -0.03125,0 -0.232039,-0.13873 -0.462548,-0.27478 -0.71875,-0.375 0.301527,0.0968 0.596455,0.20414 0.875,0.34375 0.55709,0.27922 1.060053,0.66569 1.5,1.09375 0.219973,0.21403 0.409366,0.44187 0.59375,0.6875 0.184384,0.24563 0.355408,0.50774 0.5,0.78125 0.14012,0.26505 0.276135,0.52473 0.375,0.8125 0.01041,0.0308 0.02133,0.0627 0.03125,0.0937 0.09046,0.27809 0.1388,0.5794 0.1875,0.875 C 89.95865,11.3493 90,11.66528 90,12 l 0,2 0,68 0,2 c 0,3.324 -2.676,6 -6,6 l -72,0 z"
       inkscape:connector-curvature="0"
       id="path3615"
       style="opacity:0.15;fill:url(#radialGradient2855-1);fill-opacity:1;fill-rule:nonzero;stroke:none" />
    <path
       d="m 36.27388,6.096377 c 1.65012,2.2155912 0.11259,5.915398 2.60148,5.878671 1.2119,1.713164 -2.41545,0.511042 0.2036,1.831432 1.5061,1.185988 -1.5934,1.863613 0.27178,2.927919 -2.14968,1.109114 0.34844,5.801103 1.94512,6.97538 2.62795,2.212061 1.1622,-4.683394 4.0945,-5.04209 1.59336,-1.818795 4.39184,-2.986327 6.37927,-4.815989 -1.9423,-0.15766 -3.07647,-1.366454 -1.23702,-2.115252 3.38545,3.468671 0.8489,-1.642711 -1.02514,-2.452023 1.81336,-0.5767594 3.57698,-0.154404 3.32537,-1.6505493 1.91632,-1.4018192 -1.84226,-1.8544226 -3.18394,-1.5374987 -4.45834,0 -8.91667,0 -13.37502,0 z M 8.472035,7.5434349 C 6.022275,8.2412831 5.851393,14.095058 8.313685,10.844535 8.918028,9.50983 11.710762,7.901324 8.472035,7.5434349 z M 19.918529,7.746927 c -1.41226,2.214241 0.204911,3.989518 1.379911,1.288786 0.83171,-1.1277826 -0.617931,-1.2474651 -1.379911,-1.288786 z m 3.528951,0.4974263 c -2.728751,1.2645837 -0.6726,4.2134717 -0.60506,4.8693197 2.87457,0.994334 4.47323,-0.650114 5.56069,2.160413 2.73516,1.576152 -0.0538,4.314918 -1.08054,5.028176 1.84934,-1.610389 5.40416,4.378304 4.47226,1.214321 -1.11179,-0.811673 2.98515,1.303915 0.85962,-1.334006 -1.95607,-3.151091 0.15527,-1.410713 0.97995,-0.675273 2.80488,-2.514847 -3.1736,-2.818813 -1.68123,-5.40689 C 30.64542,13.041357 28.93028,9.83304 26.6145,10.46016 25.06426,12.464727 26.40035,6.0923691 24.12589,9.281181 c -0.11789,1.782531 -0.0429,4.044447 -0.70571,0.956351 -0.44407,-0.540606 0.764,-1.7974072 0.0273,-1.9931787 z m -5.56489,0.022612 C 16.050988,8.8775146 16.149361,11.351938 18.401546,11.617212 19.17298,10.738016 18.70804,8.4334551 17.88259,8.2669652 z M 10.734187,9.058325 c -2.379078,0.563598 -1.407992,2.481632 -0.679572,3.02182 -2.944918,0.737557 4.49569,0.942657 0.79268,1.409793 -3.08079,1.230224 2.966663,2.67961 3.958767,1.220954 3.804388,0.930273 0.136908,-3.045031 -0.197041,-5.199948 -1.612752,-1.7306215 -0.06365,3.989551 -1.521868,0.184316 -0.508787,1.129983 -2.126528,0.166515 -2.352966,-0.636935 z M 86.33531,9.307037 c -3.19244,1.249243 1.98418,5.963472 0.69765,1.674664 -0.12817,-0.517868 0.28819,-1.886169 -0.69765,-1.674664 z M 19.66969,11.2063 c -2.294083,2.155636 2.91599,3.938244 -0.658894,5.54415 -0.53602,-2.001942 -1.458276,1.001608 -3.503467,-0.615111 -3.515899,1.46374 -5.313868,-0.762449 -8.257534,-2.288432 -1.768029,-0.220055 -1.103781,1.679698 -1.220884,3.458474 0,4.915862 0,9.831727 0,14.74759 1.733489,1.823574 0.676329,0.804576 0,0.301602 0.951467,3.240031 -0.419572,7.976266 3.330851,9.860928 0.637563,1.182446 3.312882,6.219986 3.43622,4.712704 -1.341214,-1.404368 -2.717353,-5.614596 -0.447896,-1.862098 2.032756,3.567022 4.774753,5.880584 8.780474,6.729415 2.19006,0.744855 3.99117,3.305322 5.91712,2.741963 1.08905,2.870539 -3.22741,5.627088 0.14491,8.30447 1.76052,2.71045 4.71618,4.488168 3.11596,8.29345 -1.11907,3.716413 -0.63993,7.765882 -1.60779,11.228513 -0.30039,2.107681 2.93804,7.457302 2.65747,3.173531 0.94557,-2.976918 0.92064,-6.252508 3.14759,-8.360679 3.04711,0.02412 0.58237,-3.276114 3.607,-2.844995 1.84565,-2.418872 2.38023,-5.304486 5.49491,-6.264978 0.37205,-2.936144 5.17882,-7.4329 0.21314,-8.576056 -1.34961,-0.665119 -4.8245,-0.904282 -4.55894,-1.232465 0.53803,-2.913429 -4.49347,-3.742841 -6.63424,-4.934817 -2.81075,-1.994856 -7.03423,3.313948 -8.02451,-1.260398 -0.59088,-1.439233 -2.75133,-1.462574 -1.75843,-3.683379 -1.78939,1.779441 -5.28934,1.238624 -4.373028,-2.197824 1.391566,-2.894156 6.735638,-3.031092 7.646258,0.450058 -1.26435,-3.839294 2.44394,-6.828036 4.50253,-9.559465 0.41916,-1.305551 2.90974,-2.427219 2.05268,-0.692077 1.46015,-0.05266 3.67328,-2.687302 1.07941,-1.471281 -0.0367,-2.402702 -2.27298,-1.719417 -2.998,-1.378249 1.34377,-2.132514 8.24498,-0.966646 5.35509,-4.452373 -2.2393,-0.907229 -2.05302,-6.201368 -4.318,-3.251981 0.1906,-1.817243 -4.61001,-5.374474 -4.50525,-2.327163 0.58599,2.726773 0.10714,5.867952 -1.13992,7.655308 -0.26025,-3.995633 -7.075686,-3.112538 -6.199431,-7.370332 1.269451,-2.029282 2.752851,-4.835506 2.894181,-4.583059 2.27505,-0.868509 4.10459,-3.394824 1.46783,-5.055609 -0.14092,1.447483 -1.98303,4.433935 -1.72366,0.821917 -1.705794,2.022175 -1.3162,-3.217808 -2.91375,-3.761252 z m 54.45,1.401837 c -3.99594,0.977352 -5.58007,4.793453 -7.55681,7.954209 -2.91386,1.313584 -2.80294,6.954861 0.45241,5.153113 0.87128,1.52152 -0.60951,3.919724 1.92831,1.930256 2.047,-2.708555 0.35794,-7.089232 3.84142,-8.797142 0.25374,1.32799 -3.21334,6.286746 0.83699,5.471685 3.66156,0.13814 -2.66185,0.364788 -0.88099,2.703385 -1.85027,-1.097665 -0.88884,2.997843 -3.30399,2.044772 -2.09232,1.137967 -3.46433,-0.528366 -2.98503,-2.353789 -1.64596,0.960095 0.5177,3.668626 -2.33958,3.831405 -0.64005,2.272529 -5.90338,1.930002 -2.9102,4.244049 1.3289,3.443647 -4.95154,0.215879 -3.16854,4.348369 1.52545,4.086407 4.7224,-1.354049 6.01943,-2.405153 2.50248,-1.940907 6.21066,3.309444 3.95877,3.504593 2.52508,-0.338743 2.00619,-2.739888 -0.0169,-3.669477 -1.09268,-2.833524 3.45903,1.389634 3.2066,2.810286 1.60595,3.006852 0.94462,-3.078557 2.57885,-0.384373 -0.1908,2.841965 6.57418,0.668223 3.34439,4.290282 -2.77688,0.559235 -5.51013,-0.715787 -7.90083,0.100876 -2.22511,-0.01969 -2.11347,-2.396773 -2.92358,-2.992055 -2.83037,0.229926 -6.32794,0.203926 -8.22277,2.490166 -2.04902,2.810946 -5.00383,6.740445 -2.77053,10.329674 2.23487,5.318818 7.77718,0.27589 10.96298,3.417068 0.94693,1.309731 -0.8206,2.86661 1.2967,4.285291 0.79672,3.022035 -0.90448,5.891404 1.05227,8.780282 1.01184,2.716843 1.63978,6.783262 5.40576,4.300665 3.98577,-2.398255 2.92416,-6.819304 6.21294,-9.268036 -2.60227,-5.035562 3.18363,-7.243505 4.62722,-11.33147 -3.15395,0.461678 -5.96377,-2.682428 -6.72579,-5.847035 -1.32494,-1.53712 -0.98368,-3.80361 0.49633,-0.916013 2.03426,1.970926 2.07821,7.819175 5.84127,4.810628 1.72035,-0.719477 6.4186,-3.464001 2.67511,-4.712977 -2.41304,1.747528 -5.07525,-5.221667 -1.53182,-1.179385 2.57602,1.092759 4.37996,1.743838 4.37996,-1.879216 0,-9.761273 0,-19.654809 0,-29.482214 -0.8024,0.819872 -2.8638,2.334082 -3.90428,1.32791 -1.79037,0.249281 -4.15389,3.732429 -3.59125,0.365356 -1.55624,-0.103042 -0.27858,3.019034 -2.41664,3.106347 -0.21529,1.605089 -2.15987,0.29723 -1.42943,1.821464 -1.50065,-1.064346 -2.77067,-4.424842 0.18614,-2.315577 4.39103,-1.31719 -2.8956,-4.288275 -3.45804,-5.006418 0.94545,-0.226501 -1.02861,-1.211646 -1.26681,-0.881801 z m -36.23968,0.881801 c -1.4615,1.217596 2.77854,1.446893 0,0 z m -19.522371,0.655697 c -1.634647,1.709655 2.603281,1.571667 0,0 z m 9.478421,1.69577 c -1.23786,2.027571 1.82903,0.748571 0,0 z m 27.10058,2.39669 c -1.44923,1.668248 -3.36205,-0.439045 -3.39323,0.994852 0.26265,0.433258 1.31467,3.52554 3.61945,1.243565 1.23698,-0.521451 0.74995,-1.835967 -0.22622,-2.238417 z m -30.85575,0.994852 c -2.74881,2.400285 4.6683,2.621438 0.58232,0.275289 l -0.58232,-0.27529 z m 36.2623,6.647418 c -1.97909,1.2904 0.94943,4.030804 -0.0431,5.318079 -1.2401,2.160392 4.60832,-0.152179 1.48461,-1.875826 -0.22257,-1.48088 -1.83002,-3.287723 -1.44154,-3.442253 z m -1.33468,2.600181 c -2.75739,0.779471 -0.62595,4.803849 0.35067,1.013493 0.0549,-0.219748 0.12936,-1.020842 -0.35067,-1.013493 z m -22.0786,2.916726 c -2.56522,1.748962 -0.39843,3.494707 1.48156,2.707775 -0.38596,-1.055239 -1.46417,-1.720102 -1.48156,-2.707775 z m 48.4553,2.939335 c 1.27995,0.645878 -2.34554,1.749213 -0.0498,2.885924 1.33598,1.570889 0.83231,4.942999 -1.3392,2.556372 0.40344,-2.664667 -2.94356,-4.654664 1.38903,-5.442296 z m -6.58287,0.02261 c -0.17366,1.711943 3.69395,4.372967 -0.47504,3.504593 -2.20475,0.258597 -5.50697,-0.06736 -2.72943,-2.814283 0.87765,-0.526822 3.18206,1.817596 1.98292,-0.373765 0.42513,-0.02712 0.82107,-0.18758 1.22155,-0.316545 z M 66.06643,38.0673 c -1.60811,1.035898 1.11199,1.830212 0,0 z m -40.37941,9.654585 c -0.27111,0.904354 5.08598,1.82085 1.38929,0.371963 l -0.55107,-0.193949 -0.83822,-0.178014 z m 4.16235,1.288785 c -1.62491,1.649392 3.34782,0.492772 0,0 z m 54.3369,15.126272 c -3.53072,0.09109 -3.06133,9.197024 -0.60013,3.808943 0.2334,-1.169216 1.1689,-2.712425 0.60013,-3.808943 z"
       inkscape:connector-curvature="0"
       id="path3522-9"
       style="opacity:0.4;fill:url(#radialGradient5232-9);fill-opacity:1;stroke:none;display:inline" />
  </g>
  <g
     id="layer4"
     style="display:none">
    <rect
       width="66"
       height="66"
       rx="12"
       ry="12"
       x="15"
       y="15"
       clip-path="url(#clipPath3613)"
       id="rect3171"
       style="opacity:0.15;fill:url(#linearGradient2885);fill-opacity:1;fill-rule:nonzero;stroke:#ffffff;stroke-width:0.5;stroke-linecap:round;stroke-linejoin:miter;stroke-miterlimit:4;stroke-opacity:1;stroke-dasharray:none;stroke-dashoffset:0;filter:url(#filter4123)" />
  </g>
  <g
     id="layer3"
     style="display:inline">
    <g
       id="g4234">
      <path
         d="M 7,29.523112 C 58.250036,38.347576 38.633643,89 38.633643,89"
         inkscape:connector-curvature="0"
         id="path3583"
         style="fill:none;stroke:url(#radialGradient4246);stroke-width:2;stroke-linecap:butt;stroke-linejoin:miter;stroke-miterlimit:4;stroke-opacity:1;stroke-dasharray:none;display:inline" />
      <path
         d="M 27.676739,88.823511 C 26.616393,73.292454 56.129343,28.640665 88.823332,20.875137"
         inkscape:connector-curvature="0"
         id="path3581"
         style="fill:none;stroke:url(#radialGradient4252);stroke-width:2;stroke-linecap:butt;stroke-linejoin:miter;stroke-miterlimit:4;stroke-opacity:1;stroke-dasharray:none;display:inline" />
      <path
         d="m 77.5,67.125 a 3.125,3.125 0 1 1 -6.25,0 3.125,3.125 0 1 1 6.25,0 z"
         transform="matrix(1.3572422,0,0,1.3554377,-73.268157,-53.871603)"
         id="path3537"
         style="fill:url(#radialGradient3216);fill-opacity:1;fill-rule:evenodd;stroke:none;display:inline" />
      <path
         d="m 77.5,67.125 a 3.125,3.125 0 1 1 -6.25,0 3.125,3.125 0 1 1 6.25,0 z"
         transform="matrix(1.0744835,0,0,1.0730548,-39.513825,-14.090919)"
         id="path3557"
         style="fill:url(#radialGradient3443);fill-opacity:1;fill-rule:evenodd;stroke:none;display:inline" />
      <path
         d="m 77.5,67.125 a 3.125,3.125 0 1 1 -6.25,0 3.125,3.125 0 1 1 6.25,0 z"
         transform="matrix(1.5834493,0,0,1.581344,-53.333661,-72.388859)"
         id="path3561"
         style="fill:url(#radialGradient3445);fill-opacity:1;fill-rule:evenodd;stroke:none;display:inline" />
      <path
         d="m 77.5,67.125 a 3.125,3.125 0 1 1 -6.25,0 3.125,3.125 0 1 1 6.25,0 z"
         transform="matrix(1.0219348,0,0,1.020576,-15.635673,-16.92189)"
         id="path3565"
         style="opacity:0.6;fill:url(#radialGradient3447);fill-opacity:1;fill-rule:evenodd;stroke:none;display:inline" />
      <path
         d="m 77.5,67.125 a 3.125,3.125 0 1 1 -6.25,0 3.125,3.125 0 1 1 6.25,0 z"
         transform="matrix(0.89260147,0,0,0.89141463,-51.611367,-28.371713)"
         id="path3569"
         style="opacity:0.7;fill:url(#radialGradient3449);fill-opacity:1;fill-rule:evenodd;stroke:none;display:inline" />
      <path
         d="m 77.5,67.125 a 3.125,3.125 0 1 1 -6.25,0 3.125,3.125 0 1 1 6.25,0 z"
         transform="matrix(0.56551763,0,0,0.5647657,38.456917,3.261507)"
         id="path3573"
         style="opacity:0.6;fill:url(#radialGradient3451);fill-opacity:1;fill-rule:evenodd;stroke:none;display:inline" />
      <path
         d="M 7.1767242,47.701508 C 35.275882,28.287687 72.387975,27.228751 89.000056,49.289911"
         inkscape:connector-curvature="0"
         id="path3577"
         style="fill:none;stroke:url(#radialGradient4248);stroke-width:2;stroke-linecap:butt;stroke-linejoin:miter;stroke-miterlimit:4;stroke-opacity:1;stroke-dasharray:none;display:inline" />
      <path
         d="M 7.1767242,67.821286 C 58.42676,56.349483 89.17678,37.641619 89.17678,37.641619"
         inkscape:connector-curvature="0"
         id="path3585"
         style="opacity:0.6;fill:none;stroke:url(#radialGradient4250);stroke-width:1.5;stroke-linecap:butt;stroke-linejoin:miter;stroke-miterlimit:4;stroke-opacity:1;stroke-dasharray:none;display:inline" />
      <path
         d="m 77.5,67.125 a 3.125,3.125 0 1 1 -6.25,0 3.125,3.125 0 1 1 6.25,0 z"
         transform="matrix(0.84547158,0,0,0.84434747,15.553432,-31.917967)"
         id="path3352"
         style="opacity:0.6;fill:url(#radialGradient3354);fill-opacity:1;fill-rule:evenodd;stroke:none;display:inline" />
    </g>
  </g>
  <g
     id="layer7">
    <path
       d="m 47.4375,18.59375 c -7.608917,0.152838 -14.454169,6.096802 -15.625,13.625 a 0.97694939,0.97694939 0 0 0 0,0.03125 c -0.388018,3.012166 -0.204892,5.948071 -0.21875,8.8125 -0.739363,0.04411 -1.480847,0.161141 -2.15625,0.5 -1.008439,0.505948 -1.876336,1.418577 -2.21875,2.65625 a 0.97694939,0.97694939 0 0 0 -0.03125,0.125 c -0.349928,2.476355 -0.08315,4.872506 -0.15625,7.125 a 0.97694939,0.97694939 0 0 0 0.0625,0.4375 c 0.222672,0.496555 0.226177,0.972957 0.125,1.65625 -0.09745,0.658124 -0.285984,1.480817 -0.1875,2.4375 9.98e-4,0.02879 -8.41e-4,0.06486 0,0.09375 0.04824,1.657091 -0.163923,3.478753 0.125,5.375 a 0.97694939,0.97694939 0 0 0 0.0625,0.1875 c 0.101489,0.276065 0.05064,0.686387 -0.0625,1.3125 -0.10712,0.592815 -0.255199,1.369297 -0.125,2.21875 0.0073,0.04771 -0.0093,0.07662 0,0.125 0.07335,1.72224 -0.284688,3.725987 0.3125,5.8125 a 0.97694939,0.97694939 0 0 0 0.03125,0.0625 c 0.454124,1.205754 1.412484,2.002601 2.4375,2.40625 0.994702,0.391712 2.049532,0.458795 3.03125,0.375 0.02992,-0.0026 0.064,0.0029 0.09375,0 10.639748,-0.01192 21.261007,0.0112 31.90625,-0.03125 a 0.97694939,0.97694939 0 0 0 0.0625,0 c 1.403448,-0.104043 2.554775,-0.898779 3.25,-1.9375 0.672077,-1.004135 0.963432,-2.248628 0.8125,-3.46875 -0.0013,-0.03904 0.001,-0.08583 0,-0.125 -0.04796,-1.832143 0.162213,-3.793144 -0.125,-5.84375 A 0.97694939,0.97694939 0 0 0 68.8125,62.375 c -0.102172,-0.297946 -0.08011,-0.785262 0.03125,-1.4375 0.105519,-0.618004 0.254109,-1.391544 0.125,-2.25 -0.0022,-0.03886 0.0017,-0.08583 0,-0.125 -0.06525,-1.529762 0.170094,-3.296233 -0.28125,-5.15625 4.54e-4,-0.0075 -4.95e-4,-0.02368 0,-0.03125 0.06072,-0.928192 0.432012,-2.328127 0.28125,-3.8125 -5.19e-4,-0.0097 4.88e-4,-0.02151 0,-0.03125 -0.08353,-1.665692 0.287502,-3.610784 -0.3125,-5.65625 A 0.97694939,0.97694939 0 0 0 68.625,43.8125 c -0.429697,-1.12429 -1.284531,-1.913523 -2.25,-2.34375 -0.626927,-0.279368 -1.302913,-0.241574 -1.96875,-0.28125 -0.03487,-3.250416 0.284978,-6.674932 -0.46875,-10.125 a 0.97694939,0.97694939 0 0 0 -0.03125,0 C 62.244087,24.296816 56.123176,18.965212 49.09375,18.625 c -0.01108,-8.52e-4 -0.02019,8.12e-4 -0.03125,0 -0.564318,-0.04144 -1.097324,-0.03154 -1.59375,-0.03125 a 0.97694939,0.97694939 0 0 0 -0.03125,0 z m 0.28125,10.4375 a 0.97694939,0.97694939 0 0 0 0.03125,0 c 2.684691,-0.199492 5.217882,1.657932 5.96875,4.21875 0.431717,2.212488 0.157629,4.655014 0.25,7.21875 3.86e-4,0.01073 -4e-4,0.02052 0,0.03125 0.0014,0.280682 -0.0035,0.358069 0,0.53125 l -11.9375,0 c 0.0087,-2.461746 -0.08199,-4.885752 0.09375,-7.21875 0.03599,-0.112639 0.07226,-0.263697 0.125,-0.4375 0.10548,-0.347605 0.29944,-0.847108 0.28125,-0.8125 A 0.97694939,0.97694939 0 0 0 42.5625,32.5 c 0.910358,-2.037595 2.904587,-3.426788 5.15625,-3.46875 z"
       id="path4310"
       style="opacity:0.05;color:#000000;fill:#000000;fill-opacity:1;fill-rule:nonzero;stroke:none;stroke-width:2;marker:none;visibility:visible;display:inline;overflow:visible;enable-background:accumulate" />
    <path
       d="M 47.46875,19.5625 C 40.364942,19.705192 33.880494,25.337564 32.787728,32.363819 32.376528,35.555943 32.63527,38.788387 32.5625,42 30.751737,41.779534 28.687169,42.554711 28.158681,44.46496 27.831201,46.782457 28.076023,49.157515 28,51.5 c 0.667323,1.488121 -0.199729,2.874708 0,4.468506 0.06166,1.777951 -0.138015,3.582411 0.129763,5.33988 0.424642,1.155095 -0.384449,2.498209 -0.129763,3.825115 0.104414,1.904469 -0.251508,3.874978 0.277226,5.722321 0.701623,1.862892 2.786206,2.314036 4.55778,2.144178 10.673276,-0.01216 21.347799,0.02432 32.020296,-0.01824 C 67.027536,72.820724 68.301245,70.580995 68,68.565496 67.936694,66.609673 68.141285,64.626807 67.870237,62.691614 67.464185,61.507521 68.254335,60.123448 68,58.764492 67.899274,56.95648 68.244598,55.080061 67.73097,53.33226 67.797066,52.238684 68.134775,50.887785 68,49.630992 67.902385,47.804308 68.241912,45.913969 67.722774,44.144178 67.061811,42.414786 65.133397,41.817785 63.4375,42 63.32825,38.430473 63.749966,34.809284 62.982186,31.294895 61.42308,24.948696 55.587316,19.902176 49.015883,19.597973 48.501051,19.558382 47.984653,19.562195 47.46875,19.5625 z m 0.21875,8.5 c 3.196257,-0.237505 6.149492,1.95665 7,5 0.473419,2.426205 0.158004,4.943315 0.25,7.411024 0.0034,0.823698 0.27193,1.912584 -0.934504,1.526476 -4.313499,0 -8.626997,0 -12.940496,0 0.06004,-2.824495 -0.125761,-5.670615 0.105235,-8.481494 -0.06318,0.350932 0.289112,-1.045367 0.488515,-1.424756 1.060922,-2.374591 3.393626,-3.982095 6.03125,-4.03125 z"
       inkscape:connector-curvature="0"
       id="path4304"
       style="opacity:0.1;color:#000000;fill:#000000;fill-opacity:1;fill-rule:nonzero;stroke:none;stroke-width:2;marker:none;visibility:visible;display:inline;overflow:visible;enable-background:accumulate" />
    <path
       d="m 47.5625,20.625 c -0.144589,0.01166 -0.28346,0.02613 -0.375,0.03125 C 39.626321,21.074377 33.625,27.338463 33.625,35 l 0,8.0625 -2.125,0 c -1.330704,0 -2.4375,1.106796 -2.4375,2.4375 l 0,1.5 0,4.5 c 0,0.580358 0.278578,1.079441 0.625,1.5 -0.346422,0.420559 -0.625,0.919642 -0.625,1.5 l 0,1.5 0,4.5 c 0,0.580358 0.278578,1.079441 0.625,1.5 -0.346422,0.420559 -0.625,0.919642 -0.625,1.5 l 0,1.5 0,3 0,1.5 c 0,1.330704 1.106796,2.4375 2.4375,2.4375 l 33,0 c 1.330704,0 2.4375,-1.106796 2.4375,-2.4375 l 0,-1.5 0,-4.5 c 0,-0.580358 -0.278578,-1.079441 -0.625,-1.5 0.346422,-0.420559 0.625,-0.919642 0.625,-1.5 l 0,-6 c 0,-0.580358 -0.278578,-1.079441 -0.625,-1.5 0.346422,-0.420559 0.625,-0.919642 0.625,-1.5 l 0,-6 c 0,-1.330704 -1.106796,-2.4375 -2.4375,-2.4375 l -2.125,0 0,-8.0625 c 0,-4.879169 -2.429929,-9.182321 -6.15625,-11.78125 0.05998,0.04162 0.02056,-0.03731 -0.15625,-0.15625 -0.271047,-0.18312 -0.552957,-0.33417 -0.78125,-0.46875 -0.01208,-0.01155 -0.01549,-0.01826 -0.03125,-0.03125 -0.124754,-0.07299 -0.145314,-0.07918 -0.0625,-0.03125 -0.02227,-0.01471 -0.0041,-0.01573 -0.03125,-0.03125 -0.102137,-0.05866 -0.216747,-0.104232 -0.3125,-0.15625 -1.329299,-0.722142 -2.776558,-1.226784 -4.3125,-1.5 C 49.683866,20.690541 48.848823,20.625 48,20.625 c -0.06616,0 -0.129154,1.17e-4 -0.1875,0 -0.02464,-0.001 -0.01203,3.78e-4 -0.03125,0 -0.07689,-0.0015 -0.134233,-2.83e-4 -0.125,0 a 0.93115575,0.93115575 0 0 0 -0.09375,0 z M 47.65625,27 c 0.07485,-0.003 0.194043,0 0.34375,0 1.704717,0 3.225137,0.489808 4.5,1.34375 l 0.03125,0 c 0.03852,0.02047 0.155792,0.09357 0.15625,0.09375 0.0893,0.06597 0.176158,0.136331 0.28125,0.21875 1.273513,1.023382 2.22856,2.431828 2.71875,4.09375 0.04677,0.168152 0.09971,0.292213 0.125,0.40625 a 0.93115575,0.93115575 0 0 0 0,0.03125 c -0.02158,-0.08938 -0.01609,-0.03012 0.03125,0.1875 0.06246,0.317177 0.10788,0.530888 0.125,0.6875 C 55.996736,34.319471 56,34.643535 56,35 l 0,8.0625 -16,0 L 40,35 c 0,-0.285978 0.009,-0.541573 0.03125,-0.78125 0.01677,-0.182264 0.01564,-0.195089 0,-0.03125 0.01794,-0.186897 0.016,-0.197613 0,-0.03125 0.01824,-0.185284 0.02808,-0.362623 0.0625,-0.5625 0.0019,-0.01098 -0.0019,-0.02008 0,-0.03125 a 0.93115575,0.93115575 0 0 0 0,-0.03125 c -0.04161,0.23649 -0.02361,0.199539 0.03125,-0.09375 0.04228,-0.227235 0.119179,-0.443478 0.1875,-0.6875 0.0065,-0.02181 -0.0048,-0.0112 0,-0.03125 -0.01184,0.04179 0.0019,0.0055 0.03125,-0.09375 0.07196,-0.243068 0.123996,-0.429235 0.1875,-0.59375 0.01215,-0.02599 0.01953,-0.0013 0.03125,-0.03125 0.05718,-0.141917 0.06702,-0.179934 0.03125,-0.09375 0.07596,-0.188077 0.159641,-0.380463 0.25,-0.5625 -0.06396,0.128808 -0.02145,0.03361 0.03125,-0.0625 0.362788,-0.698586 0.831422,-1.335003 1.34375,-1.875 0.0067,-0.0064 0.0026,-0.03329 0.03125,-0.0625 0.100028,-0.103418 0.197476,-0.202662 0.28125,-0.28125 -0.09019,0.0829 -0.03633,0.04932 0.125,-0.09375 -0.0092,0.0082 0.02317,-0.0075 0.125,-0.09375 a 0.93115575,0.93115575 0 0 0 0.03125,0 c 0.141108,-0.12233 0.145735,-0.163802 0.0625,-0.09375 0.04252,-0.03494 0.07596,-0.08651 0.125,-0.125 a 0.93115575,0.93115575 0 0 0 0.03125,0 c -0.06985,0.05613 -0.0037,0.01797 0.0625,-0.03125 l 0,-0.03125 c 0.172968,-0.135162 0.266359,-0.221063 0.21875,-0.1875 0.0092,-0.0065 0.136429,-0.05576 0.34375,-0.1875 0.07467,-0.04734 0.110912,-0.07307 0.09375,-0.0625 0.119209,-0.07363 0.233379,-0.142136 0.375,-0.21875 0.260159,-0.139517 0.50618,-0.244556 0.75,-0.34375 0.05035,-0.02051 0.121558,-0.05751 0.21875,-0.09375 0.158072,-0.05921 0.355363,-0.103344 0.53125,-0.15625 0.169233,-0.05067 0.249233,-0.09355 0.25,-0.09375 -0.101269,0.02691 -0.05262,0.01965 0.15625,-0.03125 0.06525,-0.01581 0.05091,-0.01388 0.09375,-0.03125 -0.0387,0.01342 -0.0206,0.01163 0.1875,-0.03125 0.04692,-0.0097 0.02603,-0.01957 0.0625,-0.03125 -0.336808,0.06553 -0.325713,0.06938 0.03125,0 0.255388,-0.04998 0.444861,-0.07073 0.65625,-0.09375 0.143054,-0.01559 0.34834,-0.02165 0.59375,-0.03125 z"
       id="path4300"
       style="opacity:0.15;color:#000000;fill:#000000;fill-opacity:1;fill-rule:nonzero;stroke:none;stroke-width:2;marker:none;visibility:visible;display:inline;overflow:visible;enable-background:accumulate" />
    <path
       d="m 47.625,21.5625 c -0.124058,0.01 -0.24832,0.02416 -0.375,0.03125 C 40.171363,21.985193 34.5625,27.82359 34.5625,35 l 0,9 L 31.5,44 C 30.669,44 30,44.669 30,45.5 l 0,1.5 0,4.5 c 0,0.831 0.669,1.5 1.5,1.5 -0.831,0 -1.5,0.669 -1.5,1.5 l 0,1.5 0,4.5 c 0,0.831 0.669,1.5 1.5,1.5 -0.831,0 -1.5,0.669 -1.5,1.5 l 0,1.5 0,3 0,1.5 c 0,0.831 0.669,1.5 1.5,1.5 l 33,0 C 65.331,71 66,70.331 66,69.5 L 66,68 66,63.5 C 66,62.669 65.331,62 64.5,62 65.331,62 66,61.331 66,60.5 l 0,-6 C 66,53.669 65.331,53 64.5,53 65.331,53 66,52.331 66,51.5 l 0,-6 C 66,44.669 65.331,44 64.5,44 l -3.0625,0 0,-9 c 0,-4.571738 -2.264337,-8.600168 -5.75,-11.03125 -0.0537,-0.03726 -0.101975,-0.08849 -0.15625,-0.125 -0.228385,-0.154297 -0.480674,-0.297153 -0.71875,-0.4375 -0.01215,-0.0072 -0.01907,-0.02412 -0.03125,-0.03125 -0.01974,-0.01155 -0.0427,-0.01979 -0.0625,-0.03125 C 54.70679,23.33685 54.69948,23.31936 54.6875,23.3125 54.59589,23.25989 54.499205,23.206748 54.40625,23.15625 53.16443,22.481631 51.814023,22.005976 50.375,21.75 49.600116,21.609899 48.812618,21.5625 48,21.5625 c -0.07464,0 -0.146549,3.06e-4 -0.21875,0 -0.05214,-0.0022 -0.103957,0.0016 -0.15625,0 z m 0,4.5 c 0.124055,-0.0049 0.249534,0 0.375,0 1.884076,0 3.604652,0.544421 5.03125,1.5 0.0074,0.0051 0.02382,-0.0052 0.03125,0 0.174421,0.117569 0.334986,0.245626 0.5,0.375 1.422781,1.143333 2.488397,2.722033 3.03125,4.5625 0.0432,0.155332 0.08979,0.309954 0.125,0.46875 0.01707,0.07071 0.01572,0.147364 0.03125,0.21875 0.05097,0.258813 0.127093,0.514519 0.15625,0.78125 C 56.9428,34.304352 56.9375,34.653016 56.9375,35 l 0,9 -17.875,0 0,-9 c 0,-0.295636 0.0046,-0.587476 0.03125,-0.875 9.55e-4,-0.01038 -9.89e-4,-0.02089 0,-0.03125 9.99e-4,-0.01041 -10e-4,-0.02085 0,-0.03125 0.0225,-0.228573 0.05505,-0.43356 0.09375,-0.65625 0.0019,-0.0099 -0.0019,-0.02133 0,-0.03125 0.0056,-0.03183 0.02532,-0.06205 0.03125,-0.09375 0.04967,-0.266928 0.115458,-0.523938 0.1875,-0.78125 0.0029,-0.0098 -0.0029,-0.0215 0,-0.03125 0.0091,-0.03212 0.0218,-0.06179 0.03125,-0.09375 0.06858,-0.231639 0.132728,-0.464649 0.21875,-0.6875 0.005,-0.01281 0.02624,-0.01847 0.03125,-0.03125 0.01237,-0.0307 0.01858,-0.06322 0.03125,-0.09375 0.08547,-0.211617 0.18061,-0.422251 0.28125,-0.625 0.01664,-0.03351 0.04546,-0.06049 0.0625,-0.09375 0.397564,-0.76555 0.88712,-1.480709 1.46875,-2.09375 0.02078,-0.02164 0.0415,-0.04108 0.0625,-0.0625 0.100973,-0.104395 0.206713,-0.213261 0.3125,-0.3125 0.03832,-0.03522 0.08605,-0.05921 0.125,-0.09375 0.05046,-0.04479 0.104742,-0.08137 0.15625,-0.125 0.03299,-0.0286 0.06035,-0.06564 0.09375,-0.09375 0.05091,-0.04184 0.104379,-0.08429 0.15625,-0.125 0.02933,-0.02357 0.06412,-0.03931 0.09375,-0.0625 0.08731,-0.06661 0.160101,-0.155374 0.25,-0.21875 0.117441,-0.08301 0.253293,-0.141414 0.375,-0.21875 0.03207,-0.02033 0.06139,-0.04257 0.09375,-0.0625 0.142892,-0.08826 0.28915,-0.169746 0.4375,-0.25 0.273537,-0.146692 0.553121,-0.288013 0.84375,-0.40625 0.08184,-0.03334 0.166888,-0.06276 0.25,-0.09375 0.183647,-0.06879 0.372946,-0.130483 0.5625,-0.1875 0.09432,-0.02824 0.185541,-0.0685 0.28125,-0.09375 0.05992,-0.01592 0.127054,-0.01652 0.1875,-0.03125 0.02187,-0.0053 0.04056,-0.02608 0.0625,-0.03125 0.0829,-0.01955 0.166149,-0.01397 0.25,-0.03125 0.02218,-0.0046 0.04026,-0.02682 0.0625,-0.03125 0.01028,-0.002 0.02096,0.002 0.03125,0 0.253317,-0.04958 0.488782,-0.09656 0.75,-0.125 0.214133,-0.02333 0.437342,-0.02269 0.65625,-0.03125 z"
       inkscape:connector-curvature="0"
       id="path3488"
       style="opacity:0.3;color:#000000;fill:#000000;fill-opacity:1;fill-rule:nonzero;stroke:none;stroke-width:2;marker:none;visibility:visible;display:inline;overflow:visible;enable-background:accumulate" />
    <path
       d="M 48,20.546875 C 40.57035,20.546875 34.546875,26.57035 34.546875,34 l 0,12 c 0,7.42965 6.023475,13.453125 13.453125,13.453125 7.42965,0 13.453125,-6.023475 13.453125,-13.453125 l 0,-12 C 61.453125,26.57035 55.42965,20.546875 48,20.546875 z m 0,4.5 c 5.024202,0 8.953125,3.928923 8.953125,8.953125 l 0,12 c 0,5.024202 -3.928923,8.953125 -8.953125,8.953125 -5.024202,0 -8.953125,-3.928923 -8.953125,-8.953125 l 0,-12 c 0,-5.024202 3.928923,-8.953125 8.953125,-8.953125 z"
       inkscape:connector-curvature="0"
       id="path3974"
       style="color:#000000;fill:url(#linearGradient3983);fill-opacity:1;fill-rule:nonzero;stroke:none;stroke-width:2;marker:none;visibility:visible;display:inline;overflow:visible;enable-background:accumulate" />
    <path
       d="m 48,23.5 c -5.817,0 -10.5,4.683 -10.5,10.5 l 0,18 c 0,0.992833 0.16668,1.950256 0.421875,2.859375 2.465784,2.811147 6.04518,4.59375 10.078125,4.59375 4.032945,0 7.612341,-1.782603 10.078125,-4.59375 C 58.33332,53.950256 58.5,52.992833 58.5,52 l 0,-18 C 58.5,28.183 53.817,23.5 48,23.5 z m 0,1.546875 c 5.024202,0 8.953125,3.928923 8.953125,8.953125 l 0,12 c 0,5.024202 -3.928923,8.953125 -8.953125,8.953125 -5.024202,0 -8.953125,-3.928923 -8.953125,-8.953125 l 0,-12 c 0,-5.024202 3.928923,-8.953125 8.953125,-8.953125 z"
       inkscape:connector-curvature="0"
       id="rect3985"
       style="opacity:0.1;color:#000000;fill:#000000;fill-opacity:1;fill-rule:nonzero;stroke:none;stroke-width:2;marker:none;visibility:visible;display:inline;overflow:visible;enable-background:accumulate" />
    <path
       d="m 48,25.3125 c -3.70276,0 -6.6875,2.98474 -6.6875,6.6875 l 0,12 c 0,0.59376 0.131289,1.161696 0.28125,1.71875 1.583964,1.778496 3.838102,2.9375 6.40625,2.9375 2.568148,0 4.822286,-1.159004 6.40625,-2.9375 C 54.556211,45.161696 54.6875,44.59376 54.6875,44 l 0,-12 c 0,-3.70276 -2.98474,-6.6875 -6.6875,-6.6875 z m 0,0.40625 c 3.51969,0 6.28125,2.76156 6.28125,6.28125 l 0,8 c 0,3.51969 -2.76156,6.28125 -6.28125,6.28125 -3.51969,0 -6.28125,-2.76156 -6.28125,-6.28125 l 0,-8 c 0,-3.51969 2.76156,-6.28125 6.28125,-6.28125 z"
       transform="matrix(1.4328358,0,0,1.4813934,-20.776119,-13.094672)"
       id="path3993"
       style="opacity:0.2;color:#000000;fill:#000000;fill-opacity:1;fill-rule:nonzero;stroke:none;stroke-width:2;marker:none;visibility:visible;display:inline;overflow:visible;enable-background:accumulate" />
    <path
       d="M 48,20.546875 C 40.57035,20.546875 34.546875,26.57035 34.546875,34 l 0,12 c 0,7.205194 5.678164,13.057384 12.796875,13.40625 C 40.560149,58.727852 35.25,53.045935 35.25,46.1875 l 0,-11.8125 c 0,-7.315665 6.023475,-13.21875 13.453125,-13.21875 2.942283,0 5.660553,0.906397 7.875,2.484375 C 54.252609,21.721417 51.250472,20.546875 48,20.546875 z m 5.765625,6.515625 c 1.966135,1.628968 3.1875,4.124316 3.1875,6.9375 l 0,12 c 0,5.024202 -3.928923,8.953125 -8.953125,8.953125 -0.267028,0 -0.53646,-0.02511 -0.796875,-0.04687 0.486792,0.07758 0.987396,0.09375 1.5,0.09375 5.024202,0 8.953125,-3.86538 8.953125,-8.8125 l 0,-11.8125 c 0,-3.091952 -1.512962,-5.744303 -3.890625,-7.3125 z"
       inkscape:connector-curvature="0"
       id="path3995"
       style="opacity:0.2;color:#000000;fill:url(#linearGradient4011);fill-opacity:1;fill-rule:nonzero;stroke:none;stroke-width:2;marker:none;visibility:visible;display:inline;overflow:visible;enable-background:accumulate" />
    <path
       d="M 48,20.546875 C 40.57035,20.546875 34.546875,26.57035 34.546875,34 l 0,12 1.171875,0 0,-12 c 0,-7.22174 5.702024,-13.128953 12.84375,-13.453125 -0.189961,-0.008 -0.370582,0 -0.5625,0 z"
       inkscape:connector-curvature="0"
       id="path4013"
       style="opacity:0.1;color:#000000;fill:#000000;fill-opacity:1;fill-rule:nonzero;stroke:none;stroke-width:2;marker:none;visibility:visible;display:inline;overflow:visible;enable-background:accumulate" />
    <path
       d="m 48,20.546875 c -0.256441,0 -0.497099,0.03271 -0.75,0.04687 C 54.324177,20.9899 59.953125,26.826791 59.953125,34 l 0,12 c 0,7.173208 -5.628948,13.0101 -12.703125,13.40625 0.252901,0.0141 0.493559,0.04687 0.75,0.04687 7.42965,0 13.453125,-6.023475 13.453125,-13.453125 l 0,-12 C 61.453125,26.57035 55.42965,20.546875 48,20.546875 z m -1.5,4.5 c -5.024202,0 -8.953125,3.928923 -8.953125,8.953125 l 0,12 c 0,5.024202 3.928923,8.953125 8.953125,8.953125 0.188721,0 0.37702,-0.03594 0.5625,-0.04687 C 42.49104,54.456206 39.046875,50.710189 39.046875,46 l 0,-12 c 0,-4.710189 3.444165,-8.456207 8.015625,-8.90625 C 46.87702,25.0828 46.688721,25.04688 46.5,25.04688 z"
       inkscape:connector-curvature="0"
       id="path4024"
       style="opacity:0.15;color:#000000;fill:url(#linearGradient4039);fill-opacity:1;fill-rule:nonzero;stroke:none;stroke-width:2;marker:none;visibility:visible;display:inline;overflow:visible;enable-background:accumulate" />
    <path
       d="M 47.625,20.546875 C 54.855582,20.774045 60.65625,26.714288 60.65625,34 l 0,12 c 0,7.285711 -5.800668,13.225954 -13.03125,13.453125 0.12708,0.0036 0.247054,0 0.375,0 7.42965,0 13.453125,-6.023475 13.453125,-13.453125 l 0,-12 C 61.453125,26.57035 55.42965,20.546875 48,20.546875 c -0.12795,0 -0.247912,-0.0036 -0.375,0 z m -0.421875,4.5 C 42.178923,25.046875 38.25,28.975798 38.25,34 l 0,12 c 0,5.024202 3.928923,8.953125 8.953125,8.953125 0.140955,0 0.282708,0.0062 0.421875,0 C 42.781072,54.763774 39.046875,50.89891 39.046875,46 l 0,-12 c 0,-4.89891 3.734197,-8.763774 8.578125,-8.953125 -0.13917,-0.0061 -0.280921,0 -0.421875,0 z"
       inkscape:connector-curvature="0"
       id="path4041"
       style="opacity:0.2;color:#000000;fill:#000000;fill-opacity:1;fill-rule:nonzero;stroke:none;stroke-width:2;marker:none;visibility:visible;display:inline;overflow:visible;enable-background:accumulate" />
    <path
       d="m 47.953125,22.75 1.171875,0.04687 0.04687,0 1.078125,0.1875 0.04687,0 1.03125,0.28125 0.04687,0 0.984375,0.328125 0.04687,0.04687 0.9375,0.421875 0.04687,0.04687 0.890625,0.515625 0.04687,0.04687 0.234375,0.1875 L 55.265625,25 55.734375,24.484375 55.59375,23.78125 55.453125,23.6875 55.171875,23.453125 55.125,23.40625 54.140625,22.796875 54.046875,22.75 l -1.03125,-0.46875 -0.09375,-0.04687 -1.078125,-0.421875 -0.09375,0 -1.125,-0.28125 -0.09375,-0.04687 -1.171875,-0.1875 -0.09375,0 -1.21875,-0.04687 c -1.434468,-0.10008 -1.728376,1.633438 -0.09375,1.5 z m -6,0 -0.09375,0.04687 -0.984375,0.609375 -0.04687,0.04687 -0.9375,0.65625 -0.04687,0.04687 L 39,24.953125 38.953125,25 l -0.796875,0.84375 -0.04687,0.04687 -0.65625,0.9375 -0.04687,0.04687 -0.609375,0.984375 -0.04687,0.09375 -0.421875,0.9375 0,0.703125 0.609375,0.375 0.65625,-0.28125 0.09375,-0.1875 0.375,-0.84375 0.04687,-0.04687 0.515625,-0.890625 0.04687,-0.04687 0.609375,-0.796875 0.04687,-0.04687 0.703125,-0.75 0.04687,0 0,-0.04687 0.75,-0.703125 0.04687,-0.04687 0.796875,-0.609375 0.04687,-0.04687 0.890625,-0.515625 0.04687,-0.04687 0.890625,-0.375 C 44.614386,22.986946 43.5,22 42.890625,22.328125 z"
       inkscape:connector-curvature="0"
       id="rect4052"
       style="font-size:medium;font-style:normal;font-variant:normal;font-weight:normal;font-stretch:normal;text-indent:0;text-align:start;text-decoration:none;line-height:normal;letter-spacing:normal;word-spacing:normal;text-transform:none;direction:ltr;block-progression:tb;writing-mode:lr-tb;text-anchor:start;baseline-shift:baseline;opacity:0.3;color:#000000;fill:#ffffff;fill-opacity:1;stroke:none;stroke-width:1;marker:none;visibility:visible;display:inline;overflow:visible;enable-background:accumulate;font-family:Sans;-inkscape-font-specification:Sans" />
    <path
       d="m 48.03125,23.6875 c -0.399301,-0.02786 -0.575897,0.194836 -0.59375,0.34375 -0.0089,0.07446 -0.0071,0.132508 0.0625,0.1875 0.06958,0.05499 0.198694,0.113244 0.4375,0.09375 a 0.19490146,0.19490146 0 0 1 0.03125,0 l 0.78125,0.03125 0.03125,0 a 0.19490146,0.19490146 0 0 1 0.03125,0 l 0.6875,0.125 0.03125,0 a 0.19490146,0.19490146 0 0 1 0.03125,0 0.19490146,0.19490146 0 0 1 0.03125,0 l 0.625,0.1875 0.0625,0 a 0.19490146,0.19490146 0 0 1 0.03125,0 l 0.65625,0.21875 a 0.19490146,0.19490146 0 0 1 0.0625,0.03125 l 0.625,0.28125 a 0.19490146,0.19490146 0 0 1 0.03125,0.03125 0.19490146,0.19490146 0 0 1 0,0.03125 l 0.03125,0.03125 0.5625,0.3125 a 0.19490146,0.19490146 0 0 1 0.03125,0 0.19490146,0.19490146 0 0 1 0,0.03125 l 0.03125,0 0.125,0.09375 L 52.5,25.75 l 0.25,0.03125 0.1875,-0.1875 -0.0625,-0.3125 a 0.19490146,0.19490146 0 0 1 -0.03125,0 L 52.65625,25.125 a 0.19490146,0.19490146 0 0 1 0,-0.03125 L 52.625,25.0625 52,24.6875 52,24.71875 51.9375,24.6875 51.25,24.375 l -0.03125,-0.03125 -0.03125,0 L 50.5,24.0625 a 0.19490146,0.19490146 0 0 1 -0.03125,0 0.19490146,0.19490146 0 0 1 -0.03125,0 l -0.75,-0.1875 a 0.19490146,0.19490146 0 0 1 -0.03125,0 l -0.0625,-0.03125 -0.6875,-0.125 -0.03125,0 -0.03125,0 -0.8125,-0.03125 z M 44.6875,24.375 a 0.19490146,0.19490146 0 0 1 0,0.03125 L 44.0625,24.6875 44,24.71875 l 0,-0.03125 -0.625,0.375 -0.03125,0.03125 a 0.19490146,0.19490146 0 0 1 0,0.03125 l -0.625,0.4375 -0.03125,0 a 0.19490146,0.19490146 0 0 1 0,0.03125 L 42.125,26.125 41.59375,26.6875 a 0.19490146,0.19490146 0 0 1 -0.03125,0 l 0,0.03125 -0.4375,0.625 a 0.19490146,0.19490146 0 0 1 -0.03125,0 L 41.0625,27.375 40.6875,28 l 0.03125,0 -0.03125,0.0625 -0.28125,0.625 0,0.28125 0.21875,0.125 0.28125,-0.125 0.03125,-0.0625 0.25,-0.5625 a 0.19490146,0.19490146 0 0 1 0.03125,-0.03125 0.19490146,0.19490146 0 0 1 0.03125,0 l 0.03125,-0.03125 0.3125,-0.5625 a 0.19490146,0.19490146 0 0 1 0,-0.03125 0.19490146,0.19490146 0 0 1 0.03125,0 l 0,-0.03125 0.40625,-0.53125 a 0.19490146,0.19490146 0 0 1 0.03125,0 l 0,-0.03125 0.46875,-0.46875 a 0.19490146,0.19490146 0 0 1 0,-0.03125 0.19490146,0.19490146 0 0 1 0.03125,-0.03125 0.19490146,0.19490146 0 0 1 0.03125,0 0.19490146,0.19490146 0 0 1 0,-0.03125 l 0.03125,0 0.46875,-0.46875 0.03125,0 a 0.19490146,0.19490146 0 0 1 0,-0.03125 l 0.53125,-0.40625 0.03125,0 a 0.19490146,0.19490146 0 0 1 0.03125,-0.03125 l 0.5625,-0.3125 L 44.3125,25.25 a 0.19490146,0.19490146 0 0 1 0.0625,-0.0625 l 0.5625,-0.21875 c 0.02063,-0.01354 0.01444,-0.01822 0.03125,-0.03125 0.103282,-0.08006 0.145812,-0.16503 0.15625,-0.21875 0.01214,-0.06247 -0.01479,-0.124279 -0.0625,-0.1875 -0.04771,-0.06322 -0.110698,-0.13087 -0.1875,-0.15625 -0.0768,-0.02538 -0.143675,-0.0236 -0.1875,0 z"
       transform="matrix(1.5,0,0,1.5,-24,-14)"
       id="path4061"
       style="font-size:medium;font-style:normal;font-variant:normal;font-weight:normal;font-stretch:normal;text-indent:0;text-align:start;text-decoration:none;line-height:normal;letter-spacing:normal;word-spacing:normal;text-transform:none;direction:ltr;block-progression:tb;writing-mode:lr-tb;text-anchor:start;baseline-shift:baseline;opacity:0.6;color:#000000;fill:#ffffff;fill-opacity:1;stroke:none;stroke-width:1;marker:none;visibility:visible;display:inline;overflow:visible;enable-background:accumulate;font-family:Sans;-inkscape-font-specification:Sans" />
    <rect
       width="36"
       height="9"
       rx="1.5"
       ry="1.5"
       x="30"
       y="43"
       id="rect3138"
       style="color:#000000;fill:url(#linearGradient3933);fill-opacity:1;fill-rule:nonzero;stroke:none;stroke-width:2;marker:none;visibility:visible;display:inline;overflow:visible;enable-background:accumulate" />
    <path
       d="M 31.5,43 C 30.669,43 30,43.669 30,44.5 l 0,1.5 c 0,-0.831 0.669,-1.5 1.5,-1.5 l 33,0 c 0.831,0 1.5,0.669 1.5,1.5 l 0,-1.5 C 66,43.669 65.331,43 64.5,43 l -33,0 z"
       inkscape:connector-curvature="0"
       id="rect3148"
       style="opacity:0.3;color:#000000;fill:#ffffff;fill-opacity:1;fill-rule:nonzero;stroke:none;stroke-width:2;marker:none;visibility:visible;display:inline;overflow:visible;enable-background:accumulate" />
    <path
       d="m 30,49 0,1.5 c 0,0.831 0.669,1.5 1.5,1.5 l 33,0 C 65.331,52 66,51.331 66,50.5 L 66,49 c 0,0.831 -0.669,1.5 -1.5,1.5 l -33,0 C 30.669,50.5 30,49.831 30,49 z"
       inkscape:connector-curvature="0"
       id="rect3921"
       style="opacity:0.15;color:#000000;fill:#a05a2c;fill-opacity:1;fill-rule:nonzero;stroke:none;stroke-width:2;marker:none;visibility:visible;display:inline;overflow:visible;enable-background:accumulate" />
    <rect
       width="36"
       height="9"
       rx="1.5"
       ry="1.5"
       x="30"
       y="52"
       id="rect3939"
       style="color:#000000;fill:url(#linearGradient3945);fill-opacity:1;fill-rule:nonzero;stroke:none;stroke-width:2;marker:none;visibility:visible;display:inline;overflow:visible;enable-background:accumulate" />
    <path
       d="M 31.5,52 C 30.669,52 30,52.669 30,53.5 l 0,1.5 c 0,-0.831 0.669,-1.5 1.5,-1.5 l 33,0 c 0.831,0 1.5,0.669 1.5,1.5 l 0,-1.5 C 66,52.669 65.331,52 64.5,52 l -33,0 z"
       inkscape:connector-curvature="0"
       id="path3941"
       style="opacity:0.3;color:#000000;fill:#ffffff;fill-opacity:1;fill-rule:nonzero;stroke:none;stroke-width:2;marker:none;visibility:visible;display:inline;overflow:visible;enable-background:accumulate" />
    <path
       d="m 30,58 0,1.5 c 0,0.831 0.669,1.5 1.5,1.5 l 33,0 C 65.331,61 66,60.331 66,59.5 L 66,58 c 0,0.831 -0.669,1.5 -1.5,1.5 l -33,0 C 30.669,59.5 30,58.831 30,58 z"
       inkscape:connector-curvature="0"
       id="path3943"
       style="opacity:0.15;color:#000000;fill:#a05a2c;fill-opacity:1;fill-rule:nonzero;stroke:none;stroke-width:2;marker:none;visibility:visible;display:inline;overflow:visible;enable-background:accumulate" />
    <rect
       width="36"
       height="9"
       rx="1.5"
       ry="1.5"
       x="30"
       y="61"
       id="rect3947"
       style="color:#000000;fill:url(#linearGradient3954);fill-opacity:1;fill-rule:nonzero;stroke:none;stroke-width:2;marker:none;visibility:visible;display:inline;overflow:visible;enable-background:accumulate" />
    <path
       d="M 31.5,61 C 30.669,61 30,61.669 30,62.5 l 0,1.5 c 0,-0.831 0.669,-1.5 1.5,-1.5 l 33,0 c 0.831,0 1.5,0.669 1.5,1.5 l 0,-1.5 C 66,61.669 65.331,61 64.5,61 l -33,0 z"
       inkscape:connector-curvature="0"
       id="path3949"
       style="opacity:0.3;color:#000000;fill:#ffffff;fill-opacity:1;fill-rule:nonzero;stroke:none;stroke-width:2;marker:none;visibility:visible;display:inline;overflow:visible;enable-background:accumulate" />
    <path
       d="m 30,67 0,1.5 c 0,0.831 0.669,1.5 1.5,1.5 l 33,0 C 65.331,70 66,69.331 66,68.5 L 66,67 c 0,0.831 -0.669,1.5 -1.5,1.5 l -33,0 C 30.669,68.5 30,67.831 30,67 z"
       inkscape:connector-curvature="0"
       id="path3952"
       style="opacity:0.15;color:#000000;fill:#a05a2c;fill-opacity:1;fill-rule:nonzero;stroke:none;stroke-width:2;marker:none;visibility:visible;display:inline;overflow:visible;enable-background:accumulate" />
  </g>
</svg>
