<?xml version="1.0" encoding="UTF-8" standalone="no"?>
<!-- Created with Inkscape (http://www.inkscape.org/) -->

<svg
   xmlns:dc="http://purl.org/dc/elements/1.1/"
   xmlns:cc="http://creativecommons.org/ns#"
   xmlns:rdf="http://www.w3.org/1999/02/22-rdf-syntax-ns#"
   xmlns:svg="http://www.w3.org/2000/svg"
   xmlns="http://www.w3.org/2000/svg"
   xmlns:xlink="http://www.w3.org/1999/xlink"
   xmlns:inkscape="http://www.inkscape.org/namespaces/inkscape"
   version="1.0"
   width="96"
   height="96"
   id="svg2408">
  <defs
     id="defs2410">
    <linearGradient
       id="linearGradient4236">
      <stop
         id="stop4238"
         style="stop-color:#ffdf39;stop-opacity:1"
         offset="0" />
      <stop
         id="stop4240"
         style="stop-color:#eb9c00;stop-opacity:0"
         offset="1" />
    </linearGradient>
    <linearGradient
       id="linearGradient4192">
      <stop
         id="stop4194"
         style="stop-color:#ffffff;stop-opacity:1"
         offset="0" />
      <stop
         id="stop4196"
         style="stop-color:#ffffff;stop-opacity:0"
         offset="1" />
    </linearGradient>
    <linearGradient
       id="linearGradient4176">
      <stop
         id="stop4178"
         style="stop-color:#000000;stop-opacity:1"
         offset="0" />
      <stop
         id="stop4180"
         style="stop-color:#393939;stop-opacity:1"
         offset="1" />
    </linearGradient>
    <linearGradient
       id="linearGradient4156">
      <stop
         id="stop4158"
         style="stop-color:#c6c6c6;stop-opacity:1"
         offset="0" />
      <stop
         id="stop4160"
         style="stop-color:#e7e7e7;stop-opacity:1"
         offset="1" />
    </linearGradient>
    <linearGradient
       x1="45.447727"
       y1="92.539597"
       x2="45.447727"
       y2="7.0165396"
       id="ButtonShadow"
       gradientUnits="userSpaceOnUse"
       gradientTransform="scale(1.0058652,0.994169)">
      <stop
         id="stop3750"
         style="stop-color:#000000;stop-opacity:1"
         offset="0" />
      <stop
         id="stop3752"
         style="stop-color:#000000;stop-opacity:0.58823532"
         offset="1" />
    </linearGradient>
    <linearGradient
       id="linearGradient3737">
      <stop
         id="stop3739"
         style="stop-color:#ffffff;stop-opacity:1"
         offset="0" />
      <stop
         id="stop3741"
         style="stop-color:#ffffff;stop-opacity:0"
         offset="1" />
    </linearGradient>
    <linearGradient
       x1="48"
       y1="90"
       x2="48"
       y2="5.9877172"
       id="linearGradient3706"
       xlink:href="#linearGradient4156"
       gradientUnits="userSpaceOnUse" />
    <filter
       color-interpolation-filters="sRGB"
       id="filter3174">
      <feGaussianBlur
         id="feGaussianBlur3176"
         stdDeviation="1.71" />
    </filter>
    <linearGradient
       x1="36.357143"
       y1="6"
       x2="36.357143"
       y2="63.893143"
       id="linearGradient3188"
       xlink:href="#linearGradient3737"
       gradientUnits="userSpaceOnUse" />
    <linearGradient
       id="linearGradient3737-1">
      <stop
         id="stop3739-7"
         style="stop-color:#ffffff;stop-opacity:1"
         offset="0" />
      <stop
         id="stop3741-2"
         style="stop-color:#ffffff;stop-opacity:0"
         offset="1" />
    </linearGradient>
    <radialGradient
       cx="48"
       cy="90.171875"
       r="42"
       fx="48"
       fy="90.171875"
       id="radialGradient2855"
       xlink:href="#linearGradient3737-1"
       gradientUnits="userSpaceOnUse"
       gradientTransform="matrix(1.1573129,0,0,0.99590774,-7.551021,0.1971319)" />
    <linearGradient
       id="linearGradient3737-6">
      <stop
         id="stop3739-73"
         style="stop-color:#ffffff;stop-opacity:1"
         offset="0" />
      <stop
         id="stop3741-6"
         style="stop-color:#ffffff;stop-opacity:0"
         offset="1" />
    </linearGradient>
    <clipPath
       id="clipPath3613">
      <rect
         width="84"
         height="84"
         rx="6"
         ry="6"
         x="6"
         y="6"
         id="rect3615"
         style="fill:#ffffff;fill-opacity:1;fill-rule:nonzero;stroke:none" />
    </clipPath>
    <filter
       x="-0.192"
       y="-0.192"
       width="1.3839999"
       height="1.3839999"
       color-interpolation-filters="sRGB"
       id="filter3794">
      <feGaussianBlur
         id="feGaussianBlur3796"
         stdDeviation="5.28" />
    </filter>
    <linearGradient
       x1="48"
       y1="20.220806"
       x2="48"
       y2="138.66119"
       id="linearGradient2885"
       xlink:href="#linearGradient3737-6"
       gradientUnits="userSpaceOnUse" />
    <linearGradient
       x1="48"
       y1="24"
       x2="48"
       y2="72"
       id="linearGradient4182"
       xlink:href="#linearGradient4176"
       gradientUnits="userSpaceOnUse" />
    <linearGradient
       x1="53"
       y1="74"
       x2="53"
       y2="32.987808"
       id="linearGradient4198"
       xlink:href="#linearGradient4192"
       gradientUnits="userSpaceOnUse" />
    <linearGradient
       x1="48"
       y1="72"
       x2="48"
       y2="24"
       id="linearGradient4222"
       xlink:href="#linearGradient4192"
       gradientUnits="userSpaceOnUse" />
    <radialGradient
       cx="48"
       cy="70"
       r="16"
       fx="48"
       fy="70"
       id="radialGradient4232"
       xlink:href="#linearGradient4192"
       gradientUnits="userSpaceOnUse"
       gradientTransform="matrix(1.1875,0,0,0.5625,-9,27)" />
    <linearGradient
       x1="33"
       y1="68"
       x2="33"
       y2="61"
       id="linearGradient4242"
       xlink:href="#linearGradient4236"
       gradientUnits="userSpaceOnUse"
       gradientTransform="matrix(0.5,0,0,1,18,0)" />
    <linearGradient
       x1="33"
       y1="68"
       x2="33"
       y2="61"
       id="linearGradient4298"
       xlink:href="#linearGradient4236"
       gradientUnits="userSpaceOnUse"
       gradientTransform="translate(0,40)" />
    <linearGradient
       x1="33"
       y1="68"
       x2="33"
       y2="61"
       id="linearGradient4300"
       xlink:href="#linearGradient4236"
       gradientUnits="userSpaceOnUse"
       gradientTransform="translate(4,40)" />
    <linearGradient
       x1="33"
       y1="68"
       x2="33"
       y2="61"
       id="linearGradient4302"
       xlink:href="#linearGradient4236"
       gradientUnits="userSpaceOnUse"
       gradientTransform="translate(8,40)" />
    <linearGradient
       x1="33"
       y1="68"
       x2="33"
       y2="61"
       id="linearGradient4304"
       xlink:href="#linearGradient4236"
       gradientUnits="userSpaceOnUse"
       gradientTransform="translate(12,40)" />
    <linearGradient
       x1="33"
       y1="68"
       x2="33"
       y2="61"
       id="linearGradient4306"
       xlink:href="#linearGradient4236"
       gradientUnits="userSpaceOnUse"
       gradientTransform="translate(16,40)" />
    <linearGradient
       x1="33"
       y1="68"
       x2="33"
       y2="61"
       id="linearGradient4308"
       xlink:href="#linearGradient4236"
       gradientUnits="userSpaceOnUse"
       gradientTransform="translate(20,40)" />
    <linearGradient
       x1="33"
       y1="68"
       x2="33"
       y2="61"
       id="linearGradient4310"
       xlink:href="#linearGradient4236"
       gradientUnits="userSpaceOnUse"
       gradientTransform="translate(24,40)" />
    <linearGradient
       x1="33"
       y1="68"
       x2="33"
       y2="61"
       id="linearGradient4312"
       xlink:href="#linearGradient4236"
       gradientUnits="userSpaceOnUse"
       gradientTransform="translate(28,40)" />
    <linearGradient
       x1="33"
       y1="68"
       x2="33"
       y2="61"
       id="linearGradient4316"
       xlink:href="#linearGradient4236"
       gradientUnits="userSpaceOnUse"
       gradientTransform="matrix(0.5,0,0,1,22,0)" />
    <linearGradient
       x1="33"
       y1="68"
       x2="33"
       y2="61"
       id="linearGradient4320"
       xlink:href="#linearGradient4236"
       gradientUnits="userSpaceOnUse"
       gradientTransform="matrix(0.5,0,0,1,26,0)" />
    <linearGradient
       x1="33"
       y1="68"
       x2="33"
       y2="61"
       id="linearGradient4324"
       xlink:href="#linearGradient4236"
       gradientUnits="userSpaceOnUse"
       gradientTransform="matrix(0.5,0,0,1,30,0)" />
    <linearGradient
       x1="33"
       y1="68"
       x2="33"
       y2="61"
       id="linearGradient4328"
       xlink:href="#linearGradient4236"
       gradientUnits="userSpaceOnUse"
       gradientTransform="matrix(0.5,0,0,1,34,0)" />
    <linearGradient
       x1="33"
       y1="68"
       x2="33"
       y2="61"
       id="linearGradient4332"
       xlink:href="#linearGradient4236"
       gradientUnits="userSpaceOnUse"
       gradientTransform="matrix(0.5,0,0,1,38,0)" />
    <linearGradient
       x1="33"
       y1="68"
       x2="33"
       y2="61"
       id="linearGradient4336"
       xlink:href="#linearGradient4236"
       gradientUnits="userSpaceOnUse"
       gradientTransform="matrix(0.5,0,0,1,42,0)" />
    <linearGradient
       x1="33"
       y1="68"
       x2="33"
       y2="61"
       id="linearGradient4340"
       xlink:href="#linearGradient4236"
       gradientUnits="userSpaceOnUse"
       gradientTransform="matrix(0.5,0,0,1,46,0)" />
    <linearGradient
       x1="45.447727"
       y1="92.539597"
       x2="45.447727"
       y2="7.0165396"
       id="ButtonShadow-0"
       gradientUnits="userSpaceOnUse"
       gradientTransform="matrix(1.0058652,0,0,0.994169,100,0)">
      <stop
         id="stop3750-8"
         style="stop-color:#000000;stop-opacity:1"
         offset="0" />
      <stop
         id="stop3752-5"
         style="stop-color:#000000;stop-opacity:0.58823532"
         offset="1" />
    </linearGradient>
    <linearGradient
       x1="32.251034"
       y1="6.1317081"
       x2="32.251034"
       y2="90.238609"
       id="linearGradient3780"
       xlink:href="#ButtonShadow-0"
       gradientUnits="userSpaceOnUse"
       gradientTransform="matrix(1.0238095,0,0,1.0119048,-1.1428571,-98.071429)" />
    <linearGradient
       x1="32.251034"
       y1="6.1317081"
       x2="32.251034"
       y2="90.238609"
       id="linearGradient3772"
       xlink:href="#ButtonShadow-0"
       gradientUnits="userSpaceOnUse"
       gradientTransform="matrix(1.0238095,0,0,1.0119048,-1.1428571,-98.071429)" />
    <linearGradient
       x1="32.251034"
       y1="6.1317081"
       x2="32.251034"
       y2="90.238609"
       id="linearGradient3725"
       xlink:href="#ButtonShadow-0"
       gradientUnits="userSpaceOnUse"
       gradientTransform="matrix(1.0238095,0,0,1.0119048,-1.1428571,-98.071429)" />
    <linearGradient
       x1="32.251034"
       y1="6.1317081"
       x2="32.251034"
       y2="90.238609"
       id="linearGradient3721"
       xlink:href="#ButtonShadow-0"
       gradientUnits="userSpaceOnUse"
       gradientTransform="translate(0,-97)" />
    <linearGradient
       x1="32.251034"
       y1="6.1317081"
       x2="32.251034"
       y2="90.238609"
       id="linearGradient3122"
       xlink:href="#ButtonShadow-0"
       gradientUnits="userSpaceOnUse"
       gradientTransform="matrix(1.0238095,0,0,1.0119048,-1.1428571,-98.071429)" />
    <linearGradient
       x1="11"
       y1="11.015625"
       x2="19"
       y2="11.015625"
       id="linearGradient2927-4-6"
       xlink:href="#linearGradient3183-0-7"
       gradientUnits="userSpaceOnUse"
       gradientTransform="matrix(0,-3.0000004,2.9652505,0,39.335916,117.00001)" />
    <linearGradient
       id="linearGradient3183-0-7">
      <stop
         id="stop3185-9-3"
         style="stop-color:#c80000;stop-opacity:1"
         offset="0" />
      <stop
         id="stop3187-6-6"
         style="stop-color:#f3604d;stop-opacity:1"
         offset="1" />
    </linearGradient>
  </defs>
  <metadata
     id="metadata2413">
    <rdf:RDF>
      <cc:Work
         rdf:about="">
        <dc:format>image/svg+xml</dc:format>
        <dc:type
           rdf:resource="http://purl.org/dc/dcmitype/StillImage" />
        <dc:title />
      </cc:Work>
    </rdf:RDF>
  </metadata>
  <g
     id="layer2"
     style="display:none">
    <rect
       width="86"
       height="85"
       rx="6"
       ry="6"
       x="5"
       y="7"
       id="rect3745"
       style="opacity:0.9;fill:url(#ButtonShadow);fill-opacity:1;fill-rule:nonzero;stroke:none;filter:url(#filter3174)" />
  </g>
  <g
     id="layer5"
     style="display:inline">
    <path
       d="m 12,-95.03125 c -5.5110903,0 -10.03125,4.52016 -10.03125,10.03125 l 0,71 c 0,5.5110902 4.5201598,10.03125 10.03125,10.03125 l 72,0 c 5.51109,0 10.03125,-4.5201597 10.03125,-10.03125 l 0,-71 c 0,-5.51109 -4.52016,-10.03125 -10.03125,-10.03125 l -72,0 z"
       transform="scale(1,-1)"
       id="path3786"
       style="opacity:0.07999998;fill:url(#linearGradient3122);fill-opacity:1;fill-rule:nonzero;stroke:none;display:inline" />
    <path
       d="m 12,-94.03125 c -4.971633,0 -9.03125,4.059617 -9.03125,9.03125 l 0,71 c 0,4.9716329 4.0596171,9.03125 9.03125,9.03125 l 72,0 c 4.971633,0 9.03125,-4.059617 9.03125,-9.03125 l 0,-71 c 0,-4.971633 -4.059617,-9.03125 -9.03125,-9.03125 l -72,0 z"
       transform="scale(1,-1)"
       id="path3778"
       style="opacity:0.1;fill:url(#linearGradient3780);fill-opacity:1;fill-rule:nonzero;stroke:none;display:inline" />
    <path
       d="m 12,-93 c -4.4091333,0 -8,3.590867 -8,8 l 0,71 c 0,4.4091333 3.5908667,8 8,8 l 72,0 c 4.409133,0 8,-3.5908667 8,-8 l 0,-71 c 0,-4.409133 -3.590867,-8 -8,-8 l -72,0 z"
       transform="scale(1,-1)"
       id="path3770"
       style="opacity:0.2;fill:url(#linearGradient3772);fill-opacity:1;fill-rule:nonzero;stroke:none;display:inline" />
    <rect
       width="86"
       height="85"
       rx="7"
       ry="7"
       x="5"
       y="-92"
       transform="scale(1,-1)"
       id="rect3723"
       style="opacity:0.3;fill:url(#linearGradient3725);fill-opacity:1;fill-rule:nonzero;stroke:none;display:inline" />
    <rect
       width="84"
       height="84"
       rx="6"
       ry="6"
       x="6"
       y="-91"
       transform="scale(1,-1)"
       id="rect3716"
       style="opacity:0.45;fill:url(#linearGradient3721);fill-opacity:1;fill-rule:nonzero;stroke:none;display:inline" />
  </g>
  <g
     id="layer1">
    <rect
       width="84"
       height="84"
       rx="6"
       ry="6"
       x="6"
       y="6"
       id="rect2419"
       style="fill:url(#linearGradient3706);fill-opacity:1;fill-rule:nonzero;stroke:none" />
    <path
       d="m -63.726112,6.0817019 c 1.650116,2.216692 0.112581,5.9183371 2.601472,5.8815911 1.2119,1.714016 -2.415455,0.511296 0.203594,1.832342 1.506105,1.186578 -1.593388,1.86454 0.27179,2.929374 -2.149689,1.109666 0.348443,5.803987 1.945119,6.978848 2.627954,2.213161 1.162204,-4.685722 4.094495,-5.044597 1.593359,-1.819699 4.391847,-2.987811 6.379273,-4.818381 -1.942301,-0.15774 -3.076464,-1.367135 -1.237028,-2.116304 3.385456,3.470394 0.848905,-1.643528 -1.025128,-2.4532401 1.813361,-0.577046 3.576977,-0.154481 3.325361,-1.65137 1.916325,-1.402516 -1.842255,-1.855344 -3.183935,-1.538263 -4.458342,0 -8.916678,0 -13.375013,0 z m -27.801852,1.447777 c -2.449761,0.698195 -2.620644,6.5548781 -0.158351,3.3027391 0.604343,-1.3353661 3.397078,-2.9446721 0.158351,-3.3027391 z m 11.446491,0.203593 c -1.412257,2.2153416 0.204915,3.9914991 1.379912,1.289427 0.831709,-1.128343 -0.617926,-1.248085 -1.379912,-1.289427 z m 3.528956,0.497674 c -2.72875,1.265212 -0.672602,4.2155641 -0.605059,4.8717381 2.87456,0.994829 4.473227,-0.650437 5.560693,2.161488 2.73516,1.576935 -0.05382,4.317061 -1.080544,5.030674 1.849342,-1.611189 5.404158,4.380481 4.472249,1.214924 -1.11178,-0.812076 2.985161,1.304563 0.859619,-1.334669 -1.956059,-3.152657 0.155272,-1.411414 0.979953,-0.675608 2.804888,-2.516097 -3.173595,-2.820214 -1.681217,-5.409578 -1.307758,-1.059583 -3.02289,-4.2694931 -5.33868,-3.642063 -1.550241,2.005564 -0.214153,-4.3699601 -2.488605,-1.1795631 -0.117891,1.7834151 -0.04285,4.0464551 -0.705711,0.9568241 -0.444071,-0.5408721 0.764001,-1.7982981 0.0273,-1.9941671 z m -5.564894,0.022621 c -1.8316,0.610853 -1.733228,3.0865051 0.518957,3.3519111 0.771435,-0.879633 0.306491,-3.1853381 -0.518957,-3.3519111 z m -7.148401,0.791753 c -2.379079,0.563878 -1.407992,2.4828651 -0.679573,3.0233211 -2.944918,0.737923 4.495691,0.943126 0.792681,1.410494 -3.080791,1.230835 2.966663,2.680942 3.958766,1.221561 3.804391,0.930735 0.136908,-3.046545 -0.19704,-5.2025321 -1.612752,-1.731481 -0.06366,3.9915331 -1.521869,0.184408 -0.508786,1.1305431 -2.126527,0.166598 -2.352965,-0.637252 z m 75.601127,0.248837 c -3.192449,1.2498621 1.98418,5.9664341 0.697641,1.6754941 -0.128164,-0.518125 0.288199,-1.8871051 -0.697641,-1.6754941 z m -66.665626,1.9002051 c -2.29408,2.156707 2.915989,3.940201 -0.658895,5.546906 -0.536018,-2.002938 -1.458273,1.002105 -3.503464,-0.615417 -3.515899,1.464466 -5.313868,-0.762828 -8.257536,-2.28957 -1.768029,-0.220164 -1.10378,1.680533 -1.220883,3.460193 0,4.918306 0,9.836614 0,14.75492 1.733489,1.82448 0.676329,0.804976 0,0.301752 0.951467,3.241642 -0.419572,7.980231 3.330851,9.86583 0.637564,1.183033 3.312883,6.223076 3.436221,4.715046 -1.341215,-1.405066 -2.717353,-5.617387 -0.447896,-1.863024 2.032755,3.568795 4.774749,5.883507 8.780477,6.73276 2.190057,0.745225 3.991169,3.306965 5.917116,2.743325 1.089051,2.871967 -3.227416,5.629887 0.144912,8.308597 1.760515,2.7118 4.716185,4.4904 3.11596,8.29758 -1.119073,3.71826 -0.639926,7.76974 -1.607786,11.23409 -0.300394,2.10873 2.938037,7.46101 2.65747,3.17511 0.945569,-2.9784 0.92064,-6.25562 3.147579,-8.36483 3.047115,0.02413 0.582377,-3.27775 3.60701,-2.84642 1.845644,-2.42007 2.380233,-5.30712 5.49491,-6.26809 0.372042,-2.9376 5.178821,-7.43659 0.213139,-8.580318 -1.349609,-0.665451 -4.824504,-0.904732 -4.55895,-1.233078 0.538034,-2.914877 -4.493466,-3.744701 -6.634228,-4.937269 -2.810759,-1.995848 -7.034237,3.315594 -8.024515,-1.261025 -0.590876,-1.439948 -2.751326,-1.463301 -1.758429,-3.68521 -1.789388,1.780326 -5.289343,1.23924 -4.373033,-2.198916 1.39157,-2.895595 6.735639,-3.032599 7.64626,0.450282 -1.264352,-3.841203 2.443938,-6.83143 4.502527,-9.564217 0.419165,-1.3062 2.909742,-2.428425 2.052679,-0.692421 1.460154,-0.05269 3.673291,-2.688637 1.079407,-1.472012 -0.03668,-2.403896 -2.272976,-1.720272 -2.997994,-1.378934 1.34377,-2.133574 8.24499,-0.967127 5.355098,-4.454587 -2.239305,-0.907679 -2.053024,-6.204449 -4.317999,-3.253597 0.190595,-1.818146 -4.610012,-5.377145 -4.505255,-2.328319 0.585986,2.728128 0.107133,5.870869 -1.139926,7.659113 -0.260245,-3.99762 -7.075678,-3.114085 -6.199423,-7.373995 1.26944,-2.030291 2.752851,-4.83791 2.894179,-4.585337 2.275048,-0.868941 4.104591,-3.396512 1.46783,-5.058122 -0.140917,1.448202 -1.98303,4.436139 -1.72366,0.822325 -1.705794,2.02318 -1.316199,-3.219407 -2.913753,-3.763121 z m 54.450004,1.402533 c -3.995941,0.977838 -5.580067,4.795836 -7.556815,7.958163 -2.913853,1.314237 -2.802938,6.958318 0.452411,5.155674 0.87128,1.522277 -0.609505,3.921673 1.928313,1.931216 2.046994,-2.709901 0.357939,-7.092756 3.841419,-8.801515 0.253727,1.32865 -3.213334,6.289871 0.836994,5.474405 3.66156,0.138209 -2.661851,0.364969 -0.881001,2.704729 -1.850264,-1.098211 -0.888827,2.999333 -3.303976,2.045788 -2.092333,1.138533 -3.464338,-0.528629 -2.985033,-2.35496 -1.645958,0.960573 0.517696,3.67045 -2.339585,3.83331 -0.640044,2.273659 -5.903378,1.930962 -2.910208,4.246159 1.328901,3.445358 -4.95153,0.215986 -3.16853,4.35053 1.525447,4.088438 4.722394,-1.354722 6.019433,-2.406348 2.502474,-1.941872 6.210661,3.311089 3.958763,3.506335 2.525083,-0.338912 2.006191,-2.74125 -0.01696,-3.671301 -1.092676,-2.834933 3.459035,1.390324 3.206601,2.811683 1.605944,3.008346 0.944615,-3.080088 2.578854,-0.384565 -0.190808,2.843378 6.574181,0.668556 3.344389,4.292415 -2.776877,0.559513 -5.510134,-0.716143 -7.900831,0.100926 -2.22511,-0.01969 -2.113469,-2.397964 -2.923585,-2.993542 -2.830365,0.23004 -6.327933,0.204027 -8.222767,2.491404 -2.049016,2.812343 -5.00383,6.743795 -2.770526,10.334807 2.234877,5.321462 7.777183,0.276028 10.962975,3.418767 0.946936,1.310381 -0.820594,2.868035 1.296711,4.287425 0.796704,3.02353 -0.904488,5.89433 1.052264,8.78464 1.011837,2.7182 1.639779,6.78664 5.40576,4.30281 3.985771,-2.39945 2.924161,-6.8227 6.212939,-9.27265 -2.60227,-5.038063 3.183628,-7.247103 4.627218,-11.337101 -3.153943,0.461909 -5.963772,-2.68376 -6.725787,-5.84994 -1.324936,-1.537885 -0.983676,-3.805502 0.496326,-0.916468 2.034259,1.971905 2.078217,7.823061 5.841274,4.813019 1.720349,-0.719835 6.418604,-3.465723 2.675109,-4.71532 -2.413043,1.748397 -5.075252,-5.224262 -1.531819,-1.179972 C -11.803936,46.650521 -10,47.301924 -10,43.677069 c 0,-9.766125 0,-19.664578 0,-29.496868 -0.802399,0.82028 -2.863802,2.335242 -3.904284,1.328569 -1.790368,0.249406 -4.153886,3.734285 -3.59125,0.365539 -1.556235,-0.103093 -0.278581,3.020534 -2.416637,3.107891 -0.215289,1.605887 -2.159868,0.297377 -1.429431,1.822369 -1.500645,-1.064875 -2.770669,-4.427041 0.186146,-2.316729 4.391021,-1.317844 -2.895608,-4.290405 -3.458045,-5.008905 0.945455,-0.226615 -1.028609,-1.212248 -1.266806,-0.88224 z m -36.239676,0.88224 c -1.461507,1.2182 2.778528,1.447612 0,0 z m -19.522376,0.656023 c -1.634652,1.710504 2.603281,1.572448 0,0 z m 9.478418,1.696613 c -1.237867,2.028578 1.829027,0.748943 0,0 z m 27.100586,2.39788 c -1.449235,1.669078 -3.362051,-0.439263 -3.39323,0.995347 0.262642,0.433474 1.314671,3.527292 3.619439,1.244183 1.236985,-0.52171 0.749963,-1.836879 -0.226209,-2.23953 z m -30.855759,0.995347 c -2.748806,2.401478 4.668304,2.622741 0.582324,0.275426 l -0.582324,-0.275426 z m 36.262298,6.650724 c -1.979083,1.291041 0.949434,4.032808 -0.04308,5.320723 -1.240104,2.161465 4.608325,-0.152255 1.484614,-1.87676 -0.222564,-1.481616 -1.830018,-3.289356 -1.441539,-3.443963 z m -1.334668,2.601473 c -2.757392,0.779858 -0.625964,4.806237 0.350657,1.013998 0.05497,-0.219858 0.12936,-1.021351 -0.350657,-1.013998 z m -22.078603,2.918175 c -2.565224,1.749832 -0.39843,3.496444 1.481561,2.709121 -0.385959,-1.055763 -1.46417,-1.720956 -1.481561,-2.709121 z m 48.455298,2.940797 c 1.279946,0.646198 -2.345536,1.750082 -0.04983,2.887358 1.335978,1.571671 0.832312,4.945457 -1.339202,2.557643 0.403442,-2.665992 -2.943559,-4.656978 1.389033,-5.445001 z m -6.582867,0.02262 c -0.173666,1.712793 3.69395,4.375139 -0.475048,3.506334 -2.204744,0.258725 -5.506966,-0.06739 -2.729423,-2.815681 0.87765,-0.527085 3.182055,1.818498 1.982912,-0.373952 0.42514,-0.02713 0.821079,-0.187672 1.221559,-0.316701 z m -12.735913,3.709927 c -1.608116,1.036413 1.111982,1.831121 0,0 z M -74.312986,47.7279 c -0.271103,0.904805 5.085991,1.821755 1.389301,0.372149 l -0.551068,-0.194046 -0.838233,-0.178103 z m 4.16236,1.289426 c -1.624915,1.650213 3.347807,0.493017 0,0 z m 54.336901,15.133794 c -3.530727,0.09113 -3.061331,9.20159 -0.600138,3.81083 0.233406,-1.16979 1.168903,-2.71377 0.600138,-3.81083 z"
       inkscape:connector-curvature="0"
       id="path3522"
       style="opacity:0.15;fill:#000000;fill-opacity:1;stroke:none;display:inline" />
    <path
       d="M 12,6 C 8.676,6 6,8.676 6,12 l 0,2 0,68 0,2 c 0,0.334721 0.04135,0.6507 0.09375,0.96875 0.0487,0.295596 0.09704,0.596915 0.1875,0.875 0.00988,0.03038 0.020892,0.0636 0.03125,0.09375 0.098865,0.287771 0.2348802,0.547452 0.375,0.8125 0.1445918,0.273507 0.3156161,0.535615 0.5,0.78125 0.1843839,0.245635 0.3737765,0.473472 0.59375,0.6875 0.439947,0.428056 0.94291,0.814526 1.5,1.09375 0.278545,0.139612 0.5734731,0.246947 0.875,0.34375 -0.2562018,-0.100222 -0.4867109,-0.236272 -0.71875,-0.375 -0.00741,-0.0044 -0.023866,0.0045 -0.03125,0 -0.031933,-0.0193 -0.062293,-0.04251 -0.09375,-0.0625 -0.120395,-0.0767 -0.2310226,-0.163513 -0.34375,-0.25 -0.1061728,-0.0808 -0.2132809,-0.161112 -0.3125,-0.25 C 8.4783201,88.557317 8.3087904,88.373362 8.15625,88.1875 8.0486711,88.057245 7.9378561,87.922215 7.84375,87.78125 7.818661,87.74287 7.805304,87.69538 7.78125,87.65625 7.716487,87.553218 7.6510225,87.451733 7.59375,87.34375 7.4927417,87.149044 7.3880752,86.928049 7.3125,86.71875 7.30454,86.69694 7.288911,86.6782 7.28125,86.65625 7.2494249,86.5643 7.2454455,86.469419 7.21875,86.375 7.1884177,86.268382 7.1483606,86.171969 7.125,86.0625 7.0521214,85.720988 7,85.364295 7,85 L 7,83 7,15 7,13 C 7,10.218152 9.2181517,8 12,8 l 2,0 68,0 2,0 c 2.781848,0 5,2.218152 5,5 l 0,2 0,68 0,2 c 0,0.364295 -0.05212,0.720988 -0.125,1.0625 -0.04415,0.206893 -0.08838,0.397658 -0.15625,0.59375 -0.0077,0.02195 -0.0233,0.04069 -0.03125,0.0625 -0.06274,0.173739 -0.138383,0.367449 -0.21875,0.53125 -0.04158,0.0828 -0.07904,0.169954 -0.125,0.25 -0.0546,0.09721 -0.126774,0.18835 -0.1875,0.28125 -0.09411,0.140965 -0.204921,0.275995 -0.3125,0.40625 -0.143174,0.17445 -0.303141,0.346998 -0.46875,0.5 -0.01117,0.0102 -0.01998,0.02115 -0.03125,0.03125 -0.138386,0.125556 -0.285091,0.234436 -0.4375,0.34375 -0.102571,0.07315 -0.204318,0.153364 -0.3125,0.21875 -0.0074,0.0045 -0.02384,-0.0044 -0.03125,0 -0.232039,0.138728 -0.462548,0.274778 -0.71875,0.375 0.301527,-0.0968 0.596455,-0.204138 0.875,-0.34375 0.55709,-0.279224 1.060053,-0.665694 1.5,-1.09375 0.219973,-0.214028 0.409366,-0.441865 0.59375,-0.6875 0.184384,-0.245635 0.355408,-0.507743 0.5,-0.78125 0.14012,-0.265048 0.276135,-0.524729 0.375,-0.8125 0.01041,-0.03078 0.02133,-0.06274 0.03125,-0.09375 0.09046,-0.278085 0.1388,-0.579404 0.1875,-0.875 C 89.95865,84.6507 90,84.334721 90,84 l 0,-2 0,-68 0,-2 C 90,8.676 87.324,6 84,6 L 12,6 z"
       inkscape:connector-curvature="0"
       id="rect3728"
       style="opacity:0.5;fill:url(#linearGradient3188);fill-opacity:1;fill-rule:nonzero;stroke:none" />
    <path
       d="M 12,90 C 8.676,90 6,87.324 6,84 L 6,82 6,14 6,12 c 0,-0.334721 0.04135,-0.6507 0.09375,-0.96875 0.0487,-0.295596 0.09704,-0.596915 0.1875,-0.875 C 6.29113,10.12587 6.302142,10.09265 6.3125,10.0625 6.411365,9.774729 6.5473802,9.515048 6.6875,9.25 6.8320918,8.976493 7.0031161,8.714385 7.1875,8.46875 7.3718839,8.223115 7.5612765,7.995278 7.78125,7.78125 8.221197,7.353194 8.72416,6.966724 9.28125,6.6875 9.559795,6.547888 9.8547231,6.440553 10.15625,6.34375 9.9000482,6.443972 9.6695391,6.580022 9.4375,6.71875 c -0.00741,0.0044 -0.023866,-0.0045 -0.03125,0 -0.031933,0.0193 -0.062293,0.04251 -0.09375,0.0625 -0.120395,0.0767 -0.2310226,0.163513 -0.34375,0.25 -0.1061728,0.0808 -0.2132809,0.161112 -0.3125,0.25 C 8.4783201,7.442683 8.3087904,7.626638 8.15625,7.8125 8.0486711,7.942755 7.9378561,8.077785 7.84375,8.21875 7.818661,8.25713 7.805304,8.30462 7.78125,8.34375 7.716487,8.446782 7.6510225,8.548267 7.59375,8.65625 7.4927417,8.850956 7.3880752,9.071951 7.3125,9.28125 7.30454,9.30306 7.288911,9.3218 7.28125,9.34375 7.2494249,9.4357 7.2454455,9.530581 7.21875,9.625 7.1884177,9.731618 7.1483606,9.828031 7.125,9.9375 7.0521214,10.279012 7,10.635705 7,11 l 0,2 0,68 0,2 c 0,2.781848 2.2181517,5 5,5 l 2,0 68,0 2,0 c 2.781848,0 5,-2.218152 5,-5 l 0,-2 0,-68 0,-2 C 89,10.635705 88.94788,10.279012 88.875,9.9375 88.83085,9.730607 88.78662,9.539842 88.71875,9.34375 88.71105,9.3218 88.69545,9.30306 88.6875,9.28125 88.62476,9.107511 88.549117,8.913801 88.46875,8.75 88.42717,8.6672 88.38971,8.580046 88.34375,8.5 88.28915,8.40279 88.216976,8.31165 88.15625,8.21875 88.06214,8.077785 87.951329,7.942755 87.84375,7.8125 87.700576,7.63805 87.540609,7.465502 87.375,7.3125 87.36383,7.3023 87.35502,7.29135 87.34375,7.28125 87.205364,7.155694 87.058659,7.046814 86.90625,6.9375 86.803679,6.86435 86.701932,6.784136 86.59375,6.71875 c -0.0074,-0.0045 -0.02384,0.0044 -0.03125,0 -0.232039,-0.138728 -0.462548,-0.274778 -0.71875,-0.375 0.301527,0.0968 0.596455,0.204138 0.875,0.34375 0.55709,0.279224 1.060053,0.665694 1.5,1.09375 0.219973,0.214028 0.409366,0.441865 0.59375,0.6875 0.184384,0.245635 0.355408,0.507743 0.5,0.78125 0.14012,0.265048 0.276135,0.524729 0.375,0.8125 0.01041,0.03078 0.02133,0.06274 0.03125,0.09375 0.09046,0.278085 0.1388,0.579404 0.1875,0.875 C 89.95865,11.3493 90,11.665279 90,12 l 0,2 0,68 0,2 c 0,3.324 -2.676,6 -6,6 l -72,0 z"
       inkscape:connector-curvature="0"
       id="path3615"
       style="opacity:0.2;fill:url(#radialGradient2855);fill-opacity:1;fill-rule:nonzero;stroke:none" />
  </g>
  <g
     id="layer4">
    <rect
       width="66"
       height="66"
       rx="12"
       ry="12"
       x="15"
       y="15"
       clip-path="url(#clipPath3613)"
       id="rect3171"
       style="opacity:0.15;fill:url(#linearGradient2885);fill-opacity:1;fill-rule:nonzero;stroke:#ffffff;stroke-width:0.5;stroke-linecap:round;stroke-linejoin:miter;stroke-miterlimit:4;stroke-opacity:1;stroke-dasharray:none;stroke-dashoffset:0;filter:url(#filter3794)" />
  </g>
  <g
     id="layer3">
    <path
       d="M 39.8125,22.03125 A 1.9843903,1.9843903 0 0 0 38.03125,24 l 0,2.03125 -2.03125,0 A 1.9843903,1.9843903 0 0 0 34.03125,28 l 0,2.03125 -7.03125,0 c -2.726921,0 -4.96875,2.241829 -4.96875,4.96875 l 0,34 c 0,2.726921 2.241829,4.96875 4.96875,4.96875 l 42,0 c 2.726921,0 4.96875,-2.241829 4.96875,-4.96875 l 0,-34 c 0,-2.726921 -2.241829,-4.96875 -4.96875,-4.96875 l -7.03125,0 0,-2.03125 A 1.9843903,1.9843903 0 0 0 60,26.03125 l -2.03125,0 0,-2.03125 A 1.9843903,1.9843903 0 0 0 56,22.03125 l -16,0 a 1.9843903,1.9843903 0 0 0 -0.1875,0 z"
       id="path4188"
       style="opacity:0.8;color:#000000;fill:url(#linearGradient4198);fill-opacity:1;fill-rule:nonzero;stroke:none;stroke-width:1;marker:none;visibility:visible;display:inline;overflow:visible;enable-background:accumulate" />
    <path
       d="m 40,24 0,4 -4,0 0,4 -9,0 c -1.662,0 -3,1.338 -3,3 l 0,34 c 0,1.662 1.338,3 3,3 l 42,0 c 1.662,0 3,-1.338 3,-3 l 0,-34 c 0,-1.662 -1.338,-3 -3,-3 l -9,0 0,-4 -4,0 0,-4 -16,0 z"
       inkscape:connector-curvature="0"
       id="rect4162"
       style="color:#000000;fill:url(#linearGradient4182);fill-opacity:1;fill-rule:nonzero;stroke:none;stroke-width:1;marker:none;visibility:visible;display:inline;overflow:visible;enable-background:accumulate" />
    <path
       d="m 130,24 0,4 -4,0 0,4 -9,0 c -1.662,0 -3,1.338 -3,3 l 0,34 c 0,1.662 1.338,3 3,3 l 42,0 c 1.662,0 3,-1.338 3,-3 l 0,-34 c 0,-1.662 -1.338,-3 -3,-3 l -9,0 0,-4 -4,0 0,-4 -16,0 z"
       inkscape:connector-curvature="0"
       id="rect4168"
       style="color:#000000;fill:#000000;fill-opacity:1;fill-rule:nonzero;stroke:none;stroke-width:1;marker:none;visibility:visible;display:inline;overflow:visible;enable-background:accumulate" />
    <path
       d="m 40,22 0,2 16,0 0,-2 -16,0 z m -4,4 0,2 4,0 0,-2 -4,0 z m 20,0 0,2 4,0 0,-2 -4,0 z m -29,4 c -1.662,0 -3,1.338 -3,3 l 0,2 c 0,-1.662 1.338,-3 3,-3 l 9,0 0,-2 -9,0 z m 33,0 0,2 9,0 c 1.662,0 3,1.338 3,3 l 0,-2 c 0,-1.662 -1.338,-3 -3,-3 l -9,0 z"
       inkscape:connector-curvature="0"
       id="path4200"
       style="opacity:0.15;color:#000000;fill:#000000;fill-opacity:1;fill-rule:nonzero;stroke:none;stroke-width:1;marker:none;visibility:visible;display:inline;overflow:visible;enable-background:accumulate" />
    <path
       d="m 40,24 0,4 -4,0 0,4 -9,0 c -1.662,0 -3,1.338 -3,3 l 0,34 c 0,1.662 1.338,3 3,3 l 42,0 c 1.662,0 3,-1.338 3,-3 l 0,-34 c 0,-1.662 -1.338,-3 -3,-3 l -9,0 0,-4 -4,0 0,-4 -16,0 z m 1.96875,1.96875 12.0625,0 0,2.03125 A 1.9749666,1.9749666 0 0 0 56,29.96875 l 2.03125,0 0,2.03125 A 1.9749666,1.9749666 0 0 0 60,33.96875 l 9,0 c 0.602136,0 1.03125,0.429114 1.03125,1.03125 l 0,34 c 0,0.602136 -0.429114,1.03125 -1.03125,1.03125 l -42,0 c -0.602136,0 -1.03125,-0.429114 -1.03125,-1.03125 l 0,-34 c 0,-0.602136 0.429114,-1.03125 1.03125,-1.03125 l 9,0 A 1.9749666,1.9749666 0 0 0 37.96875,32 l 0,-2.03125 2.03125,0 A 1.9749666,1.9749666 0 0 0 41.96875,28 l 0,-2.03125 z"
       inkscape:connector-curvature="0"
       id="path4209"
       style="opacity:0.2;color:#000000;fill:url(#linearGradient4222);fill-opacity:1;fill-rule:nonzero;stroke:none;stroke-width:1;marker:none;visibility:visible;display:inline;overflow:visible;enable-background:accumulate" />
    <rect
       width="38"
       height="18"
       x="29"
       y="54"
       id="rect4224"
       style="opacity:0.2;color:#000000;fill:url(#radialGradient4232);fill-opacity:1;fill-rule:nonzero;stroke:none;stroke-width:1;marker:none;visibility:visible;display:inline;overflow:visible;enable-background:accumulate" />
    <rect
       width="1"
       height="7"
       x="34"
       y="61"
       id="rect4234"
       style="color:#000000;fill:url(#linearGradient4242);fill-opacity:1;fill-rule:nonzero;stroke:none;stroke-width:1;marker:none;visibility:visible;display:inline;overflow:visible;enable-background:accumulate" />
    <path
       d="m 40,23 0,1 16,0 0,-1 -16,0 z m -4,4 0,1 4,0 0,-1 -4,0 z m 20,0 0,1 4,0 0,-1 -4,0 z m -29,4 c -1.662,0 -3,1.338 -3,3 l 0,1 c 0,-1.662 1.338,-3 3,-3 l 9,0 0,-1 -9,0 z m 33,0 0,1 9,0 c 1.662,0 3,1.338 3,3 l 0,-1 c 0,-1.662 -1.338,-3 -3,-3 l -9,0 z"
       inkscape:connector-curvature="0"
       id="path4276"
       style="opacity:0.3;color:#000000;fill:#000000;fill-opacity:1;fill-rule:nonzero;stroke:none;stroke-width:1;marker:none;visibility:visible;display:inline;overflow:visible;enable-background:accumulate" />
    <rect
       width="2"
       height="7"
       x="32"
       y="101"
       id="rect4282"
       style="color:#000000;fill:url(#linearGradient4298);fill-opacity:1;fill-rule:nonzero;stroke:none;stroke-width:1;marker:none;visibility:visible;display:inline;overflow:visible;enable-background:accumulate" />
    <rect
       width="2"
       height="7"
       x="36"
       y="101"
       id="rect4284"
       style="color:#000000;fill:url(#linearGradient4300);fill-opacity:1;fill-rule:nonzero;stroke:none;stroke-width:1;marker:none;visibility:visible;display:inline;overflow:visible;enable-background:accumulate" />
    <rect
       width="2"
       height="7"
       x="40"
       y="101"
       id="rect4286"
       style="color:#000000;fill:url(#linearGradient4302);fill-opacity:1;fill-rule:nonzero;stroke:none;stroke-width:1;marker:none;visibility:visible;display:inline;overflow:visible;enable-background:accumulate" />
    <rect
       width="2"
       height="7"
       x="44"
       y="101"
       id="rect4288"
       style="color:#000000;fill:url(#linearGradient4304);fill-opacity:1;fill-rule:nonzero;stroke:none;stroke-width:1;marker:none;visibility:visible;display:inline;overflow:visible;enable-background:accumulate" />
    <rect
       width="2"
       height="7"
       x="48"
       y="101"
       id="rect4290"
       style="color:#000000;fill:url(#linearGradient4306);fill-opacity:1;fill-rule:nonzero;stroke:none;stroke-width:1;marker:none;visibility:visible;display:inline;overflow:visible;enable-background:accumulate" />
    <rect
       width="2"
       height="7"
       x="52"
       y="101"
       id="rect4292"
       style="color:#000000;fill:url(#linearGradient4308);fill-opacity:1;fill-rule:nonzero;stroke:none;stroke-width:1;marker:none;visibility:visible;display:inline;overflow:visible;enable-background:accumulate" />
    <rect
       width="2"
       height="7"
       x="56"
       y="101"
       id="rect4294"
       style="color:#000000;fill:url(#linearGradient4310);fill-opacity:1;fill-rule:nonzero;stroke:none;stroke-width:1;marker:none;visibility:visible;display:inline;overflow:visible;enable-background:accumulate" />
    <rect
       width="2"
       height="7"
       x="60"
       y="101"
       id="rect4296"
       style="color:#000000;fill:url(#linearGradient4312);fill-opacity:1;fill-rule:nonzero;stroke:none;stroke-width:1;marker:none;visibility:visible;display:inline;overflow:visible;enable-background:accumulate" />
    <rect
       width="1"
       height="7"
       x="38"
       y="61"
       id="rect4314"
       style="color:#000000;fill:url(#linearGradient4316);fill-opacity:1;fill-rule:nonzero;stroke:none;stroke-width:1;marker:none;visibility:visible;display:inline;overflow:visible;enable-background:accumulate" />
    <rect
       width="1"
       height="7"
       x="42"
       y="61"
       id="rect4318"
       style="color:#000000;fill:url(#linearGradient4320);fill-opacity:1;fill-rule:nonzero;stroke:none;stroke-width:1;marker:none;visibility:visible;display:inline;overflow:visible;enable-background:accumulate" />
    <rect
       width="1"
       height="7"
       x="46"
       y="61"
       id="rect4322"
       style="color:#000000;fill:url(#linearGradient4324);fill-opacity:1;fill-rule:nonzero;stroke:none;stroke-width:1;marker:none;visibility:visible;display:inline;overflow:visible;enable-background:accumulate" />
    <rect
       width="1"
       height="7"
       x="50"
       y="61"
       id="rect4326"
       style="color:#000000;fill:url(#linearGradient4328);fill-opacity:1;fill-rule:nonzero;stroke:none;stroke-width:1;marker:none;visibility:visible;display:inline;overflow:visible;enable-background:accumulate" />
    <rect
       width="1"
       height="7"
       x="54"
       y="61"
       id="rect4330"
       style="color:#000000;fill:url(#linearGradient4332);fill-opacity:1;fill-rule:nonzero;stroke:none;stroke-width:1;marker:none;visibility:visible;display:inline;overflow:visible;enable-background:accumulate" />
    <rect
       width="1"
       height="7"
       x="58"
       y="61"
       id="rect4334"
       style="color:#000000;fill:url(#linearGradient4336);fill-opacity:1;fill-rule:nonzero;stroke:none;stroke-width:1;marker:none;visibility:visible;display:inline;overflow:visible;enable-background:accumulate" />
    <rect
       width="1"
       height="7"
       x="62"
       y="61"
       id="rect4338"
       style="color:#000000;fill:url(#linearGradient4340);fill-opacity:1;fill-rule:nonzero;stroke:none;stroke-width:1;marker:none;visibility:visible;display:inline;overflow:visible;enable-background:accumulate" />
    <path
       d="m 53.84375,-38.96875 c 7.23e-4,-8.4e-5 -0.09447,0.03137 -0.09375,0.03125 7.18e-4,-1.2e-4 -0.09446,1.55e-4 -0.09375,0 7.11e-4,-1.55e-4 -0.09445,0.03144 -0.09375,0.03125 0.001,-2.62e-4 -0.126005,0.03158 -0.125,0.03125 0.001,-3.35e-4 -0.125978,0.06291 -0.125,0.0625 9.78e-4,-4.08e-4 -0.157196,0.06298 -0.15625,0.0625 9.46e-4,-4.78e-4 -0.125908,0.06305 -0.125,0.0625 9.08e-4,-5.45e-4 -0.09462,0.09436 -0.09375,0.09375 8.66e-4,-6.1e-4 -0.12582,0.06317 -0.125,0.0625 8.2e-4,-6.71e-4 -0.09452,0.09448 -0.09375,0.09375 5.77e-4,-5.47e-4 -0.06575,0.06523 -0.09375,0.09375 -0.0093,0.0095 -0.03143,0.03145 -0.03125,0.03125 l -6,6.0625 c 9.53e-4,-0.001 -0.125853,0.157339 -0.125,0.15625 8.53e-4,-0.0011 -0.0945,0.126165 -0.09375,0.125 7.46e-4,-0.0012 -0.09438,0.15748 -0.09375,0.15625 6.32e-4,-0.0012 -0.09426,0.188785 -0.09375,0.1875 5.13e-4,-0.0013 -0.06289,0.157577 -0.0625,0.15625 3.89e-4,-0.0013 -0.03151,0.188858 -0.03125,0.1875 2.61e-4,-0.0014 -0.03138,0.188877 -0.03125,0.1875 1.31e-4,-0.0014 0,0.188883 0,0.1875 0,-0.0014 1.31e-4,0.188877 0,0.1875 -1.31e-4,-0.0014 0.03151,0.188858 0.03125,0.1875 -2.61e-4,-0.0014 0.03164,0.188827 0.03125,0.1875 -3.89e-4,-0.0013 0.06301,0.157535 0.0625,0.15625 -5.13e-4,-0.0013 0.09438,0.18873 0.09375,0.1875 -6.32e-4,-0.0012 0.0945,0.157415 0.09375,0.15625 -7.46e-4,-0.0012 0.0946,0.126089 0.09375,0.125 -8.53e-4,-0.0011 0.125953,0.157253 0.125,0.15625 l 4.5,4.5625 -4.5,4.5625 c 9.53e-4,-0.001 -0.125853,0.157339 -0.125,0.15625 8.53e-4,-0.0011 -0.0945,0.126165 -0.09375,0.125 7.46e-4,-0.0012 -0.09438,0.15748 -0.09375,0.15625 6.32e-4,-0.0012 -0.09426,0.188785 -0.09375,0.1875 5.13e-4,-0.0013 -0.06289,0.157577 -0.0625,0.15625 3.89e-4,-0.0013 -0.03151,0.188858 -0.03125,0.1875 2.61e-4,-0.0014 -0.03138,0.188877 -0.03125,0.1875 1.31e-4,-0.0014 0,0.188883 0,0.1875 0,-0.0014 1.31e-4,0.188877 0,0.1875 -1.31e-4,-0.0014 0.03151,0.188858 0.03125,0.1875 -2.61e-4,-0.0014 0.03164,0.188827 0.03125,0.1875 -3.89e-4,-0.0013 0.06301,0.157535 0.0625,0.15625 -5.13e-4,-0.0013 0.09438,0.18873 0.09375,0.1875 -6.32e-4,-0.0012 0.0945,0.157415 0.09375,0.15625 -7.46e-4,-0.0012 0.0946,0.126089 0.09375,0.125 -8.53e-4,-0.0011 0.125953,0.157253 0.125,0.15625 l 6.03125,6.09375 c -9.87e-4,-0.001 0.126082,0.125927 0.125,0.125 -0.0011,-9.27e-4 0.157418,0.125817 0.15625,0.125 -0.0012,-8.17e-4 0.157492,0.09445 0.15625,0.09375 -0.0012,-6.99e-4 0.188805,0.09432 0.1875,0.09375 -0.0013,-5.74e-4 0.188854,0.06294 0.1875,0.0625 -0.0014,-4.44e-4 0.157641,0.06281 0.15625,0.0625 -0.0014,-3.1e-4 0.188915,0.03142 0.1875,0.03125 -0.0014,-1.72e-4 0.220175,3.3e-5 0.21875,0 -0.0014,-3.3e-5 0.188921,-1.06e-4 0.1875,0 -0.0014,1.06e-4 0.188904,-0.03149 0.1875,-0.03125 -0.0014,2.45e-4 0.188874,-0.03163 0.1875,-0.03125 -0.0014,3.81e-4 0.15758,-0.06301 0.15625,-0.0625 -0.0013,5.13e-4 0.188773,-0.06314 0.1875,-0.0625 -0.0013,6.41e-4 0.157455,-0.09451 0.15625,-0.09375 -0.0012,7.62e-4 0.157374,-0.125876 0.15625,-0.125 -0.0011,8.76e-4 0.157283,-0.125982 0.15625,-0.125 l 4.59375,-4.5625 4.40625,4.5 c -5.08e-4,-5.29e-4 0.06303,0.063 0.0625,0.0625 -5.34e-4,-5.03e-4 0.09431,0.06298 0.09375,0.0625 -5.59e-4,-4.76e-4 0.06308,0.06295 0.0625,0.0625 -5.82e-4,-4.47e-4 0.09435,0.06292 0.09375,0.0625 -6.04e-4,-4.17e-4 0.06312,0.06289 0.0625,0.0625 -6.24e-4,-3.86e-4 0.09439,0.06285 0.09375,0.0625 -6.43e-4,-3.54e-4 0.09441,0.03157 0.09375,0.03125 -6.6e-4,-3.21e-4 0.09443,0.03154 0.09375,0.03125 -6.75e-4,-2.88e-4 0.06319,0.0315 0.0625,0.03125 -6.89e-4,-2.53e-4 0.09445,0.03147 0.09375,0.03125 -7e-4,-2.18e-4 0.09446,0.03143 0.09375,0.03125 -7.11e-4,-1.83e-4 0.125719,0.0314 0.125,0.03125 -7.19e-4,-1.47e-4 0.09448,0.03136 0.09375,0.03125 -7.25e-4,-1.1e-4 0.09448,7.4e-5 0.09375,0 -7.3e-4,-7.4e-5 0.09448,3.7e-5 0.09375,0 -7.33e-4,-3.7e-5 0.09448,0 0.09375,0 -7.34e-4,0 0.09448,-3.7e-5 0.09375,0 -7.33e-4,3.7e-5 0.09448,-7.4e-5 0.09375,0 -7.3e-4,7.4e-5 0.09448,-1.1e-4 0.09375,0 -7.25e-4,1.1e-4 0.09447,-0.0314 0.09375,-0.03125 -7.19e-4,1.47e-4 0.125711,-0.03143 0.125,-0.03125 -7.11e-4,1.83e-4 0.09445,-0.03147 0.09375,-0.03125 -7e-4,2.18e-4 0.09444,-0.0315 0.09375,-0.03125 -6.89e-4,2.53e-4 0.06318,-0.03154 0.0625,-0.03125 -6.75e-4,2.88e-4 0.09441,-0.03157 0.09375,-0.03125 -6.6e-4,3.21e-4 0.09439,-0.0316 0.09375,-0.03125 -6.43e-4,3.54e-4 0.09437,-0.06289 0.09375,-0.0625 -6.24e-4,3.86e-4 0.0631,-0.06292 0.0625,-0.0625 -6.04e-4,4.17e-4 0.09433,-0.06295 0.09375,-0.0625 -5.82e-4,4.47e-4 0.06306,-0.06298 0.0625,-0.0625 -5.59e-4,4.76e-4 0.09428,-0.063 0.09375,-0.0625 -5.34e-4,5.03e-4 0.06301,-0.06303 0.0625,-0.0625 l 6.21875,-6.28125 c -9.82e-4,0.001 0.125876,-0.157374 0.125,-0.15625 -8.76e-4,0.0011 0.125762,-0.157455 0.125,-0.15625 -7.62e-4,0.0012 0.09439,-0.157523 0.09375,-0.15625 -6.41e-4,0.0013 0.06301,-0.18883 0.0625,-0.1875 -5.13e-4,0.0013 0.06288,-0.157624 0.0625,-0.15625 -3.81e-4,0.0014 0.0315,-0.188904 0.03125,-0.1875 -2.45e-4,0.0014 0.03136,-0.188921 0.03125,-0.1875 -1.06e-4,0.0014 -3.3e-5,-0.188925 0,-0.1875 3.3e-5,0.0014 -1.72e-4,-0.220165 0,-0.21875 1.72e-4,0.0014 -0.03156,-0.188891 -0.03125,-0.1875 3.1e-4,0.0014 -0.06294,-0.157604 -0.0625,-0.15625 4.44e-4,0.0014 -0.06307,-0.188805 -0.0625,-0.1875 5.74e-4,0.0013 -0.09445,-0.188742 -0.09375,-0.1875 6.99e-4,0.0012 -0.09457,-0.157418 -0.09375,-0.15625 8.17e-4,0.0012 -0.125927,-0.157332 -0.125,-0.15625 9.27e-4,0.0011 -0.126029,-0.125987 -0.125,-0.125 L 68.9375,-25 l 4.40625,-4.3125 c -0.001,9.87e-4 0.125927,-0.126082 0.125,-0.125 -9.27e-4,0.0011 0.125817,-0.157418 0.125,-0.15625 -8.17e-4,0.0012 0.09445,-0.157492 0.09375,-0.15625 -6.99e-4,0.0012 0.09432,-0.188805 0.09375,-0.1875 -5.74e-4,0.0013 0.06294,-0.188854 0.0625,-0.1875 -4.44e-4,0.0014 0.06281,-0.157641 0.0625,-0.15625 -3.1e-4,0.0014 0.03142,-0.188915 0.03125,-0.1875 -1.72e-4,0.0014 3.3e-5,-0.220175 0,-0.21875 -3.3e-5,0.0014 -1.06e-4,-0.188921 0,-0.1875 1.06e-4,0.0014 -0.0315,-0.188904 -0.03125,-0.1875 2.45e-4,0.0014 -0.03163,-0.188874 -0.03125,-0.1875 3.81e-4,0.0014 -0.06301,-0.15758 -0.0625,-0.15625 5.13e-4,0.0013 -0.06314,-0.188773 -0.0625,-0.1875 6.41e-4,0.0013 -0.09451,-0.157455 -0.09375,-0.15625 7.62e-4,0.0012 -0.125876,-0.157374 -0.125,-0.15625 8.76e-4,0.0011 -0.125982,-0.157283 -0.125,-0.15625 l -6.21875,-6.28125 c 5.08e-4,5.29e-4 -0.06303,-0.063 -0.0625,-0.0625 5.34e-4,5.03e-4 -0.09431,-0.06298 -0.09375,-0.0625 5.59e-4,4.76e-4 -0.06308,-0.06295 -0.0625,-0.0625 5.82e-4,4.47e-4 -0.09435,-0.06292 -0.09375,-0.0625 6.04e-4,4.17e-4 -0.06312,-0.06289 -0.0625,-0.0625 6.24e-4,3.86e-4 -0.09439,-0.06285 -0.09375,-0.0625 6.43e-4,3.54e-4 -0.09441,-0.03157 -0.09375,-0.03125 6.6e-4,3.21e-4 -0.09443,-0.03154 -0.09375,-0.03125 6.75e-4,2.88e-4 -0.06319,-0.0315 -0.0625,-0.03125 6.89e-4,2.53e-4 -0.09445,-0.03147 -0.09375,-0.03125 7e-4,2.18e-4 -0.09446,-0.03143 -0.09375,-0.03125 7.11e-4,1.83e-4 -0.125719,-0.0314 -0.125,-0.03125 7.19e-4,1.47e-4 -0.09448,-0.03136 -0.09375,-0.03125 7.25e-4,1.1e-4 -0.09448,-7.4e-5 -0.09375,0 7.3e-4,7.4e-5 -0.09448,-3.7e-5 -0.09375,0 7.33e-4,3.7e-5 -0.09448,0 -0.09375,0 7.34e-4,0 -0.09448,3.7e-5 -0.09375,0 7.33e-4,-3.7e-5 -0.09448,7.4e-5 -0.09375,0 7.3e-4,-7.4e-5 -0.09448,1.1e-4 -0.09375,0 7.25e-4,-1.1e-4 -0.09447,0.0314 -0.09375,0.03125 7.19e-4,-1.47e-4 -0.125711,0.03143 -0.125,0.03125 7.11e-4,-1.83e-4 -0.09445,0.03147 -0.09375,0.03125 7e-4,-2.18e-4 -0.09444,0.0315 -0.09375,0.03125 6.89e-4,-2.53e-4 -0.06318,0.03154 -0.0625,0.03125 6.75e-4,-2.88e-4 -0.09441,0.03157 -0.09375,0.03125 6.6e-4,-3.21e-4 -0.09439,0.0316 -0.09375,0.03125 6.43e-4,-3.54e-4 -0.09437,0.06289 -0.09375,0.0625 6.24e-4,-3.86e-4 -0.0631,0.06292 -0.0625,0.0625 6.04e-4,-4.17e-4 -0.09433,0.06295 -0.09375,0.0625 5.82e-4,-4.47e-4 -0.06306,0.06298 -0.0625,0.0625 5.59e-4,-4.76e-4 -0.09428,0.063 -0.09375,0.0625 5.34e-4,-5.03e-4 -0.06301,0.06303 -0.0625,0.0625 l -4.40625,4.5 -4.5625,-4.53125 c 1.71e-4,1.72e-4 -0.02075,-0.0212 -0.03125,-0.03125 -0.021,-0.0201 -0.06286,-0.06283 -0.0625,-0.0625 5.39e-4,4.91e-4 -0.06306,-0.06296 -0.0625,-0.0625 5.63e-4,4.63e-4 -0.06309,-0.06294 -0.0625,-0.0625 5.85e-4,4.35e-4 -0.09436,-0.03166 -0.09375,-0.03125 6.06e-4,4.05e-4 -0.09438,-0.06287 -0.09375,-0.0625 6.26e-4,3.74e-4 -0.06314,-0.06284 -0.0625,-0.0625 6.44e-4,3.42e-4 -0.09441,-0.03156 -0.09375,-0.03125 6.6e-4,3.09e-4 -0.09443,-0.03153 -0.09375,-0.03125 6.75e-4,2.76e-4 -0.09444,-0.03149 -0.09375,-0.03125 6.88e-4,2.42e-4 -0.09445,-0.03146 -0.09375,-0.03125 6.99e-4,2.07e-4 -0.09446,-0.03142 -0.09375,-0.03125 7.08e-4,1.72e-4 -0.09447,-0.03139 -0.09375,-0.03125 7.16e-4,1.36e-4 -0.09447,-1e-4 -0.09375,0 7.22e-4,1e-4 -0.09448,-0.03131 -0.09375,-0.03125 7.26e-4,6.4e-5 -0.09448,-2.8e-5 -0.09375,0 7.28e-4,2.8e-5 -0.09448,9e-6 -0.09375,0 a 0.9965754,0.9965754 0 0 0 -0.0625,0 c 7.26e-4,-4.7e-5 -0.09447,8.4e-5 -0.09375,0 z"
       transform="translate(12,98)"
       id="path3761"
       style="opacity:0.1;fill:#000000;fill-opacity:1;fill-rule:evenodd;stroke:none;display:inline" />
    <path
       d="m 53.8125,-37.9375 a 0.95278301,0.95278301 0 0 0 -0.46875,0.28125 l -6.03125,6.09375 a 0.95278301,0.95278301 0 0 0 0,1.3125 L 52.5,-25 l -5.1875,5.25 a 0.95278301,0.95278301 0 0 0 0,1.3125 l 6.03125,6.09375 a 0.95278301,0.95278301 0 0 0 1.34375,0.03125 l 5.28125,-5.25 5.125,5.21875 a 0.95278301,0.95278301 0 0 0 1.375,0 L 72.6875,-18.625 a 0.95278301,0.95278301 0 0 0 -0.03125,-1.34375 L 67.5,-25 72.65625,-30.03125 A 0.95278301,0.95278301 0 0 0 72.6875,-31.375 l -6.21875,-6.28125 a 0.95278301,0.95278301 0 0 0 -1.375,0 l -5.125,5.21875 -5.28125,-5.25 a 0.95278301,0.95278301 0 0 0 -0.875,-0.25 z"
       transform="translate(12,98)"
       id="path3757"
       style="opacity:0.15;fill:#000000;fill-opacity:1;fill-rule:evenodd;stroke:none;display:inline" />
    <path
       d="M 60.000006,78.906252 66.023171,85 71.953669,79.093752 77.791502,85 84,78.718752 78.16216,73.000002 84,67.281252 77.791502,61 71.953669,66.90625 66.023171,61 l -6.023165,6.093751 5.837841,5.906251 -5.837841,5.90625 z"
       inkscape:connector-curvature="0"
       id="path3751"
       style="opacity:0.3;fill:#000000;fill-opacity:1;fill-rule:evenodd;stroke:none;display:inline" />
    <path
       d="M 60.000006,77.906252 66.023171,84 71.953669,78.093752 77.791502,84 84,77.718752 78.16216,72.000002 84,66.281252 77.791502,60 71.953669,65.90625 66.023171,60 l -6.023165,6.093751 5.837841,5.906251 -5.837841,5.90625 z"
       inkscape:connector-curvature="0"
       id="path7165"
       style="fill:url(#linearGradient2927-4-6);fill-opacity:1;fill-rule:evenodd;stroke:none;display:inline" />
    <path
       d="m 66.031256,60 -6.03125,6.09375 1,1 L 66.031256,62 71.96875,67.90625 77.78125,62 83,67.25 84,66.28125 77.78125,60 71.96875,65.90625 66.031256,60 z m -0.194826,11.975812 -5.836424,5.930438 1,1 L 65.843756,74 65.836456,71.975812 z M 78.179069,72.023082 78.156249,74 l 4.84375,4.75 1,-1.03125 -5.820931,-5.695668 z"
       inkscape:connector-curvature="0"
       id="path2970"
       style="opacity:0.2;fill:#ffffff;fill-opacity:1;fill-rule:evenodd;stroke:none;display:inline" />
  </g>
</svg>
