<?xml version="1.0" encoding="UTF-8" standalone="no"?>
<!-- Created with Inkscape (http://www.inkscape.org/) -->

<svg
   xmlns:dc="http://purl.org/dc/elements/1.1/"
   xmlns:cc="http://creativecommons.org/ns#"
   xmlns:rdf="http://www.w3.org/1999/02/22-rdf-syntax-ns#"
   xmlns:svg="http://www.w3.org/2000/svg"
   xmlns="http://www.w3.org/2000/svg"
   xmlns:xlink="http://www.w3.org/1999/xlink"
   xmlns:inkscape="http://www.inkscape.org/namespaces/inkscape"
   version="1.0"
   width="96"
   height="96"
   id="svg2408">
  <defs
     id="defs2410">
    <linearGradient
       id="linearGradient4135">
      <stop
         id="stop4137"
         style="stop-color:#cacaca;stop-opacity:1"
         offset="0" />
      <stop
         id="stop4139"
         style="stop-color:#f5f5f5;stop-opacity:1"
         offset="1" />
    </linearGradient>
    <linearGradient
       id="linearGradient4106">
      <stop
         id="stop4108"
         style="stop-color:#a0ff0e;stop-opacity:1"
         offset="0" />
      <stop
         id="stop4110"
         style="stop-color:#5ce500;stop-opacity:1"
         offset="1" />
    </linearGradient>
    <linearGradient
       id="linearGradient4098">
      <stop
         id="stop4100"
         style="stop-color:#7c8181;stop-opacity:1"
         offset="0" />
      <stop
         id="stop4102"
         style="stop-color:#dfe0e0;stop-opacity:1"
         offset="1" />
    </linearGradient>
    <linearGradient
       id="linearGradient4014">
      <stop
         id="stop4016"
         style="stop-color:#ffffff;stop-opacity:1"
         offset="0" />
      <stop
         id="stop4018"
         style="stop-color:#ffffff;stop-opacity:0"
         offset="1" />
    </linearGradient>
    <linearGradient
       id="linearGradient3919">
      <stop
         id="stop3921"
         style="stop-color:#000000;stop-opacity:0.38095239"
         offset="0" />
      <stop
         id="stop3923"
         style="stop-color:#000000;stop-opacity:0.23255815"
         offset="0.78125" />
      <stop
         id="stop3925"
         style="stop-color:#000000;stop-opacity:1"
         offset="1" />
    </linearGradient>
    <linearGradient
       id="linearGradient3711">
      <stop
         id="stop3713"
         style="stop-color:#000000;stop-opacity:1"
         offset="0" />
      <stop
         id="stop3715"
         style="stop-color:#000000;stop-opacity:0"
         offset="1" />
    </linearGradient>
    <linearGradient
       id="linearGradient3653">
      <stop
         id="stop3655"
         style="stop-color:#d4d4d4;stop-opacity:1"
         offset="0" />
      <stop
         id="stop3657"
         style="stop-color:#ededed;stop-opacity:1"
         offset="1" />
    </linearGradient>
    <linearGradient
       id="linearGradient3642">
      <stop
         id="stop3644"
         style="stop-color:#06f9ff;stop-opacity:1"
         offset="0" />
      <stop
         id="stop3646"
         style="stop-color:#06f9ff;stop-opacity:0"
         offset="1" />
    </linearGradient>
    <linearGradient
       x1="45.447727"
       y1="92.539597"
       x2="45.447727"
       y2="7.0165396"
       id="ButtonShadow"
       gradientUnits="userSpaceOnUse"
       gradientTransform="scale(1.0058652,0.994169)">
      <stop
         id="stop3750"
         style="stop-color:#000000;stop-opacity:1"
         offset="0" />
      <stop
         id="stop3752"
         style="stop-color:#000000;stop-opacity:0.58823532"
         offset="1" />
    </linearGradient>
    <linearGradient
       id="linearGradient3737">
      <stop
         id="stop3739"
         style="stop-color:#ffffff;stop-opacity:1"
         offset="0" />
      <stop
         id="stop3741"
         style="stop-color:#ffffff;stop-opacity:0"
         offset="1" />
    </linearGradient>
    <linearGradient
       id="linearGradient3700">
      <stop
         id="stop3702"
         style="stop-color:#b8b8b8;stop-opacity:1"
         offset="0" />
      <stop
         id="stop3704"
         style="stop-color:#d0d0d0;stop-opacity:1"
         offset="1" />
    </linearGradient>
    <filter
       color-interpolation-filters="sRGB"
       id="filter3174">
      <feGaussianBlur
         id="feGaussianBlur3176"
         stdDeviation="1.71" />
    </filter>
    <linearGradient
       x1="36.357143"
       y1="6"
       x2="36.357143"
       y2="63.893143"
       id="linearGradient3188"
       xlink:href="#linearGradient3737"
       gradientUnits="userSpaceOnUse" />
    <filter
       x="-0.192"
       y="-0.192"
       width="1.3839999"
       height="1.3839999"
       color-interpolation-filters="sRGB"
       id="filter3794">
      <feGaussianBlur
         id="feGaussianBlur3796"
         stdDeviation="5.28" />
    </filter>
    <linearGradient
       x1="48"
       y1="20.220806"
       x2="48"
       y2="138.66119"
       id="linearGradient3613"
       xlink:href="#linearGradient3642"
       gradientUnits="userSpaceOnUse" />
    <radialGradient
       cx="48"
       cy="90.171875"
       r="42"
       fx="48"
       fy="90.171875"
       id="radialGradient3619"
       xlink:href="#linearGradient3737"
       gradientUnits="userSpaceOnUse"
       gradientTransform="matrix(1.1573129,0,0,0.99590774,-7.5510206,0.19713193)" />
    <clipPath
       id="clipPath3613">
      <rect
         width="84"
         height="84"
         rx="6"
         ry="6"
         x="6"
         y="6"
         id="rect3615"
         style="fill:#ffffff;fill-opacity:1;fill-rule:nonzero;stroke:none" />
    </clipPath>
    <linearGradient
       x1="48"
       y1="90"
       x2="48"
       y2="5.9877172"
       id="linearGradient3617"
       xlink:href="#linearGradient3700"
       gradientUnits="userSpaceOnUse" />
    <linearGradient
       x1="45.447727"
       y1="92.539597"
       x2="45.447727"
       y2="7.0165396"
       id="ButtonShadow-0"
       gradientUnits="userSpaceOnUse"
       gradientTransform="matrix(1.0058652,0,0,0.994169,100,0)">
      <stop
         id="stop3750-8"
         style="stop-color:#000000;stop-opacity:1"
         offset="0" />
      <stop
         id="stop3752-5"
         style="stop-color:#000000;stop-opacity:0.58823532"
         offset="1" />
    </linearGradient>
    <linearGradient
       x1="32.251034"
       y1="6.1317081"
       x2="32.251034"
       y2="90.238609"
       id="linearGradient3780"
       xlink:href="#ButtonShadow-0"
       gradientUnits="userSpaceOnUse"
       gradientTransform="matrix(1.0238095,0,0,1.0119048,-1.1428571,-98.071429)" />
    <linearGradient
       x1="32.251034"
       y1="6.1317081"
       x2="32.251034"
       y2="90.238609"
       id="linearGradient3772"
       xlink:href="#ButtonShadow-0"
       gradientUnits="userSpaceOnUse"
       gradientTransform="matrix(1.0238095,0,0,1.0119048,-1.1428571,-98.071429)" />
    <linearGradient
       x1="32.251034"
       y1="6.1317081"
       x2="32.251034"
       y2="90.238609"
       id="linearGradient3725"
       xlink:href="#ButtonShadow-0"
       gradientUnits="userSpaceOnUse"
       gradientTransform="matrix(1.0238095,0,0,1.0119048,-1.1428571,-98.071429)" />
    <linearGradient
       x1="32.251034"
       y1="6.1317081"
       x2="32.251034"
       y2="90.238609"
       id="linearGradient3721"
       xlink:href="#ButtonShadow-0"
       gradientUnits="userSpaceOnUse"
       gradientTransform="translate(0,-97)" />
    <linearGradient
       x1="32.251034"
       y1="6.1317081"
       x2="32.251034"
       y2="90.238609"
       id="linearGradient3026"
       xlink:href="#ButtonShadow-0"
       gradientUnits="userSpaceOnUse"
       gradientTransform="matrix(1.0238095,0,0,1.0119048,-1.1428571,-98.071429)" />
    <linearGradient
       x1="48"
       y1="80"
       x2="48"
       y2="8"
       id="linearGradient3675"
       xlink:href="#linearGradient3653"
       gradientUnits="userSpaceOnUse" />
    <linearGradient
       x1="48"
       y1="80"
       x2="48"
       y2="-16"
       id="linearGradient3850"
       xlink:href="#linearGradient3711"
       gradientUnits="userSpaceOnUse"
       gradientTransform="translate(90,0)" />
    <linearGradient
       x1="48"
       y1="80"
       x2="48"
       y2="-16"
       id="linearGradient3852"
       xlink:href="#linearGradient3711"
       gradientUnits="userSpaceOnUse"
       gradientTransform="translate(90,0)" />
    <linearGradient
       x1="48"
       y1="80"
       x2="48"
       y2="-16"
       id="linearGradient3854"
       xlink:href="#linearGradient3711"
       gradientUnits="userSpaceOnUse"
       gradientTransform="translate(90,0)" />
    <linearGradient
       x1="48"
       y1="80"
       x2="48"
       y2="-16"
       id="linearGradient3856"
       xlink:href="#linearGradient3711"
       gradientUnits="userSpaceOnUse"
       gradientTransform="translate(90,0)" />
    <radialGradient
       cx="53.142967"
       cy="120.42535"
       r="16"
       fx="53.142967"
       fy="120.42535"
       id="radialGradient3906"
       xlink:href="#linearGradient3919"
       gradientUnits="userSpaceOnUse"
       gradientTransform="matrix(1.5000002,0,0,1.1093746,-27.714465,-36.596824)" />
    <radialGradient
       cx="48"
       cy="39"
       r="10"
       fx="48"
       fy="39"
       id="radialGradient4020"
       xlink:href="#linearGradient4014"
       gradientUnits="userSpaceOnUse"
       gradientTransform="matrix(1,0,0,0.5,0,19.5)" />
    <radialGradient
       cx="77.5"
       cy="85"
       r="2.5"
       fx="77.5"
       fy="85"
       id="radialGradient4112"
       xlink:href="#linearGradient4106"
       gradientUnits="userSpaceOnUse"
       gradientTransform="matrix(1,0,0,0.4,-1,51)" />
    <linearGradient
       x1="77.725983"
       y1="83.088936"
       x2="77.725983"
       y2="87.040337"
       id="linearGradient4115"
       xlink:href="#linearGradient4098"
       gradientUnits="userSpaceOnUse"
       gradientTransform="translate(-1,0)" />
    <linearGradient
       x1="47"
       y1="68"
       x2="47"
       y2="64"
       id="linearGradient4133"
       xlink:href="#linearGradient4135"
       gradientUnits="userSpaceOnUse"
       gradientTransform="translate(0,2)" />
  </defs>
  <metadata
     id="metadata2413">
    <rdf:RDF>
      <cc:Work
         rdf:about="">
        <dc:format>image/svg+xml</dc:format>
        <dc:type
           rdf:resource="http://purl.org/dc/dcmitype/StillImage" />
        <dc:title />
      </cc:Work>
    </rdf:RDF>
  </metadata>
  <g
     id="layer2"
     style="display:none">
    <rect
       width="86"
       height="85"
       rx="6"
       ry="6"
       x="5"
       y="7"
       id="rect3745"
       style="opacity:0.9;fill:url(#ButtonShadow);fill-opacity:1;fill-rule:nonzero;stroke:none;filter:url(#filter3174)" />
  </g>
  <g
     id="layer3">
    <path
       d="m 12,-95.03125 c -5.5110903,0 -10.03125,4.52016 -10.03125,10.03125 l 0,71 c 0,5.5110902 4.5201598,10.03125 10.03125,10.03125 l 72,0 c 5.51109,0 10.03125,-4.5201597 10.03125,-10.03125 l 0,-71 c 0,-5.51109 -4.52016,-10.03125 -10.03125,-10.03125 l -72,0 z"
       transform="scale(1,-1)"
       id="path3786"
       style="opacity:0.07999998;fill:url(#linearGradient3026);fill-opacity:1;fill-rule:nonzero;stroke:none;display:inline" />
    <path
       d="m 12,-94.03125 c -4.971633,0 -9.03125,4.059617 -9.03125,9.03125 l 0,71 c 0,4.9716329 4.0596171,9.03125 9.03125,9.03125 l 72,0 c 4.971633,0 9.03125,-4.059617 9.03125,-9.03125 l 0,-71 c 0,-4.971633 -4.059617,-9.03125 -9.03125,-9.03125 l -72,0 z"
       transform="scale(1,-1)"
       id="path3778"
       style="opacity:0.1;fill:url(#linearGradient3780);fill-opacity:1;fill-rule:nonzero;stroke:none;display:inline" />
    <path
       d="m 12,-93 c -4.4091333,0 -8,3.590867 -8,8 l 0,71 c 0,4.4091333 3.5908667,8 8,8 l 72,0 c 4.409133,0 8,-3.5908667 8,-8 l 0,-71 c 0,-4.409133 -3.590867,-8 -8,-8 l -72,0 z"
       transform="scale(1,-1)"
       id="path3770"
       style="opacity:0.2;fill:url(#linearGradient3772);fill-opacity:1;fill-rule:nonzero;stroke:none;display:inline" />
    <rect
       width="86"
       height="85"
       rx="7"
       ry="7"
       x="5"
       y="-92"
       transform="scale(1,-1)"
       id="rect3723"
       style="opacity:0.3;fill:url(#linearGradient3725);fill-opacity:1;fill-rule:nonzero;stroke:none;display:inline" />
    <rect
       width="84"
       height="84"
       rx="6"
       ry="6"
       x="6"
       y="-91"
       transform="scale(1,-1)"
       id="rect3716"
       style="opacity:0.45;fill:url(#linearGradient3721);fill-opacity:1;fill-rule:nonzero;stroke:none;display:inline" />
  </g>
  <g
     id="layer1">
    <rect
       width="84"
       height="84"
       rx="6"
       ry="6"
       x="6"
       y="6"
       id="rect2419"
       style="fill:url(#linearGradient3617);fill-opacity:1;fill-rule:nonzero;stroke:none" />
    <path
       d="m 48,78.75 c -9.941125,0 -18,5.036797 -18,11.25 l 36,0 C 66,83.786797 57.941125,78.75 48,78.75 z"
       inkscape:connector-curvature="0"
       id="path3893"
       style="opacity:0.3;color:#000000;fill:url(#radialGradient3906);fill-opacity:1;fill-rule:nonzero;stroke:none;stroke-width:1.5;marker:none;visibility:visible;display:inline;overflow:visible;enable-background:accumulate" />
    <path
       d="m 48,77.75 c -9.941125,0 -18,5.036797 -18,11.25 l 0.09375,0 C 30.901574,83.2541 38.596781,78.75 48,78.75 c 9.403219,0 17.098426,4.5041 17.90625,10.25 L 66,89 C 66,82.786797 57.941125,77.75 48,77.75 z"
       inkscape:connector-curvature="0"
       id="path3908"
       style="opacity:0.2;color:#000000;fill:#ffffff;fill-opacity:1;fill-rule:nonzero;stroke:none;stroke-width:1.5;marker:none;visibility:visible;display:inline;overflow:visible;enable-background:accumulate" />
  </g>
  <g
     id="layer5">
    <rect
       width="66"
       height="66"
       rx="12"
       ry="12"
       x="15"
       y="15"
       clip-path="url(#clipPath3613)"
       id="rect3171"
       style="opacity:0.1;fill:url(#linearGradient3613);fill-opacity:1;fill-rule:nonzero;stroke:#ffffff;stroke-width:0.5;stroke-linecap:round;stroke-linejoin:miter;stroke-miterlimit:4;stroke-opacity:1;stroke-dasharray:none;stroke-dashoffset:0;filter:url(#filter3794)" />
  </g>
  <g
     id="layer7"
     style="display:none">
    <path
       d="M 15.71875,1.96875 C 14.226417,2.0513355 13.10455,3.0152511 12.53125,4.125 11.983087,5.1860907 11.848358,6.3727868 12,7.5 l -0.03125,0 C 11.992917,30.570012 11.915272,53.642271 12,76.71875 a 1.0510392,1.0510392 0 0 0 0,0.09375 c 0.359012,4.747051 5.067744,7.719366 9.5,7.1875 l 0,0.03125 C 39.902566,84.007115 58.307691,84.084688 76.71875,84 a 1.0510392,1.0510392 0 0 0 0.09375,0 C 81.559551,83.640988 84.531866,78.932256 84,74.5 l 0.03125,0 C 84.010399,51.520326 84.072957,28.542435 84,5.5625 A 1.0510392,1.0510392 0 0 0 83.96875,5.4375 C 83.788695,4.0930588 82.939237,3.0497841 81.90625,2.5 80.929589,1.9801943 79.792867,1.8470239 78.71875,2 l 0,-0.03125 -62.9375,0 a 1.0510392,1.0510392 0 0 0 -0.0625,0 z"
       transform="translate(-100,0)"
       id="path3875"
       style="opacity:0.05;color:#000000;fill:#2ad4ff;fill-opacity:1;fill-rule:nonzero;stroke:none;stroke-width:1.5;marker:none;visibility:visible;display:inline;overflow:visible;enable-background:accumulate" />
    <path
       d="m -84.21875,3.03125 c -2.244937,0.124234 -3.056825,2.537303 -2.75,4.455749 0.02417,23.073103 -0.04838,46.148689 0.03633,69.220238 0.312183,4.127856 4.507583,6.80576 8.419418,6.261513 18.406437,-0.02414 36.815354,0.04833 55.220238,-0.03633 4.127856,-0.312183 6.80576,-4.507583 6.261513,-8.419418 -0.02085,-22.982216 0.0417,-45.974699 -0.03125,-68.950502 -0.266163,-1.987392 -2.418729,-2.850687 -4.21207,-2.53125 -20.981393,0 -41.962787,0 -62.94418,0 z"
       inkscape:connector-curvature="0"
       id="path3869"
       style="opacity:0.1;color:#000000;fill:#2ad4ff;fill-opacity:1;fill-rule:nonzero;stroke:none;stroke-width:1.5;marker:none;visibility:visible;display:inline;overflow:visible;enable-background:accumulate" />
    <path
       d="M -84.1875,4 A 2.004563,2.004563 0 0 0 -86,6 l 0,70 c 0,3.291747 2.708253,6 6,6 l 56,0 c 3.291747,0 6,-2.708253 6,-6 l 0,-70 a 2.004563,2.004563 0 0 0 -2,-2 l -64,0 a 2.004563,2.004563 0 0 0 -0.1875,0 z"
       inkscape:connector-curvature="0"
       id="path3864"
       style="opacity:0.15;color:#000000;fill:#2ad4ff;fill-opacity:1;fill-rule:nonzero;stroke:none;stroke-width:1.5;marker:none;visibility:visible;display:inline;overflow:visible;enable-background:accumulate" />
    <path
       d="M 15.90625,4.96875 A 1.0242096,1.0242096 0 0 0 14.96875,6 l 0,70 c 0,2.765641 2.265609,5.03125 5.03125,5.03125 l 56,0 c 2.765641,0 5.03125,-2.265609 5.03125,-5.03125 l 0,-70 A 1.0242096,1.0242096 0 0 0 80,4.96875 l -64,0 a 1.0242096,1.0242096 0 0 0 -0.09375,0 z"
       transform="translate(-100,0)"
       id="path3862"
       style="opacity:0.3;color:#000000;fill:#2ad4ff;fill-opacity:1;fill-rule:nonzero;stroke:none;stroke-width:1.5;marker:none;visibility:visible;display:inline;overflow:visible;enable-background:accumulate" />
  </g>
  <g
     id="layer4"
     style="display:inline">
    <path
       d="M 14.28125,6 C 13.865414,6.8329694 13.901747,8.0054637 13.96875,8.90625 13.98965,31.811684 13.92676,54.720906 14,77.625 c 0.272005,3.659611 4.00737,5.903369 7.4375,5.40625 C 39.824774,83.01034 58.239067,83.07326 76.625,83 80.284611,82.727995 82.528369,78.99263 82.03125,75.5625 82.010417,52.650844 82.072917,29.719845 82,6.8125 81.975122,6.4861014 81.874326,6.2251577 81.75,6 L 14.28125,6 z"
       inkscape:connector-curvature="0"
       id="path3691"
       style="opacity:0.07999998;color:#000000;fill:#000000;fill-opacity:1;fill-rule:nonzero;stroke:none;stroke-width:1.5;marker:none;visibility:visible;display:inline;overflow:visible;enable-background:accumulate" />
    <path
       d="M 15.90625,6.03125 A 0.96408607,0.96408607 0 0 0 15.03125,7 l 0,70 c 0,2.733376 2.235374,4.96875 4.96875,4.96875 l 56,0 c 2.733376,0 4.96875,-2.235374 4.96875,-4.96875 l 0,-70 A 0.96408607,0.96408607 0 0 0 80,6.03125 l -64,0 a 0.96408607,0.96408607 0 0 0 -0.09375,0 z"
       id="path3687"
       style="opacity:0.15;color:#000000;fill:#000000;fill-opacity:1;fill-rule:nonzero;stroke:none;stroke-width:1.5;marker:none;visibility:visible;display:inline;overflow:visible;enable-background:accumulate" />
    <path
       d="m 16,7 0,70 c 0,2.216 1.784,4 4,4 l 56,0 c 2.216,0 4,-1.784 4,-4 L 80,7 16,7 z"
       id="path3683"
       style="opacity:0.3;color:#000000;fill:#000000;fill-opacity:1;fill-rule:nonzero;stroke:none;stroke-width:1.5;marker:none;visibility:visible;display:inline;overflow:visible;enable-background:accumulate" />
    <path
       d="m 16,7 0,70 c 0,2.216 1.784,4 4,4 l 56,0 c 2.216,0 4,-1.784 4,-4 L 80,7 16,7 z"
       inkscape:connector-curvature="0"
       id="path3677"
       style="opacity:0.3;color:#000000;fill:#000000;fill-opacity:1;fill-rule:nonzero;stroke:none;stroke-width:1.5;marker:none;visibility:visible;display:inline;overflow:visible;enable-background:accumulate" />
    <path
       d="m 16,6 0,70 c 0,2.216 1.784,4 4,4 l 56,0 c 2.216,0 4,-1.784 4,-4 L 80,6 16,6 z"
       inkscape:connector-curvature="0"
       id="rect3648"
       style="color:#000000;fill:url(#linearGradient3675);fill-opacity:1;fill-rule:nonzero;stroke:none;stroke-width:1.5;marker:none;visibility:visible;display:inline;overflow:visible;enable-background:accumulate" />
    <g
       transform="translate(-90,0)"
       id="g3844">
      <path
         d="m 106,6 0,70 c 0,2.216 1.784,4 4,4 l 56,0 c 2.216,0 4,-1.784 4,-4 l 0,-70 -4.03125,0 0,69.96875 -55.9375,0 L 110.03125,6 106,6 z"
         inkscape:connector-curvature="0"
         id="path3729"
         style="opacity:0.05;color:#000000;fill:url(#linearGradient3850);fill-opacity:1;fill-rule:nonzero;stroke:none;stroke-width:1.5;marker:none;visibility:visible;display:inline;overflow:visible;enable-background:accumulate" />
      <path
         d="m 106,6 0,70 c 0,2.216 1.784,4 4,4 l 56,0 c 2.216,0 4,-1.784 4,-4 l 0,-70 -2.96875,0 0,70 c 0,0.625178 -0.40607,1.03125 -1.03125,1.03125 l -56,0 c -0.62518,0 -1.03125,-0.406072 -1.03125,-1.03125 l 0,-70 L 106,6 z"
         inkscape:connector-curvature="0"
         id="path3725"
         style="opacity:0.05;color:#000000;fill:url(#linearGradient3852);fill-opacity:1;fill-rule:nonzero;stroke:none;stroke-width:1.5;marker:none;visibility:visible;display:inline;overflow:visible;enable-background:accumulate" />
      <path
         d="m 106,6 0,70 c 0,2.216 1.784,4 4,4 l 56,0 c 2.216,0 4,-1.784 4,-4 l 0,-70 -1.96875,0 0,70 c 0,1.155452 -0.8758,2.03125 -2.03125,2.03125 l -56,0 c -1.15545,0 -2.03125,-0.875798 -2.03125,-2.03125 l 0,-70 L 106,6 z"
         inkscape:connector-curvature="0"
         id="path3721"
         style="opacity:0.05;color:#000000;fill:url(#linearGradient3854);fill-opacity:1;fill-rule:nonzero;stroke:none;stroke-width:1.5;marker:none;visibility:visible;display:inline;overflow:visible;enable-background:accumulate" />
      <path
         d="m 106,6 0,70 c 0,2.216 1.784,4 4,4 l 56,0 c 2.216,0 4,-1.784 4,-4 l 0,-70 -1,0 0,70 c 0,1.685726 -1.31427,3 -3,3 l -56,0 c -1.68573,0 -3,-1.314274 -3,-3 l 0,-70 -1,0 z"
         inkscape:connector-curvature="0"
         id="path3709"
         style="opacity:0.05;color:#000000;fill:url(#linearGradient3856);fill-opacity:1;fill-rule:nonzero;stroke:none;stroke-width:1.5;marker:none;visibility:visible;display:inline;overflow:visible;enable-background:accumulate" />
    </g>
    <path
       d="m 58,39 a 10,5 0 1 1 -20,0 10,5 0 1 1 20,0 z"
       transform="matrix(1,0,0,1.1019236,0,-4.484637)"
       id="path4012"
       style="opacity:0.3;color:#000000;fill:url(#radialGradient4020);fill-opacity:1;fill-rule:nonzero;stroke:none;stroke-width:1.5;marker:none;visibility:visible;display:inline;overflow:visible;enable-background:accumulate" />
    <g
       transform="matrix(0.34505998,0,0,0.34877382,27.126616,26.323083)"
       id="text3927"
       style="font-size:12px;font-style:normal;font-variant:normal;font-weight:bold;font-stretch:normal;text-align:start;line-height:125%;writing-mode:lr-tb;text-anchor:start;opacity:0.3;fill:#000000;fill-opacity:1;stroke:none;font-family:Droid Sans;-inkscape-font-specification:Abandoned Bitplane Bold">
      <path
         d="m 40.543804,39.214287 -1.787109,0 0,-8.566406 4.910156,0 0,1.488281 -3.123047,0 0,2.208984 2.90625,0 0,1.482422 -2.90625,0 0,3.386719"
         inkscape:connector-curvature="0"
         id="path3957" />
      <path
         d="m 49.994976,39.214287 -0.585937,-2.039063 -2.953125,0 -0.591797,2.039063 -1.833985,0 2.783203,-8.601563 2.220704,0 2.794921,8.601563 -1.833984,0 m -1.007812,-3.5625 -0.550782,-1.875 c -0.02344,-0.07031 -0.0586,-0.185541 -0.105468,-0.345703 -0.04688,-0.160151 -0.09766,-0.335932 -0.152344,-0.527344 -0.05079,-0.195306 -0.09961,-0.390618 -0.146485,-0.585938 -0.04688,-0.195305 -0.08008,-0.36132 -0.09961,-0.498046 -0.01563,0.08594 -0.03711,0.187507 -0.06445,0.304687 -0.02344,0.117195 -0.05274,0.242194 -0.08789,0.375 -0.03125,0.128913 -0.06446,0.259772 -0.09961,0.392578 -0.03516,0.132819 -0.06836,0.257819 -0.09961,0.375 -0.03125,0.117194 -0.06055,0.220709 -0.08789,0.310547 -0.02344,0.08985 -0.04102,0.156256 -0.05273,0.199219 l -0.544922,1.875 2.091797,0"
         inkscape:connector-curvature="0"
         id="path3959" />
      <path
         d="m 57.846539,39.214287 -4.933594,0 0,-8.566406 4.933594,0 0,1.488281 -3.117188,0 0,1.880859 2.900391,0 0,1.488281 -2.900391,0 0,2.208985 3.117188,0 0,1.5"
         inkscape:connector-curvature="0"
         id="path3961" />
      <path
         d="m 66.875835,39.214287 -2.302734,0 -3.369141,-6.480469 -0.05273,0 c 0.02343,0.300787 0.04297,0.599615 0.05859,0.896484 0.01562,0.253912 0.02734,0.52149 0.03516,0.802735 0.01172,0.277348 0.01758,0.527348 0.01758,0.75 l 0,4.03125 -1.623047,0 0,-8.566406 2.291016,0 3.363281,6.416015 0.03516,0 c -0.01172,-0.296872 -0.0254,-0.589841 -0.04102,-0.878906 -0.0039,-0.124997 -0.0098,-0.25195 -0.01758,-0.380859 -0.0039,-0.132809 -0.0078,-0.263669 -0.01172,-0.392579 -0.0039,-0.132808 -0.0078,-0.259761 -0.01172,-0.380859 -7e-6,-0.121089 -7e-6,-0.230464 0,-0.328125 l 0,-4.054687 1.628906,0 0,8.566406"
         inkscape:connector-curvature="0"
         id="path3963" />
      <path
         d="m 74.14146,39.214287 -5.894531,0 0,-1.177735 3.626953,-5.888671 -3.515625,0 0,-1.5 5.671875,0 0,1.171875 -3.621093,5.894531 3.732421,0 0,1.5"
         inkscape:connector-curvature="0"
         id="path3965" />
      <path
         d="m 80.393414,39.214287 -0.585938,-2.039063 -2.953125,0 -0.591797,2.039063 -1.833984,0 2.783203,-8.601563 2.220703,0 2.794922,8.601563 -1.833984,0 m -1.007813,-3.5625 -0.550781,-1.875 c -0.02344,-0.07031 -0.0586,-0.185541 -0.105469,-0.345703 -0.04688,-0.160151 -0.09766,-0.335932 -0.152344,-0.527344 -0.05078,-0.195306 -0.09961,-0.390618 -0.146484,-0.585938 -0.04688,-0.195305 -0.08008,-0.36132 -0.09961,-0.498046 -0.01563,0.08594 -0.03711,0.187507 -0.06445,0.304687 -0.02344,0.117195 -0.05274,0.242194 -0.08789,0.375 -0.03125,0.128913 -0.06446,0.259772 -0.09961,0.392578 -0.03516,0.132819 -0.06836,0.257819 -0.09961,0.375 -0.03125,0.117194 -0.06055,0.220709 -0.08789,0.310547 -0.02344,0.08985 -0.04102,0.156256 -0.05273,0.199219 l -0.544922,1.875 2.091797,0"
         inkscape:connector-curvature="0"
         id="path3967" />
    </g>
    <path
       d="m 40.5,37 0,0.46875 1.6875,0 0,-0.46875 -1.6875,0 z m 2.78125,0 -0.96875,3 0.15625,0 0.8125,-2.53125 0.375,0 0.375,0 L 44.84375,40 45,40 l -0.96875,-3 -0.75,0 z m 2.09375,0 0,0.46875 1.71875,0 0,-0.46875 -1.71875,0 z m 2.34375,0 0,0.46875 0.78125,0 1.15625,2.25 c -0.004,-0.103542 0.0053,-0.211682 0,-0.3125 -0.0013,-0.04359 0.0027,-0.08004 0,-0.125 -2.6e-4,-0.0093 1e-5,-0.0208 0,-0.03125 L 48.5,37 47.71875,37 z m 1.9375,0 0,0.46875 0.53125,0 0,-0.46875 -0.53125,0 z m 1.0625,0 0,0.46875 1.90625,0 0.03125,-0.0625 0,-0.40625 -1.9375,0 z m 3.0625,0 -0.96875,3 0.15625,0 0.8125,-2.53125 0.34375,0 c 7.07e-4,-0.0027 0.03056,0.0026 0.03125,0 l 0.375,0 L 55.34375,40 55.5,40 l -0.96875,-3 -0.75,0 z m -2.125,1 -0.96875,1.59375 0,0.40625 0.03125,0 1.21875,-2 -0.28125,0 z M 46,38.1875 l 0,0.46875 1,0 0,-0.46875 -1,0 z m 2.21875,0.03125 c 0.0081,0.104906 0.02586,0.20896 0.03125,0.3125 0.0054,0.08856 -0.0027,0.183159 0,0.28125 0.004,0.09673 0.03125,0.172345 0.03125,0.25 l 0,-0.46875 c 0,-0.07766 -0.02725,-0.15327 -0.03125,-0.25 -0.0012,-0.0436 -9.36e-4,-0.08301 0,-0.125 l -0.03125,0 z m -7.09375,0.09375 0,0.46875 1,0 0,-0.46875 -1,0 z m 2.3125,0.4375 -0.125,0.46875 0.71875,0 -0.125,-0.46875 -0.46875,0 z m 10.5,0 -0.125,0.46875 0.71875,0 -0.125,-0.46875 -0.46875,0 z M 46,39.46875 l 0,0.46875 1.09375,0 0,-0.46875 -1.09375,0 z m 5.71875,0 -0.28125,0.46875 1.28125,0 0,-0.46875 -1,0 z"
       inkscape:connector-curvature="0"
       id="path3971"
       style="font-size:12px;font-style:normal;font-variant:normal;font-weight:bold;font-stretch:normal;text-align:start;line-height:125%;writing-mode:lr-tb;text-anchor:start;opacity:0.3;fill:#000000;fill-opacity:1;stroke:none;font-family:Droid Sans;-inkscape-font-specification:Abandoned Bitplane Bold" />
    <path
       d="m 41.125,37.53125 0,0.53125 1.0625,0 0,-0.53125 -1.0625,0 z m 2.53125,0 c -0.0081,0.04087 -0.01912,0.07868 -0.03125,0.125 -0.01078,0.04496 -0.01912,0.07868 -0.03125,0.125 -0.01213,0.04632 -0.05172,0.11538 -0.0625,0.15625 -0.01078,0.04087 -0.02181,0.06242 -0.03125,0.09375 -0.0081,0.03134 0.004,0.04752 0,0.0625 l -0.1875,0.65625 0.15625,0 L 43.5,38.625 c 0.004,-0.01498 -0.0081,-0.03116 0,-0.0625 0.0094,-0.03133 0.02047,-0.05288 0.03125,-0.09375 0.01078,-0.04087 0.05037,-0.10993 0.0625,-0.15625 0.01213,-0.04632 0.02047,-0.08004 0.03125,-0.125 0.01213,-0.04632 0.02315,-0.08413 0.03125,-0.125 0.0094,-0.04087 -0.0054,-0.09503 0,-0.125 0.0067,0.04769 0.01507,0.11938 0.03125,0.1875 0.01618,0.06812 0.04498,0.15063 0.0625,0.21875 0.01887,0.06676 0.04632,0.10039 0.0625,0.15625 0.01617,0.05586 0.02315,0.10048 0.03125,0.125 l 0.03125,0.125 0.15625,0 -0.1875,-0.65625 c -0.0081,-0.02452 -0.01508,-0.06914 -0.03125,-0.125 -0.01618,-0.05586 -0.04363,-0.08949 -0.0625,-0.15625 -0.01752,-0.06812 -0.04632,-0.150627 -0.0625,-0.21875 -0.0052,-0.02209 0.0038,-0.0406 0,-0.0625 l -0.03125,0 z m 2.34375,0 0,0.53125 1.09375,0 0,-0.53125 -1.09375,0 z m 4.71875,0 0,0.53125 0.90625,0 0.3125,-0.53125 -1.21875,0 z m 1.875,0 -1.15625,1.9375 0.3125,0 0.90625,-1.53125 0,-0.40625 -0.0625,0 z m 1.53125,0 c -0.0081,0.04087 -0.01912,0.07868 -0.03125,0.125 -0.01078,0.04496 -0.01912,0.07868 -0.03125,0.125 -0.01213,0.04632 -0.02047,0.11538 -0.03125,0.15625 -0.01078,0.04087 -0.02181,0.06242 -0.03125,0.09375 -0.0081,0.03134 0.004,0.04752 0,0.0625 l -0.1875,0.65625 0.15625,0 L 54,38.625 c 0.004,-0.01498 -0.0081,-0.03116 0,-0.0625 0.0094,-0.03133 0.02047,-0.05288 0.03125,-0.09375 0.01078,-0.04087 0.01912,-0.10993 0.03125,-0.15625 0.01213,-0.04632 0.02047,-0.08004 0.03125,-0.125 0.01213,-0.04632 0.02315,-0.08413 0.03125,-0.125 0.0094,-0.04087 0.02585,-0.09503 0.03125,-0.125 0.0067,0.04769 0.01507,0.11938 0.03125,0.1875 0.01617,0.06812 0.04498,0.15063 0.0625,0.21875 0.01887,0.06676 0.01507,0.10039 0.03125,0.15625 0.01617,0.05586 0.0544,0.10048 0.0625,0.125 l 0.03125,0.125 0.15625,0 -0.1875,-0.65625 c -0.0081,-0.02452 -0.04633,-0.06914 -0.0625,-0.125 -0.01618,-0.05586 -0.01238,-0.08949 -0.03125,-0.15625 -0.01752,-0.06812 -0.04633,-0.150627 -0.0625,-0.21875 -0.0052,-0.02209 0.0038,-0.0406 0,-0.0625 l -0.0625,0 z M 48.21875,37.75 c 0.0081,0.104906 0.02586,0.20896 0.03125,0.3125 0.0042,0.06888 6.94e-4,0.143762 0,0.21875 l 1.15625,2.25 0.78125,0 0,-0.53125 -0.78125,0 -1.15625,-2.25 -0.03125,0 z M 46,38.71875 46,39.25 l 1,0 0,-0.53125 -1,0 z m -4.875,0.125 0,0.5 1,0 0,-0.5 -1,0 z m 2.03125,0.4375 L 42.9375,40 l -0.46875,0 -0.15625,0.53125 0.625,0 0.21875,-0.71875 1.03125,0 0.1875,0.71875 0.625,0 L 44.84375,40 44.375,40 l -0.1875,-0.71875 -0.15625,0 -0.71875,0 -0.15625,0 z m 10.5,0 L 53.4375,40 l -0.46875,0 -0.15625,0.53125 0.625,0 0.21875,-0.71875 1,0 0.21875,0.71875 0.625,0 L 55.34375,40 54.875,40 l -0.21875,-0.71875 -0.125,0 -0.71875,0 -0.15625,0 z M 40.5,40 l 0,0.53125 0.625,0 0,-0.53125 -0.625,0 z m 4.875,0 0,0.53125 1.71875,0 0,-0.53125 L 46,40 45.375,40 z m 2.34375,0 0,0.53125 0.5625,0 0,-0.53125 -0.5625,0 z m 3.03125,0 -0.0625,0.125 0,0.40625 2.03125,0 0,-0.53125 -1.28125,0 -0.6875,0 z"
       inkscape:connector-curvature="0"
       id="path4045"
       style="font-size:12px;font-style:normal;font-variant:normal;font-weight:bold;font-stretch:normal;text-align:start;line-height:125%;writing-mode:lr-tb;text-anchor:start;opacity:0.6;fill:#ffffff;fill-opacity:1;stroke:none;font-family:Droid Sans;-inkscape-font-specification:Abandoned Bitplane Bold" />
    <g
       transform="translate(0,-0.7451911)"
       id="text4048"
       style="font-size:2.34063506px;font-style:normal;font-variant:normal;font-weight:normal;font-stretch:normal;text-align:start;line-height:125%;writing-mode:lr-tb;text-anchor:start;fill:#808080;fill-opacity:1;stroke:none;font-family:Liberation Sans;-inkscape-font-specification:Liberation Sans">
      <path
         d="m 39.028327,44.231308 c -10e-7,0.06781 -0.01333,0.13029 -0.04,0.187434 -0.02591,0.05714 -0.06629,0.10667 -0.121146,0.148575 -0.05486,0.04115 -0.124195,0.07353 -0.208006,0.09715 -0.08305,0.02286 -0.18172,0.03429 -0.296008,0.03429 -0.200387,0 -0.356581,-0.03505 -0.468584,-0.105146 -0.112003,-0.0701 -0.183243,-0.171433 -0.21372,-0.304008 l 0.211434,-0.04229 c 0.01067,0.04191 0.02705,0.08 0.04914,0.114289 0.0221,0.03429 0.05181,0.064 0.08915,0.08915 0.0381,0.02438 0.08495,0.04343 0.140575,0.05714 0.05562,0.01372 0.122288,0.02057 0.200006,0.02057 0.06476,0 0.124193,-0.0053 0.17829,-0.016 0.0541,-0.01143 0.100573,-0.02857 0.139433,-0.05143 0.03886,-0.02286 0.06895,-0.05219 0.09029,-0.088 0.02209,-0.03657 0.03314,-0.08 0.03314,-0.130289 -10e-7,-0.05257 -0.01219,-0.09524 -0.03657,-0.128003 -0.02362,-0.03276 -0.05715,-0.05981 -0.100574,-0.08114 -0.04343,-0.02133 -0.09524,-0.03924 -0.155433,-0.05372 -0.06019,-0.01448 -0.126861,-0.03009 -0.200005,-0.04686 -0.04496,-0.0099 -0.09029,-0.02057 -0.136004,-0.032 -0.04495,-0.01219 -0.08838,-0.02629 -0.130289,-0.04229 -0.04115,-0.01676 -0.08,-0.03619 -0.116575,-0.05829 -0.03657,-0.0221 -0.06819,-0.04838 -0.09486,-0.07886 -0.02667,-0.03124 -0.04762,-0.06705 -0.06286,-0.107431 -0.01524,-0.04114 -0.02286,-0.08838 -0.02286,-0.141718 0,-0.07619 0.01524,-0.141336 0.04572,-0.195434 0.03124,-0.05486 0.07429,-0.09981 0.129147,-0.134861 0.05486,-0.03505 0.119621,-0.06057 0.194291,-0.07657 0.07467,-0.016 0.155432,-0.024 0.242292,-0.024 0.09981,10e-7 0.185147,0.008 0.256007,0.024 0.07086,0.01524 0.130669,0.03848 0.179433,0.06972 0.04876,0.03124 0.08762,0.0701 0.116575,0.116574 0.02971,0.04572 0.05333,0.09905 0.07086,0.160005 l -0.214863,0.03771 c -0.01067,-0.03886 -0.02629,-0.07353 -0.04686,-0.104003 -0.01981,-0.03048 -0.0461,-0.056 -0.07886,-0.07657 -0.03276,-0.02057 -0.07276,-0.03619 -0.120003,-0.04686 -0.04648,-0.01067 -0.101337,-0.016 -0.164576,-0.016 -0.07467,10e-7 -0.137528,0.0069 -0.188576,0.02057 -0.05029,0.01295 -0.09105,0.03086 -0.122289,0.05372 -0.03048,0.02286 -0.05257,0.04991 -0.06629,0.08114 -0.01295,0.03048 -0.01943,0.06362 -0.01943,0.09943 0,0.048 0.01181,0.08762 0.03543,0.11886 0.02438,0.03048 0.05714,0.056 0.09829,0.07657 0.04114,0.02057 0.08876,0.03772 0.142861,0.05143 0.0541,0.01371 0.111621,0.02743 0.172576,0.04114 0.04952,0.01143 0.09867,0.02324 0.147433,0.03543 0.04952,0.01143 0.09676,0.02553 0.141718,0.04229 0.04495,0.016 0.08686,0.03505 0.125717,0.05714 0.03962,0.0221 0.07391,0.04914 0.10286,0.08114 0.02895,0.032 0.05143,0.06972 0.06743,0.113146 0.01676,0.04343 0.02514,0.09448 0.02514,0.153147"
         inkscape:connector-curvature="0"
         id="path4053" />
      <path
         d="m 40.015783,44.675892 0,-0.784021 c -10e-7,-0.06019 -0.0038,-0.110479 -0.01143,-0.150862 -0.0076,-0.04038 -0.02057,-0.07276 -0.03886,-0.09714 -0.01752,-0.02514 -0.04076,-0.04267 -0.06972,-0.05257 -0.02895,-0.01067 -0.06438,-0.016 -0.106288,-0.016 -0.04343,10e-7 -0.08267,0.0088 -0.117718,0.02629 -0.03505,0.01676 -0.06515,0.04153 -0.09029,0.07429 -0.02438,0.032 -0.04343,0.072 -0.05714,0.120003 -0.01295,0.04724 -0.01943,0.101718 -0.01943,0.163433 l 0,0.716591 -0.204577,0 0,-0.972598 c 0,-0.0259 -3.81e-4,-0.05295 -0.0011,-0.08114 0,-0.02895 -3.81e-4,-0.056 -0.0011,-0.08114 -7.62e-4,-0.0259 -0.0015,-0.048 -0.0023,-0.06629 -7.62e-4,-0.01828 -0.0015,-0.03009 -0.0023,-0.03543 l 0.194291,0 c 7.62e-4,0.0038 0.0015,0.0141 0.0023,0.03086 7.62e-4,0.01676 0.0015,0.03619 0.0023,0.05829 0.0015,0.02134 0.0027,0.04343 0.0034,0.06629 7.61e-4,0.0221 0.0011,0.04076 0.0011,0.056 l 0.0034,0 c 0.01829,-0.03581 0.0381,-0.06819 0.05943,-0.09714 0.02133,-0.02895 0.0461,-0.05333 0.07429,-0.07314 0.02895,-0.02057 0.06171,-0.03619 0.09829,-0.04686 0.03733,-0.01143 0.08038,-0.01714 0.129147,-0.01714 0.09372,10e-7 0.167623,0.01867 0.22172,0.056 0.05486,0.03733 0.09295,0.09676 0.114289,0.17829 l 0.0034,0 c 0.01829,-0.03581 0.03886,-0.06819 0.06172,-0.09714 0.02286,-0.02895 0.04952,-0.05333 0.08,-0.07314 0.03048,-0.02057 0.06476,-0.03619 0.10286,-0.04686 0.03809,-0.01143 0.08152,-0.01714 0.130289,-0.01714 0.06248,1e-6 0.116192,0.0084 0.161147,0.02514 0.04571,0.01676 0.08305,0.04267 0.112003,0.07772 0.02895,0.03505 0.05029,0.08038 0.064,0.136004 0.01371,0.05486 0.02057,0.120385 0.02057,0.196576 l 0,0.824023 -0.203434,0 0,-0.784021 c -2e-6,-0.06019 -0.0038,-0.110479 -0.01143,-0.150862 -0.0076,-0.04038 -0.02057,-0.07276 -0.03886,-0.09714 -0.01753,-0.02514 -0.04077,-0.04267 -0.06972,-0.05257 -0.02895,-0.01067 -0.06438,-0.016 -0.106289,-0.016 -0.04343,1e-6 -0.08267,0.0084 -0.117717,0.02514 -0.03505,0.016 -0.06515,0.04 -0.09029,0.072 -0.02438,0.032 -0.04343,0.072 -0.05714,0.120003 -0.01295,0.048 -0.01943,0.103623 -0.01943,0.166862 l 0,0.716591 -0.203434,0"
         inkscape:connector-curvature="0"
         id="path4055" />
      <path
         d="m 41.563253,44.69875 c -0.124194,0 -0.21753,-0.03276 -0.280007,-0.09829 -0.06248,-0.06553 -0.09372,-0.155432 -0.09372,-0.269721 0,-0.08153 0.01524,-0.148194 0.04572,-0.200006 0.03124,-0.05257 0.07162,-0.09372 0.121147,-0.123432 0.05029,-0.02971 0.107431,-0.05029 0.171433,-0.06172 0.064,-0.01143 0.129146,-0.0179 0.195434,-0.01943 l 0.277722,-0.0046 0,-0.06743 c -10e-7,-0.05105 -0.0053,-0.09448 -0.016,-0.130289 -0.01067,-0.03581 -0.02705,-0.06476 -0.04914,-0.08686 -0.0221,-0.02209 -0.04991,-0.03809 -0.08343,-0.048 -0.03276,-0.01067 -0.07162,-0.016 -0.116574,-0.016 -0.03962,10e-7 -0.07543,0.003 -0.107432,0.0091 -0.032,0.0053 -0.05981,0.01562 -0.08343,0.03086 -0.02362,0.01448 -0.04267,0.03467 -0.05714,0.06057 -0.01448,0.02514 -0.024,0.05715 -0.02857,0.096 l -0.214863,-0.01943 c 0.0076,-0.04876 0.0221,-0.09333 0.04343,-0.133717 0.02133,-0.04114 0.05143,-0.07657 0.09029,-0.106289 0.03962,-0.02971 0.08876,-0.05257 0.147433,-0.06857 0.05943,-0.01676 0.131051,-0.02514 0.214863,-0.02514 0.155432,10e-7 0.272387,0.03581 0.350867,0.107432 0.07848,0.07086 0.117716,0.17372 0.117717,0.308579 l 0,0.532586 c -1e-6,0.06095 0.008,0.107051 0.024,0.13829 0.016,0.03048 0.04648,0.04572 0.09143,0.04572 0.01143,0 0.02286,-7.62e-4 0.03429,-0.0023 0.01143,-0.0015 0.02248,-0.0034 0.03314,-0.0057 l 0,0.128004 c -0.02591,0.0061 -0.05181,0.01067 -0.07772,0.01371 -0.02515,0.003 -0.05219,0.0046 -0.08115,0.0046 -0.03886,0 -0.07238,-0.005 -0.100574,-0.01486 -0.02743,-0.01067 -0.04991,-0.02629 -0.06743,-0.04686 -0.01753,-0.02133 -0.03086,-0.04724 -0.04,-0.07772 -0.0091,-0.03124 -0.01486,-0.06743 -0.01714,-0.108574 l -0.0069,0 c -0.0221,0.03962 -0.04648,0.07543 -0.07314,0.107432 -0.02591,0.032 -0.05638,0.05943 -0.09143,0.08229 -0.03505,0.0221 -0.07505,0.03924 -0.120004,0.05143 -0.04419,0.01219 -0.09524,0.01829 -0.153147,0.01829 m 0.04686,-0.15429 c 0.06553,0 0.122669,-0.01181 0.171433,-0.03543 0.04952,-0.02438 0.09029,-0.05524 0.122289,-0.09257 0.03276,-0.03733 0.05714,-0.0781 0.07314,-0.122289 0.016,-0.04419 0.024,-0.08648 0.024,-0.12686 l 0,-0.101717 -0.225149,0.0046 c -0.05029,7.63e-4 -0.09829,0.0046 -0.144004,0.01143 -0.04495,0.0061 -0.08458,0.01867 -0.118861,0.03771 -0.03429,0.01905 -0.06172,0.04572 -0.08229,0.08 -0.01981,0.03429 -0.02972,0.07924 -0.02972,0.134861 0,0.06705 0.01791,0.118861 0.05372,0.155433 0.03657,0.03657 0.08838,0.05486 0.155433,0.05486"
         inkscape:connector-curvature="0"
         id="path4057" />
      <path
         d="m 42.55528,44.675892 0,-0.948597 c 0,-0.0259 -3.81e-4,-0.05219 -0.0011,-0.07886 0,-0.02743 -3.81e-4,-0.05371 -0.0011,-0.07886 -7.62e-4,-0.02514 -0.0015,-0.04876 -0.0023,-0.07086 -7.62e-4,-0.0221 -0.0015,-0.0419 -0.0023,-0.05943 l 0.194291,0 c 7.61e-4,0.01752 0.0015,0.03772 0.0023,0.06057 0.0015,0.0221 0.0027,0.04496 0.0034,0.06857 0.0015,0.02362 0.0023,0.04648 0.0023,0.06857 7.62e-4,0.02134 0.0011,0.03962 0.0011,0.05486 l 0.0046,0 c 0.01448,-0.04724 0.02971,-0.088 0.04572,-0.122289 0.01676,-0.03505 0.03619,-0.06362 0.05829,-0.08572 0.0221,-0.02286 0.04838,-0.03962 0.07886,-0.05029 0.03048,-0.01143 0.06743,-0.01714 0.11086,-0.01714 0.01676,1e-6 0.03276,0.0015 0.048,0.0046 0.01524,0.0023 0.02705,0.0046 0.03543,0.0069 l 0,0.188577 c -0.01372,-0.0038 -0.02972,-0.0065 -0.048,-0.008 -0.01829,-0.0023 -0.03886,-0.0034 -0.06172,-0.0034 -0.04724,1e-6 -0.08762,0.01067 -0.121146,0.032 -0.03276,0.02134 -0.05981,0.05105 -0.08114,0.08915 -0.02057,0.03733 -0.03581,0.08229 -0.04572,0.134861 -0.0099,0.05181 -0.01486,0.108575 -0.01486,0.17029 l 0,0.644589 -0.20572,0"
         inkscape:connector-curvature="0"
         id="path4059" />
      <path
         d="m 43.807886,44.666749 c -0.03124,0.0084 -0.06324,0.01486 -0.096,0.01943 -0.032,0.0053 -0.06934,0.008 -0.112003,0.008 -0.164576,0 -0.246864,-0.09334 -0.246864,-0.280008 l 0,-0.825165 -0.142861,0 0,-0.149718 0.150861,0 0.06057,-0.276579 0.137147,0 0,0.276579 0.228578,0 0,0.149718 -0.228578,0 0,0.780593 c 0,0.05943 0.0095,0.101336 0.02857,0.125718 0.01981,0.02362 0.05371,0.03543 0.101717,0.03543 0.01981,0 0.03886,-0.0015 0.05714,-0.0046 0.01905,-0.003 0.03962,-0.0069 0.06172,-0.01143 l 0,0.152004"
         inkscape:connector-curvature="0"
         id="path4061" />
      <path
         d="m 45.27764,44.231308 c -10e-7,0.06781 -0.01333,0.13029 -0.04,0.187434 -0.02591,0.05714 -0.06629,0.10667 -0.121146,0.148575 -0.05486,0.04115 -0.124195,0.07353 -0.208006,0.09715 -0.08305,0.02286 -0.18172,0.03429 -0.296008,0.03429 -0.200387,0 -0.356581,-0.03505 -0.468584,-0.105146 -0.112003,-0.0701 -0.183243,-0.171433 -0.21372,-0.304008 l 0.211434,-0.04229 c 0.01067,0.04191 0.02705,0.08 0.04914,0.114289 0.0221,0.03429 0.05181,0.064 0.08915,0.08915 0.0381,0.02438 0.08495,0.04343 0.140575,0.05714 0.05562,0.01372 0.122288,0.02057 0.200005,0.02057 0.06476,0 0.124193,-0.0053 0.178291,-0.016 0.0541,-0.01143 0.100573,-0.02857 0.139432,-0.05143 0.03886,-0.02286 0.06895,-0.05219 0.09029,-0.088 0.02209,-0.03657 0.03314,-0.08 0.03314,-0.130289 -10e-7,-0.05257 -0.01219,-0.09524 -0.03657,-0.128003 -0.02362,-0.03276 -0.05715,-0.05981 -0.100574,-0.08114 -0.04343,-0.02133 -0.09524,-0.03924 -0.155433,-0.05372 -0.06019,-0.01448 -0.126861,-0.03009 -0.200005,-0.04686 -0.04495,-0.0099 -0.09029,-0.02057 -0.136004,-0.032 -0.04495,-0.01219 -0.08838,-0.02629 -0.130289,-0.04229 -0.04115,-0.01676 -0.08,-0.03619 -0.116575,-0.05829 -0.03657,-0.0221 -0.06819,-0.04838 -0.09486,-0.07886 -0.02667,-0.03124 -0.04762,-0.06705 -0.06286,-0.107431 -0.01524,-0.04114 -0.02286,-0.08838 -0.02286,-0.141718 -10e-7,-0.07619 0.01524,-0.141336 0.04572,-0.195434 0.03124,-0.05486 0.07429,-0.09981 0.129147,-0.134861 0.05486,-0.03505 0.119621,-0.06057 0.194291,-0.07657 0.07467,-0.016 0.155432,-0.024 0.242292,-0.024 0.09981,10e-7 0.185147,0.008 0.256007,0.024 0.07086,0.01524 0.130669,0.03848 0.179433,0.06972 0.04876,0.03124 0.08762,0.0701 0.116575,0.116574 0.02971,0.04572 0.05333,0.09905 0.07086,0.160005 l -0.214863,0.03771 c -0.01067,-0.03886 -0.02629,-0.07353 -0.04686,-0.104003 -0.01981,-0.03048 -0.0461,-0.056 -0.07886,-0.07657 -0.03276,-0.02057 -0.07276,-0.03619 -0.120003,-0.04686 -0.04648,-0.01067 -0.101337,-0.016 -0.164576,-0.016 -0.07467,10e-7 -0.137528,0.0069 -0.188577,0.02057 -0.05029,0.01295 -0.09105,0.03086 -0.122289,0.05372 -0.03048,0.02286 -0.05257,0.04991 -0.06629,0.08114 -0.01295,0.03048 -0.01943,0.06362 -0.01943,0.09943 -10e-7,0.048 0.01181,0.08762 0.03543,0.11886 0.02438,0.03048 0.05714,0.056 0.09829,0.07657 0.04114,0.02057 0.08876,0.03772 0.142861,0.05143 0.0541,0.01371 0.111621,0.02743 0.172576,0.04114 0.04952,0.01143 0.09867,0.02324 0.147432,0.03543 0.04952,0.01143 0.09676,0.02553 0.141719,0.04229 0.04495,0.016 0.08686,0.03505 0.125717,0.05714 0.03962,0.0221 0.07391,0.04914 0.10286,0.08114 0.02895,0.032 0.05143,0.06972 0.06743,0.113146 0.01676,0.04343 0.02514,0.09448 0.02514,0.153147"
         inkscape:connector-curvature="0"
         id="path4063" />
      <path
         d="m 45.701651,44.051875 c 0,0.07086 0.005,0.136004 0.01486,0.195434 0.01067,0.05943 0.02819,0.11086 0.05257,0.15429 0.02438,0.04267 0.05638,0.07581 0.096,0.09943 0.04038,0.02362 0.08991,0.03543 0.148575,0.03543 0.07314,0 0.134098,-0.01981 0.182862,-0.05943 0.04952,-0.03962 0.08,-0.100574 0.09143,-0.182862 l 0.208006,0.01371 c -0.0069,0.05105 -0.02172,0.100193 -0.04457,0.147432 -0.02286,0.04724 -0.0541,0.08877 -0.09372,0.124575 -0.03886,0.03581 -0.08648,0.06476 -0.142861,0.08686 -0.05638,0.02133 -0.121528,0.032 -0.195434,0.032 -0.09676,0 -0.179053,-0.01638 -0.246863,-0.04914 -0.06781,-0.03276 -0.123052,-0.07772 -0.165719,-0.13486 -0.04191,-0.05791 -0.07238,-0.125718 -0.09143,-0.203434 -0.01905,-0.07848 -0.02857,-0.163433 -0.02857,-0.254865 -10e-7,-0.08305 0.0069,-0.156193 0.02057,-0.219434 0.01372,-0.064 0.03276,-0.119621 0.05714,-0.166862 0.02514,-0.048 0.05448,-0.088 0.088,-0.120003 0.03352,-0.03276 0.06972,-0.05867 0.108575,-0.07772 0.03962,-0.01981 0.08114,-0.0339 0.124574,-0.04229 0.04343,-0.0091 0.08724,-0.01371 0.131433,-0.01371 0.06933,10e-7 0.13105,0.0095 0.185148,0.02857 0.0541,0.01905 0.100573,0.04534 0.139432,0.07886 0.03962,0.03276 0.07162,0.07162 0.096,0.116574 0.02438,0.04496 0.04152,0.09334 0.05143,0.145147 l -0.211434,0.016 c -0.01067,-0.06857 -0.03772,-0.12305 -0.08114,-0.163433 -0.04343,-0.04038 -0.105146,-0.06057 -0.185148,-0.06057 -0.05867,1e-6 -0.107813,0.0099 -0.147432,0.02971 -0.03886,0.01905 -0.07048,0.04838 -0.09486,0.088 -0.02438,0.03886 -0.04191,0.088 -0.05257,0.147432 -0.0099,0.05943 -0.01486,0.129147 -0.01486,0.209149"
         inkscape:connector-curvature="0"
         id="path4065" />
      <path
         d="m 47.03083,44.69875 c -0.124194,0 -0.21753,-0.03276 -0.280007,-0.09829 -0.06248,-0.06553 -0.09372,-0.155432 -0.09372,-0.269721 0,-0.08153 0.01524,-0.148194 0.04572,-0.200006 0.03124,-0.05257 0.07162,-0.09372 0.121146,-0.123432 0.05029,-0.02971 0.107431,-0.05029 0.171434,-0.06172 0.064,-0.01143 0.129145,-0.0179 0.195433,-0.01943 l 0.277722,-0.0046 0,-0.06743 c -1e-6,-0.05105 -0.0053,-0.09448 -0.016,-0.130289 -0.01067,-0.03581 -0.02705,-0.06476 -0.04914,-0.08686 -0.0221,-0.02209 -0.04991,-0.03809 -0.08343,-0.048 -0.03276,-0.01067 -0.07162,-0.016 -0.116575,-0.016 -0.03962,10e-7 -0.07543,0.003 -0.107431,0.0091 -0.032,0.0053 -0.05981,0.01562 -0.08343,0.03086 -0.02362,0.01448 -0.04267,0.03467 -0.05714,0.06057 -0.01448,0.02514 -0.024,0.05715 -0.02857,0.096 l -0.214863,-0.01943 c 0.0076,-0.04876 0.0221,-0.09333 0.04343,-0.133717 0.02133,-0.04114 0.05143,-0.07657 0.09029,-0.106289 0.03962,-0.02971 0.08876,-0.05257 0.147433,-0.06857 0.05943,-0.01676 0.13105,-0.02514 0.214863,-0.02514 0.155432,10e-7 0.272387,0.03581 0.350866,0.107432 0.07848,0.07086 0.117717,0.17372 0.117718,0.308579 l 0,0.532586 c -10e-7,0.06095 0.008,0.107051 0.024,0.13829 0.016,0.03048 0.04648,0.04572 0.09143,0.04572 0.01143,0 0.02286,-7.62e-4 0.03429,-0.0023 0.01143,-0.0015 0.02248,-0.0034 0.03314,-0.0057 l 0,0.128004 c -0.02591,0.0061 -0.05181,0.01067 -0.07772,0.01371 -0.02515,0.003 -0.05219,0.0046 -0.08114,0.0046 -0.03886,0 -0.07238,-0.005 -0.100575,-0.01486 -0.02743,-0.01067 -0.04991,-0.02629 -0.06743,-0.04686 -0.01752,-0.02133 -0.03086,-0.04724 -0.04,-0.07772 -0.0091,-0.03124 -0.01486,-0.06743 -0.01714,-0.108574 l -0.0069,0 c -0.0221,0.03962 -0.04648,0.07543 -0.07314,0.107432 -0.02591,0.032 -0.05638,0.05943 -0.09143,0.08229 -0.03505,0.0221 -0.07505,0.03924 -0.120003,0.05143 -0.04419,0.01219 -0.09524,0.01829 -0.153147,0.01829 m 0.04686,-0.15429 c 0.06553,0 0.122669,-0.01181 0.171433,-0.03543 0.04952,-0.02438 0.09029,-0.05524 0.122289,-0.09257 0.03276,-0.03733 0.05714,-0.0781 0.07314,-0.122289 0.016,-0.04419 0.024,-0.08648 0.024,-0.12686 l 0,-0.101717 -0.225149,0.0046 c -0.05029,7.63e-4 -0.09829,0.0046 -0.144004,0.01143 -0.04495,0.0061 -0.08457,0.01867 -0.11886,0.03771 -0.03429,0.01905 -0.06172,0.04572 -0.08229,0.08 -0.01981,0.03429 -0.02971,0.07924 -0.02971,0.134861 0,0.06705 0.0179,0.118861 0.05372,0.155433 0.03657,0.03657 0.08838,0.05486 0.155433,0.05486"
         inkscape:connector-curvature="0"
         id="path4067" />
      <path
         d="m 48.80345,44.675892 0,-0.784021 c -10e-7,-0.06019 -0.0046,-0.110479 -0.01371,-0.150862 -0.0084,-0.04038 -0.02248,-0.07276 -0.04229,-0.09714 -0.01981,-0.02514 -0.0461,-0.04267 -0.07886,-0.05257 -0.032,-0.01067 -0.072,-0.016 -0.120003,-0.016 -0.04876,10e-7 -0.09296,0.0088 -0.132575,0.02629 -0.03886,0.01676 -0.07238,0.04153 -0.100574,0.07429 -0.02743,0.032 -0.04876,0.072 -0.064,0.120003 -0.01524,0.04724 -0.02286,0.101718 -0.02286,0.163433 l 0,0.716591 -0.20572,0 0,-0.972598 c 0,-0.0259 -3.81e-4,-0.05295 -0.0011,-0.08114 0,-0.02895 -3.81e-4,-0.056 -0.0011,-0.08114 -7.62e-4,-0.0259 -0.0015,-0.048 -0.0023,-0.06629 -7.62e-4,-0.01828 -0.0015,-0.03009 -0.0023,-0.03543 l 0.194291,0 c 7.61e-4,0.0038 0.0015,0.0141 0.0023,0.03086 7.61e-4,0.01676 0.0015,0.03619 0.0023,0.05829 0.0015,0.02134 0.0027,0.04343 0.0034,0.06629 7.62e-4,0.0221 0.0011,0.04076 0.0011,0.056 l 0.0034,0 c 0.01981,-0.03581 0.04152,-0.06819 0.06514,-0.09714 0.02362,-0.02895 0.05105,-0.05333 0.08229,-0.07314 0.03124,-0.02057 0.06705,-0.03619 0.107432,-0.04686 0.04038,-0.01143 0.08724,-0.01714 0.140575,-0.01714 0.06857,10e-7 0.127622,0.0084 0.177148,0.02514 0.04952,0.01676 0.09029,0.04267 0.122289,0.07772 0.032,0.03505 0.05524,0.08038 0.06972,0.136004 0.01524,0.05486 0.02286,0.120385 0.02286,0.196576 l 0,0.824023 -0.206863,0"
         inkscape:connector-curvature="0"
         id="path4069" />
      <path
         d="m 50.222917,43.243853 0,0.598873 0.89831,0 0,0.180577 -0.89831,0 0,0.652589 -0.218292,0 0,-1.61033 1.144031,0 0,0.178291 -0.925739,0"
         inkscape:connector-curvature="0"
         id="path4071" />
      <path
         d="m 52.449263,44.675892 -0.184005,-0.47087 -0.733734,0 -0.185148,0.47087 -0.226292,0 0.657161,-1.61033 0.248007,0 0.646875,1.61033 -0.222864,0 m -0.456012,-1.172603 c -0.01219,-0.03048 -0.024,-0.06133 -0.03543,-0.09257 -0.01067,-0.03124 -0.02019,-0.05943 -0.02857,-0.08457 -0.0084,-0.0259 -0.01562,-0.04724 -0.02172,-0.064 -0.0053,-0.01752 -0.0084,-0.02819 -0.0091,-0.032 -0.0015,0.0038 -0.005,0.01448 -0.01029,0.032 -0.0053,0.01753 -0.01257,0.03924 -0.02172,0.06515 -0.0084,0.02591 -0.01829,0.05448 -0.02972,0.08572 -0.01067,0.03124 -0.02172,0.0621 -0.03314,0.09257 l -0.20572,0.529158 0.602302,0 -0.206863,-0.531443"
         inkscape:connector-curvature="0"
         id="path4073" />
      <path
         d="m 54.207025,44.311311 0,0.364581 -0.194291,0 0,-0.364581 -0.758877,0 0,-0.160005 0.737163,-1.085744 0.216005,0 0,1.083458 0.226292,0 0,0.162291 -0.226292,0 m -0.194291,-1.013742 c -0.0015,0.0038 -0.0053,0.01143 -0.01143,0.02286 -0.0061,0.01067 -0.01295,0.02286 -0.02057,0.03657 -0.0076,0.01372 -0.01562,0.02781 -0.024,0.04229 -0.0076,0.01372 -0.01448,0.02515 -0.02057,0.03429 l -0.412583,0.608017 c -0.0038,0.0061 -0.0095,0.0141 -0.01714,0.024 -0.0069,0.0099 -0.0141,0.02019 -0.02172,0.03086 -0.0076,0.0099 -0.01524,0.01981 -0.02286,0.02971 -0.0076,0.0099 -0.01372,0.01752 -0.01829,0.02286 l 0.569158,0 0,-0.851451"
         inkscape:connector-curvature="0"
         id="path4075" />
      <path
         d="m 54.620752,44.675892 0,-0.145147 c 0.03886,-0.08915 0.0861,-0.167623 0.141718,-0.235435 0.05638,-0.06857 0.115432,-0.130289 0.177148,-0.185148 0.06171,-0.05562 0.122669,-0.10705 0.182862,-0.15429 0.06095,-0.04724 0.115812,-0.09448 0.164576,-0.141718 0.04876,-0.04724 0.088,-0.09676 0.117717,-0.148575 0.03048,-0.05181 0.04572,-0.110478 0.04572,-0.176005 -1e-6,-0.04571 -0.0069,-0.08572 -0.02057,-0.120003 -0.01372,-0.03505 -0.03353,-0.06438 -0.05943,-0.088 -0.02591,-0.02362 -0.05714,-0.04114 -0.09372,-0.05257 -0.03581,-0.01219 -0.07581,-0.01828 -0.120003,-0.01829 -0.04115,2e-6 -0.08,0.0057 -0.116575,0.01714 -0.03581,0.01143 -0.06781,0.02857 -0.096,0.05143 -0.02819,0.02286 -0.05143,0.05143 -0.06972,0.08572 -0.01752,0.03353 -0.02895,0.07277 -0.03429,0.117718 l -0.210292,-0.01943 c 0.0069,-0.0579 0.02286,-0.112382 0.048,-0.163433 0.02514,-0.05105 0.05981,-0.09562 0.104003,-0.133717 0.04419,-0.03886 0.09714,-0.06933 0.158862,-0.09143 0.06248,-0.02209 0.134479,-0.03314 0.216006,-0.03314 0.08,10e-7 0.151241,0.0095 0.21372,0.02857 0.06248,0.01905 0.11505,0.04724 0.157718,0.08457 0.04343,0.03733 0.07657,0.08343 0.09943,0.138289 0.02286,0.05486 0.03428,0.1181 0.03429,0.18972 -10e-7,0.0541 -0.0099,0.105527 -0.02972,0.154289 -0.01905,0.04877 -0.04496,0.09524 -0.07772,0.139433 -0.032,0.04419 -0.06934,0.08686 -0.112003,0.128003 -0.04267,0.04115 -0.08724,0.08153 -0.133718,0.121146 -0.04648,0.03886 -0.09334,0.07772 -0.140575,0.116575 -0.04724,0.0381 -0.09181,0.07657 -0.133718,0.115432 -0.04115,0.03886 -0.0781,0.07848 -0.110861,0.11886 -0.03276,0.03962 -0.05829,0.08114 -0.07657,0.124575 l 0.840023,0 0,0.174862 -1.066315,0"
         inkscape:connector-curvature="0"
         id="path4077" />
      <path
         d="m 57.016246,43.870156 c -1e-6,0.154671 -0.01486,0.28496 -0.04457,0.390867 -0.02895,0.105146 -0.06896,0.190482 -0.120003,0.256007 -0.05029,0.06476 -0.109718,0.111242 -0.178291,0.139433 -0.06857,0.02819 -0.141718,0.04229 -0.219434,0.04229 -0.07848,0 -0.151624,-0.0141 -0.219435,-0.04229 -0.06781,-0.02819 -0.126861,-0.07467 -0.177147,-0.139433 -0.04953,-0.06476 -0.08877,-0.149718 -0.117718,-0.254864 -0.02819,-0.105907 -0.04229,-0.236577 -0.04229,-0.39201 0,-0.162289 0.0141,-0.296388 0.04229,-0.402297 0.02895,-0.106668 0.06857,-0.191623 0.118861,-0.254864 0.05029,-0.06324 0.109716,-0.10743 0.17829,-0.132575 0.06857,-0.0259 0.143242,-0.03886 0.224006,-0.03886 0.07695,1e-6 0.148956,0.01295 0.216006,0.03886 0.06781,0.02515 0.12686,0.06934 0.177148,0.132575 0.05029,0.06324 0.08991,0.148196 0.11886,0.254864 0.02895,0.105909 0.04343,0.240008 0.04343,0.402297 m -0.209149,0 c -10e-7,-0.128003 -0.0076,-0.234291 -0.02286,-0.318866 -0.01524,-0.08534 -0.03772,-0.153146 -0.06743,-0.203434 -0.02972,-0.05105 -0.06629,-0.08686 -0.109717,-0.107432 -0.04267,-0.02133 -0.09143,-0.032 -0.14629,-0.032 -0.05791,2e-6 -0.108956,0.01067 -0.153147,0.032 -0.04419,0.02134 -0.08153,0.05753 -0.112003,0.108575 -0.02972,0.05029 -0.05219,0.118099 -0.06743,0.203434 -0.01524,0.08458 -0.02286,0.190482 -0.02286,0.317723 0,0.123432 0.0076,0.227435 0.02286,0.312008 0.016,0.08457 0.03886,0.152767 0.06857,0.204577 0.03048,0.05105 0.06743,0.088 0.11086,0.11086 0.04343,0.0221 0.09296,0.03314 0.148576,0.03314 0.0541,0 0.102859,-0.01105 0.146289,-0.03314 0.04343,-0.02286 0.08,-0.05981 0.109718,-0.11086 0.03048,-0.05181 0.05371,-0.120003 0.06972,-0.204577 0.01676,-0.08457 0.02514,-0.188576 0.02514,-0.312008"
         inkscape:connector-curvature="0"
         id="path4079" />
      <path
         d="m 58.319137,43.870156 c -2e-6,0.154671 -0.01486,0.28496 -0.04457,0.390867 -0.02895,0.105146 -0.06895,0.190482 -0.120003,0.256007 -0.05029,0.06476 -0.109718,0.111242 -0.178291,0.139433 -0.06857,0.02819 -0.141719,0.04229 -0.219434,0.04229 -0.07848,0 -0.151624,-0.0141 -0.219435,-0.04229 -0.06781,-0.02819 -0.126861,-0.07467 -0.177148,-0.139433 -0.04953,-0.06476 -0.08876,-0.149718 -0.117717,-0.254864 -0.02819,-0.105907 -0.04229,-0.236577 -0.04229,-0.39201 0,-0.162289 0.0141,-0.296388 0.04229,-0.402297 0.02895,-0.106668 0.06857,-0.191623 0.11886,-0.254864 0.05029,-0.06324 0.109717,-0.10743 0.178291,-0.132575 0.06857,-0.0259 0.143241,-0.03886 0.224006,-0.03886 0.07695,1e-6 0.148956,0.01295 0.216006,0.03886 0.06781,0.02515 0.126859,0.06934 0.177148,0.132575 0.05029,0.06324 0.08991,0.148196 0.11886,0.254864 0.02895,0.105909 0.04343,0.240008 0.04343,0.402297 m -0.209149,0 c -10e-7,-0.128003 -0.0076,-0.234291 -0.02286,-0.318866 -0.01524,-0.08534 -0.03772,-0.153146 -0.06743,-0.203434 -0.02972,-0.05105 -0.06629,-0.08686 -0.109717,-0.107432 -0.04267,-0.02133 -0.09143,-0.032 -0.14629,-0.032 -0.05791,2e-6 -0.108956,0.01067 -0.153147,0.032 -0.04419,0.02134 -0.08153,0.05753 -0.112003,0.108575 -0.02972,0.05029 -0.05219,0.118099 -0.06743,0.203434 -0.01524,0.08458 -0.02286,0.190482 -0.02286,0.317723 -10e-7,0.123432 0.0076,0.227435 0.02286,0.312008 0.016,0.08457 0.03886,0.152767 0.06857,0.204577 0.03048,0.05105 0.06743,0.088 0.11086,0.11086 0.04343,0.0221 0.09295,0.03314 0.148575,0.03314 0.0541,0 0.10286,-0.01105 0.14629,-0.03314 0.04343,-0.02286 0.08,-0.05981 0.109717,-0.11086 0.03048,-0.05181 0.05372,-0.120003 0.06972,-0.204577 0.01676,-0.08457 0.02514,-0.188576 0.02514,-0.312008"
         inkscape:connector-curvature="0"
         id="path4081" />
    </g>
    <path
       d="m 75,83.03125 c -1.074489,0 -1.96875,0.894261 -1.96875,1.96875 0,1.074489 0.894261,1.96875 1.96875,1.96875 l 3,0 c 1.074489,0 1.96875,-0.894261 1.96875,-1.96875 0,-1.074489 -0.894261,-1.96875 -1.96875,-1.96875 l -3,0 z"
       inkscape:connector-curvature="0"
       id="path4096"
       style="fill:url(#linearGradient4115);fill-opacity:1;fill-rule:nonzero;stroke:none;display:inline" />
    <rect
       width="5"
       height="2"
       rx="1"
       ry="1"
       x="74"
       y="84"
       id="rect3485"
       style="fill:url(#radialGradient4112);fill-opacity:1;fill-rule:nonzero;stroke:#000000;stroke-width:0.5;stroke-miterlimit:4;stroke-opacity:0.25;stroke-dasharray:none;display:inline" />
    <path
       d="m 35,63 c -1.638759,0 -3,1.361241 -3,3 0,1.638759 1.361241,3 3,3 l 26,0 c 1.638759,0 3,-1.361241 3,-3 0,-1.638759 -1.361241,-3 -3,-3 l -26,0 z"
       transform="matrix(1,0,0,0.83012739,0,12.701975)"
       id="path4147"
       style="opacity:0.05;color:#000000;fill:#000000;fill-opacity:1;fill-rule:nonzero;stroke:none;stroke-width:0.5;marker:none;visibility:visible;display:inline;overflow:visible;enable-background:accumulate" />
    <rect
       width="30"
       height="3"
       rx="2"
       ry="1.458531"
       x="33"
       y="67"
       id="rect4141"
       style="opacity:0.15;color:#000000;fill:#000000;fill-opacity:1;fill-rule:nonzero;stroke:none;stroke-width:0.5;marker:none;visibility:visible;display:inline;overflow:visible;enable-background:accumulate" />
    <rect
       width="30"
       height="3"
       rx="2"
       ry="1.5"
       x="33"
       y="66"
       id="rect4125"
       style="color:#000000;fill:url(#linearGradient4133);fill-opacity:1;fill-rule:nonzero;stroke:none;stroke-width:0.5;marker:none;visibility:visible;display:inline;overflow:visible;enable-background:accumulate" />
    <path
       d="m 35,66 c -1.108,0 -2,0.669 -2,1.5 0,0.174553 0.05255,0.344441 0.125,0.5 0.272458,-0.585015 0.999737,-1 1.875,-1 l 26,0 c 0.875263,0 1.602542,0.414985 1.875,1 C 62.947448,67.844441 63,67.674553 63,67.5 63,66.669 62.108,66 61,66 l -26,0 z"
       inkscape:connector-curvature="0"
       id="rect4155"
       style="opacity:0.6;color:#000000;fill:#ffffff;fill-opacity:1;fill-rule:nonzero;stroke:none;stroke-width:0.5;marker:none;visibility:visible;display:inline;overflow:visible;enable-background:accumulate" />
    <rect
       width="1.000002"
       height="3"
       x="43"
       y="66"
       id="rect4151"
       style="opacity:0.15;color:#000000;fill:#000000;fill-opacity:1;fill-rule:nonzero;stroke:none;stroke-width:0.5;marker:none;visibility:visible;display:inline;overflow:visible;enable-background:accumulate" />
    <rect
       width="1.000002"
       height="3"
       x="53"
       y="66"
       id="rect4153"
       style="opacity:0.15;color:#000000;fill:#000000;fill-opacity:1;fill-rule:nonzero;stroke:none;stroke-width:0.5;marker:none;visibility:visible;display:inline;overflow:visible;enable-background:accumulate" />
    <g
       id="text4164"
       style="font-size:1.5px;font-style:normal;font-variant:normal;font-weight:normal;font-stretch:normal;text-align:start;line-height:125%;writing-mode:lr-tb;text-anchor:start;fill:#666666;fill-opacity:1;stroke:none;font-family:Liberation Sans;-inkscape-font-specification:Liberation Sans">
      <path
         d="m 36.315983,63.041672 c -0.05859,1e-6 -0.110596,0.0098 -0.156006,0.0293 -0.04492,0.01953 -0.08276,0.04736 -0.113525,0.0835 -0.03027,0.03613 -0.05322,0.07959 -0.06885,0.130371 -0.01563,0.05078 -0.02344,0.107178 -0.02344,0.169189 0,0.06201 0.0083,0.118897 0.0249,0.170655 0.01709,0.05127 0.04126,0.09546 0.07251,0.132568 0.03174,0.03711 0.07031,0.06592 0.115722,0.08643 0.0459,0.02051 0.09741,0.03076 0.154541,0.03076 0.04004,10e-7 0.07642,-0.0051 0.109131,-0.01538 0.0332,-0.01074 0.06299,-0.02564 0.08936,-0.04468 0.02685,-0.01904 0.05078,-0.0415 0.07178,-0.06738 0.02099,-0.02637 0.03955,-0.05542 0.05566,-0.08716 l 0.114258,0.05713 c -0.01856,0.03857 -0.04151,0.07446 -0.06885,0.107666 -0.02734,0.0332 -0.05957,0.06201 -0.09668,0.08643 -0.03662,0.02441 -0.07837,0.0437 -0.125244,0.05786 -0.04639,0.01367 -0.09839,0.02051 -0.156006,0.02051 -0.0835,0 -0.156738,-0.01318 -0.219726,-0.03955 -0.0625,-0.02686 -0.114991,-0.06396 -0.157471,-0.111328 -0.04199,-0.04785 -0.07349,-0.104492 -0.09448,-0.169922 -0.021,-0.06543 -0.03149,-0.136963 -0.03149,-0.2146 -1e-6,-0.08057 0.01099,-0.153319 0.03296,-0.218261 0.02246,-0.06494 0.05493,-0.120117 0.09741,-0.165528 0.04297,-0.0459 0.0957,-0.08105 0.158203,-0.105469 0.0625,-0.0249 0.133788,-0.03735 0.213867,-0.03735 0.109863,10e-7 0.201659,0.02148 0.275391,0.06445 0.07373,0.04297 0.127928,0.10669 0.162597,0.191162 l -0.132568,0.04395 c -0.0098,-0.02441 -0.02295,-0.04761 -0.03955,-0.06958 -0.0166,-0.02246 -0.03735,-0.04223 -0.06226,-0.05933 -0.0249,-0.01709 -0.0542,-0.03076 -0.08789,-0.04101 -0.0332,-0.01025 -0.07129,-0.01538 -0.114258,-0.01538"
         inkscape:connector-curvature="0"
         id="path4194" />
      <path
         d="m 37.91486,63.454025 c -10e-7,0.08057 -0.01172,0.153809 -0.03516,0.219727 -0.02295,0.06592 -0.0564,0.122314 -0.100342,0.169189 -0.04395,0.04687 -0.09766,0.08301 -0.161133,0.108399 -0.06348,0.02539 -0.135499,0.03809 -0.216065,0.03809 -0.08496,0 -0.159424,-0.01318 -0.223388,-0.03955 -0.06396,-0.02686 -0.117188,-0.06396 -0.159668,-0.111328 -0.04248,-0.04785 -0.07446,-0.104492 -0.09595,-0.169922 -0.02148,-0.06543 -0.03223,-0.136963 -0.03223,-0.2146 0,-0.08057 0.01123,-0.153319 0.03369,-0.218261 0.02246,-0.06494 0.05542,-0.120117 0.09888,-0.165528 0.04346,-0.0459 0.09692,-0.08105 0.160401,-0.105469 0.06396,-0.0249 0.137206,-0.03735 0.219726,-0.03735 0.08203,10e-7 0.154785,0.01245 0.218262,0.03735 0.06396,0.0249 0.117431,0.0603 0.1604,0.106202 0.04346,0.0459 0.07641,0.101319 0.09888,0.166259 0.02246,0.06494 0.03369,0.137208 0.03369,0.216797 m -0.142822,0 c -10e-7,-0.06201 -0.0081,-0.118407 -0.02417,-0.169189 -0.01563,-0.05078 -0.03906,-0.09424 -0.07031,-0.130371 -0.03076,-0.03613 -0.06909,-0.06396 -0.11499,-0.0835 -0.0459,-0.01953 -0.09888,-0.0293 -0.158936,-0.0293 -0.06152,10e-7 -0.115479,0.0098 -0.161865,0.0293 -0.04639,0.01953 -0.08521,0.04736 -0.116455,0.0835 -0.03076,0.03613 -0.05396,0.07959 -0.06958,0.130371 -0.01514,0.05078 -0.02271,0.107178 -0.02271,0.169189 0,0.06201 0.0078,0.118897 0.02344,0.170655 0.01611,0.05127 0.03955,0.0957 0.07031,0.1333 0.03125,0.03711 0.06982,0.06616 0.115722,0.08716 0.04639,0.02051 0.09961,0.03076 0.159668,0.03076 0.06445,0 0.119873,-0.0105 0.16626,-0.03149 0.04687,-0.021 0.0852,-0.05005 0.11499,-0.08716 0.03027,-0.0376 0.05249,-0.08227 0.06665,-0.134033 0.01465,-0.05176 0.02197,-0.108154 0.02197,-0.16919"
         inkscape:connector-curvature="0"
         id="path4196" />
      <path
         d="m 38.907291,63.253342 c -10e-7,0.04492 -0.0076,0.08691 -0.02271,0.125976 -0.01465,0.03858 -0.03687,0.07227 -0.06665,0.101074 -0.0293,0.02832 -0.06616,0.05078 -0.110596,0.06738 -0.04443,0.0166 -0.09619,0.0249 -0.155273,0.0249 l -0.303223,0 0,0.402099 -0.139892,0 0,-1.031982 0.434326,0 c 0.06103,1e-6 0.114257,0.0076 0.159668,0.02271 0.04541,0.01465 0.08325,0.03565 0.113525,0.06299 0.03027,0.02686 0.05298,0.05957 0.06811,0.09814 0.01514,0.03809 0.0227,0.08032 0.02271,0.126709 m -0.140625,0.0015 c 0,-0.06543 -0.02002,-0.11499 -0.06006,-0.148682 -0.04004,-0.03418 -0.100098,-0.05127 -0.180176,-0.05127 l -0.277588,0 0,0.407227 0.283447,0 c 0.08057,0 0.139648,-0.01782 0.177247,-0.05347 0.03808,-0.03564 0.05713,-0.08691 0.05713,-0.153808"
         inkscape:connector-curvature="0"
         id="path4198" />
      <path
         d="m 39.55695,63.547043 0,0.427734 -0.139161,0 0,-0.427734 -0.396972,-0.604248 0.153808,0 0.314209,0.491455 0.312745,-0.491455 0.153808,0 -0.398437,0.604248"
         inkscape:connector-curvature="0"
         id="path4200" />
      <path
         d="m 46.709049,63.253342 c -10e-7,0.04492 -0.0076,0.08691 -0.02271,0.125976 -0.01465,0.03858 -0.03687,0.07227 -0.06665,0.101074 -0.0293,0.02832 -0.06616,0.05078 -0.110596,0.06738 -0.04443,0.0166 -0.09619,0.0249 -0.155273,0.0249 l -0.303223,0 0,0.402099 -0.139893,0 0,-1.031982 0.434327,0 c 0.06103,1e-6 0.114257,0.0076 0.159668,0.02271 0.04541,0.01465 0.08325,0.03565 0.113525,0.06299 0.03027,0.02686 0.05298,0.05957 0.06811,0.09814 0.01514,0.03809 0.0227,0.08032 0.02271,0.126709 m -0.140625,0.0015 c -10e-7,-0.06543 -0.02002,-0.11499 -0.06006,-0.148682 -0.04004,-0.03418 -0.100099,-0.05127 -0.180176,-0.05127 l -0.277588,0 0,0.407227 0.283447,0 c 0.08057,0 0.139648,-0.01782 0.177246,-0.05347 0.03809,-0.03564 0.05713,-0.08691 0.05713,-0.153808"
         inkscape:connector-curvature="0"
         id="path4202" />
      <path
         d="m 47.610661,63.974777 0,-0.478271 -0.558106,0 0,0.478271 -0.139892,0 0,-1.031982 0.139892,0 0,0.436523 0.558106,0 0,-0.436523 0.139892,0 0,1.031982 -0.139892,0"
         inkscape:connector-curvature="0"
         id="path4204" />
      <path
         d="m 48.968571,63.454025 c -10e-7,0.08057 -0.01172,0.153809 -0.03516,0.219727 -0.02295,0.06592 -0.0564,0.122314 -0.100341,0.169189 -0.04395,0.04687 -0.09766,0.08301 -0.161133,0.108399 -0.06348,0.02539 -0.135499,0.03809 -0.216065,0.03809 -0.08496,0 -0.159424,-0.01318 -0.223388,-0.03955 -0.06396,-0.02686 -0.117188,-0.06396 -0.159668,-0.111328 -0.04248,-0.04785 -0.07446,-0.104492 -0.09595,-0.169922 -0.02148,-0.06543 -0.03223,-0.136963 -0.03223,-0.2146 0,-0.08057 0.01123,-0.153319 0.03369,-0.218261 0.02246,-0.06494 0.05542,-0.120117 0.09888,-0.165528 0.04346,-0.0459 0.09692,-0.08105 0.160401,-0.105469 0.06396,-0.0249 0.137206,-0.03735 0.219726,-0.03735 0.08203,10e-7 0.154785,0.01245 0.218262,0.03735 0.06396,0.0249 0.117431,0.0603 0.1604,0.106202 0.04346,0.0459 0.07641,0.101319 0.09888,0.166259 0.02246,0.06494 0.03369,0.137208 0.03369,0.216797 m -0.142823,0 c -10e-7,-0.06201 -0.0081,-0.118407 -0.02417,-0.169189 -0.01563,-0.05078 -0.03906,-0.09424 -0.07031,-0.130371 -0.03076,-0.03613 -0.06909,-0.06396 -0.11499,-0.0835 -0.0459,-0.01953 -0.09888,-0.0293 -0.158936,-0.0293 -0.06152,10e-7 -0.115479,0.0098 -0.161865,0.0293 -0.04639,0.01953 -0.08521,0.04736 -0.116455,0.0835 -0.03076,0.03613 -0.05396,0.07959 -0.06958,0.130371 -0.01514,0.05078 -0.02271,0.107178 -0.02271,0.169189 0,0.06201 0.0078,0.118897 0.02344,0.170655 0.01611,0.05127 0.03955,0.0957 0.07031,0.1333 0.03125,0.03711 0.06982,0.06616 0.115722,0.08716 0.04639,0.02051 0.09961,0.03076 0.159668,0.03076 0.06445,0 0.119873,-0.0105 0.16626,-0.03149 0.04687,-0.021 0.0852,-0.05005 0.11499,-0.08716 0.03027,-0.0376 0.05249,-0.08227 0.06665,-0.134033 0.01465,-0.05176 0.02197,-0.108154 0.02197,-0.16919"
         inkscape:connector-curvature="0"
         id="path4206" />
      <path
         d="m 49.566959,63.057053 0,0.917724 -0.13916,0 0,-0.917724 -0.354492,0 0,-0.114258 0.848145,0 0,0.114258 -0.354493,0"
         inkscape:connector-curvature="0"
         id="path4208" />
      <path
         d="m 51.025211,63.454025 c -10e-7,0.08057 -0.01172,0.153809 -0.03516,0.219727 -0.02295,0.06592 -0.0564,0.122314 -0.100342,0.169189 -0.04395,0.04687 -0.09766,0.08301 -0.161133,0.108399 -0.06348,0.02539 -0.135498,0.03809 -0.216064,0.03809 -0.08496,0 -0.159424,-0.01318 -0.223389,-0.03955 -0.06397,-0.02686 -0.117187,-0.06396 -0.159668,-0.111328 -0.04248,-0.04785 -0.07446,-0.104492 -0.09595,-0.169922 -0.02148,-0.06543 -0.03223,-0.136963 -0.03223,-0.2146 -10e-7,-0.08057 0.01123,-0.153319 0.03369,-0.218261 0.02246,-0.06494 0.05542,-0.120117 0.09888,-0.165528 0.04346,-0.0459 0.09692,-0.08105 0.1604,-0.105469 0.06396,-0.0249 0.137207,-0.03735 0.219727,-0.03735 0.08203,10e-7 0.154784,0.01245 0.218262,0.03735 0.06396,0.0249 0.11743,0.0603 0.1604,0.106202 0.04346,0.0459 0.07641,0.101319 0.09888,0.166259 0.02246,0.06494 0.03369,0.137208 0.03369,0.216797 m -0.142822,0 c -10e-7,-0.06201 -0.0081,-0.118407 -0.02417,-0.169189 -0.01563,-0.05078 -0.03906,-0.09424 -0.07031,-0.130371 -0.03076,-0.03613 -0.06909,-0.06396 -0.114991,-0.0835 -0.0459,-0.01953 -0.09888,-0.0293 -0.158935,-0.0293 -0.06152,10e-7 -0.115479,0.0098 -0.161865,0.0293 -0.04639,0.01953 -0.08521,0.04736 -0.116455,0.0835 -0.03076,0.03613 -0.05396,0.07959 -0.06958,0.130371 -0.01514,0.05078 -0.02271,0.107178 -0.02271,0.169189 0,0.06201 0.0078,0.118897 0.02344,0.170655 0.01611,0.05127 0.03955,0.0957 0.07031,0.1333 0.03125,0.03711 0.06982,0.06616 0.115723,0.08716 0.04639,0.02051 0.09961,0.03076 0.159668,0.03076 0.06445,0 0.119872,-0.0105 0.16626,-0.03149 0.04687,-0.021 0.0852,-0.05005 0.11499,-0.08716 0.03027,-0.0376 0.05249,-0.08227 0.06665,-0.134033 0.01465,-0.05176 0.02197,-0.108154 0.02197,-0.16919"
         inkscape:connector-curvature="0"
         id="path4210" />
      <path
         d="m 55.795475,63.974777 0,-1.031982 0.782959,0 0,0.114258 -0.643066,0 0,0.331054 0.599121,0 0,0.112793 -0.599121,0 0,0.359619 0.673095,0 0,0.114258 -0.812988,0"
         inkscape:connector-curvature="0"
         id="path4212" />
      <path
         d="m 57.67487,63.974777 0,-0.688476 c -10e-7,-0.0249 2.43e-4,-0.05029 7.32e-4,-0.07617 4.87e-4,-0.02588 0.0012,-0.04956 0.0022,-0.07105 9.76e-4,-0.0249 0.0022,-0.04907 0.0037,-0.07251 -0.0068,0.0249 -0.01392,0.04956 -0.02124,0.07397 -0.0063,0.021 -0.01343,0.04346 -0.02124,0.06738 -0.0073,0.02344 -0.01465,0.04468 -0.02197,0.06372 l -0.266601,0.703125 -0.09814,0 -0.270264,-0.703125 c -0.0029,-0.0073 -0.0061,-0.01587 -0.0095,-0.02564 -0.0029,-0.0098 -0.0063,-0.02002 -0.01025,-0.03076 -0.0034,-0.01123 -0.0071,-0.02246 -0.01099,-0.03369 -0.0034,-0.01172 -0.0068,-0.02319 -0.01025,-0.03442 -0.0083,-0.02588 -0.01636,-0.05273 -0.02417,-0.08057 4.88e-4,0.02734 0.0012,0.05444 0.0022,0.0813 9.76e-4,0.02295 0.0017,0.04712 0.0022,0.07251 4.88e-4,0.0249 7.33e-4,0.04687 7.33e-4,0.06592 l 0,0.688476 -0.124512,0 0,-1.031982 0.183838,0 0.274658,0.715576 c 0.0034,0.0098 0.0076,0.02246 0.01245,0.03809 0.0049,0.01514 0.0095,0.03076 0.01392,0.04687 0.0044,0.01611 0.0083,0.03149 0.01172,0.04614 0.0039,0.01416 0.0066,0.02515 0.0081,0.03296 0.0015,-0.0078 0.0041,-0.01904 0.0081,-0.03369 0.0039,-0.01465 0.0083,-0.03003 0.01318,-0.04614 0.0054,-0.01611 0.0105,-0.03174 0.01538,-0.04687 0.0049,-0.01514 0.0093,-0.02759 0.01318,-0.03735 l 0.269532,-0.715576 0.179443,0 0,1.031982 -0.125976,0"
         inkscape:connector-curvature="0"
         id="path4214" />
      <path
         d="m 58.780094,63.974777 -0.11792,-0.301758 -0.470215,0 -0.118652,0.301758 -0.145019,0 0.421142,-1.031982 0.158936,0 0.41455,1.031982 -0.142822,0 m -0.292236,-0.751465 c -0.0078,-0.01953 -0.01538,-0.0393 -0.02271,-0.05933 -0.0068,-0.02002 -0.01294,-0.03809 -0.01831,-0.0542 -0.0054,-0.0166 -0.01001,-0.03027 -0.01392,-0.04102 -0.0034,-0.01123 -0.0054,-0.01807 -0.0059,-0.02051 -9.77e-4,0.0024 -0.0032,0.0093 -0.0066,0.02051 -0.0034,0.01123 -0.0081,0.02515 -0.01392,0.04175 -0.0054,0.0166 -0.01172,0.03491 -0.01904,0.05493 -0.0068,0.02002 -0.01392,0.0398 -0.02124,0.05933 l -0.131836,0.339112 0.385986,0 -0.132568,-0.340577"
         inkscape:connector-curvature="0"
         id="path4216" />
      <path
         d="m 59.065739,63.974777 0,-1.031982 0.139892,0 0,1.031982 -0.139892,0"
         inkscape:connector-curvature="0"
         id="path4218" />
      <path
         d="m 59.466373,63.974777 0,-1.031982 0.139893,0 0,0.917724 0.521484,0 0,0.114258 -0.661377,0"
         inkscape:connector-curvature="0"
         id="path4220" />
    </g>
  </g>
  <g
     id="layer6">
    <path
       d="M 12,90 C 8.676,90 6,87.324 6,84 L 6,82 6,14 6,12 c 0,-0.334721 0.04135,-0.6507 0.09375,-0.96875 0.0487,-0.295596 0.09704,-0.596915 0.1875,-0.875 C 6.29113,10.12587 6.302142,10.09265 6.3125,10.0625 6.411365,9.774729 6.5473802,9.515048 6.6875,9.25 6.8320918,8.976493 7.0031161,8.714385 7.1875,8.46875 7.3718839,8.223115 7.5612765,7.995278 7.78125,7.78125 8.221197,7.353194 8.72416,6.966724 9.28125,6.6875 9.559795,6.547888 9.8547231,6.440553 10.15625,6.34375 9.9000482,6.443972 9.6695391,6.580022 9.4375,6.71875 c -0.00741,0.0044 -0.023866,-0.0045 -0.03125,0 -0.031933,0.0193 -0.062293,0.04251 -0.09375,0.0625 -0.120395,0.0767 -0.2310226,0.163513 -0.34375,0.25 -0.1061728,0.0808 -0.2132809,0.161112 -0.3125,0.25 C 8.4783201,7.442683 8.3087904,7.626638 8.15625,7.8125 8.0486711,7.942755 7.9378561,8.077785 7.84375,8.21875 7.818661,8.25713 7.805304,8.30462 7.78125,8.34375 7.716487,8.446782 7.6510225,8.548267 7.59375,8.65625 7.4927417,8.850956 7.3880752,9.071951 7.3125,9.28125 7.30454,9.30306 7.288911,9.3218 7.28125,9.34375 7.2494249,9.4357 7.2454455,9.530581 7.21875,9.625 7.1884177,9.731618 7.1483606,9.828031 7.125,9.9375 7.0521214,10.279012 7,10.635705 7,11 l 0,2 0,68 0,2 c 0,2.781848 2.2181517,5 5,5 l 2,0 68,0 2,0 c 2.781848,0 5,-2.218152 5,-5 l 0,-2 0,-68 0,-2 C 89,10.635705 88.94788,10.279012 88.875,9.9375 88.83085,9.730607 88.78662,9.539842 88.71875,9.34375 88.71105,9.3218 88.69545,9.30306 88.6875,9.28125 88.62476,9.107511 88.549117,8.913801 88.46875,8.75 88.42717,8.6672 88.38971,8.580046 88.34375,8.5 88.28915,8.40279 88.216976,8.31165 88.15625,8.21875 88.06214,8.077785 87.951329,7.942755 87.84375,7.8125 87.700576,7.63805 87.540609,7.465502 87.375,7.3125 87.36383,7.3023 87.35502,7.29135 87.34375,7.28125 87.205364,7.155694 87.058659,7.046814 86.90625,6.9375 86.803679,6.86435 86.701932,6.784136 86.59375,6.71875 c -0.0074,-0.0045 -0.02384,0.0044 -0.03125,0 -0.232039,-0.138728 -0.462548,-0.274778 -0.71875,-0.375 0.301527,0.0968 0.596455,0.204138 0.875,0.34375 0.55709,0.279224 1.060053,0.665694 1.5,1.09375 0.219973,0.214028 0.409366,0.441865 0.59375,0.6875 0.184384,0.245635 0.355408,0.507743 0.5,0.78125 0.14012,0.265048 0.276135,0.524729 0.375,0.8125 0.01041,0.03078 0.02133,0.06274 0.03125,0.09375 0.09046,0.278085 0.1388,0.579404 0.1875,0.875 C 89.95865,11.3493 90,11.665279 90,12 l 0,2 0,68 0,2 c 0,3.324 -2.676,6 -6,6 l -72,0 z"
       inkscape:connector-curvature="0"
       id="path3615"
       style="opacity:0.2;fill:url(#radialGradient3619);fill-opacity:1;fill-rule:nonzero;stroke:none" />
    <path
       d="M 12,6 C 8.676,6 6,8.676 6,12 l 0,2 0,68 0,2 c 0,0.334721 0.04135,0.6507 0.09375,0.96875 0.0487,0.295596 0.09704,0.596915 0.1875,0.875 0.00988,0.03038 0.020892,0.0636 0.03125,0.09375 0.098865,0.287771 0.2348802,0.547452 0.375,0.8125 0.1445918,0.273507 0.3156161,0.535615 0.5,0.78125 0.1843839,0.245635 0.3737765,0.473472 0.59375,0.6875 0.439947,0.428056 0.94291,0.814526 1.5,1.09375 0.278545,0.139612 0.5734731,0.246947 0.875,0.34375 -0.2562018,-0.100222 -0.4867109,-0.236272 -0.71875,-0.375 -0.00741,-0.0044 -0.023866,0.0045 -0.03125,0 -0.031933,-0.0193 -0.062293,-0.04251 -0.09375,-0.0625 -0.120395,-0.0767 -0.2310226,-0.163513 -0.34375,-0.25 -0.1061728,-0.0808 -0.2132809,-0.161112 -0.3125,-0.25 C 8.4783201,88.557317 8.3087904,88.373362 8.15625,88.1875 8.0486711,88.057245 7.9378561,87.922215 7.84375,87.78125 7.818661,87.74287 7.805304,87.69538 7.78125,87.65625 7.716487,87.553218 7.6510225,87.451733 7.59375,87.34375 7.4927417,87.149044 7.3880752,86.928049 7.3125,86.71875 7.30454,86.69694 7.288911,86.6782 7.28125,86.65625 7.2494249,86.5643 7.2454455,86.469419 7.21875,86.375 7.1884177,86.268382 7.1483606,86.171969 7.125,86.0625 7.0521214,85.720988 7,85.364295 7,85 L 7,83 7,15 7,13 C 7,10.218152 9.2181517,8 12,8 l 2,0 68,0 2,0 c 2.781848,0 5,2.218152 5,5 l 0,2 0,68 0,2 c 0,0.364295 -0.05212,0.720988 -0.125,1.0625 -0.04415,0.206893 -0.08838,0.397658 -0.15625,0.59375 -0.0077,0.02195 -0.0233,0.04069 -0.03125,0.0625 -0.06274,0.173739 -0.138383,0.367449 -0.21875,0.53125 -0.04158,0.0828 -0.07904,0.169954 -0.125,0.25 -0.0546,0.09721 -0.126774,0.18835 -0.1875,0.28125 -0.09411,0.140965 -0.204921,0.275995 -0.3125,0.40625 -0.143174,0.17445 -0.303141,0.346998 -0.46875,0.5 -0.01117,0.0102 -0.01998,0.02115 -0.03125,0.03125 -0.138386,0.125556 -0.285091,0.234436 -0.4375,0.34375 -0.102571,0.07315 -0.204318,0.153364 -0.3125,0.21875 -0.0074,0.0045 -0.02384,-0.0044 -0.03125,0 -0.232039,0.138728 -0.462548,0.274778 -0.71875,0.375 0.301527,-0.0968 0.596455,-0.204138 0.875,-0.34375 0.55709,-0.279224 1.060053,-0.665694 1.5,-1.09375 0.219973,-0.214028 0.409366,-0.441865 0.59375,-0.6875 0.184384,-0.245635 0.355408,-0.507743 0.5,-0.78125 0.14012,-0.265048 0.276135,-0.524729 0.375,-0.8125 0.01041,-0.03078 0.02133,-0.06274 0.03125,-0.09375 0.09046,-0.278085 0.1388,-0.579404 0.1875,-0.875 C 89.95865,84.6507 90,84.334721 90,84 l 0,-2 0,-68 0,-2 C 90,8.676 87.324,6 84,6 L 12,6 z"
       inkscape:connector-curvature="0"
       id="rect3728"
       style="opacity:0.5;fill:url(#linearGradient3188);fill-opacity:1;fill-rule:nonzero;stroke:none" />
  </g>
</svg>
