<svg xmlns="http://www.w3.org/2000/svg" width="48" height="48">
<defs>
  <path
     d="M 36.40625 7 C 36.406188 9.9999725 34.304499 10.056797 31.96875 10.09375 L 7.625 10.09375 C 7.0330035 10.08525 6.5 10.595626 6.5 11.1875 C 6.5 11.779374 7.0330035 12.32097 7.625 12.3125 L 31.96875 12.3125 C 35.382521 12.3125 38.34375 11.347808 38.4375 9.25 L 43.75 9.25 L 43.75 34.34375 C 43.75 35.614803 43.338785 36.602102 42.15625 37.40625 C 41.821928 37.63355 41.41755 37.817897 40.9375 38 C 41.150614 37.467325 41.25 36.882022 41.25 36.21875 L 41.25 13.6875 L 2 13.6875 L 2 35.46875 C 2 38.51966 4.4481547 40.973501 7.5 40.96875 C 17.139776 40.95374 26.798885 41.03034 36.4375 40.96875 C 39.510336 40.94346 41.791703 40.347879 43.40625 39.25 C 45.151268 38.063368 46 36.217045 46 34.34375 L 46 7 L 36.40625 7 z M 24.84375 16.0625 C 28.54775 16.215512 31.899249 18.741818 32.90625 22.5 C 34.145636 27.125454 31.375454 31.916863 26.75 33.15625 C 24.069485 33.874491 21.317448 33.241473 19.25 31.6875 C 19.22299 31.71336 19.21651 31.75705 19.1875 31.78125 L 11.9375 38.0625 C 11.249243 38.656709 10.219208 38.563257 9.625 37.875 C 9.030792 37.186742 9.092994 36.12546 9.78125 35.53125 L 17.03125 29.25 C 17.03952 29.2426 17.0541 29.2572 17.0625 29.25 C 16.645042 28.563164 16.311776 27.813682 16.09375 27 C 14.854364 22.374546 17.624546 17.583136 22.25 16.34375 C 23.117272 16.111365 23.988981 16.02719 24.84375 16.0625 z M 24.75 18.78125 C 24.162881 18.758733 23.567743 18.808251 22.96875 18.96875 C 19.774121 19.824749 17.862752 23.086622 18.71875 26.28125 C 19.574747 29.475878 22.836621 31.355999 26.03125 30.5 C 29.225877 29.644001 31.137248 26.413379 30.28125 23.21875 C 29.585751 20.623116 27.294177 18.87883 24.75 18.78125 z "
     id="path-main" />
</defs>
<acyl-settings>
<linearGradient
     id="linearGradient4321">
    <stop
       style="stop-color:#FFFFFF;stop-opacity:1.0;"
       offset="1.0"
       id="stop1" />
  </linearGradient>
<linearGradient
     inkscape:collect="always"
     xlink:href="#linearGradient4321"
     id="acyl_gradient"
     x1="50.0%"
     y1="0.0%"
     x2="50.0%"
     y2="100.0%" />
<filter>
    </filter>
<use id="1" style="fill:url(#acyl_gradient);filter:url(#filter1111)" xlink:href="#path-main" />
</acyl-settings>
</svg>
