<svg xmlns="http://www.w3.org/2000/svg" width="48" height="48">
<defs>
  <path
     d="M 36.40625 7 C 36.406188 9.9999725 34.304499 10.056797 31.96875 10.09375 L 7.625 10.09375 C 7.0330035 10.08525 6.5 10.595626 6.5 11.1875 C 6.5 11.779374 7.0330035 12.32097 7.625 12.3125 L 31.96875 12.3125 C 35.382521 12.3125 38.34375 11.347808 38.4375 9.25 L 43.75 9.25 L 43.75 34.34375 C 43.75 35.614803 43.338785 36.602102 42.15625 37.40625 C 41.821928 37.63355 41.41755 37.817897 40.9375 38 C 41.150614 37.467325 41.25 36.882022 41.25 36.21875 L 41.25 13.6875 L 2 13.6875 L 2 35.46875 C 2 38.51966 4.4481547 40.973501 7.5 40.96875 C 17.139776 40.95374 26.798885 41.03034 36.4375 40.96875 C 39.510336 40.94346 41.791703 40.347879 43.40625 39.25 C 45.151268 38.063368 46 36.217045 46 34.34375 L 46 7 L 36.40625 7 z M 21.59375 18.625 L 22 18.625 C 24.925 18.625 27.03125 20.293722 27.03125 23.21875 L 27.03125 25.75 L 27.875 25.71875 C 28.710714 25.71875 29.125 26.164286 29.125 27 L 29.125 34.09375 C 29.125 34.503385 28.706501 35.33975 28.03125 35.34375 L 15.71875 35.34375 C 14.883036 35.34375 14.5 34.503386 14.5 34.09375 L 14.5 27 C 14.5 26.164286 14.883036 25.75 15.71875 25.75 L 16.5625 25.75 L 16.5625 23.21875 C 16.5625 20.366418 18.66875 18.625 21.59375 18.625 z M 21.59375 20.71875 C 18.668701 20.71875 18.65625 23.226786 18.65625 24.0625 L 18.65625 25.75 L 24.9375 25.75 L 24.9375 24.0625 C 24.9375 23.226786 24.925 20.71875 22 20.71875 L 21.59375 20.71875 z M 21.71875 26.96875 C 20.665613 26.96875 19.875 27.821863 19.875 28.875 C 19.875 29.470571 20.134771 29.962815 20.5625 30.3125 L 20.5625 32.4375 C 20.5625 33.124166 21.094585 33.6875 21.78125 33.6875 C 22.467915 33.6875 23.03125 33.124166 23.03125 32.4375 L 23.03125 30.28125 C 23.411814 29.932633 23.625 29.431782 23.625 28.875 C 23.625 27.821863 22.771887 26.96875 21.71875 26.96875 z "
     id="path-main" />
</defs>
<acyl-settings>
<linearGradient
     id="linearGradient4321">
    <stop
       style="stop-color:#FFFFFF;stop-opacity:1.0;"
       offset="1.0"
       id="stop1" />
  </linearGradient>
<linearGradient
     inkscape:collect="always"
     xlink:href="#linearGradient4321"
     id="acyl_gradient"
     x1="50.0%"
     y1="0.0%"
     x2="50.0%"
     y2="100.0%" />
<filter>
    </filter>
<use id="1" style="fill:url(#acyl_gradient);filter:url(#filter1111)" xlink:href="#path-main" />
</acyl-settings>
</svg>
