<svg xmlns="http://www.w3.org/2000/svg" width="48" height="48">
<defs>
  <path
     d="m 36.40625,6.03125 c -6.2e-5,2.9999725 -2.101751,3.056797 -4.4375,3.09375 L 7.625,9.125 C 7.0330035,9.1165 6.5,9.626876 6.5,10.21875 c 0,0.591874 0.5330035,1.13347 1.125,1.125 l 24.34375,0 c 3.413771,0 6.375,-0.964692 6.46875,-3.0625 l 5.3125,0 0,25.09375 c 0,1.271053 -0.411215,2.258352 -1.59375,3.0625 -0.334322,0.2273 -0.7387,0.411647 -1.21875,0.59375 C 41.150614,36.498575 41.25,35.913272 41.25,35.25 l 0,-22.53125 -39.25,0 L 2,34.5 c 0,3.05091 2.4481547,5.504751 5.5,5.5 5.184241,-0.0081 10.373271,0.02208 15.5625,0.03125 l 0,1.3125 c -0.587677,0.260417 -1.077596,0.742817 -1.3125,1.34375 l -18.75,0 C 2.96946,42.686 2.93678,42.686 2.90625,42.6875 2.366383,42.712808 1.974692,43.178888 2,43.71875 2.02531,44.258613 2.460134,44.650306 3,44.625 l 18.8125,0 c 0.397112,0.812813 1.253727,1.374999 2.21875,1.375 0.965024,10e-7 1.790388,-0.562188 2.1875,-1.375 L 45,44.625 c 0.352518,0.005 0.69728,-0.195509 0.875,-0.5 0.17771,-0.30449 0.17771,-0.66426 0,-0.96875 C 45.697279,42.851761 45.352518,42.682515 45,42.6875 l -18.6875,0 C 26.077596,42.086568 25.587667,41.604166 25,41.34375 l 0,-1.3125 C 28.813596,40.03585 32.627848,40.02435 36.4375,40 39.510336,39.97471 41.791703,39.379129 43.40625,38.28125 45.151268,37.094618 46,35.248295 46,33.375 l 0,-27.34375 -9.59375,0 z M 15.584502,17.927375 c 2e-6,0 3.936776,3.196831 7.53125,0.1875 2.716757,1.212092 4.240282,2.048406 7.375,-0.125 0.208979,5.935066 0.3125,9.88836 0.3125,11.28125 -3e-6,1.434669 -0.704203,2.483234 -3.46875,4.09375 -2.951805,1.719603 -3.696494,1.976962 -4.15625,2.6875 -0.501555,-0.710539 -3.516041,-2.382434 -5.0625,-3.34375 -1.546467,-0.961314 -2.59375,-2.455095 -2.59375,-3.5 2e-6,-1.044907 0.0625,-11.197659 0.0625,-11.28125 z"
     id="path-main" />
</defs>
<acyl-settings>
<linearGradient
     id="linearGradient4321">
    <stop
       style="stop-color:#FFFFFF;stop-opacity:1.0;"
       offset="1.0"
       id="stop1" />
  </linearGradient>
<linearGradient
     inkscape:collect="always"
     xlink:href="#linearGradient4321"
     id="acyl_gradient"
     x1="50.0%"
     y1="0.0%"
     x2="50.0%"
     y2="100.0%" />
<filter>
    </filter>
<use id="1" style="fill:url(#acyl_gradient);filter:url(#filter1111)" xlink:href="#path-main" />
</acyl-settings>
</svg>
