<svg xmlns="http://www.w3.org/2000/svg" width="48" height="48">
<defs>
  <path
     d="M 36.40625 7 C 36.406188 9.9999725 34.304499 10.056797 31.96875 10.09375 L 7.625 10.09375 C 7.0330035 10.08525 6.5 10.595626 6.5 11.1875 C 6.5 11.779374 7.0330035 12.32097 7.625 12.3125 L 31.96875 12.3125 C 35.382521 12.3125 38.34375 11.347808 38.4375 9.25 L 43.75 9.25 L 43.75 34.34375 C 43.75 35.614803 43.338785 36.602102 42.15625 37.40625 C 41.821928 37.63355 41.41755 37.817897 40.9375 38 C 41.150614 37.467325 41.25 36.882022 41.25 36.21875 L 41.25 13.6875 L 2 13.6875 L 2 35.46875 C 2 38.51966 4.4481547 40.973501 7.5 40.96875 C 17.139776 40.95374 26.798885 41.03034 36.4375 40.96875 C 39.510336 40.94346 41.791703 40.347879 43.40625 39.25 C 45.151268 38.063368 46 36.217045 46 34.34375 L 46 7 L 36.40625 7 z M 21.4375 18.78125 C 21.976479 18.78125 22.492694 19.092592 22.75 19.59375 L 29.25 32.71875 L 29.28125 32.71875 L 29.28125 32.78125 C 29.472071 33.246724 29.444416 33.759397 29.1875 34.21875 C 29.1826 34.22755 29.1927 34.24124 29.1875 34.25 C 28.948127 34.719963 28.462388 35.000001 27.9375 35 L 14.9375 35 C 14.430822 35 13.978453 34.761748 13.71875 34.3125 C 13.440988 33.832014 13.436939 33.279619 13.65625 32.8125 L 13.65625 32.78125 L 20.125 19.65625 L 20.15625 19.625 C 20.410505 19.137192 20.866219 18.781251 21.4375 18.78125 z M 21.4375 22.8125 C 21.38452 22.8125 21.314196 22.850386 21.28125 22.9375 L 16.6875 32.1875 C 16.58901 32.361731 16.711959 32.53125 16.875 32.53125 L 26.0625 32.53125 C 26.225502 32.531251 26.315859 32.361733 26.21875 32.1875 L 21.5625 22.9375 C 21.51395 22.85039 21.490484 22.8125 21.4375 22.8125 z M 20.625 25.875 L 22.5 25.90625 L 21.78125 28.6875 L 21.28125 28.71875 L 20.625 25.875 z M 21.4375 29.59375 C 21.51596 29.57621 21.574549 29.58285 21.65625 29.59375 C 21.765186 29.60828 21.890496 29.655525 22 29.71875 C 22.438016 29.971637 22.49464 30.410264 22.25 30.90625 C 21.99378 31.350038 21.531766 31.53414 21.09375 31.28125 C 20.687019 31.046423 20.55628 30.537535 20.8125 30.09375 C 20.967709 29.824918 21.202115 29.646367 21.4375 29.59375 z "
     id="path-main" />
</defs>
<acyl-settings>
<linearGradient
     id="linearGradient4321">
    <stop
       style="stop-color:#FFFFFF;stop-opacity:1.0;"
       offset="1.0"
       id="stop1" />
  </linearGradient>
<linearGradient
     inkscape:collect="always"
     xlink:href="#linearGradient4321"
     id="acyl_gradient"
     x1="50.0%"
     y1="0.0%"
     x2="50.0%"
     y2="100.0%" />
<filter>
    </filter>
<use id="1" style="fill:url(#acyl_gradient);filter:url(#filter1111)" xlink:href="#path-main" />
</acyl-settings>
</svg>
