<svg xmlns="http://www.w3.org/2000/svg" width="48" height="48">
<defs>
<defs
     id="defs2385">
  </defs>
  <path
     id="path-main"
   d="M 13.09375 4.59375 C 12.693018 4.59375 12.40625 4.8950423 12.40625 5.28125 L 12.40625 41.90625 C 12.40625 42.292462 12.693018 42.59375 13.09375 42.59375 L 23.875 42.59375 L 36.40625 30.78125 L 36.40625 16.78125 L 23.5 4.59375 L 13.09375 4.59375 z M 25.53125 4.59375 L 36.40625 14.84375 L 36.40625 5.28125 C 36.40625 4.8950423 36.056977 4.59375 35.65625 4.59375 L 25.53125 4.59375 z M 24.40625 14.65625 L 24.8125 14.65625 C 27.7375 14.65625 29.8125 16.324972 29.8125 19.25 L 29.8125 21.75 L 30.65625 21.71875 C 31.491964 21.71875 31.90625 22.164286 31.90625 23 L 31.90625 30.125 C 31.90625 30.534635 31.487751 31.33975 30.8125 31.34375 L 18.53125 31.34375 C 17.695536 31.34375 17.28125 30.534636 17.28125 30.125 L 17.28125 23 C 17.28125 22.164286 17.695536 21.75 18.53125 21.75 L 19.375 21.75 L 19.375 19.25 C 19.375 16.397668 21.48125 14.65625 24.40625 14.65625 z M 24.40625 16.71875 C 21.481201 16.71875 21.46875 19.226786 21.46875 20.0625 L 21.46875 21.75 L 27.71875 21.75 L 27.71875 20.0625 C 27.71875 19.226786 27.7375 16.71875 24.8125 16.71875 L 24.40625 16.71875 z M 24.53125 22.96875 C 23.478113 22.96875 22.65625 23.821863 22.65625 24.875 C 22.65625 25.470571 22.916021 25.994065 23.34375 26.34375 L 23.34375 28.4375 C 23.34375 29.124166 23.875835 29.6875 24.5625 29.6875 C 25.249165 29.6875 25.8125 29.124166 25.8125 28.4375 L 25.8125 26.28125 C 26.193064 25.932633 26.4375 25.431782 26.4375 24.875 C 26.4375 23.821863 25.584387 22.96875 24.53125 22.96875 z M 36.40625 32.6875 L 25.90625 42.59375 L 35.65625 42.59375 C 36.056987 42.59375 36.40625 42.292462 36.40625 41.90625 L 36.40625 32.6875 z "
/>
</defs>
<acyl-settings>
<linearGradient
     id="linearGradient4321">
    <stop
       style="stop-color:#FFFFFF;stop-opacity:1.0;"
       offset="1.0"
       id="stop1" />
  </linearGradient>
<linearGradient
     inkscape:collect="always"
     xlink:href="#linearGradient4321"
     id="acyl_gradient"
     x1="50.0%"
     y1="0.0%"
     x2="50.0%"
     y2="100.0%" />
<filter>
    </filter>
<use id="1" style="fill:url(#acyl_gradient);filter:url(#filter1111)" xlink:href="#path-main" />
</acyl-settings>
</svg>
