<svg xmlns="http://www.w3.org/2000/svg" width="48" height="48">
<defs>
<defs
     id="defs2385">
  </defs>
  <path
     id="path-main"
     d="M 6.625 10 C 4.4437601 10 2.71875 11.855151 2.71875 14.0625 L 2.71875 26.90625 C 2.71875 26.980768 2.7461169 27.051342 2.75 27.125 C 2.7430289 27.304541 2.71875 27.475029 2.71875 27.65625 L 2.71875 40.53125 C 2.7187776 40.807381 2.9426191 41.031222 3.21875 41.03125 L 32.78125 41.03125 C 40.123609 41.03125 46.249999 35.002324 46.25 27.65625 L 46.25 14.8125 C 46.249972 14.536369 46.026131 14.312528 45.75 14.3125 L 43.375 14.3125 L 43.375 14.0625 C 43.375 11.855151 41.64999 10 39.46875 10 L 6.625 10 z M 6.625 12 L 39.46875 12 C 40.527421 12 41.375 12.881546 41.375 14.0625 L 41.375 14.3125 L 15.8125 14.3125 C 11.068956 14.3125 7.0124466 16.838243 4.71875 20.59375 L 4.71875 14.0625 C 4.71875 12.881546 5.5663292 12 6.625 12 z M 25.40625 18.5 C 26.118985 18.501375 26.841315 18.563664 27.5625 18.75 C 27.58061 18.7547 27.6069 18.7452 27.625 18.75 C 32.257774 19.978379 35.009627 24.77348 33.78125 29.40625 C 32.552877 34.039024 27.789024 36.790877 23.15625 35.5625 C 22.200543 35.309095 21.340437 34.896661 20.5625 34.375 C 20.5388 34.454467 20.52644 34.51273 20.5 34.59375 C 20.385052 34.946091 20.233743 35.314539 20 35.625 C 19.766259 35.93546 19.444086 36.19723 19 36.28125 C 18.123625 36.447051 17.406337 35.919383 16.8125 35.4375 C 16.218664 34.955617 15.676997 34.5243 15.21875 34.46875 C 14.660545 34.401088 14.410547 34.506269 14.1875 34.65625 C 13.964453 34.806231 13.778943 35.044158 13.40625 35.1875 L 13.125 34.53125 C 13.247354 34.48419 13.452131 34.283803 13.78125 34.0625 C 14.110369 33.841196 14.614053 33.66534 15.3125 33.75 C 16.110905 33.846777 16.682383 34.414392 17.25 34.875 C 17.817617 35.335607 18.342402 35.663263 18.875 35.5625 C 19.135402 35.513238 19.283297 35.392315 19.4375 35.1875 C 19.591702 34.982685 19.708485 34.693826 19.8125 34.375 C 19.861433 34.225003 19.89338 34.092286 19.9375 33.9375 C 17.354042 31.850805 16.094321 28.353229 17 24.9375 C 18.032394 21.043869 21.55748 18.4927 25.40625 18.5 z M 23.34375 19.875 C 23.107457 19.890026 22.857232 19.94141 22.625 20.03125 C 21.404898 20.503266 20.809234 21.873649 21.28125 23.09375 C 21.753265 24.313852 23.123648 24.940765 24.34375 24.46875 C 25.563854 23.996734 26.159518 22.595104 25.6875 21.375 C 25.398021 20.626734 24.755472 20.117147 24.03125 19.9375 C 23.805885 19.88382 23.580042 19.85997 23.34375 19.875 z M 29.5 21.46875 C 28.966857 21.464333 28.414053 21.637471 27.96875 22 C 26.954222 22.825948 26.799055 24.297975 27.625 25.3125 C 28.450948 26.327023 29.954227 26.482195 30.96875 25.65625 C 31.983277 24.830302 32.169699 23.358276 31.34375 22.34375 C 31.004983 21.927634 30.515554 21.649406 30.03125 21.53125 C 29.858227 21.49033 29.677715 21.47025 29.5 21.46875 z M 20 25.0625 C 18.693751 25.134384 17.67812 26.287506 17.75 27.59375 C 17.821883 28.899999 18.943755 29.91563 20.25 29.84375 C 21.556249 29.771866 22.54063 28.618749 22.46875 27.3125 C 22.410907 26.261381 21.715736 25.412288 20.75 25.15625 C 20.73534 25.15234 20.70225 25.15985 20.6875 25.15625 C 20.466256 25.10216 20.239182 25.04934 20 25.0625 z M 25.40625 26.21875 C 24.981859 26.213174 24.582446 26.477447 24.46875 26.90625 C 24.334634 27.41206 24.650435 27.959632 25.15625 28.09375 C 25.66206 28.227865 26.178386 27.91206 26.3125 27.40625 C 26.446616 26.900437 26.130812 26.384118 25.625 26.25 C 25.61117 26.24631 25.60759 26.22175 25.59375 26.21875 C 25.532439 26.20577 25.46688 26.219547 25.40625 26.21875 z M 29.65625 27.65625 C 28.935603 27.705823 28.234087 28.097082 27.8125 28.75 C 27.10286 29.849028 27.432221 31.321606 28.53125 32.03125 C 29.630276 32.74089 31.102858 32.411532 31.8125 31.3125 C 32.522144 30.213472 32.19278 28.740891 31.09375 28.03125 C 30.879099 27.892648 30.671898 27.81216 30.4375 27.75 C 30.42241 27.74602 30.39013 27.72245 30.375 27.71875 C 30.136634 27.66056 29.896466 27.63973 29.65625 27.65625 z M 23.90625 29.90625 C 22.911117 29.96373 21.987988 30.64083 21.71875 31.65625 C 21.38346 32.920779 22.172968 34.227208 23.4375 34.5625 C 24.70203 34.89779 25.977215 34.139526 26.3125 32.875 C 26.647791 31.610468 25.889527 30.304038 24.625 29.96875 C 24.61512 29.96615 24.60365 29.97125 24.59375 29.96875 C 24.359301 29.91132 24.135896 29.89298 23.90625 29.90625 z "
/>
</defs>
<acyl-settings>
<linearGradient
     id="linearGradient4321">
    <stop
       style="stop-color:#FFFFFF;stop-opacity:1.0;"
       offset="1.0"
       id="stop1" />
  </linearGradient>
<linearGradient
     inkscape:collect="always"
     xlink:href="#linearGradient4321"
     id="acyl_gradient"
     x1="50.0%"
     y1="0.0%"
     x2="50.0%"
     y2="100.0%" />
<filter>
    </filter>
<use id="1" style="fill:url(#acyl_gradient);filter:url(#filter1111)" xlink:href="#path-main" />
</acyl-settings>
</svg>
