<svg xmlns="http://www.w3.org/2000/svg" width="48" height="48">
<defs>
<defs
     id="defs2385">
  </defs>
  <path
     id="path-main"
     d="M 6.625 10 C 4.4437601 10 2.71875 11.855151 2.71875 14.0625 L 2.71875 26.90625 C 2.71875 26.980768 2.7461169 27.051342 2.75 27.125 C 2.7430289 27.304541 2.71875 27.475029 2.71875 27.65625 L 2.71875 40.53125 C 2.7187776 40.807381 2.9426191 41.031222 3.21875 41.03125 L 32.78125 41.03125 C 40.123609 41.03125 46.249999 35.002324 46.25 27.65625 L 46.25 14.8125 C 46.249972 14.536369 46.026131 14.312528 45.75 14.3125 L 43.375 14.3125 L 43.375 14.0625 C 43.375 11.855151 41.64999 10 39.46875 10 L 6.625 10 z M 6.625 12 L 39.46875 12 C 40.527421 12 41.375 12.881546 41.375 14.0625 L 41.375 14.3125 L 15.8125 14.3125 C 11.068956 14.3125 7.0124466 16.838243 4.71875 20.59375 L 4.71875 14.0625 C 4.71875 12.881546 5.5663292 12 6.625 12 z M 15.875 21.78125 C 15.88161 21.781001 15.89955 21.78125 15.90625 21.78125 L 18.84375 21.78125 C 19.127972 21.78125 19.343749 21.997029 19.34375 22.28125 L 19.34375 22.84375 L 31.5625 22.84375 C 32.130944 22.84375 32.593749 23.306556 32.59375 23.875 L 32.59375 32.40625 C 32.593751 32.974695 32.130944 33.437499 31.5625 33.4375 L 15.25 33.4375 C 14.681556 33.4375 14.218749 32.974694 14.21875 32.40625 L 14.21875 23.875 C 14.21875 23.319809 14.668796 22.86442 15.21875 22.84375 C 15.22758 22.843526 15.2411 22.84375 15.25 22.84375 L 15.40625 22.84375 L 15.40625 22.28125 C 15.40625 22.003689 15.600067 21.79164 15.875 21.78125 z M 28.75 23.5625 C 28.630589 23.572927 28.53125 23.659046 28.53125 23.78125 L 28.53125 25.0625 C 28.53125 25.191692 28.652058 25.312501 28.78125 25.3125 L 31.34375 25.3125 C 31.47294 25.3125 31.562499 25.191691 31.5625 25.0625 L 31.5625 23.78125 C 31.5625 23.652059 31.472943 23.5625 31.34375 23.5625 L 28.78125 23.5625 C 28.77623 23.5625 28.755 23.562186 28.75 23.5625 z M 23.3125 24.40625 C 21.29711 24.457137 19.656251 26.097416 19.65625 28.125 C 19.65625 30.184608 21.346644 31.875 23.40625 31.875 C 25.465858 31.875 27.156248 30.184607 27.15625 28.125 C 27.15625 26.065392 25.465861 24.406251 23.40625 24.40625 C 23.39018 24.40625 23.35979 24.406048 23.34375 24.40625 C 23.33583 24.4064 23.3204 24.406051 23.3125 24.40625 z M 23.40625 25.75 C 24.732123 25.750001 25.8125 26.799125 25.8125 28.125 C 25.8125 29.450873 24.732125 30.53125 23.40625 30.53125 C 22.080373 30.53125 21 29.450874 21 28.125 C 21 26.799125 22.080374 25.75 23.40625 25.75 z "
 />
</defs>
<acyl-settings>
<linearGradient
     id="linearGradient4321">
    <stop
       style="stop-color:#FFFFFF;stop-opacity:1.0;"
       offset="1.0"
       id="stop1" />
  </linearGradient>
<linearGradient
     inkscape:collect="always"
     xlink:href="#linearGradient4321"
     id="acyl_gradient"
     x1="50.0%"
     y1="0.0%"
     x2="50.0%"
     y2="100.0%" />
<filter>
    </filter>
<use id="1" style="fill:url(#acyl_gradient);filter:url(#filter1111)" xlink:href="#path-main" />
</acyl-settings>
</svg>
