<svg xmlns="http://www.w3.org/2000/svg" width="48" height="48">
<defs>
<defs
     id="defs2385">
  </defs>
  <path
     id="path-main"
     d="M 6.625 10 C 4.4437601 10 2.71875 11.855151 2.71875 14.0625 L 2.71875 26.90625 C 2.71875 26.980768 2.7461169 27.051342 2.75 27.125 C 2.7430289 27.304541 2.71875 27.475029 2.71875 27.65625 L 2.71875 40.53125 C 2.7187776 40.807381 2.9426191 41.031222 3.21875 41.03125 L 32.78125 41.03125 C 40.123609 41.03125 46.249999 35.002324 46.25 27.65625 L 46.25 14.8125 C 46.249972 14.536369 46.026131 14.312528 45.75 14.3125 L 43.375 14.3125 L 43.375 14.0625 C 43.375 11.855151 41.64999 10 39.46875 10 L 6.625 10 z M 6.625 12 L 39.46875 12 C 40.527421 12 41.375 12.881546 41.375 14.0625 L 41.375 14.3125 L 15.8125 14.3125 C 11.068956 14.3125 7.0124466 16.838243 4.71875 20.59375 L 4.71875 14.0625 C 4.71875 12.881546 5.5663292 12 6.625 12 z M 23.78125 19.5625 C 28.549759 19.5625 32.4375 23.338185 32.4375 28 C 32.437499 32.662029 28.549758 36.4375 23.78125 36.4375 C 19.012301 36.437499 15.15625 32.661986 15.15625 28 C 15.156249 23.338184 19.0123 19.5625 23.78125 19.5625 z M 23.9375 20.09375 L 22.90625 20.21875 L 21.96875 20.46875 L 21.84375 20.25 L 21.40625 20.3125 L 21.21875 20.53125 L 20.84375 20.5625 L 20.53125 20.6875 L 20.4375 20.78125 L 20.40625 20.78125 L 20.25 20.8125 L 20.125 21.09375 L 19.9375 20.75 L 19.875 20.90625 L 19.90625 21.28125 L 19.625 21.5 L 19.4375 21.9375 L 19.8125 21.9375 L 19.875 21.71875 L 20.1875 21.9375 L 20.46875 21.9375 L 20.46875 21.65625 L 20.125 21.53125 L 19.90625 21.625 L 19.96875 21.5625 C 20.116884 21.460098 20.286626 21.34857 20.4375 21.25 L 20.75 21.34375 C 20.978884 21.49576 21.208427 21.629471 21.4375 21.78125 L 21.8125 21.5 L 21.40625 21.34375 L 21.25 21 L 20.78125 20.9375 L 20.9375 20.84375 L 21.28125 20.75 C 21.377406 20.704286 21.46518 20.66125 21.5625 20.625 L 21.40625 20.78125 L 22.1875 21.3125 L 22.1875 21.625 L 21.90625 21.9375 L 22.28125 22.71875 L 22.5625 22.5625 L 22.90625 22.03125 C 23.405684 21.880308 23.841333 21.710123 24.3125 21.5 L 24.28125 21.71875 L 24.53125 21.875 L 24.9375 21.625 L 24.75 21.40625 L 24.46875 21.53125 L 24.34375 21.5 C 24.36685 21.48967 24.383 21.47927 24.40625 21.46875 L 24.84375 20.46875 L 23.9375 20.09375 z M 27.71875 21.46875 L 27.09375 21.625 L 26.71875 21.84375 L 26.71875 22.0625 L 26.125 22.4375 L 26.25 23 L 26.59375 22.75 L 26.8125 23 L 27.0625 23.15625 L 27.21875 22.71875 L 27.125 22.5 L 27.21875 22.3125 L 27.5625 21.96875 L 27.71875 21.96875 L 27.5625 22.34375 L 27.5625 22.65625 C 27.707399 22.6177 27.882967 22.58053 28.03125 22.5625 L 27.59375 22.875 L 27.5625 23.03125 L 27.09375 23.40625 L 26.65625 23.3125 L 26.65625 23.03125 L 26.40625 23.1875 L 26.5 23.40625 L 26.15625 23.40625 L 25.96875 23.71875 L 25.71875 24 L 25.3125 24.09375 L 25.5625 24.34375 L 25.625 24.59375 L 25.3125 24.59375 L 24.90625 24.78125 L 24.90625 25.40625 L 25.09375 25.40625 L 25.25 25.59375 L 25.65625 25.40625 L 25.8125 25.03125 L 26.09375 24.84375 L 26.15625 24.71875 L 26.65625 24.59375 L 26.875 24.875 L 27.15625 25.03125 L 27 25.34375 L 27.25 25.28125 L 27.375 24.96875 L 27.0625 24.59375 L 27.1875 24.59375 L 27.5 24.84375 L 27.5625 25.21875 L 27.875 25.5 L 27.9375 25.0625 L 28.09375 24.96875 C 28.249668 25.126977 28.36868 25.321928 28.5 25.5 L 28.96875 25.53125 L 29.25 25.71875 L 29.125 25.90625 L 28.8125 26.125 L 28.4375 26.125 L 27.875 25.96875 L 27.59375 26 L 27.40625 26.21875 L 26.8125 25.65625 L 26.40625 25.53125 L 25.8125 25.59375 L 25.25 25.75 C 24.949182 26.083374 24.659724 26.403779 24.375 26.75 L 24.03125 27.5625 L 24.1875 27.75 L 23.9375 28.15625 L 24.25 28.90625 C 24.518149 29.202771 24.763492 29.48452 25.03125 29.78125 L 25.4375 29.46875 L 25.59375 29.625 L 26.03125 29.40625 L 26.1875 29.53125 L 26.59375 29.53125 L 26.84375 29.8125 L 26.71875 30.28125 L 27 30.625 L 26.96875 31.1875 L 27.1875 31.625 L 27.03125 31.96875 C 27.01555 32.225493 27 32.493217 27 32.75 C 27.129238 33.097878 27.252962 33.430872 27.375 33.78125 L 27.5 34.34375 L 27.5 34.59375 L 27.71875 34.59375 L 28.03125 34.40625 L 28.4375 34.40625 L 29.0625 33.75 L 29 33.5 L 29.40625 33.15625 L 29.125 32.8125 L 29.46875 32.53125 L 29.8125 32.3125 L 29.96875 32.125 L 29.875 31.75 L 29.875 30.78125 L 30.15625 30.1875 L 30.53125 29.78125 L 30.90625 28.90625 L 30.90625 28.65625 C 30.72151 28.67899 30.52443 28.67452 30.34375 28.6875 L 30.71875 28.3125 L 31.21875 28 L 31.53125 27.6875 L 31.53125 27.3125 C 31.468131 27.196134 31.4073 27.085118 31.34375 26.96875 L 31.0625 27.25 L 30.90625 27.0625 L 30.59375 26.84375 L 30.59375 26.375 L 30.9375 26.75 L 31.3125 26.6875 C 31.477702 26.834107 31.636353 26.989331 31.78125 27.15625 L 32 26.90625 C 32 26.628774 31.691004 25.252939 31 24.09375 C 30.308996 22.934944 29.093749 21.875 29.09375 21.875 L 29 22.03125 L 28.65625 22.375 L 28.28125 21.9375 L 28.65625 21.9375 L 28.875 21.71875 L 28.125 21.625 L 27.71875 21.46875 z M 18.90625 21.625 L 18.75 22.03125 C 18.75 22.03125 18.50331 22.07786 18.4375 22.09375 C 17.597108 22.850771 15.894493 24.477417 15.5 27.5625 C 15.515623 27.634031 15.78125 28.03125 15.78125 28.03125 L 16.4375 28.40625 L 17.09375 28.59375 L 17.34375 28.9375 L 17.78125 29.25 L 18.03125 29.1875 L 18.21875 29.28125 L 18.21875 29.34375 L 17.96875 29.96875 L 17.78125 30.25 L 17.84375 30.375 L 17.6875 30.875 L 18.25 31.875 L 18.8125 32.34375 L 19.03125 32.6875 L 19 33.40625 L 19.1875 33.8125 L 19 34.59375 C 19 34.59375 18.97655 34.57831 19 34.65625 C 19.023659 34.734242 20.00166 35.26295 20.0625 35.21875 C 20.123134 35.17373 20.1875 35.125 20.1875 35.125 L 20.125 34.96875 L 20.34375 34.71875 L 20.4375 34.46875 L 20.84375 34.34375 L 21.125 33.59375 L 21.0625 33.40625 L 21.28125 33.09375 L 21.75 32.96875 L 21.96875 32.4375 L 21.90625 31.78125 L 22.28125 31.25 L 22.34375 30.75 C 21.841309 30.506443 21.342443 30.282013 20.84375 30.03125 L 20.59375 29.53125 L 20.125 29.4375 L 19.875 28.78125 L 19.25 28.84375 L 18.75 28.46875 L 18.21875 28.96875 L 18.21875 29.03125 C 18.052026 28.984214 17.835951 28.99548 17.6875 28.90625 L 17.5625 28.53125 L 17.5625 28.15625 L 17.1875 28.21875 C 17.218154 27.981612 17.28164 27.737098 17.3125 27.5 L 17.09375 27.5 L 16.84375 27.78125 L 16.65625 27.875 L 16.34375 27.71875 L 16.3125 27.34375 L 16.375 26.90625 L 16.84375 26.59375 L 17.1875 26.59375 L 17.25 26.375 L 17.71875 26.46875 L 18.0625 26.90625 L 18.09375 26.21875 L 18.71875 25.75 L 18.90625 25.21875 L 19.34375 25.0625 L 19.5625 24.75 L 20.125 24.625 L 20.4375 24.21875 L 19.5625 24.21875 L 20.125 23.96875 L 20.46875 23.96875 L 20.96875 23.8125 L 21.0625 23.59375 L 20.875 23.4375 L 20.65625 23.375 L 20.71875 23.1875 L 20.5625 22.875 L 20.1875 23 L 20.28125 22.71875 L 19.8125 22.5 L 19.5 23.0625 L 19.53125 23.25 L 19.1875 23.40625 L 18.96875 23.84375 L 18.875 23.4375 L 18.3125 23.1875 L 18.21875 22.90625 L 18.96875 22.46875 L 19.3125 22.15625 L 19.34375 21.78125 L 19.15625 21.6875 L 18.90625 21.625 z M 25.15625 22.34375 L 25.15625 22.5625 L 25.3125 22.71875 L 25.3125 23.0625 L 25.25 23.5 L 25.625 23.40625 L 25.90625 23.1875 L 25.65625 22.9375 C 25.575497 22.727292 25.50732 22.545368 25.40625 22.34375 L 25.15625 22.34375 z M 24.78125 22.875 L 24.53125 22.9375 L 24.625 23.34375 L 24.9375 23.1875 L 24.78125 22.875 z M 29.15625 26.5625 L 29.5 26.96875 L 29.9375 27.84375 L 30.1875 28.125 L 30.0625 28.4375 L 30.28125 28.6875 C 30.170535 28.69484 30.082592 28.71875 29.96875 28.71875 C 29.76793 28.306246 29.621675 27.900298 29.46875 27.46875 L 29.21875 27.15625 L 29.0625 26.65625 L 29.15625 26.5625 z "
 />
</defs>
<acyl-settings>
<linearGradient
     id="linearGradient4321">
    <stop
       style="stop-color:#FFFFFF;stop-opacity:1.0;"
       offset="1.0"
       id="stop1" />
  </linearGradient>
<linearGradient
     inkscape:collect="always"
     xlink:href="#linearGradient4321"
     id="acyl_gradient"
     x1="50.0%"
     y1="0.0%"
     x2="50.0%"
     y2="100.0%" />
<filter>
    </filter>
<use id="1" style="fill:url(#acyl_gradient);filter:url(#filter1111)" xlink:href="#path-main" />
</acyl-settings>
</svg>
