/* XPM */
static char *browser[] = {
/* columns rows colors chars-per-pixel */
"24 24 113 2",
"   c #000000",
".  c #0A2846",
"X  c #43537A",
"o  c #5D5A79",
"O  c #A41D23",
"+  c #A0363B",
"@  c #E51C1C",
"#  c #ED1D1D",
"$  c #F21919",
"%  c #CD2C34",
"&  c #854A59",
"*  c #934B67",
"=  c #DE5446",
"-  c #D86B62",
";  c #1B5C99",
":  c #2D6191",
">  c #1C61A3",
",  c #1B66AC",
"<  c #1A6EBC",
"1  c #1E71BE",
"2  c #2869A4",
"3  c #2373BE",
"4  c #2875BB",
"5  c #3177B8",
"6  c #357ABA",
"7  c #406991",
"8  c #4D6F99",
"9  c #49749C",
"0  c #547796",
"q  c #5D7EAB",
"w  c #747EA4",
"e  c #2375C2",
"r  c #2B7BC5",
"t  c #2F7FC9",
"y  c #337DC2",
"u  c #8F7580",
"i  c #AF7A84",
"p  c #4380B7",
"a  c #4182BE",
"s  c #5086B9",
"d  c #6481A6",
"f  c #628ABF",
"g  c #7999B7",
"h  c #3B82C5",
"j  c #3481CA",
"k  c #3B86CC",
"l  c #3E89CE",
"z  c #3D89D0",
"x  c #4387C6",
"c  c #438BCE",
"v  c #528DC4",
"b  c #5891C4",
"n  c #458ED3",
"m  c #498FD1",
"M  c #4D92D3",
"N  c #4C95DA",
"B  c #5296D6",
"V  c #5C9BD5",
"C  c #5096D8",
"Z  c #549ADC",
"A  c #5B9DDC",
"S  c #6892C6",
"D  c #6B9BC7",
"F  c #6298CB",
"G  c #6B99CB",
"H  c #619FD9",
"J  c #5EA1DE",
"K  c #61A2DE",
"L  c #6AA4DD",
"P  c #6EA8DF",
"I  c #77A8D8",
"U  c #7BADDB",
"Y  c #569EE1",
"T  c #599FE0",
"R  c #5CA0E1",
"E  c #63A5E2",
"W  c #69A7E4",
"Q  c #6AA9E5",
"!  c #72ABE2",
"~  c #7CB1E4",
"^  c #7AB2E8",
"/  c #B1979C",
"(  c #8A98A5",
")  c #AAAFB4",
"_  c #B0B6BB",
"`  c #9EB0C2",
"'  c #A5B8CA",
"]  c #ACBFD2",
"[  c #83B5E4",
"{  c #88B7E4",
"}  c #8BB9E7",
"|  c #87B9E8",
" . c #8BBBE9",
".. c #92BCE6",
"X. c #BDC7D2",
"o. c #97C0E6",
"O. c #92C0EC",
"+. c #9BC4EC",
"@. c #AFCCE8",
"#. c #B6D2ED",
"$. c #BBD4EB",
"%. c #BCD6F0",
"&. c #BED8F0",
"*. c #CCD3D9",
"=. c #D9D9D9",
"-. c #D2D9E0",
";. c #C5DCF2",
":. c #CDE0F4",
">. c #E5E5E5",
",. c #F6F6F6",
"<. c #F6F9FD",
"1. c #FEFEFF",
"2. c None",
/* pixels */
"2.2.2.2.2.2.2.2.2.2.2.2.2.2.2.2.2.2.2.2.2.2.2.2.",
"2.2.2.2.2.2.2.2.2.2.2.2.2.2.2.2.2.2.2.2.2.2.2.2.",
"2.2.2.} O.O.O.O.O.O.+.+.+.O.O.O.O.O..... .2.2.2.",
"2.2.[ ! R R E R R R Q Q R Y Y R Y R R T W [ 2.2.",
"2.2. .R A R R R R Y Q ^ Q Y Z Z Y E E Z T  .2.2.",
"2.2.| E E R Z A Y Z R +.+.R N N A H S Z E | 2.2.",
"2.2.[ K J Z N K N N N ;.;.N N N S * s A J [ 2.2.",
"2.2.~ R K R Z W E N N <.<.N N w % 9 V K R ~ 2.2.",
"2.2.~ A J K K E ;. .&.1.1.$.i # o V V A V ^ 2.2.",
"2.2.P A A A J A [ 1.#.L G - $ & x Z Z Z B ! 2.2.",
"2.2.H A A A J n &.#.z q = $ + ' C n n A Z I 2.2.",
"2.2.B m Q ..;.<.1.H b / @ O d ,.<.;.@.L B K 2.2.",
"2.2.M j V o.;.<.1.F -.=.u X I 1.<.;.@.H B B 2.2.",
"2.2.n j y j k N $.*.>._ 7 5 &.;.A A N B c m 2.2.",
"2.2.k t t t j B ] >.) 9 v @.1.U n B B m t k 2.2.",
"2.2.y t t t r D >.( ` ,.1.#.I #.k M M l t t 2.2.",
"2.2.r r r r 6 X.0 p M <.<.r r r j M n t t y 2.2.",
"2.2.e e e 3 g : a n r $.$.e e e e z k e e e 2.2.",
"2.2.e e 3 2 ; 3 x r e U U e e 1 e e e e 1 e 2.2.",
"2.2.1 1 < , < r r 1 1 k x 1 1 1 1 1 1 1 1 e 2.2.",
"2.2.> < < < < e 1 < < < < < < < < < < < < > 2.2.",
"2.2.. 2 5 y y y h h x x x x h h y y y r 2 . 2.2.",
"2.2.2.2.                                2.2.2.2.",
"2.2.2.2.2.2.2.2.2.2.2.2.2.2.2.2.2.2.2.2.2.2.2.2."
};
