/* XPM */
static char *DC__[] = {
/* columns rows colors chars-per-pixel */
"24 24 166 2",
"   c #000000",
".  c #141414",
"X  c #1D1D1D",
"o  c #1E1E1E",
"O  c #2C2E18",
"+  c #3A3E15",
"@  c #2A2A22",
"#  c #2A2A2A",
"$  c #313131",
"%  c #373737",
"&  c #3C3C3C",
"*  c #3D3D3D",
"=  c #3E3E3E",
"-  c #3F3F3F",
";  c #3C401E",
":  c #5F6812",
">  c #646C19",
",  c #67701C",
"<  c #4D5030",
"1  c #5A6025",
"2  c #727A2E",
"3  c #72763B",
"4  c #404040",
"5  c #434343",
"6  c #494949",
"7  c #4A4A4A",
"8  c #4C4C4C",
"9  c #4E4E4E",
"0  c #4F4F4F",
"q  c #505050",
"w  c #535353",
"e  c #595959",
"r  c #5D5D5D",
"t  c #5E5E5E",
"y  c #5F5F5F",
"u  c #5F6055",
"i  c #737940",
"p  c #757940",
"a  c #747A41",
"s  c #787E45",
"d  c #797F46",
"f  c #636363",
"g  c #696969",
"h  c #6E6E6E",
"j  c #6F6F6F",
"k  c #707070",
"l  c #727272",
"z  c #777777",
"x  c #7A7A7A",
"c  c #7D7D7D",
"v  c #7E7E7E",
"b  c #77802A",
"n  c #77802C",
"m  c #79802C",
"M  c #7B822E",
"N  c #7F8532",
"B  c #7D8632",
"V  c #7E844B",
"C  c #8D9C0A",
"Z  c #92A10A",
"A  c #97A514",
"S  c #9BA912",
"D  c #A4B01B",
"F  c #AAB51F",
"G  c #ABB61F",
"H  c #818734",
"J  c #A8B42D",
"K  c #B3BD2A",
"L  c #A2A938",
"P  c #B6C02B",
"I  c #B9C22B",
"U  c #BCC43F",
"Y  c #C2C932",
"T  c #C7CD36",
"R  c #8B9347",
"E  c #8C9259",
"W  c #838664",
"Q  c #8C8F6D",
"!  c #929675",
"~  c #92967B",
"^  c #999D7C",
"/  c #BCC550",
"(  c #C0C840",
")  c #D4D942",
"_  c #D1D549",
"`  c #C1C954",
"'  c #CFD453",
"]  c #E0E34E",
"[  c #DADD69",
"{  c #C1CA74",
"}  c #C2CB77",
"|  c #C6CE7C",
" . c #C8D07E",
".. c #DDE16B",
"X. c #808080",
"o. c #828282",
"O. c #8F8F8F",
"+. c #9E9E93",
"@. c #9D9D9D",
"#. c #9F9F9F",
"$. c #A2A685",
"%. c #ACB08F",
"&. c #BBBF9E",
"*. c #A5A5A5",
"=. c #A7A7A7",
"-. c #ABABA0",
";. c #AAAAAA",
":. c #B1B1B1",
">. c #B3B3B3",
",. c #B8B8B8",
"<. c #BCBCBC",
"1. c #BDBDBD",
"2. c #C9D187",
"3. c #DCE1B1",
"4. c #DEE2B4",
"5. c #C5C5C5",
"6. c #C6C6C6",
"7. c #C8C8C8",
"8. c #CACACA",
"9. c #CCCCCC",
"0. c #CECECE",
"q. c #CFCFCF",
"w. c #D0D0D0",
"e. c #D1D1D1",
"r. c #D2D2D2",
"t. c #D3D3D3",
"y. c #D4D4D4",
"u. c #D5D5D5",
"i. c #D6D6D6",
"p. c #D7D7D7",
"a. c #DCDCD2",
"s. c #DDDDD3",
"d. c #D8D8D8",
"f. c #D9D9D9",
"g. c #DADADA",
"h. c #DBDBDB",
"j. c #DCDCDC",
"k. c #DDDDDD",
"l. c #DEDEDE",
"z. c #DFDFDF",
"x. c #E0E0E0",
"c. c #E1E1E1",
"v. c #E2E2E2",
"b. c #E3E3E3",
"n. c #E7E7E7",
"m. c #E8E8E8",
"M. c #EAEAEA",
"N. c #EBEBEB",
"B. c #ECECEC",
"V. c #EEEEEE",
"C. c #F0F0F0",
"Z. c #F1F1F1",
"A. c #F2F2F2",
"S. c #F3F3F3",
"D. c #F4F4F4",
"F. c #F5F5F5",
"G. c #F6F6F6",
"H. c #F7F7F7",
"J. c #F8F8F8",
"K. c #F9F9F9",
"L. c #FAFAFA",
"P. c #FBFBFB",
"I. c #FCFCFC",
"U. c #FDFDFD",
"Y. c #FFFFFF",
"T. c None",
/* pixels */
"T.T.T.T.T.T.T.T.T.T.T.T.T.T.T.T.T.T.T.T.T.T.T.T.",
"T.T.T.T.T.T.T.T.T.T.T.T.T.T.T.T.T.T.T.T.T.T.T.T.",
"T.T.T.U.U.U.U.U.U.U.U.U.U.U.U.U.U.U.U.U.U.T.T.T.",
"T.T.L.L.L.F.&.E E &.F.L.L.L.L.L.L.L.L.F.L.L.T.T.",
"T.T.U.F.a.R } 3.3.} R a.F.L.F.F.F.L.F.F.F.U.T.T.",
"T.T.U.B.B 2.3.3.3.3.2.B B.S.*.t e *.S.S.S.U.T.T.",
"T.T.L.%.A } |  . .| } A ~ 0 h *.*.h 0 w.S.L.T.T.",
"T.T.F.V Z J / ` ` / J C @ v *.*.*.*.o.& n.L.T.T.",
"T.T.S.s S G I Y Y I J : X l z x x z k o O.F.T.T.",
"T.T.C.^ D P T ) ) T K + . $ e t t e % . 0 S.T.T.",
"T.T.S.8.M T _ ] ] _ / O o $ < 6 7 5 $ o 6 N.T.T.",
"T.T.B.x.=.N ' ..[ L > : $ = 0 r t w & # x N.T.T.",
"T.T.N.c.g.<.Q 3 2 } 4.4.{ 2 u j h f w & 6.N.T.T.",
"T.T.N.c.c.z.w.m 2.3.3.3.3.2., v o.g 5 @.g.N.T.T.",
"T.T.c.l.x.c.$.S {  . . . .} S < 7 k ,.y.l.c.T.T.",
"T.T.l.l.l.j.s Z J / ` ` / J Z 3 8.w.l.l.l.l.T.T.",
"T.T.g.g.l.g.i S K K Y T I G S s g.l.l.j.g.l.T.T.",
"T.T.y.g.g.y.! D K T T ) T I D ! g.g.g.g.y.y.T.T.",
"T.T.y.y.y.g.1.M ( _ ] ] _ T 2 1.y.g.g.p.y.y.T.T.",
"T.T.w.w.w.w.0.+.B ' ....' H +.w.y.y.y.w.w.w.T.T.",
"T.T.>.0.w.w.w.6.;.W p p W ;.6.0.w.w.w.w.w.>.T.T.",
"T.T.0 >.y.y.y.g.y.0.6.6.0.y.g.g.g.y.y.w.>.0 T.T.",
"T.T.T.T.                                T.T.T.T.",
"T.T.T.T.T.T.T.T.T.T.T.T.T.T.T.T.T.T.T.T.T.T.T.T."
};
