/* XPM */
static char *gcolor_[] = {
/* columns rows colors chars-per-pixel */
"24 24 197 2",
"   c #000000",
".  c #191819",
"X  c #3F3D0D",
"o  c #3C373B",
"O  c #3D393C",
"+  c #79110B",
"@  c #6E1B15",
"#  c #741311",
"$  c #7B1313",
"%  c #7D1A11",
"&  c #7F1918",
"*  c #642F32",
"=  c #6F3835",
"-  c #6E3E39",
";  c #2A550C",
":  c #2A580C",
">  c #2D5612",
",  c #2F5A12",
"<  c #305B14",
"1  c #336314",
"2  c #3A691C",
"3  c #3C4E2F",
"4  c #395524",
"5  c #385824",
"6  c #3F613D",
"7  c #47573D",
"8  c #4B5E3C",
"9  c #55583F",
"0  c #604B3F",
"q  c #454644",
"w  c #4C4245",
"e  c #474C43",
"r  c #494C47",
"t  c #4B464A",
"y  c #4D4B4D",
"u  c #544344",
"i  c #5B4442",
"p  c #544748",
"a  c #534B4E",
"s  c #5C4D4D",
"d  c #4A5343",
"f  c #4C5A41",
"g  c #4D524A",
"h  c #52574F",
"j  c #525A4C",
"k  c #4E4A51",
"l  c #524D54",
"z  c #525352",
"x  c #5E5253",
"c  c #565159",
"v  c #5B565E",
"b  c #624440",
"n  c #674D47",
"m  c #694D46",
"M  c #624C4A",
"N  c #65504F",
"B  c #6C534E",
"V  c #655150",
"C  c #6A5452",
"Z  c #6E5A51",
"A  c #526546",
"S  c #55624D",
"D  c #59674F",
"F  c #596A4C",
"G  c #596450",
"H  c #5C6A50",
"J  c #646651",
"K  c #5F5A62",
"L  c #615C65",
"P  c #4B6471",
"I  c #46687B",
"U  c #5E6A76",
"Y  c #656068",
"T  c #6A656D",
"R  c #656A75",
"E  c #6F6972",
"W  c #656D78",
"Q  c #726D76",
"!  c #746E79",
"~  c #75717B",
"^  c #79747E",
"/  c #831A1A",
"(  c #802418",
")  c #92371C",
"_  c #B73716",
"`  c #BB3217",
"'  c #B33B17",
"]  c #BB3318",
"[  c #B63D1A",
"{  c #BA3A1A",
"}  c #84282C",
"|  c #A23F20",
" . c #C8351E",
".. c #C1381D",
"X. c #CF3C25",
"o. c #D93326",
"O. c #D53927",
"+. c #DC372E",
"@. c #D63A28",
"#. c #B4451E",
"$. c #B9411D",
"%. c #AE4321",
"&. c #B64720",
"*. c #BD4726",
"=. c #B54D21",
"-. c #B84F23",
";. c #CB4227",
":. c #C94829",
">. c #D3412B",
",. c #D2492F",
"<. c #D34E34",
"1. c #D84F39",
"2. c #897E41",
"3. c #8F7E4A",
"4. c #DD4B40",
"5. c #DB5343",
"6. c #DC5748",
"7. c #DD5C4D",
"8. c #E16359",
"9. c #E56B62",
"0. c #E76F6C",
"q. c #E57069",
"w. c #EB7575",
"e. c #E87B76",
"r. c #EB7D7C",
"t. c #4F872A",
"y. c #558E33",
"u. c #54A42C",
"i. c #5CA333",
"p. c #57AB32",
"a. c #5DA934",
"s. c #5CB137",
"d. c #55BA36",
"f. c #58BA37",
"g. c #5DB63A",
"h. c #5ABB3B",
"j. c #61A536",
"k. c #60A837",
"l. c #63AC39",
"z. c #63B53E",
"x. c #5BBF40",
"c. c #5CC145",
"v. c #62C44B",
"b. c #66C651",
"n. c #69C653",
"m. c #65C853",
"M. c #6CCA5A",
"N. c #938151",
"B. c #988557",
"V. c #9B885C",
"C. c #9F8C63",
"Z. c #B09C75",
"A. c #81D072",
"S. c #3B7EA1",
"D. c #426F87",
"F. c #46748D",
"G. c #7D7881",
"H. c #817C85",
"J. c #398EBD",
"K. c #5D9595",
"L. c #4384A5",
"P. c #4A85A1",
"I. c #6797BD",
"U. c #1C8CC9",
"Y. c #379ACF",
"T. c #2E9AD3",
"R. c #3099D1",
"E. c #51A7D6",
"W. c #5AAAD5",
"Q. c #5FAED9",
"!. c #61A0C2",
"~. c #61A8CF",
"^. c #72A6C9",
"/. c #64B3DC",
"(. c #7DBDD6",
"). c #6BB7E0",
"_. c #6BB8E0",
"`. c #71BAE1",
"'. c #86818A",
"]. c #89848D",
"[. c #8E8891",
"{. c #928E96",
"}. c #B9A583",
"|. c #BFAB8A",
" X c #AEA2B3",
".X c #B2AABB",
"XX c #EC8383",
"oX c #E1878A",
"OX c #ED8D8B",
"+X c #C5B296",
"@X c #CE9DA4",
"#X c #94CF91",
"$X c #9ED1A5",
"%X c #9BCBB9",
"&X c #D3C5B2",
"*X c #91C4C0",
"=X c None",
/* pixels */
"=X=X=X=X=X=X=X=X=X=X=X=X=X=X=X=X=X=X=X=X=X=X=X=X",
"=X=X=X=X=X=X=X=X=X=X=X=X=X=X=X=X=X=X=X=X=X=X=X=X",
"=X=X=X[.{.{.{.{.{.{.{.{.{.{.{.{.{.{.{.{.[.=X=X=X",
"=X=X'.G.~ ~ ^ ^ G.^ ^ G.^ ^ G.^ ~ G.~ ~ G.].=X=X",
"=X=X].! ~ ^ ^ G.W P F.L.P.F.I P U ~ ~ ~ ! ].=X=X",
"=X=XH.Q R P D.S.J.R.T.T.).`.)./.~.!.K.6 Q '.=X=X",
"=X=XH.Q } @X.X^.R.U.U.U.E.W.Q.(.%X#Xm., Q H.=X=X",
"=X=XG.E / XXr.w.oX@X XI.W.*X$XA.M.M.c., E G.=X=X",
"=X=X^ T / r.OXOXOXXX0.9.&Xn.v.v.v.b.x., T ^ =X=X",
"=X=XQ T / q.e.e.e.r.w.+.+Xh.x.c.c.v.x., T Q =X=X",
"=X=XQ Y / 8.9.9.9.9.1.o.|.d.d.h.x.x.x., Y E =X=X",
"=X=XT L / 6.7.7.7.5.@.@.}.f.f.d.f.h.h., Y T =X=X",
"=X=XY K / 1.1.1.1.>.O. .Z.f.g.g.g.g.g., K Y =X=X",
"=X=XL v & ,.:.,.;...` ` C.u.p.s.z.z.z., c K =X=X",
"=X=Xv v & <.:.[ _ _ { { V.u.i.p.a.l.z.; k l =X=X",
"=X=Xc c # :.' ' ' [ [ $.B.i.i.k.l.y.> 3 t z =X=X",
"=X=Xl l * # ( %.#.%.#.=.N.j.j.k.2 > 7 h z a =X=X",
"=X=Xy l x C = # % %.=.#.3.k.t.; 5 A H S h h =X=X",
"=X=Xt p s M B B = $ + ) 2.1 ; 8 F F S j g r =X=X",
"=X=Xw w p s M M m m 0 @ X 4 A A S j j d e r =X=X",
"=X=Xo w w u u i i b b b f f f f d d e r q o =X=X",
"=X=X. O a a s s C B C Z J H G G j z g y O . =X=X",
"=X=X=X=X                                =X=X=X=X",
"=X=X=X=X=X=X=X=X=X=X=X=X=X=X=X=X=X=X=X=X=X=X=X=X"
};
