/* XPM */
static char *gnome_activity_journal[] = {
/* columns rows colors chars-per-pixel */
"24 24 241 2",
"   c #000000",
".  c #10323F",
"X  c #267590",
"o  c #2E7991",
"O  c #2C7892",
"+  c #2D7B95",
"@  c #2D7C96",
"#  c #2F819D",
"$  c #2E839F",
"%  c #2C8AA9",
"&  c #2D8AA9",
"*  c #2F8DAB",
"=  c #2E8DAD",
"-  c #2F8FAF",
";  c #3289A6",
":  c #3E89A2",
">  c #3B8BA6",
",  c #308BAA",
"<  c #318CAB",
"1  c #338CAA",
"2  c #328DAB",
"3  c #338DAB",
"4  c #3390AF",
"5  c #3590AD",
"6  c #3A93AF",
"7  c #3F92AE",
"8  c #3493B2",
"9  c #3793B2",
"0  c #3D95B1",
"q  c #3F94B0",
"w  c #3F95B1",
"e  c #3C95B2",
"r  c #3A96B4",
"t  c #3997B6",
"y  c #3B98B7",
"u  c #3C9AB9",
"i  c #3E9BBB",
"p  c #3F9CBA",
"a  c #3E9CBC",
"s  c #3F9DBD",
"d  c #3F9EBE",
"f  c #4C889B",
"g  c #548EA2",
"h  c #4194AF",
"j  c #5297AD",
"k  c #5C9AAF",
"l  c #4495B0",
"z  c #4897B1",
"x  c #4098B5",
"c  c #4399B5",
"v  c #479AB5",
"b  c #469AB6",
"n  c #479BB7",
"m  c #4898B2",
"M  c #4B99B2",
"N  c #4B9AB3",
"B  c #4E9AB3",
"V  c #489BB7",
"C  c #4A9BB6",
"Z  c #4E9BB4",
"A  c #4E9DB7",
"S  c #439BB8",
"D  c #479CB8",
"F  c #449DBA",
"G  c #459EBB",
"H  c #469FBC",
"J  c #4A9EB9",
"K  c #4B9EB9",
"L  c #4B9EBA",
"P  c #4B9FBB",
"I  c #4C9EB9",
"U  c #4E9FBB",
"Y  c #579AB0",
"T  c #519DB5",
"R  c #579CB4",
"E  c #549FB7",
"W  c #6195A6",
"Q  c #6F9EAD",
"!  c #45A0BE",
"~  c #4FA0BB",
"^  c #49A0BD",
"/  c #4BA0BC",
"(  c #48A1BF",
")  c #4CA0BC",
"_  c #50A2BF",
"`  c #60A7BF",
"'  c #6CA7BB",
"]  c #70A1B1",
"[  c #75A2B2",
"{  c #79A5B4",
"}  c #77A7B8",
"|  c #42A0C0",
" . c #43A1C1",
".. c #43A2C2",
"X. c #45A3C4",
"o. c #45A4C5",
"O. c #49A2C0",
"+. c #4AA3C1",
"@. c #4CA6C4",
"#. c #47A8C7",
"$. c #48AACA",
"%. c #4DA8C8",
"&. c #4FABCA",
"*. c #49ABCC",
"=. c #48ACCD",
"-. c #48ADCF",
";. c #4EAECF",
":. c #52A7C2",
">. c #52A6C3",
",. c #53A7C3",
"<. c #54A6C3",
"1. c #50A7C5",
"2. c #54A8C3",
"3. c #53A8C4",
"4. c #54A8C4",
"5. c #55A9C6",
"6. c #55AAC7",
"7. c #55ABC8",
"8. c #56ABC8",
"9. c #56ACC9",
"0. c #57ACCA",
"q. c #57ADCB",
"w. c #50ADCC",
"e. c #50AECE",
"r. c #59AFCB",
"t. c #59AFCC",
"y. c #59AFCD",
"u. c #5AAECC",
"i. c #57B0CE",
"p. c #59B0CD",
"a. c #5AB0CD",
"s. c #58B1CE",
"d. c #5AB0CF",
"f. c #5AB2CF",
"g. c #5DB1CD",
"h. c #4CAED0",
"j. c #4AB0D1",
"k. c #4FB1D1",
"l. c #4DB1D2",
"z. c #4EB1D2",
"x. c #4FB2D2",
"c. c #50B0D2",
"v. c #53B2D2",
"b. c #57B1D0",
"n. c #55B2D1",
"m. c #55B2D3",
"M. c #56B2D3",
"N. c #56B5D4",
"B. c #58B3D2",
"V. c #5DB3D0",
"C. c #5FB4D1",
"Z. c #60B1CD",
"A. c #60B3CF",
"S. c #64B3CE",
"D. c #6FB5CD",
"F. c #7DBACF",
"G. c #64B6D3",
"H. c #61B7D5",
"J. c #66B8D3",
"K. c #69BAD5",
"L. c #6ABBD5",
"P. c #6DBCD6",
"I. c #6EBDD7",
"U. c #70BBD4",
"Y. c #72BFDA",
"T. c #75C1DA",
"R. c #7CC6E0",
"E. c #7DC7E0",
"W. c #80ADBB",
"Q. c #85AFBC",
"!. c #80BBCF",
"~. c #99B7C1",
"^. c #9FBAC3",
"/. c #95BBC8",
"(. c #96BECA",
"). c #93BFCE",
"_. c #80BDD3",
"`. c #83BED3",
"'. c #97C1CF",
"]. c #89C0D2",
"[. c #8EC3D4",
"{. c #86C5D9",
"}. c #8BC8DC",
"|. c #A4CFDD",
" X c #A4CFDE",
".X c #ABCDD9",
"XX c #B7CCD3",
"oX c #B3CCD4",
"OX c #B6CED6",
"+X c #B9CDD3",
"@X c #BBCFD5",
"#X c #BFD1D6",
"$X c #B6D0D9",
"%X c #BBD2D9",
"&X c #BDD2D8",
"*X c #BCD4DB",
"=X c #BFD4DB",
"-X c #96CFE3",
";X c #A5D5E6",
":X c #A9D5E3",
">X c #B2D5E1",
",X c #C2D4DA",
"<X c #CAD8DD",
"1X c #CADADF",
"2X c #CBDADF",
"3X c #C9DEE5",
"4X c #D0DEE3",
"5X c #C5E2EB",
"6X c #C8E0E8",
"7X c #CBE1E8",
"8X c #CCE2E9",
"9X c #D1E6ED",
"0X c #D6E7EC",
"qX c #DAE5E9",
"wX c #D9E5EA",
"eX c #DDE7EA",
"rX c #DCE8EC",
"tX c #DBEAF0",
"yX c #DCECF1",
"uX c #E2EBED",
"iX c #E2EBEF",
"pX c #E5ECEE",
"aX c #E2EDF1",
"sX c #ECF1F3",
"dX c #E9F2F5",
"fX c #E9F2F6",
"gX c #EDF2F4",
"hX c #EFF5F6",
"jX c #F0F4F5",
"kX c #F2F6F8",
"lX c #F5F8F9",
"zX c #F5F9FB",
"xX c #F7F9FA",
"cX c #FBFCFC",
"vX c #FCFDFD",
"bX c #FDFDFD",
"nX c #FDFDFE",
"mX c #FDFEFE",
"MX c #FEFEFF",
"NX c #FFFFFF",
"BX c None",
/* pixels */
"BXBXBXBXBXBXBXBXBXBXBXBXBXBXBXBXBXBXBXBXBXBXBXBX",
"BXBXBXBXBXBXBXBXBXBXBXBXBXBXBXBXBXBXBXBXBXBXBXBX",
"BXBXBXT.E.E.{.T.E.E.E.E.E.E.E.E.E.E.R.R.T.BXBXBX",
"BXBXU.N.j.x.x.k.x.x.x.x.x.x.x.x.k.k.k.j.N.U.BXBX",
"BXBXY.=.h.c.m.m.m.-X5XfXzXyX;XH.M.m.k.h.=.Y.BXBX",
"BXBXI.=.;.m.m.I.9XNXNX2X~.~.3XfXK.N.m.;.=.I.BXBX",
"BXBXK.*.e.i.C.aXNXlX{ U y.y._ [ rXK.B.e.=.K.BXBX",
"BXBXG.$.e.i.>XNXNXQ.r.f.V.:Xf.r.} rX}.f.$.G.BXBX",
"BXBXS.#.&.g.cXNXuX<.y.y.{.(.f.r.3.eXNX6X#.S.BXBX",
"BXBXy.o.&.F.NXNX%X0.y.g.NXcXS.0.0.OXNXwXo.y.BXBX",
"BXBX8...@..XNXNX*X8.0.3.XX#X,.0.8.$XNX} | 8.BXBX",
"BXBX@.| D.vXNXNXuX5.8.5.A 3XF.5.3.rX#X^ | @.BXBX",
"BXBX+.s '.NXNXNXNX[.3.>.:.] '.>.].NX/.+.G +.BXBX",
"BXBX! i T fXNXNXNXkX`.:.:.) R F.gXNX' ! s ! BXBX",
"BXBXp i F f 4XNXNXNXNX8X X X8XNXNX,XK H u a BXBX",
"BXBXt t F ) *XNXNXNXNXNXNXNXNXNXNXk ^ F t t BXBX",
"BXBX8 t F K oXNXNXNXNXNXNXNXNXlXQ U ^ c t 8 BXBX",
"BXBX= 9 x V wXNXNXNXNXNXNXNXjXW V K v c 8 4 BXBX",
"BXBX= 4 e ` NXNXNXNXNXNXNX+Xg V V v c e 4 = BXBX",
"BXBX% * 3 j #XpXlXsX<X^.f > 7 e h e 6 5 * % BXBX",
"BXBXX % % , $ @ o + # ; 3 3 3 3 3 , , % % X BXBX",
"BXBX. o h h l z N N T E E T Z N m h h h o . BXBX",
"BXBXBXBX                                BXBXBXBX",
"BXBXBXBXBXBXBXBXBXBXBXBXBXBXBXBXBXBXBXBXBXBXBXBX"
};
