/* XPM */
static char *gtk_recordmydesktop[] = {
/* columns rows colors chars-per-pixel */
"24 24 134 2",
"   c #000000",
".  c #424B10",
"X  c #69791D",
"o  c #6B7B21",
"O  c #73851A",
"+  c #76891D",
"@  c #728327",
"#  c #778924",
"$  c #798D22",
"%  c #77882F",
"&  c #788A2F",
"*  c #7C9127",
"=  c #7E942A",
"-  c #748B32",
";  c #798E37",
":  c #778F38",
">  c #788F39",
",  c #7B9235",
"<  c #7A913B",
"1  c #7D9540",
"2  c #80942E",
"3  c #80992E",
"4  c #829533",
"5  c #849D31",
"6  c #8A9D36",
"7  c #849639",
"8  c #859B3C",
"9  c #889C3B",
"0  c #95AB27",
"q  c #85A036",
"w  c #8EA234",
"e  c #86A239",
"r  c #8AA43A",
"t  c #8AA83D",
"y  c #9AAF30",
"u  c #90A03C",
"i  c #94AA3B",
"p  c #9AAF3B",
"a  c #ADC72D",
"s  c #AEC82F",
"d  c #ACC731",
"f  c #AFC932",
"g  c #AEC83C",
"h  c #B0CA36",
"j  c #B2CB3E",
"k  c #839B47",
"l  c #889C44",
"z  c #849C49",
"x  c #899F4C",
"c  c #919F42",
"v  c #8EA244",
"b  c #94AA44",
"n  c #98AD44",
"m  c #92A54A",
"M  c #96A849",
"N  c #99AD4D",
"B  c #9FB444",
"V  c #9DB44A",
"C  c #8DA551",
"Z  c #90A551",
"A  c #96AB54",
"S  c #99AE57",
"D  c #99AC5C",
"F  c #99B152",
"G  c #9DB35C",
"H  c #A3B84D",
"J  c #A0AF56",
"K  c #A4B653",
"L  c #A5BB54",
"P  c #A7B65B",
"I  c #A8B65E",
"U  c #A5BA5C",
"Y  c #A8BC5D",
"T  c #9FB16C",
"R  c #A0B461",
"E  c #A5BC61",
"W  c #ACBE64",
"Q  c #A0B168",
"!  c #A4B868",
"~  c #ADBF73",
"^  c #AFC944",
"/  c #ACC14F",
"(  c #AFC94D",
")  c #B4CC43",
"_  c #B8CE46",
"`  c #B4CC4C",
"'  c #B8CF4A",
"]  c #BAD04C",
"[  c #AFC953",
"{  c #AEC45C",
"}  c #B1C755",
"|  c #B6CD52",
" . c #B8CE56",
".. c #B1C65C",
"X. c #B4CC5C",
"o. c #B8CE5B",
"O. c #BCD254",
"+. c #BFD458",
"@. c #ACC464",
"#. c #AFC865",
"$. c #ACC56A",
"%. c #AFC86A",
"&. c #B4C366",
"*. c #B6CC64",
"=. c #B8CE63",
"-. c #B1CA6C",
";. c #B9CE6B",
":. c #BCD162",
">. c #BCD16B",
",. c #B1C570",
"<. c #B6CC73",
"1. c #B9CF72",
"2. c #B5C778",
"3. c #B5CA7A",
"4. c #BACB7C",
"5. c #BCD172",
"6. c #BED27E",
"7. c #C1D55D",
"8. c #C2D663",
"9. c #C2D473",
"0. c #C7D976",
"q. c #C4D57C",
"w. c #C8D978",
"e. c #BBCE84",
"r. c #BACB88",
"t. c #BFD18B",
"y. c #C1D483",
"u. c #C2D58B",
"i. c #C8D98E",
"p. c #C1D295",
"a. c #C6D994",
"s. c #C6D69B",
"d. c #CCDDA3",
"f. c None",
/* pixels */
"f.f.f.f.f.f.f.f.f.f.f.f.f.f.f.f.f.f.f.f.f.f.f.f.",
"f.f.f.f.f.f.f.f.f.f.f.f.f.f.f.f.f.f.f.f.f.f.f.f.",
"f.f.f.s.d.d.d.d.d.d.d.d.d.d.d.d.d.d.d.d.s.f.f.f.",
"f.f.p.3.%.%.%.%.<.$.C z 1 > > 1 k C E %.3.p.f.f.",
"f.f.a.#.%.-.<.<.C > e t t v t t t e , k #.a.f.f.",
"f.f.i.#.-.-.W < G e.t.p.e.3.F t t t e e < r.f.f.",
"f.f.u.#.-.-.C t.4.S G -.1.<.t.3.t q e e e T f.f.",
"f.f.y.X.*.F ~ - > A C - < @.;.>.y.e q q e ! f.f.",
"f.f.6.X.F Q 8 4.a.6.q.i.2., U ;.;.,.q q q G f.f.",
"f.f.5...U 4 e.;.U v U >.>.3., *.=.5.b , 3 G f.f.",
"f.f.>.[ G U =.l D 4.D l =.;.N L *.=.V = 3 A f.f.",
"f.f.*.[ n { ..l >.*.>.v { *.K V *.*.{ = 3 m f.f.",
"f.f.o.[ i V =.9 X.=.o.8 =.=.b H =.=.V * = v f.f.",
"f.f.| ( H 6 o.W % 7 & &.o.o.2 ..o.o.i * * 9 f.f.",
"f.f.( ^ o.4 n :.y.4.y.:. .9 M :. . .2 * $ 4 f.f.",
"f.f.^ ^ ` *.# 4 }  . ./ & 4 >. . .r + + + 2 f.f.",
"f.f.g g ` | 5.K o o X o W 9._ ' B o 2 O + 2 f.f.",
"f.f.g g ) ` | ..9.q.q.0. .| 7.2 X + O O 6 o.f.f.",
"f.f.f f j ) ` | K 2 w p 6 # X X + O O P O.d f.f.",
"f.f.a d h j j j ) 8.I c 4 + O u P ..8.) d a f.f.",
"f.f.0 s a d s h h h s h ' 7.8.' h h s a s 0 f.f.",
"f.f.. y _ ' ] O.7.7.7.8.8.8.7.7.O.] ] _ y . f.f.",
"f.f.f.f.                                f.f.f.f.",
"f.f.f.f.f.f.f.f.f.f.f.f.f.f.f.f.f.f.f.f.f.f.f.f."
};
