/* XPM */
static char *opera[] = {
/* columns rows colors chars-per-pixel */
"24 24 176 2",
"   c #000000",
".  c #2F0202",
"X  c #300202",
"o  c #6F0705",
"O  c #6F0E0E",
"+  c #651210",
"@  c #7F2F2C",
"#  c #684947",
"$  c #6A4D4C",
"%  c #850707",
"&  c #820807",
"*  c #850D0B",
"=  c #8C0B0B",
"-  c #910C0C",
";  c #8B100E",
":  c #811714",
">  c #8C1512",
",  c #891A1A",
"<  c #951412",
"1  c #9A1211",
"2  c #911A16",
"3  c #991D1A",
"4  c #A01716",
"5  c #A31816",
"6  c #A51E1C",
"7  c #AB1C1A",
"8  c #B01E1C",
"9  c #8D201B",
"0  c #9B221E",
"q  c #A5211E",
"w  c #8B2322",
"e  c #802F2D",
"r  c #8E2D29",
"t  c #902727",
"y  c #9B2521",
"u  c #912C2C",
"i  c #992B28",
"p  c #9C302D",
"a  c #863634",
"s  c #953232",
"d  c #A22623",
"f  c #AD2423",
"g  c #A52924",
"h  c #AB2A25",
"j  c #AD2E29",
"k  c #B02421",
"l  c #B42D29",
"z  c #A1332E",
"x  c #A8302B",
"c  c #B1322D",
"v  c #BB312C",
"b  c #A43330",
"n  c #B63735",
"m  c #B93333",
"M  c #B33935",
"N  c #BB3835",
"B  c #BB3B38",
"V  c #C2342F",
"C  c #C73632",
"Z  c #CC3833",
"A  c #C13E39",
"S  c #DD3633",
"D  c #D23A35",
"F  c #DD3936",
"G  c #DD3D3B",
"H  c #E02C2B",
"J  c #E1312F",
"K  c #E13331",
"L  c #E23B3A",
"P  c #AB413D",
"I  c #B2403D",
"U  c #C5443F",
"Y  c #DE413D",
"T  c #965D5A",
"R  c #A14A45",
"E  c #AC4C49",
"W  c #B84F4A",
"Q  c #B3524E",
"!  c #BD534E",
"~  c #A95D5A",
"^  c #BE5451",
"/  c #B45854",
"(  c #BA5A55",
")  c #B5615D",
"_  c #BC605C",
"`  c #8B7B7B",
"'  c #907473",
"]  c #927C7B",
"[  c #AD6260",
"{  c #A66F6D",
"}  c #AF7573",
"|  c #B47471",
" . c #B77876",
".. c #B07D7B",
"X. c #BA7D7B",
"o. c #C44242",
"O. c #C94341",
"+. c #C34E4C",
"@. c #D94743",
"#. c #DA4947",
"$. c #D94D4B",
"%. c #DD514E",
"&. c #CC5654",
"*. c #C55855",
"=. c #C85C57",
"-. c #CC5B58",
";. c #D45452",
":. c #DE5651",
">. c #DC5957",
",. c #D25D5B",
"<. c #DB5E5B",
"1. c #E34443",
"2. c #E14947",
"3. c #E04C49",
"4. c #E1514E",
"5. c #E65553",
"6. c #E15C5A",
"7. c #C3615E",
"8. c #DE615D",
"9. c #E5625F",
"0. c #CE6361",
"q. c #C66863",
"w. c #CE6865",
"e. c #C36D68",
"r. c #CC6E69",
"t. c #D56664",
"y. c #DD6560",
"u. c #D16865",
"i. c #DC6A65",
"p. c #DB6A69",
"a. c #CF726D",
"s. c #D8736E",
"d. c #CB7C77",
"f. c #D47570",
"g. c #E46565",
"h. c #EC6767",
"j. c #EC6867",
"k. c #EC6969",
"l. c #E4726F",
"z. c #E47571",
"x. c #EE7575",
"c. c #EE7A7A",
"v. c #C3807D",
"b. c #8E8282",
"n. c #9E9191",
"m. c #A58B8A",
"M. c #BA8A86",
"N. c #B4908F",
"B. c #AB9897",
"V. c #B89D9C",
"C. c #B3A4A3",
"Z. c #BBACAA",
"A. c #BDB3B2",
"S. c #CC8986",
"D. c #DF8582",
"F. c #D79590",
"G. c #E19E9C",
"H. c #CBA8A7",
"J. c #CDAEAC",
"K. c #DAA7A5",
"L. c #DCAFAD",
"P. c #C0B8B8",
"I. c #CBBABA",
"U. c #E2A5A3",
"Y. c #E9BBB9",
"T. c #CCC2C2",
"R. c #DEDDDD",
"E. c #EBC4C3",
"W. c #E0DEDD",
"Q. c #E5E5E5",
"!. c #ECECEC",
"~. c #F0E2E1",
"^. c #F0EFEF",
"/. c #F3F3F3",
"(. c #F9F9F9",
"). c None",
/* pixels */
").).).).).).).).).).).).).).).).).).).).).).).).",
").).).).).).).).).).).).).).).).).).).).).).).).",
").).).g.h.k.k.k.h.x.c.c.x.k.h.h.h.j.h.h.g.).).).",
").).6.1.K K 1.1.K L 5.5.2.J J J J J K H L 6.).).",
").).g.G G 2.Y 3.2.L 9.6.L F S S S 5.$.L G g.).).",
").).g.#.%.:.G $.Y z.E.~.~.Y.l.F %.6.6.#.#.g.).).",
").).p.$.>.#.D i.K.(.] e @ ' (.G.y.#.<.>.$.p.).).",
").).p.;.<.t.:.L.(.Z.C D Z C C.(.K.y.p.<.;.p.).).",
").).y.;.8.s.v.^./...Z Z Z Z } /.^.D.p.,.;.t.).).",
").).7.-.i.s.L././.[ C C C C | /./.H.8.&.O.u.).).",
").).U -.w.f.T././.E V C V V ) /.^.I.U u.-.u.).).",
").).V I w.U W.^.^.M v v v U S.^.!.W.f.0.*.+.).).",
").).v 8 I =.W.!.!.M v v v +.F.!.!.R.r.*.+.n ).).",
").).k 7 k l J.Q.!./ l l l n v.Q.!.A.r.q.n f ).).",
").).6 7 q l m.Q.Q.M.+.c j l ~ Q.Q.B.q.( 7 6 ).).",
").).4 4 q q a R.Q.N.v.W h h { Q.R.T q.M 4 4 ).).",
").).1 1 q g g ] Q.Z.e.x g g V.Q.` _ ( j d 1 ).).",
").).- < 3 0 y r b.W.X.b b  .W.` w Q P 3 < = ).).",
").).= - < 3 0 z R $ n.T.T.n.# 9 0 y 0 2 - = ).).",
").).% % ; > 2 i p 2 : + + : 2 2 2 2 > = % % ).).",
").).o & & & * , > * * * * * ; * * * * & & o ).).",
").).X O , w w t r s s s s s u u r w w , O X ).).",
").).).).                                ).).).).",
").).).).).).).).).).).).).).).).).).).).).).).)."
};
