/* XPM */
static char *picasa[] = {
/* columns rows colors chars-per-pixel */
"24 24 189 2",
"   c #000000",
".  c #565656",
"X  c #DF3A3D",
"o  c #F82F33",
"O  c #E03A3D",
"+  c #F93337",
"@  c #F9363A",
"#  c #F9373B",
"$  c #F67A0A",
"%  c #FB7B08",
"&  c #FC7C08",
"*  c #FE7E08",
"=  c #FE7F08",
"-  c #F93D41",
";  c #DE5D5F",
":  c #FA4246",
">  c #FA4549",
",  c #FA4A4E",
"<  c #FA5054",
"1  c #FA565A",
"2  c #E05D60",
"3  c #F9666A",
"4  c #2FAF1D",
"5  c #2DAD1E",
"6  c #2FB01D",
"7  c #34B61B",
"8  c #30B11D",
"9  c #31B31C",
"0  c #32B31C",
"q  c #33B51C",
"w  c #34B51C",
"e  c #36B81B",
"r  c #38BA1A",
"t  c #39BB1A",
"y  c #33AF25",
"u  c #4FAC3E",
"i  c #50AF3B",
"p  c #48B73B",
"a  c #53B337",
"s  c #52B238",
"d  c #51B03A",
"f  c #51B13A",
"g  c #4EA941",
"h  c #54AA4A",
"j  c #52BA46",
"k  c #7AC970",
"l  c #FE8108",
"z  c #FE8308",
"x  c #FE8508",
"c  c #FE8709",
"v  c #FE8809",
"b  c #FE8C09",
"n  c #FE8E09",
"m  c #FE8F09",
"M  c #FE9009",
"N  c #F98216",
"B  c #FD8B24",
"V  c #F58F34",
"C  c #E58F42",
"Z  c #FA9D49",
"A  c #E4A469",
"S  c #E7A469",
"D  c #EBA768",
"F  c #1657AD",
"G  c #155EAE",
"H  c #1C59AC",
"J  c #165CB0",
"K  c #165EB1",
"L  c #1664B5",
"P  c #1668B3",
"I  c #1569B8",
"U  c #9A57B5",
"Y  c #9B58B7",
"T  c #9C58B9",
"R  c #9E5ABB",
"E  c #9F5FBA",
"W  c #A05FBB",
"Q  c #A05EBC",
"!  c #A260BD",
"~  c #A362BE",
"^  c #A972BF",
"/  c #A77BBA",
"(  c #A97FBB",
")  c #A565C0",
"_  c #A567C0",
"`  c #A769C1",
"'  c #A76AC1",
"]  c #A86DC2",
"[  c #AA6FC3",
"{  c #AB70C4",
"}  c #AD72C5",
"|  c #AE75C6",
" . c #B17AC8",
".. c #7293BB",
"X. c #7EA1CF",
"o. c #AA81BB",
"O. c #AF8ABF",
"+. c #DE8183",
"@. c #FA8384",
"#. c #E39597",
"$. c #FA999B",
"%. c #F9ACAD",
"&. c #F9BCBD",
"*. c #90D189",
"=. c #92D18B",
"-. c #ADDBA8",
";. c #B1DCAC",
":. c #B4DEAF",
">. c #C1E3BC",
",. c #B693C4",
"<. c #B796C4",
"1. c #B893C7",
"2. c #BE94D0",
"3. c #88A7C8",
"4. c #A0BBD3",
"5. c #A3BBD9",
"6. c #CCABDB",
"7. c #D5B9E0",
"8. c #ADC2DE",
"9. c #C3C3C3",
"0. c #C5C5C5",
"q. c #CCD4DF",
"w. c #ECDACA",
"e. c #D9E3D8",
"r. c #F9E5CF",
"t. c #EEE6DC",
"y. c #EFE7DD",
"u. c #F5E4D4",
"i. c #F9E5D0",
"p. c #F9E4D2",
"a. c #F0E8DE",
"s. c #F1E9DE",
"d. c #DCC6E5",
"f. c #DED5E2",
"g. c #DCDFE5",
"h. c #E2D1E9",
"j. c #E7DBEC",
"k. c #DCE0E5",
"l. c #DCE1E6",
"z. c #DCE2E7",
"x. c #DCE3E8",
"c. c #DDE3E9",
"v. c #E4E4E4",
"b. c #E5E5E5",
"n. c #E6E6E6",
"m. c #E7E7E7",
"M. c #E6EEE5",
"N. c #E0E6EA",
"B. c #EAE1EE",
"V. c #EBE7ED",
"C. c #E8E8E8",
"Z. c #E9E9E9",
"A. c #E9EBE8",
"S. c #E8EAEB",
"D. c #EAEAEA",
"F. c #EBEBEB",
"G. c #EDEBE8",
"H. c #EBECEA",
"J. c #EBECED",
"K. c #ECECEC",
"L. c #EDEDED",
"P. c #EEEEEE",
"I. c #EFEFEF",
"U. c #F2EAE0",
"Y. c #F3EBE2",
"T. c #F4ECE4",
"R. c #F4ECE5",
"E. c #F0E7EB",
"W. c #F8E6E8",
"Q. c #F5E8EA",
"!. c #F2F0EE",
"~. c #F3F1EF",
"^. c #EEECF0",
"/. c #F0F0F0",
"(. c #F1F0F1",
"). c #F1F1F1",
"_. c #F2F1F2",
"`. c #F2F1F3",
"'. c #F2F2F2",
"]. c #F3F2F2",
"[. c #F3F3F3",
"{. c #F4F1F1",
"}. c #F4F4F4",
"|. c #F5F5F5",
" X c #F6F6F6",
".X c #F7F7F7",
"XX c #F8F8F8",
"oX c #FAFAFA",
"OX c None",
/* pixels */
"OXOXOXOXOXOXOXOXOXOXOXOXOXOXOXOXOXOXOXOXOXOXOXOX",
"OXOXOXOXOXOXOXOXOXOXOXOXOXOXOXOXOXOXOXOXOXOXOXOX",
"OXOXOX XXXoXoXoXoXXXoXoXoXoXoXoXXXoXoXXX.XOXOXOX",
"OXOX'. X[.[. X[. X[. X[. X[.[. X}.}.}.[. X}.OXOX",
"OXOXXX'.'. X[.[.[.#.2 O X ; +.[.[.[.[.[.[.XXOXOX",
"OXOXXX'.'.'.'.<.,.W.3 @ @ + o R.A !.[.[.[.XXOXOX",
"OXOX X'.'././ U T ( Q.@.> : - R.% C !.[.[..XOXOX",
"OXOX X'.'.,.T ~ ` [ ( E.$.< , Y.x & A '.I..XOXOX",
"OXOX'.'.f.Y ~ ` }  .6.V.'.%.1 Y.c l $ w.L. XOXOX",
"OXOX'.L.<.T ~ {  .7.'.'.E.}.&.s.n x * D L.'.OXOX",
"OXOX'.L.{ E ` | d.'.L.I.I.I.'.a.n c * V L.[.OXOX",
"OXOXL.F.E ~ ] h.'.L.L.I.L.I.L.a.M v l N K.E.OXOX",
"OXOXI.L.` ` j.4.N.E.K./.I.I.L.a.n v l B L.L.OXOX",
"OXOXL.F.2.B.3.P c.^.K.K.K.L.K.t.n v l Z L.L.OXOX",
"OXOXF.F.^...G I c.L.K.K.K.G.K.G.r.p.p.u.F.F.OXOX",
"OXOXC.m.q.H K L c.f a a a a i p u g h e.m.m.OXOX",
"OXOXm.m.m.5.F K k.7 r r t r e q 6 4 -.m.m.m.OXOX",
"OXOXv.m.m.C.X.F g.9 7 7 7 w 8 4 4 *.F.m.m.v.OXOX",
"OXOXm.m.m.m.S.8.g.5 4 8 6 6 4 y -.K.m.m.v.v.OXOX",
"OXOXv.v.v.m.m.F.F.>.=.j p k :.M.S.m.m.v.m.m.OXOX",
"OXOX9.m.v.v.v.v.v.m.m.L.L.F.m.v.v.v.v.m.v.9.OXOX",
"OXOX. 0.m.m.m.C.F.F.F.F.L.F.F.F.F.m.m.m.9.. OXOX",
"OXOXOXOX                                OXOXOXOX",
"OXOXOXOXOXOXOXOXOXOXOXOXOXOXOXOXOXOXOXOXOXOXOXOX"
};
