/* XPM */
static char *picasa_fontcfg[] = {
/* columns rows colors chars-per-pixel */
"24 24 221 2",
"   c #000000",
".  c #0D3409",
"X  c #0E3509",
"o  c #0E370A",
"O  c #183312",
"+  c #071F39",
"@  c #2B3E29",
"#  c #4A0E0F",
"$  c #4A0F10",
"%  c #4A1213",
"&  c #4B1617",
"*  c #4B1A1B",
"=  c #521718",
"-  c #4C2A03",
";  c #4C2B03",
":  c #663904",
">  c #741F20",
",  c #422627",
"<  c #562425",
"1  c #224A1C",
"2  c #24501B",
"3  c #1F6F11",
"4  c #354233",
"5  c #364234",
"6  c #4A443E",
"7  c #092549",
"8  c #2C3949",
"9  c #0B3760",
"0  c #0D3A6C",
"q  c #474542",
"w  c #424445",
"e  c #444444",
"r  c #454545",
"t  c #454744",
"y  c #474645",
"u  c #464646",
"i  c #484542",
"p  c #484643",
"a  c #494644",
"s  c #494749",
"d  c #46484A",
"f  c #4B4B4B",
"g  c #515151",
"h  c #525252",
"j  c #535353",
"k  c #565656",
"l  c #595653",
"z  c #585858",
"x  c #5A5A5A",
"c  c #614949",
"v  c #754849",
"b  c #626262",
"n  c #6C6C6D",
"m  c #6D6D6D",
"M  c #797979",
"N  c #7E7E7E",
"B  c #A52426",
"V  c #DA393C",
"C  c #E03A3D",
"Z  c #F9373B",
"A  c #874A05",
"S  c #A95B06",
"D  c #B25F06",
"F  c #CC6906",
"G  c #D57208",
"H  c #EA7307",
"J  c #F67A0A",
"K  c #FC7C08",
"L  c #FE7E08",
"P  c #FE7F08",
"I  c #CD4245",
"U  c #E05D60",
"Y  c #F9666A",
"T  c #E87A7B",
"R  c #238215",
"E  c #27871D",
"W  c #289B1B",
"Q  c #2FAF1D",
"!  c #2DAD1E",
"~  c #2FB01D",
"^  c #34B61B",
"/  c #31B31C",
"(  c #32B31C",
")  c #33B51C",
"_  c #34B51C",
"`  c #36B81B",
"'  c #38BA1A",
"]  c #39BB1A",
"[  c #45972F",
"{  c #46972F",
"}  c #459531",
"|  c #459631",
" . c #48B73B",
".. c #54AA4A",
"X. c #52BA46",
"o. c #75C06B",
"O. c #F68409",
"+. c #FE8108",
"@. c #FE8508",
"#. c #FE8709",
"$. c #F98216",
"%. c #FD8B24",
"&. c #F58F34",
"*. c #8E8377",
"=. c #E58F42",
"-. c #FA9D49",
";. c #E4A469",
":. c #E7A469",
">. c #EBA768",
",. c #124C91",
"<. c #1553A5",
"1. c #145FA3",
"2. c #155EAE",
"3. c #1C59AC",
"4. c #9A57B5",
"5. c #9B58B7",
"6. c #9C58B9",
"7. c #9E5ABB",
"8. c #9F5FBA",
"9. c #A05FBB",
"0. c #A05EBC",
"q. c #A260BD",
"w. c #A362BE",
"e. c #A972BF",
"r. c #A77BBA",
"t. c #A97FBB",
"y. c #A565C0",
"u. c #A567C0",
"i. c #A769C1",
"p. c #A76AC1",
"a. c #A86DC2",
"s. c #AA6FC3",
"d. c #AB70C4",
"f. c #AD72C5",
"g. c #AE75C6",
"h. c #B17AC8",
"j. c #7293BB",
"k. c #858082",
"l. c #8C8C8C",
"z. c #8D9194",
"x. c #919292",
"c. c #9D9D9D",
"v. c #AA81BB",
"b. c #AF8ABF",
"n. c #AD91BA",
"m. c #A3A3A3",
"M. c #A5A5A5",
"N. c #A5A6A7",
"B. c #B3B3B3",
"V. c #B0B5B9",
"C. c #BDBDBD",
"Z. c #BFBFBF",
"A. c #E39597",
"S. c #EEA4A5",
"D. c #92D18B",
"F. c #ABD8A6",
"G. c #C1E3BC",
"H. c #B693C4",
"J. c #B796C4",
"K. c #B893C7",
"L. c #BE94D0",
"P. c #88A7C8",
"I. c #9AADC6",
"U. c #A0BBD3",
"Y. c #A2B9D7",
"T. c #D4B8DF",
"R. c #C3C3C3",
"E. c #C5C5C5",
"W. c #C6C6C6",
"Q. c #C8C8C8",
"!. c #CBCDCB",
"~. c #CDCDCD",
"^. c #CECECE",
"/. c #CCD4DF",
"(. c #D4D1D1",
"). c #D5D5D5",
"_. c #DCDCDC",
"`. c #ECDACA",
"'. c #D9E3D8",
"]. c #F5E4D4",
"[. c #F9E4D2",
"{. c #DCC6E5",
"}. c #DED5E2",
"|. c #DCDFE5",
" X c #E2D1E9",
".X c #E7DBEC",
"XX c #DCE0E5",
"oX c #DCE1E6",
"OX c #E2E2E2",
"+X c #E4E4E4",
"@X c #E5E5E5",
"#X c #E6E6E6",
"$X c #E7E7E7",
"%X c #EAE1EE",
"&X c #E8E8E8",
"*X c #E9E9E9",
"=X c #EAEAEA",
"-X c #EBEBEB",
";X c #ECECEC",
":X c #EDEDED",
">X c #EEEEEE",
",X c #EFEFEF",
"<X c #F8E6E8",
"1X c #F5E8EA",
"2X c #F2F0EE",
"3X c #F3F1EF",
"4X c #EEECF0",
"5X c #F0F0F0",
"6X c #F1F0F1",
"7X c #F1F1F1",
"8X c #F2F1F2",
"9X c #F2F2F2",
"0X c #F3F2F2",
"qX c #F3F3F3",
"wX c #F4F4F4",
"eX c #F5F5F5",
"rX c #F6F6F6",
"tX c #F7F7F7",
"yX c #F8F8F8",
"uX c #FAFAFA",
"iX c None",
/* pixels */
"iXiXiXiXiXiXiXiXiXiXiXiXiXiXiXiXiXiXiXiXiXiXiXiX",
"iXiXiXiXiXiXiXiXiXiXiXiXiXiXiXiXiXiXiXiXiXiXiXiX",
"iXiXiXrXyXuXuXuXuXyXuXuXuXuXuXuXyXyXuXyXtXiXiXiX",
"iXiX9XrXqXqXrXqXrXqXrXqXrX^.m.W.rXqXrXqXrXqXiXiX",
"iXiXyX9X9XrXqXqX1XA.U V V < , M 9X9XqXqXwXyXiXiX",
"iXiXyX9X9X9X9XJ.b.<XY Z B $ $ l ;.9XqXqXqXyXiXiX",
"iXiXrX9X9X5Xr.4.8.v.<XT = > % a H =.2X9X9XtXiXiX",
"iXiXrX9X9XH.6.w.p.a.z.r.v I & i F P ;.7X7XrXiXiX",
"iXiXqX>X}.4.w.p.f.h.n.f (.S.* i S +.J `.>XqXiXiX",
"iXiX9X>XH.7.y.s.h.T.n l.>X9Xc i A #.L >.>X9XiXiX",
"iXiX9X>Xd.8.p.g.{.B.h OX,X,XN i : #.P &.>X9XiXiX",
"iXiX,X-Xq.0.a. X&Xz M.>X>X>Xc.q ; O.+.$.;X1XiXiX",
"iXiX,X>Xp.y..XU.z.b =X>X>X>XC.q ; G +.%.>X>XiXiX",
"iXiX>X&XL.%XP.1.d Z.>X>X>X>X_.q ; D P -.&X>XiXiX",
"iXiX-X&X>Xj.2.9 e f f f f f f r 6 *.[.].&X>XiXiX",
"iXiX&X&X/.3.,.+ V.} [ [ [ [ } 2 O 1 ..'.&X&XiXiX",
"iXiX@X&X&XY.7 0 oX^ ] ] ] ] ` 3 . o F.&X&X@XiXiX",
"iXiX@X@X&XM.8 <.|./ ^ ^ ) ) ) R . @ !.@X@X@XiXiX",
"iXiX@X).Q.h x.I.|.Q Q ~ Q Q W E 4 r c.~.@X@XiXiX",
"iXiX@Xm w r r x &XG.D.X. .o.5 r r r r k @X@XiXiX",
"iXiXR.@X@X@X@X+X@X@X&X>X>X>X@X@X+X@X+X@X+XR.iXiX",
"iXiXk E.@X&X&X&X&X&X>X>X>X>X&X&X&X&X$X$XE.k iXiX",
"iXiXiXiX                                iXiXiXiX",
"iXiXiXiXiXiXiXiXiXiXiXiXiXiXiXiXiXiXiXiXiXiXiXiX"
};
