/* XPM */
static char *terminal[] = {
/* columns rows colors chars-per-pixel */
"24 24 168 2",
"   c #000000",
".  c #060507",
"X  c #09080A",
"o  c #0B0A0D",
"O  c #0E0C10",
"+  c #0E0D10",
"@  c #100E12",
"#  c #110F14",
"$  c #121014",
"%  c #131114",
"&  c #131115",
"*  c #131016",
"=  c #131116",
"-  c #141317",
";  c #151318",
":  c #17141A",
">  c #17151A",
",  c #18141B",
"<  c #18151C",
"1  c #1A171C",
"2  c #1A171D",
"3  c #1B171E",
"4  c #1B181E",
"5  c #1B181F",
"6  c #1C181F",
"7  c #1C1A1F",
"8  c #1D1B1F",
"9  c #1D1921",
"0  c #1E1B20",
"q  c #1F1B23",
"w  c #1F1D20",
"e  c #1F1C21",
"r  c #1F1D22",
"t  c #1F1D23",
"y  c #1F1B24",
"u  c #201B23",
"i  c #201D23",
"p  c #201D25",
"a  c #211E24",
"s  c #211D26",
"d  c #221D26",
"f  c #231E27",
"g  c #231F27",
"h  c #231E28",
"j  c #231F28",
"k  c #231F29",
"l  c #241F29",
"z  c #242027",
"x  c #252128",
"c  c #252129",
"v  c #262229",
"b  c #25202A",
"n  c #26212B",
"m  c #26232A",
"M  c #262429",
"N  c #272429",
"B  c #27242B",
"V  c #26212C",
"C  c #27222C",
"Z  c #28222D",
"A  c #28252D",
"S  c #29252D",
"D  c #29242E",
"F  c #2A252E",
"G  c #2A242F",
"H  c #2A262E",
"J  c #2A2430",
"K  c #2B2530",
"L  c #2B2531",
"P  c #2C2730",
"I  c #2C2632",
"U  c #2D2732",
"Y  c #2D2633",
"T  c #2E2A33",
"R  c #2E2834",
"E  c #2F2934",
"W  c #2F2835",
"Q  c #2F2936",
"!  c #302A36",
"~  c #312A37",
"^  c #312C36",
"/  c #312C37",
"(  c #322C37",
")  c #312E36",
"_  c #322C39",
"`  c #332D39",
"'  c #332C3A",
"]  c #342E39",
"[  c #342D3B",
"{  c #352E3C",
"}  c #36303C",
"|  c #37303E",
" . c #37313E",
".. c #37303F",
"X. c #383140",
"o. c #393140",
"O. c #3A3240",
"+. c #3A3241",
"@. c #3D3546",
"#. c #3E3646",
"$. c #3F3748",
"%. c #403748",
"&. c #433A4C",
"*. c #453C4F",
"=. c #463D50",
"-. c #464646",
";. c #474747",
":. c #4B4055",
">. c #5B585E",
",. c #625F66",
"<. c #68646C",
"1. c #6C696F",
"2. c #6C6A6F",
"3. c #726F76",
"4. c #969696",
"5. c #9A9A9A",
"6. c #9F9F9F",
"7. c #A0A0A0",
"8. c #A5A5A5",
"9. c #A5A3A8",
"0. c #AAAAAA",
"q. c #AFAFAF",
"w. c #B2B1B3",
"e. c #B4B4B4",
"r. c #B9B9B9",
"t. c #BBBBBB",
"y. c #BAB9BD",
"u. c #BDBDBD",
"i. c #BDBCBF",
"p. c #BEBEBE",
"a. c #BFBFBF",
"s. c #BFBEC0",
"d. c #C3C3C3",
"f. c #C5C3C6",
"g. c #C4C4C4",
"h. c #C5C5C5",
"j. c #C6C6C6",
"k. c #C7C7C7",
"l. c #C8C7C9",
"z. c #C8C8C8",
"x. c #C9C9C9",
"c. c #CACACA",
"v. c #CACACB",
"b. c #CCCCCC",
"n. c #CDCDCD",
"m. c #CECECE",
"M. c #D0D0D0",
"N. c #D1D1D1",
"B. c #D2D2D2",
"V. c #D3D3D3",
"C. c #D5D5D5",
"Z. c #D5D4D6",
"A. c #D9D9D9",
"S. c #DAD9DB",
"D. c #DDDDDD",
"F. c #DEDEDE",
"G. c #E0E0E0",
"H. c #E0E0E1",
"J. c #E2E2E2",
"K. c #E3E3E3",
"L. c #E4E4E4",
"P. c #E6E6E6",
"I. c #E7E7E7",
"U. c #EAEAEA",
"Y. c #EDEDED",
"T. c #EFEFEF",
"R. c #F4F4F4",
"E. c None",
/* pixels */
"E.E.E.E.E.E.E.E.E.E.E.E.E.E.E.E.E.E.E.E.E.E.E.E.",
"E.E.E.E.E.E.E.E.E.E.E.E.E.E.E.E.E.E.E.E.E.E.E.E.",
"E.E.E.T.R.R.R.R.R.R.R.R.R.R.R.R.R.R.R.R.T.E.E.E.",
"E.E.U.h.4.4.4.4.4.4.4.4.4.4.4.4.4.4.4.4.h.U.E.E.",
"E.E.T.5.8 % & & % % % % & & % % & & % w 5.T.E.E.",
"E.E.T.6.% 8 0 0 0 w w w 8 0 u 8 0 0 8 % 6.T.E.E.",
"E.E.U.8.% 0 u 0 0 w 8 w w 8 w u w 0 8 % 8.U.E.E.",
"E.E.I.0.% 8 w w w 0 8 z u u u 8 u 0 8 % 0.I.E.E.",
"E.E.L.q.& 8 u w.>.n n z N n z z u w w % q.L.E.E.",
"E.E.G.e.% u z 2.l.s.2.P P P A A n n w % e.H.E.E.",
"E.E.D.r.; n A H ) 9.H._ ( ) ! N h w 2 + t.D.E.E.",
"E.E.A.p.< A T ,.y.f.3.Y n y 8 < : # + . p.A.E.E.",
"E.E.C.g.4 T _ i.<.Z h l l l s 0 9 , # X d.C.E.E.",
"E.E.N.x.4 ' A n V Z J Z.S.S.S.l u 0 , o x.N.E.E.",
"E.E.n.n.2 u s n L R ( {  .} [ Y V s 0 + n.n.E.E.",
"E.E.z.V.+ y n L ( [ o.o.o.{ ' ( Y l y @ N.x.E.E.",
"E.E.d.S.% s A ( { o.#.%.%.#.o.{ R L h # S.d.E.E.",
"E.E.a.F.# n L ' o.#.&.=.=.&.#.o._ Y V * F.p.E.E.",
"E.E.p.K.# l Y '  .%.=.:.:.=.$.o._ Y l % J.p.E.E.",
"E.E.t.J.B : 9 0 l V L R R Y V h y 8 : N J.t.E.E.",
"E.E.7.x.J.I.I.I.I.I.I.I.I.I.I.I.I.I.I.J.x.7.E.E.",
"E.E.;.8.f.h.z.x.n.n.n.N.N.M.n.n.x.l.h.h.8.;.E.E.",
"E.E.E.E.                                E.E.E.E.",
"E.E.E.E.E.E.E.E.E.E.E.E.E.E.E.E.E.E.E.E.E.E.E.E."
};
