/* XPM */
static char *xterm[] = {
/* columns rows colors chars-per-pixel */
"24 24 213 2",
"   c #000000",
".  c #060507",
"X  c #09080A",
"o  c #0B0A0D",
"O  c #0E0C10",
"+  c #0E0D10",
"@  c #100E12",
"#  c #110F14",
"$  c #121014",
"%  c #131114",
"&  c #131115",
"*  c #131016",
"=  c #131116",
"-  c #141317",
";  c #151318",
":  c #17141A",
">  c #17151A",
",  c #18141B",
"<  c #18151C",
"1  c #1A171C",
"2  c #1A171D",
"3  c #1B171E",
"4  c #1B181E",
"5  c #1B181F",
"6  c #1C181F",
"7  c #1C1A1F",
"8  c #1D1B1F",
"9  c #1D1921",
"0  c #1E1B20",
"q  c #1F1B23",
"w  c #1F1D20",
"e  c #1F1C21",
"r  c #1F1D22",
"t  c #1F1D23",
"y  c #1F1B24",
"u  c #201B23",
"i  c #201D23",
"p  c #211E24",
"a  c #221F25",
"s  c #211D26",
"d  c #221D26",
"f  c #221E27",
"g  c #231E27",
"h  c #231F27",
"j  c #231F28",
"k  c #231F29",
"l  c #242027",
"z  c #242127",
"x  c #252129",
"c  c #262229",
"v  c #25202A",
"b  c #26212B",
"n  c #26232A",
"m  c #262429",
"M  c #272429",
"N  c #27242B",
"B  c #26212C",
"V  c #27222C",
"C  c #28232D",
"Z  c #29252D",
"A  c #2A252E",
"S  c #2A242F",
"D  c #2B2530",
"F  c #2B2531",
"G  c #2C2730",
"H  c #2D2932",
"J  c #2E2A33",
"K  c #2E2B33",
"L  c #2F2835",
"P  c #302A35",
"I  c #312B36",
"U  c #312C36",
"Y  c #312C37",
"T  c #322E36",
"R  c #322E37",
"E  c #322C38",
"W  c #332D39",
"Q  c #332C3A",
"!  c #332E3A",
"~  c #352F3B",
"^  c #353238",
"/  c #363339",
"(  c #36303B",
")  c #36313B",
"_  c #35303C",
"`  c #37303F",
"'  c #38343B",
"]  c #39323F",
"[  c #3C393F",
"{  c #393140",
"}  c #3A3240",
"|  c #3A3241",
" . c #3D3546",
".. c #3E3646",
"X. c #3E3746",
"o. c #3E3C41",
"O. c #3F3748",
"+. c #403D43",
"@. c #403B44",
"#. c #403748",
"$. c #433A4C",
"%. c #453C4E",
"&. c #453C4F",
"*. c #463D50",
"=. c #464646",
"-. c #474747",
";. c #48424C",
":. c #48414F",
">. c #48434F",
",. c #4B4551",
"<. c #4B4055",
"1. c #4D4852",
"2. c #4E4953",
"3. c #504E53",
"4. c #504B55",
"5. c #504A56",
"6. c #504B56",
"7. c #504C54",
"8. c #514D54",
"9. c #514959",
"0. c #554F59",
"q. c #565459",
"w. c #58555B",
"e. c #58555C",
"r. c #59565C",
"t. c #59575C",
"y. c #5C595F",
"u. c #605D64",
"i. c #625E67",
"p. c #665F6D",
"a. c #646069",
"s. c #666369",
"d. c #66616A",
"f. c #66626A",
"g. c #67646B",
"h. c #68636C",
"j. c #6B686E",
"k. c #6B6670",
"l. c #6D6972",
"z. c #6F6B72",
"x. c #6F6B74",
"c. c #706E73",
"v. c #706C74",
"b. c #736E77",
"n. c #737176",
"m. c #747079",
"M. c #767379",
"N. c #75717A",
"B. c #767479",
"V. c #78757C",
"C. c #7A767D",
"Z. c #7A777D",
"A. c #7B777F",
"S. c #7E7A82",
"D. c #7E7B82",
"F. c #7F7C83",
"G. c #7F7A85",
"H. c #7F7C84",
"J. c #807C83",
"K. c #817D85",
"L. c #817D86",
"P. c #827E86",
"I. c #837F87",
"U. c #858189",
"Y. c #868189",
"T. c #86828A",
"R. c #86828B",
"E. c #88838C",
"W. c #89848D",
"Q. c #969696",
"!. c #9A9A9A",
"~. c #9F9F9F",
"^. c #A0A0A0",
"/. c #A5A5A5",
"(. c #AAAAAA",
"). c #AFAFAF",
"_. c #B4B4B4",
"`. c #B9B9B9",
"'. c #BBBBBB",
"]. c #BDBDBD",
"[. c #BEBEBE",
"{. c #BFBFBF",
"}. c #C3C3C3",
"|. c #C4C4C4",
" X c #C5C5C5",
".X c #C6C6C6",
"XX c #C7C7C7",
"oX c #C8C8C8",
"OX c #C9C9C9",
"+X c #CACACA",
"@X c #CACACB",
"#X c #CCCCCC",
"$X c #CDCDCD",
"%X c #CECECE",
"&X c #D0D0D0",
"*X c #D1D1D1",
"=X c #D2D2D2",
"-X c #D3D3D3",
";X c #D5D5D5",
":X c #D9D9D9",
">X c #DDDDDD",
",X c #DEDEDE",
"<X c #E0E0E0",
"1X c #E2E2E2",
"2X c #E3E3E3",
"3X c #E4E4E4",
"4X c #E6E6E6",
"5X c #E7E7E7",
"6X c #EAEAEA",
"7X c #EDEDED",
"8X c #EFEFEF",
"9X c #F4F4F4",
"0X c None",
/* pixels */
"0X0X0X0X0X0X0X0X0X0X0X0X0X0X0X0X0X0X0X0X0X0X0X0X",
"0X0X0X0X0X0X0X0X0X0X0X0X0X0X0X0X0X0X0X0X0X0X0X0X",
"0X0X0X8X9X9X9X9X9X9X9X9X9X9X9X9X9X9X9X9X8X0X0X0X",
"0X0X6X XQ.Q.Q.Q.Q.Q.Q.Q.Q.Q.Q.Q.Q.Q.Q.Q. X6X0X0X",
"0X0X8X!.8 % % % % % % % % % % % % % % w !.8X0X0X",
"0X0X8X~.% 8 w.n.n.^ 0 8 0 0 0 0 / w.8 % ~.8X0X0X",
"0X0X6X/.% 0 M c.B.j.l e e e e z d.m 8 % /.6X0X0X",
"0X0X5X(.% 8 e o.B.B.3.t t e e q.[ u 8 % (.5X0X0X",
"0X0X3X).% e e d u.Z.Z.' c c o.y.d i 8 % ).3X0X0X",
"0X0X<X_.% e l c T V.S.z.J T v.J c h i % _.<X0X0X",
"0X0X>X`.% c Z J J 5.L.G.0.h.;.V k i 9 + `.>X0X0X",
"0X0X:X[.> D J P ! ^ x.S.3.t.4 < ; # O . [.:X0X0X",
"0X0X;X}.< P ! ~ T Z t.2.M.g.j 0 9 , # X }.;X0X0X",
"0X0X*XOX0 P A c k X.d.1.J.J.2.k s 0 ; o OX*X0X0X",
"0X0X$X$X< u d V P m.{ Q m.I.G.^ V d 0 + $X$X0X0X",
"0X0X X;X@ y V F i.5.{ ' <.R.I.x.F k y @ *XOX0X0X",
"0X0X}.:X% j S :.k.{  .#.#.p.E.R.9.D j # :X}.0X0X",
"0X0X[.,X# V Q M. . .%.*.*.%.J.E.L.! c * ,X{.0X0X",
"0X0X[.3X* k u.,.{ O.*.*.<.*.9.I.L.i.c * 2X[.0X0X",
"0X0X'.1XN ; 9 y d S L J P D V j u 8 , c 1X'.0X0X",
"0X0X^.@X1X5X5X5X5X5X5X5X5X5X5X5X5X5X5X1X@X^.0X0X",
"0X0X-./. X X XOX$X$X$X*X*X&X$X$XOXoX X X/.=.0X0X",
"0X0X0X0X                                0X0X0X0X",
"0X0X0X0X0X0X0X0X0X0X0X0X0X0X0X0X0X0X0X0X0X0X0X0X"
};
